<?xml version="1.0" encoding="UTF-8" standalone="no"?><svg xmlns="http://www.w3.org/2000/svg" xmlns:xlink="http://www.w3.org/1999/xlink" contentScriptType="application/ecmascript" contentStyleType="text/css" height="812px" preserveAspectRatio="none" style="width:554px;height:812px;" version="1.1" viewBox="0 0 554 812" width="554.4px" zoomAndPan="magnify"><defs><filter height="300%" id="f1uuunrxw807aa" width="300%" x="-1" y="-1"><feGaussianBlur result="blurOut" stdDeviation="1.6"/><feColorMatrix in="blurOut" result="blurOut2" type="matrix" values="0 0 0 0 0 0 0 0 0 0 0 0 0 0 0 0 0 0 .4 0"/><feOffset dx="3.2" dy="3.2" in="blurOut2" result="blurOut3"/><feBlend in="SourceGraphic" in2="blurOut3" mode="normal"/></filter></defs><g><!--MD5=[67de922c3cb216337ce05d80892b06aa]
class CreateEmployeeUI--><rect codeLine="1" fill="#FEFECE" filter="url(#f1uuunrxw807aa)" height="38.4" id="CreateEmployeeUI" style="stroke:#A80036;stroke-width:1.2000000000000002;" width="108.8" x="87.6" y="5.6"/><ellipse cx="99.6" cy="18.4" fill="#ADD1B2" rx="8.8" ry="8.8" style="stroke:#A80036;stroke-width:0.8;"/><path d="M101.2,15.6 Q101.3625,15.2 101.55,15 Q101.7375,14.8 101.95,14.8 Q102.325,14.8 102.5625,15.025 Q102.8,15.25 102.8,15.775 L102.8,17.025 Q102.8,17.55 102.575,17.775 Q102.35,18 102,18 Q101.6875,18 101.4875,17.8625 Q101.2875,17.725 101.2,17.3625 Q101.1625,17.1125 101.025,16.975 Q100.775,16.7125 100.325,16.5625 Q99.875,16.4 99.425,16.4 Q98.8625,16.4 98.3875,16.625 Q97.925,16.85 97.5625,17.35 Q97.2,17.85 97.2,18.5375 L97.2,19.275 Q97.2,20.1 97.875,20.65 Q98.55,21.2 99.75,21.2 Q100.4625,21.2 100.9625,21.0375 Q101.25,20.95 101.575,20.6625 Q101.7875,20.5 101.9,20.45 Q102.0125,20.4 102.15,20.4 Q102.4125,20.4 102.6,20.6125 Q102.8,20.8125 102.8,21.1 Q102.8,21.375 102.525,21.7 Q102.125,22.175 101.4875,22.4375 Q100.65,22.8 99.625,22.8 Q98.425,22.8 97.4625,22.325 Q96.6875,21.95 96.1375,21.1375 Q95.6,20.325 95.6,19.3625 L95.6,18.4875 Q95.6,17.4875 96.075,16.6125 Q96.5625,15.7375 97.4,15.275 Q98.25,14.8 99.2,14.8 Q99.775,14.8 100.275,15 Q100.775,15.2 101.2,15.6 Z " fill="#000000"/><text fill="#000000" font-family="sans-serif" font-size="9.6" lengthAdjust="spacing" textLength="83.2" x="110.8" y="22.3281">CreateEmployeeUI</text><line style="stroke:#A80036;stroke-width:1.2000000000000002;" x1="88.4" x2="195.6" y1="31.2" y2="31.2"/><line style="stroke:#A80036;stroke-width:1.2000000000000002;" x1="88.4" x2="195.6" y1="37.6" y2="37.6"/><!--MD5=[be8824f3bfb393c5e5bcc35b042bc2db]
class CreateEmployeeController--><rect codeLine="2" fill="#FEFECE" filter="url(#f1uuunrxw807aa)" height="104.8125" id="CreateEmployeeController" style="stroke:#A80036;stroke-width:1.2000000000000002;" width="240" x="22" y="92.8"/><ellipse cx="80.2" cy="105.6" fill="#ADD1B2" rx="8.8" ry="8.8" style="stroke:#A80036;stroke-width:0.8;"/><path d="M81.8,102.8 Q81.9625,102.4 82.15,102.2 Q82.3375,102 82.55,102 Q82.925,102 83.1625,102.225 Q83.4,102.45 83.4,102.975 L83.4,104.225 Q83.4,104.75 83.175,104.975 Q82.95,105.2 82.6,105.2 Q82.2875,105.2 82.0875,105.0625 Q81.8875,104.925 81.8,104.5625 Q81.7625,104.3125 81.625,104.175 Q81.375,103.9125 80.925,103.7625 Q80.475,103.6 80.025,103.6 Q79.4625,103.6 78.9875,103.825 Q78.525,104.05 78.1625,104.55 Q77.8,105.05 77.8,105.7375 L77.8,106.475 Q77.8,107.3 78.475,107.85 Q79.15,108.4 80.35,108.4 Q81.0625,108.4 81.5625,108.2375 Q81.85,108.15 82.175,107.8625 Q82.3875,107.7 82.5,107.65 Q82.6125,107.6 82.75,107.6 Q83.0125,107.6 83.2,107.8125 Q83.4,108.0125 83.4,108.3 Q83.4,108.575 83.125,108.9 Q82.725,109.375 82.0875,109.6375 Q81.25,110 80.225,110 Q79.025,110 78.0625,109.525 Q77.2875,109.15 76.7375,108.3375 Q76.2,107.525 76.2,106.5625 L76.2,105.6875 Q76.2,104.6875 76.675,103.8125 Q77.1625,102.9375 78,102.475 Q78.85,102 79.8,102 Q80.375,102 80.875,102.2 Q81.375,102.4 81.8,102.8 Z " fill="#000000"/><text fill="#000000" font-family="sans-serif" font-size="9.6" lengthAdjust="spacing" textLength="116.8" x="96.6" y="109.5281">CreateEmployeeController</text><line style="stroke:#A80036;stroke-width:1.2000000000000002;" x1="22.8" x2="261.2" y1="118.4" y2="118.4"/><line style="stroke:#A80036;stroke-width:1.2000000000000002;" x1="22.8" x2="261.2" y1="124.8" y2="124.8"/><text fill="#000000" font-family="sans-serif" font-size="8.8" lengthAdjust="spacing" textLength="105.6" x="26.8" y="137.1352">CreateEmployeeController()</text><text fill="#000000" font-family="sans-serif" font-size="8.8" lengthAdjust="spacing" textLength="88.8" x="26.8" y="148.2039">getOrganizationRoles()</text><text fill="#000000" font-family="sans-serif" font-size="8.8" lengthAdjust="spacing" textLength="82.4" x="26.8" y="159.2727">createEmployee(role)</text><text fill="#000000" font-family="sans-serif" font-size="8.8" lengthAdjust="spacing" textLength="212.8" x="26.8" y="170.3414">setEmployeeData(name, address, phoneNumber, email)</text><text fill="#000000" font-family="sans-serif" font-size="8.8" lengthAdjust="spacing" textLength="230.4" x="26.8" y="181.4102">setEmployeeData(name, address, phoneNumber, email, DIN)</text><text fill="#000000" font-family="sans-serif" font-size="8.8" lengthAdjust="spacing" textLength="99.2" x="26.8" y="192.4789">saveEmployee(employee)</text><!--MD5=[02e4b9b7573f1156f41e60aa5b4e25a4]
class Company--><rect codeLine="10" fill="#FEFECE" filter="url(#f1uuunrxw807aa)" height="93.7438" id="Company" style="stroke:#A80036;stroke-width:1.2000000000000002;" width="108.8" x="290" y="98.4"/><ellipse cx="320.36" cy="111.2" fill="#ADD1B2" rx="8.8" ry="8.8" style="stroke:#A80036;stroke-width:0.8;"/><path d="M321.96,108.4 Q322.1225,108 322.31,107.8 Q322.4975,107.6 322.71,107.6 Q323.085,107.6 323.3225,107.825 Q323.56,108.05 323.56,108.575 L323.56,109.825 Q323.56,110.35 323.335,110.575 Q323.11,110.8 322.76,110.8 Q322.4475,110.8 322.2475,110.6625 Q322.0475,110.525 321.96,110.1625 Q321.9225,109.9125 321.785,109.775 Q321.535,109.5125 321.085,109.3625 Q320.635,109.2 320.185,109.2 Q319.6225,109.2 319.1475,109.425 Q318.685,109.65 318.3225,110.15 Q317.96,110.65 317.96,111.3375 L317.96,112.075 Q317.96,112.9 318.635,113.45 Q319.31,114 320.51,114 Q321.2225,114 321.7225,113.8375 Q322.01,113.75 322.335,113.4625 Q322.5475,113.3 322.66,113.25 Q322.7725,113.2 322.91,113.2 Q323.1725,113.2 323.36,113.4125 Q323.56,113.6125 323.56,113.9 Q323.56,114.175 323.285,114.5 Q322.885,114.975 322.2475,115.2375 Q321.41,115.6 320.385,115.6 Q319.185,115.6 318.2225,115.125 Q317.4475,114.75 316.8975,113.9375 Q316.36,113.125 316.36,112.1625 L316.36,111.2875 Q316.36,110.2875 316.835,109.4125 Q317.3225,108.5375 318.16,108.075 Q319.01,107.6 319.96,107.6 Q320.535,107.6 321.035,107.8 Q321.535,108 321.96,108.4 Z " fill="#000000"/><text fill="#000000" font-family="sans-serif" font-size="9.6" lengthAdjust="spacing" textLength="42.4" x="335.64" y="115.1281">Company</text><line style="stroke:#A80036;stroke-width:1.2000000000000002;" x1="290.8" x2="398" y1="124" y2="124"/><text fill="#000000" font-family="sans-serif" font-size="8.8" lengthAdjust="spacing" textLength="44" x="294.8" y="136.3352">designation</text><line style="stroke:#A80036;stroke-width:1.2000000000000002;" x1="290.8" x2="398" y1="141.4688" y2="141.4688"/><text fill="#000000" font-family="sans-serif" font-size="8.8" lengthAdjust="spacing" textLength="70.4" x="294.8" y="153.8039">getOrgRoleStore()</text><text fill="#000000" font-family="sans-serif" font-size="8.8" lengthAdjust="spacing" textLength="76" x="294.8" y="164.8727">getEmployeeStore()</text><text fill="#000000" font-family="sans-serif" font-size="8.8" lengthAdjust="spacing" textLength="61.6" x="294.8" y="175.9414">saveUser(user)</text><text fill="#000000" font-family="sans-serif" font-size="8.8" lengthAdjust="spacing" textLength="99.2" x="294.8" y="187.0102">generateUserPassword()</text><!--MD5=[829fb52c07ade3ad64ef85b99d1fca10]
class EmployeeStore--><rect codeLine="17" fill="#FEFECE" filter="url(#f1uuunrxw807aa)" height="93.7438" id="EmployeeStore" style="stroke:#A80036;stroke-width:1.2000000000000002;" width="130.4" x="210.4" y="260"/><ellipse cx="239.32" cy="272.8" fill="#ADD1B2" rx="8.8" ry="8.8" style="stroke:#A80036;stroke-width:0.8;"/><path d="M240.92,270 Q241.0825,269.6 241.27,269.4 Q241.4575,269.2 241.67,269.2 Q242.045,269.2 242.2825,269.425 Q242.52,269.65 242.52,270.175 L242.52,271.425 Q242.52,271.95 242.295,272.175 Q242.07,272.4 241.72,272.4 Q241.4075,272.4 241.2075,272.2625 Q241.0075,272.125 240.92,271.7625 Q240.8825,271.5125 240.745,271.375 Q240.495,271.1125 240.045,270.9625 Q239.595,270.8 239.145,270.8 Q238.5825,270.8 238.1075,271.025 Q237.645,271.25 237.2825,271.75 Q236.92,272.25 236.92,272.9375 L236.92,273.675 Q236.92,274.5 237.595,275.05 Q238.27,275.6 239.47,275.6 Q240.1825,275.6 240.6825,275.4375 Q240.97,275.35 241.295,275.0625 Q241.5075,274.9 241.62,274.85 Q241.7325,274.8 241.87,274.8 Q242.1325,274.8 242.32,275.0125 Q242.52,275.2125 242.52,275.5 Q242.52,275.775 242.245,276.1 Q241.845,276.575 241.2075,276.8375 Q240.37,277.2 239.345,277.2 Q238.145,277.2 237.1825,276.725 Q236.4075,276.35 235.8575,275.5375 Q235.32,274.725 235.32,273.7625 L235.32,272.8875 Q235.32,271.8875 235.795,271.0125 Q236.2825,270.1375 237.12,269.675 Q237.97,269.2 238.92,269.2 Q239.495,269.2 239.995,269.4 Q240.495,269.6 240.92,270 Z " fill="#000000"/><text fill="#000000" font-family="sans-serif" font-size="9.6" lengthAdjust="spacing" textLength="67.2" x="254.28" y="276.7281">EmployeeStore</text><line style="stroke:#A80036;stroke-width:1.2000000000000002;" x1="211.2" x2="340" y1="285.6" y2="285.6"/><text fill="#000000" font-family="sans-serif" font-size="8.8" lengthAdjust="spacing" textLength="6.4" x="215.2" y="297.9352">id</text><text fill="#000000" font-family="sans-serif" font-size="8.8" lengthAdjust="spacing" textLength="50.4" x="215.2" y="309.0039">employeeList</text><line style="stroke:#A80036;stroke-width:1.2000000000000002;" x1="211.2" x2="340" y1="314.1375" y2="314.1375"/><text fill="#000000" font-family="sans-serif" font-size="8.8" lengthAdjust="spacing" textLength="120.8" x="215.2" y="326.4727">generateEmployeeId(employee)</text><text fill="#000000" font-family="sans-serif" font-size="8.8" lengthAdjust="spacing" textLength="94.4" x="215.2" y="337.5414">addEmployee(employee)</text><text fill="#000000" font-family="sans-serif" font-size="8.8" lengthAdjust="spacing" textLength="109.6" x="215.2" y="348.6102">validateEmployee(employee)</text><!--MD5=[3572dfd8264501ae3ffa24f4e69e1c38]
class OrgRoleStore--><rect codeLine="24" fill="#FEFECE" filter="url(#f1uuunrxw807aa)" height="71.6063" id="OrgRoleStore" style="stroke:#A80036;stroke-width:1.2000000000000002;" width="137.6" x="332.4" y="377.6"/><ellipse cx="367.8" cy="390.4" fill="#ADD1B2" rx="8.8" ry="8.8" style="stroke:#A80036;stroke-width:0.8;"/><path d="M369.4,387.6 Q369.5625,387.2 369.75,387 Q369.9375,386.8 370.15,386.8 Q370.525,386.8 370.7625,387.025 Q371,387.25 371,387.775 L371,389.025 Q371,389.55 370.775,389.775 Q370.55,390 370.2,390 Q369.8875,390 369.6875,389.8625 Q369.4875,389.725 369.4,389.3625 Q369.3625,389.1125 369.225,388.975 Q368.975,388.7125 368.525,388.5625 Q368.075,388.4 367.625,388.4 Q367.0625,388.4 366.5875,388.625 Q366.125,388.85 365.7625,389.35 Q365.4,389.85 365.4,390.5375 L365.4,391.275 Q365.4,392.1 366.075,392.65 Q366.75,393.2 367.95,393.2 Q368.6625,393.2 369.1625,393.0375 Q369.45,392.95 369.775,392.6625 Q369.9875,392.5 370.1,392.45 Q370.2125,392.4 370.35,392.4 Q370.6125,392.4 370.8,392.6125 Q371,392.8125 371,393.1 Q371,393.375 370.725,393.7 Q370.325,394.175 369.6875,394.4375 Q368.85,394.8 367.825,394.8 Q366.625,394.8 365.6625,394.325 Q364.8875,393.95 364.3375,393.1375 Q363.8,392.325 363.8,391.3625 L363.8,390.4875 Q363.8,389.4875 364.275,388.6125 Q364.7625,387.7375 365.6,387.275 Q366.45,386.8 367.4,386.8 Q367.975,386.8 368.475,387 Q368.975,387.2 369.4,387.6 Z " fill="#000000"/><text fill="#000000" font-family="sans-serif" font-size="9.6" lengthAdjust="spacing" textLength="60" x="384.2" y="394.3281">OrgRoleStore</text><line style="stroke:#A80036;stroke-width:1.2000000000000002;" x1="333.2" x2="469.2" y1="403.2" y2="403.2"/><text fill="#000000" font-family="sans-serif" font-size="8.8" lengthAdjust="spacing" textLength="32.8" x="337.2" y="415.5352">rolesList</text><line style="stroke:#A80036;stroke-width:1.2000000000000002;" x1="333.2" x2="469.2" y1="420.6688" y2="420.6688"/><text fill="#000000" font-family="sans-serif" font-size="8.8" lengthAdjust="spacing" textLength="88.8" x="337.2" y="433.0039">getOrganizationRoles()</text><text fill="#000000" font-family="sans-serif" font-size="8.8" lengthAdjust="spacing" textLength="128" x="337.2" y="444.0727">getOrganizationRole(designation)</text><!--MD5=[7421f545a0d8420c5bec41e74b387d9c]
class Employee--><rect codeLine="29" fill="#FEFECE" filter="url(#f1uuunrxw807aa)" height="182.2938" id="Employee" style="stroke:#A80036;stroke-width:1.2000000000000002;" width="231.2" x="128.8" y="473.6"/><ellipse cx="219" cy="486.4" fill="#ADD1B2" rx="8.8" ry="8.8" style="stroke:#A80036;stroke-width:0.8;"/><path d="M220.6,483.6 Q220.7625,483.2 220.95,483 Q221.1375,482.8 221.35,482.8 Q221.725,482.8 221.9625,483.025 Q222.2,483.25 222.2,483.775 L222.2,485.025 Q222.2,485.55 221.975,485.775 Q221.75,486 221.4,486 Q221.0875,486 220.8875,485.8625 Q220.6875,485.725 220.6,485.3625 Q220.5625,485.1125 220.425,484.975 Q220.175,484.7125 219.725,484.5625 Q219.275,484.4 218.825,484.4 Q218.2625,484.4 217.7875,484.625 Q217.325,484.85 216.9625,485.35 Q216.6,485.85 216.6,486.5375 L216.6,487.275 Q216.6,488.1 217.275,488.65 Q217.95,489.2 219.15,489.2 Q219.8625,489.2 220.3625,489.0375 Q220.65,488.95 220.975,488.6625 Q221.1875,488.5 221.3,488.45 Q221.4125,488.4 221.55,488.4 Q221.8125,488.4 222,488.6125 Q222.2,488.8125 222.2,489.1 Q222.2,489.375 221.925,489.7 Q221.525,490.175 220.8875,490.4375 Q220.05,490.8 219.025,490.8 Q217.825,490.8 216.8625,490.325 Q216.0875,489.95 215.5375,489.1375 Q215,488.325 215,487.3625 L215,486.4875 Q215,485.4875 215.475,484.6125 Q215.9625,483.7375 216.8,483.275 Q217.65,482.8 218.6,482.8 Q219.175,482.8 219.675,483 Q220.175,483.2 220.6,483.6 Z " fill="#000000"/><text fill="#000000" font-family="sans-serif" font-size="9.6" lengthAdjust="spacing" textLength="44" x="235.4" y="490.3281">Employee</text><line style="stroke:#A80036;stroke-width:1.2000000000000002;" x1="129.6" x2="359.2" y1="499.2" y2="499.2"/><text fill="#000000" font-family="sans-serif" font-size="8.8" lengthAdjust="spacing" textLength="6.4" x="133.6" y="511.5352">id</text><text fill="#000000" font-family="sans-serif" font-size="8.8" lengthAdjust="spacing" textLength="20.8" x="133.6" y="522.6039">name</text><text fill="#000000" font-family="sans-serif" font-size="8.8" lengthAdjust="spacing" textLength="32" x="133.6" y="533.6727">address</text><text fill="#000000" font-family="sans-serif" font-size="8.8" lengthAdjust="spacing" textLength="19.2" x="133.6" y="544.7414">email</text><text fill="#000000" font-family="sans-serif" font-size="8.8" lengthAdjust="spacing" textLength="53.6" x="133.6" y="555.8102">phoneNumber</text><text fill="#000000" font-family="sans-serif" font-size="8.8" lengthAdjust="spacing" textLength="34.4" x="133.6" y="566.8789">socCode</text><text fill="#000000" font-family="sans-serif" font-size="8.8" lengthAdjust="spacing" textLength="64" x="133.6" y="577.9477">organizationRole</text><line style="stroke:#A80036;stroke-width:1.2000000000000002;" x1="129.6" x2="359.2" y1="583.0813" y2="583.0813"/><text fill="#000000" font-family="sans-serif" font-size="8.8" lengthAdjust="spacing" textLength="221.6" x="133.6" y="595.4164">Employee(role, name, address, phoneNumber, email, soc)</text><text fill="#000000" font-family="sans-serif" font-size="8.8" lengthAdjust="spacing" textLength="78.4" x="133.6" y="606.4852">validateName(name)</text><text fill="#000000" font-family="sans-serif" font-size="8.8" lengthAdjust="spacing" textLength="101.6" x="133.6" y="617.5539">validateAddress(address)</text><text fill="#000000" font-family="sans-serif" font-size="8.8" lengthAdjust="spacing" textLength="74.4" x="133.6" y="628.6227">validateEmail(email)</text><text fill="#000000" font-family="sans-serif" font-size="8.8" lengthAdjust="spacing" textLength="143.2" x="133.6" y="639.6914">validatePhoneNumber(phoneNumber)</text><text fill="#000000" font-family="sans-serif" font-size="8.8" lengthAdjust="spacing" textLength="85.6" x="133.6" y="650.7602">validateSocCode(soc)</text><!--MD5=[12e90e92236ca84f203192a07d84ec5e]
class OrganizationRole--><rect codeLine="44" fill="#FEFECE" filter="url(#f1uuunrxw807aa)" height="82.675" id="OrganizationRole" style="stroke:#A80036;stroke-width:1.2000000000000002;" width="254.4" x="289.2" y="718.4"/><ellipse cx="375" cy="731.2" fill="#ADD1B2" rx="8.8" ry="8.8" style="stroke:#A80036;stroke-width:0.8;"/><path d="M376.6,728.4 Q376.7625,728 376.95,727.8 Q377.1375,727.6 377.35,727.6 Q377.725,727.6 377.9625,727.825 Q378.2,728.05 378.2,728.575 L378.2,729.825 Q378.2,730.35 377.975,730.575 Q377.75,730.8 377.4,730.8 Q377.0875,730.8 376.8875,730.6625 Q376.6875,730.525 376.6,730.1625 Q376.5625,729.9125 376.425,729.775 Q376.175,729.5125 375.725,729.3625 Q375.275,729.2 374.825,729.2 Q374.2625,729.2 373.7875,729.425 Q373.325,729.65 372.9625,730.15 Q372.6,730.65 372.6,731.3375 L372.6,732.075 Q372.6,732.9 373.275,733.45 Q373.95,734 375.15,734 Q375.8625,734 376.3625,733.8375 Q376.65,733.75 376.975,733.4625 Q377.1875,733.3 377.3,733.25 Q377.4125,733.2 377.55,733.2 Q377.8125,733.2 378,733.4125 Q378.2,733.6125 378.2,733.9 Q378.2,734.175 377.925,734.5 Q377.525,734.975 376.8875,735.2375 Q376.05,735.6 375.025,735.6 Q373.825,735.6 372.8625,735.125 Q372.0875,734.75 371.5375,733.9375 Q371,733.125 371,732.1625 L371,731.2875 Q371,730.2875 371.475,729.4125 Q371.9625,728.5375 372.8,728.075 Q373.65,727.6 374.6,727.6 Q375.175,727.6 375.675,727.8 Q376.175,728 376.6,728.4 Z " fill="#000000"/><text fill="#000000" font-family="sans-serif" font-size="9.6" lengthAdjust="spacing" textLength="76" x="391.4" y="735.1281">OrganizationRole</text><line style="stroke:#A80036;stroke-width:1.2000000000000002;" x1="290" x2="542.8" y1="744" y2="744"/><text fill="#000000" font-family="sans-serif" font-size="8.8" lengthAdjust="spacing" textLength="6.4" x="294" y="756.3352">id</text><text fill="#000000" font-family="sans-serif" font-size="8.8" lengthAdjust="spacing" textLength="42.4" x="294" y="767.4039">description</text><line style="stroke:#A80036;stroke-width:1.2000000000000002;" x1="290" x2="542.8" y1="772.5375" y2="772.5375"/><text fill="#000000" font-family="sans-serif" font-size="8.8" lengthAdjust="spacing" textLength="227.2" x="294" y="784.8727">createEmployee(role, name, address, phoneNumber, email)</text><text fill="#000000" font-family="sans-serif" font-size="8.8" lengthAdjust="spacing" textLength="244.8" x="294" y="795.9414">createEmployee(role, name, address, phoneNumber, email, DIN)</text><!--MD5=[7d96fd15f3014691d2fcaf89c5791e2a]
class SpecialistDoctor--><rect codeLine="50" fill="#FEFECE" filter="url(#f1uuunrxw807aa)" height="82.675" id="SpecialistDoctor" style="stroke:#A80036;stroke-width:1.2000000000000002;" width="255.2" x="5.6" y="718.4"/><ellipse cx="93.8" cy="731.2" fill="#ADD1B2" rx="8.8" ry="8.8" style="stroke:#A80036;stroke-width:0.8;"/><path d="M95.4,728.4 Q95.5625,728 95.75,727.8 Q95.9375,727.6 96.15,727.6 Q96.525,727.6 96.7625,727.825 Q97,728.05 97,728.575 L97,729.825 Q97,730.35 96.775,730.575 Q96.55,730.8 96.2,730.8 Q95.8875,730.8 95.6875,730.6625 Q95.4875,730.525 95.4,730.1625 Q95.3625,729.9125 95.225,729.775 Q94.975,729.5125 94.525,729.3625 Q94.075,729.2 93.625,729.2 Q93.0625,729.2 92.5875,729.425 Q92.125,729.65 91.7625,730.15 Q91.4,730.65 91.4,731.3375 L91.4,732.075 Q91.4,732.9 92.075,733.45 Q92.75,734 93.95,734 Q94.6625,734 95.1625,733.8375 Q95.45,733.75 95.775,733.4625 Q95.9875,733.3 96.1,733.25 Q96.2125,733.2 96.35,733.2 Q96.6125,733.2 96.8,733.4125 Q97,733.6125 97,733.9 Q97,734.175 96.725,734.5 Q96.325,734.975 95.6875,735.2375 Q94.85,735.6 93.825,735.6 Q92.625,735.6 91.6625,735.125 Q90.8875,734.75 90.3375,733.9375 Q89.8,733.125 89.8,732.1625 L89.8,731.2875 Q89.8,730.2875 90.275,729.4125 Q90.7625,728.5375 91.6,728.075 Q92.45,727.6 93.4,727.6 Q93.975,727.6 94.475,727.8 Q94.975,728 95.4,728.4 Z " fill="#000000"/><text fill="#000000" font-family="sans-serif" font-size="9.6" lengthAdjust="spacing" textLength="72" x="110.2" y="735.1281">SpecialistDoctor</text><line style="stroke:#A80036;stroke-width:1.2000000000000002;" x1="6.4" x2="260" y1="744" y2="744"/><text fill="#000000" font-family="sans-serif" font-size="8.8" lengthAdjust="spacing" textLength="75.2" x="10.4" y="756.3352">doctorIndexNumber</text><line style="stroke:#A80036;stroke-width:1.2000000000000002;" x1="6.4" x2="260" y1="761.4688" y2="761.4688"/><text fill="#000000" font-family="sans-serif" font-size="8.8" lengthAdjust="spacing" textLength="245.6" x="10.4" y="773.8039">SpecialistDoctor(role, name, address, phoneNumber, email, DIN)</text><text fill="#000000" font-family="sans-serif" font-size="8.8" lengthAdjust="spacing" textLength="42.4" x="10.4" y="784.8727">setDIN(din)</text><text fill="#000000" font-family="sans-serif" font-size="8.8" lengthAdjust="spacing" textLength="60" x="10.4" y="795.9414">validateDIN(din)</text><!--MD5=[8ae808d068a8995f06b9b3ec51357f0b]
class AuthFacade--><rect codeLine="56" fill="#FEFECE" filter="url(#f1uuunrxw807aa)" height="38.4" id="AuthFacade" style="stroke:#A80036;stroke-width:1.2000000000000002;" width="77.6" x="427.2" y="126"/><ellipse cx="439.2" cy="138.8" fill="#ADD1B2" rx="8.8" ry="8.8" style="stroke:#A80036;stroke-width:0.8;"/><path d="M440.8,136 Q440.9625,135.6 441.15,135.4 Q441.3375,135.2 441.55,135.2 Q441.925,135.2 442.1625,135.425 Q442.4,135.65 442.4,136.175 L442.4,137.425 Q442.4,137.95 442.175,138.175 Q441.95,138.4 441.6,138.4 Q441.2875,138.4 441.0875,138.2625 Q440.8875,138.125 440.8,137.7625 Q440.7625,137.5125 440.625,137.375 Q440.375,137.1125 439.925,136.9625 Q439.475,136.8 439.025,136.8 Q438.4625,136.8 437.9875,137.025 Q437.525,137.25 437.1625,137.75 Q436.8,138.25 436.8,138.9375 L436.8,139.675 Q436.8,140.5 437.475,141.05 Q438.15,141.6 439.35,141.6 Q440.0625,141.6 440.5625,141.4375 Q440.85,141.35 441.175,141.0625 Q441.3875,140.9 441.5,140.85 Q441.6125,140.8 441.75,140.8 Q442.0125,140.8 442.2,141.0125 Q442.4,141.2125 442.4,141.5 Q442.4,141.775 442.125,142.1 Q441.725,142.575 441.0875,142.8375 Q440.25,143.2 439.225,143.2 Q438.025,143.2 437.0625,142.725 Q436.2875,142.35 435.7375,141.5375 Q435.2,140.725 435.2,139.7625 L435.2,138.8875 Q435.2,137.8875 435.675,137.0125 Q436.1625,136.1375 437,135.675 Q437.85,135.2 438.8,135.2 Q439.375,135.2 439.875,135.4 Q440.375,135.6 440.8,136 Z " fill="#000000"/><text fill="#000000" font-family="sans-serif" font-size="9.6" lengthAdjust="spacing" textLength="52" x="450.4" y="142.7281">AuthFacade</text><line style="stroke:#A80036;stroke-width:1.2000000000000002;" x1="428" x2="504" y1="151.6" y2="151.6"/><line style="stroke:#A80036;stroke-width:1.2000000000000002;" x1="428" x2="504" y1="158" y2="158"/><!--MD5=[013802062880aae1c87dbce689bd3f0b]
link CreateEmployeeUI to CreateEmployeeController--><path codeLine="58" d="M142,44.16 C142,56.192 142,72.56 142,88.576 " fill="none" id="CreateEmployeeUI-to-CreateEmployeeController" style="stroke:#A80036;stroke-width:0.8;stroke-dasharray:7.0,7.0;"/><polygon fill="#A80036" points="142,92.64,145.2,85.44,142,88.64,138.8,85.44,142,92.64" style="stroke:#A80036;stroke-width:0.8;"/><!--MD5=[65d7e587236201106690adc87f84cdb0]
link CreateEmployeeController to Company--><path codeLine="59" d="M262.176,145.2 C270.016,145.2 277.856,145.2 285.696,145.2 " fill="none" id="CreateEmployeeController-to-Company" style="stroke:#A80036;stroke-width:0.8;stroke-dasharray:7.0,7.0;"/><polygon fill="#A80036" points="289.8,145.2,282.6,142,285.8,145.2,282.6,148.4,289.8,145.2" style="stroke:#A80036;stroke-width:0.8;"/><!--MD5=[ce859576cba61219b3cb4d2d23fdcd81]
link Company to EmployeeStore--><path codeLine="60" d="M324.592,192.064 C315.96,212.144 305.824,235.72 297.016,256.2 " fill="none" id="Company-to-EmployeeStore" style="stroke:#A80036;stroke-width:0.8;"/><polygon fill="#A80036" points="295.384,259.984,301.1615,254.6267,296.9597,256.3074,295.279,252.1056,295.384,259.984" style="stroke:#A80036;stroke-width:0.8;"/><text fill="#000000" font-family="sans-serif" font-size="10.4" lengthAdjust="spacing" textLength="22.4" x="310.8" y="233.1961">uses</text><!--MD5=[814149df5976669b34e7d5d06b04146d]
link Company to OrgRoleStore--><path codeLine="61" d="M354.232,192.168 C365.128,243.376 382.536,325.12 392.816,373.424 " fill="none" id="Company-to-OrgRoleStore" style="stroke:#A80036;stroke-width:0.8;"/><polygon fill="#A80036" points="393.664,377.416,395.2905,369.7066,392.829,373.5041,389.0315,371.0426,393.664,377.416" style="stroke:#A80036;stroke-width:0.8;"/><text fill="#000000" font-family="sans-serif" font-size="10.4" lengthAdjust="spacing" textLength="22.4" x="363.6" y="233.1961">uses</text><!--MD5=[2f3bac1bdf76f0b867b8cadb6fadb6bc]
link EmployeeStore to Employee--><path codeLine="62" d="M269.984,353.736 C266.08,385.864 260.72,429.856 255.92,469.304 " fill="none" id="EmployeeStore-to-Employee" style="stroke:#A80036;stroke-width:0.8;"/><polygon fill="#A80036" points="255.432,473.352,259.474,466.5887,255.9126,469.381,253.1203,465.8197,255.432,473.352" style="stroke:#A80036;stroke-width:0.8;"/><text fill="#000000" font-family="sans-serif" font-size="10.4" lengthAdjust="spacing" textLength="39.2" x="266.8" y="417.9961">contains</text><!--MD5=[717d4b03d3c4372f4eafe5e342a0a7dd]
link Company to AuthFacade--><path codeLine="63" d="M399.024,145.2 C406.968,145.2 414.92,145.2 422.864,145.2 " fill="none" id="Company-to-AuthFacade" style="stroke:#A80036;stroke-width:0.8;stroke-dasharray:7.0,7.0;"/><polygon fill="#A80036" points="427.016,145.2,419.816,142,423.016,145.2,419.816,148.4,427.016,145.2" style="stroke:#A80036;stroke-width:0.8;"/><!--MD5=[689605a3a70f5f5994ff7c5e034f334e]
link OrgRoleStore to OrganizationRole--><path codeLine="64" d="M402.752,449.64 C405.544,512.752 411.376,644.96 414.432,714.256 " fill="none" id="OrgRoleStore-to-OrganizationRole" style="stroke:#A80036;stroke-width:0.8;"/><polygon fill="#A80036" points="414.616,718.32,417.5039,710.9892,414.4442,714.3237,411.1098,711.264,414.616,718.32" style="stroke:#A80036;stroke-width:0.8;"/><text fill="#000000" font-family="sans-serif" font-size="10.4" lengthAdjust="spacing" textLength="39.2" x="412.4" y="569.1961">contains</text><!--MD5=[241b49406f7a05442b1e788ffaf3787c]
link Employee to OrganizationRole--><path codeLine="65" d="M325.112,656.264 C343.432,676.832 362.064,697.768 377.688,715.312 " fill="none" id="Employee-to-OrganizationRole" style="stroke:#A80036;stroke-width:0.8;"/><polygon fill="#A80036" points="380.368,718.32,377.9905,710.8082,377.7162,715.3253,373.1991,715.051,380.368,718.32" style="stroke:#A80036;stroke-width:0.8;"/><text fill="#000000" font-family="sans-serif" font-size="10.4" lengthAdjust="spacing" textLength="16.8" x="356.4" y="691.5961">has</text><!--MD5=[372bd27a178b4208a6d241b4516ac7e6]
reverse link Employee to SpecialistDoctor--><path codeLine="66" d="M184.136,670.304 C174.32,687.368 164.688,704.088 156.496,718.32 " fill="none" id="Employee-backto-SpecialistDoctor" style="stroke:#A80036;stroke-width:0.8;"/><polygon fill="none" points="179.384,667.336,192.216,656.264,189.088,672.92,179.384,667.336" style="stroke:#A80036;stroke-width:0.8;"/><text fill="#000000" font-family="sans-serif" font-size="10.4" lengthAdjust="spacing" textLength="16.8" x="176.4" y="691.5961">is a</text><!--MD5=[1910af3d5ade8fbeebb44f3f9d6f2662]
@startuml
class CreateEmployeeUI
class CreateEmployeeController {
{method} CreateEmployeeController()
{method} getOrganizationRoles()
{method} createEmployee(role)
{method} setEmployeeData(name, address, phoneNumber, email)
{method} setEmployeeData(name, address, phoneNumber, email, DIN)
{method} saveEmployee(employee)
}
class Company {
{field} designation
{method} getOrgRoleStore()
{method} getEmployeeStore()
{method} saveUser(user)
{method} generateUserPassword()
}
class EmployeeStore {
{field} id
{field} employeeList
{method} generateEmployeeId(employee)
{method} addEmployee(employee)
{method} validateEmployee(employee)
}
class OrgRoleStore {
{field} rolesList
{method} getOrganizationRoles()
{method} getOrganizationRole(designation)
}
class Employee {
{field} id
{field} name
{field} address
{field} email
{field} phoneNumber
{field} socCode
{field} organizationRole
{method} Employee(role, name, address, phoneNumber, email, soc)
{method} validateName(name)
{method} validateAddress(address)
{method} validateEmail(email)
{method} validatePhoneNumber(phoneNumber)
{method} validateSocCode(soc)
}
class OrganizationRole {
{field} id
{field} description
{method} createEmployee(role, name, address, phoneNumber, email)
{method} createEmployee(role, name, address, phoneNumber, email, DIN)
}
class SpecialistDoctor {
{field} doctorIndexNumber
{method} SpecialistDoctor(role, name, address, phoneNumber, email, DIN)
{method} setDIN(din)
{method} validateDIN(din)
}
class AuthFacade

CreateEmployeeUI ..> CreateEmployeeController
CreateEmployeeController .right.> Company
Company - -> EmployeeStore : uses
Company - -> OrgRoleStore : uses
EmployeeStore - -> Employee : contains
Company .right.> AuthFacade
OrgRoleStore - -> OrganizationRole : contains
Employee - -> OrganizationRole : has
Employee <|- - SpecialistDoctor : is a
@enduml

PlantUML version 1.2021.2(Sun Mar 07 11:10:27 GMT 2021)
(GPL source distribution)
Java Runtime: OpenJDK Runtime Environment
JVM: OpenJDK 64-Bit Server VM
Default Encoding: Cp1252
Language: pt
Country: PT
--></g></svg>