<?xml version="1.0" encoding="UTF-8" standalone="no"?><svg xmlns="http://www.w3.org/2000/svg" xmlns:xlink="http://www.w3.org/1999/xlink" contentScriptType="application/ecmascript" contentStyleType="text/css" height="705px" preserveAspectRatio="none" style="width:823px;height:705px;" version="1.1" viewBox="0 0 823 705" width="823px" zoomAndPan="magnify"><defs><filter height="300%" id="fdzn9iytmgwoj" width="300%" x="-1" y="-1"><feGaussianBlur result="blurOut" stdDeviation="2.0"/><feColorMatrix in="blurOut" result="blurOut2" type="matrix" values="0 0 0 0 0 0 0 0 0 0 0 0 0 0 0 0 0 0 .4 0"/><feOffset dx="4.0" dy="4.0" in="blurOut2" result="blurOut3"/><feBlend in="SourceGraphic" in2="blurOut3" mode="normal"/></filter></defs><g><!--MD5=[62cf91c4ac61bc95d5ac8bab52d03502]
class SampleUI--><rect codeLine="4" fill="#FEFECE" filter="url(#fdzn9iytmgwoj)" height="75.6719" id="SampleUI" style="stroke:#A80036;stroke-width:1.5;" width="151" x="369.5" y="7"/><ellipse cx="413.3" cy="23" fill="#ADD1B2" rx="11" ry="11" style="stroke:#A80036;stroke-width:1.0;"/><path d="M415.3,19.5 Q415.5031,19 415.7375,18.75 Q415.9719,18.5 416.2375,18.5 Q416.7063,18.5 417.0031,18.7813 Q417.3,19.0625 417.3,19.7188 L417.3,21.2813 Q417.3,21.9375 417.0188,22.2188 Q416.7375,22.5 416.3,22.5 Q415.9094,22.5 415.6594,22.3281 Q415.4094,22.1563 415.3,21.7031 Q415.2531,21.3906 415.0813,21.2188 Q414.7688,20.8906 414.2063,20.7031 Q413.6438,20.5 413.0813,20.5 Q412.3781,20.5 411.7844,20.7813 Q411.2063,21.0625 410.7531,21.6875 Q410.3,22.3125 410.3,23.1719 L410.3,24.0938 Q410.3,25.125 411.1438,25.8125 Q411.9875,26.5 413.4875,26.5 Q414.3781,26.5 415.0031,26.2969 Q415.3625,26.1875 415.7688,25.8281 Q416.0344,25.625 416.175,25.5625 Q416.3156,25.5 416.4875,25.5 Q416.8156,25.5 417.05,25.7656 Q417.3,26.0156 417.3,26.375 Q417.3,26.7188 416.9563,27.125 Q416.4563,27.7188 415.6594,28.0469 Q414.6125,28.5 413.3313,28.5 Q411.8313,28.5 410.6281,27.9063 Q409.6594,27.4375 408.9719,26.4219 Q408.3,25.4063 408.3,24.2031 L408.3,23.1094 Q408.3,21.8594 408.8938,20.7656 Q409.5031,19.6719 410.55,19.0938 Q411.6125,18.5 412.8,18.5 Q413.5188,18.5 414.1438,18.75 Q414.7688,19 415.3,19.5 Z " fill="#000000"/><text fill="#000000" font-family="sans-serif" font-size="12" lengthAdjust="spacing" textLength="55" x="433.7" y="27.9102">SampleUI</text><line style="stroke:#A80036;stroke-width:1.5;" x1="370.5" x2="519.5" y1="39" y2="39"/><line style="stroke:#A80036;stroke-width:1.5;" x1="370.5" x2="519.5" y1="47" y2="47"/><text fill="#000000" font-family="sans-serif" font-size="11" lengthAdjust="spacing" textLength="139" x="375.5" y="62.4189">+TestCodeSelection(testList)</text><text fill="#000000" font-family="sans-serif" font-size="11" lengthAdjust="spacing" textLength="101" x="375.5" y="76.2549">+setSampleNumber()</text><!--MD5=[b2e0343becd3acb74ca007b70fee6233]
class SampleController--><rect codeLine="9" fill="#FEFECE" filter="url(#fdzn9iytmgwoj)" height="103.3438" id="SampleController" style="stroke:#A80036;stroke-width:1.5;" width="130" x="244" y="144"/><ellipse cx="259.45" cy="160" fill="#ADD1B2" rx="11" ry="11" style="stroke:#A80036;stroke-width:1.0;"/><path d="M261.45,156.5 Q261.6531,156 261.8875,155.75 Q262.1219,155.5 262.3875,155.5 Q262.8563,155.5 263.1531,155.7813 Q263.45,156.0625 263.45,156.7188 L263.45,158.2813 Q263.45,158.9375 263.1688,159.2188 Q262.8875,159.5 262.45,159.5 Q262.0594,159.5 261.8094,159.3281 Q261.5594,159.1563 261.45,158.7031 Q261.4031,158.3906 261.2313,158.2188 Q260.9188,157.8906 260.3563,157.7031 Q259.7938,157.5 259.2313,157.5 Q258.5281,157.5 257.9344,157.7813 Q257.3563,158.0625 256.9031,158.6875 Q256.45,159.3125 256.45,160.1719 L256.45,161.0938 Q256.45,162.125 257.2938,162.8125 Q258.1375,163.5 259.6375,163.5 Q260.5281,163.5 261.1531,163.2969 Q261.5125,163.1875 261.9188,162.8281 Q262.1844,162.625 262.325,162.5625 Q262.4656,162.5 262.6375,162.5 Q262.9656,162.5 263.2,162.7656 Q263.45,163.0156 263.45,163.375 Q263.45,163.7188 263.1063,164.125 Q262.6063,164.7188 261.8094,165.0469 Q260.7625,165.5 259.4813,165.5 Q257.9813,165.5 256.7781,164.9063 Q255.8094,164.4375 255.1219,163.4219 Q254.45,162.4063 254.45,161.2031 L254.45,160.1094 Q254.45,158.8594 255.0438,157.7656 Q255.6531,156.6719 256.7,156.0938 Q257.7625,155.5 258.95,155.5 Q259.6688,155.5 260.2938,155.75 Q260.9188,156 261.45,156.5 Z " fill="#000000"/><text fill="#000000" font-family="sans-serif" font-size="12" lengthAdjust="spacing" textLength="97" x="273.55" y="164.9102">SampleController</text><line style="stroke:#A80036;stroke-width:1.5;" x1="245" x2="373" y1="176" y2="176"/><line style="stroke:#A80036;stroke-width:1.5;" x1="245" x2="373" y1="184" y2="184"/><text fill="#000000" font-family="sans-serif" font-size="11" lengthAdjust="spacing" textLength="67" x="250" y="199.4189">+getTestList()</text><text fill="#000000" font-family="sans-serif" font-size="11" lengthAdjust="spacing" textLength="118" x="250" y="213.2549">+setTestCode(testCode)</text><text fill="#000000" font-family="sans-serif" font-size="11" lengthAdjust="spacing" textLength="107" x="250" y="227.0908">+setSampleNumber(n)</text><text fill="#000000" font-family="sans-serif" font-size="11" lengthAdjust="spacing" textLength="103" x="250" y="240.9268">+createSampleList(n)</text><!--MD5=[5d1067525748def49708bb23e378646e]
class ExternalModuleBarcode--><rect codeLine="16" fill="#FEFECE" filter="url(#fdzn9iytmgwoj)" height="75.6719" id="ExternalModuleBarcode" style="stroke:#A80036;stroke-width:1.5;" width="322" x="487" y="308"/><ellipse cx="578.25" cy="324" fill="#B4A7E5" rx="11" ry="11" style="stroke:#A80036;stroke-width:1.0;"/><path d="M579.25,321 L579.25,327 L581.25,327 L581.7344,327 L582.25,327.625 L582.25,328 L582.25,328.375 L581.7344,329 L581.25,329 L575.25,329 L574.7656,329 L574.25,328.375 L574.25,328 L574.25,327.625 L574.7656,327 L575.25,327 L577.25,327 L577.25,321 L575.25,321 L574.7656,321 L574.25,320.375 L574.25,320 L574.25,319.625 L574.7656,319 L575.25,319 L581.25,319 L581.7344,319 L582.25,319.625 L582.25,320 L582.25,320.375 L581.7344,321 L581.25,321 L579.25,321 Z " fill="#000000"/><text fill="#000000" font-family="sans-serif" font-size="12" font-style="italic" lengthAdjust="spacing" textLength="131" x="598.75" y="328.9102">ExternalModuleBarcode</text><line style="stroke:#A80036;stroke-width:1.5;" x1="488" x2="808" y1="340" y2="340"/><line style="stroke:#A80036;stroke-width:1.5;" x1="488" x2="808" y1="348" y2="348"/><text fill="#000000" font-family="sans-serif" font-size="11" lengthAdjust="spacing" textLength="269" x="493" y="363.4189">+BufferedImage barcodeGenerator(String barcodeText)</text><text fill="#000000" font-family="sans-serif" font-size="11" lengthAdjust="spacing" textLength="310" x="493" y="377.2549">+saveBarcode(BufferedImage barcodeJPG, String barcodeText)</text><!--MD5=[b1e6b9ee4ec5506b81677ffc1c2a7f71]
class ExternalModuleBarcodeAdapter--><rect codeLine="21" fill="#FEFECE" filter="url(#fdzn9iytmgwoj)" height="75.6719" id="ExternalModuleBarcodeAdapter" style="stroke:#A80036;stroke-width:1.5;" width="217" x="540.5" y="462"/><ellipse cx="561.35" cy="478" fill="#ADD1B2" rx="11" ry="11" style="stroke:#A80036;stroke-width:1.0;"/><path d="M563.35,474.5 Q563.5531,474 563.7875,473.75 Q564.0219,473.5 564.2875,473.5 Q564.7563,473.5 565.0531,473.7813 Q565.35,474.0625 565.35,474.7188 L565.35,476.2813 Q565.35,476.9375 565.0688,477.2188 Q564.7875,477.5 564.35,477.5 Q563.9594,477.5 563.7094,477.3281 Q563.4594,477.1563 563.35,476.7031 Q563.3031,476.3906 563.1313,476.2188 Q562.8188,475.8906 562.2563,475.7031 Q561.6938,475.5 561.1313,475.5 Q560.4281,475.5 559.8344,475.7813 Q559.2563,476.0625 558.8031,476.6875 Q558.35,477.3125 558.35,478.1719 L558.35,479.0938 Q558.35,480.125 559.1938,480.8125 Q560.0375,481.5 561.5375,481.5 Q562.4281,481.5 563.0531,481.2969 Q563.4125,481.1875 563.8188,480.8281 Q564.0844,480.625 564.225,480.5625 Q564.3656,480.5 564.5375,480.5 Q564.8656,480.5 565.1,480.7656 Q565.35,481.0156 565.35,481.375 Q565.35,481.7188 565.0063,482.125 Q564.5063,482.7188 563.7094,483.0469 Q562.6625,483.5 561.3813,483.5 Q559.8813,483.5 558.6781,482.9063 Q557.7094,482.4375 557.0219,481.4219 Q556.35,480.4063 556.35,479.2031 L556.35,478.1094 Q556.35,476.8594 556.9438,475.7656 Q557.5531,474.6719 558.6,474.0938 Q559.6625,473.5 560.85,473.5 Q561.5688,473.5 562.1938,473.75 Q562.8188,474 563.35,474.5 Z " fill="#000000"/><text fill="#000000" font-family="sans-serif" font-size="12" lengthAdjust="spacing" textLength="172" x="576.65" y="482.9102">ExternalModuleBarcodeAdapter</text><line style="stroke:#A80036;stroke-width:1.5;" x1="541.5" x2="756.5" y1="494" y2="494"/><line style="stroke:#A80036;stroke-width:1.5;" x1="541.5" x2="756.5" y1="502" y2="502"/><text fill="#000000" font-family="sans-serif" font-size="11" lengthAdjust="spacing" textLength="164" x="546.5" y="517.4189">+barcodeGenerator(barcodeText)</text><text fill="#000000" font-family="sans-serif" font-size="11" lengthAdjust="spacing" textLength="205" x="546.5" y="531.2549">+saveBarcode(barcodeJPG, barcodeText)</text><!--MD5=[5148b047e2d79a9954d8ccd843ea5362]
class Barbecue--><rect codeLine="26" fill="#FEFECE" filter="url(#fdzn9iytmgwoj)" height="61.8359" id="Barbecue" style="stroke:#A80036;stroke-width:1.5;" width="227" x="535.5" y="623"/><ellipse cx="618.25" cy="639" fill="#ADD1B2" rx="11" ry="11" style="stroke:#A80036;stroke-width:1.0;"/><path d="M620.25,635.5 Q620.4531,635 620.6875,634.75 Q620.9219,634.5 621.1875,634.5 Q621.6563,634.5 621.9531,634.7813 Q622.25,635.0625 622.25,635.7188 L622.25,637.2813 Q622.25,637.9375 621.9688,638.2188 Q621.6875,638.5 621.25,638.5 Q620.8594,638.5 620.6094,638.3281 Q620.3594,638.1563 620.25,637.7031 Q620.2031,637.3906 620.0313,637.2188 Q619.7188,636.8906 619.1563,636.7031 Q618.5938,636.5 618.0313,636.5 Q617.3281,636.5 616.7344,636.7813 Q616.1563,637.0625 615.7031,637.6875 Q615.25,638.3125 615.25,639.1719 L615.25,640.0938 Q615.25,641.125 616.0938,641.8125 Q616.9375,642.5 618.4375,642.5 Q619.3281,642.5 619.9531,642.2969 Q620.3125,642.1875 620.7188,641.8281 Q620.9844,641.625 621.125,641.5625 Q621.2656,641.5 621.4375,641.5 Q621.7656,641.5 622,641.7656 Q622.25,642.0156 622.25,642.375 Q622.25,642.7188 621.9063,643.125 Q621.4063,643.7188 620.6094,644.0469 Q619.5625,644.5 618.2813,644.5 Q616.7813,644.5 615.5781,643.9063 Q614.6094,643.4375 613.9219,642.4219 Q613.25,641.4063 613.25,640.2031 L613.25,639.1094 Q613.25,637.8594 613.8438,636.7656 Q614.4531,635.6719 615.5,635.0938 Q616.5625,634.5 617.75,634.5 Q618.4688,634.5 619.0938,634.75 Q619.7188,635 620.25,635.5 Z " fill="#000000"/><text fill="#000000" font-family="sans-serif" font-size="12" lengthAdjust="spacing" textLength="53" x="638.75" y="643.9102">Barbecue</text><line style="stroke:#A80036;stroke-width:1.5;" x1="536.5" x2="761.5" y1="655" y2="655"/><line style="stroke:#A80036;stroke-width:1.5;" x1="536.5" x2="761.5" y1="663" y2="663"/><text fill="#000000" font-family="sans-serif" font-size="11" lengthAdjust="spacing" textLength="215" x="541.5" y="678.4189">+Barcode createUPCA(java.lang.String data)</text><!--MD5=[02e4b9b7573f1156f41e60aa5b4e25a4]
class Company--><rect codeLine="30" fill="#FEFECE" filter="url(#fdzn9iytmgwoj)" height="61.8359" id="Company" style="stroke:#A80036;stroke-width:1.5;" width="88" x="363" y="315"/><ellipse cx="379.35" cy="331" fill="#ADD1B2" rx="11" ry="11" style="stroke:#A80036;stroke-width:1.0;"/><path d="M381.35,327.5 Q381.5531,327 381.7875,326.75 Q382.0219,326.5 382.2875,326.5 Q382.7563,326.5 383.0531,326.7813 Q383.35,327.0625 383.35,327.7188 L383.35,329.2813 Q383.35,329.9375 383.0688,330.2188 Q382.7875,330.5 382.35,330.5 Q381.9594,330.5 381.7094,330.3281 Q381.4594,330.1563 381.35,329.7031 Q381.3031,329.3906 381.1313,329.2188 Q380.8188,328.8906 380.2563,328.7031 Q379.6938,328.5 379.1313,328.5 Q378.4281,328.5 377.8344,328.7813 Q377.2563,329.0625 376.8031,329.6875 Q376.35,330.3125 376.35,331.1719 L376.35,332.0938 Q376.35,333.125 377.1938,333.8125 Q378.0375,334.5 379.5375,334.5 Q380.4281,334.5 381.0531,334.2969 Q381.4125,334.1875 381.8188,333.8281 Q382.0844,333.625 382.225,333.5625 Q382.3656,333.5 382.5375,333.5 Q382.8656,333.5 383.1,333.7656 Q383.35,334.0156 383.35,334.375 Q383.35,334.7188 383.0063,335.125 Q382.5063,335.7188 381.7094,336.0469 Q380.6625,336.5 379.3813,336.5 Q377.8813,336.5 376.6781,335.9063 Q375.7094,335.4375 375.0219,334.4219 Q374.35,333.4063 374.35,332.2031 L374.35,331.1094 Q374.35,329.8594 374.9438,328.7656 Q375.5531,327.6719 376.6,327.0938 Q377.6625,326.5 378.85,326.5 Q379.5688,326.5 380.1938,326.75 Q380.8188,327 381.35,327.5 Z " fill="#000000"/><text fill="#000000" font-family="sans-serif" font-size="12" lengthAdjust="spacing" textLength="53" x="393.65" y="335.9102">Company</text><line style="stroke:#A80036;stroke-width:1.5;" x1="364" x2="450" y1="347" y2="347"/><line style="stroke:#A80036;stroke-width:1.5;" x1="364" x2="450" y1="355" y2="355"/><text fill="#000000" font-family="sans-serif" font-size="11" lengthAdjust="spacing" textLength="76" x="369" y="370.4189">+getTestStore()</text><!--MD5=[144698ec4d0188f6929a3b58a3eeb1f6]
class TestMapper--><rect codeLine="35" fill="#FEFECE" filter="url(#fdzn9iytmgwoj)" height="61.8359" id="TestMapper" style="stroke:#A80036;stroke-width:1.5;" width="97" x="409.5" y="164.5"/><ellipse cx="424.5" cy="180.5" fill="#ADD1B2" rx="11" ry="11" style="stroke:#A80036;stroke-width:1.0;"/><path d="M426.5,177 Q426.7031,176.5 426.9375,176.25 Q427.1719,176 427.4375,176 Q427.9063,176 428.2031,176.2813 Q428.5,176.5625 428.5,177.2188 L428.5,178.7813 Q428.5,179.4375 428.2188,179.7188 Q427.9375,180 427.5,180 Q427.1094,180 426.8594,179.8281 Q426.6094,179.6563 426.5,179.2031 Q426.4531,178.8906 426.2813,178.7188 Q425.9688,178.3906 425.4063,178.2031 Q424.8438,178 424.2813,178 Q423.5781,178 422.9844,178.2813 Q422.4063,178.5625 421.9531,179.1875 Q421.5,179.8125 421.5,180.6719 L421.5,181.5938 Q421.5,182.625 422.3438,183.3125 Q423.1875,184 424.6875,184 Q425.5781,184 426.2031,183.7969 Q426.5625,183.6875 426.9688,183.3281 Q427.2344,183.125 427.375,183.0625 Q427.5156,183 427.6875,183 Q428.0156,183 428.25,183.2656 Q428.5,183.5156 428.5,183.875 Q428.5,184.2188 428.1563,184.625 Q427.6563,185.2188 426.8594,185.5469 Q425.8125,186 424.5313,186 Q423.0313,186 421.8281,185.4063 Q420.8594,184.9375 420.1719,183.9219 Q419.5,182.9063 419.5,181.7031 L419.5,180.6094 Q419.5,179.3594 420.0938,178.2656 Q420.7031,177.1719 421.75,176.5938 Q422.8125,176 424,176 Q424.7188,176 425.3438,176.25 Q425.9688,176.5 426.5,177 Z " fill="#000000"/><text fill="#000000" font-family="sans-serif" font-size="12" lengthAdjust="spacing" textLength="65" x="438.5" y="185.4102">TestMapper</text><line style="stroke:#A80036;stroke-width:1.5;" x1="410.5" x2="505.5" y1="196.5" y2="196.5"/><line style="stroke:#A80036;stroke-width:1.5;" x1="410.5" x2="505.5" y1="204.5" y2="204.5"/><text fill="#000000" font-family="sans-serif" font-size="11" lengthAdjust="spacing" textLength="61" x="415.5" y="219.9189">+toDTOList()</text><!--MD5=[9fb704ffefcaf68bf1a361787afa998b]
class TestDTO--><rect codeLine="39" fill="#FEFECE" filter="url(#fdzn9iytmgwoj)" height="48" id="TestDTO" style="stroke:#A80036;stroke-width:1.5;" width="81" x="541.5" y="171.5"/><ellipse cx="556.5" cy="187.5" fill="#ADD1B2" rx="11" ry="11" style="stroke:#A80036;stroke-width:1.0;"/><path d="M558.5,184 Q558.7031,183.5 558.9375,183.25 Q559.1719,183 559.4375,183 Q559.9063,183 560.2031,183.2813 Q560.5,183.5625 560.5,184.2188 L560.5,185.7813 Q560.5,186.4375 560.2188,186.7188 Q559.9375,187 559.5,187 Q559.1094,187 558.8594,186.8281 Q558.6094,186.6563 558.5,186.2031 Q558.4531,185.8906 558.2813,185.7188 Q557.9688,185.3906 557.4063,185.2031 Q556.8438,185 556.2813,185 Q555.5781,185 554.9844,185.2813 Q554.4063,185.5625 553.9531,186.1875 Q553.5,186.8125 553.5,187.6719 L553.5,188.5938 Q553.5,189.625 554.3438,190.3125 Q555.1875,191 556.6875,191 Q557.5781,191 558.2031,190.7969 Q558.5625,190.6875 558.9688,190.3281 Q559.2344,190.125 559.375,190.0625 Q559.5156,190 559.6875,190 Q560.0156,190 560.25,190.2656 Q560.5,190.5156 560.5,190.875 Q560.5,191.2188 560.1563,191.625 Q559.6563,192.2188 558.8594,192.5469 Q557.8125,193 556.5313,193 Q555.0313,193 553.8281,192.4063 Q552.8594,191.9375 552.1719,190.9219 Q551.5,189.9063 551.5,188.7031 L551.5,187.6094 Q551.5,186.3594 552.0938,185.2656 Q552.7031,184.1719 553.75,183.5938 Q554.8125,183 556,183 Q556.7188,183 557.3438,183.25 Q557.9688,183.5 558.5,184 Z " fill="#000000"/><text fill="#000000" font-family="sans-serif" font-size="12" lengthAdjust="spacing" textLength="49" x="570.5" y="192.4102">TestDTO</text><line style="stroke:#A80036;stroke-width:1.5;" x1="542.5" x2="621.5" y1="203.5" y2="203.5"/><line style="stroke:#A80036;stroke-width:1.5;" x1="542.5" x2="621.5" y1="211.5" y2="211.5"/><!--MD5=[9681492165142af2a4a3a169d90ee8d4]
class Sample--><rect codeLine="42" fill="#FEFECE" filter="url(#fdzn9iytmgwoj)" height="75.6719" id="Sample" style="stroke:#A80036;stroke-width:1.5;" width="130" x="7" y="616"/><ellipse cx="46.75" cy="632" fill="#ADD1B2" rx="11" ry="11" style="stroke:#A80036;stroke-width:1.0;"/><path d="M48.75,628.5 Q48.9531,628 49.1875,627.75 Q49.4219,627.5 49.6875,627.5 Q50.1563,627.5 50.4531,627.7813 Q50.75,628.0625 50.75,628.7188 L50.75,630.2813 Q50.75,630.9375 50.4688,631.2188 Q50.1875,631.5 49.75,631.5 Q49.3594,631.5 49.1094,631.3281 Q48.8594,631.1563 48.75,630.7031 Q48.7031,630.3906 48.5313,630.2188 Q48.2188,629.8906 47.6563,629.7031 Q47.0938,629.5 46.5313,629.5 Q45.8281,629.5 45.2344,629.7813 Q44.6563,630.0625 44.2031,630.6875 Q43.75,631.3125 43.75,632.1719 L43.75,633.0938 Q43.75,634.125 44.5938,634.8125 Q45.4375,635.5 46.9375,635.5 Q47.8281,635.5 48.4531,635.2969 Q48.8125,635.1875 49.2188,634.8281 Q49.4844,634.625 49.625,634.5625 Q49.7656,634.5 49.9375,634.5 Q50.2656,634.5 50.5,634.7656 Q50.75,635.0156 50.75,635.375 Q50.75,635.7188 50.4063,636.125 Q49.9063,636.7188 49.1094,637.0469 Q48.0625,637.5 46.7813,637.5 Q45.2813,637.5 44.0781,636.9063 Q43.1094,636.4375 42.4219,635.4219 Q41.75,634.4063 41.75,633.2031 L41.75,632.1094 Q41.75,630.8594 42.3438,629.7656 Q42.9531,628.6719 44,628.0938 Q45.0625,627.5 46.25,627.5 Q46.9688,627.5 47.5938,627.75 Q48.2188,628 48.75,628.5 Z " fill="#000000"/><text fill="#000000" font-family="sans-serif" font-size="12" lengthAdjust="spacing" textLength="43" x="66.25" y="636.9102">Sample</text><line style="stroke:#A80036;stroke-width:1.5;" x1="8" x2="136" y1="648" y2="648"/><text fill="#000000" font-family="sans-serif" font-size="11" lengthAdjust="spacing" textLength="65" x="13" y="663.4189">-barcodeText</text><line style="stroke:#A80036;stroke-width:1.5;" x1="8" x2="136" y1="669.8359" y2="669.8359"/><text fill="#000000" font-family="sans-serif" font-size="11" lengthAdjust="spacing" textLength="118" x="13" y="685.2549">+generateBarcodeUPC()</text><!--MD5=[2b343c20b2df7b16f479f389dd4eb438]
class SampleList--><rect codeLine="47" fill="#FEFECE" filter="url(#fdzn9iytmgwoj)" height="61.8359" id="SampleList" style="stroke:#A80036;stroke-width:1.5;" width="122" x="236" y="623"/><ellipse cx="263.15" cy="639" fill="#ADD1B2" rx="11" ry="11" style="stroke:#A80036;stroke-width:1.0;"/><path d="M265.15,635.5 Q265.3531,635 265.5875,634.75 Q265.8219,634.5 266.0875,634.5 Q266.5563,634.5 266.8531,634.7813 Q267.15,635.0625 267.15,635.7188 L267.15,637.2813 Q267.15,637.9375 266.8688,638.2188 Q266.5875,638.5 266.15,638.5 Q265.7594,638.5 265.5094,638.3281 Q265.2594,638.1563 265.15,637.7031 Q265.1031,637.3906 264.9313,637.2188 Q264.6188,636.8906 264.0563,636.7031 Q263.4938,636.5 262.9313,636.5 Q262.2281,636.5 261.6344,636.7813 Q261.0563,637.0625 260.6031,637.6875 Q260.15,638.3125 260.15,639.1719 L260.15,640.0938 Q260.15,641.125 260.9938,641.8125 Q261.8375,642.5 263.3375,642.5 Q264.2281,642.5 264.8531,642.2969 Q265.2125,642.1875 265.6188,641.8281 Q265.8844,641.625 266.025,641.5625 Q266.1656,641.5 266.3375,641.5 Q266.6656,641.5 266.9,641.7656 Q267.15,642.0156 267.15,642.375 Q267.15,642.7188 266.8063,643.125 Q266.3063,643.7188 265.5094,644.0469 Q264.4625,644.5 263.1813,644.5 Q261.6813,644.5 260.4781,643.9063 Q259.5094,643.4375 258.8219,642.4219 Q258.15,641.4063 258.15,640.2031 L258.15,639.1094 Q258.15,637.8594 258.7438,636.7656 Q259.3531,635.6719 260.4,635.0938 Q261.4625,634.5 262.65,634.5 Q263.3688,634.5 263.9938,634.75 Q264.6188,635 265.15,635.5 Z " fill="#000000"/><text fill="#000000" font-family="sans-serif" font-size="12" lengthAdjust="spacing" textLength="63" x="279.85" y="643.9102">SampleList</text><line style="stroke:#A80036;stroke-width:1.5;" x1="237" x2="357" y1="655" y2="655"/><line style="stroke:#A80036;stroke-width:1.5;" x1="237" x2="357" y1="663" y2="663"/><text fill="#000000" font-family="sans-serif" font-size="11" lengthAdjust="spacing" textLength="110" x="242" y="678.4189">+saveSample(sample);</text><!--MD5=[0f6f7964b844a64b0496af0dda7914bd]
class TestStore--><rect codeLine="51" fill="#FEFECE" filter="url(#fdzn9iytmgwoj)" height="75.6719" id="TestStore" style="stroke:#A80036;stroke-width:1.5;" width="143" x="362.5" y="462"/><ellipse cx="403.6" cy="478" fill="#ADD1B2" rx="11" ry="11" style="stroke:#A80036;stroke-width:1.0;"/><path d="M405.6,474.5 Q405.8031,474 406.0375,473.75 Q406.2719,473.5 406.5375,473.5 Q407.0063,473.5 407.3031,473.7813 Q407.6,474.0625 407.6,474.7188 L407.6,476.2813 Q407.6,476.9375 407.3188,477.2188 Q407.0375,477.5 406.6,477.5 Q406.2094,477.5 405.9594,477.3281 Q405.7094,477.1563 405.6,476.7031 Q405.5531,476.3906 405.3813,476.2188 Q405.0688,475.8906 404.5063,475.7031 Q403.9438,475.5 403.3813,475.5 Q402.6781,475.5 402.0844,475.7813 Q401.5063,476.0625 401.0531,476.6875 Q400.6,477.3125 400.6,478.1719 L400.6,479.0938 Q400.6,480.125 401.4438,480.8125 Q402.2875,481.5 403.7875,481.5 Q404.6781,481.5 405.3031,481.2969 Q405.6625,481.1875 406.0688,480.8281 Q406.3344,480.625 406.475,480.5625 Q406.6156,480.5 406.7875,480.5 Q407.1156,480.5 407.35,480.7656 Q407.6,481.0156 407.6,481.375 Q407.6,481.7188 407.2563,482.125 Q406.7563,482.7188 405.9594,483.0469 Q404.9125,483.5 403.6313,483.5 Q402.1313,483.5 400.9281,482.9063 Q399.9594,482.4375 399.2719,481.4219 Q398.6,480.4063 398.6,479.2031 L398.6,478.1094 Q398.6,476.8594 399.1938,475.7656 Q399.8031,474.6719 400.85,474.0938 Q401.9125,473.5 403.1,473.5 Q403.8188,473.5 404.4438,473.75 Q405.0688,474 405.6,474.5 Z " fill="#000000"/><text fill="#000000" font-family="sans-serif" font-size="12" lengthAdjust="spacing" textLength="53" x="423.4" y="482.9102">TestStore</text><line style="stroke:#A80036;stroke-width:1.5;" x1="363.5" x2="504.5" y1="494" y2="494"/><line style="stroke:#A80036;stroke-width:1.5;" x1="363.5" x2="504.5" y1="502" y2="502"/><text fill="#000000" font-family="sans-serif" font-size="11" lengthAdjust="spacing" textLength="108" x="368.5" y="517.4189">+getRegisteredTests()</text><text fill="#000000" font-family="sans-serif" font-size="11" lengthAdjust="spacing" textLength="131" x="368.5" y="531.2549">+getTestByCode(testCode)</text><!--MD5=[df38be88ccee13e832d6fafd6288a4ca]
class Test--><rect codeLine="56" fill="#FEFECE" filter="url(#fdzn9iytmgwoj)" height="75.6719" id="Test" style="stroke:#A80036;stroke-width:1.5;" width="144" x="112" y="462"/><ellipse cx="167.75" cy="478" fill="#ADD1B2" rx="11" ry="11" style="stroke:#A80036;stroke-width:1.0;"/><path d="M169.75,474.5 Q169.9531,474 170.1875,473.75 Q170.4219,473.5 170.6875,473.5 Q171.1563,473.5 171.4531,473.7813 Q171.75,474.0625 171.75,474.7188 L171.75,476.2813 Q171.75,476.9375 171.4688,477.2188 Q171.1875,477.5 170.75,477.5 Q170.3594,477.5 170.1094,477.3281 Q169.8594,477.1563 169.75,476.7031 Q169.7031,476.3906 169.5313,476.2188 Q169.2188,475.8906 168.6563,475.7031 Q168.0938,475.5 167.5313,475.5 Q166.8281,475.5 166.2344,475.7813 Q165.6563,476.0625 165.2031,476.6875 Q164.75,477.3125 164.75,478.1719 L164.75,479.0938 Q164.75,480.125 165.5938,480.8125 Q166.4375,481.5 167.9375,481.5 Q168.8281,481.5 169.4531,481.2969 Q169.8125,481.1875 170.2188,480.8281 Q170.4844,480.625 170.625,480.5625 Q170.7656,480.5 170.9375,480.5 Q171.2656,480.5 171.5,480.7656 Q171.75,481.0156 171.75,481.375 Q171.75,481.7188 171.4063,482.125 Q170.9063,482.7188 170.1094,483.0469 Q169.0625,483.5 167.7813,483.5 Q166.2813,483.5 165.0781,482.9063 Q164.1094,482.4375 163.4219,481.4219 Q162.75,480.4063 162.75,479.2031 L162.75,478.1094 Q162.75,476.8594 163.3438,475.7656 Q163.9531,474.6719 165,474.0938 Q166.0625,473.5 167.25,473.5 Q167.9688,473.5 168.5938,473.75 Q169.2188,474 169.75,474.5 Z " fill="#000000"/><text fill="#000000" font-family="sans-serif" font-size="12" lengthAdjust="spacing" textLength="24" x="188.25" y="482.9102">Test</text><line style="stroke:#A80036;stroke-width:1.5;" x1="113" x2="255" y1="494" y2="494"/><text fill="#000000" font-family="sans-serif" font-size="11" lengthAdjust="spacing" textLength="55" x="118" y="509.4189">-sampleList</text><line style="stroke:#A80036;stroke-width:1.5;" x1="113" x2="255" y1="515.8359" y2="515.8359"/><text fill="#000000" font-family="sans-serif" font-size="11" lengthAdjust="spacing" textLength="132" x="118" y="531.2549">+setSampleList(sampleList)</text><!--MD5=[201cf8439a08916d1f38ab05e55ad123]
link SampleUI to SampleController--><path codeLine="61" d="M411.03,83.09 C395.25,100.32 376.17,121.16 358.8,140.13 " fill="none" id="SampleUI-to-SampleController" style="stroke:#A80036;stroke-width:1.0;stroke-dasharray:7.0,7.0;"/><polygon fill="#A80036" points="355.35,143.89,364.3843,139.968,358.7325,140.2078,358.4927,134.556,355.35,143.89" style="stroke:#A80036;stroke-width:1.0;"/><!--MD5=[39b8a89389709c1cb1b9df8565d96aec]
reverse link ExternalModuleBarcode to ExternalModuleBarcodeAdapter--><path codeLine="62" d="M648.38,404.22 C648.5,423.54 648.64,444.59 648.76,461.94 " fill="none" id="ExternalModuleBarcode-backto-ExternalModuleBarcodeAdapter" style="stroke:#A80036;stroke-width:1.0;stroke-dasharray:7.0,7.0;"/><polygon fill="none" points="641.38,404.23,648.24,384.18,655.38,404.14,641.38,404.23" style="stroke:#A80036;stroke-width:1.0;"/><!--MD5=[08a6728b76f7c9bee8d0ea8b62013e85]
link ExternalModuleBarcodeAdapter to Barbecue--><path codeLine="63" d="M649,538.18 C649,562.37 649,593.72 649,617.56 " fill="none" id="ExternalModuleBarcodeAdapter-to-Barbecue" style="stroke:#A80036;stroke-width:1.0;"/><polygon fill="#A80036" points="649,622.83,653,613.83,649,617.83,645,613.83,649,622.83" style="stroke:#A80036;stroke-width:1.0;"/><!--MD5=[f14d6931ee7b83449a4ce97ee2c518ed]
link SampleController to Company--><path codeLine="64" d="M342.45,247.19 C356.27,268.12 371.92,291.85 384.36,310.69 " fill="none" id="SampleController-to-Company" style="stroke:#A80036;stroke-width:1.0;stroke-dasharray:7.0,7.0;"/><polygon fill="#A80036" points="387.12,314.87,385.5176,305.1524,384.373,310.6922,378.8331,309.5476,387.12,314.87" style="stroke:#A80036;stroke-width:1.0;"/><!--MD5=[aa85792963d55107d845b13a7c9c7cf2]
link SampleController to TestMapper--><path codeLine="65" d="M374.19,195.5 C384.13,195.5 394.07,195.5 404.02,195.5 " fill="none" id="SampleController-to-TestMapper" style="stroke:#A80036;stroke-width:1.0;stroke-dasharray:7.0,7.0;"/><polygon fill="#A80036" points="409.22,195.5,400.22,191.5,404.22,195.5,400.22,199.5,409.22,195.5" style="stroke:#A80036;stroke-width:1.0;"/><!--MD5=[f6fda4afaf882dd39139bcbf06c50c8c]
link TestMapper to TestDTO--><path codeLine="66" d="M506.92,195.5 C516.66,195.5 526.4,195.5 536.14,195.5 " fill="none" id="TestMapper-to-TestDTO" style="stroke:#A80036;stroke-width:1.0;stroke-dasharray:7.0,7.0;"/><polygon fill="#A80036" points="541.23,195.5,532.23,191.5,536.23,195.5,532.23,199.5,541.23,195.5" style="stroke:#A80036;stroke-width:1.0;"/><!--MD5=[cc611d447c1a60cf050c6ad84c30a76a]
link SampleController to Sample--><path codeLine="67" d="M252.61,247.34 C201.83,296.76 129.83,376.69 94,462 C73.77,510.15 70.05,570.8 70.22,610.68 " fill="none" id="SampleController-to-Sample" style="stroke:#A80036;stroke-width:1.0;stroke-dasharray:7.0,7.0;"/><polygon fill="#A80036" points="70.26,615.92,74.1827,606.886,70.2171,610.9202,66.183,606.9546,70.26,615.92" style="stroke:#A80036;stroke-width:1.0;"/><!--MD5=[77b1a8c098ad966be031ad390c496da3]
link SampleController to ExternalModuleBarcode--><path codeLine="68" d="M374.08,237.6 C380.06,240.92 386.09,244.1 392,247 C437.04,269.09 488.39,289.61 533.22,306.1 " fill="none" id="SampleController-to-ExternalModuleBarcode" style="stroke:#A80036;stroke-width:1.0;stroke-dasharray:7.0,7.0;"/><polygon fill="#A80036" points="538.09,307.89,531.0239,301.0293,533.3973,306.1641,528.2625,308.5376,538.09,307.89" style="stroke:#A80036;stroke-width:1.0;"/><!--MD5=[4e110d1e973607199050f89f89838fda]
link SampleController to SampleList--><path codeLine="69" d="M307.67,247.1 C305.22,340.46 300.03,537.59 297.92,617.87 " fill="none" id="SampleController-to-SampleList" style="stroke:#A80036;stroke-width:1.0;stroke-dasharray:7.0,7.0;"/><polygon fill="#A80036" points="297.79,622.98,302.02,614.0858,297.9185,617.9817,294.0227,613.8802,297.79,622.98" style="stroke:#A80036;stroke-width:1.0;"/><!--MD5=[32ab1de427273075b811497f44260ad5]
link SampleController to Test--><path codeLine="70" d="M288.08,247.13 C263.79,305.91 224.17,401.78 201.47,456.73 " fill="none" id="SampleController-to-Test" style="stroke:#A80036;stroke-width:1.0;stroke-dasharray:7.0,7.0;"/><polygon fill="#A80036" points="199.46,461.59,206.5855,454.7909,201.3637,456.9666,199.188,451.7449,199.46,461.59" style="stroke:#A80036;stroke-width:1.0;"/><!--MD5=[7f6cf7f175eae0af66201860de5de971]
link Company to TestStore--><path codeLine="71" d="M412.33,377.03 C416.38,399.82 422,431.45 426.5,456.79 " fill="none" id="Company-to-TestStore" style="stroke:#A80036;stroke-width:1.0;"/><polygon fill="#A80036" points="427.39,461.77,429.7571,452.2098,426.517,456.8468,421.88,453.6067,427.39,461.77" style="stroke:#A80036;stroke-width:1.0;"/><polygon fill="#000000" points="427.8746,428.0987,429.1861,418.679,423.3988,419.7071,427.8746,428.0987" style="stroke:#000000;stroke-width:1.0;"/><text fill="#000000" font-family="sans-serif" font-size="13" lengthAdjust="spacing" textLength="28" x="436" y="428.4951">uses</text><text fill="#000000" font-family="sans-serif" font-size="13" lengthAdjust="spacing" textLength="7" x="405.6903" y="398.2599">1</text><text fill="#000000" font-family="sans-serif" font-size="13" lengthAdjust="spacing" textLength="7" x="414.2329" y="451.0909">1</text><!--MD5=[b72ac8ab7fb5921fceb5036a3902baea]
link Test to Sample--><path codeLine="72" d="M156.16,538.16 C148.92,547.86 141.15,558.31 134,568 C123.58,582.12 112.25,597.61 102.16,611.46 " fill="none" id="Test-to-Sample" style="stroke:#A80036;stroke-width:1.0;"/><polygon fill="#A80036" points="99.07,615.7,107.6006,610.7776,102.0126,611.6576,101.1326,606.0696,99.07,615.7" style="stroke:#A80036;stroke-width:1.0;"/><polygon fill="#000000" points="136.0344,581.2013,143.7654,575.6622,139.0331,572.1759,136.0344,581.2013" style="stroke:#000000;stroke-width:1.0;"/><text fill="#000000" font-family="sans-serif" font-size="13" lengthAdjust="spacing" textLength="45" x="148" y="582.4951">collects</text><text fill="#000000" font-family="sans-serif" font-size="13" lengthAdjust="spacing" textLength="7" x="130.8902" y="559.066">1</text><text fill="#000000" font-family="sans-serif" font-size="13" lengthAdjust="spacing" textLength="5" x="98.4465" y="605.0085">*</text><!--MD5=[b0f4f6db8206580012ef9cd998ed01c5]
link TestStore to Test--><path codeLine="74" d="M362.28,500 C330.73,500 293.61,500 261.43,500 " fill="none" id="TestStore-to-Test" style="stroke:#A80036;stroke-width:1.0;"/><polygon fill="#A80036" points="256.31,500,265.31,504,261.31,500,265.31,496,256.31,500" style="stroke:#A80036;stroke-width:1.0;"/><polygon fill="#000000" points="277.25,488.1758,286.2951,491.1147,286.2951,485.2369,277.25,488.1758" style="stroke:#000000;stroke-width:1.0;"/><text fill="#000000" font-family="sans-serif" font-size="13" lengthAdjust="spacing" textLength="49" x="291.25" y="493.4951">contains</text><text fill="#000000" font-family="sans-serif" font-size="13" lengthAdjust="spacing" textLength="7" x="347.4408" y="514.2118">1</text><text fill="#000000" font-family="sans-serif" font-size="13" lengthAdjust="spacing" textLength="5" x="271.9421" y="514.2118">*</text><!--MD5=[9e73c4dac38628e51c731dcaf44d45fc]
reverse link Sample to SampleList--><path codeLine="75" d="M142.24,654 C172.27,654 206.99,654 235.93,654 " fill="none" id="Sample-backto-SampleList" style="stroke:#A80036;stroke-width:1.0;"/><polygon fill="#A80036" points="137.08,654,146.08,658,142.08,654,146.08,650,137.08,654" style="stroke:#A80036;stroke-width:1.0;"/><polygon fill="#000000" points="164.5,642.1758,155.4549,639.2369,155.4549,645.1147,164.5,642.1758" style="stroke:#000000;stroke-width:1.0;"/><text fill="#000000" font-family="sans-serif" font-size="13" lengthAdjust="spacing" textLength="49" x="168.5" y="647.4951">contains</text><text fill="#000000" font-family="sans-serif" font-size="13" lengthAdjust="spacing" textLength="5" x="148.8742" y="668.3552">*</text><text fill="#000000" font-family="sans-serif" font-size="13" lengthAdjust="spacing" textLength="7" x="221.2114" y="668.3983">1</text><!--MD5=[03474f3c6203152d515dbbdcb11a8418]
link Test to SampleList--><path codeLine="76" d="M207.02,538.07 C216.79,553.22 228.55,570.73 240,586 C248.25,597 257.75,608.55 266.6,618.9 " fill="none" id="Test-to-SampleList" style="stroke:#A80036;stroke-width:1.0;"/><polygon fill="#A80036" points="270.09,622.96,267.2523,613.5288,266.829,619.1698,261.188,618.7464,270.09,622.96" style="stroke:#A80036;stroke-width:1.0;"/><polygon fill="#000000" points="247.9667,581.2006,244.9656,572.1759,240.2342,575.6634,247.9667,581.2006" style="stroke:#000000;stroke-width:1.0;"/><text fill="#000000" font-family="sans-serif" font-size="13" lengthAdjust="spacing" textLength="28" x="254" y="582.4951">uses</text><text fill="#000000" font-family="sans-serif" font-size="13" lengthAdjust="spacing" textLength="7" x="203.253" y="559.2517">1</text><text fill="#000000" font-family="sans-serif" font-size="13" lengthAdjust="spacing" textLength="7" x="243.1253" y="611.9715">1</text><!--MD5=[d1174c91dd103f1eabc9b404e690511e]
link SampleUI to TestDTO--><path codeLine="77" d="M479.22,83.09 C503.44,109.35 535.37,143.96 557.18,167.59 " fill="none" id="SampleUI-to-TestDTO" style="stroke:#A80036;stroke-width:1.0;stroke-dasharray:7.0,7.0;"/><polygon fill="#A80036" points="560.59,171.29,557.4292,161.9621,557.2004,167.6143,551.5482,167.3855,560.59,171.29" style="stroke:#A80036;stroke-width:1.0;"/><!--MD5=[70844fab8be57e9d6eca326b5a4607f2]
@startuml

skinparam classAttributeIconSize 0

class SampleUI {
+TestCodeSelection(testList)
+setSampleNumber()
}

class SampleController {
+getTestList()
+setTestCode(testCode)
+setSampleNumber(n)
+createSampleList(n)
}

interface ExternalModuleBarcode {
+BufferedImage barcodeGenerator(String barcodeText)
+saveBarcode(BufferedImage barcodeJPG, String barcodeText)
}

class ExternalModuleBarcodeAdapter {
+barcodeGenerator(barcodeText)
+saveBarcode(barcodeJPG, barcodeText)
}

class Barbecue {
+Barcode createUPCA(java.lang.String data)
}

class Company {
+getTestStore()
}


class TestMapper {
+toDTOList()
}

class TestDTO {
}

class Sample {
-barcodeText
+generateBarcodeUPC()
}

class SampleList {
+saveSample(sample);
}

class TestStore {
+getRegisteredTests()
+getTestByCode(testCode)
}

class Test {
-sampleList
+setSampleList(sampleList)
}

SampleUI ..> SampleController
ExternalModuleBarcode <|.. ExternalModuleBarcodeAdapter
ExternalModuleBarcodeAdapter - -> Barbecue
SampleController ..> Company
SampleController .> TestMapper
TestMapper .> TestDTO
SampleController ..> Sample
SampleController ..> ExternalModuleBarcode
SampleController ..> SampleList
SampleController ...> Test
Company "1"- ->"1 " TestStore : uses >
Test " 1   "- ->"*" Sample : collects >

TestStore "        1"->"  *     " Test : contains >
Sample " *   "<-"   1" SampleList : contains >
Test "1"->"1   " SampleList : uses >
SampleUI ..> TestDTO

@enduml

PlantUML version 1.2021.4(Sun Apr 04 09:49:39 BST 2021)
(GPL source distribution)
Java Runtime: OpenJDK Runtime Environment
JVM: OpenJDK 64-Bit Server VM
Default Encoding: Cp1252
Language: en
Country: US
--></g></svg>