<?xml version="1.0" encoding="UTF-8" standalone="no"?><svg xmlns="http://www.w3.org/2000/svg" xmlns:xlink="http://www.w3.org/1999/xlink" contentScriptType="application/ecmascript" contentStyleType="text/css" height="500.76px" preserveAspectRatio="none" style="width:446px;height:500px;" version="1.1" viewBox="0 0 446 500" width="446.94px" zoomAndPan="magnify"><defs><filter height="300%" id="f4wo2n95el0ss" width="300%" x="-1" y="-1"><feGaussianBlur result="blurOut" stdDeviation="1.56"/><feColorMatrix in="blurOut" result="blurOut2" type="matrix" values="0 0 0 0 0 0 0 0 0 0 0 0 0 0 0 0 0 0 .4 0"/><feOffset dx="3.12" dy="3.12" in="blurOut2" result="blurOut3"/><feBlend in="SourceGraphic" in2="blurOut3" mode="normal"/></filter></defs><g><!--MD5=[02e4b9b7573f1156f41e60aa5b4e25a4]
class Company--><rect codeLine="4" fill="#FEFECE" filter="url(#f4wo2n95el0ss)" height="48.232" id="Company" style="stroke:#A80036;stroke-width:1.17;" width="66.3" x="103.74" y="202.02"/><ellipse cx="115.44" cy="214.5" fill="#ADD1B2" rx="8.58" ry="8.58" style="stroke:#A80036;stroke-width:0.78;"/><path d="M117,211.77 Q117.1584,211.38 117.3413,211.185 Q117.5241,210.99 117.7313,210.99 Q118.0969,210.99 118.3284,211.2094 Q118.56,211.4288 118.56,211.9406 L118.56,213.1594 Q118.56,213.6713 118.3406,213.8906 Q118.1213,214.11 117.78,214.11 Q117.4753,214.11 117.2803,213.9759 Q117.0853,213.8419 117,213.4884 Q116.9634,213.2447 116.8294,213.1106 Q116.5856,212.8547 116.1469,212.7084 Q115.7081,212.55 115.2694,212.55 Q114.7209,212.55 114.2578,212.7694 Q113.8069,212.9888 113.4534,213.4763 Q113.1,213.9638 113.1,214.6341 L113.1,215.3531 Q113.1,216.1575 113.7581,216.6938 Q114.4163,217.23 115.5863,217.23 Q116.2809,217.23 116.7684,217.0716 Q117.0488,216.9863 117.3656,216.7059 Q117.5728,216.5475 117.6825,216.4988 Q117.7922,216.45 117.9263,216.45 Q118.1822,216.45 118.365,216.6572 Q118.56,216.8522 118.56,217.1325 Q118.56,217.4006 118.2919,217.7175 Q117.9019,218.1806 117.2803,218.4366 Q116.4638,218.79 115.4644,218.79 Q114.2944,218.79 113.3559,218.3269 Q112.6003,217.9613 112.0641,217.1691 Q111.54,216.3769 111.54,215.4384 L111.54,214.5853 Q111.54,213.6103 112.0031,212.7572 Q112.4784,211.9041 113.295,211.4531 Q114.1238,210.99 115.05,210.99 Q115.6106,210.99 116.0981,211.185 Q116.5856,211.38 117,211.77 Z " fill="#000000"/><text fill="#000000" font-family="sans-serif" font-size="9.36" lengthAdjust="spacing" textLength="41.34" x="126.36" y="218.3299">Company</text><line style="stroke:#A80036;stroke-width:1.17;" x1="104.52" x2="169.26" y1="226.98" y2="226.98"/><text fill="#000000" font-family="sans-serif" font-size="8.58" lengthAdjust="spacing" textLength="46.02" x="108.42" y="239.0068">-designation</text><line style="stroke:#A80036;stroke-width:1.17;" x1="104.52" x2="169.26" y1="244.012" y2="244.012"/><!--MD5=[df38be88ccee13e832d6fafd6288a4ca]
class Test--><rect codeLine="7" fill="#FEFECE" filter="url(#f4wo2n95el0ss)" height="48.232" id="Test" style="stroke:#A80036;stroke-width:1.17;" width="43.68" x="115.05" y="316.68"/><ellipse cx="126.75" cy="329.16" fill="#ADD1B2" rx="8.58" ry="8.58" style="stroke:#A80036;stroke-width:0.78;"/><path d="M128.31,326.43 Q128.4684,326.04 128.6513,325.845 Q128.8341,325.65 129.0413,325.65 Q129.4069,325.65 129.6384,325.8694 Q129.87,326.0888 129.87,326.6006 L129.87,327.8194 Q129.87,328.3313 129.6506,328.5506 Q129.4313,328.77 129.09,328.77 Q128.7853,328.77 128.5903,328.6359 Q128.3953,328.5019 128.31,328.1484 Q128.2734,327.9047 128.1394,327.7706 Q127.8956,327.5147 127.4569,327.3684 Q127.0181,327.21 126.5794,327.21 Q126.0309,327.21 125.5678,327.4294 Q125.1169,327.6488 124.7634,328.1363 Q124.41,328.6238 124.41,329.2941 L124.41,330.0131 Q124.41,330.8175 125.0681,331.3538 Q125.7263,331.89 126.8963,331.89 Q127.5909,331.89 128.0784,331.7316 Q128.3588,331.6463 128.6756,331.3659 Q128.8828,331.2075 128.9925,331.1588 Q129.1022,331.11 129.2363,331.11 Q129.4922,331.11 129.675,331.3172 Q129.87,331.5122 129.87,331.7925 Q129.87,332.0606 129.6019,332.3775 Q129.2119,332.8406 128.5903,333.0966 Q127.7738,333.45 126.7744,333.45 Q125.6044,333.45 124.6659,332.9869 Q123.9103,332.6213 123.3741,331.8291 Q122.85,331.0369 122.85,330.0984 L122.85,329.2453 Q122.85,328.2703 123.3131,327.4172 Q123.7884,326.5641 124.605,326.1131 Q125.4338,325.65 126.36,325.65 Q126.9206,325.65 127.4081,325.845 Q127.8956,326.04 128.31,326.43 Z " fill="#000000"/><text fill="#000000" font-family="sans-serif" font-size="9.36" lengthAdjust="spacing" textLength="18.72" x="137.67" y="332.9899">Test</text><line style="stroke:#A80036;stroke-width:1.17;" x1="115.83" x2="157.95" y1="341.64" y2="341.64"/><text fill="#000000" font-family="sans-serif" font-size="8.58" lengthAdjust="spacing" textLength="21.84" x="119.73" y="353.6668">-code</text><line style="stroke:#A80036;stroke-width:1.17;" x1="115.83" x2="157.95" y1="358.672" y2="358.672"/><!--MD5=[ed6624c6556d5e7b1bd23032162d20b7]
class Client--><rect codeLine="10" fill="#FEFECE" filter="url(#f4wo2n95el0ss)" height="48.232" id="Client" style="stroke:#A80036;stroke-width:1.17;" width="49.92" x="111.93" y="436.8"/><ellipse cx="123.63" cy="449.28" fill="#ADD1B2" rx="8.58" ry="8.58" style="stroke:#A80036;stroke-width:0.78;"/><path d="M125.19,446.55 Q125.3484,446.16 125.5313,445.965 Q125.7141,445.77 125.9213,445.77 Q126.2869,445.77 126.5184,445.9894 Q126.75,446.2088 126.75,446.7206 L126.75,447.9394 Q126.75,448.4513 126.5306,448.6706 Q126.3113,448.89 125.97,448.89 Q125.6653,448.89 125.4703,448.7559 Q125.2753,448.6219 125.19,448.2684 Q125.1534,448.0247 125.0194,447.8906 Q124.7756,447.6347 124.3369,447.4884 Q123.8981,447.33 123.4594,447.33 Q122.9109,447.33 122.4478,447.5494 Q121.9969,447.7688 121.6434,448.2563 Q121.29,448.7438 121.29,449.4141 L121.29,450.1331 Q121.29,450.9375 121.9481,451.4738 Q122.6063,452.01 123.7763,452.01 Q124.4709,452.01 124.9584,451.8516 Q125.2388,451.7663 125.5556,451.4859 Q125.7628,451.3275 125.8725,451.2788 Q125.9822,451.23 126.1163,451.23 Q126.3722,451.23 126.555,451.4372 Q126.75,451.6322 126.75,451.9125 Q126.75,452.1806 126.4819,452.4975 Q126.0919,452.9606 125.4703,453.2166 Q124.6538,453.57 123.6544,453.57 Q122.4844,453.57 121.5459,453.1069 Q120.7903,452.7413 120.2541,451.9491 Q119.73,451.1569 119.73,450.2184 L119.73,449.3653 Q119.73,448.3903 120.1931,447.5372 Q120.6684,446.6841 121.485,446.2331 Q122.3138,445.77 123.24,445.77 Q123.8006,445.77 124.2881,445.965 Q124.7756,446.16 125.19,446.55 Z " fill="#000000"/><text fill="#000000" font-family="sans-serif" font-size="9.36" lengthAdjust="spacing" textLength="24.96" x="134.55" y="453.1099">Client</text><line style="stroke:#A80036;stroke-width:1.17;" x1="112.71" x2="161.07" y1="461.76" y2="461.76"/><text fill="#000000" font-family="sans-serif" font-size="8.58" lengthAdjust="spacing" textLength="36.66" x="116.61" y="473.7868">-birthDate</text><line style="stroke:#A80036;stroke-width:1.17;" x1="112.71" x2="161.07" y1="478.792" y2="478.792"/><!--MD5=[6f57bde7dde74de5002c105391146556]
class MultiLinearRegression--><rect codeLine="13" fill="#FEFECE" filter="url(#f4wo2n95el0ss)" height="37.44" id="MultiLinearRegression" style="stroke:#A80036;stroke-width:1.17;" width="122.46" x="5.46" y="103.74"/><ellipse cx="17.16" cy="116.22" fill="#ADD1B2" rx="8.58" ry="8.58" style="stroke:#A80036;stroke-width:0.78;"/><path d="M18.72,113.49 Q18.8784,113.1 19.0613,112.905 Q19.2441,112.71 19.4513,112.71 Q19.8169,112.71 20.0484,112.9294 Q20.28,113.1488 20.28,113.6606 L20.28,114.8794 Q20.28,115.3913 20.0606,115.6106 Q19.8413,115.83 19.5,115.83 Q19.1953,115.83 19.0003,115.6959 Q18.8053,115.5619 18.72,115.2084 Q18.6834,114.9647 18.5494,114.8306 Q18.3056,114.5747 17.8669,114.4284 Q17.4281,114.27 16.9894,114.27 Q16.4409,114.27 15.9778,114.4894 Q15.5269,114.7088 15.1734,115.1963 Q14.82,115.6838 14.82,116.3541 L14.82,117.0731 Q14.82,117.8775 15.4781,118.4138 Q16.1363,118.95 17.3063,118.95 Q18.0009,118.95 18.4884,118.7916 Q18.7688,118.7063 19.0856,118.4259 Q19.2928,118.2675 19.4025,118.2188 Q19.5122,118.17 19.6463,118.17 Q19.9022,118.17 20.085,118.3772 Q20.28,118.5722 20.28,118.8525 Q20.28,119.1206 20.0119,119.4375 Q19.6219,119.9006 19.0003,120.1566 Q18.1838,120.51 17.1844,120.51 Q16.0144,120.51 15.0759,120.0469 Q14.3203,119.6813 13.7841,118.8891 Q13.26,118.0969 13.26,117.1584 L13.26,116.3053 Q13.26,115.3303 13.7231,114.4772 Q14.1984,113.6241 15.015,113.1731 Q15.8438,112.71 16.77,112.71 Q17.3306,112.71 17.8181,112.905 Q18.3056,113.1 18.72,113.49 Z " fill="#000000"/><text fill="#000000" font-family="sans-serif" font-size="9.36" lengthAdjust="spacing" textLength="97.5" x="28.08" y="120.0499">MultiLinearRegression</text><line style="stroke:#A80036;stroke-width:1.17;" x1="6.24" x2="127.14" y1="128.7" y2="128.7"/><line style="stroke:#A80036;stroke-width:1.17;" x1="6.24" x2="127.14" y1="134.94" y2="134.94"/><!--MD5=[ef340af6512c03d5eeac92509be9c66b]
class LinearRegression--><rect codeLine="15" fill="#FEFECE" filter="url(#f4wo2n95el0ss)" height="37.44" id="LinearRegression" style="stroke:#A80036;stroke-width:1.17;" width="102.96" x="155.61" y="103.74"/><ellipse cx="167.31" cy="116.22" fill="#ADD1B2" rx="8.58" ry="8.58" style="stroke:#A80036;stroke-width:0.78;"/><path d="M168.87,113.49 Q169.0284,113.1 169.2113,112.905 Q169.3941,112.71 169.6013,112.71 Q169.9669,112.71 170.1984,112.9294 Q170.43,113.1488 170.43,113.6606 L170.43,114.8794 Q170.43,115.3913 170.2106,115.6106 Q169.9913,115.83 169.65,115.83 Q169.3453,115.83 169.1503,115.6959 Q168.9553,115.5619 168.87,115.2084 Q168.8334,114.9647 168.6994,114.8306 Q168.4556,114.5747 168.0169,114.4284 Q167.5781,114.27 167.1394,114.27 Q166.5909,114.27 166.1278,114.4894 Q165.6769,114.7088 165.3234,115.1963 Q164.97,115.6838 164.97,116.3541 L164.97,117.0731 Q164.97,117.8775 165.6281,118.4138 Q166.2863,118.95 167.4563,118.95 Q168.1509,118.95 168.6384,118.7916 Q168.9188,118.7063 169.2356,118.4259 Q169.4428,118.2675 169.5525,118.2188 Q169.6622,118.17 169.7963,118.17 Q170.0522,118.17 170.235,118.3772 Q170.43,118.5722 170.43,118.8525 Q170.43,119.1206 170.1619,119.4375 Q169.7719,119.9006 169.1503,120.1566 Q168.3338,120.51 167.3344,120.51 Q166.1644,120.51 165.2259,120.0469 Q164.4703,119.6813 163.9341,118.8891 Q163.41,118.0969 163.41,117.1584 L163.41,116.3053 Q163.41,115.3303 163.8731,114.4772 Q164.3484,113.6241 165.165,113.1731 Q165.9938,112.71 166.92,112.71 Q167.4806,112.71 167.9681,112.905 Q168.4556,113.1 168.87,113.49 Z " fill="#000000"/><text fill="#000000" font-family="sans-serif" font-size="9.36" lengthAdjust="spacing" textLength="78" x="178.23" y="120.0499">LinearRegression</text><line style="stroke:#A80036;stroke-width:1.17;" x1="156.39" x2="257.79" y1="128.7" y2="128.7"/><line style="stroke:#A80036;stroke-width:1.17;" x1="156.39" x2="257.79" y1="134.94" y2="134.94"/><!--MD5=[906102cd9c3f86a843ffe169f50170bd]
class WriteReport--><rect codeLine="17" fill="#FEFECE" filter="url(#f4wo2n95el0ss)" height="37.44" id="WriteReport" style="stroke:#A80036;stroke-width:1.17;" width="75.66" x="99.06" y="5.46"/><ellipse cx="110.76" cy="17.94" fill="#ADD1B2" rx="8.58" ry="8.58" style="stroke:#A80036;stroke-width:0.78;"/><path d="M112.32,15.21 Q112.4784,14.82 112.6613,14.625 Q112.8441,14.43 113.0513,14.43 Q113.4169,14.43 113.6484,14.6494 Q113.88,14.8688 113.88,15.3806 L113.88,16.5994 Q113.88,17.1113 113.6606,17.3306 Q113.4413,17.55 113.1,17.55 Q112.7953,17.55 112.6003,17.4159 Q112.4053,17.2819 112.32,16.9284 Q112.2834,16.6847 112.1494,16.5506 Q111.9056,16.2947 111.4669,16.1484 Q111.0281,15.99 110.5894,15.99 Q110.0409,15.99 109.5778,16.2094 Q109.1269,16.4288 108.7734,16.9163 Q108.42,17.4038 108.42,18.0741 L108.42,18.7931 Q108.42,19.5975 109.0781,20.1338 Q109.7363,20.67 110.9063,20.67 Q111.6009,20.67 112.0884,20.5116 Q112.3688,20.4263 112.6856,20.1459 Q112.8928,19.9875 113.0025,19.9388 Q113.1122,19.89 113.2463,19.89 Q113.5022,19.89 113.685,20.0972 Q113.88,20.2922 113.88,20.5725 Q113.88,20.8406 113.6119,21.1575 Q113.2219,21.6206 112.6003,21.8766 Q111.7838,22.23 110.7844,22.23 Q109.6144,22.23 108.6759,21.7669 Q107.9203,21.4013 107.3841,20.6091 Q106.86,19.8169 106.86,18.8784 L106.86,18.0253 Q106.86,17.0503 107.3231,16.1972 Q107.7984,15.3441 108.615,14.8931 Q109.4438,14.43 110.37,14.43 Q110.9306,14.43 111.4181,14.625 Q111.9056,14.82 112.32,15.21 Z " fill="#000000"/><text fill="#000000" font-family="sans-serif" font-size="9.36" lengthAdjust="spacing" textLength="50.7" x="121.68" y="21.7699">WriteReport</text><line style="stroke:#A80036;stroke-width:1.17;" x1="99.84" x2="173.94" y1="30.42" y2="30.42"/><line style="stroke:#A80036;stroke-width:1.17;" x1="99.84" x2="173.94" y1="36.66" y2="36.66"/><!--MD5=[4e608140b854dae633589343bce77383]
class TestParameterResult--><rect codeLine="19" fill="#FEFECE" filter="url(#f4wo2n95el0ss)" height="48.232" id="TestParameterResult" style="stroke:#A80036;stroke-width:1.17;" width="117" x="284.31" y="202.02"/><ellipse cx="296.01" cy="214.5" fill="#ADD1B2" rx="8.58" ry="8.58" style="stroke:#A80036;stroke-width:0.78;"/><path d="M297.57,211.77 Q297.7284,211.38 297.9113,211.185 Q298.0941,210.99 298.3013,210.99 Q298.6669,210.99 298.8984,211.2094 Q299.13,211.4288 299.13,211.9406 L299.13,213.1594 Q299.13,213.6713 298.9106,213.8906 Q298.6913,214.11 298.35,214.11 Q298.0453,214.11 297.8503,213.9759 Q297.6553,213.8419 297.57,213.4884 Q297.5334,213.2447 297.3994,213.1106 Q297.1556,212.8547 296.7169,212.7084 Q296.2781,212.55 295.8394,212.55 Q295.2909,212.55 294.8278,212.7694 Q294.3769,212.9888 294.0234,213.4763 Q293.67,213.9638 293.67,214.6341 L293.67,215.3531 Q293.67,216.1575 294.3281,216.6938 Q294.9863,217.23 296.1563,217.23 Q296.8509,217.23 297.3384,217.0716 Q297.6188,216.9863 297.9356,216.7059 Q298.1428,216.5475 298.2525,216.4988 Q298.3622,216.45 298.4963,216.45 Q298.7522,216.45 298.935,216.6572 Q299.13,216.8522 299.13,217.1325 Q299.13,217.4006 298.8619,217.7175 Q298.4719,218.1806 297.8503,218.4366 Q297.0338,218.79 296.0344,218.79 Q294.8644,218.79 293.9259,218.3269 Q293.1703,217.9613 292.6341,217.1691 Q292.11,216.3769 292.11,215.4384 L292.11,214.5853 Q292.11,213.6103 292.5731,212.7572 Q293.0484,211.9041 293.865,211.4531 Q294.6938,210.99 295.62,210.99 Q296.1806,210.99 296.6681,211.185 Q297.1556,211.38 297.57,211.77 Z " fill="#000000"/><text fill="#000000" font-family="sans-serif" font-size="9.36" lengthAdjust="spacing" textLength="92.04" x="306.93" y="218.3299">TestParameterResult</text><line style="stroke:#A80036;stroke-width:1.17;" x1="285.09" x2="400.53" y1="226.98" y2="226.98"/><text fill="#000000" font-family="sans-serif" font-size="8.58" lengthAdjust="spacing" textLength="23.4" x="288.99" y="239.0068">-value</text><line style="stroke:#A80036;stroke-width:1.17;" x1="285.09" x2="400.53" y1="244.012" y2="244.012"/><!--MD5=[a96594a83e2ecdc78cbf17c2ddf01934]
class Category--><rect codeLine="22" fill="#FEFECE" filter="url(#f4wo2n95el0ss)" height="59.0241" id="Category" style="stroke:#A80036;stroke-width:1.17;" width="63.18" x="263.64" y="431.34"/><ellipse cx="275.34" cy="443.82" fill="#ADD1B2" rx="8.58" ry="8.58" style="stroke:#A80036;stroke-width:0.78;"/><path d="M276.9,441.09 Q277.0584,440.7 277.2413,440.505 Q277.4241,440.31 277.6313,440.31 Q277.9969,440.31 278.2284,440.5294 Q278.46,440.7488 278.46,441.2606 L278.46,442.4794 Q278.46,442.9913 278.2406,443.2106 Q278.0213,443.43 277.68,443.43 Q277.3753,443.43 277.1803,443.2959 Q276.9853,443.1619 276.9,442.8084 Q276.8634,442.5647 276.7294,442.4306 Q276.4856,442.1747 276.0469,442.0284 Q275.6081,441.87 275.1694,441.87 Q274.6209,441.87 274.1578,442.0894 Q273.7069,442.3088 273.3534,442.7963 Q273,443.2838 273,443.9541 L273,444.6731 Q273,445.4775 273.6581,446.0138 Q274.3163,446.55 275.4863,446.55 Q276.1809,446.55 276.6684,446.3916 Q276.9488,446.3063 277.2656,446.0259 Q277.4728,445.8675 277.5825,445.8188 Q277.6922,445.77 277.8263,445.77 Q278.0822,445.77 278.265,445.9772 Q278.46,446.1722 278.46,446.4525 Q278.46,446.7206 278.1919,447.0375 Q277.8019,447.5006 277.1803,447.7566 Q276.3638,448.11 275.3644,448.11 Q274.1944,448.11 273.2559,447.6469 Q272.5003,447.2813 271.9641,446.4891 Q271.44,445.6969 271.44,444.7584 L271.44,443.9053 Q271.44,442.9303 271.9031,442.0772 Q272.3784,441.2241 273.195,440.7731 Q274.0238,440.31 274.95,440.31 Q275.5106,440.31 275.9981,440.505 Q276.4856,440.7 276.9,441.09 Z " fill="#000000"/><text fill="#000000" font-family="sans-serif" font-size="9.36" lengthAdjust="spacing" textLength="38.22" x="286.26" y="447.6499">Category</text><line style="stroke:#A80036;stroke-width:1.17;" x1="264.42" x2="326.04" y1="456.3" y2="456.3"/><text fill="#000000" font-family="sans-serif" font-size="8.58" lengthAdjust="spacing" textLength="21.84" x="268.32" y="468.3268">-code</text><text fill="#000000" font-family="sans-serif" font-size="8.58" lengthAdjust="spacing" textLength="44.46" x="268.32" y="479.1188">-description</text><line style="stroke:#A80036;stroke-width:1.17;" x1="264.42" x2="326.04" y1="484.1241" y2="484.1241"/><!--MD5=[aeb3272166074d8737a70b61b1e71682]
class TestType--><rect codeLine="26" fill="#FEFECE" filter="url(#f4wo2n95el0ss)" height="59.0241" id="TestType" style="stroke:#A80036;stroke-width:1.17;" width="63.96" x="216.45" y="311.22"/><ellipse cx="228.15" cy="323.7" fill="#ADD1B2" rx="8.58" ry="8.58" style="stroke:#A80036;stroke-width:0.78;"/><path d="M229.71,320.97 Q229.8684,320.58 230.0513,320.385 Q230.2341,320.19 230.4413,320.19 Q230.8069,320.19 231.0384,320.4094 Q231.27,320.6288 231.27,321.1406 L231.27,322.3594 Q231.27,322.8713 231.0506,323.0906 Q230.8313,323.31 230.49,323.31 Q230.1853,323.31 229.9903,323.1759 Q229.7953,323.0419 229.71,322.6884 Q229.6734,322.4447 229.5394,322.3106 Q229.2956,322.0547 228.8569,321.9084 Q228.4181,321.75 227.9794,321.75 Q227.4309,321.75 226.9678,321.9694 Q226.5169,322.1888 226.1634,322.6763 Q225.81,323.1638 225.81,323.8341 L225.81,324.5531 Q225.81,325.3575 226.4681,325.8938 Q227.1263,326.43 228.2963,326.43 Q228.9909,326.43 229.4784,326.2716 Q229.7588,326.1863 230.0756,325.9059 Q230.2828,325.7475 230.3925,325.6988 Q230.5022,325.65 230.6363,325.65 Q230.8922,325.65 231.075,325.8572 Q231.27,326.0522 231.27,326.3325 Q231.27,326.6006 231.0019,326.9175 Q230.6119,327.3806 229.9903,327.6366 Q229.1738,327.99 228.1744,327.99 Q227.0044,327.99 226.0659,327.5269 Q225.3103,327.1613 224.7741,326.3691 Q224.25,325.5769 224.25,324.6384 L224.25,323.7853 Q224.25,322.8103 224.7131,321.9572 Q225.1884,321.1041 226.005,320.6531 Q226.8338,320.19 227.76,320.19 Q228.3206,320.19 228.8081,320.385 Q229.2956,320.58 229.71,320.97 Z " fill="#000000"/><text fill="#000000" font-family="sans-serif" font-size="9.36" lengthAdjust="spacing" textLength="39" x="239.07" y="327.5299">TestType</text><line style="stroke:#A80036;stroke-width:1.17;" x1="217.23" x2="279.63" y1="336.18" y2="336.18"/><text fill="#000000" font-family="sans-serif" font-size="8.58" lengthAdjust="spacing" textLength="21.84" x="221.13" y="348.2068">-code</text><text fill="#000000" font-family="sans-serif" font-size="8.58" lengthAdjust="spacing" textLength="44.46" x="221.13" y="358.9988">-description</text><line style="stroke:#A80036;stroke-width:1.17;" x1="217.23" x2="279.63" y1="364.0041" y2="364.0041"/><!--MD5=[1f6362a5c8f21d8d6a0fce68f3a92a4e]
class Parameter--><rect codeLine="30" fill="#FEFECE" filter="url(#f4wo2n95el0ss)" height="59.0241" id="Parameter" style="stroke:#A80036;stroke-width:1.17;" width="70.2" x="307.71" y="311.22"/><ellipse cx="319.41" cy="323.7" fill="#ADD1B2" rx="8.58" ry="8.58" style="stroke:#A80036;stroke-width:0.78;"/><path d="M320.97,320.97 Q321.1284,320.58 321.3113,320.385 Q321.4941,320.19 321.7013,320.19 Q322.0669,320.19 322.2984,320.4094 Q322.53,320.6288 322.53,321.1406 L322.53,322.3594 Q322.53,322.8713 322.3106,323.0906 Q322.0913,323.31 321.75,323.31 Q321.4453,323.31 321.2503,323.1759 Q321.0553,323.0419 320.97,322.6884 Q320.9334,322.4447 320.7994,322.3106 Q320.5556,322.0547 320.1169,321.9084 Q319.6781,321.75 319.2394,321.75 Q318.6909,321.75 318.2278,321.9694 Q317.7769,322.1888 317.4234,322.6763 Q317.07,323.1638 317.07,323.8341 L317.07,324.5531 Q317.07,325.3575 317.7281,325.8938 Q318.3863,326.43 319.5563,326.43 Q320.2509,326.43 320.7384,326.2716 Q321.0188,326.1863 321.3356,325.9059 Q321.5428,325.7475 321.6525,325.6988 Q321.7622,325.65 321.8963,325.65 Q322.1522,325.65 322.335,325.8572 Q322.53,326.0522 322.53,326.3325 Q322.53,326.6006 322.2619,326.9175 Q321.8719,327.3806 321.2503,327.6366 Q320.4338,327.99 319.4344,327.99 Q318.2644,327.99 317.3259,327.5269 Q316.5703,327.1613 316.0341,326.3691 Q315.51,325.5769 315.51,324.6384 L315.51,323.7853 Q315.51,322.8103 315.9731,321.9572 Q316.4484,321.1041 317.265,320.6531 Q318.0938,320.19 319.02,320.19 Q319.5806,320.19 320.0681,320.385 Q320.5556,320.58 320.97,320.97 Z " fill="#000000"/><text fill="#000000" font-family="sans-serif" font-size="9.36" lengthAdjust="spacing" textLength="45.24" x="330.33" y="327.5299">Parameter</text><line style="stroke:#A80036;stroke-width:1.17;" x1="308.49" x2="377.13" y1="336.18" y2="336.18"/><text fill="#000000" font-family="sans-serif" font-size="8.58" lengthAdjust="spacing" textLength="21.84" x="312.39" y="348.2068">-code</text><text fill="#000000" font-family="sans-serif" font-size="8.58" lengthAdjust="spacing" textLength="44.46" x="312.39" y="358.9988">-description</text><line style="stroke:#A80036;stroke-width:1.17;" x1="308.49" x2="377.13" y1="364.0041" y2="364.0041"/><!--MD5=[f248ffeaa3c70a764b4e5f712065dec6]
class NHS API--><rect fill="#FEFECE" filter="url(#f4wo2n95el0ss)" height="37.44" id="NHS API" style="stroke:#A80036;stroke-width:1.17;" width="61.62" x="248.04" y="5.46"/><ellipse cx="259.74" cy="17.94" fill="#ADD1B2" rx="8.58" ry="8.58" style="stroke:#A80036;stroke-width:0.78;"/><path d="M261.3,15.21 Q261.4584,14.82 261.6413,14.625 Q261.8241,14.43 262.0313,14.43 Q262.3969,14.43 262.6284,14.6494 Q262.86,14.8688 262.86,15.3806 L262.86,16.5994 Q262.86,17.1113 262.6406,17.3306 Q262.4213,17.55 262.08,17.55 Q261.7753,17.55 261.5803,17.4159 Q261.3853,17.2819 261.3,16.9284 Q261.2634,16.6847 261.1294,16.5506 Q260.8856,16.2947 260.4469,16.1484 Q260.0081,15.99 259.5694,15.99 Q259.0209,15.99 258.5578,16.2094 Q258.1069,16.4288 257.7534,16.9163 Q257.4,17.4038 257.4,18.0741 L257.4,18.7931 Q257.4,19.5975 258.0581,20.1338 Q258.7163,20.67 259.8863,20.67 Q260.5809,20.67 261.0684,20.5116 Q261.3488,20.4263 261.6656,20.1459 Q261.8728,19.9875 261.9825,19.9388 Q262.0922,19.89 262.2263,19.89 Q262.4822,19.89 262.665,20.0972 Q262.86,20.2922 262.86,20.5725 Q262.86,20.8406 262.5919,21.1575 Q262.2019,21.6206 261.5803,21.8766 Q260.7638,22.23 259.7644,22.23 Q258.5944,22.23 257.6559,21.7669 Q256.9003,21.4013 256.3641,20.6091 Q255.84,19.8169 255.84,18.8784 L255.84,18.0253 Q255.84,17.0503 256.3031,16.1972 Q256.7784,15.3441 257.595,14.8931 Q258.4238,14.43 259.35,14.43 Q259.9106,14.43 260.3981,14.625 Q260.8856,14.82 261.3,15.21 Z " fill="#000000"/><text fill="#000000" font-family="sans-serif" font-size="9.36" lengthAdjust="spacing" textLength="36.66" x="270.66" y="21.7699">NHS API</text><line style="stroke:#A80036;stroke-width:1.17;" x1="248.82" x2="308.88" y1="30.42" y2="30.42"/><line style="stroke:#A80036;stroke-width:1.17;" x1="248.82" x2="308.88" y1="36.66" y2="36.66"/><!--MD5=[0a105ea8d9af02dadec02d3e239f1d60]
class NHS--><rect fill="#FEFECE" filter="url(#f4wo2n95el0ss)" height="37.44" id="NHS" style="stroke:#A80036;stroke-width:1.17;" width="45.24" x="391.17" y="5.46"/><ellipse cx="402.87" cy="17.94" fill="#ADD1B2" rx="8.58" ry="8.58" style="stroke:#A80036;stroke-width:0.78;"/><path d="M404.43,15.21 Q404.5884,14.82 404.7713,14.625 Q404.9541,14.43 405.1613,14.43 Q405.5269,14.43 405.7584,14.6494 Q405.99,14.8688 405.99,15.3806 L405.99,16.5994 Q405.99,17.1113 405.7706,17.3306 Q405.5513,17.55 405.21,17.55 Q404.9053,17.55 404.7103,17.4159 Q404.5153,17.2819 404.43,16.9284 Q404.3934,16.6847 404.2594,16.5506 Q404.0156,16.2947 403.5769,16.1484 Q403.1381,15.99 402.6994,15.99 Q402.1509,15.99 401.6878,16.2094 Q401.2369,16.4288 400.8834,16.9163 Q400.53,17.4038 400.53,18.0741 L400.53,18.7931 Q400.53,19.5975 401.1881,20.1338 Q401.8463,20.67 403.0163,20.67 Q403.7109,20.67 404.1984,20.5116 Q404.4788,20.4263 404.7956,20.1459 Q405.0028,19.9875 405.1125,19.9388 Q405.2222,19.89 405.3563,19.89 Q405.6122,19.89 405.795,20.0972 Q405.99,20.2922 405.99,20.5725 Q405.99,20.8406 405.7219,21.1575 Q405.3319,21.6206 404.7103,21.8766 Q403.8938,22.23 402.8944,22.23 Q401.7244,22.23 400.7859,21.7669 Q400.0303,21.4013 399.4941,20.6091 Q398.97,19.8169 398.97,18.8784 L398.97,18.0253 Q398.97,17.0503 399.4331,16.1972 Q399.9084,15.3441 400.725,14.8931 Q401.5538,14.43 402.48,14.43 Q403.0406,14.43 403.5281,14.625 Q404.0156,14.82 404.43,15.21 Z " fill="#000000"/><text fill="#000000" font-family="sans-serif" font-size="9.36" lengthAdjust="spacing" textLength="20.28" x="413.79" y="21.7699">NHS</text><line style="stroke:#A80036;stroke-width:1.17;" x1="391.95" x2="435.63" y1="30.42" y2="30.42"/><line style="stroke:#A80036;stroke-width:1.17;" x1="391.95" x2="435.63" y1="36.66" y2="36.66"/><!--MD5=[7afa54c20a293a4da0009667bd2824dd]
link WriteReport to NHS API--><path codeLine="36" d="M174.9306,24.18 C197.7612,24.18 226.4418,24.18 247.8762,24.18 " fill="none" id="WriteReport-NHS API" style="stroke:#A80036;stroke-width:0.78;"/><polygon fill="#000000" points="196.17,14.9571,189.1148,12.6647,189.1148,17.2495,196.17,14.9571" style="stroke:#000000;stroke-width:0.78;"/><text fill="#000000" font-family="sans-serif" font-size="10.14" lengthAdjust="spacing" textLength="34.32" x="199.29" y="19.1062">sent via</text><text fill="#000000" font-family="sans-serif" font-size="10.14" lengthAdjust="spacing" textLength="3.9" x="181.0542" y="21.2917">*</text><text fill="#000000" font-family="sans-serif" font-size="10.14" lengthAdjust="spacing" textLength="5.46" x="236.4127" y="21.1391">1</text><!--MD5=[1675dbda762c12f232b018a6db7826c4]
link NHS API to NHS--><path codeLine="37" d="M309.8082,24.18 C334.5498,24.18 368.667,24.18 390.975,24.18 " fill="none" id="NHS API-NHS" style="stroke:#A80036;stroke-width:0.78;"/><polygon fill="#000000" points="330.915,14.9571,323.8598,12.6647,323.8598,17.2495,330.915,14.9571" style="stroke:#000000;stroke-width:0.78;"/><text fill="#000000" font-family="sans-serif" font-size="10.14" lengthAdjust="spacing" textLength="42.9" x="334.035" y="19.1062">owned by</text><!--MD5=[3ddd0cddda42f494c4d02009f853355b]
link MultiLinearRegression to Company--><path codeLine="38" d="M78.7566,141.2502 C86.0574,152.1 95.5812,166.1868 104.13,178.62 C109.356,186.2172 115.1124,194.4696 120.315,201.903 " fill="none" id="MultiLinearRegression-Company" style="stroke:#A80036;stroke-width:0.78;"/><polygon fill="#000000" points="105.8256,168.5199,107.9224,175.6356,111.7044,173.0442,105.8256,168.5199" style="stroke:#000000;stroke-width:0.78;"/><text fill="#000000" font-family="sans-serif" font-size="10.14" lengthAdjust="spacing" textLength="44.46" x="115.05" y="175.8862">generates</text><text fill="#000000" font-family="sans-serif" font-size="10.14" lengthAdjust="spacing" textLength="3.9" x="77.3225" y="157.9109">*</text><text fill="#000000" font-family="sans-serif" font-size="10.14" lengthAdjust="spacing" textLength="5.46" x="110.8733" y="193.6924">1</text><!--MD5=[832db0746dd3d6979cf8a610a19b8219]
link LinearRegression to Company--><path codeLine="39" d="M194.7036,141.2736 C183.1284,158.1138 165.7812,183.3624 153.114,201.8094 " fill="none" id="LinearRegression-Company" style="stroke:#A80036;stroke-width:0.78;"/><polygon fill="#000000" points="185.1184,168.5226,179.2339,173.0396,183.0128,175.6358,185.1184,168.5226" style="stroke:#000000;stroke-width:0.78;"/><text fill="#000000" font-family="sans-serif" font-size="10.14" lengthAdjust="spacing" textLength="44.46" x="189.93" y="175.8862">generates</text><text fill="#000000" font-family="sans-serif" font-size="10.14" lengthAdjust="spacing" textLength="3.9" x="187.3091" y="157.94">*</text><text fill="#000000" font-family="sans-serif" font-size="10.14" lengthAdjust="spacing" textLength="5.46" x="150.4371" y="193.5795">1</text><!--MD5=[6b376ca7614b88316936f98332ad4b74]
link WriteReport to MultiLinearRegression--><path codeLine="40" d="M123.8484,42.9234 C111.3216,60.1926 92.4846,86.1432 79.8954,103.4826 " fill="none" id="WriteReport-MultiLinearRegression" style="stroke:#A80036;stroke-width:0.78;"/><polygon fill="#000000" points="112.6608,70.3008,106.6615,74.6641,110.3719,77.3571,112.6608,70.3008" style="stroke:#000000;stroke-width:0.78;"/><text fill="#000000" font-family="sans-serif" font-size="10.14" lengthAdjust="spacing" textLength="33.54" x="117.39" y="77.6062">creates</text><text fill="#000000" font-family="sans-serif" font-size="10.14" lengthAdjust="spacing" textLength="5.46" x="114.5441" y="59.5727">1</text><text fill="#000000" font-family="sans-serif" font-size="10.14" lengthAdjust="spacing" textLength="3.9" x="78.7389" y="95.4155">*</text><!--MD5=[d9a9e5e677957b70dcfd0ec8d2ccd9b2]
link WriteReport to LinearRegression--><path codeLine="41" d="M149.9316,42.9234 C162.4584,60.1926 181.2954,86.1432 193.8846,103.4826 " fill="none" id="WriteReport-LinearRegression" style="stroke:#A80036;stroke-width:0.78;"/><polygon fill="#000000" points="178.2792,70.3008,180.5681,77.3571,184.2785,74.6641,178.2792,70.3008" style="stroke:#000000;stroke-width:0.78;"/><text fill="#000000" font-family="sans-serif" font-size="10.14" lengthAdjust="spacing" textLength="33.54" x="187.59" y="77.6062">creates</text><text fill="#000000" font-family="sans-serif" font-size="10.14" lengthAdjust="spacing" textLength="5.46" x="146.9851" y="59.5727">1</text><text fill="#000000" font-family="sans-serif" font-size="10.14" lengthAdjust="spacing" textLength="3.9" x="186.2905" y="95.4155">*</text><!--MD5=[7e4bc624457760b649895ff2ead938fa]
link Company to Test--><path codeLine="42" d="M136.89,250.4112 C136.89,269.8254 136.89,297.2736 136.89,316.6722 " fill="none" id="Company-Test" style="stroke:#A80036;stroke-width:0.78;"/><polygon fill="#000000" points="140.79,284.8371,143.0824,277.7819,138.4976,277.7819,140.79,284.8371" style="stroke:#000000;stroke-width:0.78;"/><text fill="#000000" font-family="sans-serif" font-size="10.14" lengthAdjust="spacing" textLength="39" x="147.81" y="285.0862">performs</text><text fill="#000000" font-family="sans-serif" font-size="10.14" lengthAdjust="spacing" textLength="5.46" x="130.8925" y="266.9721">1</text><text fill="#000000" font-family="sans-serif" font-size="10.14" lengthAdjust="spacing" textLength="3.9" x="132.5634" y="308.1063">*</text><!--MD5=[3994f36c72829dbcddd1cf7021dddf61]
link Test to Client--><path codeLine="43" d="M136.89,365.0634 C136.89,385.7802 136.89,415.857 136.89,436.6206 " fill="none" id="Test-Client" style="stroke:#A80036;stroke-width:0.78;"/><polygon fill="#000000" points="140.79,404.9571,143.0824,397.9019,138.4976,397.9019,140.79,404.9571" style="stroke:#000000;stroke-width:0.78;"/><text fill="#000000" font-family="sans-serif" font-size="10.14" lengthAdjust="spacing" textLength="58.5" x="147.81" y="405.2062">requested by</text><text fill="#000000" font-family="sans-serif" font-size="10.14" lengthAdjust="spacing" textLength="3.9" x="132.6061" y="381.6227">*</text><text fill="#000000" font-family="sans-serif" font-size="10.14" lengthAdjust="spacing" textLength="5.46" x="130.8669" y="428.3971">1</text><!--MD5=[e981d4f96c4342412d1e68160b30cf70]
link Test to TestType--><path codeLine="44" d="M158.925,340.86 C175.305,340.86 197.9094,340.86 216.294,340.86 " fill="none" id="Test-TestType" style="stroke:#A80036;stroke-width:0.78;"/><polygon fill="#000000" points="180.18,331.6371,173.1248,329.3447,173.1248,333.9295,180.18,331.6371" style="stroke:#000000;stroke-width:0.78;"/><text fill="#000000" font-family="sans-serif" font-size="10.14" lengthAdjust="spacing" textLength="18.72" x="183.3" y="335.7862">is of</text><text fill="#000000" font-family="sans-serif" font-size="10.14" lengthAdjust="spacing" textLength="3.9" x="165.0712" y="337.3587">*</text><text fill="#000000" font-family="sans-serif" font-size="10.14" lengthAdjust="spacing" textLength="5.46" x="204.8414" y="337.8793">1</text><!--MD5=[2148a3300dad30af455fcbe81ca204c2]
link TestType to Category--><path codeLine="45" d="M258.0552,370.5468 C262.1034,382.239 266.9862,395.811 271.83,407.94 C274.8564,415.506 278.343,423.5946 281.6892,431.0826 " fill="none" id="TestType-Category" style="stroke:#A80036;stroke-width:0.78;"/><polygon fill="#000000" points="277.1484,404.6901,276.7179,397.2843,272.4471,398.9517,277.1484,404.6901" style="stroke:#000000;stroke-width:0.78;"/><text fill="#000000" font-family="sans-serif" font-size="10.14" lengthAdjust="spacing" textLength="16.38" x="282.75" y="405.2062">has</text><text fill="#000000" font-family="sans-serif" font-size="10.14" lengthAdjust="spacing" textLength="5.46" x="253.7372" y="387.0673">1</text><text fill="#000000" font-family="sans-serif" font-size="10.14" lengthAdjust="spacing" textLength="15.6" x="262.4213" y="422.9632">1..*</text><!--MD5=[852f3a1b1bcfc6074ebcba484562eac0]
link Parameter to Category--><path codeLine="46" d="M331.1724,370.6404 C323.7702,389.0874 314.223,412.8696 306.8286,431.2932 " fill="none" id="Parameter-Category" style="stroke:#A80036;stroke-width:0.78;"/><polygon fill="#000000" points="322.6373,404.6765,327.3926,398.9829,323.1378,397.2751,322.6373,404.6765" style="stroke:#000000;stroke-width:0.78;"/><text fill="#000000" font-family="sans-serif" font-size="10.14" lengthAdjust="spacing" textLength="72.54" x="331.11" y="405.2062">presented under</text><text fill="#000000" font-family="sans-serif" font-size="10.14" lengthAdjust="spacing" textLength="3.9" x="325.1069" y="386.9496">*</text><text fill="#000000" font-family="sans-serif" font-size="10.14" lengthAdjust="spacing" textLength="5.46" x="303.0037" y="422.7643">1</text><!--MD5=[e5a1ad8cf54a15b9f508e822cc3e9fb4]
link TestParameterResult to Parameter--><path codeLine="47" d="M342.81,250.4112 C342.81,268.0158 342.81,292.2192 342.81,311.0484 " fill="none" id="TestParameterResult-Parameter" style="stroke:#A80036;stroke-width:0.78;"/><polygon fill="#000000" points="346.71,284.8371,349.0024,277.7819,344.4176,277.7819,346.71,284.8371" style="stroke:#000000;stroke-width:0.78;"/><text fill="#000000" font-family="sans-serif" font-size="10.14" lengthAdjust="spacing" textLength="60.84" x="353.73" y="285.0862">associated to</text><text fill="#000000" font-family="sans-serif" font-size="10.14" lengthAdjust="spacing" textLength="5.46" x="336.8125" y="266.9721">1</text><text fill="#000000" font-family="sans-serif" font-size="10.14" lengthAdjust="spacing" textLength="5.46" x="336.8637" y="302.7201">1</text><!--MD5=[41b3de6c8b1b21c6c8d6b009b9208370]
@startuml

skinparam classAttributeIconSize 0

class Company {
-designation
}
class Test {
-code
}
class Client {
-birthDate
}
class MultiLinearRegression{
}
class LinearRegression{
}
class WriteReport{
}
class TestParameterResult {
-value
}
class Category {
-code
-description
}
class TestType {
-code
-description
}
class Parameter {
-code
-description
}


"NHS API" "1"-left-"*" WriteReport : sent via <
"NHS API" -right- NHS : owned by >
MultiLinearRegression "*"- -"1" Company : generates <
LinearRegression "*"- -"1" Company : generates <
MultiLinearRegression "*"-up-"1" WriteReport : creates >
LinearRegression "*"-up-"1" WriteReport : creates >
Test "*"-up-"1" Company : performs <
Test "*"- -"1" Client : requested by >
Test "*"-right-"1" "TestType" : is of >
TestType "1"- -"1..*" Category : has >
Parameter "*"- -"1" Category : presented under >
TestParameterResult "1"- -"1" Parameter : associated to >

@enduml

PlantUML version 1.2021.00(Sun Jan 10 10:25:05 GMT 2021)
(GPL source distribution)
Java Runtime: OpenJDK Runtime Environment
JVM: OpenJDK 64-Bit Server VM
Default Encoding: Cp1252
Language: pt
Country: PT
--></g></svg>