<?xml version="1.0" encoding="UTF-8" standalone="no"?><svg xmlns="http://www.w3.org/2000/svg" xmlns:xlink="http://www.w3.org/1999/xlink" contentScriptType="application/ecmascript" contentStyleType="text/css" height="2037px" preserveAspectRatio="none" style="width:2019px;height:2037px;background:#FFFFFF;" version="1.1" viewBox="0 0 2019 2037" width="2019px" zoomAndPan="magnify"><defs><filter height="300%" id="f1e3vwu0isxcdu" width="300%" x="-1" y="-1"><feGaussianBlur result="blurOut" stdDeviation="2.0"/><feColorMatrix in="blurOut" result="blurOut2" type="matrix" values="0 0 0 0 0 0 0 0 0 0 0 0 0 0 0 0 0 0 .4 0"/><feOffset dx="4.0" dy="4.0" in="blurOut2" result="blurOut3"/><feBlend in="SourceGraphic" in2="blurOut3" mode="normal"/></filter></defs><g><!--MD5=[380cdf2c0ee34301db8e2f40059a955f]
class ImportCSVFileUI--><rect codeLine="4" fill="#FEFECE" filter="url(#f1e3vwu0isxcdu)" height="48" id="ImportCSVFileUI" style="stroke:#A80036;stroke-width:1.5;" width="123" x="1246.5" y="7"/><ellipse cx="1261.5" cy="23" fill="#ADD1B2" rx="11" ry="11" style="stroke:#A80036;stroke-width:1.0;"/><path d="M1263.5,19.5 Q1263.7031,19 1263.9375,18.75 Q1264.1719,18.5 1264.4375,18.5 Q1264.9063,18.5 1265.2031,18.7813 Q1265.5,19.0625 1265.5,19.7188 L1265.5,21.2813 Q1265.5,21.9375 1265.2188,22.2188 Q1264.9375,22.5 1264.5,22.5 Q1264.1094,22.5 1263.8594,22.3281 Q1263.6094,22.1563 1263.5,21.7031 Q1263.4531,21.3906 1263.2813,21.2188 Q1262.9688,20.8906 1262.4063,20.7031 Q1261.8438,20.5 1261.2813,20.5 Q1260.5781,20.5 1259.9844,20.7813 Q1259.4063,21.0625 1258.9531,21.6875 Q1258.5,22.3125 1258.5,23.1719 L1258.5,24.0938 Q1258.5,25.125 1259.3438,25.8125 Q1260.1875,26.5 1261.6875,26.5 Q1262.5781,26.5 1263.2031,26.2969 Q1263.5625,26.1875 1263.9688,25.8281 Q1264.2344,25.625 1264.375,25.5625 Q1264.5156,25.5 1264.6875,25.5 Q1265.0156,25.5 1265.25,25.7656 Q1265.5,26.0156 1265.5,26.375 Q1265.5,26.7188 1265.1563,27.125 Q1264.6563,27.7188 1263.8594,28.0469 Q1262.8125,28.5 1261.5313,28.5 Q1260.0313,28.5 1258.8281,27.9063 Q1257.8594,27.4375 1257.1719,26.4219 Q1256.5,25.4063 1256.5,24.2031 L1256.5,23.1094 Q1256.5,21.8594 1257.0938,20.7656 Q1257.7031,19.6719 1258.75,19.0938 Q1259.8125,18.5 1261,18.5 Q1261.7188,18.5 1262.3438,18.75 Q1262.9688,19 1263.5,19.5 Z " fill="#000000"/><text fill="#000000" font-family="sans-serif" font-size="12" lengthAdjust="spacing" textLength="91" x="1275.5" y="27.9102">ImportCSVFileUI</text><line style="stroke:#A80036;stroke-width:1.5;" x1="1247.5" x2="1368.5" y1="39" y2="39"/><line style="stroke:#A80036;stroke-width:1.5;" x1="1247.5" x2="1368.5" y1="47" y2="47"/><!--MD5=[5e35b2eabf26471ac757df3de2b65d5d]
class ImportCSVFileController--><rect codeLine="6" fill="#FEFECE" filter="url(#f1e3vwu0isxcdu)" height="712.125" id="ImportCSVFileController" style="stroke:#A80036;stroke-width:1.5;" width="249" x="1183.5" y="116"/><ellipse cx="1237.25" cy="132" fill="#ADD1B2" rx="11" ry="11" style="stroke:#A80036;stroke-width:1.0;"/><path d="M1239.25,128.5 Q1239.4531,128 1239.6875,127.75 Q1239.9219,127.5 1240.1875,127.5 Q1240.6563,127.5 1240.9531,127.7813 Q1241.25,128.0625 1241.25,128.7188 L1241.25,130.2813 Q1241.25,130.9375 1240.9688,131.2188 Q1240.6875,131.5 1240.25,131.5 Q1239.8594,131.5 1239.6094,131.3281 Q1239.3594,131.1563 1239.25,130.7031 Q1239.2031,130.3906 1239.0313,130.2188 Q1238.7188,129.8906 1238.1563,129.7031 Q1237.5938,129.5 1237.0313,129.5 Q1236.3281,129.5 1235.7344,129.7813 Q1235.1563,130.0625 1234.7031,130.6875 Q1234.25,131.3125 1234.25,132.1719 L1234.25,133.0938 Q1234.25,134.125 1235.0938,134.8125 Q1235.9375,135.5 1237.4375,135.5 Q1238.3281,135.5 1238.9531,135.2969 Q1239.3125,135.1875 1239.7188,134.8281 Q1239.9844,134.625 1240.125,134.5625 Q1240.2656,134.5 1240.4375,134.5 Q1240.7656,134.5 1241,134.7656 Q1241.25,135.0156 1241.25,135.375 Q1241.25,135.7188 1240.9063,136.125 Q1240.4063,136.7188 1239.6094,137.0469 Q1238.5625,137.5 1237.2813,137.5 Q1235.7813,137.5 1234.5781,136.9063 Q1233.6094,136.4375 1232.9219,135.4219 Q1232.25,134.4063 1232.25,133.2031 L1232.25,132.1094 Q1232.25,130.8594 1232.8438,129.7656 Q1233.4531,128.6719 1234.5,128.0938 Q1235.5625,127.5 1236.75,127.5 Q1237.4688,127.5 1238.0938,127.75 Q1238.7188,128 1239.25,128.5 Z " fill="#000000"/><text fill="#000000" font-family="sans-serif" font-size="12" lengthAdjust="spacing" textLength="133" x="1257.75" y="136.9102">ImportCSVFileController</text><line style="stroke:#A80036;stroke-width:1.5;" x1="1184.5" x2="1431.5" y1="148" y2="148"/><text fill="#000000" font-family="sans-serif" font-size="11" lengthAdjust="spacing" textLength="18" x="1189.5" y="163.4189">-file</text><text fill="#000000" font-family="sans-serif" font-size="11" lengthAdjust="spacing" textLength="71" x="1189.5" y="177.2549">-testTypeCode</text><text fill="#000000" font-family="sans-serif" font-size="11" lengthAdjust="spacing" textLength="74" x="1189.5" y="191.0908">-categoryName</text><text fill="#000000" font-family="sans-serif" font-size="11" lengthAdjust="spacing" textLength="78" x="1189.5" y="204.9268">-parameterCode</text><text fill="#000000" font-family="sans-serif" font-size="11" lengthAdjust="spacing" textLength="30" x="1189.5" y="218.7627">-value</text><text fill="#000000" font-family="sans-serif" font-size="11" lengthAdjust="spacing" textLength="31" x="1189.5" y="232.5986">-nhsID</text><text fill="#000000" font-family="sans-serif" font-size="11" lengthAdjust="spacing" textLength="63" x="1189.5" y="246.4346">-cardNumber</text><text fill="#000000" font-family="sans-serif" font-size="11" lengthAdjust="spacing" textLength="15" x="1189.5" y="260.2705">-tin</text><text fill="#000000" font-family="sans-serif" font-size="11" lengthAdjust="spacing" textLength="43" x="1189.5" y="274.1064">-birthday</text><text fill="#000000" font-family="sans-serif" font-size="11" lengthAdjust="spacing" textLength="71" x="1189.5" y="287.9424">-phoneNumber</text><text fill="#000000" font-family="sans-serif" font-size="11" lengthAdjust="spacing" textLength="30" x="1189.5" y="301.7783">-name</text><text fill="#000000" font-family="sans-serif" font-size="11" lengthAdjust="spacing" textLength="28" x="1189.5" y="315.6143">-email</text><text fill="#000000" font-family="sans-serif" font-size="11" lengthAdjust="spacing" textLength="44" x="1189.5" y="329.4502">-address</text><text fill="#000000" font-family="sans-serif" font-size="11" lengthAdjust="spacing" textLength="29" x="1189.5" y="343.2861">-client</text><text fill="#000000" font-family="sans-serif" font-size="11" lengthAdjust="spacing" textLength="27" x="1189.5" y="357.1221">-labID</text><text fill="#000000" font-family="sans-serif" font-size="11" lengthAdjust="spacing" textLength="47" x="1189.5" y="370.958">-testCode</text><text fill="#000000" font-family="sans-serif" font-size="11" lengthAdjust="spacing" textLength="47" x="1189.5" y="384.7939">-nhsCode</text><text fill="#000000" font-family="sans-serif" font-size="11" lengthAdjust="spacing" textLength="87" x="1189.5" y="398.6299">-dateTimeRegister</text><text fill="#000000" font-family="sans-serif" font-size="11" lengthAdjust="spacing" textLength="83" x="1189.5" y="412.4658">-dateTimeResults</text><text fill="#000000" font-family="sans-serif" font-size="11" lengthAdjust="spacing" textLength="79" x="1189.5" y="426.3018">-dateTimeReport</text><text fill="#000000" font-family="sans-serif" font-size="11" lengthAdjust="spacing" textLength="94" x="1189.5" y="440.1377">-dateTimeValidation</text><text fill="#000000" font-family="sans-serif" font-size="11" lengthAdjust="spacing" textLength="22" x="1189.5" y="453.9736">-test</text><line style="stroke:#A80036;stroke-width:1.5;" x1="1184.5" x2="1431.5" y1="460.3906" y2="460.3906"/><text fill="#000000" font-family="sans-serif" font-size="11" lengthAdjust="spacing" textLength="70" x="1189.5" y="475.8096">file setFile(file)</text><text fill="#000000" font-family="sans-serif" font-size="11" lengthAdjust="spacing" textLength="81" x="1189.5" y="489.6455">+validateFile(file)</text><text fill="#000000" font-family="sans-serif" font-size="11" lengthAdjust="spacing" textLength="120" x="1189.5" y="503.4814">+createNewControllers()</text><text fill="#000000" font-family="sans-serif" font-size="11" lengthAdjust="spacing" textLength="176" x="1189.5" y="517.3174">+testTypeCode readTestTypeCode()</text><text fill="#000000" font-family="sans-serif" font-size="11" lengthAdjust="spacing" textLength="180" x="1189.5" y="531.1533">+categoryName readCategoryName()</text><text fill="#000000" font-family="sans-serif" font-size="11" lengthAdjust="spacing" textLength="237" x="1189.5" y="544.9893">+parameterCode readParameterCodeAndResult()</text><text fill="#000000" font-family="sans-serif" font-size="11" lengthAdjust="spacing" textLength="189" x="1189.5" y="558.8252">+value readParameterCodeAndResult()</text><text fill="#000000" font-family="sans-serif" font-size="11" lengthAdjust="spacing" textLength="93" x="1189.5" y="572.6611">+nhsID readNhsId()</text><text fill="#000000" font-family="sans-serif" font-size="11" lengthAdjust="spacing" textLength="158" x="1189.5" y="586.4971">+cardNumber readCardNumber()</text><text fill="#000000" font-family="sans-serif" font-size="11" lengthAdjust="spacing" textLength="64" x="1189.5" y="600.333">+tin readTin()</text><text fill="#000000" font-family="sans-serif" font-size="11" lengthAdjust="spacing" textLength="118" x="1189.5" y="614.1689">+birthday readBirthday()</text><text fill="#000000" font-family="sans-serif" font-size="11" lengthAdjust="spacing" textLength="173" x="1189.5" y="628.0049">+phoneNumber readPhoneNumber()</text><text fill="#000000" font-family="sans-serif" font-size="11" lengthAdjust="spacing" textLength="92" x="1189.5" y="641.8408">+name readName()</text><text fill="#000000" font-family="sans-serif" font-size="11" lengthAdjust="spacing" textLength="87" x="1189.5" y="655.6768">+email readEmail()</text><text fill="#000000" font-family="sans-serif" font-size="11" lengthAdjust="spacing" textLength="121" x="1189.5" y="669.5127">+address readAddress()</text><text fill="#000000" font-family="sans-serif" font-size="11" lengthAdjust="spacing" textLength="71" x="1189.5" y="683.3486">+createClient()</text><text fill="#000000" font-family="sans-serif" font-size="11" lengthAdjust="spacing" textLength="64" x="1189.5" y="697.1846">+saveClient()</text><text fill="#000000" font-family="sans-serif" font-size="11" lengthAdjust="spacing" textLength="88" x="1189.5" y="711.0205">+labID readLabId()</text><text fill="#000000" font-family="sans-serif" font-size="11" lengthAdjust="spacing" textLength="128" x="1189.5" y="724.8564">+testCode readTestCode()</text><text fill="#000000" font-family="sans-serif" font-size="11" lengthAdjust="spacing" textLength="126" x="1189.5" y="738.6924">+nhsCode readNhsCode()</text><text fill="#000000" font-family="sans-serif" font-size="11" lengthAdjust="spacing" textLength="206" x="1189.5" y="752.5283">+dateTimeRegister readDateTimeRegister()</text><text fill="#000000" font-family="sans-serif" font-size="11" lengthAdjust="spacing" textLength="198" x="1189.5" y="766.3643">+dateTimeResults readDateTimeResults()</text><text fill="#000000" font-family="sans-serif" font-size="11" lengthAdjust="spacing" textLength="190" x="1189.5" y="780.2002">+dateTimeReport readDateTimeReport()</text><text fill="#000000" font-family="sans-serif" font-size="11" lengthAdjust="spacing" textLength="220" x="1189.5" y="794.0361">+dateTimeValidation readDateTimeValidation()</text><text fill="#000000" font-family="sans-serif" font-size="11" lengthAdjust="spacing" textLength="66" x="1189.5" y="807.8721">+createTest()</text><text fill="#000000" font-family="sans-serif" font-size="11" lengthAdjust="spacing" textLength="59" x="1189.5" y="821.708">+saveTest()</text><!--MD5=[73677359b52d98a525977144c337a659]
class RegisterTestController--><rect codeLine="60" fill="#FEFECE" filter="url(#f1e3vwu0isxcdu)" height="227.8672" id="RegisterTestController" style="stroke:#A80036;stroke-width:1.5;" width="594" x="450" y="889"/><ellipse cx="680.25" cy="905" fill="#ADD1B2" rx="11" ry="11" style="stroke:#A80036;stroke-width:1.0;"/><path d="M682.25,901.5 Q682.4531,901 682.6875,900.75 Q682.9219,900.5 683.1875,900.5 Q683.6563,900.5 683.9531,900.7813 Q684.25,901.0625 684.25,901.7188 L684.25,903.2813 Q684.25,903.9375 683.9688,904.2188 Q683.6875,904.5 683.25,904.5 Q682.8594,904.5 682.6094,904.3281 Q682.3594,904.1563 682.25,903.7031 Q682.2031,903.3906 682.0313,903.2188 Q681.7188,902.8906 681.1563,902.7031 Q680.5938,902.5 680.0313,902.5 Q679.3281,902.5 678.7344,902.7813 Q678.1563,903.0625 677.7031,903.6875 Q677.25,904.3125 677.25,905.1719 L677.25,906.0938 Q677.25,907.125 678.0938,907.8125 Q678.9375,908.5 680.4375,908.5 Q681.3281,908.5 681.9531,908.2969 Q682.3125,908.1875 682.7188,907.8281 Q682.9844,907.625 683.125,907.5625 Q683.2656,907.5 683.4375,907.5 Q683.7656,907.5 684,907.7656 Q684.25,908.0156 684.25,908.375 Q684.25,908.7188 683.9063,909.125 Q683.4063,909.7188 682.6094,910.0469 Q681.5625,910.5 680.2813,910.5 Q678.7813,910.5 677.5781,909.9063 Q676.6094,909.4375 675.9219,908.4219 Q675.25,907.4063 675.25,906.2031 L675.25,905.1094 Q675.25,903.8594 675.8438,902.7656 Q676.4531,901.6719 677.5,901.0938 Q678.5625,900.5 679.75,900.5 Q680.4688,900.5 681.0938,900.75 Q681.7188,901 682.25,901.5 Z " fill="#000000"/><text fill="#000000" font-family="sans-serif" font-size="12" lengthAdjust="spacing" textLength="125" x="700.75" y="909.9102">RegisterTestController</text><line style="stroke:#A80036;stroke-width:1.5;" x1="451" x2="1043" y1="921" y2="921"/><text fill="#000000" font-family="sans-serif" font-size="11" lengthAdjust="spacing" textLength="72" x="456" y="936.4189">-testTypeStore</text><text fill="#000000" font-family="sans-serif" font-size="11" lengthAdjust="spacing" textLength="46" x="456" y="950.2549">-testType</text><text fill="#000000" font-family="sans-serif" font-size="11" lengthAdjust="spacing" textLength="47" x="456" y="964.0908">-category</text><text fill="#000000" font-family="sans-serif" font-size="11" lengthAdjust="spacing" textLength="53" x="456" y="977.9268">-parameter</text><text fill="#000000" font-family="sans-serif" font-size="11" lengthAdjust="spacing" textLength="55" x="456" y="991.7627">-clientStore</text><text fill="#000000" font-family="sans-serif" font-size="11" lengthAdjust="spacing" textLength="131" x="456" y="1005.5986">-clinicalAnalysisLaboratory</text><text fill="#000000" font-family="sans-serif" font-size="11" lengthAdjust="spacing" textLength="48" x="456" y="1019.4346">-testStore</text><line style="stroke:#A80036;stroke-width:1.5;" x1="451" x2="1043" y1="1025.8516" y2="1025.8516"/><text fill="#000000" font-family="sans-serif" font-size="11" lengthAdjust="spacing" textLength="179" x="456" y="1041.2705">+setTestTypeByCode(testTypeCode)</text><text fill="#000000" font-family="sans-serif" font-size="11" lengthAdjust="spacing" textLength="183" x="456" y="1055.1064">+setCategoryByName(categoryName)</text><text fill="#000000" font-family="sans-serif" font-size="11" lengthAdjust="spacing" textLength="342" x="456" y="1068.9424">+setTestParameterByParameterCodeAndResult(parameterCode, value)</text><text fill="#000000" font-family="sans-serif" font-size="11" lengthAdjust="spacing" textLength="91" x="456" y="1082.7783">+setLabById(labID)</text><text fill="#000000" font-family="sans-serif" font-size="11" lengthAdjust="spacing" textLength="582" x="456" y="1096.6143">+test createTestFromCSV(testCode, nhsCode, dateTimeRegister, dateTimeResults,  dateTimeReport,  dateTimeValidation)</text><text fill="#000000" font-family="sans-serif" font-size="11" lengthAdjust="spacing" textLength="77" x="456" y="1110.4502">+saveTest(test)</text><!--MD5=[1a7fda4a36185bcd740bdf14b2b3a45e]
class RegisterClientController--><rect codeLine="77" fill="#FEFECE" filter="url(#f1e3vwu0isxcdu)" height="89.5078" id="RegisterClientController" style="stroke:#A80036;stroke-width:1.5;" width="446" x="1559" y="958"/><ellipse cx="1711.25" cy="974" fill="#ADD1B2" rx="11" ry="11" style="stroke:#A80036;stroke-width:1.0;"/><path d="M1713.25,970.5 Q1713.4531,970 1713.6875,969.75 Q1713.9219,969.5 1714.1875,969.5 Q1714.6563,969.5 1714.9531,969.7813 Q1715.25,970.0625 1715.25,970.7188 L1715.25,972.2813 Q1715.25,972.9375 1714.9688,973.2188 Q1714.6875,973.5 1714.25,973.5 Q1713.8594,973.5 1713.6094,973.3281 Q1713.3594,973.1563 1713.25,972.7031 Q1713.2031,972.3906 1713.0313,972.2188 Q1712.7188,971.8906 1712.1563,971.7031 Q1711.5938,971.5 1711.0313,971.5 Q1710.3281,971.5 1709.7344,971.7813 Q1709.1563,972.0625 1708.7031,972.6875 Q1708.25,973.3125 1708.25,974.1719 L1708.25,975.0938 Q1708.25,976.125 1709.0938,976.8125 Q1709.9375,977.5 1711.4375,977.5 Q1712.3281,977.5 1712.9531,977.2969 Q1713.3125,977.1875 1713.7188,976.8281 Q1713.9844,976.625 1714.125,976.5625 Q1714.2656,976.5 1714.4375,976.5 Q1714.7656,976.5 1715,976.7656 Q1715.25,977.0156 1715.25,977.375 Q1715.25,977.7188 1714.9063,978.125 Q1714.4063,978.7188 1713.6094,979.0469 Q1712.5625,979.5 1711.2813,979.5 Q1709.7813,979.5 1708.5781,978.9063 Q1707.6094,978.4375 1706.9219,977.4219 Q1706.25,976.4063 1706.25,975.2031 L1706.25,974.1094 Q1706.25,972.8594 1706.8438,971.7656 Q1707.4531,970.6719 1708.5,970.0938 Q1709.5625,969.5 1710.75,969.5 Q1711.4688,969.5 1712.0938,969.75 Q1712.7188,970 1713.25,970.5 Z " fill="#000000"/><text fill="#000000" font-family="sans-serif" font-size="12" lengthAdjust="spacing" textLength="133" x="1731.75" y="978.9102">RegisterClientController</text><line style="stroke:#A80036;stroke-width:1.5;" x1="1560" x2="2004" y1="990" y2="990"/><text fill="#000000" font-family="sans-serif" font-size="11" lengthAdjust="spacing" textLength="55" x="1565" y="1005.4189">-clientStore</text><line style="stroke:#A80036;stroke-width:1.5;" x1="1560" x2="2004" y1="1011.8359" y2="1011.8359"/><text fill="#000000" font-family="sans-serif" font-size="11" lengthAdjust="spacing" textLength="434" x="1565" y="1027.2549">+client createClient(nhsID, cardNumber, tin, birthday, phoneNumber, name, email, address)</text><text fill="#000000" font-family="sans-serif" font-size="11" lengthAdjust="spacing" textLength="135" x="1565" y="1041.0908">+saveClientFromCSV(client)</text><!--MD5=[02e4b9b7573f1156f41e60aa5b4e25a4]
class Company--><rect codeLine="84" fill="#FEFECE" filter="url(#f1e3vwu0isxcdu)" height="103.3438" id="Company" style="stroke:#A80036;stroke-width:1.5;" width="233" x="1011.5" y="1178"/><ellipse cx="1097.25" cy="1194" fill="#ADD1B2" rx="11" ry="11" style="stroke:#A80036;stroke-width:1.0;"/><path d="M1099.25,1190.5 Q1099.4531,1190 1099.6875,1189.75 Q1099.9219,1189.5 1100.1875,1189.5 Q1100.6563,1189.5 1100.9531,1189.7813 Q1101.25,1190.0625 1101.25,1190.7188 L1101.25,1192.2813 Q1101.25,1192.9375 1100.9688,1193.2188 Q1100.6875,1193.5 1100.25,1193.5 Q1099.8594,1193.5 1099.6094,1193.3281 Q1099.3594,1193.1563 1099.25,1192.7031 Q1099.2031,1192.3906 1099.0313,1192.2188 Q1098.7188,1191.8906 1098.1563,1191.7031 Q1097.5938,1191.5 1097.0313,1191.5 Q1096.3281,1191.5 1095.7344,1191.7813 Q1095.1563,1192.0625 1094.7031,1192.6875 Q1094.25,1193.3125 1094.25,1194.1719 L1094.25,1195.0938 Q1094.25,1196.125 1095.0938,1196.8125 Q1095.9375,1197.5 1097.4375,1197.5 Q1098.3281,1197.5 1098.9531,1197.2969 Q1099.3125,1197.1875 1099.7188,1196.8281 Q1099.9844,1196.625 1100.125,1196.5625 Q1100.2656,1196.5 1100.4375,1196.5 Q1100.7656,1196.5 1101,1196.7656 Q1101.25,1197.0156 1101.25,1197.375 Q1101.25,1197.7188 1100.9063,1198.125 Q1100.4063,1198.7188 1099.6094,1199.0469 Q1098.5625,1199.5 1097.2813,1199.5 Q1095.7813,1199.5 1094.5781,1198.9063 Q1093.6094,1198.4375 1092.9219,1197.4219 Q1092.25,1196.4063 1092.25,1195.2031 L1092.25,1194.1094 Q1092.25,1192.8594 1092.8438,1191.7656 Q1093.4531,1190.6719 1094.5,1190.0938 Q1095.5625,1189.5 1096.75,1189.5 Q1097.4688,1189.5 1098.0938,1189.75 Q1098.7188,1190 1099.25,1190.5 Z " fill="#000000"/><text fill="#000000" font-family="sans-serif" font-size="12" lengthAdjust="spacing" textLength="53" x="1117.75" y="1198.9102">Company</text><line style="stroke:#A80036;stroke-width:1.5;" x1="1012.5" x2="1243.5" y1="1210" y2="1210"/><line style="stroke:#A80036;stroke-width:1.5;" x1="1012.5" x2="1243.5" y1="1218" y2="1218"/><text fill="#000000" font-family="sans-serif" font-size="11" lengthAdjust="spacing" textLength="171" x="1017.5" y="1233.4189">+testTypeStore getTestTypeStore()</text><text fill="#000000" font-family="sans-serif" font-size="11" lengthAdjust="spacing" textLength="135" x="1017.5" y="1247.2549">+clientStore getClientStore()</text><text fill="#000000" font-family="sans-serif" font-size="11" lengthAdjust="spacing" textLength="221" x="1017.5" y="1261.0908">+clinicalAnalysisLaboratory getLabById(labID)</text><text fill="#000000" font-family="sans-serif" font-size="11" lengthAdjust="spacing" textLength="123" x="1017.5" y="1274.9268">+testStore getTestStore()</text><!--MD5=[6ba72ddf03822b91e8d41ca71de58ed3]
class TestTypeStore--><rect codeLine="91" fill="#FEFECE" filter="url(#f1e3vwu0isxcdu)" height="61.8359" id="TestTypeStore" style="stroke:#A80036;stroke-width:1.5;" width="236" x="1010" y="1373"/><ellipse cx="1084.25" cy="1389" fill="#ADD1B2" rx="11" ry="11" style="stroke:#A80036;stroke-width:1.0;"/><path d="M1086.25,1385.5 Q1086.4531,1385 1086.6875,1384.75 Q1086.9219,1384.5 1087.1875,1384.5 Q1087.6563,1384.5 1087.9531,1384.7813 Q1088.25,1385.0625 1088.25,1385.7188 L1088.25,1387.2813 Q1088.25,1387.9375 1087.9688,1388.2188 Q1087.6875,1388.5 1087.25,1388.5 Q1086.8594,1388.5 1086.6094,1388.3281 Q1086.3594,1388.1563 1086.25,1387.7031 Q1086.2031,1387.3906 1086.0313,1387.2188 Q1085.7188,1386.8906 1085.1563,1386.7031 Q1084.5938,1386.5 1084.0313,1386.5 Q1083.3281,1386.5 1082.7344,1386.7813 Q1082.1563,1387.0625 1081.7031,1387.6875 Q1081.25,1388.3125 1081.25,1389.1719 L1081.25,1390.0938 Q1081.25,1391.125 1082.0938,1391.8125 Q1082.9375,1392.5 1084.4375,1392.5 Q1085.3281,1392.5 1085.9531,1392.2969 Q1086.3125,1392.1875 1086.7188,1391.8281 Q1086.9844,1391.625 1087.125,1391.5625 Q1087.2656,1391.5 1087.4375,1391.5 Q1087.7656,1391.5 1088,1391.7656 Q1088.25,1392.0156 1088.25,1392.375 Q1088.25,1392.7188 1087.9063,1393.125 Q1087.4063,1393.7188 1086.6094,1394.0469 Q1085.5625,1394.5 1084.2813,1394.5 Q1082.7813,1394.5 1081.5781,1393.9063 Q1080.6094,1393.4375 1079.9219,1392.4219 Q1079.25,1391.4063 1079.25,1390.2031 L1079.25,1389.1094 Q1079.25,1387.8594 1079.8438,1386.7656 Q1080.4531,1385.6719 1081.5,1385.0938 Q1082.5625,1384.5 1083.75,1384.5 Q1084.4688,1384.5 1085.0938,1384.75 Q1085.7188,1385 1086.25,1385.5 Z " fill="#000000"/><text fill="#000000" font-family="sans-serif" font-size="12" lengthAdjust="spacing" textLength="79" x="1104.75" y="1393.9102">TestTypeStore</text><line style="stroke:#A80036;stroke-width:1.5;" x1="1011" x2="1245" y1="1405" y2="1405"/><line style="stroke:#A80036;stroke-width:1.5;" x1="1011" x2="1245" y1="1413" y2="1413"/><text fill="#000000" font-family="sans-serif" font-size="11" lengthAdjust="spacing" textLength="224" x="1016" y="1428.4189">+testType getTestTypeByCode(testTypeCode)</text><!--MD5=[0f6f7964b844a64b0496af0dda7914bd]
class TestStore--><rect codeLine="95" fill="#FEFECE" filter="url(#f1e3vwu0isxcdu)" height="89.5078" id="TestStore" style="stroke:#A80036;stroke-width:1.5;" width="774" x="201" y="1359"/><ellipse cx="557.25" cy="1375" fill="#ADD1B2" rx="11" ry="11" style="stroke:#A80036;stroke-width:1.0;"/><path d="M559.25,1371.5 Q559.4531,1371 559.6875,1370.75 Q559.9219,1370.5 560.1875,1370.5 Q560.6563,1370.5 560.9531,1370.7813 Q561.25,1371.0625 561.25,1371.7188 L561.25,1373.2813 Q561.25,1373.9375 560.9688,1374.2188 Q560.6875,1374.5 560.25,1374.5 Q559.8594,1374.5 559.6094,1374.3281 Q559.3594,1374.1563 559.25,1373.7031 Q559.2031,1373.3906 559.0313,1373.2188 Q558.7188,1372.8906 558.1563,1372.7031 Q557.5938,1372.5 557.0313,1372.5 Q556.3281,1372.5 555.7344,1372.7813 Q555.1563,1373.0625 554.7031,1373.6875 Q554.25,1374.3125 554.25,1375.1719 L554.25,1376.0938 Q554.25,1377.125 555.0938,1377.8125 Q555.9375,1378.5 557.4375,1378.5 Q558.3281,1378.5 558.9531,1378.2969 Q559.3125,1378.1875 559.7188,1377.8281 Q559.9844,1377.625 560.125,1377.5625 Q560.2656,1377.5 560.4375,1377.5 Q560.7656,1377.5 561,1377.7656 Q561.25,1378.0156 561.25,1378.375 Q561.25,1378.7188 560.9063,1379.125 Q560.4063,1379.7188 559.6094,1380.0469 Q558.5625,1380.5 557.2813,1380.5 Q555.7813,1380.5 554.5781,1379.9063 Q553.6094,1379.4375 552.9219,1378.4219 Q552.25,1377.4063 552.25,1376.2031 L552.25,1375.1094 Q552.25,1373.8594 552.8438,1372.7656 Q553.4531,1371.6719 554.5,1371.0938 Q555.5625,1370.5 556.75,1370.5 Q557.4688,1370.5 558.0938,1370.75 Q558.7188,1371 559.25,1371.5 Z " fill="#000000"/><text fill="#000000" font-family="sans-serif" font-size="12" lengthAdjust="spacing" textLength="53" x="577.75" y="1379.9102">TestStore</text><line style="stroke:#A80036;stroke-width:1.5;" x1="202" x2="974" y1="1391" y2="1391"/><line style="stroke:#A80036;stroke-width:1.5;" x1="202" x2="974" y1="1399" y2="1399"/><text fill="#000000" font-family="sans-serif" font-size="11" lengthAdjust="spacing" textLength="762" x="207" y="1414.4189">+createTestFromCSV(client, testCode, nhsCode, testType, categories, testParamList, dateTimeRegister, dateTimeResults, dateTimeReport, dateTimeValidation)</text><text fill="#000000" font-family="sans-serif" font-size="11" lengthAdjust="spacing" textLength="69" x="207" y="1428.2549">+validate(test)</text><text fill="#000000" font-family="sans-serif" font-size="11" lengthAdjust="spacing" textLength="50" x="207" y="1442.0908">+add(test)</text><!--MD5=[df38be88ccee13e832d6fafd6288a4ca]
class Test--><rect codeLine="101" fill="#FEFECE" filter="url(#f1e3vwu0isxcdu)" height="75.6719" id="Test" style="stroke:#A80036;stroke-width:1.5;" width="707" x="180.5" y="1527"/><ellipse cx="517.75" cy="1543" fill="#ADD1B2" rx="11" ry="11" style="stroke:#A80036;stroke-width:1.0;"/><path d="M519.75,1539.5 Q519.9531,1539 520.1875,1538.75 Q520.4219,1538.5 520.6875,1538.5 Q521.1563,1538.5 521.4531,1538.7813 Q521.75,1539.0625 521.75,1539.7188 L521.75,1541.2813 Q521.75,1541.9375 521.4688,1542.2188 Q521.1875,1542.5 520.75,1542.5 Q520.3594,1542.5 520.1094,1542.3281 Q519.8594,1542.1563 519.75,1541.7031 Q519.7031,1541.3906 519.5313,1541.2188 Q519.2188,1540.8906 518.6563,1540.7031 Q518.0938,1540.5 517.5313,1540.5 Q516.8281,1540.5 516.2344,1540.7813 Q515.6563,1541.0625 515.2031,1541.6875 Q514.75,1542.3125 514.75,1543.1719 L514.75,1544.0938 Q514.75,1545.125 515.5938,1545.8125 Q516.4375,1546.5 517.9375,1546.5 Q518.8281,1546.5 519.4531,1546.2969 Q519.8125,1546.1875 520.2188,1545.8281 Q520.4844,1545.625 520.625,1545.5625 Q520.7656,1545.5 520.9375,1545.5 Q521.2656,1545.5 521.5,1545.7656 Q521.75,1546.0156 521.75,1546.375 Q521.75,1546.7188 521.4063,1547.125 Q520.9063,1547.7188 520.1094,1548.0469 Q519.0625,1548.5 517.7813,1548.5 Q516.2813,1548.5 515.0781,1547.9063 Q514.1094,1547.4375 513.4219,1546.4219 Q512.75,1545.4063 512.75,1544.2031 L512.75,1543.1094 Q512.75,1541.8594 513.3438,1540.7656 Q513.9531,1539.6719 515,1539.0938 Q516.0625,1538.5 517.25,1538.5 Q517.9688,1538.5 518.5938,1538.75 Q519.2188,1539 519.75,1539.5 Z " fill="#000000"/><text fill="#000000" font-family="sans-serif" font-size="12" lengthAdjust="spacing" textLength="24" x="538.25" y="1547.9102">Test</text><line style="stroke:#A80036;stroke-width:1.5;" x1="181.5" x2="886.5" y1="1559" y2="1559"/><line style="stroke:#A80036;stroke-width:1.5;" x1="181.5" x2="886.5" y1="1567" y2="1567"/><text fill="#000000" font-family="sans-serif" font-size="11" lengthAdjust="spacing" textLength="695" x="186.5" y="1582.4189">+create(client, testCode, nhsCode, testType, categories, testParamList, dateTimeRegister, dateTimeResults, dateTimeReport, dateTimeValidation)</text><text fill="#000000" font-family="sans-serif" font-size="11" lengthAdjust="spacing" textLength="51" x="186.5" y="1596.2549">+validate()</text><!--MD5=[aeb3272166074d8737a70b61b1e71682]
class TestType--><rect codeLine="106" fill="#FEFECE" filter="url(#f1e3vwu0isxcdu)" height="61.8359" id="TestType" style="stroke:#A80036;stroke-width:1.5;" width="310" x="973" y="1534"/><ellipse cx="1098.75" cy="1550" fill="#ADD1B2" rx="11" ry="11" style="stroke:#A80036;stroke-width:1.0;"/><path d="M1100.75,1546.5 Q1100.9531,1546 1101.1875,1545.75 Q1101.4219,1545.5 1101.6875,1545.5 Q1102.1563,1545.5 1102.4531,1545.7813 Q1102.75,1546.0625 1102.75,1546.7188 L1102.75,1548.2813 Q1102.75,1548.9375 1102.4688,1549.2188 Q1102.1875,1549.5 1101.75,1549.5 Q1101.3594,1549.5 1101.1094,1549.3281 Q1100.8594,1549.1563 1100.75,1548.7031 Q1100.7031,1548.3906 1100.5313,1548.2188 Q1100.2188,1547.8906 1099.6563,1547.7031 Q1099.0938,1547.5 1098.5313,1547.5 Q1097.8281,1547.5 1097.2344,1547.7813 Q1096.6563,1548.0625 1096.2031,1548.6875 Q1095.75,1549.3125 1095.75,1550.1719 L1095.75,1551.0938 Q1095.75,1552.125 1096.5938,1552.8125 Q1097.4375,1553.5 1098.9375,1553.5 Q1099.8281,1553.5 1100.4531,1553.2969 Q1100.8125,1553.1875 1101.2188,1552.8281 Q1101.4844,1552.625 1101.625,1552.5625 Q1101.7656,1552.5 1101.9375,1552.5 Q1102.2656,1552.5 1102.5,1552.7656 Q1102.75,1553.0156 1102.75,1553.375 Q1102.75,1553.7188 1102.4063,1554.125 Q1101.9063,1554.7188 1101.1094,1555.0469 Q1100.0625,1555.5 1098.7813,1555.5 Q1097.2813,1555.5 1096.0781,1554.9063 Q1095.1094,1554.4375 1094.4219,1553.4219 Q1093.75,1552.4063 1093.75,1551.2031 L1093.75,1550.1094 Q1093.75,1548.8594 1094.3438,1547.7656 Q1094.9531,1546.6719 1096,1546.0938 Q1097.0625,1545.5 1098.25,1545.5 Q1098.9688,1545.5 1099.5938,1545.75 Q1100.2188,1546 1100.75,1546.5 Z " fill="#000000"/><text fill="#000000" font-family="sans-serif" font-size="12" lengthAdjust="spacing" textLength="50" x="1119.25" y="1554.9102">TestType</text><line style="stroke:#A80036;stroke-width:1.5;" x1="974" x2="1282" y1="1566" y2="1566"/><line style="stroke:#A80036;stroke-width:1.5;" x1="974" x2="1282" y1="1574" y2="1574"/><text fill="#000000" font-family="sans-serif" font-size="11" lengthAdjust="spacing" textLength="298" x="979" y="1589.4189">+category getCategoryFromTestTypeByName(categoryName)</text><!--MD5=[4e608140b854dae633589343bce77383]
class TestParameterResult--><rect codeLine="110" fill="#FEFECE" filter="url(#f1e3vwu0isxcdu)" height="48" id="TestParameterResult" style="stroke:#A80036;stroke-width:1.5;" width="150" x="195" y="1975"/><ellipse cx="210" cy="1991" fill="#ADD1B2" rx="11" ry="11" style="stroke:#A80036;stroke-width:1.0;"/><path d="M212,1987.5 Q212.2031,1987 212.4375,1986.75 Q212.6719,1986.5 212.9375,1986.5 Q213.4063,1986.5 213.7031,1986.7813 Q214,1987.0625 214,1987.7188 L214,1989.2813 Q214,1989.9375 213.7188,1990.2188 Q213.4375,1990.5 213,1990.5 Q212.6094,1990.5 212.3594,1990.3281 Q212.1094,1990.1563 212,1989.7031 Q211.9531,1989.3906 211.7813,1989.2188 Q211.4688,1988.8906 210.9063,1988.7031 Q210.3438,1988.5 209.7813,1988.5 Q209.0781,1988.5 208.4844,1988.7813 Q207.9063,1989.0625 207.4531,1989.6875 Q207,1990.3125 207,1991.1719 L207,1992.0938 Q207,1993.125 207.8438,1993.8125 Q208.6875,1994.5 210.1875,1994.5 Q211.0781,1994.5 211.7031,1994.2969 Q212.0625,1994.1875 212.4688,1993.8281 Q212.7344,1993.625 212.875,1993.5625 Q213.0156,1993.5 213.1875,1993.5 Q213.5156,1993.5 213.75,1993.7656 Q214,1994.0156 214,1994.375 Q214,1994.7188 213.6563,1995.125 Q213.1563,1995.7188 212.3594,1996.0469 Q211.3125,1996.5 210.0313,1996.5 Q208.5313,1996.5 207.3281,1995.9063 Q206.3594,1995.4375 205.6719,1994.4219 Q205,1993.4063 205,1992.2031 L205,1991.1094 Q205,1989.8594 205.5938,1988.7656 Q206.2031,1987.6719 207.25,1987.0938 Q208.3125,1986.5 209.5,1986.5 Q210.2188,1986.5 210.8438,1986.75 Q211.4688,1987 212,1987.5 Z " fill="#000000"/><text fill="#000000" font-family="sans-serif" font-size="12" lengthAdjust="spacing" textLength="118" x="224" y="1995.9102">TestParameterResult</text><line style="stroke:#A80036;stroke-width:1.5;" x1="196" x2="344" y1="2007" y2="2007"/><line style="stroke:#A80036;stroke-width:1.5;" x1="196" x2="344" y1="2015" y2="2015"/><!--MD5=[e1b684d3962829f7d15065466104158d]
class TestParamList--><rect codeLine="112" fill="#FEFECE" filter="url(#f1e3vwu0isxcdu)" height="75.6719" id="TestParamList" style="stroke:#A80036;stroke-width:1.5;" width="225" x="157.5" y="1688"/><ellipse cx="225.25" cy="1704" fill="#ADD1B2" rx="11" ry="11" style="stroke:#A80036;stroke-width:1.0;"/><path d="M227.25,1700.5 Q227.4531,1700 227.6875,1699.75 Q227.9219,1699.5 228.1875,1699.5 Q228.6563,1699.5 228.9531,1699.7813 Q229.25,1700.0625 229.25,1700.7188 L229.25,1702.2813 Q229.25,1702.9375 228.9688,1703.2188 Q228.6875,1703.5 228.25,1703.5 Q227.8594,1703.5 227.6094,1703.3281 Q227.3594,1703.1563 227.25,1702.7031 Q227.2031,1702.3906 227.0313,1702.2188 Q226.7188,1701.8906 226.1563,1701.7031 Q225.5938,1701.5 225.0313,1701.5 Q224.3281,1701.5 223.7344,1701.7813 Q223.1563,1702.0625 222.7031,1702.6875 Q222.25,1703.3125 222.25,1704.1719 L222.25,1705.0938 Q222.25,1706.125 223.0938,1706.8125 Q223.9375,1707.5 225.4375,1707.5 Q226.3281,1707.5 226.9531,1707.2969 Q227.3125,1707.1875 227.7188,1706.8281 Q227.9844,1706.625 228.125,1706.5625 Q228.2656,1706.5 228.4375,1706.5 Q228.7656,1706.5 229,1706.7656 Q229.25,1707.0156 229.25,1707.375 Q229.25,1707.7188 228.9063,1708.125 Q228.4063,1708.7188 227.6094,1709.0469 Q226.5625,1709.5 225.2813,1709.5 Q223.7813,1709.5 222.5781,1708.9063 Q221.6094,1708.4375 220.9219,1707.4219 Q220.25,1706.4063 220.25,1705.2031 L220.25,1704.1094 Q220.25,1702.8594 220.8438,1701.7656 Q221.4531,1700.6719 222.5,1700.0938 Q223.5625,1699.5 224.75,1699.5 Q225.4688,1699.5 226.0938,1699.75 Q226.7188,1700 227.25,1700.5 Z " fill="#000000"/><text fill="#000000" font-family="sans-serif" font-size="12" lengthAdjust="spacing" textLength="81" x="245.75" y="1708.9102">TestParamList</text><line style="stroke:#A80036;stroke-width:1.5;" x1="158.5" x2="381.5" y1="1720" y2="1720"/><line style="stroke:#A80036;stroke-width:1.5;" x1="158.5" x2="381.5" y1="1728" y2="1728"/><text fill="#000000" font-family="sans-serif" font-size="11" lengthAdjust="spacing" textLength="113" x="163.5" y="1743.4189">+testParamList create()</text><text fill="#000000" font-family="sans-serif" font-size="11" lengthAdjust="spacing" textLength="213" x="163.5" y="1757.2549">+addTestParameterResult(parameter, value)</text><!--MD5=[a96594a83e2ecdc78cbf17c2ddf01934]
class Category--><rect codeLine="117" fill="#FEFECE" filter="url(#f1e3vwu0isxcdu)" height="89.5078" id="Category" style="stroke:#A80036;stroke-width:1.5;" width="254" x="562" y="1681"/><ellipse cx="660.25" cy="1697" fill="#ADD1B2" rx="11" ry="11" style="stroke:#A80036;stroke-width:1.0;"/><path d="M662.25,1693.5 Q662.4531,1693 662.6875,1692.75 Q662.9219,1692.5 663.1875,1692.5 Q663.6563,1692.5 663.9531,1692.7813 Q664.25,1693.0625 664.25,1693.7188 L664.25,1695.2813 Q664.25,1695.9375 663.9688,1696.2188 Q663.6875,1696.5 663.25,1696.5 Q662.8594,1696.5 662.6094,1696.3281 Q662.3594,1696.1563 662.25,1695.7031 Q662.2031,1695.3906 662.0313,1695.2188 Q661.7188,1694.8906 661.1563,1694.7031 Q660.5938,1694.5 660.0313,1694.5 Q659.3281,1694.5 658.7344,1694.7813 Q658.1563,1695.0625 657.7031,1695.6875 Q657.25,1696.3125 657.25,1697.1719 L657.25,1698.0938 Q657.25,1699.125 658.0938,1699.8125 Q658.9375,1700.5 660.4375,1700.5 Q661.3281,1700.5 661.9531,1700.2969 Q662.3125,1700.1875 662.7188,1699.8281 Q662.9844,1699.625 663.125,1699.5625 Q663.2656,1699.5 663.4375,1699.5 Q663.7656,1699.5 664,1699.7656 Q664.25,1700.0156 664.25,1700.375 Q664.25,1700.7188 663.9063,1701.125 Q663.4063,1701.7188 662.6094,1702.0469 Q661.5625,1702.5 660.2813,1702.5 Q658.7813,1702.5 657.5781,1701.9063 Q656.6094,1701.4375 655.9219,1700.4219 Q655.25,1699.4063 655.25,1698.2031 L655.25,1697.1094 Q655.25,1695.8594 655.8438,1694.7656 Q656.4531,1693.6719 657.5,1693.0938 Q658.5625,1692.5 659.75,1692.5 Q660.4688,1692.5 661.0938,1692.75 Q661.7188,1693 662.25,1693.5 Z " fill="#000000"/><text fill="#000000" font-family="sans-serif" font-size="12" lengthAdjust="spacing" textLength="49" x="680.75" y="1701.9102">Category</text><line style="stroke:#A80036;stroke-width:1.5;" x1="563" x2="815" y1="1713" y2="1713"/><line style="stroke:#A80036;stroke-width:1.5;" x1="563" x2="815" y1="1721" y2="1721"/><text fill="#000000" font-family="sans-serif" font-size="11" lengthAdjust="spacing" textLength="99" x="568" y="1736.4189">+categories create()</text><text fill="#000000" font-family="sans-serif" font-size="11" lengthAdjust="spacing" textLength="75" x="568" y="1750.2549">+add(category)</text><text fill="#000000" font-family="sans-serif" font-size="11" lengthAdjust="spacing" textLength="242" x="568" y="1764.0908">+parameter getParameterByCode(parameterCode)</text><!--MD5=[0f07739f46effee96e095e9c408da841]
class TestParameter--><rect codeLine="123" fill="#FEFECE" filter="url(#f1e3vwu0isxcdu)" height="48" id="TestParameter" style="stroke:#A80036;stroke-width:1.5;" width="114" x="213" y="1849"/><ellipse cx="228" cy="1865" fill="#ADD1B2" rx="11" ry="11" style="stroke:#A80036;stroke-width:1.0;"/><path d="M230,1861.5 Q230.2031,1861 230.4375,1860.75 Q230.6719,1860.5 230.9375,1860.5 Q231.4063,1860.5 231.7031,1860.7813 Q232,1861.0625 232,1861.7188 L232,1863.2813 Q232,1863.9375 231.7188,1864.2188 Q231.4375,1864.5 231,1864.5 Q230.6094,1864.5 230.3594,1864.3281 Q230.1094,1864.1563 230,1863.7031 Q229.9531,1863.3906 229.7813,1863.2188 Q229.4688,1862.8906 228.9063,1862.7031 Q228.3438,1862.5 227.7813,1862.5 Q227.0781,1862.5 226.4844,1862.7813 Q225.9063,1863.0625 225.4531,1863.6875 Q225,1864.3125 225,1865.1719 L225,1866.0938 Q225,1867.125 225.8438,1867.8125 Q226.6875,1868.5 228.1875,1868.5 Q229.0781,1868.5 229.7031,1868.2969 Q230.0625,1868.1875 230.4688,1867.8281 Q230.7344,1867.625 230.875,1867.5625 Q231.0156,1867.5 231.1875,1867.5 Q231.5156,1867.5 231.75,1867.7656 Q232,1868.0156 232,1868.375 Q232,1868.7188 231.6563,1869.125 Q231.1563,1869.7188 230.3594,1870.0469 Q229.3125,1870.5 228.0313,1870.5 Q226.5313,1870.5 225.3281,1869.9063 Q224.3594,1869.4375 223.6719,1868.4219 Q223,1867.4063 223,1866.2031 L223,1865.1094 Q223,1863.8594 223.5938,1862.7656 Q224.2031,1861.6719 225.25,1861.0938 Q226.3125,1860.5 227.5,1860.5 Q228.2188,1860.5 228.8438,1860.75 Q229.4688,1861 230,1861.5 Z " fill="#000000"/><text fill="#000000" font-family="sans-serif" font-size="12" lengthAdjust="spacing" textLength="82" x="242" y="1869.9102">TestParameter</text><line style="stroke:#A80036;stroke-width:1.5;" x1="214" x2="326" y1="1881" y2="1881"/><line style="stroke:#A80036;stroke-width:1.5;" x1="214" x2="326" y1="1889" y2="1889"/><!--MD5=[55cb992be19579b505cea3c5691093cb]
class ClientStore--><rect codeLine="125" fill="#FEFECE" filter="url(#f1e3vwu0isxcdu)" height="89.5078" id="ClientStore" style="stroke:#A80036;stroke-width:1.5;" width="418" x="1281" y="1359"/><ellipse cx="1455.25" cy="1375" fill="#ADD1B2" rx="11" ry="11" style="stroke:#A80036;stroke-width:1.0;"/><path d="M1457.25,1371.5 Q1457.4531,1371 1457.6875,1370.75 Q1457.9219,1370.5 1458.1875,1370.5 Q1458.6563,1370.5 1458.9531,1370.7813 Q1459.25,1371.0625 1459.25,1371.7188 L1459.25,1373.2813 Q1459.25,1373.9375 1458.9688,1374.2188 Q1458.6875,1374.5 1458.25,1374.5 Q1457.8594,1374.5 1457.6094,1374.3281 Q1457.3594,1374.1563 1457.25,1373.7031 Q1457.2031,1373.3906 1457.0313,1373.2188 Q1456.7188,1372.8906 1456.1563,1372.7031 Q1455.5938,1372.5 1455.0313,1372.5 Q1454.3281,1372.5 1453.7344,1372.7813 Q1453.1563,1373.0625 1452.7031,1373.6875 Q1452.25,1374.3125 1452.25,1375.1719 L1452.25,1376.0938 Q1452.25,1377.125 1453.0938,1377.8125 Q1453.9375,1378.5 1455.4375,1378.5 Q1456.3281,1378.5 1456.9531,1378.2969 Q1457.3125,1378.1875 1457.7188,1377.8281 Q1457.9844,1377.625 1458.125,1377.5625 Q1458.2656,1377.5 1458.4375,1377.5 Q1458.7656,1377.5 1459,1377.7656 Q1459.25,1378.0156 1459.25,1378.375 Q1459.25,1378.7188 1458.9063,1379.125 Q1458.4063,1379.7188 1457.6094,1380.0469 Q1456.5625,1380.5 1455.2813,1380.5 Q1453.7813,1380.5 1452.5781,1379.9063 Q1451.6094,1379.4375 1450.9219,1378.4219 Q1450.25,1377.4063 1450.25,1376.2031 L1450.25,1375.1094 Q1450.25,1373.8594 1450.8438,1372.7656 Q1451.4531,1371.6719 1452.5,1371.0938 Q1453.5625,1370.5 1454.75,1370.5 Q1455.4688,1370.5 1456.0938,1370.75 Q1456.7188,1371 1457.25,1371.5 Z " fill="#000000"/><text fill="#000000" font-family="sans-serif" font-size="12" lengthAdjust="spacing" textLength="61" x="1475.75" y="1379.9102">ClientStore</text><line style="stroke:#A80036;stroke-width:1.5;" x1="1282" x2="1698" y1="1391" y2="1391"/><line style="stroke:#A80036;stroke-width:1.5;" x1="1282" x2="1698" y1="1399" y2="1399"/><text fill="#000000" font-family="sans-serif" font-size="11" lengthAdjust="spacing" textLength="406" x="1287" y="1414.4189">+createClient(nhsID, cardNumber, tin, birthday, phoneNumber, name, email, address)</text><text fill="#000000" font-family="sans-serif" font-size="11" lengthAdjust="spacing" textLength="76" x="1287" y="1428.2549">+validate(client)</text><text fill="#000000" font-family="sans-serif" font-size="11" lengthAdjust="spacing" textLength="89" x="1287" y="1442.0908">+saveClient(client)</text><!--MD5=[ed6624c6556d5e7b1bd23032162d20b7]
class Client--><rect codeLine="131" fill="#FEFECE" filter="url(#f1e3vwu0isxcdu)" height="75.6719" id="Client" style="stroke:#A80036;stroke-width:1.5;" width="392" x="1239" y="1688"/><ellipse cx="1414.75" cy="1704" fill="#ADD1B2" rx="11" ry="11" style="stroke:#A80036;stroke-width:1.0;"/><path d="M1416.75,1700.5 Q1416.9531,1700 1417.1875,1699.75 Q1417.4219,1699.5 1417.6875,1699.5 Q1418.1563,1699.5 1418.4531,1699.7813 Q1418.75,1700.0625 1418.75,1700.7188 L1418.75,1702.2813 Q1418.75,1702.9375 1418.4688,1703.2188 Q1418.1875,1703.5 1417.75,1703.5 Q1417.3594,1703.5 1417.1094,1703.3281 Q1416.8594,1703.1563 1416.75,1702.7031 Q1416.7031,1702.3906 1416.5313,1702.2188 Q1416.2188,1701.8906 1415.6563,1701.7031 Q1415.0938,1701.5 1414.5313,1701.5 Q1413.8281,1701.5 1413.2344,1701.7813 Q1412.6563,1702.0625 1412.2031,1702.6875 Q1411.75,1703.3125 1411.75,1704.1719 L1411.75,1705.0938 Q1411.75,1706.125 1412.5938,1706.8125 Q1413.4375,1707.5 1414.9375,1707.5 Q1415.8281,1707.5 1416.4531,1707.2969 Q1416.8125,1707.1875 1417.2188,1706.8281 Q1417.4844,1706.625 1417.625,1706.5625 Q1417.7656,1706.5 1417.9375,1706.5 Q1418.2656,1706.5 1418.5,1706.7656 Q1418.75,1707.0156 1418.75,1707.375 Q1418.75,1707.7188 1418.4063,1708.125 Q1417.9063,1708.7188 1417.1094,1709.0469 Q1416.0625,1709.5 1414.7813,1709.5 Q1413.2813,1709.5 1412.0781,1708.9063 Q1411.1094,1708.4375 1410.4219,1707.4219 Q1409.75,1706.4063 1409.75,1705.2031 L1409.75,1704.1094 Q1409.75,1702.8594 1410.3438,1701.7656 Q1410.9531,1700.6719 1412,1700.0938 Q1413.0625,1699.5 1414.25,1699.5 Q1414.9688,1699.5 1415.5938,1699.75 Q1416.2188,1700 1416.75,1700.5 Z " fill="#000000"/><text fill="#000000" font-family="sans-serif" font-size="12" lengthAdjust="spacing" textLength="32" x="1435.25" y="1708.9102">Client</text><line style="stroke:#A80036;stroke-width:1.5;" x1="1240" x2="1630" y1="1720" y2="1720"/><line style="stroke:#A80036;stroke-width:1.5;" x1="1240" x2="1630" y1="1728" y2="1728"/><text fill="#000000" font-family="sans-serif" font-size="11" lengthAdjust="spacing" textLength="380" x="1245" y="1743.4189">+create(nhsID, cardNumber, tin, birthday, phoneNumber, name, email, address)</text><text fill="#000000" font-family="sans-serif" font-size="11" lengthAdjust="spacing" textLength="51" x="1245" y="1757.2549">+validate()</text><!--MD5=[bbf8ed33ff2a0fa4edc451c2450da23c]
link ImportCSVFileUI to ImportCSVFileController--><path codeLine="137" d="M1308,55.29 C1308,69.05 1308,88.2 1308,110.78 " fill="none" id="ImportCSVFileUI-to-ImportCSVFileController" style="stroke:#A80036;stroke-width:1.0;stroke-dasharray:7.0,7.0;"/><polygon fill="#A80036" points="1308,115.96,1312,106.96,1308,110.96,1304,106.96,1308,115.96" style="stroke:#A80036;stroke-width:1.0;"/><!--MD5=[2f6738469e5fada24c699001494aa220]
link ImportCSVFileController to RegisterTestController--><path codeLine="138" d="M1183.5,590.4 C1090.53,678.07 964.03,797.35 871.15,884.93 " fill="none" id="ImportCSVFileController-to-RegisterTestController" style="stroke:#A80036;stroke-width:1.0;stroke-dasharray:7.0,7.0;"/><polygon fill="#A80036" points="867.31,888.56,876.6053,885.3045,870.951,885.1332,871.1223,879.4789,867.31,888.56" style="stroke:#A80036;stroke-width:1.0;"/><!--MD5=[0003d7a7cd67ee5615cf7fd4ffaf699a]
link ImportCSVFileController to RegisterClientController--><path codeLine="139" d="M1432.54,611.99 C1533.59,724.77 1670.15,877.17 1738.8,953.79 " fill="none" id="ImportCSVFileController-to-RegisterClientController" style="stroke:#A80036;stroke-width:1.0;stroke-dasharray:7.0,7.0;"/><polygon fill="#A80036" points="1742.42,957.83,1739.4103,948.4523,1739.0902,954.1001,1733.4424,953.7799,1742.42,957.83" style="stroke:#A80036;stroke-width:1.0;"/><!--MD5=[7f6cf7f175eae0af66201860de5de971]
link Company to TestStore--><path codeLine="141" d="M1011.49,1267.72 C929.18,1294.01 818.37,1329.41 730.74,1357.4 " fill="none" id="Company-to-TestStore" style="stroke:#A80036;stroke-width:1.0;"/><polygon fill="#A80036" points="725.8,1358.98,735.5883,1360.0701,730.5658,1357.4675,733.1684,1352.4449,725.8,1358.98" style="stroke:#A80036;stroke-width:1.0;"/><polygon fill="#000000" points="875.2371,1321.6972,884.7475,1321.7445,882.959,1316.1454,875.2371,1321.6972" style="stroke:#000000;stroke-width:1.0;"/><text fill="#000000" font-family="sans-serif" font-size="13" lengthAdjust="spacing" textLength="28" x="889" y="1325.4951">uses</text><!--MD5=[141c3afa12b2b3c0a39ffce56dbd5f19]
link Company to TestTypeStore--><path codeLine="142" d="M1128,1281.32 C1128,1309.06 1128,1342.72 1128,1367.6 " fill="none" id="Company-to-TestTypeStore" style="stroke:#A80036;stroke-width:1.0;"/><polygon fill="#A80036" points="1128,1372.77,1132,1363.77,1128,1367.77,1124,1363.77,1128,1372.77" style="stroke:#A80036;stroke-width:1.0;"/><polygon fill="#000000" points="1133,1325.1758,1135.9389,1316.1307,1130.0611,1316.1307,1133,1325.1758" style="stroke:#000000;stroke-width:1.0;"/><text fill="#000000" font-family="sans-serif" font-size="13" lengthAdjust="spacing" textLength="28" x="1142" y="1325.4951">uses</text><!--MD5=[a11230341c8e65219708844feaa40162]
link Company to ClientStore--><path codeLine="143" d="M1234.17,1281.09 C1284.39,1305.02 1343.94,1333.4 1392.95,1356.75 " fill="none" id="Company-to-ClientStore" style="stroke:#A80036;stroke-width:1.0;"/><polygon fill="#A80036" points="1397.66,1359,1391.2641,1351.5105,1393.1486,1356.8442,1387.8149,1358.7287,1397.66,1359" style="stroke:#A80036;stroke-width:1.0;"/><polygon fill="#000000" points="1339.5137,1322.3266,1332.6125,1315.7826,1330.0841,1321.0888,1339.5137,1322.3266" style="stroke:#000000;stroke-width:1.0;"/><text fill="#000000" font-family="sans-serif" font-size="13" lengthAdjust="spacing" textLength="28" x="1344" y="1325.4951">uses</text><!--MD5=[b0f4f6db8206580012ef9cd998ed01c5]
link TestStore to Test--><path codeLine="145" d="M572.96,1449.29 C565.24,1472.01 555.89,1499.55 548.28,1521.94 " fill="none" id="TestStore-to-Test" style="stroke:#A80036;stroke-width:1.0;"/><polygon fill="#A80036" points="546.59,1526.93,553.2832,1519.705,548.2054,1522.1981,545.7122,1517.1203,546.59,1526.93" style="stroke:#A80036;stroke-width:1.0;"/><polygon fill="#000000" points="566.3917,1492.9101,572.0839,1485.291,566.5184,1483.4003,566.3917,1492.9101" style="stroke:#000000;stroke-width:1.0;"/><text fill="#000000" font-family="sans-serif" font-size="13" lengthAdjust="spacing" textLength="49" x="577" y="1493.4951">contains</text><!--MD5=[3eebf0e5f359806b77b30e9524c37676]
link TestTypeStore to TestType--><path codeLine="146" d="M1128,1435.28 C1128,1461.92 1128,1500.7 1128,1528.73 " fill="none" id="TestTypeStore-to-TestType" style="stroke:#A80036;stroke-width:1.0;"/><polygon fill="#A80036" points="1128,1533.83,1132,1524.83,1128,1528.83,1124,1524.83,1128,1533.83" style="stroke:#A80036;stroke-width:1.0;"/><polygon fill="#000000" points="1133,1493.1758,1135.9389,1484.1307,1130.0611,1484.1307,1133,1493.1758" style="stroke:#000000;stroke-width:1.0;"/><text fill="#000000" font-family="sans-serif" font-size="13" lengthAdjust="spacing" textLength="49" x="1142" y="1493.4951">contains</text><!--MD5=[2148a3300dad30af455fcbe81ca204c2]
link TestType to Category--><path codeLine="148" d="M1045.17,1596 C980.5,1619.42 889.53,1652.37 815.72,1679.1 " fill="none" id="TestType-to-Category" style="stroke:#A80036;stroke-width:1.0;"/><polygon fill="#A80036" points="810.88,1680.86,820.7039,1681.5603,815.5819,1679.1593,817.9828,1674.0373,810.88,1680.86" style="stroke:#A80036;stroke-width:1.0;"/><polygon fill="#000000" points="935.2988,1643.8784,944.8041,1643.5616,942.8026,1638.035,935.2988,1643.8784" style="stroke:#000000;stroke-width:1.0;"/><text fill="#000000" font-family="sans-serif" font-size="13" lengthAdjust="spacing" textLength="21" x="949" y="1647.4951">has</text><!--MD5=[0e00e25ac6b8c14659aaff2cf7e5df08]
link TestParameter to TestParameterResult--><path codeLine="150" d="M270,1897.03 C270,1917.52 270,1947.56 270,1969.55 " fill="none" id="TestParameter-to-TestParameterResult" style="stroke:#A80036;stroke-width:1.0;"/><polygon fill="#A80036" points="270,1974.67,274,1965.67,270,1969.67,266,1965.67,270,1974.67" style="stroke:#A80036;stroke-width:1.0;"/><polygon fill="#000000" points="275,1941.1758,277.9389,1932.1307,272.0611,1932.1307,275,1941.1758" style="stroke:#000000;stroke-width:1.0;"/><text fill="#000000" font-family="sans-serif" font-size="13" lengthAdjust="spacing" textLength="49" x="284" y="1941.4951">contains</text><!--MD5=[2c91f88199f54fc4797874c7092f4fe3]
link Test to TestParamList--><path codeLine="152" d="M472.44,1603.08 C431.57,1627.69 377.96,1659.98 336.18,1685.14 " fill="none" id="Test-to-TestParamList" style="stroke:#A80036;stroke-width:1.0;"/><polygon fill="#A80036" points="331.66,1687.86,341.4325,1686.6356,335.9412,1685.277,337.2997,1679.7857,331.66,1687.86" style="stroke:#A80036;stroke-width:1.0;"/><polygon fill="#000000" points="418.7168,1644.7553,427.9814,1642.6065,424.949,1637.5713,418.7168,1644.7553" style="stroke:#000000;stroke-width:1.0;"/><text fill="#000000" font-family="sans-serif" font-size="13" lengthAdjust="spacing" textLength="28" x="432" y="1647.4951">uses</text><!--MD5=[7dcd1600b6e42663b3fea3bcea44895b]
link TestParamList to TestParameter--><path codeLine="154" d="M270,1764.34 C270,1789.04 270,1820.93 270,1843.58 " fill="none" id="TestParamList-to-TestParameter" style="stroke:#A80036;stroke-width:1.0;"/><polygon fill="#A80036" points="270,1848.84,274,1839.84,270,1843.84,266,1839.84,270,1848.84" style="stroke:#A80036;stroke-width:1.0;"/><polygon fill="#000000" points="275,1815.1758,277.9389,1806.1307,272.0611,1806.1307,275,1815.1758" style="stroke:#000000;stroke-width:1.0;"/><text fill="#000000" font-family="sans-serif" font-size="13" lengthAdjust="spacing" textLength="21" x="284" y="1815.4951">has</text><!--MD5=[ab922b8023446f7e094c4c89426f3446]
link RegisterTestController to TestStore--><path codeLine="156" d="M701.97,1117 C670.8,1195.22 630.86,1295.44 607.49,1354.1 " fill="none" id="RegisterTestController-to-TestStore" style="stroke:#A80036;stroke-width:1.0;stroke-dasharray:7.0,7.0;"/><polygon fill="#A80036" points="605.55,1358.95,612.5882,1352.0606,607.3946,1354.3027,605.1525,1349.1092,605.55,1358.95" style="stroke:#A80036;stroke-width:1.0;"/><!--MD5=[9bbdbd540c83e8eb6a96b73517cd98eb]
link RegisterTestController to TestTypeStore--><path codeLine="157" d="M741.83,1117.06 C745,1187.67 761.66,1275.1 818,1329 C874.71,1383.25 915.81,1340.21 992,1359 C1006.5,1362.58 1021.71,1366.9 1036.48,1371.43 " fill="none" id="RegisterTestController-to-TestTypeStore" style="stroke:#A80036;stroke-width:1.0;stroke-dasharray:7.0,7.0;"/><polygon fill="#A80036" points="1041.47,1372.97,1034.0661,1366.4752,1036.6961,1371.4835,1031.6877,1374.1135,1041.47,1372.97" style="stroke:#A80036;stroke-width:1.0;"/><!--MD5=[c6ff1f70c2c5ebb9183fa9ec2afb8f2b]
link RegisterTestController to TestParamList--><path codeLine="158" d="M449.88,1039.05 C243.72,1071.97 6,1131.05 6,1228.5 C6,1228.5 6,1228.5 6,1566 C6,1639.41 81.84,1679.8 152.22,1701.49 " fill="none" id="RegisterTestController-to-TestParamList" style="stroke:#A80036;stroke-width:1.0;stroke-dasharray:7.0,7.0;"/><polygon fill="#A80036" points="157.27,1703.01,149.8077,1696.5823,152.4828,1701.5667,147.4985,1704.2418,157.27,1703.01" style="stroke:#A80036;stroke-width:1.0;"/><!--MD5=[97e9c595f061e920ddd6d5d021effbc9]
link RegisterTestController to Test--><path codeLine="159" d="M452.59,1117.03 C348.16,1173.07 242,1252.15 183,1359 C163.66,1394.02 159.53,1416.61 183,1449 C207.95,1483.43 243.52,1507.74 282.54,1524.86 " fill="none" id="RegisterTestController-to-Test" style="stroke:#A80036;stroke-width:1.0;stroke-dasharray:7.0,7.0;"/><polygon fill="#A80036" points="287.31,1526.91,280.6215,1519.6806,282.7165,1524.9352,277.4619,1527.0302,287.31,1526.91" style="stroke:#A80036;stroke-width:1.0;"/><!--MD5=[fd1bc663e883ec1d717e7d33cb6b726b]
link RegisterTestController to Company--><path codeLine="160" d="M938.9,1117.07 C973.48,1137.45 1008,1157.79 1037.9,1175.41 " fill="none" id="RegisterTestController-to-Company" style="stroke:#A80036;stroke-width:1.0;stroke-dasharray:7.0,7.0;"/><polygon fill="#A80036" points="1042.28,1177.99,1036.5576,1169.9741,1037.9725,1175.4512,1032.4955,1176.8661,1042.28,1177.99" style="stroke:#A80036;stroke-width:1.0;"/><!--MD5=[ec47b9290aa4dd5508a85ec01f0b1ba8]
link RegisterTestController to TestType--><path codeLine="161" d="M1044.03,1023.58 C1270.89,1056.11 1568.94,1140.76 1717,1359 C1825.28,1518.61 1497.68,1555.35 1288.38,1562.94 " fill="none" id="RegisterTestController-to-TestType" style="stroke:#A80036;stroke-width:1.0;stroke-dasharray:7.0,7.0;"/><polygon fill="#A80036" points="1283.15,1563.12,1292.2923,1566.7832,1288.1466,1562.9344,1291.9953,1558.7887,1283.15,1563.12" style="stroke:#A80036;stroke-width:1.0;"/><!--MD5=[e29587f2bf34f27ccb90b9d01c07b42e]
link RegisterTestController to Category--><path codeLine="162" d="M449.71,1049.46 C270.64,1085.55 77,1144.08 77,1228.5 C77,1228.5 77,1228.5 77,1566 C77,1615.18 376.87,1673.42 556.8,1703.93 " fill="none" id="RegisterTestController-to-Category" style="stroke:#A80036;stroke-width:1.0;stroke-dasharray:7.0,7.0;"/><polygon fill="#A80036" points="561.82,1704.78,553.6077,1699.3433,556.8892,1703.9511,552.2814,1707.2325,561.82,1704.78" style="stroke:#A80036;stroke-width:1.0;"/><!--MD5=[198be3749d42ca56b2a20022cdc44bdd]
link RegisterClientController to Company--><path codeLine="164" d="M1653.57,1048.09 C1536.34,1088.33 1364.32,1147.38 1249.36,1186.84 " fill="none" id="RegisterClientController-to-Company" style="stroke:#A80036;stroke-width:1.0;stroke-dasharray:7.0,7.0;"/><polygon fill="#A80036" points="1244.61,1188.47,1254.422,1189.3212,1249.3375,1186.8418,1251.8169,1181.7573,1244.61,1188.47" style="stroke:#A80036;stroke-width:1.0;"/><!--MD5=[ed103a8ea2b4d350bb3452ad82ebe4da]
link RegisterClientController to Client--><path codeLine="165" d="M1794.97,1048.29 C1806.98,1093.26 1823,1165.11 1823,1228.5 C1823,1228.5 1823,1228.5 1823,1566 C1823,1616.12 1710.76,1658.32 1607.01,1686.62 " fill="none" id="RegisterClientController-to-Client" style="stroke:#A80036;stroke-width:1.0;stroke-dasharray:7.0,7.0;"/><polygon fill="#A80036" points="1602.08,1687.96,1611.8104,1689.4827,1606.9081,1686.6601,1609.7306,1681.7578,1602.08,1687.96" style="stroke:#A80036;stroke-width:1.0;"/><!--MD5=[3994f36c72829dbcddd1cf7021dddf61]
link Test to Client--><path codeLine="167" d="M633.34,1603.08 C682.3,1620.04 742.59,1638.98 798,1651 C944.07,1682.68 1112.12,1701.48 1238.92,1712.2 " fill="none" id="Test-Client" style="stroke:#A80036;stroke-width:1.0;"/><polygon fill="#000000" points="807.9208,1643.0625,799.5402,1638.5661,798.4979,1644.3508,807.9208,1643.0625" style="stroke:#000000;stroke-width:1.0;"/><text fill="#000000" font-family="sans-serif" font-size="13" lengthAdjust="spacing" textLength="75" x="812" y="1647.4951">requested by</text><text fill="#000000" font-family="sans-serif" font-size="13" lengthAdjust="spacing" textLength="5" x="644.3791" y="1624.2634">*</text><text fill="#000000" font-family="sans-serif" font-size="13" lengthAdjust="spacing" textLength="7" x="1224.1239" y="1708.8568">1</text><!--MD5=[fdf1422d6180cfaf5ff36a300f963287]
@startuml

skinparam classAttributeIconSize 0

class ImportCSVFileUI

class ImportCSVFileController {
-file
-testTypeCode
-categoryName
-parameterCode
-value
-nhsID
-cardNumber
-tin
-birthday
-phoneNumber
-name
-email
-address
-client
-labID
-testCode
-nhsCode
-dateTimeRegister
-dateTimeResults
-dateTimeReport
-dateTimeValidation
-test



file setFile(file)
+validateFile(file)
+createNewControllers()
+testTypeCode readTestTypeCode()
+categoryName readCategoryName()
+parameterCode readParameterCodeAndResult()
+value readParameterCodeAndResult()
+nhsID readNhsId()
+cardNumber readCardNumber()
+tin readTin()
+birthday readBirthday()
+phoneNumber readPhoneNumber()
+name readName()
+email readEmail()
+address readAddress()
+createClient()
+saveClient()
+labID readLabId()
+testCode readTestCode()
+nhsCode readNhsCode()
+dateTimeRegister readDateTimeRegister()
+dateTimeResults readDateTimeResults()
+dateTimeReport readDateTimeReport()
+dateTimeValidation readDateTimeValidation()
+createTest()
+saveTest()
}

class RegisterTestController {
-testTypeStore
-testType
-category
-parameter
-clientStore
-clinicalAnalysisLaboratory
-testStore

+setTestTypeByCode(testTypeCode)
+setCategoryByName(categoryName)
+setTestParameterByParameterCodeAndResult(parameterCode, value)
+setLabById(labID)
+test createTestFromCSV(testCode, nhsCode, dateTimeRegister, dateTimeResults,  dateTimeReport,  dateTimeValidation)
+saveTest(test)
}

class RegisterClientController {
-clientStore

+client createClient(nhsID, cardNumber, tin, birthday, phoneNumber, name, email, address)
+saveClientFromCSV(client)
}

class Company {
+testTypeStore getTestTypeStore()
+clientStore getClientStore()
+clinicalAnalysisLaboratory getLabById(labID)
+testStore getTestStore()
}

class TestTypeStore {
+testType getTestTypeByCode(testTypeCode)
}

class TestStore {
+createTestFromCSV(client, testCode, nhsCode, testType, categories, testParamList, dateTimeRegister, dateTimeResults, dateTimeReport, dateTimeValidation)
+validate(test)
+add(test)
}

class Test {
+create(client, testCode, nhsCode, testType, categories, testParamList, dateTimeRegister, dateTimeResults, dateTimeReport, dateTimeValidation)
+validate()
}

class TestType {
+category getCategoryFromTestTypeByName(categoryName)
}

class TestParameterResult

class TestParamList {
+testParamList create()
+addTestParameterResult(parameter, value)
}

class Category {
+categories create()
+add(category)
+parameter getParameterByCode(parameterCode)
}

class TestParameter

class ClientStore {
+createClient(nhsID, cardNumber, tin, birthday, phoneNumber, name, email, address)
+validate(client)
+saveClient(client)
}

class Client {
+create(nhsID, cardNumber, tin, birthday, phoneNumber, name, email, address)
+validate()
}


ImportCSVFileUI ..> ImportCSVFileController
ImportCSVFileController ..> RegisterTestController
ImportCSVFileController ..> RegisterClientController

Company -down-> TestStore: uses >
Company -down-> TestTypeStore: uses >
Company -down-> ClientStore: uses >

TestStore -down-> Test: contains >
TestTypeStore -down-> TestType: contains >

TestType -down-> Category: has >

TestParameter -down-> TestParameterResult: contains >

Test -down-> TestParamList: uses >

TestParamList -down-> TestParameter: has >

RegisterTestController ..> TestStore
RegisterTestController ..> TestTypeStore
RegisterTestController ..> TestParamList
RegisterTestController ..> Test
RegisterTestController ..> Company
RegisterTestController ..> TestType
RegisterTestController ..> Category

RegisterClientController ..> Company
RegisterClientController ..> Client

Test "*"- -"1" Client : requested by >

@enduml

PlantUML version 1.2021.7(Sun May 23 13:40:07 BST 2021)
(GPL source distribution)
Java Runtime: OpenJDK Runtime Environment
JVM: OpenJDK 64-Bit Server VM
Default Encoding: Cp1252
Language: pt
Country: PT
--></g></svg>