<?xml version="1.0" encoding="UTF-8" standalone="no"?><svg xmlns="http://www.w3.org/2000/svg" xmlns:xlink="http://www.w3.org/1999/xlink" contentScriptType="application/ecmascript" contentStyleType="text/css" height="947px" preserveAspectRatio="none" style="width:437px;height:947px;background:#FFFFFF;" version="1.1" viewBox="0 0 437 947" width="437px" zoomAndPan="magnify"><defs><filter height="300%" id="f12cqcibtveall" width="300%" x="-1" y="-1"><feGaussianBlur result="blurOut" stdDeviation="2.0"/><feColorMatrix in="blurOut" result="blurOut2" type="matrix" values="0 0 0 0 0 0 0 0 0 0 0 0 0 0 0 0 0 0 .4 0"/><feOffset dx="4.0" dy="4.0" in="blurOut2" result="blurOut3"/><feBlend in="SourceGraphic" in2="blurOut3" mode="normal"/></filter></defs><g><!--MD5=[df38be88ccee13e832d6fafd6288a4ca]
class Test--><rect codeLine="4" fill="#FEFECE" filter="url(#f12cqcibtveall)" height="144.8516" id="Test" style="stroke:#A80036;stroke-width:1.5;" width="106" x="114" y="202"/><ellipse cx="151.5" cy="218" fill="#ADD1B2" rx="11" ry="11" style="stroke:#A80036;stroke-width:1.0;"/><path d="M153.5,214.5 Q153.7031,214 153.9375,213.75 Q154.1719,213.5 154.4375,213.5 Q154.9063,213.5 155.2031,213.7813 Q155.5,214.0625 155.5,214.7188 L155.5,216.2813 Q155.5,216.9375 155.2188,217.2188 Q154.9375,217.5 154.5,217.5 Q154.1094,217.5 153.8594,217.3281 Q153.6094,217.1563 153.5,216.7031 Q153.4531,216.3906 153.2813,216.2188 Q152.9688,215.8906 152.4063,215.7031 Q151.8438,215.5 151.2813,215.5 Q150.5781,215.5 149.9844,215.7813 Q149.4063,216.0625 148.9531,216.6875 Q148.5,217.3125 148.5,218.1719 L148.5,219.0938 Q148.5,220.125 149.3438,220.8125 Q150.1875,221.5 151.6875,221.5 Q152.5781,221.5 153.2031,221.2969 Q153.5625,221.1875 153.9688,220.8281 Q154.2344,220.625 154.375,220.5625 Q154.5156,220.5 154.6875,220.5 Q155.0156,220.5 155.25,220.7656 Q155.5,221.0156 155.5,221.375 Q155.5,221.7188 155.1563,222.125 Q154.6563,222.7188 153.8594,223.0469 Q152.8125,223.5 151.5313,223.5 Q150.0313,223.5 148.8281,222.9063 Q147.8594,222.4375 147.1719,221.4219 Q146.5,220.4063 146.5,219.2031 L146.5,218.1094 Q146.5,216.8594 147.0938,215.7656 Q147.7031,214.6719 148.75,214.0938 Q149.8125,213.5 151,213.5 Q151.7188,213.5 152.3438,213.75 Q152.9688,214 153.5,214.5 Z " fill="#000000"/><text fill="#000000" font-family="sans-serif" font-size="12" lengthAdjust="spacing" textLength="24" x="170.5" y="222.9102">Test</text><line style="stroke:#A80036;stroke-width:1.5;" x1="115" x2="219" y1="234" y2="234"/><text fill="#000000" font-family="sans-serif" font-size="11" lengthAdjust="spacing" textLength="47" x="120" y="249.4189">-testCode</text><text fill="#000000" font-family="sans-serif" font-size="11" lengthAdjust="spacing" textLength="47" x="120" y="263.2549">-nhsCode</text><text fill="#000000" font-family="sans-serif" font-size="11" lengthAdjust="spacing" textLength="59" x="120" y="277.0908">-designation</text><text fill="#000000" font-family="sans-serif" font-size="11" lengthAdjust="spacing" textLength="87" x="120" y="290.9268">-dateTimeRegister</text><text fill="#000000" font-family="sans-serif" font-size="11" lengthAdjust="spacing" textLength="89" x="120" y="304.7627">-dateTimeAnalysis</text><text fill="#000000" font-family="sans-serif" font-size="11" lengthAdjust="spacing" textLength="79" x="120" y="318.5986">-dateTimeReport</text><text fill="#000000" font-family="sans-serif" font-size="11" lengthAdjust="spacing" textLength="94" x="120" y="332.4346">-dateTimeValidation</text><line style="stroke:#A80036;stroke-width:1.5;" x1="115" x2="219" y1="338.8516" y2="338.8516"/><!--MD5=[1934a092c0e7d4da7dc7075b6f4b6b03]
class ClinicalAnalysisLaboratory--><rect codeLine="14" fill="#FEFECE" filter="url(#f12cqcibtveall)" height="117.1797" id="ClinicalAnalysisLaboratory" style="stroke:#A80036;stroke-width:1.5;" width="177" x="246.5" y="7"/><ellipse cx="261.5" cy="23" fill="#ADD1B2" rx="11" ry="11" style="stroke:#A80036;stroke-width:1.0;"/><path d="M263.5,19.5 Q263.7031,19 263.9375,18.75 Q264.1719,18.5 264.4375,18.5 Q264.9063,18.5 265.2031,18.7813 Q265.5,19.0625 265.5,19.7188 L265.5,21.2813 Q265.5,21.9375 265.2188,22.2188 Q264.9375,22.5 264.5,22.5 Q264.1094,22.5 263.8594,22.3281 Q263.6094,22.1563 263.5,21.7031 Q263.4531,21.3906 263.2813,21.2188 Q262.9688,20.8906 262.4063,20.7031 Q261.8438,20.5 261.2813,20.5 Q260.5781,20.5 259.9844,20.7813 Q259.4063,21.0625 258.9531,21.6875 Q258.5,22.3125 258.5,23.1719 L258.5,24.0938 Q258.5,25.125 259.3438,25.8125 Q260.1875,26.5 261.6875,26.5 Q262.5781,26.5 263.2031,26.2969 Q263.5625,26.1875 263.9688,25.8281 Q264.2344,25.625 264.375,25.5625 Q264.5156,25.5 264.6875,25.5 Q265.0156,25.5 265.25,25.7656 Q265.5,26.0156 265.5,26.375 Q265.5,26.7188 265.1563,27.125 Q264.6563,27.7188 263.8594,28.0469 Q262.8125,28.5 261.5313,28.5 Q260.0313,28.5 258.8281,27.9063 Q257.8594,27.4375 257.1719,26.4219 Q256.5,25.4063 256.5,24.2031 L256.5,23.1094 Q256.5,21.8594 257.0938,20.7656 Q257.7031,19.6719 258.75,19.0938 Q259.8125,18.5 261,18.5 Q261.7188,18.5 262.3438,18.75 Q262.9688,19 263.5,19.5 Z " fill="#000000"/><text fill="#000000" font-family="sans-serif" font-size="12" lengthAdjust="spacing" textLength="145" x="275.5" y="27.9102">ClinicalAnalysisLaboratory</text><line style="stroke:#A80036;stroke-width:1.5;" x1="247.5" x2="422.5" y1="39" y2="39"/><text fill="#000000" font-family="sans-serif" font-size="11" lengthAdjust="spacing" textLength="30" x="252.5" y="54.4189">-name</text><text fill="#000000" font-family="sans-serif" font-size="11" lengthAdjust="spacing" textLength="44" x="252.5" y="68.2549">-address</text><text fill="#000000" font-family="sans-serif" font-size="11" lengthAdjust="spacing" textLength="71" x="252.5" y="82.0908">-phoneNumber</text><text fill="#000000" font-family="sans-serif" font-size="11" lengthAdjust="spacing" textLength="19" x="252.5" y="95.9268">-TIN</text><text fill="#000000" font-family="sans-serif" font-size="11" lengthAdjust="spacing" textLength="62" x="252.5" y="109.7627">-laboratoryID</text><line style="stroke:#A80036;stroke-width:1.5;" x1="247.5" x2="422.5" y1="116.1797" y2="116.1797"/><!--MD5=[ed6624c6556d5e7b1bd23032162d20b7]
class Client--><rect codeLine="22" fill="#FEFECE" filter="url(#f12cqcibtveall)" height="172.5234" id="Client" style="stroke:#A80036;stroke-width:1.5;" width="83" x="12.5" y="425"/><ellipse cx="36.05" cy="441" fill="#ADD1B2" rx="11" ry="11" style="stroke:#A80036;stroke-width:1.0;"/><path d="M38.05,437.5 Q38.2531,437 38.4875,436.75 Q38.7219,436.5 38.9875,436.5 Q39.4563,436.5 39.7531,436.7813 Q40.05,437.0625 40.05,437.7188 L40.05,439.2813 Q40.05,439.9375 39.7688,440.2188 Q39.4875,440.5 39.05,440.5 Q38.6594,440.5 38.4094,440.3281 Q38.1594,440.1563 38.05,439.7031 Q38.0031,439.3906 37.8313,439.2188 Q37.5188,438.8906 36.9563,438.7031 Q36.3938,438.5 35.8313,438.5 Q35.1281,438.5 34.5344,438.7813 Q33.9563,439.0625 33.5031,439.6875 Q33.05,440.3125 33.05,441.1719 L33.05,442.0938 Q33.05,443.125 33.8938,443.8125 Q34.7375,444.5 36.2375,444.5 Q37.1281,444.5 37.7531,444.2969 Q38.1125,444.1875 38.5188,443.8281 Q38.7844,443.625 38.925,443.5625 Q39.0656,443.5 39.2375,443.5 Q39.5656,443.5 39.8,443.7656 Q40.05,444.0156 40.05,444.375 Q40.05,444.7188 39.7063,445.125 Q39.2063,445.7188 38.4094,446.0469 Q37.3625,446.5 36.0813,446.5 Q34.5813,446.5 33.3781,445.9063 Q32.4094,445.4375 31.7219,444.4219 Q31.05,443.4063 31.05,442.2031 L31.05,441.1094 Q31.05,439.8594 31.6437,438.7656 Q32.2531,437.6719 33.3,437.0938 Q34.3625,436.5 35.55,436.5 Q36.2688,436.5 36.8938,436.75 Q37.5188,437 38.05,437.5 Z " fill="#000000"/><text fill="#000000" font-family="sans-serif" font-size="12" lengthAdjust="spacing" textLength="32" x="51.95" y="445.9102">Client</text><line style="stroke:#A80036;stroke-width:1.5;" x1="13.5" x2="94.5" y1="457" y2="457"/><text fill="#000000" font-family="sans-serif" font-size="11" lengthAdjust="spacing" textLength="30" x="18.5" y="472.4189">-name</text><text fill="#000000" font-family="sans-serif" font-size="11" lengthAdjust="spacing" textLength="63" x="18.5" y="486.2549">-cardNumber</text><text fill="#000000" font-family="sans-serif" font-size="11" lengthAdjust="spacing" textLength="47" x="18.5" y="500.0908">-birthDate</text><text fill="#000000" font-family="sans-serif" font-size="11" lengthAdjust="spacing" textLength="22" x="18.5" y="513.9268">-sex</text><text fill="#000000" font-family="sans-serif" font-size="11" lengthAdjust="spacing" textLength="31" x="18.5" y="527.7627">-nhsID</text><text fill="#000000" font-family="sans-serif" font-size="11" lengthAdjust="spacing" textLength="18" x="18.5" y="541.5986">-TIF</text><text fill="#000000" font-family="sans-serif" font-size="11" lengthAdjust="spacing" textLength="71" x="18.5" y="555.4346">-phoneNumber</text><text fill="#000000" font-family="sans-serif" font-size="11" lengthAdjust="spacing" textLength="28" x="18.5" y="569.2705">-email</text><text fill="#000000" font-family="sans-serif" font-size="11" lengthAdjust="spacing" textLength="54" x="18.5" y="583.1064">-password</text><line style="stroke:#A80036;stroke-width:1.5;" x1="13.5" x2="94.5" y1="589.5234" y2="589.5234"/><!--MD5=[aeb3272166074d8737a70b61b1e71682]
class TestType--><rect codeLine="34" fill="#FEFECE" filter="url(#f12cqcibtveall)" height="75.6719" id="TestType" style="stroke:#A80036;stroke-width:1.5;" width="82" x="294" y="236.5"/><ellipse cx="309" cy="252.5" fill="#ADD1B2" rx="11" ry="11" style="stroke:#A80036;stroke-width:1.0;"/><path d="M311,249 Q311.2031,248.5 311.4375,248.25 Q311.6719,248 311.9375,248 Q312.4063,248 312.7031,248.2813 Q313,248.5625 313,249.2188 L313,250.7813 Q313,251.4375 312.7188,251.7188 Q312.4375,252 312,252 Q311.6094,252 311.3594,251.8281 Q311.1094,251.6563 311,251.2031 Q310.9531,250.8906 310.7813,250.7188 Q310.4688,250.3906 309.9063,250.2031 Q309.3438,250 308.7813,250 Q308.0781,250 307.4844,250.2813 Q306.9063,250.5625 306.4531,251.1875 Q306,251.8125 306,252.6719 L306,253.5938 Q306,254.625 306.8438,255.3125 Q307.6875,256 309.1875,256 Q310.0781,256 310.7031,255.7969 Q311.0625,255.6875 311.4688,255.3281 Q311.7344,255.125 311.875,255.0625 Q312.0156,255 312.1875,255 Q312.5156,255 312.75,255.2656 Q313,255.5156 313,255.875 Q313,256.2188 312.6563,256.625 Q312.1563,257.2188 311.3594,257.5469 Q310.3125,258 309.0313,258 Q307.5313,258 306.3281,257.4063 Q305.3594,256.9375 304.6719,255.9219 Q304,254.9063 304,253.7031 L304,252.6094 Q304,251.3594 304.5938,250.2656 Q305.2031,249.1719 306.25,248.5938 Q307.3125,248 308.5,248 Q309.2188,248 309.8438,248.25 Q310.4688,248.5 311,249 Z " fill="#000000"/><text fill="#000000" font-family="sans-serif" font-size="12" lengthAdjust="spacing" textLength="50" x="323" y="257.4102">TestType</text><line style="stroke:#A80036;stroke-width:1.5;" x1="295" x2="375" y1="268.5" y2="268.5"/><text fill="#000000" font-family="sans-serif" font-size="11" lengthAdjust="spacing" textLength="28" x="300" y="283.9189">-code</text><text fill="#000000" font-family="sans-serif" font-size="11" lengthAdjust="spacing" textLength="57" x="300" y="297.7549">-description</text><line style="stroke:#A80036;stroke-width:1.5;" x1="295" x2="375" y1="304.1719" y2="304.1719"/><!--MD5=[a96594a83e2ecdc78cbf17c2ddf01934]
class Category--><rect codeLine="39" fill="#FEFECE" filter="url(#f12cqcibtveall)" height="89.5078" id="Category" style="stroke:#A80036;stroke-width:1.5;" width="81" x="152.5" y="844"/><ellipse cx="167.5" cy="860" fill="#ADD1B2" rx="11" ry="11" style="stroke:#A80036;stroke-width:1.0;"/><path d="M169.5,856.5 Q169.7031,856 169.9375,855.75 Q170.1719,855.5 170.4375,855.5 Q170.9063,855.5 171.2031,855.7813 Q171.5,856.0625 171.5,856.7188 L171.5,858.2813 Q171.5,858.9375 171.2188,859.2188 Q170.9375,859.5 170.5,859.5 Q170.1094,859.5 169.8594,859.3281 Q169.6094,859.1563 169.5,858.7031 Q169.4531,858.3906 169.2813,858.2188 Q168.9688,857.8906 168.4063,857.7031 Q167.8438,857.5 167.2813,857.5 Q166.5781,857.5 165.9844,857.7813 Q165.4063,858.0625 164.9531,858.6875 Q164.5,859.3125 164.5,860.1719 L164.5,861.0938 Q164.5,862.125 165.3438,862.8125 Q166.1875,863.5 167.6875,863.5 Q168.5781,863.5 169.2031,863.2969 Q169.5625,863.1875 169.9688,862.8281 Q170.2344,862.625 170.375,862.5625 Q170.5156,862.5 170.6875,862.5 Q171.0156,862.5 171.25,862.7656 Q171.5,863.0156 171.5,863.375 Q171.5,863.7188 171.1563,864.125 Q170.6563,864.7188 169.8594,865.0469 Q168.8125,865.5 167.5313,865.5 Q166.0313,865.5 164.8281,864.9063 Q163.8594,864.4375 163.1719,863.4219 Q162.5,862.4063 162.5,861.2031 L162.5,860.1094 Q162.5,858.8594 163.0938,857.7656 Q163.7031,856.6719 164.75,856.0938 Q165.8125,855.5 167,855.5 Q167.7188,855.5 168.3438,855.75 Q168.9688,856 169.5,856.5 Z " fill="#000000"/><text fill="#000000" font-family="sans-serif" font-size="12" lengthAdjust="spacing" textLength="49" x="181.5" y="864.9102">Category</text><line style="stroke:#A80036;stroke-width:1.5;" x1="153.5" x2="232.5" y1="876" y2="876"/><text fill="#000000" font-family="sans-serif" font-size="11" lengthAdjust="spacing" textLength="28" x="158.5" y="891.4189">-code</text><text fill="#000000" font-family="sans-serif" font-size="11" lengthAdjust="spacing" textLength="57" x="158.5" y="905.2549">-description</text><text fill="#000000" font-family="sans-serif" font-size="11" lengthAdjust="spacing" textLength="31" x="158.5" y="919.0908">-nhsID</text><line style="stroke:#A80036;stroke-width:1.5;" x1="153.5" x2="232.5" y1="925.5078" y2="925.5078"/><!--MD5=[1f6362a5c8f21d8d6a0fce68f3a92a4e]
class Parameter--><rect codeLine="45" fill="#FEFECE" filter="url(#f12cqcibtveall)" height="89.5078" id="Parameter" style="stroke:#A80036;stroke-width:1.5;" width="90" x="7" y="676"/><ellipse cx="22" cy="692" fill="#ADD1B2" rx="11" ry="11" style="stroke:#A80036;stroke-width:1.0;"/><path d="M24,688.5 Q24.2031,688 24.4375,687.75 Q24.6719,687.5 24.9375,687.5 Q25.4063,687.5 25.7031,687.7813 Q26,688.0625 26,688.7188 L26,690.2813 Q26,690.9375 25.7188,691.2188 Q25.4375,691.5 25,691.5 Q24.6094,691.5 24.3594,691.3281 Q24.1094,691.1563 24,690.7031 Q23.9531,690.3906 23.7813,690.2188 Q23.4688,689.8906 22.9063,689.7031 Q22.3438,689.5 21.7813,689.5 Q21.0781,689.5 20.4844,689.7813 Q19.9063,690.0625 19.4531,690.6875 Q19,691.3125 19,692.1719 L19,693.0938 Q19,694.125 19.8438,694.8125 Q20.6875,695.5 22.1875,695.5 Q23.0781,695.5 23.7031,695.2969 Q24.0625,695.1875 24.4688,694.8281 Q24.7344,694.625 24.875,694.5625 Q25.0156,694.5 25.1875,694.5 Q25.5156,694.5 25.75,694.7656 Q26,695.0156 26,695.375 Q26,695.7188 25.6563,696.125 Q25.1563,696.7188 24.3594,697.0469 Q23.3125,697.5 22.0313,697.5 Q20.5313,697.5 19.3281,696.9063 Q18.3594,696.4375 17.6719,695.4219 Q17,694.4063 17,693.2031 L17,692.1094 Q17,690.8594 17.5938,689.7656 Q18.2031,688.6719 19.25,688.0938 Q20.3125,687.5 21.5,687.5 Q22.2188,687.5 22.8438,687.75 Q23.4688,688 24,688.5 Z " fill="#000000"/><text fill="#000000" font-family="sans-serif" font-size="12" lengthAdjust="spacing" textLength="58" x="36" y="696.9102">Parameter</text><line style="stroke:#A80036;stroke-width:1.5;" x1="8" x2="96" y1="708" y2="708"/><text fill="#000000" font-family="sans-serif" font-size="11" lengthAdjust="spacing" textLength="28" x="13" y="723.4189">-code</text><text fill="#000000" font-family="sans-serif" font-size="11" lengthAdjust="spacing" textLength="56" x="13" y="737.2549">-shortName</text><text fill="#000000" font-family="sans-serif" font-size="11" lengthAdjust="spacing" textLength="57" x="13" y="751.0908">-description</text><line style="stroke:#A80036;stroke-width:1.5;" x1="8" x2="96" y1="757.5078" y2="757.5078"/><!--MD5=[0f07739f46effee96e095e9c408da841]
class TestParameter--><rect codeLine="51" fill="#FEFECE" filter="url(#f12cqcibtveall)" height="48" id="TestParameter" style="stroke:#A80036;stroke-width:1.5;" width="114" x="131" y="487.5"/><ellipse cx="146" cy="503.5" fill="#ADD1B2" rx="11" ry="11" style="stroke:#A80036;stroke-width:1.0;"/><path d="M148,500 Q148.2031,499.5 148.4375,499.25 Q148.6719,499 148.9375,499 Q149.4063,499 149.7031,499.2813 Q150,499.5625 150,500.2188 L150,501.7813 Q150,502.4375 149.7188,502.7188 Q149.4375,503 149,503 Q148.6094,503 148.3594,502.8281 Q148.1094,502.6563 148,502.2031 Q147.9531,501.8906 147.7813,501.7188 Q147.4688,501.3906 146.9063,501.2031 Q146.3438,501 145.7813,501 Q145.0781,501 144.4844,501.2813 Q143.9063,501.5625 143.4531,502.1875 Q143,502.8125 143,503.6719 L143,504.5938 Q143,505.625 143.8438,506.3125 Q144.6875,507 146.1875,507 Q147.0781,507 147.7031,506.7969 Q148.0625,506.6875 148.4688,506.3281 Q148.7344,506.125 148.875,506.0625 Q149.0156,506 149.1875,506 Q149.5156,506 149.75,506.2656 Q150,506.5156 150,506.875 Q150,507.2188 149.6563,507.625 Q149.1563,508.2188 148.3594,508.5469 Q147.3125,509 146.0313,509 Q144.5313,509 143.3281,508.4063 Q142.3594,507.9375 141.6719,506.9219 Q141,505.9063 141,504.7031 L141,503.6094 Q141,502.3594 141.5938,501.2656 Q142.2031,500.1719 143.25,499.5938 Q144.3125,499 145.5,499 Q146.2188,499 146.8438,499.25 Q147.4688,499.5 148,500 Z " fill="#000000"/><text fill="#000000" font-family="sans-serif" font-size="12" lengthAdjust="spacing" textLength="82" x="160" y="508.4102">TestParameter</text><line style="stroke:#A80036;stroke-width:1.5;" x1="132" x2="244" y1="519.5" y2="519.5"/><line style="stroke:#A80036;stroke-width:1.5;" x1="132" x2="244" y1="527.5" y2="527.5"/><!--MD5=[4e608140b854dae633589343bce77383]
class TestParameterResult--><rect codeLine="53" fill="#FEFECE" filter="url(#f12cqcibtveall)" height="89.5078" id="TestParameterResult" style="stroke:#A80036;stroke-width:1.5;" width="150" x="132" y="676"/><ellipse cx="147" cy="692" fill="#ADD1B2" rx="11" ry="11" style="stroke:#A80036;stroke-width:1.0;"/><path d="M149,688.5 Q149.2031,688 149.4375,687.75 Q149.6719,687.5 149.9375,687.5 Q150.4063,687.5 150.7031,687.7813 Q151,688.0625 151,688.7188 L151,690.2813 Q151,690.9375 150.7188,691.2188 Q150.4375,691.5 150,691.5 Q149.6094,691.5 149.3594,691.3281 Q149.1094,691.1563 149,690.7031 Q148.9531,690.3906 148.7813,690.2188 Q148.4688,689.8906 147.9063,689.7031 Q147.3438,689.5 146.7813,689.5 Q146.0781,689.5 145.4844,689.7813 Q144.9063,690.0625 144.4531,690.6875 Q144,691.3125 144,692.1719 L144,693.0938 Q144,694.125 144.8438,694.8125 Q145.6875,695.5 147.1875,695.5 Q148.0781,695.5 148.7031,695.2969 Q149.0625,695.1875 149.4688,694.8281 Q149.7344,694.625 149.875,694.5625 Q150.0156,694.5 150.1875,694.5 Q150.5156,694.5 150.75,694.7656 Q151,695.0156 151,695.375 Q151,695.7188 150.6563,696.125 Q150.1563,696.7188 149.3594,697.0469 Q148.3125,697.5 147.0313,697.5 Q145.5313,697.5 144.3281,696.9063 Q143.3594,696.4375 142.6719,695.4219 Q142,694.4063 142,693.2031 L142,692.1094 Q142,690.8594 142.5938,689.7656 Q143.2031,688.6719 144.25,688.0938 Q145.3125,687.5 146.5,687.5 Q147.2188,687.5 147.8438,687.75 Q148.4688,688 149,688.5 Z " fill="#000000"/><text fill="#000000" font-family="sans-serif" font-size="12" lengthAdjust="spacing" textLength="118" x="161" y="696.9102">TestParameterResult</text><line style="stroke:#A80036;stroke-width:1.5;" x1="133" x2="281" y1="708" y2="708"/><text fill="#000000" font-family="sans-serif" font-size="11" lengthAdjust="spacing" textLength="52" x="138" y="723.4189">-createdAt</text><text fill="#000000" font-family="sans-serif" font-size="11" lengthAdjust="spacing" textLength="30" x="138" y="737.2549">-value</text><text fill="#000000" font-family="sans-serif" font-size="11" lengthAdjust="spacing" textLength="33" x="138" y="751.0908">-metric</text><line style="stroke:#A80036;stroke-width:1.5;" x1="133" x2="281" y1="757.5078" y2="757.5078"/><!--MD5=[3994f36c72829dbcddd1cf7021dddf61]
link Test to Client--><path codeLine="59" d="M113.88,326.17 C100.66,341.35 87.77,358.83 79,377 C71.88,391.76 66.78,408.34 63.13,424.67 " fill="none" id="Test-Client" style="stroke:#A80036;stroke-width:1.0;"/><polygon fill="#000000" points="81.7099,390.6205,88.4652,383.926,83.2401,381.2339,81.7099,390.6205" style="stroke:#000000;stroke-width:1.0;"/><text fill="#000000" font-family="sans-serif" font-size="13" lengthAdjust="spacing" textLength="75" x="93" y="391.4951">requested by</text><text fill="#000000" font-family="sans-serif" font-size="13" lengthAdjust="spacing" textLength="5" x="101.0584" y="329.8414">*</text><text fill="#000000" font-family="sans-serif" font-size="13" lengthAdjust="spacing" textLength="7" x="56.6138" y="414.0512">1</text><!--MD5=[e981d4f96c4342412d1e68160b30cf70]
link Test to TestType--><path codeLine="60" d="M220.16,274.5 C244,274.5 271.69,274.5 293.9,274.5 " fill="none" id="Test-TestType" style="stroke:#A80036;stroke-width:1.0;"/><polygon fill="#000000" points="247.5,262.6758,238.4549,259.7369,238.4549,265.6147,247.5,262.6758" style="stroke:#000000;stroke-width:1.0;"/><text fill="#000000" font-family="sans-serif" font-size="13" lengthAdjust="spacing" textLength="24" x="251.5" y="267.9951">is of</text><text fill="#000000" font-family="sans-serif" font-size="13" lengthAdjust="spacing" textLength="5" x="227.9872" y="270.9053">*</text><text fill="#000000" font-family="sans-serif" font-size="13" lengthAdjust="spacing" textLength="7" x="278.9556" y="270.6307">1</text><!--MD5=[852f3a1b1bcfc6074ebcba484562eac0]
link Parameter to Category--><path codeLine="61" d="M89.42,766.05 C109.81,790.06 134.99,819.7 155.41,843.75 " fill="none" id="Parameter-Category" style="stroke:#A80036;stroke-width:1.0;"/><polygon fill="#000000" points="135.2367,808.9868,131.6215,800.1901,127.1414,803.9951,135.2367,808.9868" style="stroke:#000000;stroke-width:1.0;"/><text fill="#000000" font-family="sans-serif" font-size="13" lengthAdjust="spacing" textLength="93" x="141" y="810.4951">presented under</text><text fill="#000000" font-family="sans-serif" font-size="13" lengthAdjust="spacing" textLength="5" x="89.3306" y="787.0646">*</text><text fill="#000000" font-family="sans-serif" font-size="13" lengthAdjust="spacing" textLength="7" x="142.1181" y="833.1558">1</text><!--MD5=[2eb961b30663a01bbfd8b4b9b8950031]
link ClinicalAnalysisLaboratory to TestType--><path codeLine="62" d="M335,124.16 C335,160.05 335,205.15 335,236.35 " fill="none" id="ClinicalAnalysisLaboratory-TestType" style="stroke:#A80036;stroke-width:1.0;"/><polygon fill="#000000" points="340,168.1758,342.9389,159.1307,337.0611,159.1307,340,168.1758" style="stroke:#000000;stroke-width:1.0;"/><text fill="#000000" font-family="sans-serif" font-size="13" lengthAdjust="spacing" textLength="50" x="349" y="168.4951">performs</text><text fill="#000000" font-family="sans-serif" font-size="13" lengthAdjust="spacing" textLength="7" x="327.5734" y="145.7898">1</text><text fill="#000000" font-family="sans-serif" font-size="13" lengthAdjust="spacing" textLength="5" x="329.5547" y="225.6852">*</text><!--MD5=[2148a3300dad30af455fcbe81ca204c2]
link TestType to Category--><path codeLine="63" d="M340.12,312.71 C350.11,397.16 365.88,608.25 300,766 C285.61,800.45 257.46,831.92 233.64,854.27 " fill="none" id="TestType-Category" style="stroke:#A80036;stroke-width:1.0;"/><polygon fill="#000000" points="340.0354,642.0819,344.6641,633.7737,338.8967,632.6397,340.0354,642.0819" style="stroke:#000000;stroke-width:1.0;"/><text fill="#000000" font-family="sans-serif" font-size="13" lengthAdjust="spacing" textLength="21" x="350" y="642.4951">has</text><text fill="#000000" font-family="sans-serif" font-size="13" lengthAdjust="spacing" textLength="7" x="333.3782" y="333.624">1</text><text fill="#000000" font-family="sans-serif" font-size="13" lengthAdjust="spacing" textLength="20" x="241.3942" y="845.2867">1..*</text><!--MD5=[f24c888dadeb846430474fe80a58922b]
link Test to TestParameter--><path codeLine="64" d="M173.41,347.28 C177.7,395.2 183.05,455.14 185.93,487.39 " fill="none" id="Test-TestParameter" style="stroke:#A80036;stroke-width:1.0;"/><polygon fill="#000000" points="183.445,391.1559,185.5672,381.8852,179.7127,382.4083,183.445,391.1559" style="stroke:#000000;stroke-width:1.0;"/><text fill="#000000" font-family="sans-serif" font-size="13" lengthAdjust="spacing" textLength="21" x="192" y="391.4951">has</text><text fill="#000000" font-family="sans-serif" font-size="13" lengthAdjust="spacing" textLength="7" x="166.6783" y="368.2451">1</text><text fill="#000000" font-family="sans-serif" font-size="13" lengthAdjust="spacing" textLength="5" x="179.7589" y="476.702">*</text><!--MD5=[0e00e25ac6b8c14659aaff2cf7e5df08]
link TestParameter to TestParameterResult--><path codeLine="65" d="M190.14,535.9 C193.24,569.71 199.02,632.86 202.94,675.66 " fill="none" id="TestParameter-TestParameterResult" style="stroke:#A80036;stroke-width:1.0;"/><polygon fill="#000000" points="205.456,642.1549,207.5578,632.8795,201.7044,633.4156,205.456,642.1549" style="stroke:#000000;stroke-width:1.0;"/><text fill="#000000" font-family="sans-serif" font-size="13" lengthAdjust="spacing" textLength="49" x="214" y="642.4951">contains</text><text fill="#000000" font-family="sans-serif" font-size="13" lengthAdjust="spacing" textLength="7" x="182.8255" y="556.9283">1</text><text fill="#000000" font-family="sans-serif" font-size="13" lengthAdjust="spacing" textLength="7" x="194.7824" y="665.052">1</text><!--MD5=[92e8e476cc9e9004a7125f53a120ec97]
link TestParameter to Parameter--><path codeLine="66" d="M167.59,535.82 C148.32,558.45 119.29,594.24 98,628 C88.47,643.1 79.37,660.45 71.81,675.97 " fill="none" id="TestParameter-Parameter" style="stroke:#A80036;stroke-width:1.0;"/><polygon fill="#000000" points="100.1788,641.3039,107.7088,635.4943,102.856,632.1779,100.1788,641.3039" style="stroke:#000000;stroke-width:1.0;"/><text fill="#000000" font-family="sans-serif" font-size="13" lengthAdjust="spacing" textLength="78" x="112" y="642.4951">associated to</text><text fill="#000000" font-family="sans-serif" font-size="13" lengthAdjust="spacing" textLength="7" x="155.0608" y="556.8298">1</text><text fill="#000000" font-family="sans-serif" font-size="13" lengthAdjust="spacing" textLength="7" x="67.4094" y="665.0807">1</text><!--MD5=[a5e48ac19a6184382085a186bef95566]
@startuml

skinparam classAttributeIconSize 0

class Test {
-testCode
-nhsCode
-designation
-dateTimeRegister
-dateTimeAnalysis
-dateTimeReport
-dateTimeValidation
}

class ClinicalAnalysisLaboratory {
-name
-address
-phoneNumber
-TIN
-laboratoryID
}

class Client {
-name
-cardNumber
-birthDate
-sex
-nhsID
-TIF
-phoneNumber
-email
-password
}

class TestType {
-code
-description
}

class Category {
-code
-description
-nhsID
}

class Parameter {
-code
-shortName
-description
}

class TestParameter

class TestParameterResult {
-createdAt
-value
-metric
}

Test "*"- -"1" Client : requested by >
Test "*"-right-"1" "TestType" : is of >
Parameter "*"- -"1" Category : presented under >
ClinicalAnalysisLaboratory "1"- -"*" TestType : performs >
TestType "1"- -"1..*" Category : has >
Test "1"- -"*" TestParameter: has >
TestParameter "1"- -"1" TestParameterResult: contains >
TestParameter "1"- -"1" Parameter: associated to >




@enduml

PlantUML version 1.2021.7(Sun May 23 13:40:07 BST 2021)
(GPL source distribution)
Java Runtime: OpenJDK Runtime Environment
JVM: OpenJDK 64-Bit Server VM
Default Encoding: Cp1252
Language: pt
Country: PT
--></g></svg>