<?xml version="1.0" encoding="UTF-8" standalone="no"?><svg xmlns="http://www.w3.org/2000/svg" xmlns:xlink="http://www.w3.org/1999/xlink" contentScriptType="application/ecmascript" contentStyleType="text/css" height="491px" preserveAspectRatio="none" style="width:1336px;height:491px;" version="1.1" viewBox="0 0 1336 491" width="1336px" zoomAndPan="magnify"><defs><filter height="300%" id="f1wo6f1ge0m1vg" width="300%" x="-1" y="-1"><feGaussianBlur result="blurOut" stdDeviation="2.0"/><feColorMatrix in="blurOut" result="blurOut2" type="matrix" values="0 0 0 0 0 0 0 0 0 0 0 0 0 0 0 0 0 0 .4 0"/><feOffset dx="4.0" dy="4.0" in="blurOut2" result="blurOut3"/><feBlend in="SourceGraphic" in2="blurOut3" mode="normal"/></filter></defs><g><rect fill="#FFFFFF" filter="url(#f1wo6f1ge0m1vg)" height="79.0547" style="stroke:#000000;stroke-width:2.0;" width="437" x="380.5" y="119.3125"/><rect fill="#FFFFFF" filter="url(#f1wo6f1ge0m1vg)" height="48.7031" style="stroke:#000000;stroke-width:2.0;" width="365" x="807.5" y="303.4219"/><line style="stroke:#A80036;stroke-width:1.0;stroke-dasharray:5.0,5.0;" x1="196" x2="196" y1="41.6094" y2="447.1797"/><line style="stroke:#A80036;stroke-width:1.0;stroke-dasharray:5.0,5.0;" x1="462.5" x2="462.5" y1="41.6094" y2="447.1797"/><line style="stroke:#A80036;stroke-width:1.0;stroke-dasharray:5.0,5.0;" x1="596.5" x2="596.5" y1="41.6094" y2="447.1797"/><line style="stroke:#A80036;stroke-width:1.0;stroke-dasharray:5.0,5.0;" x1="726.5" x2="726.5" y1="41.6094" y2="447.1797"/><line style="stroke:#A80036;stroke-width:1.0;stroke-dasharray:5.0,5.0;" x1="918.5" x2="918.5" y1="41.6094" y2="447.1797"/><line style="stroke:#A80036;stroke-width:1.0;stroke-dasharray:5.0,5.0;" x1="1096.5" x2="1096.5" y1="41.6094" y2="447.1797"/><line style="stroke:#A80036;stroke-width:1.0;stroke-dasharray:5.0,5.0;" x1="1227.5" x2="1227.5" y1="41.6094" y2="447.1797"/><rect fill="#FEFECE" filter="url(#f1wo6f1ge0m1vg)" height="31.6094" style="stroke:#A80036;stroke-width:1.5;" width="194" x="97" y="5"/><text fill="#000000" font-family="sans-serif" font-size="14" lengthAdjust="spacing" textLength="180" x="104" y="26.5332">:RecordTestResultController</text><rect fill="#FEFECE" filter="url(#f1wo6f1ge0m1vg)" height="31.6094" style="stroke:#A80036;stroke-width:1.5;" width="194" x="97" y="446.1797"/><text fill="#000000" font-family="sans-serif" font-size="14" lengthAdjust="spacing" textLength="180" x="104" y="467.7129">:RecordTestResultController</text><rect fill="#FEFECE" filter="url(#f1wo6f1ge0m1vg)" height="31.6094" style="stroke:#A80036;stroke-width:1.5;" width="141" x="390.5" y="5"/><text fill="#000000" font-family="sans-serif" font-size="14" lengthAdjust="spacing" textLength="127" x="397.5" y="26.5332">testStore: TestStore</text><rect fill="#FEFECE" filter="url(#f1wo6f1ge0m1vg)" height="31.6094" style="stroke:#A80036;stroke-width:1.5;" width="141" x="390.5" y="446.1797"/><text fill="#000000" font-family="sans-serif" font-size="14" lengthAdjust="spacing" textLength="127" x="397.5" y="467.7129">testStore: TestStore</text><rect fill="#FEFECE" filter="url(#f1wo6f1ge0m1vg)" height="31.6094" style="stroke:#A80036;stroke-width:1.5;" width="73" x="558.5" y="5"/><text fill="#000000" font-family="sans-serif" font-size="14" lengthAdjust="spacing" textLength="59" x="565.5" y="26.5332">test: Test</text><rect fill="#FEFECE" filter="url(#f1wo6f1ge0m1vg)" height="31.6094" style="stroke:#A80036;stroke-width:1.5;" width="73" x="558.5" y="446.1797"/><text fill="#000000" font-family="sans-serif" font-size="14" lengthAdjust="spacing" textLength="59" x="565.5" y="467.7129">test: Test</text><rect fill="#FEFECE" filter="url(#f1wo6f1ge0m1vg)" height="31.6094" style="stroke:#A80036;stroke-width:1.5;" width="158" x="645.5" y="5"/><text fill="#000000" font-family="sans-serif" font-size="14" lengthAdjust="spacing" textLength="144" x="652.5" y="26.5332">sampleList: SampleList</text><rect fill="#FEFECE" filter="url(#f1wo6f1ge0m1vg)" height="31.6094" style="stroke:#A80036;stroke-width:1.5;" width="158" x="645.5" y="446.1797"/><text fill="#000000" font-family="sans-serif" font-size="14" lengthAdjust="spacing" textLength="144" x="652.5" y="467.7129">sampleList: SampleList</text><rect fill="#FEFECE" filter="url(#f1wo6f1ge0m1vg)" height="31.6094" style="stroke:#A80036;stroke-width:1.5;" width="199" x="817.5" y="5"/><text fill="#000000" font-family="sans-serif" font-size="14" lengthAdjust="spacing" textLength="185" x="824.5" y="26.5332">testParamList: TestParamList</text><rect fill="#FEFECE" filter="url(#f1wo6f1ge0m1vg)" height="31.6094" style="stroke:#A80036;stroke-width:1.5;" width="199" x="817.5" y="446.1797"/><text fill="#000000" font-family="sans-serif" font-size="14" lengthAdjust="spacing" textLength="185" x="824.5" y="467.7129">testParamList: TestParamList</text><rect fill="#FEFECE" filter="url(#f1wo6f1ge0m1vg)" height="31.6094" style="stroke:#A80036;stroke-width:1.5;" width="128" x="1030.5" y="5"/><text fill="#000000" font-family="sans-serif" font-size="14" lengthAdjust="spacing" textLength="114" x="1037.5" y="26.5332">param: Parameter</text><rect fill="#FEFECE" filter="url(#f1wo6f1ge0m1vg)" height="31.6094" style="stroke:#A80036;stroke-width:1.5;" width="128" x="1030.5" y="446.1797"/><text fill="#000000" font-family="sans-serif" font-size="14" lengthAdjust="spacing" textLength="114" x="1037.5" y="467.7129">param: Parameter</text><rect fill="#FEFECE" filter="url(#f1wo6f1ge0m1vg)" height="31.6094" style="stroke:#A80036;stroke-width:1.5;" width="107" x="1172.5" y="5"/><text fill="#000000" font-family="sans-serif" font-size="14" lengthAdjust="spacing" textLength="93" x="1179.5" y="26.5332">:ParamMapper</text><rect fill="#FEFECE" filter="url(#f1wo6f1ge0m1vg)" height="31.6094" style="stroke:#A80036;stroke-width:1.5;" width="107" x="1172.5" y="446.1797"/><text fill="#000000" font-family="sans-serif" font-size="14" lengthAdjust="spacing" textLength="93" x="1179.5" y="467.7129">:ParamMapper</text><ellipse cx="7.5" cy="73.2109" rx="4" ry="4" style="stroke:#A80036;stroke-width:1.5;fill:none;"/><polygon fill="#A80036" points="184,69.9609,194,73.9609,184,77.9609,188,73.9609" style="stroke:#A80036;stroke-width:1.0;"/><line style="stroke:#A80036;stroke-width:1.0;" x1="12" x2="190" y1="73.9609" y2="73.9609"/><text fill="#000000" font-family="sans-serif" font-size="13" lengthAdjust="spacing" textLength="164" x="15" y="69.1045">getTestParameters(barcode)</text><polygon fill="#A80036" points="451,100.3125,461,104.3125,451,108.3125,455,104.3125" style="stroke:#A80036;stroke-width:1.0;"/><line style="stroke:#A80036;stroke-width:1.0;" x1="196" x2="457" y1="104.3125" y2="104.3125"/><text fill="#000000" font-family="sans-serif" font-size="13" lengthAdjust="spacing" textLength="243" x="203" y="99.4561">test = getTestBySampleBarcode(barcode)</text><path d="M380.5,119.3125 L453.5,119.3125 L453.5,127.3125 L443.5,137.3125 L380.5,137.3125 L380.5,119.3125 " fill="#EEEEEE" style="stroke:#000000;stroke-width:1.0;"/><rect fill="none" height="79.0547" style="stroke:#000000;stroke-width:2.0;" width="437" x="380.5" y="119.3125"/><text fill="#000000" font-family="sans-serif" font-size="13" font-weight="bold" lengthAdjust="spacing" textLength="28" x="395.5" y="133.8076">loop</text><text fill="#000000" font-family="sans-serif" font-size="11" font-weight="bold" lengthAdjust="spacing" textLength="78" x="468.5" y="132.7314">[for each test]</text><polygon fill="#A80036" points="585,156.0156,595,160.0156,585,164.0156,589,160.0156" style="stroke:#A80036;stroke-width:1.0;"/><line style="stroke:#A80036;stroke-width:1.0;" x1="463" x2="591" y1="160.0156" y2="160.0156"/><text fill="#000000" font-family="sans-serif" font-size="13" lengthAdjust="spacing" textLength="101" x="470" y="155.1592">getSampleStore()</text><polygon fill="#A80036" points="714.5,186.3672,724.5,190.3672,714.5,194.3672,718.5,190.3672" style="stroke:#A80036;stroke-width:1.0;"/><line style="stroke:#A80036;stroke-width:1.0;" x1="463" x2="720.5" y1="190.3672" y2="190.3672"/><text fill="#000000" font-family="sans-serif" font-size="13" lengthAdjust="spacing" textLength="133" x="470" y="185.5107">existsSample(barcode)</text><polygon fill="#A80036" points="451,223.7188,461,227.7188,451,231.7188,455,227.7188" style="stroke:#A80036;stroke-width:1.0;"/><line style="stroke:#A80036;stroke-width:1.0;" x1="196" x2="457" y1="227.7188" y2="227.7188"/><text fill="#000000" font-family="sans-serif" font-size="13" lengthAdjust="spacing" textLength="199" x="203" y="222.8623">params = getTestParameters(test)</text><polygon fill="#A80036" points="585,254.0703,595,258.0703,585,262.0703,589,258.0703" style="stroke:#A80036;stroke-width:1.0;"/><line style="stroke:#A80036;stroke-width:1.0;" x1="463" x2="591" y1="258.0703" y2="258.0703"/><text fill="#000000" font-family="sans-serif" font-size="13" lengthAdjust="spacing" textLength="110" x="470" y="253.2139">getTestParamList()</text><polygon fill="#A80036" points="907,284.4219,917,288.4219,907,292.4219,911,288.4219" style="stroke:#A80036;stroke-width:1.0;"/><line style="stroke:#A80036;stroke-width:1.0;" x1="463" x2="913" y1="288.4219" y2="288.4219"/><text fill="#000000" font-family="sans-serif" font-size="13" lengthAdjust="spacing" textLength="93" x="470" y="283.5654">getParameters()</text><path d="M807.5,303.4219 L880.5,303.4219 L880.5,311.4219 L870.5,321.4219 L807.5,321.4219 L807.5,303.4219 " fill="#EEEEEE" style="stroke:#000000;stroke-width:1.0;"/><rect fill="none" height="48.7031" style="stroke:#000000;stroke-width:2.0;" width="365" x="807.5" y="303.4219"/><text fill="#000000" font-family="sans-serif" font-size="13" font-weight="bold" lengthAdjust="spacing" textLength="28" x="822.5" y="317.917">loop</text><text fill="#000000" font-family="sans-serif" font-size="11" font-weight="bold" lengthAdjust="spacing" textLength="188" x="895.5" y="316.8408">[for each Test Parameter in Store]</text><polygon fill="#A80036" points="1084.5,340.125,1094.5,344.125,1084.5,348.125,1088.5,344.125" style="stroke:#A80036;stroke-width:1.0;"/><line style="stroke:#A80036;stroke-width:1.0;" x1="919" x2="1090.5" y1="344.125" y2="344.125"/><text fill="#000000" font-family="sans-serif" font-size="13" lengthAdjust="spacing" textLength="86" x="926" y="339.2686">getParameter()</text><polygon fill="#A80036" points="1216,377.4766,1226,381.4766,1216,385.4766,1220,381.4766" style="stroke:#A80036;stroke-width:1.0;"/><line style="stroke:#A80036;stroke-width:1.0;" x1="196" x2="1222" y1="381.4766" y2="381.4766"/><text fill="#000000" font-family="sans-serif" font-size="13" lengthAdjust="spacing" textLength="88" x="203" y="376.6201">toDTO(params)</text><rect fill="#FFFFFF" filter="url(#f1wo6f1ge0m1vg)" height="42.7031" style="stroke:#000000;stroke-width:2.0;" width="158" x="1169.5" y="389.4766"/><polygon fill="#EEEEEE" points="1169.5,389.4766,1231.5,389.4766,1231.5,397.4766,1221.5,407.4766,1169.5,407.4766,1169.5,389.4766" style="stroke:#000000;stroke-width:2.0;"/><text fill="#000000" font-family="sans-serif" font-size="13" font-weight="bold" lengthAdjust="spacing" textLength="17" x="1182.5" y="404.9717">ref</text><text fill="#000000" font-family="sans-serif" font-size="13" lengthAdjust="spacing" textLength="150" x="1175.5" y="424.9717">SD_ParamMapper_toDTO</text><!--MD5=[c81cbcff32246bd8a2241a196cbdab78]
@startuml
participant ":RecordTestResultController" as controller
participant "testStore: TestStore" as ts
participant "test: Test" as test
participant "sampleList: SampleList" as ss
participant "testParamList: TestParamList" as tpstore
participant "param: Parameter" as testParam
participant ":ParamMapper" as map

[o-> controller : getTestParameters(barcode)
controller -> ts : test = getTestBySampleBarcode(barcode)
loop for each test
ts -> test : getSampleStore()
ts -> ss : existsSample(barcode)
end loop
controller -> ts : params = getTestParameters(test)
ts -> test : getTestParamList()
ts -> tpstore : getParameters()
loop for each Test Parameter in Store
tpstore -> testParam : getParameter()
end loop
controller -> map : toDTO(params)
ref over map : SD_ParamMapper_toDTO
@enduml

PlantUML version 1.2021.2(Sun Mar 07 11:10:27 GMT 2021)
(GPL source distribution)
Java Runtime: OpenJDK Runtime Environment
JVM: OpenJDK 64-Bit Server VM
Default Encoding: Cp1252
Language: pt
Country: PT
--></g></svg>