<?xml version="1.0" encoding="UTF-8" standalone="no"?><svg xmlns="http://www.w3.org/2000/svg" xmlns:xlink="http://www.w3.org/1999/xlink" contentScriptType="application/ecmascript" contentStyleType="text/css" height="1106px" preserveAspectRatio="none" style="width:1845px;height:1106px;" version="1.1" viewBox="0 0 1845 1106" width="1845px" zoomAndPan="magnify"><defs><filter height="300%" id="flfspziml2tgp" width="300%" x="-1" y="-1"><feGaussianBlur result="blurOut" stdDeviation="2.0"/><feColorMatrix in="blurOut" result="blurOut2" type="matrix" values="0 0 0 0 0 0 0 0 0 0 0 0 0 0 0 0 0 0 .4 0"/><feOffset dx="4.0" dy="4.0" in="blurOut2" result="blurOut3"/><feBlend in="SourceGraphic" in2="blurOut3" mode="normal"/></filter></defs><g><rect fill="#FFFFFF" filter="url(#flfspziml2tgp)" height="590.6797" style="stroke:#000000;stroke-width:2.0;" width="1821.5" x="10" y="413.3828"/><line style="stroke:#A80036;stroke-width:1.0;stroke-dasharray:5.0,5.0;" x1="37" x2="37" y1="89.6094" y2="1021.0625"/><line style="stroke:#A80036;stroke-width:1.0;stroke-dasharray:5.0,5.0;" x1="302.5" x2="302.5" y1="89.6094" y2="1021.0625"/><line style="stroke:#A80036;stroke-width:1.0;stroke-dasharray:5.0,5.0;" x1="642.5" x2="642.5" y1="163.2656" y2="1021.0625"/><line style="stroke:#A80036;stroke-width:1.0;stroke-dasharray:5.0,5.0;" x1="792.5" x2="792.5" y1="89.6094" y2="1021.0625"/><line style="stroke:#A80036;stroke-width:1.0;stroke-dasharray:5.0,5.0;" x1="1060" x2="1060" y1="89.6094" y2="1021.0625"/><line style="stroke:#A80036;stroke-width:1.0;stroke-dasharray:5.0,5.0;" x1="1400" x2="1400" y1="89.6094" y2="1021.0625"/><line style="stroke:#A80036;stroke-width:1.0;stroke-dasharray:5.0,5.0;" x1="1607" x2="1607" y1="89.6094" y2="1021.0625"/><text fill="#000000" font-family="sans-serif" font-size="14" lengthAdjust="spacing" textLength="29" x="20" y="86.5332">CCT</text><ellipse cx="37.5" cy="15" fill="#FEFECE" filter="url(#flfspziml2tgp)" rx="8" ry="8" style="stroke:#A80036;stroke-width:2.0;"/><path d="M37.5,23 L37.5,50 M24.5,31 L50.5,31 M37.5,50 L24.5,65 M37.5,50 L50.5,65 " fill="none" filter="url(#flfspziml2tgp)" style="stroke:#A80036;stroke-width:2.0;"/><text fill="#000000" font-family="sans-serif" font-size="14" lengthAdjust="spacing" textLength="29" x="20" y="1034.5957">CCT</text><ellipse cx="37.5" cy="1047.6719" fill="#FEFECE" filter="url(#flfspziml2tgp)" rx="8" ry="8" style="stroke:#A80036;stroke-width:2.0;"/><path d="M37.5,1055.6719 L37.5,1082.6719 M24.5,1063.6719 L50.5,1063.6719 M37.5,1082.6719 L24.5,1097.6719 M37.5,1082.6719 L50.5,1097.6719 " fill="none" filter="url(#flfspziml2tgp)" style="stroke:#A80036;stroke-width:2.0;"/><rect fill="#FEFECE" filter="url(#flfspziml2tgp)" height="31.6094" style="stroke:#A80036;stroke-width:1.5;" width="144" x="228.5" y="53"/><text fill="#000000" font-family="sans-serif" font-size="14" lengthAdjust="spacing" textLength="130" x="235.5" y="74.5332">:RecordTestResultUI</text><rect fill="#FEFECE" filter="url(#flfspziml2tgp)" height="31.6094" style="stroke:#A80036;stroke-width:1.5;" width="144" x="228.5" y="1020.0625"/><text fill="#000000" font-family="sans-serif" font-size="14" lengthAdjust="spacing" textLength="130" x="235.5" y="1041.5957">:RecordTestResultUI</text><rect fill="#FEFECE" filter="url(#flfspziml2tgp)" height="31.6094" style="stroke:#A80036;stroke-width:1.5;" width="194" x="543.5" y="1020.0625"/><text fill="#000000" font-family="sans-serif" font-size="14" lengthAdjust="spacing" textLength="180" x="550.5" y="1041.5957">:RecordTestResultController</text><rect fill="#FEFECE" filter="url(#flfspziml2tgp)" height="31.6094" style="stroke:#A80036;stroke-width:1.5;" width="78" x="751.5" y="53"/><text fill="#000000" font-family="sans-serif" font-size="14" lengthAdjust="spacing" textLength="64" x="758.5" y="74.5332">:Company</text><rect fill="#FEFECE" filter="url(#flfspziml2tgp)" height="31.6094" style="stroke:#A80036;stroke-width:1.5;" width="78" x="751.5" y="1020.0625"/><text fill="#000000" font-family="sans-serif" font-size="14" lengthAdjust="spacing" textLength="64" x="758.5" y="1041.5957">:Company</text><rect fill="#FEFECE" filter="url(#flfspziml2tgp)" height="31.6094" style="stroke:#A80036;stroke-width:1.5;" width="141" x="988" y="53"/><text fill="#000000" font-family="sans-serif" font-size="14" lengthAdjust="spacing" textLength="127" x="995" y="74.5332">testStore: TestStore</text><rect fill="#FEFECE" filter="url(#flfspziml2tgp)" height="31.6094" style="stroke:#A80036;stroke-width:1.5;" width="141" x="988" y="1020.0625"/><text fill="#000000" font-family="sans-serif" font-size="14" lengthAdjust="spacing" textLength="127" x="995" y="1041.5957">testStore: TestStore</text><rect fill="#FEFECE" filter="url(#flfspziml2tgp)" height="31.6094" style="stroke:#A80036;stroke-width:1.5;" width="73" x="1362" y="53"/><text fill="#000000" font-family="sans-serif" font-size="14" lengthAdjust="spacing" textLength="59" x="1369" y="74.5332">test: Test</text><rect fill="#FEFECE" filter="url(#flfspziml2tgp)" height="31.6094" style="stroke:#A80036;stroke-width:1.5;" width="73" x="1362" y="1020.0625"/><text fill="#000000" font-family="sans-serif" font-size="14" lengthAdjust="spacing" textLength="59" x="1369" y="1041.5957">test: Test</text><rect fill="#FEFECE" filter="url(#flfspziml2tgp)" height="31.6094" style="stroke:#A80036;stroke-width:1.5;" width="199" x="1506" y="53"/><text fill="#000000" font-family="sans-serif" font-size="14" lengthAdjust="spacing" textLength="185" x="1513" y="74.5332">testParamList: TestParamList</text><rect fill="#FEFECE" filter="url(#flfspziml2tgp)" height="31.6094" style="stroke:#A80036;stroke-width:1.5;" width="199" x="1506" y="1020.0625"/><text fill="#000000" font-family="sans-serif" font-size="14" lengthAdjust="spacing" textLength="185" x="1513" y="1041.5957">testParamList: TestParamList</text><polygon fill="#A80036" points="290.5,117.9609,300.5,121.9609,290.5,125.9609,294.5,121.9609" style="stroke:#A80036;stroke-width:1.0;"/><line style="stroke:#A80036;stroke-width:1.0;" x1="37.5" x2="296.5" y1="121.9609" y2="121.9609"/><text fill="#000000" font-family="sans-serif" font-size="13" lengthAdjust="spacing" textLength="201" x="44.5" y="117.1045">starts a new test result registration</text><polygon fill="#A80036" points="531.5,148.3125,541.5,152.3125,531.5,156.3125,535.5,152.3125" style="stroke:#A80036;stroke-width:1.0;"/><line style="stroke:#A80036;stroke-width:1.0;" x1="302.5" x2="537.5" y1="152.3125" y2="152.3125"/><text fill="#000000" font-family="sans-serif" font-size="13" lengthAdjust="spacing" textLength="44" x="309.5" y="147.4561">create()</text><rect fill="#FEFECE" filter="url(#flfspziml2tgp)" height="31.6094" style="stroke:#A80036;stroke-width:1.5;" width="194" x="543.5" y="129.9609"/><text fill="#000000" font-family="sans-serif" font-size="14" lengthAdjust="spacing" textLength="180" x="550.5" y="151.4941">:RecordTestResultController</text><polygon fill="#A80036" points="630.5,194.9219,640.5,198.9219,630.5,202.9219,634.5,198.9219" style="stroke:#A80036;stroke-width:1.0;"/><line style="stroke:#A80036;stroke-width:1.0;" x1="302.5" x2="636.5" y1="198.9219" y2="198.9219"/><text fill="#000000" font-family="sans-serif" font-size="13" lengthAdjust="spacing" textLength="190" x="309.5" y="194.0654">getTestsWithCollectedSamples()</text><polygon fill="#A80036" points="780.5,225.2734,790.5,229.2734,780.5,233.2734,784.5,229.2734" style="stroke:#A80036;stroke-width:1.0;"/><line style="stroke:#A80036;stroke-width:1.0;" x1="642.5" x2="786.5" y1="229.2734" y2="229.2734"/><text fill="#000000" font-family="sans-serif" font-size="13" lengthAdjust="spacing" textLength="82" x="649.5" y="224.417">getTestStore()</text><polygon fill="#A80036" points="1048.5,255.625,1058.5,259.625,1048.5,263.625,1052.5,259.625" style="stroke:#A80036;stroke-width:1.0;"/><line style="stroke:#A80036;stroke-width:1.0;" x1="642.5" x2="1054.5" y1="259.625" y2="259.625"/><text fill="#000000" font-family="sans-serif" font-size="13" lengthAdjust="spacing" textLength="190" x="649.5" y="254.7686">getTestsWithCollectedSamples()</text><polygon fill="#A80036" points="48.5,285.9766,38.5,289.9766,48.5,293.9766,44.5,289.9766" style="stroke:#A80036;stroke-width:1.0;"/><line style="stroke:#A80036;stroke-width:1.0;stroke-dasharray:2.0,2.0;" x1="42.5" x2="301.5" y1="289.9766" y2="289.9766"/><text fill="#000000" font-family="sans-serif" font-size="13" lengthAdjust="spacing" textLength="146" x="54.5" y="285.1201">requests sample barcode</text><polygon fill="#A80036" points="290.5,316.3281,300.5,320.3281,290.5,324.3281,294.5,320.3281" style="stroke:#A80036;stroke-width:1.0;"/><line style="stroke:#A80036;stroke-width:1.0;" x1="37.5" x2="296.5" y1="320.3281" y2="320.3281"/><text fill="#000000" font-family="sans-serif" font-size="13" lengthAdjust="spacing" textLength="122" x="44.5" y="315.4717">types requested data</text><polygon fill="#A80036" points="630.5,346.6797,640.5,350.6797,630.5,354.6797,634.5,350.6797" style="stroke:#A80036;stroke-width:1.0;"/><line style="stroke:#A80036;stroke-width:1.0;" x1="302.5" x2="636.5" y1="350.6797" y2="350.6797"/><text fill="#000000" font-family="sans-serif" font-size="13" lengthAdjust="spacing" textLength="164" x="309.5" y="345.8232">getTestParameters(barcode)</text><rect fill="#FFFFFF" filter="url(#flfspziml2tgp)" height="42.7031" style="stroke:#000000;stroke-width:2.0;" width="200" x="540.5" y="358.6797"/><polygon fill="#EEEEEE" points="540.5,358.6797,602.5,358.6797,602.5,366.6797,592.5,376.6797,540.5,376.6797,540.5,358.6797" style="stroke:#000000;stroke-width:2.0;"/><text fill="#000000" font-family="sans-serif" font-size="13" font-weight="bold" lengthAdjust="spacing" textLength="17" x="553.5" y="374.1748">ref</text><text fill="#000000" font-family="sans-serif" font-size="13" lengthAdjust="spacing" textLength="149" x="568" y="394.1748">SD_ShowTestParameters</text><path d="M10,413.3828 L83,413.3828 L83,421.3828 L73,431.3828 L10,431.3828 L10,413.3828 " fill="#EEEEEE" style="stroke:#000000;stroke-width:1.0;"/><rect fill="none" height="590.6797" style="stroke:#000000;stroke-width:2.0;" width="1821.5" x="10" y="413.3828"/><text fill="#000000" font-family="sans-serif" font-size="13" font-weight="bold" lengthAdjust="spacing" textLength="28" x="25" y="427.8779">loop</text><text fill="#000000" font-family="sans-serif" font-size="11" font-weight="bold" lengthAdjust="spacing" textLength="225" x="98" y="426.8018">[for each test parameter being analysed]</text><polygon fill="#A80036" points="48.5,450.0859,38.5,454.0859,48.5,458.0859,44.5,454.0859" style="stroke:#A80036;stroke-width:1.0;"/><line style="stroke:#A80036;stroke-width:1.0;stroke-dasharray:2.0,2.0;" x1="42.5" x2="301.5" y1="454.0859" y2="454.0859"/><text fill="#000000" font-family="sans-serif" font-size="13" lengthAdjust="spacing" textLength="112" x="54.5" y="449.2295">requests parameter</text><polygon fill="#A80036" points="290.5,480.4375,300.5,484.4375,290.5,488.4375,294.5,484.4375" style="stroke:#A80036;stroke-width:1.0;"/><line style="stroke:#A80036;stroke-width:1.0;" x1="37.5" x2="296.5" y1="484.4375" y2="484.4375"/><text fill="#000000" font-family="sans-serif" font-size="13" lengthAdjust="spacing" textLength="132" x="44.5" y="479.5811">selects requested data</text><polygon fill="#A80036" points="48.5,510.7891,38.5,514.7891,48.5,518.7891,44.5,514.7891" style="stroke:#A80036;stroke-width:1.0;"/><line style="stroke:#A80036;stroke-width:1.0;stroke-dasharray:2.0,2.0;" x1="42.5" x2="301.5" y1="514.7891" y2="514.7891"/><text fill="#000000" font-family="sans-serif" font-size="13" lengthAdjust="spacing" textLength="184" x="54.5" y="509.9326">requests result value and metric</text><polygon fill="#A80036" points="290.5,541.1406,300.5,545.1406,290.5,549.1406,294.5,545.1406" style="stroke:#A80036;stroke-width:1.0;"/><line style="stroke:#A80036;stroke-width:1.0;" x1="37.5" x2="296.5" y1="545.1406" y2="545.1406"/><text fill="#000000" font-family="sans-serif" font-size="13" lengthAdjust="spacing" textLength="122" x="44.5" y="540.2842">types requested data</text><polygon fill="#A80036" points="630.5,571.4922,640.5,575.4922,630.5,579.4922,634.5,575.4922" style="stroke:#A80036;stroke-width:1.0;"/><line style="stroke:#A80036;stroke-width:1.0;" x1="302.5" x2="636.5" y1="575.4922" y2="575.4922"/><text fill="#000000" font-family="sans-serif" font-size="13" lengthAdjust="spacing" textLength="316" x="309.5" y="570.6357">createTestParameterResult(paramCode, result, metric)</text><polygon fill="#A80036" points="1048.5,601.8438,1058.5,605.8438,1048.5,609.8438,1052.5,605.8438" style="stroke:#A80036;stroke-width:1.0;"/><line style="stroke:#A80036;stroke-width:1.0;" x1="642.5" x2="1054.5" y1="605.8438" y2="605.8438"/><text fill="#000000" font-family="sans-serif" font-size="13" lengthAdjust="spacing" textLength="394" x="649.5" y="600.9873">result = createTestParameterResult(test, paramCode, result, metric)</text><polygon fill="#A80036" points="1388.5,632.1953,1398.5,636.1953,1388.5,640.1953,1392.5,636.1953" style="stroke:#A80036;stroke-width:1.0;"/><line style="stroke:#A80036;stroke-width:1.0;" x1="1060.5" x2="1394.5" y1="636.1953" y2="636.1953"/><text fill="#000000" font-family="sans-serif" font-size="13" lengthAdjust="spacing" textLength="316" x="1067.5" y="631.3389">createTestParameterResult(paramCode, result, metric)</text><rect fill="#FFFFFF" filter="url(#flfspziml2tgp)" height="42.7031" style="stroke:#000000;stroke-width:2.0;" width="133" x="1359" y="644.1953"/><polygon fill="#EEEEEE" points="1359,644.1953,1421,644.1953,1421,652.1953,1411,662.1953,1359,662.1953,1359,644.1953" style="stroke:#000000;stroke-width:2.0;"/><text fill="#000000" font-family="sans-serif" font-size="13" font-weight="bold" lengthAdjust="spacing" textLength="17" x="1372" y="659.6904">ref</text><text fill="#000000" font-family="sans-serif" font-size="13" lengthAdjust="spacing" textLength="125" x="1365" y="679.6904">SD_CreateTestResult</text><polygon fill="#A80036" points="48.5,710.25,38.5,714.25,48.5,718.25,44.5,714.25" style="stroke:#A80036;stroke-width:1.0;"/><line style="stroke:#A80036;stroke-width:1.0;stroke-dasharray:2.0,2.0;" x1="42.5" x2="301.5" y1="714.25" y2="714.25"/><text fill="#000000" font-family="sans-serif" font-size="13" lengthAdjust="spacing" textLength="241" x="54.5" y="709.3936">shows the data and requests confirmation</text><polygon fill="#A80036" points="290.5,740.6016,300.5,744.6016,290.5,748.6016,294.5,744.6016" style="stroke:#A80036;stroke-width:1.0;"/><line style="stroke:#A80036;stroke-width:1.0;" x1="37.5" x2="296.5" y1="744.6016" y2="744.6016"/><text fill="#000000" font-family="sans-serif" font-size="13" lengthAdjust="spacing" textLength="100" x="44.5" y="739.7451">confirms the data</text><polygon fill="#A80036" points="630.5,770.9531,640.5,774.9531,630.5,778.9531,634.5,774.9531" style="stroke:#A80036;stroke-width:1.0;"/><line style="stroke:#A80036;stroke-width:1.0;" x1="302.5" x2="636.5" y1="774.9531" y2="774.9531"/><text fill="#000000" font-family="sans-serif" font-size="13" lengthAdjust="spacing" textLength="156" x="309.5" y="770.0967">saveTestParameterResult()</text><polygon fill="#A80036" points="1388.5,801.3047,1398.5,805.3047,1388.5,809.3047,1392.5,805.3047" style="stroke:#A80036;stroke-width:1.0;"/><line style="stroke:#A80036;stroke-width:1.0;" x1="642.5" x2="1394.5" y1="805.3047" y2="805.3047"/><text fill="#000000" font-family="sans-serif" font-size="13" lengthAdjust="spacing" textLength="188" x="649.5" y="800.4482">saveTestParameterResult(result)</text><polygon fill="#A80036" points="1595.5,831.6563,1605.5,835.6563,1595.5,839.6563,1599.5,835.6563" style="stroke:#A80036;stroke-width:1.0;"/><line style="stroke:#A80036;stroke-width:1.0;" x1="1400.5" x2="1601.5" y1="835.6563" y2="835.6563"/><text fill="#000000" font-family="sans-serif" font-size="13" lengthAdjust="spacing" textLength="183" x="1407.5" y="830.7998">addTestParameterResult(result)</text><line style="stroke:#A80036;stroke-width:1.0;" x1="1607.5" x2="1649.5" y1="866.0078" y2="866.0078"/><line style="stroke:#A80036;stroke-width:1.0;" x1="1649.5" x2="1649.5" y1="866.0078" y2="879.0078"/><line style="stroke:#A80036;stroke-width:1.0;" x1="1608.5" x2="1649.5" y1="879.0078" y2="879.0078"/><polygon fill="#A80036" points="1618.5,875.0078,1608.5,879.0078,1618.5,883.0078,1614.5,879.0078" style="stroke:#A80036;stroke-width:1.0;"/><text fill="#000000" font-family="sans-serif" font-size="13" lengthAdjust="spacing" textLength="205" x="1614.5" y="861.1514">validateTestParameterResult(result)</text><line style="stroke:#A80036;stroke-width:1.0;" x1="1607.5" x2="1649.5" y1="909.3594" y2="909.3594"/><line style="stroke:#A80036;stroke-width:1.0;" x1="1649.5" x2="1649.5" y1="909.3594" y2="922.3594"/><line style="stroke:#A80036;stroke-width:1.0;" x1="1608.5" x2="1649.5" y1="922.3594" y2="922.3594"/><polygon fill="#A80036" points="1618.5,918.3594,1608.5,922.3594,1618.5,926.3594,1614.5,922.3594" style="stroke:#A80036;stroke-width:1.0;"/><text fill="#000000" font-family="sans-serif" font-size="13" lengthAdjust="spacing" textLength="183" x="1614.5" y="904.5029">addTestParameterResult(result)</text><line style="stroke:#A80036;stroke-width:1.0;" x1="1400.5" x2="1442.5" y1="952.7109" y2="952.7109"/><line style="stroke:#A80036;stroke-width:1.0;" x1="1442.5" x2="1442.5" y1="952.7109" y2="965.7109"/><line style="stroke:#A80036;stroke-width:1.0;" x1="1401.5" x2="1442.5" y1="965.7109" y2="965.7109"/><polygon fill="#A80036" points="1411.5,961.7109,1401.5,965.7109,1411.5,969.7109,1407.5,965.7109" style="stroke:#A80036;stroke-width:1.0;"/><text fill="#000000" font-family="sans-serif" font-size="13" lengthAdjust="spacing" textLength="162" x="1407.5" y="947.8545">setSamplesAnalysedState()</text><polygon fill="#A80036" points="48.5,992.0625,38.5,996.0625,48.5,1000.0625,44.5,996.0625" style="stroke:#A80036;stroke-width:1.0;"/><line style="stroke:#A80036;stroke-width:1.0;stroke-dasharray:2.0,2.0;" x1="42.5" x2="301.5" y1="996.0625" y2="996.0625"/><text fill="#000000" font-family="sans-serif" font-size="13" lengthAdjust="spacing" textLength="152" x="54.5" y="991.2061">informs operation success</text><!--MD5=[b7e1ec9720999ede0830890d72c1384b]
@startuml
actor CCT as cct
participant ":RecordTestResultUI" as ui
participant ":RecordTestResultController" as controller
participant ":Company" as company
participant "testStore: TestStore" as ts
participant "test: Test" as test
participant "testParamList: TestParamList" as tpstore

cct -> ui : starts a new test result registration
create controller
ui -> controller : create()
ui -> controller : getTestsWithCollectedSamples()
controller -> company : getTestStore()
controller -> ts : getTestsWithCollectedSamples()
ui - -> cct : requests sample barcode
cct -> ui : types requested data
ui -> controller : getTestParameters(barcode)
ref over controller : SD_ShowTestParameters
loop for each test parameter being analysed
ui - -> cct : requests parameter
cct -> ui : selects requested data
ui - -> cct : requests result value and metric
cct -> ui : types requested data
ui -> controller : createTestParameterResult(paramCode, result, metric)
controller -> ts : result = createTestParameterResult(test, paramCode, result, metric)
ts -> test : createTestParameterResult(paramCode, result, metric)
ref over test : SD_CreateTestResult
ui - -> cct : shows the data and requests confirmation
cct -> ui : confirms the data
ui -> controller : saveTestParameterResult()
controller -> test : saveTestParameterResult(result)
test -> tpstore : addTestParameterResult(result)
tpstore -> tpstore : validateTestParameterResult(result)
tpstore -> tpstore : addTestParameterResult(result)
test -> test : setSamplesAnalysedState()
ui - -> cct : informs operation success
end loop
@enduml

PlantUML version 1.2021.2(Sun Mar 07 11:10:27 GMT 2021)
(GPL source distribution)
Java Runtime: OpenJDK Runtime Environment
JVM: OpenJDK 64-Bit Server VM
Default Encoding: Cp1252
Language: pt
Country: PT
--></g></svg>