<?xml version="1.0" encoding="UTF-8" standalone="no"?><svg xmlns="http://www.w3.org/2000/svg" xmlns:xlink="http://www.w3.org/1999/xlink" contentScriptType="application/ecmascript" contentStyleType="text/css" height="910px" preserveAspectRatio="none" style="width:652px;height:910px;" version="1.1" viewBox="0 0 652 910" width="652.5px" zoomAndPan="magnify"><defs><filter height="300%" id="fzvnqp8ea9ucp" width="300%" x="-1" y="-1"><feGaussianBlur result="blurOut" stdDeviation="2.5"/><feColorMatrix in="blurOut" result="blurOut2" type="matrix" values="0 0 0 0 0 0 0 0 0 0 0 0 0 0 0 0 0 0 .4 0"/><feOffset dx="5.0" dy="5.0" in="blurOut2" result="blurOut3"/><feBlend in="SourceGraphic" in2="blurOut3" mode="normal"/></filter></defs><g><!--MD5=[da547346deef918ea16944ba046651ef]
class Administrator--><rect codeLine="1" fill="#FEFECE" filter="url(#fzvnqp8ea9ucp)" height="60" id="Administrator" style="stroke:#A80036;stroke-width:1.875;" width="131.25" x="271.25" y="301.25"/><ellipse cx="290" cy="321.25" fill="#ADD1B2" rx="13.75" ry="13.75" style="stroke:#A80036;stroke-width:1.25;"/><path d="M292.5,316.875 Q292.7539,316.25 293.0469,315.9375 Q293.3398,315.625 293.6719,315.625 Q294.2578,315.625 294.6289,315.9766 Q295,316.3281 295,317.1484 L295,319.1016 Q295,319.9219 294.6484,320.2734 Q294.2969,320.625 293.75,320.625 Q293.2617,320.625 292.9492,320.4102 Q292.6367,320.1953 292.5,319.6289 Q292.4414,319.2383 292.2266,319.0234 Q291.8359,318.6133 291.1328,318.3789 Q290.4297,318.125 289.7266,318.125 Q288.8477,318.125 288.1055,318.4766 Q287.3828,318.8281 286.8164,319.6094 Q286.25,320.3906 286.25,321.4648 L286.25,322.6172 Q286.25,323.9063 287.3047,324.7656 Q288.3594,325.625 290.2344,325.625 Q291.3477,325.625 292.1289,325.3711 Q292.5781,325.2344 293.0859,324.7852 Q293.418,324.5313 293.5938,324.4531 Q293.7695,324.375 293.9844,324.375 Q294.3945,324.375 294.6875,324.707 Q295,325.0195 295,325.4688 Q295,325.8984 294.5703,326.4063 Q293.9453,327.1484 292.9492,327.5586 Q291.6406,328.125 290.0391,328.125 Q288.1641,328.125 286.6602,327.3828 Q285.4492,326.7969 284.5898,325.5273 Q283.75,324.2578 283.75,322.7539 L283.75,321.3867 Q283.75,319.8242 284.4922,318.457 Q285.2539,317.0898 286.5625,316.3672 Q287.8906,315.625 289.375,315.625 Q290.2734,315.625 291.0547,315.9375 Q291.8359,316.25 292.5,316.875 Z " fill="#000000"/><text fill="#000000" font-family="sans-serif" font-size="15" lengthAdjust="spacing" textLength="91.25" x="307.5" y="327.3877">Administrator</text><line style="stroke:#A80036;stroke-width:1.875;" x1="272.5" x2="401.25" y1="341.25" y2="341.25"/><line style="stroke:#A80036;stroke-width:1.875;" x1="272.5" x2="401.25" y1="351.25" y2="351.25"/><!--MD5=[edde8665319842dd8164ab0a1dbe0d25]
class RegisterNewLabUI--><rect codeLine="2" fill="#FEFECE" filter="url(#fzvnqp8ea9ucp)" height="111.8848" id="RegisterNewLabUI" style="stroke:#A80036;stroke-width:1.875;" width="171.25" x="88.75" y="8.75"/><ellipse cx="107.5" cy="28.75" fill="#ADD1B2" rx="13.75" ry="13.75" style="stroke:#A80036;stroke-width:1.25;"/><path d="M110,24.375 Q110.2539,23.75 110.5469,23.4375 Q110.8398,23.125 111.1719,23.125 Q111.7578,23.125 112.1289,23.4766 Q112.5,23.8281 112.5,24.6484 L112.5,26.6016 Q112.5,27.4219 112.1484,27.7734 Q111.7969,28.125 111.25,28.125 Q110.7617,28.125 110.4492,27.9102 Q110.1367,27.6953 110,27.1289 Q109.9414,26.7383 109.7266,26.5234 Q109.3359,26.1133 108.6328,25.8789 Q107.9297,25.625 107.2266,25.625 Q106.3477,25.625 105.6055,25.9766 Q104.8828,26.3281 104.3164,27.1094 Q103.75,27.8906 103.75,28.9648 L103.75,30.1172 Q103.75,31.4063 104.8047,32.2656 Q105.8594,33.125 107.7344,33.125 Q108.8477,33.125 109.6289,32.8711 Q110.0781,32.7344 110.5859,32.2852 Q110.918,32.0313 111.0938,31.9531 Q111.2695,31.875 111.4844,31.875 Q111.8945,31.875 112.1875,32.207 Q112.5,32.5195 112.5,32.9688 Q112.5,33.3984 112.0703,33.9063 Q111.4453,34.6484 110.4492,35.0586 Q109.1406,35.625 107.5391,35.625 Q105.6641,35.625 104.1602,34.8828 Q102.9492,34.2969 102.0898,33.0273 Q101.25,31.7578 101.25,30.2539 L101.25,28.8867 Q101.25,27.3242 101.9922,25.957 Q102.7539,24.5898 104.0625,23.8672 Q105.3906,23.125 106.875,23.125 Q107.7734,23.125 108.5547,23.4375 Q109.3359,23.75 110,24.375 Z " fill="#000000"/><text fill="#000000" font-family="sans-serif" font-size="15" lengthAdjust="spacing" textLength="131.25" x="125" y="34.8877">RegisterNewLabUI</text><line style="stroke:#A80036;stroke-width:1.875;" x1="90" x2="258.75" y1="48.75" y2="48.75"/><line style="stroke:#A80036;stroke-width:1.875;" x1="90" x2="258.75" y1="58.75" y2="58.75"/><ellipse cx="102.5" cy="72.5" fill="#84BE84" rx="3.75" ry="3.75" style="stroke:#038048;stroke-width:1.25;"/><text fill="#000000" font-family="sans-serif" font-size="13.75" lengthAdjust="spacing" textLength="56.25" x="113.75" y="78.0237">setData()</text><ellipse cx="102.5" cy="89.7949" fill="#84BE84" rx="3.75" ry="3.75" style="stroke:#038048;stroke-width:1.25;"/><text fill="#000000" font-family="sans-serif" font-size="13.75" lengthAdjust="spacing" textLength="85" x="113.75" y="95.3186">setTestType()</text><ellipse cx="102.5" cy="107.0898" fill="#84BE84" rx="3.75" ry="3.75" style="stroke:#038048;stroke-width:1.25;"/><text fill="#000000" font-family="sans-serif" font-size="13.75" lengthAdjust="spacing" textLength="83.75" x="113.75" y="112.6135">confirmation()</text><!--MD5=[b634b1cf8f01f0006965dac8c8a5e0a4]
class RegisterNewLabController--><rect codeLine="7" fill="#FEFECE" filter="url(#fzvnqp8ea9ucp)" height="111.8848" id="RegisterNewLabController" style="stroke:#A80036;stroke-width:1.875;" width="331.25" x="303.75" y="8.75"/><ellipse cx="372.1875" cy="28.75" fill="#ADD1B2" rx="13.75" ry="13.75" style="stroke:#A80036;stroke-width:1.25;"/><path d="M374.6875,24.375 Q374.9414,23.75 375.2344,23.4375 Q375.5273,23.125 375.8594,23.125 Q376.4453,23.125 376.8164,23.4766 Q377.1875,23.8281 377.1875,24.6484 L377.1875,26.6016 Q377.1875,27.4219 376.8359,27.7734 Q376.4844,28.125 375.9375,28.125 Q375.4492,28.125 375.1367,27.9102 Q374.8242,27.6953 374.6875,27.1289 Q374.6289,26.7383 374.4141,26.5234 Q374.0234,26.1133 373.3203,25.8789 Q372.6172,25.625 371.9141,25.625 Q371.0352,25.625 370.293,25.9766 Q369.5703,26.3281 369.0039,27.1094 Q368.4375,27.8906 368.4375,28.9648 L368.4375,30.1172 Q368.4375,31.4063 369.4922,32.2656 Q370.5469,33.125 372.4219,33.125 Q373.5352,33.125 374.3164,32.8711 Q374.7656,32.7344 375.2734,32.2852 Q375.6055,32.0313 375.7813,31.9531 Q375.957,31.875 376.1719,31.875 Q376.582,31.875 376.875,32.207 Q377.1875,32.5195 377.1875,32.9688 Q377.1875,33.3984 376.7578,33.9063 Q376.1328,34.6484 375.1367,35.0586 Q373.8281,35.625 372.2266,35.625 Q370.3516,35.625 368.8477,34.8828 Q367.6367,34.2969 366.7773,33.0273 Q365.9375,31.7578 365.9375,30.2539 L365.9375,28.8867 Q365.9375,27.3242 366.6797,25.957 Q367.4414,24.5898 368.75,23.8672 Q370.0781,23.125 371.5625,23.125 Q372.4609,23.125 373.2422,23.4375 Q374.0234,23.75 374.6875,24.375 Z " fill="#000000"/><text fill="#000000" font-family="sans-serif" font-size="15" lengthAdjust="spacing" textLength="183.75" x="397.8125" y="34.8877">RegisterNewLabController</text><line style="stroke:#A80036;stroke-width:1.875;" x1="305" x2="633.75" y1="48.75" y2="48.75"/><line style="stroke:#A80036;stroke-width:1.875;" x1="305" x2="633.75" y1="58.75" y2="58.75"/><ellipse cx="317.5" cy="72.5" fill="#84BE84" rx="3.75" ry="3.75" style="stroke:#038048;stroke-width:1.25;"/><text fill="#000000" font-family="sans-serif" font-size="13.75" lengthAdjust="spacing" textLength="107.5" x="328.75" y="78.0237">registerNewLab()</text><ellipse cx="317.5" cy="89.7949" fill="#84BE84" rx="3.75" ry="3.75" style="stroke:#038048;stroke-width:1.25;"/><text fill="#000000" font-family="sans-serif" font-size="13.75" lengthAdjust="spacing" textLength="298.75" x="328.75" y="95.3186">setData(name, address, phonenumber, TIN, labID)</text><ellipse cx="317.5" cy="107.0898" fill="#84BE84" rx="3.75" ry="3.75" style="stroke:#038048;stroke-width:1.25;"/><text fill="#000000" font-family="sans-serif" font-size="13.75" lengthAdjust="spacing" textLength="62.5" x="328.75" y="112.6135">setTest(tt)</text><!--MD5=[02e4b9b7573f1156f41e60aa5b4e25a4]
class Company--><rect codeLine="12" fill="#FEFECE" filter="url(#fzvnqp8ea9ucp)" height="111.8848" id="Company" style="stroke:#A80036;stroke-width:1.875;" width="138.75" x="8.75" y="275"/><ellipse cx="42.125" cy="295" fill="#ADD1B2" rx="13.75" ry="13.75" style="stroke:#A80036;stroke-width:1.25;"/><path d="M44.625,290.625 Q44.8789,290 45.1719,289.6875 Q45.4648,289.375 45.7969,289.375 Q46.3828,289.375 46.7539,289.7266 Q47.125,290.0781 47.125,290.8984 L47.125,292.8516 Q47.125,293.6719 46.7734,294.0234 Q46.4219,294.375 45.875,294.375 Q45.3867,294.375 45.0742,294.1602 Q44.7617,293.9453 44.625,293.3789 Q44.5664,292.9883 44.3516,292.7734 Q43.9609,292.3633 43.2578,292.1289 Q42.5547,291.875 41.8516,291.875 Q40.9727,291.875 40.2305,292.2266 Q39.5078,292.5781 38.9414,293.3594 Q38.375,294.1406 38.375,295.2148 L38.375,296.3672 Q38.375,297.6563 39.4297,298.5156 Q40.4844,299.375 42.3594,299.375 Q43.4727,299.375 44.2539,299.1211 Q44.7031,298.9844 45.2109,298.5352 Q45.543,298.2813 45.7188,298.2031 Q45.8945,298.125 46.1094,298.125 Q46.5195,298.125 46.8125,298.457 Q47.125,298.7695 47.125,299.2188 Q47.125,299.6484 46.6953,300.1563 Q46.0703,300.8984 45.0742,301.3086 Q43.7656,301.875 42.1641,301.875 Q40.2891,301.875 38.7852,301.1328 Q37.5742,300.5469 36.7148,299.2773 Q35.875,298.0078 35.875,296.5039 L35.875,295.1367 Q35.875,293.5742 36.6172,292.207 Q37.3789,290.8398 38.6875,290.1172 Q40.0156,289.375 41.5,289.375 Q42.3984,289.375 43.1797,289.6875 Q43.9609,290 44.625,290.625 Z " fill="#000000"/><text fill="#000000" font-family="sans-serif" font-size="15" lengthAdjust="spacing" textLength="66.25" x="62.875" y="301.1377">Company</text><line style="stroke:#A80036;stroke-width:1.875;" x1="10" x2="146.25" y1="315" y2="315"/><rect fill="none" height="7.5" style="stroke:#C82930;stroke-width:1.25;" width="7.5" x="18.75" y="325"/><text fill="#000000" font-family="sans-serif" font-size="13.75" lengthAdjust="spacing" textLength="68.75" x="33.75" y="334.2737">designation</text><line style="stroke:#A80036;stroke-width:1.875;" x1="10" x2="146.25" y1="342.2949" y2="342.2949"/><ellipse cx="22.5" cy="356.0449" fill="#84BE84" rx="3.75" ry="3.75" style="stroke:#038048;stroke-width:1.25;"/><text fill="#000000" font-family="sans-serif" font-size="13.75" lengthAdjust="spacing" textLength="106.25" x="33.75" y="361.5686">getTestTypeList()</text><ellipse cx="22.5" cy="373.3398" fill="#84BE84" rx="3.75" ry="3.75" style="stroke:#038048;stroke-width:1.25;"/><text fill="#000000" font-family="sans-serif" font-size="13.75" lengthAdjust="spacing" textLength="51.25" x="33.75" y="378.8635">getLab()</text><!--MD5=[1934a092c0e7d4da7dc7075b6f4b6b03]
class ClinicalAnalysisLaboratory--><rect codeLine="17" fill="#FEFECE" filter="url(#fzvnqp8ea9ucp)" height="250.2441" id="ClinicalAnalysisLaboratory" style="stroke:#A80036;stroke-width:1.875;" width="255" x="208.125" y="485"/><ellipse cx="242.0625" cy="505" fill="#ADD1B2" rx="13.75" ry="13.75" style="stroke:#A80036;stroke-width:1.25;"/><path d="M244.5625,500.625 Q244.8164,500 245.1094,499.6875 Q245.4023,499.375 245.7344,499.375 Q246.3203,499.375 246.6914,499.7266 Q247.0625,500.0781 247.0625,500.8984 L247.0625,502.8516 Q247.0625,503.6719 246.7109,504.0234 Q246.3594,504.375 245.8125,504.375 Q245.3242,504.375 245.0117,504.1602 Q244.6992,503.9453 244.5625,503.3789 Q244.5039,502.9883 244.2891,502.7734 Q243.8984,502.3633 243.1953,502.1289 Q242.4922,501.875 241.7891,501.875 Q240.9102,501.875 240.168,502.2266 Q239.4453,502.5781 238.8789,503.3594 Q238.3125,504.1406 238.3125,505.2148 L238.3125,506.3672 Q238.3125,507.6563 239.3672,508.5156 Q240.4219,509.375 242.2969,509.375 Q243.4102,509.375 244.1914,509.1211 Q244.6406,508.9844 245.1484,508.5352 Q245.4805,508.2813 245.6563,508.2031 Q245.832,508.125 246.0469,508.125 Q246.457,508.125 246.75,508.457 Q247.0625,508.7695 247.0625,509.2188 Q247.0625,509.6484 246.6328,510.1563 Q246.0078,510.8984 245.0117,511.3086 Q243.7031,511.875 242.1016,511.875 Q240.2266,511.875 238.7227,511.1328 Q237.5117,510.5469 236.6523,509.2773 Q235.8125,508.0078 235.8125,506.5039 L235.8125,505.1367 Q235.8125,503.5742 236.5547,502.207 Q237.3164,500.8398 238.625,500.1172 Q239.9531,499.375 241.4375,499.375 Q242.3359,499.375 243.1172,499.6875 Q243.8984,500 244.5625,500.625 Z " fill="#000000"/><text fill="#000000" font-family="sans-serif" font-size="15" lengthAdjust="spacing" textLength="181.25" x="262.9375" y="511.1377">ClinicalAnalysisLaboratory</text><line style="stroke:#A80036;stroke-width:1.875;" x1="209.375" x2="461.875" y1="525" y2="525"/><rect fill="none" height="7.5" style="stroke:#C82930;stroke-width:1.25;" width="7.5" x="218.125" y="535"/><text fill="#000000" font-family="sans-serif" font-size="13.75" lengthAdjust="spacing" textLength="71.25" x="233.125" y="544.2737">String name</text><rect fill="none" height="7.5" style="stroke:#C82930;stroke-width:1.25;" width="7.5" x="218.125" y="552.2949"/><text fill="#000000" font-family="sans-serif" font-size="13.75" lengthAdjust="spacing" textLength="88.75" x="233.125" y="561.5686">String address</text><rect fill="none" height="7.5" style="stroke:#C82930;stroke-width:1.25;" width="7.5" x="218.125" y="569.5898"/><text fill="#000000" font-family="sans-serif" font-size="13.75" lengthAdjust="spacing" textLength="111.25" x="233.125" y="578.8635">long phonenumber</text><rect fill="none" height="7.5" style="stroke:#C82930;stroke-width:1.25;" width="7.5" x="218.125" y="586.8848"/><text fill="#000000" font-family="sans-serif" font-size="13.75" lengthAdjust="spacing" textLength="47.5" x="233.125" y="596.1584">long TIN</text><rect fill="none" height="7.5" style="stroke:#C82930;stroke-width:1.25;" width="7.5" x="218.125" y="604.1797"/><text fill="#000000" font-family="sans-serif" font-size="13.75" lengthAdjust="spacing" textLength="111.25" x="233.125" y="613.4534">String laboratoryID</text><rect fill="none" height="7.5" style="stroke:#C82930;stroke-width:1.25;" width="7.5" x="218.125" y="621.4746"/><text fill="#000000" font-family="sans-serif" font-size="13.75" lengthAdjust="spacing" textLength="67.5" x="233.125" y="630.7483">TestType tt</text><line style="stroke:#A80036;stroke-width:1.875;" x1="209.375" x2="461.875" y1="638.7695" y2="638.7695"/><ellipse cx="221.875" cy="652.5195" fill="#84BE84" rx="3.75" ry="3.75" style="stroke:#038048;stroke-width:1.25;"/><text fill="#000000" font-family="sans-serif" font-size="13.75" lengthAdjust="spacing" textLength="122.5" x="233.125" y="658.0432">validateName(name)</text><ellipse cx="221.875" cy="669.8145" fill="#84BE84" rx="3.75" ry="3.75" style="stroke:#038048;stroke-width:1.25;"/><text fill="#000000" font-family="sans-serif" font-size="13.75" lengthAdjust="spacing" textLength="158.75" x="233.125" y="675.3381">validateAddress(address)</text><ellipse cx="221.875" cy="687.1094" fill="#84BE84" rx="3.75" ry="3.75" style="stroke:#038048;stroke-width:1.25;"/><text fill="#000000" font-family="sans-serif" font-size="13.75" lengthAdjust="spacing" textLength="222.5" x="233.125" y="692.6331">validatePhoneNumber(phonenumber)</text><ellipse cx="221.875" cy="704.4043" fill="#84BE84" rx="3.75" ry="3.75" style="stroke:#038048;stroke-width:1.25;"/><text fill="#000000" font-family="sans-serif" font-size="13.75" lengthAdjust="spacing" textLength="93.75" x="233.125" y="709.928">validateTIN(TIN)</text><ellipse cx="221.875" cy="721.6992" fill="#84BE84" rx="3.75" ry="3.75" style="stroke:#038048;stroke-width:1.25;"/><text fill="#000000" font-family="sans-serif" font-size="13.75" lengthAdjust="spacing" textLength="162.5" x="233.125" y="727.2229">validateLabID(laboratoryID)</text><!--MD5=[aeb3272166074d8737a70b61b1e71682]
class TestType--><rect codeLine="30" fill="#FEFECE" filter="url(#fzvnqp8ea9ucp)" height="60" id="TestType" style="stroke:#A80036;stroke-width:1.875;" width="102.5" x="64.375" y="832.5"/><ellipse cx="83.125" cy="852.5" fill="#ADD1B2" rx="13.75" ry="13.75" style="stroke:#A80036;stroke-width:1.25;"/><path d="M85.625,848.125 Q85.8789,847.5 86.1719,847.1875 Q86.4648,846.875 86.7969,846.875 Q87.3828,846.875 87.7539,847.2266 Q88.125,847.5781 88.125,848.3984 L88.125,850.3516 Q88.125,851.1719 87.7734,851.5234 Q87.4219,851.875 86.875,851.875 Q86.3867,851.875 86.0742,851.6602 Q85.7617,851.4453 85.625,850.8789 Q85.5664,850.4883 85.3516,850.2734 Q84.9609,849.8633 84.2578,849.6289 Q83.5547,849.375 82.8516,849.375 Q81.9727,849.375 81.2305,849.7266 Q80.5078,850.0781 79.9414,850.8594 Q79.375,851.6406 79.375,852.7148 L79.375,853.8672 Q79.375,855.1563 80.4297,856.0156 Q81.4844,856.875 83.3594,856.875 Q84.4727,856.875 85.2539,856.6211 Q85.7031,856.4844 86.2109,856.0352 Q86.543,855.7813 86.7188,855.7031 Q86.8945,855.625 87.1094,855.625 Q87.5195,855.625 87.8125,855.957 Q88.125,856.2695 88.125,856.7188 Q88.125,857.1484 87.6953,857.6563 Q87.0703,858.3984 86.0742,858.8086 Q84.7656,859.375 83.1641,859.375 Q81.2891,859.375 79.7852,858.6328 Q78.5742,858.0469 77.7148,856.7773 Q76.875,855.5078 76.875,854.0039 L76.875,852.6367 Q76.875,851.0742 77.6172,849.707 Q78.3789,848.3398 79.6875,847.6172 Q81.0156,846.875 82.5,846.875 Q83.3984,846.875 84.1797,847.1875 Q84.9609,847.5 85.625,848.125 Z " fill="#000000"/><text fill="#000000" font-family="sans-serif" font-size="15" lengthAdjust="spacing" textLength="62.5" x="100.625" y="858.6377">TestType</text><line style="stroke:#A80036;stroke-width:1.875;" x1="65.625" x2="165.625" y1="872.5" y2="872.5"/><line style="stroke:#A80036;stroke-width:1.875;" x1="65.625" x2="165.625" y1="882.5" y2="882.5"/><!--MD5=[27be24e0cb01554cb3c2627dfc812ad2]
link Administrator to RegisterNewLabUI--><path codeLine="32" d="M319.1625,301.2375 C293.5375,259.6625 245.55,181.7625 211.8625,127.0875 " fill="none" id="Administrator-to-RegisterNewLabUI" style="stroke:#A80036;stroke-width:1.25;stroke-dasharray:7.0,7.0;"/><polygon fill="#A80036" points="208.4375,121.5375,210.1119,133.7342,211.7291,126.8505,218.6127,128.4677,208.4375,121.5375" style="stroke:#A80036;stroke-width:1.25;"/><!--MD5=[f648d3b7786d5b13dfae011d71e71901]
link RegisterNewLabUI to RegisterNewLabController--><path codeLine="33" d="M260.225,65 C272.5125,65 284.8125,65 297.1,65 " fill="none" id="RegisterNewLabUI-to-RegisterNewLabController" style="stroke:#A80036;stroke-width:1.25;stroke-dasharray:7.0,7.0;"/><polygon fill="#A80036" points="303.525,65,292.275,60,297.275,65,292.275,70,303.525,65" style="stroke:#A80036;stroke-width:1.25;"/><!--MD5=[e82fc9030b35447b434fc929e8873160]
reverse link RegisterNewLabController to Company--><path codeLine="34" d="M381.8875,125.225 C311.1875,172.8875 213.0125,239.075 147.6125,283.1625 " fill="none" id="RegisterNewLabController-backto-Company" style="stroke:#A80036;stroke-width:1.25;stroke-dasharray:7.0,7.0;"/><polygon fill="#A80036" points="387.35,121.5375,375.2294,123.6945,382.1718,125.0373,380.829,131.9797,387.35,121.5375" style="stroke:#A80036;stroke-width:1.25;"/><!--MD5=[613a3a29fea84c1577ed79fb3aabb60f]
link RegisterNewLabController to ClinicalAnalysisLaboratory--><path codeLine="35" d="M470.425,121.3875 C470.3,196.8625 464.45,335.75 428.125,447.5 C424.7125,457.9875 420.5625,468.55 415.9375,478.975 " fill="none" id="RegisterNewLabController-to-ClinicalAnalysisLaboratory" style="stroke:#A80036;stroke-width:1.25;stroke-dasharray:7.0,7.0;"/><polygon fill="#A80036" points="413.325,484.7625,422.5108,476.566,415.8965,479.066,413.3964,472.4516,413.325,484.7625" style="stroke:#A80036;stroke-width:1.25;"/><!--MD5=[aafc5d8a5829a6a8d6dc892cb1ff5d24]
link Company to ClinicalAnalysisLaboratory--><path codeLine="36" d="M129.6125,387.7375 C155.5875,415.6125 188.225,450.625 219.8125,484.5125 " fill="none" id="Company-ClinicalAnalysisLaboratory" style="stroke:#A80036;stroke-width:1.25;"/><polygon fill="#000000" points="194.8864,441.0417,189.8648,430.2661,184.4901,435.2757,194.8864,441.0417" style="stroke:#000000;stroke-width:1.25;"/><text fill="#000000" font-family="sans-serif" font-size="16.25" lengthAdjust="spacing" textLength="37.5" x="201.875" y="443.1189">owns</text><text fill="#000000" font-family="sans-serif" font-size="16.25" lengthAdjust="spacing" textLength="8.75" x="127.1932" y="413.6115">1</text><text fill="#000000" font-family="sans-serif" font-size="16.25" lengthAdjust="spacing" textLength="25" x="185.3896" y="471.4387">1..*</text><!--MD5=[23b8a99c177c2cd6d714b2cbaa81b3c4]
link Administrator to ClinicalAnalysisLaboratory--><path codeLine="37" d="M336.7375,361.5375 C336.6125,391.1125 336.3875,439.0125 336.1875,484.8125 " fill="none" id="Administrator-ClinicalAnalysisLaboratory" style="stroke:#A80036;stroke-width:1.25;"/><polygon fill="#000000" points="343.0971,442.7197,346.8212,431.4298,339.4739,431.397,343.0971,442.7197" style="stroke:#000000;stroke-width:1.25;"/><text fill="#000000" font-family="sans-serif" font-size="16.25" lengthAdjust="spacing" textLength="62.5" x="354.375" y="443.1189">registers</text><text fill="#000000" font-family="sans-serif" font-size="16.25" lengthAdjust="spacing" textLength="8.75" x="321.2782" y="388.28">1</text><text fill="#000000" font-family="sans-serif" font-size="16.25" lengthAdjust="spacing" textLength="25" x="305.0821" y="471.3386">1..*</text><!--MD5=[2eb961b30663a01bbfd8b4b9b8950031]
link ClinicalAnalysisLaboratory to TestType--><path codeLine="38" d="M226.5875,735.15 C194.6125,771.5 162.5125,807.9625 141.1375,832.2625 " fill="none" id="ClinicalAnalysisLaboratory-TestType" style="stroke:#A80036;stroke-width:1.25;"/><polygon fill="#000000" points="195.2463,788.6619,205.4732,782.6005,199.9572,777.7469,195.2463,788.6619" style="stroke:#000000;stroke-width:1.25;"/><text fill="#000000" font-family="sans-serif" font-size="16.25" lengthAdjust="spacing" textLength="62.5" x="210.625" y="790.6189">performs</text><text fill="#000000" font-family="sans-serif" font-size="16.25" lengthAdjust="spacing" textLength="23.75" x="188.7744" y="761.9511">1   ‎</text><text fill="#000000" font-family="sans-serif" font-size="16.25" lengthAdjust="spacing" textLength="25" x="119.472" y="818.8768">1..*</text><!--MD5=[742a261f27a3dcd734c626287d811acd]
link Company to TestType--><path codeLine="39" d="M80.1125,387.5875 C83.1625,465.1875 89.8125,611.0625 100.625,735 C103.5375,768.425 108.2875,806.6625 111.65,832.225 " fill="none" id="Company-TestType" style="stroke:#A80036;stroke-width:1.25;"/><polygon fill="#000000" points="107.3172,616.4541,110.1817,604.9161,102.8528,605.436,107.3172,616.4541" style="stroke:#000000;stroke-width:1.25;"/><text fill="#000000" font-family="sans-serif" font-size="16.25" lengthAdjust="spacing" textLength="66.25" x="118.125" y="616.8689">conducts</text><text fill="#000000" font-family="sans-serif" font-size="16.25" lengthAdjust="spacing" textLength="8.75" x="65.3236" y="413.8593">1</text><text fill="#000000" font-family="sans-serif" font-size="16.25" lengthAdjust="spacing" textLength="6.25" x="97.2994" y="818.8297">*</text><!--MD5=[eaea43e34e45c5b9d20b595fc78f1f20]
link Company to Administrator--><path codeLine="40" d="M147.8,331.25 C186.125,331.25 233.3875,331.25 271.075,331.25 " fill="none" id="Company-Administrator" style="stroke:#A80036;stroke-width:1.25;"/><polygon fill="#000000" points="181.875,316.4697,170.5686,312.7961,170.5686,320.1434,181.875,316.4697" style="stroke:#000000;stroke-width:1.25;"/><text fill="#000000" font-family="sans-serif" font-size="16.25" lengthAdjust="spacing" textLength="61.25" x="186.875" y="323.1189">employs</text><text fill="#000000" font-family="sans-serif" font-size="16.25" lengthAdjust="spacing" textLength="23.75" x="157.7389" y="349.4019">1   ‎</text><text fill="#000000" font-family="sans-serif" font-size="16.25" lengthAdjust="spacing" textLength="25" x="236.0428" y="349.4283">1..*</text><!--MD5=[063df4d8f33d65b67a5152bc7145c0ba]
@startuml
class Administrator
class RegisterNewLabUI{
+setData()
+setTestType()
+confirmation()
}
class RegisterNewLabController {
+registerNewLab()
+setData(name, address, phonenumber, TIN, labID)
+setTest(tt)
}
class Company {
-designation
+getTestTypeList()
+getLab()
}
class ClinicalAnalysisLaboratory {
-String name
-String address
-long phonenumber
-long TIN
-String laboratoryID
-TestType tt
+validateName(name)
+validateAddress(address)
+validatePhoneNumber(phonenumber)
+validateTIN(TIN)
+validateLabID(laboratoryID)
}
class TestType

Administrator ..> RegisterNewLabUI
RegisterNewLabUI .> RegisterNewLabController
RegisterNewLabController <... Company
RegisterNewLabController .> ClinicalAnalysisLaboratory
Company"1"- -"1..*"ClinicalAnalysisLaboratory : > owns
Administrator"1 "-"1..* "ClinicalAnalysisLaboratory : > registers
ClinicalAnalysisLaboratory"1   ‎ "- -"1..*"TestType : > performs
Company" 1 "-" * "TestType : > conducts
Company"1   ‎"-"1..*"Administrator : > employs
@enduml

PlantUML version 1.2021.4(Sun Apr 04 09:49:39 BST 2021)
(GPL source distribution)
Java Runtime: OpenJDK Runtime Environment
JVM: OpenJDK 64-Bit Server VM
Default Encoding: Cp1252
Language: pt
Country: PT
--></g></svg>