<?xml version="1.0" encoding="UTF-8" standalone="no"?><svg xmlns="http://www.w3.org/2000/svg" xmlns:xlink="http://www.w3.org/1999/xlink" contentScriptType="application/ecmascript" contentStyleType="text/css" height="926.25px" preserveAspectRatio="none" style="width:818px;height:926px;" version="1.1" viewBox="0 0 818 926" width="818.75px" zoomAndPan="magnify"><defs><filter height="300%" id="f121asb2o29sju" width="300%" x="-1" y="-1"><feGaussianBlur result="blurOut" stdDeviation="2.5"/><feColorMatrix in="blurOut" result="blurOut2" type="matrix" values="0 0 0 0 0 0 0 0 0 0 0 0 0 0 0 0 0 0 .4 0"/><feOffset dx="5.0" dy="5.0" in="blurOut2" result="blurOut3"/><feBlend in="SourceGraphic" in2="blurOut3" mode="normal"/></filter></defs><g><!--MD5=[da547346deef918ea16944ba046651ef]
class Administrator--><rect codeLine="1" fill="#FEFECE" filter="url(#f121asb2o29sju)" height="60" id="Administrator" style="stroke:#A80036;stroke-width:1.875;" width="131.25" x="406.25" y="309.375"/><ellipse cx="425" cy="329.375" fill="#ADD1B2" rx="13.75" ry="13.75" style="stroke:#A80036;stroke-width:1.25;"/><path d="M427.5,325 Q427.7539,324.375 428.0469,324.0625 Q428.3398,323.75 428.6719,323.75 Q429.2578,323.75 429.6289,324.1016 Q430,324.4531 430,325.2734 L430,327.2266 Q430,328.0469 429.6484,328.3984 Q429.2969,328.75 428.75,328.75 Q428.2617,328.75 427.9492,328.5352 Q427.6367,328.3203 427.5,327.7539 Q427.4414,327.3633 427.2266,327.1484 Q426.8359,326.7383 426.1328,326.5039 Q425.4297,326.25 424.7266,326.25 Q423.8477,326.25 423.1055,326.6016 Q422.3828,326.9531 421.8164,327.7344 Q421.25,328.5156 421.25,329.5898 L421.25,330.7422 Q421.25,332.0313 422.3047,332.8906 Q423.3594,333.75 425.2344,333.75 Q426.3477,333.75 427.1289,333.4961 Q427.5781,333.3594 428.0859,332.9102 Q428.418,332.6563 428.5938,332.5781 Q428.7695,332.5 428.9844,332.5 Q429.3945,332.5 429.6875,332.832 Q430,333.1445 430,333.5938 Q430,334.0234 429.5703,334.5313 Q428.9453,335.2734 427.9492,335.6836 Q426.6406,336.25 425.0391,336.25 Q423.1641,336.25 421.6602,335.5078 Q420.4492,334.9219 419.5898,333.6523 Q418.75,332.3828 418.75,330.8789 L418.75,329.5117 Q418.75,327.9492 419.4922,326.582 Q420.2539,325.2148 421.5625,324.4922 Q422.8906,323.75 424.375,323.75 Q425.2734,323.75 426.0547,324.0625 Q426.8359,324.375 427.5,325 Z " fill="#000000"/><text fill="#000000" font-family="sans-serif" font-size="15" lengthAdjust="spacing" textLength="91.25" x="442.5" y="335.5127">Administrator</text><line style="stroke:#A80036;stroke-width:1.875;" x1="407.5" x2="536.25" y1="349.375" y2="349.375"/><line style="stroke:#A80036;stroke-width:1.875;" x1="407.5" x2="536.25" y1="359.375" y2="359.375"/><!--MD5=[d6324c9bf9c7eae2f422c26412a96264]
class newLabUI--><rect codeLine="2" fill="#FEFECE" filter="url(#f121asb2o29sju)" height="94.5898" id="newLabUI" style="stroke:#A80036;stroke-width:1.875;" width="373.75" x="8.75" y="17.5"/><ellipse cx="155.3125" cy="37.5" fill="#ADD1B2" rx="13.75" ry="13.75" style="stroke:#A80036;stroke-width:1.25;"/><path d="M157.8125,33.125 Q158.0664,32.5 158.3594,32.1875 Q158.6523,31.875 158.9844,31.875 Q159.5703,31.875 159.9414,32.2266 Q160.3125,32.5781 160.3125,33.3984 L160.3125,35.3516 Q160.3125,36.1719 159.9609,36.5234 Q159.6094,36.875 159.0625,36.875 Q158.5742,36.875 158.2617,36.6602 Q157.9492,36.4453 157.8125,35.8789 Q157.7539,35.4883 157.5391,35.2734 Q157.1484,34.8633 156.4453,34.6289 Q155.7422,34.375 155.0391,34.375 Q154.1602,34.375 153.418,34.7266 Q152.6953,35.0781 152.1289,35.8594 Q151.5625,36.6406 151.5625,37.7148 L151.5625,38.8672 Q151.5625,40.1563 152.6172,41.0156 Q153.6719,41.875 155.5469,41.875 Q156.6602,41.875 157.4414,41.6211 Q157.8906,41.4844 158.3984,41.0352 Q158.7305,40.7813 158.9063,40.7031 Q159.082,40.625 159.2969,40.625 Q159.707,40.625 160,40.957 Q160.3125,41.2695 160.3125,41.7188 Q160.3125,42.1484 159.8828,42.6563 Q159.2578,43.3984 158.2617,43.8086 Q156.9531,44.375 155.3516,44.375 Q153.4766,44.375 151.9727,43.6328 Q150.7617,43.0469 149.9023,41.7773 Q149.0625,40.5078 149.0625,39.0039 L149.0625,37.6367 Q149.0625,36.0742 149.8047,34.707 Q150.5664,33.3398 151.875,32.6172 Q153.2031,31.875 154.6875,31.875 Q155.5859,31.875 156.3672,32.1875 Q157.1484,32.5 157.8125,33.125 Z " fill="#000000"/><text fill="#000000" font-family="sans-serif" font-size="15" lengthAdjust="spacing" textLength="70" x="180.9375" y="43.6377">newLabUI</text><line style="stroke:#A80036;stroke-width:1.875;" x1="10" x2="381.25" y1="57.5" y2="57.5"/><line style="stroke:#A80036;stroke-width:1.875;" x1="10" x2="381.25" y1="67.5" y2="67.5"/><ellipse cx="22.5" cy="81.25" fill="#84BE84" rx="3.75" ry="3.75" style="stroke:#038048;stroke-width:1.25;"/><text fill="#000000" font-family="sans-serif" font-size="13.75" lengthAdjust="spacing" textLength="341.25" x="33.75" y="86.7737">LabInfo(name, address, phonenumber, TIN, laboratoryID)</text><ellipse cx="22.5" cy="98.5449" fill="#84BE84" rx="3.75" ry="3.75" style="stroke:#038048;stroke-width:1.25;"/><text fill="#000000" font-family="sans-serif" font-size="13.75" lengthAdjust="spacing" textLength="115" x="33.75" y="104.0686">TestType(testtype)</text><!--MD5=[ff9d8dafaba65710efbe0213e2d0bf9a]
class newLabController--><rect codeLine="6" fill="#FEFECE" filter="url(#f121asb2o29sju)" height="111.8848" id="newLabController" style="stroke:#A80036;stroke-width:1.875;" width="375" x="426.875" y="8.75"/><ellipse cx="547.8125" cy="28.75" fill="#ADD1B2" rx="13.75" ry="13.75" style="stroke:#A80036;stroke-width:1.25;"/><path d="M550.3125,24.375 Q550.5664,23.75 550.8594,23.4375 Q551.1523,23.125 551.4844,23.125 Q552.0703,23.125 552.4414,23.4766 Q552.8125,23.8281 552.8125,24.6484 L552.8125,26.6016 Q552.8125,27.4219 552.4609,27.7734 Q552.1094,28.125 551.5625,28.125 Q551.0742,28.125 550.7617,27.9102 Q550.4492,27.6953 550.3125,27.1289 Q550.2539,26.7383 550.0391,26.5234 Q549.6484,26.1133 548.9453,25.8789 Q548.2422,25.625 547.5391,25.625 Q546.6602,25.625 545.918,25.9766 Q545.1953,26.3281 544.6289,27.1094 Q544.0625,27.8906 544.0625,28.9648 L544.0625,30.1172 Q544.0625,31.4063 545.1172,32.2656 Q546.1719,33.125 548.0469,33.125 Q549.1602,33.125 549.9414,32.8711 Q550.3906,32.7344 550.8984,32.2852 Q551.2305,32.0313 551.4063,31.9531 Q551.582,31.875 551.7969,31.875 Q552.207,31.875 552.5,32.207 Q552.8125,32.5195 552.8125,32.9688 Q552.8125,33.3984 552.3828,33.9063 Q551.7578,34.6484 550.7617,35.0586 Q549.4531,35.625 547.8516,35.625 Q545.9766,35.625 544.4727,34.8828 Q543.2617,34.2969 542.4023,33.0273 Q541.5625,31.7578 541.5625,30.2539 L541.5625,28.8867 Q541.5625,27.3242 542.3047,25.957 Q543.0664,24.5898 544.375,23.8672 Q545.7031,23.125 547.1875,23.125 Q548.0859,23.125 548.8672,23.4375 Q549.6484,23.75 550.3125,24.375 Z " fill="#000000"/><text fill="#000000" font-family="sans-serif" font-size="15" lengthAdjust="spacing" textLength="122.5" x="573.4375" y="34.8877">newLabController</text><line style="stroke:#A80036;stroke-width:1.875;" x1="428.125" x2="800.625" y1="48.75" y2="48.75"/><line style="stroke:#A80036;stroke-width:1.875;" x1="428.125" x2="800.625" y1="58.75" y2="58.75"/><ellipse cx="440.625" cy="72.5" fill="#84BE84" rx="3.75" ry="3.75" style="stroke:#038048;stroke-width:1.25;"/><text fill="#000000" font-family="sans-serif" font-size="13.75" lengthAdjust="spacing" textLength="342.5" x="451.875" y="78.0237">setData(name, address, phonenumber, TIN, laboratoryID)</text><ellipse cx="440.625" cy="89.7949" fill="#84BE84" rx="3.75" ry="3.75" style="stroke:#038048;stroke-width:1.25;"/><text fill="#000000" font-family="sans-serif" font-size="13.75" lengthAdjust="spacing" textLength="62.5" x="451.875" y="95.3186">setTest(tt)</text><ellipse cx="440.625" cy="107.0898" fill="#84BE84" rx="3.75" ry="3.75" style="stroke:#038048;stroke-width:1.25;"/><text fill="#000000" font-family="sans-serif" font-size="13.75" lengthAdjust="spacing" textLength="67.5" x="451.875" y="112.6135">saveData()</text><!--MD5=[02e4b9b7573f1156f41e60aa5b4e25a4]
class Company--><rect codeLine="11" fill="#FEFECE" filter="url(#f121asb2o29sju)" height="129.1797" id="Company" style="stroke:#A80036;stroke-width:1.875;" width="117.5" x="165.625" y="275"/><ellipse cx="189.4375" cy="295" fill="#ADD1B2" rx="13.75" ry="13.75" style="stroke:#A80036;stroke-width:1.25;"/><path d="M191.9375,290.625 Q192.1914,290 192.4844,289.6875 Q192.7773,289.375 193.1094,289.375 Q193.6953,289.375 194.0664,289.7266 Q194.4375,290.0781 194.4375,290.8984 L194.4375,292.8516 Q194.4375,293.6719 194.0859,294.0234 Q193.7344,294.375 193.1875,294.375 Q192.6992,294.375 192.3867,294.1602 Q192.0742,293.9453 191.9375,293.3789 Q191.8789,292.9883 191.6641,292.7734 Q191.2734,292.3633 190.5703,292.1289 Q189.8672,291.875 189.1641,291.875 Q188.2852,291.875 187.543,292.2266 Q186.8203,292.5781 186.2539,293.3594 Q185.6875,294.1406 185.6875,295.2148 L185.6875,296.3672 Q185.6875,297.6563 186.7422,298.5156 Q187.7969,299.375 189.6719,299.375 Q190.7852,299.375 191.5664,299.1211 Q192.0156,298.9844 192.5234,298.5352 Q192.8555,298.2813 193.0313,298.2031 Q193.207,298.125 193.4219,298.125 Q193.832,298.125 194.125,298.457 Q194.4375,298.7695 194.4375,299.2188 Q194.4375,299.6484 194.0078,300.1563 Q193.3828,300.8984 192.3867,301.3086 Q191.0781,301.875 189.4766,301.875 Q187.6016,301.875 186.0977,301.1328 Q184.8867,300.5469 184.0273,299.2773 Q183.1875,298.0078 183.1875,296.5039 L183.1875,295.1367 Q183.1875,293.5742 183.9297,292.207 Q184.6914,290.8398 186,290.1172 Q187.3281,289.375 188.8125,289.375 Q189.7109,289.375 190.4922,289.6875 Q191.2734,290 191.9375,290.625 Z " fill="#000000"/><text fill="#000000" font-family="sans-serif" font-size="15" lengthAdjust="spacing" textLength="66.25" x="208.0625" y="301.1377">Company</text><line style="stroke:#A80036;stroke-width:1.875;" x1="166.875" x2="281.875" y1="315" y2="315"/><rect fill="none" height="7.5" style="stroke:#C82930;stroke-width:1.25;" width="7.5" x="175.625" y="325"/><text fill="#000000" font-family="sans-serif" font-size="13.75" lengthAdjust="spacing" textLength="68.75" x="190.625" y="334.2737">designation</text><line style="stroke:#A80036;stroke-width:1.875;" x1="166.875" x2="281.875" y1="342.2949" y2="342.2949"/><ellipse cx="179.375" cy="356.0449" fill="#84BE84" rx="3.75" ry="3.75" style="stroke:#038048;stroke-width:1.25;"/><text fill="#000000" font-family="sans-serif" font-size="13.75" lengthAdjust="spacing" textLength="85" x="190.625" y="361.5686">getTestType()</text><ellipse cx="179.375" cy="373.3398" fill="#84BE84" rx="3.75" ry="3.75" style="stroke:#038048;stroke-width:1.25;"/><text fill="#000000" font-family="sans-serif" font-size="13.75" lengthAdjust="spacing" textLength="51.25" x="190.625" y="378.8635">getLab()</text><ellipse cx="179.375" cy="390.6348" fill="#84BE84" rx="3.75" ry="3.75" style="stroke:#038048;stroke-width:1.25;"/><text fill="#000000" font-family="sans-serif" font-size="13.75" lengthAdjust="spacing" textLength="71.25" x="190.625" y="396.1584">createLab()</text><!--MD5=[1934a092c0e7d4da7dc7075b6f4b6b03]
class ClinicalAnalysisLaboratory--><rect codeLine="17" fill="#FEFECE" filter="url(#f121asb2o29sju)" height="250.2441" id="ClinicalAnalysisLaboratory" style="stroke:#A80036;stroke-width:1.875;" width="255" x="349.375" y="501.25"/><ellipse cx="383.3125" cy="521.25" fill="#ADD1B2" rx="13.75" ry="13.75" style="stroke:#A80036;stroke-width:1.25;"/><path d="M385.8125,516.875 Q386.0664,516.25 386.3594,515.9375 Q386.6523,515.625 386.9844,515.625 Q387.5703,515.625 387.9414,515.9766 Q388.3125,516.3281 388.3125,517.1484 L388.3125,519.1016 Q388.3125,519.9219 387.9609,520.2734 Q387.6094,520.625 387.0625,520.625 Q386.5742,520.625 386.2617,520.4102 Q385.9492,520.1953 385.8125,519.6289 Q385.7539,519.2383 385.5391,519.0234 Q385.1484,518.6133 384.4453,518.3789 Q383.7422,518.125 383.0391,518.125 Q382.1602,518.125 381.418,518.4766 Q380.6953,518.8281 380.1289,519.6094 Q379.5625,520.3906 379.5625,521.4648 L379.5625,522.6172 Q379.5625,523.9063 380.6172,524.7656 Q381.6719,525.625 383.5469,525.625 Q384.6602,525.625 385.4414,525.3711 Q385.8906,525.2344 386.3984,524.7852 Q386.7305,524.5313 386.9063,524.4531 Q387.082,524.375 387.2969,524.375 Q387.707,524.375 388,524.707 Q388.3125,525.0195 388.3125,525.4688 Q388.3125,525.8984 387.8828,526.4063 Q387.2578,527.1484 386.2617,527.5586 Q384.9531,528.125 383.3516,528.125 Q381.4766,528.125 379.9727,527.3828 Q378.7617,526.7969 377.9023,525.5273 Q377.0625,524.2578 377.0625,522.7539 L377.0625,521.3867 Q377.0625,519.8242 377.8047,518.457 Q378.5664,517.0898 379.875,516.3672 Q381.2031,515.625 382.6875,515.625 Q383.5859,515.625 384.3672,515.9375 Q385.1484,516.25 385.8125,516.875 Z " fill="#000000"/><text fill="#000000" font-family="sans-serif" font-size="15" lengthAdjust="spacing" textLength="181.25" x="404.1875" y="527.3877">ClinicalAnalysisLaboratory</text><line style="stroke:#A80036;stroke-width:1.875;" x1="350.625" x2="603.125" y1="541.25" y2="541.25"/><rect fill="none" height="7.5" style="stroke:#C82930;stroke-width:1.25;" width="7.5" x="359.375" y="551.25"/><text fill="#000000" font-family="sans-serif" font-size="13.75" lengthAdjust="spacing" textLength="71.25" x="374.375" y="560.5237">String name</text><rect fill="none" height="7.5" style="stroke:#C82930;stroke-width:1.25;" width="7.5" x="359.375" y="568.5449"/><text fill="#000000" font-family="sans-serif" font-size="13.75" lengthAdjust="spacing" textLength="88.75" x="374.375" y="577.8186">String address</text><rect fill="none" height="7.5" style="stroke:#C82930;stroke-width:1.25;" width="7.5" x="359.375" y="585.8398"/><text fill="#000000" font-family="sans-serif" font-size="13.75" lengthAdjust="spacing" textLength="100" x="374.375" y="595.1135">int phonenumber</text><rect fill="none" height="7.5" style="stroke:#C82930;stroke-width:1.25;" width="7.5" x="359.375" y="603.1348"/><text fill="#000000" font-family="sans-serif" font-size="13.75" lengthAdjust="spacing" textLength="36.25" x="374.375" y="612.4084">int TIN</text><rect fill="none" height="7.5" style="stroke:#C82930;stroke-width:1.25;" width="7.5" x="359.375" y="620.4297"/><text fill="#000000" font-family="sans-serif" font-size="13.75" lengthAdjust="spacing" textLength="111.25" x="374.375" y="629.7034">String laboratoryID</text><rect fill="none" height="7.5" style="stroke:#C82930;stroke-width:1.25;" width="7.5" x="359.375" y="637.7246"/><text fill="#000000" font-family="sans-serif" font-size="13.75" lengthAdjust="spacing" textLength="67.5" x="374.375" y="646.9983">TestType tt</text><line style="stroke:#A80036;stroke-width:1.875;" x1="350.625" x2="603.125" y1="655.0195" y2="655.0195"/><ellipse cx="363.125" cy="668.7695" fill="#84BE84" rx="3.75" ry="3.75" style="stroke:#038048;stroke-width:1.25;"/><text fill="#000000" font-family="sans-serif" font-size="13.75" lengthAdjust="spacing" textLength="122.5" x="374.375" y="674.2932">validateName(name)</text><ellipse cx="363.125" cy="686.0645" fill="#84BE84" rx="3.75" ry="3.75" style="stroke:#038048;stroke-width:1.25;"/><text fill="#000000" font-family="sans-serif" font-size="13.75" lengthAdjust="spacing" textLength="158.75" x="374.375" y="691.5881">validateAddress(address)</text><ellipse cx="363.125" cy="703.3594" fill="#84BE84" rx="3.75" ry="3.75" style="stroke:#038048;stroke-width:1.25;"/><text fill="#000000" font-family="sans-serif" font-size="13.75" lengthAdjust="spacing" textLength="222.5" x="374.375" y="708.8831">validatePhoneNumber(phonenumber)</text><ellipse cx="363.125" cy="720.6543" fill="#84BE84" rx="3.75" ry="3.75" style="stroke:#038048;stroke-width:1.25;"/><text fill="#000000" font-family="sans-serif" font-size="13.75" lengthAdjust="spacing" textLength="93.75" x="374.375" y="726.178">validateTIN(TIN)</text><ellipse cx="363.125" cy="737.9492" fill="#84BE84" rx="3.75" ry="3.75" style="stroke:#038048;stroke-width:1.25;"/><text fill="#000000" font-family="sans-serif" font-size="13.75" lengthAdjust="spacing" textLength="162.5" x="374.375" y="743.4729">validateLabID(laboratoryID)</text><!--MD5=[aeb3272166074d8737a70b61b1e71682]
class TestType--><rect codeLine="30" fill="#FEFECE" filter="url(#f121asb2o29sju)" height="60" id="TestType" style="stroke:#A80036;stroke-width:1.875;" width="102.5" x="205.625" y="848.75"/><ellipse cx="224.375" cy="868.75" fill="#ADD1B2" rx="13.75" ry="13.75" style="stroke:#A80036;stroke-width:1.25;"/><path d="M226.875,864.375 Q227.1289,863.75 227.4219,863.4375 Q227.7148,863.125 228.0469,863.125 Q228.6328,863.125 229.0039,863.4766 Q229.375,863.8281 229.375,864.6484 L229.375,866.6016 Q229.375,867.4219 229.0234,867.7734 Q228.6719,868.125 228.125,868.125 Q227.6367,868.125 227.3242,867.9102 Q227.0117,867.6953 226.875,867.1289 Q226.8164,866.7383 226.6016,866.5234 Q226.2109,866.1133 225.5078,865.8789 Q224.8047,865.625 224.1016,865.625 Q223.2227,865.625 222.4805,865.9766 Q221.7578,866.3281 221.1914,867.1094 Q220.625,867.8906 220.625,868.9648 L220.625,870.1172 Q220.625,871.4063 221.6797,872.2656 Q222.7344,873.125 224.6094,873.125 Q225.7227,873.125 226.5039,872.8711 Q226.9531,872.7344 227.4609,872.2852 Q227.793,872.0313 227.9688,871.9531 Q228.1445,871.875 228.3594,871.875 Q228.7695,871.875 229.0625,872.207 Q229.375,872.5195 229.375,872.9688 Q229.375,873.3984 228.9453,873.9063 Q228.3203,874.6484 227.3242,875.0586 Q226.0156,875.625 224.4141,875.625 Q222.5391,875.625 221.0352,874.8828 Q219.8242,874.2969 218.9648,873.0273 Q218.125,871.7578 218.125,870.2539 L218.125,868.8867 Q218.125,867.3242 218.8672,865.957 Q219.6289,864.5898 220.9375,863.8672 Q222.2656,863.125 223.75,863.125 Q224.6484,863.125 225.4297,863.4375 Q226.2109,863.75 226.875,864.375 Z " fill="#000000"/><text fill="#000000" font-family="sans-serif" font-size="15" lengthAdjust="spacing" textLength="62.5" x="241.875" y="874.8877">TestType</text><line style="stroke:#A80036;stroke-width:1.875;" x1="206.875" x2="306.875" y1="888.75" y2="888.75"/><line style="stroke:#A80036;stroke-width:1.875;" x1="206.875" x2="306.875" y1="898.75" y2="898.75"/><!--MD5=[1fbaf7768c9825393b108ccd1eb6e910]
link Administrator to newLabUI--><path codeLine="32" d="M442.3375,309.05 C395.875,263.325 305.1125,174 247.575,117.375 " fill="none" id="Administrator-to-newLabUI" style="stroke:#A80036;stroke-width:1.25;stroke-dasharray:7.0,7.0;"/><polygon fill="#A80036" points="242.8,112.675,247.3353,124.1203,247.2638,117.0496,254.3345,116.9781,242.8,112.675" style="stroke:#A80036;stroke-width:1.25;"/><!--MD5=[c343708d5b3b03b5e8c1ba8f69941d40]
link newLabUI to newLabController--><path codeLine="33" d="M382.5125,65 C394.975,65 407.45,65 419.9125,65 " fill="none" id="newLabUI-to-newLabController" style="stroke:#A80036;stroke-width:1.25;stroke-dasharray:7.0,7.0;"/><polygon fill="#A80036" points="426.4375,65,415.1875,60,420.1875,65,415.1875,70,426.4375,65" style="stroke:#A80036;stroke-width:1.25;"/><!--MD5=[c3fdf2b4d215ebd62598db0ce11960a0]
link newLabController to Company--><path codeLine="34" d="M535.45,121.2625 C462.7875,171.925 356.3,246.1625 288.675,293.3 " fill="none" id="newLabController-to-Company" style="stroke:#A80036;stroke-width:1.25;stroke-dasharray:7.0,7.0;"/><polygon fill="#A80036" points="283.4625,296.925,295.5511,294.5952,288.5902,293.3517,289.8338,286.3908,283.4625,296.925" style="stroke:#A80036;stroke-width:1.25;"/><!--MD5=[30db61e97ee18d6443eead4b6bc53b52]
link newLabController to ClinicalAnalysisLaboratory--><path codeLine="35" d="M613.85,121.3125 C611.675,199.3375 602.3375,345.725 564.375,463.75 C561,474.2375 556.9375,484.8375 552.4375,495.325 " fill="none" id="newLabController-to-ClinicalAnalysisLaboratory" style="stroke:#A80036;stroke-width:1.25;stroke-dasharray:7.0,7.0;"/><polygon fill="#A80036" points="549.9,501.1375,558.9805,492.8244,552.3986,495.4087,549.8143,488.8267,549.9,501.1375" style="stroke:#A80036;stroke-width:1.25;"/><!--MD5=[aafc5d8a5829a6a8d6dc892cb1ff5d24]
link Company to ClinicalAnalysisLaboratory--><path codeLine="36" d="M280.725,404.0875 C306.1625,432.7375 337.125,467.6125 366.8625,501.1 " fill="none" id="Company-ClinicalAnalysisLaboratory" style="stroke:#A80036;stroke-width:1.25;"/><polygon fill="#000000" points="338.5247,457.3933,333.7649,446.4996,328.2708,451.3778,338.5247,457.3933" style="stroke:#000000;stroke-width:1.25;"/><text fill="#000000" font-family="sans-serif" font-size="16.25" lengthAdjust="spacing" textLength="37.5" x="345.625" y="459.3689">owns</text><text fill="#000000" font-family="sans-serif" font-size="16.25" lengthAdjust="spacing" textLength="8.75" x="278.9591" y="430.9965">1</text><text fill="#000000" font-family="sans-serif" font-size="16.25" lengthAdjust="spacing" textLength="25" x="332.4826" y="487.629">1..*</text><!--MD5=[23b8a99c177c2cd6d714b2cbaa81b3c4]
link Administrator to ClinicalAnalysisLaboratory--><path codeLine="37" d="M472.3875,369.4625 C472.925,400.5875 473.8375,452.3125 474.7,501.1 " fill="none" id="Administrator-ClinicalAnalysisLaboratory" style="stroke:#A80036;stroke-width:1.25;"/><polygon fill="#000000" points="479.4848,458.9688,482.9593,447.5996,475.6131,447.7287,479.4848,458.9688" style="stroke:#000000;stroke-width:1.25;"/><text fill="#000000" font-family="sans-serif" font-size="16.25" lengthAdjust="spacing" textLength="62.5" x="490.625" y="459.3689">registers</text><text fill="#000000" font-family="sans-serif" font-size="16.25" lengthAdjust="spacing" textLength="8.75" x="457.0866" y="396.1563">1</text><text fill="#000000" font-family="sans-serif" font-size="16.25" lengthAdjust="spacing" textLength="25" x="443.385" y="487.629">1..*</text><!--MD5=[2eb961b30663a01bbfd8b4b9b8950031]
link ClinicalAnalysisLaboratory to TestType--><path codeLine="38" d="M367.8375,751.4 C335.8625,787.75 303.7625,824.2125 282.3875,848.5125 " fill="none" id="ClinicalAnalysisLaboratory-TestType" style="stroke:#A80036;stroke-width:1.25;"/><polygon fill="#000000" points="336.4963,804.9119,346.7232,798.8505,341.2072,793.9969,336.4963,804.9119" style="stroke:#000000;stroke-width:1.25;"/><text fill="#000000" font-family="sans-serif" font-size="16.25" lengthAdjust="spacing" textLength="62.5" x="351.875" y="806.8689">performs</text><text fill="#000000" font-family="sans-serif" font-size="16.25" lengthAdjust="spacing" textLength="23.75" x="330.0244" y="778.2011">1   ‎</text><text fill="#000000" font-family="sans-serif" font-size="16.25" lengthAdjust="spacing" textLength="25" x="260.722" y="835.1268">1..*</text><!--MD5=[742a261f27a3dcd734c626287d811acd]
link Company to TestType--><path codeLine="39" d="M225.5875,404.025 C227.475,484.775 231.9875,628.5625 241.875,751.25 C244.575,784.6875 249.35,822.925 252.8,848.475 " fill="none" id="Company-TestType" style="stroke:#A80036;stroke-width:1.25;"/><polygon fill="#000000" points="248.507,632.708,251.4828,621.1983,244.1492,621.6473,248.507,632.708" style="stroke:#000000;stroke-width:1.25;"/><text fill="#000000" font-family="sans-serif" font-size="16.25" lengthAdjust="spacing" textLength="66.25" x="259.375" y="633.1189">conducts</text><text fill="#000000" font-family="sans-serif" font-size="16.25" lengthAdjust="spacing" textLength="8.75" x="210.7407" y="430.9256">1</text><text fill="#000000" font-family="sans-serif" font-size="16.25" lengthAdjust="spacing" textLength="6.25" x="238.4238" y="835.0797">*</text><!--MD5=[eaea43e34e45c5b9d20b595fc78f1f20]
link Company to Administrator--><path codeLine="40" d="M283.3375,339.375 C320.2375,339.375 367.8125,339.375 405.95,339.375 " fill="none" id="Company-Administrator" style="stroke:#A80036;stroke-width:1.25;"/><polygon fill="#000000" points="317.1875,324.5947,305.8811,320.9211,305.8811,328.2684,317.1875,324.5947" style="stroke:#000000;stroke-width:1.25;"/><text fill="#000000" font-family="sans-serif" font-size="16.25" lengthAdjust="spacing" textLength="61.25" x="322.1875" y="331.2439">employs</text><text fill="#000000" font-family="sans-serif" font-size="16.25" lengthAdjust="spacing" textLength="23.75" x="293.299" y="357.6508">1   ‎</text><text fill="#000000" font-family="sans-serif" font-size="16.25" lengthAdjust="spacing" textLength="25" x="371.392" y="357.4894">1..*</text><!--MD5=[f55c012d48b8714ce7ea511bd666bc52]
link Company to newLabUI--><path codeLine="41" d="M217.675,274.7125 C212.6875,227.55 205.95,163.925 201.25,119.4125 " fill="none" id="Company-to-newLabUI" style="stroke:#A80036;stroke-width:1.25;stroke-dasharray:7.0,7.0;"/><polygon fill="#A80036" points="200.5625,112.9875,196.7799,124.7031,201.2233,119.2025,206.7239,123.6458,200.5625,112.9875" style="stroke:#A80036;stroke-width:1.25;"/><!--MD5=[f139b30f98f7f7ab5f03cf4bb54c0a33]
@startuml
class Administrator
class newLabUI{
+LabInfo(name, address, phonenumber, TIN, laboratoryID)
+TestType(testtype)
}
class newLabController {
+setData(name, address, phonenumber, TIN, laboratoryID)
+setTest(tt)
+saveData()
}
class Company {
-designation
+getTestType()
+getLab()
+createLab()
}
class ClinicalAnalysisLaboratory {
-String name
-String address
-int phonenumber
-int TIN
-String laboratoryID
-TestType tt
+validateName(name)
+validateAddress(address)
+validatePhoneNumber(phonenumber)
+validateTIN(TIN)
+validateLabID(laboratoryID)
}
class TestType

Administrator ..> newLabUI
newLabUI .> newLabController
newLabController ...> Company
newLabController .> ClinicalAnalysisLaboratory
Company"1"- -"1..*"ClinicalAnalysisLaboratory : > owns
Administrator"1 "-"1..* "ClinicalAnalysisLaboratory : > registers
ClinicalAnalysisLaboratory"1   ‎ "- -"1..*"TestType : > performs
Company" 1 "-" * "TestType : > conducts
Company"1   ‎"-"1..*"Administrator : > employs
Company .> newLabUI
@enduml

PlantUML version 1.2021.4(Sun Apr 04 09:49:39 BST 2021)
(GPL source distribution)
Java Runtime: OpenJDK Runtime Environment
JVM: OpenJDK 64-Bit Server VM
Default Encoding: Cp1252
Language: pt
Country: PT
--></g></svg>