<?xml version="1.0" encoding="UTF-8" standalone="no"?><svg xmlns="http://www.w3.org/2000/svg" xmlns:xlink="http://www.w3.org/1999/xlink" contentScriptType="application/ecmascript" contentStyleType="text/css" height="728px" preserveAspectRatio="none" style="width:522px;height:728px;" version="1.1" viewBox="0 0 522 728" width="522px" zoomAndPan="magnify"><defs><filter height="300%" id="fzvnqp8ea9ucp" width="300%" x="-1" y="-1"><feGaussianBlur result="blurOut" stdDeviation="2.0"/><feColorMatrix in="blurOut" result="blurOut2" type="matrix" values="0 0 0 0 0 0 0 0 0 0 0 0 0 0 0 0 0 0 .4 0"/><feOffset dx="4.0" dy="4.0" in="blurOut2" result="blurOut3"/><feBlend in="SourceGraphic" in2="blurOut3" mode="normal"/></filter></defs><g><!--MD5=[da547346deef918ea16944ba046651ef]
class Administrator--><rect codeLine="1" fill="#FEFECE" filter="url(#fzvnqp8ea9ucp)" height="48" id="Administrator" style="stroke:#A80036;stroke-width:1.5;" width="105" x="217" y="241"/><ellipse cx="232" cy="257" fill="#ADD1B2" rx="11" ry="11" style="stroke:#A80036;stroke-width:1.0;"/><path d="M234,253.5 Q234.2031,253 234.4375,252.75 Q234.6719,252.5 234.9375,252.5 Q235.4063,252.5 235.7031,252.7813 Q236,253.0625 236,253.7188 L236,255.2813 Q236,255.9375 235.7188,256.2188 Q235.4375,256.5 235,256.5 Q234.6094,256.5 234.3594,256.3281 Q234.1094,256.1563 234,255.7031 Q233.9531,255.3906 233.7813,255.2188 Q233.4688,254.8906 232.9063,254.7031 Q232.3438,254.5 231.7813,254.5 Q231.0781,254.5 230.4844,254.7813 Q229.9063,255.0625 229.4531,255.6875 Q229,256.3125 229,257.1719 L229,258.0938 Q229,259.125 229.8438,259.8125 Q230.6875,260.5 232.1875,260.5 Q233.0781,260.5 233.7031,260.2969 Q234.0625,260.1875 234.4688,259.8281 Q234.7344,259.625 234.875,259.5625 Q235.0156,259.5 235.1875,259.5 Q235.5156,259.5 235.75,259.7656 Q236,260.0156 236,260.375 Q236,260.7188 235.6563,261.125 Q235.1563,261.7188 234.3594,262.0469 Q233.3125,262.5 232.0313,262.5 Q230.5313,262.5 229.3281,261.9063 Q228.3594,261.4375 227.6719,260.4219 Q227,259.4063 227,258.2031 L227,257.1094 Q227,255.8594 227.5938,254.7656 Q228.2031,253.6719 229.25,253.0938 Q230.3125,252.5 231.5,252.5 Q232.2188,252.5 232.8438,252.75 Q233.4688,253 234,253.5 Z " fill="#000000"/><text fill="#000000" font-family="sans-serif" font-size="12" lengthAdjust="spacing" textLength="73" x="246" y="261.9102">Administrator</text><line style="stroke:#A80036;stroke-width:1.5;" x1="218" x2="321" y1="273" y2="273"/><line style="stroke:#A80036;stroke-width:1.5;" x1="218" x2="321" y1="281" y2="281"/><!--MD5=[edde8665319842dd8164ab0a1dbe0d25]
class RegisterNewLabUI--><rect codeLine="2" fill="#FEFECE" filter="url(#fzvnqp8ea9ucp)" height="89.5078" id="RegisterNewLabUI" style="stroke:#A80036;stroke-width:1.5;" width="137" x="71" y="7"/><ellipse cx="86" cy="23" fill="#ADD1B2" rx="11" ry="11" style="stroke:#A80036;stroke-width:1.0;"/><path d="M88,19.5 Q88.2031,19 88.4375,18.75 Q88.6719,18.5 88.9375,18.5 Q89.4063,18.5 89.7031,18.7813 Q90,19.0625 90,19.7188 L90,21.2813 Q90,21.9375 89.7188,22.2188 Q89.4375,22.5 89,22.5 Q88.6094,22.5 88.3594,22.3281 Q88.1094,22.1563 88,21.7031 Q87.9531,21.3906 87.7813,21.2188 Q87.4688,20.8906 86.9063,20.7031 Q86.3438,20.5 85.7813,20.5 Q85.0781,20.5 84.4844,20.7813 Q83.9063,21.0625 83.4531,21.6875 Q83,22.3125 83,23.1719 L83,24.0938 Q83,25.125 83.8438,25.8125 Q84.6875,26.5 86.1875,26.5 Q87.0781,26.5 87.7031,26.2969 Q88.0625,26.1875 88.4688,25.8281 Q88.7344,25.625 88.875,25.5625 Q89.0156,25.5 89.1875,25.5 Q89.5156,25.5 89.75,25.7656 Q90,26.0156 90,26.375 Q90,26.7188 89.6563,27.125 Q89.1563,27.7188 88.3594,28.0469 Q87.3125,28.5 86.0313,28.5 Q84.5313,28.5 83.3281,27.9063 Q82.3594,27.4375 81.6719,26.4219 Q81,25.4063 81,24.2031 L81,23.1094 Q81,21.8594 81.5938,20.7656 Q82.2031,19.6719 83.25,19.0938 Q84.3125,18.5 85.5,18.5 Q86.2188,18.5 86.8438,18.75 Q87.4688,19 88,19.5 Z " fill="#000000"/><text fill="#000000" font-family="sans-serif" font-size="12" lengthAdjust="spacing" textLength="105" x="100" y="27.9102">RegisterNewLabUI</text><line style="stroke:#A80036;stroke-width:1.5;" x1="72" x2="207" y1="39" y2="39"/><line style="stroke:#A80036;stroke-width:1.5;" x1="72" x2="207" y1="47" y2="47"/><ellipse cx="82" cy="58" fill="#84BE84" rx="3" ry="3" style="stroke:#038048;stroke-width:1.0;"/><text fill="#000000" font-family="sans-serif" font-size="11" lengthAdjust="spacing" textLength="45" x="91" y="62.4189">setData()</text><ellipse cx="82" cy="71.8359" fill="#84BE84" rx="3" ry="3" style="stroke:#038048;stroke-width:1.0;"/><text fill="#000000" font-family="sans-serif" font-size="11" lengthAdjust="spacing" textLength="68" x="91" y="76.2549">setTestType()</text><ellipse cx="82" cy="85.6719" fill="#84BE84" rx="3" ry="3" style="stroke:#038048;stroke-width:1.0;"/><text fill="#000000" font-family="sans-serif" font-size="11" lengthAdjust="spacing" textLength="67" x="91" y="90.0908">confirmation()</text><!--MD5=[b634b1cf8f01f0006965dac8c8a5e0a4]
class RegisterNewLabController--><rect codeLine="7" fill="#FEFECE" filter="url(#fzvnqp8ea9ucp)" height="89.5078" id="RegisterNewLabController" style="stroke:#A80036;stroke-width:1.5;" width="265" x="243" y="7"/><ellipse cx="297.75" cy="23" fill="#ADD1B2" rx="11" ry="11" style="stroke:#A80036;stroke-width:1.0;"/><path d="M299.75,19.5 Q299.9531,19 300.1875,18.75 Q300.4219,18.5 300.6875,18.5 Q301.1563,18.5 301.4531,18.7813 Q301.75,19.0625 301.75,19.7188 L301.75,21.2813 Q301.75,21.9375 301.4688,22.2188 Q301.1875,22.5 300.75,22.5 Q300.3594,22.5 300.1094,22.3281 Q299.8594,22.1563 299.75,21.7031 Q299.7031,21.3906 299.5313,21.2188 Q299.2188,20.8906 298.6563,20.7031 Q298.0938,20.5 297.5313,20.5 Q296.8281,20.5 296.2344,20.7813 Q295.6563,21.0625 295.2031,21.6875 Q294.75,22.3125 294.75,23.1719 L294.75,24.0938 Q294.75,25.125 295.5938,25.8125 Q296.4375,26.5 297.9375,26.5 Q298.8281,26.5 299.4531,26.2969 Q299.8125,26.1875 300.2188,25.8281 Q300.4844,25.625 300.625,25.5625 Q300.7656,25.5 300.9375,25.5 Q301.2656,25.5 301.5,25.7656 Q301.75,26.0156 301.75,26.375 Q301.75,26.7188 301.4063,27.125 Q300.9063,27.7188 300.1094,28.0469 Q299.0625,28.5 297.7813,28.5 Q296.2813,28.5 295.0781,27.9063 Q294.1094,27.4375 293.4219,26.4219 Q292.75,25.4063 292.75,24.2031 L292.75,23.1094 Q292.75,21.8594 293.3438,20.7656 Q293.9531,19.6719 295,19.0938 Q296.0625,18.5 297.25,18.5 Q297.9688,18.5 298.5938,18.75 Q299.2188,19 299.75,19.5 Z " fill="#000000"/><text fill="#000000" font-family="sans-serif" font-size="12" lengthAdjust="spacing" textLength="147" x="318.25" y="27.9102">RegisterNewLabController</text><line style="stroke:#A80036;stroke-width:1.5;" x1="244" x2="507" y1="39" y2="39"/><line style="stroke:#A80036;stroke-width:1.5;" x1="244" x2="507" y1="47" y2="47"/><ellipse cx="254" cy="58" fill="#84BE84" rx="3" ry="3" style="stroke:#038048;stroke-width:1.0;"/><text fill="#000000" font-family="sans-serif" font-size="11" lengthAdjust="spacing" textLength="86" x="263" y="62.4189">registerNewLab()</text><ellipse cx="254" cy="71.8359" fill="#84BE84" rx="3" ry="3" style="stroke:#038048;stroke-width:1.0;"/><text fill="#000000" font-family="sans-serif" font-size="11" lengthAdjust="spacing" textLength="239" x="263" y="76.2549">setData(name, address, phonenumber, TIN, labID)</text><ellipse cx="254" cy="85.6719" fill="#84BE84" rx="3" ry="3" style="stroke:#038048;stroke-width:1.0;"/><text fill="#000000" font-family="sans-serif" font-size="11" lengthAdjust="spacing" textLength="50" x="263" y="90.0908">setTest(tt)</text><!--MD5=[02e4b9b7573f1156f41e60aa5b4e25a4]
class Company--><rect codeLine="12" fill="#FEFECE" filter="url(#fzvnqp8ea9ucp)" height="89.5078" id="Company" style="stroke:#A80036;stroke-width:1.5;" width="111" x="7" y="220"/><ellipse cx="33.7" cy="236" fill="#ADD1B2" rx="11" ry="11" style="stroke:#A80036;stroke-width:1.0;"/><path d="M35.7,232.5 Q35.9031,232 36.1375,231.75 Q36.3719,231.5 36.6375,231.5 Q37.1063,231.5 37.4031,231.7813 Q37.7,232.0625 37.7,232.7188 L37.7,234.2813 Q37.7,234.9375 37.4188,235.2188 Q37.1375,235.5 36.7,235.5 Q36.3094,235.5 36.0594,235.3281 Q35.8094,235.1563 35.7,234.7031 Q35.6531,234.3906 35.4813,234.2188 Q35.1688,233.8906 34.6063,233.7031 Q34.0438,233.5 33.4813,233.5 Q32.7781,233.5 32.1844,233.7813 Q31.6063,234.0625 31.1531,234.6875 Q30.7,235.3125 30.7,236.1719 L30.7,237.0938 Q30.7,238.125 31.5438,238.8125 Q32.3875,239.5 33.8875,239.5 Q34.7781,239.5 35.4031,239.2969 Q35.7625,239.1875 36.1688,238.8281 Q36.4344,238.625 36.575,238.5625 Q36.7156,238.5 36.8875,238.5 Q37.2156,238.5 37.45,238.7656 Q37.7,239.0156 37.7,239.375 Q37.7,239.7188 37.3563,240.125 Q36.8563,240.7188 36.0594,241.0469 Q35.0125,241.5 33.7313,241.5 Q32.2313,241.5 31.0281,240.9063 Q30.0594,240.4375 29.3719,239.4219 Q28.7,238.4063 28.7,237.2031 L28.7,236.1094 Q28.7,234.8594 29.2938,233.7656 Q29.9031,232.6719 30.95,232.0938 Q32.0125,231.5 33.2,231.5 Q33.9188,231.5 34.5438,231.75 Q35.1688,232 35.7,232.5 Z " fill="#000000"/><text fill="#000000" font-family="sans-serif" font-size="12" lengthAdjust="spacing" textLength="53" x="50.3" y="240.9102">Company</text><line style="stroke:#A80036;stroke-width:1.5;" x1="8" x2="117" y1="252" y2="252"/><rect fill="none" height="6" style="stroke:#C82930;stroke-width:1.0;" width="6" x="15" y="260"/><text fill="#000000" font-family="sans-serif" font-size="11" lengthAdjust="spacing" textLength="55" x="27" y="267.4189">designation</text><line style="stroke:#A80036;stroke-width:1.5;" x1="8" x2="117" y1="273.8359" y2="273.8359"/><ellipse cx="18" cy="284.8359" fill="#84BE84" rx="3" ry="3" style="stroke:#038048;stroke-width:1.0;"/><text fill="#000000" font-family="sans-serif" font-size="11" lengthAdjust="spacing" textLength="85" x="27" y="289.2549">getTestTypeList()</text><ellipse cx="18" cy="298.6719" fill="#84BE84" rx="3" ry="3" style="stroke:#038048;stroke-width:1.0;"/><text fill="#000000" font-family="sans-serif" font-size="11" lengthAdjust="spacing" textLength="41" x="27" y="303.0908">getLab()</text><!--MD5=[1934a092c0e7d4da7dc7075b6f4b6b03]
class ClinicalAnalysisLaboratory--><rect codeLine="17" fill="#FEFECE" filter="url(#fzvnqp8ea9ucp)" height="200.1953" id="ClinicalAnalysisLaboratory" style="stroke:#A80036;stroke-width:1.5;" width="204" x="166.5" y="388"/><ellipse cx="193.65" cy="404" fill="#ADD1B2" rx="11" ry="11" style="stroke:#A80036;stroke-width:1.0;"/><path d="M195.65,400.5 Q195.8531,400 196.0875,399.75 Q196.3219,399.5 196.5875,399.5 Q197.0563,399.5 197.3531,399.7813 Q197.65,400.0625 197.65,400.7188 L197.65,402.2813 Q197.65,402.9375 197.3688,403.2188 Q197.0875,403.5 196.65,403.5 Q196.2594,403.5 196.0094,403.3281 Q195.7594,403.1563 195.65,402.7031 Q195.6031,402.3906 195.4313,402.2188 Q195.1188,401.8906 194.5563,401.7031 Q193.9938,401.5 193.4313,401.5 Q192.7281,401.5 192.1344,401.7813 Q191.5563,402.0625 191.1031,402.6875 Q190.65,403.3125 190.65,404.1719 L190.65,405.0938 Q190.65,406.125 191.4938,406.8125 Q192.3375,407.5 193.8375,407.5 Q194.7281,407.5 195.3531,407.2969 Q195.7125,407.1875 196.1188,406.8281 Q196.3844,406.625 196.525,406.5625 Q196.6656,406.5 196.8375,406.5 Q197.1656,406.5 197.4,406.7656 Q197.65,407.0156 197.65,407.375 Q197.65,407.7188 197.3063,408.125 Q196.8063,408.7188 196.0094,409.0469 Q194.9625,409.5 193.6813,409.5 Q192.1813,409.5 190.9781,408.9063 Q190.0094,408.4375 189.3219,407.4219 Q188.65,406.4063 188.65,405.2031 L188.65,404.1094 Q188.65,402.8594 189.2438,401.7656 Q189.8531,400.6719 190.9,400.0938 Q191.9625,399.5 193.15,399.5 Q193.8688,399.5 194.4938,399.75 Q195.1188,400 195.65,400.5 Z " fill="#000000"/><text fill="#000000" font-family="sans-serif" font-size="12" lengthAdjust="spacing" textLength="145" x="210.35" y="408.9102">ClinicalAnalysisLaboratory</text><line style="stroke:#A80036;stroke-width:1.5;" x1="167.5" x2="369.5" y1="420" y2="420"/><rect fill="none" height="6" style="stroke:#C82930;stroke-width:1.0;" width="6" x="174.5" y="428"/><text fill="#000000" font-family="sans-serif" font-size="11" lengthAdjust="spacing" textLength="57" x="186.5" y="435.4189">String name</text><rect fill="none" height="6" style="stroke:#C82930;stroke-width:1.0;" width="6" x="174.5" y="441.8359"/><text fill="#000000" font-family="sans-serif" font-size="11" lengthAdjust="spacing" textLength="71" x="186.5" y="449.2549">String address</text><rect fill="none" height="6" style="stroke:#C82930;stroke-width:1.0;" width="6" x="174.5" y="455.6719"/><text fill="#000000" font-family="sans-serif" font-size="11" lengthAdjust="spacing" textLength="89" x="186.5" y="463.0908">long phonenumber</text><rect fill="none" height="6" style="stroke:#C82930;stroke-width:1.0;" width="6" x="174.5" y="469.5078"/><text fill="#000000" font-family="sans-serif" font-size="11" lengthAdjust="spacing" textLength="38" x="186.5" y="476.9268">long TIN</text><rect fill="none" height="6" style="stroke:#C82930;stroke-width:1.0;" width="6" x="174.5" y="483.3438"/><text fill="#000000" font-family="sans-serif" font-size="11" lengthAdjust="spacing" textLength="89" x="186.5" y="490.7627">String laboratoryID</text><rect fill="none" height="6" style="stroke:#C82930;stroke-width:1.0;" width="6" x="174.5" y="497.1797"/><text fill="#000000" font-family="sans-serif" font-size="11" lengthAdjust="spacing" textLength="54" x="186.5" y="504.5986">TestType tt</text><line style="stroke:#A80036;stroke-width:1.5;" x1="167.5" x2="369.5" y1="511.0156" y2="511.0156"/><ellipse cx="177.5" cy="522.0156" fill="#84BE84" rx="3" ry="3" style="stroke:#038048;stroke-width:1.0;"/><text fill="#000000" font-family="sans-serif" font-size="11" lengthAdjust="spacing" textLength="98" x="186.5" y="526.4346">validateName(name)</text><ellipse cx="177.5" cy="535.8516" fill="#84BE84" rx="3" ry="3" style="stroke:#038048;stroke-width:1.0;"/><text fill="#000000" font-family="sans-serif" font-size="11" lengthAdjust="spacing" textLength="127" x="186.5" y="540.2705">validateAddress(address)</text><ellipse cx="177.5" cy="549.6875" fill="#84BE84" rx="3" ry="3" style="stroke:#038048;stroke-width:1.0;"/><text fill="#000000" font-family="sans-serif" font-size="11" lengthAdjust="spacing" textLength="178" x="186.5" y="554.1064">validatePhoneNumber(phonenumber)</text><ellipse cx="177.5" cy="563.5234" fill="#84BE84" rx="3" ry="3" style="stroke:#038048;stroke-width:1.0;"/><text fill="#000000" font-family="sans-serif" font-size="11" lengthAdjust="spacing" textLength="75" x="186.5" y="567.9424">validateTIN(TIN)</text><ellipse cx="177.5" cy="577.3594" fill="#84BE84" rx="3" ry="3" style="stroke:#038048;stroke-width:1.0;"/><text fill="#000000" font-family="sans-serif" font-size="11" lengthAdjust="spacing" textLength="130" x="186.5" y="581.7783">validateLabID(laboratoryID)</text><!--MD5=[aeb3272166074d8737a70b61b1e71682]
class TestType--><rect codeLine="30" fill="#FEFECE" filter="url(#fzvnqp8ea9ucp)" height="48" id="TestType" style="stroke:#A80036;stroke-width:1.5;" width="82" x="51.5" y="666"/><ellipse cx="66.5" cy="682" fill="#ADD1B2" rx="11" ry="11" style="stroke:#A80036;stroke-width:1.0;"/><path d="M68.5,678.5 Q68.7031,678 68.9375,677.75 Q69.1719,677.5 69.4375,677.5 Q69.9063,677.5 70.2031,677.7813 Q70.5,678.0625 70.5,678.7188 L70.5,680.2813 Q70.5,680.9375 70.2188,681.2188 Q69.9375,681.5 69.5,681.5 Q69.1094,681.5 68.8594,681.3281 Q68.6094,681.1563 68.5,680.7031 Q68.4531,680.3906 68.2813,680.2188 Q67.9688,679.8906 67.4063,679.7031 Q66.8438,679.5 66.2813,679.5 Q65.5781,679.5 64.9844,679.7813 Q64.4063,680.0625 63.9531,680.6875 Q63.5,681.3125 63.5,682.1719 L63.5,683.0938 Q63.5,684.125 64.3438,684.8125 Q65.1875,685.5 66.6875,685.5 Q67.5781,685.5 68.2031,685.2969 Q68.5625,685.1875 68.9688,684.8281 Q69.2344,684.625 69.375,684.5625 Q69.5156,684.5 69.6875,684.5 Q70.0156,684.5 70.25,684.7656 Q70.5,685.0156 70.5,685.375 Q70.5,685.7188 70.1563,686.125 Q69.6563,686.7188 68.8594,687.0469 Q67.8125,687.5 66.5313,687.5 Q65.0313,687.5 63.8281,686.9063 Q62.8594,686.4375 62.1719,685.4219 Q61.5,684.4063 61.5,683.2031 L61.5,682.1094 Q61.5,680.8594 62.0938,679.7656 Q62.7031,678.6719 63.75,678.0938 Q64.8125,677.5 66,677.5 Q66.7188,677.5 67.3438,677.75 Q67.9688,678 68.5,678.5 Z " fill="#000000"/><text fill="#000000" font-family="sans-serif" font-size="12" lengthAdjust="spacing" textLength="50" x="80.5" y="686.9102">TestType</text><line style="stroke:#A80036;stroke-width:1.5;" x1="52.5" x2="132.5" y1="698" y2="698"/><line style="stroke:#A80036;stroke-width:1.5;" x1="52.5" x2="132.5" y1="706" y2="706"/><!--MD5=[27be24e0cb01554cb3c2627dfc812ad2]
link Administrator to RegisterNewLabUI--><path codeLine="32" d="M255.33,240.99 C234.83,207.73 196.44,145.41 169.49,101.67 " fill="none" id="Administrator-to-RegisterNewLabUI" style="stroke:#A80036;stroke-width:1.0;stroke-dasharray:7.0,7.0;"/><polygon fill="#A80036" points="166.75,97.23,168.0895,106.9873,169.3833,101.4804,174.8902,102.7741,166.75,97.23" style="stroke:#A80036;stroke-width:1.0;"/><!--MD5=[f648d3b7786d5b13dfae011d71e71901]
link RegisterNewLabUI to RegisterNewLabController--><path codeLine="33" d="M208.18,52 C218.01,52 227.85,52 237.68,52 " fill="none" id="RegisterNewLabUI-to-RegisterNewLabController" style="stroke:#A80036;stroke-width:1.0;stroke-dasharray:7.0,7.0;"/><polygon fill="#A80036" points="242.82,52,233.82,48,237.82,52,233.82,56,242.82,52" style="stroke:#A80036;stroke-width:1.0;"/><!--MD5=[e82fc9030b35447b434fc929e8873160]
reverse link RegisterNewLabController to Company--><path codeLine="34" d="M305.51,100.18 C248.95,138.31 170.41,191.26 118.09,226.53 " fill="none" id="RegisterNewLabController-backto-Company" style="stroke:#A80036;stroke-width:1.0;stroke-dasharray:7.0,7.0;"/><polygon fill="#A80036" points="309.88,97.23,300.1835,98.9556,305.7374,100.0298,304.6632,105.5837,309.88,97.23" style="stroke:#A80036;stroke-width:1.0;"/><!--MD5=[613a3a29fea84c1577ed79fb3aabb60f]
link RegisterNewLabController to ClinicalAnalysisLaboratory--><path codeLine="35" d="M376.34,97.11 C376.24,157.49 371.56,268.6 342.5,358 C339.77,366.39 336.45,374.84 332.75,383.18 " fill="none" id="RegisterNewLabController-to-ClinicalAnalysisLaboratory" style="stroke:#A80036;stroke-width:1.0;stroke-dasharray:7.0,7.0;"/><polygon fill="#A80036" points="330.66,387.81,338.0087,381.2528,332.7172,383.2528,330.7171,377.9613,330.66,387.81" style="stroke:#A80036;stroke-width:1.0;"/><!--MD5=[aafc5d8a5829a6a8d6dc892cb1ff5d24]
link Company to ClinicalAnalysisLaboratory--><path codeLine="36" d="M103.69,310.19 C124.47,332.49 150.58,360.5 175.85,387.61 " fill="none" id="Company-ClinicalAnalysisLaboratory" style="stroke:#A80036;stroke-width:1.0;"/><polygon fill="#000000" points="155.9091,352.8334,151.8919,344.2129,147.5921,348.2205,155.9091,352.8334" style="stroke:#000000;stroke-width:1.0;"/><text fill="#000000" font-family="sans-serif" font-size="13" lengthAdjust="spacing" textLength="30" x="161.5" y="354.4951">owns</text><text fill="#000000" font-family="sans-serif" font-size="13" lengthAdjust="spacing" textLength="7" x="101.7546" y="330.8892">1</text><text fill="#000000" font-family="sans-serif" font-size="13" lengthAdjust="spacing" textLength="20" x="148.3116" y="377.151">1..*</text><!--MD5=[23b8a99c177c2cd6d714b2cbaa81b3c4]
link Administrator to ClinicalAnalysisLaboratory--><path codeLine="37" d="M269.39,289.23 C269.29,312.89 269.11,351.21 268.95,387.85 " fill="none" id="Administrator-ClinicalAnalysisLaboratory" style="stroke:#A80036;stroke-width:1.0;"/><polygon fill="#000000" points="274.4777,354.1757,277.4569,345.1438,271.5792,345.1176,274.4777,354.1757" style="stroke:#000000;stroke-width:1.0;"/><text fill="#000000" font-family="sans-serif" font-size="13" lengthAdjust="spacing" textLength="50" x="283.5" y="354.4951">registers</text><text fill="#000000" font-family="sans-serif" font-size="13" lengthAdjust="spacing" textLength="7" x="257.0226" y="310.624">1</text><text fill="#000000" font-family="sans-serif" font-size="13" lengthAdjust="spacing" textLength="20" x="244.0657" y="377.0709">1..*</text><!--MD5=[2eb961b30663a01bbfd8b4b9b8950031]
link ClinicalAnalysisLaboratory to TestType--><path codeLine="38" d="M181.27,588.12 C155.69,617.2 130.01,646.37 112.91,665.81 " fill="none" id="ClinicalAnalysisLaboratory-TestType" style="stroke:#A80036;stroke-width:1.0;"/><polygon fill="#000000" points="156.1971,630.9295,164.3785,626.0804,159.9657,622.1975,156.1971,630.9295" style="stroke:#000000;stroke-width:1.0;"/><text fill="#000000" font-family="sans-serif" font-size="13" lengthAdjust="spacing" textLength="50" x="168.5" y="632.4951">performs</text><text fill="#000000" font-family="sans-serif" font-size="13" lengthAdjust="spacing" textLength="19" x="151.0195" y="609.5609">1   ‎</text><text fill="#000000" font-family="sans-serif" font-size="13" lengthAdjust="spacing" textLength="20" x="95.5776" y="655.1015">1..*</text><!--MD5=[742a261f27a3dcd734c626287d811acd]
link Company to TestType--><path codeLine="39" d="M64.09,310.07 C66.53,372.15 71.85,488.85 80.5,588 C82.83,614.74 86.63,645.33 89.32,665.78 " fill="none" id="Company-TestType" style="stroke:#A80036;stroke-width:1.0;"/><polygon fill="#000000" points="85.8538,493.1633,88.1454,483.9329,82.2822,484.3488,85.8538,493.1633" style="stroke:#000000;stroke-width:1.0;"/><text fill="#000000" font-family="sans-serif" font-size="13" lengthAdjust="spacing" textLength="53" x="94.5" y="493.4951">conducts</text><text fill="#000000" font-family="sans-serif" font-size="13" lengthAdjust="spacing" textLength="7" x="52.2589" y="331.0874">1</text><text fill="#000000" font-family="sans-serif" font-size="13" lengthAdjust="spacing" textLength="5" x="77.8395" y="655.0638">*</text><!--MD5=[eaea43e34e45c5b9d20b595fc78f1f20]
link Company to Administrator--><path codeLine="40" d="M118.24,265 C148.9,265 186.71,265 216.86,265 " fill="none" id="Company-Administrator" style="stroke:#A80036;stroke-width:1.0;"/><polygon fill="#000000" points="145.5,253.1758,136.4549,250.2369,136.4549,256.1147,145.5,253.1758" style="stroke:#000000;stroke-width:1.0;"/><text fill="#000000" font-family="sans-serif" font-size="13" lengthAdjust="spacing" textLength="49" x="149.5" y="258.4951">employs</text><text fill="#000000" font-family="sans-serif" font-size="13" lengthAdjust="spacing" textLength="19" x="126.1911" y="279.5215">1   ‎</text><text fill="#000000" font-family="sans-serif" font-size="13" lengthAdjust="spacing" textLength="20" x="188.8343" y="279.5426">1..*</text><!--MD5=[bd3f766a9c2771b1421000b34ecdb1c2]
@startuml
class Administrator
class RegisterNewLabUI{
+setData()
+setTestType()
+confirmation()
}
class RegisterNewLabController {
+registerNewLab()
+setData(name, address, phonenumber, TIN, labID)
+setTest(tt)
}
class Company {
-designation
+getTestTypeList()
+getLab()
}
class ClinicalAnalysisLaboratory {
-String name
-String address
-long phonenumber
-long TIN
-String laboratoryID
-TestType tt
+validateName(name)
+validateAddress(address)
+validatePhoneNumber(phonenumber)
+validateTIN(TIN)
+validateLabID(laboratoryID)
}
class TestType

Administrator ..> RegisterNewLabUI
RegisterNewLabUI .> RegisterNewLabController
RegisterNewLabController <... Company
RegisterNewLabController .> ClinicalAnalysisLaboratory
Company"1"- -"1..*"ClinicalAnalysisLaboratory : > owns
Administrator"1 "-"1..* "ClinicalAnalysisLaboratory : > registers
ClinicalAnalysisLaboratory"1   ‎ "- -"1..*"TestType : > performs
Company" 1 "-" * "TestType : > conducts
Company"1   ‎"-"1..*"Administrator : > employs
@enduml

PlantUML version 1.2021.4(Sun Apr 04 09:49:39 BST 2021)
(GPL source distribution)
Java Runtime: OpenJDK Runtime Environment
JVM: OpenJDK 64-Bit Server VM
Default Encoding: Cp1252
Language: en
Country: US
--></g></svg>