<?xml version="1.0" encoding="UTF-8" standalone="no"?><svg xmlns="http://www.w3.org/2000/svg" xmlns:xlink="http://www.w3.org/1999/xlink" contentScriptType="application/ecmascript" contentStyleType="text/css" height="699px" preserveAspectRatio="none" style="width:655px;height:699px;" version="1.1" viewBox="0 0 655 699" width="655px" zoomAndPan="magnify"><defs><filter height="300%" id="f13565z7f31xyz" width="300%" x="-1" y="-1"><feGaussianBlur result="blurOut" stdDeviation="2.0"/><feColorMatrix in="blurOut" result="blurOut2" type="matrix" values="0 0 0 0 0 0 0 0 0 0 0 0 0 0 0 0 0 0 .4 0"/><feOffset dx="4.0" dy="4.0" in="blurOut2" result="blurOut3"/><feBlend in="SourceGraphic" in2="blurOut3" mode="normal"/></filter></defs><g><!--MD5=[da547346deef918ea16944ba046651ef]
class Administrator--><rect codeLine="1" fill="#FEFECE" filter="url(#f13565z7f31xyz)" height="48" id="Administrator" style="stroke:#A80036;stroke-width:1.5;" width="105" x="363" y="233"/><ellipse cx="378" cy="249" fill="#ADD1B2" rx="11" ry="11" style="stroke:#A80036;stroke-width:1.0;"/><path d="M380,245.5 Q380.2031,245 380.4375,244.75 Q380.6719,244.5 380.9375,244.5 Q381.4063,244.5 381.7031,244.7813 Q382,245.0625 382,245.7188 L382,247.2813 Q382,247.9375 381.7188,248.2188 Q381.4375,248.5 381,248.5 Q380.6094,248.5 380.3594,248.3281 Q380.1094,248.1563 380,247.7031 Q379.9531,247.3906 379.7813,247.2188 Q379.4688,246.8906 378.9063,246.7031 Q378.3438,246.5 377.7813,246.5 Q377.0781,246.5 376.4844,246.7813 Q375.9063,247.0625 375.4531,247.6875 Q375,248.3125 375,249.1719 L375,250.0938 Q375,251.125 375.8438,251.8125 Q376.6875,252.5 378.1875,252.5 Q379.0781,252.5 379.7031,252.2969 Q380.0625,252.1875 380.4688,251.8281 Q380.7344,251.625 380.875,251.5625 Q381.0156,251.5 381.1875,251.5 Q381.5156,251.5 381.75,251.7656 Q382,252.0156 382,252.375 Q382,252.7188 381.6563,253.125 Q381.1563,253.7188 380.3594,254.0469 Q379.3125,254.5 378.0313,254.5 Q376.5313,254.5 375.3281,253.9063 Q374.3594,253.4375 373.6719,252.4219 Q373,251.4063 373,250.2031 L373,249.1094 Q373,247.8594 373.5938,246.7656 Q374.2031,245.6719 375.25,245.0938 Q376.3125,244.5 377.5,244.5 Q378.2188,244.5 378.8438,244.75 Q379.4688,245 380,245.5 Z " fill="#000000"/><text fill="#000000" font-family="sans-serif" font-size="12" lengthAdjust="spacing" textLength="73" x="392" y="253.9102">Administrator</text><line style="stroke:#A80036;stroke-width:1.5;" x1="364" x2="467" y1="265" y2="265"/><line style="stroke:#A80036;stroke-width:1.5;" x1="364" x2="467" y1="273" y2="273"/><!--MD5=[d6324c9bf9c7eae2f422c26412a96264]
class newLabUI--><rect codeLine="2" fill="#FEFECE" filter="url(#f13565z7f31xyz)" height="75.6719" id="newLabUI" style="stroke:#A80036;stroke-width:1.5;" width="299" x="7" y="20.5"/><ellipse cx="124.25" cy="36.5" fill="#ADD1B2" rx="11" ry="11" style="stroke:#A80036;stroke-width:1.0;"/><path d="M126.25,33 Q126.4531,32.5 126.6875,32.25 Q126.9219,32 127.1875,32 Q127.6563,32 127.9531,32.2813 Q128.25,32.5625 128.25,33.2188 L128.25,34.7813 Q128.25,35.4375 127.9688,35.7188 Q127.6875,36 127.25,36 Q126.8594,36 126.6094,35.8281 Q126.3594,35.6563 126.25,35.2031 Q126.2031,34.8906 126.0313,34.7188 Q125.7188,34.3906 125.1563,34.2031 Q124.5938,34 124.0313,34 Q123.3281,34 122.7344,34.2813 Q122.1563,34.5625 121.7031,35.1875 Q121.25,35.8125 121.25,36.6719 L121.25,37.5938 Q121.25,38.625 122.0938,39.3125 Q122.9375,40 124.4375,40 Q125.3281,40 125.9531,39.7969 Q126.3125,39.6875 126.7188,39.3281 Q126.9844,39.125 127.125,39.0625 Q127.2656,39 127.4375,39 Q127.7656,39 128,39.2656 Q128.25,39.5156 128.25,39.875 Q128.25,40.2188 127.9063,40.625 Q127.4063,41.2188 126.6094,41.5469 Q125.5625,42 124.2813,42 Q122.7813,42 121.5781,41.4063 Q120.6094,40.9375 119.9219,39.9219 Q119.25,38.9063 119.25,37.7031 L119.25,36.6094 Q119.25,35.3594 119.8438,34.2656 Q120.4531,33.1719 121.5,32.5938 Q122.5625,32 123.75,32 Q124.4688,32 125.0938,32.25 Q125.7188,32.5 126.25,33 Z " fill="#000000"/><text fill="#000000" font-family="sans-serif" font-size="12" lengthAdjust="spacing" textLength="56" x="144.75" y="41.4102">newLabUI</text><line style="stroke:#A80036;stroke-width:1.5;" x1="8" x2="305" y1="52.5" y2="52.5"/><line style="stroke:#A80036;stroke-width:1.5;" x1="8" x2="305" y1="60.5" y2="60.5"/><ellipse cx="18" cy="71.5" fill="#84BE84" rx="3" ry="3" style="stroke:#038048;stroke-width:1.0;"/><text fill="#000000" font-family="sans-serif" font-size="11" lengthAdjust="spacing" textLength="273" x="27" y="75.9189">LabInfo(name, address, phonenumber, TIN, laboratoryID)</text><ellipse cx="18" cy="85.3359" fill="#84BE84" rx="3" ry="3" style="stroke:#038048;stroke-width:1.0;"/><text fill="#000000" font-family="sans-serif" font-size="11" lengthAdjust="spacing" textLength="65" x="27" y="89.7549">TestTypes(tt)</text><!--MD5=[ff9d8dafaba65710efbe0213e2d0bf9a]
class newLabController--><rect codeLine="6" fill="#FEFECE" filter="url(#f13565z7f31xyz)" height="103.3438" id="newLabController" style="stroke:#A80036;stroke-width:1.5;" width="300" x="341.5" y="7"/><ellipse cx="438.25" cy="23" fill="#ADD1B2" rx="11" ry="11" style="stroke:#A80036;stroke-width:1.0;"/><path d="M440.25,19.5 Q440.4531,19 440.6875,18.75 Q440.9219,18.5 441.1875,18.5 Q441.6563,18.5 441.9531,18.7813 Q442.25,19.0625 442.25,19.7188 L442.25,21.2813 Q442.25,21.9375 441.9688,22.2188 Q441.6875,22.5 441.25,22.5 Q440.8594,22.5 440.6094,22.3281 Q440.3594,22.1563 440.25,21.7031 Q440.2031,21.3906 440.0313,21.2188 Q439.7188,20.8906 439.1563,20.7031 Q438.5938,20.5 438.0313,20.5 Q437.3281,20.5 436.7344,20.7813 Q436.1563,21.0625 435.7031,21.6875 Q435.25,22.3125 435.25,23.1719 L435.25,24.0938 Q435.25,25.125 436.0938,25.8125 Q436.9375,26.5 438.4375,26.5 Q439.3281,26.5 439.9531,26.2969 Q440.3125,26.1875 440.7188,25.8281 Q440.9844,25.625 441.125,25.5625 Q441.2656,25.5 441.4375,25.5 Q441.7656,25.5 442,25.7656 Q442.25,26.0156 442.25,26.375 Q442.25,26.7188 441.9063,27.125 Q441.4063,27.7188 440.6094,28.0469 Q439.5625,28.5 438.2813,28.5 Q436.7813,28.5 435.5781,27.9063 Q434.6094,27.4375 433.9219,26.4219 Q433.25,25.4063 433.25,24.2031 L433.25,23.1094 Q433.25,21.8594 433.8438,20.7656 Q434.4531,19.6719 435.5,19.0938 Q436.5625,18.5 437.75,18.5 Q438.4688,18.5 439.0938,18.75 Q439.7188,19 440.25,19.5 Z " fill="#000000"/><text fill="#000000" font-family="sans-serif" font-size="12" lengthAdjust="spacing" textLength="98" x="458.75" y="27.9102">newLabController</text><line style="stroke:#A80036;stroke-width:1.5;" x1="342.5" x2="640.5" y1="39" y2="39"/><line style="stroke:#A80036;stroke-width:1.5;" x1="342.5" x2="640.5" y1="47" y2="47"/><ellipse cx="352.5" cy="58" fill="#84BE84" rx="3" ry="3" style="stroke:#038048;stroke-width:1.0;"/><text fill="#000000" font-family="sans-serif" font-size="11" lengthAdjust="spacing" textLength="57" x="361.5" y="62.4189">createLab()</text><ellipse cx="352.5" cy="71.8359" fill="#84BE84" rx="3" ry="3" style="stroke:#038048;stroke-width:1.0;"/><text fill="#000000" font-family="sans-serif" font-size="11" lengthAdjust="spacing" textLength="274" x="361.5" y="76.2549">setData(name, address, phonenumber, TIN, laboratoryID)</text><ellipse cx="352.5" cy="85.6719" fill="#84BE84" rx="3" ry="3" style="stroke:#038048;stroke-width:1.0;"/><text fill="#000000" font-family="sans-serif" font-size="11" lengthAdjust="spacing" textLength="50" x="361.5" y="90.0908">setTest(tt)</text><ellipse cx="352.5" cy="99.5078" fill="#84BE84" rx="3" ry="3" style="stroke:#038048;stroke-width:1.0;"/><text fill="#000000" font-family="sans-serif" font-size="11" lengthAdjust="spacing" textLength="54" x="361.5" y="103.9268">saveData()</text><!--MD5=[02e4b9b7573f1156f41e60aa5b4e25a4]
class Company--><rect codeLine="12" fill="#FEFECE" filter="url(#f13565z7f31xyz)" height="48" id="Company" style="stroke:#A80036;stroke-width:1.5;" width="85" x="179" y="233"/><ellipse cx="194" cy="249" fill="#ADD1B2" rx="11" ry="11" style="stroke:#A80036;stroke-width:1.0;"/><path d="M196,245.5 Q196.2031,245 196.4375,244.75 Q196.6719,244.5 196.9375,244.5 Q197.4063,244.5 197.7031,244.7813 Q198,245.0625 198,245.7188 L198,247.2813 Q198,247.9375 197.7188,248.2188 Q197.4375,248.5 197,248.5 Q196.6094,248.5 196.3594,248.3281 Q196.1094,248.1563 196,247.7031 Q195.9531,247.3906 195.7813,247.2188 Q195.4688,246.8906 194.9063,246.7031 Q194.3438,246.5 193.7813,246.5 Q193.0781,246.5 192.4844,246.7813 Q191.9063,247.0625 191.4531,247.6875 Q191,248.3125 191,249.1719 L191,250.0938 Q191,251.125 191.8438,251.8125 Q192.6875,252.5 194.1875,252.5 Q195.0781,252.5 195.7031,252.2969 Q196.0625,252.1875 196.4688,251.8281 Q196.7344,251.625 196.875,251.5625 Q197.0156,251.5 197.1875,251.5 Q197.5156,251.5 197.75,251.7656 Q198,252.0156 198,252.375 Q198,252.7188 197.6563,253.125 Q197.1563,253.7188 196.3594,254.0469 Q195.3125,254.5 194.0313,254.5 Q192.5313,254.5 191.3281,253.9063 Q190.3594,253.4375 189.6719,252.4219 Q189,251.4063 189,250.2031 L189,249.1094 Q189,247.8594 189.5938,246.7656 Q190.2031,245.6719 191.25,245.0938 Q192.3125,244.5 193.5,244.5 Q194.2188,244.5 194.8438,244.75 Q195.4688,245 196,245.5 Z " fill="#000000"/><text fill="#000000" font-family="sans-serif" font-size="12" lengthAdjust="spacing" textLength="53" x="208" y="253.9102">Company</text><line style="stroke:#A80036;stroke-width:1.5;" x1="180" x2="263" y1="265" y2="265"/><line style="stroke:#A80036;stroke-width:1.5;" x1="180" x2="263" y1="273" y2="273"/><!--MD5=[1934a092c0e7d4da7dc7075b6f4b6b03]
class ClinicalAnalysisLaboratory--><rect codeLine="13" fill="#FEFECE" filter="url(#f13565z7f31xyz)" height="200.1953" id="ClinicalAnalysisLaboratory" style="stroke:#A80036;stroke-width:1.5;" width="204" x="316.5" y="359"/><ellipse cx="343.65" cy="375" fill="#ADD1B2" rx="11" ry="11" style="stroke:#A80036;stroke-width:1.0;"/><path d="M345.65,371.5 Q345.8531,371 346.0875,370.75 Q346.3219,370.5 346.5875,370.5 Q347.0563,370.5 347.3531,370.7813 Q347.65,371.0625 347.65,371.7188 L347.65,373.2813 Q347.65,373.9375 347.3688,374.2188 Q347.0875,374.5 346.65,374.5 Q346.2594,374.5 346.0094,374.3281 Q345.7594,374.1563 345.65,373.7031 Q345.6031,373.3906 345.4313,373.2188 Q345.1188,372.8906 344.5563,372.7031 Q343.9938,372.5 343.4313,372.5 Q342.7281,372.5 342.1344,372.7813 Q341.5563,373.0625 341.1031,373.6875 Q340.65,374.3125 340.65,375.1719 L340.65,376.0938 Q340.65,377.125 341.4938,377.8125 Q342.3375,378.5 343.8375,378.5 Q344.7281,378.5 345.3531,378.2969 Q345.7125,378.1875 346.1188,377.8281 Q346.3844,377.625 346.525,377.5625 Q346.6656,377.5 346.8375,377.5 Q347.1656,377.5 347.4,377.7656 Q347.65,378.0156 347.65,378.375 Q347.65,378.7188 347.3063,379.125 Q346.8063,379.7188 346.0094,380.0469 Q344.9625,380.5 343.6813,380.5 Q342.1813,380.5 340.9781,379.9063 Q340.0094,379.4375 339.3219,378.4219 Q338.65,377.4063 338.65,376.2031 L338.65,375.1094 Q338.65,373.8594 339.2438,372.7656 Q339.8531,371.6719 340.9,371.0938 Q341.9625,370.5 343.15,370.5 Q343.8688,370.5 344.4938,370.75 Q345.1188,371 345.65,371.5 Z " fill="#000000"/><text fill="#000000" font-family="sans-serif" font-size="12" lengthAdjust="spacing" textLength="145" x="360.35" y="379.9102">ClinicalAnalysisLaboratory</text><line style="stroke:#A80036;stroke-width:1.5;" x1="317.5" x2="519.5" y1="391" y2="391"/><rect fill="none" height="6" style="stroke:#C82930;stroke-width:1.0;" width="6" x="324.5" y="399"/><text fill="#000000" font-family="sans-serif" font-size="11" lengthAdjust="spacing" textLength="57" x="336.5" y="406.4189">String name</text><rect fill="none" height="6" style="stroke:#C82930;stroke-width:1.0;" width="6" x="324.5" y="412.8359"/><text fill="#000000" font-family="sans-serif" font-size="11" lengthAdjust="spacing" textLength="71" x="336.5" y="420.2549">String address</text><rect fill="none" height="6" style="stroke:#C82930;stroke-width:1.0;" width="6" x="324.5" y="426.6719"/><text fill="#000000" font-family="sans-serif" font-size="11" lengthAdjust="spacing" textLength="80" x="336.5" y="434.0908">int phonenumber</text><rect fill="none" height="6" style="stroke:#C82930;stroke-width:1.0;" width="6" x="324.5" y="440.5078"/><text fill="#000000" font-family="sans-serif" font-size="11" lengthAdjust="spacing" textLength="29" x="336.5" y="447.9268">int TIN</text><rect fill="none" height="6" style="stroke:#C82930;stroke-width:1.0;" width="6" x="324.5" y="454.3438"/><text fill="#000000" font-family="sans-serif" font-size="11" lengthAdjust="spacing" textLength="89" x="336.5" y="461.7627">String laboratoryID</text><rect fill="none" height="6" style="stroke:#C82930;stroke-width:1.0;" width="6" x="324.5" y="468.1797"/><text fill="#000000" font-family="sans-serif" font-size="11" lengthAdjust="spacing" textLength="54" x="336.5" y="475.5986">TestType tt</text><line style="stroke:#A80036;stroke-width:1.5;" x1="317.5" x2="519.5" y1="482.0156" y2="482.0156"/><ellipse cx="327.5" cy="493.0156" fill="#84BE84" rx="3" ry="3" style="stroke:#038048;stroke-width:1.0;"/><text fill="#000000" font-family="sans-serif" font-size="11" lengthAdjust="spacing" textLength="98" x="336.5" y="497.4346">validateName(name)</text><ellipse cx="327.5" cy="506.8516" fill="#84BE84" rx="3" ry="3" style="stroke:#038048;stroke-width:1.0;"/><text fill="#000000" font-family="sans-serif" font-size="11" lengthAdjust="spacing" textLength="127" x="336.5" y="511.2705">validateAddress(address)</text><ellipse cx="327.5" cy="520.6875" fill="#84BE84" rx="3" ry="3" style="stroke:#038048;stroke-width:1.0;"/><text fill="#000000" font-family="sans-serif" font-size="11" lengthAdjust="spacing" textLength="178" x="336.5" y="525.1064">validatePhoneNumber(phonenumber)</text><ellipse cx="327.5" cy="534.5234" fill="#84BE84" rx="3" ry="3" style="stroke:#038048;stroke-width:1.0;"/><text fill="#000000" font-family="sans-serif" font-size="11" lengthAdjust="spacing" textLength="75" x="336.5" y="538.9424">validateTIN(TIN)</text><ellipse cx="327.5" cy="548.3594" fill="#84BE84" rx="3" ry="3" style="stroke:#038048;stroke-width:1.0;"/><text fill="#000000" font-family="sans-serif" font-size="11" lengthAdjust="spacing" textLength="130" x="336.5" y="552.7783">validateLabID(laboratoryID)</text><!--MD5=[aeb3272166074d8737a70b61b1e71682]
class TestType--><rect codeLine="26" fill="#FEFECE" filter="url(#f13565z7f31xyz)" height="48" id="TestType" style="stroke:#A80036;stroke-width:1.5;" width="82" x="172.5" y="637"/><ellipse cx="187.5" cy="653" fill="#ADD1B2" rx="11" ry="11" style="stroke:#A80036;stroke-width:1.0;"/><path d="M189.5,649.5 Q189.7031,649 189.9375,648.75 Q190.1719,648.5 190.4375,648.5 Q190.9063,648.5 191.2031,648.7813 Q191.5,649.0625 191.5,649.7188 L191.5,651.2813 Q191.5,651.9375 191.2188,652.2188 Q190.9375,652.5 190.5,652.5 Q190.1094,652.5 189.8594,652.3281 Q189.6094,652.1563 189.5,651.7031 Q189.4531,651.3906 189.2813,651.2188 Q188.9688,650.8906 188.4063,650.7031 Q187.8438,650.5 187.2813,650.5 Q186.5781,650.5 185.9844,650.7813 Q185.4063,651.0625 184.9531,651.6875 Q184.5,652.3125 184.5,653.1719 L184.5,654.0938 Q184.5,655.125 185.3438,655.8125 Q186.1875,656.5 187.6875,656.5 Q188.5781,656.5 189.2031,656.2969 Q189.5625,656.1875 189.9688,655.8281 Q190.2344,655.625 190.375,655.5625 Q190.5156,655.5 190.6875,655.5 Q191.0156,655.5 191.25,655.7656 Q191.5,656.0156 191.5,656.375 Q191.5,656.7188 191.1563,657.125 Q190.6563,657.7188 189.8594,658.0469 Q188.8125,658.5 187.5313,658.5 Q186.0313,658.5 184.8281,657.9063 Q183.8594,657.4375 183.1719,656.4219 Q182.5,655.4063 182.5,654.2031 L182.5,653.1094 Q182.5,651.8594 183.0938,650.7656 Q183.7031,649.6719 184.75,649.0938 Q185.8125,648.5 187,648.5 Q187.7188,648.5 188.3438,648.75 Q188.9688,649 189.5,649.5 Z " fill="#000000"/><text fill="#000000" font-family="sans-serif" font-size="12" lengthAdjust="spacing" textLength="50" x="201.5" y="657.9102">TestType</text><line style="stroke:#A80036;stroke-width:1.5;" x1="173.5" x2="253.5" y1="669" y2="669"/><line style="stroke:#A80036;stroke-width:1.5;" x1="173.5" x2="253.5" y1="677" y2="677"/><!--MD5=[1fbaf7768c9825393b108ccd1eb6e910]
link Administrator to newLabUI--><path codeLine="28" d="M384.93,232.81 C341.8,200.09 262.47,139.9 209.6,99.78 " fill="none" id="Administrator-to-newLabUI" style="stroke:#A80036;stroke-width:1.0;stroke-dasharray:7.0,7.0;"/><polygon fill="#A80036" points="205.52,96.69,210.2855,105.3091,209.508,99.706,215.1111,98.9284,205.52,96.69" style="stroke:#A80036;stroke-width:1.0;"/><!--MD5=[c343708d5b3b03b5e8c1ba8f69941d40]
link newLabUI to newLabController--><path codeLine="29" d="M306.01,58.5 C315.98,58.5 325.96,58.5 335.93,58.5 " fill="none" id="newLabUI-to-newLabController" style="stroke:#A80036;stroke-width:1.0;stroke-dasharray:7.0,7.0;"/><polygon fill="#A80036" points="341.15,58.5,332.15,54.5,336.15,58.5,332.15,62.5,341.15,58.5" style="stroke:#A80036;stroke-width:1.0;"/><!--MD5=[c3fdf2b4d215ebd62598db0ce11960a0]
link newLabController to Company--><path codeLine="30" d="M421.97,110.1 C369.4,148.36 299.36,199.34 257.5,229.8 " fill="none" id="newLabController-to-Company" style="stroke:#A80036;stroke-width:1.0;stroke-dasharray:7.0,7.0;"/><polygon fill="#A80036" points="253.29,232.86,262.9204,230.7974,257.3324,229.9174,258.2124,224.3294,253.29,232.86" style="stroke:#A80036;stroke-width:1.0;"/><!--MD5=[30db61e97ee18d6443eead4b6bc53b52]
link newLabController to ClinicalAnalysisLaboratory--><path codeLine="31" d="M498.42,110.13 C504.25,165.03 508.88,254.75 489.5,329 C487.29,337.45 484.41,345.95 481.07,354.32 " fill="none" id="newLabController-to-ClinicalAnalysisLaboratory" style="stroke:#A80036;stroke-width:1.0;stroke-dasharray:7.0,7.0;"/><polygon fill="#A80036" points="479.17,358.96,486.2881,352.1532,481.0687,354.3345,478.8873,349.1152,479.17,358.96" style="stroke:#A80036;stroke-width:1.0;"/><!--MD5=[aafc5d8a5829a6a8d6dc892cb1ff5d24]
link Company to ClinicalAnalysisLaboratory--><path codeLine="32" d="M244.48,281.33 C263.57,300.71 292.1,329.67 320.56,358.57 " fill="none" id="Company-ClinicalAnalysisLaboratory" style="stroke:#A80036;stroke-width:1.0;"/><polygon fill="#000000" points="300.0087,323.738,295.7552,315.2316,291.5676,319.3563,300.0087,323.738" style="stroke:#000000;stroke-width:1.0;"/><text fill="#000000" font-family="sans-serif" font-size="13" lengthAdjust="spacing" textLength="30" x="305.5" y="325.4951">owns</text><text fill="#000000" font-family="sans-serif" font-size="13" lengthAdjust="spacing" textLength="7" x="241.9848" y="302.3421">1</text><text fill="#000000" font-family="sans-serif" font-size="13" lengthAdjust="spacing" textLength="20" x="292.6332" y="348.108">1..*</text><!--MD5=[23b8a99c177c2cd6d714b2cbaa81b3c4]
link Administrator to ClinicalAnalysisLaboratory--><path codeLine="33" d="M415.85,281.33 C416.14,300.71 416.58,329.67 417.01,358.57 " fill="none" id="Administrator-ClinicalAnalysisLaboratory" style="stroke:#A80036;stroke-width:1.0;"/><polygon fill="#000000" points="421.5751,325.1752,424.3779,316.087,418.5007,316.1753,421.5751,325.1752" style="stroke:#000000;stroke-width:1.0;"/><text fill="#000000" font-family="sans-serif" font-size="13" lengthAdjust="spacing" textLength="50" x="430.5" y="325.4951">registers</text><text fill="#000000" font-family="sans-serif" font-size="13" lengthAdjust="spacing" textLength="7" x="403.6591" y="302.3421">1</text><text fill="#000000" font-family="sans-serif" font-size="13" lengthAdjust="spacing" textLength="20" x="392.0193" y="348.108">1..*</text><!--MD5=[2eb961b30663a01bbfd8b4b9b8950031]
link ClinicalAnalysisLaboratory to TestType--><path codeLine="34" d="M316.9,559.12 C287.1,588.2 257.2,617.37 237.27,636.81 " fill="none" id="ClinicalAnalysisLaboratory-TestType" style="stroke:#A80036;stroke-width:1.0;"/><polygon fill="#000000" points="287.9211,601.6675,296.4477,597.4546,292.343,593.2474,287.9211,601.6675" style="stroke:#000000;stroke-width:1.0;"/><text fill="#000000" font-family="sans-serif" font-size="13" lengthAdjust="spacing" textLength="50" x="300.5" y="603.4951">performs</text><text fill="#000000" font-family="sans-serif" font-size="13" lengthAdjust="spacing" textLength="19" x="285.5942" y="580.5609">1   ‎</text><text fill="#000000" font-family="sans-serif" font-size="13" lengthAdjust="spacing" textLength="20" x="220.7986" y="626.1015">1..*</text><!--MD5=[742a261f27a3dcd734c626287d811acd]
link Company to TestType--><path codeLine="35" d="M221.04,281.06 C219.63,351.8 215.39,565.25 213.97,636.53 " fill="none" id="Company-TestType" style="stroke:#A80036;stroke-width:1.0;"/><polygon fill="#000000" points="224.4006,464.1748,227.5188,455.1899,221.6421,455.0731,224.4006,464.1748" style="stroke:#000000;stroke-width:1.0;"/><text fill="#000000" font-family="sans-serif" font-size="13" lengthAdjust="spacing" textLength="53" x="233.5" y="464.4951">conducts</text><text fill="#000000" font-family="sans-serif" font-size="13" lengthAdjust="spacing" textLength="7" x="208.0998" y="302.4126">1</text><text fill="#000000" font-family="sans-serif" font-size="13" lengthAdjust="spacing" textLength="5" x="203.5002" y="626.1534">*</text><!--MD5=[eaea43e34e45c5b9d20b595fc78f1f20]
link Company to Administrator--><path codeLine="36" d="M264.07,257 C293.19,257 331.97,257 362.99,257 " fill="none" id="Company-Administrator" style="stroke:#A80036;stroke-width:1.0;"/><polygon fill="#000000" points="291.5,245.1758,282.4549,242.2369,282.4549,248.1147,291.5,245.1758" style="stroke:#000000;stroke-width:1.0;"/><text fill="#000000" font-family="sans-serif" font-size="13" lengthAdjust="spacing" textLength="49" x="295.5" y="250.4951">employs</text><text fill="#000000" font-family="sans-serif" font-size="13" lengthAdjust="spacing" textLength="19" x="272.0432" y="271.747">1   ‎</text><text fill="#000000" font-family="sans-serif" font-size="13" lengthAdjust="spacing" textLength="20" x="334.9809" y="271.5426">1..*</text><!--MD5=[0c247e25ebce341f97655164d9710c3c]
link TestType to newLabUI--><path codeLine="37" d="M195.69,636.83 C169.98,601 125.5,529.04 125.5,460 C125.5,171 125.5,171 125.5,171 C125.5,147.47 131.99,122.13 139.03,101.57 " fill="none" id="TestType-to-newLabUI" style="stroke:#A80036;stroke-width:1.0;stroke-dasharray:7.0,7.0;"/><polygon fill="#A80036" points="140.73,96.72,133.9717,103.8842,139.0719,101.4371,141.519,106.5372,140.73,96.72" style="stroke:#A80036;stroke-width:1.0;"/><!--MD5=[b1c778f4588a698d514a41258eb361dd]
@startuml
class Administrator
class newLabUI{
+LabInfo(name, address, phonenumber, TIN, laboratoryID)
+TestTypes(tt)
}
class newLabController {
+createLab()
+setData(name, address, phonenumber, TIN, laboratoryID)
+setTest(tt)
+saveData()
}
class Company
class ClinicalAnalysisLaboratory {
-String name
-String address
-int phonenumber
-int TIN
-String laboratoryID
-TestType tt
+validateName(name)
+validateAddress(address)
+validatePhoneNumber(phonenumber)
+validateTIN(TIN)
+validateLabID(laboratoryID)
}
class TestType

Administrator ..> newLabUI
newLabUI .> newLabController
newLabController ...> Company
newLabController .> ClinicalAnalysisLaboratory
Company"1"- -"1..*"ClinicalAnalysisLaboratory : > owns
Administrator"1 "-"1..* "ClinicalAnalysisLaboratory : > registers
ClinicalAnalysisLaboratory"1   ‎ "- -"1..*"TestType : > performs
Company" 1 "-" * "TestType : > conducts
Company"1   ‎"-"1..*"Administrator : > employs
TestType .> newLabUI
@enduml

PlantUML version 1.2021.4(Sun Apr 04 09:49:39 BST 2021)
(GPL source distribution)
Java Runtime: OpenJDK Runtime Environment
JVM: OpenJDK 64-Bit Server VM
Default Encoding: Cp1252
Language: en
Country: US
--></g></svg>