<?xml version="1.0" encoding="UTF-8" standalone="no"?><svg xmlns="http://www.w3.org/2000/svg" xmlns:xlink="http://www.w3.org/1999/xlink" contentScriptType="application/ecmascript" contentStyleType="text/css" height="326px" preserveAspectRatio="none" style="width:379px;height:326px;" version="1.1" viewBox="0 0 379 326" width="379px" zoomAndPan="magnify"><defs><filter height="300%" id="f1p8mxko746ptu" width="300%" x="-1" y="-1"><feGaussianBlur result="blurOut" stdDeviation="2.0"/><feColorMatrix in="blurOut" result="blurOut2" type="matrix" values="0 0 0 0 0 0 0 0 0 0 0 0 0 0 0 0 0 0 .4 0"/><feOffset dx="4.0" dy="4.0" in="blurOut2" result="blurOut3"/><feBlend in="SourceGraphic" in2="blurOut3" mode="normal"/></filter></defs><g><!--MD5=[da547346deef918ea16944ba046651ef]
class Administrator--><rect codeLine="3" fill="#FEFECE" filter="url(#f1p8mxko746ptu)" height="48" id="Administrator" style="stroke:#A80036;stroke-width:1.5;" width="105" x="22" y="7"/><ellipse cx="37" cy="23" fill="#ADD1B2" rx="11" ry="11" style="stroke:#A80036;stroke-width:1.0;"/><path d="M39,19.5 Q39.2031,19 39.4375,18.75 Q39.6719,18.5 39.9375,18.5 Q40.4063,18.5 40.7031,18.7813 Q41,19.0625 41,19.7188 L41,21.2813 Q41,21.9375 40.7188,22.2188 Q40.4375,22.5 40,22.5 Q39.6094,22.5 39.3594,22.3281 Q39.1094,22.1563 39,21.7031 Q38.9531,21.3906 38.7813,21.2188 Q38.4688,20.8906 37.9063,20.7031 Q37.3438,20.5 36.7813,20.5 Q36.0781,20.5 35.4844,20.7813 Q34.9063,21.0625 34.4531,21.6875 Q34,22.3125 34,23.1719 L34,24.0938 Q34,25.125 34.8438,25.8125 Q35.6875,26.5 37.1875,26.5 Q38.0781,26.5 38.7031,26.2969 Q39.0625,26.1875 39.4688,25.8281 Q39.7344,25.625 39.875,25.5625 Q40.0156,25.5 40.1875,25.5 Q40.5156,25.5 40.75,25.7656 Q41,26.0156 41,26.375 Q41,26.7188 40.6563,27.125 Q40.1563,27.7188 39.3594,28.0469 Q38.3125,28.5 37.0313,28.5 Q35.5313,28.5 34.3281,27.9063 Q33.3594,27.4375 32.6719,26.4219 Q32,25.4063 32,24.2031 L32,23.1094 Q32,21.8594 32.5938,20.7656 Q33.2031,19.6719 34.25,19.0938 Q35.3125,18.5 36.5,18.5 Q37.2188,18.5 37.8438,18.75 Q38.4688,19 39,19.5 Z " fill="#000000"/><text fill="#000000" font-family="sans-serif" font-size="12" lengthAdjust="spacing" textLength="73" x="51" y="27.9102">Administrator</text><line style="stroke:#A80036;stroke-width:1.5;" x1="23" x2="126" y1="39" y2="39"/><line style="stroke:#A80036;stroke-width:1.5;" x1="23" x2="126" y1="47" y2="47"/><!--MD5=[02e4b9b7573f1156f41e60aa5b4e25a4]
class Company--><rect codeLine="4" fill="#FEFECE" filter="url(#f1p8mxko746ptu)" height="48" id="Company" style="stroke:#A80036;stroke-width:1.5;" width="85" x="226" y="7"/><ellipse cx="241" cy="23" fill="#ADD1B2" rx="11" ry="11" style="stroke:#A80036;stroke-width:1.0;"/><path d="M243,19.5 Q243.2031,19 243.4375,18.75 Q243.6719,18.5 243.9375,18.5 Q244.4063,18.5 244.7031,18.7813 Q245,19.0625 245,19.7188 L245,21.2813 Q245,21.9375 244.7188,22.2188 Q244.4375,22.5 244,22.5 Q243.6094,22.5 243.3594,22.3281 Q243.1094,22.1563 243,21.7031 Q242.9531,21.3906 242.7813,21.2188 Q242.4688,20.8906 241.9063,20.7031 Q241.3438,20.5 240.7813,20.5 Q240.0781,20.5 239.4844,20.7813 Q238.9063,21.0625 238.4531,21.6875 Q238,22.3125 238,23.1719 L238,24.0938 Q238,25.125 238.8438,25.8125 Q239.6875,26.5 241.1875,26.5 Q242.0781,26.5 242.7031,26.2969 Q243.0625,26.1875 243.4688,25.8281 Q243.7344,25.625 243.875,25.5625 Q244.0156,25.5 244.1875,25.5 Q244.5156,25.5 244.75,25.7656 Q245,26.0156 245,26.375 Q245,26.7188 244.6563,27.125 Q244.1563,27.7188 243.3594,28.0469 Q242.3125,28.5 241.0313,28.5 Q239.5313,28.5 238.3281,27.9063 Q237.3594,27.4375 236.6719,26.4219 Q236,25.4063 236,24.2031 L236,23.1094 Q236,21.8594 236.5938,20.7656 Q237.2031,19.6719 238.25,19.0938 Q239.3125,18.5 240.5,18.5 Q241.2188,18.5 241.8438,18.75 Q242.4688,19 243,19.5 Z " fill="#000000"/><text fill="#000000" font-family="sans-serif" font-size="12" lengthAdjust="spacing" textLength="53" x="255" y="27.9102">Company</text><line style="stroke:#A80036;stroke-width:1.5;" x1="227" x2="310" y1="39" y2="39"/><line style="stroke:#A80036;stroke-width:1.5;" x1="227" x2="310" y1="47" y2="47"/><!--MD5=[1934a092c0e7d4da7dc7075b6f4b6b03]
class ClinicalAnalysisLaboratory--><rect codeLine="5" fill="#FEFECE" filter="url(#f1p8mxko746ptu)" height="117.1797" id="ClinicalAnalysisLaboratory" style="stroke:#A80036;stroke-width:1.5;" width="177" x="7" y="195"/><ellipse cx="22" cy="211" fill="#ADD1B2" rx="11" ry="11" style="stroke:#A80036;stroke-width:1.0;"/><path d="M24,207.5 Q24.2031,207 24.4375,206.75 Q24.6719,206.5 24.9375,206.5 Q25.4063,206.5 25.7031,206.7813 Q26,207.0625 26,207.7188 L26,209.2813 Q26,209.9375 25.7188,210.2188 Q25.4375,210.5 25,210.5 Q24.6094,210.5 24.3594,210.3281 Q24.1094,210.1563 24,209.7031 Q23.9531,209.3906 23.7813,209.2188 Q23.4688,208.8906 22.9063,208.7031 Q22.3438,208.5 21.7813,208.5 Q21.0781,208.5 20.4844,208.7813 Q19.9063,209.0625 19.4531,209.6875 Q19,210.3125 19,211.1719 L19,212.0938 Q19,213.125 19.8438,213.8125 Q20.6875,214.5 22.1875,214.5 Q23.0781,214.5 23.7031,214.2969 Q24.0625,214.1875 24.4688,213.8281 Q24.7344,213.625 24.875,213.5625 Q25.0156,213.5 25.1875,213.5 Q25.5156,213.5 25.75,213.7656 Q26,214.0156 26,214.375 Q26,214.7188 25.6563,215.125 Q25.1563,215.7188 24.3594,216.0469 Q23.3125,216.5 22.0313,216.5 Q20.5313,216.5 19.3281,215.9063 Q18.3594,215.4375 17.6719,214.4219 Q17,213.4063 17,212.2031 L17,211.1094 Q17,209.8594 17.5938,208.7656 Q18.2031,207.6719 19.25,207.0938 Q20.3125,206.5 21.5,206.5 Q22.2188,206.5 22.8438,206.75 Q23.4688,207 24,207.5 Z " fill="#000000"/><text fill="#000000" font-family="sans-serif" font-size="12" lengthAdjust="spacing" textLength="145" x="36" y="215.9102">ClinicalAnalysisLaboratory</text><line style="stroke:#A80036;stroke-width:1.5;" x1="8" x2="183" y1="227" y2="227"/><text fill="#000000" font-family="sans-serif" font-size="11" lengthAdjust="spacing" textLength="30" x="13" y="242.4189">-name</text><text fill="#000000" font-family="sans-serif" font-size="11" lengthAdjust="spacing" textLength="44" x="13" y="256.2549">-address</text><text fill="#000000" font-family="sans-serif" font-size="11" lengthAdjust="spacing" textLength="70" x="13" y="270.0908">-phonenumber</text><text fill="#000000" font-family="sans-serif" font-size="11" lengthAdjust="spacing" textLength="19" x="13" y="283.9268">-TIN</text><text fill="#000000" font-family="sans-serif" font-size="11" lengthAdjust="spacing" textLength="62" x="13" y="297.7627">-laboratoryID</text><line style="stroke:#A80036;stroke-width:1.5;" x1="8" x2="183" y1="304.1797" y2="304.1797"/><!--MD5=[aeb3272166074d8737a70b61b1e71682]
class TestType--><rect codeLine="12" fill="#FEFECE" filter="url(#f1p8mxko746ptu)" height="48" id="TestType" style="stroke:#A80036;stroke-width:1.5;" width="82" x="283.5" y="229.5"/><ellipse cx="298.5" cy="245.5" fill="#ADD1B2" rx="11" ry="11" style="stroke:#A80036;stroke-width:1.0;"/><path d="M300.5,242 Q300.7031,241.5 300.9375,241.25 Q301.1719,241 301.4375,241 Q301.9063,241 302.2031,241.2813 Q302.5,241.5625 302.5,242.2188 L302.5,243.7813 Q302.5,244.4375 302.2188,244.7188 Q301.9375,245 301.5,245 Q301.1094,245 300.8594,244.8281 Q300.6094,244.6563 300.5,244.2031 Q300.4531,243.8906 300.2813,243.7188 Q299.9688,243.3906 299.4063,243.2031 Q298.8438,243 298.2813,243 Q297.5781,243 296.9844,243.2813 Q296.4063,243.5625 295.9531,244.1875 Q295.5,244.8125 295.5,245.6719 L295.5,246.5938 Q295.5,247.625 296.3438,248.3125 Q297.1875,249 298.6875,249 Q299.5781,249 300.2031,248.7969 Q300.5625,248.6875 300.9688,248.3281 Q301.2344,248.125 301.375,248.0625 Q301.5156,248 301.6875,248 Q302.0156,248 302.25,248.2656 Q302.5,248.5156 302.5,248.875 Q302.5,249.2188 302.1563,249.625 Q301.6563,250.2188 300.8594,250.5469 Q299.8125,251 298.5313,251 Q297.0313,251 295.8281,250.4063 Q294.8594,249.9375 294.1719,248.9219 Q293.5,247.9063 293.5,246.7031 L293.5,245.6094 Q293.5,244.3594 294.0938,243.2656 Q294.7031,242.1719 295.75,241.5938 Q296.8125,241 298,241 Q298.7188,241 299.3438,241.25 Q299.9688,241.5 300.5,242 Z " fill="#000000"/><text fill="#000000" font-family="sans-serif" font-size="12" lengthAdjust="spacing" textLength="50" x="312.5" y="250.4102">TestType</text><line style="stroke:#A80036;stroke-width:1.5;" x1="284.5" x2="364.5" y1="261.5" y2="261.5"/><line style="stroke:#A80036;stroke-width:1.5;" x1="284.5" x2="364.5" y1="269.5" y2="269.5"/><!--MD5=[304db59a05c0da2cdffc3c882f2d9e9b]
link Administrator to Company--><path codeLine="14" d="M127.26,31 C158.22,31 196.85,31 225.88,31 " fill="none" id="Administrator-Company" style="stroke:#A80036;stroke-width:1.0;"/><polygon fill="#000000" points="144.5,19.1758,153.5451,22.1147,153.5451,16.2369,144.5,19.1758" style="stroke:#000000;stroke-width:1.0;"/><text fill="#000000" font-family="sans-serif" font-size="13" lengthAdjust="spacing" textLength="49" x="158.5" y="24.4951">employs</text><text fill="#000000" font-family="sans-serif" font-size="13" lengthAdjust="spacing" textLength="5" x="135.0309" y="27.3948">*</text><text fill="#000000" font-family="sans-serif" font-size="13" lengthAdjust="spacing" textLength="7" x="210.9531" y="27.1503">1</text><!--MD5=[23b8a99c177c2cd6d714b2cbaa81b3c4]
link Administrator to ClinicalAnalysisLaboratory--><path codeLine="15" d="M76.71,55.18 C79.84,88.02 85.66,149.16 90,194.71 " fill="none" id="Administrator-ClinicalAnalysisLaboratory" style="stroke:#A80036;stroke-width:1.0;"/><polygon fill="#000000" points="89.9741,130.1533,92.0421,120.8703,86.1908,121.4276,89.9741,130.1533" style="stroke:#000000;stroke-width:1.0;"/><text fill="#000000" font-family="sans-serif" font-size="13" lengthAdjust="spacing" textLength="50" x="98.5" y="130.4951">registers</text><text fill="#000000" font-family="sans-serif" font-size="13" lengthAdjust="spacing" textLength="7" x="64.9081" y="76.5618">1</text><text fill="#000000" font-family="sans-serif" font-size="13" lengthAdjust="spacing" textLength="5" x="75.2938" y="184.0756">*</text><!--MD5=[aafc5d8a5829a6a8d6dc892cb1ff5d24]
link Company to ClinicalAnalysisLaboratory--><path codeLine="16" d="M250.31,55.18 C224.55,88.02 176.58,149.16 140.84,194.71 " fill="none" id="Company-ClinicalAnalysisLaboratory" style="stroke:#A80036;stroke-width:1.0;"/><polygon fill="#000000" points="204.4137,129.1096,212.3091,123.8074,207.6846,120.1792,204.4137,129.1096" style="stroke:#000000;stroke-width:1.0;"/><text fill="#000000" font-family="sans-serif" font-size="13" lengthAdjust="spacing" textLength="30" x="216.5" y="130.4951">owns</text><text fill="#000000" font-family="sans-serif" font-size="13" lengthAdjust="spacing" textLength="7" x="224.5606" y="76.5618">1</text><text fill="#000000" font-family="sans-serif" font-size="13" lengthAdjust="spacing" textLength="5" x="141.0611" y="184.0756">*</text><!--MD5=[742a261f27a3dcd734c626287d811acd]
link Company to TestType--><path codeLine="17" d="M274.39,55.18 C285.14,97.53 307.85,186.94 318.61,229.3 " fill="none" id="Company-TestType" style="stroke:#A80036;stroke-width:1.0;"/><polygon fill="#000000" points="300.7307,130.0219,301.3528,120.5317,295.6558,121.9786,300.7307,130.0219" style="stroke:#000000;stroke-width:1.0;"/><text fill="#000000" font-family="sans-serif" font-size="13" lengthAdjust="spacing" textLength="53" x="308.5" y="130.4951">conducts</text><text fill="#000000" font-family="sans-serif" font-size="13" lengthAdjust="spacing" textLength="7" x="267.9726" y="76.5618">1</text><text fill="#000000" font-family="sans-serif" font-size="13" lengthAdjust="spacing" textLength="5" x="306.4351" y="218.5889">*</text><!--MD5=[2eb961b30663a01bbfd8b4b9b8950031]
link ClinicalAnalysisLaboratory to TestType--><path codeLine="18" d="M184.04,253.5 C218.27,253.5 255.77,253.5 283.41,253.5 " fill="none" id="ClinicalAnalysisLaboratory-TestType" style="stroke:#A80036;stroke-width:1.0;"/><polygon fill="#000000" points="211.25,241.6758,202.2049,238.7369,202.2049,244.6147,211.25,241.6758" style="stroke:#000000;stroke-width:1.0;"/><text fill="#000000" font-family="sans-serif" font-size="13" lengthAdjust="spacing" textLength="50" x="215.25" y="246.9951">performs</text><text fill="#000000" font-family="sans-serif" font-size="13" lengthAdjust="spacing" textLength="15" x="191.8526" y="267.6395">1  ‎</text><text fill="#000000" font-family="sans-serif" font-size="13" lengthAdjust="spacing" textLength="17" x="258.5103" y="268.247">*   ‎</text><!--MD5=[ebe7baff4592741d304ab3ab826624e9]
@startuml
skinparam classAttributeIconSize 0

class Administrator
class Company
class ClinicalAnalysisLaboratory {
-name
-address
-phonenumber
-TIN
-laboratoryID
}
class TestType

Administrator "*" - "1" Company : employs <
Administrator "1 "- - -" *  " ClinicalAnalysisLaboratory : registers >
Company "1   " - - - "*" ClinicalAnalysisLaboratory: owns >
Company "1" - - - " * " TestType: conducts >
ClinicalAnalysisLaboratory "1  ‎ " - " *   ‎" TestType : performs >
@enduml

PlantUML version 1.2021.4(Sun Apr 04 09:49:39 BST 2021)
(GPL source distribution)
Java Runtime: OpenJDK Runtime Environment
JVM: OpenJDK 64-Bit Server VM
Default Encoding: Cp1252
Language: en
Country: US
--></g></svg>