<?xml version="1.0" encoding="UTF-8" standalone="no"?><svg xmlns="http://www.w3.org/2000/svg" xmlns:xlink="http://www.w3.org/1999/xlink" contentScriptType="application/ecmascript" contentStyleType="text/css" height="926.25px" preserveAspectRatio="none" style="width:1340px;height:926px;" version="1.1" viewBox="0 0 1340 926" width="1340px" zoomAndPan="magnify"><defs><filter height="300%" id="fpyst03l9tw5e" width="300%" x="-1" y="-1"><feGaussianBlur result="blurOut" stdDeviation="2.5"/><feColorMatrix in="blurOut" result="blurOut2" type="matrix" values="0 0 0 0 0 0 0 0 0 0 0 0 0 0 0 0 0 0 .4 0"/><feOffset dx="5.0" dy="5.0" in="blurOut2" result="blurOut3"/><feBlend in="SourceGraphic" in2="blurOut3" mode="normal"/></filter></defs><g><!--MD5=[da547346deef918ea16944ba046651ef]
class Administrator--><rect codeLine="1" fill="#FEFECE" filter="url(#fpyst03l9tw5e)" height="60" id="Administrator" style="stroke:#A80036;stroke-width:1.875;" width="131.25" x="249.375" y="309.375"/><ellipse cx="268.125" cy="329.375" fill="#ADD1B2" rx="13.75" ry="13.75" style="stroke:#A80036;stroke-width:1.25;"/><path d="M270.625,325 Q270.8789,324.375 271.1719,324.0625 Q271.4648,323.75 271.7969,323.75 Q272.3828,323.75 272.7539,324.1016 Q273.125,324.4531 273.125,325.2734 L273.125,327.2266 Q273.125,328.0469 272.7734,328.3984 Q272.4219,328.75 271.875,328.75 Q271.3867,328.75 271.0742,328.5352 Q270.7617,328.3203 270.625,327.7539 Q270.5664,327.3633 270.3516,327.1484 Q269.9609,326.7383 269.2578,326.5039 Q268.5547,326.25 267.8516,326.25 Q266.9727,326.25 266.2305,326.6016 Q265.5078,326.9531 264.9414,327.7344 Q264.375,328.5156 264.375,329.5898 L264.375,330.7422 Q264.375,332.0313 265.4297,332.8906 Q266.4844,333.75 268.3594,333.75 Q269.4727,333.75 270.2539,333.4961 Q270.7031,333.3594 271.2109,332.9102 Q271.543,332.6563 271.7188,332.5781 Q271.8945,332.5 272.1094,332.5 Q272.5195,332.5 272.8125,332.832 Q273.125,333.1445 273.125,333.5938 Q273.125,334.0234 272.6953,334.5313 Q272.0703,335.2734 271.0742,335.6836 Q269.7656,336.25 268.1641,336.25 Q266.2891,336.25 264.7852,335.5078 Q263.5742,334.9219 262.7148,333.6523 Q261.875,332.3828 261.875,330.8789 L261.875,329.5117 Q261.875,327.9492 262.6172,326.582 Q263.3789,325.2148 264.6875,324.4922 Q266.0156,323.75 267.5,323.75 Q268.3984,323.75 269.1797,324.0625 Q269.9609,324.375 270.625,325 Z " fill="#000000"/><text fill="#000000" font-family="sans-serif" font-size="15" lengthAdjust="spacing" textLength="91.25" x="285.625" y="335.5127">Administrator</text><line style="stroke:#A80036;stroke-width:1.875;" x1="250.625" x2="379.375" y1="349.375" y2="349.375"/><line style="stroke:#A80036;stroke-width:1.875;" x1="250.625" x2="379.375" y1="359.375" y2="359.375"/><!--MD5=[5e1d4d71d54c476d47087133d40e0c33]
class CreateNewLabUI--><rect codeLine="2" fill="#FEFECE" filter="url(#fpyst03l9tw5e)" height="94.5898" id="CreateNewLabUI" style="stroke:#A80036;stroke-width:1.875;" width="373.75" x="529.375" y="17.5"/><ellipse cx="651.5625" cy="37.5" fill="#ADD1B2" rx="13.75" ry="13.75" style="stroke:#A80036;stroke-width:1.25;"/><path d="M654.0625,33.125 Q654.3164,32.5 654.6094,32.1875 Q654.9023,31.875 655.2344,31.875 Q655.8203,31.875 656.1914,32.2266 Q656.5625,32.5781 656.5625,33.3984 L656.5625,35.3516 Q656.5625,36.1719 656.2109,36.5234 Q655.8594,36.875 655.3125,36.875 Q654.8242,36.875 654.5117,36.6602 Q654.1992,36.4453 654.0625,35.8789 Q654.0039,35.4883 653.7891,35.2734 Q653.3984,34.8633 652.6953,34.6289 Q651.9922,34.375 651.2891,34.375 Q650.4102,34.375 649.668,34.7266 Q648.9453,35.0781 648.3789,35.8594 Q647.8125,36.6406 647.8125,37.7148 L647.8125,38.8672 Q647.8125,40.1563 648.8672,41.0156 Q649.9219,41.875 651.7969,41.875 Q652.9102,41.875 653.6914,41.6211 Q654.1406,41.4844 654.6484,41.0352 Q654.9805,40.7813 655.1563,40.7031 Q655.332,40.625 655.5469,40.625 Q655.957,40.625 656.25,40.957 Q656.5625,41.2695 656.5625,41.7188 Q656.5625,42.1484 656.1328,42.6563 Q655.5078,43.3984 654.5117,43.8086 Q653.2031,44.375 651.6016,44.375 Q649.7266,44.375 648.2227,43.6328 Q647.0117,43.0469 646.1523,41.7773 Q645.3125,40.5078 645.3125,39.0039 L645.3125,37.6367 Q645.3125,36.0742 646.0547,34.707 Q646.8164,33.3398 648.125,32.6172 Q649.4531,31.875 650.9375,31.875 Q651.8359,31.875 652.6172,32.1875 Q653.3984,32.5 654.0625,33.125 Z " fill="#000000"/><text fill="#000000" font-family="sans-serif" font-size="15" lengthAdjust="spacing" textLength="118.75" x="677.1875" y="43.6377">CreateNewLabUI</text><line style="stroke:#A80036;stroke-width:1.875;" x1="530.625" x2="901.875" y1="57.5" y2="57.5"/><line style="stroke:#A80036;stroke-width:1.875;" x1="530.625" x2="901.875" y1="67.5" y2="67.5"/><ellipse cx="543.125" cy="81.25" fill="#84BE84" rx="3.75" ry="3.75" style="stroke:#038048;stroke-width:1.25;"/><text fill="#000000" font-family="sans-serif" font-size="13.75" lengthAdjust="spacing" textLength="341.25" x="554.375" y="86.7737">LabInfo(name, address, phonenumber, TIN, laboratoryID)</text><ellipse cx="543.125" cy="98.5449" fill="#84BE84" rx="3.75" ry="3.75" style="stroke:#038048;stroke-width:1.25;"/><text fill="#000000" font-family="sans-serif" font-size="13.75" lengthAdjust="spacing" textLength="115" x="554.375" y="104.0686">TestType(testtype)</text><!--MD5=[1c774b8f7c44860cf82266938b4d25ce]
class CreateNewLabController--><rect codeLine="6" fill="#FEFECE" filter="url(#fpyst03l9tw5e)" height="111.8848" id="CreateNewLabController" style="stroke:#A80036;stroke-width:1.875;" width="375" x="947.5" y="8.75"/><ellipse cx="1044.0625" cy="28.75" fill="#ADD1B2" rx="13.75" ry="13.75" style="stroke:#A80036;stroke-width:1.25;"/><path d="M1046.5625,24.375 Q1046.8164,23.75 1047.1094,23.4375 Q1047.4023,23.125 1047.7344,23.125 Q1048.3203,23.125 1048.6914,23.4766 Q1049.0625,23.8281 1049.0625,24.6484 L1049.0625,26.6016 Q1049.0625,27.4219 1048.7109,27.7734 Q1048.3594,28.125 1047.8125,28.125 Q1047.3242,28.125 1047.0117,27.9102 Q1046.6992,27.6953 1046.5625,27.1289 Q1046.5039,26.7383 1046.2891,26.5234 Q1045.8984,26.1133 1045.1953,25.8789 Q1044.4922,25.625 1043.7891,25.625 Q1042.9102,25.625 1042.168,25.9766 Q1041.4453,26.3281 1040.8789,27.1094 Q1040.3125,27.8906 1040.3125,28.9648 L1040.3125,30.1172 Q1040.3125,31.4063 1041.3672,32.2656 Q1042.4219,33.125 1044.2969,33.125 Q1045.4102,33.125 1046.1914,32.8711 Q1046.6406,32.7344 1047.1484,32.2852 Q1047.4805,32.0313 1047.6563,31.9531 Q1047.832,31.875 1048.0469,31.875 Q1048.457,31.875 1048.75,32.207 Q1049.0625,32.5195 1049.0625,32.9688 Q1049.0625,33.3984 1048.6328,33.9063 Q1048.0078,34.6484 1047.0117,35.0586 Q1045.7031,35.625 1044.1016,35.625 Q1042.2266,35.625 1040.7227,34.8828 Q1039.5117,34.2969 1038.6523,33.0273 Q1037.8125,31.7578 1037.8125,30.2539 L1037.8125,28.8867 Q1037.8125,27.3242 1038.5547,25.957 Q1039.3164,24.5898 1040.625,23.8672 Q1041.9531,23.125 1043.4375,23.125 Q1044.3359,23.125 1045.1172,23.4375 Q1045.8984,23.75 1046.5625,24.375 Z " fill="#000000"/><text fill="#000000" font-family="sans-serif" font-size="15" lengthAdjust="spacing" textLength="171.25" x="1069.6875" y="34.8877">CreateNewLabController</text><line style="stroke:#A80036;stroke-width:1.875;" x1="948.75" x2="1321.25" y1="48.75" y2="48.75"/><line style="stroke:#A80036;stroke-width:1.875;" x1="948.75" x2="1321.25" y1="58.75" y2="58.75"/><ellipse cx="961.25" cy="72.5" fill="#84BE84" rx="3.75" ry="3.75" style="stroke:#038048;stroke-width:1.25;"/><text fill="#000000" font-family="sans-serif" font-size="13.75" lengthAdjust="spacing" textLength="342.5" x="972.5" y="78.0237">setData(name, address, phonenumber, TIN, laboratoryID)</text><ellipse cx="961.25" cy="89.7949" fill="#84BE84" rx="3.75" ry="3.75" style="stroke:#038048;stroke-width:1.25;"/><text fill="#000000" font-family="sans-serif" font-size="13.75" lengthAdjust="spacing" textLength="62.5" x="972.5" y="95.3186">setTest(tt)</text><ellipse cx="961.25" cy="107.0898" fill="#84BE84" rx="3.75" ry="3.75" style="stroke:#038048;stroke-width:1.25;"/><text fill="#000000" font-family="sans-serif" font-size="13.75" lengthAdjust="spacing" textLength="67.5" x="972.5" y="112.6135">saveData()</text><!--MD5=[02e4b9b7573f1156f41e60aa5b4e25a4]
class Company--><rect codeLine="11" fill="#FEFECE" filter="url(#fpyst03l9tw5e)" height="129.1797" id="Company" style="stroke:#A80036;stroke-width:1.875;" width="117.5" x="8.75" y="275"/><ellipse cx="32.5625" cy="295" fill="#ADD1B2" rx="13.75" ry="13.75" style="stroke:#A80036;stroke-width:1.25;"/><path d="M35.0625,290.625 Q35.3164,290 35.6094,289.6875 Q35.9023,289.375 36.2344,289.375 Q36.8203,289.375 37.1914,289.7266 Q37.5625,290.0781 37.5625,290.8984 L37.5625,292.8516 Q37.5625,293.6719 37.2109,294.0234 Q36.8594,294.375 36.3125,294.375 Q35.8242,294.375 35.5117,294.1602 Q35.1992,293.9453 35.0625,293.3789 Q35.0039,292.9883 34.7891,292.7734 Q34.3984,292.3633 33.6953,292.1289 Q32.9922,291.875 32.2891,291.875 Q31.4102,291.875 30.668,292.2266 Q29.9453,292.5781 29.3789,293.3594 Q28.8125,294.1406 28.8125,295.2148 L28.8125,296.3672 Q28.8125,297.6563 29.8672,298.5156 Q30.9219,299.375 32.7969,299.375 Q33.9102,299.375 34.6914,299.1211 Q35.1406,298.9844 35.6484,298.5352 Q35.9805,298.2813 36.1563,298.2031 Q36.332,298.125 36.5469,298.125 Q36.957,298.125 37.25,298.457 Q37.5625,298.7695 37.5625,299.2188 Q37.5625,299.6484 37.1328,300.1563 Q36.5078,300.8984 35.5117,301.3086 Q34.2031,301.875 32.6016,301.875 Q30.7266,301.875 29.2227,301.1328 Q28.0117,300.5469 27.1523,299.2773 Q26.3125,298.0078 26.3125,296.5039 L26.3125,295.1367 Q26.3125,293.5742 27.0547,292.207 Q27.8164,290.8398 29.125,290.1172 Q30.4531,289.375 31.9375,289.375 Q32.8359,289.375 33.6172,289.6875 Q34.3984,290 35.0625,290.625 Z " fill="#000000"/><text fill="#000000" font-family="sans-serif" font-size="15" lengthAdjust="spacing" textLength="66.25" x="51.1875" y="301.1377">Company</text><line style="stroke:#A80036;stroke-width:1.875;" x1="10" x2="125" y1="315" y2="315"/><rect fill="none" height="7.5" style="stroke:#C82930;stroke-width:1.25;" width="7.5" x="18.75" y="325"/><text fill="#000000" font-family="sans-serif" font-size="13.75" lengthAdjust="spacing" textLength="68.75" x="33.75" y="334.2737">designation</text><line style="stroke:#A80036;stroke-width:1.875;" x1="10" x2="125" y1="342.2949" y2="342.2949"/><ellipse cx="22.5" cy="356.0449" fill="#84BE84" rx="3.75" ry="3.75" style="stroke:#038048;stroke-width:1.25;"/><text fill="#000000" font-family="sans-serif" font-size="13.75" lengthAdjust="spacing" textLength="85" x="33.75" y="361.5686">getTestType()</text><ellipse cx="22.5" cy="373.3398" fill="#84BE84" rx="3.75" ry="3.75" style="stroke:#038048;stroke-width:1.25;"/><text fill="#000000" font-family="sans-serif" font-size="13.75" lengthAdjust="spacing" textLength="51.25" x="33.75" y="378.8635">getLab()</text><ellipse cx="22.5" cy="390.6348" fill="#84BE84" rx="3.75" ry="3.75" style="stroke:#038048;stroke-width:1.25;"/><text fill="#000000" font-family="sans-serif" font-size="13.75" lengthAdjust="spacing" textLength="71.25" x="33.75" y="396.1584">createLab()</text><!--MD5=[1934a092c0e7d4da7dc7075b6f4b6b03]
class ClinicalAnalysisLaboratory--><rect codeLine="17" fill="#FEFECE" filter="url(#fpyst03l9tw5e)" height="250.2441" id="ClinicalAnalysisLaboratory" style="stroke:#A80036;stroke-width:1.875;" width="255" x="192.5" y="501.25"/><ellipse cx="226.4375" cy="521.25" fill="#ADD1B2" rx="13.75" ry="13.75" style="stroke:#A80036;stroke-width:1.25;"/><path d="M228.9375,516.875 Q229.1914,516.25 229.4844,515.9375 Q229.7773,515.625 230.1094,515.625 Q230.6953,515.625 231.0664,515.9766 Q231.4375,516.3281 231.4375,517.1484 L231.4375,519.1016 Q231.4375,519.9219 231.0859,520.2734 Q230.7344,520.625 230.1875,520.625 Q229.6992,520.625 229.3867,520.4102 Q229.0742,520.1953 228.9375,519.6289 Q228.8789,519.2383 228.6641,519.0234 Q228.2734,518.6133 227.5703,518.3789 Q226.8672,518.125 226.1641,518.125 Q225.2852,518.125 224.543,518.4766 Q223.8203,518.8281 223.2539,519.6094 Q222.6875,520.3906 222.6875,521.4648 L222.6875,522.6172 Q222.6875,523.9063 223.7422,524.7656 Q224.7969,525.625 226.6719,525.625 Q227.7852,525.625 228.5664,525.3711 Q229.0156,525.2344 229.5234,524.7852 Q229.8555,524.5313 230.0313,524.4531 Q230.207,524.375 230.4219,524.375 Q230.832,524.375 231.125,524.707 Q231.4375,525.0195 231.4375,525.4688 Q231.4375,525.8984 231.0078,526.4063 Q230.3828,527.1484 229.3867,527.5586 Q228.0781,528.125 226.4766,528.125 Q224.6016,528.125 223.0977,527.3828 Q221.8867,526.7969 221.0273,525.5273 Q220.1875,524.2578 220.1875,522.7539 L220.1875,521.3867 Q220.1875,519.8242 220.9297,518.457 Q221.6914,517.0898 223,516.3672 Q224.3281,515.625 225.8125,515.625 Q226.7109,515.625 227.4922,515.9375 Q228.2734,516.25 228.9375,516.875 Z " fill="#000000"/><text fill="#000000" font-family="sans-serif" font-size="15" lengthAdjust="spacing" textLength="181.25" x="247.3125" y="527.3877">ClinicalAnalysisLaboratory</text><line style="stroke:#A80036;stroke-width:1.875;" x1="193.75" x2="446.25" y1="541.25" y2="541.25"/><rect fill="none" height="7.5" style="stroke:#C82930;stroke-width:1.25;" width="7.5" x="202.5" y="551.25"/><text fill="#000000" font-family="sans-serif" font-size="13.75" lengthAdjust="spacing" textLength="71.25" x="217.5" y="560.5237">String name</text><rect fill="none" height="7.5" style="stroke:#C82930;stroke-width:1.25;" width="7.5" x="202.5" y="568.5449"/><text fill="#000000" font-family="sans-serif" font-size="13.75" lengthAdjust="spacing" textLength="88.75" x="217.5" y="577.8186">String address</text><rect fill="none" height="7.5" style="stroke:#C82930;stroke-width:1.25;" width="7.5" x="202.5" y="585.8398"/><text fill="#000000" font-family="sans-serif" font-size="13.75" lengthAdjust="spacing" textLength="100" x="217.5" y="595.1135">int phonenumber</text><rect fill="none" height="7.5" style="stroke:#C82930;stroke-width:1.25;" width="7.5" x="202.5" y="603.1348"/><text fill="#000000" font-family="sans-serif" font-size="13.75" lengthAdjust="spacing" textLength="36.25" x="217.5" y="612.4084">int TIN</text><rect fill="none" height="7.5" style="stroke:#C82930;stroke-width:1.25;" width="7.5" x="202.5" y="620.4297"/><text fill="#000000" font-family="sans-serif" font-size="13.75" lengthAdjust="spacing" textLength="111.25" x="217.5" y="629.7034">String laboratoryID</text><rect fill="none" height="7.5" style="stroke:#C82930;stroke-width:1.25;" width="7.5" x="202.5" y="637.7246"/><text fill="#000000" font-family="sans-serif" font-size="13.75" lengthAdjust="spacing" textLength="67.5" x="217.5" y="646.9983">TestType tt</text><line style="stroke:#A80036;stroke-width:1.875;" x1="193.75" x2="446.25" y1="655.0195" y2="655.0195"/><ellipse cx="206.25" cy="668.7695" fill="#84BE84" rx="3.75" ry="3.75" style="stroke:#038048;stroke-width:1.25;"/><text fill="#000000" font-family="sans-serif" font-size="13.75" lengthAdjust="spacing" textLength="122.5" x="217.5" y="674.2932">validateName(name)</text><ellipse cx="206.25" cy="686.0645" fill="#84BE84" rx="3.75" ry="3.75" style="stroke:#038048;stroke-width:1.25;"/><text fill="#000000" font-family="sans-serif" font-size="13.75" lengthAdjust="spacing" textLength="158.75" x="217.5" y="691.5881">validateAddress(address)</text><ellipse cx="206.25" cy="703.3594" fill="#84BE84" rx="3.75" ry="3.75" style="stroke:#038048;stroke-width:1.25;"/><text fill="#000000" font-family="sans-serif" font-size="13.75" lengthAdjust="spacing" textLength="222.5" x="217.5" y="708.8831">validatePhoneNumber(phonenumber)</text><ellipse cx="206.25" cy="720.6543" fill="#84BE84" rx="3.75" ry="3.75" style="stroke:#038048;stroke-width:1.25;"/><text fill="#000000" font-family="sans-serif" font-size="13.75" lengthAdjust="spacing" textLength="93.75" x="217.5" y="726.178">validateTIN(TIN)</text><ellipse cx="206.25" cy="737.9492" fill="#84BE84" rx="3.75" ry="3.75" style="stroke:#038048;stroke-width:1.25;"/><text fill="#000000" font-family="sans-serif" font-size="13.75" lengthAdjust="spacing" textLength="162.5" x="217.5" y="743.4729">validateLabID(laboratoryID)</text><!--MD5=[aeb3272166074d8737a70b61b1e71682]
class TestType--><rect codeLine="30" fill="#FEFECE" filter="url(#fpyst03l9tw5e)" height="60" id="TestType" style="stroke:#A80036;stroke-width:1.875;" width="102.5" x="48.75" y="848.75"/><ellipse cx="67.5" cy="868.75" fill="#ADD1B2" rx="13.75" ry="13.75" style="stroke:#A80036;stroke-width:1.25;"/><path d="M70,864.375 Q70.2539,863.75 70.5469,863.4375 Q70.8398,863.125 71.1719,863.125 Q71.7578,863.125 72.1289,863.4766 Q72.5,863.8281 72.5,864.6484 L72.5,866.6016 Q72.5,867.4219 72.1484,867.7734 Q71.7969,868.125 71.25,868.125 Q70.7617,868.125 70.4492,867.9102 Q70.1367,867.6953 70,867.1289 Q69.9414,866.7383 69.7266,866.5234 Q69.3359,866.1133 68.6328,865.8789 Q67.9297,865.625 67.2266,865.625 Q66.3477,865.625 65.6055,865.9766 Q64.8828,866.3281 64.3164,867.1094 Q63.75,867.8906 63.75,868.9648 L63.75,870.1172 Q63.75,871.4063 64.8047,872.2656 Q65.8594,873.125 67.7344,873.125 Q68.8477,873.125 69.6289,872.8711 Q70.0781,872.7344 70.5859,872.2852 Q70.918,872.0313 71.0938,871.9531 Q71.2695,871.875 71.4844,871.875 Q71.8945,871.875 72.1875,872.207 Q72.5,872.5195 72.5,872.9688 Q72.5,873.3984 72.0703,873.9063 Q71.4453,874.6484 70.4492,875.0586 Q69.1406,875.625 67.5391,875.625 Q65.6641,875.625 64.1602,874.8828 Q62.9492,874.2969 62.0898,873.0273 Q61.25,871.7578 61.25,870.2539 L61.25,868.8867 Q61.25,867.3242 61.9922,865.957 Q62.7539,864.5898 64.0625,863.8672 Q65.3906,863.125 66.875,863.125 Q67.7734,863.125 68.5547,863.4375 Q69.3359,863.75 70,864.375 Z " fill="#000000"/><text fill="#000000" font-family="sans-serif" font-size="15" lengthAdjust="spacing" textLength="62.5" x="85" y="874.8877">TestType</text><line style="stroke:#A80036;stroke-width:1.875;" x1="50" x2="150" y1="888.75" y2="888.75"/><line style="stroke:#A80036;stroke-width:1.875;" x1="50" x2="150" y1="898.75" y2="898.75"/><!--MD5=[d6324c9bf9c7eae2f422c26412a96264]
class newLabUI--><rect fill="#FEFECE" filter="url(#fpyst03l9tw5e)" height="60" id="newLabUI" style="stroke:#A80036;stroke-width:1.875;" width="110" x="168.75" y="35"/><ellipse cx="187.5" cy="55" fill="#ADD1B2" rx="13.75" ry="13.75" style="stroke:#A80036;stroke-width:1.25;"/><path d="M190,50.625 Q190.2539,50 190.5469,49.6875 Q190.8398,49.375 191.1719,49.375 Q191.7578,49.375 192.1289,49.7266 Q192.5,50.0781 192.5,50.8984 L192.5,52.8516 Q192.5,53.6719 192.1484,54.0234 Q191.7969,54.375 191.25,54.375 Q190.7617,54.375 190.4492,54.1602 Q190.1367,53.9453 190,53.3789 Q189.9414,52.9883 189.7266,52.7734 Q189.3359,52.3633 188.6328,52.1289 Q187.9297,51.875 187.2266,51.875 Q186.3477,51.875 185.6055,52.2266 Q184.8828,52.5781 184.3164,53.3594 Q183.75,54.1406 183.75,55.2148 L183.75,56.3672 Q183.75,57.6563 184.8047,58.5156 Q185.8594,59.375 187.7344,59.375 Q188.8477,59.375 189.6289,59.1211 Q190.0781,58.9844 190.5859,58.5352 Q190.918,58.2813 191.0938,58.2031 Q191.2695,58.125 191.4844,58.125 Q191.8945,58.125 192.1875,58.457 Q192.5,58.7695 192.5,59.2188 Q192.5,59.6484 192.0703,60.1563 Q191.4453,60.8984 190.4492,61.3086 Q189.1406,61.875 187.5391,61.875 Q185.6641,61.875 184.1602,61.1328 Q182.9492,60.5469 182.0898,59.2773 Q181.25,58.0078 181.25,56.5039 L181.25,55.1367 Q181.25,53.5742 181.9922,52.207 Q182.7539,50.8398 184.0625,50.1172 Q185.3906,49.375 186.875,49.375 Q187.7734,49.375 188.5547,49.6875 Q189.3359,50 190,50.625 Z " fill="#000000"/><text fill="#000000" font-family="sans-serif" font-size="15" lengthAdjust="spacing" textLength="70" x="205" y="61.1377">newLabUI</text><line style="stroke:#A80036;stroke-width:1.875;" x1="170" x2="277.5" y1="75" y2="75"/><line style="stroke:#A80036;stroke-width:1.875;" x1="170" x2="277.5" y1="85" y2="85"/><!--MD5=[ff9d8dafaba65710efbe0213e2d0bf9a]
class newLabController--><rect fill="#FEFECE" filter="url(#fpyst03l9tw5e)" height="60" id="newLabController" style="stroke:#A80036;stroke-width:1.875;" width="162.5" x="322.5" y="35"/><ellipse cx="341.25" cy="55" fill="#ADD1B2" rx="13.75" ry="13.75" style="stroke:#A80036;stroke-width:1.25;"/><path d="M343.75,50.625 Q344.0039,50 344.2969,49.6875 Q344.5898,49.375 344.9219,49.375 Q345.5078,49.375 345.8789,49.7266 Q346.25,50.0781 346.25,50.8984 L346.25,52.8516 Q346.25,53.6719 345.8984,54.0234 Q345.5469,54.375 345,54.375 Q344.5117,54.375 344.1992,54.1602 Q343.8867,53.9453 343.75,53.3789 Q343.6914,52.9883 343.4766,52.7734 Q343.0859,52.3633 342.3828,52.1289 Q341.6797,51.875 340.9766,51.875 Q340.0977,51.875 339.3555,52.2266 Q338.6328,52.5781 338.0664,53.3594 Q337.5,54.1406 337.5,55.2148 L337.5,56.3672 Q337.5,57.6563 338.5547,58.5156 Q339.6094,59.375 341.4844,59.375 Q342.5977,59.375 343.3789,59.1211 Q343.8281,58.9844 344.3359,58.5352 Q344.668,58.2813 344.8438,58.2031 Q345.0195,58.125 345.2344,58.125 Q345.6445,58.125 345.9375,58.457 Q346.25,58.7695 346.25,59.2188 Q346.25,59.6484 345.8203,60.1563 Q345.1953,60.8984 344.1992,61.3086 Q342.8906,61.875 341.2891,61.875 Q339.4141,61.875 337.9102,61.1328 Q336.6992,60.5469 335.8398,59.2773 Q335,58.0078 335,56.5039 L335,55.1367 Q335,53.5742 335.7422,52.207 Q336.5039,50.8398 337.8125,50.1172 Q339.1406,49.375 340.625,49.375 Q341.5234,49.375 342.3047,49.6875 Q343.0859,50 343.75,50.625 Z " fill="#000000"/><text fill="#000000" font-family="sans-serif" font-size="15" lengthAdjust="spacing" textLength="122.5" x="358.75" y="61.1377">newLabController</text><line style="stroke:#A80036;stroke-width:1.875;" x1="323.75" x2="483.75" y1="75" y2="75"/><line style="stroke:#A80036;stroke-width:1.875;" x1="323.75" x2="483.75" y1="85" y2="85"/><!--MD5=[1fbaf7768c9825393b108ccd1eb6e910]
link Administrator to newLabUI--><path codeLine="32" d="M305.3,309.2375 C288.4375,259 253.775,155.7125 235.55,101.4 " fill="none" id="Administrator-to-newLabUI" style="stroke:#A80036;stroke-width:1.25;stroke-dasharray:7.0,7.0;"/><polygon fill="#A80036" points="233.5125,95.35,232.3377,107.6049,235.4943,101.2775,241.8217,104.434,233.5125,95.35" style="stroke:#A80036;stroke-width:1.25;"/><!--MD5=[c343708d5b3b03b5e8c1ba8f69941d40]
link newLabUI to newLabController--><path codeLine="33" d="M278.95,65 C291.2625,65 303.575,65 315.9,65 " fill="none" id="newLabUI-to-newLabController" style="stroke:#A80036;stroke-width:1.25;stroke-dasharray:7.0,7.0;"/><polygon fill="#A80036" points="322.3375,65,311.0875,60,316.0875,65,311.0875,70,322.3375,65" style="stroke:#A80036;stroke-width:1.25;"/><!--MD5=[c3fdf2b4d215ebd62598db0ce11960a0]
link newLabController to Company--><path codeLine="34" d="M368.5625,95.025 C345.825,113.6 315.575,138.275 288.75,160 C235.9125,202.8 175.8,251.175 131.5875,286.7 " fill="none" id="newLabController-to-Company" style="stroke:#A80036;stroke-width:1.25;stroke-dasharray:7.0,7.0;"/><polygon fill="#A80036" points="126.275,290.9625,138.1791,287.8231,131.1502,287.0516,131.9217,280.0228,126.275,290.9625" style="stroke:#A80036;stroke-width:1.25;"/><!--MD5=[30db61e97ee18d6443eead4b6bc53b52]
link newLabController to ClinicalAnalysisLaboratory--><path codeLine="35" d="M409.2125,95.3 C420.6125,161.8125 443.2,329.725 408.75,463.75 C406.0375,474.325 402.4625,484.95 398.3,495.425 " fill="none" id="newLabController-to-ClinicalAnalysisLaboratory" style="stroke:#A80036;stroke-width:1.25;stroke-dasharray:7.0,7.0;"/><polygon fill="#A80036" points="395.9375,501.225,404.8126,492.6929,398.2956,495.4369,395.5516,488.92,395.9375,501.225" style="stroke:#A80036;stroke-width:1.25;"/><!--MD5=[aafc5d8a5829a6a8d6dc892cb1ff5d24]
link Company to ClinicalAnalysisLaboratory--><path codeLine="36" d="M123.85,404.0875 C149.2875,432.7375 180.25,467.6125 209.9875,501.1 " fill="none" id="Company-ClinicalAnalysisLaboratory" style="stroke:#A80036;stroke-width:1.25;"/><polygon fill="#000000" points="181.6497,457.3933,176.8899,446.4996,171.3958,451.3778,181.6497,457.3933" style="stroke:#000000;stroke-width:1.25;"/><text fill="#000000" font-family="sans-serif" font-size="16.25" lengthAdjust="spacing" textLength="37.5" x="188.75" y="459.3689">owns</text><text fill="#000000" font-family="sans-serif" font-size="16.25" lengthAdjust="spacing" textLength="8.75" x="122.0841" y="430.9965">1</text><text fill="#000000" font-family="sans-serif" font-size="16.25" lengthAdjust="spacing" textLength="25" x="175.6076" y="487.629">1..*</text><!--MD5=[23b8a99c177c2cd6d714b2cbaa81b3c4]
link Administrator to ClinicalAnalysisLaboratory--><path codeLine="37" d="M315.5125,369.4625 C316.05,400.5875 316.9625,452.3125 317.825,501.1 " fill="none" id="Administrator-ClinicalAnalysisLaboratory" style="stroke:#A80036;stroke-width:1.25;"/><polygon fill="#000000" points="323.8598,458.9688,327.3343,447.5996,319.9881,447.7287,323.8598,458.9688" style="stroke:#000000;stroke-width:1.25;"/><text fill="#000000" font-family="sans-serif" font-size="16.25" lengthAdjust="spacing" textLength="62.5" x="335" y="459.3689">registers</text><text fill="#000000" font-family="sans-serif" font-size="16.25" lengthAdjust="spacing" textLength="8.75" x="300.2116" y="396.1563">1</text><text fill="#000000" font-family="sans-serif" font-size="16.25" lengthAdjust="spacing" textLength="25" x="286.51" y="487.629">1..*</text><!--MD5=[2eb961b30663a01bbfd8b4b9b8950031]
link ClinicalAnalysisLaboratory to TestType--><path codeLine="38" d="M210.9625,751.4 C178.9875,787.75 146.8875,824.2125 125.5125,848.5125 " fill="none" id="ClinicalAnalysisLaboratory-TestType" style="stroke:#A80036;stroke-width:1.25;"/><polygon fill="#000000" points="179.6213,804.9119,189.8482,798.8505,184.3322,793.9969,179.6213,804.9119" style="stroke:#000000;stroke-width:1.25;"/><text fill="#000000" font-family="sans-serif" font-size="16.25" lengthAdjust="spacing" textLength="62.5" x="195" y="806.8689">performs</text><text fill="#000000" font-family="sans-serif" font-size="16.25" lengthAdjust="spacing" textLength="23.75" x="173.1494" y="778.2011">1   ‎</text><text fill="#000000" font-family="sans-serif" font-size="16.25" lengthAdjust="spacing" textLength="25" x="103.847" y="835.1268">1..*</text><!--MD5=[742a261f27a3dcd734c626287d811acd]
link Company to TestType--><path codeLine="39" d="M68.7125,404.025 C70.6,484.775 75.1125,628.5625 85,751.25 C87.7,784.6875 92.475,822.925 95.925,848.475 " fill="none" id="Company-TestType" style="stroke:#A80036;stroke-width:1.25;"/><polygon fill="#000000" points="91.632,632.708,94.6078,621.1983,87.2742,621.6473,91.632,632.708" style="stroke:#000000;stroke-width:1.25;"/><text fill="#000000" font-family="sans-serif" font-size="16.25" lengthAdjust="spacing" textLength="66.25" x="102.5" y="633.1189">conducts</text><text fill="#000000" font-family="sans-serif" font-size="16.25" lengthAdjust="spacing" textLength="8.75" x="53.8657" y="430.9256">1</text><text fill="#000000" font-family="sans-serif" font-size="16.25" lengthAdjust="spacing" textLength="6.25" x="81.5488" y="835.0797">*</text><!--MD5=[eaea43e34e45c5b9d20b595fc78f1f20]
link Company to Administrator--><path codeLine="40" d="M126.4625,339.375 C163.3625,339.375 210.9375,339.375 249.075,339.375 " fill="none" id="Company-Administrator" style="stroke:#A80036;stroke-width:1.25;"/><polygon fill="#000000" points="160.3125,324.5947,149.0061,320.9211,149.0061,328.2684,160.3125,324.5947" style="stroke:#000000;stroke-width:1.25;"/><text fill="#000000" font-family="sans-serif" font-size="16.25" lengthAdjust="spacing" textLength="61.25" x="165.3125" y="331.2439">employs</text><text fill="#000000" font-family="sans-serif" font-size="16.25" lengthAdjust="spacing" textLength="23.75" x="136.424" y="357.6508">1   ‎</text><text fill="#000000" font-family="sans-serif" font-size="16.25" lengthAdjust="spacing" textLength="25" x="214.517" y="357.4894">1..*</text><!--MD5=[f55c012d48b8714ce7ea511bd666bc52]
link Company to newLabUI--><path codeLine="41" d="M103.8125,274.95 C134.925,220.8 178.6,144.8125 203.75,101.0375 " fill="none" id="Company-to-newLabUI" style="stroke:#A80036;stroke-width:1.25;stroke-dasharray:7.0,7.0;"/><polygon fill="#A80036" points="207.025,95.35,197.0971,102.63,203.9203,100.7743,205.776,107.5975,207.025,95.35" style="stroke:#A80036;stroke-width:1.25;"/><!--MD5=[dea0c53876bda8fdca8167b1ba0d6aa4]
@startuml
class Administrator
class CreateNewLabUI{
+LabInfo(name, address, phonenumber, TIN, laboratoryID)
+TestType(testtype)
}
class CreateNewLabController {
+setData(name, address, phonenumber, TIN, laboratoryID)
+setTest(tt)
+saveData()
}
class Company {
-designation
+getTestType()
+getLab()
+createLab()
}
class ClinicalAnalysisLaboratory {
-String name
-String address
-int phonenumber
-int TIN
-String laboratoryID
-TestType tt
+validateName(name)
+validateAddress(address)
+validatePhoneNumber(phonenumber)
+validateTIN(TIN)
+validateLabID(laboratoryID)
}
class TestType

Administrator ..> newLabUI
newLabUI .> newLabController
newLabController ...> Company
newLabController .> ClinicalAnalysisLaboratory
Company"1"- -"1..*"ClinicalAnalysisLaboratory : > owns
Administrator"1 "-"1..* "ClinicalAnalysisLaboratory : > registers
ClinicalAnalysisLaboratory"1   ‎ "- -"1..*"TestType : > performs
Company" 1 "-" * "TestType : > conducts
Company"1   ‎"-"1..*"Administrator : > employs
Company .> newLabUI
@enduml

PlantUML version 1.2021.4(Sun Apr 04 09:49:39 BST 2021)
(GPL source distribution)
Java Runtime: OpenJDK Runtime Environment
JVM: OpenJDK 64-Bit Server VM
Default Encoding: Cp1252
Language: pt
Country: PT
--></g></svg>