<?xml version="1.0" encoding="UTF-8" standalone="no"?><svg xmlns="http://www.w3.org/2000/svg" xmlns:xlink="http://www.w3.org/1999/xlink" contentScriptType="application/ecmascript" contentStyleType="text/css" height="407.5px" preserveAspectRatio="none" style="width:473px;height:407px;" version="1.1" viewBox="0 0 473 407" width="473.75px" zoomAndPan="magnify"><defs><filter height="300%" id="f15jc9lt57d48e" width="300%" x="-1" y="-1"><feGaussianBlur result="blurOut" stdDeviation="2.5"/><feColorMatrix in="blurOut" result="blurOut2" type="matrix" values="0 0 0 0 0 0 0 0 0 0 0 0 0 0 0 0 0 0 .4 0"/><feOffset dx="5.0" dy="5.0" in="blurOut2" result="blurOut3"/><feBlend in="SourceGraphic" in2="blurOut3" mode="normal"/></filter></defs><g><!--MD5=[da547346deef918ea16944ba046651ef]
class Administrator--><rect codeLine="3" fill="#FEFECE" filter="url(#f15jc9lt57d48e)" height="60" id="Administrator" style="stroke:#A80036;stroke-width:1.875;" width="131.25" x="27.5" y="8.75"/><ellipse cx="46.25" cy="28.75" fill="#ADD1B2" rx="13.75" ry="13.75" style="stroke:#A80036;stroke-width:1.25;"/><path d="M48.75,24.375 Q49.0039,23.75 49.2969,23.4375 Q49.5898,23.125 49.9219,23.125 Q50.5078,23.125 50.8789,23.4766 Q51.25,23.8281 51.25,24.6484 L51.25,26.6016 Q51.25,27.4219 50.8984,27.7734 Q50.5469,28.125 50,28.125 Q49.5117,28.125 49.1992,27.9102 Q48.8867,27.6953 48.75,27.1289 Q48.6914,26.7383 48.4766,26.5234 Q48.0859,26.1133 47.3828,25.8789 Q46.6797,25.625 45.9766,25.625 Q45.0977,25.625 44.3555,25.9766 Q43.6328,26.3281 43.0664,27.1094 Q42.5,27.8906 42.5,28.9648 L42.5,30.1172 Q42.5,31.4063 43.5547,32.2656 Q44.6094,33.125 46.4844,33.125 Q47.5977,33.125 48.3789,32.8711 Q48.8281,32.7344 49.3359,32.2852 Q49.668,32.0313 49.8438,31.9531 Q50.0195,31.875 50.2344,31.875 Q50.6445,31.875 50.9375,32.207 Q51.25,32.5195 51.25,32.9688 Q51.25,33.3984 50.8203,33.9063 Q50.1953,34.6484 49.1992,35.0586 Q47.8906,35.625 46.2891,35.625 Q44.4141,35.625 42.9102,34.8828 Q41.6992,34.2969 40.8398,33.0273 Q40,31.7578 40,30.2539 L40,28.8867 Q40,27.3242 40.7422,25.957 Q41.5039,24.5898 42.8125,23.8672 Q44.1406,23.125 45.625,23.125 Q46.5234,23.125 47.3047,23.4375 Q48.0859,23.75 48.75,24.375 Z " fill="#000000"/><text fill="#000000" font-family="sans-serif" font-size="15" lengthAdjust="spacing" textLength="91.25" x="63.75" y="34.8877">Administrator</text><line style="stroke:#A80036;stroke-width:1.875;" x1="28.75" x2="157.5" y1="48.75" y2="48.75"/><line style="stroke:#A80036;stroke-width:1.875;" x1="28.75" x2="157.5" y1="58.75" y2="58.75"/><!--MD5=[02e4b9b7573f1156f41e60aa5b4e25a4]
class Company--><rect codeLine="4" fill="#FEFECE" filter="url(#f15jc9lt57d48e)" height="60" id="Company" style="stroke:#A80036;stroke-width:1.875;" width="106.25" x="282.5" y="8.75"/><ellipse cx="301.25" cy="28.75" fill="#ADD1B2" rx="13.75" ry="13.75" style="stroke:#A80036;stroke-width:1.25;"/><path d="M303.75,24.375 Q304.0039,23.75 304.2969,23.4375 Q304.5898,23.125 304.9219,23.125 Q305.5078,23.125 305.8789,23.4766 Q306.25,23.8281 306.25,24.6484 L306.25,26.6016 Q306.25,27.4219 305.8984,27.7734 Q305.5469,28.125 305,28.125 Q304.5117,28.125 304.1992,27.9102 Q303.8867,27.6953 303.75,27.1289 Q303.6914,26.7383 303.4766,26.5234 Q303.0859,26.1133 302.3828,25.8789 Q301.6797,25.625 300.9766,25.625 Q300.0977,25.625 299.3555,25.9766 Q298.6328,26.3281 298.0664,27.1094 Q297.5,27.8906 297.5,28.9648 L297.5,30.1172 Q297.5,31.4063 298.5547,32.2656 Q299.6094,33.125 301.4844,33.125 Q302.5977,33.125 303.3789,32.8711 Q303.8281,32.7344 304.3359,32.2852 Q304.668,32.0313 304.8438,31.9531 Q305.0195,31.875 305.2344,31.875 Q305.6445,31.875 305.9375,32.207 Q306.25,32.5195 306.25,32.9688 Q306.25,33.3984 305.8203,33.9063 Q305.1953,34.6484 304.1992,35.0586 Q302.8906,35.625 301.2891,35.625 Q299.4141,35.625 297.9102,34.8828 Q296.6992,34.2969 295.8398,33.0273 Q295,31.7578 295,30.2539 L295,28.8867 Q295,27.3242 295.7422,25.957 Q296.5039,24.5898 297.8125,23.8672 Q299.1406,23.125 300.625,23.125 Q301.5234,23.125 302.3047,23.4375 Q303.0859,23.75 303.75,24.375 Z " fill="#000000"/><text fill="#000000" font-family="sans-serif" font-size="15" lengthAdjust="spacing" textLength="66.25" x="318.75" y="34.8877">Company</text><line style="stroke:#A80036;stroke-width:1.875;" x1="283.75" x2="387.5" y1="48.75" y2="48.75"/><line style="stroke:#A80036;stroke-width:1.875;" x1="283.75" x2="387.5" y1="58.75" y2="58.75"/><!--MD5=[1934a092c0e7d4da7dc7075b6f4b6b03]
class ClinicalAnalysisLaboratory--><rect codeLine="5" fill="#FEFECE" filter="url(#f15jc9lt57d48e)" height="146.4746" id="ClinicalAnalysisLaboratory" style="stroke:#A80036;stroke-width:1.875;" width="221.25" x="8.75" y="243.75"/><ellipse cx="27.5" cy="263.75" fill="#ADD1B2" rx="13.75" ry="13.75" style="stroke:#A80036;stroke-width:1.25;"/><path d="M30,259.375 Q30.2539,258.75 30.5469,258.4375 Q30.8398,258.125 31.1719,258.125 Q31.7578,258.125 32.1289,258.4766 Q32.5,258.8281 32.5,259.6484 L32.5,261.6016 Q32.5,262.4219 32.1484,262.7734 Q31.7969,263.125 31.25,263.125 Q30.7617,263.125 30.4492,262.9102 Q30.1367,262.6953 30,262.1289 Q29.9414,261.7383 29.7266,261.5234 Q29.3359,261.1133 28.6328,260.8789 Q27.9297,260.625 27.2266,260.625 Q26.3477,260.625 25.6055,260.9766 Q24.8828,261.3281 24.3164,262.1094 Q23.75,262.8906 23.75,263.9648 L23.75,265.1172 Q23.75,266.4063 24.8047,267.2656 Q25.8594,268.125 27.7344,268.125 Q28.8477,268.125 29.6289,267.8711 Q30.0781,267.7344 30.5859,267.2852 Q30.918,267.0313 31.0938,266.9531 Q31.2695,266.875 31.4844,266.875 Q31.8945,266.875 32.1875,267.207 Q32.5,267.5195 32.5,267.9688 Q32.5,268.3984 32.0703,268.9063 Q31.4453,269.6484 30.4492,270.0586 Q29.1406,270.625 27.5391,270.625 Q25.6641,270.625 24.1602,269.8828 Q22.9492,269.2969 22.0898,268.0273 Q21.25,266.7578 21.25,265.2539 L21.25,263.8867 Q21.25,262.3242 21.9922,260.957 Q22.7539,259.5898 24.0625,258.8672 Q25.3906,258.125 26.875,258.125 Q27.7734,258.125 28.5547,258.4375 Q29.3359,258.75 30,259.375 Z " fill="#000000"/><text fill="#000000" font-family="sans-serif" font-size="15" lengthAdjust="spacing" textLength="181.25" x="45" y="269.8877">ClinicalAnalysisLaboratory</text><line style="stroke:#A80036;stroke-width:1.875;" x1="10" x2="228.75" y1="283.75" y2="283.75"/><text fill="#000000" font-family="sans-serif" font-size="13.75" lengthAdjust="spacing" textLength="37.5" x="16.25" y="303.0237">-name</text><text fill="#000000" font-family="sans-serif" font-size="13.75" lengthAdjust="spacing" textLength="55" x="16.25" y="320.3186">-address</text><text fill="#000000" font-family="sans-serif" font-size="13.75" lengthAdjust="spacing" textLength="87.5" x="16.25" y="337.6135">-phonenumber</text><text fill="#000000" font-family="sans-serif" font-size="13.75" lengthAdjust="spacing" textLength="23.75" x="16.25" y="354.9084">-TIN</text><text fill="#000000" font-family="sans-serif" font-size="13.75" lengthAdjust="spacing" textLength="77.5" x="16.25" y="372.2034">-laboratoryID</text><line style="stroke:#A80036;stroke-width:1.875;" x1="10" x2="228.75" y1="380.2246" y2="380.2246"/><!--MD5=[aeb3272166074d8737a70b61b1e71682]
class TestType--><rect codeLine="12" fill="#FEFECE" filter="url(#f15jc9lt57d48e)" height="60" id="TestType" style="stroke:#A80036;stroke-width:1.875;" width="102.5" x="354.375" y="286.875"/><ellipse cx="373.125" cy="306.875" fill="#ADD1B2" rx="13.75" ry="13.75" style="stroke:#A80036;stroke-width:1.25;"/><path d="M375.625,302.5 Q375.8789,301.875 376.1719,301.5625 Q376.4648,301.25 376.7969,301.25 Q377.3828,301.25 377.7539,301.6016 Q378.125,301.9531 378.125,302.7734 L378.125,304.7266 Q378.125,305.5469 377.7734,305.8984 Q377.4219,306.25 376.875,306.25 Q376.3867,306.25 376.0742,306.0352 Q375.7617,305.8203 375.625,305.2539 Q375.5664,304.8633 375.3516,304.6484 Q374.9609,304.2383 374.2578,304.0039 Q373.5547,303.75 372.8516,303.75 Q371.9727,303.75 371.2305,304.1016 Q370.5078,304.4531 369.9414,305.2344 Q369.375,306.0156 369.375,307.0898 L369.375,308.2422 Q369.375,309.5313 370.4297,310.3906 Q371.4844,311.25 373.3594,311.25 Q374.4727,311.25 375.2539,310.9961 Q375.7031,310.8594 376.2109,310.4102 Q376.543,310.1563 376.7188,310.0781 Q376.8945,310 377.1094,310 Q377.5195,310 377.8125,310.332 Q378.125,310.6445 378.125,311.0938 Q378.125,311.5234 377.6953,312.0313 Q377.0703,312.7734 376.0742,313.1836 Q374.7656,313.75 373.1641,313.75 Q371.2891,313.75 369.7852,313.0078 Q368.5742,312.4219 367.7148,311.1523 Q366.875,309.8828 366.875,308.3789 L366.875,307.0117 Q366.875,305.4492 367.6172,304.082 Q368.3789,302.7148 369.6875,301.9922 Q371.0156,301.25 372.5,301.25 Q373.3984,301.25 374.1797,301.5625 Q374.9609,301.875 375.625,302.5 Z " fill="#000000"/><text fill="#000000" font-family="sans-serif" font-size="15" lengthAdjust="spacing" textLength="62.5" x="390.625" y="313.0127">TestType</text><line style="stroke:#A80036;stroke-width:1.875;" x1="355.625" x2="455.625" y1="326.875" y2="326.875"/><line style="stroke:#A80036;stroke-width:1.875;" x1="355.625" x2="455.625" y1="336.875" y2="336.875"/><!--MD5=[304db59a05c0da2cdffc3c882f2d9e9b]
link Administrator to Company--><path codeLine="14" d="M159.075,38.75 C197.775,38.75 246.0625,38.75 282.35,38.75 " fill="none" id="Administrator-Company" style="stroke:#A80036;stroke-width:1.25;"/><polygon fill="#000000" points="180.625,23.9697,191.9314,27.6434,191.9314,20.2961,180.625,23.9697" style="stroke:#000000;stroke-width:1.25;"/><text fill="#000000" font-family="sans-serif" font-size="16.25" lengthAdjust="spacing" textLength="61.25" x="198.125" y="30.6189">employs</text><text fill="#000000" font-family="sans-serif" font-size="16.25" lengthAdjust="spacing" textLength="25" x="168.6361" y="56.8644">1..*</text><text fill="#000000" font-family="sans-serif" font-size="16.25" lengthAdjust="spacing" textLength="23.75" x="248.6239" y="57.1838">1   ‎</text><!--MD5=[23b8a99c177c2cd6d714b2cbaa81b3c4]
link Administrator to ClinicalAnalysisLaboratory--><path codeLine="15" d="M95.8875,68.975 C99.8,110.025 107.075,186.45 112.5,243.3875 " fill="none" id="Administrator-ClinicalAnalysisLaboratory" style="stroke:#A80036;stroke-width:1.25;"/><polygon fill="#000000" points="112.4676,162.6916,115.0527,151.0878,107.7385,151.7845,112.4676,162.6916" style="stroke:#000000;stroke-width:1.25;"/><text fill="#000000" font-family="sans-serif" font-size="16.25" lengthAdjust="spacing" textLength="62.5" x="123.125" y="163.1189">registers</text><text fill="#000000" font-family="sans-serif" font-size="16.25" lengthAdjust="spacing" textLength="8.75" x="81.1351" y="95.7023">1</text><text fill="#000000" font-family="sans-serif" font-size="16.25" lengthAdjust="spacing" textLength="25" x="74.2246" y="230.0944">1..*</text><!--MD5=[aafc5d8a5829a6a8d6dc892cb1ff5d24]
link Company to ClinicalAnalysisLaboratory--><path codeLine="16" d="M312.8875,68.975 C280.6875,110.025 220.725,186.45 176.05,243.3875 " fill="none" id="Company-ClinicalAnalysisLaboratory" style="stroke:#A80036;stroke-width:1.25;"/><polygon fill="#000000" points="255.5171,161.387,265.3864,154.7592,259.6058,150.224,255.5171,161.387" style="stroke:#000000;stroke-width:1.25;"/><text fill="#000000" font-family="sans-serif" font-size="16.25" lengthAdjust="spacing" textLength="37.5" x="270.625" y="163.1189">owns</text><text fill="#000000" font-family="sans-serif" font-size="16.25" lengthAdjust="spacing" textLength="8.75" x="280.7007" y="95.7023">1</text><text fill="#000000" font-family="sans-serif" font-size="16.25" lengthAdjust="spacing" textLength="25" x="156.4338" y="230.0944">1..*</text><!--MD5=[742a261f27a3dcd734c626287d811acd]
link Company to TestType--><path codeLine="17" d="M342.9875,68.975 C356.425,121.9125 384.8125,233.675 398.2625,286.625 " fill="none" id="Company-TestType" style="stroke:#A80036;stroke-width:1.25;"/><polygon fill="#000000" points="375.9134,162.5274,376.691,150.6647,369.5698,152.4732,375.9134,162.5274" style="stroke:#000000;stroke-width:1.25;"/><text fill="#000000" font-family="sans-serif" font-size="16.25" lengthAdjust="spacing" textLength="66.25" x="385.625" y="163.1189">conducts</text><text fill="#000000" font-family="sans-serif" font-size="16.25" lengthAdjust="spacing" textLength="8.75" x="334.9657" y="95.7023">1</text><text fill="#000000" font-family="sans-serif" font-size="16.25" lengthAdjust="spacing" textLength="6.25" x="383.0438" y="273.2361">*</text><!--MD5=[2eb961b30663a01bbfd8b4b9b8950031]
link ClinicalAnalysisLaboratory to TestType--><path codeLine="18" d="M230.05,316.875 C272.8375,316.875 319.7125,316.875 354.2625,316.875 " fill="none" id="ClinicalAnalysisLaboratory-TestType" style="stroke:#A80036;stroke-width:1.25;"/><polygon fill="#000000" points="264.0625,302.0947,252.7561,298.4211,252.7561,305.7684,264.0625,302.0947" style="stroke:#000000;stroke-width:1.25;"/><text fill="#000000" font-family="sans-serif" font-size="16.25" lengthAdjust="spacing" textLength="62.5" x="269.0625" y="308.7439">performs</text><text fill="#000000" font-family="sans-serif" font-size="16.25" lengthAdjust="spacing" textLength="18.75" x="239.8157" y="334.5493">1  ‎</text><text fill="#000000" font-family="sans-serif" font-size="16.25" lengthAdjust="spacing" textLength="25" x="319.4836" y="335.3088">1..*</text><!--MD5=[a3323751517728005d41831daf3cd291]
@startuml
skinparam classAttributeIconSize 0

class Administrator
class Company
class ClinicalAnalysisLaboratory {
-name
-address
-phonenumber
-TIN
-laboratoryID
}
class TestType

Administrator "1..*" - "1   ‎" Company : employs <
Administrator "1 "- - -" 1..*  " ClinicalAnalysisLaboratory : registers >
Company "1   " - - - "1..*" ClinicalAnalysisLaboratory: owns >
Company "1" - - - " * " TestType: conducts >
ClinicalAnalysisLaboratory "1  ‎ " - "1..*" TestType : performs >
@enduml

PlantUML version 1.2021.4(Sun Apr 04 09:49:39 BST 2021)
(GPL source distribution)
Java Runtime: OpenJDK Runtime Environment
JVM: OpenJDK 64-Bit Server VM
Default Encoding: Cp1252
Language: pt
Country: PT
--></g></svg>