<?xml version="1.0" encoding="UTF-8" standalone="no"?><svg xmlns="http://www.w3.org/2000/svg" xmlns:xlink="http://www.w3.org/1999/xlink" contentScriptType="application/ecmascript" contentStyleType="text/css" height="606px" preserveAspectRatio="none" style="width:988px;height:606px;" version="1.1" viewBox="0 0 988 606" width="988px" zoomAndPan="magnify"><defs><filter height="300%" id="ffx71b4233xm8" width="300%" x="-1" y="-1"><feGaussianBlur result="blurOut" stdDeviation="2.0"/><feColorMatrix in="blurOut" result="blurOut2" type="matrix" values="0 0 0 0 0 0 0 0 0 0 0 0 0 0 0 0 0 0 .4 0"/><feOffset dx="4.0" dy="4.0" in="blurOut2" result="blurOut3"/><feBlend in="SourceGraphic" in2="blurOut3" mode="normal"/></filter></defs><g><line style="stroke:#A80036;stroke-width:1.0;stroke-dasharray:5.0,5.0;" x1="49" x2="49" y1="89.6094" y2="520.4375"/><line style="stroke:#A80036;stroke-width:1.0;stroke-dasharray:5.0,5.0;" x1="547" x2="547" y1="89.6094" y2="520.4375"/><line style="stroke:#A80036;stroke-width:1.0;stroke-dasharray:5.0,5.0;" x1="911" x2="911" y1="163.2656" y2="520.4375"/><text fill="#000000" font-family="sans-serif" font-size="14" lengthAdjust="spacing" textLength="83" x="5" y="86.5332">Administrator</text><ellipse cx="49.5" cy="15" fill="#FEFECE" filter="url(#ffx71b4233xm8)" rx="8" ry="8" style="stroke:#A80036;stroke-width:2.0;"/><path d="M49.5,23 L49.5,50 M36.5,31 L62.5,31 M49.5,50 L36.5,65 M49.5,50 L62.5,65 " fill="none" filter="url(#ffx71b4233xm8)" style="stroke:#A80036;stroke-width:2.0;"/><text fill="#000000" font-family="sans-serif" font-size="14" lengthAdjust="spacing" textLength="83" x="5" y="533.9707">Administrator</text><ellipse cx="49.5" cy="547.0469" fill="#FEFECE" filter="url(#ffx71b4233xm8)" rx="8" ry="8" style="stroke:#A80036;stroke-width:2.0;"/><path d="M49.5,555.0469 L49.5,582.0469 M36.5,563.0469 L62.5,563.0469 M49.5,582.0469 L36.5,597.0469 M49.5,582.0469 L62.5,597.0469 " fill="none" filter="url(#ffx71b4233xm8)" style="stroke:#A80036;stroke-width:2.0;"/><rect fill="#FEFECE" filter="url(#ffx71b4233xm8)" height="31.6094" style="stroke:#A80036;stroke-width:1.5;" width="79" x="506" y="53"/><text fill="#000000" font-family="sans-serif" font-size="14" lengthAdjust="spacing" textLength="65" x="513" y="74.5332">:newLabUI</text><rect fill="#FEFECE" filter="url(#ffx71b4233xm8)" height="31.6094" style="stroke:#A80036;stroke-width:1.5;" width="79" x="506" y="519.4375"/><text fill="#000000" font-family="sans-serif" font-size="14" lengthAdjust="spacing" textLength="65" x="513" y="540.9707">:newLabUI</text><rect fill="#FEFECE" filter="url(#ffx71b4233xm8)" height="31.6094" style="stroke:#A80036;stroke-width:1.5;" width="129" x="845" y="519.4375"/><text fill="#000000" font-family="sans-serif" font-size="14" lengthAdjust="spacing" textLength="115" x="852" y="540.9707">:newLabController</text><polygon fill="#A80036" points="535.5,117.9609,545.5,121.9609,535.5,125.9609,539.5,121.9609" style="stroke:#A80036;stroke-width:1.0;"/><line style="stroke:#A80036;stroke-width:1.0;" x1="49.5" x2="541.5" y1="121.9609" y2="121.9609"/><text fill="#000000" font-family="sans-serif" font-size="13" font-weight="bold" lengthAdjust="spacing" textLength="7" x="56.5" y="117.1045">1</text><text fill="#000000" font-family="sans-serif" font-size="13" lengthAdjust="spacing" textLength="245" x="67.5" y="117.1045">registers a new clinical analysis laboratory</text><polygon fill="#A80036" points="833,148.3125,843,152.3125,833,156.3125,837,152.3125" style="stroke:#A80036;stroke-width:1.0;"/><line style="stroke:#A80036;stroke-width:1.0;" x1="547.5" x2="839" y1="152.3125" y2="152.3125"/><text fill="#000000" font-family="sans-serif" font-size="13" font-weight="bold" lengthAdjust="spacing" textLength="7" x="554.5" y="147.4561">2</text><text fill="#000000" font-family="sans-serif" font-size="13" lengthAdjust="spacing" textLength="36" x="565.5" y="147.4561">create</text><rect fill="#FEFECE" filter="url(#ffx71b4233xm8)" height="31.6094" style="stroke:#A80036;stroke-width:1.5;" width="129" x="845" y="129.9609"/><text fill="#000000" font-family="sans-serif" font-size="14" lengthAdjust="spacing" textLength="115" x="852" y="151.4941">:newLabController</text><polygon fill="#A80036" points="899.5,194.9219,909.5,198.9219,899.5,202.9219,903.5,198.9219" style="stroke:#A80036;stroke-width:1.0;"/><line style="stroke:#A80036;stroke-width:1.0;" x1="547.5" x2="905.5" y1="198.9219" y2="198.9219"/><text fill="#000000" font-family="sans-serif" font-size="13" font-weight="bold" lengthAdjust="spacing" textLength="7" x="554.5" y="194.0654">3</text><text fill="#000000" font-family="sans-serif" font-size="13" lengthAdjust="spacing" textLength="65" x="565.5" y="194.0654">createLab()</text><polygon fill="#A80036" points="60.5,225.2734,50.5,229.2734,60.5,233.2734,56.5,229.2734" style="stroke:#A80036;stroke-width:1.0;"/><line style="stroke:#A80036;stroke-width:1.0;stroke-dasharray:2.0,2.0;" x1="54.5" x2="546.5" y1="229.2734" y2="229.2734"/><text fill="#000000" font-family="sans-serif" font-size="13" font-weight="bold" lengthAdjust="spacing" textLength="7" x="66.5" y="224.417">4</text><text fill="#000000" font-family="sans-serif" font-size="13" lengthAdjust="spacing" textLength="463" x="77.5" y="224.417">request laboratory information (name, address, phonenumber, TIN, laboratory ID)</text><polygon fill="#A80036" points="535.5,255.625,545.5,259.625,535.5,263.625,539.5,259.625" style="stroke:#A80036;stroke-width:1.0;"/><line style="stroke:#A80036;stroke-width:1.0;" x1="49.5" x2="541.5" y1="259.625" y2="259.625"/><text fill="#000000" font-family="sans-serif" font-size="13" font-weight="bold" lengthAdjust="spacing" textLength="7" x="56.5" y="254.7686">5</text><text fill="#000000" font-family="sans-serif" font-size="13" lengthAdjust="spacing" textLength="119" x="67.5" y="254.7686">gives requested data</text><polygon fill="#A80036" points="899.5,285.9766,909.5,289.9766,899.5,293.9766,903.5,289.9766" style="stroke:#A80036;stroke-width:1.0;"/><line style="stroke:#A80036;stroke-width:1.0;" x1="547.5" x2="905.5" y1="289.9766" y2="289.9766"/><text fill="#000000" font-family="sans-serif" font-size="13" font-weight="bold" lengthAdjust="spacing" textLength="7" x="554.5" y="285.1201">6</text><text fill="#000000" font-family="sans-serif" font-size="13" lengthAdjust="spacing" textLength="329" x="565.5" y="285.1201">setData(name, address, phonenumber, TIN, laboratoryID)</text><polygon fill="#A80036" points="60.5,316.3281,50.5,320.3281,60.5,324.3281,56.5,320.3281" style="stroke:#A80036;stroke-width:1.0;"/><line style="stroke:#A80036;stroke-width:1.0;stroke-dasharray:2.0,2.0;" x1="54.5" x2="546.5" y1="320.3281" y2="320.3281"/><text fill="#000000" font-family="sans-serif" font-size="13" font-weight="bold" lengthAdjust="spacing" textLength="7" x="66.5" y="315.4717">7</text><text fill="#000000" font-family="sans-serif" font-size="13" lengthAdjust="spacing" textLength="126" x="77.5" y="315.4717">request types of tests</text><polygon fill="#A80036" points="535.5,346.6797,545.5,350.6797,535.5,354.6797,539.5,350.6797" style="stroke:#A80036;stroke-width:1.0;"/><line style="stroke:#A80036;stroke-width:1.0;" x1="49.5" x2="541.5" y1="350.6797" y2="350.6797"/><text fill="#000000" font-family="sans-serif" font-size="13" font-weight="bold" lengthAdjust="spacing" textLength="7" x="56.5" y="345.8232">8</text><text fill="#000000" font-family="sans-serif" font-size="13" lengthAdjust="spacing" textLength="132" x="67.5" y="345.8232">selects requested data</text><polygon fill="#A80036" points="899.5,377.0313,909.5,381.0313,899.5,385.0313,903.5,381.0313" style="stroke:#A80036;stroke-width:1.0;"/><line style="stroke:#A80036;stroke-width:1.0;" x1="547.5" x2="905.5" y1="381.0313" y2="381.0313"/><text fill="#000000" font-family="sans-serif" font-size="13" font-weight="bold" lengthAdjust="spacing" textLength="7" x="554.5" y="376.1748">9</text><text fill="#000000" font-family="sans-serif" font-size="13" lengthAdjust="spacing" textLength="51" x="565.5" y="376.1748">setTest()</text><polygon fill="#A80036" points="60.5,407.3828,50.5,411.3828,60.5,415.3828,56.5,411.3828" style="stroke:#A80036;stroke-width:1.0;"/><line style="stroke:#A80036;stroke-width:1.0;stroke-dasharray:2.0,2.0;" x1="54.5" x2="546.5" y1="411.3828" y2="411.3828"/><text fill="#000000" font-family="sans-serif" font-size="13" font-weight="bold" lengthAdjust="spacing" textLength="14" x="66.5" y="406.5264">10</text><text fill="#000000" font-family="sans-serif" font-size="13" lengthAdjust="spacing" textLength="258" x="84.5" y="406.5264">shows all the data and requests confirmation</text><polygon fill="#A80036" points="535.5,437.7344,545.5,441.7344,535.5,445.7344,539.5,441.7344" style="stroke:#A80036;stroke-width:1.0;"/><line style="stroke:#A80036;stroke-width:1.0;" x1="49.5" x2="541.5" y1="441.7344" y2="441.7344"/><text fill="#000000" font-family="sans-serif" font-size="13" font-weight="bold" lengthAdjust="spacing" textLength="14" x="56.5" y="436.8779">11</text><text fill="#000000" font-family="sans-serif" font-size="13" lengthAdjust="spacing" textLength="100" x="74.5" y="436.8779">confirms the data</text><polygon fill="#A80036" points="899.5,468.0859,909.5,472.0859,899.5,476.0859,903.5,472.0859" style="stroke:#A80036;stroke-width:1.0;"/><line style="stroke:#A80036;stroke-width:1.0;" x1="547.5" x2="905.5" y1="472.0859" y2="472.0859"/><text fill="#000000" font-family="sans-serif" font-size="13" font-weight="bold" lengthAdjust="spacing" textLength="14" x="554.5" y="467.2295">12</text><text fill="#000000" font-family="sans-serif" font-size="13" lengthAdjust="spacing" textLength="55" x="572.5" y="467.2295">saveLab()</text><polygon fill="#A80036" points="60.5,498.4375,50.5,502.4375,60.5,506.4375,56.5,502.4375" style="stroke:#A80036;stroke-width:1.0;"/><line style="stroke:#A80036;stroke-width:1.0;stroke-dasharray:2.0,2.0;" x1="54.5" x2="546.5" y1="502.4375" y2="502.4375"/><text fill="#000000" font-family="sans-serif" font-size="13" font-weight="bold" lengthAdjust="spacing" textLength="14" x="66.5" y="497.5811">13</text><text fill="#000000" font-family="sans-serif" font-size="13" lengthAdjust="spacing" textLength="147" x="84.5" y="497.5811">shows operation success</text><!--MD5=[e21d98d787c9b256459c30775259d12c]
@startuml
autonumber

actor Administrator as admin
participant ":newLabUI" as UI
participant ":newLabController" as controller

admin -> UI : registers a new clinical analysis laboratory
create controller
UI -> controller : create
UI -> controller : createLab()
UI - -> admin : request laboratory information (name, address, phonenumber, TIN, laboratory ID)
admin -> UI : gives requested data
UI -> controller : setData(name, address, phonenumber, TIN, laboratoryID)
UI - -> admin : request types of tests
admin -> UI : selects requested data
UI -> controller : setTest()
UI - -> admin : shows all the data and requests confirmation
admin -> UI : confirms the data
UI -> controller : saveLab()
UI - -> admin : shows operation success
@enduml

PlantUML version 1.2021.4(Sun Apr 04 09:49:39 BST 2021)
(GPL source distribution)
Java Runtime: OpenJDK Runtime Environment
JVM: OpenJDK 64-Bit Server VM
Default Encoding: Cp1252
Language: en
Country: US
--></g></svg>