<?xml version="1.0" encoding="UTF-8" standalone="no"?><svg xmlns="http://www.w3.org/2000/svg" xmlns:xlink="http://www.w3.org/1999/xlink" contentScriptType="application/ecmascript" contentStyleType="text/css" height="425px" preserveAspectRatio="none" style="width:473px;height:425px;" version="1.1" viewBox="0 0 473 425" width="473.75px" zoomAndPan="magnify"><defs><filter height="300%" id="f62tyo27hk34w" width="300%" x="-1" y="-1"><feGaussianBlur result="blurOut" stdDeviation="2.5"/><feColorMatrix in="blurOut" result="blurOut2" type="matrix" values="0 0 0 0 0 0 0 0 0 0 0 0 0 0 0 0 0 0 .4 0"/><feOffset dx="5.0" dy="5.0" in="blurOut2" result="blurOut3"/><feBlend in="SourceGraphic" in2="blurOut3" mode="normal"/></filter></defs><g><!--MD5=[da547346deef918ea16944ba046651ef]
class Administrator--><rect codeLine="3" fill="#FEFECE" filter="url(#f62tyo27hk34w)" height="60" id="Administrator" style="stroke:#A80036;stroke-width:1.875;" width="131.25" x="27.5" y="8.75"/><ellipse cx="46.25" cy="28.75" fill="#ADD1B2" rx="13.75" ry="13.75" style="stroke:#A80036;stroke-width:1.25;"/><path d="M48.75,24.375 Q49.0039,23.75 49.2969,23.4375 Q49.5898,23.125 49.9219,23.125 Q50.5078,23.125 50.8789,23.4766 Q51.25,23.8281 51.25,24.6484 L51.25,26.6016 Q51.25,27.4219 50.8984,27.7734 Q50.5469,28.125 50,28.125 Q49.5117,28.125 49.1992,27.9102 Q48.8867,27.6953 48.75,27.1289 Q48.6914,26.7383 48.4766,26.5234 Q48.0859,26.1133 47.3828,25.8789 Q46.6797,25.625 45.9766,25.625 Q45.0977,25.625 44.3555,25.9766 Q43.6328,26.3281 43.0664,27.1094 Q42.5,27.8906 42.5,28.9648 L42.5,30.1172 Q42.5,31.4063 43.5547,32.2656 Q44.6094,33.125 46.4844,33.125 Q47.5977,33.125 48.3789,32.8711 Q48.8281,32.7344 49.3359,32.2852 Q49.668,32.0313 49.8438,31.9531 Q50.0195,31.875 50.2344,31.875 Q50.6445,31.875 50.9375,32.207 Q51.25,32.5195 51.25,32.9688 Q51.25,33.3984 50.8203,33.9063 Q50.1953,34.6484 49.1992,35.0586 Q47.8906,35.625 46.2891,35.625 Q44.4141,35.625 42.9102,34.8828 Q41.6992,34.2969 40.8398,33.0273 Q40,31.7578 40,30.2539 L40,28.8867 Q40,27.3242 40.7422,25.957 Q41.5039,24.5898 42.8125,23.8672 Q44.1406,23.125 45.625,23.125 Q46.5234,23.125 47.3047,23.4375 Q48.0859,23.75 48.75,24.375 Z " fill="#000000"/><text fill="#000000" font-family="sans-serif" font-size="15" lengthAdjust="spacing" textLength="91.25" x="63.75" y="34.8877">Administrator</text><line style="stroke:#A80036;stroke-width:1.875;" x1="28.75" x2="157.5" y1="48.75" y2="48.75"/><line style="stroke:#A80036;stroke-width:1.875;" x1="28.75" x2="157.5" y1="58.75" y2="58.75"/><!--MD5=[02e4b9b7573f1156f41e60aa5b4e25a4]
class Company--><rect codeLine="4" fill="#FEFECE" filter="url(#f62tyo27hk34w)" height="60" id="Company" style="stroke:#A80036;stroke-width:1.875;" width="106.25" x="282.5" y="8.75"/><ellipse cx="301.25" cy="28.75" fill="#ADD1B2" rx="13.75" ry="13.75" style="stroke:#A80036;stroke-width:1.25;"/><path d="M303.75,24.375 Q304.0039,23.75 304.2969,23.4375 Q304.5898,23.125 304.9219,23.125 Q305.5078,23.125 305.8789,23.4766 Q306.25,23.8281 306.25,24.6484 L306.25,26.6016 Q306.25,27.4219 305.8984,27.7734 Q305.5469,28.125 305,28.125 Q304.5117,28.125 304.1992,27.9102 Q303.8867,27.6953 303.75,27.1289 Q303.6914,26.7383 303.4766,26.5234 Q303.0859,26.1133 302.3828,25.8789 Q301.6797,25.625 300.9766,25.625 Q300.0977,25.625 299.3555,25.9766 Q298.6328,26.3281 298.0664,27.1094 Q297.5,27.8906 297.5,28.9648 L297.5,30.1172 Q297.5,31.4063 298.5547,32.2656 Q299.6094,33.125 301.4844,33.125 Q302.5977,33.125 303.3789,32.8711 Q303.8281,32.7344 304.3359,32.2852 Q304.668,32.0313 304.8438,31.9531 Q305.0195,31.875 305.2344,31.875 Q305.6445,31.875 305.9375,32.207 Q306.25,32.5195 306.25,32.9688 Q306.25,33.3984 305.8203,33.9063 Q305.1953,34.6484 304.1992,35.0586 Q302.8906,35.625 301.2891,35.625 Q299.4141,35.625 297.9102,34.8828 Q296.6992,34.2969 295.8398,33.0273 Q295,31.7578 295,30.2539 L295,28.8867 Q295,27.3242 295.7422,25.957 Q296.5039,24.5898 297.8125,23.8672 Q299.1406,23.125 300.625,23.125 Q301.5234,23.125 302.3047,23.4375 Q303.0859,23.75 303.75,24.375 Z " fill="#000000"/><text fill="#000000" font-family="sans-serif" font-size="15" lengthAdjust="spacing" textLength="66.25" x="318.75" y="34.8877">Company</text><line style="stroke:#A80036;stroke-width:1.875;" x1="283.75" x2="387.5" y1="48.75" y2="48.75"/><line style="stroke:#A80036;stroke-width:1.875;" x1="283.75" x2="387.5" y1="58.75" y2="58.75"/><!--MD5=[1934a092c0e7d4da7dc7075b6f4b6b03]
class ClinicalAnalysisLaboratory--><rect codeLine="5" fill="#FEFECE" filter="url(#f62tyo27hk34w)" height="163.7695" id="ClinicalAnalysisLaboratory" style="stroke:#A80036;stroke-width:1.875;" width="221.25" x="8.75" y="243.75"/><ellipse cx="27.5" cy="263.75" fill="#ADD1B2" rx="13.75" ry="13.75" style="stroke:#A80036;stroke-width:1.25;"/><path d="M30,259.375 Q30.2539,258.75 30.5469,258.4375 Q30.8398,258.125 31.1719,258.125 Q31.7578,258.125 32.1289,258.4766 Q32.5,258.8281 32.5,259.6484 L32.5,261.6016 Q32.5,262.4219 32.1484,262.7734 Q31.7969,263.125 31.25,263.125 Q30.7617,263.125 30.4492,262.9102 Q30.1367,262.6953 30,262.1289 Q29.9414,261.7383 29.7266,261.5234 Q29.3359,261.1133 28.6328,260.8789 Q27.9297,260.625 27.2266,260.625 Q26.3477,260.625 25.6055,260.9766 Q24.8828,261.3281 24.3164,262.1094 Q23.75,262.8906 23.75,263.9648 L23.75,265.1172 Q23.75,266.4063 24.8047,267.2656 Q25.8594,268.125 27.7344,268.125 Q28.8477,268.125 29.6289,267.8711 Q30.0781,267.7344 30.5859,267.2852 Q30.918,267.0313 31.0938,266.9531 Q31.2695,266.875 31.4844,266.875 Q31.8945,266.875 32.1875,267.207 Q32.5,267.5195 32.5,267.9688 Q32.5,268.3984 32.0703,268.9063 Q31.4453,269.6484 30.4492,270.0586 Q29.1406,270.625 27.5391,270.625 Q25.6641,270.625 24.1602,269.8828 Q22.9492,269.2969 22.0898,268.0273 Q21.25,266.7578 21.25,265.2539 L21.25,263.8867 Q21.25,262.3242 21.9922,260.957 Q22.7539,259.5898 24.0625,258.8672 Q25.3906,258.125 26.875,258.125 Q27.7734,258.125 28.5547,258.4375 Q29.3359,258.75 30,259.375 Z " fill="#000000"/><text fill="#000000" font-family="sans-serif" font-size="15" lengthAdjust="spacing" textLength="181.25" x="45" y="269.8877">ClinicalAnalysisLaboratory</text><line style="stroke:#A80036;stroke-width:1.875;" x1="10" x2="228.75" y1="283.75" y2="283.75"/><text fill="#000000" font-family="sans-serif" font-size="13.75" lengthAdjust="spacing" textLength="37.5" x="16.25" y="303.0237">-name</text><text fill="#000000" font-family="sans-serif" font-size="13.75" lengthAdjust="spacing" textLength="55" x="16.25" y="320.3186">-address</text><text fill="#000000" font-family="sans-serif" font-size="13.75" lengthAdjust="spacing" textLength="87.5" x="16.25" y="337.6135">-phonenumber</text><text fill="#000000" font-family="sans-serif" font-size="13.75" lengthAdjust="spacing" textLength="23.75" x="16.25" y="354.9084">-TIN</text><text fill="#000000" font-family="sans-serif" font-size="13.75" lengthAdjust="spacing" textLength="77.5" x="16.25" y="372.2034">-laboratoryID</text><text fill="#000000" font-family="sans-serif" font-size="13.75" lengthAdjust="spacing" textLength="78.75" x="16.25" y="389.4983">-testTypeList</text><line style="stroke:#A80036;stroke-width:1.875;" x1="10" x2="228.75" y1="397.5195" y2="397.5195"/><!--MD5=[aeb3272166074d8737a70b61b1e71682]
class TestType--><rect codeLine="13" fill="#FEFECE" filter="url(#f62tyo27hk34w)" height="60" id="TestType" style="stroke:#A80036;stroke-width:1.875;" width="102.5" x="354.375" y="295.625"/><ellipse cx="373.125" cy="315.625" fill="#ADD1B2" rx="13.75" ry="13.75" style="stroke:#A80036;stroke-width:1.25;"/><path d="M375.625,311.25 Q375.8789,310.625 376.1719,310.3125 Q376.4648,310 376.7969,310 Q377.3828,310 377.7539,310.3516 Q378.125,310.7031 378.125,311.5234 L378.125,313.4766 Q378.125,314.2969 377.7734,314.6484 Q377.4219,315 376.875,315 Q376.3867,315 376.0742,314.7852 Q375.7617,314.5703 375.625,314.0039 Q375.5664,313.6133 375.3516,313.3984 Q374.9609,312.9883 374.2578,312.7539 Q373.5547,312.5 372.8516,312.5 Q371.9727,312.5 371.2305,312.8516 Q370.5078,313.2031 369.9414,313.9844 Q369.375,314.7656 369.375,315.8398 L369.375,316.9922 Q369.375,318.2813 370.4297,319.1406 Q371.4844,320 373.3594,320 Q374.4727,320 375.2539,319.7461 Q375.7031,319.6094 376.2109,319.1602 Q376.543,318.9063 376.7188,318.8281 Q376.8945,318.75 377.1094,318.75 Q377.5195,318.75 377.8125,319.082 Q378.125,319.3945 378.125,319.8438 Q378.125,320.2734 377.6953,320.7813 Q377.0703,321.5234 376.0742,321.9336 Q374.7656,322.5 373.1641,322.5 Q371.2891,322.5 369.7852,321.7578 Q368.5742,321.1719 367.7148,319.9023 Q366.875,318.6328 366.875,317.1289 L366.875,315.7617 Q366.875,314.1992 367.6172,312.832 Q368.3789,311.4648 369.6875,310.7422 Q371.0156,310 372.5,310 Q373.3984,310 374.1797,310.3125 Q374.9609,310.625 375.625,311.25 Z " fill="#000000"/><text fill="#000000" font-family="sans-serif" font-size="15" lengthAdjust="spacing" textLength="62.5" x="390.625" y="321.7627">TestType</text><line style="stroke:#A80036;stroke-width:1.875;" x1="355.625" x2="455.625" y1="335.625" y2="335.625"/><line style="stroke:#A80036;stroke-width:1.875;" x1="355.625" x2="455.625" y1="345.625" y2="345.625"/><!--MD5=[304db59a05c0da2cdffc3c882f2d9e9b]
link Administrator to Company--><path codeLine="15" d="M159.075,38.75 C197.775,38.75 246.0625,38.75 282.35,38.75 " fill="none" id="Administrator-Company" style="stroke:#A80036;stroke-width:1.25;"/><polygon fill="#000000" points="180.625,23.9697,191.9314,27.6434,191.9314,20.2961,180.625,23.9697" style="stroke:#000000;stroke-width:1.25;"/><text fill="#000000" font-family="sans-serif" font-size="16.25" lengthAdjust="spacing" textLength="61.25" x="198.125" y="30.6189">employs</text><text fill="#000000" font-family="sans-serif" font-size="16.25" lengthAdjust="spacing" textLength="25" x="168.6361" y="56.8644">1..*</text><text fill="#000000" font-family="sans-serif" font-size="16.25" lengthAdjust="spacing" textLength="23.75" x="248.6239" y="57.1838">1   ‎</text><!--MD5=[23b8a99c177c2cd6d714b2cbaa81b3c4]
link Administrator to ClinicalAnalysisLaboratory--><path codeLine="16" d="M95.7875,68.8375 C99.525,109.3625 106.4875,184.75 111.875,243.175 " fill="none" id="Administrator-ClinicalAnalysisLaboratory" style="stroke:#A80036;stroke-width:1.25;"/><polygon fill="#000000" points="112.4493,162.6933,115.0685,151.0972,107.7523,151.7723,112.4493,162.6933" style="stroke:#000000;stroke-width:1.25;"/><text fill="#000000" font-family="sans-serif" font-size="16.25" lengthAdjust="spacing" textLength="62.5" x="123.125" y="163.1189">registers</text><text fill="#000000" font-family="sans-serif" font-size="16.25" lengthAdjust="spacing" textLength="8.75" x="81.0107" y="95.5313">1</text><text fill="#000000" font-family="sans-serif" font-size="16.25" lengthAdjust="spacing" textLength="25" x="73.8672" y="229.9551">1..*</text><!--MD5=[aafc5d8a5829a6a8d6dc892cb1ff5d24]
link Company to ClinicalAnalysisLaboratory--><path codeLine="17" d="M313.7,68.8375 C282.8875,109.3625 225.55,184.75 181.125,243.175 " fill="none" id="Company-ClinicalAnalysisLaboratory" style="stroke:#A80036;stroke-width:1.25;"/><polygon fill="#000000" points="256.8418,161.4447,266.6099,154.6686,260.7615,150.2212,256.8418,161.4447" style="stroke:#000000;stroke-width:1.25;"/><text fill="#000000" font-family="sans-serif" font-size="16.25" lengthAdjust="spacing" textLength="37.5" x="271.875" y="163.1189">owns</text><text fill="#000000" font-family="sans-serif" font-size="16.25" lengthAdjust="spacing" textLength="8.75" x="281.7113" y="95.5313">1</text><text fill="#000000" font-family="sans-serif" font-size="16.25" lengthAdjust="spacing" textLength="25" x="161.5117" y="229.9551">1..*</text><!--MD5=[742a261f27a3dcd734c626287d811acd]
link Company to TestType--><path codeLine="18" d="M342.725,68.8375 C356.1375,123.3375 385.075,240.9 398.5125,295.4625 " fill="none" id="Company-TestType" style="stroke:#A80036;stroke-width:1.25;"/><polygon fill="#000000" points="374.6189,162.5386,375.4835,150.6818,368.3492,152.4381,374.6189,162.5386" style="stroke:#000000;stroke-width:1.25;"/><text fill="#000000" font-family="sans-serif" font-size="16.25" lengthAdjust="spacing" textLength="66.25" x="384.375" y="163.1189">conducts</text><text fill="#000000" font-family="sans-serif" font-size="16.25" lengthAdjust="spacing" textLength="8.75" x="334.6392" y="95.5313">1</text><text fill="#000000" font-family="sans-serif" font-size="16.25" lengthAdjust="spacing" textLength="6.25" x="383.3579" y="282.0961">*</text><!--MD5=[2eb961b30663a01bbfd8b4b9b8950031]
link ClinicalAnalysisLaboratory to TestType--><path codeLine="19" d="M230.05,325.625 C272.8375,325.625 319.7125,325.625 354.2625,325.625 " fill="none" id="ClinicalAnalysisLaboratory-TestType" style="stroke:#A80036;stroke-width:1.25;"/><polygon fill="#000000" points="264.0625,310.8447,252.7561,307.1711,252.7561,314.5184,264.0625,310.8447" style="stroke:#000000;stroke-width:1.25;"/><text fill="#000000" font-family="sans-serif" font-size="16.25" lengthAdjust="spacing" textLength="62.5" x="269.0625" y="317.4939">performs</text><text fill="#000000" font-family="sans-serif" font-size="16.25" lengthAdjust="spacing" textLength="18.75" x="239.8157" y="343.3075">1  ‎</text><text fill="#000000" font-family="sans-serif" font-size="16.25" lengthAdjust="spacing" textLength="25" x="319.4836" y="344.0588">1..*</text><!--MD5=[afa1db040d545734e2704b8b6ec76159]
@startuml
skinparam classAttributeIconSize 0

class Administrator
class Company
class ClinicalAnalysisLaboratory {
-name
-address
-phonenumber
-TIN
-laboratoryID
-testTypeList
}
class TestType

Administrator "1..*" - "1   ‎" Company : employs <
Administrator "1 "- - -" 1..*  " ClinicalAnalysisLaboratory : registers >
Company "1   " - - - "1..*" ClinicalAnalysisLaboratory: owns >
Company "1" - - - " * " TestType: conducts >
ClinicalAnalysisLaboratory "1  ‎ " - "1..*" TestType : performs >
@enduml

PlantUML version 1.2021.4(Sun Apr 04 09:49:39 BST 2021)
(GPL source distribution)
Java Runtime: OpenJDK Runtime Environment
JVM: OpenJDK 64-Bit Server VM
Default Encoding: Cp1252
Language: pt
Country: PT
--></g></svg>