<?xml version="1.0" encoding="UTF-8" standalone="no"?><svg xmlns="http://www.w3.org/2000/svg" xmlns:xlink="http://www.w3.org/1999/xlink" contentScriptType="application/ecmascript" contentStyleType="text/css" height="316px" preserveAspectRatio="none" style="width:562px;height:316px;background:#FFFFFF;" version="1.1" viewBox="0 0 562 316" width="562px" zoomAndPan="magnify"><defs><filter height="300%" id="f1624ere6tfd41" width="300%" x="-1" y="-1"><feGaussianBlur result="blurOut" stdDeviation="2.0"/><feColorMatrix in="blurOut" result="blurOut2" type="matrix" values="0 0 0 0 0 0 0 0 0 0 0 0 0 0 0 0 0 0 .4 0"/><feOffset dx="4.0" dy="4.0" in="blurOut2" result="blurOut3"/><feBlend in="SourceGraphic" in2="blurOut3" mode="normal"/></filter></defs><g><line style="stroke:#A80036;stroke-width:1.0;stroke-dasharray:5.0,5.0;" x1="82" x2="82" y1="89.6094" y2="231.0156"/><line style="stroke:#A80036;stroke-width:1.0;stroke-dasharray:5.0,5.0;" x1="520" x2="520" y1="89.6094" y2="231.0156"/><text fill="#000000" font-family="sans-serif" font-size="14" lengthAdjust="spacing" textLength="148" x="5" y="86.5332">Laboratory Coordinator</text><ellipse cx="82" cy="15" fill="#FEFECE" filter="url(#f1624ere6tfd41)" rx="8" ry="8" style="stroke:#A80036;stroke-width:2.0;"/><path d="M82,23 L82,50 M69,31 L95,31 M82,50 L69,65 M82,50 L95,65 " fill="none" filter="url(#f1624ere6tfd41)" style="stroke:#A80036;stroke-width:2.0;"/><text fill="#000000" font-family="sans-serif" font-size="14" lengthAdjust="spacing" textLength="148" x="5" y="244.5488">Laboratory Coordinator</text><ellipse cx="82" cy="257.625" fill="#FEFECE" filter="url(#f1624ere6tfd41)" rx="8" ry="8" style="stroke:#A80036;stroke-width:2.0;"/><path d="M82,265.625 L82,292.625 M69,273.625 L95,273.625 M82,292.625 L69,307.625 M82,292.625 L95,307.625 " fill="none" filter="url(#f1624ere6tfd41)" style="stroke:#A80036;stroke-width:2.0;"/><rect fill="#FEFECE" filter="url(#f1624ere6tfd41)" height="31.6094" style="stroke:#A80036;stroke-width:1.5;" width="60" x="488" y="53"/><text fill="#000000" font-family="sans-serif" font-size="14" lengthAdjust="spacing" textLength="46" x="495" y="74.5332">System</text><rect fill="#FEFECE" filter="url(#f1624ere6tfd41)" height="31.6094" style="stroke:#A80036;stroke-width:1.5;" width="60" x="488" y="230.0156"/><text fill="#000000" font-family="sans-serif" font-size="14" lengthAdjust="spacing" textLength="46" x="495" y="251.5488">System</text><polygon fill="#A80036" points="508,117.9609,518,121.9609,508,125.9609,512,121.9609" style="stroke:#A80036;stroke-width:1.0;"/><line style="stroke:#A80036;stroke-width:1.0;" x1="82" x2="514" y1="121.9609" y2="121.9609"/><text fill="#000000" font-family="sans-serif" font-size="13" font-weight="bold" lengthAdjust="spacing" textLength="7" x="89" y="117.1045">1</text><text fill="#000000" font-family="sans-serif" font-size="13" lengthAdjust="spacing" textLength="215" x="100" y="117.1045">selects the overview of all tests menu</text><polygon fill="#A80036" points="93,148.3125,83,152.3125,93,156.3125,89,152.3125" style="stroke:#A80036;stroke-width:1.0;"/><line style="stroke:#A80036;stroke-width:1.0;" x1="87" x2="519" y1="152.3125" y2="152.3125"/><text fill="#000000" font-family="sans-serif" font-size="13" font-weight="bold" lengthAdjust="spacing" textLength="7" x="99" y="147.4561">2</text><text fill="#000000" font-family="sans-serif" font-size="13" lengthAdjust="spacing" textLength="403" x="110" y="147.4561">requests the beginning and ending dates and the algorithm to be used</text><polygon fill="#A80036" points="508,178.6641,518,182.6641,508,186.6641,512,182.6641" style="stroke:#A80036;stroke-width:1.0;"/><line style="stroke:#A80036;stroke-width:1.0;" x1="82" x2="514" y1="182.6641" y2="182.6641"/><text fill="#000000" font-family="sans-serif" font-size="13" font-weight="bold" lengthAdjust="spacing" textLength="7" x="89" y="177.8076">3</text><text fill="#000000" font-family="sans-serif" font-size="13" lengthAdjust="spacing" textLength="158" x="100" y="177.8076">types in the requested data</text><polygon fill="#A80036" points="93,209.0156,83,213.0156,93,217.0156,89,213.0156" style="stroke:#A80036;stroke-width:1.0;"/><line style="stroke:#A80036;stroke-width:1.0;" x1="87" x2="519" y1="213.0156" y2="213.0156"/><text fill="#000000" font-family="sans-serif" font-size="13" font-weight="bold" lengthAdjust="spacing" textLength="7" x="99" y="208.1592">4</text><text fill="#000000" font-family="sans-serif" font-size="13" lengthAdjust="spacing" textLength="184" x="110" y="208.1592">shows the statistics and graphs</text><!--MD5=[16abcd66fff21b61a66b6af7254d1838]
@startuml
autonumber

actor "Laboratory Coordinator" as lc

lc -> System: selects the overview of all tests menu
System -> lc: requests the beginning and ending dates and the algorithm to be used
lc -> System: types in the requested data
System -> lc: shows the statistics and graphs

@enduml

PlantUML version 1.2021.7(Sun May 23 13:40:07 BST 2021)
(GPL source distribution)
Java Runtime: OpenJDK Runtime Environment
JVM: OpenJDK 64-Bit Server VM
Default Encoding: Cp1252
Language: pt
Country: PT
--></g></svg>