<?xml version="1.0" encoding="UTF-8" standalone="no"?><svg xmlns="http://www.w3.org/2000/svg" xmlns:xlink="http://www.w3.org/1999/xlink" contentScriptType="application/ecmascript" contentStyleType="text/css" height="1336px" preserveAspectRatio="none" style="width:2856px;height:1336px;" version="1.1" viewBox="0 0 2856 1336" width="2856px" zoomAndPan="magnify"><defs><filter height="300%" id="f1s4oft710m4ti" width="300%" x="-1" y="-1"><feGaussianBlur result="blurOut" stdDeviation="2.0"/><feColorMatrix in="blurOut" result="blurOut2" type="matrix" values="0 0 0 0 0 0 0 0 0 0 0 0 0 0 0 0 0 0 .4 0"/><feOffset dx="4.0" dy="4.0" in="blurOut2" result="blurOut3"/><feBlend in="SourceGraphic" in2="blurOut3" mode="normal"/></filter></defs><g><rect fill="#FFFFFF" filter="url(#f1s4oft710m4ti)" height="113.5703" style="stroke:#000000;stroke-width:2.0;" width="821.5" x="1733" y="487.0859"/><rect fill="#FFFFFF" height="48.6094" style="stroke:none;stroke-width:1.0;" width="821.5" x="1733" y="552.0469"/><line style="stroke:#A80036;stroke-width:1.0;stroke-dasharray:5.0,5.0;" x1="49" x2="49" y1="89.6094" y2="1250.6328"/><line style="stroke:#A80036;stroke-width:1.0;stroke-dasharray:5.0,5.0;" x1="624" x2="624" y1="89.6094" y2="1250.6328"/><line style="stroke:#A80036;stroke-width:1.0;stroke-dasharray:5.0,5.0;" x1="1124" x2="1124" y1="163.2656" y2="1250.6328"/><line style="stroke:#A80036;stroke-width:1.0;stroke-dasharray:5.0,5.0;" x1="1353.5" x2="1353.5" y1="89.6094" y2="1250.6328"/><line style="stroke:#A80036;stroke-width:1.0;stroke-dasharray:5.0,5.0;" x1="1647" x2="1647" y1="89.6094" y2="1250.6328"/><line style="stroke:#A80036;stroke-width:1.0;stroke-dasharray:5.0,5.0;" x1="1808" x2="1808" y1="89.6094" y2="1250.6328"/><line style="stroke:#A80036;stroke-width:1.0;stroke-dasharray:5.0,5.0;" x1="2231.5" x2="2231.5" y1="587.3516" y2="1250.6328"/><line style="stroke:#A80036;stroke-width:1.0;stroke-dasharray:5.0,5.0;" x1="2476.5" x2="2476.5" y1="538.7422" y2="1250.6328"/><line style="stroke:#A80036;stroke-width:1.0;stroke-dasharray:5.0,5.0;" x1="2645.5" x2="2645.5" y1="89.6094" y2="1250.6328"/><line style="stroke:#A80036;stroke-width:1.0;stroke-dasharray:5.0,5.0;" x1="2796.5" x2="2796.5" y1="89.6094" y2="1250.6328"/><text fill="#000000" font-family="sans-serif" font-size="14" lengthAdjust="spacing" textLength="83" x="5" y="86.5332">Administrator</text><ellipse cx="49.5" cy="15" fill="#FEFECE" filter="url(#f1s4oft710m4ti)" rx="8" ry="8" style="stroke:#A80036;stroke-width:2.0;"/><path d="M49.5,23 L49.5,50 M36.5,31 L62.5,31 M49.5,50 L36.5,65 M49.5,50 L62.5,65 " fill="none" filter="url(#f1s4oft710m4ti)" style="stroke:#A80036;stroke-width:2.0;"/><text fill="#000000" font-family="sans-serif" font-size="14" lengthAdjust="spacing" textLength="83" x="5" y="1264.166">Administrator</text><ellipse cx="49.5" cy="1277.2422" fill="#FEFECE" filter="url(#f1s4oft710m4ti)" rx="8" ry="8" style="stroke:#A80036;stroke-width:2.0;"/><path d="M49.5,1285.2422 L49.5,1312.2422 M36.5,1293.2422 L62.5,1293.2422 M49.5,1312.2422 L36.5,1327.2422 M49.5,1312.2422 L62.5,1327.2422 " fill="none" filter="url(#f1s4oft710m4ti)" style="stroke:#A80036;stroke-width:2.0;"/><rect fill="#FEFECE" filter="url(#f1s4oft710m4ti)" height="31.6094" style="stroke:#A80036;stroke-width:1.5;" width="135" x="555" y="53"/><text fill="#000000" font-family="sans-serif" font-size="14" lengthAdjust="spacing" textLength="121" x="562" y="74.5332">:CreateEmployeeUI</text><rect fill="#FEFECE" filter="url(#f1s4oft710m4ti)" height="31.6094" style="stroke:#A80036;stroke-width:1.5;" width="135" x="555" y="1249.6328"/><text fill="#000000" font-family="sans-serif" font-size="14" lengthAdjust="spacing" textLength="121" x="562" y="1271.166">:CreateEmployeeUI</text><rect fill="#FEFECE" filter="url(#f1s4oft710m4ti)" height="31.6094" style="stroke:#A80036;stroke-width:1.5;" width="185" x="1030" y="1249.6328"/><text fill="#000000" font-family="sans-serif" font-size="14" lengthAdjust="spacing" textLength="171" x="1037" y="1271.166">:CreateEmployeeController</text><rect fill="#FEFECE" filter="url(#f1s4oft710m4ti)" height="31.6094" style="stroke:#A80036;stroke-width:1.5;" width="78" x="1312.5" y="53"/><text fill="#000000" font-family="sans-serif" font-size="14" lengthAdjust="spacing" textLength="64" x="1319.5" y="74.5332">:Company</text><rect fill="#FEFECE" filter="url(#f1s4oft710m4ti)" height="31.6094" style="stroke:#A80036;stroke-width:1.5;" width="78" x="1312.5" y="1249.6328"/><text fill="#000000" font-family="sans-serif" font-size="14" lengthAdjust="spacing" textLength="64" x="1319.5" y="1271.166">:Company</text><rect fill="#FEFECE" filter="url(#f1s4oft710m4ti)" height="31.6094" style="stroke:#A80036;stroke-width:1.5;" width="167" x="1562" y="53"/><text fill="#000000" font-family="sans-serif" font-size="14" lengthAdjust="spacing" textLength="153" x="1569" y="74.5332">roleStore: OrgRoleStore</text><rect fill="#FEFECE" filter="url(#f1s4oft710m4ti)" height="31.6094" style="stroke:#A80036;stroke-width:1.5;" width="167" x="1562" y="1249.6328"/><text fill="#000000" font-family="sans-serif" font-size="14" lengthAdjust="spacing" textLength="153" x="1569" y="1271.166">roleStore: OrgRoleStore</text><rect fill="#FEFECE" filter="url(#f1s4oft710m4ti)" height="31.6094" style="stroke:#A80036;stroke-width:1.5;" width="127" x="1743" y="53"/><text fill="#000000" font-family="sans-serif" font-size="14" lengthAdjust="spacing" textLength="113" x="1750" y="74.5332">:OrganizationRole</text><rect fill="#FEFECE" filter="url(#f1s4oft710m4ti)" height="31.6094" style="stroke:#A80036;stroke-width:1.5;" width="127" x="1743" y="1249.6328"/><text fill="#000000" font-family="sans-serif" font-size="14" lengthAdjust="spacing" textLength="113" x="1750" y="1271.166">:OrganizationRole</text><rect fill="#FEFECE" filter="url(#f1s4oft710m4ti)" height="31.6094" style="stroke:#A80036;stroke-width:1.5;" width="92" x="2183.5" y="1249.6328"/><text fill="#000000" font-family="sans-serif" font-size="14" lengthAdjust="spacing" textLength="78" x="2190.5" y="1271.166">e: Employee</text><rect fill="#FEFECE" filter="url(#f1s4oft710m4ti)" height="31.6094" style="stroke:#A80036;stroke-width:1.5;" width="132" x="2408.5" y="1249.6328"/><text fill="#000000" font-family="sans-serif" font-size="14" lengthAdjust="spacing" textLength="118" x="2415.5" y="1271.166">e: SpecialistDoctor</text><rect fill="#FEFECE" filter="url(#f1s4oft710m4ti)" height="31.6094" style="stroke:#A80036;stroke-width:1.5;" width="179" x="2554.5" y="53"/><text fill="#000000" font-family="sans-serif" font-size="14" lengthAdjust="spacing" textLength="165" x="2561.5" y="74.5332">empStore: EmployeeStore</text><rect fill="#FEFECE" filter="url(#f1s4oft710m4ti)" height="31.6094" style="stroke:#A80036;stroke-width:1.5;" width="179" x="2554.5" y="1249.6328"/><text fill="#000000" font-family="sans-serif" font-size="14" lengthAdjust="spacing" textLength="165" x="2561.5" y="1271.166">empStore: EmployeeStore</text><rect fill="#FEFECE" filter="url(#f1s4oft710m4ti)" height="31.6094" style="stroke:#A80036;stroke-width:1.5;" width="95" x="2747.5" y="53"/><text fill="#000000" font-family="sans-serif" font-size="14" lengthAdjust="spacing" textLength="81" x="2754.5" y="74.5332">:AuthFacade</text><rect fill="#FEFECE" filter="url(#f1s4oft710m4ti)" height="31.6094" style="stroke:#A80036;stroke-width:1.5;" width="95" x="2747.5" y="1249.6328"/><text fill="#000000" font-family="sans-serif" font-size="14" lengthAdjust="spacing" textLength="81" x="2754.5" y="1271.166">:AuthFacade</text><polygon fill="#A80036" points="612.5,117.9609,622.5,121.9609,612.5,125.9609,616.5,121.9609" style="stroke:#A80036;stroke-width:1.0;"/><line style="stroke:#A80036;stroke-width:1.0;" x1="49.5" x2="618.5" y1="121.9609" y2="121.9609"/><text fill="#000000" font-family="sans-serif" font-size="13" font-weight="bold" lengthAdjust="spacing" textLength="7" x="56.5" y="117.1045">1</text><text fill="#000000" font-family="sans-serif" font-size="13" lengthAdjust="spacing" textLength="229" x="67.5" y="117.1045">starts a company employee registration</text><polygon fill="#A80036" points="1018,148.3125,1028,152.3125,1018,156.3125,1022,152.3125" style="stroke:#A80036;stroke-width:1.0;"/><line style="stroke:#A80036;stroke-width:1.0;" x1="624.5" x2="1024" y1="152.3125" y2="152.3125"/><text fill="#000000" font-family="sans-serif" font-size="13" font-weight="bold" lengthAdjust="spacing" textLength="7" x="631.5" y="147.4561">2</text><text fill="#000000" font-family="sans-serif" font-size="13" lengthAdjust="spacing" textLength="44" x="642.5" y="147.4561">create()</text><rect fill="#FEFECE" filter="url(#f1s4oft710m4ti)" height="31.6094" style="stroke:#A80036;stroke-width:1.5;" width="185" x="1030" y="129.9609"/><text fill="#000000" font-family="sans-serif" font-size="14" lengthAdjust="spacing" textLength="171" x="1037" y="151.4941">:CreateEmployeeController</text><polygon fill="#A80036" points="1112.5,194.9219,1122.5,198.9219,1112.5,202.9219,1116.5,198.9219" style="stroke:#A80036;stroke-width:1.0;"/><line style="stroke:#A80036;stroke-width:1.0;" x1="624.5" x2="1118.5" y1="198.9219" y2="198.9219"/><text fill="#000000" font-family="sans-serif" font-size="13" font-weight="bold" lengthAdjust="spacing" textLength="7" x="631.5" y="194.0654">3</text><text fill="#000000" font-family="sans-serif" font-size="13" lengthAdjust="spacing" textLength="132" x="642.5" y="194.0654">getOrganizationRoles()</text><polygon fill="#A80036" points="1341.5,225.2734,1351.5,229.2734,1341.5,233.2734,1345.5,229.2734" style="stroke:#A80036;stroke-width:1.0;"/><line style="stroke:#A80036;stroke-width:1.0;" x1="1124.5" x2="1347.5" y1="229.2734" y2="229.2734"/><text fill="#000000" font-family="sans-serif" font-size="13" font-weight="bold" lengthAdjust="spacing" textLength="7" x="1131.5" y="224.417">4</text><text fill="#000000" font-family="sans-serif" font-size="13" lengthAdjust="spacing" textLength="179" x="1142.5" y="224.417">roleStore = getOrgRolesStore()</text><polygon fill="#A80036" points="1635.5,255.625,1645.5,259.625,1635.5,263.625,1639.5,259.625" style="stroke:#A80036;stroke-width:1.0;"/><line style="stroke:#A80036;stroke-width:1.0;" x1="1124.5" x2="1641.5" y1="259.625" y2="259.625"/><text fill="#000000" font-family="sans-serif" font-size="13" font-weight="bold" lengthAdjust="spacing" textLength="7" x="1131.5" y="254.7686">5</text><text fill="#000000" font-family="sans-serif" font-size="13" lengthAdjust="spacing" textLength="176" x="1142.5" y="254.7686">roles = getOrganizationRoles()</text><polygon fill="#A80036" points="60.5,285.9766,50.5,289.9766,60.5,293.9766,56.5,289.9766" style="stroke:#A80036;stroke-width:1.0;"/><line style="stroke:#A80036;stroke-width:1.0;stroke-dasharray:2.0,2.0;" x1="54.5" x2="623.5" y1="289.9766" y2="289.9766"/><text fill="#000000" font-family="sans-serif" font-size="13" font-weight="bold" lengthAdjust="spacing" textLength="7" x="66.5" y="285.1201">6</text><text fill="#000000" font-family="sans-serif" font-size="13" lengthAdjust="spacing" textLength="135" x="77.5" y="285.1201">requests employee role</text><polygon fill="#A80036" points="612.5,316.3281,622.5,320.3281,612.5,324.3281,616.5,320.3281" style="stroke:#A80036;stroke-width:1.0;"/><line style="stroke:#A80036;stroke-width:1.0;" x1="49.5" x2="618.5" y1="320.3281" y2="320.3281"/><text fill="#000000" font-family="sans-serif" font-size="13" font-weight="bold" lengthAdjust="spacing" textLength="7" x="56.5" y="315.4717">7</text><text fill="#000000" font-family="sans-serif" font-size="13" lengthAdjust="spacing" textLength="132" x="67.5" y="315.4717">selects requested data</text><polygon fill="#A80036" points="60.5,346.6797,50.5,350.6797,60.5,354.6797,56.5,350.6797" style="stroke:#A80036;stroke-width:1.0;"/><line style="stroke:#A80036;stroke-width:1.0;stroke-dasharray:2.0,2.0;" x1="54.5" x2="623.5" y1="350.6797" y2="350.6797"/><text fill="#000000" font-family="sans-serif" font-size="13" font-weight="bold" lengthAdjust="spacing" textLength="7" x="66.5" y="345.8232">8</text><text fill="#000000" font-family="sans-serif" font-size="13" lengthAdjust="spacing" textLength="455" x="77.5" y="345.8232">requests employee information (ie. name, address, phone number, e-mail, soc,</text><text fill="#000000" font-family="sans-serif" font-size="13" font-weight="bold" lengthAdjust="spacing" textLength="52" x="536.5" y="345.8232">optional</text><text fill="#000000" font-family="sans-serif" font-size="13" lengthAdjust="spacing" textLength="25" x="592.5" y="345.8232">DIN)</text><polygon fill="#A80036" points="612.5,377.0313,622.5,381.0313,612.5,385.0313,616.5,381.0313" style="stroke:#A80036;stroke-width:1.0;"/><line style="stroke:#A80036;stroke-width:1.0;" x1="49.5" x2="618.5" y1="381.0313" y2="381.0313"/><text fill="#000000" font-family="sans-serif" font-size="13" font-weight="bold" lengthAdjust="spacing" textLength="7" x="56.5" y="376.1748">9</text><text fill="#000000" font-family="sans-serif" font-size="13" lengthAdjust="spacing" textLength="122" x="67.5" y="376.1748">types requested data</text><polygon fill="#A80036" points="1112.5,407.3828,1122.5,411.3828,1112.5,415.3828,1116.5,411.3828" style="stroke:#A80036;stroke-width:1.0;"/><line style="stroke:#A80036;stroke-width:1.0;" x1="624.5" x2="1118.5" y1="411.3828" y2="411.3828"/><text fill="#000000" font-family="sans-serif" font-size="13" font-weight="bold" lengthAdjust="spacing" textLength="14" x="631.5" y="406.5264">10</text><text fill="#000000" font-family="sans-serif" font-size="13" lengthAdjust="spacing" textLength="373" x="649.5" y="406.5264">createEmployee(role, name, address, phoneNumber, email, soc,</text><text fill="#000000" font-family="sans-serif" font-size="13" font-weight="bold" lengthAdjust="spacing" textLength="52" x="1026.5" y="406.5264">optional</text><text fill="#000000" font-family="sans-serif" font-size="13" lengthAdjust="spacing" textLength="25" x="1082.5" y="406.5264">DIN)</text><polygon fill="#A80036" points="2634,437.7344,2644,441.7344,2634,445.7344,2638,441.7344" style="stroke:#A80036;stroke-width:1.0;"/><line style="stroke:#A80036;stroke-width:1.0;" x1="1124.5" x2="2640" y1="441.7344" y2="441.7344"/><text fill="#000000" font-family="sans-serif" font-size="13" font-weight="bold" lengthAdjust="spacing" textLength="14" x="1131.5" y="436.8779">11</text><text fill="#000000" font-family="sans-serif" font-size="13" lengthAdjust="spacing" textLength="184" x="1149.5" y="436.8779">id = generateEmployeeId(name)</text><polygon fill="#A80036" points="1635.5,468.0859,1645.5,472.0859,1635.5,476.0859,1639.5,472.0859" style="stroke:#A80036;stroke-width:1.0;"/><line style="stroke:#A80036;stroke-width:1.0;" x1="1124.5" x2="1641.5" y1="472.0859" y2="472.0859"/><text fill="#000000" font-family="sans-serif" font-size="13" font-weight="bold" lengthAdjust="spacing" textLength="14" x="1131.5" y="467.2295">12</text><text fill="#000000" font-family="sans-serif" font-size="13" lengthAdjust="spacing" textLength="396" x="1149.5" y="467.2295">e = createEmployee(role, name, address, phoneNumber, email, soc,</text><text fill="#000000" font-family="sans-serif" font-size="13" font-weight="bold" lengthAdjust="spacing" textLength="52" x="1549.5" y="467.2295">optional</text><text fill="#000000" font-family="sans-serif" font-size="13" lengthAdjust="spacing" textLength="25" x="1605.5" y="467.2295">DIN)</text><path d="M1733,487.0859 L1794,487.0859 L1794,495.0859 L1784,505.0859 L1733,505.0859 L1733,487.0859 " fill="#EEEEEE" style="stroke:#000000;stroke-width:1.0;"/><rect fill="none" height="113.5703" style="stroke:#000000;stroke-width:2.0;" width="821.5" x="1733" y="487.0859"/><text fill="#000000" font-family="sans-serif" font-size="13" font-weight="bold" lengthAdjust="spacing" textLength="16" x="1748" y="501.5811">alt</text><text fill="#000000" font-family="sans-serif" font-size="11" font-weight="bold" lengthAdjust="spacing" textLength="144" x="1809" y="500.5049">[role = "Specialist Doctor"]</text><polygon fill="#A80036" points="2396.5,523.7891,2406.5,527.7891,2396.5,531.7891,2400.5,527.7891" style="stroke:#A80036;stroke-width:1.0;"/><line style="stroke:#A80036;stroke-width:1.0;" x1="1808.5" x2="2402.5" y1="527.7891" y2="527.7891"/><text fill="#000000" font-family="sans-serif" font-size="13" font-weight="bold" lengthAdjust="spacing" textLength="14" x="1815.5" y="522.9326">13</text><text fill="#000000" font-family="sans-serif" font-size="13" lengthAdjust="spacing" textLength="362" x="1833.5" y="522.9326">create(id, role, name, address, phoneNumber, email, soc, DIN)</text><rect fill="#FEFECE" filter="url(#f1s4oft710m4ti)" height="31.6094" style="stroke:#A80036;stroke-width:1.5;" width="132" x="2408.5" y="505.4375"/><text fill="#000000" font-family="sans-serif" font-size="14" lengthAdjust="spacing" textLength="118" x="2415.5" y="526.9707">e: SpecialistDoctor</text><line style="stroke:#000000;stroke-width:1.0;stroke-dasharray:2.0,2.0;" x1="1733" x2="2554.5" y1="553.0469" y2="553.0469"/><polygon fill="#A80036" points="2171.5,572.3984,2181.5,576.3984,2171.5,580.3984,2175.5,576.3984" style="stroke:#A80036;stroke-width:1.0;"/><line style="stroke:#A80036;stroke-width:1.0;" x1="1808.5" x2="2177.5" y1="576.3984" y2="576.3984"/><text fill="#000000" font-family="sans-serif" font-size="13" font-weight="bold" lengthAdjust="spacing" textLength="14" x="1815.5" y="571.542">14</text><text fill="#000000" font-family="sans-serif" font-size="13" lengthAdjust="spacing" textLength="333" x="1833.5" y="571.542">create(id, role, name, address, phoneNumber, email, soc)</text><rect fill="#FEFECE" filter="url(#f1s4oft710m4ti)" height="31.6094" style="stroke:#A80036;stroke-width:1.5;" width="92" x="2183.5" y="554.0469"/><text fill="#000000" font-family="sans-serif" font-size="14" lengthAdjust="spacing" textLength="78" x="2190.5" y="575.5801">e: Employee</text><line style="stroke:#A80036;stroke-width:1.0;" x1="2231.5" x2="2273.5" y1="630.0078" y2="630.0078"/><line style="stroke:#A80036;stroke-width:1.0;" x1="2273.5" x2="2273.5" y1="630.0078" y2="643.0078"/><line style="stroke:#A80036;stroke-width:1.0;" x1="2232.5" x2="2273.5" y1="643.0078" y2="643.0078"/><polygon fill="#A80036" points="2242.5,639.0078,2232.5,643.0078,2242.5,647.0078,2238.5,643.0078" style="stroke:#A80036;stroke-width:1.0;"/><text fill="#000000" font-family="sans-serif" font-size="13" font-weight="bold" lengthAdjust="spacing" textLength="14" x="2238.5" y="625.1514">15</text><text fill="#000000" font-family="sans-serif" font-size="13" lengthAdjust="spacing" textLength="117" x="2256.5" y="625.1514">validateName(name)</text><line style="stroke:#A80036;stroke-width:1.0;" x1="2231.5" x2="2273.5" y1="673.3594" y2="673.3594"/><line style="stroke:#A80036;stroke-width:1.0;" x1="2273.5" x2="2273.5" y1="673.3594" y2="686.3594"/><line style="stroke:#A80036;stroke-width:1.0;" x1="2232.5" x2="2273.5" y1="686.3594" y2="686.3594"/><polygon fill="#A80036" points="2242.5,682.3594,2232.5,686.3594,2242.5,690.3594,2238.5,686.3594" style="stroke:#A80036;stroke-width:1.0;"/><text fill="#000000" font-family="sans-serif" font-size="13" font-weight="bold" lengthAdjust="spacing" textLength="14" x="2238.5" y="668.5029">16</text><text fill="#000000" font-family="sans-serif" font-size="13" lengthAdjust="spacing" textLength="145" x="2256.5" y="668.5029">validateAddress(address)</text><line style="stroke:#A80036;stroke-width:1.0;" x1="2231.5" x2="2273.5" y1="716.7109" y2="716.7109"/><line style="stroke:#A80036;stroke-width:1.0;" x1="2273.5" x2="2273.5" y1="716.7109" y2="729.7109"/><line style="stroke:#A80036;stroke-width:1.0;" x1="2232.5" x2="2273.5" y1="729.7109" y2="729.7109"/><polygon fill="#A80036" points="2242.5,725.7109,2232.5,729.7109,2242.5,733.7109,2238.5,729.7109" style="stroke:#A80036;stroke-width:1.0;"/><text fill="#000000" font-family="sans-serif" font-size="13" font-weight="bold" lengthAdjust="spacing" textLength="14" x="2238.5" y="711.8545">17</text><text fill="#000000" font-family="sans-serif" font-size="13" lengthAdjust="spacing" textLength="213" x="2256.5" y="711.8545">validatePhoneNumber(phoneNumber)</text><line style="stroke:#A80036;stroke-width:1.0;" x1="2231.5" x2="2273.5" y1="760.0625" y2="760.0625"/><line style="stroke:#A80036;stroke-width:1.0;" x1="2273.5" x2="2273.5" y1="760.0625" y2="773.0625"/><line style="stroke:#A80036;stroke-width:1.0;" x1="2232.5" x2="2273.5" y1="773.0625" y2="773.0625"/><polygon fill="#A80036" points="2242.5,769.0625,2232.5,773.0625,2242.5,777.0625,2238.5,773.0625" style="stroke:#A80036;stroke-width:1.0;"/><text fill="#000000" font-family="sans-serif" font-size="13" font-weight="bold" lengthAdjust="spacing" textLength="14" x="2238.5" y="755.2061">18</text><text fill="#000000" font-family="sans-serif" font-size="13" lengthAdjust="spacing" textLength="115" x="2256.5" y="755.2061">validateEmail(email)</text><line style="stroke:#A80036;stroke-width:1.0;" x1="2231.5" x2="2273.5" y1="803.4141" y2="803.4141"/><line style="stroke:#A80036;stroke-width:1.0;" x1="2273.5" x2="2273.5" y1="803.4141" y2="816.4141"/><line style="stroke:#A80036;stroke-width:1.0;" x1="2232.5" x2="2273.5" y1="816.4141" y2="816.4141"/><polygon fill="#A80036" points="2242.5,812.4141,2232.5,816.4141,2242.5,820.4141,2238.5,816.4141" style="stroke:#A80036;stroke-width:1.0;"/><text fill="#000000" font-family="sans-serif" font-size="13" font-weight="bold" lengthAdjust="spacing" textLength="14" x="2238.5" y="798.5576">19</text><text fill="#000000" font-family="sans-serif" font-size="13" lengthAdjust="spacing" textLength="125" x="2256.5" y="798.5576">validateSocCode(soc)</text><line style="stroke:#A80036;stroke-width:1.0;" x1="2476.5" x2="2518.5" y1="846.7656" y2="846.7656"/><line style="stroke:#A80036;stroke-width:1.0;" x1="2518.5" x2="2518.5" y1="846.7656" y2="859.7656"/><line style="stroke:#A80036;stroke-width:1.0;" x1="2477.5" x2="2518.5" y1="859.7656" y2="859.7656"/><polygon fill="#A80036" points="2487.5,855.7656,2477.5,859.7656,2487.5,863.7656,2483.5,859.7656" style="stroke:#A80036;stroke-width:1.0;"/><text fill="#000000" font-family="sans-serif" font-size="13" font-weight="bold" lengthAdjust="spacing" textLength="14" x="2483.5" y="841.9092">20</text><text fill="#000000" font-family="sans-serif" font-size="13" lengthAdjust="spacing" textLength="72" x="2501.5" y="841.9092">validate(DIN)</text><polygon fill="#A80036" points="60.5,886.1172,50.5,890.1172,60.5,894.1172,56.5,890.1172" style="stroke:#A80036;stroke-width:1.0;"/><line style="stroke:#A80036;stroke-width:1.0;stroke-dasharray:2.0,2.0;" x1="54.5" x2="623.5" y1="890.1172" y2="890.1172"/><text fill="#000000" font-family="sans-serif" font-size="13" font-weight="bold" lengthAdjust="spacing" textLength="14" x="66.5" y="885.2607">21</text><text fill="#000000" font-family="sans-serif" font-size="13" lengthAdjust="spacing" textLength="241" x="84.5" y="885.2607">shows the data and requests confirmation</text><polygon fill="#A80036" points="612.5,916.4688,622.5,920.4688,612.5,924.4688,616.5,920.4688" style="stroke:#A80036;stroke-width:1.0;"/><line style="stroke:#A80036;stroke-width:1.0;" x1="49.5" x2="618.5" y1="920.4688" y2="920.4688"/><text fill="#000000" font-family="sans-serif" font-size="13" font-weight="bold" lengthAdjust="spacing" textLength="14" x="56.5" y="915.6123">22</text><text fill="#000000" font-family="sans-serif" font-size="13" lengthAdjust="spacing" textLength="100" x="74.5" y="915.6123">confirms the data</text><polygon fill="#A80036" points="1112.5,946.8203,1122.5,950.8203,1112.5,954.8203,1116.5,950.8203" style="stroke:#A80036;stroke-width:1.0;"/><line style="stroke:#A80036;stroke-width:1.0;" x1="624.5" x2="1118.5" y1="950.8203" y2="950.8203"/><text fill="#000000" font-family="sans-serif" font-size="13" font-weight="bold" lengthAdjust="spacing" textLength="14" x="631.5" y="945.9639">23</text><text fill="#000000" font-family="sans-serif" font-size="13" lengthAdjust="spacing" textLength="92" x="649.5" y="945.9639">saveEmployee()</text><polygon fill="#A80036" points="1341.5,977.1719,1351.5,981.1719,1341.5,985.1719,1345.5,981.1719" style="stroke:#A80036;stroke-width:1.0;"/><line style="stroke:#A80036;stroke-width:1.0;" x1="1124.5" x2="1347.5" y1="981.1719" y2="981.1719"/><text fill="#000000" font-family="sans-serif" font-size="13" font-weight="bold" lengthAdjust="spacing" textLength="14" x="1131.5" y="976.3154">24</text><text fill="#000000" font-family="sans-serif" font-size="13" lengthAdjust="spacing" textLength="187" x="1149.5" y="976.3154">empStore = getEmployeeStore()</text><polygon fill="#A80036" points="2634,1007.5234,2644,1011.5234,2634,1015.5234,2638,1011.5234" style="stroke:#A80036;stroke-width:1.0;"/><line style="stroke:#A80036;stroke-width:1.0;" x1="1124.5" x2="2640" y1="1011.5234" y2="1011.5234"/><text fill="#000000" font-family="sans-serif" font-size="13" font-weight="bold" lengthAdjust="spacing" textLength="14" x="1131.5" y="1006.667">25</text><text fill="#000000" font-family="sans-serif" font-size="13" lengthAdjust="spacing" textLength="99" x="1149.5" y="1006.667">saveEmployee(e)</text><line style="stroke:#A80036;stroke-width:1.0;" x1="2646" x2="2688" y1="1041.875" y2="1041.875"/><line style="stroke:#A80036;stroke-width:1.0;" x1="2688" x2="2688" y1="1041.875" y2="1054.875"/><line style="stroke:#A80036;stroke-width:1.0;" x1="2647" x2="2688" y1="1054.875" y2="1054.875"/><polygon fill="#A80036" points="2657,1050.875,2647,1054.875,2657,1058.875,2653,1054.875" style="stroke:#A80036;stroke-width:1.0;"/><text fill="#000000" font-family="sans-serif" font-size="13" font-weight="bold" lengthAdjust="spacing" textLength="14" x="2653" y="1037.0186">26</text><text fill="#000000" font-family="sans-serif" font-size="13" lengthAdjust="spacing" textLength="116" x="2671" y="1037.0186">validateEmployee(e)</text><line style="stroke:#A80036;stroke-width:1.0;" x1="2646" x2="2688" y1="1085.2266" y2="1085.2266"/><line style="stroke:#A80036;stroke-width:1.0;" x1="2688" x2="2688" y1="1085.2266" y2="1098.2266"/><line style="stroke:#A80036;stroke-width:1.0;" x1="2647" x2="2688" y1="1098.2266" y2="1098.2266"/><polygon fill="#A80036" points="2657,1094.2266,2647,1098.2266,2657,1102.2266,2653,1098.2266" style="stroke:#A80036;stroke-width:1.0;"/><text fill="#000000" font-family="sans-serif" font-size="13" font-weight="bold" lengthAdjust="spacing" textLength="14" x="2653" y="1080.3701">27</text><text fill="#000000" font-family="sans-serif" font-size="13" lengthAdjust="spacing" textLength="94" x="2671" y="1080.3701">addEmployee(e)</text><polygon fill="#A80036" points="1341.5,1124.5781,1351.5,1128.5781,1341.5,1132.5781,1345.5,1128.5781" style="stroke:#A80036;stroke-width:1.0;"/><line style="stroke:#A80036;stroke-width:1.0;" x1="1124.5" x2="1347.5" y1="1128.5781" y2="1128.5781"/><text fill="#000000" font-family="sans-serif" font-size="13" font-weight="bold" lengthAdjust="spacing" textLength="14" x="1131.5" y="1123.7217">28</text><text fill="#000000" font-family="sans-serif" font-size="13" lengthAdjust="spacing" textLength="142" x="1149.5" y="1123.7217">saveEmployeeAsUser(e)</text><line style="stroke:#A80036;stroke-width:1.0;" x1="1353.5" x2="1395.5" y1="1158.9297" y2="1158.9297"/><line style="stroke:#A80036;stroke-width:1.0;" x1="1395.5" x2="1395.5" y1="1158.9297" y2="1171.9297"/><line style="stroke:#A80036;stroke-width:1.0;" x1="1354.5" x2="1395.5" y1="1171.9297" y2="1171.9297"/><polygon fill="#A80036" points="1364.5,1167.9297,1354.5,1171.9297,1364.5,1175.9297,1360.5,1171.9297" style="stroke:#A80036;stroke-width:1.0;"/><text fill="#000000" font-family="sans-serif" font-size="13" font-weight="bold" lengthAdjust="spacing" textLength="14" x="1360.5" y="1154.0732">29</text><text fill="#000000" font-family="sans-serif" font-size="13" lengthAdjust="spacing" textLength="181" x="1378.5" y="1154.0732">pwd = generateUserPassword()</text><polygon fill="#A80036" points="2785,1198.2813,2795,1202.2813,2785,1206.2813,2789,1202.2813" style="stroke:#A80036;stroke-width:1.0;"/><line style="stroke:#A80036;stroke-width:1.0;" x1="1353.5" x2="2791" y1="1202.2813" y2="1202.2813"/><text fill="#000000" font-family="sans-serif" font-size="13" font-weight="bold" lengthAdjust="spacing" textLength="14" x="1360.5" y="1197.4248">30</text><text fill="#000000" font-family="sans-serif" font-size="13" lengthAdjust="spacing" textLength="370" x="1378.5" y="1197.4248">addUserWithRole(e.getName(), e.getEmail(), pwd, e.getRoleId())</text><polygon fill="#A80036" points="60.5,1228.6328,50.5,1232.6328,60.5,1236.6328,56.5,1232.6328" style="stroke:#A80036;stroke-width:1.0;"/><line style="stroke:#A80036;stroke-width:1.0;stroke-dasharray:2.0,2.0;" x1="54.5" x2="623.5" y1="1232.6328" y2="1232.6328"/><text fill="#000000" font-family="sans-serif" font-size="13" font-weight="bold" lengthAdjust="spacing" textLength="14" x="66.5" y="1227.7764">31</text><text fill="#000000" font-family="sans-serif" font-size="13" lengthAdjust="spacing" textLength="152" x="84.5" y="1227.7764">informs operation success</text><!--MD5=[7da45f603e6dc14ad0c53ad075382417]
@startuml
actor Administrator as admin
participant ":CreateEmployeeUI" as ui
participant ":CreateEmployeeController" as controller
participant ":Company" as company
participant "roleStore: OrgRoleStore" as ors
participant ":OrganizationRole" as role
participant "e: Employee" as employee
participant "e: SpecialistDoctor" as sd
participant "empStore: EmployeeStore" as es
participant ":AuthFacade" as auth


admin -> ui : **1** starts a company employee registration
create controller
ui -> controller : **2** create()
ui -> controller : **3** getOrganizationRoles()
controller -> company : **4** roleStore = getOrgRolesStore()
controller -> ors : **5** roles = getOrganizationRoles()
ui - -> admin : **6** requests employee role
admin -> ui : **7** selects requested data
ui - -> admin : **8** requests employee information (ie. name, address, phone number, e-mail, soc, **optional** DIN)
admin -> ui : **9** types requested data
ui -> controller : **10** createEmployee(role, name, address, phoneNumber, email, soc, **optional** DIN)
controller -> es : **11** id = generateEmployeeId(name)
controller -> ors : **12** e = createEmployee(role, name, address, phoneNumber, email, soc, **optional** DIN)
alt role = "Specialist Doctor"
create sd
role -> sd : **13** create(id, role, name, address, phoneNumber, email, soc, DIN)
else
create employee
role -> employee : **14** create(id, role, name, address, phoneNumber, email, soc)
end
employee -> employee : **15** validateName(name)
employee -> employee : **16** validateAddress(address)
employee -> employee : **17** validatePhoneNumber(phoneNumber)
employee -> employee : **18** validateEmail(email)
employee -> employee : **19** validateSocCode(soc)
sd -> sd : **20** validate(DIN)
ui - -> admin : **21** shows the data and requests confirmation
admin -> ui : **22** confirms the data
ui -> controller : **23** saveEmployee()
controller -> company : **24** empStore = getEmployeeStore()
controller -> es : **25** saveEmployee(e)
es -> es : **26** validateEmployee(e)
es -> es : **27** addEmployee(e)
controller -> company : **28** saveEmployeeAsUser(e)
company -> company : **29** pwd = generateUserPassword()
company -> auth : **30** addUserWithRole(e.getName(), e.getEmail(), pwd, e.getRoleId())
ui - -> admin : **31** informs operation success


@enduml

PlantUML version 1.2021.2(Sun Mar 07 11:10:27 GMT 2021)
(GPL source distribution)
Java Runtime: OpenJDK Runtime Environment
JVM: OpenJDK 64-Bit Server VM
Default Encoding: Cp1252
Language: pt
Country: PT
--></g></svg>