<?xml version="1.0" encoding="UTF-8" standalone="no"?><svg xmlns="http://www.w3.org/2000/svg" xmlns:xlink="http://www.w3.org/1999/xlink" contentScriptType="application/ecmascript" contentStyleType="text/css" height="1068.8px" preserveAspectRatio="none" style="width:2188px;height:1068px;" version="1.1" viewBox="0 0 2188 1068" width="2188px" zoomAndPan="magnify"><defs><filter height="300%" id="f2ove64id2s07" width="300%" x="-1" y="-1"><feGaussianBlur result="blurOut" stdDeviation="1.6"/><feColorMatrix in="blurOut" result="blurOut2" type="matrix" values="0 0 0 0 0 0 0 0 0 0 0 0 0 0 0 0 0 0 .4 0"/><feOffset dx="3.2" dy="3.2" in="blurOut2" result="blurOut3"/><feBlend in="SourceGraphic" in2="blurOut3" mode="normal"/></filter></defs><g><rect fill="#FFFFFF" filter="url(#f2ove64id2s07)" height="90.8563" style="stroke:#000000;stroke-width:1.6;" width="642.8" x="1304" y="389.6688"/><rect fill="#FFFFFF" height="38.8875" style="stroke:none;stroke-width:0.8;" width="642.8" x="1304" y="441.6375"/><line style="stroke:#A80036;stroke-width:0.8;stroke-dasharray:5.0,5.0;" x1="39.2" x2="39.2" y1="71.6875" y2="1000.5063"/><line style="stroke:#A80036;stroke-width:0.8;stroke-dasharray:5.0,5.0;" x1="499.2" x2="499.2" y1="71.6875" y2="1000.5063"/><line style="stroke:#A80036;stroke-width:0.8;stroke-dasharray:5.0,5.0;" x1="893.6" x2="893.6" y1="130.6125" y2="1000.5063"/><line style="stroke:#A80036;stroke-width:0.8;stroke-dasharray:5.0,5.0;" x1="1065.2" x2="1065.2" y1="71.6875" y2="1000.5063"/><line style="stroke:#A80036;stroke-width:0.8;stroke-dasharray:5.0,5.0;" x1="1235.2" x2="1235.2" y1="71.6875" y2="1000.5063"/><line style="stroke:#A80036;stroke-width:0.8;stroke-dasharray:5.0,5.0;" x1="1364" x2="1364" y1="71.6875" y2="1000.5063"/><line style="stroke:#A80036;stroke-width:0.8;stroke-dasharray:5.0,5.0;" x1="1688.4" x2="1688.4" y1="469.8813" y2="1000.5063"/><line style="stroke:#A80036;stroke-width:0.8;stroke-dasharray:5.0,5.0;" x1="1884.4" x2="1884.4" y1="430.9938" y2="1000.5063"/><line style="stroke:#A80036;stroke-width:0.8;stroke-dasharray:5.0,5.0;" x1="2019.6" x2="2019.6" y1="71.6875" y2="1000.5063"/><line style="stroke:#A80036;stroke-width:0.8;stroke-dasharray:5.0,5.0;" x1="2140.4" x2="2140.4" y1="71.6875" y2="1000.5063"/><text fill="#000000" font-family="sans-serif" font-size="11.2" lengthAdjust="spacing" textLength="66.4" x="4" y="69.2266">Administrator</text><ellipse cx="39.6" cy="12" fill="#FEFECE" filter="url(#f2ove64id2s07)" rx="6.4" ry="6.4" style="stroke:#A80036;stroke-width:1.6;"/><path d="M39.6,18.4 L39.6,40 M29.2,24.8 L50,24.8 M39.6,40 L29.2,52 M39.6,40 L50,52 " fill="none" filter="url(#f2ove64id2s07)" style="stroke:#A80036;stroke-width:1.6;"/><text fill="#000000" font-family="sans-serif" font-size="11.2" lengthAdjust="spacing" textLength="66.4" x="4" y="1011.3328">Administrator</text><ellipse cx="39.6" cy="1021.7938" fill="#FEFECE" filter="url(#f2ove64id2s07)" rx="6.4" ry="6.4" style="stroke:#A80036;stroke-width:1.6;"/><path d="M39.6,1028.1938 L39.6,1049.7938 M29.2,1034.5938 L50,1034.5938 M39.6,1049.7938 L29.2,1061.7938 M39.6,1049.7938 L50,1061.7938 " fill="none" filter="url(#f2ove64id2s07)" style="stroke:#A80036;stroke-width:1.6;"/><rect fill="#FEFECE" filter="url(#f2ove64id2s07)" height="25.2875" style="stroke:#A80036;stroke-width:1.2000000000000002;" width="108" x="444" y="42.4"/><text fill="#000000" font-family="sans-serif" font-size="11.2" lengthAdjust="spacing" textLength="96.8" x="449.6" y="59.6266">:CreateEmployeeUI</text><rect fill="#FEFECE" filter="url(#f2ove64id2s07)" height="25.2875" style="stroke:#A80036;stroke-width:1.2000000000000002;" width="108" x="444" y="999.7063"/><text fill="#000000" font-family="sans-serif" font-size="11.2" lengthAdjust="spacing" textLength="96.8" x="449.6" y="1016.9328">:CreateEmployeeUI</text><rect fill="#FEFECE" filter="url(#f2ove64id2s07)" height="25.2875" style="stroke:#A80036;stroke-width:1.2000000000000002;" width="148" x="818.4" y="999.7063"/><text fill="#000000" font-family="sans-serif" font-size="11.2" lengthAdjust="spacing" textLength="136.8" x="824" y="1016.9328">:CreateEmployeeController</text><rect fill="#FEFECE" filter="url(#f2ove64id2s07)" height="25.2875" style="stroke:#A80036;stroke-width:1.2000000000000002;" width="62.4" x="1032.4" y="42.4"/><text fill="#000000" font-family="sans-serif" font-size="11.2" lengthAdjust="spacing" textLength="51.2" x="1038" y="59.6266">:Company</text><rect fill="#FEFECE" filter="url(#f2ove64id2s07)" height="25.2875" style="stroke:#A80036;stroke-width:1.2000000000000002;" width="62.4" x="1032.4" y="999.7063"/><text fill="#000000" font-family="sans-serif" font-size="11.2" lengthAdjust="spacing" textLength="51.2" x="1038" y="1016.9328">:Company</text><rect fill="#FEFECE" filter="url(#f2ove64id2s07)" height="25.2875" style="stroke:#A80036;stroke-width:1.2000000000000002;" width="133.6" x="1167.2" y="42.4"/><text fill="#000000" font-family="sans-serif" font-size="11.2" lengthAdjust="spacing" textLength="122.4" x="1172.8" y="59.6266">roleStore: OrgRoleStore</text><rect fill="#FEFECE" filter="url(#f2ove64id2s07)" height="25.2875" style="stroke:#A80036;stroke-width:1.2000000000000002;" width="133.6" x="1167.2" y="999.7063"/><text fill="#000000" font-family="sans-serif" font-size="11.2" lengthAdjust="spacing" textLength="122.4" x="1172.8" y="1016.9328">roleStore: OrgRoleStore</text><rect fill="#FEFECE" filter="url(#f2ove64id2s07)" height="25.2875" style="stroke:#A80036;stroke-width:1.2000000000000002;" width="101.6" x="1312" y="42.4"/><text fill="#000000" font-family="sans-serif" font-size="11.2" lengthAdjust="spacing" textLength="90.4" x="1317.6" y="59.6266">:OrganizationRole</text><rect fill="#FEFECE" filter="url(#f2ove64id2s07)" height="25.2875" style="stroke:#A80036;stroke-width:1.2000000000000002;" width="101.6" x="1312" y="999.7063"/><text fill="#000000" font-family="sans-serif" font-size="11.2" lengthAdjust="spacing" textLength="90.4" x="1317.6" y="1016.9328">:OrganizationRole</text><rect fill="#FEFECE" filter="url(#f2ove64id2s07)" height="25.2875" style="stroke:#A80036;stroke-width:1.2000000000000002;" width="73.6" x="1650" y="999.7063"/><text fill="#000000" font-family="sans-serif" font-size="11.2" lengthAdjust="spacing" textLength="62.4" x="1655.6" y="1016.9328">e: Employee</text><rect fill="#FEFECE" filter="url(#f2ove64id2s07)" height="25.2875" style="stroke:#A80036;stroke-width:1.2000000000000002;" width="105.6" x="1830" y="999.7063"/><text fill="#000000" font-family="sans-serif" font-size="11.2" lengthAdjust="spacing" textLength="94.4" x="1835.6" y="1016.9328">e: SpecialistDoctor</text><rect fill="#FEFECE" filter="url(#f2ove64id2s07)" height="25.2875" style="stroke:#A80036;stroke-width:1.2000000000000002;" width="143.2" x="1946.8" y="42.4"/><text fill="#000000" font-family="sans-serif" font-size="11.2" lengthAdjust="spacing" textLength="132" x="1952.4" y="59.6266">empStore: EmployeeStore</text><rect fill="#FEFECE" filter="url(#f2ove64id2s07)" height="25.2875" style="stroke:#A80036;stroke-width:1.2000000000000002;" width="143.2" x="1946.8" y="999.7063"/><text fill="#000000" font-family="sans-serif" font-size="11.2" lengthAdjust="spacing" textLength="132" x="1952.4" y="1016.9328">empStore: EmployeeStore</text><rect fill="#FEFECE" filter="url(#f2ove64id2s07)" height="25.2875" style="stroke:#A80036;stroke-width:1.2000000000000002;" width="76" x="2101.2" y="42.4"/><text fill="#000000" font-family="sans-serif" font-size="11.2" lengthAdjust="spacing" textLength="64.8" x="2106.8" y="59.6266">:AuthFacade</text><rect fill="#FEFECE" filter="url(#f2ove64id2s07)" height="25.2875" style="stroke:#A80036;stroke-width:1.2000000000000002;" width="76" x="2101.2" y="999.7063"/><text fill="#000000" font-family="sans-serif" font-size="11.2" lengthAdjust="spacing" textLength="64.8" x="2106.8" y="1016.9328">:AuthFacade</text><polygon fill="#A80036" points="490,94.3688,498,97.5688,490,100.7688,493.2,97.5688" style="stroke:#A80036;stroke-width:0.8;"/><line style="stroke:#A80036;stroke-width:0.8;" x1="39.6" x2="494.8" y1="97.5688" y2="97.5688"/><text fill="#000000" font-family="sans-serif" font-size="10.4" font-weight="bold" lengthAdjust="spacing" textLength="5.6" x="45.2" y="93.6836">1</text><text fill="#000000" font-family="sans-serif" font-size="10.4" lengthAdjust="spacing" textLength="183.2" x="54" y="93.6836">starts a company employee registration</text><polygon fill="#A80036" points="808.8,118.65,816.8,121.85,808.8,125.05,812,121.85" style="stroke:#A80036;stroke-width:0.8;"/><line style="stroke:#A80036;stroke-width:0.8;" x1="499.6" x2="813.6" y1="121.85" y2="121.85"/><text fill="#000000" font-family="sans-serif" font-size="10.4" font-weight="bold" lengthAdjust="spacing" textLength="5.6" x="505.2" y="117.9648">2</text><text fill="#000000" font-family="sans-serif" font-size="10.4" lengthAdjust="spacing" textLength="35.2" x="514" y="117.9648">create()</text><rect fill="#FEFECE" filter="url(#f2ove64id2s07)" height="25.2875" style="stroke:#A80036;stroke-width:1.2000000000000002;" width="148" x="818.4" y="103.9688"/><text fill="#000000" font-family="sans-serif" font-size="11.2" lengthAdjust="spacing" textLength="136.8" x="824" y="121.1953">:CreateEmployeeController</text><polygon fill="#A80036" points="884.4,155.9375,892.4,159.1375,884.4,162.3375,887.6,159.1375" style="stroke:#A80036;stroke-width:0.8;"/><line style="stroke:#A80036;stroke-width:0.8;" x1="499.6" x2="889.2" y1="159.1375" y2="159.1375"/><text fill="#000000" font-family="sans-serif" font-size="10.4" font-weight="bold" lengthAdjust="spacing" textLength="5.6" x="505.2" y="155.2523">3</text><text fill="#000000" font-family="sans-serif" font-size="10.4" lengthAdjust="spacing" textLength="105.6" x="514" y="155.2523">getOrganizationRoles()</text><polygon fill="#A80036" points="1055.6,180.2188,1063.6,183.4188,1055.6,186.6188,1058.8,183.4188" style="stroke:#A80036;stroke-width:0.8;"/><line style="stroke:#A80036;stroke-width:0.8;" x1="894" x2="1060.4" y1="183.4188" y2="183.4188"/><text fill="#000000" font-family="sans-serif" font-size="10.4" font-weight="bold" lengthAdjust="spacing" textLength="5.6" x="899.6" y="179.5336">4</text><text fill="#000000" font-family="sans-serif" font-size="10.4" lengthAdjust="spacing" textLength="143.2" x="908.4" y="179.5336">roleStore = getOrgRolesStore()</text><polygon fill="#A80036" points="1226,204.5,1234,207.7,1226,210.9,1229.2,207.7" style="stroke:#A80036;stroke-width:0.8;"/><line style="stroke:#A80036;stroke-width:0.8;" x1="894" x2="1230.8" y1="207.7" y2="207.7"/><text fill="#000000" font-family="sans-serif" font-size="10.4" lengthAdjust="spacing" textLength="140.8" x="899.6" y="203.8148">roles = getOrganizationRoles()</text><polygon fill="#A80036" points="48.4,228.7813,40.4,231.9813,48.4,235.1813,45.2,231.9813" style="stroke:#A80036;stroke-width:0.8;"/><line style="stroke:#A80036;stroke-width:0.8;stroke-dasharray:2.0,2.0;" x1="43.6" x2="498.8" y1="231.9813" y2="231.9813"/><text fill="#000000" font-family="sans-serif" font-size="10.4" font-weight="bold" lengthAdjust="spacing" textLength="5.6" x="53.2" y="228.0961">5</text><text fill="#000000" font-family="sans-serif" font-size="10.4" lengthAdjust="spacing" textLength="108" x="62" y="228.0961">requests employee role</text><polygon fill="#A80036" points="490,253.0625,498,256.2625,490,259.4625,493.2,256.2625" style="stroke:#A80036;stroke-width:0.8;"/><line style="stroke:#A80036;stroke-width:0.8;" x1="39.6" x2="494.8" y1="256.2625" y2="256.2625"/><text fill="#000000" font-family="sans-serif" font-size="10.4" font-weight="bold" lengthAdjust="spacing" textLength="5.6" x="45.2" y="252.3773">6</text><text fill="#000000" font-family="sans-serif" font-size="10.4" lengthAdjust="spacing" textLength="105.6" x="54" y="252.3773">selects requested data</text><polygon fill="#A80036" points="48.4,277.3438,40.4,280.5438,48.4,283.7438,45.2,280.5438" style="stroke:#A80036;stroke-width:0.8;"/><line style="stroke:#A80036;stroke-width:0.8;stroke-dasharray:2.0,2.0;" x1="43.6" x2="498.8" y1="280.5438" y2="280.5438"/><text fill="#000000" font-family="sans-serif" font-size="10.4" font-weight="bold" lengthAdjust="spacing" textLength="5.6" x="53.2" y="276.6586">7</text><text fill="#000000" font-family="sans-serif" font-size="10.4" lengthAdjust="spacing" textLength="364" x="62" y="276.6586">requests employee information (ie. name, address, phone number, e-mail, soc,</text><text fill="#000000" font-family="sans-serif" font-size="10.4" font-weight="bold" lengthAdjust="spacing" textLength="41.6" x="429.2" y="276.6586">optional</text><text fill="#000000" font-family="sans-serif" font-size="10.4" lengthAdjust="spacing" textLength="20" x="474" y="276.6586">DIN)</text><polygon fill="#A80036" points="490,301.625,498,304.825,490,308.025,493.2,304.825" style="stroke:#A80036;stroke-width:0.8;"/><line style="stroke:#A80036;stroke-width:0.8;" x1="39.6" x2="494.8" y1="304.825" y2="304.825"/><text fill="#000000" font-family="sans-serif" font-size="10.4" font-weight="bold" lengthAdjust="spacing" textLength="5.6" x="45.2" y="300.9398">8</text><text fill="#000000" font-family="sans-serif" font-size="10.4" lengthAdjust="spacing" textLength="97.6" x="54" y="300.9398">types requested data</text><polygon fill="#A80036" points="884.4,325.9063,892.4,329.1063,884.4,332.3063,887.6,329.1063" style="stroke:#A80036;stroke-width:0.8;"/><line style="stroke:#A80036;stroke-width:0.8;" x1="499.6" x2="889.2" y1="329.1063" y2="329.1063"/><text fill="#000000" font-family="sans-serif" font-size="10.4" font-weight="bold" lengthAdjust="spacing" textLength="5.6" x="505.2" y="325.2211">9</text><text fill="#000000" font-family="sans-serif" font-size="10.4" lengthAdjust="spacing" textLength="298.4" x="514" y="325.2211">createEmployee(role, name, address, phoneNumber, email, soc,</text><text fill="#000000" font-family="sans-serif" font-size="10.4" font-weight="bold" lengthAdjust="spacing" textLength="41.6" x="815.6" y="325.2211">optional</text><text fill="#000000" font-family="sans-serif" font-size="10.4" lengthAdjust="spacing" textLength="20" x="860.4" y="325.2211">DIN)</text><polygon fill="#A80036" points="1354.8,350.1875,1362.8,353.3875,1354.8,356.5875,1358,353.3875" style="stroke:#A80036;stroke-width:0.8;"/><line style="stroke:#A80036;stroke-width:0.8;" x1="894" x2="1359.6" y1="353.3875" y2="353.3875"/><text fill="#000000" font-family="sans-serif" font-size="10.4" font-weight="bold" lengthAdjust="spacing" textLength="5.6" x="899.6" y="349.5023">8</text><text fill="#000000" font-family="sans-serif" font-size="10.4" lengthAdjust="spacing" textLength="316.8" x="908.4" y="349.5023">e = createEmployee(role, name, address, phoneNumber, email, soc,</text><text fill="#000000" font-family="sans-serif" font-size="10.4" font-weight="bold" lengthAdjust="spacing" textLength="41.6" x="1228.4" y="349.5023">optional</text><text fill="#000000" font-family="sans-serif" font-size="10.4" lengthAdjust="spacing" textLength="20" x="1273.2" y="349.5023">DIN)</text><polygon fill="#A80036" points="2010.4,374.4688,2018.4,377.6688,2010.4,380.8688,2013.6,377.6688" style="stroke:#A80036;stroke-width:0.8;"/><line style="stroke:#A80036;stroke-width:0.8;" x1="1364.4" x2="2015.2" y1="377.6688" y2="377.6688"/><text fill="#000000" font-family="sans-serif" font-size="10.4" lengthAdjust="spacing" textLength="147.2" x="1370" y="373.7836">id = generateEmployeeId(name)</text><path d="M1304,389.6688 L1352.8,389.6688 L1352.8,396.0688 L1344.8,404.0688 L1304,404.0688 L1304,389.6688 " fill="#EEEEEE" style="stroke:#000000;stroke-width:0.8;"/><rect fill="none" height="90.8563" style="stroke:#000000;stroke-width:1.6;" width="642.8" x="1304" y="389.6688"/><text fill="#000000" font-family="sans-serif" font-size="10.4" font-weight="bold" lengthAdjust="spacing" textLength="12.8" x="1316" y="401.2648">alt</text><text fill="#000000" font-family="sans-serif" font-size="8.8" font-weight="bold" lengthAdjust="spacing" textLength="115.2" x="1364.8" y="400.4039">[role = "Specialist Doctor"]</text><polygon fill="#A80036" points="1820.4,419.0313,1828.4,422.2313,1820.4,425.4313,1823.6,422.2313" style="stroke:#A80036;stroke-width:0.8;"/><line style="stroke:#A80036;stroke-width:0.8;" x1="1364.4" x2="1825.2" y1="422.2313" y2="422.2313"/><text fill="#000000" font-family="sans-serif" font-size="10.4" lengthAdjust="spacing" textLength="289.6" x="1370" y="418.3461">create(id, role, name, address, phoneNumber, email, soc, DIN)</text><rect fill="#FEFECE" filter="url(#f2ove64id2s07)" height="25.2875" style="stroke:#A80036;stroke-width:1.2000000000000002;" width="105.6" x="1830" y="404.35"/><text fill="#000000" font-family="sans-serif" font-size="11.2" lengthAdjust="spacing" textLength="94.4" x="1835.6" y="421.5766">e: SpecialistDoctor</text><line style="stroke:#000000;stroke-width:0.8;stroke-dasharray:2.0,2.0;" x1="1304" x2="1946.8" y1="442.4375" y2="442.4375"/><polygon fill="#A80036" points="1640.4,457.9188,1648.4,461.1188,1640.4,464.3188,1643.6,461.1188" style="stroke:#A80036;stroke-width:0.8;"/><line style="stroke:#A80036;stroke-width:0.8;" x1="1364.4" x2="1645.2" y1="461.1188" y2="461.1188"/><text fill="#000000" font-family="sans-serif" font-size="10.4" lengthAdjust="spacing" textLength="266.4" x="1370" y="457.2336">create(id, role, name, address, phoneNumber, email, soc)</text><rect fill="#FEFECE" filter="url(#f2ove64id2s07)" height="25.2875" style="stroke:#A80036;stroke-width:1.2000000000000002;" width="73.6" x="1650" y="443.2375"/><text fill="#000000" font-family="sans-serif" font-size="11.2" lengthAdjust="spacing" textLength="62.4" x="1655.6" y="460.4641">e: Employee</text><line style="stroke:#A80036;stroke-width:0.8;" x1="1688.4" x2="1722" y1="504.0063" y2="504.0063"/><line style="stroke:#A80036;stroke-width:0.8;" x1="1722" x2="1722" y1="504.0063" y2="514.4063"/><line style="stroke:#A80036;stroke-width:0.8;" x1="1689.2" x2="1722" y1="514.4063" y2="514.4063"/><polygon fill="#A80036" points="1697.2,511.2063,1689.2,514.4063,1697.2,517.6063,1694,514.4063" style="stroke:#A80036;stroke-width:0.8;"/><text fill="#000000" font-family="sans-serif" font-size="10.4" font-weight="bold" lengthAdjust="spacing" textLength="11.2" x="1694" y="500.1211">14</text><text fill="#000000" font-family="sans-serif" font-size="10.4" lengthAdjust="spacing" textLength="93.6" x="1708.4" y="500.1211">validateName(name)</text><line style="stroke:#A80036;stroke-width:0.8;" x1="1688.4" x2="1722" y1="538.6875" y2="538.6875"/><line style="stroke:#A80036;stroke-width:0.8;" x1="1722" x2="1722" y1="538.6875" y2="549.0875"/><line style="stroke:#A80036;stroke-width:0.8;" x1="1689.2" x2="1722" y1="549.0875" y2="549.0875"/><polygon fill="#A80036" points="1697.2,545.8875,1689.2,549.0875,1697.2,552.2875,1694,549.0875" style="stroke:#A80036;stroke-width:0.8;"/><text fill="#000000" font-family="sans-serif" font-size="10.4" font-weight="bold" lengthAdjust="spacing" textLength="11.2" x="1694" y="534.8023">16</text><text fill="#000000" font-family="sans-serif" font-size="10.4" lengthAdjust="spacing" textLength="116" x="1708.4" y="534.8023">validateAddress(address)</text><line style="stroke:#A80036;stroke-width:0.8;" x1="1688.4" x2="1722" y1="573.3688" y2="573.3688"/><line style="stroke:#A80036;stroke-width:0.8;" x1="1722" x2="1722" y1="573.3688" y2="583.7688"/><line style="stroke:#A80036;stroke-width:0.8;" x1="1689.2" x2="1722" y1="583.7688" y2="583.7688"/><polygon fill="#A80036" points="1697.2,580.5688,1689.2,583.7688,1697.2,586.9688,1694,583.7688" style="stroke:#A80036;stroke-width:0.8;"/><text fill="#000000" font-family="sans-serif" font-size="10.4" font-weight="bold" lengthAdjust="spacing" textLength="11.2" x="1694" y="569.4836">18</text><text fill="#000000" font-family="sans-serif" font-size="10.4" lengthAdjust="spacing" textLength="170.4" x="1708.4" y="569.4836">validatePhoneNumber(phoneNumber)</text><line style="stroke:#A80036;stroke-width:0.8;" x1="1688.4" x2="1722" y1="608.05" y2="608.05"/><line style="stroke:#A80036;stroke-width:0.8;" x1="1722" x2="1722" y1="608.05" y2="618.45"/><line style="stroke:#A80036;stroke-width:0.8;" x1="1689.2" x2="1722" y1="618.45" y2="618.45"/><polygon fill="#A80036" points="1697.2,615.25,1689.2,618.45,1697.2,621.65,1694,618.45" style="stroke:#A80036;stroke-width:0.8;"/><text fill="#000000" font-family="sans-serif" font-size="10.4" font-weight="bold" lengthAdjust="spacing" textLength="11.2" x="1694" y="604.1648">20</text><text fill="#000000" font-family="sans-serif" font-size="10.4" lengthAdjust="spacing" textLength="92" x="1708.4" y="604.1648">validateEmail(email)</text><line style="stroke:#A80036;stroke-width:0.8;" x1="1688.4" x2="1722" y1="642.7313" y2="642.7313"/><line style="stroke:#A80036;stroke-width:0.8;" x1="1722" x2="1722" y1="642.7313" y2="653.1313"/><line style="stroke:#A80036;stroke-width:0.8;" x1="1689.2" x2="1722" y1="653.1313" y2="653.1313"/><polygon fill="#A80036" points="1697.2,649.9313,1689.2,653.1313,1697.2,656.3313,1694,653.1313" style="stroke:#A80036;stroke-width:0.8;"/><text fill="#000000" font-family="sans-serif" font-size="10.4" lengthAdjust="spacing" textLength="100" x="1694" y="638.8461">validateSocCode(soc)</text><line style="stroke:#A80036;stroke-width:0.8;" x1="1884.4" x2="1918" y1="677.4125" y2="677.4125"/><line style="stroke:#A80036;stroke-width:0.8;" x1="1918" x2="1918" y1="677.4125" y2="687.8125"/><line style="stroke:#A80036;stroke-width:0.8;" x1="1885.2" x2="1918" y1="687.8125" y2="687.8125"/><polygon fill="#A80036" points="1893.2,684.6125,1885.2,687.8125,1893.2,691.0125,1890,687.8125" style="stroke:#A80036;stroke-width:0.8;"/><text fill="#000000" font-family="sans-serif" font-size="10.4" font-weight="bold" lengthAdjust="spacing" textLength="11.2" x="1890" y="673.5273">23</text><text fill="#000000" font-family="sans-serif" font-size="10.4" lengthAdjust="spacing" textLength="57.6" x="1904.4" y="673.5273">validate(DIN)</text><polygon fill="#A80036" points="48.4,708.8938,40.4,712.0938,48.4,715.2938,45.2,712.0938" style="stroke:#A80036;stroke-width:0.8;"/><line style="stroke:#A80036;stroke-width:0.8;stroke-dasharray:2.0,2.0;" x1="43.6" x2="498.8" y1="712.0938" y2="712.0938"/><text fill="#000000" font-family="sans-serif" font-size="10.4" font-weight="bold" lengthAdjust="spacing" textLength="11.2" x="53.2" y="708.2086">24</text><text fill="#000000" font-family="sans-serif" font-size="10.4" lengthAdjust="spacing" textLength="192.8" x="67.6" y="708.2086">shows the data and requests confirmation</text><polygon fill="#A80036" points="490,733.175,498,736.375,490,739.575,493.2,736.375" style="stroke:#A80036;stroke-width:0.8;"/><line style="stroke:#A80036;stroke-width:0.8;" x1="39.6" x2="494.8" y1="736.375" y2="736.375"/><text fill="#000000" font-family="sans-serif" font-size="10.4" font-weight="bold" lengthAdjust="spacing" textLength="11.2" x="45.2" y="732.4898">25</text><text fill="#000000" font-family="sans-serif" font-size="10.4" lengthAdjust="spacing" textLength="80" x="59.6" y="732.4898">confirms the data</text><polygon fill="#A80036" points="884.4,757.4563,892.4,760.6563,884.4,763.8563,887.6,760.6563" style="stroke:#A80036;stroke-width:0.8;"/><line style="stroke:#A80036;stroke-width:0.8;" x1="499.6" x2="889.2" y1="760.6563" y2="760.6563"/><text fill="#000000" font-family="sans-serif" font-size="10.4" font-weight="bold" lengthAdjust="spacing" textLength="11.2" x="505.2" y="756.7711">26</text><text fill="#000000" font-family="sans-serif" font-size="10.4" lengthAdjust="spacing" textLength="73.6" x="519.6" y="756.7711">saveEmployee()</text><polygon fill="#A80036" points="1055.6,781.7375,1063.6,784.9375,1055.6,788.1375,1058.8,784.9375" style="stroke:#A80036;stroke-width:0.8;"/><line style="stroke:#A80036;stroke-width:0.8;" x1="894" x2="1060.4" y1="784.9375" y2="784.9375"/><text fill="#000000" font-family="sans-serif" font-size="10.4" lengthAdjust="spacing" textLength="149.6" x="899.6" y="781.0523">empStore = getEmployeeStore()</text><polygon fill="#A80036" points="2010.4,806.0188,2018.4,809.2188,2010.4,812.4188,2013.6,809.2188" style="stroke:#A80036;stroke-width:0.8;"/><line style="stroke:#A80036;stroke-width:0.8;" x1="894" x2="2015.2" y1="809.2188" y2="809.2188"/><text fill="#000000" font-family="sans-serif" font-size="10.4" font-weight="bold" lengthAdjust="spacing" textLength="11.2" x="899.6" y="805.3336">27</text><text fill="#000000" font-family="sans-serif" font-size="10.4" lengthAdjust="spacing" textLength="79.2" x="914" y="805.3336">saveEmployee(e)</text><line style="stroke:#A80036;stroke-width:0.8;" x1="2020" x2="2053.6" y1="833.5" y2="833.5"/><line style="stroke:#A80036;stroke-width:0.8;" x1="2053.6" x2="2053.6" y1="833.5" y2="843.9"/><line style="stroke:#A80036;stroke-width:0.8;" x1="2020.8" x2="2053.6" y1="843.9" y2="843.9"/><polygon fill="#A80036" points="2028.8,840.7,2020.8,843.9,2028.8,847.1,2025.6,843.9" style="stroke:#A80036;stroke-width:0.8;"/><text fill="#000000" font-family="sans-serif" font-size="10.4" font-weight="bold" lengthAdjust="spacing" textLength="11.2" x="2025.6" y="829.6148">28</text><text fill="#000000" font-family="sans-serif" font-size="10.4" lengthAdjust="spacing" textLength="92.8" x="2040" y="829.6148">validateEmployee(e)</text><line style="stroke:#A80036;stroke-width:0.8;" x1="2020" x2="2053.6" y1="868.1813" y2="868.1813"/><line style="stroke:#A80036;stroke-width:0.8;" x1="2053.6" x2="2053.6" y1="868.1813" y2="878.5813"/><line style="stroke:#A80036;stroke-width:0.8;" x1="2020.8" x2="2053.6" y1="878.5813" y2="878.5813"/><polygon fill="#A80036" points="2028.8,875.3813,2020.8,878.5813,2028.8,881.7813,2025.6,878.5813" style="stroke:#A80036;stroke-width:0.8;"/><text fill="#000000" font-family="sans-serif" font-size="10.4" font-weight="bold" lengthAdjust="spacing" textLength="11.2" x="2025.6" y="864.2961">29</text><text fill="#000000" font-family="sans-serif" font-size="10.4" lengthAdjust="spacing" textLength="75.2" x="2040" y="864.2961">addEmployee(e)</text><polygon fill="#A80036" points="1055.6,899.6625,1063.6,902.8625,1055.6,906.0625,1058.8,902.8625" style="stroke:#A80036;stroke-width:0.8;"/><line style="stroke:#A80036;stroke-width:0.8;" x1="894" x2="1060.4" y1="902.8625" y2="902.8625"/><text fill="#000000" font-family="sans-serif" font-size="10.4" lengthAdjust="spacing" textLength="113.6" x="899.6" y="898.9773">saveEmployeeAsUser(e)</text><line style="stroke:#A80036;stroke-width:0.8;" x1="1065.2" x2="1098.8" y1="927.1438" y2="927.1438"/><line style="stroke:#A80036;stroke-width:0.8;" x1="1098.8" x2="1098.8" y1="927.1438" y2="937.5438"/><line style="stroke:#A80036;stroke-width:0.8;" x1="1066" x2="1098.8" y1="937.5438" y2="937.5438"/><polygon fill="#A80036" points="1074,934.3438,1066,937.5438,1074,940.7438,1070.8,937.5438" style="stroke:#A80036;stroke-width:0.8;"/><text fill="#000000" font-family="sans-serif" font-size="10.4" font-weight="bold" lengthAdjust="spacing" textLength="11.2" x="1070.8" y="923.2586">30</text><text fill="#000000" font-family="sans-serif" font-size="10.4" lengthAdjust="spacing" textLength="144.8" x="1085.2" y="923.2586">pwd = generateUserPassword()</text><polygon fill="#A80036" points="2131.2,958.625,2139.2,961.825,2131.2,965.025,2134.4,961.825" style="stroke:#A80036;stroke-width:0.8;"/><line style="stroke:#A80036;stroke-width:0.8;" x1="1065.2" x2="2136" y1="961.825" y2="961.825"/><text fill="#000000" font-family="sans-serif" font-size="10.4" font-weight="bold" lengthAdjust="spacing" textLength="11.2" x="1070.8" y="957.9398">30</text><text fill="#000000" font-family="sans-serif" font-size="10.4" lengthAdjust="spacing" textLength="296" x="1085.2" y="957.9398">addUserWithRole(e.getName(), e.getEmail(), pwd, e.getRoleId())</text><polygon fill="#A80036" points="48.4,982.9063,40.4,986.1063,48.4,989.3063,45.2,986.1063" style="stroke:#A80036;stroke-width:0.8;"/><line style="stroke:#A80036;stroke-width:0.8;stroke-dasharray:2.0,2.0;" x1="43.6" x2="498.8" y1="986.1063" y2="986.1063"/><text fill="#000000" font-family="sans-serif" font-size="10.4" font-weight="bold" lengthAdjust="spacing" textLength="11.2" x="53.2" y="982.2211">30</text><text fill="#000000" font-family="sans-serif" font-size="10.4" lengthAdjust="spacing" textLength="121.6" x="67.6" y="982.2211">informs operation success</text><!--MD5=[15d086ab14ec747e189d9ee239bf9818]
@startuml
actor Administrator as admin
participant ":CreateEmployeeUI" as ui
participant ":CreateEmployeeController" as controller
participant ":Company" as company
participant "roleStore: OrgRoleStore" as ors
participant ":OrganizationRole" as role
participant "e: Employee" as employee
participant "e: SpecialistDoctor" as sd
participant "empStore: EmployeeStore" as es
participant ":AuthFacade" as auth


admin -> ui : **1** starts a company employee registration
create controller
ui -> controller : **2** create()
ui -> controller : **3** getOrganizationRoles()
controller -> company : **4** roleStore = getOrgRolesStore()
controller -> ors : roles = getOrganizationRoles()
ui - -> admin : **5** requests employee role
admin -> ui : **6** selects requested data
ui - -> admin : **7** requests employee information (ie. name, address, phone number, e-mail, soc, **optional** DIN)
admin -> ui : **8** types requested data
ui -> controller : **9** createEmployee(role, name, address, phoneNumber, email, soc, **optional** DIN)
controller -> role : **8** e = createEmployee(role, name, address, phoneNumber, email, soc, **optional** DIN)
role -> es : id = generateEmployeeId(name)
alt role = "Specialist Doctor"
create sd
role -> sd : create(id, role, name, address, phoneNumber, email, soc, DIN)
else
create employee
role -> employee : create(id, role, name, address, phoneNumber, email, soc)
end
employee -> employee : **14** validateName(name)
employee -> employee : **16** validateAddress(address)
employee -> employee : **18** validatePhoneNumber(phoneNumber)
employee -> employee : **20** validateEmail(email)
employee -> employee : validateSocCode(soc)
sd -> sd : **23** validate(DIN)
ui - -> admin : **24** shows the data and requests confirmation
admin -> ui : **25** confirms the data
ui -> controller : **26** saveEmployee()
controller -> company : empStore = getEmployeeStore()
controller -> es : **27** saveEmployee(e)
es -> es : **28** validateEmployee(e)
es -> es : **29** addEmployee(e)
controller -> company : saveEmployeeAsUser(e)
company -> company : **30** pwd = generateUserPassword()
company -> auth : **30** addUserWithRole(e.getName(), e.getEmail(), pwd, e.getRoleId())
ui - -> admin : **30** informs operation success


@enduml

PlantUML version 1.2021.2(Sun Mar 07 11:10:27 GMT 2021)
(GPL source distribution)
Java Runtime: OpenJDK Runtime Environment
JVM: OpenJDK 64-Bit Server VM
Default Encoding: Cp1252
Language: pt
Country: PT
--></g></svg>