<?xml version="1.0" encoding="UTF-8" standalone="no"?><svg xmlns="http://www.w3.org/2000/svg" xmlns:xlink="http://www.w3.org/1999/xlink" contentScriptType="application/ecmascript" contentStyleType="text/css" height="256.8px" preserveAspectRatio="none" style="width:537px;height:256px;" version="1.1" viewBox="0 0 537 256" width="537px" zoomAndPan="magnify"><defs><filter height="300%" id="fhc4gvuulpssy" width="300%" x="-1" y="-1"><feGaussianBlur result="blurOut" stdDeviation="1.2"/><feColorMatrix in="blurOut" result="blurOut2" type="matrix" values="0 0 0 0 0 0 0 0 0 0 0 0 0 0 0 0 0 0 .4 0"/><feOffset dx="2.4" dy="2.4" in="blurOut2" result="blurOut3"/><feBlend in="SourceGraphic" in2="blurOut3" mode="normal"/></filter></defs><g><!--MD5=[da547346deef918ea16944ba046651ef]
class Administrator--><rect codeLine="3" fill="#FEFECE" filter="url(#fhc4gvuulpssy)" height="28.8" id="Administrator" style="stroke:#A80036;stroke-width:0.8999999999999999;" width="63" x="226.5" y="8.4"/><ellipse cx="235.5" cy="18" fill="#ADD1B2" rx="6.6" ry="6.6" style="stroke:#A80036;stroke-width:0.6;"/><path d="M236.7,15.9 Q236.8219,15.6 236.9625,15.45 Q237.1031,15.3 237.2625,15.3 Q237.5438,15.3 237.7219,15.4688 Q237.9,15.6375 237.9,16.0313 L237.9,16.9688 Q237.9,17.3625 237.7313,17.5313 Q237.5625,17.7 237.3,17.7 Q237.0656,17.7 236.9156,17.5969 Q236.7656,17.4938 236.7,17.2219 Q236.6719,17.0344 236.5688,16.9313 Q236.3813,16.7344 236.0438,16.6219 Q235.7062,16.5 235.3687,16.5 Q234.9469,16.5 234.5906,16.6688 Q234.2437,16.8375 233.9719,17.2125 Q233.7,17.5875 233.7,18.1031 L233.7,18.6563 Q233.7,19.275 234.2062,19.6875 Q234.7125,20.1 235.6125,20.1 Q236.1469,20.1 236.5219,19.9781 Q236.7375,19.9125 236.9813,19.6969 Q237.1406,19.575 237.225,19.5375 Q237.3094,19.5 237.4125,19.5 Q237.6094,19.5 237.75,19.6594 Q237.9,19.8094 237.9,20.025 Q237.9,20.2313 237.6938,20.475 Q237.3937,20.8313 236.9156,21.0281 Q236.2875,21.3 235.5187,21.3 Q234.6187,21.3 233.8969,20.9437 Q233.3156,20.6625 232.9031,20.0531 Q232.5,19.4437 232.5,18.7219 L232.5,18.0656 Q232.5,17.3156 232.8563,16.6594 Q233.2219,16.0031 233.85,15.6563 Q234.4875,15.3 235.2,15.3 Q235.6313,15.3 236.0063,15.45 Q236.3813,15.6 236.7,15.9 Z " fill="#000000"/><text fill="#000000" font-family="sans-serif" font-size="7.2" lengthAdjust="spacing" textLength="43.8" x="243.9" y="20.9461">Administrator</text><line style="stroke:#A80036;stroke-width:0.8999999999999999;" x1="227.1" x2="288.9" y1="27.6" y2="27.6"/><line style="stroke:#A80036;stroke-width:0.8999999999999999;" x1="227.1" x2="288.9" y1="32.4" y2="32.4"/><!--MD5=[012ee2a8bf3ae2b319009b06f951c2e5]
class ClinicalChemistryTechnologist--><rect codeLine="4" fill="#FEFECE" filter="url(#fhc4gvuulpssy)" height="28.8" id="ClinicalChemistryTechnologist" style="stroke:#A80036;stroke-width:0.8999999999999999;" width="120" x="4.2" y="216"/><ellipse cx="13.2" cy="225.6" fill="#ADD1B2" rx="6.6" ry="6.6" style="stroke:#A80036;stroke-width:0.6;"/><path d="M14.4,223.5 Q14.5219,223.2 14.6625,223.05 Q14.8031,222.9 14.9625,222.9 Q15.2437,222.9 15.4219,223.0688 Q15.6,223.2375 15.6,223.6313 L15.6,224.5688 Q15.6,224.9625 15.4312,225.1313 Q15.2625,225.3 15,225.3 Q14.7656,225.3 14.6156,225.1969 Q14.4656,225.0938 14.4,224.8219 Q14.3719,224.6344 14.2687,224.5313 Q14.0812,224.3344 13.7438,224.2219 Q13.4063,224.1 13.0688,224.1 Q12.6469,224.1 12.2906,224.2687 Q11.9438,224.4375 11.6719,224.8125 Q11.4,225.1875 11.4,225.7031 L11.4,226.2563 Q11.4,226.875 11.9063,227.2875 Q12.4125,227.7 13.3125,227.7 Q13.8469,227.7 14.2219,227.5781 Q14.4375,227.5125 14.6812,227.2969 Q14.8406,227.175 14.925,227.1375 Q15.0094,227.1 15.1125,227.1 Q15.3094,227.1 15.45,227.2594 Q15.6,227.4094 15.6,227.625 Q15.6,227.8312 15.3937,228.075 Q15.0938,228.4313 14.6156,228.6281 Q13.9875,228.9 13.2188,228.9 Q12.3188,228.9 11.5969,228.5438 Q11.0156,228.2625 10.6031,227.6531 Q10.2,227.0438 10.2,226.3219 L10.2,225.6656 Q10.2,224.9156 10.5563,224.2594 Q10.9219,223.6031 11.55,223.2563 Q12.1875,222.9 12.9,222.9 Q13.3312,222.9 13.7062,223.05 Q14.0812,223.2 14.4,223.5 Z " fill="#000000"/><text fill="#000000" font-family="sans-serif" font-size="7.2" lengthAdjust="spacing" textLength="100.8" x="21.6" y="228.5461">ClinicalChemistryTechnologist</text><line style="stroke:#A80036;stroke-width:0.8999999999999999;" x1="4.8" x2="123.6" y1="235.2" y2="235.2"/><line style="stroke:#A80036;stroke-width:0.8999999999999999;" x1="4.8" x2="123.6" y1="240" y2="240"/><!--MD5=[02e4b9b7573f1156f41e60aa5b4e25a4]
class Company--><rect codeLine="5" fill="#FEFECE" filter="url(#fhc4gvuulpssy)" height="37.1016" id="Company" style="stroke:#A80036;stroke-width:0.8999999999999999;" width="51" x="315.3" y="4.2"/><ellipse cx="324.3" cy="13.8" fill="#ADD1B2" rx="6.6" ry="6.6" style="stroke:#A80036;stroke-width:0.6;"/><path d="M325.5,11.7 Q325.6219,11.4 325.7625,11.25 Q325.9031,11.1 326.0625,11.1 Q326.3438,11.1 326.5219,11.2687 Q326.7,11.4375 326.7,11.8312 L326.7,12.7687 Q326.7,13.1625 326.5313,13.3312 Q326.3625,13.5 326.1,13.5 Q325.8656,13.5 325.7156,13.3969 Q325.5656,13.2938 325.5,13.0219 Q325.4719,12.8344 325.3688,12.7313 Q325.1813,12.5344 324.8438,12.4219 Q324.5062,12.3 324.1688,12.3 Q323.7469,12.3 323.3906,12.4688 Q323.0438,12.6375 322.7719,13.0125 Q322.5,13.3875 322.5,13.9031 L322.5,14.4562 Q322.5,15.075 323.0062,15.4875 Q323.5125,15.9 324.4125,15.9 Q324.9469,15.9 325.3219,15.7781 Q325.5375,15.7125 325.7813,15.4969 Q325.9406,15.375 326.025,15.3375 Q326.1094,15.3 326.2125,15.3 Q326.4094,15.3 326.55,15.4594 Q326.7,15.6094 326.7,15.825 Q326.7,16.0313 326.4938,16.275 Q326.1937,16.6312 325.7156,16.8281 Q325.0875,17.1 324.3187,17.1 Q323.4188,17.1 322.6969,16.7438 Q322.1156,16.4625 321.7031,15.8531 Q321.3,15.2437 321.3,14.5219 L321.3,13.8656 Q321.3,13.1156 321.6563,12.4594 Q322.0219,11.8031 322.65,11.4562 Q323.2875,11.1 324,11.1 Q324.4313,11.1 324.8063,11.25 Q325.1813,11.4 325.5,11.7 Z " fill="#000000"/><text fill="#000000" font-family="sans-serif" font-size="7.2" lengthAdjust="spacing" textLength="31.8" x="332.7" y="16.7461">Company</text><line style="stroke:#A80036;stroke-width:0.8999999999999999;" x1="315.9" x2="365.7" y1="23.4" y2="23.4"/><text fill="#000000" font-family="sans-serif" font-size="6.6" lengthAdjust="spacing" textLength="35.4" x="318.9" y="32.6514">-designation</text><line style="stroke:#A80036;stroke-width:0.8999999999999999;" x1="315.9" x2="365.7" y1="36.5016" y2="36.5016"/><!--MD5=[7421f545a0d8420c5bec41e74b387d9c]
class Employee--><rect codeLine="8" fill="#FEFECE" filter="url(#fhc4gvuulpssy)" height="86.9109" id="Employee" style="stroke:#A80036;stroke-width:0.8999999999999999;" width="52.2" x="279.9" y="88.2"/><ellipse cx="288.9" cy="97.8" fill="#ADD1B2" rx="6.6" ry="6.6" style="stroke:#A80036;stroke-width:0.6;"/><path d="M290.1,95.7 Q290.2219,95.4 290.3625,95.25 Q290.5031,95.1 290.6625,95.1 Q290.9437,95.1 291.1219,95.2688 Q291.3,95.4375 291.3,95.8313 L291.3,96.7688 Q291.3,97.1625 291.1312,97.3313 Q290.9625,97.5 290.7,97.5 Q290.4656,97.5 290.3156,97.3969 Q290.1656,97.2938 290.1,97.0219 Q290.0719,96.8344 289.9688,96.7313 Q289.7813,96.5344 289.4437,96.4219 Q289.1063,96.3 288.7688,96.3 Q288.3469,96.3 287.9906,96.4688 Q287.6438,96.6375 287.3719,97.0125 Q287.1,97.3875 287.1,97.9031 L287.1,98.4563 Q287.1,99.075 287.6063,99.4875 Q288.1125,99.9 289.0125,99.9 Q289.5469,99.9 289.9219,99.7781 Q290.1375,99.7125 290.3812,99.4969 Q290.5406,99.375 290.625,99.3375 Q290.7094,99.3 290.8125,99.3 Q291.0094,99.3 291.15,99.4594 Q291.3,99.6094 291.3,99.825 Q291.3,100.0313 291.0938,100.275 Q290.7938,100.6313 290.3156,100.8281 Q289.6875,101.1 288.9188,101.1 Q288.0188,101.1 287.2969,100.7437 Q286.7156,100.4625 286.3031,99.8531 Q285.9,99.2437 285.9,98.5219 L285.9,97.8656 Q285.9,97.1156 286.2562,96.4594 Q286.6219,95.8031 287.25,95.4563 Q287.8875,95.1 288.6,95.1 Q289.0313,95.1 289.4063,95.25 Q289.7813,95.4 290.1,95.7 Z " fill="#000000"/><text fill="#000000" font-family="sans-serif" font-size="7.2" lengthAdjust="spacing" textLength="33" x="297.3" y="100.7461">Employee</text><line style="stroke:#A80036;stroke-width:0.8999999999999999;" x1="280.5" x2="331.5" y1="107.4" y2="107.4"/><text fill="#000000" font-family="sans-serif" font-size="6.6" lengthAdjust="spacing" textLength="35.4" x="283.5" y="116.6514">-employeeID</text><text fill="#000000" font-family="sans-serif" font-size="6.6" lengthAdjust="spacing" textLength="43.2" x="283.5" y="124.9529">-organizationID</text><text fill="#000000" font-family="sans-serif" font-size="6.6" lengthAdjust="spacing" textLength="18" x="283.5" y="133.2545">-name</text><text fill="#000000" font-family="sans-serif" font-size="6.6" lengthAdjust="spacing" textLength="26.4" x="283.5" y="141.5561">-address</text><text fill="#000000" font-family="sans-serif" font-size="6.6" lengthAdjust="spacing" textLength="42.6" x="283.5" y="149.8576">-phoneNumber</text><text fill="#000000" font-family="sans-serif" font-size="6.6" lengthAdjust="spacing" textLength="16.8" x="283.5" y="158.1592">-email</text><text fill="#000000" font-family="sans-serif" font-size="6.6" lengthAdjust="spacing" textLength="30" x="283.5" y="166.4607">-SOCcode</text><line style="stroke:#A80036;stroke-width:0.8999999999999999;" x1="280.5" x2="331.5" y1="170.3109" y2="170.3109"/><!--MD5=[052425de1c0eb6cc1c1b48342b0bb88f]
class LaboratoryCoordinator--><rect codeLine="17" fill="#FEFECE" filter="url(#fhc4gvuulpssy)" height="28.8" id="LaboratoryCoordinator" style="stroke:#A80036;stroke-width:0.8999999999999999;" width="93" x="145.5" y="216"/><ellipse cx="154.5" cy="225.6" fill="#ADD1B2" rx="6.6" ry="6.6" style="stroke:#A80036;stroke-width:0.6;"/><path d="M155.7,223.5 Q155.8219,223.2 155.9625,223.05 Q156.1031,222.9 156.2625,222.9 Q156.5438,222.9 156.7219,223.0688 Q156.9,223.2375 156.9,223.6313 L156.9,224.5688 Q156.9,224.9625 156.7313,225.1313 Q156.5625,225.3 156.3,225.3 Q156.0656,225.3 155.9156,225.1969 Q155.7656,225.0938 155.7,224.8219 Q155.6719,224.6344 155.5688,224.5313 Q155.3813,224.3344 155.0438,224.2219 Q154.7062,224.1 154.3688,224.1 Q153.9469,224.1 153.5906,224.2687 Q153.2438,224.4375 152.9719,224.8125 Q152.7,225.1875 152.7,225.7031 L152.7,226.2563 Q152.7,226.875 153.2062,227.2875 Q153.7125,227.7 154.6125,227.7 Q155.1469,227.7 155.5219,227.5781 Q155.7375,227.5125 155.9813,227.2969 Q156.1406,227.175 156.225,227.1375 Q156.3094,227.1 156.4125,227.1 Q156.6094,227.1 156.75,227.2594 Q156.9,227.4094 156.9,227.625 Q156.9,227.8312 156.6938,228.075 Q156.3937,228.4313 155.9156,228.6281 Q155.2875,228.9 154.5187,228.9 Q153.6188,228.9 152.8969,228.5438 Q152.3156,228.2625 151.9031,227.6531 Q151.5,227.0438 151.5,226.3219 L151.5,225.6656 Q151.5,224.9156 151.8563,224.2594 Q152.2219,223.6031 152.85,223.2563 Q153.4875,222.9 154.2,222.9 Q154.6313,222.9 155.0063,223.05 Q155.3813,223.2 155.7,223.5 Z " fill="#000000"/><text fill="#000000" font-family="sans-serif" font-size="7.2" lengthAdjust="spacing" textLength="73.8" x="162.9" y="228.5461">LaboratoryCoordinator</text><line style="stroke:#A80036;stroke-width:0.8999999999999999;" x1="146.1" x2="237.9" y1="235.2" y2="235.2"/><line style="stroke:#A80036;stroke-width:0.8999999999999999;" x1="146.1" x2="237.9" y1="240" y2="240"/><!--MD5=[01931d41e78f8996acd44f6f0fd8de28]
class MedicalLabTechnician--><rect codeLine="18" fill="#FEFECE" filter="url(#fhc4gvuulpssy)" height="28.8" id="MedicalLabTechnician" style="stroke:#A80036;stroke-width:0.8999999999999999;" width="93" x="259.5" y="216"/><ellipse cx="268.5" cy="225.6" fill="#ADD1B2" rx="6.6" ry="6.6" style="stroke:#A80036;stroke-width:0.6;"/><path d="M269.7,223.5 Q269.8219,223.2 269.9625,223.05 Q270.1031,222.9 270.2625,222.9 Q270.5438,222.9 270.7219,223.0688 Q270.9,223.2375 270.9,223.6313 L270.9,224.5688 Q270.9,224.9625 270.7313,225.1313 Q270.5625,225.3 270.3,225.3 Q270.0656,225.3 269.9156,225.1969 Q269.7656,225.0938 269.7,224.8219 Q269.6719,224.6344 269.5687,224.5313 Q269.3812,224.3344 269.0438,224.2219 Q268.7063,224.1 268.3688,224.1 Q267.9469,224.1 267.5906,224.2687 Q267.2438,224.4375 266.9719,224.8125 Q266.7,225.1875 266.7,225.7031 L266.7,226.2563 Q266.7,226.875 267.2063,227.2875 Q267.7125,227.7 268.6125,227.7 Q269.1469,227.7 269.5219,227.5781 Q269.7375,227.5125 269.9813,227.2969 Q270.1406,227.175 270.225,227.1375 Q270.3094,227.1 270.4125,227.1 Q270.6094,227.1 270.75,227.2594 Q270.9,227.4094 270.9,227.625 Q270.9,227.8312 270.6937,228.075 Q270.3938,228.4313 269.9156,228.6281 Q269.2875,228.9 268.5188,228.9 Q267.6188,228.9 266.8969,228.5438 Q266.3156,228.2625 265.9031,227.6531 Q265.5,227.0438 265.5,226.3219 L265.5,225.6656 Q265.5,224.9156 265.8563,224.2594 Q266.2219,223.6031 266.85,223.2563 Q267.4875,222.9 268.2,222.9 Q268.6312,222.9 269.0062,223.05 Q269.3812,223.2 269.7,223.5 Z " fill="#000000"/><text fill="#000000" font-family="sans-serif" font-size="7.2" lengthAdjust="spacing" textLength="73.8" x="276.9" y="228.5461">MedicalLabTechnician</text><line style="stroke:#A80036;stroke-width:0.8999999999999999;" x1="260.1" x2="351.9" y1="235.2" y2="235.2"/><line style="stroke:#A80036;stroke-width:0.8999999999999999;" x1="260.1" x2="351.9" y1="240" y2="240"/><!--MD5=[03960189e81aa2c066c762ffabbee709]
class Receptionist--><rect codeLine="19" fill="#FEFECE" filter="url(#fhc4gvuulpssy)" height="28.8" id="Receptionist" style="stroke:#A80036;stroke-width:0.8999999999999999;" width="60.6" x="373.5" y="216"/><ellipse cx="382.5" cy="225.6" fill="#ADD1B2" rx="6.6" ry="6.6" style="stroke:#A80036;stroke-width:0.6;"/><path d="M383.7,223.5 Q383.8219,223.2 383.9625,223.05 Q384.1031,222.9 384.2625,222.9 Q384.5438,222.9 384.7219,223.0688 Q384.9,223.2375 384.9,223.6313 L384.9,224.5688 Q384.9,224.9625 384.7313,225.1313 Q384.5625,225.3 384.3,225.3 Q384.0656,225.3 383.9156,225.1969 Q383.7656,225.0938 383.7,224.8219 Q383.6719,224.6344 383.5687,224.5313 Q383.3812,224.3344 383.0438,224.2219 Q382.7063,224.1 382.3688,224.1 Q381.9469,224.1 381.5906,224.2687 Q381.2438,224.4375 380.9719,224.8125 Q380.7,225.1875 380.7,225.7031 L380.7,226.2563 Q380.7,226.875 381.2063,227.2875 Q381.7125,227.7 382.6125,227.7 Q383.1469,227.7 383.5219,227.5781 Q383.7375,227.5125 383.9813,227.2969 Q384.1406,227.175 384.225,227.1375 Q384.3094,227.1 384.4125,227.1 Q384.6094,227.1 384.75,227.2594 Q384.9,227.4094 384.9,227.625 Q384.9,227.8312 384.6937,228.075 Q384.3938,228.4313 383.9156,228.6281 Q383.2875,228.9 382.5188,228.9 Q381.6188,228.9 380.8969,228.5438 Q380.3156,228.2625 379.9031,227.6531 Q379.5,227.0438 379.5,226.3219 L379.5,225.6656 Q379.5,224.9156 379.8563,224.2594 Q380.2219,223.6031 380.85,223.2563 Q381.4875,222.9 382.2,222.9 Q382.6312,222.9 383.0062,223.05 Q383.3812,223.2 383.7,223.5 Z " fill="#000000"/><text fill="#000000" font-family="sans-serif" font-size="7.2" lengthAdjust="spacing" textLength="41.4" x="390.9" y="228.5461">Receptionist</text><line style="stroke:#A80036;stroke-width:0.8999999999999999;" x1="374.1" x2="433.5" y1="235.2" y2="235.2"/><line style="stroke:#A80036;stroke-width:0.8999999999999999;" x1="374.1" x2="433.5" y1="240" y2="240"/><!--MD5=[7d96fd15f3014691d2fcaf89c5791e2a]
class SpecialistDoctor--><rect codeLine="20" fill="#FEFECE" filter="url(#fhc4gvuulpssy)" height="37.1016" id="SpecialistDoctor" style="stroke:#A80036;stroke-width:0.8999999999999999;" width="73.2" x="455.4" y="211.8"/><ellipse cx="464.4" cy="221.4" fill="#ADD1B2" rx="6.6" ry="6.6" style="stroke:#A80036;stroke-width:0.6;"/><path d="M465.6,219.3 Q465.7219,219 465.8625,218.85 Q466.0031,218.7 466.1625,218.7 Q466.4437,218.7 466.6219,218.8688 Q466.8,219.0375 466.8,219.4313 L466.8,220.3688 Q466.8,220.7625 466.6312,220.9313 Q466.4625,221.1 466.2,221.1 Q465.9656,221.1 465.8156,220.9969 Q465.6656,220.8937 465.6,220.6219 Q465.5719,220.4344 465.4688,220.3312 Q465.2813,220.1344 464.9437,220.0219 Q464.6063,219.9 464.2687,219.9 Q463.8469,219.9 463.4906,220.0688 Q463.1437,220.2375 462.8719,220.6125 Q462.6,220.9875 462.6,221.5031 L462.6,222.0563 Q462.6,222.675 463.1063,223.0875 Q463.6125,223.5 464.5125,223.5 Q465.0469,223.5 465.4219,223.3781 Q465.6375,223.3125 465.8812,223.0969 Q466.0406,222.975 466.125,222.9375 Q466.2094,222.9 466.3125,222.9 Q466.5094,222.9 466.65,223.0594 Q466.8,223.2094 466.8,223.425 Q466.8,223.6313 466.5938,223.875 Q466.2938,224.2313 465.8156,224.4281 Q465.1875,224.7 464.4188,224.7 Q463.5187,224.7 462.7969,224.3438 Q462.2156,224.0625 461.8031,223.4531 Q461.4,222.8438 461.4,222.1219 L461.4,221.4656 Q461.4,220.7156 461.7562,220.0594 Q462.1219,219.4031 462.75,219.0563 Q463.3875,218.7 464.1,218.7 Q464.5313,218.7 464.9063,218.85 Q465.2813,219 465.6,219.3 Z " fill="#000000"/><text fill="#000000" font-family="sans-serif" font-size="7.2" lengthAdjust="spacing" textLength="54" x="472.8" y="224.3461">SpecialistDoctor</text><line style="stroke:#A80036;stroke-width:0.8999999999999999;" x1="456" x2="528" y1="231" y2="231"/><text fill="#000000" font-family="sans-serif" font-size="6.6" lengthAdjust="spacing" textLength="58.8" x="459" y="240.2514">-doctorIndexNumber</text><line style="stroke:#A80036;stroke-width:0.8999999999999999;" x1="456" x2="528" y1="244.1016" y2="244.1016"/><!--MD5=[09366576ee87d48d594df10cacc83f45]
link Company to Employee--><path codeLine="24" d="M334.974,41.424 C330.852,54.18 325.146,71.844 319.884,88.122 " fill="none" id="Company-Employee" style="stroke:#A80036;stroke-width:0.6;"/><polygon fill="#000000" points="330.8775,67.7601,334.2242,63.1382,330.8684,62.0538,330.8775,67.7601" style="stroke:#000000;stroke-width:0.6;"/><text fill="#000000" font-family="sans-serif" font-size="7.8" lengthAdjust="spacing" textLength="12.6" x="337.2" y="68.0971">has</text><text fill="#000000" font-family="sans-serif" font-size="7.8" lengthAdjust="spacing" textLength="4.2" x="329.2136" y="54.1631">1</text><text fill="#000000" font-family="sans-serif" font-size="7.8" lengthAdjust="spacing" textLength="12" x="308.697" y="81.6456">1..*</text><!--MD5=[f7fb1bbd8b4f4021e9754ae6fe2871a0]
reverse link Employee to Administrator--><path codeLine="25" d="M299.406,76.308 C297.684,70.434 295.518,64.68 292.8,59.4 C288.504,51.054 281.64,43.338 275.136,37.212 " fill="none" id="Employee-backto-Administrator" style="stroke:#A80036;stroke-width:0.6;"/><polygon fill="none" points="303.504,75.39,302.28,88.044,295.344,77.388,303.504,75.39" style="stroke:#A80036;stroke-width:0.6;"/><!--MD5=[8f7dd94d56b58fc07b233ccd3dd98f8c]
link Administrator to Employee--><path codeLine="31" d="M251.352,37.296 C247.746,46.812 244.806,59.58 249,70.2 C255.276,86.094 267.876,100.272 279.642,110.946 " fill="none" id="Administrator-Employee" style="stroke:#A80036;stroke-width:0.6;"/><polygon fill="#000000" points="253.0757,67.706,252.7758,62.0075,249.4836,63.2721,253.0757,67.706" style="stroke:#000000;stroke-width:0.6;"/><text fill="#000000" font-family="sans-serif" font-size="7.8" lengthAdjust="spacing" textLength="30" x="257.4" y="68.0971">registers</text><text fill="#000000" font-family="sans-serif" font-size="7.8" lengthAdjust="spacing" textLength="4.2" x="245.0197" y="50.1222">1</text><text fill="#000000" font-family="sans-serif" font-size="7.8" lengthAdjust="spacing" textLength="3" x="272.028" y="105.2355">*</text><!--MD5=[4c7c52c4bf7e982cdae6fb6daeda4b43]
reverse link Employee to ClinicalChemistryTechnologist--><path codeLine="26" d="M268.53,147.408 C222.06,166.146 143.49,197.832 98.52,215.958 " fill="none" id="Employee-backto-ClinicalChemistryTechnologist" style="stroke:#A80036;stroke-width:0.6;"/><polygon fill="none" points="267.192,143.418,279.894,142.824,270.336,151.212,267.192,143.418" style="stroke:#A80036;stroke-width:0.6;"/><!--MD5=[8c76900db13228c02bafda6909b4bb57]
reverse link Employee to MedicalLabTechnician--><path codeLine="27" d="M306,187.362 C306,197.946 306,208.128 306,215.868 " fill="none" id="Employee-backto-MedicalLabTechnician" style="stroke:#A80036;stroke-width:0.6;"/><polygon fill="none" points="301.8,187.35,306,175.35,310.2,187.35,301.8,187.35" style="stroke:#A80036;stroke-width:0.6;"/><!--MD5=[7dae17bb55c59b06af656d7c83a51371]
reverse link Employee to LaboratoryCoordinator--><path codeLine="28" d="M270.63,162.552 C249.762,180.402 224.352,202.128 208.176,215.964 " fill="none" id="Employee-backto-LaboratoryCoordinator" style="stroke:#A80036;stroke-width:0.6;"/><polygon fill="none" points="267.996,159.276,279.846,154.668,273.456,165.66,267.996,159.276" style="stroke:#A80036;stroke-width:0.6;"/><!--MD5=[bfff716514ca687b645fe473c6e098a4]
reverse link Employee to Receptionist--><path codeLine="29" d="M340.794,166.986 C357.738,183.876 377.148,203.232 389.898,215.94 " fill="none" id="Employee-backto-Receptionist" style="stroke:#A80036;stroke-width:0.6;"/><polygon fill="none" points="337.74,169.872,332.208,158.43,343.674,163.926,337.74,169.872" style="stroke:#A80036;stroke-width:0.6;"/><!--MD5=[372bd27a178b4208a6d241b4516ac7e6]
reverse link Employee to SpecialistDoctor--><path codeLine="30" d="M342.942,151.668 C376.332,169.17 425.1,194.73 457.662,211.8 " fill="none" id="Employee-backto-SpecialistDoctor" style="stroke:#A80036;stroke-width:0.6;"/><polygon fill="none" points="340.932,155.352,332.256,146.064,344.832,147.912,340.932,155.352" style="stroke:#A80036;stroke-width:0.6;"/><!--MD5=[47b212fec4980f50a7b8dc46781ac6e0]
@startuml
skinparam classAttributeIconSize 0

class Administrator
class ClinicalChemistryTechnologist
class Company {
-designation
}
class Employee {
-employeeID
-organizationID
-name
-address
-phoneNumber
-email
-SOCcode
}
class LaboratoryCoordinator
class MedicalLabTechnician
class Receptionist
class SpecialistDoctor {
-doctorIndexNumber
}

Company "1"- -"1..*" Employee : has >
Employee <|- - Administrator
Employee <|- - ClinicalChemistryTechnologist
Employee <|- - MedicalLabTechnician
Employee <|- - LaboratoryCoordinator
Employee <|- - Receptionist
Employee <|- - SpecialistDoctor
Administrator "1"- -"*" Employee : registers >
@enduml

PlantUML version 1.2021.2(Sun Mar 07 11:10:27 GMT 2021)
(GPL source distribution)
Java Runtime: OpenJDK Runtime Environment
JVM: OpenJDK 64-Bit Server VM
Default Encoding: Cp1252
Language: pt
Country: PT
--></g></svg>