<?xml version="1.0" encoding="UTF-8" standalone="no"?><svg xmlns="http://www.w3.org/2000/svg" xmlns:xlink="http://www.w3.org/1999/xlink" contentScriptType="application/ecmascript" contentStyleType="text/css" height="703.75px" preserveAspectRatio="none" style="width:1615px;height:703px;" version="1.1" viewBox="0 0 1615 703" width="1615px" zoomAndPan="magnify"><defs><filter height="300%" id="f11ulo7ql2e9k" width="300%" x="-1" y="-1"><feGaussianBlur result="blurOut" stdDeviation="2.5"/><feColorMatrix in="blurOut" result="blurOut2" type="matrix" values="0 0 0 0 0 0 0 0 0 0 0 0 0 0 0 0 0 0 .4 0"/><feOffset dx="5.0" dy="5.0" in="blurOut2" result="blurOut3"/><feBlend in="SourceGraphic" in2="blurOut3" mode="normal"/></filter></defs><g><!--MD5=[da547346deef918ea16944ba046651ef]
class Administrator--><rect codeLine="4" fill="#FEFECE" filter="url(#f11ulo7ql2e9k)" height="60" id="Administrator" style="stroke:#A80036;stroke-width:1.875;" width="131.25" x="1035.625" y="43.125"/><ellipse cx="1054.375" cy="63.125" fill="#ADD1B2" rx="13.75" ry="13.75" style="stroke:#A80036;stroke-width:1.25;"/><path d="M1056.875,58.75 Q1057.1289,58.125 1057.4219,57.8125 Q1057.7148,57.5 1058.0469,57.5 Q1058.6328,57.5 1059.0039,57.8516 Q1059.375,58.2031 1059.375,59.0234 L1059.375,60.9766 Q1059.375,61.7969 1059.0234,62.1484 Q1058.6719,62.5 1058.125,62.5 Q1057.6367,62.5 1057.3242,62.2852 Q1057.0117,62.0703 1056.875,61.5039 Q1056.8164,61.1133 1056.6016,60.8984 Q1056.2109,60.4883 1055.5078,60.2539 Q1054.8047,60 1054.1016,60 Q1053.2227,60 1052.4805,60.3516 Q1051.7578,60.7031 1051.1914,61.4844 Q1050.625,62.2656 1050.625,63.3398 L1050.625,64.4922 Q1050.625,65.7813 1051.6797,66.6406 Q1052.7344,67.5 1054.6094,67.5 Q1055.7227,67.5 1056.5039,67.2461 Q1056.9531,67.1094 1057.4609,66.6602 Q1057.793,66.4063 1057.9688,66.3281 Q1058.1445,66.25 1058.3594,66.25 Q1058.7695,66.25 1059.0625,66.582 Q1059.375,66.8945 1059.375,67.3438 Q1059.375,67.7734 1058.9453,68.2813 Q1058.3203,69.0234 1057.3242,69.4336 Q1056.0156,70 1054.4141,70 Q1052.5391,70 1051.0352,69.2578 Q1049.8242,68.6719 1048.9648,67.4023 Q1048.125,66.1328 1048.125,64.6289 L1048.125,63.2617 Q1048.125,61.6992 1048.8672,60.332 Q1049.6289,58.9648 1050.9375,58.2422 Q1052.2656,57.5 1053.75,57.5 Q1054.6484,57.5 1055.4297,57.8125 Q1056.2109,58.125 1056.875,58.75 Z " fill="#000000"/><text fill="#000000" font-family="sans-serif" font-size="15" lengthAdjust="spacing" textLength="91.25" x="1071.875" y="69.2627">Administrator</text><line style="stroke:#A80036;stroke-width:1.875;" x1="1036.875" x2="1165.625" y1="83.125" y2="83.125"/><line style="stroke:#A80036;stroke-width:1.875;" x1="1036.875" x2="1165.625" y1="93.125" y2="93.125"/><!--MD5=[1f6362a5c8f21d8d6a0fce68f3a92a4e]
class Parameter--><rect codeLine="5" fill="#FEFECE" filter="url(#f11ulo7ql2e9k)" height="215.6543" id="Parameter" style="stroke:#A80036;stroke-width:1.875;" width="430" x="1167.5" y="235"/><ellipse cx="1340.9375" cy="255" fill="#ADD1B2" rx="13.75" ry="13.75" style="stroke:#A80036;stroke-width:1.25;"/><path d="M1343.4375,250.625 Q1343.6914,250 1343.9844,249.6875 Q1344.2773,249.375 1344.6094,249.375 Q1345.1953,249.375 1345.5664,249.7266 Q1345.9375,250.0781 1345.9375,250.8984 L1345.9375,252.8516 Q1345.9375,253.6719 1345.5859,254.0234 Q1345.2344,254.375 1344.6875,254.375 Q1344.1992,254.375 1343.8867,254.1602 Q1343.5742,253.9453 1343.4375,253.3789 Q1343.3789,252.9883 1343.1641,252.7734 Q1342.7734,252.3633 1342.0703,252.1289 Q1341.3672,251.875 1340.6641,251.875 Q1339.7852,251.875 1339.043,252.2266 Q1338.3203,252.5781 1337.7539,253.3594 Q1337.1875,254.1406 1337.1875,255.2148 L1337.1875,256.3672 Q1337.1875,257.6563 1338.2422,258.5156 Q1339.2969,259.375 1341.1719,259.375 Q1342.2852,259.375 1343.0664,259.1211 Q1343.5156,258.9844 1344.0234,258.5352 Q1344.3555,258.2813 1344.5313,258.2031 Q1344.707,258.125 1344.9219,258.125 Q1345.332,258.125 1345.625,258.457 Q1345.9375,258.7695 1345.9375,259.2188 Q1345.9375,259.6484 1345.5078,260.1563 Q1344.8828,260.8984 1343.8867,261.3086 Q1342.5781,261.875 1340.9766,261.875 Q1339.1016,261.875 1337.5977,261.1328 Q1336.3867,260.5469 1335.5273,259.2773 Q1334.6875,258.0078 1334.6875,256.5039 L1334.6875,255.1367 Q1334.6875,253.5742 1335.4297,252.207 Q1336.1914,250.8398 1337.5,250.1172 Q1338.8281,249.375 1340.3125,249.375 Q1341.2109,249.375 1341.9922,249.6875 Q1342.7734,250 1343.4375,250.625 Z " fill="#000000"/><text fill="#000000" font-family="sans-serif" font-size="15" lengthAdjust="spacing" textLength="72.5" x="1366.5625" y="261.1377">Parameter</text><line style="stroke:#A80036;stroke-width:1.875;" x1="1168.75" x2="1596.25" y1="275" y2="275"/><text fill="#000000" font-family="sans-serif" font-size="13.75" lengthAdjust="spacing" textLength="52.5" x="1175" y="294.2737">-int code</text><text fill="#000000" font-family="sans-serif" font-size="13.75" lengthAdjust="spacing" textLength="108.75" x="1175" y="311.5686">-String shortName</text><text fill="#000000" font-family="sans-serif" font-size="13.75" lengthAdjust="spacing" textLength="110" x="1175" y="328.8635">-String description</text><text fill="#000000" font-family="sans-serif" font-size="13.75" lengthAdjust="spacing" textLength="182.5" x="1175" y="346.1584">-double upperReferenceValue</text><text fill="#000000" font-family="sans-serif" font-size="13.75" lengthAdjust="spacing" textLength="182.5" x="1175" y="363.4534">-double lowerReferenceValue</text><line style="stroke:#A80036;stroke-width:1.875;" x1="1168.75" x2="1596.25" y1="371.4746" y2="371.4746"/><text fill="#000000" font-family="sans-serif" font-size="13.75" lengthAdjust="spacing" textLength="195" x="1175" y="390.7483">+validateShortName(shortName)</text><text fill="#000000" font-family="sans-serif" font-size="13.75" lengthAdjust="spacing" textLength="125" x="1175" y="408.0432">+validateCode(code)</text><text fill="#000000" font-family="sans-serif" font-size="13.75" lengthAdjust="spacing" textLength="197.5" x="1175" y="425.3381">+validateDescription(description)</text><text fill="#000000" font-family="sans-serif" font-size="13.75" lengthAdjust="spacing" textLength="415" x="1175" y="442.6331">+validateUpperLower(upperReferenceValue, lowerReferenceValue)</text><!--MD5=[f0a179241c729f9fd2709e70d15a6ae4]
class CreateNewParameterUI--><rect codeLine="18" fill="#FEFECE" filter="url(#f11ulo7ql2e9k)" height="94.5898" id="CreateNewParameterUI" style="stroke:#A80036;stroke-width:1.875;" width="580" x="8.75" y="295.625"/><ellipse cx="210.9375" cy="315.625" fill="#ADD1B2" rx="13.75" ry="13.75" style="stroke:#A80036;stroke-width:1.25;"/><path d="M213.4375,311.25 Q213.6914,310.625 213.9844,310.3125 Q214.2773,310 214.6094,310 Q215.1953,310 215.5664,310.3516 Q215.9375,310.7031 215.9375,311.5234 L215.9375,313.4766 Q215.9375,314.2969 215.5859,314.6484 Q215.2344,315 214.6875,315 Q214.1992,315 213.8867,314.7852 Q213.5742,314.5703 213.4375,314.0039 Q213.3789,313.6133 213.1641,313.3984 Q212.7734,312.9883 212.0703,312.7539 Q211.3672,312.5 210.6641,312.5 Q209.7852,312.5 209.043,312.8516 Q208.3203,313.2031 207.7539,313.9844 Q207.1875,314.7656 207.1875,315.8398 L207.1875,316.9922 Q207.1875,318.2813 208.2422,319.1406 Q209.2969,320 211.1719,320 Q212.2852,320 213.0664,319.7461 Q213.5156,319.6094 214.0234,319.1602 Q214.3555,318.9063 214.5313,318.8281 Q214.707,318.75 214.9219,318.75 Q215.332,318.75 215.625,319.082 Q215.9375,319.3945 215.9375,319.8438 Q215.9375,320.2734 215.5078,320.7813 Q214.8828,321.5234 213.8867,321.9336 Q212.5781,322.5 210.9766,322.5 Q209.1016,322.5 207.5977,321.7578 Q206.3867,321.1719 205.5273,319.9023 Q204.6875,318.6328 204.6875,317.1289 L204.6875,315.7617 Q204.6875,314.1992 205.4297,312.832 Q206.1914,311.4648 207.5,310.7422 Q208.8281,310 210.3125,310 Q211.2109,310 211.9922,310.3125 Q212.7734,310.625 213.4375,311.25 Z " fill="#000000"/><text fill="#000000" font-family="sans-serif" font-size="15" lengthAdjust="spacing" textLength="165" x="236.5625" y="321.7627">CreateNewParameterUI</text><line style="stroke:#A80036;stroke-width:1.875;" x1="10" x2="587.5" y1="335.625" y2="335.625"/><line style="stroke:#A80036;stroke-width:1.875;" x1="10" x2="587.5" y1="345.625" y2="345.625"/><text fill="#000000" font-family="sans-serif" font-size="13.75" lengthAdjust="spacing" textLength="565" x="16.25" y="364.8987">+parameterData(shortName, code, description, upperReferenceValue, lowerReferenceValue)</text><text fill="#000000" font-family="sans-serif" font-size="13.75" lengthAdjust="spacing" textLength="187.5" x="16.25" y="382.1936">+parameterCategory(category)</text><!--MD5=[722ead4bdf6f3569f0f476dbf8ee9a8d]
class CreateNewParameterController--><rect codeLine="23" fill="#FEFECE" filter="url(#f11ulo7ql2e9k)" height="163.7695" id="CreateNewParameterController" style="stroke:#A80036;stroke-width:1.875;" width="402.5" x="632.5" y="261.25"/><ellipse cx="719.6875" cy="281.25" fill="#ADD1B2" rx="13.75" ry="13.75" style="stroke:#A80036;stroke-width:1.25;"/><path d="M722.1875,276.875 Q722.4414,276.25 722.7344,275.9375 Q723.0273,275.625 723.3594,275.625 Q723.9453,275.625 724.3164,275.9766 Q724.6875,276.3281 724.6875,277.1484 L724.6875,279.1016 Q724.6875,279.9219 724.3359,280.2734 Q723.9844,280.625 723.4375,280.625 Q722.9492,280.625 722.6367,280.4102 Q722.3242,280.1953 722.1875,279.6289 Q722.1289,279.2383 721.9141,279.0234 Q721.5234,278.6133 720.8203,278.3789 Q720.1172,278.125 719.4141,278.125 Q718.5352,278.125 717.793,278.4766 Q717.0703,278.8281 716.5039,279.6094 Q715.9375,280.3906 715.9375,281.4648 L715.9375,282.6172 Q715.9375,283.9063 716.9922,284.7656 Q718.0469,285.625 719.9219,285.625 Q721.0352,285.625 721.8164,285.3711 Q722.2656,285.2344 722.7734,284.7852 Q723.1055,284.5313 723.2813,284.4531 Q723.457,284.375 723.6719,284.375 Q724.082,284.375 724.375,284.707 Q724.6875,285.0195 724.6875,285.4688 Q724.6875,285.8984 724.2578,286.4063 Q723.6328,287.1484 722.6367,287.5586 Q721.3281,288.125 719.7266,288.125 Q717.8516,288.125 716.3477,287.3828 Q715.1367,286.7969 714.2773,285.5273 Q713.4375,284.2578 713.4375,282.7539 L713.4375,281.3867 Q713.4375,279.8242 714.1797,278.457 Q714.9414,277.0898 716.25,276.3672 Q717.5781,275.625 719.0625,275.625 Q719.9609,275.625 720.7422,275.9375 Q721.5234,276.25 722.1875,276.875 Z " fill="#000000"/><text fill="#000000" font-family="sans-serif" font-size="15" lengthAdjust="spacing" textLength="217.5" x="745.3125" y="287.3877">CreateNewParameterController</text><line style="stroke:#A80036;stroke-width:1.875;" x1="633.75" x2="1033.75" y1="301.25" y2="301.25"/><line style="stroke:#A80036;stroke-width:1.875;" x1="633.75" x2="1033.75" y1="311.25" y2="311.25"/><text fill="#000000" font-family="sans-serif" font-size="13.75" lengthAdjust="spacing" textLength="146.25" x="640" y="330.5237">+createNewParameter()</text><text fill="#000000" font-family="sans-serif" font-size="13.75" lengthAdjust="spacing" textLength="167.5" x="640" y="347.8186">+setShortName(shortName)</text><text fill="#000000" font-family="sans-serif" font-size="13.75" lengthAdjust="spacing" textLength="97.5" x="640" y="365.1135">+setCode(code)</text><text fill="#000000" font-family="sans-serif" font-size="13.75" lengthAdjust="spacing" textLength="170" x="640" y="382.4084">+setDescription(description)</text><text fill="#000000" font-family="sans-serif" font-size="13.75" lengthAdjust="spacing" textLength="387.5" x="640" y="399.7034">+setUpperLower(upperReferenceValue, lowerReferenceValue)</text><text fill="#000000" font-family="sans-serif" font-size="13.75" lengthAdjust="spacing" textLength="162.5" x="640" y="416.9983">+saveParameter(category)</text><!--MD5=[02e4b9b7573f1156f41e60aa5b4e25a4]
class Company--><rect codeLine="33" fill="#FEFECE" filter="url(#f11ulo7ql2e9k)" height="60" id="Company" style="stroke:#A80036;stroke-width:1.875;" width="106.25" x="914.375" y="626.25"/><ellipse cx="933.125" cy="646.25" fill="#ADD1B2" rx="13.75" ry="13.75" style="stroke:#A80036;stroke-width:1.25;"/><path d="M935.625,641.875 Q935.8789,641.25 936.1719,640.9375 Q936.4648,640.625 936.7969,640.625 Q937.3828,640.625 937.7539,640.9766 Q938.125,641.3281 938.125,642.1484 L938.125,644.1016 Q938.125,644.9219 937.7734,645.2734 Q937.4219,645.625 936.875,645.625 Q936.3867,645.625 936.0742,645.4102 Q935.7617,645.1953 935.625,644.6289 Q935.5664,644.2383 935.3516,644.0234 Q934.9609,643.6133 934.2578,643.3789 Q933.5547,643.125 932.8516,643.125 Q931.9727,643.125 931.2305,643.4766 Q930.5078,643.8281 929.9414,644.6094 Q929.375,645.3906 929.375,646.4648 L929.375,647.6172 Q929.375,648.9063 930.4297,649.7656 Q931.4844,650.625 933.3594,650.625 Q934.4727,650.625 935.2539,650.3711 Q935.7031,650.2344 936.2109,649.7852 Q936.543,649.5313 936.7188,649.4531 Q936.8945,649.375 937.1094,649.375 Q937.5195,649.375 937.8125,649.707 Q938.125,650.0195 938.125,650.4688 Q938.125,650.8984 937.6953,651.4063 Q937.0703,652.1484 936.0742,652.5586 Q934.7656,653.125 933.1641,653.125 Q931.2891,653.125 929.7852,652.3828 Q928.5742,651.7969 927.7148,650.5273 Q926.875,649.2578 926.875,647.7539 L926.875,646.3867 Q926.875,644.8242 927.6172,643.457 Q928.3789,642.0898 929.6875,641.3672 Q931.0156,640.625 932.5,640.625 Q933.3984,640.625 934.1797,640.9375 Q934.9609,641.25 935.625,641.875 Z " fill="#000000"/><text fill="#000000" font-family="sans-serif" font-size="15" lengthAdjust="spacing" textLength="66.25" x="950.625" y="652.3877">Company</text><line style="stroke:#A80036;stroke-width:1.875;" x1="915.625" x2="1019.375" y1="666.25" y2="666.25"/><line style="stroke:#A80036;stroke-width:1.875;" x1="915.625" x2="1019.375" y1="676.25" y2="676.25"/><!--MD5=[a96594a83e2ecdc78cbf17c2ddf01934]
class Category--><rect codeLine="35" fill="#FEFECE" filter="url(#f11ulo7ql2e9k)" height="129.1797" id="Category" style="stroke:#A80036;stroke-width:1.875;" width="152.5" x="1306.25" y="8.75"/><ellipse cx="1348.0625" cy="28.75" fill="#ADD1B2" rx="13.75" ry="13.75" style="stroke:#A80036;stroke-width:1.25;"/><path d="M1350.5625,24.375 Q1350.8164,23.75 1351.1094,23.4375 Q1351.4023,23.125 1351.7344,23.125 Q1352.3203,23.125 1352.6914,23.4766 Q1353.0625,23.8281 1353.0625,24.6484 L1353.0625,26.6016 Q1353.0625,27.4219 1352.7109,27.7734 Q1352.3594,28.125 1351.8125,28.125 Q1351.3242,28.125 1351.0117,27.9102 Q1350.6992,27.6953 1350.5625,27.1289 Q1350.5039,26.7383 1350.2891,26.5234 Q1349.8984,26.1133 1349.1953,25.8789 Q1348.4922,25.625 1347.7891,25.625 Q1346.9102,25.625 1346.168,25.9766 Q1345.4453,26.3281 1344.8789,27.1094 Q1344.3125,27.8906 1344.3125,28.9648 L1344.3125,30.1172 Q1344.3125,31.4063 1345.3672,32.2656 Q1346.4219,33.125 1348.2969,33.125 Q1349.4102,33.125 1350.1914,32.8711 Q1350.6406,32.7344 1351.1484,32.2852 Q1351.4805,32.0313 1351.6563,31.9531 Q1351.832,31.875 1352.0469,31.875 Q1352.457,31.875 1352.75,32.207 Q1353.0625,32.5195 1353.0625,32.9688 Q1353.0625,33.3984 1352.6328,33.9063 Q1352.0078,34.6484 1351.0117,35.0586 Q1349.7031,35.625 1348.1016,35.625 Q1346.2266,35.625 1344.7227,34.8828 Q1343.5117,34.2969 1342.6523,33.0273 Q1341.8125,31.7578 1341.8125,30.2539 L1341.8125,28.8867 Q1341.8125,27.3242 1342.5547,25.957 Q1343.3164,24.5898 1344.625,23.8672 Q1345.9531,23.125 1347.4375,23.125 Q1348.3359,23.125 1349.1172,23.4375 Q1349.8984,23.75 1350.5625,24.375 Z " fill="#000000"/><text fill="#000000" font-family="sans-serif" font-size="15" lengthAdjust="spacing" textLength="61.25" x="1370.6875" y="34.8877">Category</text><line style="stroke:#A80036;stroke-width:1.875;" x1="1307.5" x2="1457.5" y1="48.75" y2="48.75"/><text fill="#000000" font-family="sans-serif" font-size="13.75" lengthAdjust="spacing" textLength="35" x="1313.75" y="68.0237">-code</text><text fill="#000000" font-family="sans-serif" font-size="13.75" lengthAdjust="spacing" textLength="71.25" x="1313.75" y="85.3186">-description</text><text fill="#000000" font-family="sans-serif" font-size="13.75" lengthAdjust="spacing" textLength="38.75" x="1313.75" y="102.6135">-nhsID</text><text fill="#000000" font-family="sans-serif" font-size="13.75" lengthAdjust="spacing" textLength="137.5" x="1313.75" y="119.9084">-ArrayList&lt;Parameter&gt;</text><line style="stroke:#A80036;stroke-width:1.875;" x1="1307.5" x2="1457.5" y1="127.9297" y2="127.9297"/><!--MD5=[1a81c3437cc8c02d041887d569537c91]
link Administrator to CreateNewParameterUI--><path codeLine="42" d="M1035.6,95.5 C941.2875,125.925 762.075,184.025 610,235 C553.8,253.8375 492.025,274.9625 438.4375,293.425 " fill="none" id="Administrator-to-CreateNewParameterUI" style="stroke:#A80036;stroke-width:1.25;stroke-dasharray:7.0,7.0;"/><polygon fill="#A80036" points="432.275,295.55,444.54,296.614,438.1843,293.5148,441.2836,287.1591,432.275,295.55" style="stroke:#A80036;stroke-width:1.25;"/><!--MD5=[a36402049bc782b9e8fb71bf14cfcd21]
link CreateNewParameterUI to CreateNewParameterController--><path codeLine="43" d="M589.2375,343.125 C601.4375,343.125 613.6375,343.125 625.8375,343.125 " fill="none" id="CreateNewParameterUI-to-CreateNewParameterController" style="stroke:#A80036;stroke-width:1.25;stroke-dasharray:7.0,7.0;"/><polygon fill="#A80036" points="632.225,343.125,620.975,338.125,625.975,343.125,620.975,348.125,632.225,343.125" style="stroke:#A80036;stroke-width:1.25;"/><!--MD5=[91b3154af15e5a3c0a263ad5514e5cf0]
link CreateNewParameterController to Company--><path codeLine="44" d="M868.5375,425.175 C895.725,488.3125 932.1875,572.975 952.4,619.925 " fill="none" id="CreateNewParameterController-to-Company" style="stroke:#A80036;stroke-width:1.25;stroke-dasharray:7.0,7.0;"/><polygon fill="#A80036" points="955.025,626.0125,955.1891,613.7025,952.563,620.2678,945.9977,617.6417,955.025,626.0125" style="stroke:#A80036;stroke-width:1.25;"/><!--MD5=[9e2b536d5f14dafa66c4d5113ebdcad2]
link Category to Parameter--><path codeLine="45" d="M1382.5,137.775 C1382.5,166.6625 1382.5,201.675 1382.5,234.4875 " fill="none" id="Category-Parameter" style="stroke:#A80036;stroke-width:1.25;"/><polygon fill="#000000" points="1388.75,180.2197,1385.0763,191.5261,1392.4237,191.5261,1388.75,180.2197" style="stroke:#000000;stroke-width:1.25;"/><text fill="#000000" font-family="sans-serif" font-size="16.25" lengthAdjust="spacing" textLength="116.25" x="1400" y="193.1189">presented under</text><text fill="#000000" font-family="sans-serif" font-size="16.25" lengthAdjust="spacing" textLength="6.25" x="1375.8301" y="164.6756">*</text><text fill="#000000" font-family="sans-serif" font-size="16.25" lengthAdjust="spacing" textLength="8.75" x="1373.3877" y="221.5746">1</text><!--MD5=[4816e9029af7918ac30a965ff8ded5aa]
link Administrator to Parameter--><path codeLine="46" d="M1131.8875,103.5125 C1165.0625,135.0625 1219.9375,187.2625 1269.9,234.775 " fill="none" id="Administrator-Parameter" style="stroke:#A80036;stroke-width:1.25;"/><polygon fill="#000000" points="1227.9712,182.1624,1233.6321,192.6163,1238.6956,187.2924,1227.9712,182.1624" style="stroke:#000000;stroke-width:1.25;"/><text fill="#000000" font-family="sans-serif" font-size="16.25" lengthAdjust="spacing" textLength="86.25" x="1243.75" y="193.1189">specified by</text><text fill="#000000" font-family="sans-serif" font-size="16.25" lengthAdjust="spacing" textLength="8.75" x="1129.2107" y="129.7718">1</text><text fill="#000000" font-family="sans-serif" font-size="16.25" lengthAdjust="spacing" textLength="6.25" x="1253.7049" y="221.5177">*</text><!--MD5=[eaea43e34e45c5b9d20b595fc78f1f20]
link Company to Administrator--><path codeLine="47" d="M983.4,625.95 C1003.7875,587.2875 1038.625,516.225 1056.25,451.25 C1090.575,324.6875 1098.725,167.1625 1100.65,103.2875 " fill="none" id="Company-Administrator" style="stroke:#A80036;stroke-width:1.25;"/><polygon fill="#000000" points="1052.6181,494.1213,1046.5586,504.3493,1053.7278,505.9576,1052.6181,494.1213" style="stroke:#000000;stroke-width:1.25;"/><text fill="#000000" font-family="sans-serif" font-size="16.25" lengthAdjust="spacing" textLength="61.25" x="1062.5" y="506.8689">employs</text><text fill="#000000" font-family="sans-serif" font-size="16.25" lengthAdjust="spacing" textLength="23.75" x="960.6814" y="612.5483">1   ‎</text><text fill="#000000" font-family="sans-serif" font-size="16.25" lengthAdjust="spacing" textLength="25" x="1072.4569" y="129.9996">1..*</text><!--MD5=[272d3942bf093c64d51ec6d4b994d50a]
@startuml

skinparam classAttributeIconSize 0

class Administrator
class Parameter {
-int code
-String shortName
-String description
-double upperReferenceValue
-double lowerReferenceValue

+validateShortName(shortName)
+validateCode(code)
+validateDescription(description)
+validateUpperLower(upperReferenceValue, lowerReferenceValue)
}

class CreateNewParameterUI{
+parameterData(shortName, code, description, upperReferenceValue, lowerReferenceValue)
+parameterCategory(category)
}

class CreateNewParameterController{

+createNewParameter()
+setShortName(shortName)
+setCode(code)
+setDescription(description)
+setUpperLower(upperReferenceValue, lowerReferenceValue)
+saveParameter(category)
}

class Company

class Category {
-code
-description
-nhsID
-ArrayList<Parameter>
}

Administrator ..> CreateNewParameterUI
CreateNewParameterUI .> CreateNewParameterController
CreateNewParameterController ...> Company
Category "*"- -"1" Parameter : presented under <
Parameter "*"-up-"1" Administrator : specified by >
Company"1   ‎"-"1..*"Administrator : > employs

@enduml

PlantUML version 1.2021.5(Sun Apr 25 12:20:28 BST 2021)
(GPL source distribution)
Java Runtime: OpenJDK Runtime Environment
JVM: OpenJDK 64-Bit Server VM
Default Encoding: Cp1252
Language: pt
Country: PT
--></g></svg>