<?xml version="1.0" encoding="UTF-8" standalone="no"?><svg xmlns="http://www.w3.org/2000/svg" xmlns:xlink="http://www.w3.org/1999/xlink" contentScriptType="application/ecmascript" contentStyleType="text/css" height="1261.25px" preserveAspectRatio="none" style="width:688px;height:1261px;" version="1.1" viewBox="0 0 688 1261" width="688.75px" zoomAndPan="magnify"><defs><filter height="300%" id="fry19xagd6tp4" width="300%" x="-1" y="-1"><feGaussianBlur result="blurOut" stdDeviation="2.5"/><feColorMatrix in="blurOut" result="blurOut2" type="matrix" values="0 0 0 0 0 0 0 0 0 0 0 0 0 0 0 0 0 0 .4 0"/><feOffset dx="5.0" dy="5.0" in="blurOut2" result="blurOut3"/><feBlend in="SourceGraphic" in2="blurOut3" mode="normal"/></filter></defs><g><!--MD5=[da547346deef918ea16944ba046651ef]
class Administrator--><rect codeLine="2" fill="#FEFECE" filter="url(#fry19xagd6tp4)" height="60" id="Administrator" style="stroke:#A80036;stroke-width:1.875;" width="131.25" x="253.125" y="8.75"/><ellipse cx="271.875" cy="28.75" fill="#ADD1B2" rx="13.75" ry="13.75" style="stroke:#A80036;stroke-width:1.25;"/><path d="M274.375,24.375 Q274.6289,23.75 274.9219,23.4375 Q275.2148,23.125 275.5469,23.125 Q276.1328,23.125 276.5039,23.4766 Q276.875,23.8281 276.875,24.6484 L276.875,26.6016 Q276.875,27.4219 276.5234,27.7734 Q276.1719,28.125 275.625,28.125 Q275.1367,28.125 274.8242,27.9102 Q274.5117,27.6953 274.375,27.1289 Q274.3164,26.7383 274.1016,26.5234 Q273.7109,26.1133 273.0078,25.8789 Q272.3047,25.625 271.6016,25.625 Q270.7227,25.625 269.9805,25.9766 Q269.2578,26.3281 268.6914,27.1094 Q268.125,27.8906 268.125,28.9648 L268.125,30.1172 Q268.125,31.4063 269.1797,32.2656 Q270.2344,33.125 272.1094,33.125 Q273.2227,33.125 274.0039,32.8711 Q274.4531,32.7344 274.9609,32.2852 Q275.293,32.0313 275.4688,31.9531 Q275.6445,31.875 275.8594,31.875 Q276.2695,31.875 276.5625,32.207 Q276.875,32.5195 276.875,32.9688 Q276.875,33.3984 276.4453,33.9063 Q275.8203,34.6484 274.8242,35.0586 Q273.5156,35.625 271.9141,35.625 Q270.0391,35.625 268.5352,34.8828 Q267.3242,34.2969 266.4648,33.0273 Q265.625,31.7578 265.625,30.2539 L265.625,28.8867 Q265.625,27.3242 266.3672,25.957 Q267.1289,24.5898 268.4375,23.8672 Q269.7656,23.125 271.25,23.125 Q272.1484,23.125 272.9297,23.4375 Q273.7109,23.75 274.375,24.375 Z " fill="#000000"/><text fill="#000000" font-family="sans-serif" font-size="15" lengthAdjust="spacing" textLength="91.25" x="289.375" y="34.8877">Administrator</text><line style="stroke:#A80036;stroke-width:1.875;" x1="254.375" x2="383.125" y1="48.75" y2="48.75"/><line style="stroke:#A80036;stroke-width:1.875;" x1="254.375" x2="383.125" y1="58.75" y2="58.75"/><!--MD5=[1f6362a5c8f21d8d6a0fce68f3a92a4e]
class Parameter--><rect codeLine="3" fill="#FEFECE" filter="url(#fry19xagd6tp4)" height="319.4238" id="Parameter" style="stroke:#A80036;stroke-width:1.875;" width="235" x="8.75" y="925"/><ellipse cx="84.6875" cy="945" fill="#ADD1B2" rx="13.75" ry="13.75" style="stroke:#A80036;stroke-width:1.25;"/><path d="M87.1875,940.625 Q87.4414,940 87.7344,939.6875 Q88.0273,939.375 88.3594,939.375 Q88.9453,939.375 89.3164,939.7266 Q89.6875,940.0781 89.6875,940.8984 L89.6875,942.8516 Q89.6875,943.6719 89.3359,944.0234 Q88.9844,944.375 88.4375,944.375 Q87.9492,944.375 87.6367,944.1602 Q87.3242,943.9453 87.1875,943.3789 Q87.1289,942.9883 86.9141,942.7734 Q86.5234,942.3633 85.8203,942.1289 Q85.1172,941.875 84.4141,941.875 Q83.5352,941.875 82.793,942.2266 Q82.0703,942.5781 81.5039,943.3594 Q80.9375,944.1406 80.9375,945.2148 L80.9375,946.3672 Q80.9375,947.6563 81.9922,948.5156 Q83.0469,949.375 84.9219,949.375 Q86.0352,949.375 86.8164,949.1211 Q87.2656,948.9844 87.7734,948.5352 Q88.1055,948.2813 88.2813,948.2031 Q88.457,948.125 88.6719,948.125 Q89.082,948.125 89.375,948.457 Q89.6875,948.7695 89.6875,949.2188 Q89.6875,949.6484 89.2578,950.1563 Q88.6328,950.8984 87.6367,951.3086 Q86.3281,951.875 84.7266,951.875 Q82.8516,951.875 81.3477,951.1328 Q80.1367,950.5469 79.2773,949.2773 Q78.4375,948.0078 78.4375,946.5039 L78.4375,945.1367 Q78.4375,943.5742 79.1797,942.207 Q79.9414,940.8398 81.25,940.1172 Q82.5781,939.375 84.0625,939.375 Q84.9609,939.375 85.7422,939.6875 Q86.5234,940 87.1875,940.625 Z " fill="#000000"/><text fill="#000000" font-family="sans-serif" font-size="15" lengthAdjust="spacing" textLength="72.5" x="110.3125" y="951.1377">Parameter</text><line style="stroke:#A80036;stroke-width:1.875;" x1="10" x2="242.5" y1="965" y2="965"/><rect fill="none" height="7.5" style="stroke:#C82930;stroke-width:1.25;" width="7.5" x="18.75" y="975"/><text fill="#000000" font-family="sans-serif" font-size="13.75" lengthAdjust="spacing" textLength="47.5" x="33.75" y="984.2737">int code</text><rect fill="none" height="7.5" style="stroke:#C82930;stroke-width:1.25;" width="7.5" x="18.75" y="992.2949"/><text fill="#000000" font-family="sans-serif" font-size="13.75" lengthAdjust="spacing" textLength="103.75" x="33.75" y="1001.5686">String shortName</text><rect fill="none" height="7.5" style="stroke:#C82930;stroke-width:1.25;" width="7.5" x="18.75" y="1009.5898"/><text fill="#000000" font-family="sans-serif" font-size="13.75" lengthAdjust="spacing" textLength="105" x="33.75" y="1018.8635">String description</text><rect fill="none" height="7.5" style="stroke:#C82930;stroke-width:1.25;" width="7.5" x="18.75" y="1026.8848"/><text fill="#000000" font-family="sans-serif" font-size="13.75" lengthAdjust="spacing" textLength="177.5" x="33.75" y="1036.1584">double upperReferenceValue</text><rect fill="none" height="7.5" style="stroke:#C82930;stroke-width:1.25;" width="7.5" x="18.75" y="1044.1797"/><text fill="#000000" font-family="sans-serif" font-size="13.75" lengthAdjust="spacing" textLength="177.5" x="33.75" y="1053.4534">double lowerReferenceValue</text><line style="stroke:#A80036;stroke-width:1.875;" x1="10" x2="242.5" y1="1061.4746" y2="1061.4746"/><ellipse cx="22.5" cy="1075.2246" fill="#84BE84" rx="3.75" ry="3.75" style="stroke:#038048;stroke-width:1.25;"/><text fill="#000000" font-family="sans-serif" font-size="13.75" lengthAdjust="spacing" textLength="160" x="33.75" y="1080.7483">setShortName(shortName)</text><ellipse cx="22.5" cy="1092.5195" fill="#84BE84" rx="3.75" ry="3.75" style="stroke:#038048;stroke-width:1.25;"/><text fill="#000000" font-family="sans-serif" font-size="13.75" lengthAdjust="spacing" textLength="90" x="33.75" y="1098.0432">setCode(code)</text><ellipse cx="22.5" cy="1109.8145" fill="#84BE84" rx="3.75" ry="3.75" style="stroke:#038048;stroke-width:1.25;"/><text fill="#000000" font-family="sans-serif" font-size="13.75" lengthAdjust="spacing" textLength="162.5" x="33.75" y="1115.3381">setDescription(description)</text><ellipse cx="22.5" cy="1127.1094" fill="#84BE84" rx="3.75" ry="3.75" style="stroke:#038048;stroke-width:1.25;"/><text fill="#000000" font-family="sans-serif" font-size="13.75" lengthAdjust="spacing" textLength="198.75" x="33.75" y="1132.6331">setUpper(upperReferenceValue)</text><ellipse cx="22.5" cy="1144.4043" fill="#84BE84" rx="3.75" ry="3.75" style="stroke:#038048;stroke-width:1.25;"/><text fill="#000000" font-family="sans-serif" font-size="13.75" lengthAdjust="spacing" textLength="202.5" x="33.75" y="1149.928">setLower(lowerReferenceValue)</text><ellipse cx="22.5" cy="1161.6992" fill="#84BE84" rx="3.75" ry="3.75" style="stroke:#038048;stroke-width:1.25;"/><text fill="#000000" font-family="sans-serif" font-size="13.75" lengthAdjust="spacing" textLength="95" x="33.75" y="1167.2229">getShortName()</text><ellipse cx="22.5" cy="1178.9941" fill="#84BE84" rx="3.75" ry="3.75" style="stroke:#038048;stroke-width:1.25;"/><text fill="#000000" font-family="sans-serif" font-size="13.75" lengthAdjust="spacing" textLength="60" x="33.75" y="1184.5178">getCode()</text><ellipse cx="22.5" cy="1196.2891" fill="#84BE84" rx="3.75" ry="3.75" style="stroke:#038048;stroke-width:1.25;"/><text fill="#000000" font-family="sans-serif" font-size="13.75" lengthAdjust="spacing" textLength="96.25" x="33.75" y="1201.8127">getDescription()</text><ellipse cx="22.5" cy="1213.584" fill="#84BE84" rx="3.75" ry="3.75" style="stroke:#038048;stroke-width:1.25;"/><text fill="#000000" font-family="sans-serif" font-size="13.75" lengthAdjust="spacing" textLength="198.75" x="33.75" y="1219.1077">setUpper(upperReferenceValue)</text><ellipse cx="22.5" cy="1230.8789" fill="#84BE84" rx="3.75" ry="3.75" style="stroke:#038048;stroke-width:1.25;"/><text fill="#000000" font-family="sans-serif" font-size="13.75" lengthAdjust="spacing" textLength="202.5" x="33.75" y="1236.4026">setLower(lowerReferenceValue)</text><!--MD5=[f0a179241c729f9fd2709e70d15a6ae4]
class CreateNewParameterUI--><rect codeLine="23" fill="#FEFECE" filter="url(#fry19xagd6tp4)" height="60" id="CreateNewParameterUI" style="stroke:#A80036;stroke-width:1.875;" width="205" x="216.25" y="222.5"/><ellipse cx="235" cy="242.5" fill="#ADD1B2" rx="13.75" ry="13.75" style="stroke:#A80036;stroke-width:1.25;"/><path d="M237.5,238.125 Q237.7539,237.5 238.0469,237.1875 Q238.3398,236.875 238.6719,236.875 Q239.2578,236.875 239.6289,237.2266 Q240,237.5781 240,238.3984 L240,240.3516 Q240,241.1719 239.6484,241.5234 Q239.2969,241.875 238.75,241.875 Q238.2617,241.875 237.9492,241.6602 Q237.6367,241.4453 237.5,240.8789 Q237.4414,240.4883 237.2266,240.2734 Q236.8359,239.8633 236.1328,239.6289 Q235.4297,239.375 234.7266,239.375 Q233.8477,239.375 233.1055,239.7266 Q232.3828,240.0781 231.8164,240.8594 Q231.25,241.6406 231.25,242.7148 L231.25,243.8672 Q231.25,245.1563 232.3047,246.0156 Q233.3594,246.875 235.2344,246.875 Q236.3477,246.875 237.1289,246.6211 Q237.5781,246.4844 238.0859,246.0352 Q238.418,245.7813 238.5938,245.7031 Q238.7695,245.625 238.9844,245.625 Q239.3945,245.625 239.6875,245.957 Q240,246.2695 240,246.7188 Q240,247.1484 239.5703,247.6563 Q238.9453,248.3984 237.9492,248.8086 Q236.6406,249.375 235.0391,249.375 Q233.1641,249.375 231.6602,248.6328 Q230.4492,248.0469 229.5898,246.7773 Q228.75,245.5078 228.75,244.0039 L228.75,242.6367 Q228.75,241.0742 229.4922,239.707 Q230.2539,238.3398 231.5625,237.6172 Q232.8906,236.875 234.375,236.875 Q235.2734,236.875 236.0547,237.1875 Q236.8359,237.5 237.5,238.125 Z " fill="#000000"/><text fill="#000000" font-family="sans-serif" font-size="15" lengthAdjust="spacing" textLength="165" x="252.5" y="248.6377">CreateNewParameterUI</text><line style="stroke:#A80036;stroke-width:1.875;" x1="217.5" x2="420" y1="262.5" y2="262.5"/><line style="stroke:#A80036;stroke-width:1.875;" x1="217.5" x2="420" y1="272.5" y2="272.5"/><!--MD5=[722ead4bdf6f3569f0f476dbf8ee9a8d]
class CreateNewParameterController--><rect codeLine="26" fill="#FEFECE" filter="url(#fry19xagd6tp4)" height="111.8848" id="CreateNewParameterController" style="stroke:#A80036;stroke-width:1.875;" width="347.5" x="145" y="457.5"/><ellipse cx="204.6875" cy="477.5" fill="#ADD1B2" rx="13.75" ry="13.75" style="stroke:#A80036;stroke-width:1.25;"/><path d="M207.1875,473.125 Q207.4414,472.5 207.7344,472.1875 Q208.0273,471.875 208.3594,471.875 Q208.9453,471.875 209.3164,472.2266 Q209.6875,472.5781 209.6875,473.3984 L209.6875,475.3516 Q209.6875,476.1719 209.3359,476.5234 Q208.9844,476.875 208.4375,476.875 Q207.9492,476.875 207.6367,476.6602 Q207.3242,476.4453 207.1875,475.8789 Q207.1289,475.4883 206.9141,475.2734 Q206.5234,474.8633 205.8203,474.6289 Q205.1172,474.375 204.4141,474.375 Q203.5352,474.375 202.793,474.7266 Q202.0703,475.0781 201.5039,475.8594 Q200.9375,476.6406 200.9375,477.7148 L200.9375,478.8672 Q200.9375,480.1563 201.9922,481.0156 Q203.0469,481.875 204.9219,481.875 Q206.0352,481.875 206.8164,481.6211 Q207.2656,481.4844 207.7734,481.0352 Q208.1055,480.7813 208.2813,480.7031 Q208.457,480.625 208.6719,480.625 Q209.082,480.625 209.375,480.957 Q209.6875,481.2695 209.6875,481.7188 Q209.6875,482.1484 209.2578,482.6563 Q208.6328,483.3984 207.6367,483.8086 Q206.3281,484.375 204.7266,484.375 Q202.8516,484.375 201.3477,483.6328 Q200.1367,483.0469 199.2773,481.7773 Q198.4375,480.5078 198.4375,479.0039 L198.4375,477.6367 Q198.4375,476.0742 199.1797,474.707 Q199.9414,473.3398 201.25,472.6172 Q202.5781,471.875 204.0625,471.875 Q204.9609,471.875 205.7422,472.1875 Q206.5234,472.5 207.1875,473.125 Z " fill="#000000"/><text fill="#000000" font-family="sans-serif" font-size="15" lengthAdjust="spacing" textLength="217.5" x="230.3125" y="483.6377">CreateNewParameterController</text><line style="stroke:#A80036;stroke-width:1.875;" x1="146.25" x2="491.25" y1="497.5" y2="497.5"/><line style="stroke:#A80036;stroke-width:1.875;" x1="146.25" x2="491.25" y1="507.5" y2="507.5"/><ellipse cx="158.75" cy="521.25" fill="#84BE84" rx="3.75" ry="3.75" style="stroke:#038048;stroke-width:1.25;"/><text fill="#000000" font-family="sans-serif" font-size="13.75" lengthAdjust="spacing" textLength="315" x="170" y="526.7737">createNewParameter(shortName, code, description)</text><ellipse cx="158.75" cy="538.5449" fill="#84BE84" rx="3.75" ry="3.75" style="stroke:#038048;stroke-width:1.25;"/><text fill="#000000" font-family="sans-serif" font-size="13.75" lengthAdjust="spacing" textLength="105" x="170" y="544.0686">getCategoryList()</text><ellipse cx="158.75" cy="555.8398" fill="#84BE84" rx="3.75" ry="3.75" style="stroke:#038048;stroke-width:1.25;"/><text fill="#000000" font-family="sans-serif" font-size="13.75" lengthAdjust="spacing" textLength="101.25" x="170" y="561.3635">saveParameter()</text><!--MD5=[02e4b9b7573f1156f41e60aa5b4e25a4]
class Company--><rect codeLine="32" fill="#FEFECE" filter="url(#fry19xagd6tp4)" height="94.5898" id="Company" style="stroke:#A80036;stroke-width:1.875;" width="141.25" x="484.375" y="1037.5"/><ellipse cx="518.875" cy="1057.5" fill="#ADD1B2" rx="13.75" ry="13.75" style="stroke:#A80036;stroke-width:1.25;"/><path d="M521.375,1053.125 Q521.6289,1052.5 521.9219,1052.1875 Q522.2148,1051.875 522.5469,1051.875 Q523.1328,1051.875 523.5039,1052.2266 Q523.875,1052.5781 523.875,1053.3984 L523.875,1055.3516 Q523.875,1056.1719 523.5234,1056.5234 Q523.1719,1056.875 522.625,1056.875 Q522.1367,1056.875 521.8242,1056.6602 Q521.5117,1056.4453 521.375,1055.8789 Q521.3164,1055.4883 521.1016,1055.2734 Q520.7109,1054.8633 520.0078,1054.6289 Q519.3047,1054.375 518.6016,1054.375 Q517.7227,1054.375 516.9805,1054.7266 Q516.2578,1055.0781 515.6914,1055.8594 Q515.125,1056.6406 515.125,1057.7148 L515.125,1058.8672 Q515.125,1060.1563 516.1797,1061.0156 Q517.2344,1061.875 519.1094,1061.875 Q520.2227,1061.875 521.0039,1061.6211 Q521.4531,1061.4844 521.9609,1061.0352 Q522.293,1060.7813 522.4688,1060.7031 Q522.6445,1060.625 522.8594,1060.625 Q523.2695,1060.625 523.5625,1060.957 Q523.875,1061.2695 523.875,1061.7188 Q523.875,1062.1484 523.4453,1062.6563 Q522.8203,1063.3984 521.8242,1063.8086 Q520.5156,1064.375 518.9141,1064.375 Q517.0391,1064.375 515.5352,1063.6328 Q514.3242,1063.0469 513.4648,1061.7773 Q512.625,1060.5078 512.625,1059.0039 L512.625,1057.6367 Q512.625,1056.0742 513.3672,1054.707 Q514.1289,1053.3398 515.4375,1052.6172 Q516.7656,1051.875 518.25,1051.875 Q519.1484,1051.875 519.9297,1052.1875 Q520.7109,1052.5 521.375,1053.125 Z " fill="#000000"/><text fill="#000000" font-family="sans-serif" font-size="15" lengthAdjust="spacing" textLength="66.25" x="539.875" y="1063.6377">Company</text><line style="stroke:#A80036;stroke-width:1.875;" x1="485.625" x2="624.375" y1="1077.5" y2="1077.5"/><text fill="#000000" font-family="sans-serif" font-size="13.75" lengthAdjust="spacing" textLength="126.25" x="491.875" y="1096.7737">ArrayList&lt;Category&gt;</text><line style="stroke:#A80036;stroke-width:1.875;" x1="485.625" x2="624.375" y1="1104.7949" y2="1104.7949"/><ellipse cx="498.125" cy="1118.5449" fill="#84BE84" rx="3.75" ry="3.75" style="stroke:#038048;stroke-width:1.25;"/><text fill="#000000" font-family="sans-serif" font-size="13.75" lengthAdjust="spacing" textLength="105" x="509.375" y="1124.0686">getCategoryList()</text><!--MD5=[a96594a83e2ecdc78cbf17c2ddf01934]
class Category--><rect codeLine="38" fill="#FEFECE" filter="url(#fry19xagd6tp4)" height="181.0645" id="Category" style="stroke:#A80036;stroke-width:1.875;" width="251.25" x="193.125" y="646.25"/><ellipse cx="282.8125" cy="666.25" fill="#ADD1B2" rx="13.75" ry="13.75" style="stroke:#A80036;stroke-width:1.25;"/><path d="M285.3125,661.875 Q285.5664,661.25 285.8594,660.9375 Q286.1523,660.625 286.4844,660.625 Q287.0703,660.625 287.4414,660.9766 Q287.8125,661.3281 287.8125,662.1484 L287.8125,664.1016 Q287.8125,664.9219 287.4609,665.2734 Q287.1094,665.625 286.5625,665.625 Q286.0742,665.625 285.7617,665.4102 Q285.4492,665.1953 285.3125,664.6289 Q285.2539,664.2383 285.0391,664.0234 Q284.6484,663.6133 283.9453,663.3789 Q283.2422,663.125 282.5391,663.125 Q281.6602,663.125 280.918,663.4766 Q280.1953,663.8281 279.6289,664.6094 Q279.0625,665.3906 279.0625,666.4648 L279.0625,667.6172 Q279.0625,668.9063 280.1172,669.7656 Q281.1719,670.625 283.0469,670.625 Q284.1602,670.625 284.9414,670.3711 Q285.3906,670.2344 285.8984,669.7852 Q286.2305,669.5313 286.4063,669.4531 Q286.582,669.375 286.7969,669.375 Q287.207,669.375 287.5,669.707 Q287.8125,670.0195 287.8125,670.4688 Q287.8125,670.8984 287.3828,671.4063 Q286.7578,672.1484 285.7617,672.5586 Q284.4531,673.125 282.8516,673.125 Q280.9766,673.125 279.4727,672.3828 Q278.2617,671.7969 277.4023,670.5273 Q276.5625,669.2578 276.5625,667.7539 L276.5625,666.3867 Q276.5625,664.8242 277.3047,663.457 Q278.0664,662.0898 279.375,661.3672 Q280.7031,660.625 282.1875,660.625 Q283.0859,660.625 283.8672,660.9375 Q284.6484,661.25 285.3125,661.875 Z " fill="#000000"/><text fill="#000000" font-family="sans-serif" font-size="15" lengthAdjust="spacing" textLength="61.25" x="308.4375" y="672.3877">Category</text><line style="stroke:#A80036;stroke-width:1.875;" x1="194.375" x2="443.125" y1="686.25" y2="686.25"/><rect fill="none" height="7.5" style="stroke:#C82930;stroke-width:1.25;" width="7.5" x="203.125" y="696.25"/><text fill="#000000" font-family="sans-serif" font-size="13.75" lengthAdjust="spacing" textLength="68.75" x="218.125" y="705.5237">String code</text><rect fill="none" height="7.5" style="stroke:#C82930;stroke-width:1.25;" width="7.5" x="203.125" y="713.5449"/><text fill="#000000" font-family="sans-serif" font-size="13.75" lengthAdjust="spacing" textLength="105" x="218.125" y="722.8186">String description</text><rect fill="none" height="7.5" style="stroke:#C82930;stroke-width:1.25;" width="7.5" x="203.125" y="730.8398"/><text fill="#000000" font-family="sans-serif" font-size="13.75" lengthAdjust="spacing" textLength="51.25" x="218.125" y="740.1135">int nhsID</text><rect fill="none" height="7.5" style="stroke:#C82930;stroke-width:1.25;" width="7.5" x="203.125" y="748.1348"/><text fill="#000000" font-family="sans-serif" font-size="13.75" lengthAdjust="spacing" textLength="218.75" x="218.125" y="757.4084">ArrayList&lt;Parameter&gt; parameterList</text><line style="stroke:#A80036;stroke-width:1.875;" x1="194.375" x2="443.125" y1="765.4297" y2="765.4297"/><ellipse cx="206.875" cy="779.1797" fill="#84BE84" rx="3.75" ry="3.75" style="stroke:#038048;stroke-width:1.25;"/><text fill="#000000" font-family="sans-serif" font-size="13.75" lengthAdjust="spacing" textLength="137.5" x="218.125" y="784.7034">validateParameter(par)</text><ellipse cx="206.875" cy="796.4746" fill="#84BE84" rx="3.75" ry="3.75" style="stroke:#038048;stroke-width:1.25;"/><text fill="#000000" font-family="sans-serif" font-size="13.75" lengthAdjust="spacing" textLength="121.25" x="218.125" y="801.9983">saveParameter(par)</text><ellipse cx="206.875" cy="813.7695" fill="#84BE84" rx="3.75" ry="3.75" style="stroke:#038048;stroke-width:1.25;"/><text fill="#000000" font-family="sans-serif" font-size="13.75" lengthAdjust="spacing" textLength="113.75" x="218.125" y="819.2932">addParameter(par)</text><!--MD5=[1a81c3437cc8c02d041887d569537c91]
link Administrator to CreateNewParameterUI--><path codeLine="49" d="M318.75,68.925 C318.75,107.225 318.75,174.6875 318.75,215.95 " fill="none" id="Administrator-to-CreateNewParameterUI" style="stroke:#A80036;stroke-width:1.25;stroke-dasharray:7.0,7.0;"/><polygon fill="#A80036" points="318.75,222.325,323.75,211.075,318.75,216.075,313.75,211.075,318.75,222.325" style="stroke:#A80036;stroke-width:1.25;"/><!--MD5=[a36402049bc782b9e8fb71bf14cfcd21]
link CreateNewParameterUI to CreateNewParameterController--><path codeLine="50" d="M318.75,282.925 C318.75,323.4375 318.75,397.7375 318.75,450.8375 " fill="none" id="CreateNewParameterUI-to-CreateNewParameterController" style="stroke:#A80036;stroke-width:1.25;stroke-dasharray:7.0,7.0;"/><polygon fill="#A80036" points="318.75,457.2,323.75,445.95,318.75,450.95,313.75,445.95,318.75,457.2" style="stroke:#A80036;stroke-width:1.25;"/><!--MD5=[49e0205be7eae14eed714704ab842197]
link CreateNewParameterController to Parameter--><path codeLine="51" d="M235.875,570.075 C210.9875,590.9125 186.325,616.8 171.25,646.25 C128.7875,729.225 116.5875,832.5375 115.4375,917.9375 " fill="none" id="CreateNewParameterController-to-Parameter" style="stroke:#A80036;stroke-width:1.25;stroke-dasharray:7.0,7.0;"/><polygon fill="#A80036" points="115.375,924.575,120.5032,913.3829,115.4464,918.3254,110.5039,913.2686,115.375,924.575" style="stroke:#A80036;stroke-width:1.25;"/><!--MD5=[91b3154af15e5a3c0a263ad5514e5cf0]
link CreateNewParameterController to Company--><path codeLine="52" d="M399.2,570.325 C424.225,591.3375 449.5875,617.275 466.25,646.25 C537.8875,770.825 552.3125,944.45 554.8125,1030.725 " fill="none" id="CreateNewParameterController-to-Company" style="stroke:#A80036;stroke-width:1.25;stroke-dasharray:7.0,7.0;"/><polygon fill="#A80036" points="554.9875,1037.2875,559.6967,1025.9127,554.8268,1031.0396,549.7,1026.1697,554.9875,1037.2875" style="stroke:#A80036;stroke-width:1.25;"/><!--MD5=[9e2b536d5f14dafa66c4d5113ebdcad2]
link Category to Parameter--><path codeLine="53" d="M268.925,827.5875 C252.325,857.3875 233.3125,891.5375 214.675,924.975 " fill="none" id="Category-Parameter" style="stroke:#A80036;stroke-width:1.25;"/><polygon fill="#000000" points="254.2915,871.0097,245.5801,879.0992,251.9987,882.6747,254.2915,871.0097" style="stroke:#000000;stroke-width:1.25;"/><text fill="#000000" font-family="sans-serif" font-size="16.25" lengthAdjust="spacing" textLength="116.25" x="262.5" y="883.1189">presented under</text><text fill="#000000" font-family="sans-serif" font-size="16.25" lengthAdjust="spacing" textLength="6.25" x="257.6282" y="854.0853">*</text><text fill="#000000" font-family="sans-serif" font-size="16.25" lengthAdjust="spacing" textLength="8.75" x="211.0468" y="911.5139">1</text><!--MD5=[4816e9029af7918ac30a965ff8ded5aa]
link Administrator to Parameter--><path codeLine="54" d="M252.8125,51.05 C169.675,66.8875 37.5,99.2625 37.5,145 C37.5,145 37.5,145 37.5,738.125 C37.5,800.225 51.1125,866.7 67.675,924.5875 " fill="none" id="Administrator-Parameter" style="stroke:#A80036;stroke-width:1.25;"/><polygon fill="#000000" points="45.0458,364.1055,39.1078,374.4045,46.2955,375.9279,45.0458,364.1055" style="stroke:#000000;stroke-width:1.25;"/><text fill="#000000" font-family="sans-serif" font-size="16.25" lengthAdjust="spacing" textLength="86.25" x="55" y="376.8689">specified by</text><text fill="#000000" font-family="sans-serif" font-size="16.25" lengthAdjust="spacing" textLength="8.75" x="234.1748" y="48.2732">1</text><text fill="#000000" font-family="sans-serif" font-size="16.25" lengthAdjust="spacing" textLength="6.25" x="57.858" y="911.6338">*</text><!--MD5=[eaea43e34e45c5b9d20b595fc78f1f20]
link Company to Administrator--><path codeLine="55" d="M564.9875,1037.0375 C578.25,970.85 600,845.8375 600,738.125 C600,145 600,145 600,145 C600,99.2625 467.825,66.8875 384.6875,51.05 " fill="none" id="Company-Administrator" style="stroke:#A80036;stroke-width:1.25;"/><polygon fill="#000000" points="605.1258,364.0717,603.5458,375.8544,610.7733,374.5328,605.1258,364.0717" style="stroke:#000000;stroke-width:1.25;"/><text fill="#000000" font-family="sans-serif" font-size="16.25" lengthAdjust="spacing" textLength="61.25" x="617.5" y="376.8689">employs</text><text fill="#000000" font-family="sans-serif" font-size="16.25" lengthAdjust="spacing" textLength="8.75" x="551.7725" y="1024.0171">1</text><text fill="#000000" font-family="sans-serif" font-size="16.25" lengthAdjust="spacing" textLength="25" x="394.2471" y="48.226">1..*</text><!--MD5=[0d0501bd141e49c6ba54cb80f6e673e7]
@startuml

class Administrator
class Parameter {
-int code
-String shortName
-String description
-double upperReferenceValue
-double lowerReferenceValue

+setShortName(shortName)
+setCode(code)
+setDescription(description)
+setUpper(upperReferenceValue)
+setLower(lowerReferenceValue)
+getShortName()
+getCode()
+getDescription()
+setUpper(upperReferenceValue)
+setLower(lowerReferenceValue)

}

class CreateNewParameterUI{
}

class CreateNewParameterController{
+createNewParameter(shortName, code, description)
+getCategoryList()
+saveParameter()
}

class Company{
ArrayList<Category>

+getCategoryList()
}

class Category {
-String code
-String description
-int nhsID
-ArrayList<Parameter> parameterList

+validateParameter(par)
+saveParameter(par)
+addParameter(par)
}

Administrator ...> CreateNewParameterUI
CreateNewParameterUI ...> CreateNewParameterController
CreateNewParameterController ...> Parameter
CreateNewParameterController ...> Company
Category "*"- -"1" Parameter : presented under <
Parameter "*"-up-"1" Administrator : specified by >
Company"1 "-"1..*" Administrator : > employs

@enduml

PlantUML version 1.2021.5(Sun Apr 25 12:20:28 BST 2021)
(GPL source distribution)
Java Runtime: OpenJDK Runtime Environment
JVM: OpenJDK 64-Bit Server VM
Default Encoding: Cp1252
Language: pt
Country: PT
--></g></svg>