<?xml version="1.0" encoding="UTF-8" standalone="no"?><svg xmlns="http://www.w3.org/2000/svg" xmlns:xlink="http://www.w3.org/1999/xlink" contentScriptType="application/ecmascript" contentStyleType="text/css" height="382.5px" preserveAspectRatio="none" style="width:341px;height:382px;" version="1.1" viewBox="0 0 341 382" width="341.25px" zoomAndPan="magnify"><defs><filter height="300%" id="fct74dtwmbe1s" width="300%" x="-1" y="-1"><feGaussianBlur result="blurOut" stdDeviation="2.5"/><feColorMatrix in="blurOut" result="blurOut2" type="matrix" values="0 0 0 0 0 0 0 0 0 0 0 0 0 0 0 0 0 0 .4 0"/><feOffset dx="5.0" dy="5.0" in="blurOut2" result="blurOut3"/><feBlend in="SourceGraphic" in2="blurOut3" mode="normal"/></filter></defs><g><!--MD5=[da547346deef918ea16944ba046651ef]
class Administrator--><rect codeLine="4" fill="#FEFECE" filter="url(#fct74dtwmbe1s)" height="60" id="Administrator" style="stroke:#A80036;stroke-width:1.875;" width="131.25" x="8.75" y="35"/><ellipse cx="27.5" cy="55" fill="#ADD1B2" rx="13.75" ry="13.75" style="stroke:#A80036;stroke-width:1.25;"/><path d="M30,50.625 Q30.2539,50 30.5469,49.6875 Q30.8398,49.375 31.1719,49.375 Q31.7578,49.375 32.1289,49.7266 Q32.5,50.0781 32.5,50.8984 L32.5,52.8516 Q32.5,53.6719 32.1484,54.0234 Q31.7969,54.375 31.25,54.375 Q30.7617,54.375 30.4492,54.1602 Q30.1367,53.9453 30,53.3789 Q29.9414,52.9883 29.7266,52.7734 Q29.3359,52.3633 28.6328,52.1289 Q27.9297,51.875 27.2266,51.875 Q26.3477,51.875 25.6055,52.2266 Q24.8828,52.5781 24.3164,53.3594 Q23.75,54.1406 23.75,55.2148 L23.75,56.3672 Q23.75,57.6563 24.8047,58.5156 Q25.8594,59.375 27.7344,59.375 Q28.8477,59.375 29.6289,59.1211 Q30.0781,58.9844 30.5859,58.5352 Q30.918,58.2813 31.0938,58.2031 Q31.2695,58.125 31.4844,58.125 Q31.8945,58.125 32.1875,58.457 Q32.5,58.7695 32.5,59.2188 Q32.5,59.6484 32.0703,60.1563 Q31.4453,60.8984 30.4492,61.3086 Q29.1406,61.875 27.5391,61.875 Q25.6641,61.875 24.1602,61.1328 Q22.9492,60.5469 22.0898,59.2773 Q21.25,58.0078 21.25,56.5039 L21.25,55.1367 Q21.25,53.5742 21.9922,52.207 Q22.7539,50.8398 24.0625,50.1172 Q25.3906,49.375 26.875,49.375 Q27.7734,49.375 28.5547,49.6875 Q29.3359,50 30,50.625 Z " fill="#000000"/><text fill="#000000" font-family="sans-serif" font-size="15" lengthAdjust="spacing" textLength="91.25" x="45" y="61.1377">Administrator</text><line style="stroke:#A80036;stroke-width:1.875;" x1="10" x2="138.75" y1="75" y2="75"/><line style="stroke:#A80036;stroke-width:1.875;" x1="10" x2="138.75" y1="85" y2="85"/><!--MD5=[1f6362a5c8f21d8d6a0fce68f3a92a4e]
class Parameter--><rect codeLine="5" fill="#FEFECE" filter="url(#fct74dtwmbe1s)" height="146.4746" id="Parameter" style="stroke:#A80036;stroke-width:1.875;" width="153.75" x="77.5" y="218.75"/><ellipse cx="114.8125" cy="238.75" fill="#ADD1B2" rx="13.75" ry="13.75" style="stroke:#A80036;stroke-width:1.25;"/><path d="M117.3125,234.375 Q117.5664,233.75 117.8594,233.4375 Q118.1523,233.125 118.4844,233.125 Q119.0703,233.125 119.4414,233.4766 Q119.8125,233.8281 119.8125,234.6484 L119.8125,236.6016 Q119.8125,237.4219 119.4609,237.7734 Q119.1094,238.125 118.5625,238.125 Q118.0742,238.125 117.7617,237.9102 Q117.4492,237.6953 117.3125,237.1289 Q117.2539,236.7383 117.0391,236.5234 Q116.6484,236.1133 115.9453,235.8789 Q115.2422,235.625 114.5391,235.625 Q113.6602,235.625 112.918,235.9766 Q112.1953,236.3281 111.6289,237.1094 Q111.0625,237.8906 111.0625,238.9648 L111.0625,240.1172 Q111.0625,241.4063 112.1172,242.2656 Q113.1719,243.125 115.0469,243.125 Q116.1602,243.125 116.9414,242.8711 Q117.3906,242.7344 117.8984,242.2852 Q118.2305,242.0313 118.4063,241.9531 Q118.582,241.875 118.7969,241.875 Q119.207,241.875 119.5,242.207 Q119.8125,242.5195 119.8125,242.9688 Q119.8125,243.3984 119.3828,243.9063 Q118.7578,244.6484 117.7617,245.0586 Q116.4531,245.625 114.8516,245.625 Q112.9766,245.625 111.4727,244.8828 Q110.2617,244.2969 109.4023,243.0273 Q108.5625,241.7578 108.5625,240.2539 L108.5625,238.8867 Q108.5625,237.3242 109.3047,235.957 Q110.0664,234.5898 111.375,233.8672 Q112.7031,233.125 114.1875,233.125 Q115.0859,233.125 115.8672,233.4375 Q116.6484,233.75 117.3125,234.375 Z " fill="#000000"/><text fill="#000000" font-family="sans-serif" font-size="15" lengthAdjust="spacing" textLength="72.5" x="136.4375" y="244.8877">Parameter</text><line style="stroke:#A80036;stroke-width:1.875;" x1="78.75" x2="230" y1="258.75" y2="258.75"/><text fill="#000000" font-family="sans-serif" font-size="13.75" lengthAdjust="spacing" textLength="35" x="85" y="278.0237">-code</text><text fill="#000000" font-family="sans-serif" font-size="13.75" lengthAdjust="spacing" textLength="70" x="85" y="295.3186">-shortName</text><text fill="#000000" font-family="sans-serif" font-size="13.75" lengthAdjust="spacing" textLength="71.25" x="85" y="312.6135">-description</text><text fill="#000000" font-family="sans-serif" font-size="13.75" lengthAdjust="spacing" textLength="138.75" x="85" y="329.9084">-upperReferenceValue</text><text fill="#000000" font-family="sans-serif" font-size="13.75" lengthAdjust="spacing" textLength="138.75" x="85" y="347.2034">-lowerReferenceValue</text><line style="stroke:#A80036;stroke-width:1.875;" x1="78.75" x2="230" y1="355.2246" y2="355.2246"/><!--MD5=[a96594a83e2ecdc78cbf17c2ddf01934]
class Category--><rect codeLine="13" fill="#FEFECE" filter="url(#fct74dtwmbe1s)" height="111.8848" id="Category" style="stroke:#A80036;stroke-width:1.875;" width="101.25" x="183.75" y="8.75"/><ellipse cx="202.5" cy="28.75" fill="#ADD1B2" rx="13.75" ry="13.75" style="stroke:#A80036;stroke-width:1.25;"/><path d="M205,24.375 Q205.2539,23.75 205.5469,23.4375 Q205.8398,23.125 206.1719,23.125 Q206.7578,23.125 207.1289,23.4766 Q207.5,23.8281 207.5,24.6484 L207.5,26.6016 Q207.5,27.4219 207.1484,27.7734 Q206.7969,28.125 206.25,28.125 Q205.7617,28.125 205.4492,27.9102 Q205.1367,27.6953 205,27.1289 Q204.9414,26.7383 204.7266,26.5234 Q204.3359,26.1133 203.6328,25.8789 Q202.9297,25.625 202.2266,25.625 Q201.3477,25.625 200.6055,25.9766 Q199.8828,26.3281 199.3164,27.1094 Q198.75,27.8906 198.75,28.9648 L198.75,30.1172 Q198.75,31.4063 199.8047,32.2656 Q200.8594,33.125 202.7344,33.125 Q203.8477,33.125 204.6289,32.8711 Q205.0781,32.7344 205.5859,32.2852 Q205.918,32.0313 206.0938,31.9531 Q206.2695,31.875 206.4844,31.875 Q206.8945,31.875 207.1875,32.207 Q207.5,32.5195 207.5,32.9688 Q207.5,33.3984 207.0703,33.9063 Q206.4453,34.6484 205.4492,35.0586 Q204.1406,35.625 202.5391,35.625 Q200.6641,35.625 199.1602,34.8828 Q197.9492,34.2969 197.0898,33.0273 Q196.25,31.7578 196.25,30.2539 L196.25,28.8867 Q196.25,27.3242 196.9922,25.957 Q197.7539,24.5898 199.0625,23.8672 Q200.3906,23.125 201.875,23.125 Q202.7734,23.125 203.5547,23.4375 Q204.3359,23.75 205,24.375 Z " fill="#000000"/><text fill="#000000" font-family="sans-serif" font-size="15" lengthAdjust="spacing" textLength="61.25" x="220" y="34.8877">Category</text><line style="stroke:#A80036;stroke-width:1.875;" x1="185" x2="283.75" y1="48.75" y2="48.75"/><text fill="#000000" font-family="sans-serif" font-size="13.75" lengthAdjust="spacing" textLength="35" x="191.25" y="68.0237">-code</text><text fill="#000000" font-family="sans-serif" font-size="13.75" lengthAdjust="spacing" textLength="71.25" x="191.25" y="85.3186">-description</text><text fill="#000000" font-family="sans-serif" font-size="13.75" lengthAdjust="spacing" textLength="38.75" x="191.25" y="102.6135">-nhsID</text><line style="stroke:#A80036;stroke-width:1.875;" x1="185" x2="283.75" y1="110.6348" y2="110.6348"/><!--MD5=[9e2b536d5f14dafa66c4d5113ebdcad2]
link Category to Parameter--><path codeLine="19" d="M214.6,121.7125 C204.1875,150.9125 191.3,187.0625 180.1125,218.425 " fill="none" id="Category-Parameter" style="stroke:#A80036;stroke-width:1.25;"/><polygon fill="#000000" points="206.4743,164.3328,199.2164,173.7484,206.1369,176.2162,206.4743,164.3328" style="stroke:#000000;stroke-width:1.25;"/><text fill="#000000" font-family="sans-serif" font-size="16.25" lengthAdjust="spacing" textLength="116.25" x="215.625" y="176.8689">presented under</text><text fill="#000000" font-family="sans-serif" font-size="16.25" lengthAdjust="spacing" textLength="6.25" x="205.2728" y="147.6168">*</text><text fill="#000000" font-family="sans-serif" font-size="16.25" lengthAdjust="spacing" textLength="8.75" x="173.9661" y="205.1365">1</text><!--MD5=[4816e9029af7918ac30a965ff8ded5aa]
link Administrator to Parameter--><path codeLine="20" d="M71.2875,95.4 C69.8,119.1375 70.0125,153.2 79.375,181.25 C83.6,193.9125 89.7625,206.4625 96.775,218.275 " fill="none" id="Administrator-Parameter" style="stroke:#A80036;stroke-width:1.25;"/><polygon fill="#000000" points="84.3556,164.1,83.0549,175.9168,90.2491,174.4246,84.3556,164.1" style="stroke:#000000;stroke-width:1.25;"/><text fill="#000000" font-family="sans-serif" font-size="16.25" lengthAdjust="spacing" textLength="86.25" x="96.875" y="176.8689">specified by</text><text fill="#000000" font-family="sans-serif" font-size="16.25" lengthAdjust="spacing" textLength="8.75" x="60.8118" y="121.6622">1</text><text fill="#000000" font-family="sans-serif" font-size="16.25" lengthAdjust="spacing" textLength="6.25" x="83.1241" y="204.9682">*</text><!--MD5=[2cf69643c2592622ac959f45158656da]
@startuml

skinparam classAttributeIconSize 0

class Administrator
class Parameter {
-code
-shortName
-description
-upperReferenceValue
-lowerReferenceValue
}

class Category {
-code
-description
-nhsID
}

Category "*"- -"1" Parameter : presented under <
Parameter "*"-up-"1" Administrator : specified by >

@enduml

PlantUML version 1.2021.4(Sun Apr 04 09:49:39 BST 2021)
(GPL source distribution)
Java Runtime: OpenJDK Runtime Environment
JVM: OpenJDK 64-Bit Server VM
Default Encoding: Cp1252
Language: pt
Country: PT
--></g></svg>