<?xml version="1.0" encoding="UTF-8" standalone="no"?><svg xmlns="http://www.w3.org/2000/svg" xmlns:xlink="http://www.w3.org/1999/xlink" contentScriptType="application/ecmascript" contentStyleType="text/css" height="576px" preserveAspectRatio="none" style="width:907px;height:576px;" version="1.1" viewBox="0 0 907 576" width="907.5px" zoomAndPan="magnify"><defs><filter height="300%" id="f1ad6ft1ifac13" width="300%" x="-1" y="-1"><feGaussianBlur result="blurOut" stdDeviation="1.0"/><feColorMatrix in="blurOut" result="blurOut2" type="matrix" values="0 0 0 0 0 0 0 0 0 0 0 0 0 0 0 0 0 0 .4 0"/><feOffset dx="2.0" dy="2.0" in="blurOut2" result="blurOut3"/><feBlend in="SourceGraphic" in2="blurOut3" mode="normal"/></filter></defs><g><line style="stroke:#A80036;stroke-width:0.5;stroke-dasharray:5.0,5.0;" x1="24.5" x2="24.5" y1="44.8047" y2="533.3828"/><line style="stroke:#A80036;stroke-width:0.5;stroke-dasharray:5.0,5.0;" x1="306.25" x2="306.25" y1="44.8047" y2="533.3828"/><line style="stroke:#A80036;stroke-width:0.5;stroke-dasharray:5.0,5.0;" x1="585.25" x2="585.25" y1="81.6328" y2="533.3828"/><line style="stroke:#A80036;stroke-width:0.5;stroke-dasharray:5.0,5.0;" x1="779.25" x2="779.25" y1="44.8047" y2="533.3828"/><line style="stroke:#A80036;stroke-width:0.5;stroke-dasharray:5.0,5.0;" x1="831.75" x2="831.75" y1="44.8047" y2="533.3828"/><line style="stroke:#A80036;stroke-width:0.5;stroke-dasharray:5.0,5.0;" x1="879.75" x2="879.75" y1="44.8047" y2="533.3828"/><text fill="#000000" font-family="sans-serif" font-size="7" lengthAdjust="spacing" textLength="41.5" x="2.5" y="43.2666">Administrator</text><ellipse cx="24.75" cy="7.5" fill="#FEFECE" filter="url(#f1ad6ft1ifac13)" rx="4" ry="4" style="stroke:#A80036;stroke-width:1.0;"/><path d="M24.75,11.5 L24.75,25 M18.25,15.5 L31.25,15.5 M24.75,25 L18.25,32.5 M24.75,25 L31.25,32.5 " fill="none" filter="url(#f1ad6ft1ifac13)" style="stroke:#A80036;stroke-width:1.0;"/><text fill="#000000" font-family="sans-serif" font-size="7" lengthAdjust="spacing" textLength="41.5" x="2.5" y="540.1494">Administrator</text><ellipse cx="24.75" cy="546.6875" fill="#FEFECE" filter="url(#f1ad6ft1ifac13)" rx="4" ry="4" style="stroke:#A80036;stroke-width:1.0;"/><path d="M24.75,550.6875 L24.75,564.1875 M18.25,554.6875 L31.25,554.6875 M24.75,564.1875 L18.25,571.6875 M24.75,564.1875 L31.25,571.6875 " fill="none" filter="url(#f1ad6ft1ifac13)" style="stroke:#A80036;stroke-width:1.0;"/><rect fill="#FEFECE" filter="url(#f1ad6ft1ifac13)" height="15.8047" style="stroke:#A80036;stroke-width:0.75;" width="81" x="264.75" y="26.5"/><text fill="#000000" font-family="sans-serif" font-size="7" lengthAdjust="spacing" textLength="74" x="268.25" y="37.2666">:createNewParameterUI</text><rect fill="#FEFECE" filter="url(#f1ad6ft1ifac13)" height="15.8047" style="stroke:#A80036;stroke-width:0.75;" width="81" x="264.75" y="532.8828"/><text fill="#000000" font-family="sans-serif" font-size="7" lengthAdjust="spacing" textLength="74" x="268.25" y="543.6494">:createNewParameterUI</text><rect fill="#FEFECE" filter="url(#f1ad6ft1ifac13)" height="15.8047" style="stroke:#A80036;stroke-width:0.75;" width="106" x="531.25" y="532.8828"/><text fill="#000000" font-family="sans-serif" font-size="7" lengthAdjust="spacing" textLength="99" x="534.75" y="543.6494">:createNewParameterController</text><rect fill="#FEFECE" filter="url(#f1ad6ft1ifac13)" height="15.8047" style="stroke:#A80036;stroke-width:0.75;" width="53" x="751.75" y="26.5"/><text fill="#000000" font-family="sans-serif" font-size="7" lengthAdjust="spacing" textLength="46" x="755.25" y="37.2666">:ParameterList</text><rect fill="#FEFECE" filter="url(#f1ad6ft1ifac13)" height="15.8047" style="stroke:#A80036;stroke-width:0.75;" width="53" x="751.75" y="532.8828"/><text fill="#000000" font-family="sans-serif" font-size="7" lengthAdjust="spacing" textLength="46" x="755.25" y="543.6494">:ParameterList</text><rect fill="#FEFECE" filter="url(#f1ad6ft1ifac13)" height="15.8047" style="stroke:#A80036;stroke-width:0.75;" width="38" x="811.75" y="26.5"/><text fill="#000000" font-family="sans-serif" font-size="7" lengthAdjust="spacing" textLength="31" x="815.25" y="37.2666">:Category</text><rect fill="#FEFECE" filter="url(#f1ad6ft1ifac13)" height="15.8047" style="stroke:#A80036;stroke-width:0.75;" width="38" x="811.75" y="532.8828"/><text fill="#000000" font-family="sans-serif" font-size="7" lengthAdjust="spacing" textLength="31" x="815.25" y="543.6494">:Category</text><rect fill="#FEFECE" filter="url(#f1ad6ft1ifac13)" height="15.8047" style="stroke:#A80036;stroke-width:0.75;" width="44" x="856.75" y="26.5"/><text fill="#000000" font-family="sans-serif" font-size="7" lengthAdjust="spacing" textLength="37" x="860.25" y="37.2666">:CatMapper</text><rect fill="#FEFECE" filter="url(#f1ad6ft1ifac13)" height="15.8047" style="stroke:#A80036;stroke-width:0.75;" width="44" x="856.75" y="532.8828"/><text fill="#000000" font-family="sans-serif" font-size="7" lengthAdjust="spacing" textLength="37" x="860.25" y="543.6494">:CatMapper</text><polygon fill="#A80036" points="300.25,58.9805,305.25,60.9805,300.25,62.9805,302.25,60.9805" style="stroke:#A80036;stroke-width:0.5;"/><line style="stroke:#A80036;stroke-width:0.5;" x1="24.75" x2="303.25" y1="60.9805" y2="60.9805"/><text fill="#000000" font-family="sans-serif" font-size="6.5" font-weight="bold" lengthAdjust="spacing" textLength="3.5" x="28.25" y="58.5522">1</text><text fill="#000000" font-family="sans-serif" font-size="6.5" lengthAdjust="spacing" textLength="61" x="33.75" y="58.5522">starts new parameter</text><polygon fill="#A80036" points="525.25,74.1563,530.25,76.1563,525.25,78.1563,527.25,76.1563" style="stroke:#A80036;stroke-width:0.5;"/><line style="stroke:#A80036;stroke-width:0.5;" x1="306.25" x2="528.25" y1="76.1563" y2="76.1563"/><text fill="#000000" font-family="sans-serif" font-size="6.5" font-weight="bold" lengthAdjust="spacing" textLength="3.5" x="309.75" y="73.728">2</text><text fill="#000000" font-family="sans-serif" font-size="6.5" lengthAdjust="spacing" textLength="18" x="315.25" y="73.728">create</text><rect fill="#FEFECE" filter="url(#f1ad6ft1ifac13)" height="15.8047" style="stroke:#A80036;stroke-width:0.75;" width="106" x="531.25" y="64.9805"/><text fill="#000000" font-family="sans-serif" font-size="7" lengthAdjust="spacing" textLength="99" x="534.75" y="75.7471">:createNewParameterController</text><polygon fill="#A80036" points="579.25,97.4609,584.25,99.4609,579.25,101.4609,581.25,99.4609" style="stroke:#A80036;stroke-width:0.5;"/><line style="stroke:#A80036;stroke-width:0.5;" x1="306.25" x2="582.25" y1="99.4609" y2="99.4609"/><text fill="#000000" font-family="sans-serif" font-size="6.5" font-weight="bold" lengthAdjust="spacing" textLength="3.5" x="309.75" y="97.0327">3</text><text fill="#000000" font-family="sans-serif" font-size="6.5" lengthAdjust="spacing" textLength="64.5" x="315.25" y="97.0327">createNewParameter()</text><polygon fill="#A80036" points="773.25,112.6367,778.25,114.6367,773.25,116.6367,775.25,114.6367" style="stroke:#A80036;stroke-width:0.5;"/><line style="stroke:#A80036;stroke-width:0.5;" x1="585.25" x2="776.25" y1="114.6367" y2="114.6367"/><text fill="#000000" font-family="sans-serif" font-size="6.5" font-weight="bold" lengthAdjust="spacing" textLength="3.5" x="588.75" y="112.2085">4</text><text fill="#000000" font-family="sans-serif" font-size="6.5" lengthAdjust="spacing" textLength="101.5" x="594.25" y="112.2085">parameter = createNewParameter()</text><polygon fill="#A80036" points="30.25,127.8125,25.25,129.8125,30.25,131.8125,28.25,129.8125" style="stroke:#A80036;stroke-width:0.5;"/><line style="stroke:#A80036;stroke-width:0.5;stroke-dasharray:2.0,2.0;" x1="27.25" x2="305.75" y1="129.8125" y2="129.8125"/><text fill="#000000" font-family="sans-serif" font-size="6.5" font-weight="bold" lengthAdjust="spacing" textLength="3.5" x="33.25" y="127.3843">5</text><text fill="#000000" font-family="sans-serif" font-size="6.5" lengthAdjust="spacing" textLength="94.5" x="38.75" y="127.3843">requests name of new parameter</text><polygon fill="#A80036" points="300.25,142.9883,305.25,144.9883,300.25,146.9883,302.25,144.9883" style="stroke:#A80036;stroke-width:0.5;"/><line style="stroke:#A80036;stroke-width:0.5;" x1="24.75" x2="303.25" y1="144.9883" y2="144.9883"/><text fill="#000000" font-family="sans-serif" font-size="6.5" font-weight="bold" lengthAdjust="spacing" textLength="3.5" x="28.25" y="142.5601">6</text><text fill="#000000" font-family="sans-serif" font-size="6.5" lengthAdjust="spacing" textLength="146.5" x="33.75" y="142.5601">types the name of the parameter that will be added</text><polygon fill="#A80036" points="30.25,158.1641,25.25,160.1641,30.25,162.1641,28.25,160.1641" style="stroke:#A80036;stroke-width:0.5;"/><line style="stroke:#A80036;stroke-width:0.5;stroke-dasharray:2.0,2.0;" x1="27.25" x2="305.75" y1="160.1641" y2="160.1641"/><text fill="#000000" font-family="sans-serif" font-size="6.5" font-weight="bold" lengthAdjust="spacing" textLength="3.5" x="33.25" y="157.7358">7</text><text fill="#000000" font-family="sans-serif" font-size="6.5" lengthAdjust="spacing" textLength="103.5" x="38.75" y="157.7358">requests code of the new parameter</text><polygon fill="#A80036" points="300.25,173.3398,305.25,175.3398,300.25,177.3398,302.25,175.3398" style="stroke:#A80036;stroke-width:0.5;"/><line style="stroke:#A80036;stroke-width:0.5;" x1="24.75" x2="303.25" y1="175.3398" y2="175.3398"/><text fill="#000000" font-family="sans-serif" font-size="6.5" font-weight="bold" lengthAdjust="spacing" textLength="3.5" x="28.25" y="172.9116">8</text><text fill="#000000" font-family="sans-serif" font-size="6.5" lengthAdjust="spacing" textLength="90.5" x="33.75" y="172.9116">types in code of new parameter</text><polygon fill="#A80036" points="30.25,188.5156,25.25,190.5156,30.25,192.5156,28.25,190.5156" style="stroke:#A80036;stroke-width:0.5;"/><line style="stroke:#A80036;stroke-width:0.5;stroke-dasharray:2.0,2.0;" x1="27.25" x2="305.75" y1="190.5156" y2="190.5156"/><text fill="#000000" font-family="sans-serif" font-size="6.5" font-weight="bold" lengthAdjust="spacing" textLength="3.5" x="33.25" y="188.0874">9</text><text fill="#000000" font-family="sans-serif" font-size="6.5" lengthAdjust="spacing" textLength="124.5" x="38.75" y="188.0874">asks for a description of the new parameter</text><polygon fill="#A80036" points="300.25,203.6914,305.25,205.6914,300.25,207.6914,302.25,205.6914" style="stroke:#A80036;stroke-width:0.5;"/><line style="stroke:#A80036;stroke-width:0.5;" x1="24.75" x2="303.25" y1="205.6914" y2="205.6914"/><text fill="#000000" font-family="sans-serif" font-size="6.5" font-weight="bold" lengthAdjust="spacing" textLength="7" x="28.25" y="203.2632">10</text><text fill="#000000" font-family="sans-serif" font-size="6.5" lengthAdjust="spacing" textLength="126.5" x="37.25" y="203.2632">types in a description for the new parameter</text><polygon fill="#A80036" points="30.25,218.8672,25.25,220.8672,30.25,222.8672,28.25,220.8672" style="stroke:#A80036;stroke-width:0.5;"/><line style="stroke:#A80036;stroke-width:0.5;stroke-dasharray:2.0,2.0;" x1="27.25" x2="305.75" y1="220.8672" y2="220.8672"/><text fill="#000000" font-family="sans-serif" font-size="6.5" font-weight="bold" lengthAdjust="spacing" textLength="7" x="33.25" y="218.439">11</text><text fill="#000000" font-family="sans-serif" font-size="6.5" lengthAdjust="spacing" textLength="119" x="42.25" y="218.439">asks for upper and lower reference values</text><polygon fill="#A80036" points="300.25,234.043,305.25,236.043,300.25,238.043,302.25,236.043" style="stroke:#A80036;stroke-width:0.5;"/><line style="stroke:#A80036;stroke-width:0.5;" x1="24.75" x2="303.25" y1="236.043" y2="236.043"/><text fill="#000000" font-family="sans-serif" font-size="6.5" font-weight="bold" lengthAdjust="spacing" textLength="7" x="28.25" y="233.6147">12</text><text fill="#000000" font-family="sans-serif" font-size="6.5" lengthAdjust="spacing" textLength="119" x="37.25" y="233.6147">types in upper and lower reference values</text><polygon fill="#A80036" points="579.25,249.2188,584.25,251.2188,579.25,253.2188,581.25,251.2188" style="stroke:#A80036;stroke-width:0.5;"/><line style="stroke:#A80036;stroke-width:0.5;" x1="306.25" x2="582.25" y1="251.2188" y2="251.2188"/><text fill="#000000" font-family="sans-serif" font-size="6.5" font-weight="bold" lengthAdjust="spacing" textLength="7" x="309.75" y="248.7905">13</text><text fill="#000000" font-family="sans-serif" font-size="6.5" lengthAdjust="spacing" textLength="258" x="318.75" y="248.7905">setParameter(shortName, code, description, upperReferenceValue, lowerReferenceValue)</text><polygon fill="#A80036" points="773.25,264.3945,778.25,266.3945,773.25,268.3945,775.25,266.3945" style="stroke:#A80036;stroke-width:0.5;"/><line style="stroke:#A80036;stroke-width:0.5;" x1="585.25" x2="776.25" y1="266.3945" y2="266.3945"/><text fill="#000000" font-family="sans-serif" font-size="6.5" font-weight="bold" lengthAdjust="spacing" textLength="7" x="588.75" y="263.9663">14</text><text fill="#000000" font-family="sans-serif" font-size="6.5" lengthAdjust="spacing" textLength="77" x="597.75" y="263.9663">setShortName(shortName)</text><polygon fill="#A80036" points="773.25,279.5703,778.25,281.5703,773.25,283.5703,775.25,281.5703" style="stroke:#A80036;stroke-width:0.5;"/><line style="stroke:#A80036;stroke-width:0.5;" x1="585.25" x2="776.25" y1="281.5703" y2="281.5703"/><text fill="#000000" font-family="sans-serif" font-size="6.5" font-weight="bold" lengthAdjust="spacing" textLength="7" x="588.75" y="279.1421">15</text><text fill="#000000" font-family="sans-serif" font-size="6.5" lengthAdjust="spacing" textLength="42" x="597.75" y="279.1421">setCode(code)</text><polygon fill="#A80036" points="773.25,294.7461,778.25,296.7461,773.25,298.7461,775.25,296.7461" style="stroke:#A80036;stroke-width:0.5;"/><line style="stroke:#A80036;stroke-width:0.5;" x1="585.25" x2="776.25" y1="296.7461" y2="296.7461"/><text fill="#000000" font-family="sans-serif" font-size="6.5" font-weight="bold" lengthAdjust="spacing" textLength="7" x="588.75" y="294.3179">16</text><text fill="#000000" font-family="sans-serif" font-size="6.5" lengthAdjust="spacing" textLength="77" x="597.75" y="294.3179">setDescription(description)</text><polygon fill="#A80036" points="773.25,309.9219,778.25,311.9219,773.25,313.9219,775.25,311.9219" style="stroke:#A80036;stroke-width:0.5;"/><line style="stroke:#A80036;stroke-width:0.5;" x1="585.25" x2="776.25" y1="311.9219" y2="311.9219"/><text fill="#000000" font-family="sans-serif" font-size="6.5" font-weight="bold" lengthAdjust="spacing" textLength="7" x="588.75" y="309.4937">17</text><text fill="#000000" font-family="sans-serif" font-size="6.5" lengthAdjust="spacing" textLength="173" x="597.75" y="309.4937">setUpperLower(upperReferenceValue, lowerReferenceValue)</text><polygon fill="#A80036" points="579.25,325.0977,584.25,327.0977,579.25,329.0977,581.25,327.0977" style="stroke:#A80036;stroke-width:0.5;"/><line style="stroke:#A80036;stroke-width:0.5;" x1="306.25" x2="582.25" y1="327.0977" y2="327.0977"/><text fill="#000000" font-family="sans-serif" font-size="6.5" font-weight="bold" lengthAdjust="spacing" textLength="7" x="309.75" y="324.6694">18</text><text fill="#000000" font-family="sans-serif" font-size="6.5" lengthAdjust="spacing" textLength="49.5" x="318.75" y="324.6694">getCategoryList()</text><polygon fill="#A80036" points="825.75,340.2734,830.75,342.2734,825.75,344.2734,827.75,342.2734" style="stroke:#A80036;stroke-width:0.5;"/><line style="stroke:#A80036;stroke-width:0.5;" x1="585.25" x2="828.75" y1="342.2734" y2="342.2734"/><text fill="#000000" font-family="sans-serif" font-size="6.5" font-weight="bold" lengthAdjust="spacing" textLength="7" x="588.75" y="339.8452">19</text><text fill="#000000" font-family="sans-serif" font-size="6.5" lengthAdjust="spacing" textLength="49.5" x="597.75" y="339.8452">getCategoryList()</text><polygon fill="#A80036" points="590.75,355.4492,585.75,357.4492,590.75,359.4492,588.75,357.4492" style="stroke:#A80036;stroke-width:0.5;"/><line style="stroke:#A80036;stroke-width:0.5;" x1="587.75" x2="831.25" y1="357.4492" y2="357.4492"/><text fill="#000000" font-family="sans-serif" font-size="6.5" font-weight="bold" lengthAdjust="spacing" textLength="7" x="593.75" y="355.021">20</text><text fill="#000000" font-family="sans-serif" font-size="6.5" lengthAdjust="spacing" textLength="35.5" x="602.75" y="355.021">categoryList</text><polygon fill="#A80036" points="873.75,370.625,878.75,372.625,873.75,374.625,875.75,372.625" style="stroke:#A80036;stroke-width:0.5;"/><line style="stroke:#A80036;stroke-width:0.5;" x1="585.25" x2="876.75" y1="372.625" y2="372.625"/><text fill="#000000" font-family="sans-serif" font-size="6.5" font-weight="bold" lengthAdjust="spacing" textLength="7" x="588.75" y="370.1968">21</text><text fill="#000000" font-family="sans-serif" font-size="6.5" lengthAdjust="spacing" textLength="58" x="597.75" y="370.1968">toDTO(categoryList)</text><polygon fill="#A80036" points="590.75,385.8008,585.75,387.8008,590.75,389.8008,588.75,387.8008" style="stroke:#A80036;stroke-width:0.5;"/><line style="stroke:#A80036;stroke-width:0.5;" x1="587.75" x2="879.25" y1="387.8008" y2="387.8008"/><text fill="#000000" font-family="sans-serif" font-size="6.5" font-weight="bold" lengthAdjust="spacing" textLength="7" x="593.75" y="385.3726">22</text><text fill="#000000" font-family="sans-serif" font-size="6.5" lengthAdjust="spacing" textLength="48.5" x="602.75" y="385.3726">categoryListDTO</text><polygon fill="#A80036" points="311.75,400.9766,306.75,402.9766,311.75,404.9766,309.75,402.9766" style="stroke:#A80036;stroke-width:0.5;"/><line style="stroke:#A80036;stroke-width:0.5;" x1="308.75" x2="584.75" y1="402.9766" y2="402.9766"/><text fill="#000000" font-family="sans-serif" font-size="6.5" font-weight="bold" lengthAdjust="spacing" textLength="7" x="314.75" y="400.5483">23</text><text fill="#000000" font-family="sans-serif" font-size="6.5" lengthAdjust="spacing" textLength="48.5" x="323.75" y="400.5483">categoryListDTO</text><polygon fill="#A80036" points="30.25,416.1523,25.25,418.1523,30.25,420.1523,28.25,418.1523" style="stroke:#A80036;stroke-width:0.5;"/><line style="stroke:#A80036;stroke-width:0.5;" x1="27.25" x2="305.75" y1="418.1523" y2="418.1523"/><text fill="#000000" font-family="sans-serif" font-size="6.5" font-weight="bold" lengthAdjust="spacing" textLength="7" x="33.25" y="415.7241">24</text><text fill="#000000" font-family="sans-serif" font-size="6.5" lengthAdjust="spacing" textLength="260.5" x="42.25" y="415.7241">shows parameter category list and asks to pick the one that the new parameter falls under</text><polygon fill="#A80036" points="300.25,431.3281,305.25,433.3281,300.25,435.3281,302.25,433.3281" style="stroke:#A80036;stroke-width:0.5;"/><line style="stroke:#A80036;stroke-width:0.5;" x1="24.75" x2="303.25" y1="433.3281" y2="433.3281"/><text fill="#000000" font-family="sans-serif" font-size="6.5" font-weight="bold" lengthAdjust="spacing" textLength="7" x="28.25" y="430.8999">25</text><text fill="#000000" font-family="sans-serif" font-size="6.5" lengthAdjust="spacing" textLength="107" x="37.25" y="430.8999">picks the wanted parameter category</text><polygon fill="#A80036" points="579.25,446.5039,584.25,448.5039,579.25,450.5039,581.25,448.5039" style="stroke:#A80036;stroke-width:0.5;"/><line style="stroke:#A80036;stroke-width:0.5;" x1="306.25" x2="582.25" y1="448.5039" y2="448.5039"/><text fill="#000000" font-family="sans-serif" font-size="6.5" font-weight="bold" lengthAdjust="spacing" textLength="7" x="309.75" y="446.0757">26</text><text fill="#000000" font-family="sans-serif" font-size="6.5" lengthAdjust="spacing" textLength="69" x="318.75" y="446.0757">setCategoryParameter()</text><polygon fill="#A80036" points="825.75,461.6797,830.75,463.6797,825.75,465.6797,827.75,463.6797" style="stroke:#A80036;stroke-width:0.5;"/><line style="stroke:#A80036;stroke-width:0.5;" x1="585.25" x2="828.75" y1="463.6797" y2="463.6797"/><text fill="#000000" font-family="sans-serif" font-size="6.5" font-weight="bold" lengthAdjust="spacing" textLength="7" x="588.75" y="461.2515">27</text><text fill="#000000" font-family="sans-serif" font-size="6.5" lengthAdjust="spacing" textLength="98" x="597.75" y="461.2515">setCategoryParameter(parameter)</text><polygon fill="#A80036" points="30.25,476.8555,25.25,478.8555,30.25,480.8555,28.25,478.8555" style="stroke:#A80036;stroke-width:0.5;"/><line style="stroke:#A80036;stroke-width:0.5;" x1="27.25" x2="305.75" y1="478.8555" y2="478.8555"/><text fill="#000000" font-family="sans-serif" font-size="6.5" font-weight="bold" lengthAdjust="spacing" textLength="7" x="33.25" y="476.4272">28</text><text fill="#000000" font-family="sans-serif" font-size="6.5" lengthAdjust="spacing" textLength="134" x="42.25" y="476.4272">shows all typed data and asks for confirmation</text><polygon fill="#A80036" points="300.25,492.0313,305.25,494.0313,300.25,496.0313,302.25,494.0313" style="stroke:#A80036;stroke-width:0.5;"/><line style="stroke:#A80036;stroke-width:0.5;" x1="24.75" x2="303.25" y1="494.0313" y2="494.0313"/><text fill="#000000" font-family="sans-serif" font-size="6.5" font-weight="bold" lengthAdjust="spacing" textLength="7" x="28.25" y="491.603">29</text><text fill="#000000" font-family="sans-serif" font-size="6.5" lengthAdjust="spacing" textLength="57" x="37.25" y="491.603">confirms typed data</text><polygon fill="#A80036" points="579.25,507.207,584.25,509.207,579.25,511.207,581.25,509.207" style="stroke:#A80036;stroke-width:0.5;"/><line style="stroke:#A80036;stroke-width:0.5;" x1="306.25" x2="582.25" y1="509.207" y2="509.207"/><text fill="#000000" font-family="sans-serif" font-size="6.5" font-weight="bold" lengthAdjust="spacing" textLength="7" x="309.75" y="506.7788">30</text><text fill="#000000" font-family="sans-serif" font-size="6.5" lengthAdjust="spacing" textLength="47" x="318.75" y="506.7788">saveParameter()</text><polygon fill="#A80036" points="773.25,522.3828,778.25,524.3828,773.25,526.3828,775.25,524.3828" style="stroke:#A80036;stroke-width:0.5;"/><line style="stroke:#A80036;stroke-width:0.5;" x1="585.25" x2="776.25" y1="524.3828" y2="524.3828"/><text fill="#000000" font-family="sans-serif" font-size="6.5" font-weight="bold" lengthAdjust="spacing" textLength="7" x="588.75" y="521.9546">31</text><text fill="#000000" font-family="sans-serif" font-size="6.5" lengthAdjust="spacing" textLength="76" x="597.75" y="521.9546">saveParameter(parameter)</text><!--MD5=[6668db9c80f214579747b4c9360fa8f5]
@startuml

autonumber

actor Administrator as admin
participant ":createNewParameterUI" as UI
participant ":createNewParameterController" as Controller
participant ":ParameterList" as param
participant ":Category" as cat
participant ":CatMapper" as map

admin -> UI: starts new parameter
create Controller
UI -> Controller: create
UI -> Controller: createNewParameter()
Controller -> param: parameter = createNewParameter()
UI - -> admin: requests name of new parameter
admin -> UI: types the name of the parameter that will be added
UI - -> admin: requests code of the new parameter
admin -> UI: types in code of new parameter
UI - -> admin: asks for a description of the new parameter
admin -> UI: types in a description for the new parameter
UI - -> admin: asks for upper and lower reference values
admin -> UI: types in upper and lower reference values
UI -> Controller: setParameter(shortName, code, description, upperReferenceValue, lowerReferenceValue)
Controller -> param: setShortName(shortName)
Controller -> param: setCode(code)
Controller -> param: setDescription(description)
Controller -> param: setUpperLower(upperReferenceValue, lowerReferenceValue)
UI -> Controller: getCategoryList()
Controller -> cat: getCategoryList()
cat -> Controller: categoryList
Controller -> map: toDTO(categoryList)
map -> Controller: categoryListDTO
Controller -> UI: categoryListDTO
UI -> admin: shows parameter category list and asks to pick the one that the new parameter falls under
admin -> UI: picks the wanted parameter category
UI -> Controller: setCategoryParameter()
Controller -> cat: setCategoryParameter(parameter)
UI -> admin: shows all typed data and asks for confirmation
admin -> UI: confirms typed data
UI -> Controller: saveParameter()
Controller -> param: saveParameter(parameter)


@enduml

PlantUML version 1.2021.5(Sun Apr 25 12:20:28 BST 2021)
(GPL source distribution)
Java Runtime: OpenJDK Runtime Environment
JVM: OpenJDK 64-Bit Server VM
Default Encoding: Cp1252
Language: pt
Country: PT
--></g></svg>