<?xml version="1.0" encoding="UTF-8" standalone="no"?><svg xmlns="http://www.w3.org/2000/svg" xmlns:xlink="http://www.w3.org/1999/xlink" contentScriptType="application/ecmascript" contentStyleType="text/css" height="973.7px" preserveAspectRatio="none" style="width:616px;height:973px;" version="1.1" viewBox="0 0 616 973" width="616.2px" zoomAndPan="magnify"><defs><filter height="300%" id="fe4gt1wiq7ojw" width="300%" x="-1" y="-1"><feGaussianBlur result="blurOut" stdDeviation="2.6"/><feColorMatrix in="blurOut" result="blurOut2" type="matrix" values="0 0 0 0 0 0 0 0 0 0 0 0 0 0 0 0 0 0 .4 0"/><feOffset dx="5.2" dy="5.2" in="blurOut2" result="blurOut3"/><feBlend in="SourceGraphic" in2="blurOut3" mode="normal"/></filter></defs><g><!--MD5=[ed6624c6556d5e7b1bd23032162d20b7]
class Client--><rect codeLine="4" fill="#FEFECE" filter="url(#fe4gt1wiq7ojw)" height="242.2672" id="Client" style="stroke:#A80036;stroke-width:1.9500000000000002;" width="308.1" x="115.7" y="713.7"/><ellipse cx="243.425" cy="734.5" fill="#ADD1B2" rx="14.3" ry="14.3" style="stroke:#A80036;stroke-width:1.3;"/><path d="M246.025,729.95 Q246.2891,729.3 246.5938,728.975 Q246.8984,728.65 247.2438,728.65 Q247.8531,728.65 248.2391,729.0156 Q248.625,729.3813 248.625,730.2344 L248.625,732.2656 Q248.625,733.1188 248.2594,733.4844 Q247.8938,733.85 247.325,733.85 Q246.8172,733.85 246.4922,733.6266 Q246.1672,733.4031 246.025,732.8141 Q245.9641,732.4078 245.7406,732.1844 Q245.3344,731.7578 244.6031,731.5141 Q243.8719,731.25 243.1406,731.25 Q242.2266,731.25 241.4547,731.6156 Q240.7031,731.9813 240.1141,732.7938 Q239.525,733.6063 239.525,734.7234 L239.525,735.9219 Q239.525,737.2625 240.6219,738.1563 Q241.7188,739.05 243.6688,739.05 Q244.8266,739.05 245.6391,738.7859 Q246.1063,738.6438 246.6344,738.1766 Q246.9797,737.9125 247.1625,737.8313 Q247.3453,737.75 247.5688,737.75 Q247.9953,737.75 248.3,738.0953 Q248.625,738.4203 248.625,738.8875 Q248.625,739.3344 248.1781,739.8625 Q247.5281,740.6344 246.4922,741.0609 Q245.1313,741.65 243.4656,741.65 Q241.5156,741.65 239.9516,740.8781 Q238.6922,740.2688 237.7984,738.9484 Q236.925,737.6281 236.925,736.0641 L236.925,734.6422 Q236.925,733.0172 237.6969,731.5953 Q238.4891,730.1734 239.85,729.4219 Q241.2313,728.65 242.775,728.65 Q243.7094,728.65 244.5219,728.975 Q245.3344,729.3 246.025,729.95 Z " fill="#000000"/><text fill="#000000" font-family="sans-serif" font-size="15.6" lengthAdjust="spacing" textLength="41.6" x="270.075" y="740.8832">Client</text><line style="stroke:#A80036;stroke-width:1.9500000000000002;" x1="117" x2="422.5" y1="755.3" y2="755.3"/><text fill="#000000" font-family="sans-serif" font-size="14.3" lengthAdjust="spacing" textLength="79.3" x="123.5" y="775.3446">-String name</text><text fill="#000000" font-family="sans-serif" font-size="14.3" lengthAdjust="spacing" textLength="100.1" x="123.5" y="793.3313">-int cardNumber</text><text fill="#000000" font-family="sans-serif" font-size="14.3" lengthAdjust="spacing" textLength="93.6" x="123.5" y="811.3181">-Date birthDate</text><text fill="#000000" font-family="sans-serif" font-size="14.3" lengthAdjust="spacing" textLength="68.9" x="123.5" y="829.3048">-String sex</text><text fill="#000000" font-family="sans-serif" font-size="14.3" lengthAdjust="spacing" textLength="58.5" x="123.5" y="847.2915">-int nhsID</text><text fill="#000000" font-family="sans-serif" font-size="14.3" lengthAdjust="spacing" textLength="42.9" x="123.5" y="865.2782">-int TIN</text><text fill="#000000" font-family="sans-serif" font-size="14.3" lengthAdjust="spacing" textLength="110.5" x="123.5" y="883.2649">-int phoneNumber</text><text fill="#000000" font-family="sans-serif" font-size="14.3" lengthAdjust="spacing" textLength="76.7" x="123.5" y="901.2517">-String email</text><line style="stroke:#A80036;stroke-width:1.9500000000000002;" x1="117" x2="422.5" y1="909.5938" y2="909.5938"/><text fill="#000000" font-family="sans-serif" font-size="14.3" lengthAdjust="spacing" textLength="288.6" x="123.5" y="929.6384">+validate(name, cardNumber, nhsId, birthDate,</text><text fill="#000000" font-family="sans-serif" font-size="14.3" lengthAdjust="spacing" textLength="189.8" x="127.4" y="947.6251">sex, TIN, phoneNumber, email)</text><!--MD5=[03960189e81aa2c066c762ffabbee709]
class Receptionist--><rect codeLine="15" fill="#FEFECE" filter="url(#fe4gt1wiq7ojw)" height="206.2938" id="Receptionist" style="stroke:#A80036;stroke-width:1.9500000000000002;" width="131.3" x="9.1" y="9.1"/><ellipse cx="28.6" cy="29.9" fill="#ADD1B2" rx="14.3" ry="14.3" style="stroke:#A80036;stroke-width:1.3;"/><path d="M31.2,25.35 Q31.4641,24.7 31.7688,24.375 Q32.0734,24.05 32.4188,24.05 Q33.0281,24.05 33.4141,24.4156 Q33.8,24.7813 33.8,25.6344 L33.8,27.6656 Q33.8,28.5188 33.4344,28.8844 Q33.0688,29.25 32.5,29.25 Q31.9922,29.25 31.6672,29.0266 Q31.3422,28.8031 31.2,28.2141 Q31.1391,27.8078 30.9156,27.5844 Q30.5094,27.1578 29.7781,26.9141 Q29.0469,26.65 28.3156,26.65 Q27.4016,26.65 26.6297,27.0156 Q25.8781,27.3813 25.2891,28.1938 Q24.7,29.0063 24.7,30.1234 L24.7,31.3219 Q24.7,32.6625 25.7969,33.5563 Q26.8938,34.45 28.8438,34.45 Q30.0016,34.45 30.8141,34.1859 Q31.2813,34.0438 31.8094,33.5766 Q32.1547,33.3125 32.3375,33.2313 Q32.5203,33.15 32.7438,33.15 Q33.1703,33.15 33.475,33.4953 Q33.8,33.8203 33.8,34.2875 Q33.8,34.7344 33.3531,35.2625 Q32.7031,36.0344 31.6672,36.4609 Q30.3063,37.05 28.6406,37.05 Q26.6906,37.05 25.1266,36.2781 Q23.8672,35.6688 22.9734,34.3484 Q22.1,33.0281 22.1,31.4641 L22.1,30.0422 Q22.1,28.4172 22.8719,26.9953 Q23.6641,25.5734 25.025,24.8219 Q26.4063,24.05 27.95,24.05 Q28.8844,24.05 29.6969,24.375 Q30.5094,24.7 31.2,25.35 Z " fill="#000000"/><text fill="#000000" font-family="sans-serif" font-size="15.6" lengthAdjust="spacing" textLength="89.7" x="46.8" y="36.2832">Receptionist</text><line style="stroke:#A80036;stroke-width:1.9500000000000002;" x1="10.4" x2="139.1" y1="50.7" y2="50.7"/><text fill="#000000" font-family="sans-serif" font-size="14.3" lengthAdjust="spacing" textLength="76.7" x="16.9" y="70.7446">-employeeID</text><text fill="#000000" font-family="sans-serif" font-size="14.3" lengthAdjust="spacing" textLength="93.6" x="16.9" y="88.7313">-organizationID</text><text fill="#000000" font-family="sans-serif" font-size="14.3" lengthAdjust="spacing" textLength="39" x="16.9" y="106.7181">-name</text><text fill="#000000" font-family="sans-serif" font-size="14.3" lengthAdjust="spacing" textLength="57.2" x="16.9" y="124.7048">-address</text><text fill="#000000" font-family="sans-serif" font-size="14.3" lengthAdjust="spacing" textLength="92.3" x="16.9" y="142.6915">-phoneNumber</text><text fill="#000000" font-family="sans-serif" font-size="14.3" lengthAdjust="spacing" textLength="36.4" x="16.9" y="160.6782">-email</text><text fill="#000000" font-family="sans-serif" font-size="14.3" lengthAdjust="spacing" textLength="65" x="16.9" y="178.6649">-SOCcode</text><line style="stroke:#A80036;stroke-width:1.9500000000000002;" x1="10.4" x2="139.1" y1="187.007" y2="187.007"/><text fill="#000000" font-family="sans-serif" font-size="14.3" lengthAdjust="spacing" textLength="93.6" x="16.9" y="207.0517">+confirmData()</text><!--MD5=[02e4b9b7573f1156f41e60aa5b4e25a4]
class Company--><rect codeLine="25" fill="#FEFECE" filter="url(#fe4gt1wiq7ojw)" height="116.3602" id="Company" style="stroke:#A80036;stroke-width:1.9500000000000002;" width="132.6" x="466.05" y="495.3"/><ellipse cx="495.495" cy="516.1" fill="#ADD1B2" rx="14.3" ry="14.3" style="stroke:#A80036;stroke-width:1.3;"/><path d="M498.095,511.55 Q498.3591,510.9 498.6638,510.575 Q498.9684,510.25 499.3137,510.25 Q499.9231,510.25 500.3091,510.6156 Q500.695,510.9813 500.695,511.8344 L500.695,513.8656 Q500.695,514.7188 500.3294,515.0844 Q499.9638,515.45 499.395,515.45 Q498.8872,515.45 498.5622,515.2266 Q498.2372,515.0031 498.095,514.4141 Q498.0341,514.0078 497.8106,513.7844 Q497.4044,513.3578 496.6731,513.1141 Q495.9419,512.85 495.2106,512.85 Q494.2966,512.85 493.5247,513.2156 Q492.7731,513.5813 492.1841,514.3938 Q491.595,515.2063 491.595,516.3234 L491.595,517.5219 Q491.595,518.8625 492.6919,519.7563 Q493.7888,520.65 495.7388,520.65 Q496.8966,520.65 497.7091,520.3859 Q498.1763,520.2438 498.7044,519.7766 Q499.0497,519.5125 499.2325,519.4313 Q499.4153,519.35 499.6388,519.35 Q500.0653,519.35 500.37,519.6953 Q500.695,520.0203 500.695,520.4875 Q500.695,520.9344 500.2481,521.4625 Q499.5981,522.2344 498.5622,522.6609 Q497.2012,523.25 495.5356,523.25 Q493.5856,523.25 492.0216,522.4781 Q490.7622,521.8688 489.8684,520.5484 Q488.995,519.2281 488.995,517.6641 L488.995,516.2422 Q488.995,514.6172 489.7669,513.1953 Q490.5591,511.7734 491.92,511.0219 Q493.3013,510.25 494.845,510.25 Q495.7794,510.25 496.5919,510.575 Q497.4044,510.9 498.095,511.55 Z " fill="#000000"/><text fill="#000000" font-family="sans-serif" font-size="15.6" lengthAdjust="spacing" textLength="68.9" x="515.905" y="522.4832">Company</text><line style="stroke:#A80036;stroke-width:1.9500000000000002;" x1="467.35" x2="597.35" y1="536.9" y2="536.9"/><text fill="#000000" font-family="sans-serif" font-size="14.3" lengthAdjust="spacing" textLength="117" x="473.85" y="556.9446">-String designation</text><line style="stroke:#A80036;stroke-width:1.9500000000000002;" x1="467.35" x2="597.35" y1="565.2867" y2="565.2867"/><text fill="#000000" font-family="sans-serif" font-size="14.3" lengthAdjust="spacing" textLength="83.2" x="473.85" y="585.3313">+saveClient()</text><text fill="#000000" font-family="sans-serif" font-size="14.3" lengthAdjust="spacing" textLength="80.6" x="473.85" y="603.3181">+sendEmail()</text><!--MD5=[0deb7dd7aafd8ac89375ffa110837fa5]
class CreateClientUI--><rect codeLine="30" fill="#FEFECE" filter="url(#fe4gt1wiq7ojw)" height="98.3734" id="CreateClientUI" style="stroke:#A80036;stroke-width:1.9500000000000002;" width="308.1" x="118.3" y="295.1"/><ellipse cx="214.175" cy="315.9" fill="#ADD1B2" rx="14.3" ry="14.3" style="stroke:#A80036;stroke-width:1.3;"/><path d="M216.775,311.35 Q217.0391,310.7 217.3438,310.375 Q217.6484,310.05 217.9938,310.05 Q218.6031,310.05 218.9891,310.4156 Q219.375,310.7813 219.375,311.6344 L219.375,313.6656 Q219.375,314.5188 219.0094,314.8844 Q218.6438,315.25 218.075,315.25 Q217.5672,315.25 217.2422,315.0266 Q216.9172,314.8031 216.775,314.2141 Q216.7141,313.8078 216.4906,313.5844 Q216.0844,313.1578 215.3531,312.9141 Q214.6219,312.65 213.8906,312.65 Q212.9766,312.65 212.2047,313.0156 Q211.4531,313.3813 210.8641,314.1938 Q210.275,315.0063 210.275,316.1234 L210.275,317.3219 Q210.275,318.6625 211.3719,319.5563 Q212.4688,320.45 214.4188,320.45 Q215.5766,320.45 216.3891,320.1859 Q216.8563,320.0438 217.3844,319.5766 Q217.7297,319.3125 217.9125,319.2313 Q218.0953,319.15 218.3188,319.15 Q218.7453,319.15 219.05,319.4953 Q219.375,319.8203 219.375,320.2875 Q219.375,320.7344 218.9281,321.2625 Q218.2781,322.0344 217.2422,322.4609 Q215.8813,323.05 214.2156,323.05 Q212.2656,323.05 210.7016,322.2781 Q209.4422,321.6688 208.5484,320.3484 Q207.675,319.0281 207.675,317.4641 L207.675,316.0422 Q207.675,314.4172 208.4469,312.9953 Q209.2391,311.5734 210.6,310.8219 Q211.9813,310.05 213.525,310.05 Q214.4594,310.05 215.2719,310.375 Q216.0844,310.7 216.775,311.35 Z " fill="#000000"/><text fill="#000000" font-family="sans-serif" font-size="15.6" lengthAdjust="spacing" textLength="105.3" x="240.825" y="322.2832">CreateClientUI</text><line style="stroke:#A80036;stroke-width:1.9500000000000002;" x1="119.6" x2="425.1" y1="336.7" y2="336.7"/><line style="stroke:#A80036;stroke-width:1.9500000000000002;" x1="119.6" x2="425.1" y1="347.1" y2="347.1"/><text fill="#000000" font-family="sans-serif" font-size="14.3" lengthAdjust="spacing" textLength="288.6" x="126.1" y="367.1446">+setData(name, cardNumber, nhsId, birthDate,</text><text fill="#000000" font-family="sans-serif" font-size="14.3" lengthAdjust="spacing" textLength="189.8" x="130" y="385.1313">sex, TIN, phoneNumber, email)</text><!--MD5=[7b68a60807ef0d5ecf982988765ba5ca]
class CreateClientController--><rect codeLine="33" fill="#FEFECE" filter="url(#fe4gt1wiq7ojw)" height="98.3734" id="CreateClientController" style="stroke:#A80036;stroke-width:1.9500000000000002;" width="300.3" x="119.6" y="504.4"/><ellipse cx="184.275" cy="525.2" fill="#ADD1B2" rx="14.3" ry="14.3" style="stroke:#A80036;stroke-width:1.3;"/><path d="M186.875,520.65 Q187.1391,520 187.4438,519.675 Q187.7484,519.35 188.0938,519.35 Q188.7031,519.35 189.0891,519.7156 Q189.475,520.0813 189.475,520.9344 L189.475,522.9656 Q189.475,523.8188 189.1094,524.1844 Q188.7438,524.55 188.175,524.55 Q187.6672,524.55 187.3422,524.3266 Q187.0172,524.1031 186.875,523.5141 Q186.8141,523.1078 186.5906,522.8844 Q186.1844,522.4578 185.4531,522.2141 Q184.7219,521.95 183.9906,521.95 Q183.0766,521.95 182.3047,522.3156 Q181.5531,522.6813 180.9641,523.4938 Q180.375,524.3063 180.375,525.4234 L180.375,526.6219 Q180.375,527.9625 181.4719,528.8563 Q182.5688,529.75 184.5188,529.75 Q185.6766,529.75 186.4891,529.4859 Q186.9563,529.3438 187.4844,528.8766 Q187.8297,528.6125 188.0125,528.5313 Q188.1953,528.45 188.4188,528.45 Q188.8453,528.45 189.15,528.7953 Q189.475,529.1203 189.475,529.5875 Q189.475,530.0344 189.0281,530.5625 Q188.3781,531.3344 187.3422,531.7609 Q185.9813,532.35 184.3156,532.35 Q182.3656,532.35 180.8016,531.5781 Q179.5422,530.9688 178.6484,529.6484 Q177.775,528.3281 177.775,526.7641 L177.775,525.3422 Q177.775,523.7172 178.5469,522.2953 Q179.3391,520.8734 180.7,520.1219 Q182.0813,519.35 183.625,519.35 Q184.5594,519.35 185.3719,519.675 Q186.1844,520 186.875,520.65 Z " fill="#000000"/><text fill="#000000" font-family="sans-serif" font-size="15.6" lengthAdjust="spacing" textLength="159.9" x="210.925" y="531.5832">CreateClientController</text><line style="stroke:#A80036;stroke-width:1.9500000000000002;" x1="120.9" x2="418.6" y1="546" y2="546"/><line style="stroke:#A80036;stroke-width:1.9500000000000002;" x1="120.9" x2="418.6" y1="556.4" y2="556.4"/><text fill="#000000" font-family="sans-serif" font-size="14.3" lengthAdjust="spacing" textLength="280.8" x="127.4" y="576.4446">+create(name, cardNumber, nhsId, birthDate,</text><text fill="#000000" font-family="sans-serif" font-size="14.3" lengthAdjust="spacing" textLength="189.8" x="131.3" y="594.4313">sex, TIN, phoneNumber, email)</text><!--MD5=[7acdd5ace50a99f663c9958df3fb8cfd]
link Receptionist to CreateClientUI--><path codeLine="37" d="M140.543,190.151 C168.675,222.807 200.824,260.143 226.343,289.77 " fill="none" id="Receptionist-to-CreateClientUI" style="stroke:#A80036;stroke-width:1.3;stroke-dasharray:7.0,7.0;"/><polygon fill="#A80036" points="230.698,294.827,226.9825,282.5744,226.448,289.9089,219.1136,289.3744,230.698,294.827" style="stroke:#A80036;stroke-width:1.3;"/><!--MD5=[8090ea5979f93a1303155e437990326e]
link CreateClientUI to CreateClientController--><path codeLine="38" d="M271.739,394.264 C271.349,425.23 270.842,465.465 270.439,497.614 " fill="none" id="CreateClientUI-to-CreateClientController" style="stroke:#A80036;stroke-width:1.3;stroke-dasharray:7.0,7.0;"/><polygon fill="#A80036" points="270.361,504.348,275.7276,492.7235,270.4538,497.8487,265.3287,492.5749,270.361,504.348" style="stroke:#A80036;stroke-width:1.3;"/><!--MD5=[5e0004deadefe782d12e29dc3925821a]
link CreateClientController to Client--><path codeLine="39" d="M269.75,603.564 C269.75,632.281 269.75,670.137 269.75,706.823 " fill="none" id="CreateClientController-to-Client" style="stroke:#A80036;stroke-width:1.3;stroke-dasharray:7.0,7.0;"/><polygon fill="#A80036" points="269.75,713.648,274.95,701.948,269.75,707.148,264.55,701.948,269.75,713.648" style="stroke:#A80036;stroke-width:1.3;"/><!--MD5=[6a35157f4c730bda767e7c9f1b8b7f73]
link Receptionist to Client--><path codeLine="40" d="M61.503,216.151 C52.182,319.527 48.711,482.079 96.85,612.3 C110.11,648.167 131.495,682.825 154.778,713.622 " fill="none" id="Receptionist-Client" style="stroke:#A80036;stroke-width:1.3;"/><polygon fill="#000000" points="70.7479,451.2172,72.3361,438.9559,64.8257,440.3641,70.7479,451.2172" style="stroke:#000000;stroke-width:1.3;"/><text fill="#000000" font-family="sans-serif" font-size="16.9" lengthAdjust="spacing" textLength="65" x="81.25" y="451.7437">registers</text><text fill="#000000" font-family="sans-serif" font-size="16.9" lengthAdjust="spacing" textLength="9.1" x="50.9292" y="243.1794">1</text><text fill="#000000" font-family="sans-serif" font-size="16.9" lengthAdjust="spacing" textLength="6.5" x="138.4877" y="699.4855">*</text><!--MD5=[6eee883fdf517d3604e8bd0f2058e9aa]
link Company to Client--><path codeLine="41" d="M478.257,612.404 C450.632,641.667 415.935,678.431 382.811,713.518 " fill="none" id="Company-Client" style="stroke:#A80036;stroke-width:1.3;"/><polygon fill="#000000" points="440.7882,667.9553,451.638,662.0271,446.0814,656.7819,440.7882,667.9553" style="stroke:#000000;stroke-width:1.3;"/><text fill="#000000" font-family="sans-serif" font-size="16.9" lengthAdjust="spacing" textLength="27.3" x="456.95" y="670.1437">has</text><text fill="#000000" font-family="sans-serif" font-size="16.9" lengthAdjust="spacing" textLength="9.1" x="460.9103" y="639.7285">1</text><text fill="#000000" font-family="sans-serif" font-size="16.9" lengthAdjust="spacing" textLength="26" x="364.7846" y="699.7838">1..*</text><!--MD5=[4369eb3775725041ba7096094098f251]
@startuml

skinparam classAttributeIconSize 0

class Client {
-String name
-int cardNumber
-Date birthDate
-String sex
-int nhsID
-int TIN
-int phoneNumber
-String email
+validate(name, cardNumber, nhsId, birthDate, \n sex, TIN, phoneNumber, email)
}
class Receptionist {
-employeeID
-organizationID
-name
-address
-phoneNumber
-email
-SOCcode
+confirmData()
}
class Company{
-String designation
+saveClient()
+sendEmail()
}
class CreateClientUI{
+setData(name, cardNumber, nhsId, birthDate, \n sex, TIN, phoneNumber, email)
}
class CreateClientController{
+create(name, cardNumber, nhsId, birthDate, \n sex, TIN, phoneNumber, email)
}

Receptionist ..> CreateClientUI
CreateClientUI ..> CreateClientController
CreateClientController ..> Client
Receptionist "1"- -"*" Client : registers >
Company "1"- -"1..*" Client : has >



@enduml

PlantUML version 1.2021.00(Sun Jan 10 10:25:05 GMT 2021)
(GPL source distribution)
Java Runtime: OpenJDK Runtime Environment
JVM: OpenJDK 64-Bit Server VM
Default Encoding: Cp1252
Language: pt
Country: PT
--></g></svg>