<?xml version="1.0" encoding="UTF-8" standalone="no"?><svg xmlns="http://www.w3.org/2000/svg" xmlns:xlink="http://www.w3.org/1999/xlink" contentScriptType="application/ecmascript" contentStyleType="text/css" height="1081.6px" preserveAspectRatio="none" style="width:1613px;height:1081px;" version="1.1" viewBox="0 0 1613 1081" width="1613.3px" zoomAndPan="magnify"><defs><filter height="300%" id="fo9cdmz3atl8d" width="300%" x="-1" y="-1"><feGaussianBlur result="blurOut" stdDeviation="2.6"/><feColorMatrix in="blurOut" result="blurOut2" type="matrix" values="0 0 0 0 0 0 0 0 0 0 0 0 0 0 0 0 0 0 .4 0"/><feOffset dx="5.2" dy="5.2" in="blurOut2" result="blurOut3"/><feBlend in="SourceGraphic" in2="blurOut3" mode="normal"/></filter></defs><g><rect fill="#FFFFFF" filter="url(#fo9cdmz3atl8d)" height="818.4109" style="stroke:#A80036;stroke-width:1.3;" width="13" x="102.05" y="129.4922"/><rect fill="#FFFFFF" filter="url(#fo9cdmz3atl8d)" height="139.1711" style="stroke:#A80036;stroke-width:1.3;" width="13" x="532.35" y="158.5492"/><rect fill="#FFFFFF" filter="url(#fo9cdmz3atl8d)" height="300.7266" style="stroke:#A80036;stroke-width:1.3;" width="13" x="532.35" y="337.1773"/><rect fill="#FFFFFF" filter="url(#fo9cdmz3atl8d)" height="270.5422" style="stroke:#A80036;stroke-width:1.3;" width="13" x="532.35" y="677.3609"/><rect fill="#FFFFFF" filter="url(#fo9cdmz3atl8d)" height="39" style="stroke:#A80036;stroke-width:1.3;" width="13" x="915.85" y="198.0063"/><rect fill="#FFFFFF" filter="url(#fo9cdmz3atl8d)" height="200.5555" style="stroke:#A80036;stroke-width:1.3;" width="13" x="915.85" y="397.8914"/><rect fill="#FFFFFF" filter="url(#fo9cdmz3atl8d)" height="191.6281" style="stroke:#A80036;stroke-width:1.3;" width="13" x="915.85" y="716.818"/><rect fill="#FFFFFF" filter="url(#fo9cdmz3atl8d)" height="126.8414" style="stroke:#A80036;stroke-width:1.3;" width="13" x="1325.35" y="471.6055"/><rect fill="#FFFFFF" filter="url(#fo9cdmz3atl8d)" height="152.1711" style="stroke:#A80036;stroke-width:1.3;" width="13" x="1325.35" y="756.275"/><line style="stroke:#A80036;stroke-width:1.3;stroke-dasharray:5.0,5.0;" x1="107.9" x2="107.9" y1="116.4922" y2="971.3031"/><line style="stroke:#A80036;stroke-width:1.3;stroke-dasharray:5.0,5.0;" x1="538.85" x2="538.85" y1="116.4922" y2="971.3031"/><line style="stroke:#A80036;stroke-width:1.3;stroke-dasharray:5.0,5.0;" x1="921.7" x2="921.7" y1="116.4922" y2="971.3031"/><line style="stroke:#A80036;stroke-width:1.3;stroke-dasharray:5.0,5.0;" x1="1331.85" x2="1331.85" y1="463.0336" y2="971.3031"/><line style="stroke:#A80036;stroke-width:1.3;stroke-dasharray:5.0,5.0;" x1="1571.05" x2="1571.05" y1="116.4922" y2="971.3031"/><text fill="#000000" font-family="sans-serif" font-size="18.2" lengthAdjust="spacing" textLength="196.3" x="6.5" y="112.4932">Laboratory Receptionist</text><ellipse cx="108.55" cy="19.5" fill="#FEFECE" filter="url(#fo9cdmz3atl8d)" rx="10.4" ry="10.4" style="stroke:#A80036;stroke-width:2.6;"/><path d="M108.55,29.9 L108.55,65 M91.65,40.3 L125.45,40.3 M108.55,65 L91.65,84.5 M108.55,65 L125.45,84.5 " fill="none" filter="url(#fo9cdmz3atl8d)" style="stroke:#A80036;stroke-width:2.6;"/><text fill="#000000" font-family="sans-serif" font-size="18.2" lengthAdjust="spacing" textLength="196.3" x="6.5" y="988.8963">Laboratory Receptionist</text><ellipse cx="108.55" cy="1005.8953" fill="#FEFECE" filter="url(#fo9cdmz3atl8d)" rx="10.4" ry="10.4" style="stroke:#A80036;stroke-width:2.6;"/><path d="M108.55,1016.2953 L108.55,1051.3953 M91.65,1026.6953 L125.45,1026.6953 M108.55,1051.3953 L91.65,1070.8953 M108.55,1051.3953 L125.45,1070.8953 " fill="none" filter="url(#fo9cdmz3atl8d)" style="stroke:#A80036;stroke-width:2.6;"/><rect fill="#FEFECE" filter="url(#fo9cdmz3atl8d)" height="41.0922" style="stroke:#A80036;stroke-width:1.9500000000000002;" width="150.8" x="460.85" y="68.9"/><text fill="#000000" font-family="sans-serif" font-size="18.2" lengthAdjust="spacing" textLength="132.6" x="469.95" y="96.8932">:CreateCreateUI</text><rect fill="#FEFECE" filter="url(#fo9cdmz3atl8d)" height="41.0922" style="stroke:#A80036;stroke-width:1.9500000000000002;" width="150.8" x="460.85" y="970.0031"/><text fill="#000000" font-family="sans-serif" font-size="18.2" lengthAdjust="spacing" textLength="132.6" x="469.95" y="997.9963">:CreateCreateUI</text><rect fill="#FEFECE" filter="url(#fo9cdmz3atl8d)" height="41.0922" style="stroke:#A80036;stroke-width:1.9500000000000002;" width="206.7" x="816.4" y="68.9"/><text fill="#000000" font-family="sans-serif" font-size="18.2" lengthAdjust="spacing" textLength="188.5" x="825.5" y="96.8932">:CreateClientController</text><rect fill="#FEFECE" filter="url(#fo9cdmz3atl8d)" height="41.0922" style="stroke:#A80036;stroke-width:1.9500000000000002;" width="206.7" x="816.4" y="970.0031"/><text fill="#000000" font-family="sans-serif" font-size="18.2" lengthAdjust="spacing" textLength="188.5" x="825.5" y="997.9963">:CreateClientController</text><rect fill="#FEFECE" filter="url(#fo9cdmz3atl8d)" height="63.9844" style="stroke:#A80036;stroke-width:1.9500000000000002;" width="70.2" x="1294.15" y="970.0031"/><text fill="#000000" font-family="sans-serif" font-size="18.2" lengthAdjust="spacing" textLength="46.8" x="1305.85" y="997.9963">Client</text><text fill="#000000" font-family="sans-serif" font-size="18.2" lengthAdjust="spacing" textLength="52" x="1303.25" y="1020.8885">:Client</text><rect fill="#FEFECE" filter="url(#fo9cdmz3atl8d)" height="41.0922" style="stroke:#A80036;stroke-width:1.9500000000000002;" width="54.6" x="1541.15" y="68.9"/><text fill="#000000" font-family="sans-serif" font-size="18.2" lengthAdjust="spacing" textLength="36.4" x="1550.25" y="96.8932">:???</text><rect fill="#FEFECE" filter="url(#fo9cdmz3atl8d)" height="41.0922" style="stroke:#A80036;stroke-width:1.9500000000000002;" width="54.6" x="1541.15" y="970.0031"/><text fill="#000000" font-family="sans-serif" font-size="18.2" lengthAdjust="spacing" textLength="36.4" x="1550.25" y="997.9963">:???</text><rect fill="#FFFFFF" filter="url(#fo9cdmz3atl8d)" height="818.4109" style="stroke:#A80036;stroke-width:1.3;" width="13" x="102.05" y="129.4922"/><rect fill="#FFFFFF" filter="url(#fo9cdmz3atl8d)" height="139.1711" style="stroke:#A80036;stroke-width:1.3;" width="13" x="532.35" y="158.5492"/><rect fill="#FFFFFF" filter="url(#fo9cdmz3atl8d)" height="300.7266" style="stroke:#A80036;stroke-width:1.3;" width="13" x="532.35" y="337.1773"/><rect fill="#FFFFFF" filter="url(#fo9cdmz3atl8d)" height="270.5422" style="stroke:#A80036;stroke-width:1.3;" width="13" x="532.35" y="677.3609"/><rect fill="#FFFFFF" filter="url(#fo9cdmz3atl8d)" height="39" style="stroke:#A80036;stroke-width:1.3;" width="13" x="915.85" y="198.0063"/><rect fill="#FFFFFF" filter="url(#fo9cdmz3atl8d)" height="200.5555" style="stroke:#A80036;stroke-width:1.3;" width="13" x="915.85" y="397.8914"/><rect fill="#FFFFFF" filter="url(#fo9cdmz3atl8d)" height="191.6281" style="stroke:#A80036;stroke-width:1.3;" width="13" x="915.85" y="716.818"/><rect fill="#FFFFFF" filter="url(#fo9cdmz3atl8d)" height="126.8414" style="stroke:#A80036;stroke-width:1.3;" width="13" x="1325.35" y="471.6055"/><rect fill="#FFFFFF" filter="url(#fo9cdmz3atl8d)" height="152.1711" style="stroke:#A80036;stroke-width:1.3;" width="13" x="1325.35" y="756.275"/><polygon fill="#A80036" points="516.75,153.3492,529.75,158.5492,516.75,163.7492,521.95,158.5492" style="stroke:#A80036;stroke-width:1.3;"/><line style="stroke:#A80036;stroke-width:1.3;" x1="115.05" x2="524.55" y1="158.5492" y2="158.5492"/><text fill="#000000" font-family="sans-serif" font-size="16.9" lengthAdjust="spacing" textLength="205.4" x="124.15" y="152.2358">starts the client registration</text><polygon fill="#A80036" points="900.25,192.8063,913.25,198.0063,900.25,203.2063,905.45,198.0063" style="stroke:#A80036;stroke-width:1.3;"/><line style="stroke:#A80036;stroke-width:1.3;" x1="545.35" x2="908.05" y1="198.0063" y2="198.0063"/><text fill="#000000" font-family="sans-serif" font-size="16.9" lengthAdjust="spacing" textLength="100.1" x="554.45" y="191.6929">createClient()</text><polygon fill="#A80036" points="129.35,292.5203,116.35,297.7203,129.35,302.9203,124.15,297.7203" style="stroke:#A80036;stroke-width:1.3;"/><line style="stroke:#A80036;stroke-width:1.3;stroke-dasharray:2.0,2.0;" x1="121.55" x2="537.55" y1="297.7203" y2="297.7203"/><text fill="#000000" font-family="sans-serif" font-size="16.9" lengthAdjust="spacing" textLength="380.9" x="137.15" y="270.1499">request data (name, cardNumber, nhsId, birthDate,</text><text fill="#000000" font-family="sans-serif" font-size="16.9" lengthAdjust="spacing" textLength="232.7" x="142.35" y="291.4069">sex, TIN, phoneNumber, email)</text><polygon fill="#A80036" points="516.75,331.9773,529.75,337.1773,516.75,342.3773,521.95,337.1773" style="stroke:#A80036;stroke-width:1.3;"/><line style="stroke:#A80036;stroke-width:1.3;" x1="115.05" x2="524.55" y1="337.1773" y2="337.1773"/><text fill="#000000" font-family="sans-serif" font-size="16.9" lengthAdjust="spacing" textLength="158.6" x="124.15" y="330.864">types requested data</text><polygon fill="#A80036" points="900.25,392.6914,913.25,397.8914,900.25,403.0914,905.45,397.8914" style="stroke:#A80036;stroke-width:1.3;"/><line style="stroke:#A80036;stroke-width:1.3;" x1="545.35" x2="908.05" y1="397.8914" y2="397.8914"/><text fill="#000000" font-family="sans-serif" font-size="16.9" lengthAdjust="spacing" textLength="340.6" x="554.45" y="370.321">setData(name, cardNumber, nhsId, birthDate,</text><text fill="#000000" font-family="sans-serif" font-size="16.9" lengthAdjust="spacing" textLength="232.7" x="559.65" y="391.578">sex, TIN, phoneNumber, email)</text><polygon fill="#A80036" points="1278.55,453.4055,1291.55,458.6055,1278.55,463.8055,1283.75,458.6055" style="stroke:#A80036;stroke-width:1.3;"/><line style="stroke:#A80036;stroke-width:1.3;" x1="928.85" x2="1286.35" y1="458.6055" y2="458.6055"/><text fill="#000000" font-family="sans-serif" font-size="16.9" lengthAdjust="spacing" textLength="328.9" x="937.95" y="431.0351">create(name, cardNumber, nhsId, birthDate,</text><text fill="#000000" font-family="sans-serif" font-size="16.9" lengthAdjust="spacing" textLength="232.7" x="943.15" y="452.2921">sex, TIN, phoneNumber, email)</text><rect fill="#FEFECE" filter="url(#fo9cdmz3atl8d)" height="63.9844" style="stroke:#A80036;stroke-width:1.9500000000000002;" width="70.2" x="1294.15" y="408.2914"/><text fill="#000000" font-family="sans-serif" font-size="18.2" lengthAdjust="spacing" textLength="46.8" x="1305.85" y="436.2846">Client</text><text fill="#000000" font-family="sans-serif" font-size="18.2" lengthAdjust="spacing" textLength="52" x="1303.25" y="459.1768">:Client</text><line style="stroke:#A80036;stroke-width:1.3;" x1="1338.35" x2="1392.95" y1="542.0898" y2="542.0898"/><line style="stroke:#A80036;stroke-width:1.3;" x1="1392.95" x2="1392.95" y1="542.0898" y2="558.9898"/><line style="stroke:#A80036;stroke-width:1.3;" x1="1339.65" x2="1392.95" y1="558.9898" y2="558.9898"/><polygon fill="#A80036" points="1352.65,553.7898,1339.65,558.9898,1352.65,564.1898,1347.45,558.9898" style="stroke:#A80036;stroke-width:1.3;"/><text fill="#000000" font-family="sans-serif" font-size="16.9" lengthAdjust="spacing" textLength="208" x="1347.45" y="514.5194">validate(cardNumber, nhsId,</text><text fill="#000000" font-family="sans-serif" font-size="16.9" lengthAdjust="spacing" textLength="195" x="1352.65" y="535.7765">TIN, phoneNumber, email)</text><polygon fill="#A80036" points="559.65,593.2469,546.65,598.4469,559.65,603.6469,554.45,598.4469" style="stroke:#A80036;stroke-width:1.3;"/><line style="stroke:#A80036;stroke-width:1.3;stroke-dasharray:2.0,2.0;" x1="551.85" x2="921.05" y1="598.4469" y2="598.4469"/><text fill="#000000" font-family="sans-serif" font-size="16.9" lengthAdjust="spacing" textLength="41.6" x="567.45" y="592.1335">result</text><polygon fill="#A80036" points="129.35,632.7039,116.35,637.9039,129.35,643.1039,124.15,637.9039" style="stroke:#A80036;stroke-width:1.3;"/><line style="stroke:#A80036;stroke-width:1.3;stroke-dasharray:2.0,2.0;" x1="121.55" x2="537.55" y1="637.9039" y2="637.9039"/><text fill="#000000" font-family="sans-serif" font-size="16.9" lengthAdjust="spacing" textLength="306.8" x="137.15" y="631.5905">shows all data and requests confirmation</text><polygon fill="#A80036" points="516.75,672.1609,529.75,677.3609,516.75,682.5609,521.95,677.3609" style="stroke:#A80036;stroke-width:1.3;"/><line style="stroke:#A80036;stroke-width:1.3;" x1="115.05" x2="524.55" y1="677.3609" y2="677.3609"/><text fill="#000000" font-family="sans-serif" font-size="16.9" lengthAdjust="spacing" textLength="130" x="124.15" y="671.0476">confirms the data</text><polygon fill="#A80036" points="900.25,711.618,913.25,716.818,900.25,722.018,905.45,716.818" style="stroke:#A80036;stroke-width:1.3;"/><line style="stroke:#A80036;stroke-width:1.3;" x1="545.35" x2="908.05" y1="716.818" y2="716.818"/><text fill="#000000" font-family="sans-serif" font-size="16.9" lengthAdjust="spacing" textLength="87.1" x="554.45" y="710.5046">saveClient()</text><polygon fill="#A80036" points="1309.75,751.075,1322.75,756.275,1309.75,761.475,1314.95,756.275" style="stroke:#A80036;stroke-width:1.3;"/><line style="stroke:#A80036;stroke-width:1.3;" x1="928.85" x2="1317.55" y1="756.275" y2="756.275"/><text fill="#000000" font-family="sans-serif" font-size="16.9" lengthAdjust="spacing" textLength="130" x="937.95" y="749.9616">saveClient(Client)</text><line style="stroke:#A80036;stroke-width:1.3;" x1="1338.35" x2="1392.95" y1="795.732" y2="795.732"/><line style="stroke:#A80036;stroke-width:1.3;" x1="1392.95" x2="1392.95" y1="795.732" y2="812.632"/><line style="stroke:#A80036;stroke-width:1.3;" x1="1339.65" x2="1392.95" y1="812.632" y2="812.632"/><polygon fill="#A80036" points="1352.65,807.432,1339.65,812.632,1352.65,817.832,1347.45,812.632" style="stroke:#A80036;stroke-width:1.3;"/><text fill="#000000" font-family="sans-serif" font-size="16.9" lengthAdjust="spacing" textLength="109.2" x="1347.45" y="789.4187">validate(Client)</text><line style="stroke:#A80036;stroke-width:1.3;" x1="1338.35" x2="1392.95" y1="852.0891" y2="852.0891"/><line style="stroke:#A80036;stroke-width:1.3;" x1="1392.95" x2="1392.95" y1="852.0891" y2="868.9891"/><line style="stroke:#A80036;stroke-width:1.3;" x1="1339.65" x2="1392.95" y1="868.9891" y2="868.9891"/><polygon fill="#A80036" points="1352.65,863.7891,1339.65,868.9891,1352.65,874.1891,1347.45,868.9891" style="stroke:#A80036;stroke-width:1.3;"/><text fill="#000000" font-family="sans-serif" font-size="16.9" lengthAdjust="spacing" textLength="123.5" x="1347.45" y="845.7757">addClient(Client)</text><polygon fill="#A80036" points="559.65,903.2461,546.65,908.4461,559.65,913.6461,554.45,908.4461" style="stroke:#A80036;stroke-width:1.3;"/><line style="stroke:#A80036;stroke-width:1.3;stroke-dasharray:2.0,2.0;" x1="551.85" x2="921.05" y1="908.4461" y2="908.4461"/><text fill="#000000" font-family="sans-serif" font-size="16.9" lengthAdjust="spacing" textLength="41.6" x="567.45" y="902.1327">result</text><polygon fill="#A80036" points="122.85,942.7031,109.85,947.9031,122.85,953.1031,117.65,947.9031" style="stroke:#A80036;stroke-width:1.3;"/><line style="stroke:#A80036;stroke-width:1.3;stroke-dasharray:2.0,2.0;" x1="115.05" x2="537.55" y1="947.9031" y2="947.9031"/><text fill="#000000" font-family="sans-serif" font-size="16.9" lengthAdjust="spacing" textLength="197.6" x="130.65" y="941.5897">informs operation success</text><!--MD5=[598b27642395392fe14d27f7d29c0590]
@startuml
actor "Laboratory Receptionist" as LR
participant ":CreateCreateUI" as ui
participant ":CreateClientController" as controller
participant "Client\n:Client" as clt
participant ":???" as new

activate LR
LR -> ui : starts the client registration
activate ui
ui -> controller : createClient()
activate controller
deactivate controller
ui - -> LR : request data (name, cardNumber, nhsId, birthDate, \n sex, TIN, phoneNumber, email)
deactivate ui
LR -> ui : types requested data
activate ui
ui -> controller : setData(name, cardNumber, nhsId, birthDate, \n sex, TIN, phoneNumber, email)
activate controller
controller -> clt** : create(name, cardNumber, nhsId, birthDate, \n sex, TIN, phoneNumber, email)
activate clt
clt -> clt : validate(cardNumber, nhsId,\n TIN, phoneNumber, email)
controller - -> ui : result
deactivate clt
deactivate controller
ui - -> LR : shows all data and requests confirmation
deactivate ui
LR -> ui : confirms the data
activate ui
ui -> controller : saveClient()
activate controller
controller -> clt : saveClient(Client)
activate clt
clt -> clt : validate(Client)
clt -> clt : addClient(Client)
controller - -> ui : result
deactivate clt
deactivate controller
ui - -> LR : informs operation success
deactivate ui
deactivate LR

@enduml

PlantUML version 1.2021.00(Sun Jan 10 10:25:05 GMT 2021)
(GPL source distribution)
Java Runtime: OpenJDK Runtime Environment
JVM: OpenJDK 64-Bit Server VM
Default Encoding: Cp1252
Language: pt
Country: PT
--></g></svg>