<?xml version="1.0" encoding="UTF-8" standalone="no"?><svg xmlns="http://www.w3.org/2000/svg" xmlns:xlink="http://www.w3.org/1999/xlink" contentScriptType="application/ecmascript" contentStyleType="text/css" height="760.5px" preserveAspectRatio="none" style="width:482px;height:760px;" version="1.1" viewBox="0 0 482 760" width="482.82px" zoomAndPan="magnify"><defs><filter height="300%" id="fznc3000bubzq" width="300%" x="-1" y="-1"><feGaussianBlur result="blurOut" stdDeviation="1.56"/><feColorMatrix in="blurOut" result="blurOut2" type="matrix" values="0 0 0 0 0 0 0 0 0 0 0 0 0 0 0 0 0 0 .4 0"/><feOffset dx="3.12" dy="3.12" in="blurOut2" result="blurOut3"/><feBlend in="SourceGraphic" in2="blurOut3" mode="normal"/></filter></defs><g><!--MD5=[ed6624c6556d5e7b1bd23032162d20b7]
class Client--><rect codeLine="4" fill="#FEFECE" filter="url(#fznc3000bubzq)" height="123.7763" id="Client" style="stroke:#A80036;stroke-width:1.17;" width="64.74" x="196.95" y="506.22"/><ellipse cx="215.319" cy="518.7" fill="#ADD1B2" rx="8.58" ry="8.58" style="stroke:#A80036;stroke-width:0.78;"/><path d="M216.879,515.97 Q217.0374,515.58 217.2203,515.385 Q217.4031,515.19 217.6103,515.19 Q217.9759,515.19 218.2074,515.4094 Q218.439,515.6288 218.439,516.1406 L218.439,517.3594 Q218.439,517.8713 218.2196,518.0906 Q218.0003,518.31 217.659,518.31 Q217.3543,518.31 217.1593,518.1759 Q216.9643,518.0419 216.879,517.6884 Q216.8424,517.4447 216.7084,517.3106 Q216.4646,517.0547 216.0259,516.9084 Q215.5871,516.75 215.1484,516.75 Q214.5999,516.75 214.1368,516.9694 Q213.6859,517.1888 213.3324,517.6763 Q212.979,518.1638 212.979,518.8341 L212.979,519.5531 Q212.979,520.3575 213.6371,520.8938 Q214.2953,521.43 215.4653,521.43 Q216.1599,521.43 216.6474,521.2716 Q216.9278,521.1863 217.2446,520.9059 Q217.4518,520.7475 217.5615,520.6988 Q217.6712,520.65 217.8053,520.65 Q218.0612,520.65 218.244,520.8572 Q218.439,521.0522 218.439,521.3325 Q218.439,521.6006 218.1709,521.9175 Q217.7809,522.3806 217.1593,522.6366 Q216.3428,522.99 215.3434,522.99 Q214.1734,522.99 213.2349,522.5269 Q212.4793,522.1613 211.9431,521.3691 Q211.419,520.5769 211.419,519.6384 L211.419,518.7853 Q211.419,517.8103 211.8821,516.9572 Q212.3574,516.1041 213.174,515.6531 Q214.0028,515.19 214.929,515.19 Q215.4896,515.19 215.9771,515.385 Q216.4646,515.58 216.879,515.97 Z " fill="#000000"/><text fill="#000000" font-family="sans-serif" font-size="9.36" lengthAdjust="spacing" textLength="24.96" x="227.721" y="522.5299">Client</text><line style="stroke:#A80036;stroke-width:1.17;" x1="197.73" x2="260.91" y1="531.18" y2="531.18"/><text fill="#000000" font-family="sans-serif" font-size="8.58" lengthAdjust="spacing" textLength="23.4" x="201.63" y="543.2068">-name</text><text fill="#000000" font-family="sans-serif" font-size="8.58" lengthAdjust="spacing" textLength="49.14" x="201.63" y="553.9988">-cardNumber</text><text fill="#000000" font-family="sans-serif" font-size="8.58" lengthAdjust="spacing" textLength="36.66" x="201.63" y="564.7908">-birthDate</text><text fill="#000000" font-family="sans-serif" font-size="8.58" lengthAdjust="spacing" textLength="17.16" x="201.63" y="575.5829">-sex</text><text fill="#000000" font-family="sans-serif" font-size="8.58" lengthAdjust="spacing" textLength="24.18" x="201.63" y="586.3749">-nhsID</text><text fill="#000000" font-family="sans-serif" font-size="8.58" lengthAdjust="spacing" textLength="14.82" x="201.63" y="597.1669">-TIN</text><text fill="#000000" font-family="sans-serif" font-size="8.58" lengthAdjust="spacing" textLength="55.38" x="201.63" y="607.959">-phoneNumber</text><text fill="#000000" font-family="sans-serif" font-size="8.58" lengthAdjust="spacing" textLength="21.84" x="201.63" y="618.751">-email</text><line style="stroke:#A80036;stroke-width:1.17;" x1="197.73" x2="260.91" y1="623.7563" y2="623.7563"/><!--MD5=[03960189e81aa2c066c762ffabbee709]
class Receptionist--><rect codeLine="14" fill="#FEFECE" filter="url(#fznc3000bubzq)" height="112.9842" id="Receptionist" style="stroke:#A80036;stroke-width:1.17;" width="78.78" x="247.65" y="5.46"/><ellipse cx="259.35" cy="17.94" fill="#ADD1B2" rx="8.58" ry="8.58" style="stroke:#A80036;stroke-width:0.78;"/><path d="M260.91,15.21 Q261.0684,14.82 261.2513,14.625 Q261.4341,14.43 261.6413,14.43 Q262.0069,14.43 262.2384,14.6494 Q262.47,14.8688 262.47,15.3806 L262.47,16.5994 Q262.47,17.1113 262.2506,17.3306 Q262.0313,17.55 261.69,17.55 Q261.3853,17.55 261.1903,17.4159 Q260.9953,17.2819 260.91,16.9284 Q260.8734,16.6847 260.7394,16.5506 Q260.4956,16.2947 260.0569,16.1484 Q259.6181,15.99 259.1794,15.99 Q258.6309,15.99 258.1678,16.2094 Q257.7169,16.4288 257.3634,16.9163 Q257.01,17.4038 257.01,18.0741 L257.01,18.7931 Q257.01,19.5975 257.6681,20.1338 Q258.3263,20.67 259.4963,20.67 Q260.1909,20.67 260.6784,20.5116 Q260.9588,20.4263 261.2756,20.1459 Q261.4828,19.9875 261.5925,19.9388 Q261.7022,19.89 261.8363,19.89 Q262.0922,19.89 262.275,20.0972 Q262.47,20.2922 262.47,20.5725 Q262.47,20.8406 262.2019,21.1575 Q261.8119,21.6206 261.1903,21.8766 Q260.3738,22.23 259.3744,22.23 Q258.2044,22.23 257.2659,21.7669 Q256.5103,21.4013 255.9741,20.6091 Q255.45,19.8169 255.45,18.8784 L255.45,18.0253 Q255.45,17.0503 255.9131,16.1972 Q256.3884,15.3441 257.205,14.8931 Q258.0338,14.43 258.96,14.43 Q259.5206,14.43 260.0081,14.625 Q260.4956,14.82 260.91,15.21 Z " fill="#000000"/><text fill="#000000" font-family="sans-serif" font-size="9.36" lengthAdjust="spacing" textLength="53.82" x="270.27" y="21.7699">Receptionist</text><line style="stroke:#A80036;stroke-width:1.17;" x1="248.43" x2="325.65" y1="30.42" y2="30.42"/><text fill="#000000" font-family="sans-serif" font-size="8.58" lengthAdjust="spacing" textLength="46.02" x="252.33" y="42.4468">-employeeID</text><text fill="#000000" font-family="sans-serif" font-size="8.58" lengthAdjust="spacing" textLength="56.16" x="252.33" y="53.2388">-organizationID</text><text fill="#000000" font-family="sans-serif" font-size="8.58" lengthAdjust="spacing" textLength="23.4" x="252.33" y="64.0308">-name</text><text fill="#000000" font-family="sans-serif" font-size="8.58" lengthAdjust="spacing" textLength="34.32" x="252.33" y="74.8229">-address</text><text fill="#000000" font-family="sans-serif" font-size="8.58" lengthAdjust="spacing" textLength="55.38" x="252.33" y="85.6149">-phoneNumber</text><text fill="#000000" font-family="sans-serif" font-size="8.58" lengthAdjust="spacing" textLength="21.84" x="252.33" y="96.4069">-email</text><text fill="#000000" font-family="sans-serif" font-size="8.58" lengthAdjust="spacing" textLength="39" x="252.33" y="107.199">-SOCcode</text><line style="stroke:#A80036;stroke-width:1.17;" x1="248.43" x2="325.65" y1="112.2042" y2="112.2042"/><!--MD5=[a999c1570c205a2156b04a15307bc1ff]
class LabOrder--><rect codeLine="23" fill="#FEFECE" filter="url(#fznc3000bubzq)" height="59.0241" id="LabOrder" style="stroke:#A80036;stroke-width:1.17;" width="65.52" x="5.46" y="691.08"/><ellipse cx="17.16" cy="703.56" fill="#ADD1B2" rx="8.58" ry="8.58" style="stroke:#A80036;stroke-width:0.78;"/><path d="M18.72,700.83 Q18.8784,700.44 19.0613,700.245 Q19.2441,700.05 19.4513,700.05 Q19.8169,700.05 20.0484,700.2694 Q20.28,700.4888 20.28,701.0006 L20.28,702.2194 Q20.28,702.7313 20.0606,702.9506 Q19.8413,703.17 19.5,703.17 Q19.1953,703.17 19.0003,703.0359 Q18.8053,702.9019 18.72,702.5484 Q18.6834,702.3047 18.5494,702.1706 Q18.3056,701.9147 17.8669,701.7684 Q17.4281,701.61 16.9894,701.61 Q16.4409,701.61 15.9778,701.8294 Q15.5269,702.0488 15.1734,702.5363 Q14.82,703.0238 14.82,703.6941 L14.82,704.4131 Q14.82,705.2175 15.4781,705.7538 Q16.1363,706.29 17.3063,706.29 Q18.0009,706.29 18.4884,706.1316 Q18.7688,706.0463 19.0856,705.7659 Q19.2928,705.6075 19.4025,705.5588 Q19.5122,705.51 19.6463,705.51 Q19.9022,705.51 20.085,705.7172 Q20.28,705.9122 20.28,706.1925 Q20.28,706.4606 20.0119,706.7775 Q19.6219,707.2406 19.0003,707.4966 Q18.1838,707.85 17.1844,707.85 Q16.0144,707.85 15.0759,707.3869 Q14.3203,707.0213 13.7841,706.2291 Q13.26,705.4369 13.26,704.4984 L13.26,703.6453 Q13.26,702.6703 13.7231,701.8172 Q14.1984,700.9641 15.015,700.5131 Q15.8438,700.05 16.77,700.05 Q17.3306,700.05 17.8181,700.245 Q18.3056,700.44 18.72,700.83 Z " fill="#000000"/><text fill="#000000" font-family="sans-serif" font-size="9.36" lengthAdjust="spacing" textLength="40.56" x="28.08" y="707.3899">LabOrder</text><line style="stroke:#A80036;stroke-width:1.17;" x1="6.24" x2="70.2" y1="716.04" y2="716.04"/><text fill="#000000" font-family="sans-serif" font-size="8.58" lengthAdjust="spacing" textLength="35.88" x="10.14" y="728.0668">-testType</text><text fill="#000000" font-family="sans-serif" font-size="8.58" lengthAdjust="spacing" textLength="46.02" x="10.14" y="738.8588">-parameters</text><line style="stroke:#A80036;stroke-width:1.17;" x1="6.24" x2="70.2" y1="743.8641" y2="743.8641"/><!--MD5=[df38be88ccee13e832d6fafd6288a4ca]
class Test--><rect codeLine="27" fill="#FEFECE" filter="url(#fznc3000bubzq)" height="134.5683" id="Test" style="stroke:#A80036;stroke-width:1.17;" width="65.52" x="106.08" y="179.4"/><ellipse cx="127.608" cy="191.88" fill="#ADD1B2" rx="8.58" ry="8.58" style="stroke:#A80036;stroke-width:0.78;"/><path d="M129.168,189.15 Q129.3264,188.76 129.5093,188.565 Q129.6921,188.37 129.8993,188.37 Q130.2649,188.37 130.4964,188.5894 Q130.728,188.8088 130.728,189.3206 L130.728,190.5394 Q130.728,191.0513 130.5086,191.2706 Q130.2893,191.49 129.948,191.49 Q129.6433,191.49 129.4483,191.3559 Q129.2533,191.2219 129.168,190.8684 Q129.1314,190.6247 128.9974,190.4906 Q128.7536,190.2347 128.3149,190.0884 Q127.8761,189.93 127.4374,189.93 Q126.8889,189.93 126.4258,190.1494 Q125.9749,190.3688 125.6214,190.8563 Q125.268,191.3438 125.268,192.0141 L125.268,192.7331 Q125.268,193.5375 125.9261,194.0738 Q126.5843,194.61 127.7543,194.61 Q128.4489,194.61 128.9364,194.4516 Q129.2168,194.3663 129.5336,194.0859 Q129.7408,193.9275 129.8505,193.8788 Q129.9602,193.83 130.0943,193.83 Q130.3502,193.83 130.533,194.0372 Q130.728,194.2322 130.728,194.5125 Q130.728,194.7806 130.4599,195.0975 Q130.0699,195.5606 129.4483,195.8166 Q128.6318,196.17 127.6324,196.17 Q126.4624,196.17 125.5239,195.7069 Q124.7683,195.3413 124.2321,194.5491 Q123.708,193.7569 123.708,192.8184 L123.708,191.9653 Q123.708,190.9903 124.1711,190.1372 Q124.6464,189.2841 125.463,188.8331 Q126.2918,188.37 127.218,188.37 Q127.7786,188.37 128.2661,188.565 Q128.7536,188.76 129.168,189.15 Z " fill="#000000"/><text fill="#000000" font-family="sans-serif" font-size="9.36" lengthAdjust="spacing" textLength="18.72" x="140.712" y="195.7099">Test</text><line style="stroke:#A80036;stroke-width:1.17;" x1="106.86" x2="170.82" y1="204.36" y2="204.36"/><text fill="#000000" font-family="sans-serif" font-size="8.58" lengthAdjust="spacing" textLength="49.92" x="110.76" y="216.3868">-internalCode</text><text fill="#000000" font-family="sans-serif" font-size="8.58" lengthAdjust="spacing" textLength="36.66" x="110.76" y="227.1788">-nhsCode</text><text fill="#000000" font-family="sans-serif" font-size="8.58" lengthAdjust="spacing" textLength="40.56" x="110.76" y="237.9708">-createdAt</text><text fill="#000000" font-family="sans-serif" font-size="8.58" lengthAdjust="spacing" textLength="52.26" x="110.76" y="248.7629">-dateAnalysis</text><text fill="#000000" font-family="sans-serif" font-size="8.58" lengthAdjust="spacing" textLength="50.7" x="110.76" y="259.5549">-timeAnalysis</text><text fill="#000000" font-family="sans-serif" font-size="8.58" lengthAdjust="spacing" textLength="56.16" x="110.76" y="270.3469">-dateDiagnosis</text><text fill="#000000" font-family="sans-serif" font-size="8.58" lengthAdjust="spacing" textLength="54.6" x="110.76" y="281.139">-timeDiagnosis</text><text fill="#000000" font-family="sans-serif" font-size="8.58" lengthAdjust="spacing" textLength="56.16" x="110.76" y="291.931">-dateValidation</text><text fill="#000000" font-family="sans-serif" font-size="8.58" lengthAdjust="spacing" textLength="54.6" x="110.76" y="302.723">-timeValidation</text><line style="stroke:#A80036;stroke-width:1.17;" x1="106.86" x2="170.82" y1="307.7283" y2="307.7283"/><!--MD5=[9681492165142af2a4a3a169d90ee8d4]
class Sample--><rect codeLine="38" fill="#FEFECE" filter="url(#fznc3000bubzq)" height="69.8161" id="Sample" style="stroke:#A80036;stroke-width:1.17;" width="64.74" x="106.47" y="375.18"/><ellipse cx="120.978" cy="387.66" fill="#ADD1B2" rx="8.58" ry="8.58" style="stroke:#A80036;stroke-width:0.78;"/><path d="M122.538,384.93 Q122.6964,384.54 122.8793,384.345 Q123.0621,384.15 123.2693,384.15 Q123.6349,384.15 123.8664,384.3694 Q124.098,384.5888 124.098,385.1006 L124.098,386.3194 Q124.098,386.8313 123.8786,387.0506 Q123.6593,387.27 123.318,387.27 Q123.0133,387.27 122.8183,387.1359 Q122.6233,387.0019 122.538,386.6484 Q122.5014,386.4047 122.3674,386.2706 Q122.1236,386.0147 121.6849,385.8684 Q121.2461,385.71 120.8074,385.71 Q120.2589,385.71 119.7958,385.9294 Q119.3449,386.1488 118.9914,386.6363 Q118.638,387.1238 118.638,387.7941 L118.638,388.5131 Q118.638,389.3175 119.2961,389.8538 Q119.9543,390.39 121.1243,390.39 Q121.8189,390.39 122.3064,390.2316 Q122.5868,390.1463 122.9036,389.8659 Q123.1108,389.7075 123.2205,389.6588 Q123.3302,389.61 123.4642,389.61 Q123.7202,389.61 123.903,389.8172 Q124.098,390.0122 124.098,390.2925 Q124.098,390.5606 123.8299,390.8775 Q123.4399,391.3406 122.8183,391.5966 Q122.0018,391.95 121.0024,391.95 Q119.8324,391.95 118.8939,391.4869 Q118.1383,391.1213 117.6021,390.3291 Q117.078,389.5369 117.078,388.5984 L117.078,387.7453 Q117.078,386.7703 117.5411,385.9172 Q118.0164,385.0641 118.833,384.6131 Q119.6618,384.15 120.588,384.15 Q121.1486,384.15 121.6361,384.345 Q122.1236,384.54 122.538,384.93 Z " fill="#000000"/><text fill="#000000" font-family="sans-serif" font-size="9.36" lengthAdjust="spacing" textLength="33.54" x="132.522" y="391.4899">Sample</text><line style="stroke:#A80036;stroke-width:1.17;" x1="107.25" x2="170.43" y1="400.14" y2="400.14"/><text fill="#000000" font-family="sans-serif" font-size="8.58" lengthAdjust="spacing" textLength="34.32" x="111.15" y="412.1668">-barcode</text><text fill="#000000" font-family="sans-serif" font-size="8.58" lengthAdjust="spacing" textLength="55.38" x="111.15" y="422.9588">-dateCollection</text><text fill="#000000" font-family="sans-serif" font-size="8.58" lengthAdjust="spacing" textLength="53.82" x="111.15" y="433.7508">-timeCollection</text><line style="stroke:#A80036;stroke-width:1.17;" x1="107.25" x2="170.43" y1="438.7561" y2="438.7561"/><!--MD5=[02e4b9b7573f1156f41e60aa5b4e25a4]
class Company--><rect codeLine="43" fill="#FEFECE" filter="url(#fznc3000bubzq)" height="48.232" id="Company" style="stroke:#A80036;stroke-width:1.17;" width="66.3" x="327.21" y="386.1"/><ellipse cx="338.91" cy="398.58" fill="#ADD1B2" rx="8.58" ry="8.58" style="stroke:#A80036;stroke-width:0.78;"/><path d="M340.47,395.85 Q340.6284,395.46 340.8113,395.265 Q340.9941,395.07 341.2013,395.07 Q341.5669,395.07 341.7984,395.2894 Q342.03,395.5088 342.03,396.0206 L342.03,397.2394 Q342.03,397.7513 341.8106,397.9706 Q341.5913,398.19 341.25,398.19 Q340.9453,398.19 340.7503,398.0559 Q340.5553,397.9219 340.47,397.5684 Q340.4334,397.3247 340.2994,397.1906 Q340.0556,396.9347 339.6169,396.7884 Q339.1781,396.63 338.7394,396.63 Q338.1909,396.63 337.7278,396.8494 Q337.2769,397.0688 336.9234,397.5563 Q336.57,398.0438 336.57,398.7141 L336.57,399.4331 Q336.57,400.2375 337.2281,400.7738 Q337.8863,401.31 339.0563,401.31 Q339.7509,401.31 340.2384,401.1516 Q340.5188,401.0663 340.8356,400.7859 Q341.0428,400.6275 341.1525,400.5788 Q341.2622,400.53 341.3963,400.53 Q341.6522,400.53 341.835,400.7372 Q342.03,400.9322 342.03,401.2125 Q342.03,401.4806 341.7619,401.7975 Q341.3719,402.2606 340.7503,402.5166 Q339.9338,402.87 338.9344,402.87 Q337.7644,402.87 336.8259,402.4069 Q336.0703,402.0413 335.5341,401.2491 Q335.01,400.4569 335.01,399.5184 L335.01,398.6653 Q335.01,397.6903 335.4731,396.8372 Q335.9484,395.9841 336.765,395.5331 Q337.5938,395.07 338.52,395.07 Q339.0806,395.07 339.5681,395.265 Q340.0556,395.46 340.47,395.85 Z " fill="#000000"/><text fill="#000000" font-family="sans-serif" font-size="9.36" lengthAdjust="spacing" textLength="41.34" x="349.83" y="402.4099">Company</text><line style="stroke:#A80036;stroke-width:1.17;" x1="327.99" x2="392.73" y1="411.06" y2="411.06"/><text fill="#000000" font-family="sans-serif" font-size="8.58" lengthAdjust="spacing" textLength="46.02" x="331.89" y="423.0868">-designation</text><line style="stroke:#A80036;stroke-width:1.17;" x1="327.99" x2="392.73" y1="428.092" y2="428.092"/><!--MD5=[0bde84c484199f8c429a86e32cc6847f]
link Client to LabOrder--><path codeLine="47" d="M196.9032,594.6096 C161.8656,622.284 106.3374,666.1434 71.1204,693.9582 " fill="none" id="Client-LabOrder" style="stroke:#A80036;stroke-width:0.78;"/><polygon fill="#000000" points="117.8395,663.2144,124.7968,660.6404,121.9551,657.0426,117.8395,663.2144" style="stroke:#000000;stroke-width:0.78;"/><text fill="#000000" font-family="sans-serif" font-size="10.14" lengthAdjust="spacing" textLength="24.96" x="127.92" y="664.9462">has a</text><text fill="#000000" font-family="sans-serif" font-size="10.14" lengthAdjust="spacing" textLength="5.46" x="185.1827" y="596.2893">1</text><text fill="#000000" font-family="sans-serif" font-size="10.14" lengthAdjust="spacing" textLength="3.9" x="77.3281" y="686.1732">*</text><!--MD5=[6a35157f4c730bda767e7c9f1b8b7f73]
link Receptionist to Client--><path codeLine="48" d="M326.5938,112.7256 C381.0456,187.9956 466.0266,333.5748 407.16,445.38 C376.545,503.5368 304.3248,539.3232 261.9318,556.0776 " fill="none" id="Receptionist-Client" style="stroke:#A80036;stroke-width:0.78;"/><polygon fill="#000000" points="429.9971,348.7563,433.2837,342.1058,428.747,341.4441,429.9971,348.7563" style="stroke:#000000;stroke-width:0.78;"/><text fill="#000000" font-family="sans-serif" font-size="10.14" lengthAdjust="spacing" textLength="39" x="437.58" y="349.0462">registers</text><text fill="#000000" font-family="sans-serif" font-size="10.14" lengthAdjust="spacing" textLength="5.46" x="332.54" y="117.0536">1</text><text fill="#000000" font-family="sans-serif" font-size="10.14" lengthAdjust="spacing" textLength="3.9" x="267.8721" y="551.0071">*</text><!--MD5=[a23f50aea1fcb140948e132a9bfce5a1]
link Sample to Client--><path codeLine="49" d="M131.7108,445.458 C130.7046,457.704 131.4144,471.2994 136.5,482.82 C148.785,510.6504 175.2426,533.2782 196.7784,548.1138 " fill="none" id="Sample-Client" style="stroke:#A80036;stroke-width:0.78;"/><polygon fill="#000000" points="142.4879,479.2311,140.647,472.0449,136.7747,474.4994,142.4879,479.2311" style="stroke:#000000;stroke-width:0.78;"/><text fill="#000000" font-family="sans-serif" font-size="10.14" lengthAdjust="spacing" textLength="60.84" x="147.42" y="480.0862">associated to</text><text fill="#000000" font-family="sans-serif" font-size="10.14" lengthAdjust="spacing" textLength="3.9" x="126.534" y="461.8549">*</text><text fill="#000000" font-family="sans-serif" font-size="10.14" lengthAdjust="spacing" textLength="5.46" x="185.2561" y="541.6745">1</text><!--MD5=[3994f36c72829dbcddd1cf7021dddf61]
link Test to Client--><path codeLine="50" d="M171.7326,278.2806 C186.8178,294.411 203.2836,315.4476 212.16,337.74 C233.6802,391.8018 236.2854,458.6166 234.5148,506.22 " fill="none" id="Test-Client" style="stroke:#A80036;stroke-width:0.78;"/><polygon fill="#000000" points="238.1556,414.1771,238.4922,406.7665,234.0721,407.9839,238.1556,414.1771" style="stroke:#000000;stroke-width:0.78;"/><text fill="#000000" font-family="sans-serif" font-size="10.14" lengthAdjust="spacing" textLength="58.5" x="244.14" y="414.5662">requested by</text><text fill="#000000" font-family="sans-serif" font-size="10.14" lengthAdjust="spacing" textLength="3.9" x="177.9389" y="280.8678">*</text><text fill="#000000" font-family="sans-serif" font-size="10.14" lengthAdjust="spacing" textLength="5.46" x="229.2897" y="497.7858">1</text><!--MD5=[e8b34c2e6517a986175307f5599f058a]
link Receptionist to Test--><path codeLine="51" d="M247.5174,111.6726 C223.8522,140.9382 194.1186,177.7152 171.7404,205.3974 " fill="none" id="Receptionist-Test" style="stroke:#A80036;stroke-width:0.78;"/><polygon fill="#000000" points="222.968,152.1499,229.1863,148.1048,225.6211,145.2223,222.968,152.1499" style="stroke:#000000;stroke-width:0.78;"/><text fill="#000000" font-family="sans-serif" font-size="10.14" lengthAdjust="spacing" textLength="39" x="232.44" y="153.2662">registers</text><text fill="#000000" font-family="sans-serif" font-size="10.14" lengthAdjust="spacing" textLength="5.46" x="235.8515" y="116.1251">1</text><text fill="#000000" font-family="sans-serif" font-size="10.14" lengthAdjust="spacing" textLength="3.9" x="177.9481" y="195.0023">*</text><!--MD5=[1ae83efc6d1967ce5bc17dfe294d00c2]
link Sample to Test--><path codeLine="52" d="M137.2098,375.0162 C136.9134,367.3644 136.656,359.2992 136.5,351.78 C136.2582,339.7602 136.2972,326.9526 136.4922,314.5896 " fill="none" id="Sample-Test" style="stroke:#A80036;stroke-width:0.78;"/><polygon fill="#000000" points="140.3537,340.9974,138.1453,348.0793,142.7297,348.0248,140.3537,340.9974" style="stroke:#000000;stroke-width:0.78;"/><text fill="#000000" font-family="sans-serif" font-size="10.14" lengthAdjust="spacing" textLength="60.84" x="147.42" y="349.0462">associated to</text><text fill="#000000" font-family="sans-serif" font-size="10.14" lengthAdjust="spacing" textLength="3.9" x="132.7616" y="366.7575">*</text><text fill="#000000" font-family="sans-serif" font-size="10.14" lengthAdjust="spacing" textLength="5.46" x="130.6434" y="330.8031">1</text><!--MD5=[b72ac8ab7fb5921fceb5036a3902baea]
link Test to Sample--><path codeLine="53" d="M106.0176,290.2692 C96.8682,304.5744 88.1556,321.1338 83.46,337.74 C78.0624,356.8188 91.3926,374.5014 106.3296,387.543 " fill="none" id="Test-Sample" style="stroke:#A80036;stroke-width:0.78;"/><polygon fill="#000000" points="87.3725,348.7971,89.6422,341.7346,85.0575,341.7493,87.3725,348.7971" style="stroke:#000000;stroke-width:0.78;"/><text fill="#000000" font-family="sans-serif" font-size="10.14" lengthAdjust="spacing" textLength="35.1" x="94.38" y="349.0462">collects</text><text fill="#000000" font-family="sans-serif" font-size="10.14" lengthAdjust="spacing" textLength="5.46" x="94.447" y="309.3826">1</text><text fill="#000000" font-family="sans-serif" font-size="10.14" lengthAdjust="spacing" textLength="3.9" x="96.2913" y="380.4863">*</text><!--MD5=[7ae31b06ecb5db678e40497ee74dd179]
link Test to LabOrder--><path codeLine="54" d="M106.0332,285.7998 C94.7466,300.9942 83.2416,319.2618 76.44,337.74 C30.3654,462.8988 32.955,625.7706 36.2934,691.041 " fill="none" id="Test-LabOrder" style="stroke:#A80036;stroke-width:0.78;"/><polygon fill="#000000" points="48.4786,479.7806,51.9343,473.2164,47.416,472.4389,48.4786,479.7806" style="stroke:#000000;stroke-width:0.78;"/><text fill="#000000" font-family="sans-serif" font-size="10.14" lengthAdjust="spacing" textLength="35.88" x="56.16" y="480.0862">requires</text><text fill="#000000" font-family="sans-serif" font-size="10.14" lengthAdjust="spacing" textLength="5.46" x="94.4653" y="289.5201">1</text><text fill="#000000" font-family="sans-serif" font-size="10.14" lengthAdjust="spacing" textLength="5.46" x="29.9748" y="682.5135">1</text><!--MD5=[6eee883fdf517d3604e8bd0f2058e9aa]
link Company to Client--><path codeLine="55" d="M340.743,434.4756 C319.8936,459.3576 286.5876,499.1064 261.807,528.6762 " fill="none" id="Company-Client" style="stroke:#A80036;stroke-width:0.78;"/><polygon fill="#000000" points="311.0551,478.9264,317.3435,474.9911,313.8294,472.0464,311.0551,478.9264" style="stroke:#000000;stroke-width:0.78;"/><text fill="#000000" font-family="sans-serif" font-size="10.14" lengthAdjust="spacing" textLength="16.38" x="320.58" y="480.0862">has</text><text fill="#000000" font-family="sans-serif" font-size="10.14" lengthAdjust="spacing" textLength="5.46" x="330.8834" y="451.0334">1</text><text fill="#000000" font-family="sans-serif" font-size="10.14" lengthAdjust="spacing" textLength="15.6" x="267.9759" y="519.7499">1..*</text><!--MD5=[477405d04b265f9650799f7ce143e22e]
@startuml

skinparam classAttributeIconSize 0

class Client {
-name
-cardNumber
-birthDate
-sex
-nhsID
-TIN
-phoneNumber
-email
}
class Receptionist {
-employeeID
-organizationID
-name
-address
-phoneNumber
-email
-SOCcode
}
class LabOrder {
-testType
-parameters
}
class Test {
-internalCode
-nhsCode
-createdAt
-dateAnalysis
-timeAnalysis
-dateDiagnosis
-timeDiagnosis
-dateValidation
-timeValidation
}
class Sample {
-barcode
-dateCollection
-timeCollection
}
class Company{
-designation
}

Client "1"- -"*" LabOrder : has a >
Receptionist "1"- -"*" Client : registers >
Sample "*"- -"1" Client : associated to >
Test "*"- -"1" Client : requested by >
Receptionist "1"- -"*" Test : registers >
Sample "*"- -"1" Test : associated to >
Test "1"- -"*" Sample : collects >
Test "1"- -"1" LabOrder : requires >
Company "1"- -"1..*" Client : has >



@enduml

PlantUML version 1.2021.00(Sun Jan 10 10:25:05 GMT 2021)
(GPL source distribution)
Java Runtime: OpenJDK Runtime Environment
JVM: OpenJDK 64-Bit Server VM
Default Encoding: Cp1252
Language: pt
Country: PT
--></g></svg>