<?xml version="1.0" encoding="UTF-8" standalone="no"?><svg xmlns="http://www.w3.org/2000/svg" xmlns:xlink="http://www.w3.org/1999/xlink" contentScriptType="application/ecmascript" contentStyleType="text/css" height="1014px" preserveAspectRatio="none" style="width:364px;height:1014px;" version="1.1" viewBox="0 0 364 1014" width="364px" zoomAndPan="magnify"><defs><filter height="300%" id="faqccx1vqcfxo" width="300%" x="-1" y="-1"><feGaussianBlur result="blurOut" stdDeviation="2.08"/><feColorMatrix in="blurOut" result="blurOut2" type="matrix" values="0 0 0 0 0 0 0 0 0 0 0 0 0 0 0 0 0 0 .4 0"/><feOffset dx="4.16" dy="4.16" in="blurOut2" result="blurOut3"/><feBlend in="SourceGraphic" in2="blurOut3" mode="normal"/></filter></defs><g><!--MD5=[ed6624c6556d5e7b1bd23032162d20b7]
class Client--><rect codeLine="4" fill="#FEFECE" filter="url(#faqccx1vqcfxo)" height="165.035" id="Client" style="stroke:#A80036;stroke-width:1.56;" width="86.32" x="78" y="674.96"/><ellipse cx="102.492" cy="691.6" fill="#ADD1B2" rx="11.44" ry="11.44" style="stroke:#A80036;stroke-width:1.04;"/><path d="M104.572,687.96 Q104.7833,687.44 105.027,687.18 Q105.2708,686.92 105.547,686.92 Q106.0345,686.92 106.3433,687.2125 Q106.652,687.505 106.652,688.1875 L106.652,689.8125 Q106.652,690.495 106.3595,690.7875 Q106.067,691.08 105.612,691.08 Q105.2058,691.08 104.9458,690.9013 Q104.6858,690.7225 104.572,690.2513 Q104.5233,689.9263 104.3445,689.7475 Q104.0195,689.4063 103.4345,689.2113 Q102.8495,689 102.2645,689 Q101.5333,689 100.9158,689.2925 Q100.3145,689.585 99.8433,690.235 Q99.372,690.885 99.372,691.7788 L99.372,692.7375 Q99.372,693.81 100.2495,694.525 Q101.127,695.24 102.687,695.24 Q103.6133,695.24 104.2633,695.0288 Q104.637,694.915 105.0595,694.5413 Q105.3358,694.33 105.482,694.265 Q105.6283,694.2 105.807,694.2 Q106.1483,694.2 106.392,694.4763 Q106.652,694.7363 106.652,695.11 Q106.652,695.4675 106.2945,695.89 Q105.7745,696.5075 104.9458,696.8488 Q103.857,697.32 102.5245,697.32 Q100.9645,697.32 99.7133,696.7025 Q98.7058,696.215 97.9908,695.1588 Q97.292,694.1025 97.292,692.8513 L97.292,691.7138 Q97.292,690.4138 97.9095,689.2763 Q98.5433,688.1388 99.632,687.5375 Q100.737,686.92 101.972,686.92 Q102.7195,686.92 103.3695,687.18 Q104.0195,687.44 104.572,687.96 Z " fill="#000000"/><text fill="#000000" font-family="sans-serif" font-size="12.48" lengthAdjust="spacing" textLength="33.28" x="119.028" y="696.7066">Client</text><line style="stroke:#A80036;stroke-width:1.56;" x1="79.04" x2="163.28" y1="708.24" y2="708.24"/><text fill="#000000" font-family="sans-serif" font-size="11.44" lengthAdjust="spacing" textLength="31.2" x="84.24" y="724.2757">-name</text><text fill="#000000" font-family="sans-serif" font-size="11.44" lengthAdjust="spacing" textLength="65.52" x="84.24" y="738.6651">-cardNumber</text><text fill="#000000" font-family="sans-serif" font-size="11.44" lengthAdjust="spacing" textLength="48.88" x="84.24" y="753.0545">-birthDate</text><text fill="#000000" font-family="sans-serif" font-size="11.44" lengthAdjust="spacing" textLength="22.88" x="84.24" y="767.4438">-sex</text><text fill="#000000" font-family="sans-serif" font-size="11.44" lengthAdjust="spacing" textLength="32.24" x="84.24" y="781.8332">-nhsID</text><text fill="#000000" font-family="sans-serif" font-size="11.44" lengthAdjust="spacing" textLength="18.72" x="84.24" y="796.2226">-TIF</text><text fill="#000000" font-family="sans-serif" font-size="11.44" lengthAdjust="spacing" textLength="73.84" x="84.24" y="810.612">-phoneNumber</text><text fill="#000000" font-family="sans-serif" font-size="11.44" lengthAdjust="spacing" textLength="29.12" x="84.24" y="825.0013">-email</text><line style="stroke:#A80036;stroke-width:1.56;" x1="79.04" x2="163.28" y1="831.675" y2="831.675"/><!--MD5=[03960189e81aa2c066c762ffabbee709]
class Receptionist--><rect codeLine="14" fill="#FEFECE" filter="url(#faqccx1vqcfxo)" height="150.6456" id="Receptionist" style="stroke:#A80036;stroke-width:1.56;" width="105.04" x="7.28" y="7.28"/><ellipse cx="22.88" cy="23.92" fill="#ADD1B2" rx="11.44" ry="11.44" style="stroke:#A80036;stroke-width:1.04;"/><path d="M24.96,20.28 Q25.1713,19.76 25.415,19.5 Q25.6588,19.24 25.935,19.24 Q26.4225,19.24 26.7313,19.5325 Q27.04,19.825 27.04,20.5075 L27.04,22.1325 Q27.04,22.815 26.7475,23.1075 Q26.455,23.4 26,23.4 Q25.5938,23.4 25.3338,23.2213 Q25.0738,23.0425 24.96,22.5713 Q24.9113,22.2463 24.7325,22.0675 Q24.4075,21.7263 23.8225,21.5313 Q23.2375,21.32 22.6525,21.32 Q21.9213,21.32 21.3038,21.6125 Q20.7025,21.905 20.2313,22.555 Q19.76,23.205 19.76,24.0988 L19.76,25.0575 Q19.76,26.13 20.6375,26.845 Q21.515,27.56 23.075,27.56 Q24.0013,27.56 24.6513,27.3488 Q25.025,27.235 25.4475,26.8613 Q25.7238,26.65 25.87,26.585 Q26.0163,26.52 26.195,26.52 Q26.5363,26.52 26.78,26.7963 Q27.04,27.0563 27.04,27.43 Q27.04,27.7875 26.6825,28.21 Q26.1625,28.8275 25.3338,29.1688 Q24.245,29.64 22.9125,29.64 Q21.3525,29.64 20.1013,29.0225 Q19.0938,28.535 18.3788,27.4788 Q17.68,26.4225 17.68,25.1713 L17.68,24.0338 Q17.68,22.7338 18.2975,21.5963 Q18.9313,20.4588 20.02,19.8575 Q21.125,19.24 22.36,19.24 Q23.1075,19.24 23.7575,19.5 Q24.4075,19.76 24.96,20.28 Z " fill="#000000"/><text fill="#000000" font-family="sans-serif" font-size="12.48" lengthAdjust="spacing" textLength="71.76" x="37.44" y="29.0266">Receptionist</text><line style="stroke:#A80036;stroke-width:1.56;" x1="8.32" x2="111.28" y1="40.56" y2="40.56"/><text fill="#000000" font-family="sans-serif" font-size="11.44" lengthAdjust="spacing" textLength="61.36" x="13.52" y="56.5957">-employeeID</text><text fill="#000000" font-family="sans-serif" font-size="11.44" lengthAdjust="spacing" textLength="74.88" x="13.52" y="70.9851">-organizationID</text><text fill="#000000" font-family="sans-serif" font-size="11.44" lengthAdjust="spacing" textLength="31.2" x="13.52" y="85.3745">-name</text><text fill="#000000" font-family="sans-serif" font-size="11.44" lengthAdjust="spacing" textLength="45.76" x="13.52" y="99.7638">-address</text><text fill="#000000" font-family="sans-serif" font-size="11.44" lengthAdjust="spacing" textLength="73.84" x="13.52" y="114.1532">-phoneNumber</text><text fill="#000000" font-family="sans-serif" font-size="11.44" lengthAdjust="spacing" textLength="29.12" x="13.52" y="128.5426">-email</text><text fill="#000000" font-family="sans-serif" font-size="11.44" lengthAdjust="spacing" textLength="52" x="13.52" y="142.932">-SOCcode</text><line style="stroke:#A80036;stroke-width:1.56;" x1="8.32" x2="111.28" y1="149.6056" y2="149.6056"/><!--MD5=[a999c1570c205a2156b04a15307bc1ff]
class LabOrder--><rect codeLine="23" fill="#FEFECE" filter="url(#faqccx1vqcfxo)" height="78.6988" id="LabOrder" style="stroke:#A80036;stroke-width:1.56;" width="87.36" x="77.48" y="921.44"/><ellipse cx="93.08" cy="938.08" fill="#ADD1B2" rx="11.44" ry="11.44" style="stroke:#A80036;stroke-width:1.04;"/><path d="M95.16,934.44 Q95.3713,933.92 95.615,933.66 Q95.8588,933.4 96.135,933.4 Q96.6225,933.4 96.9313,933.6925 Q97.24,933.985 97.24,934.6675 L97.24,936.2925 Q97.24,936.975 96.9475,937.2675 Q96.655,937.56 96.2,937.56 Q95.7938,937.56 95.5338,937.3813 Q95.2738,937.2025 95.16,936.7313 Q95.1113,936.4063 94.9325,936.2275 Q94.6075,935.8863 94.0225,935.6913 Q93.4375,935.48 92.8525,935.48 Q92.1213,935.48 91.5038,935.7725 Q90.9025,936.065 90.4313,936.715 Q89.96,937.365 89.96,938.2588 L89.96,939.2175 Q89.96,940.29 90.8375,941.005 Q91.715,941.72 93.275,941.72 Q94.2013,941.72 94.8513,941.5088 Q95.225,941.395 95.6475,941.0213 Q95.9238,940.81 96.07,940.745 Q96.2163,940.68 96.395,940.68 Q96.7363,940.68 96.98,940.9563 Q97.24,941.2163 97.24,941.59 Q97.24,941.9475 96.8825,942.37 Q96.3625,942.9875 95.5338,943.3288 Q94.445,943.8 93.1125,943.8 Q91.5525,943.8 90.3013,943.1825 Q89.2938,942.695 88.5788,941.6388 Q87.88,940.5825 87.88,939.3313 L87.88,938.1938 Q87.88,936.8938 88.4975,935.7563 Q89.1313,934.6188 90.22,934.0175 Q91.325,933.4 92.56,933.4 Q93.3075,933.4 93.9575,933.66 Q94.6075,933.92 95.16,934.44 Z " fill="#000000"/><text fill="#000000" font-family="sans-serif" font-size="12.48" lengthAdjust="spacing" textLength="54.08" x="107.64" y="943.1866">LabOrder</text><line style="stroke:#A80036;stroke-width:1.56;" x1="78.52" x2="163.8" y1="954.72" y2="954.72"/><text fill="#000000" font-family="sans-serif" font-size="11.44" lengthAdjust="spacing" textLength="47.84" x="83.72" y="970.7557">-testType</text><text fill="#000000" font-family="sans-serif" font-size="11.44" lengthAdjust="spacing" textLength="61.36" x="83.72" y="985.1451">-parameters</text><line style="stroke:#A80036;stroke-width:1.56;" x1="78.52" x2="163.8" y1="991.8188" y2="991.8188"/><!--MD5=[df38be88ccee13e832d6fafd6288a4ca]
class Test--><rect codeLine="27" fill="#FEFECE" filter="url(#faqccx1vqcfxo)" height="179.4244" id="Test" style="stroke:#A80036;stroke-width:1.56;" width="87.36" x="110.76" y="239.2"/><ellipse cx="139.464" cy="255.84" fill="#ADD1B2" rx="11.44" ry="11.44" style="stroke:#A80036;stroke-width:1.04;"/><path d="M141.544,252.2 Q141.7553,251.68 141.999,251.42 Q142.2428,251.16 142.519,251.16 Q143.0065,251.16 143.3153,251.4525 Q143.624,251.745 143.624,252.4275 L143.624,254.0525 Q143.624,254.735 143.3315,255.0275 Q143.039,255.32 142.584,255.32 Q142.1778,255.32 141.9178,255.1413 Q141.6578,254.9625 141.544,254.4913 Q141.4953,254.1663 141.3165,253.9875 Q140.9915,253.6463 140.4065,253.4513 Q139.8215,253.24 139.2365,253.24 Q138.5053,253.24 137.8878,253.5325 Q137.2865,253.825 136.8153,254.475 Q136.344,255.125 136.344,256.0188 L136.344,256.9775 Q136.344,258.05 137.2215,258.765 Q138.099,259.48 139.659,259.48 Q140.5853,259.48 141.2353,259.2688 Q141.609,259.155 142.0315,258.7813 Q142.3078,258.57 142.454,258.505 Q142.6003,258.44 142.779,258.44 Q143.1203,258.44 143.364,258.7163 Q143.624,258.9763 143.624,259.35 Q143.624,259.7075 143.2665,260.13 Q142.7465,260.7475 141.9178,261.0888 Q140.829,261.56 139.4965,261.56 Q137.9365,261.56 136.6853,260.9425 Q135.6778,260.455 134.9628,259.3988 Q134.264,258.3425 134.264,257.0913 L134.264,255.9538 Q134.264,254.6538 134.8815,253.5163 Q135.5153,252.3788 136.604,251.7775 Q137.709,251.16 138.944,251.16 Q139.6915,251.16 140.3415,251.42 Q140.9915,251.68 141.544,252.2 Z " fill="#000000"/><text fill="#000000" font-family="sans-serif" font-size="12.48" lengthAdjust="spacing" textLength="24.96" x="156.936" y="260.9466">Test</text><line style="stroke:#A80036;stroke-width:1.56;" x1="111.8" x2="197.08" y1="272.48" y2="272.48"/><text fill="#000000" font-family="sans-serif" font-size="11.44" lengthAdjust="spacing" textLength="66.56" x="117" y="288.5157">-internalCode</text><text fill="#000000" font-family="sans-serif" font-size="11.44" lengthAdjust="spacing" textLength="48.88" x="117" y="302.9051">-nhsCode</text><text fill="#000000" font-family="sans-serif" font-size="11.44" lengthAdjust="spacing" textLength="54.08" x="117" y="317.2945">-createdAt</text><text fill="#000000" font-family="sans-serif" font-size="11.44" lengthAdjust="spacing" textLength="69.68" x="117" y="331.6838">-dateAnalysis</text><text fill="#000000" font-family="sans-serif" font-size="11.44" lengthAdjust="spacing" textLength="67.6" x="117" y="346.0732">-timeAnalysis</text><text fill="#000000" font-family="sans-serif" font-size="11.44" lengthAdjust="spacing" textLength="74.88" x="117" y="360.4626">-dateDiagnosis</text><text fill="#000000" font-family="sans-serif" font-size="11.44" lengthAdjust="spacing" textLength="72.8" x="117" y="374.852">-timeDiagnosis</text><text fill="#000000" font-family="sans-serif" font-size="11.44" lengthAdjust="spacing" textLength="74.88" x="117" y="389.2413">-dateValidation</text><text fill="#000000" font-family="sans-serif" font-size="11.44" lengthAdjust="spacing" textLength="72.8" x="117" y="403.6307">-timeValidation</text><line style="stroke:#A80036;stroke-width:1.56;" x1="111.8" x2="197.08" y1="410.3044" y2="410.3044"/><!--MD5=[9681492165142af2a4a3a169d90ee8d4]
class Sample--><rect codeLine="38" fill="#FEFECE" filter="url(#faqccx1vqcfxo)" height="93.0881" id="Sample" style="stroke:#A80036;stroke-width:1.56;" width="86.32" x="251.68" y="500.24"/><ellipse cx="271.024" cy="516.88" fill="#ADD1B2" rx="11.44" ry="11.44" style="stroke:#A80036;stroke-width:1.04;"/><path d="M273.104,513.24 Q273.3153,512.72 273.559,512.46 Q273.8028,512.2 274.079,512.2 Q274.5665,512.2 274.8753,512.4925 Q275.184,512.785 275.184,513.4675 L275.184,515.0925 Q275.184,515.775 274.8915,516.0675 Q274.599,516.36 274.144,516.36 Q273.7378,516.36 273.4778,516.1813 Q273.2178,516.0025 273.104,515.5313 Q273.0553,515.2063 272.8765,515.0275 Q272.5515,514.6863 271.9665,514.4913 Q271.3815,514.28 270.7965,514.28 Q270.0653,514.28 269.4478,514.5725 Q268.8465,514.865 268.3753,515.515 Q267.904,516.165 267.904,517.0588 L267.904,518.0175 Q267.904,519.09 268.7815,519.805 Q269.659,520.52 271.219,520.52 Q272.1453,520.52 272.7953,520.3088 Q273.169,520.195 273.5915,519.8213 Q273.8678,519.61 274.014,519.545 Q274.1603,519.48 274.339,519.48 Q274.6803,519.48 274.924,519.7563 Q275.184,520.0163 275.184,520.39 Q275.184,520.7475 274.8265,521.17 Q274.3065,521.7875 273.4778,522.1288 Q272.389,522.6 271.0565,522.6 Q269.4965,522.6 268.2453,521.9825 Q267.2378,521.495 266.5228,520.4388 Q265.824,519.3825 265.824,518.1313 L265.824,516.9938 Q265.824,515.6938 266.4415,514.5563 Q267.0753,513.4188 268.164,512.8175 Q269.269,512.2 270.504,512.2 Q271.2515,512.2 271.9015,512.46 Q272.5515,512.72 273.104,513.24 Z " fill="#000000"/><text fill="#000000" font-family="sans-serif" font-size="12.48" lengthAdjust="spacing" textLength="44.72" x="286.416" y="521.9866">Sample</text><line style="stroke:#A80036;stroke-width:1.56;" x1="252.72" x2="336.96" y1="533.52" y2="533.52"/><text fill="#000000" font-family="sans-serif" font-size="11.44" lengthAdjust="spacing" textLength="45.76" x="257.92" y="549.5557">-barcode</text><text fill="#000000" font-family="sans-serif" font-size="11.44" lengthAdjust="spacing" textLength="73.84" x="257.92" y="563.9451">-dateCollection</text><text fill="#000000" font-family="sans-serif" font-size="11.44" lengthAdjust="spacing" textLength="71.76" x="257.92" y="578.3345">-timeCollection</text><line style="stroke:#A80036;stroke-width:1.56;" x1="252.72" x2="336.96" y1="585.0081" y2="585.0081"/><!--MD5=[0bde84c484199f8c429a86e32cc6847f]
link Client to LabOrder--><path codeLine="44" d="M121.16,840.528 C121.16,868.4936 121.16,898.4664 121.16,921.388 " fill="none" id="Client-LabOrder" style="stroke:#A80036;stroke-width:1.04;"/><polygon fill="#000000" points="126.36,886.2628,129.4165,876.8559,123.3035,876.8559,126.36,886.2628" style="stroke:#000000;stroke-width:1.04;"/><text fill="#000000" font-family="sans-serif" font-size="13.52" lengthAdjust="spacing" textLength="33.28" x="135.72" y="886.5949">has a</text><text fill="#000000" font-family="sans-serif" font-size="13.52" lengthAdjust="spacing" textLength="7.28" x="113.5672" y="862.4308">1</text><text fill="#000000" font-family="sans-serif" font-size="13.52" lengthAdjust="spacing" textLength="5.2" x="115.4806" y="910.018">*</text><!--MD5=[6a35157f4c730bda767e7c9f1b8b7f73]
link Receptionist to Client--><path codeLine="45" d="M57.2,158.1736 C55.3696,235.9552 54.9328,361.3896 66.04,469.04 C73.268,539.0736 88.8056,617.5 101.5456,674.7312 " fill="none" id="Receptionist-Client" style="stroke:#A80036;stroke-width:1.04;"/><polygon fill="#000000" points="71.6848,465.0438,73.9255,455.4099,67.8349,455.9328,71.6848,465.0438" style="stroke:#000000;stroke-width:1.04;"/><text fill="#000000" font-family="sans-serif" font-size="13.52" lengthAdjust="spacing" textLength="52" x="80.6" y="465.3949">registers</text><text fill="#000000" font-family="sans-serif" font-size="13.52" lengthAdjust="spacing" textLength="7.28" x="49.3253" y="180.2218">1</text><text fill="#000000" font-family="sans-serif" font-size="13.52" lengthAdjust="spacing" textLength="5.2" x="94.2977" y="663.7478">*</text><!--MD5=[a23f50aea1fcb140948e132a9bfce5a1]
link Sample to Client--><path codeLine="46" d="M256.724,593.84 C229.4656,626.5688 192.7328,670.6648 164.3824,704.7144 " fill="none" id="Sample-Client" style="stroke:#A80036;stroke-width:1.04;"/><polygon fill="#000000" points="230.1522,638.5785,238.5209,633.3063,233.8236,629.3942,230.1522,638.5785" style="stroke:#000000;stroke-width:1.04;"/><text fill="#000000" font-family="sans-serif" font-size="13.52" lengthAdjust="spacing" textLength="81.12" x="242.84" y="640.1149">associated to</text><text fill="#000000" font-family="sans-serif" font-size="13.52" lengthAdjust="spacing" textLength="5.2" x="245.7983" y="615.6879">*</text><text fill="#000000" font-family="sans-serif" font-size="13.52" lengthAdjust="spacing" textLength="7.28" x="172.7298" y="691.2615">1</text><!--MD5=[3994f36c72829dbcddd1cf7021dddf61]
link Test to Client--><path codeLine="47" d="M146.5984,419.3176 C144.3624,445.3904 141.96,473.9488 139.88,500.24 C135.252,558.6256 130.4472,624.5304 126.8592,674.8976 " fill="none" id="Test-Client" style="stroke:#A80036;stroke-width:1.04;"/><polygon fill="#000000" points="144.6796,552.4074,148.4514,543.2638,142.3565,542.7931,144.6796,552.4074" style="stroke:#000000;stroke-width:1.04;"/><text fill="#000000" font-family="sans-serif" font-size="13.52" lengthAdjust="spacing" textLength="78" x="154.44" y="552.7549">requested by</text><text fill="#000000" font-family="sans-serif" font-size="13.52" lengthAdjust="spacing" textLength="5.2" x="140.599" y="440.9252">*</text><text fill="#000000" font-family="sans-serif" font-size="13.52" lengthAdjust="spacing" textLength="7.28" x="119.7755" y="663.646">1</text><!--MD5=[e8b34c2e6517a986175307f5599f058a]
link Receptionist to Test--><path codeLine="48" d="M88.712,158.3712 C98.5504,183.7888 109.6472,212.4408 119.8808,238.8776 " fill="none" id="Receptionist-Test" style="stroke:#A80036;stroke-width:1.04;"/><polygon fill="#000000" points="113.6774,203.6721,113.1314,193.7962,107.4308,196.0032,113.6774,203.6721" style="stroke:#000000;stroke-width:1.04;"/><text fill="#000000" font-family="sans-serif" font-size="13.52" lengthAdjust="spacing" textLength="52" x="121.16" y="204.3549">registers</text><text fill="#000000" font-family="sans-serif" font-size="13.52" lengthAdjust="spacing" textLength="7.28" x="83.7618" y="180.1749">1</text><text fill="#000000" font-family="sans-serif" font-size="13.52" lengthAdjust="spacing" textLength="5.2" x="111.4874" y="227.8359">*</text><!--MD5=[1ae83efc6d1967ce5bc17dfe294d00c2]
link Sample to Test--><path codeLine="49" d="M276.6296,500.0216 C269.516,483.86 260.7488,465.8576 251.16,450.32 C235.8304,425.4848 216.0184,400.0256 198.328,378.9656 " fill="none" id="Sample-Test" style="stroke:#A80036;stroke-width:1.04;"/><polygon fill="#000000" points="262.8958,455.4966,265.4384,465.0552,270.5712,461.7352,262.8958,455.4966" style="stroke:#000000;stroke-width:1.04;"/><text fill="#000000" font-family="sans-serif" font-size="13.52" lengthAdjust="spacing" textLength="81.12" x="275.08" y="465.3949">associated to</text><text fill="#000000" font-family="sans-serif" font-size="13.52" lengthAdjust="spacing" textLength="5.2" x="268.243" y="489.01">*</text><text fill="#000000" font-family="sans-serif" font-size="13.52" lengthAdjust="spacing" textLength="7.28" x="206.4969" y="383.5649">1</text><!--MD5=[b72ac8ab7fb5921fceb5036a3902baea]
link Test to Sample--><path codeLine="50" d="M160.3888,419.4112 C164.4344,436.852 170.7368,454.2928 180.44,469.04 C182.8528,472.7112 220.22,497.5464 251.5968,518.024 " fill="none" id="Test-Sample" style="stroke:#A80036;stroke-width:1.04;"/><polygon fill="#000000" points="189.1708,463.6803,185.0274,454.699,180.5396,458.8498,189.1708,463.6803" style="stroke:#000000;stroke-width:1.04;"/><text fill="#000000" font-family="sans-serif" font-size="13.52" lengthAdjust="spacing" textLength="46.8" x="195" y="465.3949">collects</text><text fill="#000000" font-family="sans-serif" font-size="13.52" lengthAdjust="spacing" textLength="7.28" x="153.2856" y="441.0259">1</text><text fill="#000000" font-family="sans-serif" font-size="13.52" lengthAdjust="spacing" textLength="5.2" x="238.231" y="508.8466">*</text><!--MD5=[a904484cbe929267e759bd909ba6d0ef]
@startuml

skinparam classAttributeIconSize 0

class Client {
-name
-cardNumber
-birthDate
-sex
-nhsID
-TIF
-phoneNumber
-email
}
class Receptionist {
-employeeID
-organizationID
-name
-address
-phoneNumber
-email
-SOCcode
}
class LabOrder {
-testType
-parameters
}
class Test {
-internalCode
-nhsCode
-createdAt
-dateAnalysis
-timeAnalysis
-dateDiagnosis
-timeDiagnosis
-dateValidation
-timeValidation
}
class Sample {
-barcode
-dateCollection
-timeCollection
}

Client "1"- -"*" LabOrder : has a >
Receptionist "1"- -"*" Client : registers >
Sample "*"- -"1" Client : associated to >
Test "*"- -"1" Client : requested by >
Receptionist "1"- -"*" Test : registers >
Sample "*"- -"1" Test : associated to >
Test "1"- -"*" Sample : collects >


@enduml

PlantUML version 1.2021.00(Sun Jan 10 10:25:05 GMT 2021)
(GPL source distribution)
Java Runtime: OpenJDK Runtime Environment
JVM: OpenJDK 64-Bit Server VM
Default Encoding: Cp1252
Language: pt
Country: PT
--></g></svg>