<?xml version="1.0" encoding="UTF-8" standalone="no"?><svg xmlns="http://www.w3.org/2000/svg" xmlns:xlink="http://www.w3.org/1999/xlink" contentScriptType="application/ecmascript" contentStyleType="text/css" height="1231.1px" preserveAspectRatio="none" style="width:516px;height:1231px;" version="1.1" viewBox="0 0 516 1231" width="516.1px" zoomAndPan="magnify"><defs><filter height="300%" id="f1mv7t9ml3htrl" width="300%" x="-1" y="-1"><feGaussianBlur result="blurOut" stdDeviation="2.6"/><feColorMatrix in="blurOut" result="blurOut2" type="matrix" values="0 0 0 0 0 0 0 0 0 0 0 0 0 0 0 0 0 0 .4 0"/><feOffset dx="5.2" dy="5.2" in="blurOut2" result="blurOut3"/><feBlend in="SourceGraphic" in2="blurOut3" mode="normal"/></filter></defs><g><!--MD5=[02e4b9b7573f1156f41e60aa5b4e25a4]
class Company--><rect codeLine="3" fill="#FEFECE" filter="url(#f1mv7t9ml3htrl)" height="80.3867" id="Company" style="stroke:#A80036;stroke-width:1.9500000000000002;" width="110.5" x="173.55" y="9.1"/><ellipse cx="193.05" cy="29.9" fill="#ADD1B2" rx="14.3" ry="14.3" style="stroke:#A80036;stroke-width:1.3;"/><path d="M195.65,25.35 Q195.9141,24.7 196.2188,24.375 Q196.5234,24.05 196.8688,24.05 Q197.4781,24.05 197.8641,24.4156 Q198.25,24.7813 198.25,25.6344 L198.25,27.6656 Q198.25,28.5188 197.8844,28.8844 Q197.5188,29.25 196.95,29.25 Q196.4422,29.25 196.1172,29.0266 Q195.7922,28.8031 195.65,28.2141 Q195.5891,27.8078 195.3656,27.5844 Q194.9594,27.1578 194.2281,26.9141 Q193.4969,26.65 192.7656,26.65 Q191.8516,26.65 191.0797,27.0156 Q190.3281,27.3813 189.7391,28.1938 Q189.15,29.0063 189.15,30.1234 L189.15,31.3219 Q189.15,32.6625 190.2469,33.5563 Q191.3438,34.45 193.2938,34.45 Q194.4516,34.45 195.2641,34.1859 Q195.7313,34.0438 196.2594,33.5766 Q196.6047,33.3125 196.7875,33.2313 Q196.9703,33.15 197.1938,33.15 Q197.6203,33.15 197.925,33.4953 Q198.25,33.8203 198.25,34.2875 Q198.25,34.7344 197.8031,35.2625 Q197.1531,36.0344 196.1172,36.4609 Q194.7563,37.05 193.0906,37.05 Q191.1406,37.05 189.5766,36.2781 Q188.3172,35.6688 187.4234,34.3484 Q186.55,33.0281 186.55,31.4641 L186.55,30.0422 Q186.55,28.4172 187.3219,26.9953 Q188.1141,25.5734 189.475,24.8219 Q190.8563,24.05 192.4,24.05 Q193.3344,24.05 194.1469,24.375 Q194.9594,24.7 195.65,25.35 Z " fill="#000000"/><text fill="#000000" font-family="sans-serif" font-size="15.6" lengthAdjust="spacing" textLength="68.9" x="211.25" y="36.2832">Company</text><line style="stroke:#A80036;stroke-width:1.9500000000000002;" x1="174.85" x2="282.75" y1="50.7" y2="50.7"/><text fill="#000000" font-family="sans-serif" font-size="14.3" lengthAdjust="spacing" textLength="76.7" x="181.35" y="70.7446">-designation</text><line style="stroke:#A80036;stroke-width:1.9500000000000002;" x1="174.85" x2="282.75" y1="79.0867" y2="79.0867"/><!--MD5=[df38be88ccee13e832d6fafd6288a4ca]
class Test--><rect codeLine="6" fill="#FEFECE" filter="url(#f1mv7t9ml3htrl)" height="242.2672" id="Test" style="stroke:#A80036;stroke-width:1.9500000000000002;" width="109.2" x="174.2" y="191.1"/><ellipse cx="210.08" cy="211.9" fill="#ADD1B2" rx="14.3" ry="14.3" style="stroke:#A80036;stroke-width:1.3;"/><path d="M212.68,207.35 Q212.9441,206.7 213.2488,206.375 Q213.5534,206.05 213.8988,206.05 Q214.5081,206.05 214.8941,206.4156 Q215.28,206.7813 215.28,207.6344 L215.28,209.6656 Q215.28,210.5188 214.9144,210.8844 Q214.5488,211.25 213.98,211.25 Q213.4722,211.25 213.1472,211.0266 Q212.8222,210.8031 212.68,210.2141 Q212.6191,209.8078 212.3956,209.5844 Q211.9894,209.1578 211.2581,208.9141 Q210.5269,208.65 209.7956,208.65 Q208.8816,208.65 208.1097,209.0156 Q207.3581,209.3813 206.7691,210.1938 Q206.18,211.0063 206.18,212.1234 L206.18,213.3219 Q206.18,214.6625 207.2769,215.5563 Q208.3738,216.45 210.3238,216.45 Q211.4816,216.45 212.2941,216.1859 Q212.7613,216.0438 213.2894,215.5766 Q213.6347,215.3125 213.8175,215.2313 Q214.0003,215.15 214.2238,215.15 Q214.6503,215.15 214.955,215.4953 Q215.28,215.8203 215.28,216.2875 Q215.28,216.7344 214.8331,217.2625 Q214.1831,218.0344 213.1472,218.4609 Q211.7863,219.05 210.1206,219.05 Q208.1706,219.05 206.6066,218.2781 Q205.3472,217.6688 204.4534,216.3484 Q203.58,215.0281 203.58,213.4641 L203.58,212.0422 Q203.58,210.4172 204.3519,208.9953 Q205.1441,207.5734 206.505,206.8219 Q207.8863,206.05 209.43,206.05 Q210.3644,206.05 211.1769,206.375 Q211.9894,206.7 212.68,207.35 Z " fill="#000000"/><text fill="#000000" font-family="sans-serif" font-size="15.6" lengthAdjust="spacing" textLength="31.2" x="231.92" y="218.2832">Test</text><line style="stroke:#A80036;stroke-width:1.9500000000000002;" x1="175.5" x2="282.1" y1="232.7" y2="232.7"/><text fill="#000000" font-family="sans-serif" font-size="14.3" lengthAdjust="spacing" textLength="61.1" x="182" y="252.7446">-testCode</text><text fill="#000000" font-family="sans-serif" font-size="14.3" lengthAdjust="spacing" textLength="61.1" x="182" y="270.7313">-nhsCode</text><text fill="#000000" font-family="sans-serif" font-size="14.3" lengthAdjust="spacing" textLength="67.6" x="182" y="288.7181">-createdAt</text><text fill="#000000" font-family="sans-serif" font-size="14.3" lengthAdjust="spacing" textLength="76.7" x="182" y="306.7048">-designation</text><text fill="#000000" font-family="sans-serif" font-size="14.3" lengthAdjust="spacing" textLength="87.1" x="182" y="324.6915">-dateAnalysis</text><text fill="#000000" font-family="sans-serif" font-size="14.3" lengthAdjust="spacing" textLength="84.5" x="182" y="342.6782">-timeAnalysis</text><text fill="#000000" font-family="sans-serif" font-size="14.3" lengthAdjust="spacing" textLength="93.6" x="182" y="360.6649">-dateDiagnosis</text><text fill="#000000" font-family="sans-serif" font-size="14.3" lengthAdjust="spacing" textLength="91" x="182" y="378.6517">-timeDiagnosis</text><text fill="#000000" font-family="sans-serif" font-size="14.3" lengthAdjust="spacing" textLength="93.6" x="182" y="396.6384">-dateValidation</text><text fill="#000000" font-family="sans-serif" font-size="14.3" lengthAdjust="spacing" textLength="91" x="182" y="414.6251">-timeValidation</text><line style="stroke:#A80036;stroke-width:1.9500000000000002;" x1="175.5" x2="282.1" y1="422.9672" y2="422.9672"/><!--MD5=[ed6624c6556d5e7b1bd23032162d20b7]
class Client--><rect codeLine="38" fill="#FEFECE" filter="url(#f1mv7t9ml3htrl)" height="386.1609" id="Client" style="stroke:#A80036;stroke-width:1.9500000000000002;" width="107.9" x="390.65" y="609.7"/><ellipse cx="421.265" cy="630.5" fill="#ADD1B2" rx="14.3" ry="14.3" style="stroke:#A80036;stroke-width:1.3;"/><path d="M423.865,625.95 Q424.1291,625.3 424.4338,624.975 Q424.7384,624.65 425.0838,624.65 Q425.6931,624.65 426.0791,625.0156 Q426.465,625.3813 426.465,626.2344 L426.465,628.2656 Q426.465,629.1188 426.0994,629.4844 Q425.7338,629.85 425.165,629.85 Q424.6572,629.85 424.3322,629.6266 Q424.0072,629.4031 423.865,628.8141 Q423.8041,628.4078 423.5806,628.1844 Q423.1744,627.7578 422.4431,627.5141 Q421.7119,627.25 420.9806,627.25 Q420.0666,627.25 419.2947,627.6156 Q418.5431,627.9813 417.9541,628.7938 Q417.365,629.6063 417.365,630.7234 L417.365,631.9219 Q417.365,633.2625 418.4619,634.1563 Q419.5588,635.05 421.5088,635.05 Q422.6666,635.05 423.4791,634.7859 Q423.9463,634.6438 424.4744,634.1766 Q424.8197,633.9125 425.0025,633.8313 Q425.1853,633.75 425.4088,633.75 Q425.8353,633.75 426.14,634.0953 Q426.465,634.4203 426.465,634.8875 Q426.465,635.3344 426.0181,635.8625 Q425.3681,636.6344 424.3322,637.0609 Q422.9713,637.65 421.3056,637.65 Q419.3556,637.65 417.7916,636.8781 Q416.5322,636.2688 415.6384,634.9484 Q414.765,633.6281 414.765,632.0641 L414.765,630.6422 Q414.765,629.0172 415.5369,627.5953 Q416.3291,626.1734 417.69,625.4219 Q419.0713,624.65 420.615,624.65 Q421.5494,624.65 422.3619,624.975 Q423.1744,625.3 423.865,625.95 Z " fill="#000000"/><text fill="#000000" font-family="sans-serif" font-size="15.6" lengthAdjust="spacing" textLength="41.6" x="441.935" y="636.8832">Client</text><line style="stroke:#A80036;stroke-width:1.9500000000000002;" x1="391.95" x2="497.25" y1="651.3" y2="651.3"/><text fill="#000000" font-family="sans-serif" font-size="14.3" lengthAdjust="spacing" textLength="39" x="398.45" y="671.3446">-name</text><text fill="#000000" font-family="sans-serif" font-size="14.3" lengthAdjust="spacing" textLength="81.9" x="398.45" y="689.3313">-cardNumber</text><text fill="#000000" font-family="sans-serif" font-size="14.3" lengthAdjust="spacing" textLength="61.1" x="398.45" y="707.3181">-birthDate</text><text fill="#000000" font-family="sans-serif" font-size="14.3" lengthAdjust="spacing" textLength="28.6" x="398.45" y="725.3048">-sex</text><text fill="#000000" font-family="sans-serif" font-size="14.3" lengthAdjust="spacing" textLength="40.3" x="398.45" y="743.2915">-nhsID</text><text fill="#000000" font-family="sans-serif" font-size="14.3" lengthAdjust="spacing" textLength="23.4" x="398.45" y="761.2782">-TIF</text><text fill="#000000" font-family="sans-serif" font-size="14.3" lengthAdjust="spacing" textLength="92.3" x="398.45" y="779.2649">-phoneNumber</text><text fill="#000000" font-family="sans-serif" font-size="14.3" lengthAdjust="spacing" textLength="36.4" x="398.45" y="797.2517">-email</text><text fill="#000000" font-family="sans-serif" font-size="14.3" lengthAdjust="spacing" textLength="70.2" x="398.45" y="815.2384">-password</text><text fill="#000000" font-family="sans-serif" font-size="14.3" lengthAdjust="spacing" textLength="39" x="398.45" y="833.2251">-name</text><text fill="#000000" font-family="sans-serif" font-size="14.3" lengthAdjust="spacing" textLength="81.9" x="398.45" y="851.2118">-cardNumber</text><text fill="#000000" font-family="sans-serif" font-size="14.3" lengthAdjust="spacing" textLength="61.1" x="398.45" y="869.1985">-birthDate</text><text fill="#000000" font-family="sans-serif" font-size="14.3" lengthAdjust="spacing" textLength="28.6" x="398.45" y="887.1853">-sex</text><text fill="#000000" font-family="sans-serif" font-size="14.3" lengthAdjust="spacing" textLength="40.3" x="398.45" y="905.172">-nhsID</text><text fill="#000000" font-family="sans-serif" font-size="14.3" lengthAdjust="spacing" textLength="23.4" x="398.45" y="923.1587">-TIF</text><text fill="#000000" font-family="sans-serif" font-size="14.3" lengthAdjust="spacing" textLength="92.3" x="398.45" y="941.1454">-phoneNumber</text><text fill="#000000" font-family="sans-serif" font-size="14.3" lengthAdjust="spacing" textLength="36.4" x="398.45" y="959.1321">-email</text><text fill="#000000" font-family="sans-serif" font-size="14.3" lengthAdjust="spacing" textLength="70.2" x="398.45" y="977.1188">-password</text><line style="stroke:#A80036;stroke-width:1.9500000000000002;" x1="391.95" x2="497.25" y1="985.4609" y2="985.4609"/><!--MD5=[aeb3272166074d8737a70b61b1e71682]
class TestType--><rect codeLine="29" fill="#FEFECE" filter="url(#f1mv7t9ml3htrl)" height="98.3734" id="TestType" style="stroke:#A80036;stroke-width:1.9500000000000002;" width="106.6" x="215.8" y="471.9"/><ellipse cx="235.3" cy="492.7" fill="#ADD1B2" rx="14.3" ry="14.3" style="stroke:#A80036;stroke-width:1.3;"/><path d="M237.9,488.15 Q238.1641,487.5 238.4688,487.175 Q238.7734,486.85 239.1188,486.85 Q239.7281,486.85 240.1141,487.2156 Q240.5,487.5813 240.5,488.4344 L240.5,490.4656 Q240.5,491.3188 240.1344,491.6844 Q239.7688,492.05 239.2,492.05 Q238.6922,492.05 238.3672,491.8266 Q238.0422,491.6031 237.9,491.0141 Q237.8391,490.6078 237.6156,490.3844 Q237.2094,489.9578 236.4781,489.7141 Q235.7469,489.45 235.0156,489.45 Q234.1016,489.45 233.3297,489.8156 Q232.5781,490.1813 231.9891,490.9938 Q231.4,491.8063 231.4,492.9234 L231.4,494.1219 Q231.4,495.4625 232.4969,496.3563 Q233.5938,497.25 235.5438,497.25 Q236.7016,497.25 237.5141,496.9859 Q237.9813,496.8438 238.5094,496.3766 Q238.8547,496.1125 239.0375,496.0313 Q239.2203,495.95 239.4438,495.95 Q239.8703,495.95 240.175,496.2953 Q240.5,496.6203 240.5,497.0875 Q240.5,497.5344 240.0531,498.0625 Q239.4031,498.8344 238.3672,499.2609 Q237.0063,499.85 235.3406,499.85 Q233.3906,499.85 231.8266,499.0781 Q230.5672,498.4688 229.6734,497.1484 Q228.8,495.8281 228.8,494.2641 L228.8,492.8422 Q228.8,491.2172 229.5719,489.7953 Q230.3641,488.3734 231.725,487.6219 Q233.1063,486.85 234.65,486.85 Q235.5844,486.85 236.3969,487.175 Q237.2094,487.5 237.9,488.15 Z " fill="#000000"/><text fill="#000000" font-family="sans-serif" font-size="15.6" lengthAdjust="spacing" textLength="65" x="253.5" y="499.0832">TestType</text><line style="stroke:#A80036;stroke-width:1.9500000000000002;" x1="217.1" x2="321.1" y1="513.5" y2="513.5"/><text fill="#000000" font-family="sans-serif" font-size="14.3" lengthAdjust="spacing" textLength="36.4" x="223.6" y="533.5446">-code</text><text fill="#000000" font-family="sans-serif" font-size="14.3" lengthAdjust="spacing" textLength="74.1" x="223.6" y="551.5313">-description</text><line style="stroke:#A80036;stroke-width:1.9500000000000002;" x1="217.1" x2="321.1" y1="559.8734" y2="559.8734"/><!--MD5=[1f6362a5c8f21d8d6a0fce68f3a92a4e]
class Parameter--><rect codeLine="33" fill="#FEFECE" filter="url(#f1mv7t9ml3htrl)" height="116.3602" id="Parameter" style="stroke:#A80036;stroke-width:1.9500000000000002;" width="117" x="74.1" y="1097.2"/><ellipse cx="93.6" cy="1118" fill="#ADD1B2" rx="14.3" ry="14.3" style="stroke:#A80036;stroke-width:1.3;"/><path d="M96.2,1113.45 Q96.4641,1112.8 96.7688,1112.475 Q97.0734,1112.15 97.4188,1112.15 Q98.0281,1112.15 98.4141,1112.5156 Q98.8,1112.8813 98.8,1113.7344 L98.8,1115.7656 Q98.8,1116.6188 98.4344,1116.9844 Q98.0688,1117.35 97.5,1117.35 Q96.9922,1117.35 96.6672,1117.1266 Q96.3422,1116.9031 96.2,1116.3141 Q96.1391,1115.9078 95.9156,1115.6844 Q95.5094,1115.2578 94.7781,1115.0141 Q94.0469,1114.75 93.3156,1114.75 Q92.4016,1114.75 91.6297,1115.1156 Q90.8781,1115.4813 90.2891,1116.2938 Q89.7,1117.1063 89.7,1118.2234 L89.7,1119.4219 Q89.7,1120.7625 90.7969,1121.6563 Q91.8938,1122.55 93.8438,1122.55 Q95.0016,1122.55 95.8141,1122.2859 Q96.2813,1122.1438 96.8094,1121.6766 Q97.1547,1121.4125 97.3375,1121.3313 Q97.5203,1121.25 97.7438,1121.25 Q98.1703,1121.25 98.475,1121.5953 Q98.8,1121.9203 98.8,1122.3875 Q98.8,1122.8344 98.3531,1123.3625 Q97.7031,1124.1344 96.6672,1124.5609 Q95.3063,1125.15 93.6406,1125.15 Q91.6906,1125.15 90.1266,1124.3781 Q88.8672,1123.7688 87.9734,1122.4484 Q87.1,1121.1281 87.1,1119.5641 L87.1,1118.1422 Q87.1,1116.5172 87.8719,1115.0953 Q88.6641,1113.6734 90.025,1112.9219 Q91.4063,1112.15 92.95,1112.15 Q93.8844,1112.15 94.6969,1112.475 Q95.5094,1112.8 96.2,1113.45 Z " fill="#000000"/><text fill="#000000" font-family="sans-serif" font-size="15.6" lengthAdjust="spacing" textLength="75.4" x="111.8" y="1124.3832">Parameter</text><line style="stroke:#A80036;stroke-width:1.9500000000000002;" x1="75.4" x2="189.8" y1="1138.8" y2="1138.8"/><text fill="#000000" font-family="sans-serif" font-size="14.3" lengthAdjust="spacing" textLength="36.4" x="81.9" y="1158.8446">-code</text><text fill="#000000" font-family="sans-serif" font-size="14.3" lengthAdjust="spacing" textLength="72.8" x="81.9" y="1176.8313">-shortName</text><text fill="#000000" font-family="sans-serif" font-size="14.3" lengthAdjust="spacing" textLength="74.1" x="81.9" y="1194.8181">-description</text><line style="stroke:#A80036;stroke-width:1.9500000000000002;" x1="75.4" x2="189.8" y1="1203.1602" y2="1203.1602"/><!--MD5=[0f07739f46effee96e095e9c408da841]
class TestParameter--><rect fill="#FEFECE" filter="url(#f1mv7t9ml3htrl)" height="62.4" id="TestParameter" style="stroke:#A80036;stroke-width:1.9500000000000002;" width="148.2" x="58.5" y="771.55"/><ellipse cx="78" cy="792.35" fill="#ADD1B2" rx="14.3" ry="14.3" style="stroke:#A80036;stroke-width:1.3;"/><path d="M80.6,787.8 Q80.8641,787.15 81.1688,786.825 Q81.4734,786.5 81.8188,786.5 Q82.4281,786.5 82.8141,786.8656 Q83.2,787.2313 83.2,788.0844 L83.2,790.1156 Q83.2,790.9688 82.8344,791.3344 Q82.4688,791.7 81.9,791.7 Q81.3922,791.7 81.0672,791.4766 Q80.7422,791.2531 80.6,790.6641 Q80.5391,790.2578 80.3156,790.0344 Q79.9094,789.6078 79.1781,789.3641 Q78.4469,789.1 77.7156,789.1 Q76.8016,789.1 76.0297,789.4656 Q75.2781,789.8313 74.6891,790.6438 Q74.1,791.4563 74.1,792.5734 L74.1,793.7719 Q74.1,795.1125 75.1969,796.0063 Q76.2938,796.9 78.2438,796.9 Q79.4016,796.9 80.2141,796.6359 Q80.6813,796.4938 81.2094,796.0266 Q81.5547,795.7625 81.7375,795.6813 Q81.9203,795.6 82.1438,795.6 Q82.5703,795.6 82.875,795.9453 Q83.2,796.2703 83.2,796.7375 Q83.2,797.1844 82.7531,797.7125 Q82.1031,798.4844 81.0672,798.9109 Q79.7063,799.5 78.0406,799.5 Q76.0906,799.5 74.5266,798.7281 Q73.2672,798.1188 72.3734,796.7984 Q71.5,795.4781 71.5,793.9141 L71.5,792.4922 Q71.5,790.8672 72.2719,789.4453 Q73.0641,788.0234 74.425,787.2719 Q75.8063,786.5 77.35,786.5 Q78.2844,786.5 79.0969,786.825 Q79.9094,787.15 80.6,787.8 Z " fill="#000000"/><text fill="#000000" font-family="sans-serif" font-size="15.6" lengthAdjust="spacing" textLength="106.6" x="96.2" y="798.7332">TestParameter</text><line style="stroke:#A80036;stroke-width:1.9500000000000002;" x1="59.8" x2="205.4" y1="813.15" y2="813.15"/><line style="stroke:#A80036;stroke-width:1.9500000000000002;" x1="59.8" x2="205.4" y1="823.55" y2="823.55"/><ellipse cx="10.4" cy="802.75" fill="#000000" rx="2.6" ry="2.6" style="stroke:none;stroke-width:1.3;"/><!--MD5=[5b7a9ded131023be416e27d15bcd6d77]
link TestType to Parameter--><path codeLine="50" d="M282.178,570.726 C306.059,668.811 346.996,896.246 263.9,1058.2 C248.417,1088.373 218.595,1111.396 191.295,1127.347 " fill="none" id="TestType-Parameter" style="stroke:#A80036;stroke-width:1.3;"/><polygon fill="#000000" points="320.0526,809.3936,325.7181,798.4043,318.1767,797.173,320.0526,809.3936" style="stroke:#000000;stroke-width:1.3;"/><text fill="#000000" font-family="sans-serif" font-size="16.9" lengthAdjust="spacing" textLength="27.3" x="332.8" y="809.8937">has</text><text fill="#000000" font-family="sans-serif" font-size="16.9" lengthAdjust="spacing" textLength="9.1" x="274.4905" y="598.2515">1</text><text fill="#000000" font-family="sans-serif" font-size="16.9" lengthAdjust="spacing" textLength="26" x="201.3771" y="1118.7181">1..*</text><!--MD5=[0d02494f9371f8c6ca3deba40e0e82b2]
link Test to apoint443--><path d="M173.81,377.247 C128.232,434.187 66.079,521.872 35.1,609.7 C8.528,685.035 10.01,786.032 10.361,799.851 " fill="none" id="Test-apoint443" style="stroke:#A80036;stroke-width:1.3;"/><!--MD5=[c1c5310024db53a8bf35805011b846fb]
link apoint443 to Parameter--><path d="M10.348,805.649 C10.01,819.481 8.489,920.478 35.1,995.8 C47.801,1031.758 69.511,1068.262 89.232,1097.174 " fill="none" id="apoint443-Parameter" style="stroke:#A80036;stroke-width:1.3;"/><!--MD5=[35c423c1e5ee7d5c39879efbcbe58e06]
link apoint443 to TestParameter--><path d="M13.26,802.75 C28.34,802.75 43.407,802.75 58.487,802.75 " fill="none" id="apoint443-TestParameter" style="stroke:#A80036;stroke-width:1.3;stroke-dasharray:7.0,7.0;"/><!--MD5=[3994f36c72829dbcddd1cf7021dddf61]
link Test to Client--><path codeLine="52" d="M283.439,376.74 C305.227,404.521 329.056,438.386 345.8,471.9 C367.224,514.774 384.93,563.16 399.139,609.375 " fill="none" id="Test-Client" style="stroke:#A80036;stroke-width:1.3;"/><polygon fill="#000000" points="394.1945,527.3485,392.3792,515.1187,385.5374,518.5214,394.1945,527.3485" style="stroke:#000000;stroke-width:1.3;"/><text fill="#000000" font-family="sans-serif" font-size="16.9" lengthAdjust="spacing" textLength="97.5" x="403" y="528.4437">requested by</text><text fill="#000000" font-family="sans-serif" font-size="16.9" lengthAdjust="spacing" textLength="6.5" x="293.7505" y="383.1621">*</text><text fill="#000000" font-family="sans-serif" font-size="16.9" lengthAdjust="spacing" textLength="9.1" x="387.4603" y="595.6217">1</text><!--MD5=[7d615427424eb1e9d8965c4eb17ecbf5]
link TestParameter to Test--><path codeLine="53" d="M129.428,771.251 C124.202,712.439 116.974,578.929 145.6,471.9 C152.022,447.863 162.565,423.371 174.005,401.037 " fill="none" id="TestParameter-Test" style="stroke:#A80036;stroke-width:1.3;"/><polygon fill="#000000" points="151.323,527.9819,156.5218,516.7644,148.9354,515.8509,151.323,527.9819" style="stroke:#000000;stroke-width:1.3;"/><text fill="#000000" font-family="sans-serif" font-size="16.9" lengthAdjust="spacing" textLength="27.3" x="163.8" y="528.4437">has</text><text fill="#000000" font-family="sans-serif" font-size="16.9" lengthAdjust="spacing" textLength="6.5" x="121.2824" y="757.3166">*</text><text fill="#000000" font-family="sans-serif" font-size="16.9" lengthAdjust="spacing" textLength="9.1" x="154.7051" y="411.2955">1</text><!--MD5=[7e4bc624457760b649895ff2ead938fa]
link Company to Test--><path codeLine="54" d="M228.8,90.194 C228.8,117.182 228.8,154.505 228.8,190.775 " fill="none" id="Company-Test" style="stroke:#A80036;stroke-width:1.3;"/><polygon fill="#000000" points="235.3,147.1285,239.1206,135.3699,231.4794,135.3699,235.3,147.1285" style="stroke:#000000;stroke-width:1.3;"/><text fill="#000000" font-family="sans-serif" font-size="16.9" lengthAdjust="spacing" textLength="65" x="247" y="147.5437">performs</text><text fill="#000000" font-family="sans-serif" font-size="16.9" lengthAdjust="spacing" textLength="9.1" x="218.8327" y="117.5604">1</text><text fill="#000000" font-family="sans-serif" font-size="16.9" lengthAdjust="spacing" textLength="6.5" x="222.041" y="177.0294">*</text><!--MD5=[e981d4f96c4342412d1e68160b30cf70]
link Test to TestType--><path codeLine="55" d="M252.122,432.939 C254.774,446.511 257.348,459.693 259.649,471.536 " fill="none" id="Test-TestType" style="stroke:#A80036;stroke-width:1.3;"/><polygon fill="#000000" points="263.7532,447.7893,265.2524,435.5168,257.7525,436.9794,263.7532,447.7893" style="stroke:#000000;stroke-width:1.3;"/><text fill="#000000" font-family="sans-serif" font-size="16.9" lengthAdjust="spacing" textLength="31.2" x="274.209" y="448.3247">is of</text><text fill="#000000" font-family="sans-serif" font-size="16.9" lengthAdjust="spacing" textLength="6.5" x="246.2689" y="457.7142">*</text><text fill="#000000" font-family="sans-serif" font-size="16.9" lengthAdjust="spacing" textLength="9.1" x="248.0551" y="457.6416">1</text><!--MD5=[92e8e476cc9e9004a7125f53a120ec97]
link TestParameter to Parameter--><path codeLine="56" d="M132.6,834.522 C132.6,892.957 132.6,1021.605 132.6,1096.745 " fill="none" id="TestParameter-Parameter" style="stroke:#A80036;stroke-width:1.3;"/><polygon fill="#000000" points="139.1,1053.2285,142.9206,1041.4699,135.2794,1041.4699,139.1,1053.2285" style="stroke:#000000;stroke-width:1.3;"/><text fill="#000000" font-family="sans-serif" font-size="16.9" lengthAdjust="spacing" textLength="101.4" x="150.8" y="1053.6437">associated to</text><text fill="#000000" font-family="sans-serif" font-size="16.9" lengthAdjust="spacing" textLength="6.5" x="125.3484" y="861.8708">*</text><text fill="#000000" font-family="sans-serif" font-size="16.9" lengthAdjust="spacing" textLength="9.1" x="122.8033" y="1082.9526">1</text><!--MD5=[e6f1f9f368409c3a3620f000984f1425]
@startuml
skinparam classAttributeIconSize 0

class Company {
-designation
}
class Test {
-testCode
-nhsCode
-createdAt
-designation
-dateAnalysis
-timeAnalysis
-dateDiagnosis
-timeDiagnosis
-dateValidation
-timeValidation
}
class Client {
-name
-cardNumber
-birthDate
-sex
-nhsID
-TIF
-phoneNumber
-email
-password
}
class TestType {
-code
-description
}
class Parameter {
-code
-shortName
-description
}
class Client {
-name
-cardNumber
-birthDate
-sex
-nhsID
-TIF
-phoneNumber
-email
-password
}

TestType "1"- -"1..*" Parameter : has >
(Test, Parameter) .. TestParameter
Test "*"- -"1" Client : requested by >
TestParameter "*"- -"1" Test : has <
Test "*"-up-"1" Company : performs <
Test "*"-right-"1" "TestType" : is of >
TestParameter "*"- -"1" Parameter : associated to >

@enduml

PlantUML version 1.2021.00(Sun Jan 10 10:25:05 GMT 2021)
(GPL source distribution)
Java Runtime: OpenJDK Runtime Environment
JVM: OpenJDK 64-Bit Server VM
Default Encoding: Cp1252
Language: pt
Country: PT
--></g></svg>