<?xml version="1.0" encoding="UTF-8" standalone="no"?><svg xmlns="http://www.w3.org/2000/svg" xmlns:xlink="http://www.w3.org/1999/xlink" contentScriptType="application/ecmascript" contentStyleType="text/css" height="393.12px" preserveAspectRatio="none" style="width:218px;height:393px;" version="1.1" viewBox="0 0 218 393" width="218.92px" zoomAndPan="magnify"><defs><filter height="300%" id="feqa8blqffj4l" width="300%" x="-1" y="-1"><feGaussianBlur result="blurOut" stdDeviation="1.04"/><feColorMatrix in="blurOut" result="blurOut2" type="matrix" values="0 0 0 0 0 0 0 0 0 0 0 0 0 0 0 0 0 0 .4 0"/><feOffset dx="2.08" dy="2.08" in="blurOut2" result="blurOut3"/><feBlend in="SourceGraphic" in2="blurOut3" mode="normal"/></filter></defs><g><!--MD5=[02e4b9b7573f1156f41e60aa5b4e25a4]
class Company--><rect codeLine="3" fill="#FEFECE" filter="url(#feqa8blqffj4l)" height="32.1547" id="Company" style="stroke:#A80036;stroke-width:0.78;" width="44.2" x="100.88" y="3.64"/><ellipse cx="108.68" cy="11.96" fill="#ADD1B2" rx="5.72" ry="5.72" style="stroke:#A80036;stroke-width:0.52;"/><path d="M109.72,10.14 Q109.8256,9.88 109.9475,9.75 Q110.0694,9.62 110.2075,9.62 Q110.4513,9.62 110.6056,9.7663 Q110.76,9.9125 110.76,10.2538 L110.76,11.0663 Q110.76,11.4075 110.6138,11.5538 Q110.4675,11.7 110.24,11.7 Q110.0369,11.7 109.9069,11.6106 Q109.7769,11.5213 109.72,11.2856 Q109.6956,11.1231 109.6063,11.0338 Q109.4438,10.8631 109.1513,10.7656 Q108.8588,10.66 108.5663,10.66 Q108.2006,10.66 107.8919,10.8063 Q107.5913,10.9525 107.3556,11.2775 Q107.12,11.6025 107.12,12.0494 L107.12,12.5288 Q107.12,13.065 107.5588,13.4225 Q107.9975,13.78 108.7775,13.78 Q109.2406,13.78 109.5656,13.6744 Q109.7525,13.6175 109.9638,13.4306 Q110.1019,13.325 110.175,13.2925 Q110.2481,13.26 110.3375,13.26 Q110.5081,13.26 110.63,13.3981 Q110.76,13.5281 110.76,13.715 Q110.76,13.8938 110.5813,14.105 Q110.3213,14.4138 109.9069,14.5844 Q109.3625,14.82 108.6963,14.82 Q107.9163,14.82 107.2906,14.5113 Q106.7869,14.2675 106.4294,13.7394 Q106.08,13.2113 106.08,12.5856 L106.08,12.0169 Q106.08,11.3669 106.3888,10.7981 Q106.7056,10.2294 107.25,9.9288 Q107.8025,9.62 108.42,9.62 Q108.7938,9.62 109.1188,9.75 Q109.4438,9.88 109.72,10.14 Z " fill="#000000"/><text fill="#000000" font-family="sans-serif" font-size="6.24" lengthAdjust="spacing" textLength="27.56" x="115.96" y="14.5133">Company</text><line style="stroke:#A80036;stroke-width:0.78;" x1="101.4" x2="144.56" y1="20.28" y2="20.28"/><text fill="#000000" font-family="sans-serif" font-size="5.72" lengthAdjust="spacing" textLength="30.68" x="104" y="28.2979">-designation</text><line style="stroke:#A80036;stroke-width:0.78;" x1="101.4" x2="144.56" y1="31.6347" y2="31.6347"/><!--MD5=[df38be88ccee13e832d6fafd6288a4ca]
class Test--><rect codeLine="6" fill="#FEFECE" filter="url(#feqa8blqffj4l)" height="39.3494" id="Test" style="stroke:#A80036;stroke-width:0.78;" width="30.68" x="107.64" y="76.44"/><ellipse cx="116.142" cy="84.76" fill="#ADD1B2" rx="5.72" ry="5.72" style="stroke:#A80036;stroke-width:0.52;"/><path d="M117.182,82.94 Q117.2876,82.68 117.4095,82.55 Q117.5314,82.42 117.6695,82.42 Q117.9133,82.42 118.0676,82.5663 Q118.222,82.7125 118.222,83.0538 L118.222,83.8663 Q118.222,84.2075 118.0758,84.3538 Q117.9295,84.5 117.702,84.5 Q117.4989,84.5 117.3689,84.4106 Q117.2389,84.3213 117.182,84.0856 Q117.1576,83.9231 117.0683,83.8338 Q116.9058,83.6631 116.6133,83.5656 Q116.3208,83.46 116.0283,83.46 Q115.6626,83.46 115.3539,83.6063 Q115.0533,83.7525 114.8176,84.0775 Q114.582,84.4025 114.582,84.8494 L114.582,85.3288 Q114.582,85.865 115.0208,86.2225 Q115.4595,86.58 116.2395,86.58 Q116.7026,86.58 117.0276,86.4744 Q117.2145,86.4175 117.4258,86.2306 Q117.5639,86.125 117.637,86.0925 Q117.7101,86.06 117.7995,86.06 Q117.9701,86.06 118.092,86.1981 Q118.222,86.3281 118.222,86.515 Q118.222,86.6938 118.0433,86.905 Q117.7833,87.2138 117.3689,87.3844 Q116.8245,87.62 116.1583,87.62 Q115.3783,87.62 114.7526,87.3113 Q114.2489,87.0675 113.8914,86.5394 Q113.542,86.0113 113.542,85.3856 L113.542,84.8169 Q113.542,84.1669 113.8508,83.5981 Q114.1676,83.0294 114.712,82.7288 Q115.2645,82.42 115.882,82.42 Q116.2558,82.42 116.5808,82.55 Q116.9058,82.68 117.182,82.94 Z " fill="#000000"/><text fill="#000000" font-family="sans-serif" font-size="6.24" lengthAdjust="spacing" textLength="12.48" x="123.578" y="87.3133">Test</text><line style="stroke:#A80036;stroke-width:0.78;" x1="108.16" x2="137.8" y1="93.08" y2="93.08"/><text fill="#000000" font-family="sans-serif" font-size="5.72" lengthAdjust="spacing" textLength="24.44" x="110.76" y="101.0979">-testCode</text><text fill="#000000" font-family="sans-serif" font-size="5.72" lengthAdjust="spacing" textLength="24.44" x="110.76" y="108.2925">-nhsCode</text><line style="stroke:#A80036;stroke-width:0.78;" x1="108.16" x2="137.8" y1="111.6294" y2="111.6294"/><!--MD5=[ed6624c6556d5e7b1bd23032162d20b7]
class Client--><rect codeLine="10" fill="#FEFECE" filter="url(#feqa8blqffj4l)" height="39.3494" id="Client" style="stroke:#A80036;stroke-width:0.78;" width="39" x="3.64" y="76.44"/><ellipse cx="14.014" cy="84.76" fill="#ADD1B2" rx="5.72" ry="5.72" style="stroke:#A80036;stroke-width:0.52;"/><path d="M15.054,82.94 Q15.1596,82.68 15.2815,82.55 Q15.4034,82.42 15.5415,82.42 Q15.7853,82.42 15.9396,82.5663 Q16.094,82.7125 16.094,83.0538 L16.094,83.8663 Q16.094,84.2075 15.9478,84.3538 Q15.8015,84.5 15.574,84.5 Q15.3709,84.5 15.2409,84.4106 Q15.1109,84.3213 15.054,84.0856 Q15.0296,83.9231 14.9403,83.8338 Q14.7778,83.6631 14.4853,83.5656 Q14.1928,83.46 13.9003,83.46 Q13.5346,83.46 13.2259,83.6063 Q12.9253,83.7525 12.6896,84.0775 Q12.454,84.4025 12.454,84.8494 L12.454,85.3288 Q12.454,85.865 12.8928,86.2225 Q13.3315,86.58 14.1115,86.58 Q14.5746,86.58 14.8996,86.4744 Q15.0865,86.4175 15.2978,86.2306 Q15.4359,86.125 15.509,86.0925 Q15.5821,86.06 15.6715,86.06 Q15.8421,86.06 15.964,86.1981 Q16.094,86.3281 16.094,86.515 Q16.094,86.6938 15.9153,86.905 Q15.6553,87.2138 15.2409,87.3844 Q14.6965,87.62 14.0303,87.62 Q13.2503,87.62 12.6246,87.3113 Q12.1209,87.0675 11.7634,86.5394 Q11.414,86.0113 11.414,85.3856 L11.414,84.8169 Q11.414,84.1669 11.7228,83.5981 Q12.0396,83.0294 12.584,82.7288 Q13.1365,82.42 13.754,82.42 Q14.1278,82.42 14.4528,82.55 Q14.7778,82.68 15.054,82.94 Z " fill="#000000"/><text fill="#000000" font-family="sans-serif" font-size="6.24" lengthAdjust="spacing" textLength="16.64" x="21.866" y="87.3133">Client</text><line style="stroke:#A80036;stroke-width:0.78;" x1="4.16" x2="42.12" y1="93.08" y2="93.08"/><text fill="#000000" font-family="sans-serif" font-size="5.72" lengthAdjust="spacing" textLength="15.6" x="6.76" y="101.0979">-name</text><text fill="#000000" font-family="sans-serif" font-size="5.72" lengthAdjust="spacing" textLength="32.76" x="6.76" y="108.2925">-cardNumber</text><line style="stroke:#A80036;stroke-width:0.78;" x1="4.16" x2="42.12" y1="111.6294" y2="111.6294"/><!--MD5=[aeb3272166074d8737a70b61b1e71682]
class TestType--><rect codeLine="14" fill="#FEFECE" filter="url(#feqa8blqffj4l)" height="39.3494" id="TestType" style="stroke:#A80036;stroke-width:0.78;" width="42.64" x="59.54" y="131.56"/><ellipse cx="67.34" cy="139.88" fill="#ADD1B2" rx="5.72" ry="5.72" style="stroke:#A80036;stroke-width:0.52;"/><path d="M68.38,138.06 Q68.4856,137.8 68.6075,137.67 Q68.7294,137.54 68.8675,137.54 Q69.1113,137.54 69.2656,137.6863 Q69.42,137.8325 69.42,138.1738 L69.42,138.9863 Q69.42,139.3275 69.2738,139.4738 Q69.1275,139.62 68.9,139.62 Q68.6969,139.62 68.5669,139.5306 Q68.4369,139.4413 68.38,139.2056 Q68.3556,139.0431 68.2663,138.9538 Q68.1038,138.7831 67.8113,138.6856 Q67.5188,138.58 67.2263,138.58 Q66.8606,138.58 66.5519,138.7263 Q66.2513,138.8725 66.0156,139.1975 Q65.78,139.5225 65.78,139.9694 L65.78,140.4488 Q65.78,140.985 66.2188,141.3425 Q66.6575,141.7 67.4375,141.7 Q67.9006,141.7 68.2256,141.5944 Q68.4125,141.5375 68.6238,141.3506 Q68.7619,141.245 68.835,141.2125 Q68.9081,141.18 68.9975,141.18 Q69.1681,141.18 69.29,141.3181 Q69.42,141.4481 69.42,141.635 Q69.42,141.8138 69.2413,142.025 Q68.9813,142.3338 68.5669,142.5044 Q68.0225,142.74 67.3563,142.74 Q66.5763,142.74 65.9506,142.4313 Q65.4469,142.1875 65.0894,141.6594 Q64.74,141.1313 64.74,140.5056 L64.74,139.9369 Q64.74,139.2869 65.0488,138.7181 Q65.3656,138.1494 65.91,137.8488 Q66.4625,137.54 67.08,137.54 Q67.4538,137.54 67.7788,137.67 Q68.1038,137.8 68.38,138.06 Z " fill="#000000"/><text fill="#000000" font-family="sans-serif" font-size="6.24" lengthAdjust="spacing" textLength="26" x="74.62" y="142.4333">TestType</text><line style="stroke:#A80036;stroke-width:0.78;" x1="60.06" x2="101.66" y1="148.2" y2="148.2"/><text fill="#000000" font-family="sans-serif" font-size="5.72" lengthAdjust="spacing" textLength="14.56" x="62.66" y="156.2179">-code</text><text fill="#000000" font-family="sans-serif" font-size="5.72" lengthAdjust="spacing" textLength="29.64" x="62.66" y="163.4125">-description</text><line style="stroke:#A80036;stroke-width:0.78;" x1="60.06" x2="101.66" y1="166.7494" y2="166.7494"/><!--MD5=[1f6362a5c8f21d8d6a0fce68f3a92a4e]
class Parameter--><rect codeLine="18" fill="#FEFECE" filter="url(#feqa8blqffj4l)" height="46.5441" id="Parameter" style="stroke:#A80036;stroke-width:0.78;" width="46.8" x="99.58" y="252.2"/><ellipse cx="107.38" cy="260.52" fill="#ADD1B2" rx="5.72" ry="5.72" style="stroke:#A80036;stroke-width:0.52;"/><path d="M108.42,258.7 Q108.5256,258.44 108.6475,258.31 Q108.7694,258.18 108.9075,258.18 Q109.1513,258.18 109.3056,258.3263 Q109.46,258.4725 109.46,258.8138 L109.46,259.6263 Q109.46,259.9675 109.3138,260.1138 Q109.1675,260.26 108.94,260.26 Q108.7369,260.26 108.6069,260.1706 Q108.4769,260.0813 108.42,259.8456 Q108.3956,259.6831 108.3063,259.5938 Q108.1438,259.4231 107.8513,259.3256 Q107.5588,259.22 107.2663,259.22 Q106.9006,259.22 106.5919,259.3663 Q106.2913,259.5125 106.0556,259.8375 Q105.82,260.1625 105.82,260.6094 L105.82,261.0888 Q105.82,261.625 106.2588,261.9825 Q106.6975,262.34 107.4775,262.34 Q107.9406,262.34 108.2656,262.2344 Q108.4525,262.1775 108.6638,261.9906 Q108.8019,261.885 108.875,261.8525 Q108.9481,261.82 109.0375,261.82 Q109.2081,261.82 109.33,261.9581 Q109.46,262.0881 109.46,262.275 Q109.46,262.4538 109.2813,262.665 Q109.0213,262.9738 108.6069,263.1444 Q108.0625,263.38 107.3963,263.38 Q106.6163,263.38 105.9906,263.0713 Q105.4869,262.8275 105.1294,262.2994 Q104.78,261.7713 104.78,261.1456 L104.78,260.5769 Q104.78,259.9269 105.0888,259.3581 Q105.4056,258.7894 105.95,258.4888 Q106.5025,258.18 107.12,258.18 Q107.4938,258.18 107.8188,258.31 Q108.1438,258.44 108.42,258.7 Z " fill="#000000"/><text fill="#000000" font-family="sans-serif" font-size="6.24" lengthAdjust="spacing" textLength="30.16" x="114.66" y="263.0733">Parameter</text><line style="stroke:#A80036;stroke-width:0.78;" x1="100.1" x2="145.86" y1="268.84" y2="268.84"/><text fill="#000000" font-family="sans-serif" font-size="5.72" lengthAdjust="spacing" textLength="14.56" x="102.7" y="276.8579">-code</text><text fill="#000000" font-family="sans-serif" font-size="5.72" lengthAdjust="spacing" textLength="29.12" x="102.7" y="284.0525">-shortName</text><text fill="#000000" font-family="sans-serif" font-size="5.72" lengthAdjust="spacing" textLength="29.64" x="102.7" y="291.2472">-description</text><line style="stroke:#A80036;stroke-width:0.78;" x1="100.1" x2="145.86" y1="294.5841" y2="294.5841"/><!--MD5=[a96594a83e2ecdc78cbf17c2ddf01934]
class Category--><rect codeLine="23" fill="#FEFECE" filter="url(#feqa8blqffj4l)" height="46.5441" id="Category" style="stroke:#A80036;stroke-width:0.78;" width="42.12" x="101.92" y="339.56"/><ellipse cx="109.72" cy="347.88" fill="#ADD1B2" rx="5.72" ry="5.72" style="stroke:#A80036;stroke-width:0.52;"/><path d="M110.76,346.06 Q110.8656,345.8 110.9875,345.67 Q111.1094,345.54 111.2475,345.54 Q111.4913,345.54 111.6456,345.6863 Q111.8,345.8325 111.8,346.1738 L111.8,346.9863 Q111.8,347.3275 111.6538,347.4738 Q111.5075,347.62 111.28,347.62 Q111.0769,347.62 110.9469,347.5306 Q110.8169,347.4413 110.76,347.2056 Q110.7356,347.0431 110.6463,346.9538 Q110.4838,346.7831 110.1913,346.6856 Q109.8988,346.58 109.6063,346.58 Q109.2406,346.58 108.9319,346.7263 Q108.6313,346.8725 108.3956,347.1975 Q108.16,347.5225 108.16,347.9694 L108.16,348.4488 Q108.16,348.985 108.5988,349.3425 Q109.0375,349.7 109.8175,349.7 Q110.2806,349.7 110.6056,349.5944 Q110.7925,349.5375 111.0038,349.3506 Q111.1419,349.245 111.215,349.2125 Q111.2881,349.18 111.3775,349.18 Q111.5481,349.18 111.67,349.3181 Q111.8,349.4481 111.8,349.635 Q111.8,349.8138 111.6213,350.025 Q111.3613,350.3338 110.9469,350.5044 Q110.4025,350.74 109.7363,350.74 Q108.9563,350.74 108.3306,350.4313 Q107.8269,350.1875 107.4694,349.6594 Q107.12,349.1313 107.12,348.5056 L107.12,347.9369 Q107.12,347.2869 107.4288,346.7181 Q107.7456,346.1494 108.29,345.8488 Q108.8425,345.54 109.46,345.54 Q109.8338,345.54 110.1588,345.67 Q110.4838,345.8 110.76,346.06 Z " fill="#000000"/><text fill="#000000" font-family="sans-serif" font-size="6.24" lengthAdjust="spacing" textLength="25.48" x="117" y="350.4333">Category</text><line style="stroke:#A80036;stroke-width:0.78;" x1="102.44" x2="143.52" y1="356.2" y2="356.2"/><text fill="#000000" font-family="sans-serif" font-size="5.72" lengthAdjust="spacing" textLength="14.56" x="105.04" y="364.2179">-code</text><text fill="#000000" font-family="sans-serif" font-size="5.72" lengthAdjust="spacing" textLength="29.64" x="105.04" y="371.4125">-description</text><text fill="#000000" font-family="sans-serif" font-size="5.72" lengthAdjust="spacing" textLength="16.12" x="105.04" y="378.6072">-nhsID</text><line style="stroke:#A80036;stroke-width:0.78;" x1="102.44" x2="143.52" y1="381.9441" y2="381.9441"/><!--MD5=[0f07739f46effee96e095e9c408da841]
class TestParameter--><rect fill="#FEFECE" filter="url(#feqa8blqffj4l)" height="24.96" id="TestParameter" style="stroke:#A80036;stroke-width:0.78;" width="59.28" x="142.22" y="186.68"/><ellipse cx="150.02" cy="195" fill="#ADD1B2" rx="5.72" ry="5.72" style="stroke:#A80036;stroke-width:0.52;"/><path d="M151.06,193.18 Q151.1656,192.92 151.2875,192.79 Q151.4094,192.66 151.5475,192.66 Q151.7913,192.66 151.9456,192.8063 Q152.1,192.9525 152.1,193.2938 L152.1,194.1063 Q152.1,194.4475 151.9538,194.5938 Q151.8075,194.74 151.58,194.74 Q151.3769,194.74 151.2469,194.6506 Q151.1169,194.5613 151.06,194.3256 Q151.0356,194.1631 150.9463,194.0738 Q150.7838,193.9031 150.4913,193.8056 Q150.1988,193.7 149.9063,193.7 Q149.5406,193.7 149.2319,193.8463 Q148.9313,193.9925 148.6956,194.3175 Q148.46,194.6425 148.46,195.0894 L148.46,195.5688 Q148.46,196.105 148.8988,196.4625 Q149.3375,196.82 150.1175,196.82 Q150.5806,196.82 150.9056,196.7144 Q151.0925,196.6575 151.3038,196.4706 Q151.4419,196.365 151.515,196.3325 Q151.5881,196.3 151.6775,196.3 Q151.8481,196.3 151.97,196.4381 Q152.1,196.5681 152.1,196.755 Q152.1,196.9338 151.9213,197.145 Q151.6613,197.4538 151.2469,197.6244 Q150.7025,197.86 150.0363,197.86 Q149.2563,197.86 148.6306,197.5513 Q148.1269,197.3075 147.7694,196.7794 Q147.42,196.2513 147.42,195.6256 L147.42,195.0569 Q147.42,194.4069 147.7288,193.8381 Q148.0456,193.2694 148.59,192.9688 Q149.1425,192.66 149.76,192.66 Q150.1338,192.66 150.4588,192.79 Q150.7838,192.92 151.06,193.18 Z " fill="#000000"/><text fill="#000000" font-family="sans-serif" font-size="6.24" lengthAdjust="spacing" textLength="42.64" x="157.3" y="197.5533">TestParameter</text><line style="stroke:#A80036;stroke-width:0.78;" x1="142.74" x2="200.98" y1="203.32" y2="203.32"/><line style="stroke:#A80036;stroke-width:0.78;" x1="142.74" x2="200.98" y1="207.48" y2="207.48"/><ellipse cx="122.98" cy="199.16" fill="#000000" rx="1.04" ry="1.04" style="stroke:none;stroke-width:0.52;"/><!--MD5=[5b7a9ded131023be416e27d15bcd6d77]
link TestType to Parameter--><path codeLine="30" d="M84.1932,171.0956 C86.4916,182.9516 89.9392,198.3644 94.38,211.64 C98.9976,225.446 105.6068,240.3128 111.306,252.1792 " fill="none" id="TestType-Parameter" style="stroke:#A80036;stroke-width:0.52;"/><polygon fill="#000000" points="97.8045,201.7172,97.7623,196.7719,94.8636,197.7412,97.8045,201.7172" style="stroke:#000000;stroke-width:0.52;"/><text fill="#000000" font-family="sans-serif" font-size="6.76" lengthAdjust="spacing" textLength="10.92" x="101.66" y="202.0175">has</text><text fill="#000000" font-family="sans-serif" font-size="6.76" lengthAdjust="spacing" textLength="3.64" x="80.8038" y="182.1067">1</text><text fill="#000000" font-family="sans-serif" font-size="6.76" lengthAdjust="spacing" textLength="10.4" x="98.2167" y="246.5159">1..*</text><!--MD5=[502b51bc079239060389dab43b7d3470]
link Client to Test--><path codeLine="31" d="M42.8636,96.2 C61.8436,96.2 90.1576,96.2 107.5464,96.2 " fill="none" id="Client-Test" style="stroke:#A80036;stroke-width:0.52;"/><polygon fill="#000000" points="51.74,90.0514,56.4434,91.5796,56.4434,88.5232,51.74,90.0514" style="stroke:#000000;stroke-width:0.52;"/><text fill="#000000" font-family="sans-serif" font-size="6.76" lengthAdjust="spacing" textLength="39" x="59.02" y="92.8175">requested by</text><text fill="#000000" font-family="sans-serif" font-size="6.76" lengthAdjust="spacing" textLength="3.64" x="46.8357" y="94.163">1</text><text fill="#000000" font-family="sans-serif" font-size="6.76" lengthAdjust="spacing" textLength="2.6" x="100.8676" y="93.9265">*</text><!--MD5=[7e4bc624457760b649895ff2ead938fa]
link Company to Test--><path codeLine="32" d="M122.98,35.9008 C122.98,47.6372 122.98,63.7728 122.98,76.3256 " fill="none" id="Company-Test" style="stroke:#A80036;stroke-width:0.52;"/><polygon fill="#000000" points="125.58,58.8514,127.1082,54.148,124.0518,54.148,125.58,58.8514" style="stroke:#000000;stroke-width:0.52;"/><text fill="#000000" font-family="sans-serif" font-size="6.76" lengthAdjust="spacing" textLength="26" x="130.26" y="59.0175">performs</text><text fill="#000000" font-family="sans-serif" font-size="6.76" lengthAdjust="spacing" textLength="3.64" x="118.9817" y="46.9414">1</text><text fill="#000000" font-family="sans-serif" font-size="6.76" lengthAdjust="spacing" textLength="2.6" x="120.1484" y="70.7734">*</text><!--MD5=[e981d4f96c4342412d1e68160b30cf70]
link Test to TestType--><path codeLine="33" d="M107.8948,116.09 C104.0208,121.0612 99.8556,126.4068 95.9816,131.3832 " fill="none" id="Test-TestType" style="stroke:#A80036;stroke-width:0.52;"/><polygon fill="#000000" points="82.663,121.1965,86.7591,118.4252,84.3478,116.5469,82.663,121.1965" style="stroke:#000000;stroke-width:0.52;"/><text fill="#000000" font-family="sans-serif" font-size="6.76" lengthAdjust="spacing" textLength="12.48" x="88.9408" y="121.9115">is of</text><text fill="#000000" font-family="sans-serif" font-size="6.76" lengthAdjust="spacing" textLength="2.6" x="100.8913" y="119.0624">*</text><text fill="#000000" font-family="sans-serif" font-size="6.76" lengthAdjust="spacing" textLength="3.64" x="94.6278" y="125.9694">1</text><!--MD5=[852f3a1b1bcfc6074ebcba484562eac0]
link Parameter to Category--><path codeLine="34" d="M122.98,299.026 C122.98,311.5112 122.98,326.924 122.98,339.43 " fill="none" id="Parameter-Category" style="stroke:#A80036;stroke-width:0.52;"/><polygon fill="#000000" points="125.58,321.9714,127.1082,317.268,124.0518,317.268,125.58,321.9714" style="stroke:#000000;stroke-width:0.52;"/><text fill="#000000" font-family="sans-serif" font-size="6.76" lengthAdjust="spacing" textLength="48.36" x="130.26" y="322.1375">presented under</text><text fill="#000000" font-family="sans-serif" font-size="6.76" lengthAdjust="spacing" textLength="2.6" x="120.1972" y="309.9536">*</text><text fill="#000000" font-family="sans-serif" font-size="6.76" lengthAdjust="spacing" textLength="3.64" x="119.0613" y="333.921">1</text><!--MD5=[92e8e476cc9e9004a7125f53a120ec97]
link TestParameter to Parameter--><path codeLine="35" d="M164.008,211.796 C156.962,222.6588 146.4372,238.8932 137.8156,252.2 " fill="none" id="TestParameter-Parameter" style="stroke:#A80036;stroke-width:0.52;"/><polygon fill="#000000" points="154.3257,234.1931,158.1666,231.0777,155.6018,229.4151,154.3257,234.1931" style="stroke:#000000;stroke-width:0.52;"/><text fill="#000000" font-family="sans-serif" font-size="6.76" lengthAdjust="spacing" textLength="40.56" x="160.42" y="234.7775">associated to</text><text fill="#000000" font-family="sans-serif" font-size="6.76" lengthAdjust="spacing" textLength="2.6" x="159.2916" y="222.7187">*</text><text fill="#000000" font-family="sans-serif" font-size="6.76" lengthAdjust="spacing" textLength="3.64" x="136.25" y="246.54">1</text><!--MD5=[7d615427424eb1e9d8965c4eb17ecbf5]
link TestParameter to Test--><path codeLine="36" d="M182.9256,186.654 C186.4096,182.1144 189.8208,176.6856 191.62,171.08 C196.9968,154.3568 200.8084,146.5308 191.62,131.56 C180.0864,112.7672 154.9028,103.7244 138.4604,99.6736 " fill="none" id="TestParameter-Test" style="stroke:#A80036;stroke-width:0.52;"/><polygon fill="#000000" points="200.6035,153.7264,199.8233,148.8429,197.1018,150.2341,200.6035,153.7264" style="stroke:#000000;stroke-width:0.52;"/><text fill="#000000" font-family="sans-serif" font-size="6.76" lengthAdjust="spacing" textLength="10.92" x="204.1" y="154.1775">has</text><text fill="#000000" font-family="sans-serif" font-size="6.76" lengthAdjust="spacing" textLength="2.6" x="182.828" y="181.1042">*</text><text fill="#000000" font-family="sans-serif" font-size="6.76" lengthAdjust="spacing" textLength="3.64" x="142.4611" y="98.2532">1</text><!--MD5=[e90a08f535be42a01c65316afc76877e]
link Test to apoint7215--><path d="M121.9608,116.064 C121.7372,121.108 121.5344,126.5368 121.42,131.56 C121.0248,149.1204 120.926,153.5248 121.42,171.08 C121.7216,181.8128 122.6888,194.8648 122.928,197.9588 " fill="none" id="Test-apoint7215" style="stroke:#A80036;stroke-width:0.52;"/><polygon fill="#000000" points="124.0507,154.0112,125.5233,149.2901,122.467,149.3262,124.0507,154.0112" style="stroke:#000000;stroke-width:0.52;"/><text fill="#000000" font-family="sans-serif" font-size="6.76" lengthAdjust="spacing" textLength="60.32" x="128.7" y="154.1775">requests analysis of</text><text fill="#000000" font-family="sans-serif" font-size="6.76" lengthAdjust="spacing" textLength="2.6" x="118.9912" y="126.9385">*</text><!--MD5=[5e8c2ddd5409346aa64ea61bd45c4b86]
link apoint7215 to Parameter--><path d="M122.98,200.33 C122.98,204.8384 122.98,231.7692 122.98,252.0232 " fill="none" id="apoint7215-Parameter" style="stroke:#A80036;stroke-width:0.52;"/><text fill="#000000" font-family="sans-serif" font-size="6.76" lengthAdjust="spacing" textLength="10.4" x="111.7838" y="246.5071">1..*</text><!--MD5=[ee70430c536eb25f68963e972fa67f6e]
link apoint7215 to TestParameter--><path d="M124.124,199.16 C130.156,199.16 136.1828,199.16 142.2148,199.16 " fill="none" id="apoint7215-TestParameter" style="stroke:#A80036;stroke-width:0.52;stroke-dasharray:7.0,7.0;"/><!--MD5=[4fbe18761072a672369873b274ed394c]
@startuml
skinparam classAttributeIconSize 0

class Company {
-designation
}
class Test {
-testCode
-nhsCode
}
class Client {
-name
-cardNumber
}
class TestType {
-code
-description
}
class Parameter {
-code
-shortName
-description
}
class Category {
-code
-description
-nhsID
}

Test "*"- -"1..*" Parameter : requests analysis of >
TestType "1"- -"1..*" Parameter : has >
Test "*"-left-"1" Client : requested by >
Test "*"-up-"1" Company : performs <
Test "*"-right-"1" "TestType" : is of >
Parameter "*"- -"1" Category : presented under >
TestParameter "*"-"1" Parameter : associated to >
TestParameter "*"- -"1" Test : has <
(Test, Parameter) .. TestParameter

@enduml

PlantUML version 1.2021.00(Sun Jan 10 10:25:05 GMT 2021)
(GPL source distribution)
Java Runtime: OpenJDK Runtime Environment
JVM: OpenJDK 64-Bit Server VM
Default Encoding: Cp1252
Language: pt
Country: PT
--></g></svg>