<?xml version="1.0" encoding="UTF-8" standalone="no"?><svg xmlns="http://www.w3.org/2000/svg" xmlns:xlink="http://www.w3.org/1999/xlink" contentScriptType="application/ecmascript" contentStyleType="text/css" height="1450.8px" preserveAspectRatio="none" style="width:1522px;height:1450px;" version="1.1" viewBox="0 0 1522 1450" width="1522.3px" zoomAndPan="magnify"><defs><filter height="300%" id="f4soxxpv193sy" width="300%" x="-1" y="-1"><feGaussianBlur result="blurOut" stdDeviation="2.6"/><feColorMatrix in="blurOut" result="blurOut2" type="matrix" values="0 0 0 0 0 0 0 0 0 0 0 0 0 0 0 0 0 0 .4 0"/><feOffset dx="5.2" dy="5.2" in="blurOut2" result="blurOut3"/><feBlend in="SourceGraphic" in2="blurOut3" mode="normal"/></filter></defs><g><!--MD5=[d77386df0ab152061918b4652af9ba57]
class RegisterTestUI--><rect codeLine="4" fill="#FEFECE" filter="url(#f4soxxpv193sy)" height="62.4" id="RegisterTestUI" style="stroke:#A80036;stroke-width:1.9500000000000002;" width="149.5" x="928.85" y="9.1"/><ellipse cx="948.35" cy="29.9" fill="#ADD1B2" rx="14.3" ry="14.3" style="stroke:#A80036;stroke-width:1.3;"/><path d="M950.95,25.35 Q951.2141,24.7 951.5188,24.375 Q951.8234,24.05 952.1688,24.05 Q952.7781,24.05 953.1641,24.4156 Q953.55,24.7813 953.55,25.6344 L953.55,27.6656 Q953.55,28.5188 953.1844,28.8844 Q952.8188,29.25 952.25,29.25 Q951.7422,29.25 951.4172,29.0266 Q951.0922,28.8031 950.95,28.2141 Q950.8891,27.8078 950.6656,27.5844 Q950.2594,27.1578 949.5281,26.9141 Q948.7969,26.65 948.0656,26.65 Q947.1516,26.65 946.3797,27.0156 Q945.6281,27.3813 945.0391,28.1938 Q944.45,29.0063 944.45,30.1234 L944.45,31.3219 Q944.45,32.6625 945.5469,33.5563 Q946.6438,34.45 948.5938,34.45 Q949.7516,34.45 950.5641,34.1859 Q951.0313,34.0438 951.5594,33.5766 Q951.9047,33.3125 952.0875,33.2313 Q952.2703,33.15 952.4938,33.15 Q952.9203,33.15 953.225,33.4953 Q953.55,33.8203 953.55,34.2875 Q953.55,34.7344 953.1031,35.2625 Q952.4531,36.0344 951.4172,36.4609 Q950.0563,37.05 948.3906,37.05 Q946.4406,37.05 944.8766,36.2781 Q943.6172,35.6688 942.7234,34.3484 Q941.85,33.0281 941.85,31.4641 L941.85,30.0422 Q941.85,28.4172 942.6219,26.9953 Q943.4141,25.5734 944.775,24.8219 Q946.1563,24.05 947.7,24.05 Q948.6344,24.05 949.4469,24.375 Q950.2594,24.7 950.95,25.35 Z " fill="#000000"/><text fill="#000000" font-family="sans-serif" font-size="15.6" lengthAdjust="spacing" textLength="107.9" x="966.55" y="36.2832">RegisterTestUI</text><line style="stroke:#A80036;stroke-width:1.9500000000000002;" x1="930.15" x2="1077.05" y1="50.7" y2="50.7"/><line style="stroke:#A80036;stroke-width:1.9500000000000002;" x1="930.15" x2="1077.05" y1="61.1" y2="61.1"/><!--MD5=[73677359b52d98a525977144c337a659]
class RegisterTestController--><rect codeLine="5" fill="#FEFECE" filter="url(#f4soxxpv193sy)" height="152.3336" id="RegisterTestController" style="stroke:#A80036;stroke-width:1.9500000000000002;" width="258.7" x="549.25" y="211.9"/><ellipse cx="593.32" cy="232.7" fill="#ADD1B2" rx="14.3" ry="14.3" style="stroke:#A80036;stroke-width:1.3;"/><path d="M595.92,228.15 Q596.1841,227.5 596.4888,227.175 Q596.7934,226.85 597.1388,226.85 Q597.7481,226.85 598.1341,227.2156 Q598.52,227.5813 598.52,228.4344 L598.52,230.4656 Q598.52,231.3188 598.1544,231.6844 Q597.7887,232.05 597.22,232.05 Q596.7122,232.05 596.3872,231.8266 Q596.0622,231.6031 595.92,231.0141 Q595.8591,230.6078 595.6356,230.3844 Q595.2294,229.9578 594.4981,229.7141 Q593.7669,229.45 593.0356,229.45 Q592.1216,229.45 591.3497,229.8156 Q590.5981,230.1813 590.0091,230.9938 Q589.42,231.8063 589.42,232.9234 L589.42,234.1219 Q589.42,235.4625 590.5169,236.3563 Q591.6138,237.25 593.5638,237.25 Q594.7216,237.25 595.5341,236.9859 Q596.0013,236.8438 596.5294,236.3766 Q596.8747,236.1125 597.0575,236.0313 Q597.2403,235.95 597.4638,235.95 Q597.8903,235.95 598.195,236.2953 Q598.52,236.6203 598.52,237.0875 Q598.52,237.5344 598.0731,238.0625 Q597.4231,238.8344 596.3872,239.2609 Q595.0263,239.85 593.3606,239.85 Q591.4106,239.85 589.8466,239.0781 Q588.5872,238.4688 587.6934,237.1484 Q586.82,235.8281 586.82,234.2641 L586.82,232.8422 Q586.82,231.2172 587.5919,229.7953 Q588.3841,228.3734 589.745,227.6219 Q591.1263,226.85 592.67,226.85 Q593.6044,226.85 594.4169,227.175 Q595.2294,227.5 595.92,228.15 Z " fill="#000000"/><text fill="#000000" font-family="sans-serif" font-size="15.6" lengthAdjust="spacing" textLength="162.5" x="616.98" y="239.0832">RegisterTestController</text><line style="stroke:#A80036;stroke-width:1.9500000000000002;" x1="550.55" x2="806.65" y1="253.5" y2="253.5"/><text fill="#000000" font-family="sans-serif" font-size="14.3" lengthAdjust="spacing" textLength="37.7" x="557.05" y="273.5446">-client</text><text fill="#000000" font-family="sans-serif" font-size="14.3" lengthAdjust="spacing" textLength="59.8" x="557.05" y="291.5313">-testType</text><text fill="#000000" font-family="sans-serif" font-size="14.3" lengthAdjust="spacing" textLength="85.8" x="557.05" y="309.5181">-testCategory</text><text fill="#000000" font-family="sans-serif" font-size="14.3" lengthAdjust="spacing" textLength="92.3" x="557.05" y="327.5048">-testParameter</text><line style="stroke:#A80036;stroke-width:1.9500000000000002;" x1="550.55" x2="806.65" y1="335.8469" y2="335.8469"/><text fill="#000000" font-family="sans-serif" font-size="14.3" lengthAdjust="spacing" textLength="243.1" x="557.05" y="355.8915">+getClientByCardNumber(cardNumber)</text><!--MD5=[02e4b9b7573f1156f41e60aa5b4e25a4]
class Company--><rect codeLine="17" fill="#FEFECE" filter="url(#f4soxxpv193sy)" height="116.3602" id="Company" style="stroke:#A80036;stroke-width:1.9500000000000002;" width="145.6" x="174.2" y="443.3"/><ellipse cx="209.495" cy="464.1" fill="#ADD1B2" rx="14.3" ry="14.3" style="stroke:#A80036;stroke-width:1.3;"/><path d="M212.095,459.55 Q212.3591,458.9 212.6638,458.575 Q212.9684,458.25 213.3138,458.25 Q213.9231,458.25 214.3091,458.6156 Q214.695,458.9813 214.695,459.8344 L214.695,461.8656 Q214.695,462.7188 214.3294,463.0844 Q213.9638,463.45 213.395,463.45 Q212.8872,463.45 212.5622,463.2266 Q212.2372,463.0031 212.095,462.4141 Q212.0341,462.0078 211.8106,461.7844 Q211.4044,461.3578 210.6731,461.1141 Q209.9419,460.85 209.2106,460.85 Q208.2966,460.85 207.5247,461.2156 Q206.7731,461.5813 206.1841,462.3938 Q205.595,463.2063 205.595,464.3234 L205.595,465.5219 Q205.595,466.8625 206.6919,467.7563 Q207.7888,468.65 209.7388,468.65 Q210.8966,468.65 211.7091,468.3859 Q212.1763,468.2438 212.7044,467.7766 Q213.0497,467.5125 213.2325,467.4313 Q213.4153,467.35 213.6388,467.35 Q214.0653,467.35 214.37,467.6953 Q214.695,468.0203 214.695,468.4875 Q214.695,468.9344 214.2481,469.4625 Q213.5981,470.2344 212.5622,470.6609 Q211.2013,471.25 209.5356,471.25 Q207.5856,471.25 206.0216,470.4781 Q204.7622,469.8688 203.8684,468.5484 Q202.995,467.2281 202.995,465.6641 L202.995,464.2422 Q202.995,462.6172 203.7669,461.1953 Q204.5591,459.7734 205.92,459.0219 Q207.3013,458.25 208.845,458.25 Q209.7794,458.25 210.5919,458.575 Q211.4044,458.9 212.095,459.55 Z " fill="#000000"/><text fill="#000000" font-family="sans-serif" font-size="15.6" lengthAdjust="spacing" textLength="68.9" x="231.205" y="470.4832">Company</text><line style="stroke:#A80036;stroke-width:1.9500000000000002;" x1="175.5" x2="318.5" y1="484.9" y2="484.9"/><text fill="#000000" font-family="sans-serif" font-size="14.3" lengthAdjust="spacing" textLength="76.7" x="182" y="504.9446">-designation</text><line style="stroke:#A80036;stroke-width:1.9500000000000002;" x1="175.5" x2="318.5" y1="513.2867" y2="513.2867"/><text fill="#000000" font-family="sans-serif" font-size="14.3" lengthAdjust="spacing" textLength="98.8" x="182" y="533.3313">+getTestStore()</text><text fill="#000000" font-family="sans-serif" font-size="14.3" lengthAdjust="spacing" textLength="130" x="182" y="551.3181">+getTestTypeStore()</text><!--MD5=[0f6f7964b844a64b0496af0dda7914bd]
class TestStore--><rect codeLine="22" fill="#FEFECE" filter="url(#f4soxxpv193sy)" height="62.4" id="TestStore" style="stroke:#A80036;stroke-width:1.9500000000000002;" width="110.5" x="365.95" y="470.6"/><ellipse cx="385.45" cy="491.4" fill="#ADD1B2" rx="14.3" ry="14.3" style="stroke:#A80036;stroke-width:1.3;"/><path d="M388.05,486.85 Q388.3141,486.2 388.6188,485.875 Q388.9234,485.55 389.2688,485.55 Q389.8781,485.55 390.2641,485.9156 Q390.65,486.2813 390.65,487.1344 L390.65,489.1656 Q390.65,490.0188 390.2844,490.3844 Q389.9188,490.75 389.35,490.75 Q388.8422,490.75 388.5172,490.5266 Q388.1922,490.3031 388.05,489.7141 Q387.9891,489.3078 387.7656,489.0844 Q387.3594,488.6578 386.6281,488.4141 Q385.8969,488.15 385.1656,488.15 Q384.2516,488.15 383.4797,488.5156 Q382.7281,488.8813 382.1391,489.6938 Q381.55,490.5063 381.55,491.6234 L381.55,492.8219 Q381.55,494.1625 382.6469,495.0563 Q383.7438,495.95 385.6938,495.95 Q386.8516,495.95 387.6641,495.6859 Q388.1313,495.5438 388.6594,495.0766 Q389.0047,494.8125 389.1875,494.7313 Q389.3703,494.65 389.5938,494.65 Q390.0203,494.65 390.325,494.9953 Q390.65,495.3203 390.65,495.7875 Q390.65,496.2344 390.2031,496.7625 Q389.5531,497.5344 388.5172,497.9609 Q387.1563,498.55 385.4906,498.55 Q383.5406,498.55 381.9766,497.7781 Q380.7172,497.1688 379.8234,495.8484 Q378.95,494.5281 378.95,492.9641 L378.95,491.5422 Q378.95,489.9172 379.7219,488.4953 Q380.5141,487.0734 381.875,486.3219 Q383.2563,485.55 384.8,485.55 Q385.7344,485.55 386.5469,485.875 Q387.3594,486.2 388.05,486.85 Z " fill="#000000"/><text fill="#000000" font-family="sans-serif" font-size="15.6" lengthAdjust="spacing" textLength="68.9" x="403.65" y="497.7832">TestStore</text><line style="stroke:#A80036;stroke-width:1.9500000000000002;" x1="367.25" x2="475.15" y1="512.2" y2="512.2"/><line style="stroke:#A80036;stroke-width:1.9500000000000002;" x1="367.25" x2="475.15" y1="522.6" y2="522.6"/><!--MD5=[df38be88ccee13e832d6fafd6288a4ca]
class Test--><rect codeLine="23" fill="#FEFECE" filter="url(#f4soxxpv193sy)" height="98.3734" id="Test" style="stroke:#A80036;stroke-width:1.9500000000000002;" width="76.7" x="267.15" y="670.8"/><ellipse cx="288.405" cy="691.6" fill="#ADD1B2" rx="14.3" ry="14.3" style="stroke:#A80036;stroke-width:1.3;"/><path d="M291.005,687.05 Q291.2691,686.4 291.5738,686.075 Q291.8784,685.75 292.2238,685.75 Q292.8331,685.75 293.2191,686.1156 Q293.605,686.4813 293.605,687.3344 L293.605,689.3656 Q293.605,690.2188 293.2394,690.5844 Q292.8738,690.95 292.305,690.95 Q291.7972,690.95 291.4722,690.7266 Q291.1472,690.5031 291.005,689.9141 Q290.9441,689.5078 290.7206,689.2844 Q290.3144,688.8578 289.5831,688.6141 Q288.8519,688.35 288.1206,688.35 Q287.2066,688.35 286.4347,688.7156 Q285.6831,689.0813 285.0941,689.8938 Q284.505,690.7063 284.505,691.8234 L284.505,693.0219 Q284.505,694.3625 285.6019,695.2563 Q286.6988,696.15 288.6488,696.15 Q289.8066,696.15 290.6191,695.8859 Q291.0863,695.7438 291.6144,695.2766 Q291.9597,695.0125 292.1425,694.9313 Q292.3253,694.85 292.5488,694.85 Q292.9753,694.85 293.28,695.1953 Q293.605,695.5203 293.605,695.9875 Q293.605,696.4344 293.1581,696.9625 Q292.5081,697.7344 291.4722,698.1609 Q290.1113,698.75 288.4456,698.75 Q286.4956,698.75 284.9316,697.9781 Q283.6722,697.3688 282.7784,696.0484 Q281.905,694.7281 281.905,693.1641 L281.905,691.7422 Q281.905,690.1172 282.6769,688.6953 Q283.4691,687.2734 284.83,686.5219 Q286.2113,685.75 287.755,685.75 Q288.6894,685.75 289.5019,686.075 Q290.3144,686.4 291.005,687.05 Z " fill="#000000"/><text fill="#000000" font-family="sans-serif" font-size="15.6" lengthAdjust="spacing" textLength="31.2" x="306.995" y="697.9832">Test</text><line style="stroke:#A80036;stroke-width:1.9500000000000002;" x1="268.45" x2="342.55" y1="712.4" y2="712.4"/><text fill="#000000" font-family="sans-serif" font-size="14.3" lengthAdjust="spacing" textLength="61.1" x="274.95" y="732.4446">-testCode</text><text fill="#000000" font-family="sans-serif" font-size="14.3" lengthAdjust="spacing" textLength="61.1" x="274.95" y="750.4313">-nhsCode</text><line style="stroke:#A80036;stroke-width:1.9500000000000002;" x1="268.45" x2="342.55" y1="758.7734" y2="758.7734"/><!--MD5=[ed6624c6556d5e7b1bd23032162d20b7]
class Client--><rect codeLine="27" fill="#FEFECE" filter="url(#f4soxxpv193sy)" height="98.3734" id="Client" style="stroke:#A80036;stroke-width:1.9500000000000002;" width="97.5" x="454.35" y="880.1"/><ellipse cx="480.285" cy="900.9" fill="#ADD1B2" rx="14.3" ry="14.3" style="stroke:#A80036;stroke-width:1.3;"/><path d="M482.885,896.35 Q483.1491,895.7 483.4538,895.375 Q483.7584,895.05 484.1038,895.05 Q484.7131,895.05 485.0991,895.4156 Q485.485,895.7813 485.485,896.6344 L485.485,898.6656 Q485.485,899.5188 485.1194,899.8844 Q484.7538,900.25 484.185,900.25 Q483.6772,900.25 483.3522,900.0266 Q483.0272,899.8031 482.885,899.2141 Q482.8241,898.8078 482.6006,898.5844 Q482.1944,898.1578 481.4631,897.9141 Q480.7319,897.65 480.0006,897.65 Q479.0866,897.65 478.3147,898.0156 Q477.5631,898.3813 476.9741,899.1938 Q476.385,900.0063 476.385,901.1234 L476.385,902.3219 Q476.385,903.6625 477.4819,904.5563 Q478.5788,905.45 480.5288,905.45 Q481.6866,905.45 482.4991,905.1859 Q482.9663,905.0438 483.4944,904.5766 Q483.8397,904.3125 484.0225,904.2313 Q484.2053,904.15 484.4288,904.15 Q484.8553,904.15 485.16,904.4953 Q485.485,904.8203 485.485,905.2875 Q485.485,905.7344 485.0381,906.2625 Q484.3881,907.0344 483.3522,907.4609 Q481.9913,908.05 480.3256,908.05 Q478.3756,908.05 476.8116,907.2781 Q475.5522,906.6688 474.6584,905.3484 Q473.785,904.0281 473.785,902.4641 L473.785,901.0422 Q473.785,899.4172 474.5569,897.9953 Q475.3491,896.5734 476.71,895.8219 Q478.0913,895.05 479.635,895.05 Q480.5694,895.05 481.3819,895.375 Q482.1944,895.7 482.885,896.35 Z " fill="#000000"/><text fill="#000000" font-family="sans-serif" font-size="15.6" lengthAdjust="spacing" textLength="41.6" x="499.915" y="907.2832">Client</text><line style="stroke:#A80036;stroke-width:1.9500000000000002;" x1="455.65" x2="550.55" y1="921.7" y2="921.7"/><text fill="#000000" font-family="sans-serif" font-size="14.3" lengthAdjust="spacing" textLength="39" x="462.15" y="941.7446">-name</text><text fill="#000000" font-family="sans-serif" font-size="14.3" lengthAdjust="spacing" textLength="81.9" x="462.15" y="959.7313">-cardNumber</text><line style="stroke:#A80036;stroke-width:1.9500000000000002;" x1="455.65" x2="550.55" y1="968.0734" y2="968.0734"/><!--MD5=[aeb3272166074d8737a70b61b1e71682]
class TestType--><rect codeLine="31" fill="#FEFECE" filter="url(#f4soxxpv193sy)" height="116.3602" id="TestType" style="stroke:#A80036;stroke-width:1.9500000000000002;" width="144.3" x="615.55" y="661.7"/><ellipse cx="652.015" cy="682.5" fill="#ADD1B2" rx="14.3" ry="14.3" style="stroke:#A80036;stroke-width:1.3;"/><path d="M654.615,677.95 Q654.8791,677.3 655.1838,676.975 Q655.4884,676.65 655.8338,676.65 Q656.4431,676.65 656.8291,677.0156 Q657.215,677.3813 657.215,678.2344 L657.215,680.2656 Q657.215,681.1188 656.8494,681.4844 Q656.4838,681.85 655.915,681.85 Q655.4072,681.85 655.0822,681.6266 Q654.7572,681.4031 654.615,680.8141 Q654.5541,680.4078 654.3306,680.1844 Q653.9244,679.7578 653.1931,679.5141 Q652.4619,679.25 651.7306,679.25 Q650.8166,679.25 650.0447,679.6156 Q649.2931,679.9813 648.7041,680.7938 Q648.115,681.6063 648.115,682.7234 L648.115,683.9219 Q648.115,685.2625 649.2119,686.1563 Q650.3088,687.05 652.2588,687.05 Q653.4166,687.05 654.2291,686.7859 Q654.6963,686.6438 655.2244,686.1766 Q655.5697,685.9125 655.7525,685.8313 Q655.9353,685.75 656.1588,685.75 Q656.5853,685.75 656.89,686.0953 Q657.215,686.4203 657.215,686.8875 Q657.215,687.3344 656.7681,687.8625 Q656.1181,688.6344 655.0822,689.0609 Q653.7213,689.65 652.0556,689.65 Q650.1056,689.65 648.5416,688.8781 Q647.2822,688.2688 646.3884,686.9484 Q645.515,685.6281 645.515,684.0641 L645.515,682.6422 Q645.515,681.0172 646.2869,679.5953 Q647.0791,678.1734 648.44,677.4219 Q649.8213,676.65 651.365,676.65 Q652.2994,676.65 653.1119,676.975 Q653.9244,677.3 654.615,677.95 Z " fill="#000000"/><text fill="#000000" font-family="sans-serif" font-size="15.6" lengthAdjust="spacing" textLength="65" x="673.985" y="688.8832">TestType</text><line style="stroke:#A80036;stroke-width:1.9500000000000002;" x1="616.85" x2="758.55" y1="703.3" y2="703.3"/><text fill="#000000" font-family="sans-serif" font-size="14.3" lengthAdjust="spacing" textLength="36.4" x="623.35" y="723.3446">-code</text><text fill="#000000" font-family="sans-serif" font-size="14.3" lengthAdjust="spacing" textLength="74.1" x="623.35" y="741.3313">-description</text><line style="stroke:#A80036;stroke-width:1.9500000000000002;" x1="616.85" x2="758.55" y1="749.6734" y2="749.6734"/><text fill="#000000" font-family="sans-serif" font-size="14.3" lengthAdjust="spacing" textLength="128.7" x="623.35" y="769.7181">+getCategoryStore()</text><!--MD5=[1f6362a5c8f21d8d6a0fce68f3a92a4e]
class Parameter--><rect codeLine="36" fill="#FEFECE" filter="url(#f4soxxpv193sy)" height="116.3602" id="Parameter" style="stroke:#A80036;stroke-width:1.9500000000000002;" width="117" x="516.1" y="1080.3"/><ellipse cx="535.6" cy="1101.1" fill="#ADD1B2" rx="14.3" ry="14.3" style="stroke:#A80036;stroke-width:1.3;"/><path d="M538.2,1096.55 Q538.4641,1095.9 538.7688,1095.575 Q539.0734,1095.25 539.4188,1095.25 Q540.0281,1095.25 540.4141,1095.6156 Q540.8,1095.9813 540.8,1096.8344 L540.8,1098.8656 Q540.8,1099.7188 540.4344,1100.0844 Q540.0688,1100.45 539.5,1100.45 Q538.9922,1100.45 538.6672,1100.2266 Q538.3422,1100.0031 538.2,1099.4141 Q538.1391,1099.0078 537.9156,1098.7844 Q537.5094,1098.3578 536.7781,1098.1141 Q536.0469,1097.85 535.3156,1097.85 Q534.4016,1097.85 533.6297,1098.2156 Q532.8781,1098.5813 532.2891,1099.3938 Q531.7,1100.2063 531.7,1101.3234 L531.7,1102.5219 Q531.7,1103.8625 532.7969,1104.7563 Q533.8938,1105.65 535.8438,1105.65 Q537.0016,1105.65 537.8141,1105.3859 Q538.2813,1105.2438 538.8094,1104.7766 Q539.1547,1104.5125 539.3375,1104.4313 Q539.5203,1104.35 539.7438,1104.35 Q540.1703,1104.35 540.475,1104.6953 Q540.8,1105.0203 540.8,1105.4875 Q540.8,1105.9344 540.3531,1106.4625 Q539.7031,1107.2344 538.6672,1107.6609 Q537.3063,1108.25 535.6406,1108.25 Q533.6906,1108.25 532.1266,1107.4781 Q530.8672,1106.8688 529.9734,1105.5484 Q529.1,1104.2281 529.1,1102.6641 L529.1,1101.2422 Q529.1,1099.6172 529.8719,1098.1953 Q530.6641,1096.7734 532.025,1096.0219 Q533.4063,1095.25 534.95,1095.25 Q535.8844,1095.25 536.6969,1095.575 Q537.5094,1095.9 538.2,1096.55 Z " fill="#000000"/><text fill="#000000" font-family="sans-serif" font-size="15.6" lengthAdjust="spacing" textLength="75.4" x="553.8" y="1107.4832">Parameter</text><line style="stroke:#A80036;stroke-width:1.9500000000000002;" x1="517.4" x2="631.8" y1="1121.9" y2="1121.9"/><text fill="#000000" font-family="sans-serif" font-size="14.3" lengthAdjust="spacing" textLength="36.4" x="523.9" y="1141.9446">-code</text><text fill="#000000" font-family="sans-serif" font-size="14.3" lengthAdjust="spacing" textLength="72.8" x="523.9" y="1159.9313">-shortName</text><text fill="#000000" font-family="sans-serif" font-size="14.3" lengthAdjust="spacing" textLength="74.1" x="523.9" y="1177.9181">-description</text><line style="stroke:#A80036;stroke-width:1.9500000000000002;" x1="517.4" x2="631.8" y1="1186.2602" y2="1186.2602"/><!--MD5=[a96594a83e2ecdc78cbf17c2ddf01934]
class Category--><rect codeLine="41" fill="#FEFECE" filter="url(#f4soxxpv193sy)" height="134.3469" id="Category" style="stroke:#A80036;stroke-width:1.9500000000000002;" width="150.8" x="1144" y="1298.7"/><ellipse cx="1183.975" cy="1319.5" fill="#ADD1B2" rx="14.3" ry="14.3" style="stroke:#A80036;stroke-width:1.3;"/><path d="M1186.575,1314.95 Q1186.8391,1314.3 1187.1438,1313.975 Q1187.4484,1313.65 1187.7938,1313.65 Q1188.4031,1313.65 1188.7891,1314.0156 Q1189.175,1314.3813 1189.175,1315.2344 L1189.175,1317.2656 Q1189.175,1318.1188 1188.8094,1318.4844 Q1188.4438,1318.85 1187.875,1318.85 Q1187.3672,1318.85 1187.0422,1318.6266 Q1186.7172,1318.4031 1186.575,1317.8141 Q1186.5141,1317.4078 1186.2906,1317.1844 Q1185.8844,1316.7578 1185.1531,1316.5141 Q1184.4219,1316.25 1183.6906,1316.25 Q1182.7766,1316.25 1182.0047,1316.6156 Q1181.2531,1316.9813 1180.6641,1317.7938 Q1180.075,1318.6063 1180.075,1319.7234 L1180.075,1320.9219 Q1180.075,1322.2625 1181.1719,1323.1563 Q1182.2688,1324.05 1184.2188,1324.05 Q1185.3766,1324.05 1186.1891,1323.7859 Q1186.6563,1323.6438 1187.1844,1323.1766 Q1187.5297,1322.9125 1187.7125,1322.8313 Q1187.8953,1322.75 1188.1188,1322.75 Q1188.5453,1322.75 1188.85,1323.0953 Q1189.175,1323.4203 1189.175,1323.8875 Q1189.175,1324.3344 1188.7281,1324.8625 Q1188.0781,1325.6344 1187.0422,1326.0609 Q1185.6813,1326.65 1184.0156,1326.65 Q1182.0656,1326.65 1180.5016,1325.8781 Q1179.2422,1325.2688 1178.3484,1323.9484 Q1177.475,1322.6281 1177.475,1321.0641 L1177.475,1319.6422 Q1177.475,1318.0172 1178.2469,1316.5953 Q1179.0391,1315.1734 1180.4,1314.4219 Q1181.7813,1313.65 1183.325,1313.65 Q1184.2594,1313.65 1185.0719,1313.975 Q1185.8844,1314.3 1186.575,1314.95 Z " fill="#000000"/><text fill="#000000" font-family="sans-serif" font-size="15.6" lengthAdjust="spacing" textLength="63.7" x="1206.725" y="1325.8832">Category</text><line style="stroke:#A80036;stroke-width:1.9500000000000002;" x1="1145.3" x2="1293.5" y1="1340.3" y2="1340.3"/><text fill="#000000" font-family="sans-serif" font-size="14.3" lengthAdjust="spacing" textLength="36.4" x="1151.8" y="1360.3446">-code</text><text fill="#000000" font-family="sans-serif" font-size="14.3" lengthAdjust="spacing" textLength="74.1" x="1151.8" y="1378.3313">-description</text><text fill="#000000" font-family="sans-serif" font-size="14.3" lengthAdjust="spacing" textLength="40.3" x="1151.8" y="1396.3181">-nhsID</text><line style="stroke:#A80036;stroke-width:1.9500000000000002;" x1="1145.3" x2="1293.5" y1="1404.6602" y2="1404.6602"/><text fill="#000000" font-family="sans-serif" font-size="14.3" lengthAdjust="spacing" textLength="135.2" x="1151.8" y="1424.7048">+getParameterStore()</text><!--MD5=[697f9e11933e18eed695718a14fb2495]
class TestTypeListDTO--><rect codeLine="47" fill="#FEFECE" filter="url(#f4soxxpv193sy)" height="62.4" id="TestTypeListDTO" style="stroke:#A80036;stroke-width:1.9500000000000002;" width="165.1" x="856.05" y="256.75"/><ellipse cx="875.55" cy="277.55" fill="#ADD1B2" rx="14.3" ry="14.3" style="stroke:#A80036;stroke-width:1.3;"/><path d="M878.15,273 Q878.4141,272.35 878.7188,272.025 Q879.0234,271.7 879.3688,271.7 Q879.9781,271.7 880.3641,272.0656 Q880.75,272.4313 880.75,273.2844 L880.75,275.3156 Q880.75,276.1688 880.3844,276.5344 Q880.0188,276.9 879.45,276.9 Q878.9422,276.9 878.6172,276.6766 Q878.2922,276.4531 878.15,275.8641 Q878.0891,275.4578 877.8656,275.2344 Q877.4594,274.8078 876.7281,274.5641 Q875.9969,274.3 875.2656,274.3 Q874.3516,274.3 873.5797,274.6656 Q872.8281,275.0313 872.2391,275.8438 Q871.65,276.6563 871.65,277.7734 L871.65,278.9719 Q871.65,280.3125 872.7469,281.2063 Q873.8438,282.1 875.7938,282.1 Q876.9516,282.1 877.7641,281.8359 Q878.2313,281.6938 878.7594,281.2266 Q879.1047,280.9625 879.2875,280.8813 Q879.4703,280.8 879.6938,280.8 Q880.1203,280.8 880.425,281.1453 Q880.75,281.4703 880.75,281.9375 Q880.75,282.3844 880.3031,282.9125 Q879.6531,283.6844 878.6172,284.1109 Q877.2563,284.7 875.5906,284.7 Q873.6406,284.7 872.0766,283.9281 Q870.8172,283.3188 869.9234,281.9984 Q869.05,280.6781 869.05,279.1141 L869.05,277.6922 Q869.05,276.0672 869.8219,274.6453 Q870.6141,273.2234 871.975,272.4719 Q873.3563,271.7 874.9,271.7 Q875.8344,271.7 876.6469,272.025 Q877.4594,272.35 878.15,273 Z " fill="#000000"/><text fill="#000000" font-family="sans-serif" font-size="15.6" lengthAdjust="spacing" textLength="123.5" x="893.75" y="283.9332">TestTypeListDTO</text><line style="stroke:#A80036;stroke-width:1.9500000000000002;" x1="857.35" x2="1019.85" y1="298.35" y2="298.35"/><line style="stroke:#A80036;stroke-width:1.9500000000000002;" x1="857.35" x2="1019.85" y1="308.75" y2="308.75"/><!--MD5=[ab15b0bb48dee63195016dbc4ad3acd2]
class TestTypeListMapper--><rect codeLine="48" fill="#FEFECE" filter="url(#f4soxxpv193sy)" height="80.3867" id="TestTypeListMapper" style="stroke:#A80036;stroke-width:1.9500000000000002;" width="185.9" x="707.85" y="461.5"/><ellipse cx="727.35" cy="482.3" fill="#ADD1B2" rx="14.3" ry="14.3" style="stroke:#A80036;stroke-width:1.3;"/><path d="M729.95,477.75 Q730.2141,477.1 730.5188,476.775 Q730.8234,476.45 731.1688,476.45 Q731.7781,476.45 732.1641,476.8156 Q732.55,477.1813 732.55,478.0344 L732.55,480.0656 Q732.55,480.9188 732.1844,481.2844 Q731.8188,481.65 731.25,481.65 Q730.7422,481.65 730.4172,481.4266 Q730.0922,481.2031 729.95,480.6141 Q729.8891,480.2078 729.6656,479.9844 Q729.2594,479.5578 728.5281,479.3141 Q727.7969,479.05 727.0656,479.05 Q726.1516,479.05 725.3797,479.4156 Q724.6281,479.7813 724.0391,480.5938 Q723.45,481.4063 723.45,482.5234 L723.45,483.7219 Q723.45,485.0625 724.5469,485.9563 Q725.6438,486.85 727.5938,486.85 Q728.7516,486.85 729.5641,486.5859 Q730.0313,486.4438 730.5594,485.9766 Q730.9047,485.7125 731.0875,485.6313 Q731.2703,485.55 731.4938,485.55 Q731.9203,485.55 732.225,485.8953 Q732.55,486.2203 732.55,486.6875 Q732.55,487.1344 732.1031,487.6625 Q731.4531,488.4344 730.4172,488.8609 Q729.0563,489.45 727.3906,489.45 Q725.4406,489.45 723.8766,488.6781 Q722.6172,488.0688 721.7234,486.7484 Q720.85,485.4281 720.85,483.8641 L720.85,482.4422 Q720.85,480.8172 721.6219,479.3953 Q722.4141,477.9734 723.775,477.2219 Q725.1563,476.45 726.7,476.45 Q727.6344,476.45 728.4469,476.775 Q729.2594,477.1 729.95,477.75 Z " fill="#000000"/><text fill="#000000" font-family="sans-serif" font-size="15.6" lengthAdjust="spacing" textLength="144.3" x="745.55" y="488.6832">TestTypeListMapper</text><line style="stroke:#A80036;stroke-width:1.9500000000000002;" x1="709.15" x2="892.45" y1="503.1" y2="503.1"/><line style="stroke:#A80036;stroke-width:1.9500000000000002;" x1="709.15" x2="892.45" y1="513.5" y2="513.5"/><text fill="#000000" font-family="sans-serif" font-size="14.3" lengthAdjust="spacing" textLength="119.6" x="715.65" y="533.5446">toDto(testTypeList)</text><!--MD5=[72095866668eec158ea0ef430e17e32d]
class TestCategoryListDTO--><rect codeLine="51" fill="#FEFECE" filter="url(#f4soxxpv193sy)" height="62.4" id="TestCategoryListDTO" style="stroke:#A80036;stroke-width:1.9500000000000002;" width="195" x="1294.8" y="110.5"/><ellipse cx="1314.3" cy="131.3" fill="#ADD1B2" rx="14.3" ry="14.3" style="stroke:#A80036;stroke-width:1.3;"/><path d="M1316.9,126.75 Q1317.1641,126.1 1317.4688,125.775 Q1317.7734,125.45 1318.1188,125.45 Q1318.7281,125.45 1319.1141,125.8156 Q1319.5,126.1813 1319.5,127.0344 L1319.5,129.0656 Q1319.5,129.9188 1319.1344,130.2844 Q1318.7688,130.65 1318.2,130.65 Q1317.6922,130.65 1317.3672,130.4266 Q1317.0422,130.2031 1316.9,129.6141 Q1316.8391,129.2078 1316.6156,128.9844 Q1316.2094,128.5578 1315.4781,128.3141 Q1314.7469,128.05 1314.0156,128.05 Q1313.1016,128.05 1312.3297,128.4156 Q1311.5781,128.7813 1310.9891,129.5938 Q1310.4,130.4063 1310.4,131.5234 L1310.4,132.7219 Q1310.4,134.0625 1311.4969,134.9563 Q1312.5938,135.85 1314.5438,135.85 Q1315.7016,135.85 1316.5141,135.5859 Q1316.9813,135.4438 1317.5094,134.9766 Q1317.8547,134.7125 1318.0375,134.6313 Q1318.2203,134.55 1318.4438,134.55 Q1318.8703,134.55 1319.175,134.8953 Q1319.5,135.2203 1319.5,135.6875 Q1319.5,136.1344 1319.0531,136.6625 Q1318.4031,137.4344 1317.3672,137.8609 Q1316.0063,138.45 1314.3406,138.45 Q1312.3906,138.45 1310.8266,137.6781 Q1309.5672,137.0688 1308.6734,135.7484 Q1307.8,134.4281 1307.8,132.8641 L1307.8,131.4422 Q1307.8,129.8172 1308.5719,128.3953 Q1309.3641,126.9734 1310.725,126.2219 Q1312.1063,125.45 1313.65,125.45 Q1314.5844,125.45 1315.3969,125.775 Q1316.2094,126.1 1316.9,126.75 Z " fill="#000000"/><text fill="#000000" font-family="sans-serif" font-size="15.6" lengthAdjust="spacing" textLength="153.4" x="1332.5" y="137.6832">TestCategoryListDTO</text><line style="stroke:#A80036;stroke-width:1.9500000000000002;" x1="1296.1" x2="1488.5" y1="152.1" y2="152.1"/><line style="stroke:#A80036;stroke-width:1.9500000000000002;" x1="1296.1" x2="1488.5" y1="162.5" y2="162.5"/><!--MD5=[0ec916e2f0bdcf552ca65805d6b76b83]
class TestCategoryListMapper--><rect codeLine="52" fill="#FEFECE" filter="url(#f4soxxpv193sy)" height="80.3867" id="TestCategoryListMapper" style="stroke:#A80036;stroke-width:1.9500000000000002;" width="215.8" x="1288.3" y="461.5"/><ellipse cx="1307.8" cy="482.3" fill="#ADD1B2" rx="14.3" ry="14.3" style="stroke:#A80036;stroke-width:1.3;"/><path d="M1310.4,477.75 Q1310.6641,477.1 1310.9688,476.775 Q1311.2734,476.45 1311.6188,476.45 Q1312.2281,476.45 1312.6141,476.8156 Q1313,477.1813 1313,478.0344 L1313,480.0656 Q1313,480.9188 1312.6344,481.2844 Q1312.2688,481.65 1311.7,481.65 Q1311.1922,481.65 1310.8672,481.4266 Q1310.5422,481.2031 1310.4,480.6141 Q1310.3391,480.2078 1310.1156,479.9844 Q1309.7094,479.5578 1308.9781,479.3141 Q1308.2469,479.05 1307.5156,479.05 Q1306.6016,479.05 1305.8297,479.4156 Q1305.0781,479.7813 1304.4891,480.5938 Q1303.9,481.4063 1303.9,482.5234 L1303.9,483.7219 Q1303.9,485.0625 1304.9969,485.9563 Q1306.0938,486.85 1308.0438,486.85 Q1309.2016,486.85 1310.0141,486.5859 Q1310.4813,486.4438 1311.0094,485.9766 Q1311.3547,485.7125 1311.5375,485.6313 Q1311.7203,485.55 1311.9438,485.55 Q1312.3703,485.55 1312.675,485.8953 Q1313,486.2203 1313,486.6875 Q1313,487.1344 1312.5531,487.6625 Q1311.9031,488.4344 1310.8672,488.8609 Q1309.5063,489.45 1307.8406,489.45 Q1305.8906,489.45 1304.3266,488.6781 Q1303.0672,488.0688 1302.1734,486.7484 Q1301.3,485.4281 1301.3,483.8641 L1301.3,482.4422 Q1301.3,480.8172 1302.0719,479.3953 Q1302.8641,477.9734 1304.225,477.2219 Q1305.6063,476.45 1307.15,476.45 Q1308.0844,476.45 1308.8969,476.775 Q1309.7094,477.1 1310.4,477.75 Z " fill="#000000"/><text fill="#000000" font-family="sans-serif" font-size="15.6" lengthAdjust="spacing" textLength="174.2" x="1326" y="488.6832">TestCategoryListMapper</text><line style="stroke:#A80036;stroke-width:1.9500000000000002;" x1="1289.6" x2="1502.8" y1="503.1" y2="503.1"/><line style="stroke:#A80036;stroke-width:1.9500000000000002;" x1="1289.6" x2="1502.8" y1="513.5" y2="513.5"/><text fill="#000000" font-family="sans-serif" font-size="14.3" lengthAdjust="spacing" textLength="145.6" x="1296.1" y="533.5446">toDto(testCategoryList)</text><!--MD5=[77cd0d232cb0916388eba2b410e3de64]
class TestParametersDTO--><rect codeLine="55" fill="#FEFECE" filter="url(#f4soxxpv193sy)" height="62.4" id="TestParametersDTO" style="stroke:#A80036;stroke-width:1.9500000000000002;" width="189.8" x="1055.6" y="110.5"/><ellipse cx="1075.1" cy="131.3" fill="#ADD1B2" rx="14.3" ry="14.3" style="stroke:#A80036;stroke-width:1.3;"/><path d="M1077.7,126.75 Q1077.9641,126.1 1078.2688,125.775 Q1078.5734,125.45 1078.9188,125.45 Q1079.5281,125.45 1079.9141,125.8156 Q1080.3,126.1813 1080.3,127.0344 L1080.3,129.0656 Q1080.3,129.9188 1079.9344,130.2844 Q1079.5688,130.65 1079,130.65 Q1078.4922,130.65 1078.1672,130.4266 Q1077.8422,130.2031 1077.7,129.6141 Q1077.6391,129.2078 1077.4156,128.9844 Q1077.0094,128.5578 1076.2781,128.3141 Q1075.5469,128.05 1074.8156,128.05 Q1073.9016,128.05 1073.1297,128.4156 Q1072.3781,128.7813 1071.7891,129.5938 Q1071.2,130.4063 1071.2,131.5234 L1071.2,132.7219 Q1071.2,134.0625 1072.2969,134.9563 Q1073.3938,135.85 1075.3438,135.85 Q1076.5016,135.85 1077.3141,135.5859 Q1077.7813,135.4438 1078.3094,134.9766 Q1078.6547,134.7125 1078.8375,134.6313 Q1079.0203,134.55 1079.2438,134.55 Q1079.6703,134.55 1079.975,134.8953 Q1080.3,135.2203 1080.3,135.6875 Q1080.3,136.1344 1079.8531,136.6625 Q1079.2031,137.4344 1078.1672,137.8609 Q1076.8063,138.45 1075.1406,138.45 Q1073.1906,138.45 1071.6266,137.6781 Q1070.3672,137.0688 1069.4734,135.7484 Q1068.6,134.4281 1068.6,132.8641 L1068.6,131.4422 Q1068.6,129.8172 1069.3719,128.3953 Q1070.1641,126.9734 1071.525,126.2219 Q1072.9063,125.45 1074.45,125.45 Q1075.3844,125.45 1076.1969,125.775 Q1077.0094,126.1 1077.7,126.75 Z " fill="#000000"/><text fill="#000000" font-family="sans-serif" font-size="15.6" lengthAdjust="spacing" textLength="148.2" x="1093.3" y="137.6832">TestParametersDTO</text><line style="stroke:#A80036;stroke-width:1.9500000000000002;" x1="1056.9" x2="1244.1" y1="152.1" y2="152.1"/><line style="stroke:#A80036;stroke-width:1.9500000000000002;" x1="1056.9" x2="1244.1" y1="162.5" y2="162.5"/><!--MD5=[f3a4b9230fb72f756384784813553363]
class TestParametersMapper--><rect codeLine="56" fill="#FEFECE" filter="url(#f4soxxpv193sy)" height="80.3867" id="TestParametersMapper" style="stroke:#A80036;stroke-width:1.9500000000000002;" width="210.6" x="939.9" y="461.5"/><ellipse cx="959.4" cy="482.3" fill="#ADD1B2" rx="14.3" ry="14.3" style="stroke:#A80036;stroke-width:1.3;"/><path d="M962,477.75 Q962.2641,477.1 962.5688,476.775 Q962.8734,476.45 963.2188,476.45 Q963.8281,476.45 964.2141,476.8156 Q964.6,477.1813 964.6,478.0344 L964.6,480.0656 Q964.6,480.9188 964.2344,481.2844 Q963.8688,481.65 963.3,481.65 Q962.7922,481.65 962.4672,481.4266 Q962.1422,481.2031 962,480.6141 Q961.9391,480.2078 961.7156,479.9844 Q961.3094,479.5578 960.5781,479.3141 Q959.8469,479.05 959.1156,479.05 Q958.2016,479.05 957.4297,479.4156 Q956.6781,479.7813 956.0891,480.5938 Q955.5,481.4063 955.5,482.5234 L955.5,483.7219 Q955.5,485.0625 956.5969,485.9563 Q957.6938,486.85 959.6438,486.85 Q960.8016,486.85 961.6141,486.5859 Q962.0813,486.4438 962.6094,485.9766 Q962.9547,485.7125 963.1375,485.6313 Q963.3203,485.55 963.5438,485.55 Q963.9703,485.55 964.275,485.8953 Q964.6,486.2203 964.6,486.6875 Q964.6,487.1344 964.1531,487.6625 Q963.5031,488.4344 962.4672,488.8609 Q961.1063,489.45 959.4406,489.45 Q957.4906,489.45 955.9266,488.6781 Q954.6672,488.0688 953.7734,486.7484 Q952.9,485.4281 952.9,483.8641 L952.9,482.4422 Q952.9,480.8172 953.6719,479.3953 Q954.4641,477.9734 955.825,477.2219 Q957.2063,476.45 958.75,476.45 Q959.6844,476.45 960.4969,476.775 Q961.3094,477.1 962,477.75 Z " fill="#000000"/><text fill="#000000" font-family="sans-serif" font-size="15.6" lengthAdjust="spacing" textLength="169" x="977.6" y="488.6832">TestParametersMapper</text><line style="stroke:#A80036;stroke-width:1.9500000000000002;" x1="941.2" x2="1149.2" y1="503.1" y2="503.1"/><line style="stroke:#A80036;stroke-width:1.9500000000000002;" x1="941.2" x2="1149.2" y1="513.5" y2="513.5"/><text fill="#000000" font-family="sans-serif" font-size="14.3" lengthAdjust="spacing" textLength="152.1" x="947.7" y="533.5446">toDto(testParameterList)</text><!--MD5=[0f07739f46effee96e095e9c408da841]
class TestParameter--><rect fill="#FEFECE" filter="url(#f4soxxpv193sy)" height="62.4" id="TestParameter" style="stroke:#A80036;stroke-width:1.9500000000000002;" width="148.2" x="240.5" y="898.3"/><ellipse cx="260" cy="919.1" fill="#ADD1B2" rx="14.3" ry="14.3" style="stroke:#A80036;stroke-width:1.3;"/><path d="M262.6,914.55 Q262.8641,913.9 263.1688,913.575 Q263.4734,913.25 263.8188,913.25 Q264.4281,913.25 264.8141,913.6156 Q265.2,913.9813 265.2,914.8344 L265.2,916.8656 Q265.2,917.7188 264.8344,918.0844 Q264.4688,918.45 263.9,918.45 Q263.3922,918.45 263.0672,918.2266 Q262.7422,918.0031 262.6,917.4141 Q262.5391,917.0078 262.3156,916.7844 Q261.9094,916.3578 261.1781,916.1141 Q260.4469,915.85 259.7156,915.85 Q258.8016,915.85 258.0297,916.2156 Q257.2781,916.5813 256.6891,917.3938 Q256.1,918.2063 256.1,919.3234 L256.1,920.5219 Q256.1,921.8625 257.1969,922.7563 Q258.2938,923.65 260.2438,923.65 Q261.4016,923.65 262.2141,923.3859 Q262.6813,923.2438 263.2094,922.7766 Q263.5547,922.5125 263.7375,922.4313 Q263.9203,922.35 264.1438,922.35 Q264.5703,922.35 264.875,922.6953 Q265.2,923.0203 265.2,923.4875 Q265.2,923.9344 264.7531,924.4625 Q264.1031,925.2344 263.0672,925.6609 Q261.7063,926.25 260.0406,926.25 Q258.0906,926.25 256.5266,925.4781 Q255.2672,924.8688 254.3734,923.5484 Q253.5,922.2281 253.5,920.6641 L253.5,919.2422 Q253.5,917.6172 254.2719,916.1953 Q255.0641,914.7734 256.425,914.0219 Q257.8063,913.25 259.35,913.25 Q260.2844,913.25 261.0969,913.575 Q261.9094,913.9 262.6,914.55 Z " fill="#000000"/><text fill="#000000" font-family="sans-serif" font-size="15.6" lengthAdjust="spacing" textLength="106.6" x="278.2" y="925.4832">TestParameter</text><line style="stroke:#A80036;stroke-width:1.9500000000000002;" x1="241.8" x2="387.4" y1="939.9" y2="939.9"/><line style="stroke:#A80036;stroke-width:1.9500000000000002;" x1="241.8" x2="387.4" y1="950.3" y2="950.3"/><ellipse cx="192.4" cy="929.5" fill="#000000" rx="2.6" ry="2.6" style="stroke:none;stroke-width:1.3;"/><!--MD5=[5b7a9ded131023be416e27d15bcd6d77]
link TestType to Parameter--><path codeLine="61" d="M672.087,778.908 C650.52,858.26 611.819,1000.623 590.226,1080.014 " fill="none" id="TestType-Parameter" style="stroke:#A80036;stroke-width:1.3;"/><polygon fill="#000000" points="648.2948,936.0008,655.0664,925.6564,647.6928,923.6518,648.2948,936.0008" style="stroke:#000000;stroke-width:1.3;"/><text fill="#000000" font-family="sans-serif" font-size="16.9" lengthAdjust="spacing" textLength="27.3" x="661.7" y="936.6437">has</text><text fill="#000000" font-family="sans-serif" font-size="16.9" lengthAdjust="spacing" textLength="9.1" x="660.2776" y="805.8117">1</text><text fill="#000000" font-family="sans-serif" font-size="16.9" lengthAdjust="spacing" textLength="26" x="564.6281" y="1066.2475">1..*</text><!--MD5=[3994f36c72829dbcddd1cf7021dddf61]
link Test to Client--><path codeLine="62" d="M340.418,769.86 C357.526,792.376 379.015,819 400.4,841.1 C416.988,858.234 436.657,875.537 454.324,890.162 " fill="none" id="Test-Client" style="stroke:#A80036;stroke-width:1.3;"/><polygon fill="#000000" points="411.369,834.3485,406.0588,823.1832,400.5102,828.4368,411.369,834.3485" style="stroke:#000000;stroke-width:1.3;"/><text fill="#000000" font-family="sans-serif" font-size="16.9" lengthAdjust="spacing" textLength="97.5" x="418.6" y="836.5437">requested by</text><text fill="#000000" font-family="sans-serif" font-size="16.9" lengthAdjust="spacing" textLength="6.5" x="338.9651" y="797.0461">*</text><text fill="#000000" font-family="sans-serif" font-size="16.9" lengthAdjust="spacing" textLength="9.1" x="434.7254" y="877.2005">1</text><!--MD5=[7e4bc624457760b649895ff2ead938fa]
link Company to Test--><path codeLine="63" d="M251.069,560.365 C253.37,580.333 256.984,602.745 262.6,622.7 C267.111,638.716 273.832,655.499 280.631,670.488 " fill="none" id="Company-Test" style="stroke:#A80036;stroke-width:1.3;"/><polygon fill="#000000" points="270.7852,617.5063,271.4266,605.1592,264.0467,607.1403,270.7852,617.5063" style="stroke:#000000;stroke-width:1.3;"/><text fill="#000000" font-family="sans-serif" font-size="16.9" lengthAdjust="spacing" textLength="65" x="280.8" y="618.1437">performs</text><text fill="#000000" font-family="sans-serif" font-size="16.9" lengthAdjust="spacing" textLength="9.1" x="241.9014" y="587.684">1</text><text fill="#000000" font-family="sans-serif" font-size="16.9" lengthAdjust="spacing" textLength="6.5" x="269.1223" y="656.6029">*</text><!--MD5=[e981d4f96c4342412d1e68160b30cf70]
link Test to TestType--><path codeLine="64" d="M343.902,720.2 C407.212,720.2 534.547,720.2 615.225,720.2 " fill="none" id="Test-TestType" style="stroke:#A80036;stroke-width:1.3;"/><polygon fill="#000000" points="467.35,704.8285,455.5914,701.0079,455.5914,708.6491,467.35,704.8285" style="stroke:#000000;stroke-width:1.3;"/><text fill="#000000" font-family="sans-serif" font-size="16.9" lengthAdjust="spacing" textLength="31.2" x="472.55" y="711.7437">is of</text><text fill="#000000" font-family="sans-serif" font-size="16.9" lengthAdjust="spacing" textLength="6.5" x="354.0547" y="714.5163">*</text><text fill="#000000" font-family="sans-serif" font-size="16.9" lengthAdjust="spacing" textLength="9.1" x="596.2562" y="715.6814">1</text><!--MD5=[852f3a1b1bcfc6074ebcba484562eac0]
link Parameter to Category--><path codeLine="65" d="M633.529,1160.601 C750.893,1201.408 1013.675,1292.798 1143.649,1337.999 " fill="none" id="Parameter-Category" style="stroke:#A80036;stroke-width:1.3;"/><polygon fill="#000000" points="927.8394,1250.3635,917.9881,1242.8926,915.4782,1250.1099,927.8394,1250.3635" style="stroke:#000000;stroke-width:1.3;"/><text fill="#000000" font-family="sans-serif" font-size="16.9" lengthAdjust="spacing" textLength="120.9" x="933.4" y="1255.1437">presented under</text><text fill="#000000" font-family="sans-serif" font-size="16.9" lengthAdjust="spacing" textLength="6.5" x="643.4388" y="1159.2491">*</text><text fill="#000000" font-family="sans-serif" font-size="16.9" lengthAdjust="spacing" textLength="9.1" x="1124.2604" y="1329.868">1</text><!--MD5=[14857a0f682f89c0bb9098ba51bf3333]
link RegisterTestUI to RegisterTestController--><path codeLine="66" d="M963.755,71.643 C919.074,105.326 844.844,161.304 783.315,207.701 " fill="none" id="RegisterTestUI-to-RegisterTestController" style="stroke:#A80036;stroke-width:1.3;stroke-dasharray:7.0,7.0;"/><polygon fill="#A80036" points="777.777,211.874,790.2455,208.9641,782.9613,207.9532,783.9722,200.6691,777.777,211.874" style="stroke:#A80036;stroke-width:1.3;"/><!--MD5=[fd1bc663e883ec1d717e7d33cb6b726b]
link RegisterTestController to Company--><path codeLine="67" d="M549.25,344.825 C486.317,372.827 410.007,408.226 343.2,443.3 C337.519,446.277 331.708,449.449 325.897,452.686 " fill="none" id="RegisterTestController-to-Company" style="stroke:#A80036;stroke-width:1.3;stroke-dasharray:7.0,7.0;"/><polygon fill="#A80036" points="320.073,455.962,332.8185,454.7443,325.7348,452.7691,327.7099,445.6854,320.073,455.962" style="stroke:#A80036;stroke-width:1.3;"/><!--MD5=[ab922b8023446f7e094c4c89426f3446]
link RegisterTestController to TestStore--><path codeLine="68" d="M562.029,364.078 C544.843,376.48 527.722,389.662 512.2,403 C490.204,421.889 467.961,445.64 450.957,464.958 " fill="none" id="RegisterTestController-to-TestStore" style="stroke:#A80036;stroke-width:1.3;stroke-dasharray:7.0,7.0;"/><polygon fill="#A80036" points="446.316,470.288,457.9325,464.9039,450.595,465.3951,450.1038,458.0576,446.316,470.288" style="stroke:#A80036;stroke-width:1.3;"/><!--MD5=[b0f4f6db8206580012ef9cd998ed01c5]
link TestStore to Test--><path codeLine="69" d="M405.106,533.104 C386.048,568.659 354.029,628.381 331.448,670.501 " fill="none" id="TestStore-Test" style="stroke:#A80036;stroke-width:1.3;"/><polygon fill="#000000" points="370.0289,616.9572,378.9519,608.3991,372.2174,604.7887,370.0289,616.9572" style="stroke:#000000;stroke-width:1.3;"/><text fill="#000000" font-family="sans-serif" font-size="16.9" lengthAdjust="spacing" textLength="63.7" x="384.8" y="618.1437">contains</text><text fill="#000000" font-family="sans-serif" font-size="16.9" lengthAdjust="spacing" textLength="6.5" x="393.8909" y="560.8687">*</text><text fill="#000000" font-family="sans-serif" font-size="16.9" lengthAdjust="spacing" textLength="9.1" x="326.1595" y="656.6182">1</text><!--MD5=[ec47b9290aa4dd5508a85ec01f0b1ba8]
link RegisterTestController to TestType--><path codeLine="70" d="M680.186,364.091 C681.928,446.238 684.684,576.758 686.335,654.511 " fill="none" id="RegisterTestController-to-TestType" style="stroke:#A80036;stroke-width:1.3;stroke-dasharray:7.0,7.0;"/><polygon fill="#A80036" points="686.478,661.401,691.4093,649.5852,686.3295,654.9027,681.012,649.8229,686.478,661.401" style="stroke:#A80036;stroke-width:1.3;"/><!--MD5=[6a57f7f5909bd34f9d66d293e1626668]
link RegisterTestController to Parameter--><path codeLine="71" d="M548.86,303.381 C353.86,328.263 7.8,388.245 7.8,500.5 C7.8,500.5 7.8,500.5 7.8,930.8 C7.8,1036.594 360.685,1104.129 509.574,1127.906 " fill="none" id="RegisterTestController-to-Parameter" style="stroke:#A80036;stroke-width:1.3;stroke-dasharray:7.0,7.0;"/><polygon fill="#A80036" points="516.074,1128.946,505.3354,1121.9737,509.6546,1127.9256,503.7027,1132.2448,516.074,1128.946" style="stroke:#A80036;stroke-width:1.3;"/><!--MD5=[e29587f2bf34f27ccb90b9d01c07b42e]
link RegisterTestController to Category--><path codeLine="72" d="M808.119,354.367 C816.569,357.825 825.006,361.075 833.3,364 C979.862,415.753 1061.918,335.517 1173.9,443.3 C1229.137,496.47 1219.4,533.026 1219.4,609.7 C1219.4,609.7 1219.4,609.7 1219.4,1140.1 C1219.4,1190.735 1219.4,1247.792 1219.4,1291.68 " fill="none" id="RegisterTestController-to-Category" style="stroke:#A80036;stroke-width:1.3;stroke-dasharray:7.0,7.0;"/><polygon fill="#A80036" points="1219.4,1298.609,1224.6,1286.909,1219.4,1292.109,1214.2,1286.909,1219.4,1298.609" style="stroke:#A80036;stroke-width:1.3;"/><!--MD5=[863d0969a3c73776af97edc376ac5a92]
link RegisterTestController to Client--><path codeLine="73" d="M657.956,364.429 C622.154,494.741 549.419,759.577 518.05,873.782 " fill="none" id="RegisterTestController-to-Client" style="stroke:#A80036;stroke-width:1.3;stroke-dasharray:7.0,7.0;"/><polygon fill="#A80036" points="516.308,880.087,524.3983,870.1634,518.0151,873.8152,514.3634,867.432,516.308,880.087" style="stroke:#A80036;stroke-width:1.3;"/><!--MD5=[9275a8c0f3db87c35a1a636c7087ada0]
link RegisterTestUI to TestTypeListDTO--><path codeLine="74" d="M995.631,71.643 C983.658,116.779 961.064,201.942 948.207,250.432 " fill="none" id="RegisterTestUI-to-TestTypeListDTO" style="stroke:#A80036;stroke-width:1.3;stroke-dasharray:7.0,7.0;"/><polygon fill="#A80036" points="946.53,256.737,954.5581,246.763,948.1979,250.4546,944.5063,244.0944,946.53,256.737" style="stroke:#A80036;stroke-width:1.3;"/><!--MD5=[b770a660ce854690f4d52fb87084eaca]
link TestTypeListDTO to TestTypeListMapper--><path codeLine="75" d="M918.853,319.514 C895.661,355.069 856.96,414.401 830.219,455.39 " fill="none" id="TestTypeListDTO-to-TestTypeListMapper" style="stroke:#A80036;stroke-width:1.3;stroke-dasharray:7.0,7.0;"/><polygon fill="#A80036" points="826.371,461.305,837.1331,454.369,829.9336,455.8683,828.4343,448.6688,826.371,461.305" style="stroke:#A80036;stroke-width:1.3;"/><!--MD5=[f39c2c5b733f916b0fe6c7ddefc5f082]
link TestTypeListMapper to TestType--><path codeLine="76" d="M780.312,542.178 C763.763,573.768 740.129,618.865 720.876,655.603 " fill="none" id="TestTypeListMapper-to-TestType" style="stroke:#A80036;stroke-width:1.3;stroke-dasharray:7.0,7.0;"/><polygon fill="#A80036" points="717.821,661.414,727.8686,653.4783,720.8461,655.6608,718.6636,648.6382,717.821,661.414" style="stroke:#A80036;stroke-width:1.3;"/><!--MD5=[43565ce1b59d1b14162e32e888650a47]
link RegisterTestController to TestTypeListMapper--><path codeLine="77" d="M722.033,364.325 C739.635,394.758 759.369,428.883 774.696,455.364 " fill="none" id="RegisterTestController-to-TestTypeListMapper" style="stroke:#A80036;stroke-width:1.3;stroke-dasharray:7.0,7.0;"/><polygon fill="#A80036" points="778.089,461.24,776.7089,448.5111,774.8242,455.6194,767.7159,453.7347,778.089,461.24" style="stroke:#A80036;stroke-width:1.3;"/><!--MD5=[d715f23e4a08e53a06c7de179483a65e]
link RegisterTestUI to TestCategoryListDTO--><path codeLine="78" d="M1078.545,60.645 C1138.176,75.803 1222.286,97.188 1288.404,113.997 " fill="none" id="RegisterTestUI-to-TestCategoryListDTO" style="stroke:#A80036;stroke-width:1.3;stroke-dasharray:7.0,7.0;"/><polygon fill="#A80036" points="1294.748,115.609,1284.6859,107.6917,1288.4476,114.0107,1282.1286,117.7723,1294.748,115.609" style="stroke:#A80036;stroke-width:1.3;"/><!--MD5=[ac590fa68f73ac09959e95ec72ebde3c]
link TestCategoryListDTO to TestCategoryListMapper--><path codeLine="79" d="M1392.638,173.485 C1393.314,236.262 1394.887,380.289 1395.693,454.48 " fill="none" id="TestCategoryListDTO-to-TestCategoryListMapper" style="stroke:#A80036;stroke-width:1.3;stroke-dasharray:7.0,7.0;"/><polygon fill="#A80036" points="1395.771,460.993,1400.8705,449.2489,1395.7153,454.4932,1390.4709,449.338,1395.771,460.993" style="stroke:#A80036;stroke-width:1.3;"/><!--MD5=[1f1e0b3c285aed10d1ad09d182629703]
link TestCategoryListMapper to Category--><path codeLine="80" d="M1383.564,542.412 C1370.902,585.312 1353.3,656.253 1353.3,718.9 C1353.3,718.9 1353.3,718.9 1353.3,1140.1 C1353.3,1196.949 1321.19,1251.9 1288.417,1293.175 " fill="none" id="TestCategoryListMapper-to-Category" style="stroke:#A80036;stroke-width:1.3;stroke-dasharray:7.0,7.0;"/><polygon fill="#A80036" points="1283.997,1298.648,1295.3978,1292.8212,1288.0847,1293.5942,1287.3117,1286.281,1283.997,1298.648" style="stroke:#A80036;stroke-width:1.3;"/><!--MD5=[08a7de5e796f3a4fe36d114340493654]
link RegisterTestController to TestCategoryListMapper--><path codeLine="81" d="M808.158,355.797 C816.556,358.878 824.98,361.647 833.3,364 C1000.402,411.151 1056.393,350.844 1222,403 C1261.676,415.493 1302.444,437.71 1334.554,457.782 " fill="none" id="RegisterTestController-to-TestCategoryListMapper" style="stroke:#A80036;stroke-width:1.3;stroke-dasharray:7.0,7.0;"/><polygon fill="#A80036" points="1340.443,461.5,1333.3289,450.8548,1334.9478,458.0283,1327.7743,459.6472,1340.443,461.5" style="stroke:#A80036;stroke-width:1.3;"/><!--MD5=[58cad04692cde7b5132c87660653a2ea]
link RegisterTestUI to TestParametersDTO--><path codeLine="82" d="M1048.073,71.513 C1064.466,82.537 1083.147,95.095 1100.021,106.444 " fill="none" id="RegisterTestUI-to-TestParametersDTO" style="stroke:#A80036;stroke-width:1.3;stroke-dasharray:7.0,7.0;"/><polygon fill="#A80036" points="1105.676,110.253,1098.8512,99.4201,1100.2763,106.6346,1093.0617,108.0597,1105.676,110.253" style="stroke:#A80036;stroke-width:1.3;"/><!--MD5=[468e5816732821ab830bf10cfab2167f]
link TestParametersDTO to TestParametersMapper--><path codeLine="83" d="M1141.517,173.485 C1123.031,236.262 1080.612,380.289 1058.759,454.48 " fill="none" id="TestParametersDTO-to-TestParametersMapper" style="stroke:#A80036;stroke-width:1.3;stroke-dasharray:7.0,7.0;"/><polygon fill="#A80036" points="1056.835,460.993,1065.1298,451.2397,1058.6721,454.758,1055.1538,448.3003,1056.835,460.993" style="stroke:#A80036;stroke-width:1.3;"/><!--MD5=[8374103820a85f18f9f597ebc31f2922]
link TestParametersMapper to Parameter--><path codeLine="84" d="M1017.653,542.386 C959.985,624.364 821.847,819.273 700.7,978.9 C676.481,1010.815 648.843,1045.733 625.625,1074.658 " fill="none" id="TestParametersMapper-to-Parameter" style="stroke:#A80036;stroke-width:1.3;stroke-dasharray:7.0,7.0;"/><polygon fill="#A80036" points="621.348,1079.988,632.7253,1074.1155,625.4153,1074.9178,624.613,1067.6078,621.348,1079.988" style="stroke:#A80036;stroke-width:1.3;"/><!--MD5=[fb6611c8ed6be4fb9c5231db5ee90084]
link RegisterTestController to TestParametersMapper--><path codeLine="85" d="M808.366,364.026 C862.966,395.486 924.521,430.963 971.191,457.847 " fill="none" id="RegisterTestController-to-TestParametersMapper" style="stroke:#A80036;stroke-width:1.3;stroke-dasharray:7.0,7.0;"/><polygon fill="#A80036" points="977.379,461.422,969.8481,451.0675,971.7503,458.1711,964.6467,460.0734,977.379,461.422" style="stroke:#A80036;stroke-width:1.3;"/><!--MD5=[b75cd430e6c87378b7b41756f273c409]
link Test to apoint145--><path d="M267.137,729.001 C222.729,739.973 151.619,765.076 119.6,817.7 C91.182,864.409 178.529,919.776 190.944,927.329 " fill="none" id="Test-apoint145" style="stroke:#A80036;stroke-width:1.3;"/><polygon fill="#000000" points="123.769,835.6962,131.5523,826.0898,124.4194,823.3495,123.769,835.6962" style="stroke:#000000;stroke-width:1.3;"/><text fill="#000000" font-family="sans-serif" font-size="16.9" lengthAdjust="spacing" textLength="150.8" x="137.8" y="836.5437">requests analysis of</text><text fill="#000000" font-family="sans-serif" font-size="16.9" lengthAdjust="spacing" textLength="6.5" x="250.4938" y="725.4626">*</text><!--MD5=[144c1bd8a5b862d6a767de5322b919d5]
link apoint145 to Parameter--><path d="M192.751,932.191 C194.363,938.457 201.812,964.457 217.1,978.9 C303.472,1060.501 438.815,1104.649 515.814,1124.422 " fill="none" id="apoint145-Parameter" style="stroke:#A80036;stroke-width:1.3;"/><text fill="#000000" font-family="sans-serif" font-size="16.9" lengthAdjust="spacing" textLength="26" x="479.7191" y="1117.7584">1..*</text><!--MD5=[3baa45212900d68506392c180bfa2c03]
link apoint145 to TestParameter--><path d="M195.26,929.5 C210.34,929.5 225.407,929.5 240.487,929.5 " fill="none" id="apoint145-TestParameter" style="stroke:#A80036;stroke-width:1.3;stroke-dasharray:7.0,7.0;"/><!--MD5=[92e8e476cc9e9004a7125f53a120ec97]
link TestParameter to Parameter--><path codeLine="87" d="M352.404,960.856 C395.369,995.007 465.985,1051.154 516.074,1090.973 " fill="none" id="TestParameter-Parameter" style="stroke:#A80036;stroke-width:1.3;"/><polygon fill="#000000" points="462.688,1033.8735,455.8613,1023.5654,451.1061,1029.5467,462.688,1033.8735" style="stroke:#000000;stroke-width:1.3;"/><text fill="#000000" font-family="sans-serif" font-size="16.9" lengthAdjust="spacing" textLength="101.4" x="469.3" y="1036.7437">associated to</text><text fill="#000000" font-family="sans-serif" font-size="16.9" lengthAdjust="spacing" textLength="6.5" x="354.3265" y="988.6334">*</text><text fill="#000000" font-family="sans-serif" font-size="16.9" lengthAdjust="spacing" textLength="9.1" x="496.527" y="1078.1636">1</text><!--MD5=[7d615427424eb1e9d8965c4eb17ecbf5]
link TestParameter to Test--><path codeLine="88" d="M308.984,898.092 C306.15,881.374 303.017,860.158 301.6,841.1 C299.858,817.687 300.417,791.648 301.587,769.847 " fill="none" id="TestParameter-Test" style="stroke:#A80036;stroke-width:1.3;"/><polygon fill="#000000" points="308.4743,836.1177,311.6115,824.1586,303.9829,824.5986,308.4743,836.1177" style="stroke:#000000;stroke-width:1.3;"/><text fill="#000000" font-family="sans-serif" font-size="16.9" lengthAdjust="spacing" textLength="27.3" x="319.8" y="836.5437">has</text><text fill="#000000" font-family="sans-serif" font-size="16.9" lengthAdjust="spacing" textLength="6.5" x="300.2121" y="884.1809">*</text><text fill="#000000" font-family="sans-serif" font-size="16.9" lengthAdjust="spacing" textLength="9.1" x="291.1382" y="797.0311">1</text><!--MD5=[66357f6c27d2bbd099351d534a842b6a]
@startuml

skinparam classAttributeIconSize 0

class RegisterTestUI
class RegisterTestController {
-client
-testType
-testCategory
-testParameter


+getClientByCardNumber(cardNumber)

}


class Company {
-designation
+getTestStore()
+getTestTypeStore()
}
class TestStore
class Test {
-testCode
-nhsCode
}
class Client {
-name
-cardNumber
}
class TestType {
-code
-description
+getCategoryStore()
}
class Parameter {
-code
-shortName
-description
}
class Category {
-code
-description
-nhsID
+getParameterStore()
}
class TestTypeListDTO
class TestTypeListMapper{
toDto(testTypeList)
}
class TestCategoryListDTO
class TestCategoryListMapper{
toDto(testCategoryList)
}
class TestParametersDTO
class TestParametersMapper{
toDto(testParameterList)
}

Test "*"- -"1..*" Parameter : requests analysis of >
TestType "1"- -"1..*" Parameter : has >
Test "*"- -"1" Client : requested by >
Test "*"-up-"1" Company : performs <
Test "*"-right-"1" "TestType" : is of >
Parameter "*"- -"1" Category : presented under >
RegisterTestUI ..> RegisterTestController
RegisterTestController ..> Company
RegisterTestController ..> TestStore
TestStore "*"- -"1" "Test" : contains >
RegisterTestController ..> TestType
RegisterTestController ..> Parameter
RegisterTestController ..> Category
RegisterTestController ..> Client
RegisterTestUI .right.> TestTypeListDTO
TestTypeListDTO .down.> TestTypeListMapper
TestTypeListMapper ..> TestType
RegisterTestController ..> TestTypeListMapper
RegisterTestUI .right.> TestCategoryListDTO
TestCategoryListDTO .down.> TestCategoryListMapper
TestCategoryListMapper ..> Category
RegisterTestController ..> TestCategoryListMapper
RegisterTestUI .right.> TestParametersDTO
TestParametersDTO .down.> TestParametersMapper
TestParametersMapper ..> Parameter
RegisterTestController ..> TestParametersMapper
(Test, Parameter) .. TestParameter
TestParameter "*"-"1" Parameter : associated to >
TestParameter "*"- -"1" Test : has <

@enduml

PlantUML version 1.2021.00(Sun Jan 10 10:25:05 GMT 2021)
(GPL source distribution)
Java Runtime: OpenJDK Runtime Environment
JVM: OpenJDK 64-Bit Server VM
Default Encoding: Cp1252
Language: pt
Country: PT
--></g></svg>