<?xml version="1.0" encoding="UTF-8" standalone="no"?><svg xmlns="http://www.w3.org/2000/svg" xmlns:xlink="http://www.w3.org/1999/xlink" contentScriptType="application/ecmascript" contentStyleType="text/css" height="869.7px" preserveAspectRatio="none" style="width:309px;height:869px;" version="1.1" viewBox="0 0 309 869" width="309.66px" zoomAndPan="magnify"><defs><filter height="300%" id="f1e3ngwdzw3k4w" width="300%" x="-1" y="-1"><feGaussianBlur result="blurOut" stdDeviation="1.56"/><feColorMatrix in="blurOut" result="blurOut2" type="matrix" values="0 0 0 0 0 0 0 0 0 0 0 0 0 0 0 0 0 0 .4 0"/><feOffset dx="3.12" dy="3.12" in="blurOut2" result="blurOut3"/><feBlend in="SourceGraphic" in2="blurOut3" mode="normal"/></filter></defs><g><!--MD5=[02e4b9b7573f1156f41e60aa5b4e25a4]
class Company--><rect codeLine="3" fill="#FEFECE" filter="url(#f1e3ngwdzw3k4w)" height="48.232" id="Company" style="stroke:#A80036;stroke-width:1.17;" width="66.3" x="54.21" y="5.46"/><ellipse cx="65.91" cy="17.94" fill="#ADD1B2" rx="8.58" ry="8.58" style="stroke:#A80036;stroke-width:0.78;"/><path d="M67.47,15.21 Q67.6284,14.82 67.8113,14.625 Q67.9941,14.43 68.2013,14.43 Q68.5669,14.43 68.7984,14.6494 Q69.03,14.8688 69.03,15.3806 L69.03,16.5994 Q69.03,17.1113 68.8106,17.3306 Q68.5913,17.55 68.25,17.55 Q67.9453,17.55 67.7503,17.4159 Q67.5553,17.2819 67.47,16.9284 Q67.4334,16.6847 67.2994,16.5506 Q67.0556,16.2947 66.6169,16.1484 Q66.1781,15.99 65.7394,15.99 Q65.1909,15.99 64.7278,16.2094 Q64.2769,16.4288 63.9234,16.9163 Q63.57,17.4038 63.57,18.0741 L63.57,18.7931 Q63.57,19.5975 64.2281,20.1338 Q64.8863,20.67 66.0563,20.67 Q66.7509,20.67 67.2384,20.5116 Q67.5188,20.4263 67.8356,20.1459 Q68.0428,19.9875 68.1525,19.9388 Q68.2622,19.89 68.3963,19.89 Q68.6522,19.89 68.835,20.0972 Q69.03,20.2922 69.03,20.5725 Q69.03,20.8406 68.7619,21.1575 Q68.3719,21.6206 67.7503,21.8766 Q66.9338,22.23 65.9344,22.23 Q64.7644,22.23 63.8259,21.7669 Q63.0703,21.4013 62.5341,20.6091 Q62.01,19.8169 62.01,18.8784 L62.01,18.0253 Q62.01,17.0503 62.4731,16.1972 Q62.9484,15.3441 63.765,14.8931 Q64.5938,14.43 65.52,14.43 Q66.0806,14.43 66.5681,14.625 Q67.0556,14.82 67.47,15.21 Z " fill="#000000"/><text fill="#000000" font-family="sans-serif" font-size="9.36" lengthAdjust="spacing" textLength="41.34" x="76.83" y="21.7699">Company</text><line style="stroke:#A80036;stroke-width:1.17;" x1="54.99" x2="119.73" y1="30.42" y2="30.42"/><text fill="#000000" font-family="sans-serif" font-size="8.58" lengthAdjust="spacing" textLength="46.02" x="58.89" y="42.4468">-designation</text><line style="stroke:#A80036;stroke-width:1.17;" x1="54.99" x2="119.73" y1="47.452" y2="47.452"/><!--MD5=[df38be88ccee13e832d6fafd6288a4ca]
class Test--><rect codeLine="6" fill="#FEFECE" filter="url(#f1e3ngwdzw3k4w)" height="145.3603" id="Test" style="stroke:#A80036;stroke-width:1.17;" width="65.52" x="104.52" y="114.66"/><ellipse cx="126.048" cy="127.14" fill="#ADD1B2" rx="8.58" ry="8.58" style="stroke:#A80036;stroke-width:0.78;"/><path d="M127.608,124.41 Q127.7664,124.02 127.9493,123.825 Q128.1321,123.63 128.3393,123.63 Q128.7049,123.63 128.9364,123.8494 Q129.168,124.0688 129.168,124.5806 L129.168,125.7994 Q129.168,126.3113 128.9486,126.5306 Q128.7293,126.75 128.388,126.75 Q128.0833,126.75 127.8883,126.6159 Q127.6933,126.4819 127.608,126.1284 Q127.5714,125.8847 127.4374,125.7506 Q127.1936,125.4947 126.7549,125.3484 Q126.3161,125.19 125.8774,125.19 Q125.3289,125.19 124.8658,125.4094 Q124.4149,125.6288 124.0614,126.1163 Q123.708,126.6038 123.708,127.2741 L123.708,127.9931 Q123.708,128.7975 124.3661,129.3338 Q125.0243,129.87 126.1943,129.87 Q126.8889,129.87 127.3764,129.7116 Q127.6568,129.6263 127.9736,129.3459 Q128.1808,129.1875 128.2905,129.1388 Q128.4002,129.09 128.5343,129.09 Q128.7902,129.09 128.973,129.2972 Q129.168,129.4922 129.168,129.7725 Q129.168,130.0406 128.8999,130.3575 Q128.5099,130.8206 127.8883,131.0766 Q127.0718,131.43 126.0724,131.43 Q124.9024,131.43 123.9639,130.9669 Q123.2083,130.6013 122.6721,129.8091 Q122.148,129.0169 122.148,128.0784 L122.148,127.2253 Q122.148,126.2503 122.6111,125.3972 Q123.0864,124.5441 123.903,124.0931 Q124.7318,123.63 125.658,123.63 Q126.2186,123.63 126.7061,123.825 Q127.1936,124.02 127.608,124.41 Z " fill="#000000"/><text fill="#000000" font-family="sans-serif" font-size="9.36" lengthAdjust="spacing" textLength="18.72" x="139.152" y="130.9699">Test</text><line style="stroke:#A80036;stroke-width:1.17;" x1="105.3" x2="169.26" y1="139.62" y2="139.62"/><text fill="#000000" font-family="sans-serif" font-size="8.58" lengthAdjust="spacing" textLength="36.66" x="109.2" y="151.6468">-testCode</text><text fill="#000000" font-family="sans-serif" font-size="8.58" lengthAdjust="spacing" textLength="36.66" x="109.2" y="162.4388">-nhsCode</text><text fill="#000000" font-family="sans-serif" font-size="8.58" lengthAdjust="spacing" textLength="40.56" x="109.2" y="173.2308">-createdAt</text><text fill="#000000" font-family="sans-serif" font-size="8.58" lengthAdjust="spacing" textLength="46.02" x="109.2" y="184.0229">-designation</text><text fill="#000000" font-family="sans-serif" font-size="8.58" lengthAdjust="spacing" textLength="52.26" x="109.2" y="194.8149">-dateAnalysis</text><text fill="#000000" font-family="sans-serif" font-size="8.58" lengthAdjust="spacing" textLength="50.7" x="109.2" y="205.6069">-timeAnalysis</text><text fill="#000000" font-family="sans-serif" font-size="8.58" lengthAdjust="spacing" textLength="56.16" x="109.2" y="216.399">-dateDiagnosis</text><text fill="#000000" font-family="sans-serif" font-size="8.58" lengthAdjust="spacing" textLength="54.6" x="109.2" y="227.191">-timeDiagnosis</text><text fill="#000000" font-family="sans-serif" font-size="8.58" lengthAdjust="spacing" textLength="56.16" x="109.2" y="237.983">-dateValidation</text><text fill="#000000" font-family="sans-serif" font-size="8.58" lengthAdjust="spacing" textLength="54.6" x="109.2" y="248.7751">-timeValidation</text><line style="stroke:#A80036;stroke-width:1.17;" x1="105.3" x2="169.26" y1="253.7803" y2="253.7803"/><!--MD5=[ed6624c6556d5e7b1bd23032162d20b7]
class Client--><rect codeLine="39" fill="#FEFECE" filter="url(#f1e3ngwdzw3k4w)" height="231.6966" id="Client" style="stroke:#A80036;stroke-width:1.17;" width="64.74" x="234.39" y="365.82"/><ellipse cx="252.759" cy="378.3" fill="#ADD1B2" rx="8.58" ry="8.58" style="stroke:#A80036;stroke-width:0.78;"/><path d="M254.319,375.57 Q254.4774,375.18 254.6603,374.985 Q254.8431,374.79 255.0503,374.79 Q255.4159,374.79 255.6474,375.0094 Q255.879,375.2288 255.879,375.7406 L255.879,376.9594 Q255.879,377.4713 255.6596,377.6906 Q255.4403,377.91 255.099,377.91 Q254.7943,377.91 254.5993,377.7759 Q254.4043,377.6419 254.319,377.2884 Q254.2824,377.0447 254.1484,376.9106 Q253.9046,376.6547 253.4659,376.5084 Q253.0271,376.35 252.5884,376.35 Q252.0399,376.35 251.5768,376.5694 Q251.1259,376.7888 250.7724,377.2763 Q250.419,377.7638 250.419,378.4341 L250.419,379.1531 Q250.419,379.9575 251.0771,380.4938 Q251.7353,381.03 252.9053,381.03 Q253.5999,381.03 254.0874,380.8716 Q254.3678,380.7863 254.6846,380.5059 Q254.8918,380.3475 255.0015,380.2988 Q255.1112,380.25 255.2453,380.25 Q255.5012,380.25 255.684,380.4572 Q255.879,380.6522 255.879,380.9325 Q255.879,381.2006 255.6109,381.5175 Q255.2209,381.9806 254.5993,382.2366 Q253.7828,382.59 252.7834,382.59 Q251.6134,382.59 250.6749,382.1269 Q249.9193,381.7613 249.3831,380.9691 Q248.859,380.1769 248.859,379.2384 L248.859,378.3853 Q248.859,377.4103 249.3221,376.5572 Q249.7974,375.7041 250.614,375.2531 Q251.4428,374.79 252.369,374.79 Q252.9296,374.79 253.4171,374.985 Q253.9046,375.18 254.319,375.57 Z " fill="#000000"/><text fill="#000000" font-family="sans-serif" font-size="9.36" lengthAdjust="spacing" textLength="24.96" x="265.161" y="382.1299">Client</text><line style="stroke:#A80036;stroke-width:1.17;" x1="235.17" x2="298.35" y1="390.78" y2="390.78"/><text fill="#000000" font-family="sans-serif" font-size="8.58" lengthAdjust="spacing" textLength="23.4" x="239.07" y="402.8068">-name</text><text fill="#000000" font-family="sans-serif" font-size="8.58" lengthAdjust="spacing" textLength="49.14" x="239.07" y="413.5988">-cardNumber</text><text fill="#000000" font-family="sans-serif" font-size="8.58" lengthAdjust="spacing" textLength="36.66" x="239.07" y="424.3908">-birthDate</text><text fill="#000000" font-family="sans-serif" font-size="8.58" lengthAdjust="spacing" textLength="17.16" x="239.07" y="435.1829">-sex</text><text fill="#000000" font-family="sans-serif" font-size="8.58" lengthAdjust="spacing" textLength="24.18" x="239.07" y="445.9749">-nhsID</text><text fill="#000000" font-family="sans-serif" font-size="8.58" lengthAdjust="spacing" textLength="14.04" x="239.07" y="456.7669">-TIF</text><text fill="#000000" font-family="sans-serif" font-size="8.58" lengthAdjust="spacing" textLength="55.38" x="239.07" y="467.559">-phoneNumber</text><text fill="#000000" font-family="sans-serif" font-size="8.58" lengthAdjust="spacing" textLength="21.84" x="239.07" y="478.351">-email</text><text fill="#000000" font-family="sans-serif" font-size="8.58" lengthAdjust="spacing" textLength="42.12" x="239.07" y="489.143">-password</text><text fill="#000000" font-family="sans-serif" font-size="8.58" lengthAdjust="spacing" textLength="23.4" x="239.07" y="499.9351">-name</text><text fill="#000000" font-family="sans-serif" font-size="8.58" lengthAdjust="spacing" textLength="49.14" x="239.07" y="510.7271">-cardNumber</text><text fill="#000000" font-family="sans-serif" font-size="8.58" lengthAdjust="spacing" textLength="36.66" x="239.07" y="521.5191">-birthDate</text><text fill="#000000" font-family="sans-serif" font-size="8.58" lengthAdjust="spacing" textLength="17.16" x="239.07" y="532.3112">-sex</text><text fill="#000000" font-family="sans-serif" font-size="8.58" lengthAdjust="spacing" textLength="24.18" x="239.07" y="543.1032">-nhsID</text><text fill="#000000" font-family="sans-serif" font-size="8.58" lengthAdjust="spacing" textLength="14.04" x="239.07" y="553.8952">-TIF</text><text fill="#000000" font-family="sans-serif" font-size="8.58" lengthAdjust="spacing" textLength="55.38" x="239.07" y="564.6872">-phoneNumber</text><text fill="#000000" font-family="sans-serif" font-size="8.58" lengthAdjust="spacing" textLength="21.84" x="239.07" y="575.4793">-email</text><text fill="#000000" font-family="sans-serif" font-size="8.58" lengthAdjust="spacing" textLength="42.12" x="239.07" y="586.2713">-password</text><line style="stroke:#A80036;stroke-width:1.17;" x1="235.17" x2="298.35" y1="591.2766" y2="591.2766"/><!--MD5=[03960189e81aa2c066c762ffabbee709]
class Receptionist--><rect codeLine="29" fill="#FEFECE" filter="url(#f1e3ngwdzw3k4w)" height="37.44" id="Receptionist" style="stroke:#A80036;stroke-width:1.17;" width="78.78" x="147.81" y="10.92"/><ellipse cx="159.51" cy="23.4" fill="#ADD1B2" rx="8.58" ry="8.58" style="stroke:#A80036;stroke-width:0.78;"/><path d="M161.07,20.67 Q161.2284,20.28 161.4113,20.085 Q161.5941,19.89 161.8013,19.89 Q162.1669,19.89 162.3984,20.1094 Q162.63,20.3288 162.63,20.8406 L162.63,22.0594 Q162.63,22.5713 162.4106,22.7906 Q162.1913,23.01 161.85,23.01 Q161.5453,23.01 161.3503,22.8759 Q161.1553,22.7419 161.07,22.3884 Q161.0334,22.1447 160.8994,22.0106 Q160.6556,21.7547 160.2169,21.6084 Q159.7781,21.45 159.3394,21.45 Q158.7909,21.45 158.3278,21.6694 Q157.8769,21.8888 157.5234,22.3763 Q157.17,22.8638 157.17,23.5341 L157.17,24.2531 Q157.17,25.0575 157.8281,25.5938 Q158.4863,26.13 159.6563,26.13 Q160.3509,26.13 160.8384,25.9716 Q161.1188,25.8863 161.4356,25.6059 Q161.6428,25.4475 161.7525,25.3988 Q161.8622,25.35 161.9963,25.35 Q162.2522,25.35 162.435,25.5572 Q162.63,25.7522 162.63,26.0325 Q162.63,26.3006 162.3619,26.6175 Q161.9719,27.0806 161.3503,27.3366 Q160.5338,27.69 159.5344,27.69 Q158.3644,27.69 157.4259,27.2269 Q156.6703,26.8613 156.1341,26.0691 Q155.61,25.2769 155.61,24.3384 L155.61,23.4853 Q155.61,22.5103 156.0731,21.6572 Q156.5484,20.8041 157.365,20.3531 Q158.1938,19.89 159.12,19.89 Q159.6806,19.89 160.1681,20.085 Q160.6556,20.28 161.07,20.67 Z " fill="#000000"/><text fill="#000000" font-family="sans-serif" font-size="9.36" lengthAdjust="spacing" textLength="53.82" x="170.43" y="27.2299">Receptionist</text><line style="stroke:#A80036;stroke-width:1.17;" x1="148.59" x2="225.81" y1="35.88" y2="35.88"/><line style="stroke:#A80036;stroke-width:1.17;" x1="148.59" x2="225.81" y1="42.12" y2="42.12"/><!--MD5=[aeb3272166074d8737a70b61b1e71682]
class TestType--><rect codeLine="30" fill="#FEFECE" filter="url(#f1e3ngwdzw3k4w)" height="59.0241" id="TestType" style="stroke:#A80036;stroke-width:1.17;" width="63.96" x="129.48" y="283.14"/><ellipse cx="141.18" cy="295.62" fill="#ADD1B2" rx="8.58" ry="8.58" style="stroke:#A80036;stroke-width:0.78;"/><path d="M142.74,292.89 Q142.8984,292.5 143.0813,292.305 Q143.2641,292.11 143.4713,292.11 Q143.8369,292.11 144.0684,292.3294 Q144.3,292.5488 144.3,293.0606 L144.3,294.2794 Q144.3,294.7913 144.0806,295.0106 Q143.8613,295.23 143.52,295.23 Q143.2153,295.23 143.0203,295.0959 Q142.8253,294.9619 142.74,294.6084 Q142.7034,294.3647 142.5694,294.2306 Q142.3256,293.9747 141.8869,293.8284 Q141.4481,293.67 141.0094,293.67 Q140.4609,293.67 139.9978,293.8894 Q139.5469,294.1088 139.1934,294.5963 Q138.84,295.0838 138.84,295.7541 L138.84,296.4731 Q138.84,297.2775 139.4981,297.8138 Q140.1563,298.35 141.3263,298.35 Q142.0209,298.35 142.5084,298.1916 Q142.7888,298.1063 143.1056,297.8259 Q143.3128,297.6675 143.4225,297.6188 Q143.5322,297.57 143.6663,297.57 Q143.9222,297.57 144.105,297.7772 Q144.3,297.9722 144.3,298.2525 Q144.3,298.5206 144.0319,298.8375 Q143.6419,299.3006 143.0203,299.5566 Q142.2038,299.91 141.2044,299.91 Q140.0344,299.91 139.0959,299.4469 Q138.3403,299.0813 137.8041,298.2891 Q137.28,297.4969 137.28,296.5584 L137.28,295.7053 Q137.28,294.7303 137.7431,293.8772 Q138.2184,293.0241 139.035,292.5731 Q139.8638,292.11 140.79,292.11 Q141.3506,292.11 141.8381,292.305 Q142.3256,292.5 142.74,292.89 Z " fill="#000000"/><text fill="#000000" font-family="sans-serif" font-size="9.36" lengthAdjust="spacing" textLength="39" x="152.1" y="299.4499">TestType</text><line style="stroke:#A80036;stroke-width:1.17;" x1="130.26" x2="192.66" y1="308.1" y2="308.1"/><text fill="#000000" font-family="sans-serif" font-size="8.58" lengthAdjust="spacing" textLength="21.84" x="134.16" y="320.1268">-code</text><text fill="#000000" font-family="sans-serif" font-size="8.58" lengthAdjust="spacing" textLength="44.46" x="134.16" y="330.9188">-description</text><line style="stroke:#A80036;stroke-width:1.17;" x1="130.26" x2="192.66" y1="335.9241" y2="335.9241"/><!--MD5=[1f6362a5c8f21d8d6a0fce68f3a92a4e]
class Parameter--><rect codeLine="34" fill="#FEFECE" filter="url(#f1e3ngwdzw3k4w)" height="69.8161" id="Parameter" style="stroke:#A80036;stroke-width:1.17;" width="70.2" x="44.46" y="658.32"/><ellipse cx="56.16" cy="670.8" fill="#ADD1B2" rx="8.58" ry="8.58" style="stroke:#A80036;stroke-width:0.78;"/><path d="M57.72,668.07 Q57.8784,667.68 58.0613,667.485 Q58.2441,667.29 58.4513,667.29 Q58.8169,667.29 59.0484,667.5094 Q59.28,667.7288 59.28,668.2406 L59.28,669.4594 Q59.28,669.9713 59.0606,670.1906 Q58.8413,670.41 58.5,670.41 Q58.1953,670.41 58.0003,670.2759 Q57.8053,670.1419 57.72,669.7884 Q57.6834,669.5447 57.5494,669.4106 Q57.3056,669.1547 56.8669,669.0084 Q56.4281,668.85 55.9894,668.85 Q55.4409,668.85 54.9778,669.0694 Q54.5269,669.2888 54.1734,669.7763 Q53.82,670.2638 53.82,670.9341 L53.82,671.6531 Q53.82,672.4575 54.4781,672.9938 Q55.1363,673.53 56.3063,673.53 Q57.0009,673.53 57.4884,673.3716 Q57.7688,673.2863 58.0856,673.0059 Q58.2928,672.8475 58.4025,672.7988 Q58.5122,672.75 58.6463,672.75 Q58.9022,672.75 59.085,672.9572 Q59.28,673.1522 59.28,673.4325 Q59.28,673.7006 59.0119,674.0175 Q58.6219,674.4806 58.0003,674.7366 Q57.1838,675.09 56.1844,675.09 Q55.0144,675.09 54.0759,674.6269 Q53.3203,674.2613 52.7841,673.4691 Q52.26,672.6769 52.26,671.7384 L52.26,670.8853 Q52.26,669.9103 52.7231,669.0572 Q53.1984,668.2041 54.015,667.7531 Q54.8438,667.29 55.77,667.29 Q56.3306,667.29 56.8181,667.485 Q57.3056,667.68 57.72,668.07 Z " fill="#000000"/><text fill="#000000" font-family="sans-serif" font-size="9.36" lengthAdjust="spacing" textLength="45.24" x="67.08" y="674.6299">Parameter</text><line style="stroke:#A80036;stroke-width:1.17;" x1="45.24" x2="113.88" y1="683.28" y2="683.28"/><text fill="#000000" font-family="sans-serif" font-size="8.58" lengthAdjust="spacing" textLength="21.84" x="49.14" y="695.3068">-code</text><text fill="#000000" font-family="sans-serif" font-size="8.58" lengthAdjust="spacing" textLength="43.68" x="49.14" y="706.0988">-shortName</text><text fill="#000000" font-family="sans-serif" font-size="8.58" lengthAdjust="spacing" textLength="44.46" x="49.14" y="716.8908">-description</text><line style="stroke:#A80036;stroke-width:1.17;" x1="45.24" x2="113.88" y1="721.8961" y2="721.8961"/><!--MD5=[a96594a83e2ecdc78cbf17c2ddf01934]
class Category--><rect codeLine="50" fill="#FEFECE" filter="url(#f1e3ngwdzw3k4w)" height="69.8161" id="Category" style="stroke:#A80036;stroke-width:1.17;" width="63.18" x="47.97" y="789.36"/><ellipse cx="59.67" cy="801.84" fill="#ADD1B2" rx="8.58" ry="8.58" style="stroke:#A80036;stroke-width:0.78;"/><path d="M61.23,799.11 Q61.3884,798.72 61.5713,798.525 Q61.7541,798.33 61.9613,798.33 Q62.3269,798.33 62.5584,798.5494 Q62.79,798.7688 62.79,799.2806 L62.79,800.4994 Q62.79,801.0113 62.5706,801.2306 Q62.3513,801.45 62.01,801.45 Q61.7053,801.45 61.5103,801.3159 Q61.3153,801.1819 61.23,800.8284 Q61.1934,800.5847 61.0594,800.4506 Q60.8156,800.1947 60.3769,800.0484 Q59.9381,799.89 59.4994,799.89 Q58.9509,799.89 58.4878,800.1094 Q58.0369,800.3288 57.6834,800.8163 Q57.33,801.3038 57.33,801.9741 L57.33,802.6931 Q57.33,803.4975 57.9881,804.0338 Q58.6463,804.57 59.8163,804.57 Q60.5109,804.57 60.9984,804.4116 Q61.2788,804.3263 61.5956,804.0459 Q61.8028,803.8875 61.9125,803.8388 Q62.0222,803.79 62.1563,803.79 Q62.4122,803.79 62.595,803.9972 Q62.79,804.1922 62.79,804.4725 Q62.79,804.7406 62.5219,805.0575 Q62.1319,805.5206 61.5103,805.7766 Q60.6938,806.13 59.6944,806.13 Q58.5244,806.13 57.5859,805.6669 Q56.8303,805.3013 56.2941,804.5091 Q55.77,803.7169 55.77,802.7784 L55.77,801.9253 Q55.77,800.9503 56.2331,800.0972 Q56.7084,799.2441 57.525,798.7931 Q58.3538,798.33 59.28,798.33 Q59.8406,798.33 60.3281,798.525 Q60.8156,798.72 61.23,799.11 Z " fill="#000000"/><text fill="#000000" font-family="sans-serif" font-size="9.36" lengthAdjust="spacing" textLength="38.22" x="70.59" y="805.6699">Category</text><line style="stroke:#A80036;stroke-width:1.17;" x1="48.75" x2="110.37" y1="814.32" y2="814.32"/><text fill="#000000" font-family="sans-serif" font-size="8.58" lengthAdjust="spacing" textLength="21.84" x="52.65" y="826.3468">-code</text><text fill="#000000" font-family="sans-serif" font-size="8.58" lengthAdjust="spacing" textLength="44.46" x="52.65" y="837.1388">-description</text><text fill="#000000" font-family="sans-serif" font-size="8.58" lengthAdjust="spacing" textLength="24.18" x="52.65" y="847.9308">-nhsID</text><line style="stroke:#A80036;stroke-width:1.17;" x1="48.75" x2="110.37" y1="852.9361" y2="852.9361"/><!--MD5=[0f07739f46effee96e095e9c408da841]
class TestParameter--><rect fill="#FEFECE" filter="url(#f1e3ngwdzw3k4w)" height="37.44" id="TestParameter" style="stroke:#A80036;stroke-width:1.17;" width="88.92" x="35.1" y="462.93"/><ellipse cx="46.8" cy="475.41" fill="#ADD1B2" rx="8.58" ry="8.58" style="stroke:#A80036;stroke-width:0.78;"/><path d="M48.36,472.68 Q48.5184,472.29 48.7013,472.095 Q48.8841,471.9 49.0913,471.9 Q49.4569,471.9 49.6884,472.1194 Q49.92,472.3388 49.92,472.8506 L49.92,474.0694 Q49.92,474.5813 49.7006,474.8006 Q49.4813,475.02 49.14,475.02 Q48.8353,475.02 48.6403,474.8859 Q48.4453,474.7519 48.36,474.3984 Q48.3234,474.1547 48.1894,474.0206 Q47.9456,473.7647 47.5069,473.6184 Q47.0681,473.46 46.6294,473.46 Q46.0809,473.46 45.6178,473.6794 Q45.1669,473.8988 44.8134,474.3863 Q44.46,474.8738 44.46,475.5441 L44.46,476.2631 Q44.46,477.0675 45.1181,477.6038 Q45.7763,478.14 46.9463,478.14 Q47.6409,478.14 48.1284,477.9816 Q48.4088,477.8963 48.7256,477.6159 Q48.9328,477.4575 49.0425,477.4088 Q49.1522,477.36 49.2863,477.36 Q49.5422,477.36 49.725,477.5672 Q49.92,477.7622 49.92,478.0425 Q49.92,478.3106 49.6519,478.6275 Q49.2619,479.0906 48.6403,479.3466 Q47.8238,479.7 46.8244,479.7 Q45.6544,479.7 44.7159,479.2369 Q43.9603,478.8713 43.4241,478.0791 Q42.9,477.2869 42.9,476.3484 L42.9,475.4953 Q42.9,474.5203 43.3631,473.6672 Q43.8384,472.8141 44.655,472.3631 Q45.4838,471.9 46.41,471.9 Q46.9706,471.9 47.4581,472.095 Q47.9456,472.29 48.36,472.68 Z " fill="#000000"/><text fill="#000000" font-family="sans-serif" font-size="9.36" lengthAdjust="spacing" textLength="63.96" x="57.72" y="479.2399">TestParameter</text><line style="stroke:#A80036;stroke-width:1.17;" x1="35.88" x2="123.24" y1="487.89" y2="487.89"/><line style="stroke:#A80036;stroke-width:1.17;" x1="35.88" x2="123.24" y1="494.13" y2="494.13"/><ellipse cx="6.24" cy="481.65" fill="#000000" rx="1.56" ry="1.56" style="stroke:none;stroke-width:0.78;"/><!--MD5=[5b7a9ded131023be416e27d15bcd6d77]
link TestType to Parameter--><path codeLine="56" d="M169.3068,342.4356 C183.6354,401.2866 208.1976,537.7476 158.34,634.92 C149.0502,653.0238 131.157,666.8376 114.777,676.4082 " fill="none" id="TestType-Parameter" style="stroke:#A80036;stroke-width:0.78;"/><polygon fill="#000000" points="191.2515,485.6361,194.6508,479.0426,190.126,478.3038,191.2515,485.6361" style="stroke:#000000;stroke-width:0.78;"/><text fill="#000000" font-family="sans-serif" font-size="10.14" lengthAdjust="spacing" textLength="16.38" x="198.9" y="485.9362">has</text><text fill="#000000" font-family="sans-serif" font-size="10.14" lengthAdjust="spacing" textLength="5.46" x="164.6943" y="358.9509">1</text><text fill="#000000" font-family="sans-serif" font-size="10.14" lengthAdjust="spacing" textLength="15.6" x="120.8263" y="671.2309">1..*</text><!--MD5=[1b1e6308afad6f3cc4d8da5012f9471a]
link Test to apoint4086--><path d="M104.286,226.3482 C76.9392,260.5122 39.6474,313.1232 21.06,365.82 C5.1168,411.021 6.006,471.6192 6.2166,479.9106 " fill="none" id="Test-apoint4086" style="stroke:#A80036;stroke-width:0.78;"/><!--MD5=[0ab9f434afdf6ad7b947258926274cea]
link apoint4086 to Parameter--><path d="M6.2088,483.3894 C6.006,491.6886 5.0934,552.2868 21.06,597.48 C28.6806,619.0548 41.7066,640.9572 53.5392,658.3044 " fill="none" id="apoint4086-Parameter" style="stroke:#A80036;stroke-width:0.78;"/><!--MD5=[7a8110f63986b19deb9553a4e75dd801]
link apoint4086 to TestParameter--><path d="M7.956,481.65 C17.004,481.65 26.0442,481.65 35.0922,481.65 " fill="none" id="apoint4086-TestParameter" style="stroke:#A80036;stroke-width:0.78;stroke-dasharray:7.0,7.0;"/><!--MD5=[3994f36c72829dbcddd1cf7021dddf61]
link Test to Client--><path codeLine="58" d="M170.0634,226.044 C183.1362,242.7126 197.4336,263.0316 207.48,283.14 C220.3344,308.8644 230.958,337.896 239.4834,365.625 " fill="none" id="Test-Client" style="stroke:#A80036;stroke-width:0.78;"/><polygon fill="#000000" points="236.5167,316.4091,235.4275,309.0712,231.3224,311.1129,236.5167,316.4091" style="stroke:#000000;stroke-width:0.78;"/><text fill="#000000" font-family="sans-serif" font-size="10.14" lengthAdjust="spacing" textLength="58.5" x="241.8" y="317.0662">requested by</text><text fill="#000000" font-family="sans-serif" font-size="10.14" lengthAdjust="spacing" textLength="3.9" x="176.2503" y="229.8972">*</text><text fill="#000000" font-family="sans-serif" font-size="10.14" lengthAdjust="spacing" textLength="5.46" x="232.4762" y="357.373">1</text><!--MD5=[7d615427424eb1e9d8965c4eb17ecbf5]
link TestParameter to Test--><path codeLine="59" d="M77.7894,462.7584 C74.8878,427.479 71.0424,347.3886 88.14,283.14 C91.8684,269.1234 97.89,254.8182 104.4576,241.6908 " fill="none" id="TestParameter-Test" style="stroke:#A80036;stroke-width:0.78;"/><polygon fill="#000000" points="91.5729,316.789,94.6937,310.0592,90.142,309.5101,91.5729,316.789" style="stroke:#000000;stroke-width:0.78;"/><text fill="#000000" font-family="sans-serif" font-size="10.14" lengthAdjust="spacing" textLength="16.38" x="99.06" y="317.0662">has</text><text fill="#000000" font-family="sans-serif" font-size="10.14" lengthAdjust="spacing" textLength="3.9" x="72.936" y="454.3998">*</text><text fill="#000000" font-family="sans-serif" font-size="10.14" lengthAdjust="spacing" textLength="5.46" x="92.887" y="248.0296">1</text><!--MD5=[e8b34c2e6517a986175307f5599f058a]
link Receptionist to Test--><path codeLine="60" d="M181.3734,48.6174 C176.1318,65.013 168.0666,90.2226 160.2588,114.6132 " fill="none" id="Receptionist-Test" style="stroke:#A80036;stroke-width:0.78;"/><polygon fill="#000000" points="173.5316,88.0916,177.8648,82.0705,173.4981,80.6735,173.5316,88.0916" style="stroke:#000000;stroke-width:0.78;"/><text fill="#000000" font-family="sans-serif" font-size="10.14" lengthAdjust="spacing" textLength="39" x="181.74" y="88.5262">registers</text><text fill="#000000" font-family="sans-serif" font-size="10.14" lengthAdjust="spacing" textLength="5.46" x="173.9347" y="65.0068">1</text><text fill="#000000" font-family="sans-serif" font-size="10.14" lengthAdjust="spacing" textLength="3.9" x="158.1002" y="106.1313">*</text><!--MD5=[7e4bc624457760b649895ff2ead938fa]
link Company to Test--><path codeLine="61" d="M94.9416,54.1164 C100.1208,70.3092 107.289,92.703 114.2544,114.465 " fill="none" id="Company-Test" style="stroke:#A80036;stroke-width:0.78;"/><polygon fill="#000000" points="111.1687,88.0915,111.2016,80.6734,106.835,82.0708,111.1687,88.0915" style="stroke:#000000;stroke-width:0.78;"/><text fill="#000000" font-family="sans-serif" font-size="10.14" lengthAdjust="spacing" textLength="39" x="117" y="88.5262">performs</text><text fill="#000000" font-family="sans-serif" font-size="10.14" lengthAdjust="spacing" textLength="5.46" x="90.4064" y="70.5362">1</text><text fill="#000000" font-family="sans-serif" font-size="10.14" lengthAdjust="spacing" textLength="3.9" x="108.3642" y="106.2176">*</text><!--MD5=[e981d4f96c4342412d1e68160b30cf70]
link Test to TestType--><path codeLine="62" d="M151.2732,259.7634 C152.8644,267.9066 154.4088,275.8158 155.7894,282.9216 " fill="none" id="Test-TestType" style="stroke:#A80036;stroke-width:0.78;"/><polygon fill="#000000" points="158.2519,268.6736,159.1514,261.3101,154.6515,262.1877,158.2519,268.6736" style="stroke:#000000;stroke-width:0.78;"/><text fill="#000000" font-family="sans-serif" font-size="10.14" lengthAdjust="spacing" textLength="18.72" x="164.5254" y="268.9948">is of</text><text fill="#000000" font-family="sans-serif" font-size="10.14" lengthAdjust="spacing" textLength="3.9" x="147.7613" y="274.6285">*</text><text fill="#000000" font-family="sans-serif" font-size="10.14" lengthAdjust="spacing" textLength="5.46" x="148.833" y="274.585">1</text><!--MD5=[92e8e476cc9e9004a7125f53a120ec97]
link TestParameter to Parameter--><path codeLine="63" d="M79.56,500.7132 C79.56,535.7742 79.56,612.963 79.56,658.047 " fill="none" id="TestParameter-Parameter" style="stroke:#A80036;stroke-width:0.78;"/><polygon fill="#000000" points="83.46,631.9371,85.7524,624.8819,81.1676,624.8819,83.46,631.9371" style="stroke:#000000;stroke-width:0.78;"/><text fill="#000000" font-family="sans-serif" font-size="10.14" lengthAdjust="spacing" textLength="60.84" x="90.48" y="632.1862">associated to</text><text fill="#000000" font-family="sans-serif" font-size="10.14" lengthAdjust="spacing" textLength="3.9" x="75.2091" y="517.1225">*</text><text fill="#000000" font-family="sans-serif" font-size="10.14" lengthAdjust="spacing" textLength="5.46" x="73.682" y="649.7716">1</text><!--MD5=[852f3a1b1bcfc6074ebcba484562eac0]
link Parameter to Category--><path codeLine="64" d="M79.56,728.559 C79.56,747.2868 79.56,770.406 79.56,789.165 " fill="none" id="Parameter-Category" style="stroke:#A80036;stroke-width:0.78;"/><polygon fill="#000000" points="83.46,762.9771,85.7524,755.9219,81.1676,755.9219,83.46,762.9771" style="stroke:#000000;stroke-width:0.78;"/><text fill="#000000" font-family="sans-serif" font-size="10.14" lengthAdjust="spacing" textLength="72.54" x="90.48" y="763.2262">presented under</text><text fill="#000000" font-family="sans-serif" font-size="10.14" lengthAdjust="spacing" textLength="3.9" x="75.3858" y="744.9504">*</text><text fill="#000000" font-family="sans-serif" font-size="10.14" lengthAdjust="spacing" textLength="5.46" x="73.682" y="780.9015">1</text><!--MD5=[ef9d95d01133d6676c7f8545d3f0b01e]
@startuml
skinparam classAttributeIconSize 0

class Company {
-designation
}
class Test {
-testCode
-nhsCode
-createdAt
-designation
-dateAnalysis
-timeAnalysis
-dateDiagnosis
-timeDiagnosis
-dateValidation
-timeValidation
}
class Client {
-name
-cardNumber
-birthDate
-sex
-nhsID
-TIF
-phoneNumber
-email
-password
}
class Receptionist
class TestType {
-code
-description
}
class Parameter {
-code
-shortName
-description
}
class Client {
-name
-cardNumber
-birthDate
-sex
-nhsID
-TIF
-phoneNumber
-email
-password
}
class Category {
-code
-description
-nhsID
}

TestType "1"- -"1..*" Parameter : has >
(Test, Parameter) .. TestParameter
Test "*"- -"1" Client : requested by >
TestParameter "*"- -"1" Test : has <
Receptionist "1"- -"*" Test : registers >
Test "*"-up-"1" Company : performs <
Test "*"-right-"1" "TestType" : is of >
TestParameter "*"- -"1" Parameter : associated to >
Parameter "*"- -"1" Category : presented under >

@enduml

PlantUML version 1.2021.00(Sun Jan 10 10:25:05 GMT 2021)
(GPL source distribution)
Java Runtime: OpenJDK Runtime Environment
JVM: OpenJDK 64-Bit Server VM
Default Encoding: Cp1252
Language: pt
Country: PT
--></g></svg>