<?xml version="1.0" encoding="UTF-8" standalone="no"?><svg xmlns="http://www.w3.org/2000/svg" xmlns:xlink="http://www.w3.org/1999/xlink" contentScriptType="application/ecmascript" contentStyleType="text/css" height="508px" preserveAspectRatio="none" style="width:1704px;height:508px;" version="1.1" viewBox="0 0 1704 508" width="1704px" zoomAndPan="magnify"><defs><filter height="300%" id="f1snspu1pj9z1b" width="300%" x="-1" y="-1"><feGaussianBlur result="blurOut" stdDeviation="2.0"/><feColorMatrix in="blurOut" result="blurOut2" type="matrix" values="0 0 0 0 0 0 0 0 0 0 0 0 0 0 0 0 0 0 .4 0"/><feOffset dx="4.0" dy="4.0" in="blurOut2" result="blurOut3"/><feBlend in="SourceGraphic" in2="blurOut3" mode="normal"/></filter></defs><g><line style="stroke:#A80036;stroke-width:1.0;stroke-dasharray:5.0,5.0;" x1="344.5" x2="344.5" y1="41.6094" y2="463.7344"/><line style="stroke:#A80036;stroke-width:1.0;stroke-dasharray:5.0,5.0;" x1="681.5" x2="681.5" y1="41.6094" y2="463.7344"/><line style="stroke:#A80036;stroke-width:1.0;stroke-dasharray:5.0,5.0;" x1="1000" x2="1000" y1="41.6094" y2="463.7344"/><line style="stroke:#A80036;stroke-width:1.0;stroke-dasharray:5.0,5.0;" x1="1307" x2="1307" y1="310.375" y2="463.7344"/><line style="stroke:#A80036;stroke-width:1.0;stroke-dasharray:5.0,5.0;" x1="1485" x2="1485" y1="41.6094" y2="463.7344"/><line style="stroke:#A80036;stroke-width:1.0;stroke-dasharray:5.0,5.0;" x1="1623" x2="1623" y1="41.6094" y2="463.7344"/><rect fill="#FEFECE" filter="url(#f1snspu1pj9z1b)" height="31.6094" style="stroke:#A80036;stroke-width:1.5;" width="73" x="306.5" y="5"/><text fill="#000000" font-family="sans-serif" font-size="14" lengthAdjust="spacing" textLength="59" x="313.5" y="26.5332">test: Test</text><rect fill="#FEFECE" filter="url(#f1snspu1pj9z1b)" height="31.6094" style="stroke:#A80036;stroke-width:1.5;" width="73" x="306.5" y="462.7344"/><text fill="#000000" font-family="sans-serif" font-size="14" lengthAdjust="spacing" textLength="59" x="313.5" y="484.2676">test: Test</text><rect fill="#FEFECE" filter="url(#f1snspu1pj9z1b)" height="31.6094" style="stroke:#A80036;stroke-width:1.5;" width="199" x="580.5" y="5"/><text fill="#000000" font-family="sans-serif" font-size="14" lengthAdjust="spacing" textLength="185" x="587.5" y="26.5332">testParamList: TestParamList</text><rect fill="#FEFECE" filter="url(#f1snspu1pj9z1b)" height="31.6094" style="stroke:#A80036;stroke-width:1.5;" width="199" x="580.5" y="462.7344"/><text fill="#000000" font-family="sans-serif" font-size="14" lengthAdjust="spacing" textLength="185" x="587.5" y="484.2676">testParamList: TestParamList</text><rect fill="#FEFECE" filter="url(#f1snspu1pj9z1b)" height="31.6094" style="stroke:#A80036;stroke-width:1.5;" width="180" x="908" y="5"/><text fill="#000000" font-family="sans-serif" font-size="14" lengthAdjust="spacing" textLength="166" x="915" y="26.5332">testParam: TestParameter</text><rect fill="#FEFECE" filter="url(#f1snspu1pj9z1b)" height="31.6094" style="stroke:#A80036;stroke-width:1.5;" width="180" x="908" y="462.7344"/><text fill="#000000" font-family="sans-serif" font-size="14" lengthAdjust="spacing" textLength="166" x="915" y="484.2676">testParam: TestParameter</text><rect fill="#FEFECE" filter="url(#f1snspu1pj9z1b)" height="31.6094" style="stroke:#A80036;stroke-width:1.5;" width="219" x="1196" y="462.7344"/><text fill="#000000" font-family="sans-serif" font-size="14" lengthAdjust="spacing" textLength="205" x="1203" y="484.2676">testResult: TestParameterResult</text><rect fill="#FEFECE" filter="url(#f1snspu1pj9z1b)" height="31.6094" style="stroke:#A80036;stroke-width:1.5;" width="109" x="1429" y="5"/><text fill="#000000" font-family="sans-serif" font-size="14" lengthAdjust="spacing" textLength="95" x="1436" y="26.5332">type: TestType</text><rect fill="#FEFECE" filter="url(#f1snspu1pj9z1b)" height="31.6094" style="stroke:#A80036;stroke-width:1.5;" width="109" x="1429" y="462.7344"/><text fill="#000000" font-family="sans-serif" font-size="14" lengthAdjust="spacing" textLength="95" x="1436" y="484.2676">type: TestType</text><rect fill="#FEFECE" filter="url(#f1snspu1pj9z1b)" height="31.6094" style="stroke:#A80036;stroke-width:1.5;" width="138" x="1552" y="5"/><text fill="#000000" font-family="sans-serif" font-size="14" lengthAdjust="spacing" textLength="124" x="1559" y="26.5332">em: ExternalModule</text><rect fill="#FEFECE" filter="url(#f1snspu1pj9z1b)" height="31.6094" style="stroke:#A80036;stroke-width:1.5;" width="138" x="1552" y="462.7344"/><text fill="#000000" font-family="sans-serif" font-size="14" lengthAdjust="spacing" textLength="124" x="1559" y="484.2676">em: ExternalModule</text><ellipse cx="7.5" cy="73.2109" rx="4" ry="4" style="stroke:#A80036;stroke-width:1.5;fill:none;"/><polygon fill="#A80036" points="333,69.9609,343,73.9609,333,77.9609,337,73.9609" style="stroke:#A80036;stroke-width:1.0;"/><line style="stroke:#A80036;stroke-width:1.0;" x1="12" x2="339" y1="73.9609" y2="73.9609"/><text fill="#000000" font-family="sans-serif" font-size="13" lengthAdjust="spacing" textLength="313" x="15" y="69.1045">createTestParameterResult(paramCode, value, metric)</text><polygon fill="#A80036" points="670,100.3125,680,104.3125,670,108.3125,674,104.3125" style="stroke:#A80036;stroke-width:1.0;"/><line style="stroke:#A80036;stroke-width:1.0;" x1="345" x2="676" y1="104.3125" y2="104.3125"/><text fill="#000000" font-family="sans-serif" font-size="13" lengthAdjust="spacing" textLength="313" x="352" y="99.4561">createTestParameterResult(paramCode, value, metric)</text><line style="stroke:#A80036;stroke-width:1.0;" x1="682" x2="724" y1="134.6641" y2="134.6641"/><line style="stroke:#A80036;stroke-width:1.0;" x1="724" x2="724" y1="134.6641" y2="147.6641"/><line style="stroke:#A80036;stroke-width:1.0;" x1="683" x2="724" y1="147.6641" y2="147.6641"/><polygon fill="#A80036" points="693,143.6641,683,147.6641,693,151.6641,689,147.6641" style="stroke:#A80036;stroke-width:1.0;"/><text fill="#000000" font-family="sans-serif" font-size="13" lengthAdjust="spacing" textLength="177" x="689" y="129.8076">getTestParameter(paramCode)</text><polygon fill="#A80036" points="988,174.0156,998,178.0156,988,182.0156,992,178.0156" style="stroke:#A80036;stroke-width:1.0;"/><line style="stroke:#A80036;stroke-width:1.0;" x1="682" x2="994" y1="178.0156" y2="178.0156"/><text fill="#000000" font-family="sans-serif" font-size="13" lengthAdjust="spacing" textLength="138" x="689" y="173.1592">param = getParameter()</text><polygon fill="#A80036" points="1473.5,204.3672,1483.5,208.3672,1473.5,212.3672,1477.5,208.3672" style="stroke:#A80036;stroke-width:1.0;"/><line style="stroke:#A80036;stroke-width:1.0;" x1="682" x2="1479.5" y1="208.3672" y2="208.3672"/><text fill="#000000" font-family="sans-serif" font-size="13" lengthAdjust="spacing" textLength="150" x="689" y="203.5107">em = getExternalModule()</text><polygon fill="#A80036" points="1611,234.7188,1621,238.7188,1611,242.7188,1615,238.7188" style="stroke:#A80036;stroke-width:1.0;"/><line style="stroke:#A80036;stroke-width:1.0;" x1="682" x2="1617" y1="238.7188" y2="238.7188"/><text fill="#000000" font-family="sans-serif" font-size="13" lengthAdjust="spacing" textLength="153" x="689" y="233.8623">getReferenceValue(param)</text><polygon fill="#A80036" points="988,265.0703,998,269.0703,988,273.0703,992,269.0703" style="stroke:#A80036;stroke-width:1.0;"/><line style="stroke:#A80036;stroke-width:1.0;" x1="682" x2="994" y1="269.0703" y2="269.0703"/><text fill="#000000" font-family="sans-serif" font-size="13" lengthAdjust="spacing" textLength="294" x="689" y="264.2139">createTestParameterResult(value, metric, refValue)</text><polygon fill="#A80036" points="1184,295.4219,1194,299.4219,1184,303.4219,1188,299.4219" style="stroke:#A80036;stroke-width:1.0;"/><line style="stroke:#A80036;stroke-width:1.0;" x1="1000" x2="1190" y1="299.4219" y2="299.4219"/><text fill="#000000" font-family="sans-serif" font-size="13" lengthAdjust="spacing" textLength="172" x="1007" y="294.5654">create(value, metric, refValue)</text><rect fill="#FEFECE" filter="url(#f1snspu1pj9z1b)" height="31.6094" style="stroke:#A80036;stroke-width:1.5;" width="219" x="1196" y="277.0703"/><text fill="#000000" font-family="sans-serif" font-size="14" lengthAdjust="spacing" textLength="205" x="1203" y="298.6035">testResult: TestParameterResult</text><line style="stroke:#A80036;stroke-width:1.0;" x1="1307.5" x2="1349.5" y1="346.0313" y2="346.0313"/><line style="stroke:#A80036;stroke-width:1.0;" x1="1349.5" x2="1349.5" y1="346.0313" y2="359.0313"/><line style="stroke:#A80036;stroke-width:1.0;" x1="1308.5" x2="1349.5" y1="359.0313" y2="359.0313"/><polygon fill="#A80036" points="1318.5,355.0313,1308.5,359.0313,1318.5,363.0313,1314.5,359.0313" style="stroke:#A80036;stroke-width:1.0;"/><text fill="#000000" font-family="sans-serif" font-size="13" lengthAdjust="spacing" textLength="113" x="1314.5" y="341.1748">validateValue(value)</text><line style="stroke:#A80036;stroke-width:1.0;" x1="1307.5" x2="1349.5" y1="389.3828" y2="389.3828"/><line style="stroke:#A80036;stroke-width:1.0;" x1="1349.5" x2="1349.5" y1="389.3828" y2="402.3828"/><line style="stroke:#A80036;stroke-width:1.0;" x1="1308.5" x2="1349.5" y1="402.3828" y2="402.3828"/><polygon fill="#A80036" points="1318.5,398.3828,1308.5,402.3828,1318.5,406.3828,1314.5,402.3828" style="stroke:#A80036;stroke-width:1.0;"/><text fill="#000000" font-family="sans-serif" font-size="13" lengthAdjust="spacing" textLength="123" x="1314.5" y="384.5264">validateMetric(metric)</text><line style="stroke:#A80036;stroke-width:1.0;" x1="1307.5" x2="1349.5" y1="432.7344" y2="432.7344"/><line style="stroke:#A80036;stroke-width:1.0;" x1="1349.5" x2="1349.5" y1="432.7344" y2="445.7344"/><line style="stroke:#A80036;stroke-width:1.0;" x1="1308.5" x2="1349.5" y1="445.7344" y2="445.7344"/><polygon fill="#A80036" points="1318.5,441.7344,1308.5,445.7344,1318.5,449.7344,1314.5,445.7344" style="stroke:#A80036;stroke-width:1.0;"/><text fill="#000000" font-family="sans-serif" font-size="13" lengthAdjust="spacing" textLength="150" x="1314.5" y="427.8779">validateRefValue(refValue)</text><!--MD5=[66e12410b328fd94345a3da1af1fcda6]
@startuml
participant "test: Test" as test
participant "testParamList: TestParamList" as tpstore
participant "testParam: TestParameter" as testParam
participant "testResult: TestParameterResult" as testResult
participant "type: TestType" as type
participant "em: ExternalModule" as em

[o-> test : createTestParameterResult(paramCode, value, metric)
test -> tpstore: createTestParameterResult(paramCode, value, metric)
tpstore -> tpstore : getTestParameter(paramCode)
tpstore -> testParam : param = getParameter()
tpstore -> type : em = getExternalModule()
tpstore -> em : getReferenceValue(param)
tpstore -> testParam : createTestParameterResult(value, metric, refValue)
create testResult
testParam -> testResult : create(value, metric, refValue)
testResult -> testResult : validateValue(value)
testResult -> testResult : validateMetric(metric)
testResult -> testResult : validateRefValue(refValue)
@enduml

PlantUML version 1.2021.2(Sun Mar 07 11:10:27 GMT 2021)
(GPL source distribution)
Java Runtime: OpenJDK Runtime Environment
JVM: OpenJDK 64-Bit Server VM
Default Encoding: Cp1252
Language: pt
Country: PT
--></g></svg>