<?xml version="1.0" encoding="UTF-8" standalone="no"?><svg xmlns="http://www.w3.org/2000/svg" xmlns:xlink="http://www.w3.org/1999/xlink" contentScriptType="application/ecmascript" contentStyleType="text/css" height="531px" preserveAspectRatio="none" style="width:371px;height:531px;" version="1.1" viewBox="0 0 371 531" width="371px" zoomAndPan="magnify"><defs><filter height="300%" id="f1k7u05q3zt4sr" width="300%" x="-1" y="-1"><feGaussianBlur result="blurOut" stdDeviation="2.0"/><feColorMatrix in="blurOut" result="blurOut2" type="matrix" values="0 0 0 0 0 0 0 0 0 0 0 0 0 0 0 0 0 0 .4 0"/><feOffset dx="4.0" dy="4.0" in="blurOut2" result="blurOut3"/><feBlend in="SourceGraphic" in2="blurOut3" mode="normal"/></filter></defs><g><rect fill="#FFFFFF" filter="url(#f1k7u05q3zt4sr)" height="230.8125" style="stroke:#000000;stroke-width:2.0;" width="347.5" x="10" y="197.6641"/><line style="stroke:#A80036;stroke-width:1.0;stroke-dasharray:5.0,5.0;" x1="37" x2="37" y1="89.6094" y2="445.4766"/><line style="stroke:#A80036;stroke-width:1.0;stroke-dasharray:5.0,5.0;" x1="313.5" x2="313.5" y1="89.6094" y2="445.4766"/><text fill="#000000" font-family="sans-serif" font-size="14" lengthAdjust="spacing" textLength="29" x="20" y="86.5332">CCT</text><ellipse cx="37.5" cy="15" fill="#FEFECE" filter="url(#f1k7u05q3zt4sr)" rx="8" ry="8" style="stroke:#A80036;stroke-width:2.0;"/><path d="M37.5,23 L37.5,50 M24.5,31 L50.5,31 M37.5,50 L24.5,65 M37.5,50 L50.5,65 " fill="none" filter="url(#f1k7u05q3zt4sr)" style="stroke:#A80036;stroke-width:2.0;"/><text fill="#000000" font-family="sans-serif" font-size="14" lengthAdjust="spacing" textLength="29" x="20" y="459.0098">CCT</text><ellipse cx="37.5" cy="472.0859" fill="#FEFECE" filter="url(#f1k7u05q3zt4sr)" rx="8" ry="8" style="stroke:#A80036;stroke-width:2.0;"/><path d="M37.5,480.0859 L37.5,507.0859 M24.5,488.0859 L50.5,488.0859 M37.5,507.0859 L24.5,522.0859 M37.5,507.0859 L50.5,522.0859 " fill="none" filter="url(#f1k7u05q3zt4sr)" style="stroke:#A80036;stroke-width:2.0;"/><rect fill="#FEFECE" filter="url(#f1k7u05q3zt4sr)" height="31.6094" style="stroke:#A80036;stroke-width:1.5;" width="64" x="279.5" y="53"/><text fill="#000000" font-family="sans-serif" font-size="14" lengthAdjust="spacing" textLength="50" x="286.5" y="74.5332">:System</text><rect fill="#FEFECE" filter="url(#f1k7u05q3zt4sr)" height="31.6094" style="stroke:#A80036;stroke-width:1.5;" width="64" x="279.5" y="444.4766"/><text fill="#000000" font-family="sans-serif" font-size="14" lengthAdjust="spacing" textLength="50" x="286.5" y="466.0098">:System</text><polygon fill="#A80036" points="301.5,117.9609,311.5,121.9609,301.5,125.9609,305.5,121.9609" style="stroke:#A80036;stroke-width:1.0;"/><line style="stroke:#A80036;stroke-width:1.0;" x1="37.5" x2="307.5" y1="121.9609" y2="121.9609"/><text fill="#000000" font-family="sans-serif" font-size="13" font-weight="bold" lengthAdjust="spacing" textLength="7" x="44.5" y="117.1045">1</text><text fill="#000000" font-family="sans-serif" font-size="13" lengthAdjust="spacing" textLength="201" x="55.5" y="117.1045">starts a new test result registration</text><polygon fill="#A80036" points="48.5,148.3125,38.5,152.3125,48.5,156.3125,44.5,152.3125" style="stroke:#A80036;stroke-width:1.0;"/><line style="stroke:#A80036;stroke-width:1.0;stroke-dasharray:2.0,2.0;" x1="42.5" x2="312.5" y1="152.3125" y2="152.3125"/><text fill="#000000" font-family="sans-serif" font-size="13" font-weight="bold" lengthAdjust="spacing" textLength="7" x="54.5" y="147.4561">2</text><text fill="#000000" font-family="sans-serif" font-size="13" lengthAdjust="spacing" textLength="193" x="65.5" y="147.4561">requests sample barcode number</text><polygon fill="#A80036" points="301.5,178.6641,311.5,182.6641,301.5,186.6641,305.5,182.6641" style="stroke:#A80036;stroke-width:1.0;"/><line style="stroke:#A80036;stroke-width:1.0;" x1="37.5" x2="307.5" y1="182.6641" y2="182.6641"/><text fill="#000000" font-family="sans-serif" font-size="13" font-weight="bold" lengthAdjust="spacing" textLength="7" x="44.5" y="177.8076">3</text><text fill="#000000" font-family="sans-serif" font-size="13" lengthAdjust="spacing" textLength="122" x="55.5" y="177.8076">types requested data</text><path d="M10,197.6641 L83,197.6641 L83,205.6641 L73,215.6641 L10,215.6641 L10,197.6641 " fill="#EEEEEE" style="stroke:#000000;stroke-width:1.0;"/><rect fill="none" height="230.8125" style="stroke:#000000;stroke-width:2.0;" width="347.5" x="10" y="197.6641"/><text fill="#000000" font-family="sans-serif" font-size="13" font-weight="bold" lengthAdjust="spacing" textLength="28" x="25" y="212.1592">loop</text><text fill="#000000" font-family="sans-serif" font-size="11" font-weight="bold" lengthAdjust="spacing" textLength="225" x="98" y="211.083">[for each test parameter being analysed]</text><polygon fill="#A80036" points="48.5,234.3672,38.5,238.3672,48.5,242.3672,44.5,238.3672" style="stroke:#A80036;stroke-width:1.0;"/><line style="stroke:#A80036;stroke-width:1.0;stroke-dasharray:2.0,2.0;" x1="42.5" x2="312.5" y1="238.3672" y2="238.3672"/><text fill="#000000" font-family="sans-serif" font-size="13" font-weight="bold" lengthAdjust="spacing" textLength="7" x="54.5" y="233.5107">4</text><text fill="#000000" font-family="sans-serif" font-size="13" lengthAdjust="spacing" textLength="112" x="65.5" y="233.5107">requests parameter</text><polygon fill="#A80036" points="301.5,264.7188,311.5,268.7188,301.5,272.7188,305.5,268.7188" style="stroke:#A80036;stroke-width:1.0;"/><line style="stroke:#A80036;stroke-width:1.0;" x1="37.5" x2="307.5" y1="268.7188" y2="268.7188"/><text fill="#000000" font-family="sans-serif" font-size="13" font-weight="bold" lengthAdjust="spacing" textLength="7" x="44.5" y="263.8623">5</text><text fill="#000000" font-family="sans-serif" font-size="13" lengthAdjust="spacing" textLength="132" x="55.5" y="263.8623">selects requested data</text><polygon fill="#A80036" points="48.5,295.0703,38.5,299.0703,48.5,303.0703,44.5,299.0703" style="stroke:#A80036;stroke-width:1.0;"/><line style="stroke:#A80036;stroke-width:1.0;stroke-dasharray:2.0,2.0;" x1="42.5" x2="312.5" y1="299.0703" y2="299.0703"/><text fill="#000000" font-family="sans-serif" font-size="13" font-weight="bold" lengthAdjust="spacing" textLength="7" x="54.5" y="294.2139">6</text><text fill="#000000" font-family="sans-serif" font-size="13" lengthAdjust="spacing" textLength="184" x="65.5" y="294.2139">requests result value and metric</text><polygon fill="#A80036" points="301.5,325.4219,311.5,329.4219,301.5,333.4219,305.5,329.4219" style="stroke:#A80036;stroke-width:1.0;"/><line style="stroke:#A80036;stroke-width:1.0;" x1="37.5" x2="307.5" y1="329.4219" y2="329.4219"/><text fill="#000000" font-family="sans-serif" font-size="13" font-weight="bold" lengthAdjust="spacing" textLength="7" x="44.5" y="324.5654">7</text><text fill="#000000" font-family="sans-serif" font-size="13" lengthAdjust="spacing" textLength="122" x="55.5" y="324.5654">types requested data</text><polygon fill="#A80036" points="48.5,355.7734,38.5,359.7734,48.5,363.7734,44.5,359.7734" style="stroke:#A80036;stroke-width:1.0;"/><line style="stroke:#A80036;stroke-width:1.0;stroke-dasharray:2.0,2.0;" x1="42.5" x2="312.5" y1="359.7734" y2="359.7734"/><text fill="#000000" font-family="sans-serif" font-size="13" font-weight="bold" lengthAdjust="spacing" textLength="7" x="54.5" y="354.917">8</text><text fill="#000000" font-family="sans-serif" font-size="13" lengthAdjust="spacing" textLength="241" x="65.5" y="354.917">shows the data and requests confirmation</text><polygon fill="#A80036" points="301.5,386.125,311.5,390.125,301.5,394.125,305.5,390.125" style="stroke:#A80036;stroke-width:1.0;"/><line style="stroke:#A80036;stroke-width:1.0;" x1="37.5" x2="307.5" y1="390.125" y2="390.125"/><text fill="#000000" font-family="sans-serif" font-size="13" font-weight="bold" lengthAdjust="spacing" textLength="7" x="44.5" y="385.2686">9</text><text fill="#000000" font-family="sans-serif" font-size="13" lengthAdjust="spacing" textLength="100" x="55.5" y="385.2686">confirms the data</text><polygon fill="#A80036" points="48.5,416.4766,38.5,420.4766,48.5,424.4766,44.5,420.4766" style="stroke:#A80036;stroke-width:1.0;"/><line style="stroke:#A80036;stroke-width:1.0;stroke-dasharray:2.0,2.0;" x1="42.5" x2="312.5" y1="420.4766" y2="420.4766"/><text fill="#000000" font-family="sans-serif" font-size="13" font-weight="bold" lengthAdjust="spacing" textLength="14" x="54.5" y="415.6201">10</text><text fill="#000000" font-family="sans-serif" font-size="13" lengthAdjust="spacing" textLength="152" x="72.5" y="415.6201">informs operation success</text><!--MD5=[7cb6a46d35a6395d60f65fbe548020e5]
@startuml
actor CCT as cct
participant ":System" as sys

cct -> sys : **1** starts a new test result registration
sys - -> cct : **2** requests sample barcode number
cct -> sys : **3** types requested data
loop for each test parameter being analysed
sys - -> cct : **4** requests parameter
cct -> sys : **5** selects requested data
sys - -> cct : **6** requests result value and metric
cct -> sys : **7** types requested data
sys - -> cct : **8** shows the data and requests confirmation
cct -> sys : **9** confirms the data
sys - -> cct : **10** informs operation success
end loop
@enduml

PlantUML version 1.2021.2(Sun Mar 07 11:10:27 GMT 2021)
(GPL source distribution)
Java Runtime: OpenJDK Runtime Environment
JVM: OpenJDK 64-Bit Server VM
Default Encoding: Cp1252
Language: pt
Country: PT
--></g></svg>