<?xml version="1.0" encoding="UTF-8" standalone="no"?><svg xmlns="http://www.w3.org/2000/svg" xmlns:xlink="http://www.w3.org/1999/xlink" contentScriptType="application/ecmascript" contentStyleType="text/css" height="808px" preserveAspectRatio="none" style="width:571px;height:808px;" version="1.1" viewBox="0 0 571 808" width="571px" zoomAndPan="magnify"><defs><filter height="300%" id="fx23lyut0sc8r" width="300%" x="-1" y="-1"><feGaussianBlur result="blurOut" stdDeviation="2.0"/><feColorMatrix in="blurOut" result="blurOut2" type="matrix" values="0 0 0 0 0 0 0 0 0 0 0 0 0 0 0 0 0 0 .4 0"/><feOffset dx="4.0" dy="4.0" in="blurOut2" result="blurOut3"/><feBlend in="SourceGraphic" in2="blurOut3" mode="normal"/></filter></defs><g><!--MD5=[02e4b9b7573f1156f41e60aa5b4e25a4]
class Company--><rect codeLine="1" fill="#FEFECE" filter="url(#fx23lyut0sc8r)" height="61.8359" id="Company" style="stroke:#A80036;stroke-width:1.5;" width="85" x="104" y="7"/><ellipse cx="119" cy="23" fill="#ADD1B2" rx="11" ry="11" style="stroke:#A80036;stroke-width:1.0;"/><path d="M121,19.5 Q121.2031,19 121.4375,18.75 Q121.6719,18.5 121.9375,18.5 Q122.4063,18.5 122.7031,18.7813 Q123,19.0625 123,19.7188 L123,21.2813 Q123,21.9375 122.7188,22.2188 Q122.4375,22.5 122,22.5 Q121.6094,22.5 121.3594,22.3281 Q121.1094,22.1563 121,21.7031 Q120.9531,21.3906 120.7813,21.2188 Q120.4688,20.8906 119.9063,20.7031 Q119.3438,20.5 118.7813,20.5 Q118.0781,20.5 117.4844,20.7813 Q116.9063,21.0625 116.4531,21.6875 Q116,22.3125 116,23.1719 L116,24.0938 Q116,25.125 116.8438,25.8125 Q117.6875,26.5 119.1875,26.5 Q120.0781,26.5 120.7031,26.2969 Q121.0625,26.1875 121.4688,25.8281 Q121.7344,25.625 121.875,25.5625 Q122.0156,25.5 122.1875,25.5 Q122.5156,25.5 122.75,25.7656 Q123,26.0156 123,26.375 Q123,26.7188 122.6563,27.125 Q122.1563,27.7188 121.3594,28.0469 Q120.3125,28.5 119.0313,28.5 Q117.5313,28.5 116.3281,27.9063 Q115.3594,27.4375 114.6719,26.4219 Q114,25.4063 114,24.2031 L114,23.1094 Q114,21.8594 114.5938,20.7656 Q115.2031,19.6719 116.25,19.0938 Q117.3125,18.5 118.5,18.5 Q119.2188,18.5 119.8438,18.75 Q120.4688,19 121,19.5 Z " fill="#000000"/><text fill="#000000" font-family="sans-serif" font-size="12" lengthAdjust="spacing" textLength="53" x="133" y="27.9102">Company</text><line style="stroke:#A80036;stroke-width:1.5;" x1="105" x2="188" y1="39" y2="39"/><rect fill="none" height="6" style="stroke:#C82930;stroke-width:1.0;" width="6" x="112" y="47"/><text fill="#000000" font-family="sans-serif" font-size="11" lengthAdjust="spacing" textLength="55" x="124" y="54.4189">designation</text><line style="stroke:#A80036;stroke-width:1.5;" x1="105" x2="188" y1="60.8359" y2="60.8359"/><!--MD5=[df38be88ccee13e832d6fafd6288a4ca]
class Test--><rect codeLine="4" fill="#FEFECE" filter="url(#fx23lyut0sc8r)" height="186.3594" id="Test" style="stroke:#A80036;stroke-width:1.5;" width="94" x="19.5" y="147"/><ellipse cx="51.6" cy="163" fill="#ADD1B2" rx="11" ry="11" style="stroke:#A80036;stroke-width:1.0;"/><path d="M53.6,159.5 Q53.8031,159 54.0375,158.75 Q54.2719,158.5 54.5375,158.5 Q55.0063,158.5 55.3031,158.7813 Q55.6,159.0625 55.6,159.7188 L55.6,161.2813 Q55.6,161.9375 55.3188,162.2188 Q55.0375,162.5 54.6,162.5 Q54.2094,162.5 53.9594,162.3281 Q53.7094,162.1563 53.6,161.7031 Q53.5531,161.3906 53.3813,161.2188 Q53.0688,160.8906 52.5063,160.7031 Q51.9438,160.5 51.3813,160.5 Q50.6781,160.5 50.0844,160.7813 Q49.5063,161.0625 49.0531,161.6875 Q48.6,162.3125 48.6,163.1719 L48.6,164.0938 Q48.6,165.125 49.4438,165.8125 Q50.2875,166.5 51.7875,166.5 Q52.6781,166.5 53.3031,166.2969 Q53.6625,166.1875 54.0688,165.8281 Q54.3344,165.625 54.475,165.5625 Q54.6156,165.5 54.7875,165.5 Q55.1156,165.5 55.35,165.7656 Q55.6,166.0156 55.6,166.375 Q55.6,166.7188 55.2563,167.125 Q54.7563,167.7188 53.9594,168.0469 Q52.9125,168.5 51.6313,168.5 Q50.1313,168.5 48.9281,167.9063 Q47.9594,167.4375 47.2719,166.4219 Q46.6,165.4063 46.6,164.2031 L46.6,163.1094 Q46.6,161.8594 47.1938,160.7656 Q47.8031,159.6719 48.85,159.0938 Q49.9125,158.5 51.1,158.5 Q51.8188,158.5 52.4438,158.75 Q53.0688,159 53.6,159.5 Z " fill="#000000"/><text fill="#000000" font-family="sans-serif" font-size="12" lengthAdjust="spacing" textLength="24" x="69.4" y="167.9102">Test</text><line style="stroke:#A80036;stroke-width:1.5;" x1="20.5" x2="112.5" y1="179" y2="179"/><rect fill="none" height="6" style="stroke:#C82930;stroke-width:1.0;" width="6" x="27.5" y="187"/><text fill="#000000" font-family="sans-serif" font-size="11" lengthAdjust="spacing" textLength="60" x="39.5" y="194.4189">internalCode</text><rect fill="none" height="6" style="stroke:#C82930;stroke-width:1.0;" width="6" x="27.5" y="200.8359"/><text fill="#000000" font-family="sans-serif" font-size="11" lengthAdjust="spacing" textLength="43" x="39.5" y="208.2549">nhsCode</text><rect fill="none" height="6" style="stroke:#C82930;stroke-width:1.0;" width="6" x="27.5" y="214.6719"/><text fill="#000000" font-family="sans-serif" font-size="11" lengthAdjust="spacing" textLength="48" x="39.5" y="222.0908">createdAt</text><rect fill="none" height="6" style="stroke:#C82930;stroke-width:1.0;" width="6" x="27.5" y="228.5078"/><text fill="#000000" font-family="sans-serif" font-size="11" lengthAdjust="spacing" textLength="55" x="39.5" y="235.9268">designation</text><rect fill="none" height="6" style="stroke:#C82930;stroke-width:1.0;" width="6" x="27.5" y="242.3438"/><text fill="#000000" font-family="sans-serif" font-size="11" lengthAdjust="spacing" textLength="63" x="39.5" y="249.7627">dateAnalysis</text><rect fill="none" height="6" style="stroke:#C82930;stroke-width:1.0;" width="6" x="27.5" y="256.1797"/><text fill="#000000" font-family="sans-serif" font-size="11" lengthAdjust="spacing" textLength="61" x="39.5" y="263.5986">timeAnalysis</text><rect fill="none" height="6" style="stroke:#C82930;stroke-width:1.0;" width="6" x="27.5" y="270.0156"/><text fill="#000000" font-family="sans-serif" font-size="11" lengthAdjust="spacing" textLength="68" x="39.5" y="277.4346">dateDiagnosis</text><rect fill="none" height="6" style="stroke:#C82930;stroke-width:1.0;" width="6" x="27.5" y="283.8516"/><text fill="#000000" font-family="sans-serif" font-size="11" lengthAdjust="spacing" textLength="66" x="39.5" y="291.2705">timeDiagnosis</text><rect fill="none" height="6" style="stroke:#C82930;stroke-width:1.0;" width="6" x="27.5" y="297.6875"/><text fill="#000000" font-family="sans-serif" font-size="11" lengthAdjust="spacing" textLength="68" x="39.5" y="305.1064">dateValidation</text><rect fill="none" height="6" style="stroke:#C82930;stroke-width:1.0;" width="6" x="27.5" y="311.5234"/><text fill="#000000" font-family="sans-serif" font-size="11" lengthAdjust="spacing" textLength="66" x="39.5" y="318.9424">timeValidation</text><line style="stroke:#A80036;stroke-width:1.5;" x1="20.5" x2="112.5" y1="325.3594" y2="325.3594"/><!--MD5=[aeb3272166074d8737a70b61b1e71682]
class TestType--><rect codeLine="16" fill="#FEFECE" filter="url(#fx23lyut0sc8r)" height="75.6719" id="TestType" style="stroke:#A80036;stroke-width:1.5;" width="82" x="187.5" y="202"/><ellipse cx="202.5" cy="218" fill="#ADD1B2" rx="11" ry="11" style="stroke:#A80036;stroke-width:1.0;"/><path d="M204.5,214.5 Q204.7031,214 204.9375,213.75 Q205.1719,213.5 205.4375,213.5 Q205.9063,213.5 206.2031,213.7813 Q206.5,214.0625 206.5,214.7188 L206.5,216.2813 Q206.5,216.9375 206.2188,217.2188 Q205.9375,217.5 205.5,217.5 Q205.1094,217.5 204.8594,217.3281 Q204.6094,217.1563 204.5,216.7031 Q204.4531,216.3906 204.2813,216.2188 Q203.9688,215.8906 203.4063,215.7031 Q202.8438,215.5 202.2813,215.5 Q201.5781,215.5 200.9844,215.7813 Q200.4063,216.0625 199.9531,216.6875 Q199.5,217.3125 199.5,218.1719 L199.5,219.0938 Q199.5,220.125 200.3438,220.8125 Q201.1875,221.5 202.6875,221.5 Q203.5781,221.5 204.2031,221.2969 Q204.5625,221.1875 204.9688,220.8281 Q205.2344,220.625 205.375,220.5625 Q205.5156,220.5 205.6875,220.5 Q206.0156,220.5 206.25,220.7656 Q206.5,221.0156 206.5,221.375 Q206.5,221.7188 206.1563,222.125 Q205.6563,222.7188 204.8594,223.0469 Q203.8125,223.5 202.5313,223.5 Q201.0313,223.5 199.8281,222.9063 Q198.8594,222.4375 198.1719,221.4219 Q197.5,220.4063 197.5,219.2031 L197.5,218.1094 Q197.5,216.8594 198.0938,215.7656 Q198.7031,214.6719 199.75,214.0938 Q200.8125,213.5 202,213.5 Q202.7188,213.5 203.3438,213.75 Q203.9688,214 204.5,214.5 Z " fill="#000000"/><text fill="#000000" font-family="sans-serif" font-size="12" lengthAdjust="spacing" textLength="50" x="216.5" y="222.9102">TestType</text><line style="stroke:#A80036;stroke-width:1.5;" x1="188.5" x2="268.5" y1="234" y2="234"/><rect fill="none" height="6" style="stroke:#C82930;stroke-width:1.0;" width="6" x="195.5" y="242"/><text fill="#000000" font-family="sans-serif" font-size="11" lengthAdjust="spacing" textLength="24" x="207.5" y="249.4189">code</text><rect fill="none" height="6" style="stroke:#C82930;stroke-width:1.0;" width="6" x="195.5" y="255.8359"/><text fill="#000000" font-family="sans-serif" font-size="11" lengthAdjust="spacing" textLength="53" x="207.5" y="263.2549">description</text><line style="stroke:#A80036;stroke-width:1.5;" x1="188.5" x2="268.5" y1="269.6719" y2="269.6719"/><!--MD5=[1f6362a5c8f21d8d6a0fce68f3a92a4e]
class Parameter--><rect codeLine="20" fill="#FEFECE" filter="url(#fx23lyut0sc8r)" height="89.5078" id="Parameter" style="stroke:#A80036;stroke-width:1.5;" width="90" x="269.5" y="705"/><ellipse cx="284.5" cy="721" fill="#ADD1B2" rx="11" ry="11" style="stroke:#A80036;stroke-width:1.0;"/><path d="M286.5,717.5 Q286.7031,717 286.9375,716.75 Q287.1719,716.5 287.4375,716.5 Q287.9063,716.5 288.2031,716.7813 Q288.5,717.0625 288.5,717.7188 L288.5,719.2813 Q288.5,719.9375 288.2188,720.2188 Q287.9375,720.5 287.5,720.5 Q287.1094,720.5 286.8594,720.3281 Q286.6094,720.1563 286.5,719.7031 Q286.4531,719.3906 286.2813,719.2188 Q285.9688,718.8906 285.4063,718.7031 Q284.8438,718.5 284.2813,718.5 Q283.5781,718.5 282.9844,718.7813 Q282.4063,719.0625 281.9531,719.6875 Q281.5,720.3125 281.5,721.1719 L281.5,722.0938 Q281.5,723.125 282.3438,723.8125 Q283.1875,724.5 284.6875,724.5 Q285.5781,724.5 286.2031,724.2969 Q286.5625,724.1875 286.9688,723.8281 Q287.2344,723.625 287.375,723.5625 Q287.5156,723.5 287.6875,723.5 Q288.0156,723.5 288.25,723.7656 Q288.5,724.0156 288.5,724.375 Q288.5,724.7188 288.1563,725.125 Q287.6563,725.7188 286.8594,726.0469 Q285.8125,726.5 284.5313,726.5 Q283.0313,726.5 281.8281,725.9063 Q280.8594,725.4375 280.1719,724.4219 Q279.5,723.4063 279.5,722.2031 L279.5,721.1094 Q279.5,719.8594 280.0938,718.7656 Q280.7031,717.6719 281.75,717.0938 Q282.8125,716.5 284,716.5 Q284.7188,716.5 285.3438,716.75 Q285.9688,717 286.5,717.5 Z " fill="#000000"/><text fill="#000000" font-family="sans-serif" font-size="12" lengthAdjust="spacing" textLength="58" x="298.5" y="725.9102">Parameter</text><line style="stroke:#A80036;stroke-width:1.5;" x1="270.5" x2="358.5" y1="737" y2="737"/><rect fill="none" height="6" style="stroke:#C82930;stroke-width:1.0;" width="6" x="277.5" y="745"/><text fill="#000000" font-family="sans-serif" font-size="11" lengthAdjust="spacing" textLength="24" x="289.5" y="752.4189">code</text><rect fill="none" height="6" style="stroke:#C82930;stroke-width:1.0;" width="6" x="277.5" y="758.8359"/><text fill="#000000" font-family="sans-serif" font-size="11" lengthAdjust="spacing" textLength="52" x="289.5" y="766.2549">shortName</text><rect fill="none" height="6" style="stroke:#C82930;stroke-width:1.0;" width="6" x="277.5" y="772.6719"/><text fill="#000000" font-family="sans-serif" font-size="11" lengthAdjust="spacing" textLength="53" x="289.5" y="780.0908">description</text><line style="stroke:#A80036;stroke-width:1.5;" x1="270.5" x2="358.5" y1="786.5078" y2="786.5078"/><!--MD5=[4e608140b854dae633589343bce77383]
class TestParameterResult--><rect codeLine="25" fill="#FEFECE" filter="url(#fx23lyut0sc8r)" height="89.5078" id="TestParameterResult" style="stroke:#A80036;stroke-width:1.5;" width="150" x="402.5" y="537"/><ellipse cx="417.5" cy="553" fill="#ADD1B2" rx="11" ry="11" style="stroke:#A80036;stroke-width:1.0;"/><path d="M419.5,549.5 Q419.7031,549 419.9375,548.75 Q420.1719,548.5 420.4375,548.5 Q420.9063,548.5 421.2031,548.7813 Q421.5,549.0625 421.5,549.7188 L421.5,551.2813 Q421.5,551.9375 421.2188,552.2188 Q420.9375,552.5 420.5,552.5 Q420.1094,552.5 419.8594,552.3281 Q419.6094,552.1563 419.5,551.7031 Q419.4531,551.3906 419.2813,551.2188 Q418.9688,550.8906 418.4063,550.7031 Q417.8438,550.5 417.2813,550.5 Q416.5781,550.5 415.9844,550.7813 Q415.4063,551.0625 414.9531,551.6875 Q414.5,552.3125 414.5,553.1719 L414.5,554.0938 Q414.5,555.125 415.3438,555.8125 Q416.1875,556.5 417.6875,556.5 Q418.5781,556.5 419.2031,556.2969 Q419.5625,556.1875 419.9688,555.8281 Q420.2344,555.625 420.375,555.5625 Q420.5156,555.5 420.6875,555.5 Q421.0156,555.5 421.25,555.7656 Q421.5,556.0156 421.5,556.375 Q421.5,556.7188 421.1563,557.125 Q420.6563,557.7188 419.8594,558.0469 Q418.8125,558.5 417.5313,558.5 Q416.0313,558.5 414.8281,557.9063 Q413.8594,557.4375 413.1719,556.4219 Q412.5,555.4063 412.5,554.2031 L412.5,553.1094 Q412.5,551.8594 413.0938,550.7656 Q413.7031,549.6719 414.75,549.0938 Q415.8125,548.5 417,548.5 Q417.7188,548.5 418.3438,548.75 Q418.9688,549 419.5,549.5 Z " fill="#000000"/><text fill="#000000" font-family="sans-serif" font-size="12" lengthAdjust="spacing" textLength="118" x="431.5" y="557.9102">TestParameterResult</text><line style="stroke:#A80036;stroke-width:1.5;" x1="403.5" x2="551.5" y1="569" y2="569"/><rect fill="none" height="6" style="stroke:#C82930;stroke-width:1.0;" width="6" x="410.5" y="577"/><text fill="#000000" font-family="sans-serif" font-size="11" lengthAdjust="spacing" textLength="48" x="422.5" y="584.4189">createdAt</text><rect fill="none" height="6" style="stroke:#C82930;stroke-width:1.0;" width="6" x="410.5" y="590.8359"/><text fill="#000000" font-family="sans-serif" font-size="11" lengthAdjust="spacing" textLength="26" x="422.5" y="598.2549">value</text><rect fill="none" height="6" style="stroke:#C82930;stroke-width:1.0;" width="6" x="410.5" y="604.6719"/><text fill="#000000" font-family="sans-serif" font-size="11" lengthAdjust="spacing" textLength="29" x="422.5" y="612.0908">metric</text><line style="stroke:#A80036;stroke-width:1.5;" x1="403.5" x2="551.5" y1="618.5078" y2="618.5078"/><!--MD5=[9fa4ae489d9c314278f0bb08c0f69211]
class ReferenceValueModule--><rect codeLine="30" fill="#FEFECE" filter="url(#fx23lyut0sc8r)" height="48" id="ReferenceValueModule" style="stroke:#A80036;stroke-width:1.5;" width="160" x="397.5" y="216"/><ellipse cx="412.5" cy="232" fill="#ADD1B2" rx="11" ry="11" style="stroke:#A80036;stroke-width:1.0;"/><path d="M414.5,228.5 Q414.7031,228 414.9375,227.75 Q415.1719,227.5 415.4375,227.5 Q415.9063,227.5 416.2031,227.7813 Q416.5,228.0625 416.5,228.7188 L416.5,230.2813 Q416.5,230.9375 416.2188,231.2188 Q415.9375,231.5 415.5,231.5 Q415.1094,231.5 414.8594,231.3281 Q414.6094,231.1563 414.5,230.7031 Q414.4531,230.3906 414.2813,230.2188 Q413.9688,229.8906 413.4063,229.7031 Q412.8438,229.5 412.2813,229.5 Q411.5781,229.5 410.9844,229.7813 Q410.4063,230.0625 409.9531,230.6875 Q409.5,231.3125 409.5,232.1719 L409.5,233.0938 Q409.5,234.125 410.3438,234.8125 Q411.1875,235.5 412.6875,235.5 Q413.5781,235.5 414.2031,235.2969 Q414.5625,235.1875 414.9688,234.8281 Q415.2344,234.625 415.375,234.5625 Q415.5156,234.5 415.6875,234.5 Q416.0156,234.5 416.25,234.7656 Q416.5,235.0156 416.5,235.375 Q416.5,235.7188 416.1563,236.125 Q415.6563,236.7188 414.8594,237.0469 Q413.8125,237.5 412.5313,237.5 Q411.0313,237.5 409.8281,236.9063 Q408.8594,236.4375 408.1719,235.4219 Q407.5,234.4063 407.5,233.2031 L407.5,232.1094 Q407.5,230.8594 408.0938,229.7656 Q408.7031,228.6719 409.75,228.0938 Q410.8125,227.5 412,227.5 Q412.7188,227.5 413.3438,227.75 Q413.9688,228 414.5,228.5 Z " fill="#000000"/><text fill="#000000" font-family="sans-serif" font-size="12" lengthAdjust="spacing" textLength="128" x="426.5" y="236.9102">ReferenceValueModule</text><line style="stroke:#A80036;stroke-width:1.5;" x1="398.5" x2="556.5" y1="248" y2="248"/><line style="stroke:#A80036;stroke-width:1.5;" x1="398.5" x2="556.5" y1="256" y2="256"/><!--MD5=[0f07739f46effee96e095e9c408da841]
class TestParameter--><rect fill="#FEFECE" filter="url(#fx23lyut0sc8r)" height="48" id="TestParameter" style="stroke:#A80036;stroke-width:1.5;" width="114" x="189.5" y="558"/><ellipse cx="204.5" cy="574" fill="#ADD1B2" rx="11" ry="11" style="stroke:#A80036;stroke-width:1.0;"/><path d="M206.5,570.5 Q206.7031,570 206.9375,569.75 Q207.1719,569.5 207.4375,569.5 Q207.9063,569.5 208.2031,569.7813 Q208.5,570.0625 208.5,570.7188 L208.5,572.2813 Q208.5,572.9375 208.2188,573.2188 Q207.9375,573.5 207.5,573.5 Q207.1094,573.5 206.8594,573.3281 Q206.6094,573.1563 206.5,572.7031 Q206.4531,572.3906 206.2813,572.2188 Q205.9688,571.8906 205.4063,571.7031 Q204.8438,571.5 204.2813,571.5 Q203.5781,571.5 202.9844,571.7813 Q202.4063,572.0625 201.9531,572.6875 Q201.5,573.3125 201.5,574.1719 L201.5,575.0938 Q201.5,576.125 202.3438,576.8125 Q203.1875,577.5 204.6875,577.5 Q205.5781,577.5 206.2031,577.2969 Q206.5625,577.1875 206.9688,576.8281 Q207.2344,576.625 207.375,576.5625 Q207.5156,576.5 207.6875,576.5 Q208.0156,576.5 208.25,576.7656 Q208.5,577.0156 208.5,577.375 Q208.5,577.7188 208.1563,578.125 Q207.6563,578.7188 206.8594,579.0469 Q205.8125,579.5 204.5313,579.5 Q203.0313,579.5 201.8281,578.9063 Q200.8594,578.4375 200.1719,577.4219 Q199.5,576.4063 199.5,575.2031 L199.5,574.1094 Q199.5,572.8594 200.0938,571.7656 Q200.7031,570.6719 201.75,570.0938 Q202.8125,569.5 204,569.5 Q204.7188,569.5 205.3438,569.75 Q205.9688,570 206.5,570.5 Z " fill="#000000"/><text fill="#000000" font-family="sans-serif" font-size="12" lengthAdjust="spacing" textLength="82" x="218.5" y="578.9102">TestParameter</text><line style="stroke:#A80036;stroke-width:1.5;" x1="190.5" x2="302.5" y1="590" y2="590"/><line style="stroke:#A80036;stroke-width:1.5;" x1="190.5" x2="302.5" y1="598" y2="598"/><ellipse cx="152.5" cy="582" fill="#000000" rx="2" ry="2" style="stroke:none;stroke-width:1.0;"/><!--MD5=[1c357e7e7fdba398bcadd6e61afe49f5]
class ReferenceValue--><rect fill="#FEFECE" filter="url(#fx23lyut0sc8r)" height="48" id="ReferenceValue" style="stroke:#A80036;stroke-width:1.5;" width="120" x="417.5" y="411"/><ellipse cx="432.5" cy="427" fill="#ADD1B2" rx="11" ry="11" style="stroke:#A80036;stroke-width:1.0;"/><path d="M434.5,423.5 Q434.7031,423 434.9375,422.75 Q435.1719,422.5 435.4375,422.5 Q435.9063,422.5 436.2031,422.7813 Q436.5,423.0625 436.5,423.7188 L436.5,425.2813 Q436.5,425.9375 436.2188,426.2188 Q435.9375,426.5 435.5,426.5 Q435.1094,426.5 434.8594,426.3281 Q434.6094,426.1563 434.5,425.7031 Q434.4531,425.3906 434.2813,425.2188 Q433.9688,424.8906 433.4063,424.7031 Q432.8438,424.5 432.2813,424.5 Q431.5781,424.5 430.9844,424.7813 Q430.4063,425.0625 429.9531,425.6875 Q429.5,426.3125 429.5,427.1719 L429.5,428.0938 Q429.5,429.125 430.3438,429.8125 Q431.1875,430.5 432.6875,430.5 Q433.5781,430.5 434.2031,430.2969 Q434.5625,430.1875 434.9688,429.8281 Q435.2344,429.625 435.375,429.5625 Q435.5156,429.5 435.6875,429.5 Q436.0156,429.5 436.25,429.7656 Q436.5,430.0156 436.5,430.375 Q436.5,430.7188 436.1563,431.125 Q435.6563,431.7188 434.8594,432.0469 Q433.8125,432.5 432.5313,432.5 Q431.0313,432.5 429.8281,431.9063 Q428.8594,431.4375 428.1719,430.4219 Q427.5,429.4063 427.5,428.2031 L427.5,427.1094 Q427.5,425.8594 428.0938,424.7656 Q428.7031,423.6719 429.75,423.0938 Q430.8125,422.5 432,422.5 Q432.7188,422.5 433.3438,422.75 Q433.9688,423 434.5,423.5 Z " fill="#000000"/><text fill="#000000" font-family="sans-serif" font-size="12" lengthAdjust="spacing" textLength="88" x="446.5" y="431.9102">ReferenceValue</text><line style="stroke:#A80036;stroke-width:1.5;" x1="418.5" x2="536.5" y1="443" y2="443"/><line style="stroke:#A80036;stroke-width:1.5;" x1="418.5" x2="536.5" y1="451" y2="451"/><!--MD5=[9681492165142af2a4a3a169d90ee8d4]
class Sample--><rect fill="#FEFECE" filter="url(#fx23lyut0sc8r)" height="48" id="Sample" style="stroke:#A80036;stroke-width:1.5;" width="75" x="7" y="411"/><ellipse cx="22" cy="427" fill="#ADD1B2" rx="11" ry="11" style="stroke:#A80036;stroke-width:1.0;"/><path d="M24,423.5 Q24.2031,423 24.4375,422.75 Q24.6719,422.5 24.9375,422.5 Q25.4063,422.5 25.7031,422.7813 Q26,423.0625 26,423.7188 L26,425.2813 Q26,425.9375 25.7188,426.2188 Q25.4375,426.5 25,426.5 Q24.6094,426.5 24.3594,426.3281 Q24.1094,426.1563 24,425.7031 Q23.9531,425.3906 23.7813,425.2188 Q23.4688,424.8906 22.9063,424.7031 Q22.3438,424.5 21.7813,424.5 Q21.0781,424.5 20.4844,424.7813 Q19.9063,425.0625 19.4531,425.6875 Q19,426.3125 19,427.1719 L19,428.0938 Q19,429.125 19.8438,429.8125 Q20.6875,430.5 22.1875,430.5 Q23.0781,430.5 23.7031,430.2969 Q24.0625,430.1875 24.4688,429.8281 Q24.7344,429.625 24.875,429.5625 Q25.0156,429.5 25.1875,429.5 Q25.5156,429.5 25.75,429.7656 Q26,430.0156 26,430.375 Q26,430.7188 25.6563,431.125 Q25.1563,431.7188 24.3594,432.0469 Q23.3125,432.5 22.0313,432.5 Q20.5313,432.5 19.3281,431.9063 Q18.3594,431.4375 17.6719,430.4219 Q17,429.4063 17,428.2031 L17,427.1094 Q17,425.8594 17.5938,424.7656 Q18.2031,423.6719 19.25,423.0938 Q20.3125,422.5 21.5,422.5 Q22.2188,422.5 22.8438,422.75 Q23.4688,423 24,423.5 Z " fill="#000000"/><text fill="#000000" font-family="sans-serif" font-size="12" lengthAdjust="spacing" textLength="43" x="36" y="431.9102">Sample</text><line style="stroke:#A80036;stroke-width:1.5;" x1="8" x2="81" y1="443" y2="443"/><line style="stroke:#A80036;stroke-width:1.5;" x1="8" x2="81" y1="451" y2="451"/><!--MD5=[742a261f27a3dcd734c626287d811acd]
link Company to TestType--><path codeLine="32" d="M161.01,69.03 C165.47,78.56 170.31,89.16 174.5,99 C189.19,133.52 204.44,173.5 214.97,201.88 " fill="none" id="Company-TestType" style="stroke:#A80036;stroke-width:1.0;"/><polygon fill="#000000" points="188.3816,112.8082,187.7007,103.3221,182.2549,105.534,188.3816,112.8082" style="stroke:#000000;stroke-width:1.0;"/><text fill="#000000" font-family="sans-serif" font-size="13" lengthAdjust="spacing" textLength="53" x="195.5" y="113.4951">conducts</text><text fill="#000000" font-family="sans-serif" font-size="13" lengthAdjust="spacing" textLength="7" x="156.1776" y="90.2599">1</text><text fill="#000000" font-family="sans-serif" font-size="13" lengthAdjust="spacing" textLength="5" x="207.1147" y="191.2205">*</text><!--MD5=[ec145165d781694af7774b9a85b78b28]
link TestType to ReferenceValueModule--><path codeLine="33" d="M269.62,240 C304.22,240 354.72,240 397.29,240 " fill="none" id="TestType-ReferenceValueModule" style="stroke:#A80036;stroke-width:1.0;"/><polygon fill="#000000" points="297,228.1758,287.9549,225.2369,287.9549,231.1147,297,228.1758" style="stroke:#000000;stroke-width:1.0;"/><text fill="#000000" font-family="sans-serif" font-size="13" lengthAdjust="spacing" textLength="78" x="301" y="233.4951">makes use of</text><text fill="#000000" font-family="sans-serif" font-size="13" lengthAdjust="spacing" textLength="5" x="277.3898" y="236.1307">*</text><text fill="#000000" font-family="sans-serif" font-size="13" lengthAdjust="spacing" textLength="7" x="382.573" y="236.7738">1</text><!--MD5=[e5a1ad8cf54a15b9f508e822cc3e9fb4]
link TestParameterResult to Parameter--><path codeLine="34" d="M434.25,627.05 C410.67,651.06 381.57,680.7 357.96,704.75 " fill="none" id="TestParameterResult-Parameter" style="stroke:#A80036;stroke-width:1.0;"/><polygon fill="#000000" points="402.997,669.7435,411.4311,665.3484,407.2369,661.2304,402.997,669.7435" style="stroke:#000000;stroke-width:1.0;"/><text fill="#000000" font-family="sans-serif" font-size="13" lengthAdjust="spacing" textLength="78" x="415.5" y="671.4951">associated to</text><text fill="#000000" font-family="sans-serif" font-size="13" lengthAdjust="spacing" textLength="7" x="420.6758" y="648.0646">1</text><text fill="#000000" font-family="sans-serif" font-size="13" lengthAdjust="spacing" textLength="7" x="357.0789" y="694.1558">1</text><!--MD5=[7e4bc624457760b649895ff2ead938fa]
link Company to Test--><path codeLine="36" d="M122.97,69.29 C116.64,78.47 110.24,88.82 105.5,99 C98.53,113.98 92.57,130.46 87.56,146.7 " fill="none" id="Company-Test" style="stroke:#A80036;stroke-width:1.0;"/><polygon fill="#000000" points="108.4201,112.7227,114.8553,105.7198,109.5101,103.2748,108.4201,112.7227" style="stroke:#000000;stroke-width:1.0;"/><text fill="#000000" font-family="sans-serif" font-size="13" lengthAdjust="spacing" textLength="50" x="119.5" y="113.4951">performs</text><text fill="#000000" font-family="sans-serif" font-size="13" lengthAdjust="spacing" textLength="7" x="110.8174" y="90.3239">1</text><text fill="#000000" font-family="sans-serif" font-size="13" lengthAdjust="spacing" textLength="5" x="84.039" y="136.1225">*</text><!--MD5=[e981d4f96c4342412d1e68160b30cf70]
link Test to TestType--><path codeLine="37" d="M113.79,240 C137.14,240 165.04,240 187.47,240 " fill="none" id="Test-TestType" style="stroke:#A80036;stroke-width:1.0;"/><polygon fill="#000000" points="141,228.1758,131.9549,225.2369,131.9549,231.1147,141,228.1758" style="stroke:#000000;stroke-width:1.0;"/><text fill="#000000" font-family="sans-serif" font-size="13" lengthAdjust="spacing" textLength="24" x="145" y="233.4951">is of</text><text fill="#000000" font-family="sans-serif" font-size="13" lengthAdjust="spacing" textLength="5" x="121.4141" y="236.2695">*</text><text fill="#000000" font-family="sans-serif" font-size="13" lengthAdjust="spacing" textLength="7" x="172.5381" y="236.1307">1</text><!--MD5=[fea62bcfbe04ebf6fe434d96f93b7f87]
link Test to apoint551--><path d="M110.44,333.28 C114.22,343.18 117.67,353.21 120.5,363 C145.98,451.2 151.81,565.63 152.44,579.59 " fill="none" id="Test-apoint551" style="stroke:#A80036;stroke-width:1.0;"/><polygon fill="#000000" points="146.3405,440.1046,147.7172,430.6942,141.9229,431.6823,146.3405,440.1046" style="stroke:#000000;stroke-width:1.0;"/><text fill="#000000" font-family="sans-serif" font-size="13" lengthAdjust="spacing" textLength="116" x="154.5" y="440.4951">requests analysis of</text><text fill="#000000" font-family="sans-serif" font-size="13" lengthAdjust="spacing" textLength="5" x="108.7423" y="354.8456">*</text><!--MD5=[36215264f3c6e9b167ed8b85525553e7]
link apoint551 to Parameter--><path d="M152.8,584.19 C154.19,589.56 160.43,612.01 171.5,627 C198.54,663.62 238.58,696.56 269.41,718.95 " fill="none" id="apoint551-Parameter" style="stroke:#A80036;stroke-width:1.0;"/><text fill="#000000" font-family="sans-serif" font-size="13" lengthAdjust="spacing" textLength="20" x="241.663" y="711.013">1..*</text><!--MD5=[e99e1f5d71251e822771cfebb3b832d4]
link apoint551 to TestParameter--><path d="M154.7,582 C166.3,582 177.89,582 189.49,582 " fill="none" id="apoint551-TestParameter" style="stroke:#A80036;stroke-width:1.0;stroke-dasharray:7.0,7.0;"/><!--MD5=[0e00e25ac6b8c14659aaff2cf7e5df08]
link TestParameter to TestParameterResult--><path codeLine="39" d="M303.6,582 C333.4,582 370.22,582 402.31,582 " fill="none" id="TestParameter-TestParameterResult" style="stroke:#A80036;stroke-width:1.0;"/><polygon fill="#000000" points="331,570.1758,321.9549,567.2369,321.9549,573.1147,331,570.1758" style="stroke:#000000;stroke-width:1.0;"/><text fill="#000000" font-family="sans-serif" font-size="13" lengthAdjust="spacing" textLength="49" x="335" y="575.4951">contains</text><text fill="#000000" font-family="sans-serif" font-size="13" lengthAdjust="spacing" textLength="7" x="311.3644" y="578.4926">1</text><text fill="#000000" font-family="sans-serif" font-size="13" lengthAdjust="spacing" textLength="22" x="372.6337" y="596.2452">0..1</text><!--MD5=[25a705128afb8a87d23aca9258fc0d21]
link ReferenceValueModule to ReferenceValue--><path codeLine="40" d="M477.5,264.28 C477.5,301.48 477.5,373.88 477.5,410.94 " fill="none" id="ReferenceValueModule-ReferenceValue" style="stroke:#A80036;stroke-width:1.0;"/><polygon fill="#000000" points="482.5,367.1758,479.5611,376.2209,485.4389,376.2209,482.5,367.1758" style="stroke:#000000;stroke-width:1.0;"/><text fill="#000000" font-family="sans-serif" font-size="13" lengthAdjust="spacing" textLength="65" x="491.5" y="377.4951">provided by</text><text fill="#000000" font-family="sans-serif" font-size="13" lengthAdjust="spacing" textLength="7" x="469.6469" y="285.6862">1</text><text fill="#000000" font-family="sans-serif" font-size="13" lengthAdjust="spacing" textLength="5" x="471.8594" y="400.2648">*</text><!--MD5=[2fc0f4084f299b8e83a57524f584a65e]
link ReferenceValue to TestParameterResult--><path codeLine="41" d="M477.5,459.3 C477.5,480.19 477.5,511.41 477.5,537 " fill="none" id="ReferenceValue-TestParameterResult" style="stroke:#A80036;stroke-width:1.0;"/><polygon fill="#000000" points="482.5,493.1758,479.5611,502.2209,485.4389,502.2209,482.5,493.1758" style="stroke:#000000;stroke-width:1.0;"/><text fill="#000000" font-family="sans-serif" font-size="13" lengthAdjust="spacing" textLength="43" x="491.5" y="503.4951">records</text><text fill="#000000" font-family="sans-serif" font-size="13" lengthAdjust="spacing" textLength="7" x="469.6906" y="480.3051">1</text><text fill="#000000" font-family="sans-serif" font-size="13" lengthAdjust="spacing" textLength="7" x="469.9422" y="526.1155">1</text><!--MD5=[b72ac8ab7fb5921fceb5036a3902baea]
link Test to Sample--><path codeLine="42" d="M55.98,333.26 C52.71,361.95 49.39,391.14 47.16,410.66 " fill="none" id="Test-Sample" style="stroke:#A80036;stroke-width:1.0;"/><polygon fill="#000000" points="56.9339,377.1436,60.878,368.4895,55.038,367.824,56.9339,377.1436" style="stroke:#000000;stroke-width:1.0;"/><text fill="#000000" font-family="sans-serif" font-size="13" lengthAdjust="spacing" textLength="45" x="66.5" y="377.4951">collects</text><text fill="#000000" font-family="sans-serif" font-size="13" lengthAdjust="spacing" textLength="7" x="47.8628" y="354.824">1</text><text fill="#000000" font-family="sans-serif" font-size="13" lengthAdjust="spacing" textLength="5" x="42.199" y="400.3151">*</text><!--MD5=[6d2094221b8dffa8b9d19ab5febb74f3]
@startuml
class Company {
-designation
}
class Test {
-internalCode
-nhsCode
-createdAt
-designation
-dateAnalysis
-timeAnalysis
-dateDiagnosis
-timeDiagnosis
-dateValidation
-timeValidation
}
class TestType {
-code
-description
}
class Parameter {
-code
-shortName
-description
}
class TestParameterResult {
-createdAt
-value
-metric
}
class ReferenceValueModule

Company "1"-down-"*" TestType : conducts >
TestType "*"-right-"1" ReferenceValueModule : makes use of >
TestParameterResult "1"- -"1" Parameter : associated to >
Test "*"- -"1..*" Parameter : requests analysis of >
Test "*"-up-"1" Company : performs <
Test "*"-right-"1" "TestType" : is of >
(Test, Parameter) .. TestParameter
TestParameter "1"-right- "0..1"TestParameterResult : contains >
ReferenceValue "*"-up-"1" ReferenceValueModule : provided by >
TestParameterResult "1"-up-"1" ReferenceValue : records >
Test "1"- -"*" Sample : collects >
@enduml

PlantUML version 1.2021.2(Sun Mar 07 11:10:27 GMT 2021)
(GPL source distribution)
Java Runtime: OpenJDK Runtime Environment
JVM: OpenJDK 64-Bit Server VM
Default Encoding: Cp1252
Language: pt
Country: PT
--></g></svg>