<?xml version="1.0" encoding="UTF-8" standalone="no"?><svg xmlns="http://www.w3.org/2000/svg" xmlns:xlink="http://www.w3.org/1999/xlink" contentScriptType="application/ecmascript" contentStyleType="text/css" height="1603.75px" preserveAspectRatio="none" style="width:841px;height:1603px;" version="1.1" viewBox="0 0 841 1603" width="841.25px" zoomAndPan="magnify"><defs><filter height="300%" id="f1s45znk0fudz" width="300%" x="-1" y="-1"><feGaussianBlur result="blurOut" stdDeviation="2.5"/><feColorMatrix in="blurOut" result="blurOut2" type="matrix" values="0 0 0 0 0 0 0 0 0 0 0 0 0 0 0 0 0 0 .4 0"/><feOffset dx="5.0" dy="5.0" in="blurOut2" result="blurOut3"/><feBlend in="SourceGraphic" in2="blurOut3" mode="normal"/></filter></defs><g><!--MD5=[b04dbfeb411f2fbf75f32e1dc1c6a287]
class TestConsultationUI--><rect codeLine="2" fill="#FEFECE" filter="url(#f1s45znk0fudz)" height="60" id="TestConsultationUI" style="stroke:#A80036;stroke-width:1.875;" width="172.5" x="458.125" y="17.5"/><ellipse cx="476.875" cy="37.5" fill="#ADD1B2" rx="13.75" ry="13.75" style="stroke:#A80036;stroke-width:1.25;"/><path d="M479.375,33.125 Q479.6289,32.5 479.9219,32.1875 Q480.2148,31.875 480.5469,31.875 Q481.1328,31.875 481.5039,32.2266 Q481.875,32.5781 481.875,33.3984 L481.875,35.3516 Q481.875,36.1719 481.5234,36.5234 Q481.1719,36.875 480.625,36.875 Q480.1367,36.875 479.8242,36.6602 Q479.5117,36.4453 479.375,35.8789 Q479.3164,35.4883 479.1016,35.2734 Q478.7109,34.8633 478.0078,34.6289 Q477.3047,34.375 476.6016,34.375 Q475.7227,34.375 474.9805,34.7266 Q474.2578,35.0781 473.6914,35.8594 Q473.125,36.6406 473.125,37.7148 L473.125,38.8672 Q473.125,40.1563 474.1797,41.0156 Q475.2344,41.875 477.1094,41.875 Q478.2227,41.875 479.0039,41.6211 Q479.4531,41.4844 479.9609,41.0352 Q480.293,40.7813 480.4688,40.7031 Q480.6445,40.625 480.8594,40.625 Q481.2695,40.625 481.5625,40.957 Q481.875,41.2695 481.875,41.7188 Q481.875,42.1484 481.4453,42.6563 Q480.8203,43.3984 479.8242,43.8086 Q478.5156,44.375 476.9141,44.375 Q475.0391,44.375 473.5352,43.6328 Q472.3242,43.0469 471.4648,41.7773 Q470.625,40.5078 470.625,39.0039 L470.625,37.6367 Q470.625,36.0742 471.3672,34.707 Q472.1289,33.3398 473.4375,32.6172 Q474.7656,31.875 476.25,31.875 Q477.1484,31.875 477.9297,32.1875 Q478.7109,32.5 479.375,33.125 Z " fill="#000000"/><text fill="#000000" font-family="sans-serif" font-size="15" lengthAdjust="spacing" textLength="132.5" x="494.375" y="43.6377">TestConsultationUI</text><line style="stroke:#A80036;stroke-width:1.875;" x1="459.375" x2="629.375" y1="57.5" y2="57.5"/><line style="stroke:#A80036;stroke-width:1.875;" x1="459.375" x2="629.375" y1="67.5" y2="67.5"/><!--MD5=[f1dce90597abd9852581329e6eb96023]
class TestConsultationController--><rect codeLine="4" fill="#FEFECE" filter="url(#f1s45znk0fudz)" height="111.8848" id="TestConsultationController" style="stroke:#A80036;stroke-width:1.875;" width="225" x="425.625" y="162.5"/><ellipse cx="444.375" cy="182.5" fill="#ADD1B2" rx="13.75" ry="13.75" style="stroke:#A80036;stroke-width:1.25;"/><path d="M446.875,178.125 Q447.1289,177.5 447.4219,177.1875 Q447.7148,176.875 448.0469,176.875 Q448.6328,176.875 449.0039,177.2266 Q449.375,177.5781 449.375,178.3984 L449.375,180.3516 Q449.375,181.1719 449.0234,181.5234 Q448.6719,181.875 448.125,181.875 Q447.6367,181.875 447.3242,181.6602 Q447.0117,181.4453 446.875,180.8789 Q446.8164,180.4883 446.6016,180.2734 Q446.2109,179.8633 445.5078,179.6289 Q444.8047,179.375 444.1016,179.375 Q443.2227,179.375 442.4805,179.7266 Q441.7578,180.0781 441.1914,180.8594 Q440.625,181.6406 440.625,182.7148 L440.625,183.8672 Q440.625,185.1563 441.6797,186.0156 Q442.7344,186.875 444.6094,186.875 Q445.7227,186.875 446.5039,186.6211 Q446.9531,186.4844 447.4609,186.0352 Q447.793,185.7813 447.9688,185.7031 Q448.1445,185.625 448.3594,185.625 Q448.7695,185.625 449.0625,185.957 Q449.375,186.2695 449.375,186.7188 Q449.375,187.1484 448.9453,187.6563 Q448.3203,188.3984 447.3242,188.8086 Q446.0156,189.375 444.4141,189.375 Q442.5391,189.375 441.0352,188.6328 Q439.8242,188.0469 438.9648,186.7773 Q438.125,185.5078 438.125,184.0039 L438.125,182.6367 Q438.125,181.0742 438.8672,179.707 Q439.6289,178.3398 440.9375,177.6172 Q442.2656,176.875 443.75,176.875 Q444.6484,176.875 445.4297,177.1875 Q446.2109,177.5 446.875,178.125 Z " fill="#000000"/><text fill="#000000" font-family="sans-serif" font-size="15" lengthAdjust="spacing" textLength="185" x="461.875" y="188.6377">TestConsultationController</text><line style="stroke:#A80036;stroke-width:1.875;" x1="426.875" x2="649.375" y1="202.5" y2="202.5"/><line style="stroke:#A80036;stroke-width:1.875;" x1="426.875" x2="649.375" y1="212.5" y2="212.5"/><ellipse cx="439.375" cy="226.25" fill="#84BE84" rx="3.75" ry="3.75" style="stroke:#038048;stroke-width:1.25;"/><text fill="#000000" font-family="sans-serif" font-size="13.75" lengthAdjust="spacing" textLength="82.5" x="450.625" y="231.7737">getClientList()</text><ellipse cx="439.375" cy="243.5449" fill="#84BE84" rx="3.75" ry="3.75" style="stroke:#038048;stroke-width:1.25;"/><text fill="#000000" font-family="sans-serif" font-size="13.75" lengthAdjust="spacing" textLength="108.75" x="450.625" y="249.0686">getClientTestList()</text><ellipse cx="439.375" cy="260.8398" fill="#84BE84" rx="3.75" ry="3.75" style="stroke:#038048;stroke-width:1.25;"/><text fill="#000000" font-family="sans-serif" font-size="13.75" lengthAdjust="spacing" textLength="177.5" x="450.625" y="266.3635">displayTestResults(testCode)</text><!--MD5=[ed6624c6556d5e7b1bd23032162d20b7]
class Client--><rect codeLine="12" fill="#FEFECE" filter="url(#f1s45znk0fudz)" height="198.3594" id="Client" style="stroke:#A80036;stroke-width:1.875;" width="116.25" x="293.75" y="811.875"/><ellipse cx="328.8125" cy="831.875" fill="#ADD1B2" rx="13.75" ry="13.75" style="stroke:#A80036;stroke-width:1.25;"/><path d="M331.3125,827.5 Q331.5664,826.875 331.8594,826.5625 Q332.1523,826.25 332.4844,826.25 Q333.0703,826.25 333.4414,826.6016 Q333.8125,826.9531 333.8125,827.7734 L333.8125,829.7266 Q333.8125,830.5469 333.4609,830.8984 Q333.1094,831.25 332.5625,831.25 Q332.0742,831.25 331.7617,831.0352 Q331.4492,830.8203 331.3125,830.2539 Q331.2539,829.8633 331.0391,829.6484 Q330.6484,829.2383 329.9453,829.0039 Q329.2422,828.75 328.5391,828.75 Q327.6602,828.75 326.918,829.1016 Q326.1953,829.4531 325.6289,830.2344 Q325.0625,831.0156 325.0625,832.0898 L325.0625,833.2422 Q325.0625,834.5313 326.1172,835.3906 Q327.1719,836.25 329.0469,836.25 Q330.1602,836.25 330.9414,835.9961 Q331.3906,835.8594 331.8984,835.4102 Q332.2305,835.1563 332.4063,835.0781 Q332.582,835 332.7969,835 Q333.207,835 333.5,835.332 Q333.8125,835.6445 333.8125,836.0938 Q333.8125,836.5234 333.3828,837.0313 Q332.7578,837.7734 331.7617,838.1836 Q330.4531,838.75 328.8516,838.75 Q326.9766,838.75 325.4727,838.0078 Q324.2617,837.4219 323.4023,836.1523 Q322.5625,834.8828 322.5625,833.3789 L322.5625,832.0117 Q322.5625,830.4492 323.3047,829.082 Q324.0664,827.7148 325.375,826.9922 Q326.7031,826.25 328.1875,826.25 Q329.0859,826.25 329.8672,826.5625 Q330.6484,826.875 331.3125,827.5 Z " fill="#000000"/><text fill="#000000" font-family="sans-serif" font-size="15" lengthAdjust="spacing" textLength="40" x="349.9375" y="838.0127">Client</text><line style="stroke:#A80036;stroke-width:1.875;" x1="295" x2="408.75" y1="851.875" y2="851.875"/><rect fill="none" height="7.5" style="stroke:#C82930;stroke-width:1.25;" width="7.5" x="303.75" y="861.875"/><text fill="#000000" font-family="sans-serif" font-size="13.75" lengthAdjust="spacing" textLength="32.5" x="318.75" y="871.1487">name</text><rect fill="none" height="7.5" style="stroke:#C82930;stroke-width:1.25;" width="7.5" x="303.75" y="879.1699"/><text fill="#000000" font-family="sans-serif" font-size="13.75" lengthAdjust="spacing" textLength="73.75" x="318.75" y="888.4436">cardNumber</text><rect fill="none" height="7.5" style="stroke:#C82930;stroke-width:1.25;" width="7.5" x="303.75" y="896.4648"/><text fill="#000000" font-family="sans-serif" font-size="13.75" lengthAdjust="spacing" textLength="32.5" x="318.75" y="905.7385">nhsId</text><rect fill="none" height="7.5" style="stroke:#C82930;stroke-width:1.25;" width="7.5" x="303.75" y="913.7598"/><text fill="#000000" font-family="sans-serif" font-size="13.75" lengthAdjust="spacing" textLength="53.75" x="318.75" y="923.0334">dateBirth</text><rect fill="none" height="7.5" style="stroke:#C82930;stroke-width:1.25;" width="7.5" x="303.75" y="931.0547"/><text fill="#000000" font-family="sans-serif" font-size="13.75" lengthAdjust="spacing" textLength="18.75" x="318.75" y="940.3284">TIN</text><rect fill="none" height="7.5" style="stroke:#C82930;stroke-width:1.25;" width="7.5" x="303.75" y="948.3496"/><text fill="#000000" font-family="sans-serif" font-size="13.75" lengthAdjust="spacing" textLength="83.75" x="318.75" y="957.6233">phoneNumber</text><rect fill="none" height="7.5" style="stroke:#C82930;stroke-width:1.25;" width="7.5" x="303.75" y="965.6445"/><text fill="#000000" font-family="sans-serif" font-size="13.75" lengthAdjust="spacing" textLength="30" x="318.75" y="974.9182">email</text><rect fill="none" height="7.5" style="stroke:#C82930;stroke-width:1.25;" width="7.5" x="303.75" y="982.9395"/><text fill="#000000" font-family="sans-serif" font-size="13.75" lengthAdjust="spacing" textLength="22.5" x="318.75" y="992.2131">sex</text><line style="stroke:#A80036;stroke-width:1.875;" x1="295" x2="408.75" y1="1000.2344" y2="1000.2344"/><!--MD5=[02e4b9b7573f1156f41e60aa5b4e25a4]
class Company--><rect codeLine="23" fill="#FEFECE" filter="url(#f1s45znk0fudz)" height="94.5898" id="Company" style="stroke:#A80036;stroke-width:1.875;" width="126.25" x="257.5" y="410"/><ellipse cx="285.25" cy="430" fill="#ADD1B2" rx="13.75" ry="13.75" style="stroke:#A80036;stroke-width:1.25;"/><path d="M287.75,425.625 Q288.0039,425 288.2969,424.6875 Q288.5898,424.375 288.9219,424.375 Q289.5078,424.375 289.8789,424.7266 Q290.25,425.0781 290.25,425.8984 L290.25,427.8516 Q290.25,428.6719 289.8984,429.0234 Q289.5469,429.375 289,429.375 Q288.5117,429.375 288.1992,429.1602 Q287.8867,428.9453 287.75,428.3789 Q287.6914,427.9883 287.4766,427.7734 Q287.0859,427.3633 286.3828,427.1289 Q285.6797,426.875 284.9766,426.875 Q284.0977,426.875 283.3555,427.2266 Q282.6328,427.5781 282.0664,428.3594 Q281.5,429.1406 281.5,430.2148 L281.5,431.3672 Q281.5,432.6563 282.5547,433.5156 Q283.6094,434.375 285.4844,434.375 Q286.5977,434.375 287.3789,434.1211 Q287.8281,433.9844 288.3359,433.5352 Q288.668,433.2813 288.8438,433.2031 Q289.0195,433.125 289.2344,433.125 Q289.6445,433.125 289.9375,433.457 Q290.25,433.7695 290.25,434.2188 Q290.25,434.6484 289.8203,435.1563 Q289.1953,435.8984 288.1992,436.3086 Q286.8906,436.875 285.2891,436.875 Q283.4141,436.875 281.9102,436.1328 Q280.6992,435.5469 279.8398,434.2773 Q279,433.0078 279,431.5039 L279,430.1367 Q279,428.5742 279.7422,427.207 Q280.5039,425.8398 281.8125,425.1172 Q283.1406,424.375 284.625,424.375 Q285.5234,424.375 286.3047,424.6875 Q287.0859,425 287.75,425.625 Z " fill="#000000"/><text fill="#000000" font-family="sans-serif" font-size="15" lengthAdjust="spacing" textLength="66.25" x="304.75" y="436.1377">Company</text><line style="stroke:#A80036;stroke-width:1.875;" x1="258.75" x2="382.5" y1="450" y2="450"/><rect fill="none" height="7.5" style="stroke:#C82930;stroke-width:1.25;" width="7.5" x="267.5" y="460"/><text fill="#000000" font-family="sans-serif" font-size="13.75" lengthAdjust="spacing" textLength="68.75" x="282.5" y="469.2737">designation</text><line style="stroke:#A80036;stroke-width:1.875;" x1="258.75" x2="382.5" y1="477.2949" y2="477.2949"/><ellipse cx="271.25" cy="491.0449" fill="#84BE84" rx="3.75" ry="3.75" style="stroke:#038048;stroke-width:1.25;"/><text fill="#000000" font-family="sans-serif" font-size="13.75" lengthAdjust="spacing" textLength="93.75" x="282.5" y="496.5686">getClientStore()</text><!--MD5=[687111ccfaf99ad2b4af2cb6ec7c79c8]
class Sortable--><rect codeLine="29" fill="#FEFECE" filter="url(#f1s45znk0fudz)" height="94.5898" id="Sortable" style="stroke:#A80036;stroke-width:1.875;" width="168.75" x="453.75" y="863.75"/><ellipse cx="504" cy="883.75" fill="#B4A7E5" rx="13.75" ry="13.75" style="stroke:#A80036;stroke-width:1.25;"/><path d="M505.25,880 L505.25,887.5 L507.75,887.5 L508.3555,887.5 L509,888.2813 L509,888.75 L509,889.2188 L508.3555,890 L507.75,890 L500.25,890 L499.6445,890 L499,889.2188 L499,888.75 L499,888.2813 L499.6445,887.5 L500.25,887.5 L502.75,887.5 L502.75,880 L500.25,880 L499.6445,880 L499,879.2188 L499,878.75 L499,878.2813 L499.6445,877.5 L500.25,877.5 L507.75,877.5 L508.3555,877.5 L509,878.2813 L509,878.75 L509,879.2188 L508.3555,880 L507.75,880 L505.25,880 Z " fill="#000000"/><text fill="#000000" font-family="sans-serif" font-size="15" font-style="italic" lengthAdjust="spacing" textLength="58.75" x="528.5" y="889.8877">Sortable</text><line style="stroke:#A80036;stroke-width:1.875;" x1="455" x2="621.25" y1="903.75" y2="903.75"/><line style="stroke:#A80036;stroke-width:1.875;" x1="455" x2="621.25" y1="913.75" y2="913.75"/><ellipse cx="467.5" cy="927.5" fill="#84BE84" rx="3.75" ry="3.75" style="stroke:#038048;stroke-width:1.25;"/><text fill="#000000" font-family="sans-serif" font-size="13.75" lengthAdjust="spacing" textLength="120" x="478.75" y="933.0237">sortByTin(clientList)</text><ellipse cx="467.5" cy="944.7949" fill="#84BE84" rx="3.75" ry="3.75" style="stroke:#038048;stroke-width:1.25;"/><text fill="#000000" font-family="sans-serif" font-size="13.75" lengthAdjust="spacing" textLength="136.25" x="478.75" y="950.3186">sortByName(clientList)</text><!--MD5=[55cb992be19579b505cea3c5691093cb]
class ClientStore--><rect codeLine="34" fill="#FEFECE" filter="url(#f1s45znk0fudz)" height="94.5898" id="ClientStore" style="stroke:#A80036;stroke-width:1.875;" width="170" x="284.375" y="602.5"/><ellipse cx="327.3125" cy="622.5" fill="#ADD1B2" rx="13.75" ry="13.75" style="stroke:#A80036;stroke-width:1.25;"/><path d="M329.8125,618.125 Q330.0664,617.5 330.3594,617.1875 Q330.6523,616.875 330.9844,616.875 Q331.5703,616.875 331.9414,617.2266 Q332.3125,617.5781 332.3125,618.3984 L332.3125,620.3516 Q332.3125,621.1719 331.9609,621.5234 Q331.6094,621.875 331.0625,621.875 Q330.5742,621.875 330.2617,621.6602 Q329.9492,621.4453 329.8125,620.8789 Q329.7539,620.4883 329.5391,620.2734 Q329.1484,619.8633 328.4453,619.6289 Q327.7422,619.375 327.0391,619.375 Q326.1602,619.375 325.418,619.7266 Q324.6953,620.0781 324.1289,620.8594 Q323.5625,621.6406 323.5625,622.7148 L323.5625,623.8672 Q323.5625,625.1563 324.6172,626.0156 Q325.6719,626.875 327.5469,626.875 Q328.6602,626.875 329.4414,626.6211 Q329.8906,626.4844 330.3984,626.0352 Q330.7305,625.7813 330.9063,625.7031 Q331.082,625.625 331.2969,625.625 Q331.707,625.625 332,625.957 Q332.3125,626.2695 332.3125,626.7188 Q332.3125,627.1484 331.8828,627.6563 Q331.2578,628.3984 330.2617,628.8086 Q328.9531,629.375 327.3516,629.375 Q325.4766,629.375 323.9727,628.6328 Q322.7617,628.0469 321.9023,626.7773 Q321.0625,625.5078 321.0625,624.0039 L321.0625,622.6367 Q321.0625,621.0742 321.8047,619.707 Q322.5664,618.3398 323.875,617.6172 Q325.2031,616.875 326.6875,616.875 Q327.5859,616.875 328.3672,617.1875 Q329.1484,617.5 329.8125,618.125 Z " fill="#000000"/><text fill="#000000" font-family="sans-serif" font-size="15" lengthAdjust="spacing" textLength="76.25" x="350.1875" y="628.6377">ClientStore</text><line style="stroke:#A80036;stroke-width:1.875;" x1="285.625" x2="453.125" y1="642.5" y2="642.5"/><line style="stroke:#A80036;stroke-width:1.875;" x1="285.625" x2="453.125" y1="652.5" y2="652.5"/><ellipse cx="298.125" cy="666.25" fill="#84BE84" rx="3.75" ry="3.75" style="stroke:#038048;stroke-width:1.25;"/><text fill="#000000" font-family="sans-serif" font-size="13.75" lengthAdjust="spacing" textLength="137.5" x="309.375" y="671.7737">getClientByEmail(email)</text><ellipse cx="298.125" cy="683.5449" fill="#84BE84" rx="3.75" ry="3.75" style="stroke:#038048;stroke-width:1.25;"/><text fill="#000000" font-family="sans-serif" font-size="13.75" lengthAdjust="spacing" textLength="82.5" x="309.375" y="689.0686">getClientList()</text><!--MD5=[d9af5e34e5bc78cd5a2caff02363fedd]
class ClientMapper--><rect codeLine="39" fill="#FEFECE" filter="url(#f1s45znk0fudz)" height="77.2949" id="ClientMapper" style="stroke:#A80036;stroke-width:1.875;" width="147.5" x="676.875" y="8.75"/><ellipse cx="702.9375" cy="28.75" fill="#ADD1B2" rx="13.75" ry="13.75" style="stroke:#A80036;stroke-width:1.25;"/><path d="M705.4375,24.375 Q705.6914,23.75 705.9844,23.4375 Q706.2773,23.125 706.6094,23.125 Q707.1953,23.125 707.5664,23.4766 Q707.9375,23.8281 707.9375,24.6484 L707.9375,26.6016 Q707.9375,27.4219 707.5859,27.7734 Q707.2344,28.125 706.6875,28.125 Q706.1992,28.125 705.8867,27.9102 Q705.5742,27.6953 705.4375,27.1289 Q705.3789,26.7383 705.1641,26.5234 Q704.7734,26.1133 704.0703,25.8789 Q703.3672,25.625 702.6641,25.625 Q701.7852,25.625 701.043,25.9766 Q700.3203,26.3281 699.7539,27.1094 Q699.1875,27.8906 699.1875,28.9648 L699.1875,30.1172 Q699.1875,31.4063 700.2422,32.2656 Q701.2969,33.125 703.1719,33.125 Q704.2852,33.125 705.0664,32.8711 Q705.5156,32.7344 706.0234,32.2852 Q706.3555,32.0313 706.5313,31.9531 Q706.707,31.875 706.9219,31.875 Q707.332,31.875 707.625,32.207 Q707.9375,32.5195 707.9375,32.9688 Q707.9375,33.3984 707.5078,33.9063 Q706.8828,34.6484 705.8867,35.0586 Q704.5781,35.625 702.9766,35.625 Q701.1016,35.625 699.5977,34.8828 Q698.3867,34.2969 697.5273,33.0273 Q696.6875,31.7578 696.6875,30.2539 L696.6875,28.8867 Q696.6875,27.3242 697.4297,25.957 Q698.1914,24.5898 699.5,23.8672 Q700.8281,23.125 702.3125,23.125 Q703.2109,23.125 703.9922,23.4375 Q704.7734,23.75 705.4375,24.375 Z " fill="#000000"/><text fill="#000000" font-family="sans-serif" font-size="15" lengthAdjust="spacing" textLength="91.25" x="722.0625" y="34.8877">ClientMapper</text><line style="stroke:#A80036;stroke-width:1.875;" x1="678.125" x2="823.125" y1="48.75" y2="48.75"/><line style="stroke:#A80036;stroke-width:1.875;" x1="678.125" x2="823.125" y1="58.75" y2="58.75"/><ellipse cx="690.625" cy="72.5" fill="#84BE84" rx="3.75" ry="3.75" style="stroke:#038048;stroke-width:1.25;"/><text fill="#000000" font-family="sans-serif" font-size="13.75" lengthAdjust="spacing" textLength="115" x="701.875" y="78.0237">toDtoList(clientList)</text><!--MD5=[d92da6d3e9b1e9631354e1a6db35e891]
class ClientDTO--><rect codeLine="43" fill="#FEFECE" filter="url(#f1s45znk0fudz)" height="60" id="ClientDTO" style="stroke:#A80036;stroke-width:1.875;" width="111.25" x="695" y="188.75"/><ellipse cx="713.75" cy="208.75" fill="#ADD1B2" rx="13.75" ry="13.75" style="stroke:#A80036;stroke-width:1.25;"/><path d="M716.25,204.375 Q716.5039,203.75 716.7969,203.4375 Q717.0898,203.125 717.4219,203.125 Q718.0078,203.125 718.3789,203.4766 Q718.75,203.8281 718.75,204.6484 L718.75,206.6016 Q718.75,207.4219 718.3984,207.7734 Q718.0469,208.125 717.5,208.125 Q717.0117,208.125 716.6992,207.9102 Q716.3867,207.6953 716.25,207.1289 Q716.1914,206.7383 715.9766,206.5234 Q715.5859,206.1133 714.8828,205.8789 Q714.1797,205.625 713.4766,205.625 Q712.5977,205.625 711.8555,205.9766 Q711.1328,206.3281 710.5664,207.1094 Q710,207.8906 710,208.9648 L710,210.1172 Q710,211.4063 711.0547,212.2656 Q712.1094,213.125 713.9844,213.125 Q715.0977,213.125 715.8789,212.8711 Q716.3281,212.7344 716.8359,212.2852 Q717.168,212.0313 717.3438,211.9531 Q717.5195,211.875 717.7344,211.875 Q718.1445,211.875 718.4375,212.207 Q718.75,212.5195 718.75,212.9688 Q718.75,213.3984 718.3203,213.9063 Q717.6953,214.6484 716.6992,215.0586 Q715.3906,215.625 713.7891,215.625 Q711.9141,215.625 710.4102,214.8828 Q709.1992,214.2969 708.3398,213.0273 Q707.5,211.7578 707.5,210.2539 L707.5,208.8867 Q707.5,207.3242 708.2422,205.957 Q709.0039,204.5898 710.3125,203.8672 Q711.6406,203.125 713.125,203.125 Q714.0234,203.125 714.8047,203.4375 Q715.5859,203.75 716.25,204.375 Z " fill="#000000"/><text fill="#000000" font-family="sans-serif" font-size="15" lengthAdjust="spacing" textLength="71.25" x="731.25" y="214.8877">ClientDTO</text><line style="stroke:#A80036;stroke-width:1.875;" x1="696.25" x2="805" y1="228.75" y2="228.75"/><line style="stroke:#A80036;stroke-width:1.875;" x1="696.25" x2="805" y1="238.75" y2="238.75"/><!--MD5=[fa55af956531f700b1f6f664510affc2]
class ShowTestResultsUI--><rect codeLine="45" fill="#FEFECE" filter="url(#f1s45znk0fudz)" height="60" id="ShowTestResultsUI" style="stroke:#A80036;stroke-width:1.875;" width="177.5" x="55.625" y="17.5"/><ellipse cx="74.375" cy="37.5" fill="#ADD1B2" rx="13.75" ry="13.75" style="stroke:#A80036;stroke-width:1.25;"/><path d="M76.875,33.125 Q77.1289,32.5 77.4219,32.1875 Q77.7148,31.875 78.0469,31.875 Q78.6328,31.875 79.0039,32.2266 Q79.375,32.5781 79.375,33.3984 L79.375,35.3516 Q79.375,36.1719 79.0234,36.5234 Q78.6719,36.875 78.125,36.875 Q77.6367,36.875 77.3242,36.6602 Q77.0117,36.4453 76.875,35.8789 Q76.8164,35.4883 76.6016,35.2734 Q76.2109,34.8633 75.5078,34.6289 Q74.8047,34.375 74.1016,34.375 Q73.2227,34.375 72.4805,34.7266 Q71.7578,35.0781 71.1914,35.8594 Q70.625,36.6406 70.625,37.7148 L70.625,38.8672 Q70.625,40.1563 71.6797,41.0156 Q72.7344,41.875 74.6094,41.875 Q75.7227,41.875 76.5039,41.6211 Q76.9531,41.4844 77.4609,41.0352 Q77.793,40.7813 77.9688,40.7031 Q78.1445,40.625 78.3594,40.625 Q78.7695,40.625 79.0625,40.957 Q79.375,41.2695 79.375,41.7188 Q79.375,42.1484 78.9453,42.6563 Q78.3203,43.3984 77.3242,43.8086 Q76.0156,44.375 74.4141,44.375 Q72.5391,44.375 71.0352,43.6328 Q69.8242,43.0469 68.9648,41.7773 Q68.125,40.5078 68.125,39.0039 L68.125,37.6367 Q68.125,36.0742 68.8672,34.707 Q69.6289,33.3398 70.9375,32.6172 Q72.2656,31.875 73.75,31.875 Q74.6484,31.875 75.4297,32.1875 Q76.2109,32.5 76.875,33.125 Z " fill="#000000"/><text fill="#000000" font-family="sans-serif" font-size="15" lengthAdjust="spacing" textLength="137.5" x="91.875" y="43.6377">ShowTestResultsUI</text><line style="stroke:#A80036;stroke-width:1.875;" x1="56.875" x2="231.875" y1="57.5" y2="57.5"/><line style="stroke:#A80036;stroke-width:1.875;" x1="56.875" x2="231.875" y1="67.5" y2="67.5"/><!--MD5=[fed1f8060d293b6d7695ca94391604a1]
class ShowTestResultsController--><rect codeLine="47" fill="#FEFECE" filter="url(#f1s45znk0fudz)" height="60" id="ShowTestResultsController" style="stroke:#A80036;stroke-width:1.875;" width="230" x="151.875" y="188.75"/><ellipse cx="170.625" cy="208.75" fill="#ADD1B2" rx="13.75" ry="13.75" style="stroke:#A80036;stroke-width:1.25;"/><path d="M173.125,204.375 Q173.3789,203.75 173.6719,203.4375 Q173.9648,203.125 174.2969,203.125 Q174.8828,203.125 175.2539,203.4766 Q175.625,203.8281 175.625,204.6484 L175.625,206.6016 Q175.625,207.4219 175.2734,207.7734 Q174.9219,208.125 174.375,208.125 Q173.8867,208.125 173.5742,207.9102 Q173.2617,207.6953 173.125,207.1289 Q173.0664,206.7383 172.8516,206.5234 Q172.4609,206.1133 171.7578,205.8789 Q171.0547,205.625 170.3516,205.625 Q169.4727,205.625 168.7305,205.9766 Q168.0078,206.3281 167.4414,207.1094 Q166.875,207.8906 166.875,208.9648 L166.875,210.1172 Q166.875,211.4063 167.9297,212.2656 Q168.9844,213.125 170.8594,213.125 Q171.9727,213.125 172.7539,212.8711 Q173.2031,212.7344 173.7109,212.2852 Q174.043,212.0313 174.2188,211.9531 Q174.3945,211.875 174.6094,211.875 Q175.0195,211.875 175.3125,212.207 Q175.625,212.5195 175.625,212.9688 Q175.625,213.3984 175.1953,213.9063 Q174.5703,214.6484 173.5742,215.0586 Q172.2656,215.625 170.6641,215.625 Q168.7891,215.625 167.2852,214.8828 Q166.0742,214.2969 165.2148,213.0273 Q164.375,211.7578 164.375,210.2539 L164.375,208.8867 Q164.375,207.3242 165.1172,205.957 Q165.8789,204.5898 167.1875,203.8672 Q168.5156,203.125 170,203.125 Q170.8984,203.125 171.6797,203.4375 Q172.4609,203.75 173.125,204.375 Z " fill="#000000"/><text fill="#000000" font-family="sans-serif" font-size="15" lengthAdjust="spacing" textLength="190" x="188.125" y="214.8877">ShowTestResultsController</text><line style="stroke:#A80036;stroke-width:1.875;" x1="153.125" x2="380.625" y1="228.75" y2="228.75"/><line style="stroke:#A80036;stroke-width:1.875;" x1="153.125" x2="380.625" y1="238.75" y2="238.75"/><!--MD5=[0f6f7964b844a64b0496af0dda7914bd]
class TestStore--><rect codeLine="49" fill="#FEFECE" filter="url(#f1s45znk0fudz)" height="94.5898" id="TestStore" style="stroke:#A80036;stroke-width:1.875;" width="231.25" x="8.75" y="602.5"/><ellipse cx="85.9375" cy="622.5" fill="#ADD1B2" rx="13.75" ry="13.75" style="stroke:#A80036;stroke-width:1.25;"/><path d="M88.4375,618.125 Q88.6914,617.5 88.9844,617.1875 Q89.2773,616.875 89.6094,616.875 Q90.1953,616.875 90.5664,617.2266 Q90.9375,617.5781 90.9375,618.3984 L90.9375,620.3516 Q90.9375,621.1719 90.5859,621.5234 Q90.2344,621.875 89.6875,621.875 Q89.1992,621.875 88.8867,621.6602 Q88.5742,621.4453 88.4375,620.8789 Q88.3789,620.4883 88.1641,620.2734 Q87.7734,619.8633 87.0703,619.6289 Q86.3672,619.375 85.6641,619.375 Q84.7852,619.375 84.043,619.7266 Q83.3203,620.0781 82.7539,620.8594 Q82.1875,621.6406 82.1875,622.7148 L82.1875,623.8672 Q82.1875,625.1563 83.2422,626.0156 Q84.2969,626.875 86.1719,626.875 Q87.2852,626.875 88.0664,626.6211 Q88.5156,626.4844 89.0234,626.0352 Q89.3555,625.7813 89.5313,625.7031 Q89.707,625.625 89.9219,625.625 Q90.332,625.625 90.625,625.957 Q90.9375,626.2695 90.9375,626.7188 Q90.9375,627.1484 90.5078,627.6563 Q89.8828,628.3984 88.8867,628.8086 Q87.5781,629.375 85.9766,629.375 Q84.1016,629.375 82.5977,628.6328 Q81.3867,628.0469 80.5273,626.7773 Q79.6875,625.5078 79.6875,624.0039 L79.6875,622.6367 Q79.6875,621.0742 80.4297,619.707 Q81.1914,618.3398 82.5,617.6172 Q83.8281,616.875 85.3125,616.875 Q86.2109,616.875 86.9922,617.1875 Q87.7734,617.5 88.4375,618.125 Z " fill="#000000"/><text fill="#000000" font-family="sans-serif" font-size="15" lengthAdjust="spacing" textLength="66.25" x="111.5625" y="628.6377">TestStore</text><line style="stroke:#A80036;stroke-width:1.875;" x1="10" x2="238.75" y1="642.5" y2="642.5"/><line style="stroke:#A80036;stroke-width:1.875;" x1="10" x2="238.75" y1="652.5" y2="652.5"/><ellipse cx="22.5" cy="666.25" fill="#84BE84" rx="3.75" ry="3.75" style="stroke:#038048;stroke-width:1.25;"/><text fill="#000000" font-family="sans-serif" font-size="13.75" lengthAdjust="spacing" textLength="198.75" x="33.75" y="671.7737">getValidatedTestsByClient(client)</text><ellipse cx="22.5" cy="683.5449" fill="#84BE84" rx="3.75" ry="3.75" style="stroke:#038048;stroke-width:1.25;"/><text fill="#000000" font-family="sans-serif" font-size="13.75" lengthAdjust="spacing" textLength="156.25" x="33.75" y="689.0686">getTestByCode(testCode)</text><!--MD5=[df38be88ccee13e832d6fafd6288a4ca]
class Test--><rect codeLine="54" fill="#FEFECE" filter="url(#f1s45znk0fudz)" height="232.9492" id="Test" style="stroke:#A80036;stroke-width:1.875;" width="170" x="39.375" y="795"/><ellipse cx="104.0625" cy="815" fill="#ADD1B2" rx="13.75" ry="13.75" style="stroke:#A80036;stroke-width:1.25;"/><path d="M106.5625,810.625 Q106.8164,810 107.1094,809.6875 Q107.4023,809.375 107.7344,809.375 Q108.3203,809.375 108.6914,809.7266 Q109.0625,810.0781 109.0625,810.8984 L109.0625,812.8516 Q109.0625,813.6719 108.7109,814.0234 Q108.3594,814.375 107.8125,814.375 Q107.3242,814.375 107.0117,814.1602 Q106.6992,813.9453 106.5625,813.3789 Q106.5039,812.9883 106.2891,812.7734 Q105.8984,812.3633 105.1953,812.1289 Q104.4922,811.875 103.7891,811.875 Q102.9102,811.875 102.168,812.2266 Q101.4453,812.5781 100.8789,813.3594 Q100.3125,814.1406 100.3125,815.2148 L100.3125,816.3672 Q100.3125,817.6563 101.3672,818.5156 Q102.4219,819.375 104.2969,819.375 Q105.4102,819.375 106.1914,819.1211 Q106.6406,818.9844 107.1484,818.5352 Q107.4805,818.2813 107.6563,818.2031 Q107.832,818.125 108.0469,818.125 Q108.457,818.125 108.75,818.457 Q109.0625,818.7695 109.0625,819.2188 Q109.0625,819.6484 108.6328,820.1563 Q108.0078,820.8984 107.0117,821.3086 Q105.7031,821.875 104.1016,821.875 Q102.2266,821.875 100.7227,821.1328 Q99.5117,820.5469 98.6523,819.2773 Q97.8125,818.0078 97.8125,816.5039 L97.8125,815.1367 Q97.8125,813.5742 98.5547,812.207 Q99.3164,810.8398 100.625,810.1172 Q101.9531,809.375 103.4375,809.375 Q104.3359,809.375 105.1172,809.6875 Q105.8984,810 106.5625,810.625 Z " fill="#000000"/><text fill="#000000" font-family="sans-serif" font-size="15" lengthAdjust="spacing" textLength="30" x="129.6875" y="821.1377">Test</text><line style="stroke:#A80036;stroke-width:1.875;" x1="40.625" x2="208.125" y1="835" y2="835"/><rect fill="none" height="7.5" style="stroke:#C82930;stroke-width:1.25;" width="7.5" x="49.375" y="845"/><text fill="#000000" font-family="sans-serif" font-size="13.75" lengthAdjust="spacing" textLength="53.75" x="64.375" y="854.2737">testCode</text><rect fill="none" height="7.5" style="stroke:#C82930;stroke-width:1.25;" width="7.5" x="49.375" y="862.2949"/><text fill="#000000" font-family="sans-serif" font-size="13.75" lengthAdjust="spacing" textLength="53.75" x="64.375" y="871.5686">nhsCode</text><rect fill="none" height="7.5" style="stroke:#C82930;stroke-width:1.25;" width="7.5" x="49.375" y="879.5898"/><text fill="#000000" font-family="sans-serif" font-size="13.75" lengthAdjust="spacing" textLength="91.25" x="64.375" y="888.8635">dateOfCreation</text><rect fill="none" height="7.5" style="stroke:#C82930;stroke-width:1.25;" width="7.5" x="49.375" y="896.8848"/><text fill="#000000" font-family="sans-serif" font-size="13.75" lengthAdjust="spacing" textLength="66.25" x="64.375" y="906.1584">dateReport</text><rect fill="none" height="7.5" style="stroke:#C82930;stroke-width:1.25;" width="7.5" x="49.375" y="914.1797"/><text fill="#000000" font-family="sans-serif" font-size="13.75" lengthAdjust="spacing" textLength="63.75" x="64.375" y="923.4534">timeReport</text><rect fill="none" height="7.5" style="stroke:#C82930;stroke-width:1.25;" width="7.5" x="49.375" y="931.4746"/><text fill="#000000" font-family="sans-serif" font-size="13.75" lengthAdjust="spacing" textLength="71.25" x="64.375" y="940.7483">dateResults</text><rect fill="none" height="7.5" style="stroke:#C82930;stroke-width:1.25;" width="7.5" x="49.375" y="948.7695"/><text fill="#000000" font-family="sans-serif" font-size="13.75" lengthAdjust="spacing" textLength="68.75" x="64.375" y="958.0432">timeResults</text><rect fill="none" height="7.5" style="stroke:#C82930;stroke-width:1.25;" width="7.5" x="49.375" y="966.0645"/><text fill="#000000" font-family="sans-serif" font-size="13.75" lengthAdjust="spacing" textLength="85" x="64.375" y="975.3381">dateValidation</text><rect fill="none" height="7.5" style="stroke:#C82930;stroke-width:1.25;" width="7.5" x="49.375" y="983.3594"/><text fill="#000000" font-family="sans-serif" font-size="13.75" lengthAdjust="spacing" textLength="82.5" x="64.375" y="992.6331">timeValidation</text><line style="stroke:#A80036;stroke-width:1.875;" x1="40.625" x2="208.125" y1="1000.6543" y2="1000.6543"/><ellipse cx="53.125" cy="1014.4043" fill="#84BE84" rx="3.75" ry="3.75" style="stroke:#038048;stroke-width:1.25;"/><text fill="#000000" font-family="sans-serif" font-size="13.75" lengthAdjust="spacing" textLength="137.5" x="64.375" y="1019.928">getTestParamResults()</text><!--MD5=[144698ec4d0188f6929a3b58a3eeb1f6]
class TestMapper--><rect codeLine="67" fill="#FEFECE" filter="url(#f1s45znk0fudz)" height="77.2949" id="TestMapper" style="stroke:#A80036;stroke-width:1.875;" width="125" x="85.625" y="418.75"/><ellipse cx="106.0625" cy="438.75" fill="#ADD1B2" rx="13.75" ry="13.75" style="stroke:#A80036;stroke-width:1.25;"/><path d="M108.5625,434.375 Q108.8164,433.75 109.1094,433.4375 Q109.4023,433.125 109.7344,433.125 Q110.3203,433.125 110.6914,433.4766 Q111.0625,433.8281 111.0625,434.6484 L111.0625,436.6016 Q111.0625,437.4219 110.7109,437.7734 Q110.3594,438.125 109.8125,438.125 Q109.3242,438.125 109.0117,437.9102 Q108.6992,437.6953 108.5625,437.1289 Q108.5039,436.7383 108.2891,436.5234 Q107.8984,436.1133 107.1953,435.8789 Q106.4922,435.625 105.7891,435.625 Q104.9102,435.625 104.168,435.9766 Q103.4453,436.3281 102.8789,437.1094 Q102.3125,437.8906 102.3125,438.9648 L102.3125,440.1172 Q102.3125,441.4063 103.3672,442.2656 Q104.4219,443.125 106.2969,443.125 Q107.4102,443.125 108.1914,442.8711 Q108.6406,442.7344 109.1484,442.2852 Q109.4805,442.0313 109.6563,441.9531 Q109.832,441.875 110.0469,441.875 Q110.457,441.875 110.75,442.207 Q111.0625,442.5195 111.0625,442.9688 Q111.0625,443.3984 110.6328,443.9063 Q110.0078,444.6484 109.0117,445.0586 Q107.7031,445.625 106.1016,445.625 Q104.2266,445.625 102.7227,444.8828 Q101.5117,444.2969 100.6523,443.0273 Q99.8125,441.7578 99.8125,440.2539 L99.8125,438.8867 Q99.8125,437.3242 100.5547,435.957 Q101.3164,434.5898 102.625,433.8672 Q103.9531,433.125 105.4375,433.125 Q106.3359,433.125 107.1172,433.4375 Q107.8984,433.75 108.5625,434.375 Z " fill="#000000"/><text fill="#000000" font-family="sans-serif" font-size="15" lengthAdjust="spacing" textLength="81.25" x="123.9375" y="444.8877">TestMapper</text><line style="stroke:#A80036;stroke-width:1.875;" x1="86.875" x2="209.375" y1="458.75" y2="458.75"/><line style="stroke:#A80036;stroke-width:1.875;" x1="86.875" x2="209.375" y1="468.75" y2="468.75"/><ellipse cx="99.375" cy="482.5" fill="#84BE84" rx="3.75" ry="3.75" style="stroke:#038048;stroke-width:1.25;"/><text fill="#000000" font-family="sans-serif" font-size="13.75" lengthAdjust="spacing" textLength="92.5" x="110.625" y="488.0237">toDtoList(tests)</text><!--MD5=[e1b684d3962829f7d15065466104158d]
class TestParamList--><rect codeLine="71" fill="#FEFECE" filter="url(#f1s45znk0fudz)" height="77.2949" id="TestParamList" style="stroke:#A80036;stroke-width:1.875;" width="170" x="39.375" y="1125"/><ellipse cx="71.0625" cy="1145" fill="#ADD1B2" rx="13.75" ry="13.75" style="stroke:#A80036;stroke-width:1.25;"/><path d="M73.5625,1140.625 Q73.8164,1140 74.1094,1139.6875 Q74.4023,1139.375 74.7344,1139.375 Q75.3203,1139.375 75.6914,1139.7266 Q76.0625,1140.0781 76.0625,1140.8984 L76.0625,1142.8516 Q76.0625,1143.6719 75.7109,1144.0234 Q75.3594,1144.375 74.8125,1144.375 Q74.3242,1144.375 74.0117,1144.1602 Q73.6992,1143.9453 73.5625,1143.3789 Q73.5039,1142.9883 73.2891,1142.7734 Q72.8984,1142.3633 72.1953,1142.1289 Q71.4922,1141.875 70.7891,1141.875 Q69.9102,1141.875 69.168,1142.2266 Q68.4453,1142.5781 67.8789,1143.3594 Q67.3125,1144.1406 67.3125,1145.2148 L67.3125,1146.3672 Q67.3125,1147.6563 68.3672,1148.5156 Q69.4219,1149.375 71.2969,1149.375 Q72.4102,1149.375 73.1914,1149.1211 Q73.6406,1148.9844 74.1484,1148.5352 Q74.4805,1148.2813 74.6563,1148.2031 Q74.832,1148.125 75.0469,1148.125 Q75.457,1148.125 75.75,1148.457 Q76.0625,1148.7695 76.0625,1149.2188 Q76.0625,1149.6484 75.6328,1150.1563 Q75.0078,1150.8984 74.0117,1151.3086 Q72.7031,1151.875 71.1016,1151.875 Q69.2266,1151.875 67.7227,1151.1328 Q66.5117,1150.5469 65.6523,1149.2773 Q64.8125,1148.0078 64.8125,1146.5039 L64.8125,1145.1367 Q64.8125,1143.5742 65.5547,1142.207 Q66.3164,1140.8398 67.625,1140.1172 Q68.9531,1139.375 70.4375,1139.375 Q71.3359,1139.375 72.1172,1139.6875 Q72.8984,1140 73.5625,1140.625 Z " fill="#000000"/><text fill="#000000" font-family="sans-serif" font-size="15" lengthAdjust="spacing" textLength="101.25" x="91.4375" y="1151.1377">TestParamList</text><line style="stroke:#A80036;stroke-width:1.875;" x1="40.625" x2="208.125" y1="1165" y2="1165"/><line style="stroke:#A80036;stroke-width:1.875;" x1="40.625" x2="208.125" y1="1175" y2="1175"/><ellipse cx="53.125" cy="1188.75" fill="#84BE84" rx="3.75" ry="3.75" style="stroke:#038048;stroke-width:1.25;"/><text fill="#000000" font-family="sans-serif" font-size="13.75" lengthAdjust="spacing" textLength="137.5" x="64.375" y="1194.2737">getTestParamResults()</text><!--MD5=[0f07739f46effee96e095e9c408da841]
class TestParameter--><rect codeLine="75" fill="#FEFECE" filter="url(#f1s45znk0fudz)" height="77.2949" id="TestParameter" style="stroke:#A80036;stroke-width:1.875;" width="162.5" x="43.125" y="1300"/><ellipse cx="70.875" cy="1320" fill="#ADD1B2" rx="13.75" ry="13.75" style="stroke:#A80036;stroke-width:1.25;"/><path d="M73.375,1315.625 Q73.6289,1315 73.9219,1314.6875 Q74.2148,1314.375 74.5469,1314.375 Q75.1328,1314.375 75.5039,1314.7266 Q75.875,1315.0781 75.875,1315.8984 L75.875,1317.8516 Q75.875,1318.6719 75.5234,1319.0234 Q75.1719,1319.375 74.625,1319.375 Q74.1367,1319.375 73.8242,1319.1602 Q73.5117,1318.9453 73.375,1318.3789 Q73.3164,1317.9883 73.1016,1317.7734 Q72.7109,1317.3633 72.0078,1317.1289 Q71.3047,1316.875 70.6016,1316.875 Q69.7227,1316.875 68.9805,1317.2266 Q68.2578,1317.5781 67.6914,1318.3594 Q67.125,1319.1406 67.125,1320.2148 L67.125,1321.3672 Q67.125,1322.6563 68.1797,1323.5156 Q69.2344,1324.375 71.1094,1324.375 Q72.2227,1324.375 73.0039,1324.1211 Q73.4531,1323.9844 73.9609,1323.5352 Q74.293,1323.2813 74.4688,1323.2031 Q74.6445,1323.125 74.8594,1323.125 Q75.2695,1323.125 75.5625,1323.457 Q75.875,1323.7695 75.875,1324.2188 Q75.875,1324.6484 75.4453,1325.1563 Q74.8203,1325.8984 73.8242,1326.3086 Q72.5156,1326.875 70.9141,1326.875 Q69.0391,1326.875 67.5352,1326.1328 Q66.3242,1325.5469 65.4648,1324.2773 Q64.625,1323.0078 64.625,1321.5039 L64.625,1320.1367 Q64.625,1318.5742 65.3672,1317.207 Q66.1289,1315.8398 67.4375,1315.1172 Q68.7656,1314.375 70.25,1314.375 Q71.1484,1314.375 71.9297,1314.6875 Q72.7109,1315 73.375,1315.625 Z " fill="#000000"/><text fill="#000000" font-family="sans-serif" font-size="15" lengthAdjust="spacing" textLength="102.5" x="90.375" y="1326.1377">TestParameter</text><line style="stroke:#A80036;stroke-width:1.875;" x1="44.375" x2="204.375" y1="1340" y2="1340"/><line style="stroke:#A80036;stroke-width:1.875;" x1="44.375" x2="204.375" y1="1350" y2="1350"/><ellipse cx="56.875" cy="1363.75" fill="#84BE84" rx="3.75" ry="3.75" style="stroke:#038048;stroke-width:1.25;"/><text fill="#000000" font-family="sans-serif" font-size="13.75" lengthAdjust="spacing" textLength="130" x="68.125" y="1369.2737">getTestParamResult()</text><!--MD5=[4e608140b854dae633589343bce77383]
class TestParameterResult--><rect codeLine="79" fill="#FEFECE" filter="url(#f1s45znk0fudz)" height="111.8848" id="TestParameterResult" style="stroke:#A80036;stroke-width:1.875;" width="187.5" x="30.625" y="1475"/><ellipse cx="49.375" cy="1495" fill="#ADD1B2" rx="13.75" ry="13.75" style="stroke:#A80036;stroke-width:1.25;"/><path d="M51.875,1490.625 Q52.1289,1490 52.4219,1489.6875 Q52.7148,1489.375 53.0469,1489.375 Q53.6328,1489.375 54.0039,1489.7266 Q54.375,1490.0781 54.375,1490.8984 L54.375,1492.8516 Q54.375,1493.6719 54.0234,1494.0234 Q53.6719,1494.375 53.125,1494.375 Q52.6367,1494.375 52.3242,1494.1602 Q52.0117,1493.9453 51.875,1493.3789 Q51.8164,1492.9883 51.6016,1492.7734 Q51.2109,1492.3633 50.5078,1492.1289 Q49.8047,1491.875 49.1016,1491.875 Q48.2227,1491.875 47.4805,1492.2266 Q46.7578,1492.5781 46.1914,1493.3594 Q45.625,1494.1406 45.625,1495.2148 L45.625,1496.3672 Q45.625,1497.6563 46.6797,1498.5156 Q47.7344,1499.375 49.6094,1499.375 Q50.7227,1499.375 51.5039,1499.1211 Q51.9531,1498.9844 52.4609,1498.5352 Q52.793,1498.2813 52.9688,1498.2031 Q53.1445,1498.125 53.3594,1498.125 Q53.7695,1498.125 54.0625,1498.457 Q54.375,1498.7695 54.375,1499.2188 Q54.375,1499.6484 53.9453,1500.1563 Q53.3203,1500.8984 52.3242,1501.3086 Q51.0156,1501.875 49.4141,1501.875 Q47.5391,1501.875 46.0352,1501.1328 Q44.8242,1500.5469 43.9648,1499.2773 Q43.125,1498.0078 43.125,1496.5039 L43.125,1495.1367 Q43.125,1493.5742 43.8672,1492.207 Q44.6289,1490.8398 45.9375,1490.1172 Q47.2656,1489.375 48.75,1489.375 Q49.6484,1489.375 50.4297,1489.6875 Q51.2109,1490 51.875,1490.625 Z " fill="#000000"/><text fill="#000000" font-family="sans-serif" font-size="15" lengthAdjust="spacing" textLength="147.5" x="66.875" y="1501.1377">TestParameterResult</text><line style="stroke:#A80036;stroke-width:1.875;" x1="31.875" x2="216.875" y1="1515" y2="1515"/><rect fill="none" height="7.5" style="stroke:#C82930;stroke-width:1.25;" width="7.5" x="40.625" y="1525"/><text fill="#000000" font-family="sans-serif" font-size="13.75" lengthAdjust="spacing" textLength="32.5" x="55.625" y="1534.2737">value</text><rect fill="none" height="7.5" style="stroke:#C82930;stroke-width:1.25;" width="7.5" x="40.625" y="1542.2949"/><text fill="#000000" font-family="sans-serif" font-size="13.75" lengthAdjust="spacing" textLength="36.25" x="55.625" y="1551.5686">metric</text><rect fill="none" height="7.5" style="stroke:#C82930;stroke-width:1.25;" width="7.5" x="40.625" y="1559.5898"/><text fill="#000000" font-family="sans-serif" font-size="13.75" lengthAdjust="spacing" textLength="52.5" x="55.625" y="1568.8635">refValue</text><line style="stroke:#A80036;stroke-width:1.875;" x1="31.875" x2="216.875" y1="1576.8848" y2="1576.8848"/><!--MD5=[9fb704ffefcaf68bf1a361787afa998b]
class TestDTO--><rect fill="#FEFECE" filter="url(#f1s45znk0fudz)" height="60" id="TestDTO" style="stroke:#A80036;stroke-width:1.875;" width="101.25" x="92.5" y="312.5"/><ellipse cx="111.25" cy="332.5" fill="#ADD1B2" rx="13.75" ry="13.75" style="stroke:#A80036;stroke-width:1.25;"/><path d="M113.75,328.125 Q114.0039,327.5 114.2969,327.1875 Q114.5898,326.875 114.9219,326.875 Q115.5078,326.875 115.8789,327.2266 Q116.25,327.5781 116.25,328.3984 L116.25,330.3516 Q116.25,331.1719 115.8984,331.5234 Q115.5469,331.875 115,331.875 Q114.5117,331.875 114.1992,331.6602 Q113.8867,331.4453 113.75,330.8789 Q113.6914,330.4883 113.4766,330.2734 Q113.0859,329.8633 112.3828,329.6289 Q111.6797,329.375 110.9766,329.375 Q110.0977,329.375 109.3555,329.7266 Q108.6328,330.0781 108.0664,330.8594 Q107.5,331.6406 107.5,332.7148 L107.5,333.8672 Q107.5,335.1563 108.5547,336.0156 Q109.6094,336.875 111.4844,336.875 Q112.5977,336.875 113.3789,336.6211 Q113.8281,336.4844 114.3359,336.0352 Q114.668,335.7813 114.8438,335.7031 Q115.0195,335.625 115.2344,335.625 Q115.6445,335.625 115.9375,335.957 Q116.25,336.2695 116.25,336.7188 Q116.25,337.1484 115.8203,337.6563 Q115.1953,338.3984 114.1992,338.8086 Q112.8906,339.375 111.2891,339.375 Q109.4141,339.375 107.9102,338.6328 Q106.6992,338.0469 105.8398,336.7773 Q105,335.5078 105,334.0039 L105,332.6367 Q105,331.0742 105.7422,329.707 Q106.5039,328.3398 107.8125,327.6172 Q109.1406,326.875 110.625,326.875 Q111.5234,326.875 112.3047,327.1875 Q113.0859,327.5 113.75,328.125 Z " fill="#000000"/><text fill="#000000" font-family="sans-serif" font-size="15" lengthAdjust="spacing" textLength="61.25" x="128.75" y="338.6377">TestDTO</text><line style="stroke:#A80036;stroke-width:1.875;" x1="93.75" x2="192.5" y1="352.5" y2="352.5"/><line style="stroke:#A80036;stroke-width:1.875;" x1="93.75" x2="192.5" y1="362.5" y2="362.5"/><!--MD5=[ed7fc7d6bca89f5f6311b21d7bfb5ee3]
link TestConsultationUI to TestConsultationController--><path codeLine="85" d="M543.3,77.7625 C542.5,99.225 541.4,129.2375 540.4,155.95 " fill="none" id="TestConsultationUI-to-TestConsultationController" style="stroke:#A80036;stroke-width:1.25;stroke-dasharray:7.0,7.0;"/><polygon fill="#A80036" points="540.175,162.3125,545.5891,151.2558,540.407,156.0668,535.596,150.8847,540.175,162.3125" style="stroke:#A80036;stroke-width:1.25;"/><!--MD5=[61241908b4cc09e51d838a5d342f20ea]
link TestConsultationController to Company--><path codeLine="86" d="M487.125,275.3875 C451.0875,314.55 403.1,366.6625 367.9125,404.8875 " fill="none" id="TestConsultationController-to-Company" style="stroke:#A80036;stroke-width:1.25;stroke-dasharray:7.0,7.0;"/><polygon fill="#A80036" points="363.25,409.95,374.5428,405.0475,367.4781,405.3472,367.1784,398.2825,363.25,409.95" style="stroke:#A80036;stroke-width:1.25;"/><!--MD5=[222c648f84b665f7aaf044a7317361a8]
link TestConsultationController to Sortable--><path codeLine="87" d="M538.125,275.3 C538.125,405.5 538.125,729.95 538.125,857.4125 " fill="none" id="TestConsultationController-to-Sortable" style="stroke:#A80036;stroke-width:1.25;stroke-dasharray:7.0,7.0;"/><polygon fill="#A80036" points="538.125,863.6875,543.125,852.4375,538.125,857.4375,533.125,852.4375,538.125,863.6875" style="stroke:#A80036;stroke-width:1.25;"/><!--MD5=[533b9360e01d9835f65097bb2e0a2cde]
link ClientStore to Sortable--><path codeLine="88" d="M399.55,697.5125 C428.975,742.625 473.65,811.1375 504.275,858.0875 " fill="none" id="ClientStore-to-Sortable" style="stroke:#A80036;stroke-width:1.25;"/><polygon fill="#A80036" points="507.9375,863.7,505.9826,851.5451,504.5244,858.4642,497.6053,857.0061,507.9375,863.7" style="stroke:#A80036;stroke-width:1.25;"/><text fill="#000000" font-family="sans-serif" font-size="16.25" lengthAdjust="spacing" textLength="35" x="439.375" y="753.1189">uses</text><!--MD5=[1d934105a045dbf126514c6917bd5072]
link ClientStore to Client--><path codeLine="89" d="M357.85,697.9375 C355.375,709.9375 353.125,722.8875 351.875,735 C349.5375,757.65 348.5625,782.0375 348.3625,805.2125 " fill="none" id="ClientStore-to-Client" style="stroke:#A80036;stroke-width:1.25;"/><polygon fill="#A80036" points="348.325,811.7125,353.3892,800.4913,348.3607,805.4626,343.3894,800.4341,348.325,811.7125" style="stroke:#A80036;stroke-width:1.25;"/><text fill="#000000" font-family="sans-serif" font-size="16.25" lengthAdjust="spacing" textLength="61.25" x="353.125" y="753.1189">contains</text><!--MD5=[af3939234646809cec66923e43961aa6]
link ClientMapper to ClientDTO--><path codeLine="90" d="M750.625,86.625 C750.625,115.225 750.625,154.2125 750.625,182.175 " fill="none" id="ClientMapper-to-ClientDTO" style="stroke:#A80036;stroke-width:1.25;stroke-dasharray:7.0,7.0;"/><polygon fill="#A80036" points="750.625,188.675,755.625,177.425,750.625,182.425,745.625,177.425,750.625,188.675" style="stroke:#A80036;stroke-width:1.25;"/><!--MD5=[3a29ba093e0af5c0a2622bec494fbaaa]
link TestConsultationUI to ClientDTO--><path codeLine="91" d="M579.825,77.7625 C616.1,107.425 672.35,153.45 710.2875,184.5 " fill="none" id="TestConsultationUI-to-ClientDTO" style="stroke:#A80036;stroke-width:1.25;stroke-dasharray:7.0,7.0;"/><polygon fill="#A80036" points="715.2875,188.5875,709.7533,177.5905,710.4527,184.6268,703.4163,185.3262,715.2875,188.5875" style="stroke:#A80036;stroke-width:1.25;"/><!--MD5=[fab6bfd86166fcebf1ee3273b0f36b6a]
link ShowTestResultsUI to ShowTestResultsController--><path codeLine="92" d="M165.4375,77.7625 C186.65,106.975 219.3625,152.05 241.875,183.075 " fill="none" id="ShowTestResultsUI-to-ShowTestResultsController" style="stroke:#A80036;stroke-width:1.25;stroke-dasharray:7.0,7.0;"/><polygon fill="#A80036" points="245.6875,188.3,243.1092,176.2619,242.0093,183.2469,235.0243,182.1471,245.6875,188.3" style="stroke:#A80036;stroke-width:1.25;"/><!--MD5=[2e82f276e6f223f04b14e6b1e6626556]
link ShowTestResultsUI to TestDTO--><path codeLine="93" d="M139.3375,77.7375 C132.55,120.825 122.1125,204.3125 129.375,275 C130.425,285.2625 132.375,296.275 134.475,306.3125 " fill="none" id="ShowTestResultsUI-to-TestDTO" style="stroke:#A80036;stroke-width:1.25;stroke-dasharray:7.0,7.0;"/><polygon fill="#A80036" points="135.8,312.425,138.2815,300.3666,134.4649,306.3193,128.5123,302.5027,135.8,312.425" style="stroke:#A80036;stroke-width:1.25;"/><!--MD5=[c9ff0204332d4ce713ee04e3bc44c00b]
link ShowTestResultsController to TestMapper--><path codeLine="94" d="M258.125,249.0625 C248.1125,280.475 230.2125,331.55 208.125,372.5 C200.7,386.275 191.3375,400.4125 182.225,413.0625 " fill="none" id="ShowTestResultsController-to-TestMapper" style="stroke:#A80036;stroke-width:1.25;stroke-dasharray:7.0,7.0;"/><polygon fill="#A80036" points="178.35,418.3875,189.0132,412.2346,182.0282,413.3344,180.9283,406.3494,178.35,418.3875" style="stroke:#A80036;stroke-width:1.25;"/><!--MD5=[ee5c0188dc609cecc56a050eae12090c]
reverse link TestDTO to TestMapper--><path codeLine="95" d="M144.7,379.1 C145.25,391.625 145.875,405.75 146.45,418.4625 " fill="none" id="TestDTO-backto-TestMapper" style="stroke:#A80036;stroke-width:1.25;stroke-dasharray:7.0,7.0;"/><polygon fill="#A80036" points="144.4125,372.725,139.9315,384.1916,144.6979,378.9685,149.921,383.7349,144.4125,372.725" style="stroke:#A80036;stroke-width:1.25;"/><!--MD5=[90379deed2c67a22dbc4f168ed58b3c7]
link ShowTestResultsController to Company--><path codeLine="96" d="M273.4625,248.975 C282.2125,287.4125 297.8125,355.975 308.6625,403.6625 " fill="none" id="ShowTestResultsController-to-Company" style="stroke:#A80036;stroke-width:1.25;stroke-dasharray:7.0,7.0;"/><polygon fill="#A80036" points="310.1,409.9625,312.4993,397.8875,308.7234,403.866,302.7449,400.0901,310.1,409.9625" style="stroke:#A80036;stroke-width:1.25;"/><!--MD5=[a11230341c8e65219708844feaa40162]
link Company to ClientStore--><path codeLine="97" d="M332.55,505.225 C339.6,532.7 348.55,567.575 355.8625,596.075 " fill="none" id="Company-to-ClientStore" style="stroke:#A80036;stroke-width:1.25;"/><polygon fill="#A80036" points="357.4875,602.425,359.534,590.2852,355.9339,596.3712,349.8479,592.771,357.4875,602.425" style="stroke:#A80036;stroke-width:1.25;"/><text fill="#000000" font-family="sans-serif" font-size="16.25" lengthAdjust="spacing" textLength="35" x="346.875" y="560.6189">uses</text><!--MD5=[7f6cf7f175eae0af66201860de5de971]
link Company to TestStore--><path codeLine="98" d="M272.6125,505.225 C243.6375,533.2875 206.7,569.05 176.9375,597.8625 " fill="none" id="Company-to-TestStore" style="stroke:#A80036;stroke-width:1.25;"/><polygon fill="#A80036" points="172.225,602.425,183.7939,598.2152,176.724,598.0867,176.8526,591.0168,172.225,602.425" style="stroke:#A80036;stroke-width:1.25;"/><text fill="#000000" font-family="sans-serif" font-size="16.25" lengthAdjust="spacing" textLength="35" x="229.375" y="560.6189">uses</text><!--MD5=[b0f4f6db8206580012ef9cd998ed01c5]
link TestStore to Test--><path codeLine="99" d="M124.375,697.5125 C124.375,722.9875 124.375,755.9375 124.375,788.25 " fill="none" id="TestStore-to-Test" style="stroke:#A80036;stroke-width:1.25;"/><polygon fill="#A80036" points="124.375,794.7,129.375,783.45,124.375,788.45,119.375,783.45,124.375,794.7" style="stroke:#A80036;stroke-width:1.25;"/><text fill="#000000" font-family="sans-serif" font-size="16.25" lengthAdjust="spacing" textLength="61.25" x="125.625" y="753.1189">contains</text><!--MD5=[2c91f88199f54fc4797874c7092f4fe3]
link Test to TestParamList--><path codeLine="100" d="M124.375,1027.625 C124.375,1059.9875 124.375,1093.25 124.375,1118.6375 " fill="none" id="Test-to-TestParamList" style="stroke:#A80036;stroke-width:1.25;"/><polygon fill="#A80036" points="124.375,1124.925,129.375,1113.675,124.375,1118.675,119.375,1113.675,124.375,1124.925" style="stroke:#A80036;stroke-width:1.25;"/><text fill="#000000" font-family="sans-serif" font-size="16.25" lengthAdjust="spacing" textLength="35" x="125.625" y="1083.1189">uses</text><!--MD5=[7dcd1600b6e42663b3fea3bcea44895b]
link TestParamList to TestParameter--><path codeLine="101" d="M124.375,1202.85 C124.375,1229.4875 124.375,1265.2125 124.375,1293.1625 " fill="none" id="TestParamList-to-TestParameter" style="stroke:#A80036;stroke-width:1.25;"/><polygon fill="#A80036" points="124.375,1299.7375,129.375,1288.4875,124.375,1293.4875,119.375,1288.4875,124.375,1299.7375" style="stroke:#A80036;stroke-width:1.25;"/><text fill="#000000" font-family="sans-serif" font-size="16.25" lengthAdjust="spacing" textLength="61.25" x="125.625" y="1258.1189">contains</text><!--MD5=[0e00e25ac6b8c14659aaff2cf7e5df08]
link TestParameter to TestParameterResult--><path codeLine="102" d="M124.375,1377.5375 C124.375,1403.4875 124.375,1438.6 124.375,1468.5875 " fill="none" id="TestParameter-to-TestParameterResult" style="stroke:#A80036;stroke-width:1.25;"/><polygon fill="#A80036" points="124.375,1474.9,129.375,1463.65,124.375,1468.65,119.375,1463.65,124.375,1474.9" style="stroke:#A80036;stroke-width:1.25;"/><text fill="#000000" font-family="sans-serif" font-size="16.25" lengthAdjust="spacing" textLength="61.25" x="125.625" y="1433.1189">contains</text><!--MD5=[d5c870f06067b681ec19f5d86036081b]
@startuml

class TestConsultationUI

class TestConsultationController{
+getClientList()
+getClientTestList()
+displayTestResults(testCode)


}

class Client {
- name
- cardNumber
- nhsId
- dateBirth
- TIN
- phoneNumber
- email
- sex
}

class Company{
-designation

+getClientStore()
}

interface Sortable{
+sortByTin(clientList)
+sortByName(clientList)
}

class ClientStore {
+ getClientByEmail(email)
+ getClientList()
}

class ClientMapper{
+ toDtoList(clientList)
}

class ClientDTO

class ShowTestResultsUI

class ShowTestResultsController

class TestStore {
+ getValidatedTestsByClient(client)
+ getTestByCode(testCode)
}

class Test {
- testCode
- nhsCode
- dateOfCreation
- dateReport
- timeReport
- dateResults
- timeResults
- dateValidation
- timeValidation
+ getTestParamResults()
}

class TestMapper {
+ toDtoList(tests)
}

class TestParamList {
+ getTestParamResults()
}

class TestParameter {
+ getTestParamResult()
}

class TestParameterResult {
- value
- metric
- refValue
}

TestConsultationUI ..> TestConsultationController
TestConsultationController ..> Company
TestConsultationController ..> Sortable
ClientStore - -> Sortable : uses
ClientStore - -> Client : contains
ClientMapper ..> ClientDTO
TestConsultationUI ..> ClientDTO
ShowTestResultsUI ..> ShowTestResultsController
ShowTestResultsUI ..> TestDTO
ShowTestResultsController ..> TestMapper
TestMapper .left.> TestDTO
ShowTestResultsController ..> Company
Company - -> ClientStore : uses
Company - -> TestStore : uses
TestStore - -> Test : contains
Test - -> TestParamList : uses
TestParamList - -> TestParameter : contains
TestParameter - -> TestParameterResult : contains

@enduml

PlantUML version 1.2021.5(Sun Apr 25 12:20:28 BST 2021)
(GPL source distribution)
Java Runtime: OpenJDK Runtime Environment
JVM: OpenJDK 64-Bit Server VM
Default Encoding: Cp1252
Language: pt
Country: PT
--></g></svg>