<?xml version="1.0" encoding="UTF-8" standalone="no"?><svg xmlns="http://www.w3.org/2000/svg" xmlns:xlink="http://www.w3.org/1999/xlink" contentScriptType="application/ecmascript" contentStyleType="text/css" height="1603.75px" preserveAspectRatio="none" style="width:826px;height:1603px;" version="1.1" viewBox="0 0 826 1603" width="826.25px" zoomAndPan="magnify"><defs><filter height="300%" id="f1dy04nszd4oxy" width="300%" x="-1" y="-1"><feGaussianBlur result="blurOut" stdDeviation="2.5"/><feColorMatrix in="blurOut" result="blurOut2" type="matrix" values="0 0 0 0 0 0 0 0 0 0 0 0 0 0 0 0 0 0 .4 0"/><feOffset dx="5.0" dy="5.0" in="blurOut2" result="blurOut3"/><feBlend in="SourceGraphic" in2="blurOut3" mode="normal"/></filter></defs><g><!--MD5=[dbcc6281aab730d2e9d25b9443712d49]
class ShowClientListUI--><rect codeLine="2" fill="#FEFECE" filter="url(#f1dy04nszd4oxy)" height="60" id="ShowClientListUI" style="stroke:#A80036;stroke-width:1.875;" width="158.75" x="635" y="8.75"/><ellipse cx="653.75" cy="28.75" fill="#ADD1B2" rx="13.75" ry="13.75" style="stroke:#A80036;stroke-width:1.25;"/><path d="M656.25,24.375 Q656.5039,23.75 656.7969,23.4375 Q657.0898,23.125 657.4219,23.125 Q658.0078,23.125 658.3789,23.4766 Q658.75,23.8281 658.75,24.6484 L658.75,26.6016 Q658.75,27.4219 658.3984,27.7734 Q658.0469,28.125 657.5,28.125 Q657.0117,28.125 656.6992,27.9102 Q656.3867,27.6953 656.25,27.1289 Q656.1914,26.7383 655.9766,26.5234 Q655.5859,26.1133 654.8828,25.8789 Q654.1797,25.625 653.4766,25.625 Q652.5977,25.625 651.8555,25.9766 Q651.1328,26.3281 650.5664,27.1094 Q650,27.8906 650,28.9648 L650,30.1172 Q650,31.4063 651.0547,32.2656 Q652.1094,33.125 653.9844,33.125 Q655.0977,33.125 655.8789,32.8711 Q656.3281,32.7344 656.8359,32.2852 Q657.168,32.0313 657.3438,31.9531 Q657.5195,31.875 657.7344,31.875 Q658.1445,31.875 658.4375,32.207 Q658.75,32.5195 658.75,32.9688 Q658.75,33.3984 658.3203,33.9063 Q657.6953,34.6484 656.6992,35.0586 Q655.3906,35.625 653.7891,35.625 Q651.9141,35.625 650.4102,34.8828 Q649.1992,34.2969 648.3398,33.0273 Q647.5,31.7578 647.5,30.2539 L647.5,28.8867 Q647.5,27.3242 648.2422,25.957 Q649.0039,24.5898 650.3125,23.8672 Q651.6406,23.125 653.125,23.125 Q654.0234,23.125 654.8047,23.4375 Q655.5859,23.75 656.25,24.375 Z " fill="#000000"/><text fill="#000000" font-family="sans-serif" font-size="15" lengthAdjust="spacing" textLength="118.75" x="671.25" y="34.8877">ShowClientListUI</text><line style="stroke:#A80036;stroke-width:1.875;" x1="636.25" x2="792.5" y1="48.75" y2="48.75"/><line style="stroke:#A80036;stroke-width:1.875;" x1="636.25" x2="792.5" y1="58.75" y2="58.75"/><!--MD5=[68edf0334f3bda7292986e6ceb9510de]
class ShowClientListController--><rect codeLine="4" fill="#FEFECE" filter="url(#f1dy04nszd4oxy)" height="111.8848" id="ShowClientListController" style="stroke:#A80036;stroke-width:1.875;" width="211.25" x="522.5" y="145"/><ellipse cx="541.25" cy="165" fill="#ADD1B2" rx="13.75" ry="13.75" style="stroke:#A80036;stroke-width:1.25;"/><path d="M543.75,160.625 Q544.0039,160 544.2969,159.6875 Q544.5898,159.375 544.9219,159.375 Q545.5078,159.375 545.8789,159.7266 Q546.25,160.0781 546.25,160.8984 L546.25,162.8516 Q546.25,163.6719 545.8984,164.0234 Q545.5469,164.375 545,164.375 Q544.5117,164.375 544.1992,164.1602 Q543.8867,163.9453 543.75,163.3789 Q543.6914,162.9883 543.4766,162.7734 Q543.0859,162.3633 542.3828,162.1289 Q541.6797,161.875 540.9766,161.875 Q540.0977,161.875 539.3555,162.2266 Q538.6328,162.5781 538.0664,163.3594 Q537.5,164.1406 537.5,165.2148 L537.5,166.3672 Q537.5,167.6563 538.5547,168.5156 Q539.6094,169.375 541.4844,169.375 Q542.5977,169.375 543.3789,169.1211 Q543.8281,168.9844 544.3359,168.5352 Q544.668,168.2813 544.8438,168.2031 Q545.0195,168.125 545.2344,168.125 Q545.6445,168.125 545.9375,168.457 Q546.25,168.7695 546.25,169.2188 Q546.25,169.6484 545.8203,170.1563 Q545.1953,170.8984 544.1992,171.3086 Q542.8906,171.875 541.2891,171.875 Q539.4141,171.875 537.9102,171.1328 Q536.6992,170.5469 535.8398,169.2773 Q535,168.0078 535,166.5039 L535,165.1367 Q535,163.5742 535.7422,162.207 Q536.5039,160.8398 537.8125,160.1172 Q539.1406,159.375 540.625,159.375 Q541.5234,159.375 542.3047,159.6875 Q543.0859,160 543.75,160.625 Z " fill="#000000"/><text fill="#000000" font-family="sans-serif" font-size="15" lengthAdjust="spacing" textLength="171.25" x="558.75" y="171.1377">ShowClientListController</text><line style="stroke:#A80036;stroke-width:1.875;" x1="523.75" x2="732.5" y1="185" y2="185"/><line style="stroke:#A80036;stroke-width:1.875;" x1="523.75" x2="732.5" y1="195" y2="195"/><ellipse cx="536.25" cy="208.75" fill="#84BE84" rx="3.75" ry="3.75" style="stroke:#038048;stroke-width:1.25;"/><text fill="#000000" font-family="sans-serif" font-size="13.75" lengthAdjust="spacing" textLength="82.5" x="547.5" y="214.2737">getClientList()</text><ellipse cx="536.25" cy="226.0449" fill="#84BE84" rx="3.75" ry="3.75" style="stroke:#038048;stroke-width:1.25;"/><text fill="#000000" font-family="sans-serif" font-size="13.75" lengthAdjust="spacing" textLength="108.75" x="547.5" y="231.5686">getClientTestList()</text><ellipse cx="536.25" cy="243.3398" fill="#84BE84" rx="3.75" ry="3.75" style="stroke:#038048;stroke-width:1.25;"/><text fill="#000000" font-family="sans-serif" font-size="13.75" lengthAdjust="spacing" textLength="177.5" x="547.5" y="248.8635">displayTestResults(testCode)</text><!--MD5=[ed6624c6556d5e7b1bd23032162d20b7]
class Client--><rect codeLine="12" fill="#FEFECE" filter="url(#f1dy04nszd4oxy)" height="198.3594" id="Client" style="stroke:#A80036;stroke-width:1.875;" width="116.25" x="325" y="794.375"/><ellipse cx="360.0625" cy="814.375" fill="#ADD1B2" rx="13.75" ry="13.75" style="stroke:#A80036;stroke-width:1.25;"/><path d="M362.5625,810 Q362.8164,809.375 363.1094,809.0625 Q363.4023,808.75 363.7344,808.75 Q364.3203,808.75 364.6914,809.1016 Q365.0625,809.4531 365.0625,810.2734 L365.0625,812.2266 Q365.0625,813.0469 364.7109,813.3984 Q364.3594,813.75 363.8125,813.75 Q363.3242,813.75 363.0117,813.5352 Q362.6992,813.3203 362.5625,812.7539 Q362.5039,812.3633 362.2891,812.1484 Q361.8984,811.7383 361.1953,811.5039 Q360.4922,811.25 359.7891,811.25 Q358.9102,811.25 358.168,811.6016 Q357.4453,811.9531 356.8789,812.7344 Q356.3125,813.5156 356.3125,814.5898 L356.3125,815.7422 Q356.3125,817.0313 357.3672,817.8906 Q358.4219,818.75 360.2969,818.75 Q361.4102,818.75 362.1914,818.4961 Q362.6406,818.3594 363.1484,817.9102 Q363.4805,817.6563 363.6563,817.5781 Q363.832,817.5 364.0469,817.5 Q364.457,817.5 364.75,817.832 Q365.0625,818.1445 365.0625,818.5938 Q365.0625,819.0234 364.6328,819.5313 Q364.0078,820.2734 363.0117,820.6836 Q361.7031,821.25 360.1016,821.25 Q358.2266,821.25 356.7227,820.5078 Q355.5117,819.9219 354.6523,818.6523 Q353.8125,817.3828 353.8125,815.8789 L353.8125,814.5117 Q353.8125,812.9492 354.5547,811.582 Q355.3164,810.2148 356.625,809.4922 Q357.9531,808.75 359.4375,808.75 Q360.3359,808.75 361.1172,809.0625 Q361.8984,809.375 362.5625,810 Z " fill="#000000"/><text fill="#000000" font-family="sans-serif" font-size="15" lengthAdjust="spacing" textLength="40" x="381.1875" y="820.5127">Client</text><line style="stroke:#A80036;stroke-width:1.875;" x1="326.25" x2="440" y1="834.375" y2="834.375"/><rect fill="none" height="7.5" style="stroke:#C82930;stroke-width:1.25;" width="7.5" x="335" y="844.375"/><text fill="#000000" font-family="sans-serif" font-size="13.75" lengthAdjust="spacing" textLength="32.5" x="350" y="853.6487">name</text><rect fill="none" height="7.5" style="stroke:#C82930;stroke-width:1.25;" width="7.5" x="335" y="861.6699"/><text fill="#000000" font-family="sans-serif" font-size="13.75" lengthAdjust="spacing" textLength="73.75" x="350" y="870.9436">cardNumber</text><rect fill="none" height="7.5" style="stroke:#C82930;stroke-width:1.25;" width="7.5" x="335" y="878.9648"/><text fill="#000000" font-family="sans-serif" font-size="13.75" lengthAdjust="spacing" textLength="32.5" x="350" y="888.2385">nhsId</text><rect fill="none" height="7.5" style="stroke:#C82930;stroke-width:1.25;" width="7.5" x="335" y="896.2598"/><text fill="#000000" font-family="sans-serif" font-size="13.75" lengthAdjust="spacing" textLength="53.75" x="350" y="905.5334">dateBirth</text><rect fill="none" height="7.5" style="stroke:#C82930;stroke-width:1.25;" width="7.5" x="335" y="913.5547"/><text fill="#000000" font-family="sans-serif" font-size="13.75" lengthAdjust="spacing" textLength="18.75" x="350" y="922.8284">TIN</text><rect fill="none" height="7.5" style="stroke:#C82930;stroke-width:1.25;" width="7.5" x="335" y="930.8496"/><text fill="#000000" font-family="sans-serif" font-size="13.75" lengthAdjust="spacing" textLength="83.75" x="350" y="940.1233">phoneNumber</text><rect fill="none" height="7.5" style="stroke:#C82930;stroke-width:1.25;" width="7.5" x="335" y="948.1445"/><text fill="#000000" font-family="sans-serif" font-size="13.75" lengthAdjust="spacing" textLength="30" x="350" y="957.4182">email</text><rect fill="none" height="7.5" style="stroke:#C82930;stroke-width:1.25;" width="7.5" x="335" y="965.4395"/><text fill="#000000" font-family="sans-serif" font-size="13.75" lengthAdjust="spacing" textLength="22.5" x="350" y="974.7131">sex</text><line style="stroke:#A80036;stroke-width:1.875;" x1="326.25" x2="440" y1="982.7344" y2="982.7344"/><!--MD5=[02e4b9b7573f1156f41e60aa5b4e25a4]
class Company--><rect codeLine="23" fill="#FEFECE" filter="url(#f1dy04nszd4oxy)" height="94.5898" id="Company" style="stroke:#A80036;stroke-width:1.875;" width="126.25" x="303.75" y="392.5"/><ellipse cx="331.5" cy="412.5" fill="#ADD1B2" rx="13.75" ry="13.75" style="stroke:#A80036;stroke-width:1.25;"/><path d="M334,408.125 Q334.2539,407.5 334.5469,407.1875 Q334.8398,406.875 335.1719,406.875 Q335.7578,406.875 336.1289,407.2266 Q336.5,407.5781 336.5,408.3984 L336.5,410.3516 Q336.5,411.1719 336.1484,411.5234 Q335.7969,411.875 335.25,411.875 Q334.7617,411.875 334.4492,411.6602 Q334.1367,411.4453 334,410.8789 Q333.9414,410.4883 333.7266,410.2734 Q333.3359,409.8633 332.6328,409.6289 Q331.9297,409.375 331.2266,409.375 Q330.3477,409.375 329.6055,409.7266 Q328.8828,410.0781 328.3164,410.8594 Q327.75,411.6406 327.75,412.7148 L327.75,413.8672 Q327.75,415.1563 328.8047,416.0156 Q329.8594,416.875 331.7344,416.875 Q332.8477,416.875 333.6289,416.6211 Q334.0781,416.4844 334.5859,416.0352 Q334.918,415.7813 335.0938,415.7031 Q335.2695,415.625 335.4844,415.625 Q335.8945,415.625 336.1875,415.957 Q336.5,416.2695 336.5,416.7188 Q336.5,417.1484 336.0703,417.6563 Q335.4453,418.3984 334.4492,418.8086 Q333.1406,419.375 331.5391,419.375 Q329.6641,419.375 328.1602,418.6328 Q326.9492,418.0469 326.0898,416.7773 Q325.25,415.5078 325.25,414.0039 L325.25,412.6367 Q325.25,411.0742 325.9922,409.707 Q326.7539,408.3398 328.0625,407.6172 Q329.3906,406.875 330.875,406.875 Q331.7734,406.875 332.5547,407.1875 Q333.3359,407.5 334,408.125 Z " fill="#000000"/><text fill="#000000" font-family="sans-serif" font-size="15" lengthAdjust="spacing" textLength="66.25" x="351" y="418.6377">Company</text><line style="stroke:#A80036;stroke-width:1.875;" x1="305" x2="428.75" y1="432.5" y2="432.5"/><rect fill="none" height="7.5" style="stroke:#C82930;stroke-width:1.25;" width="7.5" x="313.75" y="442.5"/><text fill="#000000" font-family="sans-serif" font-size="13.75" lengthAdjust="spacing" textLength="68.75" x="328.75" y="451.7737">designation</text><line style="stroke:#A80036;stroke-width:1.875;" x1="305" x2="428.75" y1="459.7949" y2="459.7949"/><ellipse cx="317.5" cy="473.5449" fill="#84BE84" rx="3.75" ry="3.75" style="stroke:#038048;stroke-width:1.25;"/><text fill="#000000" font-family="sans-serif" font-size="13.75" lengthAdjust="spacing" textLength="93.75" x="328.75" y="479.0686">getClientStore()</text><!--MD5=[687111ccfaf99ad2b4af2cb6ec7c79c8]
class Sortable--><rect codeLine="29" fill="#FEFECE" filter="url(#f1dy04nszd4oxy)" height="94.5898" id="Sortable" style="stroke:#A80036;stroke-width:1.875;" width="168.75" x="391.25" y="1107.5"/><ellipse cx="441.5" cy="1127.5" fill="#B4A7E5" rx="13.75" ry="13.75" style="stroke:#A80036;stroke-width:1.25;"/><path d="M442.75,1123.75 L442.75,1131.25 L445.25,1131.25 L445.8555,1131.25 L446.5,1132.0313 L446.5,1132.5 L446.5,1132.9688 L445.8555,1133.75 L445.25,1133.75 L437.75,1133.75 L437.1445,1133.75 L436.5,1132.9688 L436.5,1132.5 L436.5,1132.0313 L437.1445,1131.25 L437.75,1131.25 L440.25,1131.25 L440.25,1123.75 L437.75,1123.75 L437.1445,1123.75 L436.5,1122.9688 L436.5,1122.5 L436.5,1122.0313 L437.1445,1121.25 L437.75,1121.25 L445.25,1121.25 L445.8555,1121.25 L446.5,1122.0313 L446.5,1122.5 L446.5,1122.9688 L445.8555,1123.75 L445.25,1123.75 L442.75,1123.75 Z " fill="#000000"/><text fill="#000000" font-family="sans-serif" font-size="15" font-style="italic" lengthAdjust="spacing" textLength="58.75" x="466" y="1133.6377">Sortable</text><line style="stroke:#A80036;stroke-width:1.875;" x1="392.5" x2="558.75" y1="1147.5" y2="1147.5"/><line style="stroke:#A80036;stroke-width:1.875;" x1="392.5" x2="558.75" y1="1157.5" y2="1157.5"/><ellipse cx="405" cy="1171.25" fill="#84BE84" rx="3.75" ry="3.75" style="stroke:#038048;stroke-width:1.25;"/><text fill="#000000" font-family="sans-serif" font-size="13.75" lengthAdjust="spacing" textLength="120" x="416.25" y="1176.7737">sortByTin(clientList)</text><ellipse cx="405" cy="1188.5449" fill="#84BE84" rx="3.75" ry="3.75" style="stroke:#038048;stroke-width:1.25;"/><text fill="#000000" font-family="sans-serif" font-size="13.75" lengthAdjust="spacing" textLength="136.25" x="416.25" y="1194.0686">sortByName(clientList)</text><!--MD5=[55cb992be19579b505cea3c5691093cb]
class ClientStore--><rect codeLine="34" fill="#FEFECE" filter="url(#f1dy04nszd4oxy)" height="94.5898" id="ClientStore" style="stroke:#A80036;stroke-width:1.875;" width="170" x="284.375" y="585"/><ellipse cx="327.3125" cy="605" fill="#ADD1B2" rx="13.75" ry="13.75" style="stroke:#A80036;stroke-width:1.25;"/><path d="M329.8125,600.625 Q330.0664,600 330.3594,599.6875 Q330.6523,599.375 330.9844,599.375 Q331.5703,599.375 331.9414,599.7266 Q332.3125,600.0781 332.3125,600.8984 L332.3125,602.8516 Q332.3125,603.6719 331.9609,604.0234 Q331.6094,604.375 331.0625,604.375 Q330.5742,604.375 330.2617,604.1602 Q329.9492,603.9453 329.8125,603.3789 Q329.7539,602.9883 329.5391,602.7734 Q329.1484,602.3633 328.4453,602.1289 Q327.7422,601.875 327.0391,601.875 Q326.1602,601.875 325.418,602.2266 Q324.6953,602.5781 324.1289,603.3594 Q323.5625,604.1406 323.5625,605.2148 L323.5625,606.3672 Q323.5625,607.6563 324.6172,608.5156 Q325.6719,609.375 327.5469,609.375 Q328.6602,609.375 329.4414,609.1211 Q329.8906,608.9844 330.3984,608.5352 Q330.7305,608.2813 330.9063,608.2031 Q331.082,608.125 331.2969,608.125 Q331.707,608.125 332,608.457 Q332.3125,608.7695 332.3125,609.2188 Q332.3125,609.6484 331.8828,610.1563 Q331.2578,610.8984 330.2617,611.3086 Q328.9531,611.875 327.3516,611.875 Q325.4766,611.875 323.9727,611.1328 Q322.7617,610.5469 321.9023,609.2773 Q321.0625,608.0078 321.0625,606.5039 L321.0625,605.1367 Q321.0625,603.5742 321.8047,602.207 Q322.5664,600.8398 323.875,600.1172 Q325.2031,599.375 326.6875,599.375 Q327.5859,599.375 328.3672,599.6875 Q329.1484,600 329.8125,600.625 Z " fill="#000000"/><text fill="#000000" font-family="sans-serif" font-size="15" lengthAdjust="spacing" textLength="76.25" x="350.1875" y="611.1377">ClientStore</text><line style="stroke:#A80036;stroke-width:1.875;" x1="285.625" x2="453.125" y1="625" y2="625"/><line style="stroke:#A80036;stroke-width:1.875;" x1="285.625" x2="453.125" y1="635" y2="635"/><ellipse cx="298.125" cy="648.75" fill="#84BE84" rx="3.75" ry="3.75" style="stroke:#038048;stroke-width:1.25;"/><text fill="#000000" font-family="sans-serif" font-size="13.75" lengthAdjust="spacing" textLength="137.5" x="309.375" y="654.2737">getClientByEmail(email)</text><ellipse cx="298.125" cy="666.0449" fill="#84BE84" rx="3.75" ry="3.75" style="stroke:#038048;stroke-width:1.25;"/><text fill="#000000" font-family="sans-serif" font-size="13.75" lengthAdjust="spacing" textLength="82.5" x="309.375" y="671.5686">getClientList()</text><!--MD5=[d9af5e34e5bc78cd5a2caff02363fedd]
class ClientMapper--><rect codeLine="39" fill="#FEFECE" filter="url(#f1dy04nszd4oxy)" height="77.2949" id="ClientMapper" style="stroke:#A80036;stroke-width:1.875;" width="147.5" x="586.875" y="401.25"/><ellipse cx="612.9375" cy="421.25" fill="#ADD1B2" rx="13.75" ry="13.75" style="stroke:#A80036;stroke-width:1.25;"/><path d="M615.4375,416.875 Q615.6914,416.25 615.9844,415.9375 Q616.2773,415.625 616.6094,415.625 Q617.1953,415.625 617.5664,415.9766 Q617.9375,416.3281 617.9375,417.1484 L617.9375,419.1016 Q617.9375,419.9219 617.5859,420.2734 Q617.2344,420.625 616.6875,420.625 Q616.1992,420.625 615.8867,420.4102 Q615.5742,420.1953 615.4375,419.6289 Q615.3789,419.2383 615.1641,419.0234 Q614.7734,418.6133 614.0703,418.3789 Q613.3672,418.125 612.6641,418.125 Q611.7852,418.125 611.043,418.4766 Q610.3203,418.8281 609.7539,419.6094 Q609.1875,420.3906 609.1875,421.4648 L609.1875,422.6172 Q609.1875,423.9063 610.2422,424.7656 Q611.2969,425.625 613.1719,425.625 Q614.2852,425.625 615.0664,425.3711 Q615.5156,425.2344 616.0234,424.7852 Q616.3555,424.5313 616.5313,424.4531 Q616.707,424.375 616.9219,424.375 Q617.332,424.375 617.625,424.707 Q617.9375,425.0195 617.9375,425.4688 Q617.9375,425.8984 617.5078,426.4063 Q616.8828,427.1484 615.8867,427.5586 Q614.5781,428.125 612.9766,428.125 Q611.1016,428.125 609.5977,427.3828 Q608.3867,426.7969 607.5273,425.5273 Q606.6875,424.2578 606.6875,422.7539 L606.6875,421.3867 Q606.6875,419.8242 607.4297,418.457 Q608.1914,417.0898 609.5,416.3672 Q610.8281,415.625 612.3125,415.625 Q613.2109,415.625 613.9922,415.9375 Q614.7734,416.25 615.4375,416.875 Z " fill="#000000"/><text fill="#000000" font-family="sans-serif" font-size="15" lengthAdjust="spacing" textLength="91.25" x="632.0625" y="427.3877">ClientMapper</text><line style="stroke:#A80036;stroke-width:1.875;" x1="588.125" x2="733.125" y1="441.25" y2="441.25"/><line style="stroke:#A80036;stroke-width:1.875;" x1="588.125" x2="733.125" y1="451.25" y2="451.25"/><ellipse cx="600.625" cy="465" fill="#84BE84" rx="3.75" ry="3.75" style="stroke:#038048;stroke-width:1.25;"/><text fill="#000000" font-family="sans-serif" font-size="13.75" lengthAdjust="spacing" textLength="115" x="611.875" y="470.5237">toDtoList(clientList)</text><!--MD5=[d92da6d3e9b1e9631354e1a6db35e891]
class ClientDTO--><rect codeLine="43" fill="#FEFECE" filter="url(#f1dy04nszd4oxy)" height="60" id="ClientDTO" style="stroke:#A80036;stroke-width:1.875;" width="111.25" x="697.5" y="602.5"/><ellipse cx="716.25" cy="622.5" fill="#ADD1B2" rx="13.75" ry="13.75" style="stroke:#A80036;stroke-width:1.25;"/><path d="M718.75,618.125 Q719.0039,617.5 719.2969,617.1875 Q719.5898,616.875 719.9219,616.875 Q720.5078,616.875 720.8789,617.2266 Q721.25,617.5781 721.25,618.3984 L721.25,620.3516 Q721.25,621.1719 720.8984,621.5234 Q720.5469,621.875 720,621.875 Q719.5117,621.875 719.1992,621.6602 Q718.8867,621.4453 718.75,620.8789 Q718.6914,620.4883 718.4766,620.2734 Q718.0859,619.8633 717.3828,619.6289 Q716.6797,619.375 715.9766,619.375 Q715.0977,619.375 714.3555,619.7266 Q713.6328,620.0781 713.0664,620.8594 Q712.5,621.6406 712.5,622.7148 L712.5,623.8672 Q712.5,625.1563 713.5547,626.0156 Q714.6094,626.875 716.4844,626.875 Q717.5977,626.875 718.3789,626.6211 Q718.8281,626.4844 719.3359,626.0352 Q719.668,625.7813 719.8438,625.7031 Q720.0195,625.625 720.2344,625.625 Q720.6445,625.625 720.9375,625.957 Q721.25,626.2695 721.25,626.7188 Q721.25,627.1484 720.8203,627.6563 Q720.1953,628.3984 719.1992,628.8086 Q717.8906,629.375 716.2891,629.375 Q714.4141,629.375 712.9102,628.6328 Q711.6992,628.0469 710.8398,626.7773 Q710,625.5078 710,624.0039 L710,622.6367 Q710,621.0742 710.7422,619.707 Q711.5039,618.3398 712.8125,617.6172 Q714.1406,616.875 715.625,616.875 Q716.5234,616.875 717.3047,617.1875 Q718.0859,617.5 718.75,618.125 Z " fill="#000000"/><text fill="#000000" font-family="sans-serif" font-size="15" lengthAdjust="spacing" textLength="71.25" x="733.75" y="628.6377">ClientDTO</text><line style="stroke:#A80036;stroke-width:1.875;" x1="698.75" x2="807.5" y1="642.5" y2="642.5"/><line style="stroke:#A80036;stroke-width:1.875;" x1="698.75" x2="807.5" y1="652.5" y2="652.5"/><!--MD5=[fa55af956531f700b1f6f664510affc2]
class ShowTestResultsUI--><rect codeLine="45" fill="#FEFECE" filter="url(#f1dy04nszd4oxy)" height="60" id="ShowTestResultsUI" style="stroke:#A80036;stroke-width:1.875;" width="177.5" x="151.875" y="8.75"/><ellipse cx="170.625" cy="28.75" fill="#ADD1B2" rx="13.75" ry="13.75" style="stroke:#A80036;stroke-width:1.25;"/><path d="M173.125,24.375 Q173.3789,23.75 173.6719,23.4375 Q173.9648,23.125 174.2969,23.125 Q174.8828,23.125 175.2539,23.4766 Q175.625,23.8281 175.625,24.6484 L175.625,26.6016 Q175.625,27.4219 175.2734,27.7734 Q174.9219,28.125 174.375,28.125 Q173.8867,28.125 173.5742,27.9102 Q173.2617,27.6953 173.125,27.1289 Q173.0664,26.7383 172.8516,26.5234 Q172.4609,26.1133 171.7578,25.8789 Q171.0547,25.625 170.3516,25.625 Q169.4727,25.625 168.7305,25.9766 Q168.0078,26.3281 167.4414,27.1094 Q166.875,27.8906 166.875,28.9648 L166.875,30.1172 Q166.875,31.4063 167.9297,32.2656 Q168.9844,33.125 170.8594,33.125 Q171.9727,33.125 172.7539,32.8711 Q173.2031,32.7344 173.7109,32.2852 Q174.043,32.0313 174.2188,31.9531 Q174.3945,31.875 174.6094,31.875 Q175.0195,31.875 175.3125,32.207 Q175.625,32.5195 175.625,32.9688 Q175.625,33.3984 175.1953,33.9063 Q174.5703,34.6484 173.5742,35.0586 Q172.2656,35.625 170.6641,35.625 Q168.7891,35.625 167.2852,34.8828 Q166.0742,34.2969 165.2148,33.0273 Q164.375,31.7578 164.375,30.2539 L164.375,28.8867 Q164.375,27.3242 165.1172,25.957 Q165.8789,24.5898 167.1875,23.8672 Q168.5156,23.125 170,23.125 Q170.8984,23.125 171.6797,23.4375 Q172.4609,23.75 173.125,24.375 Z " fill="#000000"/><text fill="#000000" font-family="sans-serif" font-size="15" lengthAdjust="spacing" textLength="137.5" x="188.125" y="34.8877">ShowTestResultsUI</text><line style="stroke:#A80036;stroke-width:1.875;" x1="153.125" x2="328.125" y1="48.75" y2="48.75"/><line style="stroke:#A80036;stroke-width:1.875;" x1="153.125" x2="328.125" y1="58.75" y2="58.75"/><!--MD5=[fed1f8060d293b6d7695ca94391604a1]
class ShowTestResultsController--><rect codeLine="47" fill="#FEFECE" filter="url(#f1dy04nszd4oxy)" height="60" id="ShowTestResultsController" style="stroke:#A80036;stroke-width:1.875;" width="230" x="248.125" y="171.25"/><ellipse cx="266.875" cy="191.25" fill="#ADD1B2" rx="13.75" ry="13.75" style="stroke:#A80036;stroke-width:1.25;"/><path d="M269.375,186.875 Q269.6289,186.25 269.9219,185.9375 Q270.2148,185.625 270.5469,185.625 Q271.1328,185.625 271.5039,185.9766 Q271.875,186.3281 271.875,187.1484 L271.875,189.1016 Q271.875,189.9219 271.5234,190.2734 Q271.1719,190.625 270.625,190.625 Q270.1367,190.625 269.8242,190.4102 Q269.5117,190.1953 269.375,189.6289 Q269.3164,189.2383 269.1016,189.0234 Q268.7109,188.6133 268.0078,188.3789 Q267.3047,188.125 266.6016,188.125 Q265.7227,188.125 264.9805,188.4766 Q264.2578,188.8281 263.6914,189.6094 Q263.125,190.3906 263.125,191.4648 L263.125,192.6172 Q263.125,193.9063 264.1797,194.7656 Q265.2344,195.625 267.1094,195.625 Q268.2227,195.625 269.0039,195.3711 Q269.4531,195.2344 269.9609,194.7852 Q270.293,194.5313 270.4688,194.4531 Q270.6445,194.375 270.8594,194.375 Q271.2695,194.375 271.5625,194.707 Q271.875,195.0195 271.875,195.4688 Q271.875,195.8984 271.4453,196.4063 Q270.8203,197.1484 269.8242,197.5586 Q268.5156,198.125 266.9141,198.125 Q265.0391,198.125 263.5352,197.3828 Q262.3242,196.7969 261.4648,195.5273 Q260.625,194.2578 260.625,192.7539 L260.625,191.3867 Q260.625,189.8242 261.3672,188.457 Q262.1289,187.0898 263.4375,186.3672 Q264.7656,185.625 266.25,185.625 Q267.1484,185.625 267.9297,185.9375 Q268.7109,186.25 269.375,186.875 Z " fill="#000000"/><text fill="#000000" font-family="sans-serif" font-size="15" lengthAdjust="spacing" textLength="190" x="284.375" y="197.3877">ShowTestResultsController</text><line style="stroke:#A80036;stroke-width:1.875;" x1="249.375" x2="476.875" y1="211.25" y2="211.25"/><line style="stroke:#A80036;stroke-width:1.875;" x1="249.375" x2="476.875" y1="221.25" y2="221.25"/><!--MD5=[0f6f7964b844a64b0496af0dda7914bd]
class TestStore--><rect codeLine="49" fill="#FEFECE" filter="url(#f1dy04nszd4oxy)" height="94.5898" id="TestStore" style="stroke:#A80036;stroke-width:1.875;" width="231.25" x="8.75" y="585"/><ellipse cx="85.9375" cy="605" fill="#ADD1B2" rx="13.75" ry="13.75" style="stroke:#A80036;stroke-width:1.25;"/><path d="M88.4375,600.625 Q88.6914,600 88.9844,599.6875 Q89.2773,599.375 89.6094,599.375 Q90.1953,599.375 90.5664,599.7266 Q90.9375,600.0781 90.9375,600.8984 L90.9375,602.8516 Q90.9375,603.6719 90.5859,604.0234 Q90.2344,604.375 89.6875,604.375 Q89.1992,604.375 88.8867,604.1602 Q88.5742,603.9453 88.4375,603.3789 Q88.3789,602.9883 88.1641,602.7734 Q87.7734,602.3633 87.0703,602.1289 Q86.3672,601.875 85.6641,601.875 Q84.7852,601.875 84.043,602.2266 Q83.3203,602.5781 82.7539,603.3594 Q82.1875,604.1406 82.1875,605.2148 L82.1875,606.3672 Q82.1875,607.6563 83.2422,608.5156 Q84.2969,609.375 86.1719,609.375 Q87.2852,609.375 88.0664,609.1211 Q88.5156,608.9844 89.0234,608.5352 Q89.3555,608.2813 89.5313,608.2031 Q89.707,608.125 89.9219,608.125 Q90.332,608.125 90.625,608.457 Q90.9375,608.7695 90.9375,609.2188 Q90.9375,609.6484 90.5078,610.1563 Q89.8828,610.8984 88.8867,611.3086 Q87.5781,611.875 85.9766,611.875 Q84.1016,611.875 82.5977,611.1328 Q81.3867,610.5469 80.5273,609.2773 Q79.6875,608.0078 79.6875,606.5039 L79.6875,605.1367 Q79.6875,603.5742 80.4297,602.207 Q81.1914,600.8398 82.5,600.1172 Q83.8281,599.375 85.3125,599.375 Q86.2109,599.375 86.9922,599.6875 Q87.7734,600 88.4375,600.625 Z " fill="#000000"/><text fill="#000000" font-family="sans-serif" font-size="15" lengthAdjust="spacing" textLength="66.25" x="111.5625" y="611.1377">TestStore</text><line style="stroke:#A80036;stroke-width:1.875;" x1="10" x2="238.75" y1="625" y2="625"/><line style="stroke:#A80036;stroke-width:1.875;" x1="10" x2="238.75" y1="635" y2="635"/><ellipse cx="22.5" cy="648.75" fill="#84BE84" rx="3.75" ry="3.75" style="stroke:#038048;stroke-width:1.25;"/><text fill="#000000" font-family="sans-serif" font-size="13.75" lengthAdjust="spacing" textLength="198.75" x="33.75" y="654.2737">getValidatedTestsByClient(client)</text><ellipse cx="22.5" cy="666.0449" fill="#84BE84" rx="3.75" ry="3.75" style="stroke:#038048;stroke-width:1.25;"/><text fill="#000000" font-family="sans-serif" font-size="13.75" lengthAdjust="spacing" textLength="156.25" x="33.75" y="671.5686">getTestByCode(testCode)</text><!--MD5=[df38be88ccee13e832d6fafd6288a4ca]
class Test--><rect codeLine="54" fill="#FEFECE" filter="url(#f1dy04nszd4oxy)" height="232.9492" id="Test" style="stroke:#A80036;stroke-width:1.875;" width="170" x="39.375" y="777.5"/><ellipse cx="104.0625" cy="797.5" fill="#ADD1B2" rx="13.75" ry="13.75" style="stroke:#A80036;stroke-width:1.25;"/><path d="M106.5625,793.125 Q106.8164,792.5 107.1094,792.1875 Q107.4023,791.875 107.7344,791.875 Q108.3203,791.875 108.6914,792.2266 Q109.0625,792.5781 109.0625,793.3984 L109.0625,795.3516 Q109.0625,796.1719 108.7109,796.5234 Q108.3594,796.875 107.8125,796.875 Q107.3242,796.875 107.0117,796.6602 Q106.6992,796.4453 106.5625,795.8789 Q106.5039,795.4883 106.2891,795.2734 Q105.8984,794.8633 105.1953,794.6289 Q104.4922,794.375 103.7891,794.375 Q102.9102,794.375 102.168,794.7266 Q101.4453,795.0781 100.8789,795.8594 Q100.3125,796.6406 100.3125,797.7148 L100.3125,798.8672 Q100.3125,800.1563 101.3672,801.0156 Q102.4219,801.875 104.2969,801.875 Q105.4102,801.875 106.1914,801.6211 Q106.6406,801.4844 107.1484,801.0352 Q107.4805,800.7813 107.6563,800.7031 Q107.832,800.625 108.0469,800.625 Q108.457,800.625 108.75,800.957 Q109.0625,801.2695 109.0625,801.7188 Q109.0625,802.1484 108.6328,802.6563 Q108.0078,803.3984 107.0117,803.8086 Q105.7031,804.375 104.1016,804.375 Q102.2266,804.375 100.7227,803.6328 Q99.5117,803.0469 98.6523,801.7773 Q97.8125,800.5078 97.8125,799.0039 L97.8125,797.6367 Q97.8125,796.0742 98.5547,794.707 Q99.3164,793.3398 100.625,792.6172 Q101.9531,791.875 103.4375,791.875 Q104.3359,791.875 105.1172,792.1875 Q105.8984,792.5 106.5625,793.125 Z " fill="#000000"/><text fill="#000000" font-family="sans-serif" font-size="15" lengthAdjust="spacing" textLength="30" x="129.6875" y="803.6377">Test</text><line style="stroke:#A80036;stroke-width:1.875;" x1="40.625" x2="208.125" y1="817.5" y2="817.5"/><rect fill="none" height="7.5" style="stroke:#C82930;stroke-width:1.25;" width="7.5" x="49.375" y="827.5"/><text fill="#000000" font-family="sans-serif" font-size="13.75" lengthAdjust="spacing" textLength="53.75" x="64.375" y="836.7737">testCode</text><rect fill="none" height="7.5" style="stroke:#C82930;stroke-width:1.25;" width="7.5" x="49.375" y="844.7949"/><text fill="#000000" font-family="sans-serif" font-size="13.75" lengthAdjust="spacing" textLength="53.75" x="64.375" y="854.0686">nhsCode</text><rect fill="none" height="7.5" style="stroke:#C82930;stroke-width:1.25;" width="7.5" x="49.375" y="862.0898"/><text fill="#000000" font-family="sans-serif" font-size="13.75" lengthAdjust="spacing" textLength="91.25" x="64.375" y="871.3635">dateOfCreation</text><rect fill="none" height="7.5" style="stroke:#C82930;stroke-width:1.25;" width="7.5" x="49.375" y="879.3848"/><text fill="#000000" font-family="sans-serif" font-size="13.75" lengthAdjust="spacing" textLength="66.25" x="64.375" y="888.6584">dateReport</text><rect fill="none" height="7.5" style="stroke:#C82930;stroke-width:1.25;" width="7.5" x="49.375" y="896.6797"/><text fill="#000000" font-family="sans-serif" font-size="13.75" lengthAdjust="spacing" textLength="63.75" x="64.375" y="905.9534">timeReport</text><rect fill="none" height="7.5" style="stroke:#C82930;stroke-width:1.25;" width="7.5" x="49.375" y="913.9746"/><text fill="#000000" font-family="sans-serif" font-size="13.75" lengthAdjust="spacing" textLength="71.25" x="64.375" y="923.2483">dateResults</text><rect fill="none" height="7.5" style="stroke:#C82930;stroke-width:1.25;" width="7.5" x="49.375" y="931.2695"/><text fill="#000000" font-family="sans-serif" font-size="13.75" lengthAdjust="spacing" textLength="68.75" x="64.375" y="940.5432">timeResults</text><rect fill="none" height="7.5" style="stroke:#C82930;stroke-width:1.25;" width="7.5" x="49.375" y="948.5645"/><text fill="#000000" font-family="sans-serif" font-size="13.75" lengthAdjust="spacing" textLength="85" x="64.375" y="957.8381">dateValidation</text><rect fill="none" height="7.5" style="stroke:#C82930;stroke-width:1.25;" width="7.5" x="49.375" y="965.8594"/><text fill="#000000" font-family="sans-serif" font-size="13.75" lengthAdjust="spacing" textLength="82.5" x="64.375" y="975.1331">timeValidation</text><line style="stroke:#A80036;stroke-width:1.875;" x1="40.625" x2="208.125" y1="983.1543" y2="983.1543"/><ellipse cx="53.125" cy="996.9043" fill="#84BE84" rx="3.75" ry="3.75" style="stroke:#038048;stroke-width:1.25;"/><text fill="#000000" font-family="sans-serif" font-size="13.75" lengthAdjust="spacing" textLength="137.5" x="64.375" y="1002.428">getTestParamResults()</text><!--MD5=[144698ec4d0188f6929a3b58a3eeb1f6]
class TestMapper--><rect codeLine="67" fill="#FEFECE" filter="url(#f1dy04nszd4oxy)" height="77.2949" id="TestMapper" style="stroke:#A80036;stroke-width:1.875;" width="125" x="131.875" y="401.25"/><ellipse cx="152.3125" cy="421.25" fill="#ADD1B2" rx="13.75" ry="13.75" style="stroke:#A80036;stroke-width:1.25;"/><path d="M154.8125,416.875 Q155.0664,416.25 155.3594,415.9375 Q155.6523,415.625 155.9844,415.625 Q156.5703,415.625 156.9414,415.9766 Q157.3125,416.3281 157.3125,417.1484 L157.3125,419.1016 Q157.3125,419.9219 156.9609,420.2734 Q156.6094,420.625 156.0625,420.625 Q155.5742,420.625 155.2617,420.4102 Q154.9492,420.1953 154.8125,419.6289 Q154.7539,419.2383 154.5391,419.0234 Q154.1484,418.6133 153.4453,418.3789 Q152.7422,418.125 152.0391,418.125 Q151.1602,418.125 150.418,418.4766 Q149.6953,418.8281 149.1289,419.6094 Q148.5625,420.3906 148.5625,421.4648 L148.5625,422.6172 Q148.5625,423.9063 149.6172,424.7656 Q150.6719,425.625 152.5469,425.625 Q153.6602,425.625 154.4414,425.3711 Q154.8906,425.2344 155.3984,424.7852 Q155.7305,424.5313 155.9063,424.4531 Q156.082,424.375 156.2969,424.375 Q156.707,424.375 157,424.707 Q157.3125,425.0195 157.3125,425.4688 Q157.3125,425.8984 156.8828,426.4063 Q156.2578,427.1484 155.2617,427.5586 Q153.9531,428.125 152.3516,428.125 Q150.4766,428.125 148.9727,427.3828 Q147.7617,426.7969 146.9023,425.5273 Q146.0625,424.2578 146.0625,422.7539 L146.0625,421.3867 Q146.0625,419.8242 146.8047,418.457 Q147.5664,417.0898 148.875,416.3672 Q150.2031,415.625 151.6875,415.625 Q152.5859,415.625 153.3672,415.9375 Q154.1484,416.25 154.8125,416.875 Z " fill="#000000"/><text fill="#000000" font-family="sans-serif" font-size="15" lengthAdjust="spacing" textLength="81.25" x="170.1875" y="427.3877">TestMapper</text><line style="stroke:#A80036;stroke-width:1.875;" x1="133.125" x2="255.625" y1="441.25" y2="441.25"/><line style="stroke:#A80036;stroke-width:1.875;" x1="133.125" x2="255.625" y1="451.25" y2="451.25"/><ellipse cx="145.625" cy="465" fill="#84BE84" rx="3.75" ry="3.75" style="stroke:#038048;stroke-width:1.25;"/><text fill="#000000" font-family="sans-serif" font-size="13.75" lengthAdjust="spacing" textLength="92.5" x="156.875" y="470.5237">toDtoList(tests)</text><!--MD5=[e1b684d3962829f7d15065466104158d]
class TestParamList--><rect codeLine="71" fill="#FEFECE" filter="url(#f1dy04nszd4oxy)" height="77.2949" id="TestParamList" style="stroke:#A80036;stroke-width:1.875;" width="170" x="39.375" y="1116.25"/><ellipse cx="71.0625" cy="1136.25" fill="#ADD1B2" rx="13.75" ry="13.75" style="stroke:#A80036;stroke-width:1.25;"/><path d="M73.5625,1131.875 Q73.8164,1131.25 74.1094,1130.9375 Q74.4023,1130.625 74.7344,1130.625 Q75.3203,1130.625 75.6914,1130.9766 Q76.0625,1131.3281 76.0625,1132.1484 L76.0625,1134.1016 Q76.0625,1134.9219 75.7109,1135.2734 Q75.3594,1135.625 74.8125,1135.625 Q74.3242,1135.625 74.0117,1135.4102 Q73.6992,1135.1953 73.5625,1134.6289 Q73.5039,1134.2383 73.2891,1134.0234 Q72.8984,1133.6133 72.1953,1133.3789 Q71.4922,1133.125 70.7891,1133.125 Q69.9102,1133.125 69.168,1133.4766 Q68.4453,1133.8281 67.8789,1134.6094 Q67.3125,1135.3906 67.3125,1136.4648 L67.3125,1137.6172 Q67.3125,1138.9063 68.3672,1139.7656 Q69.4219,1140.625 71.2969,1140.625 Q72.4102,1140.625 73.1914,1140.3711 Q73.6406,1140.2344 74.1484,1139.7852 Q74.4805,1139.5313 74.6563,1139.4531 Q74.832,1139.375 75.0469,1139.375 Q75.457,1139.375 75.75,1139.707 Q76.0625,1140.0195 76.0625,1140.4688 Q76.0625,1140.8984 75.6328,1141.4063 Q75.0078,1142.1484 74.0117,1142.5586 Q72.7031,1143.125 71.1016,1143.125 Q69.2266,1143.125 67.7227,1142.3828 Q66.5117,1141.7969 65.6523,1140.5273 Q64.8125,1139.2578 64.8125,1137.7539 L64.8125,1136.3867 Q64.8125,1134.8242 65.5547,1133.457 Q66.3164,1132.0898 67.625,1131.3672 Q68.9531,1130.625 70.4375,1130.625 Q71.3359,1130.625 72.1172,1130.9375 Q72.8984,1131.25 73.5625,1131.875 Z " fill="#000000"/><text fill="#000000" font-family="sans-serif" font-size="15" lengthAdjust="spacing" textLength="101.25" x="91.4375" y="1142.3877">TestParamList</text><line style="stroke:#A80036;stroke-width:1.875;" x1="40.625" x2="208.125" y1="1156.25" y2="1156.25"/><line style="stroke:#A80036;stroke-width:1.875;" x1="40.625" x2="208.125" y1="1166.25" y2="1166.25"/><ellipse cx="53.125" cy="1180" fill="#84BE84" rx="3.75" ry="3.75" style="stroke:#038048;stroke-width:1.25;"/><text fill="#000000" font-family="sans-serif" font-size="13.75" lengthAdjust="spacing" textLength="137.5" x="64.375" y="1185.5237">getTestParamResults()</text><!--MD5=[0f07739f46effee96e095e9c408da841]
class TestParameter--><rect codeLine="75" fill="#FEFECE" filter="url(#f1dy04nszd4oxy)" height="77.2949" id="TestParameter" style="stroke:#A80036;stroke-width:1.875;" width="162.5" x="43.125" y="1300"/><ellipse cx="70.875" cy="1320" fill="#ADD1B2" rx="13.75" ry="13.75" style="stroke:#A80036;stroke-width:1.25;"/><path d="M73.375,1315.625 Q73.6289,1315 73.9219,1314.6875 Q74.2148,1314.375 74.5469,1314.375 Q75.1328,1314.375 75.5039,1314.7266 Q75.875,1315.0781 75.875,1315.8984 L75.875,1317.8516 Q75.875,1318.6719 75.5234,1319.0234 Q75.1719,1319.375 74.625,1319.375 Q74.1367,1319.375 73.8242,1319.1602 Q73.5117,1318.9453 73.375,1318.3789 Q73.3164,1317.9883 73.1016,1317.7734 Q72.7109,1317.3633 72.0078,1317.1289 Q71.3047,1316.875 70.6016,1316.875 Q69.7227,1316.875 68.9805,1317.2266 Q68.2578,1317.5781 67.6914,1318.3594 Q67.125,1319.1406 67.125,1320.2148 L67.125,1321.3672 Q67.125,1322.6563 68.1797,1323.5156 Q69.2344,1324.375 71.1094,1324.375 Q72.2227,1324.375 73.0039,1324.1211 Q73.4531,1323.9844 73.9609,1323.5352 Q74.293,1323.2813 74.4688,1323.2031 Q74.6445,1323.125 74.8594,1323.125 Q75.2695,1323.125 75.5625,1323.457 Q75.875,1323.7695 75.875,1324.2188 Q75.875,1324.6484 75.4453,1325.1563 Q74.8203,1325.8984 73.8242,1326.3086 Q72.5156,1326.875 70.9141,1326.875 Q69.0391,1326.875 67.5352,1326.1328 Q66.3242,1325.5469 65.4648,1324.2773 Q64.625,1323.0078 64.625,1321.5039 L64.625,1320.1367 Q64.625,1318.5742 65.3672,1317.207 Q66.1289,1315.8398 67.4375,1315.1172 Q68.7656,1314.375 70.25,1314.375 Q71.1484,1314.375 71.9297,1314.6875 Q72.7109,1315 73.375,1315.625 Z " fill="#000000"/><text fill="#000000" font-family="sans-serif" font-size="15" lengthAdjust="spacing" textLength="102.5" x="90.375" y="1326.1377">TestParameter</text><line style="stroke:#A80036;stroke-width:1.875;" x1="44.375" x2="204.375" y1="1340" y2="1340"/><line style="stroke:#A80036;stroke-width:1.875;" x1="44.375" x2="204.375" y1="1350" y2="1350"/><ellipse cx="56.875" cy="1363.75" fill="#84BE84" rx="3.75" ry="3.75" style="stroke:#038048;stroke-width:1.25;"/><text fill="#000000" font-family="sans-serif" font-size="13.75" lengthAdjust="spacing" textLength="130" x="68.125" y="1369.2737">getTestParamResult()</text><!--MD5=[4e608140b854dae633589343bce77383]
class TestParameterResult--><rect codeLine="79" fill="#FEFECE" filter="url(#f1dy04nszd4oxy)" height="111.8848" id="TestParameterResult" style="stroke:#A80036;stroke-width:1.875;" width="187.5" x="30.625" y="1475"/><ellipse cx="49.375" cy="1495" fill="#ADD1B2" rx="13.75" ry="13.75" style="stroke:#A80036;stroke-width:1.25;"/><path d="M51.875,1490.625 Q52.1289,1490 52.4219,1489.6875 Q52.7148,1489.375 53.0469,1489.375 Q53.6328,1489.375 54.0039,1489.7266 Q54.375,1490.0781 54.375,1490.8984 L54.375,1492.8516 Q54.375,1493.6719 54.0234,1494.0234 Q53.6719,1494.375 53.125,1494.375 Q52.6367,1494.375 52.3242,1494.1602 Q52.0117,1493.9453 51.875,1493.3789 Q51.8164,1492.9883 51.6016,1492.7734 Q51.2109,1492.3633 50.5078,1492.1289 Q49.8047,1491.875 49.1016,1491.875 Q48.2227,1491.875 47.4805,1492.2266 Q46.7578,1492.5781 46.1914,1493.3594 Q45.625,1494.1406 45.625,1495.2148 L45.625,1496.3672 Q45.625,1497.6563 46.6797,1498.5156 Q47.7344,1499.375 49.6094,1499.375 Q50.7227,1499.375 51.5039,1499.1211 Q51.9531,1498.9844 52.4609,1498.5352 Q52.793,1498.2813 52.9688,1498.2031 Q53.1445,1498.125 53.3594,1498.125 Q53.7695,1498.125 54.0625,1498.457 Q54.375,1498.7695 54.375,1499.2188 Q54.375,1499.6484 53.9453,1500.1563 Q53.3203,1500.8984 52.3242,1501.3086 Q51.0156,1501.875 49.4141,1501.875 Q47.5391,1501.875 46.0352,1501.1328 Q44.8242,1500.5469 43.9648,1499.2773 Q43.125,1498.0078 43.125,1496.5039 L43.125,1495.1367 Q43.125,1493.5742 43.8672,1492.207 Q44.6289,1490.8398 45.9375,1490.1172 Q47.2656,1489.375 48.75,1489.375 Q49.6484,1489.375 50.4297,1489.6875 Q51.2109,1490 51.875,1490.625 Z " fill="#000000"/><text fill="#000000" font-family="sans-serif" font-size="15" lengthAdjust="spacing" textLength="147.5" x="66.875" y="1501.1377">TestParameterResult</text><line style="stroke:#A80036;stroke-width:1.875;" x1="31.875" x2="216.875" y1="1515" y2="1515"/><rect fill="none" height="7.5" style="stroke:#C82930;stroke-width:1.25;" width="7.5" x="40.625" y="1525"/><text fill="#000000" font-family="sans-serif" font-size="13.75" lengthAdjust="spacing" textLength="32.5" x="55.625" y="1534.2737">value</text><rect fill="none" height="7.5" style="stroke:#C82930;stroke-width:1.25;" width="7.5" x="40.625" y="1542.2949"/><text fill="#000000" font-family="sans-serif" font-size="13.75" lengthAdjust="spacing" textLength="36.25" x="55.625" y="1551.5686">metric</text><rect fill="none" height="7.5" style="stroke:#C82930;stroke-width:1.25;" width="7.5" x="40.625" y="1559.5898"/><text fill="#000000" font-family="sans-serif" font-size="13.75" lengthAdjust="spacing" textLength="52.5" x="55.625" y="1568.8635">refValue</text><line style="stroke:#A80036;stroke-width:1.875;" x1="31.875" x2="216.875" y1="1576.8848" y2="1576.8848"/><!--MD5=[9fb704ffefcaf68bf1a361787afa998b]
class TestDTO--><rect fill="#FEFECE" filter="url(#f1dy04nszd4oxy)" height="60" id="TestDTO" style="stroke:#A80036;stroke-width:1.875;" width="101.25" x="138.75" y="295"/><ellipse cx="157.5" cy="315" fill="#ADD1B2" rx="13.75" ry="13.75" style="stroke:#A80036;stroke-width:1.25;"/><path d="M160,310.625 Q160.2539,310 160.5469,309.6875 Q160.8398,309.375 161.1719,309.375 Q161.7578,309.375 162.1289,309.7266 Q162.5,310.0781 162.5,310.8984 L162.5,312.8516 Q162.5,313.6719 162.1484,314.0234 Q161.7969,314.375 161.25,314.375 Q160.7617,314.375 160.4492,314.1602 Q160.1367,313.9453 160,313.3789 Q159.9414,312.9883 159.7266,312.7734 Q159.3359,312.3633 158.6328,312.1289 Q157.9297,311.875 157.2266,311.875 Q156.3477,311.875 155.6055,312.2266 Q154.8828,312.5781 154.3164,313.3594 Q153.75,314.1406 153.75,315.2148 L153.75,316.3672 Q153.75,317.6563 154.8047,318.5156 Q155.8594,319.375 157.7344,319.375 Q158.8477,319.375 159.6289,319.1211 Q160.0781,318.9844 160.5859,318.5352 Q160.918,318.2813 161.0938,318.2031 Q161.2695,318.125 161.4844,318.125 Q161.8945,318.125 162.1875,318.457 Q162.5,318.7695 162.5,319.2188 Q162.5,319.6484 162.0703,320.1563 Q161.4453,320.8984 160.4492,321.3086 Q159.1406,321.875 157.5391,321.875 Q155.6641,321.875 154.1602,321.1328 Q152.9492,320.5469 152.0898,319.2773 Q151.25,318.0078 151.25,316.5039 L151.25,315.1367 Q151.25,313.5742 151.9922,312.207 Q152.7539,310.8398 154.0625,310.1172 Q155.3906,309.375 156.875,309.375 Q157.7734,309.375 158.5547,309.6875 Q159.3359,310 160,310.625 Z " fill="#000000"/><text fill="#000000" font-family="sans-serif" font-size="15" lengthAdjust="spacing" textLength="61.25" x="175" y="321.1377">TestDTO</text><line style="stroke:#A80036;stroke-width:1.875;" x1="140" x2="238.75" y1="335" y2="335"/><line style="stroke:#A80036;stroke-width:1.875;" x1="140" x2="238.75" y1="345" y2="345"/><!--MD5=[e5dd38565a41da4a9b6fe493e26c0952]
link ShowClientListUI to ShowClientListController--><path codeLine="85" d="M698.75,68.975 C688.2875,88.4 674.1,114.7125 661.1875,138.6625 " fill="none" id="ShowClientListUI-to-ShowClientListController" style="stroke:#A80036;stroke-width:1.25;stroke-dasharray:7.0,7.0;"/><polygon fill="#A80036" points="657.9375,144.7,667.6764,137.169,660.9028,139.1982,658.8735,132.4246,657.9375,144.7" style="stroke:#A80036;stroke-width:1.25;"/><!--MD5=[1f5f33765d8ead2beff9cbba0ee199fa]
link ShowClientListController to Company--><path codeLine="86" d="M536.4625,257.5875 C519.7375,269.1375 502.925,281.8375 488.125,295 C456.9875,322.6875 426.7625,358.5 404.2875,387.45 " fill="none" id="ShowClientListController-to-Company" style="stroke:#A80036;stroke-width:1.25;stroke-dasharray:7.0,7.0;"/><polygon fill="#A80036" points="400.4625,392.4,411.2971,386.5542,404.2835,387.4541,403.3836,380.4405,400.4625,392.4" style="stroke:#A80036;stroke-width:1.25;"/><!--MD5=[2d928a4ccf09be1cbe7266eea8659e8e]
link ShowClientListController to Sortable--><path codeLine="87" d="M586.875,257.55 C556.55,303.5125 520.625,372.0625 520.625,438.75 C520.625,438.75 520.625,438.75 520.625,895 C520.625,967.3 503.3625,1049.3 490.225,1101.25 " fill="none" id="ShowClientListController-to-Sortable" style="stroke:#A80036;stroke-width:1.25;stroke-dasharray:7.0,7.0;"/><polygon fill="#A80036" points="488.6375,1107.425,496.2771,1097.771,490.1911,1101.3712,486.591,1095.2852,488.6375,1107.425" style="stroke:#A80036;stroke-width:1.25;"/><!--MD5=[b3b35689f5ad0369252aabd3e6df91d4]
link ShowClientListController to ClientMapper--><path codeLine="88" d="M635.75,257.8875 C641.475,299.5375 649.2125,355.825 654.5375,394.4875 " fill="none" id="ShowClientListController-to-ClientMapper" style="stroke:#A80036;stroke-width:1.25;stroke-dasharray:7.0,7.0;"/><polygon fill="#A80036" points="655.4375,401.0125,658.8488,389.1835,654.5811,394.8215,648.9431,390.5537,655.4375,401.0125" style="stroke:#A80036;stroke-width:1.25;"/><!--MD5=[fb80997dfccd358263345c5fb9d0bb1c]
link Client to Sortable--><path codeLine="89" d="M418.225,993.1875 C431.35,1029.9125 445.7625,1070.2 456.85,1101.2375 " fill="none" id="Client-to-Sortable" style="stroke:#A80036;stroke-width:1.25;"/><polygon fill="#A80036" points="459.025,1107.3125,459.9782,1095.0384,456.9365,1101.4218,450.5531,1098.38,459.025,1107.3125" style="stroke:#A80036;stroke-width:1.25;"/><text fill="#000000" font-family="sans-serif" font-size="16.25" lengthAdjust="spacing" textLength="12.5" x="443.125" y="1065.6189">is</text><!--MD5=[1d934105a045dbf126514c6917bd5072]
link ClientStore to Client--><path codeLine="90" d="M371.8375,680.0125 C373.425,709.9625 375.5625,750.225 377.55,787.65 " fill="none" id="ClientStore-to-Client" style="stroke:#A80036;stroke-width:1.25;"/><polygon fill="#A80036" points="377.9,794.1125,382.3156,782.6205,377.579,787.8707,372.3288,783.1342,377.9,794.1125" style="stroke:#A80036;stroke-width:1.25;"/><text fill="#000000" font-family="sans-serif" font-size="16.25" lengthAdjust="spacing" textLength="61.25" x="375.625" y="735.6189">contains</text><!--MD5=[af3939234646809cec66923e43961aa6]
link ClientMapper to ClientDTO--><path codeLine="91" d="M678.9,478.7875 C695.55,513 719.9625,563.125 736.1875,596.45 " fill="none" id="ClientMapper-to-ClientDTO" style="stroke:#A80036;stroke-width:1.25;stroke-dasharray:7.0,7.0;"/><polygon fill="#A80036" points="739.1125,602.475,738.6633,590.1721,736.3674,596.8601,729.6795,594.5642,739.1125,602.475" style="stroke:#A80036;stroke-width:1.25;"/><!--MD5=[e3becc2bb96a50c6696e468fb796f171]
link ShowClientListUI to ClientDTO--><path codeLine="92" d="M729.125,69 C738.775,89.6125 750.4875,118.2625 755.625,145 C787.525,311.1125 767.95,515.075 757.95,595.875 " fill="none" id="ShowClientListUI-to-ClientDTO" style="stroke:#A80036;stroke-width:1.25;stroke-dasharray:7.0,7.0;"/><polygon fill="#A80036" points="757.125,602.3875,763.4706,591.8378,757.8936,596.1849,753.5465,590.608,757.125,602.3875" style="stroke:#A80036;stroke-width:1.25;"/><!--MD5=[fab6bfd86166fcebf1ee3273b0f36b6a]
link ShowTestResultsUI to ShowTestResultsController--><path codeLine="93" d="M262.8125,68.975 C283.7125,96.275 315.025,137.175 337.1,166 " fill="none" id="ShowTestResultsUI-to-ShowTestResultsController" style="stroke:#A80036;stroke-width:1.25;stroke-dasharray:7.0,7.0;"/><polygon fill="#A80036" points="341.1,171.2375,338.206,159.2714,337.2902,166.2829,330.2787,165.3671,341.1,171.2375" style="stroke:#A80036;stroke-width:1.25;"/><!--MD5=[2e82f276e6f223f04b14e6b1e6626556]
link ShowTestResultsUI to TestDTO--><path codeLine="94" d="M235.425,68.775 C225.975,121.1375 205.975,231.8375 195.725,288.5875 " fill="none" id="ShowTestResultsUI-to-TestDTO" style="stroke:#A80036;stroke-width:1.25;stroke-dasharray:7.0,7.0;"/><polygon fill="#A80036" points="194.5875,294.9,201.4985,284.7118,195.693,288.7485,191.6562,282.943,194.5875,294.9" style="stroke:#A80036;stroke-width:1.25;"/><!--MD5=[c9ff0204332d4ce713ee04e3bc44c00b]
link ShowTestResultsController to TestMapper--><path codeLine="95" d="M344.8625,231.7125 C325.1625,262.8125 292.4875,313.2125 261.875,355 C251.9375,368.5625 240.6375,382.95 230.1625,395.9 " fill="none" id="ShowTestResultsController-to-TestMapper" style="stroke:#A80036;stroke-width:1.25;stroke-dasharray:7.0,7.0;"/><polygon fill="#A80036" points="226.05,400.975,237.0247,395.3967,229.9912,396.1243,229.2636,389.0908,226.05,400.975" style="stroke:#A80036;stroke-width:1.25;"/><!--MD5=[ee5c0188dc609cecc56a050eae12090c]
reverse link TestDTO to TestMapper--><path codeLine="96" d="M190.95,361.6 C191.5,374.125 192.125,388.25 192.7,400.9625 " fill="none" id="TestDTO-backto-TestMapper" style="stroke:#A80036;stroke-width:1.25;stroke-dasharray:7.0,7.0;"/><polygon fill="#A80036" points="190.6625,355.225,186.1815,366.6916,190.9479,361.4685,196.171,366.2349,190.6625,355.225" style="stroke:#A80036;stroke-width:1.25;"/><!--MD5=[90379deed2c67a22dbc4f168ed58b3c7]
link ShowTestResultsController to Company--><path codeLine="97" d="M363.5875,231.475 C364.2,269.9125 365.2875,338.475 366.0375,386.1625 " fill="none" id="ShowTestResultsController-to-Company" style="stroke:#A80036;stroke-width:1.25;stroke-dasharray:7.0,7.0;"/><polygon fill="#A80036" points="366.1375,392.4625,370.9439,381.1285,366.0304,386.2134,360.9454,381.2999,366.1375,392.4625" style="stroke:#A80036;stroke-width:1.25;"/><!--MD5=[a11230341c8e65219708844feaa40162]
link Company to ClientStore--><path codeLine="98" d="M367.4875,487.725 C367.85,515.2 368.3125,550.075 368.6875,578.575 " fill="none" id="Company-to-ClientStore" style="stroke:#A80036;stroke-width:1.25;"/><polygon fill="#A80036" points="368.7625,584.925,373.6013,573.6047,368.6732,578.6756,363.6023,573.7476,368.7625,584.925" style="stroke:#A80036;stroke-width:1.25;"/><text fill="#000000" font-family="sans-serif" font-size="16.25" lengthAdjust="spacing" textLength="35" x="369.375" y="543.1189">uses</text><!--MD5=[7f6cf7f175eae0af66201860de5de971]
link Company to TestStore--><path codeLine="99" d="M307.55,487.725 C271.6,515.9 225.725,551.8375 188.875,580.7125 " fill="none" id="Company-to-TestStore" style="stroke:#A80036;stroke-width:1.25;"/><polygon fill="#A80036" points="183.5,584.925,195.4357,581.908,188.4151,581.0644,189.2587,574.0438,183.5,584.925" style="stroke:#A80036;stroke-width:1.25;"/><text fill="#000000" font-family="sans-serif" font-size="16.25" lengthAdjust="spacing" textLength="35" x="253.125" y="543.1189">uses</text><!--MD5=[b0f4f6db8206580012ef9cd998ed01c5]
link TestStore to Test--><path codeLine="100" d="M124.375,680.0125 C124.375,705.4875 124.375,738.4375 124.375,770.75 " fill="none" id="TestStore-to-Test" style="stroke:#A80036;stroke-width:1.25;"/><polygon fill="#A80036" points="124.375,777.2,129.375,765.95,124.375,770.95,119.375,765.95,124.375,777.2" style="stroke:#A80036;stroke-width:1.25;"/><text fill="#000000" font-family="sans-serif" font-size="16.25" lengthAdjust="spacing" textLength="61.25" x="125.625" y="735.6189">contains</text><!--MD5=[2c91f88199f54fc4797874c7092f4fe3]
link Test to TestParamList--><path codeLine="101" d="M124.375,1010.375 C124.375,1045.5625 124.375,1082.1375 124.375,1109.55 " fill="none" id="Test-to-TestParamList" style="stroke:#A80036;stroke-width:1.25;"/><polygon fill="#A80036" points="124.375,1115.95,129.375,1104.7,124.375,1109.7,119.375,1104.7,124.375,1115.95" style="stroke:#A80036;stroke-width:1.25;"/><text fill="#000000" font-family="sans-serif" font-size="16.25" lengthAdjust="spacing" textLength="35" x="125.625" y="1065.6189">uses</text><!--MD5=[7dcd1600b6e42663b3fea3bcea44895b]
link TestParamList to TestParameter--><path codeLine="102" d="M124.375,1193.8 C124.375,1222.85 124.375,1263.1125 124.375,1293.6375 " fill="none" id="TestParamList-to-TestParameter" style="stroke:#A80036;stroke-width:1.25;"/><polygon fill="#A80036" points="124.375,1299.9875,129.375,1288.7375,124.375,1293.7375,119.375,1288.7375,124.375,1299.9875" style="stroke:#A80036;stroke-width:1.25;"/><text fill="#000000" font-family="sans-serif" font-size="16.25" lengthAdjust="spacing" textLength="61.25" x="125.625" y="1258.1189">contains</text><!--MD5=[0e00e25ac6b8c14659aaff2cf7e5df08]
link TestParameter to TestParameterResult--><path codeLine="103" d="M124.375,1377.5375 C124.375,1403.4875 124.375,1438.6 124.375,1468.5875 " fill="none" id="TestParameter-to-TestParameterResult" style="stroke:#A80036;stroke-width:1.25;"/><polygon fill="#A80036" points="124.375,1474.9,129.375,1463.65,124.375,1468.65,119.375,1463.65,124.375,1474.9" style="stroke:#A80036;stroke-width:1.25;"/><text fill="#000000" font-family="sans-serif" font-size="16.25" lengthAdjust="spacing" textLength="61.25" x="125.625" y="1433.1189">contains</text><!--MD5=[857ae98f7d2cc788678260b8418bdbe9]
@startuml

class ShowClientListUI

class ShowClientListController{
+getClientList()
+getClientTestList()
+displayTestResults(testCode)


}

class Client {
- name
- cardNumber
- nhsId
- dateBirth
- TIN
- phoneNumber
- email
- sex
}

class Company{
-designation

+getClientStore()
}

interface Sortable{
+sortByTin(clientList)
+sortByName(clientList)
}

class ClientStore {
+ getClientByEmail(email)
+ getClientList()
}

class ClientMapper{
+ toDtoList(clientList)
}

class ClientDTO

class ShowTestResultsUI

class ShowTestResultsController

class TestStore {
+ getValidatedTestsByClient(client)
+ getTestByCode(testCode)
}

class Test {
- testCode
- nhsCode
- dateOfCreation
- dateReport
- timeReport
- dateResults
- timeResults
- dateValidation
- timeValidation
+ getTestParamResults()
}

class TestMapper {
+ toDtoList(tests)
}

class TestParamList {
+ getTestParamResults()
}

class TestParameter {
+ getTestParamResult()
}

class TestParameterResult {
- value
- metric
- refValue
}

ShowClientListUI ..> ShowClientListController
ShowClientListController ..> Company
ShowClientListController ..> Sortable
ShowClientListController ..> ClientMapper
Client - -> Sortable : is
ClientStore - -> Client : contains
ClientMapper ..> ClientDTO
ShowClientListUI ..> ClientDTO
ShowTestResultsUI ..> ShowTestResultsController
ShowTestResultsUI ..> TestDTO
ShowTestResultsController ..> TestMapper
TestMapper .left.> TestDTO
ShowTestResultsController ..> Company
Company - -> ClientStore : uses
Company - -> TestStore : uses
TestStore - -> Test : contains
Test - -> TestParamList : uses
TestParamList - -> TestParameter : contains
TestParameter - -> TestParameterResult : contains

@enduml

PlantUML version 1.2021.5(Sun Apr 25 12:20:28 BST 2021)
(GPL source distribution)
Java Runtime: OpenJDK Runtime Environment
JVM: OpenJDK 64-Bit Server VM
Default Encoding: Cp1252
Language: pt
Country: PT
--></g></svg>