<?xml version="1.0" encoding="UTF-8" standalone="no"?><svg xmlns="http://www.w3.org/2000/svg" xmlns:xlink="http://www.w3.org/1999/xlink" contentScriptType="application/ecmascript" contentStyleType="text/css" height="1603.75px" preserveAspectRatio="none" style="width:843px;height:1603px;" version="1.1" viewBox="0 0 843 1603" width="843.75px" zoomAndPan="magnify"><defs><filter height="300%" id="f4uii8t3ox6kv" width="300%" x="-1" y="-1"><feGaussianBlur result="blurOut" stdDeviation="2.5"/><feColorMatrix in="blurOut" result="blurOut2" type="matrix" values="0 0 0 0 0 0 0 0 0 0 0 0 0 0 0 0 0 0 .4 0"/><feOffset dx="5.0" dy="5.0" in="blurOut2" result="blurOut3"/><feBlend in="SourceGraphic" in2="blurOut3" mode="normal"/></filter></defs><g><!--MD5=[dbcc6281aab730d2e9d25b9443712d49]
class ShowClientListUI--><rect codeLine="2" fill="#FEFECE" filter="url(#f4uii8t3ox6kv)" height="60" id="ShowClientListUI" style="stroke:#A80036;stroke-width:1.875;" width="158.75" x="652.5" y="8.75"/><ellipse cx="671.25" cy="28.75" fill="#ADD1B2" rx="13.75" ry="13.75" style="stroke:#A80036;stroke-width:1.25;"/><path d="M673.75,24.375 Q674.0039,23.75 674.2969,23.4375 Q674.5898,23.125 674.9219,23.125 Q675.5078,23.125 675.8789,23.4766 Q676.25,23.8281 676.25,24.6484 L676.25,26.6016 Q676.25,27.4219 675.8984,27.7734 Q675.5469,28.125 675,28.125 Q674.5117,28.125 674.1992,27.9102 Q673.8867,27.6953 673.75,27.1289 Q673.6914,26.7383 673.4766,26.5234 Q673.0859,26.1133 672.3828,25.8789 Q671.6797,25.625 670.9766,25.625 Q670.0977,25.625 669.3555,25.9766 Q668.6328,26.3281 668.0664,27.1094 Q667.5,27.8906 667.5,28.9648 L667.5,30.1172 Q667.5,31.4063 668.5547,32.2656 Q669.6094,33.125 671.4844,33.125 Q672.5977,33.125 673.3789,32.8711 Q673.8281,32.7344 674.3359,32.2852 Q674.668,32.0313 674.8438,31.9531 Q675.0195,31.875 675.2344,31.875 Q675.6445,31.875 675.9375,32.207 Q676.25,32.5195 676.25,32.9688 Q676.25,33.3984 675.8203,33.9063 Q675.1953,34.6484 674.1992,35.0586 Q672.8906,35.625 671.2891,35.625 Q669.4141,35.625 667.9102,34.8828 Q666.6992,34.2969 665.8398,33.0273 Q665,31.7578 665,30.2539 L665,28.8867 Q665,27.3242 665.7422,25.957 Q666.5039,24.5898 667.8125,23.8672 Q669.1406,23.125 670.625,23.125 Q671.5234,23.125 672.3047,23.4375 Q673.0859,23.75 673.75,24.375 Z " fill="#000000"/><text fill="#000000" font-family="sans-serif" font-size="15" lengthAdjust="spacing" textLength="118.75" x="688.75" y="34.8877">ShowClientListUI</text><line style="stroke:#A80036;stroke-width:1.875;" x1="653.75" x2="810" y1="48.75" y2="48.75"/><line style="stroke:#A80036;stroke-width:1.875;" x1="653.75" x2="810" y1="58.75" y2="58.75"/><!--MD5=[68edf0334f3bda7292986e6ceb9510de]
class ShowClientListController--><rect codeLine="4" fill="#FEFECE" filter="url(#f4uii8t3ox6kv)" height="111.8848" id="ShowClientListController" style="stroke:#A80036;stroke-width:1.875;" width="211.25" x="538.75" y="145"/><ellipse cx="557.5" cy="165" fill="#ADD1B2" rx="13.75" ry="13.75" style="stroke:#A80036;stroke-width:1.25;"/><path d="M560,160.625 Q560.2539,160 560.5469,159.6875 Q560.8398,159.375 561.1719,159.375 Q561.7578,159.375 562.1289,159.7266 Q562.5,160.0781 562.5,160.8984 L562.5,162.8516 Q562.5,163.6719 562.1484,164.0234 Q561.7969,164.375 561.25,164.375 Q560.7617,164.375 560.4492,164.1602 Q560.1367,163.9453 560,163.3789 Q559.9414,162.9883 559.7266,162.7734 Q559.3359,162.3633 558.6328,162.1289 Q557.9297,161.875 557.2266,161.875 Q556.3477,161.875 555.6055,162.2266 Q554.8828,162.5781 554.3164,163.3594 Q553.75,164.1406 553.75,165.2148 L553.75,166.3672 Q553.75,167.6563 554.8047,168.5156 Q555.8594,169.375 557.7344,169.375 Q558.8477,169.375 559.6289,169.1211 Q560.0781,168.9844 560.5859,168.5352 Q560.918,168.2813 561.0938,168.2031 Q561.2695,168.125 561.4844,168.125 Q561.8945,168.125 562.1875,168.457 Q562.5,168.7695 562.5,169.2188 Q562.5,169.6484 562.0703,170.1563 Q561.4453,170.8984 560.4492,171.3086 Q559.1406,171.875 557.5391,171.875 Q555.6641,171.875 554.1602,171.1328 Q552.9492,170.5469 552.0898,169.2773 Q551.25,168.0078 551.25,166.5039 L551.25,165.1367 Q551.25,163.5742 551.9922,162.207 Q552.7539,160.8398 554.0625,160.1172 Q555.3906,159.375 556.875,159.375 Q557.7734,159.375 558.5547,159.6875 Q559.3359,160 560,160.625 Z " fill="#000000"/><text fill="#000000" font-family="sans-serif" font-size="15" lengthAdjust="spacing" textLength="171.25" x="575" y="171.1377">ShowClientListController</text><line style="stroke:#A80036;stroke-width:1.875;" x1="540" x2="748.75" y1="185" y2="185"/><line style="stroke:#A80036;stroke-width:1.875;" x1="540" x2="748.75" y1="195" y2="195"/><ellipse cx="552.5" cy="208.75" fill="#84BE84" rx="3.75" ry="3.75" style="stroke:#038048;stroke-width:1.25;"/><text fill="#000000" font-family="sans-serif" font-size="13.75" lengthAdjust="spacing" textLength="82.5" x="563.75" y="214.2737">getClientList()</text><ellipse cx="552.5" cy="226.0449" fill="#84BE84" rx="3.75" ry="3.75" style="stroke:#038048;stroke-width:1.25;"/><text fill="#000000" font-family="sans-serif" font-size="13.75" lengthAdjust="spacing" textLength="108.75" x="563.75" y="231.5686">getClientTestList()</text><ellipse cx="552.5" cy="243.3398" fill="#84BE84" rx="3.75" ry="3.75" style="stroke:#038048;stroke-width:1.25;"/><text fill="#000000" font-family="sans-serif" font-size="13.75" lengthAdjust="spacing" textLength="177.5" x="563.75" y="248.8635">displayTestResults(testCode)</text><!--MD5=[ed6624c6556d5e7b1bd23032162d20b7]
class Client--><rect codeLine="12" fill="#FEFECE" filter="url(#f4uii8t3ox6kv)" height="198.3594" id="Client" style="stroke:#A80036;stroke-width:1.875;" width="116.25" x="337.5" y="794.375"/><ellipse cx="372.5625" cy="814.375" fill="#ADD1B2" rx="13.75" ry="13.75" style="stroke:#A80036;stroke-width:1.25;"/><path d="M375.0625,810 Q375.3164,809.375 375.6094,809.0625 Q375.9023,808.75 376.2344,808.75 Q376.8203,808.75 377.1914,809.1016 Q377.5625,809.4531 377.5625,810.2734 L377.5625,812.2266 Q377.5625,813.0469 377.2109,813.3984 Q376.8594,813.75 376.3125,813.75 Q375.8242,813.75 375.5117,813.5352 Q375.1992,813.3203 375.0625,812.7539 Q375.0039,812.3633 374.7891,812.1484 Q374.3984,811.7383 373.6953,811.5039 Q372.9922,811.25 372.2891,811.25 Q371.4102,811.25 370.668,811.6016 Q369.9453,811.9531 369.3789,812.7344 Q368.8125,813.5156 368.8125,814.5898 L368.8125,815.7422 Q368.8125,817.0313 369.8672,817.8906 Q370.9219,818.75 372.7969,818.75 Q373.9102,818.75 374.6914,818.4961 Q375.1406,818.3594 375.6484,817.9102 Q375.9805,817.6563 376.1563,817.5781 Q376.332,817.5 376.5469,817.5 Q376.957,817.5 377.25,817.832 Q377.5625,818.1445 377.5625,818.5938 Q377.5625,819.0234 377.1328,819.5313 Q376.5078,820.2734 375.5117,820.6836 Q374.2031,821.25 372.6016,821.25 Q370.7266,821.25 369.2227,820.5078 Q368.0117,819.9219 367.1523,818.6523 Q366.3125,817.3828 366.3125,815.8789 L366.3125,814.5117 Q366.3125,812.9492 367.0547,811.582 Q367.8164,810.2148 369.125,809.4922 Q370.4531,808.75 371.9375,808.75 Q372.8359,808.75 373.6172,809.0625 Q374.3984,809.375 375.0625,810 Z " fill="#000000"/><text fill="#000000" font-family="sans-serif" font-size="15" lengthAdjust="spacing" textLength="40" x="393.6875" y="820.5127">Client</text><line style="stroke:#A80036;stroke-width:1.875;" x1="338.75" x2="452.5" y1="834.375" y2="834.375"/><rect fill="none" height="7.5" style="stroke:#C82930;stroke-width:1.25;" width="7.5" x="347.5" y="844.375"/><text fill="#000000" font-family="sans-serif" font-size="13.75" lengthAdjust="spacing" textLength="32.5" x="362.5" y="853.6487">name</text><rect fill="none" height="7.5" style="stroke:#C82930;stroke-width:1.25;" width="7.5" x="347.5" y="861.6699"/><text fill="#000000" font-family="sans-serif" font-size="13.75" lengthAdjust="spacing" textLength="73.75" x="362.5" y="870.9436">cardNumber</text><rect fill="none" height="7.5" style="stroke:#C82930;stroke-width:1.25;" width="7.5" x="347.5" y="878.9648"/><text fill="#000000" font-family="sans-serif" font-size="13.75" lengthAdjust="spacing" textLength="32.5" x="362.5" y="888.2385">nhsId</text><rect fill="none" height="7.5" style="stroke:#C82930;stroke-width:1.25;" width="7.5" x="347.5" y="896.2598"/><text fill="#000000" font-family="sans-serif" font-size="13.75" lengthAdjust="spacing" textLength="53.75" x="362.5" y="905.5334">dateBirth</text><rect fill="none" height="7.5" style="stroke:#C82930;stroke-width:1.25;" width="7.5" x="347.5" y="913.5547"/><text fill="#000000" font-family="sans-serif" font-size="13.75" lengthAdjust="spacing" textLength="18.75" x="362.5" y="922.8284">TIN</text><rect fill="none" height="7.5" style="stroke:#C82930;stroke-width:1.25;" width="7.5" x="347.5" y="930.8496"/><text fill="#000000" font-family="sans-serif" font-size="13.75" lengthAdjust="spacing" textLength="83.75" x="362.5" y="940.1233">phoneNumber</text><rect fill="none" height="7.5" style="stroke:#C82930;stroke-width:1.25;" width="7.5" x="347.5" y="948.1445"/><text fill="#000000" font-family="sans-serif" font-size="13.75" lengthAdjust="spacing" textLength="30" x="362.5" y="957.4182">email</text><rect fill="none" height="7.5" style="stroke:#C82930;stroke-width:1.25;" width="7.5" x="347.5" y="965.4395"/><text fill="#000000" font-family="sans-serif" font-size="13.75" lengthAdjust="spacing" textLength="22.5" x="362.5" y="974.7131">sex</text><line style="stroke:#A80036;stroke-width:1.875;" x1="338.75" x2="452.5" y1="982.7344" y2="982.7344"/><!--MD5=[02e4b9b7573f1156f41e60aa5b4e25a4]
class Company--><rect codeLine="23" fill="#FEFECE" filter="url(#f4uii8t3ox6kv)" height="94.5898" id="Company" style="stroke:#A80036;stroke-width:1.875;" width="126.25" x="315" y="392.5"/><ellipse cx="342.75" cy="412.5" fill="#ADD1B2" rx="13.75" ry="13.75" style="stroke:#A80036;stroke-width:1.25;"/><path d="M345.25,408.125 Q345.5039,407.5 345.7969,407.1875 Q346.0898,406.875 346.4219,406.875 Q347.0078,406.875 347.3789,407.2266 Q347.75,407.5781 347.75,408.3984 L347.75,410.3516 Q347.75,411.1719 347.3984,411.5234 Q347.0469,411.875 346.5,411.875 Q346.0117,411.875 345.6992,411.6602 Q345.3867,411.4453 345.25,410.8789 Q345.1914,410.4883 344.9766,410.2734 Q344.5859,409.8633 343.8828,409.6289 Q343.1797,409.375 342.4766,409.375 Q341.5977,409.375 340.8555,409.7266 Q340.1328,410.0781 339.5664,410.8594 Q339,411.6406 339,412.7148 L339,413.8672 Q339,415.1563 340.0547,416.0156 Q341.1094,416.875 342.9844,416.875 Q344.0977,416.875 344.8789,416.6211 Q345.3281,416.4844 345.8359,416.0352 Q346.168,415.7813 346.3438,415.7031 Q346.5195,415.625 346.7344,415.625 Q347.1445,415.625 347.4375,415.957 Q347.75,416.2695 347.75,416.7188 Q347.75,417.1484 347.3203,417.6563 Q346.6953,418.3984 345.6992,418.8086 Q344.3906,419.375 342.7891,419.375 Q340.9141,419.375 339.4102,418.6328 Q338.1992,418.0469 337.3398,416.7773 Q336.5,415.5078 336.5,414.0039 L336.5,412.6367 Q336.5,411.0742 337.2422,409.707 Q338.0039,408.3398 339.3125,407.6172 Q340.6406,406.875 342.125,406.875 Q343.0234,406.875 343.8047,407.1875 Q344.5859,407.5 345.25,408.125 Z " fill="#000000"/><text fill="#000000" font-family="sans-serif" font-size="15" lengthAdjust="spacing" textLength="66.25" x="362.25" y="418.6377">Company</text><line style="stroke:#A80036;stroke-width:1.875;" x1="316.25" x2="440" y1="432.5" y2="432.5"/><rect fill="none" height="7.5" style="stroke:#C82930;stroke-width:1.25;" width="7.5" x="325" y="442.5"/><text fill="#000000" font-family="sans-serif" font-size="13.75" lengthAdjust="spacing" textLength="68.75" x="340" y="451.7737">designation</text><line style="stroke:#A80036;stroke-width:1.875;" x1="316.25" x2="440" y1="459.7949" y2="459.7949"/><ellipse cx="328.75" cy="473.5449" fill="#84BE84" rx="3.75" ry="3.75" style="stroke:#038048;stroke-width:1.25;"/><text fill="#000000" font-family="sans-serif" font-size="13.75" lengthAdjust="spacing" textLength="93.75" x="340" y="479.0686">getClientStore()</text><!--MD5=[687111ccfaf99ad2b4af2cb6ec7c79c8]
class Sortable--><rect codeLine="29" fill="#FEFECE" filter="url(#f4uii8t3ox6kv)" height="94.5898" id="Sortable" style="stroke:#A80036;stroke-width:1.875;" width="168.75" x="407.5" y="1107.5"/><ellipse cx="457.75" cy="1127.5" fill="#B4A7E5" rx="13.75" ry="13.75" style="stroke:#A80036;stroke-width:1.25;"/><path d="M459,1123.75 L459,1131.25 L461.5,1131.25 L462.1055,1131.25 L462.75,1132.0313 L462.75,1132.5 L462.75,1132.9688 L462.1055,1133.75 L461.5,1133.75 L454,1133.75 L453.3945,1133.75 L452.75,1132.9688 L452.75,1132.5 L452.75,1132.0313 L453.3945,1131.25 L454,1131.25 L456.5,1131.25 L456.5,1123.75 L454,1123.75 L453.3945,1123.75 L452.75,1122.9688 L452.75,1122.5 L452.75,1122.0313 L453.3945,1121.25 L454,1121.25 L461.5,1121.25 L462.1055,1121.25 L462.75,1122.0313 L462.75,1122.5 L462.75,1122.9688 L462.1055,1123.75 L461.5,1123.75 L459,1123.75 Z " fill="#000000"/><text fill="#000000" font-family="sans-serif" font-size="15" font-style="italic" lengthAdjust="spacing" textLength="58.75" x="482.25" y="1133.6377">Sortable</text><line style="stroke:#A80036;stroke-width:1.875;" x1="408.75" x2="575" y1="1147.5" y2="1147.5"/><line style="stroke:#A80036;stroke-width:1.875;" x1="408.75" x2="575" y1="1157.5" y2="1157.5"/><ellipse cx="421.25" cy="1171.25" fill="#84BE84" rx="3.75" ry="3.75" style="stroke:#038048;stroke-width:1.25;"/><text fill="#000000" font-family="sans-serif" font-size="13.75" lengthAdjust="spacing" textLength="120" x="432.5" y="1176.7737">sortByTin(clientList)</text><ellipse cx="421.25" cy="1188.5449" fill="#84BE84" rx="3.75" ry="3.75" style="stroke:#038048;stroke-width:1.25;"/><text fill="#000000" font-family="sans-serif" font-size="13.75" lengthAdjust="spacing" textLength="136.25" x="432.5" y="1194.0686">sortByName(clientList)</text><!--MD5=[55cb992be19579b505cea3c5691093cb]
class ClientStore--><rect codeLine="34" fill="#FEFECE" filter="url(#f4uii8t3ox6kv)" height="94.5898" id="ClientStore" style="stroke:#A80036;stroke-width:1.875;" width="187.5" x="284.375" y="585"/><ellipse cx="335.1875" cy="605" fill="#ADD1B2" rx="13.75" ry="13.75" style="stroke:#A80036;stroke-width:1.25;"/><path d="M337.6875,600.625 Q337.9414,600 338.2344,599.6875 Q338.5273,599.375 338.8594,599.375 Q339.4453,599.375 339.8164,599.7266 Q340.1875,600.0781 340.1875,600.8984 L340.1875,602.8516 Q340.1875,603.6719 339.8359,604.0234 Q339.4844,604.375 338.9375,604.375 Q338.4492,604.375 338.1367,604.1602 Q337.8242,603.9453 337.6875,603.3789 Q337.6289,602.9883 337.4141,602.7734 Q337.0234,602.3633 336.3203,602.1289 Q335.6172,601.875 334.9141,601.875 Q334.0352,601.875 333.293,602.2266 Q332.5703,602.5781 332.0039,603.3594 Q331.4375,604.1406 331.4375,605.2148 L331.4375,606.3672 Q331.4375,607.6563 332.4922,608.5156 Q333.5469,609.375 335.4219,609.375 Q336.5352,609.375 337.3164,609.1211 Q337.7656,608.9844 338.2734,608.5352 Q338.6055,608.2813 338.7813,608.2031 Q338.957,608.125 339.1719,608.125 Q339.582,608.125 339.875,608.457 Q340.1875,608.7695 340.1875,609.2188 Q340.1875,609.6484 339.7578,610.1563 Q339.1328,610.8984 338.1367,611.3086 Q336.8281,611.875 335.2266,611.875 Q333.3516,611.875 331.8477,611.1328 Q330.6367,610.5469 329.7773,609.2773 Q328.9375,608.0078 328.9375,606.5039 L328.9375,605.1367 Q328.9375,603.5742 329.6797,602.207 Q330.4414,600.8398 331.75,600.1172 Q333.0781,599.375 334.5625,599.375 Q335.4609,599.375 336.2422,599.6875 Q337.0234,600 337.6875,600.625 Z " fill="#000000"/><text fill="#000000" font-family="sans-serif" font-size="15" lengthAdjust="spacing" textLength="76.25" x="359.8125" y="611.1377">ClientStore</text><line style="stroke:#A80036;stroke-width:1.875;" x1="285.625" x2="470.625" y1="625" y2="625"/><line style="stroke:#A80036;stroke-width:1.875;" x1="285.625" x2="470.625" y1="635" y2="635"/><ellipse cx="298.125" cy="648.75" fill="#84BE84" rx="3.75" ry="3.75" style="stroke:#038048;stroke-width:1.25;"/><text fill="#000000" font-family="sans-serif" font-size="13.75" lengthAdjust="spacing" textLength="137.5" x="309.375" y="654.2737">getClientByEmail(email)</text><ellipse cx="298.125" cy="666.0449" fill="#84BE84" rx="3.75" ry="3.75" style="stroke:#038048;stroke-width:1.25;"/><text fill="#000000" font-family="sans-serif" font-size="13.75" lengthAdjust="spacing" textLength="155" x="309.375" y="671.5686">getClientsWithValTstList()</text><!--MD5=[d9af5e34e5bc78cd5a2caff02363fedd]
class ClientMapper--><rect codeLine="39" fill="#FEFECE" filter="url(#f4uii8t3ox6kv)" height="77.2949" id="ClientMapper" style="stroke:#A80036;stroke-width:1.875;" width="147.5" x="604.375" y="401.25"/><ellipse cx="630.4375" cy="421.25" fill="#ADD1B2" rx="13.75" ry="13.75" style="stroke:#A80036;stroke-width:1.25;"/><path d="M632.9375,416.875 Q633.1914,416.25 633.4844,415.9375 Q633.7773,415.625 634.1094,415.625 Q634.6953,415.625 635.0664,415.9766 Q635.4375,416.3281 635.4375,417.1484 L635.4375,419.1016 Q635.4375,419.9219 635.0859,420.2734 Q634.7344,420.625 634.1875,420.625 Q633.6992,420.625 633.3867,420.4102 Q633.0742,420.1953 632.9375,419.6289 Q632.8789,419.2383 632.6641,419.0234 Q632.2734,418.6133 631.5703,418.3789 Q630.8672,418.125 630.1641,418.125 Q629.2852,418.125 628.543,418.4766 Q627.8203,418.8281 627.2539,419.6094 Q626.6875,420.3906 626.6875,421.4648 L626.6875,422.6172 Q626.6875,423.9063 627.7422,424.7656 Q628.7969,425.625 630.6719,425.625 Q631.7852,425.625 632.5664,425.3711 Q633.0156,425.2344 633.5234,424.7852 Q633.8555,424.5313 634.0313,424.4531 Q634.207,424.375 634.4219,424.375 Q634.832,424.375 635.125,424.707 Q635.4375,425.0195 635.4375,425.4688 Q635.4375,425.8984 635.0078,426.4063 Q634.3828,427.1484 633.3867,427.5586 Q632.0781,428.125 630.4766,428.125 Q628.6016,428.125 627.0977,427.3828 Q625.8867,426.7969 625.0273,425.5273 Q624.1875,424.2578 624.1875,422.7539 L624.1875,421.3867 Q624.1875,419.8242 624.9297,418.457 Q625.6914,417.0898 627,416.3672 Q628.3281,415.625 629.8125,415.625 Q630.7109,415.625 631.4922,415.9375 Q632.2734,416.25 632.9375,416.875 Z " fill="#000000"/><text fill="#000000" font-family="sans-serif" font-size="15" lengthAdjust="spacing" textLength="91.25" x="649.5625" y="427.3877">ClientMapper</text><line style="stroke:#A80036;stroke-width:1.875;" x1="605.625" x2="750.625" y1="441.25" y2="441.25"/><line style="stroke:#A80036;stroke-width:1.875;" x1="605.625" x2="750.625" y1="451.25" y2="451.25"/><ellipse cx="618.125" cy="465" fill="#84BE84" rx="3.75" ry="3.75" style="stroke:#038048;stroke-width:1.25;"/><text fill="#000000" font-family="sans-serif" font-size="13.75" lengthAdjust="spacing" textLength="115" x="629.375" y="470.5237">toDtoList(clientList)</text><!--MD5=[d92da6d3e9b1e9631354e1a6db35e891]
class ClientDTO--><rect codeLine="43" fill="#FEFECE" filter="url(#f4uii8t3ox6kv)" height="60" id="ClientDTO" style="stroke:#A80036;stroke-width:1.875;" width="111.25" x="715" y="602.5"/><ellipse cx="733.75" cy="622.5" fill="#ADD1B2" rx="13.75" ry="13.75" style="stroke:#A80036;stroke-width:1.25;"/><path d="M736.25,618.125 Q736.5039,617.5 736.7969,617.1875 Q737.0898,616.875 737.4219,616.875 Q738.0078,616.875 738.3789,617.2266 Q738.75,617.5781 738.75,618.3984 L738.75,620.3516 Q738.75,621.1719 738.3984,621.5234 Q738.0469,621.875 737.5,621.875 Q737.0117,621.875 736.6992,621.6602 Q736.3867,621.4453 736.25,620.8789 Q736.1914,620.4883 735.9766,620.2734 Q735.5859,619.8633 734.8828,619.6289 Q734.1797,619.375 733.4766,619.375 Q732.5977,619.375 731.8555,619.7266 Q731.1328,620.0781 730.5664,620.8594 Q730,621.6406 730,622.7148 L730,623.8672 Q730,625.1563 731.0547,626.0156 Q732.1094,626.875 733.9844,626.875 Q735.0977,626.875 735.8789,626.6211 Q736.3281,626.4844 736.8359,626.0352 Q737.168,625.7813 737.3438,625.7031 Q737.5195,625.625 737.7344,625.625 Q738.1445,625.625 738.4375,625.957 Q738.75,626.2695 738.75,626.7188 Q738.75,627.1484 738.3203,627.6563 Q737.6953,628.3984 736.6992,628.8086 Q735.3906,629.375 733.7891,629.375 Q731.9141,629.375 730.4102,628.6328 Q729.1992,628.0469 728.3398,626.7773 Q727.5,625.5078 727.5,624.0039 L727.5,622.6367 Q727.5,621.0742 728.2422,619.707 Q729.0039,618.3398 730.3125,617.6172 Q731.6406,616.875 733.125,616.875 Q734.0234,616.875 734.8047,617.1875 Q735.5859,617.5 736.25,618.125 Z " fill="#000000"/><text fill="#000000" font-family="sans-serif" font-size="15" lengthAdjust="spacing" textLength="71.25" x="751.25" y="628.6377">ClientDTO</text><line style="stroke:#A80036;stroke-width:1.875;" x1="716.25" x2="825" y1="642.5" y2="642.5"/><line style="stroke:#A80036;stroke-width:1.875;" x1="716.25" x2="825" y1="652.5" y2="652.5"/><!--MD5=[fa55af956531f700b1f6f664510affc2]
class ShowTestResultsUI--><rect codeLine="45" fill="#FEFECE" filter="url(#f4uii8t3ox6kv)" height="60" id="ShowTestResultsUI" style="stroke:#A80036;stroke-width:1.875;" width="177.5" x="166.875" y="8.75"/><ellipse cx="185.625" cy="28.75" fill="#ADD1B2" rx="13.75" ry="13.75" style="stroke:#A80036;stroke-width:1.25;"/><path d="M188.125,24.375 Q188.3789,23.75 188.6719,23.4375 Q188.9648,23.125 189.2969,23.125 Q189.8828,23.125 190.2539,23.4766 Q190.625,23.8281 190.625,24.6484 L190.625,26.6016 Q190.625,27.4219 190.2734,27.7734 Q189.9219,28.125 189.375,28.125 Q188.8867,28.125 188.5742,27.9102 Q188.2617,27.6953 188.125,27.1289 Q188.0664,26.7383 187.8516,26.5234 Q187.4609,26.1133 186.7578,25.8789 Q186.0547,25.625 185.3516,25.625 Q184.4727,25.625 183.7305,25.9766 Q183.0078,26.3281 182.4414,27.1094 Q181.875,27.8906 181.875,28.9648 L181.875,30.1172 Q181.875,31.4063 182.9297,32.2656 Q183.9844,33.125 185.8594,33.125 Q186.9727,33.125 187.7539,32.8711 Q188.2031,32.7344 188.7109,32.2852 Q189.043,32.0313 189.2188,31.9531 Q189.3945,31.875 189.6094,31.875 Q190.0195,31.875 190.3125,32.207 Q190.625,32.5195 190.625,32.9688 Q190.625,33.3984 190.1953,33.9063 Q189.5703,34.6484 188.5742,35.0586 Q187.2656,35.625 185.6641,35.625 Q183.7891,35.625 182.2852,34.8828 Q181.0742,34.2969 180.2148,33.0273 Q179.375,31.7578 179.375,30.2539 L179.375,28.8867 Q179.375,27.3242 180.1172,25.957 Q180.8789,24.5898 182.1875,23.8672 Q183.5156,23.125 185,23.125 Q185.8984,23.125 186.6797,23.4375 Q187.4609,23.75 188.125,24.375 Z " fill="#000000"/><text fill="#000000" font-family="sans-serif" font-size="15" lengthAdjust="spacing" textLength="137.5" x="203.125" y="34.8877">ShowTestResultsUI</text><line style="stroke:#A80036;stroke-width:1.875;" x1="168.125" x2="343.125" y1="48.75" y2="48.75"/><line style="stroke:#A80036;stroke-width:1.875;" x1="168.125" x2="343.125" y1="58.75" y2="58.75"/><!--MD5=[fed1f8060d293b6d7695ca94391604a1]
class ShowTestResultsController--><rect codeLine="47" fill="#FEFECE" filter="url(#f4uii8t3ox6kv)" height="60" id="ShowTestResultsController" style="stroke:#A80036;stroke-width:1.875;" width="230" x="263.125" y="171.25"/><ellipse cx="281.875" cy="191.25" fill="#ADD1B2" rx="13.75" ry="13.75" style="stroke:#A80036;stroke-width:1.25;"/><path d="M284.375,186.875 Q284.6289,186.25 284.9219,185.9375 Q285.2148,185.625 285.5469,185.625 Q286.1328,185.625 286.5039,185.9766 Q286.875,186.3281 286.875,187.1484 L286.875,189.1016 Q286.875,189.9219 286.5234,190.2734 Q286.1719,190.625 285.625,190.625 Q285.1367,190.625 284.8242,190.4102 Q284.5117,190.1953 284.375,189.6289 Q284.3164,189.2383 284.1016,189.0234 Q283.7109,188.6133 283.0078,188.3789 Q282.3047,188.125 281.6016,188.125 Q280.7227,188.125 279.9805,188.4766 Q279.2578,188.8281 278.6914,189.6094 Q278.125,190.3906 278.125,191.4648 L278.125,192.6172 Q278.125,193.9063 279.1797,194.7656 Q280.2344,195.625 282.1094,195.625 Q283.2227,195.625 284.0039,195.3711 Q284.4531,195.2344 284.9609,194.7852 Q285.293,194.5313 285.4688,194.4531 Q285.6445,194.375 285.8594,194.375 Q286.2695,194.375 286.5625,194.707 Q286.875,195.0195 286.875,195.4688 Q286.875,195.8984 286.4453,196.4063 Q285.8203,197.1484 284.8242,197.5586 Q283.5156,198.125 281.9141,198.125 Q280.0391,198.125 278.5352,197.3828 Q277.3242,196.7969 276.4648,195.5273 Q275.625,194.2578 275.625,192.7539 L275.625,191.3867 Q275.625,189.8242 276.3672,188.457 Q277.1289,187.0898 278.4375,186.3672 Q279.7656,185.625 281.25,185.625 Q282.1484,185.625 282.9297,185.9375 Q283.7109,186.25 284.375,186.875 Z " fill="#000000"/><text fill="#000000" font-family="sans-serif" font-size="15" lengthAdjust="spacing" textLength="190" x="299.375" y="197.3877">ShowTestResultsController</text><line style="stroke:#A80036;stroke-width:1.875;" x1="264.375" x2="491.875" y1="211.25" y2="211.25"/><line style="stroke:#A80036;stroke-width:1.875;" x1="264.375" x2="491.875" y1="221.25" y2="221.25"/><!--MD5=[0f6f7964b844a64b0496af0dda7914bd]
class TestStore--><rect codeLine="49" fill="#FEFECE" filter="url(#f4uii8t3ox6kv)" height="94.5898" id="TestStore" style="stroke:#A80036;stroke-width:1.875;" width="231.25" x="8.75" y="585"/><ellipse cx="85.9375" cy="605" fill="#ADD1B2" rx="13.75" ry="13.75" style="stroke:#A80036;stroke-width:1.25;"/><path d="M88.4375,600.625 Q88.6914,600 88.9844,599.6875 Q89.2773,599.375 89.6094,599.375 Q90.1953,599.375 90.5664,599.7266 Q90.9375,600.0781 90.9375,600.8984 L90.9375,602.8516 Q90.9375,603.6719 90.5859,604.0234 Q90.2344,604.375 89.6875,604.375 Q89.1992,604.375 88.8867,604.1602 Q88.5742,603.9453 88.4375,603.3789 Q88.3789,602.9883 88.1641,602.7734 Q87.7734,602.3633 87.0703,602.1289 Q86.3672,601.875 85.6641,601.875 Q84.7852,601.875 84.043,602.2266 Q83.3203,602.5781 82.7539,603.3594 Q82.1875,604.1406 82.1875,605.2148 L82.1875,606.3672 Q82.1875,607.6563 83.2422,608.5156 Q84.2969,609.375 86.1719,609.375 Q87.2852,609.375 88.0664,609.1211 Q88.5156,608.9844 89.0234,608.5352 Q89.3555,608.2813 89.5313,608.2031 Q89.707,608.125 89.9219,608.125 Q90.332,608.125 90.625,608.457 Q90.9375,608.7695 90.9375,609.2188 Q90.9375,609.6484 90.5078,610.1563 Q89.8828,610.8984 88.8867,611.3086 Q87.5781,611.875 85.9766,611.875 Q84.1016,611.875 82.5977,611.1328 Q81.3867,610.5469 80.5273,609.2773 Q79.6875,608.0078 79.6875,606.5039 L79.6875,605.1367 Q79.6875,603.5742 80.4297,602.207 Q81.1914,600.8398 82.5,600.1172 Q83.8281,599.375 85.3125,599.375 Q86.2109,599.375 86.9922,599.6875 Q87.7734,600 88.4375,600.625 Z " fill="#000000"/><text fill="#000000" font-family="sans-serif" font-size="15" lengthAdjust="spacing" textLength="66.25" x="111.5625" y="611.1377">TestStore</text><line style="stroke:#A80036;stroke-width:1.875;" x1="10" x2="238.75" y1="625" y2="625"/><line style="stroke:#A80036;stroke-width:1.875;" x1="10" x2="238.75" y1="635" y2="635"/><ellipse cx="22.5" cy="648.75" fill="#84BE84" rx="3.75" ry="3.75" style="stroke:#038048;stroke-width:1.25;"/><text fill="#000000" font-family="sans-serif" font-size="13.75" lengthAdjust="spacing" textLength="198.75" x="33.75" y="654.2737">getValidatedTestsByClient(client)</text><ellipse cx="22.5" cy="666.0449" fill="#84BE84" rx="3.75" ry="3.75" style="stroke:#038048;stroke-width:1.25;"/><text fill="#000000" font-family="sans-serif" font-size="13.75" lengthAdjust="spacing" textLength="156.25" x="33.75" y="671.5686">getTestByCode(testCode)</text><!--MD5=[df38be88ccee13e832d6fafd6288a4ca]
class Test--><rect codeLine="54" fill="#FEFECE" filter="url(#f4uii8t3ox6kv)" height="232.9492" id="Test" style="stroke:#A80036;stroke-width:1.875;" width="170" x="39.375" y="777.5"/><ellipse cx="104.0625" cy="797.5" fill="#ADD1B2" rx="13.75" ry="13.75" style="stroke:#A80036;stroke-width:1.25;"/><path d="M106.5625,793.125 Q106.8164,792.5 107.1094,792.1875 Q107.4023,791.875 107.7344,791.875 Q108.3203,791.875 108.6914,792.2266 Q109.0625,792.5781 109.0625,793.3984 L109.0625,795.3516 Q109.0625,796.1719 108.7109,796.5234 Q108.3594,796.875 107.8125,796.875 Q107.3242,796.875 107.0117,796.6602 Q106.6992,796.4453 106.5625,795.8789 Q106.5039,795.4883 106.2891,795.2734 Q105.8984,794.8633 105.1953,794.6289 Q104.4922,794.375 103.7891,794.375 Q102.9102,794.375 102.168,794.7266 Q101.4453,795.0781 100.8789,795.8594 Q100.3125,796.6406 100.3125,797.7148 L100.3125,798.8672 Q100.3125,800.1563 101.3672,801.0156 Q102.4219,801.875 104.2969,801.875 Q105.4102,801.875 106.1914,801.6211 Q106.6406,801.4844 107.1484,801.0352 Q107.4805,800.7813 107.6563,800.7031 Q107.832,800.625 108.0469,800.625 Q108.457,800.625 108.75,800.957 Q109.0625,801.2695 109.0625,801.7188 Q109.0625,802.1484 108.6328,802.6563 Q108.0078,803.3984 107.0117,803.8086 Q105.7031,804.375 104.1016,804.375 Q102.2266,804.375 100.7227,803.6328 Q99.5117,803.0469 98.6523,801.7773 Q97.8125,800.5078 97.8125,799.0039 L97.8125,797.6367 Q97.8125,796.0742 98.5547,794.707 Q99.3164,793.3398 100.625,792.6172 Q101.9531,791.875 103.4375,791.875 Q104.3359,791.875 105.1172,792.1875 Q105.8984,792.5 106.5625,793.125 Z " fill="#000000"/><text fill="#000000" font-family="sans-serif" font-size="15" lengthAdjust="spacing" textLength="30" x="129.6875" y="803.6377">Test</text><line style="stroke:#A80036;stroke-width:1.875;" x1="40.625" x2="208.125" y1="817.5" y2="817.5"/><rect fill="none" height="7.5" style="stroke:#C82930;stroke-width:1.25;" width="7.5" x="49.375" y="827.5"/><text fill="#000000" font-family="sans-serif" font-size="13.75" lengthAdjust="spacing" textLength="53.75" x="64.375" y="836.7737">testCode</text><rect fill="none" height="7.5" style="stroke:#C82930;stroke-width:1.25;" width="7.5" x="49.375" y="844.7949"/><text fill="#000000" font-family="sans-serif" font-size="13.75" lengthAdjust="spacing" textLength="53.75" x="64.375" y="854.0686">nhsCode</text><rect fill="none" height="7.5" style="stroke:#C82930;stroke-width:1.25;" width="7.5" x="49.375" y="862.0898"/><text fill="#000000" font-family="sans-serif" font-size="13.75" lengthAdjust="spacing" textLength="91.25" x="64.375" y="871.3635">dateOfCreation</text><rect fill="none" height="7.5" style="stroke:#C82930;stroke-width:1.25;" width="7.5" x="49.375" y="879.3848"/><text fill="#000000" font-family="sans-serif" font-size="13.75" lengthAdjust="spacing" textLength="66.25" x="64.375" y="888.6584">dateReport</text><rect fill="none" height="7.5" style="stroke:#C82930;stroke-width:1.25;" width="7.5" x="49.375" y="896.6797"/><text fill="#000000" font-family="sans-serif" font-size="13.75" lengthAdjust="spacing" textLength="63.75" x="64.375" y="905.9534">timeReport</text><rect fill="none" height="7.5" style="stroke:#C82930;stroke-width:1.25;" width="7.5" x="49.375" y="913.9746"/><text fill="#000000" font-family="sans-serif" font-size="13.75" lengthAdjust="spacing" textLength="71.25" x="64.375" y="923.2483">dateResults</text><rect fill="none" height="7.5" style="stroke:#C82930;stroke-width:1.25;" width="7.5" x="49.375" y="931.2695"/><text fill="#000000" font-family="sans-serif" font-size="13.75" lengthAdjust="spacing" textLength="68.75" x="64.375" y="940.5432">timeResults</text><rect fill="none" height="7.5" style="stroke:#C82930;stroke-width:1.25;" width="7.5" x="49.375" y="948.5645"/><text fill="#000000" font-family="sans-serif" font-size="13.75" lengthAdjust="spacing" textLength="85" x="64.375" y="957.8381">dateValidation</text><rect fill="none" height="7.5" style="stroke:#C82930;stroke-width:1.25;" width="7.5" x="49.375" y="965.8594"/><text fill="#000000" font-family="sans-serif" font-size="13.75" lengthAdjust="spacing" textLength="82.5" x="64.375" y="975.1331">timeValidation</text><line style="stroke:#A80036;stroke-width:1.875;" x1="40.625" x2="208.125" y1="983.1543" y2="983.1543"/><ellipse cx="53.125" cy="996.9043" fill="#84BE84" rx="3.75" ry="3.75" style="stroke:#038048;stroke-width:1.25;"/><text fill="#000000" font-family="sans-serif" font-size="13.75" lengthAdjust="spacing" textLength="137.5" x="64.375" y="1002.428">getTestParamResults()</text><!--MD5=[144698ec4d0188f6929a3b58a3eeb1f6]
class TestMapper--><rect codeLine="67" fill="#FEFECE" filter="url(#f4uii8t3ox6kv)" height="77.2949" id="TestMapper" style="stroke:#A80036;stroke-width:1.875;" width="125" x="143.125" y="401.25"/><ellipse cx="163.5625" cy="421.25" fill="#ADD1B2" rx="13.75" ry="13.75" style="stroke:#A80036;stroke-width:1.25;"/><path d="M166.0625,416.875 Q166.3164,416.25 166.6094,415.9375 Q166.9023,415.625 167.2344,415.625 Q167.8203,415.625 168.1914,415.9766 Q168.5625,416.3281 168.5625,417.1484 L168.5625,419.1016 Q168.5625,419.9219 168.2109,420.2734 Q167.8594,420.625 167.3125,420.625 Q166.8242,420.625 166.5117,420.4102 Q166.1992,420.1953 166.0625,419.6289 Q166.0039,419.2383 165.7891,419.0234 Q165.3984,418.6133 164.6953,418.3789 Q163.9922,418.125 163.2891,418.125 Q162.4102,418.125 161.668,418.4766 Q160.9453,418.8281 160.3789,419.6094 Q159.8125,420.3906 159.8125,421.4648 L159.8125,422.6172 Q159.8125,423.9063 160.8672,424.7656 Q161.9219,425.625 163.7969,425.625 Q164.9102,425.625 165.6914,425.3711 Q166.1406,425.2344 166.6484,424.7852 Q166.9805,424.5313 167.1563,424.4531 Q167.332,424.375 167.5469,424.375 Q167.957,424.375 168.25,424.707 Q168.5625,425.0195 168.5625,425.4688 Q168.5625,425.8984 168.1328,426.4063 Q167.5078,427.1484 166.5117,427.5586 Q165.2031,428.125 163.6016,428.125 Q161.7266,428.125 160.2227,427.3828 Q159.0117,426.7969 158.1523,425.5273 Q157.3125,424.2578 157.3125,422.7539 L157.3125,421.3867 Q157.3125,419.8242 158.0547,418.457 Q158.8164,417.0898 160.125,416.3672 Q161.4531,415.625 162.9375,415.625 Q163.8359,415.625 164.6172,415.9375 Q165.3984,416.25 166.0625,416.875 Z " fill="#000000"/><text fill="#000000" font-family="sans-serif" font-size="15" lengthAdjust="spacing" textLength="81.25" x="181.4375" y="427.3877">TestMapper</text><line style="stroke:#A80036;stroke-width:1.875;" x1="144.375" x2="266.875" y1="441.25" y2="441.25"/><line style="stroke:#A80036;stroke-width:1.875;" x1="144.375" x2="266.875" y1="451.25" y2="451.25"/><ellipse cx="156.875" cy="465" fill="#84BE84" rx="3.75" ry="3.75" style="stroke:#038048;stroke-width:1.25;"/><text fill="#000000" font-family="sans-serif" font-size="13.75" lengthAdjust="spacing" textLength="92.5" x="168.125" y="470.5237">toDtoList(tests)</text><!--MD5=[e1b684d3962829f7d15065466104158d]
class TestParamList--><rect codeLine="71" fill="#FEFECE" filter="url(#f4uii8t3ox6kv)" height="77.2949" id="TestParamList" style="stroke:#A80036;stroke-width:1.875;" width="170" x="39.375" y="1116.25"/><ellipse cx="71.0625" cy="1136.25" fill="#ADD1B2" rx="13.75" ry="13.75" style="stroke:#A80036;stroke-width:1.25;"/><path d="M73.5625,1131.875 Q73.8164,1131.25 74.1094,1130.9375 Q74.4023,1130.625 74.7344,1130.625 Q75.3203,1130.625 75.6914,1130.9766 Q76.0625,1131.3281 76.0625,1132.1484 L76.0625,1134.1016 Q76.0625,1134.9219 75.7109,1135.2734 Q75.3594,1135.625 74.8125,1135.625 Q74.3242,1135.625 74.0117,1135.4102 Q73.6992,1135.1953 73.5625,1134.6289 Q73.5039,1134.2383 73.2891,1134.0234 Q72.8984,1133.6133 72.1953,1133.3789 Q71.4922,1133.125 70.7891,1133.125 Q69.9102,1133.125 69.168,1133.4766 Q68.4453,1133.8281 67.8789,1134.6094 Q67.3125,1135.3906 67.3125,1136.4648 L67.3125,1137.6172 Q67.3125,1138.9063 68.3672,1139.7656 Q69.4219,1140.625 71.2969,1140.625 Q72.4102,1140.625 73.1914,1140.3711 Q73.6406,1140.2344 74.1484,1139.7852 Q74.4805,1139.5313 74.6563,1139.4531 Q74.832,1139.375 75.0469,1139.375 Q75.457,1139.375 75.75,1139.707 Q76.0625,1140.0195 76.0625,1140.4688 Q76.0625,1140.8984 75.6328,1141.4063 Q75.0078,1142.1484 74.0117,1142.5586 Q72.7031,1143.125 71.1016,1143.125 Q69.2266,1143.125 67.7227,1142.3828 Q66.5117,1141.7969 65.6523,1140.5273 Q64.8125,1139.2578 64.8125,1137.7539 L64.8125,1136.3867 Q64.8125,1134.8242 65.5547,1133.457 Q66.3164,1132.0898 67.625,1131.3672 Q68.9531,1130.625 70.4375,1130.625 Q71.3359,1130.625 72.1172,1130.9375 Q72.8984,1131.25 73.5625,1131.875 Z " fill="#000000"/><text fill="#000000" font-family="sans-serif" font-size="15" lengthAdjust="spacing" textLength="101.25" x="91.4375" y="1142.3877">TestParamList</text><line style="stroke:#A80036;stroke-width:1.875;" x1="40.625" x2="208.125" y1="1156.25" y2="1156.25"/><line style="stroke:#A80036;stroke-width:1.875;" x1="40.625" x2="208.125" y1="1166.25" y2="1166.25"/><ellipse cx="53.125" cy="1180" fill="#84BE84" rx="3.75" ry="3.75" style="stroke:#038048;stroke-width:1.25;"/><text fill="#000000" font-family="sans-serif" font-size="13.75" lengthAdjust="spacing" textLength="137.5" x="64.375" y="1185.5237">getTestParamResults()</text><!--MD5=[0f07739f46effee96e095e9c408da841]
class TestParameter--><rect codeLine="75" fill="#FEFECE" filter="url(#f4uii8t3ox6kv)" height="77.2949" id="TestParameter" style="stroke:#A80036;stroke-width:1.875;" width="162.5" x="43.125" y="1300"/><ellipse cx="70.875" cy="1320" fill="#ADD1B2" rx="13.75" ry="13.75" style="stroke:#A80036;stroke-width:1.25;"/><path d="M73.375,1315.625 Q73.6289,1315 73.9219,1314.6875 Q74.2148,1314.375 74.5469,1314.375 Q75.1328,1314.375 75.5039,1314.7266 Q75.875,1315.0781 75.875,1315.8984 L75.875,1317.8516 Q75.875,1318.6719 75.5234,1319.0234 Q75.1719,1319.375 74.625,1319.375 Q74.1367,1319.375 73.8242,1319.1602 Q73.5117,1318.9453 73.375,1318.3789 Q73.3164,1317.9883 73.1016,1317.7734 Q72.7109,1317.3633 72.0078,1317.1289 Q71.3047,1316.875 70.6016,1316.875 Q69.7227,1316.875 68.9805,1317.2266 Q68.2578,1317.5781 67.6914,1318.3594 Q67.125,1319.1406 67.125,1320.2148 L67.125,1321.3672 Q67.125,1322.6563 68.1797,1323.5156 Q69.2344,1324.375 71.1094,1324.375 Q72.2227,1324.375 73.0039,1324.1211 Q73.4531,1323.9844 73.9609,1323.5352 Q74.293,1323.2813 74.4688,1323.2031 Q74.6445,1323.125 74.8594,1323.125 Q75.2695,1323.125 75.5625,1323.457 Q75.875,1323.7695 75.875,1324.2188 Q75.875,1324.6484 75.4453,1325.1563 Q74.8203,1325.8984 73.8242,1326.3086 Q72.5156,1326.875 70.9141,1326.875 Q69.0391,1326.875 67.5352,1326.1328 Q66.3242,1325.5469 65.4648,1324.2773 Q64.625,1323.0078 64.625,1321.5039 L64.625,1320.1367 Q64.625,1318.5742 65.3672,1317.207 Q66.1289,1315.8398 67.4375,1315.1172 Q68.7656,1314.375 70.25,1314.375 Q71.1484,1314.375 71.9297,1314.6875 Q72.7109,1315 73.375,1315.625 Z " fill="#000000"/><text fill="#000000" font-family="sans-serif" font-size="15" lengthAdjust="spacing" textLength="102.5" x="90.375" y="1326.1377">TestParameter</text><line style="stroke:#A80036;stroke-width:1.875;" x1="44.375" x2="204.375" y1="1340" y2="1340"/><line style="stroke:#A80036;stroke-width:1.875;" x1="44.375" x2="204.375" y1="1350" y2="1350"/><ellipse cx="56.875" cy="1363.75" fill="#84BE84" rx="3.75" ry="3.75" style="stroke:#038048;stroke-width:1.25;"/><text fill="#000000" font-family="sans-serif" font-size="13.75" lengthAdjust="spacing" textLength="130" x="68.125" y="1369.2737">getTestParamResult()</text><!--MD5=[4e608140b854dae633589343bce77383]
class TestParameterResult--><rect codeLine="79" fill="#FEFECE" filter="url(#f4uii8t3ox6kv)" height="111.8848" id="TestParameterResult" style="stroke:#A80036;stroke-width:1.875;" width="187.5" x="30.625" y="1475"/><ellipse cx="49.375" cy="1495" fill="#ADD1B2" rx="13.75" ry="13.75" style="stroke:#A80036;stroke-width:1.25;"/><path d="M51.875,1490.625 Q52.1289,1490 52.4219,1489.6875 Q52.7148,1489.375 53.0469,1489.375 Q53.6328,1489.375 54.0039,1489.7266 Q54.375,1490.0781 54.375,1490.8984 L54.375,1492.8516 Q54.375,1493.6719 54.0234,1494.0234 Q53.6719,1494.375 53.125,1494.375 Q52.6367,1494.375 52.3242,1494.1602 Q52.0117,1493.9453 51.875,1493.3789 Q51.8164,1492.9883 51.6016,1492.7734 Q51.2109,1492.3633 50.5078,1492.1289 Q49.8047,1491.875 49.1016,1491.875 Q48.2227,1491.875 47.4805,1492.2266 Q46.7578,1492.5781 46.1914,1493.3594 Q45.625,1494.1406 45.625,1495.2148 L45.625,1496.3672 Q45.625,1497.6563 46.6797,1498.5156 Q47.7344,1499.375 49.6094,1499.375 Q50.7227,1499.375 51.5039,1499.1211 Q51.9531,1498.9844 52.4609,1498.5352 Q52.793,1498.2813 52.9688,1498.2031 Q53.1445,1498.125 53.3594,1498.125 Q53.7695,1498.125 54.0625,1498.457 Q54.375,1498.7695 54.375,1499.2188 Q54.375,1499.6484 53.9453,1500.1563 Q53.3203,1500.8984 52.3242,1501.3086 Q51.0156,1501.875 49.4141,1501.875 Q47.5391,1501.875 46.0352,1501.1328 Q44.8242,1500.5469 43.9648,1499.2773 Q43.125,1498.0078 43.125,1496.5039 L43.125,1495.1367 Q43.125,1493.5742 43.8672,1492.207 Q44.6289,1490.8398 45.9375,1490.1172 Q47.2656,1489.375 48.75,1489.375 Q49.6484,1489.375 50.4297,1489.6875 Q51.2109,1490 51.875,1490.625 Z " fill="#000000"/><text fill="#000000" font-family="sans-serif" font-size="15" lengthAdjust="spacing" textLength="147.5" x="66.875" y="1501.1377">TestParameterResult</text><line style="stroke:#A80036;stroke-width:1.875;" x1="31.875" x2="216.875" y1="1515" y2="1515"/><rect fill="none" height="7.5" style="stroke:#C82930;stroke-width:1.25;" width="7.5" x="40.625" y="1525"/><text fill="#000000" font-family="sans-serif" font-size="13.75" lengthAdjust="spacing" textLength="32.5" x="55.625" y="1534.2737">value</text><rect fill="none" height="7.5" style="stroke:#C82930;stroke-width:1.25;" width="7.5" x="40.625" y="1542.2949"/><text fill="#000000" font-family="sans-serif" font-size="13.75" lengthAdjust="spacing" textLength="36.25" x="55.625" y="1551.5686">metric</text><rect fill="none" height="7.5" style="stroke:#C82930;stroke-width:1.25;" width="7.5" x="40.625" y="1559.5898"/><text fill="#000000" font-family="sans-serif" font-size="13.75" lengthAdjust="spacing" textLength="52.5" x="55.625" y="1568.8635">refValue</text><line style="stroke:#A80036;stroke-width:1.875;" x1="31.875" x2="216.875" y1="1576.8848" y2="1576.8848"/><!--MD5=[9fb704ffefcaf68bf1a361787afa998b]
class TestDTO--><rect fill="#FEFECE" filter="url(#f4uii8t3ox6kv)" height="60" id="TestDTO" style="stroke:#A80036;stroke-width:1.875;" width="101.25" x="150" y="295"/><ellipse cx="168.75" cy="315" fill="#ADD1B2" rx="13.75" ry="13.75" style="stroke:#A80036;stroke-width:1.25;"/><path d="M171.25,310.625 Q171.5039,310 171.7969,309.6875 Q172.0898,309.375 172.4219,309.375 Q173.0078,309.375 173.3789,309.7266 Q173.75,310.0781 173.75,310.8984 L173.75,312.8516 Q173.75,313.6719 173.3984,314.0234 Q173.0469,314.375 172.5,314.375 Q172.0117,314.375 171.6992,314.1602 Q171.3867,313.9453 171.25,313.3789 Q171.1914,312.9883 170.9766,312.7734 Q170.5859,312.3633 169.8828,312.1289 Q169.1797,311.875 168.4766,311.875 Q167.5977,311.875 166.8555,312.2266 Q166.1328,312.5781 165.5664,313.3594 Q165,314.1406 165,315.2148 L165,316.3672 Q165,317.6563 166.0547,318.5156 Q167.1094,319.375 168.9844,319.375 Q170.0977,319.375 170.8789,319.1211 Q171.3281,318.9844 171.8359,318.5352 Q172.168,318.2813 172.3438,318.2031 Q172.5195,318.125 172.7344,318.125 Q173.1445,318.125 173.4375,318.457 Q173.75,318.7695 173.75,319.2188 Q173.75,319.6484 173.3203,320.1563 Q172.6953,320.8984 171.6992,321.3086 Q170.3906,321.875 168.7891,321.875 Q166.9141,321.875 165.4102,321.1328 Q164.1992,320.5469 163.3398,319.2773 Q162.5,318.0078 162.5,316.5039 L162.5,315.1367 Q162.5,313.5742 163.2422,312.207 Q164.0039,310.8398 165.3125,310.1172 Q166.6406,309.375 168.125,309.375 Q169.0234,309.375 169.8047,309.6875 Q170.5859,310 171.25,310.625 Z " fill="#000000"/><text fill="#000000" font-family="sans-serif" font-size="15" lengthAdjust="spacing" textLength="61.25" x="186.25" y="321.1377">TestDTO</text><line style="stroke:#A80036;stroke-width:1.875;" x1="151.25" x2="250" y1="335" y2="335"/><line style="stroke:#A80036;stroke-width:1.875;" x1="151.25" x2="250" y1="345" y2="345"/><!--MD5=[e5dd38565a41da4a9b6fe493e26c0952]
link ShowClientListUI to ShowClientListController--><path codeLine="85" d="M716.025,68.975 C705.4,88.4 691.0125,114.7125 677.9125,138.6625 " fill="none" id="ShowClientListUI-to-ShowClientListController" style="stroke:#A80036;stroke-width:1.25;stroke-dasharray:7.0,7.0;"/><polygon fill="#A80036" points="674.6125,144.7,684.3993,137.2313,677.6128,139.2173,675.6269,132.4308,674.6125,144.7" style="stroke:#A80036;stroke-width:1.25;"/><!--MD5=[1f5f33765d8ead2beff9cbba0ee199fa]
link ShowClientListController to Company--><path codeLine="86" d="M554.175,257.7125 C537.4625,269.3 520.575,281.975 505.625,295 C473.6375,322.8625 441.975,358.5 418.2125,387.325 " fill="none" id="ShowClientListController-to-Company" style="stroke:#A80036;stroke-width:1.25;stroke-dasharray:7.0,7.0;"/><polygon fill="#A80036" points="414.1625,392.2625,425.1696,386.7482,418.1319,387.4348,417.4453,380.3972,414.1625,392.2625" style="stroke:#A80036;stroke-width:1.25;"/><!--MD5=[2d928a4ccf09be1cbe7266eea8659e8e]
link ShowClientListController to Sortable--><path codeLine="87" d="M603.6,257.625 C573.6375,303.625 538.125,372.1875 538.125,438.75 C538.125,438.75 538.125,438.75 538.125,895 C538.125,967.35 520.3875,1049.3375 506.875,1101.275 " fill="none" id="ShowClientListController-to-Sortable" style="stroke:#A80036;stroke-width:1.25;stroke-dasharray:7.0,7.0;"/><polygon fill="#A80036" points="505.25,1107.45,512.9428,1097.8384,506.8371,1101.4049,503.2706,1095.2991,505.25,1107.45" style="stroke:#A80036;stroke-width:1.25;"/><!--MD5=[b3b35689f5ad0369252aabd3e6df91d4]
link ShowClientListController to ClientMapper--><path codeLine="88" d="M652.2875,257.8875 C658.2375,299.5375 666.275,355.825 671.8,394.4875 " fill="none" id="ShowClientListController-to-ClientMapper" style="stroke:#A80036;stroke-width:1.25;stroke-dasharray:7.0,7.0;"/><polygon fill="#A80036" points="672.7375,401.0125,676.1106,389.1725,671.8611,394.8242,666.2094,390.5747,672.7375,401.0125" style="stroke:#A80036;stroke-width:1.25;"/><!--MD5=[fb80997dfccd358263345c5fb9d0bb1c]
link Client to Sortable--><path codeLine="89" d="M432.15,993.1875 C445.8125,1029.9125 460.8,1070.2 472.3375,1101.2375 " fill="none" id="Client-to-Sortable" style="stroke:#A80036;stroke-width:1.25;"/><polygon fill="#A80036" points="474.6,1107.3125,475.3644,1095.0252,472.4211,1101.4546,465.9917,1098.5114,474.6,1107.3125" style="stroke:#A80036;stroke-width:1.25;"/><text fill="#000000" font-family="sans-serif" font-size="16.25" lengthAdjust="spacing" textLength="12.5" x="458.125" y="1065.6189">is</text><!--MD5=[1d934105a045dbf126514c6917bd5072]
link ClientStore to Client--><path codeLine="90" d="M381.25,680.0125 C383.275,709.9625 386,750.225 388.5375,787.65 " fill="none" id="ClientStore-to-Client" style="stroke:#A80036;stroke-width:1.25;"/><polygon fill="#A80036" points="388.975,794.1125,393.2265,782.5588,388.5652,787.876,383.2481,783.2146,388.975,794.1125" style="stroke:#A80036;stroke-width:1.25;"/><text fill="#000000" font-family="sans-serif" font-size="16.25" lengthAdjust="spacing" textLength="61.25" x="385.625" y="735.6189">contains</text><!--MD5=[af3939234646809cec66923e43961aa6]
link ClientMapper to ClientDTO--><path codeLine="91" d="M696.4,478.7875 C713.05,513 737.4625,563.125 753.6875,596.45 " fill="none" id="ClientMapper-to-ClientDTO" style="stroke:#A80036;stroke-width:1.25;stroke-dasharray:7.0,7.0;"/><polygon fill="#A80036" points="756.6125,602.475,756.1633,590.1721,753.8674,596.8601,747.1795,594.5642,756.6125,602.475" style="stroke:#A80036;stroke-width:1.25;"/><!--MD5=[e3becc2bb96a50c6696e468fb796f171]
link ShowClientListUI to ClientDTO--><path codeLine="92" d="M746.1375,69.05 C755.475,89.6875 766.8375,118.3625 771.875,145 C803.325,311.2 784.775,515.1125 775.2375,595.8875 " fill="none" id="ShowClientListUI-to-ClientDTO" style="stroke:#A80036;stroke-width:1.25;stroke-dasharray:7.0,7.0;"/><polygon fill="#A80036" points="774.45,602.4,780.7656,591.8323,775.201,596.1953,770.838,590.6307,774.45,602.4" style="stroke:#A80036;stroke-width:1.25;"/><!--MD5=[fab6bfd86166fcebf1ee3273b0f36b6a]
link ShowTestResultsUI to ShowTestResultsController--><path codeLine="93" d="M277.8125,68.975 C298.7125,96.275 330.025,137.175 352.1,166 " fill="none" id="ShowTestResultsUI-to-ShowTestResultsController" style="stroke:#A80036;stroke-width:1.25;stroke-dasharray:7.0,7.0;"/><polygon fill="#A80036" points="356.1,171.2375,353.206,159.2714,352.2902,166.2829,345.2787,165.3671,356.1,171.2375" style="stroke:#A80036;stroke-width:1.25;"/><!--MD5=[2e82f276e6f223f04b14e6b1e6626556]
link ShowTestResultsUI to TestDTO--><path codeLine="94" d="M250.05,68.775 C239.9,121.1375 218.4375,231.8375 207.4375,288.5875 " fill="none" id="ShowTestResultsUI-to-TestDTO" style="stroke:#A80036;stroke-width:1.25;stroke-dasharray:7.0,7.0;"/><polygon fill="#A80036" points="206.2125,294.9,213.2765,284.8172,207.4107,288.7659,203.462,282.9001,206.2125,294.9" style="stroke:#A80036;stroke-width:1.25;"/><!--MD5=[c9ff0204332d4ce713ee04e3bc44c00b]
link ShowTestResultsController to TestMapper--><path codeLine="95" d="M359.025,231.625 C338.45,262.65 304.4375,313 273.125,355 C263.075,368.475 251.7375,382.8375 241.275,395.7875 " fill="none" id="ShowTestResultsController-to-TestMapper" style="stroke:#A80036;stroke-width:1.25;stroke-dasharray:7.0,7.0;"/><polygon fill="#A80036" points="237.15,400.875,248.1123,395.2723,241.0804,396.0156,240.3372,388.9837,237.15,400.875" style="stroke:#A80036;stroke-width:1.25;"/><!--MD5=[ee5c0188dc609cecc56a050eae12090c]
reverse link TestDTO to TestMapper--><path codeLine="96" d="M202.2,361.6 C202.75,374.125 203.375,388.25 203.95,400.9625 " fill="none" id="TestDTO-backto-TestMapper" style="stroke:#A80036;stroke-width:1.25;stroke-dasharray:7.0,7.0;"/><polygon fill="#A80036" points="201.9125,355.225,197.4315,366.6916,202.1979,361.4685,207.421,366.2349,201.9125,355.225" style="stroke:#A80036;stroke-width:1.25;"/><!--MD5=[90379deed2c67a22dbc4f168ed58b3c7]
link ShowTestResultsController to Company--><path codeLine="97" d="M378.125,231.475 C378.125,269.9125 378.125,338.475 378.125,386.1625 " fill="none" id="ShowTestResultsController-to-Company" style="stroke:#A80036;stroke-width:1.25;stroke-dasharray:7.0,7.0;"/><polygon fill="#A80036" points="378.125,392.4625,383.125,381.2125,378.125,386.2125,373.125,381.2125,378.125,392.4625" style="stroke:#A80036;stroke-width:1.25;"/><!--MD5=[a11230341c8e65219708844feaa40162]
link Company to ClientStore--><path codeLine="98" d="M378.125,487.725 C378.125,515.2 378.125,550.075 378.125,578.575 " fill="none" id="Company-to-ClientStore" style="stroke:#A80036;stroke-width:1.25;"/><polygon fill="#A80036" points="378.125,584.925,383.125,573.675,378.125,578.675,373.125,573.675,378.125,584.925" style="stroke:#A80036;stroke-width:1.25;"/><text fill="#000000" font-family="sans-serif" font-size="16.25" lengthAdjust="spacing" textLength="35" x="379.375" y="543.1189">uses</text><!--MD5=[7f6cf7f175eae0af66201860de5de971]
link Company to TestStore--><path codeLine="99" d="M316.05,487.725 C278.275,516.0125 230.025,552.1375 191.3875,581.075 " fill="none" id="Company-to-TestStore" style="stroke:#A80036;stroke-width:1.25;"/><polygon fill="#A80036" points="186.25,584.925,198.25,582.175,191.25,581.175,192.25,574.175,186.25,584.925" style="stroke:#A80036;stroke-width:1.25;"/><text fill="#000000" font-family="sans-serif" font-size="16.25" lengthAdjust="spacing" textLength="35" x="259.375" y="543.1189">uses</text><!--MD5=[b0f4f6db8206580012ef9cd998ed01c5]
link TestStore to Test--><path codeLine="100" d="M124.375,680.0125 C124.375,705.4875 124.375,738.4375 124.375,770.75 " fill="none" id="TestStore-to-Test" style="stroke:#A80036;stroke-width:1.25;"/><polygon fill="#A80036" points="124.375,777.2,129.375,765.95,124.375,770.95,119.375,765.95,124.375,777.2" style="stroke:#A80036;stroke-width:1.25;"/><text fill="#000000" font-family="sans-serif" font-size="16.25" lengthAdjust="spacing" textLength="61.25" x="125.625" y="735.6189">contains</text><!--MD5=[2c91f88199f54fc4797874c7092f4fe3]
link Test to TestParamList--><path codeLine="101" d="M124.375,1010.375 C124.375,1045.5625 124.375,1082.1375 124.375,1109.55 " fill="none" id="Test-to-TestParamList" style="stroke:#A80036;stroke-width:1.25;"/><polygon fill="#A80036" points="124.375,1115.95,129.375,1104.7,124.375,1109.7,119.375,1104.7,124.375,1115.95" style="stroke:#A80036;stroke-width:1.25;"/><text fill="#000000" font-family="sans-serif" font-size="16.25" lengthAdjust="spacing" textLength="35" x="125.625" y="1065.6189">uses</text><!--MD5=[7dcd1600b6e42663b3fea3bcea44895b]
link TestParamList to TestParameter--><path codeLine="102" d="M124.375,1193.8 C124.375,1222.85 124.375,1263.1125 124.375,1293.6375 " fill="none" id="TestParamList-to-TestParameter" style="stroke:#A80036;stroke-width:1.25;"/><polygon fill="#A80036" points="124.375,1299.9875,129.375,1288.7375,124.375,1293.7375,119.375,1288.7375,124.375,1299.9875" style="stroke:#A80036;stroke-width:1.25;"/><text fill="#000000" font-family="sans-serif" font-size="16.25" lengthAdjust="spacing" textLength="61.25" x="125.625" y="1258.1189">contains</text><!--MD5=[0e00e25ac6b8c14659aaff2cf7e5df08]
link TestParameter to TestParameterResult--><path codeLine="103" d="M124.375,1377.5375 C124.375,1403.4875 124.375,1438.6 124.375,1468.5875 " fill="none" id="TestParameter-to-TestParameterResult" style="stroke:#A80036;stroke-width:1.25;"/><polygon fill="#A80036" points="124.375,1474.9,129.375,1463.65,124.375,1468.65,119.375,1463.65,124.375,1474.9" style="stroke:#A80036;stroke-width:1.25;"/><text fill="#000000" font-family="sans-serif" font-size="16.25" lengthAdjust="spacing" textLength="61.25" x="125.625" y="1433.1189">contains</text><!--MD5=[e90470a217a43d879f46584ff831d11e]
@startuml

class ShowClientListUI

class ShowClientListController{
+getClientList()
+getClientTestList()
+displayTestResults(testCode)


}

class Client {
- name
- cardNumber
- nhsId
- dateBirth
- TIN
- phoneNumber
- email
- sex
}

class Company{
-designation

+getClientStore()
}

interface Sortable{
+sortByTin(clientList)
+sortByName(clientList)
}

class ClientStore {
+ getClientByEmail(email)
+ getClientsWithValTstList()
}

class ClientMapper{
+ toDtoList(clientList)
}

class ClientDTO

class ShowTestResultsUI

class ShowTestResultsController

class TestStore {
+ getValidatedTestsByClient(client)
+ getTestByCode(testCode)
}

class Test {
- testCode
- nhsCode
- dateOfCreation
- dateReport
- timeReport
- dateResults
- timeResults
- dateValidation
- timeValidation
+ getTestParamResults()
}

class TestMapper {
+ toDtoList(tests)
}

class TestParamList {
+ getTestParamResults()
}

class TestParameter {
+ getTestParamResult()
}

class TestParameterResult {
- value
- metric
- refValue
}

ShowClientListUI ..> ShowClientListController
ShowClientListController ..> Company
ShowClientListController ..> Sortable
ShowClientListController ..> ClientMapper
Client - -> Sortable : is
ClientStore - -> Client : contains
ClientMapper ..> ClientDTO
ShowClientListUI ..> ClientDTO
ShowTestResultsUI ..> ShowTestResultsController
ShowTestResultsUI ..> TestDTO
ShowTestResultsController ..> TestMapper
TestMapper .left.> TestDTO
ShowTestResultsController ..> Company
Company - -> ClientStore : uses
Company - -> TestStore : uses
TestStore - -> Test : contains
Test - -> TestParamList : uses
TestParamList - -> TestParameter : contains
TestParameter - -> TestParameterResult : contains

@enduml

PlantUML version 1.2021.5(Sun Apr 25 12:20:28 BST 2021)
(GPL source distribution)
Java Runtime: OpenJDK Runtime Environment
JVM: OpenJDK 64-Bit Server VM
Default Encoding: Cp1252
Language: pt
Country: PT
--></g></svg>