<?xml version="1.0" encoding="UTF-8" standalone="no"?><svg xmlns="http://www.w3.org/2000/svg" xmlns:xlink="http://www.w3.org/1999/xlink" contentScriptType="application/ecmascript" contentStyleType="text/css" height="798.75px" preserveAspectRatio="none" style="width:680px;height:798px;" version="1.1" viewBox="0 0 680 798" width="680px" zoomAndPan="magnify"><defs><filter height="300%" id="f1get4rcjz4nbh" width="300%" x="-1" y="-1"><feGaussianBlur result="blurOut" stdDeviation="2.5"/><feColorMatrix in="blurOut" result="blurOut2" type="matrix" values="0 0 0 0 0 0 0 0 0 0 0 0 0 0 0 0 0 0 .4 0"/><feOffset dx="5.0" dy="5.0" in="blurOut2" result="blurOut3"/><feBlend in="SourceGraphic" in2="blurOut3" mode="normal"/></filter></defs><g><!--MD5=[02e4b9b7573f1156f41e60aa5b4e25a4]
class Company--><rect codeLine="2" fill="#FEFECE" filter="url(#f1get4rcjz4nbh)" height="77.2949" id="Company" style="stroke:#A80036;stroke-width:1.875;" width="106.25" x="41.25" y="26.25"/><ellipse cx="60" cy="46.25" fill="#ADD1B2" rx="13.75" ry="13.75" style="stroke:#A80036;stroke-width:1.25;"/><path d="M62.5,41.875 Q62.7539,41.25 63.0469,40.9375 Q63.3398,40.625 63.6719,40.625 Q64.2578,40.625 64.6289,40.9766 Q65,41.3281 65,42.1484 L65,44.1016 Q65,44.9219 64.6484,45.2734 Q64.2969,45.625 63.75,45.625 Q63.2617,45.625 62.9492,45.4102 Q62.6367,45.1953 62.5,44.6289 Q62.4414,44.2383 62.2266,44.0234 Q61.8359,43.6133 61.1328,43.3789 Q60.4297,43.125 59.7266,43.125 Q58.8477,43.125 58.1055,43.4766 Q57.3828,43.8281 56.8164,44.6094 Q56.25,45.3906 56.25,46.4648 L56.25,47.6172 Q56.25,48.9063 57.3047,49.7656 Q58.3594,50.625 60.2344,50.625 Q61.3477,50.625 62.1289,50.3711 Q62.5781,50.2344 63.0859,49.7852 Q63.418,49.5313 63.5938,49.4531 Q63.7695,49.375 63.9844,49.375 Q64.3945,49.375 64.6875,49.707 Q65,50.0195 65,50.4688 Q65,50.8984 64.5703,51.4063 Q63.9453,52.1484 62.9492,52.5586 Q61.6406,53.125 60.0391,53.125 Q58.1641,53.125 56.6602,52.3828 Q55.4492,51.7969 54.5898,50.5273 Q53.75,49.2578 53.75,47.7539 L53.75,46.3867 Q53.75,44.8242 54.4922,43.457 Q55.2539,42.0898 56.5625,41.3672 Q57.8906,40.625 59.375,40.625 Q60.2734,40.625 61.0547,40.9375 Q61.8359,41.25 62.5,41.875 Z " fill="#000000"/><text fill="#000000" font-family="sans-serif" font-size="15" lengthAdjust="spacing" textLength="66.25" x="77.5" y="52.3877">Company</text><line style="stroke:#A80036;stroke-width:1.875;" x1="42.5" x2="146.25" y1="66.25" y2="66.25"/><rect fill="none" height="7.5" style="stroke:#C82930;stroke-width:1.25;" width="7.5" x="51.25" y="76.25"/><text fill="#000000" font-family="sans-serif" font-size="13.75" lengthAdjust="spacing" textLength="68.75" x="66.25" y="85.5237">designation</text><line style="stroke:#A80036;stroke-width:1.875;" x1="42.5" x2="146.25" y1="93.5449" y2="93.5449"/><!--MD5=[ed6624c6556d5e7b1bd23032162d20b7]
class Client--><rect codeLine="6" fill="#FEFECE" filter="url(#f1get4rcjz4nbh)" height="215.6543" id="Client" style="stroke:#A80036;stroke-width:1.875;" width="116.25" x="8.75" y="566.25"/><ellipse cx="43.8125" cy="586.25" fill="#ADD1B2" rx="13.75" ry="13.75" style="stroke:#A80036;stroke-width:1.25;"/><path d="M46.3125,581.875 Q46.5664,581.25 46.8594,580.9375 Q47.1523,580.625 47.4844,580.625 Q48.0703,580.625 48.4414,580.9766 Q48.8125,581.3281 48.8125,582.1484 L48.8125,584.1016 Q48.8125,584.9219 48.4609,585.2734 Q48.1094,585.625 47.5625,585.625 Q47.0742,585.625 46.7617,585.4102 Q46.4492,585.1953 46.3125,584.6289 Q46.2539,584.2383 46.0391,584.0234 Q45.6484,583.6133 44.9453,583.3789 Q44.2422,583.125 43.5391,583.125 Q42.6602,583.125 41.918,583.4766 Q41.1953,583.8281 40.6289,584.6094 Q40.0625,585.3906 40.0625,586.4648 L40.0625,587.6172 Q40.0625,588.9063 41.1172,589.7656 Q42.1719,590.625 44.0469,590.625 Q45.1602,590.625 45.9414,590.3711 Q46.3906,590.2344 46.8984,589.7852 Q47.2305,589.5313 47.4063,589.4531 Q47.582,589.375 47.7969,589.375 Q48.207,589.375 48.5,589.707 Q48.8125,590.0195 48.8125,590.4688 Q48.8125,590.8984 48.3828,591.4063 Q47.7578,592.1484 46.7617,592.5586 Q45.4531,593.125 43.8516,593.125 Q41.9766,593.125 40.4727,592.3828 Q39.2617,591.7969 38.4023,590.5273 Q37.5625,589.2578 37.5625,587.7539 L37.5625,586.3867 Q37.5625,584.8242 38.3047,583.457 Q39.0664,582.0898 40.375,581.3672 Q41.7031,580.625 43.1875,580.625 Q44.0859,580.625 44.8672,580.9375 Q45.6484,581.25 46.3125,581.875 Z " fill="#000000"/><text fill="#000000" font-family="sans-serif" font-size="15" lengthAdjust="spacing" textLength="40" x="64.9375" y="592.3877">Client</text><line style="stroke:#A80036;stroke-width:1.875;" x1="10" x2="123.75" y1="606.25" y2="606.25"/><rect fill="none" height="7.5" style="stroke:#C82930;stroke-width:1.25;" width="7.5" x="18.75" y="616.25"/><text fill="#000000" font-family="sans-serif" font-size="13.75" lengthAdjust="spacing" textLength="32.5" x="33.75" y="625.5237">name</text><rect fill="none" height="7.5" style="stroke:#C82930;stroke-width:1.25;" width="7.5" x="18.75" y="633.5449"/><text fill="#000000" font-family="sans-serif" font-size="13.75" lengthAdjust="spacing" textLength="73.75" x="33.75" y="642.8186">cardNumber</text><rect fill="none" height="7.5" style="stroke:#C82930;stroke-width:1.25;" width="7.5" x="18.75" y="650.8398"/><text fill="#000000" font-family="sans-serif" font-size="13.75" lengthAdjust="spacing" textLength="53.75" x="33.75" y="660.1135">birthDate</text><rect fill="none" height="7.5" style="stroke:#C82930;stroke-width:1.25;" width="7.5" x="18.75" y="668.1348"/><text fill="#000000" font-family="sans-serif" font-size="13.75" lengthAdjust="spacing" textLength="22.5" x="33.75" y="677.4084">sex</text><rect fill="none" height="7.5" style="stroke:#C82930;stroke-width:1.25;" width="7.5" x="18.75" y="685.4297"/><text fill="#000000" font-family="sans-serif" font-size="13.75" lengthAdjust="spacing" textLength="33.75" x="33.75" y="694.7034">nhsID</text><rect fill="none" height="7.5" style="stroke:#C82930;stroke-width:1.25;" width="7.5" x="18.75" y="702.7246"/><text fill="#000000" font-family="sans-serif" font-size="13.75" lengthAdjust="spacing" textLength="17.5" x="33.75" y="711.9983">TIF</text><rect fill="none" height="7.5" style="stroke:#C82930;stroke-width:1.25;" width="7.5" x="18.75" y="720.0195"/><text fill="#000000" font-family="sans-serif" font-size="13.75" lengthAdjust="spacing" textLength="83.75" x="33.75" y="729.2932">phoneNumber</text><rect fill="none" height="7.5" style="stroke:#C82930;stroke-width:1.25;" width="7.5" x="18.75" y="737.3145"/><text fill="#000000" font-family="sans-serif" font-size="13.75" lengthAdjust="spacing" textLength="30" x="33.75" y="746.5881">email</text><rect fill="none" height="7.5" style="stroke:#C82930;stroke-width:1.25;" width="7.5" x="18.75" y="754.6094"/><text fill="#000000" font-family="sans-serif" font-size="13.75" lengthAdjust="spacing" textLength="62.5" x="33.75" y="763.8831">password</text><line style="stroke:#A80036;stroke-width:1.875;" x1="10" x2="123.75" y1="771.9043" y2="771.9043"/><!--MD5=[df38be88ccee13e832d6fafd6288a4ca]
class Test--><rect codeLine="18" fill="#FEFECE" filter="url(#f1get4rcjz4nbh)" height="250.2441" id="Test" style="stroke:#A80036;stroke-width:1.875;" width="117.5" x="159.375" y="218.75"/><ellipse cx="199.5" cy="238.75" fill="#ADD1B2" rx="13.75" ry="13.75" style="stroke:#A80036;stroke-width:1.25;"/><path d="M202,234.375 Q202.2539,233.75 202.5469,233.4375 Q202.8398,233.125 203.1719,233.125 Q203.7578,233.125 204.1289,233.4766 Q204.5,233.8281 204.5,234.6484 L204.5,236.6016 Q204.5,237.4219 204.1484,237.7734 Q203.7969,238.125 203.25,238.125 Q202.7617,238.125 202.4492,237.9102 Q202.1367,237.6953 202,237.1289 Q201.9414,236.7383 201.7266,236.5234 Q201.3359,236.1133 200.6328,235.8789 Q199.9297,235.625 199.2266,235.625 Q198.3477,235.625 197.6055,235.9766 Q196.8828,236.3281 196.3164,237.1094 Q195.75,237.8906 195.75,238.9648 L195.75,240.1172 Q195.75,241.4063 196.8047,242.2656 Q197.8594,243.125 199.7344,243.125 Q200.8477,243.125 201.6289,242.8711 Q202.0781,242.7344 202.5859,242.2852 Q202.918,242.0313 203.0938,241.9531 Q203.2695,241.875 203.4844,241.875 Q203.8945,241.875 204.1875,242.207 Q204.5,242.5195 204.5,242.9688 Q204.5,243.3984 204.0703,243.9063 Q203.4453,244.6484 202.4492,245.0586 Q201.1406,245.625 199.5391,245.625 Q197.6641,245.625 196.1602,244.8828 Q194.9492,244.2969 194.0898,243.0273 Q193.25,241.7578 193.25,240.2539 L193.25,238.8867 Q193.25,237.3242 193.9922,235.957 Q194.7539,234.5898 196.0625,233.8672 Q197.3906,233.125 198.875,233.125 Q199.7734,233.125 200.5547,233.4375 Q201.3359,233.75 202,234.375 Z " fill="#000000"/><text fill="#000000" font-family="sans-serif" font-size="15" lengthAdjust="spacing" textLength="30" x="221.75" y="244.8877">Test</text><line style="stroke:#A80036;stroke-width:1.875;" x1="160.625" x2="275.625" y1="258.75" y2="258.75"/><rect fill="none" height="7.5" style="stroke:#C82930;stroke-width:1.25;" width="7.5" x="169.375" y="268.75"/><text fill="#000000" font-family="sans-serif" font-size="13.75" lengthAdjust="spacing" textLength="53.75" x="184.375" y="278.0237">testCode</text><rect fill="none" height="7.5" style="stroke:#C82930;stroke-width:1.25;" width="7.5" x="169.375" y="286.0449"/><text fill="#000000" font-family="sans-serif" font-size="13.75" lengthAdjust="spacing" textLength="53.75" x="184.375" y="295.3186">nhsCode</text><rect fill="none" height="7.5" style="stroke:#C82930;stroke-width:1.25;" width="7.5" x="169.375" y="303.3398"/><text fill="#000000" font-family="sans-serif" font-size="13.75" lengthAdjust="spacing" textLength="68.75" x="184.375" y="312.6135">designation</text><rect fill="none" height="7.5" style="stroke:#C82930;stroke-width:1.25;" width="7.5" x="169.375" y="320.6348"/><text fill="#000000" font-family="sans-serif" font-size="13.75" lengthAdjust="spacing" textLength="76.25" x="184.375" y="329.9084">dateRegister</text><rect fill="none" height="7.5" style="stroke:#C82930;stroke-width:1.25;" width="7.5" x="169.375" y="337.9297"/><text fill="#000000" font-family="sans-serif" font-size="13.75" lengthAdjust="spacing" textLength="73.75" x="184.375" y="347.2034">timeRegister</text><rect fill="none" height="7.5" style="stroke:#C82930;stroke-width:1.25;" width="7.5" x="169.375" y="355.2246"/><text fill="#000000" font-family="sans-serif" font-size="13.75" lengthAdjust="spacing" textLength="78.75" x="184.375" y="364.4983">dateAnalysis</text><rect fill="none" height="7.5" style="stroke:#C82930;stroke-width:1.25;" width="7.5" x="169.375" y="372.5195"/><text fill="#000000" font-family="sans-serif" font-size="13.75" lengthAdjust="spacing" textLength="76.25" x="184.375" y="381.7932">timeAnalysis</text><rect fill="none" height="7.5" style="stroke:#C82930;stroke-width:1.25;" width="7.5" x="169.375" y="389.8145"/><text fill="#000000" font-family="sans-serif" font-size="13.75" lengthAdjust="spacing" textLength="66.25" x="184.375" y="399.0881">dateReport</text><rect fill="none" height="7.5" style="stroke:#C82930;stroke-width:1.25;" width="7.5" x="169.375" y="407.1094"/><text fill="#000000" font-family="sans-serif" font-size="13.75" lengthAdjust="spacing" textLength="63.75" x="184.375" y="416.3831">timeReport</text><rect fill="none" height="7.5" style="stroke:#C82930;stroke-width:1.25;" width="7.5" x="169.375" y="424.4043"/><text fill="#000000" font-family="sans-serif" font-size="13.75" lengthAdjust="spacing" textLength="85" x="184.375" y="433.678">dateValidation</text><rect fill="none" height="7.5" style="stroke:#C82930;stroke-width:1.25;" width="7.5" x="169.375" y="441.6992"/><text fill="#000000" font-family="sans-serif" font-size="13.75" lengthAdjust="spacing" textLength="82.5" x="184.375" y="450.9729">timeValidation</text><line style="stroke:#A80036;stroke-width:1.875;" x1="160.625" x2="275.625" y1="458.9941" y2="458.9941"/><!--MD5=[4e608140b854dae633589343bce77383]
class TestParameterResult--><rect codeLine="32" fill="#FEFECE" filter="url(#f1get4rcjz4nbh)" height="111.8848" id="TestParameterResult" style="stroke:#A80036;stroke-width:1.875;" width="187.5" x="475.625" y="8.75"/><ellipse cx="494.375" cy="28.75" fill="#ADD1B2" rx="13.75" ry="13.75" style="stroke:#A80036;stroke-width:1.25;"/><path d="M496.875,24.375 Q497.1289,23.75 497.4219,23.4375 Q497.7148,23.125 498.0469,23.125 Q498.6328,23.125 499.0039,23.4766 Q499.375,23.8281 499.375,24.6484 L499.375,26.6016 Q499.375,27.4219 499.0234,27.7734 Q498.6719,28.125 498.125,28.125 Q497.6367,28.125 497.3242,27.9102 Q497.0117,27.6953 496.875,27.1289 Q496.8164,26.7383 496.6016,26.5234 Q496.2109,26.1133 495.5078,25.8789 Q494.8047,25.625 494.1016,25.625 Q493.2227,25.625 492.4805,25.9766 Q491.7578,26.3281 491.1914,27.1094 Q490.625,27.8906 490.625,28.9648 L490.625,30.1172 Q490.625,31.4063 491.6797,32.2656 Q492.7344,33.125 494.6094,33.125 Q495.7227,33.125 496.5039,32.8711 Q496.9531,32.7344 497.4609,32.2852 Q497.793,32.0313 497.9688,31.9531 Q498.1445,31.875 498.3594,31.875 Q498.7695,31.875 499.0625,32.207 Q499.375,32.5195 499.375,32.9688 Q499.375,33.3984 498.9453,33.9063 Q498.3203,34.6484 497.3242,35.0586 Q496.0156,35.625 494.4141,35.625 Q492.5391,35.625 491.0352,34.8828 Q489.8242,34.2969 488.9648,33.0273 Q488.125,31.7578 488.125,30.2539 L488.125,28.8867 Q488.125,27.3242 488.8672,25.957 Q489.6289,24.5898 490.9375,23.8672 Q492.2656,23.125 493.75,23.125 Q494.6484,23.125 495.4297,23.4375 Q496.2109,23.75 496.875,24.375 Z " fill="#000000"/><text fill="#000000" font-family="sans-serif" font-size="15" lengthAdjust="spacing" textLength="147.5" x="511.875" y="34.8877">TestParameterResult</text><line style="stroke:#A80036;stroke-width:1.875;" x1="476.875" x2="661.875" y1="48.75" y2="48.75"/><rect fill="none" height="7.5" style="stroke:#C82930;stroke-width:1.25;" width="7.5" x="485.625" y="58.75"/><text fill="#000000" font-family="sans-serif" font-size="13.75" lengthAdjust="spacing" textLength="60" x="500.625" y="68.0237">createdAt</text><rect fill="none" height="7.5" style="stroke:#C82930;stroke-width:1.25;" width="7.5" x="485.625" y="76.0449"/><text fill="#000000" font-family="sans-serif" font-size="13.75" lengthAdjust="spacing" textLength="32.5" x="500.625" y="85.3186">value</text><rect fill="none" height="7.5" style="stroke:#C82930;stroke-width:1.25;" width="7.5" x="485.625" y="93.3398"/><text fill="#000000" font-family="sans-serif" font-size="13.75" lengthAdjust="spacing" textLength="36.25" x="500.625" y="102.6135">metric</text><line style="stroke:#A80036;stroke-width:1.875;" x1="476.875" x2="661.875" y1="110.6348" y2="110.6348"/><!--MD5=[1f6362a5c8f21d8d6a0fce68f3a92a4e]
class Parameter--><rect codeLine="38" fill="#FEFECE" filter="url(#f1get4rcjz4nbh)" height="111.8848" id="Parameter" style="stroke:#A80036;stroke-width:1.875;" width="112.5" x="305.625" y="618.125"/><ellipse cx="324.375" cy="638.125" fill="#ADD1B2" rx="13.75" ry="13.75" style="stroke:#A80036;stroke-width:1.25;"/><path d="M326.875,633.75 Q327.1289,633.125 327.4219,632.8125 Q327.7148,632.5 328.0469,632.5 Q328.6328,632.5 329.0039,632.8516 Q329.375,633.2031 329.375,634.0234 L329.375,635.9766 Q329.375,636.7969 329.0234,637.1484 Q328.6719,637.5 328.125,637.5 Q327.6367,637.5 327.3242,637.2852 Q327.0117,637.0703 326.875,636.5039 Q326.8164,636.1133 326.6016,635.8984 Q326.2109,635.4883 325.5078,635.2539 Q324.8047,635 324.1016,635 Q323.2227,635 322.4805,635.3516 Q321.7578,635.7031 321.1914,636.4844 Q320.625,637.2656 320.625,638.3398 L320.625,639.4922 Q320.625,640.7813 321.6797,641.6406 Q322.7344,642.5 324.6094,642.5 Q325.7227,642.5 326.5039,642.2461 Q326.9531,642.1094 327.4609,641.6602 Q327.793,641.4063 327.9688,641.3281 Q328.1445,641.25 328.3594,641.25 Q328.7695,641.25 329.0625,641.582 Q329.375,641.8945 329.375,642.3438 Q329.375,642.7734 328.9453,643.2813 Q328.3203,644.0234 327.3242,644.4336 Q326.0156,645 324.4141,645 Q322.5391,645 321.0352,644.2578 Q319.8242,643.6719 318.9648,642.4023 Q318.125,641.1328 318.125,639.6289 L318.125,638.2617 Q318.125,636.6992 318.8672,635.332 Q319.6289,633.9648 320.9375,633.2422 Q322.2656,632.5 323.75,632.5 Q324.6484,632.5 325.4297,632.8125 Q326.2109,633.125 326.875,633.75 Z " fill="#000000"/><text fill="#000000" font-family="sans-serif" font-size="15" lengthAdjust="spacing" textLength="72.5" x="341.875" y="644.2627">Parameter</text><line style="stroke:#A80036;stroke-width:1.875;" x1="306.875" x2="416.875" y1="658.125" y2="658.125"/><rect fill="none" height="7.5" style="stroke:#C82930;stroke-width:1.25;" width="7.5" x="315.625" y="668.125"/><text fill="#000000" font-family="sans-serif" font-size="13.75" lengthAdjust="spacing" textLength="30" x="330.625" y="677.3987">code</text><rect fill="none" height="7.5" style="stroke:#C82930;stroke-width:1.25;" width="7.5" x="315.625" y="685.4199"/><text fill="#000000" font-family="sans-serif" font-size="13.75" lengthAdjust="spacing" textLength="65" x="330.625" y="694.6936">shortName</text><rect fill="none" height="7.5" style="stroke:#C82930;stroke-width:1.25;" width="7.5" x="315.625" y="702.7148"/><text fill="#000000" font-family="sans-serif" font-size="13.75" lengthAdjust="spacing" textLength="66.25" x="330.625" y="711.9885">description</text><line style="stroke:#A80036;stroke-width:1.875;" x1="306.875" x2="416.875" y1="720.0098" y2="720.0098"/><!--MD5=[0f07739f46effee96e095e9c408da841]
class TestParameter--><rect fill="#FEFECE" filter="url(#f1get4rcjz4nbh)" height="60" id="TestParameter" style="stroke:#A80036;stroke-width:1.875;" width="142.5" x="209.375" y="35"/><ellipse cx="228.125" cy="55" fill="#ADD1B2" rx="13.75" ry="13.75" style="stroke:#A80036;stroke-width:1.25;"/><path d="M230.625,50.625 Q230.8789,50 231.1719,49.6875 Q231.4648,49.375 231.7969,49.375 Q232.3828,49.375 232.7539,49.7266 Q233.125,50.0781 233.125,50.8984 L233.125,52.8516 Q233.125,53.6719 232.7734,54.0234 Q232.4219,54.375 231.875,54.375 Q231.3867,54.375 231.0742,54.1602 Q230.7617,53.9453 230.625,53.3789 Q230.5664,52.9883 230.3516,52.7734 Q229.9609,52.3633 229.2578,52.1289 Q228.5547,51.875 227.8516,51.875 Q226.9727,51.875 226.2305,52.2266 Q225.5078,52.5781 224.9414,53.3594 Q224.375,54.1406 224.375,55.2148 L224.375,56.3672 Q224.375,57.6563 225.4297,58.5156 Q226.4844,59.375 228.3594,59.375 Q229.4727,59.375 230.2539,59.1211 Q230.7031,58.9844 231.2109,58.5352 Q231.543,58.2813 231.7188,58.2031 Q231.8945,58.125 232.1094,58.125 Q232.5195,58.125 232.8125,58.457 Q233.125,58.7695 233.125,59.2188 Q233.125,59.6484 232.6953,60.1563 Q232.0703,60.8984 231.0742,61.3086 Q229.7656,61.875 228.1641,61.875 Q226.2891,61.875 224.7852,61.1328 Q223.5742,60.5469 222.7148,59.2773 Q221.875,58.0078 221.875,56.5039 L221.875,55.1367 Q221.875,53.5742 222.6172,52.207 Q223.3789,50.8398 224.6875,50.1172 Q226.0156,49.375 227.5,49.375 Q228.3984,49.375 229.1797,49.6875 Q229.9609,50 230.625,50.625 Z " fill="#000000"/><text fill="#000000" font-family="sans-serif" font-size="15" lengthAdjust="spacing" textLength="102.5" x="245.625" y="61.1377">TestParameter</text><line style="stroke:#A80036;stroke-width:1.875;" x1="210.625" x2="350.625" y1="75" y2="75"/><line style="stroke:#A80036;stroke-width:1.875;" x1="210.625" x2="350.625" y1="85" y2="85"/><!--MD5=[7e4bc624457760b649895ff2ead938fa]
link Company to Test--><path codeLine="44" d="M111.325,104.0875 C124.625,133.7875 143.95,176.9125 162.5125,218.3375 " fill="none" id="Company-Test" style="stroke:#A80036;stroke-width:1.25;"/><polygon fill="#000000" points="154.4304,175.9234,153.1602,164.1033,146.4551,167.1074,154.4304,175.9234" style="stroke:#000000;stroke-width:1.25;"/><text fill="#000000" font-family="sans-serif" font-size="16.25" lengthAdjust="spacing" textLength="62.5" x="163.125" y="176.8689">performs</text><text fill="#000000" font-family="sans-serif" font-size="16.25" lengthAdjust="spacing" textLength="8.75" x="104.9721" y="130.3751">1</text><text fill="#000000" font-family="sans-serif" font-size="16.25" lengthAdjust="spacing" textLength="6.25" x="151.949" y="205.2692">*</text><!--MD5=[6eee883fdf517d3604e8bd0f2058e9aa]
link Company to Client--><path codeLine="45" d="M92.675,103.75 C88.575,194.3375 78,427.725 71.7375,565.95 " fill="none" id="Company-Client" style="stroke:#A80036;stroke-width:1.25;"/><polygon fill="#000000" points="94.0922,350.2133,98.2737,339.0848,90.9339,338.7523,94.0922,350.2133" style="stroke:#000000;stroke-width:1.25;"/><text fill="#000000" font-family="sans-serif" font-size="16.25" lengthAdjust="spacing" textLength="26.25" x="105.625" y="350.6189">has</text><text fill="#000000" font-family="sans-serif" font-size="16.25" lengthAdjust="spacing" textLength="8.75" x="82.729" y="130.28">1</text><text fill="#000000" font-family="sans-serif" font-size="16.25" lengthAdjust="spacing" textLength="25" x="46.0812" y="552.6862">1..*</text><!--MD5=[3994f36c72829dbcddd1cf7021dddf61]
link Test to Client--><path codeLine="46" d="M159.3625,448.5 C149.325,467.4875 139.3375,487.3 130.625,506.25 C121.875,525.275 113.3125,545.8625 105.4375,565.875 " fill="none" id="Test-Client" style="stroke:#A80036;stroke-width:1.25;"/><polygon fill="#000000" points="134.2658,523.399,142.3241,514.6587,135.6477,511.5914,134.2658,523.399" style="stroke:#000000;stroke-width:1.25;"/><text fill="#000000" font-family="sans-serif" font-size="16.25" lengthAdjust="spacing" textLength="93.75" x="148.125" y="524.3689">requested by</text><text fill="#000000" font-family="sans-serif" font-size="16.25" lengthAdjust="spacing" textLength="6.25" x="143.2492" y="460.4852">*</text><text fill="#000000" font-family="sans-serif" font-size="16.25" lengthAdjust="spacing" textLength="8.75" x="99.6255" y="552.6048">1</text><!--MD5=[c23963f6e403fc3ebec8dae22c30ade6]
link Test to Parameter--><path codeLine="47" d="M241.0125,469.1625 C246.6375,489.5 253.525,510.0375 261.875,528.75 C275.975,560.35 297.2375,592.3125 316.525,618.1 " fill="none" id="Test-Parameter" style="stroke:#A80036;stroke-width:1.25;"/><polygon fill="#000000" points="270.9513,523.2942,269.1151,511.5486,262.5619,514.8712,270.9513,523.2942" style="stroke:#000000;stroke-width:1.25;"/><text fill="#000000" font-family="sans-serif" font-size="16.25" lengthAdjust="spacing" textLength="145" x="279.375" y="524.3689">requests analysis of</text><text fill="#000000" font-family="sans-serif" font-size="16.25" lengthAdjust="spacing" textLength="6.25" x="236.2138" y="495.9829">*</text><text fill="#000000" font-family="sans-serif" font-size="16.25" lengthAdjust="spacing" textLength="25" x="282.3052" y="604.4904">1..*</text><!--MD5=[92e8e476cc9e9004a7125f53a120ec97]
link TestParameter to Parameter--><path codeLine="48" d="M294.3,95.25 C326.075,164.4375 404.1625,345.3875 430.625,506.25 C437.0375,545.2125 420.475,586.2375 402.0125,617.875 " fill="none" id="TestParameter-Parameter" style="stroke:#A80036;stroke-width:1.25;"/><polygon fill="#000000" points="429.3866,350.0911,430.7024,338.2759,423.5063,339.759,429.3866,350.0911" style="stroke:#000000;stroke-width:1.25;"/><text fill="#000000" font-family="sans-serif" font-size="16.25" lengthAdjust="spacing" textLength="97.5" x="439.375" y="350.6189">associated to</text><text fill="#000000" font-family="sans-serif" font-size="16.25" lengthAdjust="spacing" textLength="6.25" x="290.6216" y="121.9834">*</text><text fill="#000000" font-family="sans-serif" font-size="16.25" lengthAdjust="spacing" textLength="8.75" x="398.7386" y="604.6418">1</text><!--MD5=[7d615427424eb1e9d8965c4eb17ecbf5]
link TestParameter to Test--><path codeLine="49" d="M274.05,95.2875 C267.3625,124.8625 256.525,172.7625 246.1625,218.5625 " fill="none" id="TestParameter-Test" style="stroke:#A80036;stroke-width:1.25;"/><polygon fill="#000000" points="265.754,164.1238,259.6762,174.3409,266.8424,175.962,265.754,164.1238" style="stroke:#000000;stroke-width:1.25;"/><text fill="#000000" font-family="sans-serif" font-size="16.25" lengthAdjust="spacing" textLength="26.25" x="275.625" y="176.8689">has</text><text fill="#000000" font-family="sans-serif" font-size="16.25" lengthAdjust="spacing" textLength="6.25" x="265.4356" y="122.03">*</text><text fill="#000000" font-family="sans-serif" font-size="16.25" lengthAdjust="spacing" textLength="8.75" x="239.2242" y="205.0886">1</text><!--MD5=[0e00e25ac6b8c14659aaff2cf7e5df08]
link TestParameter to TestParameterResult--><path codeLine="50" d="M352,65 C389.25,65 435.275,65 475.3875,65 " fill="none" id="TestParameter-TestParameterResult" style="stroke:#A80036;stroke-width:1.25;"/><polygon fill="#000000" points="386.25,50.2197,374.9436,46.5461,374.9436,53.8934,386.25,50.2197" style="stroke:#000000;stroke-width:1.25;"/><text fill="#000000" font-family="sans-serif" font-size="16.25" lengthAdjust="spacing" textLength="61.25" x="391.25" y="56.8689">contains</text><text fill="#000000" font-family="sans-serif" font-size="16.25" lengthAdjust="spacing" textLength="8.75" x="361.7055" y="60.6158">1</text><text fill="#000000" font-family="sans-serif" font-size="16.25" lengthAdjust="spacing" textLength="27.5" x="438.2921" y="82.8065">0..1</text><!--MD5=[b3edbe170379eba0a942c5f04c4db071]
@startuml

class Company {
-designation
}

class Client {
-name
-cardNumber
-birthDate
-sex
-nhsID
-TIF
-phoneNumber
-email
-password
}

class Test {
-testCode
-nhsCode
-designation
-dateRegister
-timeRegister
-dateAnalysis
-timeAnalysis
-dateReport
-timeReport
-dateValidation
-timeValidation
}

class TestParameterResult {
-createdAt
-value
-metric
}

class Parameter {
-code
-shortName
-description
}

Test "*"-up-"1" Company : performs <
Company "1"- -"1..*" Client : has >
Test "*"- -"1" Client : requested by >
Test "*"- -"1..*" Parameter : requests analysis of >
TestParameter "*"- -"1" Parameter : associated to >
TestParameter "*"- -"1" Test : has <
TestParameter "1"-right- "0..1" TestParameterResult : contains >

@enduml

PlantUML version 1.2021.5(Sun Apr 25 12:20:28 BST 2021)
(GPL source distribution)
Java Runtime: OpenJDK Runtime Environment
JVM: OpenJDK 64-Bit Server VM
Default Encoding: Cp1252
Language: pt
Country: PT
--></g></svg>