<?xml version="1.0" encoding="UTF-8" standalone="no"?><svg xmlns="http://www.w3.org/2000/svg" xmlns:xlink="http://www.w3.org/1999/xlink" contentScriptType="application/ecmascript" contentStyleType="text/css" height="763.75px" preserveAspectRatio="none" style="width:253px;height:763px;" version="1.1" viewBox="0 0 253 763" width="253.75px" zoomAndPan="magnify"><defs><filter height="300%" id="f1lgx3156v87ap" width="300%" x="-1" y="-1"><feGaussianBlur result="blurOut" stdDeviation="2.5"/><feColorMatrix in="blurOut" result="blurOut2" type="matrix" values="0 0 0 0 0 0 0 0 0 0 0 0 0 0 0 0 0 0 .4 0"/><feOffset dx="5.0" dy="5.0" in="blurOut2" result="blurOut3"/><feBlend in="SourceGraphic" in2="blurOut3" mode="normal"/></filter></defs><g><!--MD5=[02e4b9b7573f1156f41e60aa5b4e25a4]
class Company--><rect codeLine="2" fill="#FEFECE" filter="url(#f1lgx3156v87ap)" height="77.2949" id="Company" style="stroke:#A80036;stroke-width:1.875;" width="106.25" x="32.5" y="8.75"/><ellipse cx="51.25" cy="28.75" fill="#ADD1B2" rx="13.75" ry="13.75" style="stroke:#A80036;stroke-width:1.25;"/><path d="M53.75,24.375 Q54.0039,23.75 54.2969,23.4375 Q54.5898,23.125 54.9219,23.125 Q55.5078,23.125 55.8789,23.4766 Q56.25,23.8281 56.25,24.6484 L56.25,26.6016 Q56.25,27.4219 55.8984,27.7734 Q55.5469,28.125 55,28.125 Q54.5117,28.125 54.1992,27.9102 Q53.8867,27.6953 53.75,27.1289 Q53.6914,26.7383 53.4766,26.5234 Q53.0859,26.1133 52.3828,25.8789 Q51.6797,25.625 50.9766,25.625 Q50.0977,25.625 49.3555,25.9766 Q48.6328,26.3281 48.0664,27.1094 Q47.5,27.8906 47.5,28.9648 L47.5,30.1172 Q47.5,31.4063 48.5547,32.2656 Q49.6094,33.125 51.4844,33.125 Q52.5977,33.125 53.3789,32.8711 Q53.8281,32.7344 54.3359,32.2852 Q54.668,32.0313 54.8438,31.9531 Q55.0195,31.875 55.2344,31.875 Q55.6445,31.875 55.9375,32.207 Q56.25,32.5195 56.25,32.9688 Q56.25,33.3984 55.8203,33.9063 Q55.1953,34.6484 54.1992,35.0586 Q52.8906,35.625 51.2891,35.625 Q49.4141,35.625 47.9102,34.8828 Q46.6992,34.2969 45.8398,33.0273 Q45,31.7578 45,30.2539 L45,28.8867 Q45,27.3242 45.7422,25.957 Q46.5039,24.5898 47.8125,23.8672 Q49.1406,23.125 50.625,23.125 Q51.5234,23.125 52.3047,23.4375 Q53.0859,23.75 53.75,24.375 Z " fill="#000000"/><text fill="#000000" font-family="sans-serif" font-size="15" lengthAdjust="spacing" textLength="66.25" x="68.75" y="34.8877">Company</text><line style="stroke:#A80036;stroke-width:1.875;" x1="33.75" x2="137.5" y1="48.75" y2="48.75"/><rect fill="none" height="7.5" style="stroke:#C82930;stroke-width:1.25;" width="7.5" x="42.5" y="58.75"/><text fill="#000000" font-family="sans-serif" font-size="13.75" lengthAdjust="spacing" textLength="68.75" x="57.5" y="68.0237">designation</text><line style="stroke:#A80036;stroke-width:1.875;" x1="33.75" x2="137.5" y1="76.0449" y2="76.0449"/><!--MD5=[ed6624c6556d5e7b1bd23032162d20b7]
class Client--><rect codeLine="6" fill="#FEFECE" filter="url(#f1lgx3156v87ap)" height="215.6543" id="Client" style="stroke:#A80036;stroke-width:1.875;" width="116.25" x="8.75" y="531.25"/><ellipse cx="43.8125" cy="551.25" fill="#ADD1B2" rx="13.75" ry="13.75" style="stroke:#A80036;stroke-width:1.25;"/><path d="M46.3125,546.875 Q46.5664,546.25 46.8594,545.9375 Q47.1523,545.625 47.4844,545.625 Q48.0703,545.625 48.4414,545.9766 Q48.8125,546.3281 48.8125,547.1484 L48.8125,549.1016 Q48.8125,549.9219 48.4609,550.2734 Q48.1094,550.625 47.5625,550.625 Q47.0742,550.625 46.7617,550.4102 Q46.4492,550.1953 46.3125,549.6289 Q46.2539,549.2383 46.0391,549.0234 Q45.6484,548.6133 44.9453,548.3789 Q44.2422,548.125 43.5391,548.125 Q42.6602,548.125 41.918,548.4766 Q41.1953,548.8281 40.6289,549.6094 Q40.0625,550.3906 40.0625,551.4648 L40.0625,552.6172 Q40.0625,553.9063 41.1172,554.7656 Q42.1719,555.625 44.0469,555.625 Q45.1602,555.625 45.9414,555.3711 Q46.3906,555.2344 46.8984,554.7852 Q47.2305,554.5313 47.4063,554.4531 Q47.582,554.375 47.7969,554.375 Q48.207,554.375 48.5,554.707 Q48.8125,555.0195 48.8125,555.4688 Q48.8125,555.8984 48.3828,556.4063 Q47.7578,557.1484 46.7617,557.5586 Q45.4531,558.125 43.8516,558.125 Q41.9766,558.125 40.4727,557.3828 Q39.2617,556.7969 38.4023,555.5273 Q37.5625,554.2578 37.5625,552.7539 L37.5625,551.3867 Q37.5625,549.8242 38.3047,548.457 Q39.0664,547.0898 40.375,546.3672 Q41.7031,545.625 43.1875,545.625 Q44.0859,545.625 44.8672,545.9375 Q45.6484,546.25 46.3125,546.875 Z " fill="#000000"/><text fill="#000000" font-family="sans-serif" font-size="15" lengthAdjust="spacing" textLength="40" x="64.9375" y="557.3877">Client</text><line style="stroke:#A80036;stroke-width:1.875;" x1="10" x2="123.75" y1="571.25" y2="571.25"/><rect fill="none" height="7.5" style="stroke:#C82930;stroke-width:1.25;" width="7.5" x="18.75" y="581.25"/><text fill="#000000" font-family="sans-serif" font-size="13.75" lengthAdjust="spacing" textLength="32.5" x="33.75" y="590.5237">name</text><rect fill="none" height="7.5" style="stroke:#C82930;stroke-width:1.25;" width="7.5" x="18.75" y="598.5449"/><text fill="#000000" font-family="sans-serif" font-size="13.75" lengthAdjust="spacing" textLength="73.75" x="33.75" y="607.8186">cardNumber</text><rect fill="none" height="7.5" style="stroke:#C82930;stroke-width:1.25;" width="7.5" x="18.75" y="615.8398"/><text fill="#000000" font-family="sans-serif" font-size="13.75" lengthAdjust="spacing" textLength="53.75" x="33.75" y="625.1135">birthDate</text><rect fill="none" height="7.5" style="stroke:#C82930;stroke-width:1.25;" width="7.5" x="18.75" y="633.1348"/><text fill="#000000" font-family="sans-serif" font-size="13.75" lengthAdjust="spacing" textLength="22.5" x="33.75" y="642.4084">sex</text><rect fill="none" height="7.5" style="stroke:#C82930;stroke-width:1.25;" width="7.5" x="18.75" y="650.4297"/><text fill="#000000" font-family="sans-serif" font-size="13.75" lengthAdjust="spacing" textLength="33.75" x="33.75" y="659.7034">nhsID</text><rect fill="none" height="7.5" style="stroke:#C82930;stroke-width:1.25;" width="7.5" x="18.75" y="667.7246"/><text fill="#000000" font-family="sans-serif" font-size="13.75" lengthAdjust="spacing" textLength="17.5" x="33.75" y="676.9983">TIF</text><rect fill="none" height="7.5" style="stroke:#C82930;stroke-width:1.25;" width="7.5" x="18.75" y="685.0195"/><text fill="#000000" font-family="sans-serif" font-size="13.75" lengthAdjust="spacing" textLength="83.75" x="33.75" y="694.2932">phoneNumber</text><rect fill="none" height="7.5" style="stroke:#C82930;stroke-width:1.25;" width="7.5" x="18.75" y="702.3145"/><text fill="#000000" font-family="sans-serif" font-size="13.75" lengthAdjust="spacing" textLength="30" x="33.75" y="711.5881">email</text><rect fill="none" height="7.5" style="stroke:#C82930;stroke-width:1.25;" width="7.5" x="18.75" y="719.6094"/><text fill="#000000" font-family="sans-serif" font-size="13.75" lengthAdjust="spacing" textLength="62.5" x="33.75" y="728.8831">password</text><line style="stroke:#A80036;stroke-width:1.875;" x1="10" x2="123.75" y1="736.9043" y2="736.9043"/><!--MD5=[df38be88ccee13e832d6fafd6288a4ca]
class Test--><rect codeLine="18" fill="#FEFECE" filter="url(#f1lgx3156v87ap)" height="250.2441" id="Test" style="stroke:#A80036;stroke-width:1.875;" width="117.5" x="119.375" y="183.75"/><ellipse cx="159.5" cy="203.75" fill="#ADD1B2" rx="13.75" ry="13.75" style="stroke:#A80036;stroke-width:1.25;"/><path d="M162,199.375 Q162.2539,198.75 162.5469,198.4375 Q162.8398,198.125 163.1719,198.125 Q163.7578,198.125 164.1289,198.4766 Q164.5,198.8281 164.5,199.6484 L164.5,201.6016 Q164.5,202.4219 164.1484,202.7734 Q163.7969,203.125 163.25,203.125 Q162.7617,203.125 162.4492,202.9102 Q162.1367,202.6953 162,202.1289 Q161.9414,201.7383 161.7266,201.5234 Q161.3359,201.1133 160.6328,200.8789 Q159.9297,200.625 159.2266,200.625 Q158.3477,200.625 157.6055,200.9766 Q156.8828,201.3281 156.3164,202.1094 Q155.75,202.8906 155.75,203.9648 L155.75,205.1172 Q155.75,206.4063 156.8047,207.2656 Q157.8594,208.125 159.7344,208.125 Q160.8477,208.125 161.6289,207.8711 Q162.0781,207.7344 162.5859,207.2852 Q162.918,207.0313 163.0938,206.9531 Q163.2695,206.875 163.4844,206.875 Q163.8945,206.875 164.1875,207.207 Q164.5,207.5195 164.5,207.9688 Q164.5,208.3984 164.0703,208.9063 Q163.4453,209.6484 162.4492,210.0586 Q161.1406,210.625 159.5391,210.625 Q157.6641,210.625 156.1602,209.8828 Q154.9492,209.2969 154.0898,208.0273 Q153.25,206.7578 153.25,205.2539 L153.25,203.8867 Q153.25,202.3242 153.9922,200.957 Q154.7539,199.5898 156.0625,198.8672 Q157.3906,198.125 158.875,198.125 Q159.7734,198.125 160.5547,198.4375 Q161.3359,198.75 162,199.375 Z " fill="#000000"/><text fill="#000000" font-family="sans-serif" font-size="15" lengthAdjust="spacing" textLength="30" x="181.75" y="209.8877">Test</text><line style="stroke:#A80036;stroke-width:1.875;" x1="120.625" x2="235.625" y1="223.75" y2="223.75"/><rect fill="none" height="7.5" style="stroke:#C82930;stroke-width:1.25;" width="7.5" x="129.375" y="233.75"/><text fill="#000000" font-family="sans-serif" font-size="13.75" lengthAdjust="spacing" textLength="53.75" x="144.375" y="243.0237">testCode</text><rect fill="none" height="7.5" style="stroke:#C82930;stroke-width:1.25;" width="7.5" x="129.375" y="251.0449"/><text fill="#000000" font-family="sans-serif" font-size="13.75" lengthAdjust="spacing" textLength="53.75" x="144.375" y="260.3186">nhsCode</text><rect fill="none" height="7.5" style="stroke:#C82930;stroke-width:1.25;" width="7.5" x="129.375" y="268.3398"/><text fill="#000000" font-family="sans-serif" font-size="13.75" lengthAdjust="spacing" textLength="68.75" x="144.375" y="277.6135">designation</text><rect fill="none" height="7.5" style="stroke:#C82930;stroke-width:1.25;" width="7.5" x="129.375" y="285.6348"/><text fill="#000000" font-family="sans-serif" font-size="13.75" lengthAdjust="spacing" textLength="76.25" x="144.375" y="294.9084">dateRegister</text><rect fill="none" height="7.5" style="stroke:#C82930;stroke-width:1.25;" width="7.5" x="129.375" y="302.9297"/><text fill="#000000" font-family="sans-serif" font-size="13.75" lengthAdjust="spacing" textLength="73.75" x="144.375" y="312.2034">timeRegister</text><rect fill="none" height="7.5" style="stroke:#C82930;stroke-width:1.25;" width="7.5" x="129.375" y="320.2246"/><text fill="#000000" font-family="sans-serif" font-size="13.75" lengthAdjust="spacing" textLength="78.75" x="144.375" y="329.4983">dateAnalysis</text><rect fill="none" height="7.5" style="stroke:#C82930;stroke-width:1.25;" width="7.5" x="129.375" y="337.5195"/><text fill="#000000" font-family="sans-serif" font-size="13.75" lengthAdjust="spacing" textLength="76.25" x="144.375" y="346.7932">timeAnalysis</text><rect fill="none" height="7.5" style="stroke:#C82930;stroke-width:1.25;" width="7.5" x="129.375" y="354.8145"/><text fill="#000000" font-family="sans-serif" font-size="13.75" lengthAdjust="spacing" textLength="66.25" x="144.375" y="364.0881">dateReport</text><rect fill="none" height="7.5" style="stroke:#C82930;stroke-width:1.25;" width="7.5" x="129.375" y="372.1094"/><text fill="#000000" font-family="sans-serif" font-size="13.75" lengthAdjust="spacing" textLength="63.75" x="144.375" y="381.3831">timeReport</text><rect fill="none" height="7.5" style="stroke:#C82930;stroke-width:1.25;" width="7.5" x="129.375" y="389.4043"/><text fill="#000000" font-family="sans-serif" font-size="13.75" lengthAdjust="spacing" textLength="85" x="144.375" y="398.678">dateValidation</text><rect fill="none" height="7.5" style="stroke:#C82930;stroke-width:1.25;" width="7.5" x="129.375" y="406.6992"/><text fill="#000000" font-family="sans-serif" font-size="13.75" lengthAdjust="spacing" textLength="82.5" x="144.375" y="415.9729">timeValidation</text><line style="stroke:#A80036;stroke-width:1.875;" x1="120.625" x2="235.625" y1="423.9941" y2="423.9941"/><!--MD5=[7e4bc624457760b649895ff2ead938fa]
link Company to Test--><path codeLine="33" d="M99.075,86.375 C108.3,112.1625 121.1,147.975 133.7125,183.275 " fill="none" id="Company-Test" style="stroke:#A80036;stroke-width:1.25;"/><polygon fill="#000000" points="126.4787,141.105,126.1323,129.2219,119.2137,131.695,126.4787,141.105" style="stroke:#000000;stroke-width:1.25;"/><text fill="#000000" font-family="sans-serif" font-size="16.25" lengthAdjust="spacing" textLength="62.5" x="135.625" y="141.8689">performs</text><text fill="#000000" font-family="sans-serif" font-size="16.25" lengthAdjust="spacing" textLength="8.75" x="92.1116" y="112.9296">1</text><text fill="#000000" font-family="sans-serif" font-size="16.25" lengthAdjust="spacing" textLength="6.25" x="123.9715" y="170.2021">*</text><!--MD5=[6eee883fdf517d3604e8bd0f2058e9aa]
link Company to Client--><path codeLine="34" d="M73.9375,86.725 C66.3125,113.5375 57.075,150.475 53.125,183.75 C39.075,302.0875 46.3875,438.9125 54.75,531.2375 " fill="none" id="Company-Client" style="stroke:#A80036;stroke-width:1.25;"/><polygon fill="#000000" points="59.1055,315.2139,63.2633,304.0765,55.9228,303.7596,59.1055,315.2139" style="stroke:#000000;stroke-width:1.25;"/><text fill="#000000" font-family="sans-serif" font-size="16.25" lengthAdjust="spacing" textLength="26.25" x="70.625" y="315.6189">has</text><text fill="#000000" font-family="sans-serif" font-size="16.25" lengthAdjust="spacing" textLength="8.75" x="62.1256" y="113.0388">1</text><text fill="#000000" font-family="sans-serif" font-size="16.25" lengthAdjust="spacing" textLength="25" x="27.5568" y="517.6309">1..*</text><!--MD5=[3994f36c72829dbcddd1cf7021dddf61]
link Test to Client--><path codeLine="35" d="M136.0625,434.05 C125.2375,465.9875 113.675,500.0875 103.1625,531.0875 " fill="none" id="Test-Client" style="stroke:#A80036;stroke-width:1.25;"/><polygon fill="#000000" points="126.1182,488.6388,133.2277,479.1107,126.2694,476.7515,126.1182,488.6388" style="stroke:#000000;stroke-width:1.25;"/><text fill="#000000" font-family="sans-serif" font-size="16.25" lengthAdjust="spacing" textLength="93.75" x="139.375" y="489.3689">requested by</text><text fill="#000000" font-family="sans-serif" font-size="16.25" lengthAdjust="spacing" textLength="6.25" x="126.494" y="460.8622">*</text><text fill="#000000" font-family="sans-serif" font-size="16.25" lengthAdjust="spacing" textLength="8.75" x="97.155" y="517.8355">1</text><!--MD5=[1af5951bbb9cbc941838c88be0b86412]
@startuml

class Company {
-designation
}

class Client {
-name
-cardNumber
-birthDate
-sex
-nhsID
-TIF
-phoneNumber
-email
-password
}

class Test {
-testCode
-nhsCode
-designation
-dateRegister
-timeRegister
-dateAnalysis
-timeAnalysis
-dateReport
-timeReport
-dateValidation
-timeValidation
}


Test "*"-up-"1" Company : performs <
Company "1"- -"1..*" Client : has >
Test "*"- -"1" Client : requested by >


@enduml

PlantUML version 1.2021.5(Sun Apr 25 12:20:28 BST 2021)
(GPL source distribution)
Java Runtime: OpenJDK Runtime Environment
JVM: OpenJDK 64-Bit Server VM
Default Encoding: Cp1252
Language: pt
Country: PT
--></g></svg>