<?xml version="1.0" encoding="UTF-8" standalone="no"?><svg xmlns="http://www.w3.org/2000/svg" xmlns:xlink="http://www.w3.org/1999/xlink" contentScriptType="application/ecmascript" contentStyleType="text/css" height="1188px" preserveAspectRatio="none" style="width:1534px;height:1188px;" version="1.1" viewBox="0 0 1534 1188" width="1534px" zoomAndPan="magnify"><defs><filter height="300%" id="f93uysqqmcjlr" width="300%" x="-1" y="-1"><feGaussianBlur result="blurOut" stdDeviation="2.0"/><feColorMatrix in="blurOut" result="blurOut2" type="matrix" values="0 0 0 0 0 0 0 0 0 0 0 0 0 0 0 0 0 0 .4 0"/><feOffset dx="4.0" dy="4.0" in="blurOut2" result="blurOut3"/><feBlend in="SourceGraphic" in2="blurOut3" mode="normal"/></filter></defs><g><!--MD5=[df38be88ccee13e832d6fafd6288a4ca]
class Test--><rect codeLine="2" fill="#FEFECE" filter="url(#f93uysqqmcjlr)" height="144.8516" id="Test" style="stroke:#A80036;stroke-width:1.5;" width="84" x="1133.47" y="384"/><ellipse cx="1161.07" cy="400" fill="#ADD1B2" rx="11" ry="11" style="stroke:#A80036;stroke-width:1.0;"/><path d="M1163.07,396.5 Q1163.2731,396 1163.5075,395.75 Q1163.7419,395.5 1164.0075,395.5 Q1164.4763,395.5 1164.7731,395.7813 Q1165.07,396.0625 1165.07,396.7188 L1165.07,398.2813 Q1165.07,398.9375 1164.7888,399.2188 Q1164.5075,399.5 1164.07,399.5 Q1163.6794,399.5 1163.4294,399.3281 Q1163.1794,399.1563 1163.07,398.7031 Q1163.0231,398.3906 1162.8513,398.2188 Q1162.5388,397.8906 1161.9763,397.7031 Q1161.4138,397.5 1160.8513,397.5 Q1160.1481,397.5 1159.5544,397.7813 Q1158.9763,398.0625 1158.5231,398.6875 Q1158.07,399.3125 1158.07,400.1719 L1158.07,401.0938 Q1158.07,402.125 1158.9138,402.8125 Q1159.7575,403.5 1161.2575,403.5 Q1162.1481,403.5 1162.7731,403.2969 Q1163.1325,403.1875 1163.5388,402.8281 Q1163.8044,402.625 1163.945,402.5625 Q1164.0856,402.5 1164.2575,402.5 Q1164.5856,402.5 1164.82,402.7656 Q1165.07,403.0156 1165.07,403.375 Q1165.07,403.7188 1164.7263,404.125 Q1164.2263,404.7188 1163.4294,405.0469 Q1162.3825,405.5 1161.1013,405.5 Q1159.6013,405.5 1158.3981,404.9063 Q1157.4294,404.4375 1156.7419,403.4219 Q1156.07,402.4063 1156.07,401.2031 L1156.07,400.1094 Q1156.07,398.8594 1156.6638,397.7656 Q1157.2731,396.6719 1158.32,396.0938 Q1159.3825,395.5 1160.57,395.5 Q1161.2888,395.5 1161.9138,395.75 Q1162.5388,396 1163.07,396.5 Z " fill="#000000"/><text fill="#000000" font-family="sans-serif" font-size="12" lengthAdjust="spacing" textLength="24" x="1177.87" y="404.9102">Test</text><line style="stroke:#A80036;stroke-width:1.5;" x1="1134.47" x2="1216.47" y1="416" y2="416"/><text fill="#000000" font-family="sans-serif" font-size="11" lengthAdjust="spacing" textLength="64" x="1139.47" y="431.4189">-internalCode</text><text fill="#000000" font-family="sans-serif" font-size="11" lengthAdjust="spacing" textLength="47" x="1139.47" y="445.2549">-nhsCode</text><text fill="#000000" font-family="sans-serif" font-size="11" lengthAdjust="spacing" textLength="57" x="1139.47" y="459.0908">-description</text><text fill="#000000" font-family="sans-serif" font-size="11" lengthAdjust="spacing" textLength="71" x="1139.47" y="472.9268">-dateCollection</text><text fill="#000000" font-family="sans-serif" font-size="11" lengthAdjust="spacing" textLength="67" x="1139.47" y="486.7627">-dateAnalysis</text><text fill="#000000" font-family="sans-serif" font-size="11" lengthAdjust="spacing" textLength="72" x="1139.47" y="500.5986">-dateDiagnosis</text><text fill="#000000" font-family="sans-serif" font-size="11" lengthAdjust="spacing" textLength="72" x="1139.47" y="514.4346">-dateValidation</text><line style="stroke:#A80036;stroke-width:1.5;" x1="1134.47" x2="1216.47" y1="520.8516" y2="520.8516"/><!--MD5=[aeb3272166074d8737a70b61b1e71682]
class TestType--><rect codeLine="11" fill="#FEFECE" filter="url(#f93uysqqmcjlr)" height="48" id="TestType" style="stroke:#A80036;stroke-width:1.5;" width="82" x="1132.47" y="692"/><ellipse cx="1147.47" cy="708" fill="#ADD1B2" rx="11" ry="11" style="stroke:#A80036;stroke-width:1.0;"/><path d="M1149.47,704.5 Q1149.6731,704 1149.9075,703.75 Q1150.1419,703.5 1150.4075,703.5 Q1150.8763,703.5 1151.1731,703.7813 Q1151.47,704.0625 1151.47,704.7188 L1151.47,706.2813 Q1151.47,706.9375 1151.1888,707.2188 Q1150.9075,707.5 1150.47,707.5 Q1150.0794,707.5 1149.8294,707.3281 Q1149.5794,707.1563 1149.47,706.7031 Q1149.4231,706.3906 1149.2513,706.2188 Q1148.9388,705.8906 1148.3763,705.7031 Q1147.8138,705.5 1147.2513,705.5 Q1146.5481,705.5 1145.9544,705.7813 Q1145.3763,706.0625 1144.9231,706.6875 Q1144.47,707.3125 1144.47,708.1719 L1144.47,709.0938 Q1144.47,710.125 1145.3138,710.8125 Q1146.1575,711.5 1147.6575,711.5 Q1148.5481,711.5 1149.1731,711.2969 Q1149.5325,711.1875 1149.9388,710.8281 Q1150.2044,710.625 1150.345,710.5625 Q1150.4856,710.5 1150.6575,710.5 Q1150.9856,710.5 1151.22,710.7656 Q1151.47,711.0156 1151.47,711.375 Q1151.47,711.7188 1151.1263,712.125 Q1150.6263,712.7188 1149.8294,713.0469 Q1148.7825,713.5 1147.5013,713.5 Q1146.0013,713.5 1144.7981,712.9063 Q1143.8294,712.4375 1143.1419,711.4219 Q1142.47,710.4063 1142.47,709.2031 L1142.47,708.1094 Q1142.47,706.8594 1143.0638,705.7656 Q1143.6731,704.6719 1144.72,704.0938 Q1145.7825,703.5 1146.97,703.5 Q1147.6888,703.5 1148.3138,703.75 Q1148.9388,704 1149.47,704.5 Z " fill="#000000"/><text fill="#000000" font-family="sans-serif" font-size="12" lengthAdjust="spacing" textLength="50" x="1161.47" y="712.9102">TestType</text><line style="stroke:#A80036;stroke-width:1.5;" x1="1133.47" x2="1213.47" y1="724" y2="724"/><line style="stroke:#A80036;stroke-width:1.5;" x1="1133.47" x2="1213.47" y1="732" y2="732"/><!--MD5=[ed6624c6556d5e7b1bd23032162d20b7]
class Client--><rect codeLine="12" fill="#FEFECE" filter="url(#f93uysqqmcjlr)" height="158.6875" id="Client" style="stroke:#A80036;stroke-width:1.5;" width="83" x="1134.97" y="147"/><ellipse cx="1158.52" cy="163" fill="#ADD1B2" rx="11" ry="11" style="stroke:#A80036;stroke-width:1.0;"/><path d="M1160.52,159.5 Q1160.7231,159 1160.9575,158.75 Q1161.1919,158.5 1161.4575,158.5 Q1161.9263,158.5 1162.2231,158.7813 Q1162.52,159.0625 1162.52,159.7188 L1162.52,161.2813 Q1162.52,161.9375 1162.2388,162.2188 Q1161.9575,162.5 1161.52,162.5 Q1161.1294,162.5 1160.8794,162.3281 Q1160.6294,162.1563 1160.52,161.7031 Q1160.4731,161.3906 1160.3013,161.2188 Q1159.9888,160.8906 1159.4263,160.7031 Q1158.8638,160.5 1158.3013,160.5 Q1157.5981,160.5 1157.0044,160.7813 Q1156.4263,161.0625 1155.9731,161.6875 Q1155.52,162.3125 1155.52,163.1719 L1155.52,164.0938 Q1155.52,165.125 1156.3638,165.8125 Q1157.2075,166.5 1158.7075,166.5 Q1159.5981,166.5 1160.2231,166.2969 Q1160.5825,166.1875 1160.9888,165.8281 Q1161.2544,165.625 1161.395,165.5625 Q1161.5356,165.5 1161.7075,165.5 Q1162.0356,165.5 1162.27,165.7656 Q1162.52,166.0156 1162.52,166.375 Q1162.52,166.7188 1162.1763,167.125 Q1161.6763,167.7188 1160.8794,168.0469 Q1159.8325,168.5 1158.5513,168.5 Q1157.0513,168.5 1155.8481,167.9063 Q1154.8794,167.4375 1154.1919,166.4219 Q1153.52,165.4063 1153.52,164.2031 L1153.52,163.1094 Q1153.52,161.8594 1154.1138,160.7656 Q1154.7231,159.6719 1155.77,159.0938 Q1156.8325,158.5 1158.02,158.5 Q1158.7388,158.5 1159.3638,158.75 Q1159.9888,159 1160.52,159.5 Z " fill="#000000"/><text fill="#000000" font-family="sans-serif" font-size="12" lengthAdjust="spacing" textLength="32" x="1174.42" y="167.9102">Client</text><line style="stroke:#A80036;stroke-width:1.5;" x1="1135.97" x2="1216.97" y1="179" y2="179"/><text fill="#000000" font-family="sans-serif" font-size="11" lengthAdjust="spacing" textLength="30" x="1140.97" y="194.4189">-name</text><text fill="#000000" font-family="sans-serif" font-size="11" lengthAdjust="spacing" textLength="63" x="1140.97" y="208.2549">-cardNumber</text><text fill="#000000" font-family="sans-serif" font-size="11" lengthAdjust="spacing" textLength="47" x="1140.97" y="222.0908">-birthDate</text><text fill="#000000" font-family="sans-serif" font-size="11" lengthAdjust="spacing" textLength="22" x="1140.97" y="235.9268">-sex</text><text fill="#000000" font-family="sans-serif" font-size="11" lengthAdjust="spacing" textLength="31" x="1140.97" y="249.7627">-nhsID</text><text fill="#000000" font-family="sans-serif" font-size="11" lengthAdjust="spacing" textLength="18" x="1140.97" y="263.5986">-TIF</text><text fill="#000000" font-family="sans-serif" font-size="11" lengthAdjust="spacing" textLength="71" x="1140.97" y="277.4346">-phoneNumber</text><text fill="#000000" font-family="sans-serif" font-size="11" lengthAdjust="spacing" textLength="28" x="1140.97" y="291.2705">-email</text><line style="stroke:#A80036;stroke-width:1.5;" x1="1135.97" x2="1216.97" y1="297.6875" y2="297.6875"/><!--MD5=[9681492165142af2a4a3a169d90ee8d4]
class Sample--><rect codeLine="22" fill="#FEFECE" filter="url(#f93uysqqmcjlr)" height="61.8359" id="Sample" style="stroke:#A80036;stroke-width:1.5;" width="75" x="856.97" y="425.5"/><ellipse cx="871.97" cy="441.5" fill="#ADD1B2" rx="11" ry="11" style="stroke:#A80036;stroke-width:1.0;"/><path d="M873.97,438 Q874.1731,437.5 874.4075,437.25 Q874.6419,437 874.9075,437 Q875.3762,437 875.6731,437.2813 Q875.97,437.5625 875.97,438.2188 L875.97,439.7813 Q875.97,440.4375 875.6887,440.7188 Q875.4075,441 874.97,441 Q874.5794,441 874.3294,440.8281 Q874.0794,440.6563 873.97,440.2031 Q873.9231,439.8906 873.7512,439.7188 Q873.4387,439.3906 872.8762,439.2031 Q872.3137,439 871.7512,439 Q871.0481,439 870.4544,439.2813 Q869.8762,439.5625 869.4231,440.1875 Q868.97,440.8125 868.97,441.6719 L868.97,442.5938 Q868.97,443.625 869.8137,444.3125 Q870.6575,445 872.1575,445 Q873.0481,445 873.6731,444.7969 Q874.0325,444.6875 874.4387,444.3281 Q874.7044,444.125 874.845,444.0625 Q874.9856,444 875.1575,444 Q875.4856,444 875.72,444.2656 Q875.97,444.5156 875.97,444.875 Q875.97,445.2188 875.6262,445.625 Q875.1262,446.2188 874.3294,446.5469 Q873.2825,447 872.0012,447 Q870.5012,447 869.2981,446.4063 Q868.3294,445.9375 867.6419,444.9219 Q866.97,443.9063 866.97,442.7031 L866.97,441.6094 Q866.97,440.3594 867.5637,439.2656 Q868.1731,438.1719 869.22,437.5938 Q870.2825,437 871.47,437 Q872.1887,437 872.8137,437.25 Q873.4387,437.5 873.97,438 Z " fill="#000000"/><text fill="#000000" font-family="sans-serif" font-size="12" lengthAdjust="spacing" textLength="43" x="885.97" y="446.4102">Sample</text><line style="stroke:#A80036;stroke-width:1.5;" x1="857.97" x2="930.97" y1="457.5" y2="457.5"/><text fill="#000000" font-family="sans-serif" font-size="11" lengthAdjust="spacing" textLength="44" x="862.97" y="472.9189">-barcode</text><line style="stroke:#A80036;stroke-width:1.5;" x1="857.97" x2="930.97" y1="479.3359" y2="479.3359"/><!--MD5=[1f6362a5c8f21d8d6a0fce68f3a92a4e]
class Parameter--><rect codeLine="25" fill="#FEFECE" filter="url(#f93uysqqmcjlr)" height="103.3438" id="Parameter" style="stroke:#A80036;stroke-width:1.5;" width="113" x="1021.97" y="559"/><ellipse cx="1047.32" cy="575" fill="#ADD1B2" rx="11" ry="11" style="stroke:#A80036;stroke-width:1.0;"/><path d="M1049.32,571.5 Q1049.5231,571 1049.7575,570.75 Q1049.9919,570.5 1050.2575,570.5 Q1050.7263,570.5 1051.0231,570.7813 Q1051.32,571.0625 1051.32,571.7188 L1051.32,573.2813 Q1051.32,573.9375 1051.0388,574.2188 Q1050.7575,574.5 1050.32,574.5 Q1049.9294,574.5 1049.6794,574.3281 Q1049.4294,574.1563 1049.32,573.7031 Q1049.2731,573.3906 1049.1013,573.2188 Q1048.7888,572.8906 1048.2263,572.7031 Q1047.6638,572.5 1047.1013,572.5 Q1046.3981,572.5 1045.8044,572.7813 Q1045.2263,573.0625 1044.7731,573.6875 Q1044.32,574.3125 1044.32,575.1719 L1044.32,576.0938 Q1044.32,577.125 1045.1638,577.8125 Q1046.0075,578.5 1047.5075,578.5 Q1048.3981,578.5 1049.0231,578.2969 Q1049.3825,578.1875 1049.7888,577.8281 Q1050.0544,577.625 1050.195,577.5625 Q1050.3356,577.5 1050.5075,577.5 Q1050.8356,577.5 1051.07,577.7656 Q1051.32,578.0156 1051.32,578.375 Q1051.32,578.7188 1050.9763,579.125 Q1050.4763,579.7188 1049.6794,580.0469 Q1048.6325,580.5 1047.3513,580.5 Q1045.8513,580.5 1044.6481,579.9063 Q1043.6794,579.4375 1042.9919,578.4219 Q1042.32,577.4063 1042.32,576.2031 L1042.32,575.1094 Q1042.32,573.8594 1042.9138,572.7656 Q1043.5231,571.6719 1044.57,571.0938 Q1045.6325,570.5 1046.82,570.5 Q1047.5388,570.5 1048.1638,570.75 Q1048.7888,571 1049.32,571.5 Z " fill="#000000"/><text fill="#000000" font-family="sans-serif" font-size="12" lengthAdjust="spacing" textLength="58" x="1063.62" y="579.9102">Parameter</text><line style="stroke:#A80036;stroke-width:1.5;" x1="1022.97" x2="1133.97" y1="591" y2="591"/><text fill="#000000" font-family="sans-serif" font-size="11" lengthAdjust="spacing" textLength="48" x="1027.97" y="606.4189">-rbcCount</text><text fill="#000000" font-family="sans-serif" font-size="11" lengthAdjust="spacing" textLength="54" x="1027.97" y="620.2549">-wbcCount</text><text fill="#000000" font-family="sans-serif" font-size="11" lengthAdjust="spacing" textLength="43" x="1027.97" y="634.0908">-pltCount</text><text fill="#000000" font-family="sans-serif" font-size="11" lengthAdjust="spacing" textLength="101" x="1027.97" y="647.9268">-boolean covidResult</text><line style="stroke:#A80036;stroke-width:1.5;" x1="1022.97" x2="1133.97" y1="654.3438" y2="654.3438"/><!--MD5=[752170896568f3976562e89cfa6d96c0]
class Lab Order--><rect codeLine="31" fill="#FEFECE" filter="url(#f93uysqqmcjlr)" height="75.6719" id="Lab Order" style="stroke:#A80036;stroke-width:1.5;" width="87" x="1012.97" y="188.5"/><ellipse cx="1027.97" cy="204.5" fill="#ADD1B2" rx="11" ry="11" style="stroke:#A80036;stroke-width:1.0;"/><path d="M1029.97,201 Q1030.1731,200.5 1030.4075,200.25 Q1030.6419,200 1030.9075,200 Q1031.3762,200 1031.6731,200.2813 Q1031.97,200.5625 1031.97,201.2188 L1031.97,202.7813 Q1031.97,203.4375 1031.6887,203.7188 Q1031.4075,204 1030.97,204 Q1030.5794,204 1030.3294,203.8281 Q1030.0794,203.6563 1029.97,203.2031 Q1029.9231,202.8906 1029.7512,202.7188 Q1029.4387,202.3906 1028.8762,202.2031 Q1028.3137,202 1027.7512,202 Q1027.0481,202 1026.4544,202.2813 Q1025.8762,202.5625 1025.4231,203.1875 Q1024.97,203.8125 1024.97,204.6719 L1024.97,205.5938 Q1024.97,206.625 1025.8137,207.3125 Q1026.6575,208 1028.1575,208 Q1029.0481,208 1029.6731,207.7969 Q1030.0325,207.6875 1030.4387,207.3281 Q1030.7044,207.125 1030.845,207.0625 Q1030.9856,207 1031.1575,207 Q1031.4856,207 1031.72,207.2656 Q1031.97,207.5156 1031.97,207.875 Q1031.97,208.2188 1031.6262,208.625 Q1031.1262,209.2188 1030.3294,209.5469 Q1029.2825,210 1028.0012,210 Q1026.5012,210 1025.2981,209.4063 Q1024.3294,208.9375 1023.6419,207.9219 Q1022.97,206.9063 1022.97,205.7031 L1022.97,204.6094 Q1022.97,203.3594 1023.5637,202.2656 Q1024.1731,201.1719 1025.22,200.5938 Q1026.2825,200 1027.47,200 Q1028.1887,200 1028.8137,200.25 Q1029.4387,200.5 1029.97,201 Z " fill="#000000"/><text fill="#000000" font-family="sans-serif" font-size="12" lengthAdjust="spacing" textLength="55" x="1041.97" y="209.4102">Lab Order</text><line style="stroke:#A80036;stroke-width:1.5;" x1="1013.97" x2="1098.97" y1="220.5" y2="220.5"/><text fill="#000000" font-family="sans-serif" font-size="11" lengthAdjust="spacing" textLength="46" x="1018.97" y="235.9189">-testType</text><text fill="#000000" font-family="sans-serif" font-size="11" lengthAdjust="spacing" textLength="59" x="1018.97" y="249.7549">-parameters</text><line style="stroke:#A80036;stroke-width:1.5;" x1="1013.97" x2="1098.97" y1="256.1719" y2="256.1719"/><!--MD5=[02e4b9b7573f1156f41e60aa5b4e25a4]
class Company--><rect codeLine="35" fill="#FEFECE" filter="url(#f93uysqqmcjlr)" height="61.8359" id="Company" style="stroke:#A80036;stroke-width:1.5;" width="85" x="1241.97" y="818"/><ellipse cx="1256.97" cy="834" fill="#ADD1B2" rx="11" ry="11" style="stroke:#A80036;stroke-width:1.0;"/><path d="M1258.97,830.5 Q1259.1731,830 1259.4075,829.75 Q1259.6419,829.5 1259.9075,829.5 Q1260.3763,829.5 1260.6731,829.7813 Q1260.97,830.0625 1260.97,830.7188 L1260.97,832.2813 Q1260.97,832.9375 1260.6888,833.2188 Q1260.4075,833.5 1259.97,833.5 Q1259.5794,833.5 1259.3294,833.3281 Q1259.0794,833.1563 1258.97,832.7031 Q1258.9231,832.3906 1258.7513,832.2188 Q1258.4388,831.8906 1257.8763,831.7031 Q1257.3138,831.5 1256.7513,831.5 Q1256.0481,831.5 1255.4544,831.7813 Q1254.8763,832.0625 1254.4231,832.6875 Q1253.97,833.3125 1253.97,834.1719 L1253.97,835.0938 Q1253.97,836.125 1254.8138,836.8125 Q1255.6575,837.5 1257.1575,837.5 Q1258.0481,837.5 1258.6731,837.2969 Q1259.0325,837.1875 1259.4388,836.8281 Q1259.7044,836.625 1259.845,836.5625 Q1259.9856,836.5 1260.1575,836.5 Q1260.4856,836.5 1260.72,836.7656 Q1260.97,837.0156 1260.97,837.375 Q1260.97,837.7188 1260.6263,838.125 Q1260.1263,838.7188 1259.3294,839.0469 Q1258.2825,839.5 1257.0013,839.5 Q1255.5013,839.5 1254.2981,838.9063 Q1253.3294,838.4375 1252.6419,837.4219 Q1251.97,836.4063 1251.97,835.2031 L1251.97,834.1094 Q1251.97,832.8594 1252.5638,831.7656 Q1253.1731,830.6719 1254.22,830.0938 Q1255.2825,829.5 1256.47,829.5 Q1257.1888,829.5 1257.8138,829.75 Q1258.4388,830 1258.97,830.5 Z " fill="#000000"/><text fill="#000000" font-family="sans-serif" font-size="12" lengthAdjust="spacing" textLength="53" x="1270.97" y="838.9102">Company</text><line style="stroke:#A80036;stroke-width:1.5;" x1="1242.97" x2="1325.97" y1="850" y2="850"/><text fill="#000000" font-family="sans-serif" font-size="11" lengthAdjust="spacing" textLength="59" x="1247.97" y="865.4189">-designation</text><line style="stroke:#A80036;stroke-width:1.5;" x1="1242.97" x2="1325.97" y1="871.8359" y2="871.8359"/><!--MD5=[a96594a83e2ecdc78cbf17c2ddf01934]
class Category--><rect codeLine="38" fill="#FEFECE" filter="url(#f93uysqqmcjlr)" height="89.5078" id="Category" style="stroke:#A80036;stroke-width:1.5;" width="81" x="1067.97" y="958"/><ellipse cx="1082.97" cy="974" fill="#ADD1B2" rx="11" ry="11" style="stroke:#A80036;stroke-width:1.0;"/><path d="M1084.97,970.5 Q1085.1731,970 1085.4075,969.75 Q1085.6419,969.5 1085.9075,969.5 Q1086.3763,969.5 1086.6731,969.7813 Q1086.97,970.0625 1086.97,970.7188 L1086.97,972.2813 Q1086.97,972.9375 1086.6888,973.2188 Q1086.4075,973.5 1085.97,973.5 Q1085.5794,973.5 1085.3294,973.3281 Q1085.0794,973.1563 1084.97,972.7031 Q1084.9231,972.3906 1084.7513,972.2188 Q1084.4388,971.8906 1083.8763,971.7031 Q1083.3138,971.5 1082.7513,971.5 Q1082.0481,971.5 1081.4544,971.7813 Q1080.8763,972.0625 1080.4231,972.6875 Q1079.97,973.3125 1079.97,974.1719 L1079.97,975.0938 Q1079.97,976.125 1080.8138,976.8125 Q1081.6575,977.5 1083.1575,977.5 Q1084.0481,977.5 1084.6731,977.2969 Q1085.0325,977.1875 1085.4388,976.8281 Q1085.7044,976.625 1085.845,976.5625 Q1085.9856,976.5 1086.1575,976.5 Q1086.4856,976.5 1086.72,976.7656 Q1086.97,977.0156 1086.97,977.375 Q1086.97,977.7188 1086.6263,978.125 Q1086.1263,978.7188 1085.3294,979.0469 Q1084.2825,979.5 1083.0013,979.5 Q1081.5013,979.5 1080.2981,978.9063 Q1079.3294,978.4375 1078.6419,977.4219 Q1077.97,976.4063 1077.97,975.2031 L1077.97,974.1094 Q1077.97,972.8594 1078.5638,971.7656 Q1079.1731,970.6719 1080.22,970.0938 Q1081.2825,969.5 1082.47,969.5 Q1083.1888,969.5 1083.8138,969.75 Q1084.4388,970 1084.97,970.5 Z " fill="#000000"/><text fill="#000000" font-family="sans-serif" font-size="12" lengthAdjust="spacing" textLength="49" x="1096.97" y="978.9102">Category</text><line style="stroke:#A80036;stroke-width:1.5;" x1="1068.97" x2="1147.97" y1="990" y2="990"/><text fill="#000000" font-family="sans-serif" font-size="11" lengthAdjust="spacing" textLength="28" x="1073.97" y="1005.4189">-code</text><text fill="#000000" font-family="sans-serif" font-size="11" lengthAdjust="spacing" textLength="57" x="1073.97" y="1019.2549">-description</text><text fill="#000000" font-family="sans-serif" font-size="11" lengthAdjust="spacing" textLength="31" x="1073.97" y="1033.0908">-nhsID</text><line style="stroke:#A80036;stroke-width:1.5;" x1="1068.97" x2="1147.97" y1="1039.5078" y2="1039.5078"/><!--MD5=[da547346deef918ea16944ba046651ef]
class Administrator--><rect codeLine="43" fill="#FEFECE" filter="url(#f93uysqqmcjlr)" height="48" id="Administrator" style="stroke:#A80036;stroke-width:1.5;" width="105" x="1055.97" y="1126"/><ellipse cx="1070.97" cy="1142" fill="#ADD1B2" rx="11" ry="11" style="stroke:#A80036;stroke-width:1.0;"/><path d="M1072.97,1138.5 Q1073.1731,1138 1073.4075,1137.75 Q1073.6419,1137.5 1073.9075,1137.5 Q1074.3763,1137.5 1074.6731,1137.7813 Q1074.97,1138.0625 1074.97,1138.7188 L1074.97,1140.2813 Q1074.97,1140.9375 1074.6888,1141.2188 Q1074.4075,1141.5 1073.97,1141.5 Q1073.5794,1141.5 1073.3294,1141.3281 Q1073.0794,1141.1563 1072.97,1140.7031 Q1072.9231,1140.3906 1072.7513,1140.2188 Q1072.4388,1139.8906 1071.8763,1139.7031 Q1071.3138,1139.5 1070.7513,1139.5 Q1070.0481,1139.5 1069.4544,1139.7813 Q1068.8763,1140.0625 1068.4231,1140.6875 Q1067.97,1141.3125 1067.97,1142.1719 L1067.97,1143.0938 Q1067.97,1144.125 1068.8138,1144.8125 Q1069.6575,1145.5 1071.1575,1145.5 Q1072.0481,1145.5 1072.6731,1145.2969 Q1073.0325,1145.1875 1073.4388,1144.8281 Q1073.7044,1144.625 1073.845,1144.5625 Q1073.9856,1144.5 1074.1575,1144.5 Q1074.4856,1144.5 1074.72,1144.7656 Q1074.97,1145.0156 1074.97,1145.375 Q1074.97,1145.7188 1074.6263,1146.125 Q1074.1263,1146.7188 1073.3294,1147.0469 Q1072.2825,1147.5 1071.0013,1147.5 Q1069.5013,1147.5 1068.2981,1146.9063 Q1067.3294,1146.4375 1066.6419,1145.4219 Q1065.97,1144.4063 1065.97,1143.2031 L1065.97,1142.1094 Q1065.97,1140.8594 1066.5638,1139.7656 Q1067.1731,1138.6719 1068.22,1138.0938 Q1069.2825,1137.5 1070.47,1137.5 Q1071.1888,1137.5 1071.8138,1137.75 Q1072.4388,1138 1072.97,1138.5 Z " fill="#000000"/><text fill="#000000" font-family="sans-serif" font-size="12" lengthAdjust="spacing" textLength="73" x="1084.97" y="1146.9102">Administrator</text><line style="stroke:#A80036;stroke-width:1.5;" x1="1056.97" x2="1159.97" y1="1158" y2="1158"/><line style="stroke:#A80036;stroke-width:1.5;" x1="1056.97" x2="1159.97" y1="1166" y2="1166"/><!--MD5=[1e5329fc67d8218f135f70ba961513ea]
class SampleType--><rect codeLine="44" fill="#FEFECE" filter="url(#f93uysqqmcjlr)" height="48" id="SampleType" style="stroke:#A80036;stroke-width:1.5;" width="101" x="1317.97" y="14"/><ellipse cx="1332.97" cy="30" fill="#ADD1B2" rx="11" ry="11" style="stroke:#A80036;stroke-width:1.0;"/><path d="M1334.97,26.5 Q1335.1731,26 1335.4075,25.75 Q1335.6419,25.5 1335.9075,25.5 Q1336.3763,25.5 1336.6731,25.7813 Q1336.97,26.0625 1336.97,26.7188 L1336.97,28.2813 Q1336.97,28.9375 1336.6888,29.2188 Q1336.4075,29.5 1335.97,29.5 Q1335.5794,29.5 1335.3294,29.3281 Q1335.0794,29.1563 1334.97,28.7031 Q1334.9231,28.3906 1334.7513,28.2188 Q1334.4388,27.8906 1333.8763,27.7031 Q1333.3138,27.5 1332.7513,27.5 Q1332.0481,27.5 1331.4544,27.7813 Q1330.8763,28.0625 1330.4231,28.6875 Q1329.97,29.3125 1329.97,30.1719 L1329.97,31.0938 Q1329.97,32.125 1330.8138,32.8125 Q1331.6575,33.5 1333.1575,33.5 Q1334.0481,33.5 1334.6731,33.2969 Q1335.0325,33.1875 1335.4388,32.8281 Q1335.7044,32.625 1335.845,32.5625 Q1335.9856,32.5 1336.1575,32.5 Q1336.4856,32.5 1336.72,32.7656 Q1336.97,33.0156 1336.97,33.375 Q1336.97,33.7188 1336.6263,34.125 Q1336.1263,34.7188 1335.3294,35.0469 Q1334.2825,35.5 1333.0013,35.5 Q1331.5013,35.5 1330.2981,34.9063 Q1329.3294,34.4375 1328.6419,33.4219 Q1327.97,32.4063 1327.97,31.2031 L1327.97,30.1094 Q1327.97,28.8594 1328.5638,27.7656 Q1329.1731,26.6719 1330.22,26.0938 Q1331.2825,25.5 1332.47,25.5 Q1333.1888,25.5 1333.8138,25.75 Q1334.4388,26 1334.97,26.5 Z " fill="#000000"/><text fill="#000000" font-family="sans-serif" font-size="12" lengthAdjust="spacing" textLength="69" x="1346.97" y="34.9102">SampleType</text><line style="stroke:#A80036;stroke-width:1.5;" x1="1318.97" x2="1417.97" y1="46" y2="46"/><line style="stroke:#A80036;stroke-width:1.5;" x1="1318.97" x2="1417.97" y1="54" y2="54"/><!--MD5=[01931d41e78f8996acd44f6f0fd8de28]
class MedicalLabTechnician--><rect codeLine="45" fill="#FEFECE" filter="url(#f93uysqqmcjlr)" height="48" id="MedicalLabTechnician" style="stroke:#A80036;stroke-width:1.5;" width="155" x="735.97" y="692"/><ellipse cx="750.97" cy="708" fill="#ADD1B2" rx="11" ry="11" style="stroke:#A80036;stroke-width:1.0;"/><path d="M752.97,704.5 Q753.1731,704 753.4075,703.75 Q753.6419,703.5 753.9075,703.5 Q754.3762,703.5 754.6731,703.7813 Q754.97,704.0625 754.97,704.7188 L754.97,706.2813 Q754.97,706.9375 754.6887,707.2188 Q754.4075,707.5 753.97,707.5 Q753.5794,707.5 753.3294,707.3281 Q753.0794,707.1563 752.97,706.7031 Q752.9231,706.3906 752.7512,706.2188 Q752.4387,705.8906 751.8762,705.7031 Q751.3137,705.5 750.7512,705.5 Q750.0481,705.5 749.4544,705.7813 Q748.8762,706.0625 748.4231,706.6875 Q747.97,707.3125 747.97,708.1719 L747.97,709.0938 Q747.97,710.125 748.8137,710.8125 Q749.6575,711.5 751.1575,711.5 Q752.0481,711.5 752.6731,711.2969 Q753.0325,711.1875 753.4387,710.8281 Q753.7044,710.625 753.845,710.5625 Q753.9856,710.5 754.1575,710.5 Q754.4856,710.5 754.72,710.7656 Q754.97,711.0156 754.97,711.375 Q754.97,711.7188 754.6262,712.125 Q754.1262,712.7188 753.3294,713.0469 Q752.2825,713.5 751.0012,713.5 Q749.5012,713.5 748.2981,712.9063 Q747.3294,712.4375 746.6419,711.4219 Q745.97,710.4063 745.97,709.2031 L745.97,708.1094 Q745.97,706.8594 746.5637,705.7656 Q747.1731,704.6719 748.22,704.0938 Q749.2825,703.5 750.47,703.5 Q751.1887,703.5 751.8137,703.75 Q752.4387,704 752.97,704.5 Z " fill="#000000"/><text fill="#000000" font-family="sans-serif" font-size="12" lengthAdjust="spacing" textLength="123" x="764.97" y="712.9102">MedicalLabTechnician</text><line style="stroke:#A80036;stroke-width:1.5;" x1="736.97" x2="889.97" y1="724" y2="724"/><line style="stroke:#A80036;stroke-width:1.5;" x1="736.97" x2="889.97" y1="732" y2="732"/><!--MD5=[012ee2a8bf3ae2b319009b06f951c2e5]
class ClinicalChemistryTechnologist--><rect codeLine="46" fill="#FEFECE" filter="url(#f93uysqqmcjlr)" height="48" id="ClinicalChemistryTechnologist" style="stroke:#A80036;stroke-width:1.5;" width="200" x="500.47" y="692"/><ellipse cx="515.47" cy="708" fill="#ADD1B2" rx="11" ry="11" style="stroke:#A80036;stroke-width:1.0;"/><path d="M517.47,704.5 Q517.6731,704 517.9075,703.75 Q518.1419,703.5 518.4075,703.5 Q518.8763,703.5 519.1731,703.7813 Q519.47,704.0625 519.47,704.7188 L519.47,706.2813 Q519.47,706.9375 519.1888,707.2188 Q518.9075,707.5 518.47,707.5 Q518.0794,707.5 517.8294,707.3281 Q517.5794,707.1563 517.47,706.7031 Q517.4231,706.3906 517.2513,706.2188 Q516.9388,705.8906 516.3763,705.7031 Q515.8138,705.5 515.2513,705.5 Q514.5481,705.5 513.9544,705.7813 Q513.3763,706.0625 512.9231,706.6875 Q512.47,707.3125 512.47,708.1719 L512.47,709.0938 Q512.47,710.125 513.3138,710.8125 Q514.1575,711.5 515.6575,711.5 Q516.5481,711.5 517.1731,711.2969 Q517.5325,711.1875 517.9388,710.8281 Q518.2044,710.625 518.345,710.5625 Q518.4856,710.5 518.6575,710.5 Q518.9856,710.5 519.22,710.7656 Q519.47,711.0156 519.47,711.375 Q519.47,711.7188 519.1263,712.125 Q518.6263,712.7188 517.8294,713.0469 Q516.7825,713.5 515.5013,713.5 Q514.0013,713.5 512.7981,712.9063 Q511.8294,712.4375 511.1419,711.4219 Q510.47,710.4063 510.47,709.2031 L510.47,708.1094 Q510.47,706.8594 511.0638,705.7656 Q511.6731,704.6719 512.72,704.0938 Q513.7825,703.5 514.97,703.5 Q515.6888,703.5 516.3138,703.75 Q516.9388,704 517.47,704.5 Z " fill="#000000"/><text fill="#000000" font-family="sans-serif" font-size="12" lengthAdjust="spacing" textLength="168" x="529.47" y="712.9102">ClinicalChemistryTechnologist</text><line style="stroke:#A80036;stroke-width:1.5;" x1="501.47" x2="699.47" y1="724" y2="724"/><line style="stroke:#A80036;stroke-width:1.5;" x1="501.47" x2="699.47" y1="732" y2="732"/><!--MD5=[a64badb107d3691f2dc6af242cdbeb21]
class ChemicalLaboratory--><rect codeLine="47" fill="#FEFECE" filter="url(#f93uysqqmcjlr)" height="48" id="ChemicalLaboratory" style="stroke:#A80036;stroke-width:1.5;" width="143" x="542.97" y="825"/><ellipse cx="557.97" cy="841" fill="#ADD1B2" rx="11" ry="11" style="stroke:#A80036;stroke-width:1.0;"/><path d="M559.97,837.5 Q560.1731,837 560.4075,836.75 Q560.6419,836.5 560.9075,836.5 Q561.3763,836.5 561.6731,836.7813 Q561.97,837.0625 561.97,837.7188 L561.97,839.2813 Q561.97,839.9375 561.6888,840.2188 Q561.4075,840.5 560.97,840.5 Q560.5794,840.5 560.3294,840.3281 Q560.0794,840.1563 559.97,839.7031 Q559.9231,839.3906 559.7513,839.2188 Q559.4388,838.8906 558.8763,838.7031 Q558.3138,838.5 557.7513,838.5 Q557.0481,838.5 556.4544,838.7813 Q555.8763,839.0625 555.4231,839.6875 Q554.97,840.3125 554.97,841.1719 L554.97,842.0938 Q554.97,843.125 555.8138,843.8125 Q556.6575,844.5 558.1575,844.5 Q559.0481,844.5 559.6731,844.2969 Q560.0325,844.1875 560.4388,843.8281 Q560.7044,843.625 560.845,843.5625 Q560.9856,843.5 561.1575,843.5 Q561.4856,843.5 561.72,843.7656 Q561.97,844.0156 561.97,844.375 Q561.97,844.7188 561.6263,845.125 Q561.1263,845.7188 560.3294,846.0469 Q559.2825,846.5 558.0013,846.5 Q556.5013,846.5 555.2981,845.9063 Q554.3294,845.4375 553.6419,844.4219 Q552.97,843.4063 552.97,842.2031 L552.97,841.1094 Q552.97,839.8594 553.5638,838.7656 Q554.1731,837.6719 555.22,837.0938 Q556.2825,836.5 557.47,836.5 Q558.1888,836.5 558.8138,836.75 Q559.4388,837 559.97,837.5 Z " fill="#000000"/><text fill="#000000" font-family="sans-serif" font-size="12" lengthAdjust="spacing" textLength="111" x="571.97" y="845.9102">ChemicalLaboratory</text><line style="stroke:#A80036;stroke-width:1.5;" x1="543.97" x2="684.97" y1="857" y2="857"/><line style="stroke:#A80036;stroke-width:1.5;" x1="543.97" x2="684.97" y1="865" y2="865"/><!--MD5=[03960189e81aa2c066c762ffabbee709]
class Receptionist--><rect codeLine="48" fill="#FEFECE" filter="url(#f93uysqqmcjlr)" height="48" id="Receptionist" style="stroke:#A80036;stroke-width:1.5;" width="101" x="1181.97" y="14"/><ellipse cx="1196.97" cy="30" fill="#ADD1B2" rx="11" ry="11" style="stroke:#A80036;stroke-width:1.0;"/><path d="M1198.97,26.5 Q1199.1731,26 1199.4075,25.75 Q1199.6419,25.5 1199.9075,25.5 Q1200.3763,25.5 1200.6731,25.7813 Q1200.97,26.0625 1200.97,26.7188 L1200.97,28.2813 Q1200.97,28.9375 1200.6888,29.2188 Q1200.4075,29.5 1199.97,29.5 Q1199.5794,29.5 1199.3294,29.3281 Q1199.0794,29.1563 1198.97,28.7031 Q1198.9231,28.3906 1198.7513,28.2188 Q1198.4388,27.8906 1197.8763,27.7031 Q1197.3138,27.5 1196.7513,27.5 Q1196.0481,27.5 1195.4544,27.7813 Q1194.8763,28.0625 1194.4231,28.6875 Q1193.97,29.3125 1193.97,30.1719 L1193.97,31.0938 Q1193.97,32.125 1194.8138,32.8125 Q1195.6575,33.5 1197.1575,33.5 Q1198.0481,33.5 1198.6731,33.2969 Q1199.0325,33.1875 1199.4388,32.8281 Q1199.7044,32.625 1199.845,32.5625 Q1199.9856,32.5 1200.1575,32.5 Q1200.4856,32.5 1200.72,32.7656 Q1200.97,33.0156 1200.97,33.375 Q1200.97,33.7188 1200.6263,34.125 Q1200.1263,34.7188 1199.3294,35.0469 Q1198.2825,35.5 1197.0013,35.5 Q1195.5013,35.5 1194.2981,34.9063 Q1193.3294,34.4375 1192.6419,33.4219 Q1191.97,32.4063 1191.97,31.2031 L1191.97,30.1094 Q1191.97,28.8594 1192.5638,27.7656 Q1193.1731,26.6719 1194.22,26.0938 Q1195.2825,25.5 1196.47,25.5 Q1197.1888,25.5 1197.8138,25.75 Q1198.4388,26 1198.97,26.5 Z " fill="#000000"/><text fill="#000000" font-family="sans-serif" font-size="12" lengthAdjust="spacing" textLength="69" x="1210.97" y="34.9102">Receptionist</text><line style="stroke:#A80036;stroke-width:1.5;" x1="1182.97" x2="1281.97" y1="46" y2="46"/><line style="stroke:#A80036;stroke-width:1.5;" x1="1182.97" x2="1281.97" y1="54" y2="54"/><!--MD5=[e27cb01a39563223b22d42504ec96d07]
class TestResult--><rect codeLine="49" fill="#FEFECE" filter="url(#f93uysqqmcjlr)" height="48" id="TestResult" style="stroke:#A80036;stroke-width:1.5;" width="92" x="252.47" y="825"/><ellipse cx="267.47" cy="841" fill="#ADD1B2" rx="11" ry="11" style="stroke:#A80036;stroke-width:1.0;"/><path d="M269.47,837.5 Q269.6731,837 269.9075,836.75 Q270.1419,836.5 270.4075,836.5 Q270.8763,836.5 271.1731,836.7813 Q271.47,837.0625 271.47,837.7188 L271.47,839.2813 Q271.47,839.9375 271.1888,840.2188 Q270.9075,840.5 270.47,840.5 Q270.0794,840.5 269.8294,840.3281 Q269.5794,840.1563 269.47,839.7031 Q269.4231,839.3906 269.2513,839.2188 Q268.9388,838.8906 268.3763,838.7031 Q267.8138,838.5 267.2513,838.5 Q266.5481,838.5 265.9544,838.7813 Q265.3763,839.0625 264.9231,839.6875 Q264.47,840.3125 264.47,841.1719 L264.47,842.0938 Q264.47,843.125 265.3138,843.8125 Q266.1575,844.5 267.6575,844.5 Q268.5481,844.5 269.1731,844.2969 Q269.5325,844.1875 269.9388,843.8281 Q270.2044,843.625 270.345,843.5625 Q270.4856,843.5 270.6575,843.5 Q270.9856,843.5 271.22,843.7656 Q271.47,844.0156 271.47,844.375 Q271.47,844.7188 271.1263,845.125 Q270.6263,845.7188 269.8294,846.0469 Q268.7825,846.5 267.5013,846.5 Q266.0013,846.5 264.7981,845.9063 Q263.8294,845.4375 263.1419,844.4219 Q262.47,843.4063 262.47,842.2031 L262.47,841.1094 Q262.47,839.8594 263.0638,838.7656 Q263.6731,837.6719 264.72,837.0938 Q265.7825,836.5 266.97,836.5 Q267.6888,836.5 268.3138,836.75 Q268.9388,837 269.47,837.5 Z " fill="#000000"/><text fill="#000000" font-family="sans-serif" font-size="12" lengthAdjust="spacing" textLength="60" x="281.47" y="845.9102">TestResult</text><line style="stroke:#A80036;stroke-width:1.5;" x1="253.47" x2="343.47" y1="857" y2="857"/><line style="stroke:#A80036;stroke-width:1.5;" x1="253.47" x2="343.47" y1="865" y2="865"/><!--MD5=[7d96fd15f3014691d2fcaf89c5791e2a]
class SpecialistDoctor--><rect codeLine="50" fill="#FEFECE" filter="url(#f93uysqqmcjlr)" height="48" id="SpecialistDoctor" style="stroke:#A80036;stroke-width:1.5;" width="122" x="330.47" y="692"/><ellipse cx="345.47" cy="708" fill="#ADD1B2" rx="11" ry="11" style="stroke:#A80036;stroke-width:1.0;"/><path d="M347.47,704.5 Q347.6731,704 347.9075,703.75 Q348.1419,703.5 348.4075,703.5 Q348.8763,703.5 349.1731,703.7813 Q349.47,704.0625 349.47,704.7188 L349.47,706.2813 Q349.47,706.9375 349.1888,707.2188 Q348.9075,707.5 348.47,707.5 Q348.0794,707.5 347.8294,707.3281 Q347.5794,707.1563 347.47,706.7031 Q347.4231,706.3906 347.2513,706.2188 Q346.9388,705.8906 346.3763,705.7031 Q345.8138,705.5 345.2513,705.5 Q344.5481,705.5 343.9544,705.7813 Q343.3763,706.0625 342.9231,706.6875 Q342.47,707.3125 342.47,708.1719 L342.47,709.0938 Q342.47,710.125 343.3138,710.8125 Q344.1575,711.5 345.6575,711.5 Q346.5481,711.5 347.1731,711.2969 Q347.5325,711.1875 347.9388,710.8281 Q348.2044,710.625 348.345,710.5625 Q348.4856,710.5 348.6575,710.5 Q348.9856,710.5 349.22,710.7656 Q349.47,711.0156 349.47,711.375 Q349.47,711.7188 349.1263,712.125 Q348.6263,712.7188 347.8294,713.0469 Q346.7825,713.5 345.5013,713.5 Q344.0013,713.5 342.7981,712.9063 Q341.8294,712.4375 341.1419,711.4219 Q340.47,710.4063 340.47,709.2031 L340.47,708.1094 Q340.47,706.8594 341.0638,705.7656 Q341.6731,704.6719 342.72,704.0938 Q343.7825,703.5 344.97,703.5 Q345.6888,703.5 346.3138,703.75 Q346.9388,704 347.47,704.5 Z " fill="#000000"/><text fill="#000000" font-family="sans-serif" font-size="12" lengthAdjust="spacing" textLength="90" x="359.47" y="712.9102">SpecialistDoctor</text><line style="stroke:#A80036;stroke-width:1.5;" x1="331.47" x2="451.47" y1="724" y2="724"/><line style="stroke:#A80036;stroke-width:1.5;" x1="331.47" x2="451.47" y1="732" y2="732"/><!--MD5=[c886e9f626b1f684543f4c5ec86b9c7b]
class LabCoordinator--><rect codeLine="51" fill="#FEFECE" filter="url(#f93uysqqmcjlr)" height="48" id="LabCoordinator" style="stroke:#A80036;stroke-width:1.5;" width="118" x="177.47" y="692"/><ellipse cx="192.47" cy="708" fill="#ADD1B2" rx="11" ry="11" style="stroke:#A80036;stroke-width:1.0;"/><path d="M194.47,704.5 Q194.6731,704 194.9075,703.75 Q195.1419,703.5 195.4075,703.5 Q195.8763,703.5 196.1731,703.7813 Q196.47,704.0625 196.47,704.7188 L196.47,706.2813 Q196.47,706.9375 196.1888,707.2188 Q195.9075,707.5 195.47,707.5 Q195.0794,707.5 194.8294,707.3281 Q194.5794,707.1563 194.47,706.7031 Q194.4231,706.3906 194.2513,706.2188 Q193.9388,705.8906 193.3763,705.7031 Q192.8138,705.5 192.2513,705.5 Q191.5481,705.5 190.9544,705.7813 Q190.3763,706.0625 189.9231,706.6875 Q189.47,707.3125 189.47,708.1719 L189.47,709.0938 Q189.47,710.125 190.3138,710.8125 Q191.1575,711.5 192.6575,711.5 Q193.5481,711.5 194.1731,711.2969 Q194.5325,711.1875 194.9388,710.8281 Q195.2044,710.625 195.345,710.5625 Q195.4856,710.5 195.6575,710.5 Q195.9856,710.5 196.22,710.7656 Q196.47,711.0156 196.47,711.375 Q196.47,711.7188 196.1263,712.125 Q195.6263,712.7188 194.8294,713.0469 Q193.7825,713.5 192.5013,713.5 Q191.0013,713.5 189.7981,712.9063 Q188.8294,712.4375 188.1419,711.4219 Q187.47,710.4063 187.47,709.2031 L187.47,708.1094 Q187.47,706.8594 188.0638,705.7656 Q188.6731,704.6719 189.72,704.0938 Q190.7825,703.5 191.97,703.5 Q192.6888,703.5 193.3138,703.75 Q193.9388,704 194.47,704.5 Z " fill="#000000"/><text fill="#000000" font-family="sans-serif" font-size="12" lengthAdjust="spacing" textLength="86" x="206.47" y="712.9102">LabCoordinator</text><line style="stroke:#A80036;stroke-width:1.5;" x1="178.47" x2="294.47" y1="724" y2="724"/><line style="stroke:#A80036;stroke-width:1.5;" x1="178.47" x2="294.47" y1="732" y2="732"/><!--MD5=[10d06bcee75aaf74ab8f6040820ceef2]
class Diagnosis--><rect codeLine="52" fill="#FEFECE" filter="url(#f93uysqqmcjlr)" height="48" id="Diagnosis" style="stroke:#A80036;stroke-width:1.5;" width="89" x="191.97" y="432.5"/><ellipse cx="206.97" cy="448.5" fill="#ADD1B2" rx="11" ry="11" style="stroke:#A80036;stroke-width:1.0;"/><path d="M208.97,445 Q209.1731,444.5 209.4075,444.25 Q209.6419,444 209.9075,444 Q210.3763,444 210.6731,444.2813 Q210.97,444.5625 210.97,445.2188 L210.97,446.7813 Q210.97,447.4375 210.6888,447.7188 Q210.4075,448 209.97,448 Q209.5794,448 209.3294,447.8281 Q209.0794,447.6563 208.97,447.2031 Q208.9231,446.8906 208.7513,446.7188 Q208.4388,446.3906 207.8763,446.2031 Q207.3138,446 206.7513,446 Q206.0481,446 205.4544,446.2813 Q204.8763,446.5625 204.4231,447.1875 Q203.97,447.8125 203.97,448.6719 L203.97,449.5938 Q203.97,450.625 204.8138,451.3125 Q205.6575,452 207.1575,452 Q208.0481,452 208.6731,451.7969 Q209.0325,451.6875 209.4388,451.3281 Q209.7044,451.125 209.845,451.0625 Q209.9856,451 210.1575,451 Q210.4856,451 210.72,451.2656 Q210.97,451.5156 210.97,451.875 Q210.97,452.2188 210.6263,452.625 Q210.1263,453.2188 209.3294,453.5469 Q208.2825,454 207.0013,454 Q205.5013,454 204.2981,453.4063 Q203.3294,452.9375 202.6419,451.9219 Q201.97,450.9063 201.97,449.7031 L201.97,448.6094 Q201.97,447.3594 202.5638,446.2656 Q203.1731,445.1719 204.22,444.5938 Q205.2825,444 206.47,444 Q207.1888,444 207.8138,444.25 Q208.4388,444.5 208.97,445 Z " fill="#000000"/><text fill="#000000" font-family="sans-serif" font-size="12" lengthAdjust="spacing" textLength="57" x="220.97" y="453.4102">Diagnosis</text><line style="stroke:#A80036;stroke-width:1.5;" x1="192.97" x2="279.97" y1="464.5" y2="464.5"/><line style="stroke:#A80036;stroke-width:1.5;" x1="192.97" x2="279.97" y1="472.5" y2="472.5"/><!--MD5=[0a105ea8d9af02dadec02d3e239f1d60]
class NHS--><rect codeLine="53" fill="#FEFECE" filter="url(#f93uysqqmcjlr)" height="48" id="NHS" style="stroke:#A80036;stroke-width:1.5;" width="58" x="1384.47" y="692"/><ellipse cx="1399.47" cy="708" fill="#ADD1B2" rx="11" ry="11" style="stroke:#A80036;stroke-width:1.0;"/><path d="M1401.47,704.5 Q1401.6731,704 1401.9075,703.75 Q1402.1419,703.5 1402.4075,703.5 Q1402.8763,703.5 1403.1731,703.7813 Q1403.47,704.0625 1403.47,704.7188 L1403.47,706.2813 Q1403.47,706.9375 1403.1888,707.2188 Q1402.9075,707.5 1402.47,707.5 Q1402.0794,707.5 1401.8294,707.3281 Q1401.5794,707.1563 1401.47,706.7031 Q1401.4231,706.3906 1401.2513,706.2188 Q1400.9388,705.8906 1400.3763,705.7031 Q1399.8138,705.5 1399.2513,705.5 Q1398.5481,705.5 1397.9544,705.7813 Q1397.3763,706.0625 1396.9231,706.6875 Q1396.47,707.3125 1396.47,708.1719 L1396.47,709.0938 Q1396.47,710.125 1397.3138,710.8125 Q1398.1575,711.5 1399.6575,711.5 Q1400.5481,711.5 1401.1731,711.2969 Q1401.5325,711.1875 1401.9388,710.8281 Q1402.2044,710.625 1402.345,710.5625 Q1402.4856,710.5 1402.6575,710.5 Q1402.9856,710.5 1403.22,710.7656 Q1403.47,711.0156 1403.47,711.375 Q1403.47,711.7188 1403.1263,712.125 Q1402.6263,712.7188 1401.8294,713.0469 Q1400.7825,713.5 1399.5013,713.5 Q1398.0013,713.5 1396.7981,712.9063 Q1395.8294,712.4375 1395.1419,711.4219 Q1394.47,710.4063 1394.47,709.2031 L1394.47,708.1094 Q1394.47,706.8594 1395.0638,705.7656 Q1395.6731,704.6719 1396.72,704.0938 Q1397.7825,703.5 1398.97,703.5 Q1399.6888,703.5 1400.3138,703.75 Q1400.9388,704 1401.47,704.5 Z " fill="#000000"/><text fill="#000000" font-family="sans-serif" font-size="12" lengthAdjust="spacing" textLength="26" x="1413.47" y="712.9102">NHS</text><line style="stroke:#A80036;stroke-width:1.5;" x1="1385.47" x2="1441.47" y1="724" y2="724"/><line style="stroke:#A80036;stroke-width:1.5;" x1="1385.47" x2="1441.47" y1="732" y2="732"/><!--MD5=[3fd616f346a44cd59a91eb10b19e157c]
class User--><rect codeLine="54" fill="#FEFECE" filter="url(#f93uysqqmcjlr)" height="61.8359" id="User" style="stroke:#A80036;stroke-width:1.5;" width="66" x="1454.47" y="7"/><ellipse cx="1472.62" cy="23" fill="#ADD1B2" rx="11" ry="11" style="stroke:#A80036;stroke-width:1.0;"/><path d="M1474.62,19.5 Q1474.8231,19 1475.0575,18.75 Q1475.2919,18.5 1475.5575,18.5 Q1476.0263,18.5 1476.3231,18.7813 Q1476.62,19.0625 1476.62,19.7188 L1476.62,21.2813 Q1476.62,21.9375 1476.3388,22.2188 Q1476.0575,22.5 1475.62,22.5 Q1475.2294,22.5 1474.9794,22.3281 Q1474.7294,22.1563 1474.62,21.7031 Q1474.5731,21.3906 1474.4013,21.2188 Q1474.0888,20.8906 1473.5263,20.7031 Q1472.9638,20.5 1472.4013,20.5 Q1471.6981,20.5 1471.1044,20.7813 Q1470.5263,21.0625 1470.0731,21.6875 Q1469.62,22.3125 1469.62,23.1719 L1469.62,24.0938 Q1469.62,25.125 1470.4638,25.8125 Q1471.3075,26.5 1472.8075,26.5 Q1473.6981,26.5 1474.3231,26.2969 Q1474.6825,26.1875 1475.0888,25.8281 Q1475.3544,25.625 1475.495,25.5625 Q1475.6356,25.5 1475.8075,25.5 Q1476.1356,25.5 1476.37,25.7656 Q1476.62,26.0156 1476.62,26.375 Q1476.62,26.7188 1476.2763,27.125 Q1475.7763,27.7188 1474.9794,28.0469 Q1473.9325,28.5 1472.6513,28.5 Q1471.1513,28.5 1469.9481,27.9063 Q1468.9794,27.4375 1468.2919,26.4219 Q1467.62,25.4063 1467.62,24.2031 L1467.62,23.1094 Q1467.62,21.8594 1468.2138,20.7656 Q1468.8231,19.6719 1469.87,19.0938 Q1470.9325,18.5 1472.12,18.5 Q1472.8388,18.5 1473.4638,18.75 Q1474.0888,19 1474.62,19.5 Z " fill="#000000"/><text fill="#000000" font-family="sans-serif" font-size="12" lengthAdjust="spacing" textLength="27" x="1487.32" y="27.9102">User</text><line style="stroke:#A80036;stroke-width:1.5;" x1="1455.47" x2="1519.47" y1="39" y2="39"/><text fill="#000000" font-family="sans-serif" font-size="11" lengthAdjust="spacing" textLength="54" x="1460.47" y="54.4189">-password</text><line style="stroke:#A80036;stroke-width:1.5;" x1="1455.47" x2="1519.47" y1="60.8359" y2="60.8359"/><!--MD5=[93d7880ef3cc27df92dc3b8ebff5c606]
class sampleType--><rect fill="#FEFECE" filter="url(#f93uysqqmcjlr)" height="48" id="sampleType" style="stroke:#A80036;stroke-width:1.5;" width="100" x="926.47" y="692"/><ellipse cx="941.47" cy="708" fill="#ADD1B2" rx="11" ry="11" style="stroke:#A80036;stroke-width:1.0;"/><path d="M943.47,704.5 Q943.6731,704 943.9075,703.75 Q944.1419,703.5 944.4075,703.5 Q944.8762,703.5 945.1731,703.7813 Q945.47,704.0625 945.47,704.7188 L945.47,706.2813 Q945.47,706.9375 945.1887,707.2188 Q944.9075,707.5 944.47,707.5 Q944.0794,707.5 943.8294,707.3281 Q943.5794,707.1563 943.47,706.7031 Q943.4231,706.3906 943.2512,706.2188 Q942.9387,705.8906 942.3762,705.7031 Q941.8137,705.5 941.2512,705.5 Q940.5481,705.5 939.9544,705.7813 Q939.3762,706.0625 938.9231,706.6875 Q938.47,707.3125 938.47,708.1719 L938.47,709.0938 Q938.47,710.125 939.3137,710.8125 Q940.1575,711.5 941.6575,711.5 Q942.5481,711.5 943.1731,711.2969 Q943.5325,711.1875 943.9387,710.8281 Q944.2044,710.625 944.345,710.5625 Q944.4856,710.5 944.6575,710.5 Q944.9856,710.5 945.22,710.7656 Q945.47,711.0156 945.47,711.375 Q945.47,711.7188 945.1262,712.125 Q944.6262,712.7188 943.8294,713.0469 Q942.7825,713.5 941.5012,713.5 Q940.0012,713.5 938.7981,712.9063 Q937.8294,712.4375 937.1419,711.4219 Q936.47,710.4063 936.47,709.2031 L936.47,708.1094 Q936.47,706.8594 937.0637,705.7656 Q937.6731,704.6719 938.72,704.0938 Q939.7825,703.5 940.97,703.5 Q941.6887,703.5 942.3137,703.75 Q942.9387,704 943.47,704.5 Z " fill="#000000"/><text fill="#000000" font-family="sans-serif" font-size="12" lengthAdjust="spacing" textLength="68" x="955.47" y="712.9102">sampleType</text><line style="stroke:#A80036;stroke-width:1.5;" x1="927.47" x2="1025.47" y1="724" y2="724"/><line style="stroke:#A80036;stroke-width:1.5;" x1="927.47" x2="1025.47" y1="732" y2="732"/><!--MD5=[e981d4f96c4342412d1e68160b30cf70]
link Test to TestType--><path codeLine="57" d="M1174.91,529.23 C1174.49,583.84 1173.93,655.61 1173.65,691.88 " fill="none" id="Test-TestType" style="stroke:#A80036;stroke-width:1.0;"/><polygon fill="#000000" points="1179.4313,615.6756,1182.4402,606.6536,1176.5625,606.6081,1179.4313,615.6756" style="stroke:#000000;stroke-width:1.0;"/><text fill="#000000" font-family="sans-serif" font-size="13" lengthAdjust="spacing" textLength="24" x="1188.47" y="615.9951">is of</text><!--MD5=[502b51bc079239060389dab43b7d3470]
link Client to Test--><path codeLine="58" d="M1172.85,306.1 C1172.44,321.96 1172.24,338.51 1172.47,354 C1172.61,363.7 1172.83,373.91 1173.09,383.97 " fill="none" id="Client-Test" style="stroke:#A80036;stroke-width:1.0;"/><polygon fill="#000000" points="1177.4546,340.1758,1174.5436,349.2299,1180.4214,349.2118,1177.4546,340.1758" style="stroke:#000000;stroke-width:1.0;"/><text fill="#000000" font-family="sans-serif" font-size="13" lengthAdjust="spacing" textLength="75" x="1186.47" y="350.4951">requested by</text><!--MD5=[1ae83efc6d1967ce5bc17dfe294d00c2]
link Sample to Test--><path codeLine="59" d="M932.07,456.5 C984.27,456.5 1078.39,456.5 1133.04,456.5 " fill="none" id="Sample-Test" style="stroke:#A80036;stroke-width:1.0;"/><polygon fill="#000000" points="1002.72,444.6758,1011.7651,447.6147,1011.7651,441.7369,1002.72,444.6758" style="stroke:#000000;stroke-width:1.0;"/><text fill="#000000" font-family="sans-serif" font-size="13" lengthAdjust="spacing" textLength="45" x="1016.72" y="449.9951">collects</text><!--MD5=[c23963f6e403fc3ebec8dae22c30ade6]
link Test to Parameter--><path codeLine="60" d="M1133.2,523.73 C1125.75,535.41 1118.1,547.4 1110.96,558.58 " fill="none" id="Test-Parameter" style="stroke:#A80036;stroke-width:1.0;"/><!--MD5=[f9817a04d37f372ce4a6fb222e205055]
link Lab Order to Test--><path codeLine="61" d="M1067,264.62 C1075.03,290.45 1087.29,325.28 1102.47,354 C1111.24,370.6 1122.42,387.57 1133.38,402.77 " fill="none" id="Lab Order-Test" style="stroke:#A80036;stroke-width:1.0;"/><polygon fill="#000000" points="1105.3045,340.669,1106.5729,350.0946,1111.8709,347.549,1105.3045,340.669" style="stroke:#000000;stroke-width:1.0;"/><text fill="#000000" font-family="sans-serif" font-size="13" lengthAdjust="spacing" textLength="46" x="1116.47" y="350.4951">requires</text><!--MD5=[7e4bc624457760b649895ff2ead938fa]
link Company to Test--><path codeLine="62" d="M1280.06,817.91 C1271.79,764.74 1252,651.13 1221.47,559 C1218.21,549.18 1214.31,539.02 1210.17,529.11 " fill="none" id="Company-Test" style="stroke:#A80036;stroke-width:1.0;"/><polygon fill="#000000" points="1271.6461,721.0355,1272.375,711.5529,1266.6621,712.9355,1271.6461,721.0355" style="stroke:#000000;stroke-width:1.0;"/><text fill="#000000" font-family="sans-serif" font-size="13" lengthAdjust="spacing" textLength="50" x="1279.47" y="721.4951">performs</text><!--MD5=[2c46651aa9ea3a6d986170fabc83ad48]
link Category to Administrator--><path codeLine="63" d="M1108.47,1048.29 C1108.47,1073.94 1108.47,1105.18 1108.47,1125.99 " fill="none" id="Category-Administrator" style="stroke:#A80036;stroke-width:1.0;"/><polygon fill="#000000" points="1113.47,1092.1758,1116.4089,1083.1307,1110.5311,1083.1307,1113.47,1092.1758" style="stroke:#000000;stroke-width:1.0;"/><text fill="#000000" font-family="sans-serif" font-size="13" lengthAdjust="spacing" textLength="61" x="1122.47" y="1092.4951">created by</text><!--MD5=[852f3a1b1bcfc6074ebcba484562eac0]
link Parameter to Category--><path codeLine="64" d="M1082.36,662.15 C1088.28,739.23 1099.46,884.7 1105.07,957.77 " fill="none" id="Parameter-Category" style="stroke:#A80036;stroke-width:1.0;"/><polygon fill="#000000" points="1096.853,784.1611,1099.0905,774.9175,1093.2299,775.3677,1096.853,784.1611" style="stroke:#000000;stroke-width:1.0;"/><text fill="#000000" font-family="sans-serif" font-size="13" lengthAdjust="spacing" textLength="93" x="1105.47" y="784.4951">presented under</text><!--MD5=[d5ddf5c85b448d498c07afdaea600b32]
link Sample to sampleType--><path codeLine="65" d="M908.71,487.67 C917.76,507.61 929.27,534.5 937.47,559 C952.97,605.33 965.5,661.22 971.88,691.95 " fill="none" id="Sample-sampleType" style="stroke:#A80036;stroke-width:1.0;"/><polygon fill="#000000" points="970.9471,615.4526,971.0827,605.943,965.4672,607.6795,970.9471,615.4526" style="stroke:#000000;stroke-width:1.0;"/><text fill="#000000" font-family="sans-serif" font-size="13" lengthAdjust="spacing" textLength="24" x="978.47" y="615.9951">is of</text><!--MD5=[cb5e86f6614a99551e1d9ce6f0ae5849]
link Sample to MedicalLabTechnician--><path codeLine="66" d="M878.69,487.93 C868.92,507.76 856.7,534.42 848.47,559 C833.04,605.06 822.35,661.05 817.13,691.86 " fill="none" id="Sample-MedicalLabTechnician" style="stroke:#A80036;stroke-width:1.0;"/><polygon fill="#000000" points="852.0251,615.4624,857.4525,607.6526,851.8255,605.954,852.0251,615.4624" style="stroke:#000000;stroke-width:1.0;"/><text fill="#000000" font-family="sans-serif" font-size="13" lengthAdjust="spacing" textLength="70" x="862.47" y="615.9951">collected by</text><!--MD5=[d26d10da823f6089ca18e653f1cb3d9f]
link Sample to ClinicalChemistryTechnologist--><path codeLine="67" d="M856.66,476.36 C821.84,494.74 769.78,524.86 730.47,559 C683.09,600.15 638.75,659.49 616.12,691.84 " fill="none" id="Sample-ClinicalChemistryTechnologist" style="stroke:#A80036;stroke-width:1.0;"/><polygon fill="#000000" points="731.7458,614.012,740.4439,610.1658,736.522,605.7877,731.7458,614.012" style="stroke:#000000;stroke-width:1.0;"/><text fill="#000000" font-family="sans-serif" font-size="13" lengthAdjust="spacing" textLength="70" x="744.47" y="615.9951">analysed by</text><!--MD5=[c3a86c626b5b742f72786125539e9227]
link ClinicalChemistryTechnologist to ChemicalLaboratory--><path codeLine="68" d="M602.94,740.12 C605.48,763.92 609.42,800.8 611.97,824.67 " fill="none" id="ClinicalChemistryTechnologist-ChemicalLaboratory" style="stroke:#A80036;stroke-width:1.0;"/><polygon fill="#000000" points="614.001,784.1475,615.9627,774.8415,610.1181,775.4657,614.001,784.1475" style="stroke:#000000;stroke-width:1.0;"/><text fill="#000000" font-family="sans-serif" font-size="13" lengthAdjust="spacing" textLength="49" x="622.47" y="784.4951">works at</text><!--MD5=[6a35157f4c730bda767e7c9f1b8b7f73]
link Receptionist to Client--><path codeLine="69" d="M1216.23,62.25 C1209.45,72.99 1202.09,86.18 1197.47,99 C1192.03,114.08 1187.99,130.68 1184.99,146.76 " fill="none" id="Receptionist-Client" style="stroke:#A80036;stroke-width:1.0;"/><polygon fill="#000000" points="1200.7364,112.8656,1206.6292,105.4006,1201.1159,103.3626,1200.7364,112.8656" style="stroke:#000000;stroke-width:1.0;"/><text fill="#000000" font-family="sans-serif" font-size="13" lengthAdjust="spacing" textLength="50" x="1211.47" y="113.4951">registers</text><!--MD5=[e8b34c2e6517a986175307f5599f058a]
link Receptionist to Test--><path codeLine="70" d="M1249.21,62 C1255.99,72.69 1263.02,85.92 1266.47,99 C1295.36,208.59 1306.97,248.15 1266.47,354 C1256.49,380.08 1236.37,403.69 1217.59,421.55 " fill="none" id="Receptionist-Test" style="stroke:#A80036;stroke-width:1.0;"/><polygon fill="#000000" points="1297.032,231.6566,1300.752,222.9037,1294.8967,222.3888,1297.032,231.6566" style="stroke:#000000;stroke-width:1.0;"/><text fill="#000000" font-family="sans-serif" font-size="13" lengthAdjust="spacing" textLength="50" x="1306.47" y="231.9951">registers</text><!--MD5=[20675b07f1baf04abd59eb605a4ad598]
link ClinicalChemistryTechnologist to TestResult--><path codeLine="71" d="M551.49,740.07 C521.11,754.23 481.19,772.54 445.47,788 C411.95,802.51 373.75,818.07 344.69,829.71 " fill="none" id="ClinicalChemistryTechnologist-TestResult" style="stroke:#A80036;stroke-width:1.0;"/><polygon fill="#000000" points="494.0576,777.1872,484.5898,778.088,486.9274,783.481,494.0576,777.1872" style="stroke:#000000;stroke-width:1.0;"/><text fill="#000000" font-family="sans-serif" font-size="13" lengthAdjust="spacing" textLength="75" x="498.47" y="784.4951">generated by</text><!--MD5=[492976e961d73885787d6f4e699abc3c]
link SpecialistDoctor to TestResult--><path codeLine="72" d="M375.05,740.12 C358.16,763.92 331.98,800.8 315.03,824.67 " fill="none" id="SpecialistDoctor-TestResult" style="stroke:#A80036;stroke-width:1.0;"/><polygon fill="#000000" points="361.3643,775.0986,353.732,780.7731,358.525,784.1755,361.3643,775.0986" style="stroke:#000000;stroke-width:1.0;"/><text fill="#000000" font-family="sans-serif" font-size="13" lengthAdjust="spacing" textLength="70" x="367.47" y="784.4951">analysed by</text><!--MD5=[e60dbfb26f96b2bc09dc8c8b2d22e46f]
link LabCoordinator to TestResult--><path codeLine="73" d="M230.5,740.01 C227.95,754.39 226.89,772.97 233.47,788 C239.81,802.49 251.57,815.03 263.37,824.85 " fill="none" id="LabCoordinator-TestResult" style="stroke:#A80036;stroke-width:1.0;"/><polygon fill="#000000" points="236.6637,774.5135,237.1909,784.0094,242.6718,781.8859,236.6637,774.5135" style="stroke:#000000;stroke-width:1.0;"/><text fill="#000000" font-family="sans-serif" font-size="13" lengthAdjust="spacing" textLength="68" x="247.47" y="784.4951">validated by</text><!--MD5=[fd5f5b962c28af1c88b5bc5c4cfdb2d8]
link Diagnosis to SpecialistDoctor--><path codeLine="74" d="M261.45,480.61 C281.35,500.04 308.86,529.33 327.47,559 C354.92,602.77 374.94,660.34 384.73,691.87 " fill="none" id="Diagnosis-SpecialistDoctor" style="stroke:#A80036;stroke-width:1.0;"/><polygon fill="#000000" points="381.99,614.9943,379.9696,605.7008,374.8929,608.6633,381.99,614.9943" style="stroke:#000000;stroke-width:1.0;"/><text fill="#000000" font-family="sans-serif" font-size="13" lengthAdjust="spacing" textLength="75" x="388.47" y="615.9951">generated by</text><!--MD5=[aa7f6e8aeb9310a97173f9b6fb8851f0]
link Diagnosis to LabCoordinator--><path codeLine="75" d="M236.47,480.81 C236.47,529.83 236.47,643.12 236.47,691.93 " fill="none" id="Diagnosis-LabCoordinator" style="stroke:#A80036;stroke-width:1.0;"/><polygon fill="#000000" points="241.47,615.6758,244.4089,606.6307,238.5311,606.6307,241.47,615.6758" style="stroke:#000000;stroke-width:1.0;"/><text fill="#000000" font-family="sans-serif" font-size="13" lengthAdjust="spacing" textLength="68" x="250.47" y="615.9951">validated by</text><!--MD5=[c9ce66265abea0024719b01d064e7ebf]
link Diagnosis to TestResult--><path codeLine="76" d="M203.39,480.82 C138.52,529.47 6,645.16 66.47,740 C107.31,804.06 197.1,830.73 252.23,841.37 " fill="none" id="Diagnosis-TestResult" style="stroke:#A80036;stroke-width:1.0;"/><polygon fill="#000000" points="72.1412,721.1305,73.8393,711.7728,68.0147,712.5618,72.1412,721.1305" style="stroke:#000000;stroke-width:1.0;"/><text fill="#000000" font-family="sans-serif" font-size="13" lengthAdjust="spacing" textLength="78" x="80.47" y="721.4951">associated to</text><!--MD5=[f923d4b2b0bfa3bc16306ca4dbe44866]
link Test to NHS--><path codeLine="77" d="M1217.71,483.73 C1245.95,502.53 1282.84,529.63 1310.47,559 C1349.94,600.96 1384.19,659.73 1401.49,691.83 " fill="none" id="Test-NHS" style="stroke:#A80036;stroke-width:1.0;"/><polygon fill="#000000" points="1384.1602,606.928,1387.9448,615.6532,1392.3505,611.7623,1384.1602,606.928" style="stroke:#000000;stroke-width:1.0;"/><text fill="#000000" font-family="sans-serif" font-size="13" lengthAdjust="spacing" textLength="101" x="1396.47" y="615.9951">requests report of</text><!--MD5=[19be1708881710afac89d72e827851dc]
link NHS to Company--><path codeLine="78" d="M1390.7,740.12 C1369.44,761.71 1337.56,794.08 1314.28,817.73 " fill="none" id="NHS-Company" style="stroke:#A80036;stroke-width:1.0;"/><polygon fill="#000000" points="1361.9619,782.7385,1370.4023,778.3555,1366.214,774.2314,1361.9619,782.7385" style="stroke:#000000;stroke-width:1.0;"/><text fill="#000000" font-family="sans-serif" font-size="13" lengthAdjust="spacing" textLength="102" x="1374.47" y="784.4951">requests report to</text><!--MD5=[cc1f60f7fb1c702a98cbcc58aaecd7da]
link Company to Category--><path codeLine="79" d="M1249.7,880.03 C1220.74,905.03 1179.48,940.67 1149.03,966.97 " fill="none" id="Company-Category" style="stroke:#A80036;stroke-width:1.0;"/><polygon fill="#000000" points="1212.6858,922.4438,1221.4524,918.7561,1217.6105,914.3076,1212.6858,922.4438" style="stroke:#000000;stroke-width:1.0;"/><text fill="#000000" font-family="sans-serif" font-size="13" lengthAdjust="spacing" textLength="21" x="1225.47" y="924.4951">has</text><!--MD5=[cda3107f74bd337d994df80911e2daaf]
@startuml
skinparam classAttributeIconSize 0
class Test {
-internalCode 
-nhsCode 
-description 
-dateCollection 
-dateAnalysis 
-dateDiagnosis 
-dateValidation
}
class TestType
class Client {
-name 
-cardNumber 
-birthDate 
-sex 
-nhsID
-TIF
-phoneNumber
-email
}
class Sample {
-barcode
}
class Parameter {
-rbcCount 
-wbcCount 
-pltCount 
-boolean covidResult 
}
class "Lab Order" {
-testType 
-parameters 
}
class Company {
-designation
}
class Category {
-code 
-description 
-nhsID 
}
class Administrator
class SampleType
class MedicalLabTechnician
class ClinicalChemistryTechnologist
class ChemicalLaboratory
class Receptionist
class TestResult
class SpecialistDoctor
class LabCoordinator
class Diagnosis
class NHS
class User {
-password
}
Test -down- "TestType" : is of >
Test -up- Client : requested by >
Test -left- Sample : collects >
Test -right- Parameter : requests analysis of >
Test -up- "Lab Order" : requires >
Test -up- Company : performs >
Administrator -up- Category : created by <
Parameter -right- Category : presented under >
sampleType -up- Sample  : is of <
MedicalLabTechnician -up- Sample : collected by <
ClinicalChemistryTechnologist -up- Sample : analysed by <
ClinicalChemistryTechnologist -down- ChemicalLaboratory : works at >
Receptionist -down- Client : registers >
Receptionist -down- Test : registers >
TestResult -up- ClinicalChemistryTechnologist : generated by >
TestResult -up- SpecialistDoctor : analysed by >
TestResult -up- LabCoordinator : validated by >
Diagnosis -down- SpecialistDoctor : generated by >
Diagnosis -down- LabCoordinator : validated by >
Diagnosis -down- TestResult : associated to >
NHS -up- Test : requests report of >
NHS -down- Company : requests report to >
Company -down- Category : has >
@enduml

PlantUML version 1.2021.4(Sun Apr 04 09:49:39 BST 2021)
(GPL source distribution)
Java Runtime: OpenJDK Runtime Environment
JVM: OpenJDK 64-Bit Server VM
Default Encoding: Cp1252
Language: pt
Country: PT
--></g></svg>