<?xml version="1.0" encoding="UTF-8" standalone="no"?><svg xmlns="http://www.w3.org/2000/svg" xmlns:xlink="http://www.w3.org/1999/xlink" contentScriptType="application/ecmascript" contentStyleType="text/css" height="495.5px" preserveAspectRatio="none" style="width:712px;height:495px;" version="1.1" viewBox="0 0 712 495" width="712px" zoomAndPan="magnify"><defs><filter height="300%" id="f1lqa1lwja8cfj" width="300%" x="-1" y="-1"><feGaussianBlur result="blurOut" stdDeviation="1.0"/><feColorMatrix in="blurOut" result="blurOut2" type="matrix" values="0 0 0 0 0 0 0 0 0 0 0 0 0 0 0 0 0 0 .4 0"/><feOffset dx="2.0" dy="2.0" in="blurOut2" result="blurOut3"/><feBlend in="SourceGraphic" in2="blurOut3" mode="normal"/></filter></defs><g><!--MD5=[df38be88ccee13e832d6fafd6288a4ca]
class Test--><rect codeLine="2" fill="#FEFECE" filter="url(#f1lqa1lwja8cfj)" height="79.3438" id="Test" style="stroke:#A80036;stroke-width:0.75;" width="42" x="315.085" y="185"/><ellipse cx="328.885" cy="193" fill="#ADD1B2" rx="5.5" ry="5.5" style="stroke:#A80036;stroke-width:0.5;"/><path d="M329.885,191.25 Q329.9866,191 330.1038,190.875 Q330.2209,190.75 330.3538,190.75 Q330.5881,190.75 330.7366,190.8906 Q330.885,191.0313 330.885,191.3594 L330.885,192.1406 Q330.885,192.4688 330.7444,192.6094 Q330.6038,192.75 330.385,192.75 Q330.1897,192.75 330.0647,192.6641 Q329.9397,192.5781 329.885,192.3516 Q329.8616,192.1953 329.7756,192.1094 Q329.6194,191.9453 329.3381,191.8516 Q329.0569,191.75 328.7756,191.75 Q328.4241,191.75 328.1272,191.8906 Q327.8381,192.0313 327.6116,192.3438 Q327.385,192.6563 327.385,193.0859 L327.385,193.5469 Q327.385,194.0625 327.8069,194.4063 Q328.2288,194.75 328.9788,194.75 Q329.4241,194.75 329.7366,194.6484 Q329.9163,194.5938 330.1194,194.4141 Q330.2522,194.3125 330.3225,194.2813 Q330.3928,194.25 330.4788,194.25 Q330.6428,194.25 330.76,194.3828 Q330.885,194.5078 330.885,194.6875 Q330.885,194.8594 330.7131,195.0625 Q330.4631,195.3594 330.0647,195.5234 Q329.5413,195.75 328.9006,195.75 Q328.1506,195.75 327.5491,195.4531 Q327.0647,195.2188 326.7209,194.7109 Q326.385,194.2031 326.385,193.6016 L326.385,193.0547 Q326.385,192.4297 326.6819,191.8828 Q326.9866,191.3359 327.51,191.0469 Q328.0413,190.75 328.635,190.75 Q328.9944,190.75 329.3069,190.875 Q329.6194,191 329.885,191.25 Z " fill="#000000"/><text fill="#000000" font-family="sans-serif" font-size="6" lengthAdjust="spacing" textLength="12" x="337.285" y="195.4551">Test</text><line style="stroke:#A80036;stroke-width:0.75;" x1="315.585" x2="356.585" y1="201" y2="201"/><text fill="#000000" font-family="sans-serif" font-size="5.5" lengthAdjust="spacing" textLength="32" x="318.085" y="208.7095">-internalCode</text><text fill="#000000" font-family="sans-serif" font-size="5.5" lengthAdjust="spacing" textLength="23.5" x="318.085" y="215.6274">-nhsCode</text><text fill="#000000" font-family="sans-serif" font-size="5.5" lengthAdjust="spacing" textLength="26" x="318.085" y="222.5454">-createdAt</text><text fill="#000000" font-family="sans-serif" font-size="5.5" lengthAdjust="spacing" textLength="28.5" x="318.085" y="229.4634">-description</text><text fill="#000000" font-family="sans-serif" font-size="5.5" lengthAdjust="spacing" textLength="35.5" x="318.085" y="236.3813">-dateCollection</text><text fill="#000000" font-family="sans-serif" font-size="5.5" lengthAdjust="spacing" textLength="33.5" x="318.085" y="243.2993">-dateAnalysis</text><text fill="#000000" font-family="sans-serif" font-size="5.5" lengthAdjust="spacing" textLength="36" x="318.085" y="250.2173">-dateDiagnosis</text><text fill="#000000" font-family="sans-serif" font-size="5.5" lengthAdjust="spacing" textLength="36" x="318.085" y="257.1353">-dateValidation</text><line style="stroke:#A80036;stroke-width:0.75;" x1="315.585" x2="356.585" y1="260.3438" y2="260.3438"/><!--MD5=[aeb3272166074d8737a70b61b1e71682]
class TestType--><rect codeLine="12" fill="#FEFECE" filter="url(#f1lqa1lwja8cfj)" height="37.8359" id="TestType" style="stroke:#A80036;stroke-width:0.75;" width="41" x="454.585" y="303.5"/><ellipse cx="462.085" cy="311.5" fill="#ADD1B2" rx="5.5" ry="5.5" style="stroke:#A80036;stroke-width:0.5;"/><path d="M463.085,309.75 Q463.1866,309.5 463.3038,309.375 Q463.4209,309.25 463.5538,309.25 Q463.7881,309.25 463.9366,309.3906 Q464.085,309.5313 464.085,309.8594 L464.085,310.6406 Q464.085,310.9688 463.9444,311.1094 Q463.8038,311.25 463.585,311.25 Q463.3897,311.25 463.2647,311.1641 Q463.1397,311.0781 463.085,310.8516 Q463.0616,310.6953 462.9756,310.6094 Q462.8194,310.4453 462.5381,310.3516 Q462.2569,310.25 461.9756,310.25 Q461.6241,310.25 461.3272,310.3906 Q461.0381,310.5313 460.8116,310.8438 Q460.585,311.1563 460.585,311.5859 L460.585,312.0469 Q460.585,312.5625 461.0069,312.9063 Q461.4288,313.25 462.1788,313.25 Q462.6241,313.25 462.9366,313.1484 Q463.1163,313.0938 463.3194,312.9141 Q463.4522,312.8125 463.5225,312.7813 Q463.5928,312.75 463.6788,312.75 Q463.8428,312.75 463.96,312.8828 Q464.085,313.0078 464.085,313.1875 Q464.085,313.3594 463.9131,313.5625 Q463.6631,313.8594 463.2647,314.0234 Q462.7413,314.25 462.1006,314.25 Q461.3506,314.25 460.7491,313.9531 Q460.2647,313.7188 459.9209,313.2109 Q459.585,312.7031 459.585,312.1016 L459.585,311.5547 Q459.585,310.9297 459.8819,310.3828 Q460.1866,309.8359 460.71,309.5469 Q461.2413,309.25 461.835,309.25 Q462.1944,309.25 462.5069,309.375 Q462.8194,309.5 463.085,309.75 Z " fill="#000000"/><text fill="#000000" font-family="sans-serif" font-size="6" lengthAdjust="spacing" textLength="25" x="469.085" y="313.9551">TestType</text><line style="stroke:#A80036;stroke-width:0.75;" x1="455.085" x2="495.085" y1="319.5" y2="319.5"/><text fill="#000000" font-family="sans-serif" font-size="5.5" lengthAdjust="spacing" textLength="29.5" x="457.585" y="327.2095">-designation</text><text fill="#000000" font-family="sans-serif" font-size="5.5" lengthAdjust="spacing" textLength="35" x="457.585" y="334.1274">-parameterList</text><line style="stroke:#A80036;stroke-width:0.75;" x1="455.085" x2="495.085" y1="337.3359" y2="337.3359"/><!--MD5=[ed6624c6556d5e7b1bd23032162d20b7]
class Client--><rect codeLine="16" fill="#FEFECE" filter="url(#f1lqa1lwja8cfj)" height="79.3438" id="Client" style="stroke:#A80036;stroke-width:0.75;" width="41.5" x="292.835" y="66.5"/><ellipse cx="304.61" cy="74.5" fill="#ADD1B2" rx="5.5" ry="5.5" style="stroke:#A80036;stroke-width:0.5;"/><path d="M305.61,72.75 Q305.7116,72.5 305.8287,72.375 Q305.9459,72.25 306.0787,72.25 Q306.3131,72.25 306.4616,72.3906 Q306.61,72.5313 306.61,72.8594 L306.61,73.6406 Q306.61,73.9688 306.4694,74.1094 Q306.3287,74.25 306.11,74.25 Q305.9147,74.25 305.7897,74.1641 Q305.6647,74.0781 305.61,73.8516 Q305.5866,73.6953 305.5006,73.6094 Q305.3444,73.4453 305.0631,73.3516 Q304.7819,73.25 304.5006,73.25 Q304.1491,73.25 303.8522,73.3906 Q303.5631,73.5313 303.3366,73.8438 Q303.11,74.1563 303.11,74.5859 L303.11,75.0469 Q303.11,75.5625 303.5319,75.9063 Q303.9537,76.25 304.7037,76.25 Q305.1491,76.25 305.4616,76.1484 Q305.6412,76.0938 305.8444,75.9141 Q305.9772,75.8125 306.0475,75.7813 Q306.1178,75.75 306.2037,75.75 Q306.3678,75.75 306.485,75.8828 Q306.61,76.0078 306.61,76.1875 Q306.61,76.3594 306.4381,76.5625 Q306.1881,76.8594 305.7897,77.0234 Q305.2662,77.25 304.6256,77.25 Q303.8756,77.25 303.2741,76.9531 Q302.7897,76.7188 302.4459,76.2109 Q302.11,75.7031 302.11,75.1016 L302.11,74.5547 Q302.11,73.9297 302.4069,73.3828 Q302.7116,72.8359 303.235,72.5469 Q303.7662,72.25 304.36,72.25 Q304.7194,72.25 305.0319,72.375 Q305.3444,72.5 305.61,72.75 Z " fill="#000000"/><text fill="#000000" font-family="sans-serif" font-size="6" lengthAdjust="spacing" textLength="16" x="312.56" y="76.9551">Client</text><line style="stroke:#A80036;stroke-width:0.75;" x1="293.335" x2="333.835" y1="82.5" y2="82.5"/><text fill="#000000" font-family="sans-serif" font-size="5.5" lengthAdjust="spacing" textLength="15" x="295.835" y="90.2095">-name</text><text fill="#000000" font-family="sans-serif" font-size="5.5" lengthAdjust="spacing" textLength="31.5" x="295.835" y="97.1274">-cardNumber</text><text fill="#000000" font-family="sans-serif" font-size="5.5" lengthAdjust="spacing" textLength="23.5" x="295.835" y="104.0454">-birthDate</text><text fill="#000000" font-family="sans-serif" font-size="5.5" lengthAdjust="spacing" textLength="11" x="295.835" y="110.9634">-sex</text><text fill="#000000" font-family="sans-serif" font-size="5.5" lengthAdjust="spacing" textLength="15.5" x="295.835" y="117.8813">-nhsID</text><text fill="#000000" font-family="sans-serif" font-size="5.5" lengthAdjust="spacing" textLength="9" x="295.835" y="124.7993">-TIF</text><text fill="#000000" font-family="sans-serif" font-size="5.5" lengthAdjust="spacing" textLength="35.5" x="295.835" y="131.7173">-phoneNumber</text><text fill="#000000" font-family="sans-serif" font-size="5.5" lengthAdjust="spacing" textLength="14" x="295.835" y="138.6353">-email</text><line style="stroke:#A80036;stroke-width:0.75;" x1="293.335" x2="333.835" y1="141.8438" y2="141.8438"/><!--MD5=[9681492165142af2a4a3a169d90ee8d4]
class Sample--><rect codeLine="26" fill="#FEFECE" filter="url(#f1lqa1lwja8cfj)" height="30.918" id="Sample" style="stroke:#A80036;stroke-width:0.75;" width="37.5" x="316.835" y="307"/><ellipse cx="324.335" cy="315" fill="#ADD1B2" rx="5.5" ry="5.5" style="stroke:#A80036;stroke-width:0.5;"/><path d="M325.335,313.25 Q325.4366,313 325.5538,312.875 Q325.6709,312.75 325.8038,312.75 Q326.0381,312.75 326.1866,312.8906 Q326.335,313.0313 326.335,313.3594 L326.335,314.1406 Q326.335,314.4688 326.1944,314.6094 Q326.0538,314.75 325.835,314.75 Q325.6397,314.75 325.5147,314.6641 Q325.3897,314.5781 325.335,314.3516 Q325.3116,314.1953 325.2256,314.1094 Q325.0694,313.9453 324.7881,313.8516 Q324.5069,313.75 324.2256,313.75 Q323.8741,313.75 323.5772,313.8906 Q323.2881,314.0313 323.0616,314.3438 Q322.835,314.6563 322.835,315.0859 L322.835,315.5469 Q322.835,316.0625 323.2569,316.4063 Q323.6788,316.75 324.4288,316.75 Q324.8741,316.75 325.1866,316.6484 Q325.3663,316.5938 325.5694,316.4141 Q325.7022,316.3125 325.7725,316.2813 Q325.8428,316.25 325.9288,316.25 Q326.0928,316.25 326.21,316.3828 Q326.335,316.5078 326.335,316.6875 Q326.335,316.8594 326.1631,317.0625 Q325.9131,317.3594 325.5147,317.5234 Q324.9913,317.75 324.3506,317.75 Q323.6006,317.75 322.9991,317.4531 Q322.5147,317.2188 322.1709,316.7109 Q321.835,316.2031 321.835,315.6016 L321.835,315.0547 Q321.835,314.4297 322.1319,313.8828 Q322.4366,313.3359 322.96,313.0469 Q323.4913,312.75 324.085,312.75 Q324.4444,312.75 324.7569,312.875 Q325.0694,313 325.335,313.25 Z " fill="#000000"/><text fill="#000000" font-family="sans-serif" font-size="6" lengthAdjust="spacing" textLength="21.5" x="331.335" y="317.4551">Sample</text><line style="stroke:#A80036;stroke-width:0.75;" x1="317.335" x2="353.835" y1="323" y2="323"/><text fill="#000000" font-family="sans-serif" font-size="5.5" lengthAdjust="spacing" textLength="22" x="319.835" y="330.7095">-barcode</text><line style="stroke:#A80036;stroke-width:0.75;" x1="317.335" x2="353.835" y1="333.918" y2="333.918"/><!--MD5=[1f6362a5c8f21d8d6a0fce68f3a92a4e]
class Parameter--><rect codeLine="29" fill="#FEFECE" filter="url(#f1lqa1lwja8cfj)" height="30.918" id="Parameter" style="stroke:#A80036;stroke-width:0.75;" width="45" x="385.585" y="307"/><ellipse cx="393.085" cy="315" fill="#ADD1B2" rx="5.5" ry="5.5" style="stroke:#A80036;stroke-width:0.5;"/><path d="M394.085,313.25 Q394.1866,313 394.3038,312.875 Q394.4209,312.75 394.5538,312.75 Q394.7881,312.75 394.9366,312.8906 Q395.085,313.0313 395.085,313.3594 L395.085,314.1406 Q395.085,314.4688 394.9444,314.6094 Q394.8038,314.75 394.585,314.75 Q394.3897,314.75 394.2647,314.6641 Q394.1397,314.5781 394.085,314.3516 Q394.0616,314.1953 393.9756,314.1094 Q393.8194,313.9453 393.5381,313.8516 Q393.2569,313.75 392.9756,313.75 Q392.6241,313.75 392.3272,313.8906 Q392.0381,314.0313 391.8116,314.3438 Q391.585,314.6563 391.585,315.0859 L391.585,315.5469 Q391.585,316.0625 392.0069,316.4063 Q392.4288,316.75 393.1788,316.75 Q393.6241,316.75 393.9366,316.6484 Q394.1163,316.5938 394.3194,316.4141 Q394.4522,316.3125 394.5225,316.2813 Q394.5928,316.25 394.6788,316.25 Q394.8428,316.25 394.96,316.3828 Q395.085,316.5078 395.085,316.6875 Q395.085,316.8594 394.9131,317.0625 Q394.6631,317.3594 394.2647,317.5234 Q393.7413,317.75 393.1006,317.75 Q392.3506,317.75 391.7491,317.4531 Q391.2647,317.2188 390.9209,316.7109 Q390.585,316.2031 390.585,315.6016 L390.585,315.0547 Q390.585,314.4297 390.8819,313.8828 Q391.1866,313.3359 391.71,313.0469 Q392.2413,312.75 392.835,312.75 Q393.1944,312.75 393.5069,312.875 Q393.8194,313 394.085,313.25 Z " fill="#000000"/><text fill="#000000" font-family="sans-serif" font-size="6" lengthAdjust="spacing" textLength="29" x="400.085" y="317.4551">Parameter</text><line style="stroke:#A80036;stroke-width:0.75;" x1="386.085" x2="430.085" y1="323" y2="323"/><text fill="#000000" font-family="sans-serif" font-size="5.5" lengthAdjust="spacing" textLength="29.5" x="388.585" y="330.7095">-designation</text><line style="stroke:#A80036;stroke-width:0.75;" x1="386.085" x2="430.085" y1="333.918" y2="333.918"/><!--MD5=[752170896568f3976562e89cfa6d96c0]
class Lab Order--><rect codeLine="32" fill="#FEFECE" filter="url(#f1lqa1lwja8cfj)" height="37.8359" id="Lab Order" style="stroke:#A80036;stroke-width:0.75;" width="43.5" x="208.335" y="87.25"/><ellipse cx="215.835" cy="95.25" fill="#ADD1B2" rx="5.5" ry="5.5" style="stroke:#A80036;stroke-width:0.5;"/><path d="M216.835,93.5 Q216.9366,93.25 217.0538,93.125 Q217.1709,93 217.3038,93 Q217.5381,93 217.6866,93.1406 Q217.835,93.2813 217.835,93.6094 L217.835,94.3906 Q217.835,94.7188 217.6944,94.8594 Q217.5538,95 217.335,95 Q217.1397,95 217.0147,94.9141 Q216.8897,94.8281 216.835,94.6016 Q216.8116,94.4453 216.7256,94.3594 Q216.5694,94.1953 216.2881,94.1016 Q216.0069,94 215.7256,94 Q215.3741,94 215.0772,94.1406 Q214.7881,94.2813 214.5616,94.5938 Q214.335,94.9063 214.335,95.3359 L214.335,95.7969 Q214.335,96.3125 214.7569,96.6563 Q215.1788,97 215.9288,97 Q216.3741,97 216.6866,96.8984 Q216.8663,96.8438 217.0694,96.6641 Q217.2022,96.5625 217.2725,96.5313 Q217.3428,96.5 217.4288,96.5 Q217.5928,96.5 217.71,96.6328 Q217.835,96.7578 217.835,96.9375 Q217.835,97.1094 217.6631,97.3125 Q217.4131,97.6094 217.0147,97.7734 Q216.4913,98 215.8506,98 Q215.1006,98 214.4991,97.7031 Q214.0147,97.4688 213.6709,96.9609 Q213.335,96.4531 213.335,95.8516 L213.335,95.3047 Q213.335,94.6797 213.6319,94.1328 Q213.9366,93.5859 214.46,93.2969 Q214.9913,93 215.585,93 Q215.9444,93 216.2569,93.125 Q216.5694,93.25 216.835,93.5 Z " fill="#000000"/><text fill="#000000" font-family="sans-serif" font-size="6" lengthAdjust="spacing" textLength="27.5" x="222.835" y="97.7051">Lab Order</text><line style="stroke:#A80036;stroke-width:0.75;" x1="208.835" x2="251.335" y1="103.25" y2="103.25"/><text fill="#000000" font-family="sans-serif" font-size="5.5" lengthAdjust="spacing" textLength="23" x="211.335" y="110.9595">-testType</text><text fill="#000000" font-family="sans-serif" font-size="5.5" lengthAdjust="spacing" textLength="29.5" x="211.335" y="117.8774">-parameters</text><line style="stroke:#A80036;stroke-width:0.75;" x1="208.835" x2="251.335" y1="121.0859" y2="121.0859"/><!--MD5=[02e4b9b7573f1156f41e60aa5b4e25a4]
class Company--><rect codeLine="36" fill="#FEFECE" filter="url(#f1lqa1lwja8cfj)" height="30.918" id="Company" style="stroke:#A80036;stroke-width:0.75;" width="42.5" x="549.835" y="90.75"/><ellipse cx="557.335" cy="98.75" fill="#ADD1B2" rx="5.5" ry="5.5" style="stroke:#A80036;stroke-width:0.5;"/><path d="M558.335,97 Q558.4366,96.75 558.5538,96.625 Q558.6709,96.5 558.8038,96.5 Q559.0381,96.5 559.1866,96.6406 Q559.335,96.7813 559.335,97.1094 L559.335,97.8906 Q559.335,98.2188 559.1944,98.3594 Q559.0538,98.5 558.835,98.5 Q558.6397,98.5 558.5147,98.4141 Q558.3897,98.3281 558.335,98.1016 Q558.3116,97.9453 558.2256,97.8594 Q558.0694,97.6953 557.7881,97.6016 Q557.5069,97.5 557.2256,97.5 Q556.8741,97.5 556.5772,97.6406 Q556.2881,97.7813 556.0616,98.0938 Q555.835,98.4063 555.835,98.8359 L555.835,99.2969 Q555.835,99.8125 556.2569,100.1563 Q556.6788,100.5 557.4288,100.5 Q557.8741,100.5 558.1866,100.3984 Q558.3663,100.3438 558.5694,100.1641 Q558.7022,100.0625 558.7725,100.0313 Q558.8428,100 558.9288,100 Q559.0928,100 559.21,100.1328 Q559.335,100.2578 559.335,100.4375 Q559.335,100.6094 559.1631,100.8125 Q558.9131,101.1094 558.5147,101.2734 Q557.9913,101.5 557.3506,101.5 Q556.6006,101.5 555.9991,101.2031 Q555.5147,100.9688 555.1709,100.4609 Q554.835,99.9531 554.835,99.3516 L554.835,98.8047 Q554.835,98.1797 555.1319,97.6328 Q555.4366,97.0859 555.96,96.7969 Q556.4913,96.5 557.085,96.5 Q557.4444,96.5 557.7569,96.625 Q558.0694,96.75 558.335,97 Z " fill="#000000"/><text fill="#000000" font-family="sans-serif" font-size="6" lengthAdjust="spacing" textLength="26.5" x="564.335" y="101.2051">Company</text><line style="stroke:#A80036;stroke-width:0.75;" x1="550.335" x2="591.835" y1="106.75" y2="106.75"/><text fill="#000000" font-family="sans-serif" font-size="5.5" lengthAdjust="spacing" textLength="29.5" x="552.835" y="114.4595">-designation</text><line style="stroke:#A80036;stroke-width:0.75;" x1="550.335" x2="591.835" y1="117.668" y2="117.668"/><!--MD5=[a96594a83e2ecdc78cbf17c2ddf01934]
class Category--><rect codeLine="39" fill="#FEFECE" filter="url(#f1lqa1lwja8cfj)" height="44.7539" id="Category" style="stroke:#A80036;stroke-width:0.75;" width="40.5" x="570.835" y="380.5"/><ellipse cx="578.335" cy="388.5" fill="#ADD1B2" rx="5.5" ry="5.5" style="stroke:#A80036;stroke-width:0.5;"/><path d="M579.335,386.75 Q579.4366,386.5 579.5538,386.375 Q579.6709,386.25 579.8038,386.25 Q580.0381,386.25 580.1866,386.3906 Q580.335,386.5313 580.335,386.8594 L580.335,387.6406 Q580.335,387.9688 580.1944,388.1094 Q580.0538,388.25 579.835,388.25 Q579.6397,388.25 579.5147,388.1641 Q579.3897,388.0781 579.335,387.8516 Q579.3116,387.6953 579.2256,387.6094 Q579.0694,387.4453 578.7881,387.3516 Q578.5069,387.25 578.2256,387.25 Q577.8741,387.25 577.5772,387.3906 Q577.2881,387.5313 577.0616,387.8438 Q576.835,388.1563 576.835,388.5859 L576.835,389.0469 Q576.835,389.5625 577.2569,389.9063 Q577.6788,390.25 578.4288,390.25 Q578.8741,390.25 579.1866,390.1484 Q579.3663,390.0938 579.5694,389.9141 Q579.7022,389.8125 579.7725,389.7813 Q579.8428,389.75 579.9288,389.75 Q580.0928,389.75 580.21,389.8828 Q580.335,390.0078 580.335,390.1875 Q580.335,390.3594 580.1631,390.5625 Q579.9131,390.8594 579.5147,391.0234 Q578.9913,391.25 578.3506,391.25 Q577.6006,391.25 576.9991,390.9531 Q576.5147,390.7188 576.1709,390.2109 Q575.835,389.7031 575.835,389.1016 L575.835,388.5547 Q575.835,387.9297 576.1319,387.3828 Q576.4366,386.8359 576.96,386.5469 Q577.4913,386.25 578.085,386.25 Q578.4444,386.25 578.7569,386.375 Q579.0694,386.5 579.335,386.75 Z " fill="#000000"/><text fill="#000000" font-family="sans-serif" font-size="6" lengthAdjust="spacing" textLength="24.5" x="585.335" y="390.9551">Category</text><line style="stroke:#A80036;stroke-width:0.75;" x1="571.335" x2="610.835" y1="396.5" y2="396.5"/><text fill="#000000" font-family="sans-serif" font-size="5.5" lengthAdjust="spacing" textLength="14" x="573.835" y="404.2095">-code</text><text fill="#000000" font-family="sans-serif" font-size="5.5" lengthAdjust="spacing" textLength="28.5" x="573.835" y="411.1274">-description</text><text fill="#000000" font-family="sans-serif" font-size="5.5" lengthAdjust="spacing" textLength="15.5" x="573.835" y="418.0454">-nhsID</text><line style="stroke:#A80036;stroke-width:0.75;" x1="571.335" x2="610.835" y1="421.2539" y2="421.2539"/><!--MD5=[da547346deef918ea16944ba046651ef]
class Administrator--><rect codeLine="44" fill="#FEFECE" filter="url(#f1lqa1lwja8cfj)" height="24" id="Administrator" style="stroke:#A80036;stroke-width:0.75;" width="52.5" x="560.335" y="310.5"/><ellipse cx="567.835" cy="318.5" fill="#ADD1B2" rx="5.5" ry="5.5" style="stroke:#A80036;stroke-width:0.5;"/><path d="M568.835,316.75 Q568.9366,316.5 569.0538,316.375 Q569.1709,316.25 569.3038,316.25 Q569.5381,316.25 569.6866,316.3906 Q569.835,316.5313 569.835,316.8594 L569.835,317.6406 Q569.835,317.9688 569.6944,318.1094 Q569.5538,318.25 569.335,318.25 Q569.1397,318.25 569.0147,318.1641 Q568.8897,318.0781 568.835,317.8516 Q568.8116,317.6953 568.7256,317.6094 Q568.5694,317.4453 568.2881,317.3516 Q568.0069,317.25 567.7256,317.25 Q567.3741,317.25 567.0772,317.3906 Q566.7881,317.5313 566.5616,317.8438 Q566.335,318.1563 566.335,318.5859 L566.335,319.0469 Q566.335,319.5625 566.7569,319.9063 Q567.1788,320.25 567.9288,320.25 Q568.3741,320.25 568.6866,320.1484 Q568.8663,320.0938 569.0694,319.9141 Q569.2022,319.8125 569.2725,319.7813 Q569.3428,319.75 569.4288,319.75 Q569.5928,319.75 569.71,319.8828 Q569.835,320.0078 569.835,320.1875 Q569.835,320.3594 569.6631,320.5625 Q569.4131,320.8594 569.0147,321.0234 Q568.4913,321.25 567.8506,321.25 Q567.1006,321.25 566.4991,320.9531 Q566.0147,320.7188 565.6709,320.2109 Q565.335,319.7031 565.335,319.1016 L565.335,318.5547 Q565.335,317.9297 565.6319,317.3828 Q565.9366,316.8359 566.46,316.5469 Q566.9913,316.25 567.585,316.25 Q567.9444,316.25 568.2569,316.375 Q568.5694,316.5 568.835,316.75 Z " fill="#000000"/><text fill="#000000" font-family="sans-serif" font-size="6" lengthAdjust="spacing" textLength="36.5" x="574.835" y="320.9551">Administrator</text><line style="stroke:#A80036;stroke-width:0.75;" x1="560.835" x2="612.335" y1="326.5" y2="326.5"/><line style="stroke:#A80036;stroke-width:0.75;" x1="560.835" x2="612.335" y1="330.5" y2="330.5"/><!--MD5=[1e5329fc67d8218f135f70ba961513ea]
class SampleType--><rect codeLine="45" fill="#FEFECE" filter="url(#f1lqa1lwja8cfj)" height="24" id="SampleType" style="stroke:#A80036;stroke-width:0.75;" width="50.5" x="486.835" y="391"/><ellipse cx="494.335" cy="399" fill="#ADD1B2" rx="5.5" ry="5.5" style="stroke:#A80036;stroke-width:0.5;"/><path d="M495.335,397.25 Q495.4366,397 495.5538,396.875 Q495.6709,396.75 495.8038,396.75 Q496.0381,396.75 496.1866,396.8906 Q496.335,397.0313 496.335,397.3594 L496.335,398.1406 Q496.335,398.4688 496.1944,398.6094 Q496.0538,398.75 495.835,398.75 Q495.6397,398.75 495.5147,398.6641 Q495.3897,398.5781 495.335,398.3516 Q495.3116,398.1953 495.2256,398.1094 Q495.0694,397.9453 494.7881,397.8516 Q494.5069,397.75 494.2256,397.75 Q493.8741,397.75 493.5772,397.8906 Q493.2881,398.0313 493.0616,398.3438 Q492.835,398.6563 492.835,399.0859 L492.835,399.5469 Q492.835,400.0625 493.2569,400.4063 Q493.6788,400.75 494.4288,400.75 Q494.8741,400.75 495.1866,400.6484 Q495.3663,400.5938 495.5694,400.4141 Q495.7022,400.3125 495.7725,400.2813 Q495.8428,400.25 495.9288,400.25 Q496.0928,400.25 496.21,400.3828 Q496.335,400.5078 496.335,400.6875 Q496.335,400.8594 496.1631,401.0625 Q495.9131,401.3594 495.5147,401.5234 Q494.9913,401.75 494.3506,401.75 Q493.6006,401.75 492.9991,401.4531 Q492.5147,401.2188 492.1709,400.7109 Q491.835,400.2031 491.835,399.6016 L491.835,399.0547 Q491.835,398.4297 492.1319,397.8828 Q492.4366,397.3359 492.96,397.0469 Q493.4913,396.75 494.085,396.75 Q494.4444,396.75 494.7569,396.875 Q495.0694,397 495.335,397.25 Z " fill="#000000"/><text fill="#000000" font-family="sans-serif" font-size="6" lengthAdjust="spacing" textLength="34.5" x="501.335" y="401.4551">SampleType</text><line style="stroke:#A80036;stroke-width:0.75;" x1="487.335" x2="536.835" y1="407" y2="407"/><line style="stroke:#A80036;stroke-width:0.75;" x1="487.335" x2="536.835" y1="411" y2="411"/><!--MD5=[01931d41e78f8996acd44f6f0fd8de28]
class MedicalLabTechnician--><rect codeLine="46" fill="#FEFECE" filter="url(#f1lqa1lwja8cfj)" height="24" id="MedicalLabTechnician" style="stroke:#A80036;stroke-width:0.75;" width="77.5" x="273.835" y="391"/><ellipse cx="281.335" cy="399" fill="#ADD1B2" rx="5.5" ry="5.5" style="stroke:#A80036;stroke-width:0.5;"/><path d="M282.335,397.25 Q282.4366,397 282.5538,396.875 Q282.6709,396.75 282.8038,396.75 Q283.0381,396.75 283.1866,396.8906 Q283.335,397.0313 283.335,397.3594 L283.335,398.1406 Q283.335,398.4688 283.1944,398.6094 Q283.0538,398.75 282.835,398.75 Q282.6397,398.75 282.5147,398.6641 Q282.3897,398.5781 282.335,398.3516 Q282.3116,398.1953 282.2256,398.1094 Q282.0694,397.9453 281.7881,397.8516 Q281.5069,397.75 281.2256,397.75 Q280.8741,397.75 280.5772,397.8906 Q280.2881,398.0313 280.0616,398.3438 Q279.835,398.6563 279.835,399.0859 L279.835,399.5469 Q279.835,400.0625 280.2569,400.4063 Q280.6788,400.75 281.4288,400.75 Q281.8741,400.75 282.1866,400.6484 Q282.3663,400.5938 282.5694,400.4141 Q282.7022,400.3125 282.7725,400.2813 Q282.8428,400.25 282.9288,400.25 Q283.0928,400.25 283.21,400.3828 Q283.335,400.5078 283.335,400.6875 Q283.335,400.8594 283.1631,401.0625 Q282.9131,401.3594 282.5147,401.5234 Q281.9913,401.75 281.3506,401.75 Q280.6006,401.75 279.9991,401.4531 Q279.5147,401.2188 279.1709,400.7109 Q278.835,400.2031 278.835,399.6016 L278.835,399.0547 Q278.835,398.4297 279.1319,397.8828 Q279.4366,397.3359 279.96,397.0469 Q280.4913,396.75 281.085,396.75 Q281.4444,396.75 281.7569,396.875 Q282.0694,397 282.335,397.25 Z " fill="#000000"/><text fill="#000000" font-family="sans-serif" font-size="6" lengthAdjust="spacing" textLength="61.5" x="288.335" y="401.4551">MedicalLabTechnician</text><line style="stroke:#A80036;stroke-width:0.75;" x1="274.335" x2="350.835" y1="407" y2="407"/><line style="stroke:#A80036;stroke-width:0.75;" x1="274.335" x2="350.835" y1="411" y2="411"/><!--MD5=[012ee2a8bf3ae2b319009b06f951c2e5]
class ClinicalChemistryTechnologist--><rect codeLine="47" fill="#FEFECE" filter="url(#f1lqa1lwja8cfj)" height="24" id="ClinicalChemistryTechnologist" style="stroke:#A80036;stroke-width:0.75;" width="100" x="369.085" y="391"/><ellipse cx="376.585" cy="399" fill="#ADD1B2" rx="5.5" ry="5.5" style="stroke:#A80036;stroke-width:0.5;"/><path d="M377.585,397.25 Q377.6866,397 377.8038,396.875 Q377.9209,396.75 378.0538,396.75 Q378.2881,396.75 378.4366,396.8906 Q378.585,397.0313 378.585,397.3594 L378.585,398.1406 Q378.585,398.4688 378.4444,398.6094 Q378.3038,398.75 378.085,398.75 Q377.8897,398.75 377.7647,398.6641 Q377.6397,398.5781 377.585,398.3516 Q377.5616,398.1953 377.4756,398.1094 Q377.3194,397.9453 377.0381,397.8516 Q376.7569,397.75 376.4756,397.75 Q376.1241,397.75 375.8272,397.8906 Q375.5381,398.0313 375.3116,398.3438 Q375.085,398.6563 375.085,399.0859 L375.085,399.5469 Q375.085,400.0625 375.5069,400.4063 Q375.9288,400.75 376.6788,400.75 Q377.1241,400.75 377.4366,400.6484 Q377.6163,400.5938 377.8194,400.4141 Q377.9522,400.3125 378.0225,400.2813 Q378.0928,400.25 378.1788,400.25 Q378.3428,400.25 378.46,400.3828 Q378.585,400.5078 378.585,400.6875 Q378.585,400.8594 378.4131,401.0625 Q378.1631,401.3594 377.7647,401.5234 Q377.2413,401.75 376.6006,401.75 Q375.8506,401.75 375.2491,401.4531 Q374.7647,401.2188 374.4209,400.7109 Q374.085,400.2031 374.085,399.6016 L374.085,399.0547 Q374.085,398.4297 374.3819,397.8828 Q374.6866,397.3359 375.21,397.0469 Q375.7413,396.75 376.335,396.75 Q376.6944,396.75 377.0069,396.875 Q377.3194,397 377.585,397.25 Z " fill="#000000"/><text fill="#000000" font-family="sans-serif" font-size="6" lengthAdjust="spacing" textLength="84" x="383.585" y="401.4551">ClinicalChemistryTechnologist</text><line style="stroke:#A80036;stroke-width:0.75;" x1="369.585" x2="468.585" y1="407" y2="407"/><line style="stroke:#A80036;stroke-width:0.75;" x1="369.585" x2="468.585" y1="411" y2="411"/><!--MD5=[a64badb107d3691f2dc6af242cdbeb21]
class ChemicalLaboratory--><rect codeLine="48" fill="#FEFECE" filter="url(#f1lqa1lwja8cfj)" height="24" id="ChemicalLaboratory" style="stroke:#A80036;stroke-width:0.75;" width="71.5" x="530.835" y="464.5"/><ellipse cx="538.335" cy="472.5" fill="#ADD1B2" rx="5.5" ry="5.5" style="stroke:#A80036;stroke-width:0.5;"/><path d="M539.335,470.75 Q539.4366,470.5 539.5538,470.375 Q539.6709,470.25 539.8038,470.25 Q540.0381,470.25 540.1866,470.3906 Q540.335,470.5313 540.335,470.8594 L540.335,471.6406 Q540.335,471.9688 540.1944,472.1094 Q540.0538,472.25 539.835,472.25 Q539.6397,472.25 539.5147,472.1641 Q539.3897,472.0781 539.335,471.8516 Q539.3116,471.6953 539.2256,471.6094 Q539.0694,471.4453 538.7881,471.3516 Q538.5069,471.25 538.2256,471.25 Q537.8741,471.25 537.5772,471.3906 Q537.2881,471.5313 537.0616,471.8438 Q536.835,472.1563 536.835,472.5859 L536.835,473.0469 Q536.835,473.5625 537.2569,473.9063 Q537.6788,474.25 538.4288,474.25 Q538.8741,474.25 539.1866,474.1484 Q539.3663,474.0938 539.5694,473.9141 Q539.7022,473.8125 539.7725,473.7813 Q539.8428,473.75 539.9288,473.75 Q540.0928,473.75 540.21,473.8828 Q540.335,474.0078 540.335,474.1875 Q540.335,474.3594 540.1631,474.5625 Q539.9131,474.8594 539.5147,475.0234 Q538.9913,475.25 538.3506,475.25 Q537.6006,475.25 536.9991,474.9531 Q536.5147,474.7188 536.1709,474.2109 Q535.835,473.7031 535.835,473.1016 L535.835,472.5547 Q535.835,471.9297 536.1319,471.3828 Q536.4366,470.8359 536.96,470.5469 Q537.4913,470.25 538.085,470.25 Q538.4444,470.25 538.7569,470.375 Q539.0694,470.5 539.335,470.75 Z " fill="#000000"/><text fill="#000000" font-family="sans-serif" font-size="6" lengthAdjust="spacing" textLength="55.5" x="545.335" y="474.9551">ChemicalLaboratory</text><line style="stroke:#A80036;stroke-width:0.75;" x1="531.335" x2="601.835" y1="480.5" y2="480.5"/><line style="stroke:#A80036;stroke-width:0.75;" x1="531.335" x2="601.835" y1="484.5" y2="484.5"/><!--MD5=[03960189e81aa2c066c762ffabbee709]
class Receptionist--><rect codeLine="49" fill="#FEFECE" filter="url(#f1lqa1lwja8cfj)" height="24" id="Receptionist" style="stroke:#A80036;stroke-width:0.75;" width="50.5" x="384.335" y="94.25"/><ellipse cx="391.835" cy="102.25" fill="#ADD1B2" rx="5.5" ry="5.5" style="stroke:#A80036;stroke-width:0.5;"/><path d="M392.835,100.5 Q392.9366,100.25 393.0538,100.125 Q393.1709,100 393.3038,100 Q393.5381,100 393.6866,100.1406 Q393.835,100.2813 393.835,100.6094 L393.835,101.3906 Q393.835,101.7188 393.6944,101.8594 Q393.5538,102 393.335,102 Q393.1397,102 393.0147,101.9141 Q392.8897,101.8281 392.835,101.6016 Q392.8116,101.4453 392.7256,101.3594 Q392.5694,101.1953 392.2881,101.1016 Q392.0069,101 391.7256,101 Q391.3741,101 391.0772,101.1406 Q390.7881,101.2813 390.5616,101.5938 Q390.335,101.9063 390.335,102.3359 L390.335,102.7969 Q390.335,103.3125 390.7569,103.6563 Q391.1788,104 391.9288,104 Q392.3741,104 392.6866,103.8984 Q392.8663,103.8438 393.0694,103.6641 Q393.2022,103.5625 393.2725,103.5313 Q393.3428,103.5 393.4288,103.5 Q393.5928,103.5 393.71,103.6328 Q393.835,103.7578 393.835,103.9375 Q393.835,104.1094 393.6631,104.3125 Q393.4131,104.6094 393.0147,104.7734 Q392.4913,105 391.8506,105 Q391.1006,105 390.4991,104.7031 Q390.0147,104.4688 389.6709,103.9609 Q389.335,103.4531 389.335,102.8516 L389.335,102.3047 Q389.335,101.6797 389.6319,101.1328 Q389.9366,100.5859 390.46,100.2969 Q390.9913,100 391.585,100 Q391.9444,100 392.2569,100.125 Q392.5694,100.25 392.835,100.5 Z " fill="#000000"/><text fill="#000000" font-family="sans-serif" font-size="6" lengthAdjust="spacing" textLength="34.5" x="398.835" y="104.7051">Receptionist</text><line style="stroke:#A80036;stroke-width:0.75;" x1="384.835" x2="434.335" y1="110.25" y2="110.25"/><line style="stroke:#A80036;stroke-width:0.75;" x1="384.835" x2="434.335" y1="114.25" y2="114.25"/><!--MD5=[e27cb01a39563223b22d42504ec96d07]
class TestResult--><rect codeLine="50" fill="#FEFECE" filter="url(#f1lqa1lwja8cfj)" height="24" id="TestResult" style="stroke:#A80036;stroke-width:0.75;" width="46" x="196.585" y="464.5"/><ellipse cx="204.085" cy="472.5" fill="#ADD1B2" rx="5.5" ry="5.5" style="stroke:#A80036;stroke-width:0.5;"/><path d="M205.085,470.75 Q205.1866,470.5 205.3038,470.375 Q205.4209,470.25 205.5538,470.25 Q205.7881,470.25 205.9366,470.3906 Q206.085,470.5313 206.085,470.8594 L206.085,471.6406 Q206.085,471.9688 205.9444,472.1094 Q205.8038,472.25 205.585,472.25 Q205.3897,472.25 205.2647,472.1641 Q205.1397,472.0781 205.085,471.8516 Q205.0616,471.6953 204.9756,471.6094 Q204.8194,471.4453 204.5381,471.3516 Q204.2569,471.25 203.9756,471.25 Q203.6241,471.25 203.3272,471.3906 Q203.0381,471.5313 202.8116,471.8438 Q202.585,472.1563 202.585,472.5859 L202.585,473.0469 Q202.585,473.5625 203.0069,473.9063 Q203.4288,474.25 204.1788,474.25 Q204.6241,474.25 204.9366,474.1484 Q205.1163,474.0938 205.3194,473.9141 Q205.4522,473.8125 205.5225,473.7813 Q205.5928,473.75 205.6788,473.75 Q205.8428,473.75 205.96,473.8828 Q206.085,474.0078 206.085,474.1875 Q206.085,474.3594 205.9131,474.5625 Q205.6631,474.8594 205.2647,475.0234 Q204.7413,475.25 204.1006,475.25 Q203.3506,475.25 202.7491,474.9531 Q202.2647,474.7188 201.9209,474.2109 Q201.585,473.7031 201.585,473.1016 L201.585,472.5547 Q201.585,471.9297 201.8819,471.3828 Q202.1866,470.8359 202.71,470.5469 Q203.2413,470.25 203.835,470.25 Q204.1944,470.25 204.5069,470.375 Q204.8194,470.5 205.085,470.75 Z " fill="#000000"/><text fill="#000000" font-family="sans-serif" font-size="6" lengthAdjust="spacing" textLength="30" x="211.085" y="474.9551">TestResult</text><line style="stroke:#A80036;stroke-width:0.75;" x1="197.085" x2="242.085" y1="480.5" y2="480.5"/><line style="stroke:#A80036;stroke-width:0.75;" x1="197.085" x2="242.085" y1="484.5" y2="484.5"/><!--MD5=[7d96fd15f3014691d2fcaf89c5791e2a]
class SpecialistDoctor--><rect codeLine="51" fill="#FEFECE" filter="url(#f1lqa1lwja8cfj)" height="24" id="SpecialistDoctor" style="stroke:#A80036;stroke-width:0.75;" width="61" x="125.585" y="391"/><ellipse cx="133.085" cy="399" fill="#ADD1B2" rx="5.5" ry="5.5" style="stroke:#A80036;stroke-width:0.5;"/><path d="M134.085,397.25 Q134.1866,397 134.3037,396.875 Q134.4209,396.75 134.5537,396.75 Q134.7881,396.75 134.9366,396.8906 Q135.085,397.0313 135.085,397.3594 L135.085,398.1406 Q135.085,398.4688 134.9444,398.6094 Q134.8037,398.75 134.585,398.75 Q134.3897,398.75 134.2647,398.6641 Q134.1397,398.5781 134.085,398.3516 Q134.0616,398.1953 133.9756,398.1094 Q133.8194,397.9453 133.5381,397.8516 Q133.2569,397.75 132.9756,397.75 Q132.6241,397.75 132.3272,397.8906 Q132.0381,398.0313 131.8116,398.3438 Q131.585,398.6563 131.585,399.0859 L131.585,399.5469 Q131.585,400.0625 132.0069,400.4063 Q132.4287,400.75 133.1787,400.75 Q133.6241,400.75 133.9366,400.6484 Q134.1162,400.5938 134.3194,400.4141 Q134.4522,400.3125 134.5225,400.2813 Q134.5928,400.25 134.6787,400.25 Q134.8428,400.25 134.96,400.3828 Q135.085,400.5078 135.085,400.6875 Q135.085,400.8594 134.9131,401.0625 Q134.6631,401.3594 134.2647,401.5234 Q133.7412,401.75 133.1006,401.75 Q132.3506,401.75 131.7491,401.4531 Q131.2647,401.2188 130.9209,400.7109 Q130.585,400.2031 130.585,399.6016 L130.585,399.0547 Q130.585,398.4297 130.8819,397.8828 Q131.1866,397.3359 131.71,397.0469 Q132.2412,396.75 132.835,396.75 Q133.1944,396.75 133.5069,396.875 Q133.8194,397 134.085,397.25 Z " fill="#000000"/><text fill="#000000" font-family="sans-serif" font-size="6" lengthAdjust="spacing" textLength="45" x="140.085" y="401.4551">SpecialistDoctor</text><line style="stroke:#A80036;stroke-width:0.75;" x1="126.085" x2="186.085" y1="407" y2="407"/><line style="stroke:#A80036;stroke-width:0.75;" x1="126.085" x2="186.085" y1="411" y2="411"/><!--MD5=[c886e9f626b1f684543f4c5ec86b9c7b]
class LabCoordinator--><rect codeLine="52" fill="#FEFECE" filter="url(#f1lqa1lwja8cfj)" height="24" id="LabCoordinator" style="stroke:#A80036;stroke-width:0.75;" width="59" x="26.585" y="391"/><ellipse cx="34.085" cy="399" fill="#ADD1B2" rx="5.5" ry="5.5" style="stroke:#A80036;stroke-width:0.5;"/><path d="M35.085,397.25 Q35.1866,397 35.3038,396.875 Q35.4209,396.75 35.5538,396.75 Q35.7881,396.75 35.9366,396.8906 Q36.085,397.0313 36.085,397.3594 L36.085,398.1406 Q36.085,398.4688 35.9444,398.6094 Q35.8038,398.75 35.585,398.75 Q35.3897,398.75 35.2647,398.6641 Q35.1397,398.5781 35.085,398.3516 Q35.0616,398.1953 34.9756,398.1094 Q34.8194,397.9453 34.5381,397.8516 Q34.2569,397.75 33.9756,397.75 Q33.6241,397.75 33.3272,397.8906 Q33.0381,398.0313 32.8116,398.3438 Q32.585,398.6563 32.585,399.0859 L32.585,399.5469 Q32.585,400.0625 33.0069,400.4063 Q33.4288,400.75 34.1788,400.75 Q34.6241,400.75 34.9366,400.6484 Q35.1163,400.5938 35.3194,400.4141 Q35.4522,400.3125 35.5225,400.2813 Q35.5928,400.25 35.6788,400.25 Q35.8428,400.25 35.96,400.3828 Q36.085,400.5078 36.085,400.6875 Q36.085,400.8594 35.9131,401.0625 Q35.6631,401.3594 35.2647,401.5234 Q34.7413,401.75 34.1006,401.75 Q33.3506,401.75 32.7491,401.4531 Q32.2647,401.2188 31.9209,400.7109 Q31.585,400.2031 31.585,399.6016 L31.585,399.0547 Q31.585,398.4297 31.8819,397.8828 Q32.1866,397.3359 32.71,397.0469 Q33.2413,396.75 33.835,396.75 Q34.1944,396.75 34.5069,396.875 Q34.8194,397 35.085,397.25 Z " fill="#000000"/><text fill="#000000" font-family="sans-serif" font-size="6" lengthAdjust="spacing" textLength="43" x="41.085" y="401.4551">LabCoordinator</text><line style="stroke:#A80036;stroke-width:0.75;" x1="27.085" x2="85.085" y1="407" y2="407"/><line style="stroke:#A80036;stroke-width:0.75;" x1="27.085" x2="85.085" y1="411" y2="411"/><!--MD5=[10d06bcee75aaf74ab8f6040820ceef2]
class Diagnosis--><rect codeLine="53" fill="#FEFECE" filter="url(#f1lqa1lwja8cfj)" height="24" id="Diagnosis" style="stroke:#A80036;stroke-width:0.75;" width="44.5" x="88.335" y="464.5"/><ellipse cx="95.835" cy="472.5" fill="#ADD1B2" rx="5.5" ry="5.5" style="stroke:#A80036;stroke-width:0.5;"/><path d="M96.835,470.75 Q96.9366,470.5 97.0538,470.375 Q97.1709,470.25 97.3038,470.25 Q97.5381,470.25 97.6866,470.3906 Q97.835,470.5313 97.835,470.8594 L97.835,471.6406 Q97.835,471.9688 97.6944,472.1094 Q97.5538,472.25 97.335,472.25 Q97.1397,472.25 97.0147,472.1641 Q96.8897,472.0781 96.835,471.8516 Q96.8116,471.6953 96.7256,471.6094 Q96.5694,471.4453 96.2881,471.3516 Q96.0069,471.25 95.7256,471.25 Q95.3741,471.25 95.0772,471.3906 Q94.7881,471.5313 94.5616,471.8438 Q94.335,472.1563 94.335,472.5859 L94.335,473.0469 Q94.335,473.5625 94.7569,473.9063 Q95.1788,474.25 95.9288,474.25 Q96.3741,474.25 96.6866,474.1484 Q96.8663,474.0938 97.0694,473.9141 Q97.2022,473.8125 97.2725,473.7813 Q97.3428,473.75 97.4288,473.75 Q97.5928,473.75 97.71,473.8828 Q97.835,474.0078 97.835,474.1875 Q97.835,474.3594 97.6631,474.5625 Q97.4131,474.8594 97.0147,475.0234 Q96.4913,475.25 95.8506,475.25 Q95.1006,475.25 94.4991,474.9531 Q94.0147,474.7188 93.6709,474.2109 Q93.335,473.7031 93.335,473.1016 L93.335,472.5547 Q93.335,471.9297 93.6319,471.3828 Q93.9366,470.8359 94.46,470.5469 Q94.9913,470.25 95.585,470.25 Q95.9444,470.25 96.2569,470.375 Q96.5694,470.5 96.835,470.75 Z " fill="#000000"/><text fill="#000000" font-family="sans-serif" font-size="6" lengthAdjust="spacing" textLength="28.5" x="102.835" y="474.9551">Diagnosis</text><line style="stroke:#A80036;stroke-width:0.75;" x1="88.835" x2="132.335" y1="480.5" y2="480.5"/><line style="stroke:#A80036;stroke-width:0.75;" x1="88.835" x2="132.335" y1="484.5" y2="484.5"/><!--MD5=[0a105ea8d9af02dadec02d3e239f1d60]
class NHS--><rect codeLine="54" fill="#FEFECE" filter="url(#f1lqa1lwja8cfj)" height="24" id="NHS" style="stroke:#A80036;stroke-width:0.75;" width="29" x="556.585" y="3.5"/><ellipse cx="564.085" cy="11.5" fill="#ADD1B2" rx="5.5" ry="5.5" style="stroke:#A80036;stroke-width:0.5;"/><path d="M565.085,9.75 Q565.1866,9.5 565.3038,9.375 Q565.4209,9.25 565.5538,9.25 Q565.7881,9.25 565.9366,9.3906 Q566.085,9.5313 566.085,9.8594 L566.085,10.6406 Q566.085,10.9688 565.9444,11.1094 Q565.8038,11.25 565.585,11.25 Q565.3897,11.25 565.2647,11.1641 Q565.1397,11.0781 565.085,10.8516 Q565.0616,10.6953 564.9756,10.6094 Q564.8194,10.4453 564.5381,10.3516 Q564.2569,10.25 563.9756,10.25 Q563.6241,10.25 563.3272,10.3906 Q563.0381,10.5313 562.8116,10.8438 Q562.585,11.1563 562.585,11.5859 L562.585,12.0469 Q562.585,12.5625 563.0069,12.9063 Q563.4288,13.25 564.1788,13.25 Q564.6241,13.25 564.9366,13.1484 Q565.1163,13.0938 565.3194,12.9141 Q565.4522,12.8125 565.5225,12.7813 Q565.5928,12.75 565.6788,12.75 Q565.8428,12.75 565.96,12.8828 Q566.085,13.0078 566.085,13.1875 Q566.085,13.3594 565.9131,13.5625 Q565.6631,13.8594 565.2647,14.0234 Q564.7413,14.25 564.1006,14.25 Q563.3506,14.25 562.7491,13.9531 Q562.2647,13.7188 561.9209,13.2109 Q561.585,12.7031 561.585,12.1016 L561.585,11.5547 Q561.585,10.9297 561.8819,10.3828 Q562.1866,9.8359 562.71,9.5469 Q563.2413,9.25 563.835,9.25 Q564.1944,9.25 564.5069,9.375 Q564.8194,9.5 565.085,9.75 Z " fill="#000000"/><text fill="#000000" font-family="sans-serif" font-size="6" lengthAdjust="spacing" textLength="13" x="571.085" y="13.9551">NHS</text><line style="stroke:#A80036;stroke-width:0.75;" x1="557.085" x2="585.085" y1="19.5" y2="19.5"/><line style="stroke:#A80036;stroke-width:0.75;" x1="557.085" x2="585.085" y1="23.5" y2="23.5"/><!--MD5=[1934a092c0e7d4da7dc7075b6f4b6b03]
class ClinicalAnalysisLaboratory--><rect fill="#FEFECE" filter="url(#f1lqa1lwja8cfj)" height="24" id="ClinicalAnalysisLaboratory" style="stroke:#A80036;stroke-width:0.75;" width="88.5" x="526.835" y="212.75"/><ellipse cx="534.335" cy="220.75" fill="#ADD1B2" rx="5.5" ry="5.5" style="stroke:#A80036;stroke-width:0.5;"/><path d="M535.335,219 Q535.4366,218.75 535.5538,218.625 Q535.6709,218.5 535.8038,218.5 Q536.0381,218.5 536.1866,218.6406 Q536.335,218.7813 536.335,219.1094 L536.335,219.8906 Q536.335,220.2188 536.1944,220.3594 Q536.0538,220.5 535.835,220.5 Q535.6397,220.5 535.5147,220.4141 Q535.3897,220.3281 535.335,220.1016 Q535.3116,219.9453 535.2256,219.8594 Q535.0694,219.6953 534.7881,219.6016 Q534.5069,219.5 534.2256,219.5 Q533.8741,219.5 533.5772,219.6406 Q533.2881,219.7813 533.0616,220.0938 Q532.835,220.4063 532.835,220.8359 L532.835,221.2969 Q532.835,221.8125 533.2569,222.1563 Q533.6788,222.5 534.4288,222.5 Q534.8741,222.5 535.1866,222.3984 Q535.3663,222.3438 535.5694,222.1641 Q535.7022,222.0625 535.7725,222.0313 Q535.8428,222 535.9288,222 Q536.0928,222 536.21,222.1328 Q536.335,222.2578 536.335,222.4375 Q536.335,222.6094 536.1631,222.8125 Q535.9131,223.1094 535.5147,223.2734 Q534.9913,223.5 534.3506,223.5 Q533.6006,223.5 532.9991,223.2031 Q532.5147,222.9688 532.1709,222.4609 Q531.835,221.9531 531.835,221.3516 L531.835,220.8047 Q531.835,220.1797 532.1319,219.6328 Q532.4366,219.0859 532.96,218.7969 Q533.4913,218.5 534.085,218.5 Q534.4444,218.5 534.7569,218.625 Q535.0694,218.75 535.335,219 Z " fill="#000000"/><text fill="#000000" font-family="sans-serif" font-size="6" lengthAdjust="spacing" textLength="72.5" x="541.335" y="223.2051">ClinicalAnalysisLaboratory</text><line style="stroke:#A80036;stroke-width:0.75;" x1="527.335" x2="614.835" y1="228.75" y2="228.75"/><line style="stroke:#A80036;stroke-width:0.75;" x1="527.335" x2="614.835" y1="232.75" y2="232.75"/><!--MD5=[4b350067bcb7b952917feabedd589edb]
link Lab Order to Client--><path codeLine="55" d="M252.025,106.25 C264.635,106.25 280.385,106.25 292.8,106.25 " fill="none" id="Lab Order-Client" style="stroke:#A80036;stroke-width:0.5;"/><polygon fill="#000000" points="260.585,100.3379,265.1075,101.8074,265.1075,98.8684,260.585,100.3379" style="stroke:#000000;stroke-width:0.5;"/><text fill="#000000" font-family="sans-serif" font-size="6.5" lengthAdjust="spacing" textLength="16" x="267.585" y="102.9976">has a</text><!--MD5=[742a261f27a3dcd734c626287d811acd]
link Company to TestType--><path codeLine="56" d="M549.74,119.05 C528.905,132.36 498.325,155.67 484.085,185 C465.295,223.705 468.53,275.935 472.07,303.38 " fill="none" id="Company-TestType" style="stroke:#A80036;stroke-width:0.5;"/><polygon fill="#000000" points="485.6142,227.1417,488.7245,223.5446,486.0162,222.4035,485.6142,227.1417" style="stroke:#000000;stroke-width:0.5;"/><text fill="#000000" font-family="sans-serif" font-size="6.5" lengthAdjust="spacing" textLength="26.5" x="491.085" y="227.4976">conducts</text><!--MD5=[d6a5ae732362cd0f86c2003645f951b1]
link Company to ChemicalLaboratory--><path codeLine="57" d="M592.445,116.53 C625.705,133.395 686.085,171.3 686.085,224.25 C686.085,224.25 686.085,224.25 686.085,403.5 C686.085,443.055 637.64,461.63 602.44,469.91 " fill="none" id="Company-ChemicalLaboratory" style="stroke:#A80036;stroke-width:0.5;"/><polygon fill="#000000" points="688.6557,325.0869,689.9967,320.5246,687.0589,320.6077,688.6557,325.0869" style="stroke:#000000;stroke-width:0.5;"/><text fill="#000000" font-family="sans-serif" font-size="6.5" lengthAdjust="spacing" textLength="15" x="693.085" y="325.2476">owns</text><!--MD5=[aafc5d8a5829a6a8d6dc892cb1ff5d24]
link Company to ClinicalAnalysisLaboratory--><path codeLine="58" d="M571.085,121.87 C571.085,145.67 571.085,191.36 571.085,212.715 " fill="none" id="Company-ClinicalAnalysisLaboratory" style="stroke:#A80036;stroke-width:0.5;"/><polygon fill="#000000" points="573.585,168.0879,575.0545,163.5653,572.1155,163.5653,573.585,168.0879" style="stroke:#000000;stroke-width:0.5;"/><text fill="#000000" font-family="sans-serif" font-size="6.5" lengthAdjust="spacing" textLength="15" x="578.085" y="168.2476">owns</text><!--MD5=[e981d4f96c4342412d1e68160b30cf70]
link Test to TestType--><path codeLine="59" d="M357.215,237.005 C375.51,247.465 402.44,263.53 424.585,279.5 C434.81,286.875 445.57,295.755 454.52,303.49 " fill="none" id="Test-TestType" style="stroke:#A80036;stroke-width:0.5;"/><polygon fill="#000000" points="441.1492,285.4983,438.244,281.7336,436.586,284.1602,441.1492,285.4983" style="stroke:#000000;stroke-width:0.5;"/><text fill="#000000" font-family="sans-serif" font-size="6.5" lengthAdjust="spacing" textLength="12" x="443.585" y="286.7476">is of</text><!--MD5=[502b51bc079239060389dab43b7d3470]
link Client to Test--><path codeLine="60" d="M309.84,146.15 C309.87,154.105 310.475,162.37 312.085,170 C313.13,174.935 314.65,179.97 316.435,184.885 " fill="none" id="Client-Test" style="stroke:#A80036;stroke-width:0.5;"/><polygon fill="#000000" points="314.1654,163.1234,313.4759,167.8284,316.3731,167.3351,314.1654,163.1234" style="stroke:#000000;stroke-width:0.5;"/><text fill="#000000" font-family="sans-serif" font-size="6.5" lengthAdjust="spacing" textLength="37.5" x="319.085" y="168.2476">requested by</text><!--MD5=[b72ac8ab7fb5921fceb5036a3902baea]
link Test to Sample--><path codeLine="61" d="M315.065,258.505 C311.765,265.22 308.865,272.405 307.085,279.5 C304.56,289.585 310.295,299.325 317.27,306.935 " fill="none" id="Test-Sample" style="stroke:#A80036;stroke-width:0.5;"/><polygon fill="#000000" points="309.6987,286.5853,310.961,282.0006,308.0251,282.1343,309.6987,286.5853" style="stroke:#000000;stroke-width:0.5;"/><text fill="#000000" font-family="sans-serif" font-size="6.5" lengthAdjust="spacing" textLength="22.5" x="314.085" y="286.7476">collects</text><!--MD5=[c23963f6e403fc3ebec8dae22c30ade6]
link Test to Parameter--><path codeLine="62" d="M344.625,264.58 C347.65,273.01 351.695,281.48 357.085,288.5 C364.505,298.16 375.555,305.9 385.47,311.5 " fill="none" id="Test-Parameter" style="stroke:#A80036;stroke-width:0.5;"/><polygon fill="#000000" points="361.2265,285.9735,359.3654,281.5976,357.1487,283.5272,361.2265,285.9735" style="stroke:#000000;stroke-width:0.5;"/><text fill="#000000" font-family="sans-serif" font-size="6.5" lengthAdjust="spacing" textLength="58" x="364.085" y="286.7476">requests analysis of</text><!--MD5=[f9817a04d37f372ce4a6fb222e205055]
link Lab Order to Test--><path codeLine="63" d="M242.31,125.345 C251.205,138.355 263.87,155.865 276.585,170 C288.46,183.195 303.195,196.65 315.035,206.86 " fill="none" id="Lab Order-Test" style="stroke:#A80036;stroke-width:0.5;"/><polygon fill="#000000" points="277.4207,163.7224,279.335,168.0754,281.528,166.1188,277.4207,163.7224" style="stroke:#000000;stroke-width:0.5;"/><text fill="#000000" font-family="sans-serif" font-size="6.5" lengthAdjust="spacing" textLength="23" x="283.585" y="168.2476">requires</text><!--MD5=[7e4bc624457760b649895ff2ead938fa]
link Company to Test--><path codeLine="64" d="M549.815,113.215 C521.545,122.185 470.415,139.72 429.585,161 C403.345,174.675 375.53,194.225 357.125,207.96 " fill="none" id="Company-Test" style="stroke:#A80036;stroke-width:0.5;"/><polygon fill="#000000" points="429.8415,166.691,434.5484,166.0141,433.2516,163.3768,429.8415,166.691" style="stroke:#000000;stroke-width:0.5;"/><text fill="#000000" font-family="sans-serif" font-size="6.5" lengthAdjust="spacing" textLength="25" x="436.585" y="168.2476">performs</text><!--MD5=[73dffd3648c374487b6d8c6733c5b5e0]
link Test to TestResult--><path codeLine="65" d="M315,257.265 C310.645,264.445 306.27,272.12 302.585,279.5 C266.345,352.09 272.46,376.98 236.085,449.5 C233.56,454.54 230.36,459.855 227.455,464.395 " fill="none" id="Test-TestResult" style="stroke:#A80036;stroke-width:0.5;"/><polygon fill="#000000" points="273.6117,363.3907,276.7259,359.797,274.0189,358.6528,273.6117,363.3907" style="stroke:#000000;stroke-width:0.5;"/><text fill="#000000" font-family="sans-serif" font-size="6.5" lengthAdjust="spacing" textLength="16" x="279.085" y="363.7476">has a</text><!--MD5=[7d17329589c8a1a28e6f8826215bde21]
link Administrator to Category--><path codeLine="66" d="M587.24,334.56 C587.915,346.53 588.995,365.535 589.835,380.4 " fill="none" id="Administrator-Category" style="stroke:#A80036;stroke-width:0.5;"/><polygon fill="#000000" points="590.9437,358.5919,589.7322,363.1903,592.6664,363.0241,590.9437,358.5919" style="stroke:#000000;stroke-width:0.5;"/><text fill="#000000" font-family="sans-serif" font-size="6.5" lengthAdjust="spacing" textLength="30.5" x="595.585" y="363.7476">created by</text><!--MD5=[852f3a1b1bcfc6074ebcba484562eac0]
link Parameter to Category--><path codeLine="67" d="M430.74,334.575 C435.6,336.945 440.735,339.365 445.585,341.5 C489.445,360.785 502.19,361.295 546.085,380.5 C554.21,384.055 563.005,388.27 570.645,392.055 " fill="none" id="Parameter-Category" style="stroke:#A80036;stroke-width:0.5;"/><polygon fill="#000000" points="512.3974,362.038,508.7726,358.9601,507.6558,361.6785,512.3974,362.038" style="stroke:#000000;stroke-width:0.5;"/><text fill="#000000" font-family="sans-serif" font-size="6.5" lengthAdjust="spacing" textLength="46.5" x="514.585" y="363.7476">presented under</text><!--MD5=[c4beab05fd2ca347a4533f326e6e1c7e]
link Sample to SampleType--><path codeLine="68" d="M354.34,332.13 C361.245,335.315 369.185,338.77 376.585,341.5 C398.95,349.755 405.835,347.935 428.085,356.5 C450.905,365.285 456.24,368.575 477.585,380.5 C483.29,383.69 489.35,387.425 494.775,390.905 " fill="none" id="Sample-SampleType" style="stroke:#A80036;stroke-width:0.5;"/><polygon fill="#000000" points="454.3912,362.0531,450.7866,358.9515,449.6519,361.6626,454.3912,362.0531" style="stroke:#000000;stroke-width:0.5;"/><text fill="#000000" font-family="sans-serif" font-size="6.5" lengthAdjust="spacing" textLength="12" x="456.585" y="363.7476">is of</text><!--MD5=[cb5e86f6614a99551e1d9ce6f0ae5849]
link Sample to MedicalLabTechnician--><path codeLine="69" d="M331.205,338.14 C326.775,353.46 320.015,376.815 315.975,390.775 " fill="none" id="Sample-MedicalLabTechnician" style="stroke:#A80036;stroke-width:0.5;"/><polygon fill="#000000" points="327.3901,363.4894,330.0587,359.5535,327.2356,358.7366,327.3901,363.4894" style="stroke:#000000;stroke-width:0.5;"/><text fill="#000000" font-family="sans-serif" font-size="6.5" lengthAdjust="spacing" textLength="35" x="332.585" y="363.7476">collected by</text><!--MD5=[d26d10da823f6089ca18e653f1cb3d9f]
link Sample to ClinicalChemistryTechnologist--><path codeLine="70" d="M352.225,338.065 C358.49,343.79 365.655,350.405 372.085,356.5 C384.265,368.045 397.955,381.5 407.405,390.865 " fill="none" id="Sample-ClinicalChemistryTechnologist" style="stroke:#A80036;stroke-width:0.5;"/><polygon fill="#000000" points="385.8913,362.8163,383.6396,358.6279,381.6078,360.7513,385.8913,362.8163" style="stroke:#000000;stroke-width:0.5;"/><text fill="#000000" font-family="sans-serif" font-size="6.5" lengthAdjust="spacing" textLength="35" x="388.585" y="363.7476">analysed by</text><!--MD5=[c3a86c626b5b742f72786125539e9227]
link ClinicalChemistryTechnologist to ChemicalLaboratory--><path codeLine="71" d="M442.62,415.07 C470.195,428.62 515.6,450.94 543.135,464.475 " fill="none" id="ClinicalChemistryTechnologist-ChemicalLaboratory" style="stroke:#A80036;stroke-width:0.5;"/><polygon fill="#000000" points="514.8286,446.1907,511.4181,442.8769,510.1217,445.5145,514.8286,446.1907" style="stroke:#000000;stroke-width:0.5;"/><text fill="#000000" font-family="sans-serif" font-size="6.5" lengthAdjust="spacing" textLength="24.5" x="517.085" y="447.7476">works at</text><!--MD5=[7048eb257bae2750d747ca61a113ed73]
link Client to Receptionist--><path codeLine="72" d="M334.415,106.25 C349.03,106.25 368.655,106.25 384.185,106.25 " fill="none" id="Client-Receptionist" style="stroke:#A80036;stroke-width:0.5;"/><polygon fill="#000000" points="343.085,100.3379,347.6075,101.8074,347.6075,98.8684,343.085,100.3379" style="stroke:#000000;stroke-width:0.5;"/><text fill="#000000" font-family="sans-serif" font-size="6.5" lengthAdjust="spacing" textLength="25" x="350.085" y="102.9976">registers</text><!--MD5=[e8b34c2e6517a986175307f5599f058a]
link Receptionist to Test--><path codeLine="73" d="M402.27,118.445 C391.85,135.105 372.315,166.335 357.16,190.56 " fill="none" id="Receptionist-Test" style="stroke:#A80036;stroke-width:0.5;"/><polygon fill="#000000" points="376.2592,167.7074,379.9034,164.6525,377.4118,163.0939,376.2592,167.7074" style="stroke:#000000;stroke-width:0.5;"/><text fill="#000000" font-family="sans-serif" font-size="6.5" lengthAdjust="spacing" textLength="25" x="382.085" y="168.2476">registers</text><!--MD5=[20675b07f1baf04abd59eb605a4ad598]
link ClinicalChemistryTechnologist to TestResult--><path codeLine="74" d="M388.335,415.045 C379.25,418.435 369.275,422.135 360.085,425.5 C318.83,440.605 270.61,457.845 242.735,467.775 " fill="none" id="ClinicalChemistryTechnologist-TestResult" style="stroke:#A80036;stroke-width:0.5;"/><polygon fill="#000000" points="318.2344,445.9392,322.987,445.7808,321.9863,443.0175,318.2344,445.9392" style="stroke:#000000;stroke-width:0.5;"/><text fill="#000000" font-family="sans-serif" font-size="6.5" lengthAdjust="spacing" textLength="28.5" x="325.085" y="447.7476">generates</text><!--MD5=[492976e961d73885787d6f4e699abc3c]
link SpecialistDoctor to TestResult--><path codeLine="75" d="M164.225,415.045 C171.135,424.595 181.505,438.35 191.585,449.5 C196.21,454.615 201.645,459.9 206.49,464.395 " fill="none" id="SpecialistDoctor-TestResult" style="stroke:#A80036;stroke-width:0.5;"/><polygon fill="#000000" points="192.4588,443.1891,194.2845,447.5799,196.5167,445.6682,192.4588,443.1891" style="stroke:#000000;stroke-width:0.5;"/><text fill="#000000" font-family="sans-serif" font-size="6.5" lengthAdjust="spacing" textLength="35" x="198.585" y="447.7476">analysed by</text><!--MD5=[e60dbfb26f96b2bc09dc8c8b2d22e46f]
link LabCoordinator to TestResult--><path codeLine="76" d="M59.625,415.045 C63.505,425.7 70.805,441.095 82.585,449.5 C91.755,456.04 159.92,467.065 196.515,472.605 " fill="none" id="LabCoordinator-TestResult" style="stroke:#A80036;stroke-width:0.5;"/><polygon fill="#000000" points="82.7804,444.1189,86.3798,447.2264,87.519,444.5173,82.7804,444.1189" style="stroke:#000000;stroke-width:0.5;"/><text fill="#000000" font-family="sans-serif" font-size="6.5" lengthAdjust="spacing" textLength="34" x="89.585" y="447.7476">validated by</text><!--MD5=[ea4a37a070b547a484eb1acc58a2b0bb]
link SpecialistDoctor to Diagnosis--><path codeLine="77" d="M148.775,415.15 C140.285,428.68 126.36,450.865 117.88,464.38 " fill="none" id="SpecialistDoctor-Diagnosis" style="stroke:#A80036;stroke-width:0.5;"/><polygon fill="#000000" points="133.2561,447.2054,136.9048,444.1559,134.4154,442.5936,133.2561,447.2054" style="stroke:#000000;stroke-width:0.5;"/><text fill="#000000" font-family="sans-serif" font-size="6.5" lengthAdjust="spacing" textLength="28.5" x="139.085" y="447.7476">generates</text><!--MD5=[ef9d8323d75cdd6c9b5186708a0f5119]
link LabCoordinator to Diagnosis--><path codeLine="78" d="M32.71,415.085 C17.825,424.04 3,436.975 12.585,449.5 C21.72,461.43 62.155,469.225 88.15,473.1 " fill="none" id="LabCoordinator-Diagnosis" style="stroke:#A80036;stroke-width:0.5;"/><polygon fill="#000000" points="13.3578,443.2805,15.42,447.5653,17.5447,445.5349,13.3578,443.2805" style="stroke:#000000;stroke-width:0.5;"/><text fill="#000000" font-family="sans-serif" font-size="6.5" lengthAdjust="spacing" textLength="34" x="19.585" y="447.7476">validated by</text><!--MD5=[c9ce66265abea0024719b01d064e7ebf]
link Diagnosis to TestResult--><path codeLine="79" d="M132.905,476.5 C151.465,476.5 177.785,476.5 196.545,476.5 " fill="none" id="Diagnosis-TestResult" style="stroke:#A80036;stroke-width:0.5;"/><polygon fill="#000000" points="146.46,470.5879,141.9375,469.1184,141.9375,472.0574,146.46,470.5879" style="stroke:#000000;stroke-width:0.5;"/><text fill="#000000" font-family="sans-serif" font-size="6.5" lengthAdjust="spacing" textLength="39" x="148.46" y="473.2476">associated to</text><!--MD5=[19be1708881710afac89d72e827851dc]
link NHS to Company--><path codeLine="80" d="M571.085,27.55 C571.085,43.645 571.085,72.85 571.085,90.655 " fill="none" id="NHS-Company" style="stroke:#A80036;stroke-width:0.5;"/><polygon fill="#000000" points="573.585,49.5879,575.0545,45.0653,572.1155,45.0653,573.585,49.5879" style="stroke:#000000;stroke-width:0.5;"/><text fill="#000000" font-family="sans-serif" font-size="6.5" lengthAdjust="spacing" textLength="51" x="578.085" y="49.7476">requests report to</text><!--MD5=[cc1f60f7fb1c702a98cbcc58aaecd7da]
link Company to Category--><path codeLine="81" d="M585.135,121.825 C597.95,136.635 616.065,160.52 624.085,185 C649.08,261.285 662.51,291.85 630.585,365.5 C626.55,374.81 618.89,382.85 611.38,389.035 " fill="none" id="Company-Category" style="stroke:#A80036;stroke-width:0.5;"/><polygon fill="#000000" points="651.8294,286.5759,652.8497,281.9314,649.9249,282.2187,651.8294,286.5759" style="stroke:#000000;stroke-width:0.5;"/><text fill="#000000" font-family="sans-serif" font-size="6.5" lengthAdjust="spacing" textLength="10.5" x="656.085" y="286.7476">has</text><!--MD5=[0985ee834cc881275852ed47ce1e01f6]
link TestType to Administrator--><path codeLine="82" d="M495.665,322.5 C513.85,322.5 540.475,322.5 560.215,322.5 " fill="none" id="TestType-Administrator" style="stroke:#A80036;stroke-width:0.5;"/><polygon fill="#000000" points="510.46,316.5879,505.9375,315.1184,505.9375,318.0574,510.46,316.5879" style="stroke:#000000;stroke-width:0.5;"/><text fill="#000000" font-family="sans-serif" font-size="6.5" lengthAdjust="spacing" textLength="37.5" x="512.46" y="319.2476">is created by</text><!--MD5=[fd1a84be4c9089261783f99d942c8da3]
@startuml
skinparam classAttributeIconSize 0
class Test {
-internalCode 
-nhsCode
-createdAt
-description 
-dateCollection 
-dateAnalysis 
-dateDiagnosis 
-dateValidation
}
class TestType {
-designation
-parameterList
}
class Client {
-name 
-cardNumber 
-birthDate 
-sex 
-nhsID
-TIF
-phoneNumber
-email
}
class Sample {
-barcode
}
class Parameter {
-designation
}
class "Lab Order" {
-testType 
-parameters 
}
class Company {
-designation
}
class Category {
-code
-description
-nhsID
}
class Administrator
class SampleType
class MedicalLabTechnician
class ClinicalChemistryTechnologist
class ChemicalLaboratory
class Receptionist
class TestResult
class SpecialistDoctor
class LabCoordinator
class Diagnosis
class NHS
Client -left- "Lab Order" : has a >
Company -down- TestType : conducts >
Company -down- ChemicalLaboratory : owns >
Company -down- ClinicalAnalysisLaboratory : owns >
Test -down- "TestType" : is of >
Test -up- Client : requested by >
Test -down- Sample : collects >
Test -down- Parameter : requests analysis of >
Test -up- "Lab Order" : requires >
Test -up- Company : performs <
Test -down- TestResult : has a >
Administrator - - Category : created by <
Parameter - - Category : presented under >
SampleType -up- Sample  : is of <
MedicalLabTechnician -up- Sample : collected by <
ClinicalChemistryTechnologist -up- Sample : analysed by <
ClinicalChemistryTechnologist -down- ChemicalLaboratory : works at >
Receptionist -left- Client : registers >
Receptionist -down- Test : registers >
TestResult -up- ClinicalChemistryTechnologist : generates <
TestResult -up- SpecialistDoctor : analysed by >
TestResult -up- LabCoordinator : validated by >
Diagnosis -up- SpecialistDoctor : generates <
Diagnosis -up- LabCoordinator : validated by >
Diagnosis -right- TestResult : associated to >
NHS -down- Company : requests report to >
Company -down- Category : has >
TestType -right- Administrator : is created by >

'Note:
'Consider the following generalizations: Employee and Laboratory
@enduml

@startuml
skinparam classAttributeIconSize 0
class Test {
-internalCode 
-nhsCode
-createdAt
-description 
-dateCollection 
-dateAnalysis 
-dateDiagnosis 
-dateValidation
}
class TestType {
-designation
-parameterList
}
class Client {
-name 
-cardNumber 
-birthDate 
-sex 
-nhsID
-TIF
-phoneNumber
-email
}
class Sample {
-barcode
}
class Parameter {
-designation
}
class "Lab Order" {
-testType 
-parameters 
}
class Company {
-designation
}
class Category {
-code
-description
-nhsID
}
class Administrator
class SampleType
class MedicalLabTechnician
class ClinicalChemistryTechnologist
class ChemicalLaboratory
class Receptionist
class TestResult
class SpecialistDoctor
class LabCoordinator
class Diagnosis
class NHS
Client -left- "Lab Order" : has a >
Company -down- TestType : conducts >
Company -down- ChemicalLaboratory : owns >
Company -down- ClinicalAnalysisLaboratory : owns >
Test -down- "TestType" : is of >
Test -up- Client : requested by >
Test -down- Sample : collects >
Test -down- Parameter : requests analysis of >
Test -up- "Lab Order" : requires >
Test -up- Company : performs <
Test -down- TestResult : has a >
Administrator - - Category : created by <
Parameter - - Category : presented under >
SampleType -up- Sample  : is of <
MedicalLabTechnician -up- Sample : collected by <
ClinicalChemistryTechnologist -up- Sample : analysed by <
ClinicalChemistryTechnologist -down- ChemicalLaboratory : works at >
Receptionist -left- Client : registers >
Receptionist -down- Test : registers >
TestResult -up- ClinicalChemistryTechnologist : generates <
TestResult -up- SpecialistDoctor : analysed by >
TestResult -up- LabCoordinator : validated by >
Diagnosis -up- SpecialistDoctor : generates <
Diagnosis -up- LabCoordinator : validated by >
Diagnosis -right- TestResult : associated to >
NHS -down- Company : requests report to >
Company -down- Category : has >
TestType -right- Administrator : is created by >

@enduml

PlantUML version 1.2021.4(Sun Apr 04 09:49:39 BST 2021)
(GPL source distribution)
Java Runtime: OpenJDK Runtime Environment
JVM: OpenJDK 64-Bit Server VM
Default Encoding: Cp1252
Language: pt
Country: PT
--></g></svg>