<?xml version="1.0" encoding="UTF-8" standalone="no"?><svg xmlns="http://www.w3.org/2000/svg" xmlns:xlink="http://www.w3.org/1999/xlink" contentScriptType="application/ecmascript" contentStyleType="text/css" height="774px" preserveAspectRatio="none" style="width:1470px;height:774px;" version="1.1" viewBox="0 0 1470 774" width="1470px" zoomAndPan="magnify"><defs><filter height="300%" id="f1r61bpncl4ad6" width="300%" x="-1" y="-1"><feGaussianBlur result="blurOut" stdDeviation="2.0"/><feColorMatrix in="blurOut" result="blurOut2" type="matrix" values="0 0 0 0 0 0 0 0 0 0 0 0 0 0 0 0 0 0 .4 0"/><feOffset dx="4.0" dy="4.0" in="blurOut2" result="blurOut3"/><feBlend in="SourceGraphic" in2="blurOut3" mode="normal"/></filter></defs><g><!--MD5=[df38be88ccee13e832d6fafd6288a4ca]
class Test--><rect codeLine="3" fill="#FEFECE" filter="url(#f1r61bpncl4ad6)" height="137.6328" id="Test" style="stroke:#A80036;stroke-width:1.5;" width="98" x="516" y="372"/><ellipse cx="549" cy="388" fill="#ADD1B2" rx="11" ry="11" style="stroke:#A80036;stroke-width:1.0;"/><path d="M551.3438,383.6719 C550.4063,383.2344 549.8125,383.0938 548.9375,383.0938 C546.3125,383.0938 544.3125,385.1719 544.3125,387.8906 L544.3125,389.0156 C544.3125,391.5938 546.4219,393.4844 549.3125,393.4844 C550.5313,393.4844 551.6875,393.1875 552.4375,392.6406 C553.0156,392.2344 553.3438,391.7813 553.3438,391.3906 C553.3438,390.9375 552.9531,390.5469 552.4844,390.5469 C552.2656,390.5469 552.0625,390.625 551.875,390.8125 C551.4219,391.2969 551.4219,391.2969 551.2344,391.3906 C550.8125,391.6563 550.125,391.7813 549.3594,391.7813 C547.3125,391.7813 546.0156,390.6875 546.0156,388.9844 L546.0156,387.8906 C546.0156,386.1094 547.2656,384.7969 549,384.7969 C549.5781,384.7969 550.1875,384.9531 550.6563,385.2031 C551.1406,385.4844 551.3125,385.7031 551.4063,386.1094 C551.4688,386.5156 551.5,386.6406 551.6406,386.7656 C551.7813,386.9063 552.0156,387.0156 552.2344,387.0156 C552.5,387.0156 552.7656,386.875 552.9375,386.6563 C553.0469,386.5 553.0781,386.3125 553.0781,385.8906 L553.0781,384.4688 C553.0781,384.0313 553.0625,383.9063 552.9688,383.75 C552.8125,383.4844 552.5313,383.3438 552.2344,383.3438 C551.9375,383.3438 551.7344,383.4375 551.5156,383.75 L551.3438,383.6719 Z " fill="#000000"/><text fill="#000000" font-family="sans-serif" font-size="12" lengthAdjust="spacing" textLength="26" x="567" y="392.1543">Test</text><line style="stroke:#A80036;stroke-width:1.5;" x1="517" x2="613" y1="404" y2="404"/><text fill="#000000" font-family="sans-serif" font-size="11" lengthAdjust="spacing" textLength="77" x="522" y="418.2104">-internalCode</text><text fill="#000000" font-family="sans-serif" font-size="11" lengthAdjust="spacing" textLength="54" x="522" y="431.0151">-nhsCode</text><text fill="#000000" font-family="sans-serif" font-size="11" lengthAdjust="spacing" textLength="66" x="522" y="443.8198">-description</text><text fill="#000000" font-family="sans-serif" font-size="11" lengthAdjust="spacing" textLength="86" x="522" y="456.6245">-dateCollection</text><text fill="#000000" font-family="sans-serif" font-size="11" lengthAdjust="spacing" textLength="77" x="522" y="469.4292">-dateAnalysis</text><text fill="#000000" font-family="sans-serif" font-size="11" lengthAdjust="spacing" textLength="85" x="522" y="482.2339">-dateDiagnosis</text><text fill="#000000" font-family="sans-serif" font-size="11" lengthAdjust="spacing" textLength="86" x="522" y="495.0386">-dateValidation</text><line style="stroke:#A80036;stroke-width:1.5;" x1="517" x2="613" y1="501.6328" y2="501.6328"/><!--MD5=[aeb3272166074d8737a70b61b1e71682]
class TestType--><rect codeLine="12" fill="#FEFECE" filter="url(#f1r61bpncl4ad6)" height="48" id="TestType" style="stroke:#A80036;stroke-width:1.5;" width="88" x="728" y="587"/><ellipse cx="743" cy="603" fill="#ADD1B2" rx="11" ry="11" style="stroke:#A80036;stroke-width:1.0;"/><path d="M745.3438,598.6719 C744.4063,598.2344 743.8125,598.0938 742.9375,598.0938 C740.3125,598.0938 738.3125,600.1719 738.3125,602.8906 L738.3125,604.0156 C738.3125,606.5938 740.4219,608.4844 743.3125,608.4844 C744.5313,608.4844 745.6875,608.1875 746.4375,607.6406 C747.0156,607.2344 747.3438,606.7813 747.3438,606.3906 C747.3438,605.9375 746.9531,605.5469 746.4844,605.5469 C746.2656,605.5469 746.0625,605.625 745.875,605.8125 C745.4219,606.2969 745.4219,606.2969 745.2344,606.3906 C744.8125,606.6563 744.125,606.7813 743.3594,606.7813 C741.3125,606.7813 740.0156,605.6875 740.0156,603.9844 L740.0156,602.8906 C740.0156,601.1094 741.2656,599.7969 743,599.7969 C743.5781,599.7969 744.1875,599.9531 744.6563,600.2031 C745.1406,600.4844 745.3125,600.7031 745.4063,601.1094 C745.4688,601.5156 745.5,601.6406 745.6406,601.7656 C745.7813,601.9063 746.0156,602.0156 746.2344,602.0156 C746.5,602.0156 746.7656,601.875 746.9375,601.6563 C747.0469,601.5 747.0781,601.3125 747.0781,600.8906 L747.0781,599.4688 C747.0781,599.0313 747.0625,598.9063 746.9688,598.75 C746.8125,598.4844 746.5313,598.3438 746.2344,598.3438 C745.9375,598.3438 745.7344,598.4375 745.5156,598.75 L745.3438,598.6719 Z " fill="#000000"/><text fill="#000000" font-family="sans-serif" font-size="12" lengthAdjust="spacing" textLength="56" x="757" y="607.1543">TestType</text><line style="stroke:#A80036;stroke-width:1.5;" x1="729" x2="815" y1="619" y2="619"/><line style="stroke:#A80036;stroke-width:1.5;" x1="729" x2="815" y1="627" y2="627"/><!--MD5=[ed6624c6556d5e7b1bd23032162d20b7]
class Client--><rect codeLine="13" fill="#FEFECE" filter="url(#f1r61bpncl4ad6)" height="150.4375" id="Client" style="stroke:#A80036;stroke-width:1.5;" width="97" x="730.5" y="145"/><ellipse cx="759.9" cy="161" fill="#ADD1B2" rx="11" ry="11" style="stroke:#A80036;stroke-width:1.0;"/><path d="M762.2438,156.6719 C761.3063,156.2344 760.7125,156.0938 759.8375,156.0938 C757.2125,156.0938 755.2125,158.1719 755.2125,160.8906 L755.2125,162.0156 C755.2125,164.5938 757.3219,166.4844 760.2125,166.4844 C761.4313,166.4844 762.5875,166.1875 763.3375,165.6406 C763.9156,165.2344 764.2438,164.7813 764.2438,164.3906 C764.2438,163.9375 763.8531,163.5469 763.3844,163.5469 C763.1656,163.5469 762.9625,163.625 762.775,163.8125 C762.3219,164.2969 762.3219,164.2969 762.1344,164.3906 C761.7125,164.6563 761.025,164.7813 760.2594,164.7813 C758.2125,164.7813 756.9156,163.6875 756.9156,161.9844 L756.9156,160.8906 C756.9156,159.1094 758.1656,157.7969 759.9,157.7969 C760.4781,157.7969 761.0875,157.9531 761.5563,158.2031 C762.0406,158.4844 762.2125,158.7031 762.3063,159.1094 C762.3688,159.5156 762.4,159.6406 762.5406,159.7656 C762.6813,159.9063 762.9156,160.0156 763.1344,160.0156 C763.4,160.0156 763.6656,159.875 763.8375,159.6563 C763.9469,159.5 763.9781,159.3125 763.9781,158.8906 L763.9781,157.4688 C763.9781,157.0313 763.9625,156.9063 763.8688,156.75 C763.7125,156.4844 763.4313,156.3438 763.1344,156.3438 C762.8375,156.3438 762.6344,156.4375 762.4156,156.75 L762.2438,156.6719 Z " fill="#000000"/><text fill="#000000" font-family="sans-serif" font-size="12" lengthAdjust="spacing" textLength="33" x="777.1" y="165.1543">Client</text><line style="stroke:#A80036;stroke-width:1.5;" x1="731.5" x2="826.5" y1="177" y2="177"/><text fill="#000000" font-family="sans-serif" font-size="11" lengthAdjust="spacing" textLength="37" x="736.5" y="191.2104">-name</text><text fill="#000000" font-family="sans-serif" font-size="11" lengthAdjust="spacing" textLength="73" x="736.5" y="204.0151">-cardNumber</text><text fill="#000000" font-family="sans-serif" font-size="11" lengthAdjust="spacing" textLength="57" x="736.5" y="216.8198">-birthDate</text><text fill="#000000" font-family="sans-serif" font-size="11" lengthAdjust="spacing" textLength="25" x="736.5" y="229.6245">-sex</text><text fill="#000000" font-family="sans-serif" font-size="11" lengthAdjust="spacing" textLength="36" x="736.5" y="242.4292">-nhsID</text><text fill="#000000" font-family="sans-serif" font-size="11" lengthAdjust="spacing" textLength="20" x="736.5" y="255.2339">-TIF</text><text fill="#000000" font-family="sans-serif" font-size="11" lengthAdjust="spacing" textLength="85" x="736.5" y="268.0386">-phoneNumber</text><text fill="#000000" font-family="sans-serif" font-size="11" lengthAdjust="spacing" textLength="36" x="736.5" y="280.8433">-email</text><line style="stroke:#A80036;stroke-width:1.5;" x1="731.5" x2="826.5" y1="287.4375" y2="287.4375"/><!--MD5=[9681492165142af2a4a3a169d90ee8d4]
class Sample--><rect codeLine="23" fill="#FEFECE" filter="url(#f1r61bpncl4ad6)" height="60.8047" id="Sample" style="stroke:#A80036;stroke-width:1.5;" width="77" x="300.5" y="410.5"/><ellipse cx="315.5" cy="426.5" fill="#ADD1B2" rx="11" ry="11" style="stroke:#A80036;stroke-width:1.0;"/><path d="M317.8438,422.1719 C316.9063,421.7344 316.3125,421.5938 315.4375,421.5938 C312.8125,421.5938 310.8125,423.6719 310.8125,426.3906 L310.8125,427.5156 C310.8125,430.0938 312.9219,431.9844 315.8125,431.9844 C317.0313,431.9844 318.1875,431.6875 318.9375,431.1406 C319.5156,430.7344 319.8438,430.2813 319.8438,429.8906 C319.8438,429.4375 319.4531,429.0469 318.9844,429.0469 C318.7656,429.0469 318.5625,429.125 318.375,429.3125 C317.9219,429.7969 317.9219,429.7969 317.7344,429.8906 C317.3125,430.1563 316.625,430.2813 315.8594,430.2813 C313.8125,430.2813 312.5156,429.1875 312.5156,427.4844 L312.5156,426.3906 C312.5156,424.6094 313.7656,423.2969 315.5,423.2969 C316.0781,423.2969 316.6875,423.4531 317.1563,423.7031 C317.6406,423.9844 317.8125,424.2031 317.9063,424.6094 C317.9688,425.0156 318,425.1406 318.1406,425.2656 C318.2813,425.4063 318.5156,425.5156 318.7344,425.5156 C319,425.5156 319.2656,425.375 319.4375,425.1563 C319.5469,425 319.5781,424.8125 319.5781,424.3906 L319.5781,422.9688 C319.5781,422.5313 319.5625,422.4063 319.4688,422.25 C319.3125,421.9844 319.0313,421.8438 318.7344,421.8438 C318.4375,421.8438 318.2344,421.9375 318.0156,422.25 L317.8438,422.1719 Z " fill="#000000"/><text fill="#000000" font-family="sans-serif" font-size="12" lengthAdjust="spacing" textLength="45" x="329.5" y="430.6543">Sample</text><line style="stroke:#A80036;stroke-width:1.5;" x1="301.5" x2="376.5" y1="442.5" y2="442.5"/><text fill="#000000" font-family="sans-serif" font-size="11" lengthAdjust="spacing" textLength="50" x="306.5" y="456.7104">-barcode</text><line style="stroke:#A80036;stroke-width:1.5;" x1="301.5" x2="376.5" y1="463.3047" y2="463.3047"/><!--MD5=[1f6362a5c8f21d8d6a0fce68f3a92a4e]
class Parameter--><rect codeLine="26" fill="#FEFECE" filter="url(#f1r61bpncl4ad6)" height="99.2188" id="Parameter" style="stroke:#A80036;stroke-width:1.5;" width="131" x="792.5" y="391.5"/><ellipse cx="824.6" cy="407.5" fill="#ADD1B2" rx="11" ry="11" style="stroke:#A80036;stroke-width:1.0;"/><path d="M826.9438,403.1719 C826.0063,402.7344 825.4125,402.5938 824.5375,402.5938 C821.9125,402.5938 819.9125,404.6719 819.9125,407.3906 L819.9125,408.5156 C819.9125,411.0938 822.0219,412.9844 824.9125,412.9844 C826.1313,412.9844 827.2875,412.6875 828.0375,412.1406 C828.6156,411.7344 828.9438,411.2813 828.9438,410.8906 C828.9438,410.4375 828.5531,410.0469 828.0844,410.0469 C827.8656,410.0469 827.6625,410.125 827.475,410.3125 C827.0219,410.7969 827.0219,410.7969 826.8344,410.8906 C826.4125,411.1563 825.725,411.2813 824.9594,411.2813 C822.9125,411.2813 821.6156,410.1875 821.6156,408.4844 L821.6156,407.3906 C821.6156,405.6094 822.8656,404.2969 824.6,404.2969 C825.1781,404.2969 825.7875,404.4531 826.2563,404.7031 C826.7406,404.9844 826.9125,405.2031 827.0063,405.6094 C827.0688,406.0156 827.1,406.1406 827.2406,406.2656 C827.3813,406.4063 827.6156,406.5156 827.8344,406.5156 C828.1,406.5156 828.3656,406.375 828.5375,406.1563 C828.6469,406 828.6781,405.8125 828.6781,405.3906 L828.6781,403.9688 C828.6781,403.5313 828.6625,403.4063 828.5688,403.25 C828.4125,402.9844 828.1313,402.8438 827.8344,402.8438 C827.5375,402.8438 827.3344,402.9375 827.1156,403.25 L826.9438,403.1719 Z " fill="#000000"/><text fill="#000000" font-family="sans-serif" font-size="12" lengthAdjust="spacing" textLength="61" x="842.4" y="411.6543">Parameter</text><line style="stroke:#A80036;stroke-width:1.5;" x1="793.5" x2="922.5" y1="423.5" y2="423.5"/><text fill="#000000" font-family="sans-serif" font-size="11" lengthAdjust="spacing" textLength="54" x="798.5" y="437.7104">-rbcCount</text><text fill="#000000" font-family="sans-serif" font-size="11" lengthAdjust="spacing" textLength="59" x="798.5" y="450.5151">-wbcCount</text><text fill="#000000" font-family="sans-serif" font-size="11" lengthAdjust="spacing" textLength="51" x="798.5" y="463.3198">-pltCount</text><text fill="#000000" font-family="sans-serif" font-size="11" lengthAdjust="spacing" textLength="119" x="798.5" y="476.1245">-boolean covidResult</text><line style="stroke:#A80036;stroke-width:1.5;" x1="793.5" x2="922.5" y1="482.7188" y2="482.7188"/><!--MD5=[752170896568f3976562e89cfa6d96c0]
class Lab Order--><rect codeLine="32" fill="#FEFECE" filter="url(#f1r61bpncl4ad6)" height="73.6094" id="Lab Order" style="stroke:#A80036;stroke-width:1.5;" width="93" x="460.5" y="183"/><ellipse cx="475.5" cy="199" fill="#ADD1B2" rx="11" ry="11" style="stroke:#A80036;stroke-width:1.0;"/><path d="M477.8438,194.6719 C476.9063,194.2344 476.3125,194.0938 475.4375,194.0938 C472.8125,194.0938 470.8125,196.1719 470.8125,198.8906 L470.8125,200.0156 C470.8125,202.5938 472.9219,204.4844 475.8125,204.4844 C477.0313,204.4844 478.1875,204.1875 478.9375,203.6406 C479.5156,203.2344 479.8438,202.7813 479.8438,202.3906 C479.8438,201.9375 479.4531,201.5469 478.9844,201.5469 C478.7656,201.5469 478.5625,201.625 478.375,201.8125 C477.9219,202.2969 477.9219,202.2969 477.7344,202.3906 C477.3125,202.6563 476.625,202.7813 475.8594,202.7813 C473.8125,202.7813 472.5156,201.6875 472.5156,199.9844 L472.5156,198.8906 C472.5156,197.1094 473.7656,195.7969 475.5,195.7969 C476.0781,195.7969 476.6875,195.9531 477.1563,196.2031 C477.6406,196.4844 477.8125,196.7031 477.9063,197.1094 C477.9688,197.5156 478,197.6406 478.1406,197.7656 C478.2813,197.9063 478.5156,198.0156 478.7344,198.0156 C479,198.0156 479.2656,197.875 479.4375,197.6563 C479.5469,197.5 479.5781,197.3125 479.5781,196.8906 L479.5781,195.4688 C479.5781,195.0313 479.5625,194.9063 479.4688,194.75 C479.3125,194.4844 479.0313,194.3438 478.7344,194.3438 C478.4375,194.3438 478.2344,194.4375 478.0156,194.75 L477.8438,194.6719 Z " fill="#000000"/><text fill="#000000" font-family="sans-serif" font-size="12" lengthAdjust="spacing" textLength="61" x="489.5" y="203.1543">Lab Order</text><line style="stroke:#A80036;stroke-width:1.5;" x1="461.5" x2="552.5" y1="215" y2="215"/><text fill="#000000" font-family="sans-serif" font-size="11" lengthAdjust="spacing" textLength="55" x="466.5" y="229.2104">-testType</text><text fill="#000000" font-family="sans-serif" font-size="11" lengthAdjust="spacing" textLength="70" x="466.5" y="242.0151">-parameters</text><line style="stroke:#A80036;stroke-width:1.5;" x1="461.5" x2="552.5" y1="248.6094" y2="248.6094"/><!--MD5=[02e4b9b7573f1156f41e60aa5b4e25a4]
class Company--><rect codeLine="36" fill="#FEFECE" filter="url(#f1r61bpncl4ad6)" height="60.8047" id="Company" style="stroke:#A80036;stroke-width:1.5;" width="88" x="337" y="189.5"/><ellipse cx="352" cy="205.5" fill="#ADD1B2" rx="11" ry="11" style="stroke:#A80036;stroke-width:1.0;"/><path d="M354.3438,201.1719 C353.4063,200.7344 352.8125,200.5938 351.9375,200.5938 C349.3125,200.5938 347.3125,202.6719 347.3125,205.3906 L347.3125,206.5156 C347.3125,209.0938 349.4219,210.9844 352.3125,210.9844 C353.5313,210.9844 354.6875,210.6875 355.4375,210.1406 C356.0156,209.7344 356.3438,209.2813 356.3438,208.8906 C356.3438,208.4375 355.9531,208.0469 355.4844,208.0469 C355.2656,208.0469 355.0625,208.125 354.875,208.3125 C354.4219,208.7969 354.4219,208.7969 354.2344,208.8906 C353.8125,209.1563 353.125,209.2813 352.3594,209.2813 C350.3125,209.2813 349.0156,208.1875 349.0156,206.4844 L349.0156,205.3906 C349.0156,203.6094 350.2656,202.2969 352,202.2969 C352.5781,202.2969 353.1875,202.4531 353.6563,202.7031 C354.1406,202.9844 354.3125,203.2031 354.4063,203.6094 C354.4688,204.0156 354.5,204.1406 354.6406,204.2656 C354.7813,204.4063 355.0156,204.5156 355.2344,204.5156 C355.5,204.5156 355.7656,204.375 355.9375,204.1563 C356.0469,204 356.0781,203.8125 356.0781,203.3906 L356.0781,201.9688 C356.0781,201.5313 356.0625,201.4063 355.9688,201.25 C355.8125,200.9844 355.5313,200.8438 355.2344,200.8438 C354.9375,200.8438 354.7344,200.9375 354.5156,201.25 L354.3438,201.1719 Z " fill="#000000"/><text fill="#000000" font-family="sans-serif" font-size="12" lengthAdjust="spacing" textLength="56" x="366" y="209.6543">Company</text><line style="stroke:#A80036;stroke-width:1.5;" x1="338" x2="424" y1="221.5" y2="221.5"/><text fill="#000000" font-family="sans-serif" font-size="11" lengthAdjust="spacing" textLength="70" x="343" y="235.7104">-designation</text><line style="stroke:#A80036;stroke-width:1.5;" x1="338" x2="424" y1="242.3047" y2="242.3047"/><!--MD5=[a96594a83e2ecdc78cbf17c2ddf01934]
class Category--><rect codeLine="39" fill="#FEFECE" filter="url(#f1r61bpncl4ad6)" height="86.4141" id="Category" style="stroke:#A80036;stroke-width:1.5;" width="87" x="1079.5" y="398"/><ellipse cx="1094.5" cy="414" fill="#ADD1B2" rx="11" ry="11" style="stroke:#A80036;stroke-width:1.0;"/><path d="M1096.8438,409.6719 C1095.9063,409.2344 1095.3125,409.0938 1094.4375,409.0938 C1091.8125,409.0938 1089.8125,411.1719 1089.8125,413.8906 L1089.8125,415.0156 C1089.8125,417.5938 1091.9219,419.4844 1094.8125,419.4844 C1096.0313,419.4844 1097.1875,419.1875 1097.9375,418.6406 C1098.5156,418.2344 1098.8438,417.7813 1098.8438,417.3906 C1098.8438,416.9375 1098.4531,416.5469 1097.9844,416.5469 C1097.7656,416.5469 1097.5625,416.625 1097.375,416.8125 C1096.9219,417.2969 1096.9219,417.2969 1096.7344,417.3906 C1096.3125,417.6563 1095.625,417.7813 1094.8594,417.7813 C1092.8125,417.7813 1091.5156,416.6875 1091.5156,414.9844 L1091.5156,413.8906 C1091.5156,412.1094 1092.7656,410.7969 1094.5,410.7969 C1095.0781,410.7969 1095.6875,410.9531 1096.1563,411.2031 C1096.6406,411.4844 1096.8125,411.7031 1096.9063,412.1094 C1096.9688,412.5156 1097,412.6406 1097.1406,412.7656 C1097.2813,412.9063 1097.5156,413.0156 1097.7344,413.0156 C1098,413.0156 1098.2656,412.875 1098.4375,412.6563 C1098.5469,412.5 1098.5781,412.3125 1098.5781,411.8906 L1098.5781,410.4688 C1098.5781,410.0313 1098.5625,409.9063 1098.4688,409.75 C1098.3125,409.4844 1098.0313,409.3438 1097.7344,409.3438 C1097.4375,409.3438 1097.2344,409.4375 1097.0156,409.75 L1096.8438,409.6719 Z " fill="#000000"/><text fill="#000000" font-family="sans-serif" font-size="12" lengthAdjust="spacing" textLength="55" x="1108.5" y="418.1543">Category</text><line style="stroke:#A80036;stroke-width:1.5;" x1="1080.5" x2="1165.5" y1="430" y2="430"/><text fill="#000000" font-family="sans-serif" font-size="11" lengthAdjust="spacing" textLength="32" x="1085.5" y="444.2104">-code</text><text fill="#000000" font-family="sans-serif" font-size="11" lengthAdjust="spacing" textLength="66" x="1085.5" y="457.0151">-description</text><text fill="#000000" font-family="sans-serif" font-size="11" lengthAdjust="spacing" textLength="36" x="1085.5" y="469.8198">-nhsID</text><line style="stroke:#A80036;stroke-width:1.5;" x1="1080.5" x2="1165.5" y1="476.4141" y2="476.4141"/><!--MD5=[da547346deef918ea16944ba046651ef]
class Administrator--><rect codeLine="44" fill="#FEFECE" filter="url(#f1r61bpncl4ad6)" height="48" id="Administrator" style="stroke:#A80036;stroke-width:1.5;" width="112" x="886" y="587"/><ellipse cx="901" cy="603" fill="#ADD1B2" rx="11" ry="11" style="stroke:#A80036;stroke-width:1.0;"/><path d="M903.3438,598.6719 C902.4063,598.2344 901.8125,598.0938 900.9375,598.0938 C898.3125,598.0938 896.3125,600.1719 896.3125,602.8906 L896.3125,604.0156 C896.3125,606.5938 898.4219,608.4844 901.3125,608.4844 C902.5313,608.4844 903.6875,608.1875 904.4375,607.6406 C905.0156,607.2344 905.3438,606.7813 905.3438,606.3906 C905.3438,605.9375 904.9531,605.5469 904.4844,605.5469 C904.2656,605.5469 904.0625,605.625 903.875,605.8125 C903.4219,606.2969 903.4219,606.2969 903.2344,606.3906 C902.8125,606.6563 902.125,606.7813 901.3594,606.7813 C899.3125,606.7813 898.0156,605.6875 898.0156,603.9844 L898.0156,602.8906 C898.0156,601.1094 899.2656,599.7969 901,599.7969 C901.5781,599.7969 902.1875,599.9531 902.6563,600.2031 C903.1406,600.4844 903.3125,600.7031 903.4063,601.1094 C903.4688,601.5156 903.5,601.6406 903.6406,601.7656 C903.7813,601.9063 904.0156,602.0156 904.2344,602.0156 C904.5,602.0156 904.7656,601.875 904.9375,601.6563 C905.0469,601.5 905.0781,601.3125 905.0781,600.8906 L905.0781,599.4688 C905.0781,599.0313 905.0625,598.9063 904.9688,598.75 C904.8125,598.4844 904.5313,598.3438 904.2344,598.3438 C903.9375,598.3438 903.7344,598.4375 903.5156,598.75 L903.3438,598.6719 Z " fill="#000000"/><text fill="#000000" font-family="sans-serif" font-size="12" lengthAdjust="spacing" textLength="80" x="915" y="607.1543">Administrator</text><line style="stroke:#A80036;stroke-width:1.5;" x1="887" x2="997" y1="619" y2="619"/><line style="stroke:#A80036;stroke-width:1.5;" x1="887" x2="997" y1="627" y2="627"/><!--MD5=[1e5329fc67d8218f135f70ba961513ea]
class SampleType--><rect codeLine="45" fill="#FEFECE" filter="url(#f1r61bpncl4ad6)" height="48" id="SampleType" style="stroke:#A80036;stroke-width:1.5;" width="107" x="765.5" y="13.5"/><ellipse cx="780.5" cy="29.5" fill="#ADD1B2" rx="11" ry="11" style="stroke:#A80036;stroke-width:1.0;"/><path d="M782.8438,25.1719 C781.9063,24.7344 781.3125,24.5938 780.4375,24.5938 C777.8125,24.5938 775.8125,26.6719 775.8125,29.3906 L775.8125,30.5156 C775.8125,33.0938 777.9219,34.9844 780.8125,34.9844 C782.0313,34.9844 783.1875,34.6875 783.9375,34.1406 C784.5156,33.7344 784.8438,33.2813 784.8438,32.8906 C784.8438,32.4375 784.4531,32.0469 783.9844,32.0469 C783.7656,32.0469 783.5625,32.125 783.375,32.3125 C782.9219,32.7969 782.9219,32.7969 782.7344,32.8906 C782.3125,33.1563 781.625,33.2813 780.8594,33.2813 C778.8125,33.2813 777.5156,32.1875 777.5156,30.4844 L777.5156,29.3906 C777.5156,27.6094 778.7656,26.2969 780.5,26.2969 C781.0781,26.2969 781.6875,26.4531 782.1563,26.7031 C782.6406,26.9844 782.8125,27.2031 782.9063,27.6094 C782.9688,28.0156 783,28.1406 783.1406,28.2656 C783.2813,28.4063 783.5156,28.5156 783.7344,28.5156 C784,28.5156 784.2656,28.375 784.4375,28.1563 C784.5469,28 784.5781,27.8125 784.5781,27.3906 L784.5781,25.9688 C784.5781,25.5313 784.5625,25.4063 784.4688,25.25 C784.3125,24.9844 784.0313,24.8438 783.7344,24.8438 C783.4375,24.8438 783.2344,24.9375 783.0156,25.25 L782.8438,25.1719 Z " fill="#000000"/><text fill="#000000" font-family="sans-serif" font-size="12" lengthAdjust="spacing" textLength="75" x="794.5" y="33.6543">SampleType</text><line style="stroke:#A80036;stroke-width:1.5;" x1="766.5" x2="871.5" y1="45.5" y2="45.5"/><line style="stroke:#A80036;stroke-width:1.5;" x1="766.5" x2="871.5" y1="53.5" y2="53.5"/><!--MD5=[01931d41e78f8996acd44f6f0fd8de28]
class MedicalLabTechnician--><rect codeLine="46" fill="#FEFECE" filter="url(#f1r61bpncl4ad6)" height="48" id="MedicalLabTechnician" style="stroke:#A80036;stroke-width:1.5;" width="162" x="252" y="587"/><ellipse cx="267" cy="603" fill="#ADD1B2" rx="11" ry="11" style="stroke:#A80036;stroke-width:1.0;"/><path d="M269.3438,598.6719 C268.4063,598.2344 267.8125,598.0938 266.9375,598.0938 C264.3125,598.0938 262.3125,600.1719 262.3125,602.8906 L262.3125,604.0156 C262.3125,606.5938 264.4219,608.4844 267.3125,608.4844 C268.5313,608.4844 269.6875,608.1875 270.4375,607.6406 C271.0156,607.2344 271.3438,606.7813 271.3438,606.3906 C271.3438,605.9375 270.9531,605.5469 270.4844,605.5469 C270.2656,605.5469 270.0625,605.625 269.875,605.8125 C269.4219,606.2969 269.4219,606.2969 269.2344,606.3906 C268.8125,606.6563 268.125,606.7813 267.3594,606.7813 C265.3125,606.7813 264.0156,605.6875 264.0156,603.9844 L264.0156,602.8906 C264.0156,601.1094 265.2656,599.7969 267,599.7969 C267.5781,599.7969 268.1875,599.9531 268.6563,600.2031 C269.1406,600.4844 269.3125,600.7031 269.4063,601.1094 C269.4688,601.5156 269.5,601.6406 269.6406,601.7656 C269.7813,601.9063 270.0156,602.0156 270.2344,602.0156 C270.5,602.0156 270.7656,601.875 270.9375,601.6563 C271.0469,601.5 271.0781,601.3125 271.0781,600.8906 L271.0781,599.4688 C271.0781,599.0313 271.0625,598.9063 270.9688,598.75 C270.8125,598.4844 270.5313,598.3438 270.2344,598.3438 C269.9375,598.3438 269.7344,598.4375 269.5156,598.75 L269.3438,598.6719 Z " fill="#000000"/><text fill="#000000" font-family="sans-serif" font-size="12" lengthAdjust="spacing" textLength="130" x="281" y="607.1543">MedicalLabTechnician</text><line style="stroke:#A80036;stroke-width:1.5;" x1="253" x2="413" y1="619" y2="619"/><line style="stroke:#A80036;stroke-width:1.5;" x1="253" x2="413" y1="627" y2="627"/><!--MD5=[012ee2a8bf3ae2b319009b06f951c2e5]
class ClinicalChemistryTechnologist--><rect codeLine="47" fill="#FEFECE" filter="url(#f1r61bpncl4ad6)" height="48" id="ClinicalChemistryTechnologist" style="stroke:#A80036;stroke-width:1.5;" width="210" x="7" y="587"/><ellipse cx="22" cy="603" fill="#ADD1B2" rx="11" ry="11" style="stroke:#A80036;stroke-width:1.0;"/><path d="M24.3438,598.6719 C23.4063,598.2344 22.8125,598.0938 21.9375,598.0938 C19.3125,598.0938 17.3125,600.1719 17.3125,602.8906 L17.3125,604.0156 C17.3125,606.5938 19.4219,608.4844 22.3125,608.4844 C23.5313,608.4844 24.6875,608.1875 25.4375,607.6406 C26.0156,607.2344 26.3438,606.7813 26.3438,606.3906 C26.3438,605.9375 25.9531,605.5469 25.4844,605.5469 C25.2656,605.5469 25.0625,605.625 24.875,605.8125 C24.4219,606.2969 24.4219,606.2969 24.2344,606.3906 C23.8125,606.6563 23.125,606.7813 22.3594,606.7813 C20.3125,606.7813 19.0156,605.6875 19.0156,603.9844 L19.0156,602.8906 C19.0156,601.1094 20.2656,599.7969 22,599.7969 C22.5781,599.7969 23.1875,599.9531 23.6563,600.2031 C24.1406,600.4844 24.3125,600.7031 24.4063,601.1094 C24.4688,601.5156 24.5,601.6406 24.6406,601.7656 C24.7813,601.9063 25.0156,602.0156 25.2344,602.0156 C25.5,602.0156 25.7656,601.875 25.9375,601.6563 C26.0469,601.5 26.0781,601.3125 26.0781,600.8906 L26.0781,599.4688 C26.0781,599.0313 26.0625,598.9063 25.9688,598.75 C25.8125,598.4844 25.5313,598.3438 25.2344,598.3438 C24.9375,598.3438 24.7344,598.4375 24.5156,598.75 L24.3438,598.6719 Z " fill="#000000"/><text fill="#000000" font-family="sans-serif" font-size="12" lengthAdjust="spacing" textLength="178" x="36" y="607.1543">ClinicalChemistryTechnologist</text><line style="stroke:#A80036;stroke-width:1.5;" x1="8" x2="216" y1="619" y2="619"/><line style="stroke:#A80036;stroke-width:1.5;" x1="8" x2="216" y1="627" y2="627"/><!--MD5=[a64badb107d3691f2dc6af242cdbeb21]
class ChemicalLaboratory--><rect codeLine="48" fill="#FEFECE" filter="url(#f1r61bpncl4ad6)" height="48" id="ChemicalLaboratory" style="stroke:#A80036;stroke-width:1.5;" width="151" x="36.5" y="712"/><ellipse cx="51.5" cy="728" fill="#ADD1B2" rx="11" ry="11" style="stroke:#A80036;stroke-width:1.0;"/><path d="M53.8438,723.6719 C52.9063,723.2344 52.3125,723.0938 51.4375,723.0938 C48.8125,723.0938 46.8125,725.1719 46.8125,727.8906 L46.8125,729.0156 C46.8125,731.5938 48.9219,733.4844 51.8125,733.4844 C53.0313,733.4844 54.1875,733.1875 54.9375,732.6406 C55.5156,732.2344 55.8438,731.7813 55.8438,731.3906 C55.8438,730.9375 55.4531,730.5469 54.9844,730.5469 C54.7656,730.5469 54.5625,730.625 54.375,730.8125 C53.9219,731.2969 53.9219,731.2969 53.7344,731.3906 C53.3125,731.6563 52.625,731.7813 51.8594,731.7813 C49.8125,731.7813 48.5156,730.6875 48.5156,728.9844 L48.5156,727.8906 C48.5156,726.1094 49.7656,724.7969 51.5,724.7969 C52.0781,724.7969 52.6875,724.9531 53.1563,725.2031 C53.6406,725.4844 53.8125,725.7031 53.9063,726.1094 C53.9688,726.5156 54,726.6406 54.1406,726.7656 C54.2813,726.9063 54.5156,727.0156 54.7344,727.0156 C55,727.0156 55.2656,726.875 55.4375,726.6563 C55.5469,726.5 55.5781,726.3125 55.5781,725.8906 L55.5781,724.4688 C55.5781,724.0313 55.5625,723.9063 55.4688,723.75 C55.3125,723.4844 55.0313,723.3438 54.7344,723.3438 C54.4375,723.3438 54.2344,723.4375 54.0156,723.75 L53.8438,723.6719 Z " fill="#000000"/><text fill="#000000" font-family="sans-serif" font-size="12" lengthAdjust="spacing" textLength="119" x="65.5" y="732.1543">ChemicalLaboratory</text><line style="stroke:#A80036;stroke-width:1.5;" x1="37.5" x2="186.5" y1="744" y2="744"/><line style="stroke:#A80036;stroke-width:1.5;" x1="37.5" x2="186.5" y1="752" y2="752"/><!--MD5=[03960189e81aa2c066c762ffabbee709]
class Receptionist--><rect codeLine="49" fill="#FEFECE" filter="url(#f1r61bpncl4ad6)" height="48" id="Receptionist" style="stroke:#A80036;stroke-width:1.5;" width="106" x="624" y="13.5"/><ellipse cx="639" cy="29.5" fill="#ADD1B2" rx="11" ry="11" style="stroke:#A80036;stroke-width:1.0;"/><path d="M641.3438,25.1719 C640.4063,24.7344 639.8125,24.5938 638.9375,24.5938 C636.3125,24.5938 634.3125,26.6719 634.3125,29.3906 L634.3125,30.5156 C634.3125,33.0938 636.4219,34.9844 639.3125,34.9844 C640.5313,34.9844 641.6875,34.6875 642.4375,34.1406 C643.0156,33.7344 643.3438,33.2813 643.3438,32.8906 C643.3438,32.4375 642.9531,32.0469 642.4844,32.0469 C642.2656,32.0469 642.0625,32.125 641.875,32.3125 C641.4219,32.7969 641.4219,32.7969 641.2344,32.8906 C640.8125,33.1563 640.125,33.2813 639.3594,33.2813 C637.3125,33.2813 636.0156,32.1875 636.0156,30.4844 L636.0156,29.3906 C636.0156,27.6094 637.2656,26.2969 639,26.2969 C639.5781,26.2969 640.1875,26.4531 640.6563,26.7031 C641.1406,26.9844 641.3125,27.2031 641.4063,27.6094 C641.4688,28.0156 641.5,28.1406 641.6406,28.2656 C641.7813,28.4063 642.0156,28.5156 642.2344,28.5156 C642.5,28.5156 642.7656,28.375 642.9375,28.1563 C643.0469,28 643.0781,27.8125 643.0781,27.3906 L643.0781,25.9688 C643.0781,25.5313 643.0625,25.4063 642.9688,25.25 C642.8125,24.9844 642.5313,24.8438 642.2344,24.8438 C641.9375,24.8438 641.7344,24.9375 641.5156,25.25 L641.3438,25.1719 Z " fill="#000000"/><text fill="#000000" font-family="sans-serif" font-size="12" lengthAdjust="spacing" textLength="74" x="653" y="33.6543">Receptionist</text><line style="stroke:#A80036;stroke-width:1.5;" x1="625" x2="729" y1="45.5" y2="45.5"/><line style="stroke:#A80036;stroke-width:1.5;" x1="625" x2="729" y1="53.5" y2="53.5"/><!--MD5=[e27cb01a39563223b22d42504ec96d07]
class TestResult--><rect codeLine="50" fill="#FEFECE" filter="url(#f1r61bpncl4ad6)" height="48" id="TestResult" style="stroke:#A80036;stroke-width:1.5;" width="94" x="1126" y="712"/><ellipse cx="1141" cy="728" fill="#ADD1B2" rx="11" ry="11" style="stroke:#A80036;stroke-width:1.0;"/><path d="M1143.3438,723.6719 C1142.4063,723.2344 1141.8125,723.0938 1140.9375,723.0938 C1138.3125,723.0938 1136.3125,725.1719 1136.3125,727.8906 L1136.3125,729.0156 C1136.3125,731.5938 1138.4219,733.4844 1141.3125,733.4844 C1142.5313,733.4844 1143.6875,733.1875 1144.4375,732.6406 C1145.0156,732.2344 1145.3438,731.7813 1145.3438,731.3906 C1145.3438,730.9375 1144.9531,730.5469 1144.4844,730.5469 C1144.2656,730.5469 1144.0625,730.625 1143.875,730.8125 C1143.4219,731.2969 1143.4219,731.2969 1143.2344,731.3906 C1142.8125,731.6563 1142.125,731.7813 1141.3594,731.7813 C1139.3125,731.7813 1138.0156,730.6875 1138.0156,728.9844 L1138.0156,727.8906 C1138.0156,726.1094 1139.2656,724.7969 1141,724.7969 C1141.5781,724.7969 1142.1875,724.9531 1142.6563,725.2031 C1143.1406,725.4844 1143.3125,725.7031 1143.4063,726.1094 C1143.4688,726.5156 1143.5,726.6406 1143.6406,726.7656 C1143.7813,726.9063 1144.0156,727.0156 1144.2344,727.0156 C1144.5,727.0156 1144.7656,726.875 1144.9375,726.6563 C1145.0469,726.5 1145.0781,726.3125 1145.0781,725.8906 L1145.0781,724.4688 C1145.0781,724.0313 1145.0625,723.9063 1144.9688,723.75 C1144.8125,723.4844 1144.5313,723.3438 1144.2344,723.3438 C1143.9375,723.3438 1143.7344,723.4375 1143.5156,723.75 L1143.3438,723.6719 Z " fill="#000000"/><text fill="#000000" font-family="sans-serif" font-size="12" lengthAdjust="spacing" textLength="62" x="1155" y="732.1543">TestResult</text><line style="stroke:#A80036;stroke-width:1.5;" x1="1127" x2="1219" y1="744" y2="744"/><line style="stroke:#A80036;stroke-width:1.5;" x1="1127" x2="1219" y1="752" y2="752"/><!--MD5=[7d96fd15f3014691d2fcaf89c5791e2a]
class SpecialistDoctor--><rect codeLine="51" fill="#FEFECE" filter="url(#f1r61bpncl4ad6)" height="48" id="SpecialistDoctor" style="stroke:#A80036;stroke-width:1.5;" width="131" x="1192.5" y="587"/><ellipse cx="1207.5" cy="603" fill="#ADD1B2" rx="11" ry="11" style="stroke:#A80036;stroke-width:1.0;"/><path d="M1209.8438,598.6719 C1208.9063,598.2344 1208.3125,598.0938 1207.4375,598.0938 C1204.8125,598.0938 1202.8125,600.1719 1202.8125,602.8906 L1202.8125,604.0156 C1202.8125,606.5938 1204.9219,608.4844 1207.8125,608.4844 C1209.0313,608.4844 1210.1875,608.1875 1210.9375,607.6406 C1211.5156,607.2344 1211.8438,606.7813 1211.8438,606.3906 C1211.8438,605.9375 1211.4531,605.5469 1210.9844,605.5469 C1210.7656,605.5469 1210.5625,605.625 1210.375,605.8125 C1209.9219,606.2969 1209.9219,606.2969 1209.7344,606.3906 C1209.3125,606.6563 1208.625,606.7813 1207.8594,606.7813 C1205.8125,606.7813 1204.5156,605.6875 1204.5156,603.9844 L1204.5156,602.8906 C1204.5156,601.1094 1205.7656,599.7969 1207.5,599.7969 C1208.0781,599.7969 1208.6875,599.9531 1209.1563,600.2031 C1209.6406,600.4844 1209.8125,600.7031 1209.9063,601.1094 C1209.9688,601.5156 1210,601.6406 1210.1406,601.7656 C1210.2813,601.9063 1210.5156,602.0156 1210.7344,602.0156 C1211,602.0156 1211.2656,601.875 1211.4375,601.6563 C1211.5469,601.5 1211.5781,601.3125 1211.5781,600.8906 L1211.5781,599.4688 C1211.5781,599.0313 1211.5625,598.9063 1211.4688,598.75 C1211.3125,598.4844 1211.0313,598.3438 1210.7344,598.3438 C1210.4375,598.3438 1210.2344,598.4375 1210.0156,598.75 L1209.8438,598.6719 Z " fill="#000000"/><text fill="#000000" font-family="sans-serif" font-size="12" lengthAdjust="spacing" textLength="99" x="1221.5" y="607.1543">SpecialistDoctor</text><line style="stroke:#A80036;stroke-width:1.5;" x1="1193.5" x2="1322.5" y1="619" y2="619"/><line style="stroke:#A80036;stroke-width:1.5;" x1="1193.5" x2="1322.5" y1="627" y2="627"/><!--MD5=[c886e9f626b1f684543f4c5ec86b9c7b]
class LabCoordinator--><rect codeLine="52" fill="#FEFECE" filter="url(#f1r61bpncl4ad6)" height="48" id="LabCoordinator" style="stroke:#A80036;stroke-width:1.5;" width="124" x="1033" y="587"/><ellipse cx="1048" cy="603" fill="#ADD1B2" rx="11" ry="11" style="stroke:#A80036;stroke-width:1.0;"/><path d="M1050.3438,598.6719 C1049.4063,598.2344 1048.8125,598.0938 1047.9375,598.0938 C1045.3125,598.0938 1043.3125,600.1719 1043.3125,602.8906 L1043.3125,604.0156 C1043.3125,606.5938 1045.4219,608.4844 1048.3125,608.4844 C1049.5313,608.4844 1050.6875,608.1875 1051.4375,607.6406 C1052.0156,607.2344 1052.3438,606.7813 1052.3438,606.3906 C1052.3438,605.9375 1051.9531,605.5469 1051.4844,605.5469 C1051.2656,605.5469 1051.0625,605.625 1050.875,605.8125 C1050.4219,606.2969 1050.4219,606.2969 1050.2344,606.3906 C1049.8125,606.6563 1049.125,606.7813 1048.3594,606.7813 C1046.3125,606.7813 1045.0156,605.6875 1045.0156,603.9844 L1045.0156,602.8906 C1045.0156,601.1094 1046.2656,599.7969 1048,599.7969 C1048.5781,599.7969 1049.1875,599.9531 1049.6563,600.2031 C1050.1406,600.4844 1050.3125,600.7031 1050.4063,601.1094 C1050.4688,601.5156 1050.5,601.6406 1050.6406,601.7656 C1050.7813,601.9063 1051.0156,602.0156 1051.2344,602.0156 C1051.5,602.0156 1051.7656,601.875 1051.9375,601.6563 C1052.0469,601.5 1052.0781,601.3125 1052.0781,600.8906 L1052.0781,599.4688 C1052.0781,599.0313 1052.0625,598.9063 1051.9688,598.75 C1051.8125,598.4844 1051.5313,598.3438 1051.2344,598.3438 C1050.9375,598.3438 1050.7344,598.4375 1050.5156,598.75 L1050.3438,598.6719 Z " fill="#000000"/><text fill="#000000" font-family="sans-serif" font-size="12" lengthAdjust="spacing" textLength="92" x="1062" y="607.1543">LabCoordinator</text><line style="stroke:#A80036;stroke-width:1.5;" x1="1034" x2="1156" y1="619" y2="619"/><line style="stroke:#A80036;stroke-width:1.5;" x1="1034" x2="1156" y1="627" y2="627"/><!--MD5=[10d06bcee75aaf74ab8f6040820ceef2]
class Diagnosis--><rect codeLine="53" fill="#FEFECE" filter="url(#f1r61bpncl4ad6)" height="48" id="Diagnosis" style="stroke:#A80036;stroke-width:1.5;" width="91" x="1212.5" y="417"/><ellipse cx="1227.5" cy="433" fill="#ADD1B2" rx="11" ry="11" style="stroke:#A80036;stroke-width:1.0;"/><path d="M1229.8438,428.6719 C1228.9063,428.2344 1228.3125,428.0938 1227.4375,428.0938 C1224.8125,428.0938 1222.8125,430.1719 1222.8125,432.8906 L1222.8125,434.0156 C1222.8125,436.5938 1224.9219,438.4844 1227.8125,438.4844 C1229.0313,438.4844 1230.1875,438.1875 1230.9375,437.6406 C1231.5156,437.2344 1231.8438,436.7813 1231.8438,436.3906 C1231.8438,435.9375 1231.4531,435.5469 1230.9844,435.5469 C1230.7656,435.5469 1230.5625,435.625 1230.375,435.8125 C1229.9219,436.2969 1229.9219,436.2969 1229.7344,436.3906 C1229.3125,436.6563 1228.625,436.7813 1227.8594,436.7813 C1225.8125,436.7813 1224.5156,435.6875 1224.5156,433.9844 L1224.5156,432.8906 C1224.5156,431.1094 1225.7656,429.7969 1227.5,429.7969 C1228.0781,429.7969 1228.6875,429.9531 1229.1563,430.2031 C1229.6406,430.4844 1229.8125,430.7031 1229.9063,431.1094 C1229.9688,431.5156 1230,431.6406 1230.1406,431.7656 C1230.2813,431.9063 1230.5156,432.0156 1230.7344,432.0156 C1231,432.0156 1231.2656,431.875 1231.4375,431.6563 C1231.5469,431.5 1231.5781,431.3125 1231.5781,430.8906 L1231.5781,429.4688 C1231.5781,429.0313 1231.5625,428.9063 1231.4688,428.75 C1231.3125,428.4844 1231.0313,428.3438 1230.7344,428.3438 C1230.4375,428.3438 1230.2344,428.4375 1230.0156,428.75 L1229.8438,428.6719 Z " fill="#000000"/><text fill="#000000" font-family="sans-serif" font-size="12" lengthAdjust="spacing" textLength="59" x="1241.5" y="437.1543">Diagnosis</text><line style="stroke:#A80036;stroke-width:1.5;" x1="1213.5" x2="1302.5" y1="449" y2="449"/><line style="stroke:#A80036;stroke-width:1.5;" x1="1213.5" x2="1302.5" y1="457" y2="457"/><!--MD5=[0a105ea8d9af02dadec02d3e239f1d60]
class NHS--><rect codeLine="54" fill="#FEFECE" filter="url(#f1r61bpncl4ad6)" height="48" id="NHS" style="stroke:#A80036;stroke-width:1.5;" width="57" x="590.5" y="587"/><ellipse cx="605.5" cy="603" fill="#ADD1B2" rx="11" ry="11" style="stroke:#A80036;stroke-width:1.0;"/><path d="M607.8438,598.6719 C606.9063,598.2344 606.3125,598.0938 605.4375,598.0938 C602.8125,598.0938 600.8125,600.1719 600.8125,602.8906 L600.8125,604.0156 C600.8125,606.5938 602.9219,608.4844 605.8125,608.4844 C607.0313,608.4844 608.1875,608.1875 608.9375,607.6406 C609.5156,607.2344 609.8438,606.7813 609.8438,606.3906 C609.8438,605.9375 609.4531,605.5469 608.9844,605.5469 C608.7656,605.5469 608.5625,605.625 608.375,605.8125 C607.9219,606.2969 607.9219,606.2969 607.7344,606.3906 C607.3125,606.6563 606.625,606.7813 605.8594,606.7813 C603.8125,606.7813 602.5156,605.6875 602.5156,603.9844 L602.5156,602.8906 C602.5156,601.1094 603.7656,599.7969 605.5,599.7969 C606.0781,599.7969 606.6875,599.9531 607.1563,600.2031 C607.6406,600.4844 607.8125,600.7031 607.9063,601.1094 C607.9688,601.5156 608,601.6406 608.1406,601.7656 C608.2813,601.9063 608.5156,602.0156 608.7344,602.0156 C609,602.0156 609.2656,601.875 609.4375,601.6563 C609.5469,601.5 609.5781,601.3125 609.5781,600.8906 L609.5781,599.4688 C609.5781,599.0313 609.5625,598.9063 609.4688,598.75 C609.3125,598.4844 609.0313,598.3438 608.7344,598.3438 C608.4375,598.3438 608.2344,598.4375 608.0156,598.75 L607.8438,598.6719 Z " fill="#000000"/><text fill="#000000" font-family="sans-serif" font-size="12" lengthAdjust="spacing" textLength="25" x="619.5" y="607.1543">NHS</text><line style="stroke:#A80036;stroke-width:1.5;" x1="591.5" x2="646.5" y1="619" y2="619"/><line style="stroke:#A80036;stroke-width:1.5;" x1="591.5" x2="646.5" y1="627" y2="627"/><!--MD5=[3fd616f346a44cd59a91eb10b19e157c]
class User--><rect codeLine="55" fill="#FEFECE" filter="url(#f1r61bpncl4ad6)" height="60.8047" id="User" style="stroke:#A80036;stroke-width:1.5;" width="69" x="907.5" y="7"/><ellipse cx="926.1" cy="23" fill="#ADD1B2" rx="11" ry="11" style="stroke:#A80036;stroke-width:1.0;"/><path d="M928.4438,18.6719 C927.5063,18.2344 926.9125,18.0938 926.0375,18.0938 C923.4125,18.0938 921.4125,20.1719 921.4125,22.8906 L921.4125,24.0156 C921.4125,26.5938 923.5219,28.4844 926.4125,28.4844 C927.6313,28.4844 928.7875,28.1875 929.5375,27.6406 C930.1156,27.2344 930.4438,26.7813 930.4438,26.3906 C930.4438,25.9375 930.0531,25.5469 929.5844,25.5469 C929.3656,25.5469 929.1625,25.625 928.975,25.8125 C928.5219,26.2969 928.5219,26.2969 928.3344,26.3906 C927.9125,26.6563 927.225,26.7813 926.4594,26.7813 C924.4125,26.7813 923.1156,25.6875 923.1156,23.9844 L923.1156,22.8906 C923.1156,21.1094 924.3656,19.7969 926.1,19.7969 C926.6781,19.7969 927.2875,19.9531 927.7563,20.2031 C928.2406,20.4844 928.4125,20.7031 928.5063,21.1094 C928.5688,21.5156 928.6,21.6406 928.7406,21.7656 C928.8813,21.9063 929.1156,22.0156 929.3344,22.0156 C929.6,22.0156 929.8656,21.875 930.0375,21.6563 C930.1469,21.5 930.1781,21.3125 930.1781,20.8906 L930.1781,19.4688 C930.1781,19.0313 930.1625,18.9063 930.0688,18.75 C929.9125,18.4844 929.6313,18.3438 929.3344,18.3438 C929.0375,18.3438 928.8344,18.4375 928.6156,18.75 L928.4438,18.6719 Z " fill="#000000"/><text fill="#000000" font-family="sans-serif" font-size="12" lengthAdjust="spacing" textLength="29" x="940.9" y="27.1543">User</text><line style="stroke:#A80036;stroke-width:1.5;" x1="908.5" x2="975.5" y1="39" y2="39"/><text fill="#000000" font-family="sans-serif" font-size="11" lengthAdjust="spacing" textLength="57" x="913.5" y="53.2104">-password</text><line style="stroke:#A80036;stroke-width:1.5;" x1="908.5" x2="975.5" y1="59.8047" y2="59.8047"/><!--MD5=[93d7880ef3cc27df92dc3b8ebff5c606]
class sampleType--><rect fill="#FEFECE" filter="url(#f1r61bpncl4ad6)" height="48" id="sampleType" style="stroke:#A80036;stroke-width:1.5;" width="106" x="449" y="587"/><ellipse cx="464" cy="603" fill="#ADD1B2" rx="11" ry="11" style="stroke:#A80036;stroke-width:1.0;"/><path d="M466.3438,598.6719 C465.4063,598.2344 464.8125,598.0938 463.9375,598.0938 C461.3125,598.0938 459.3125,600.1719 459.3125,602.8906 L459.3125,604.0156 C459.3125,606.5938 461.4219,608.4844 464.3125,608.4844 C465.5313,608.4844 466.6875,608.1875 467.4375,607.6406 C468.0156,607.2344 468.3438,606.7813 468.3438,606.3906 C468.3438,605.9375 467.9531,605.5469 467.4844,605.5469 C467.2656,605.5469 467.0625,605.625 466.875,605.8125 C466.4219,606.2969 466.4219,606.2969 466.2344,606.3906 C465.8125,606.6563 465.125,606.7813 464.3594,606.7813 C462.3125,606.7813 461.0156,605.6875 461.0156,603.9844 L461.0156,602.8906 C461.0156,601.1094 462.2656,599.7969 464,599.7969 C464.5781,599.7969 465.1875,599.9531 465.6563,600.2031 C466.1406,600.4844 466.3125,600.7031 466.4063,601.1094 C466.4688,601.5156 466.5,601.6406 466.6406,601.7656 C466.7813,601.9063 467.0156,602.0156 467.2344,602.0156 C467.5,602.0156 467.7656,601.875 467.9375,601.6563 C468.0469,601.5 468.0781,601.3125 468.0781,600.8906 L468.0781,599.4688 C468.0781,599.0313 468.0625,598.9063 467.9688,598.75 C467.8125,598.4844 467.5313,598.3438 467.2344,598.3438 C466.9375,598.3438 466.7344,598.4375 466.5156,598.75 L466.3438,598.6719 Z " fill="#000000"/><text fill="#000000" font-family="sans-serif" font-size="12" lengthAdjust="spacing" textLength="74" x="478" y="607.1543">sampleType</text><line style="stroke:#A80036;stroke-width:1.5;" x1="450" x2="554" y1="619" y2="619"/><line style="stroke:#A80036;stroke-width:1.5;" x1="450" x2="554" y1="627" y2="627"/><!--MD5=[e981d4f96c4342412d1e68160b30cf70]
link Test to TestType--><path codeLine="58" d="M614.164,462.098 C650.398,478.797 699.078,505.4 733,540 C741.115,548.277 748.079,558.581 753.781,568.716 " fill="none" id="Test-to-TestType" style="stroke:#A80036;stroke-width:1.0;"/><polygon fill="none" points="760.172,565.844,762.91,586.856,747.666,572.138,760.172,565.844" style="stroke:#A80036;stroke-width:1.0;"/><text fill="#000000" font-family="sans-serif" font-size="13" lengthAdjust="spacing" textLength="27" x="747" y="553.0669">is of</text><!--MD5=[502b51bc079239060389dab43b7d3470]
link Client to Test--><path codeLine="59" d="M730.44,270.694 C695.664,306.283 649.008,354.029 614.109,389.744 " fill="none" id="Client-Test" style="stroke:#A80036;stroke-width:1.0;"/><polygon fill="#000000" points="680.4945,329.9903,672.0709,334.4056,676.2749,338.5136,680.4945,329.9903" style="stroke:#000000;stroke-width:1.0;"/><text fill="#000000" font-family="sans-serif" font-size="13" lengthAdjust="spacing" textLength="85" x="686" y="338.0669">requested by</text><!--MD5=[1ae83efc6d1967ce5bc17dfe294d00c2]
link Sample to Test--><path codeLine="60" d="M377.594,441 C415.793,441 474.414,441 515.908,441 " fill="none" id="Sample-Test" style="stroke:#A80036;stroke-width:1.0;"/><polygon fill="#000000" points="415.25,429.5664,424.2951,432.5053,424.2951,426.6275,415.25,429.5664" style="stroke:#000000;stroke-width:1.0;"/><text fill="#000000" font-family="sans-serif" font-size="13" lengthAdjust="spacing" textLength="48" x="429.25" y="434.0669">collects</text><!--MD5=[c23963f6e403fc3ebec8dae22c30ade6]
link Test to Parameter--><path codeLine="61" d="M614.042,441 C662.915,441 738.271,441 792.296,441 " fill="none" id="Test-Parameter" style="stroke:#A80036;stroke-width:1.0;"/><polygon fill="#000000" points="641.25,429.5664,632.2049,426.6275,632.2049,432.5053,641.25,429.5664" style="stroke:#000000;stroke-width:1.0;"/><text fill="#000000" font-family="sans-serif" font-size="13" lengthAdjust="spacing" textLength="129" x="645.25" y="434.0669">requests analysis of</text><!--MD5=[f9817a04d37f372ce4a6fb222e205055]
link Lab Order to Test--><path codeLine="62" d="M512.804,257.039 C517.032,281.259 523.347,313.786 531,342 C533.64,351.733 536.752,361.898 540.003,371.839 " fill="none" id="Lab Order-Test" style="stroke:#A80036;stroke-width:1.0;"/><polygon fill="#000000" points="534.8473,328.7011,534.0728,338.1801,539.7923,336.825,534.8473,328.7011" style="stroke:#000000;stroke-width:1.0;"/><text fill="#000000" font-family="sans-serif" font-size="13" lengthAdjust="spacing" textLength="52" x="545" y="338.0669">requires</text><!--MD5=[7e4bc624457760b649895ff2ead938fa]
link Company to Test--><path codeLine="63" d="M392.664,250.594 C403.721,276.391 422.036,313.963 445,342 C465.197,366.659 492.408,389.487 515.812,406.896 " fill="none" id="Company-Test" style="stroke:#A80036;stroke-width:1.0;"/><polygon fill="#000000" points="446.9056,329.639,450.1949,338.5626,454.8119,334.9249,446.9056,329.639" style="stroke:#000000;stroke-width:1.0;"/><text fill="#000000" font-family="sans-serif" font-size="13" lengthAdjust="spacing" textLength="59" x="459" y="338.0669">performs</text><!--MD5=[2c46651aa9ea3a6d986170fabc83ad48]
link Category to Administrator--><path codeLine="64" d="M1079.18,482.668 C1044.03,515.297 995.936,559.938 967.025,586.773 " fill="none" id="Category-Administrator" style="stroke:#A80036;stroke-width:1.0;"/><polygon fill="#000000" points="1018.3354,551.968,1026.9641,547.9685,1022.9653,543.6605,1018.3354,551.968" style="stroke:#000000;stroke-width:1.0;"/><text fill="#000000" font-family="sans-serif" font-size="13" lengthAdjust="spacing" textLength="69" x="1031" y="553.0669">created by</text><!--MD5=[852f3a1b1bcfc6074ebcba484562eac0]
link Parameter to Category--><path codeLine="65" d="M923.506,441 C972.092,441 1036.99,441 1079.37,441 " fill="none" id="Parameter-Category" style="stroke:#A80036;stroke-width:1.0;"/><polygon fill="#000000" points="951,429.5664,941.9549,426.6275,941.9549,432.5053,951,429.5664" style="stroke:#000000;stroke-width:1.0;"/><text fill="#000000" font-family="sans-serif" font-size="13" lengthAdjust="spacing" textLength="106" x="955" y="434.0669">presented under</text><!--MD5=[d5ddf5c85b448d498c07afdaea600b32]
link Sample to sampleType--><path codeLine="66" d="M368.907,471.838 C388.18,491.16 413.712,516.929 436,540 C450.97,555.497 467.612,573.15 480.44,586.852 " fill="none" id="Sample-sampleType" style="stroke:#A80036;stroke-width:1.0;"/><polygon fill="#000000" points="459.4808,552.1558,455.2938,543.6165,451.0742,547.7085,459.4808,552.1558" style="stroke:#000000;stroke-width:1.0;"/><text fill="#000000" font-family="sans-serif" font-size="13" lengthAdjust="spacing" textLength="27" x="465" y="553.0669">is of</text><!--MD5=[cb5e86f6614a99551e1d9ce6f0ae5849]
link Sample to MedicalLabTechnician--><path codeLine="67" d="M337.941,471.648 C336.767,504.523 334.898,556.863 333.827,586.857 " fill="none" id="Sample-MedicalLabTechnician" style="stroke:#A80036;stroke-width:1.0;"/><polygon fill="#000000" points="340.8216,553.5632,344.0814,544.6288,338.2073,544.419,340.8216,553.5632" style="stroke:#000000;stroke-width:1.0;"/><text fill="#000000" font-family="sans-serif" font-size="13" lengthAdjust="spacing" textLength="77" x="350" y="553.0669">collected by</text><!--MD5=[d26d10da823f6089ca18e653f1cb3d9f]
link Sample to ClinicalChemistryTechnologist--><path codeLine="68" d="M300.493,470.499 C256.22,503.264 184.394,556.422 143.373,586.781 " fill="none" id="Sample-ClinicalChemistryTechnologist" style="stroke:#A80036;stroke-width:1.0;"/><polygon fill="#000000" points="206.981,551.5408,215.9998,548.5224,212.5032,543.7977,206.981,551.5408" style="stroke:#000000;stroke-width:1.0;"/><text fill="#000000" font-family="sans-serif" font-size="13" lengthAdjust="spacing" textLength="78" x="220" y="553.0669">analysed by</text><!--MD5=[c3a86c626b5b742f72786125539e9227]
link ClinicalChemistryTechnologist to ChemicalLaboratory--><path codeLine="69" d="M112,635.135 C112,657.126 112,690.0123 112,711.9684 " fill="none" id="ClinicalChemistryTechnologist-ChemicalLaboratory" style="stroke:#A80036;stroke-width:1.0;"/><polygon fill="#000000" points="117,678.5664,119.9389,669.5213,114.0611,669.5213,117,678.5664" style="stroke:#000000;stroke-width:1.0;"/><text fill="#000000" font-family="sans-serif" font-size="13" lengthAdjust="spacing" textLength="55" x="126" y="678.0669">works at</text><!--MD5=[6a35157f4c730bda767e7c9f1b8b7f73]
link Receptionist to Client--><path codeLine="70" d="M690.126,61.728 C702.017,82.77 720.201,114.949 737.03,144.73 " fill="none" id="Receptionist-Client" style="stroke:#A80036;stroke-width:1.0;"/><polygon fill="#000000" points="726.4599,110.9194,724.5686,101.5988,719.4513,104.4906,726.4599,110.9194" style="stroke:#000000;stroke-width:1.0;"/><text fill="#000000" font-family="sans-serif" font-size="13" lengthAdjust="spacing" textLength="56" x="733" y="111.0669">registers</text><!--MD5=[e8b34c2e6517a986175307f5599f058a]
link Receptionist to Test--><path codeLine="71" d="M668.562,61.534 C660.925,82.948 649.724,115.839 642,145 C619.125,231.364 626.747,256.154 602,342 C599.179,351.786 595.822,361.98 592.298,371.935 " fill="none" id="Receptionist-Test" style="stroke:#A80036;stroke-width:1.0;"/><polygon fill="#000000" points="645.807,224.922,650.8192,216.8394,645.1111,215.4369,645.807,224.922" style="stroke:#000000;stroke-width:1.0;"/><text fill="#000000" font-family="sans-serif" font-size="13" lengthAdjust="spacing" textLength="56" x="656" y="224.5669">registers</text><!--MD5=[20675b07f1baf04abd59eb605a4ad598]
link ClinicalChemistryTechnologist to TestResult--><path codeLine="72" d="M217.055,632.359 C222.779,633.296 228.456,634.184 234,635 C574.606,685.1603 988.27,720.3176 1125.93,731.3327 " fill="none" id="ClinicalChemistryTechnologist-TestResult" style="stroke:#A80036;stroke-width:1.0;"/><polygon fill="#000000" points="595.0294,673.0251,603.7032,676.926,604.3395,671.0827,595.0294,673.0251" style="stroke:#000000;stroke-width:1.0;"/><text fill="#000000" font-family="sans-serif" font-size="13" lengthAdjust="spacing" textLength="86" x="609" y="678.0669">generated by</text><!--MD5=[492976e961d73885787d6f4e699abc3c]
link SpecialistDoctor to TestResult--><path codeLine="73" d="M1242.01,635.135 C1226.82,657.126 1204.09,690.0123 1188.92,711.9684 " fill="none" id="SpecialistDoctor-TestResult" style="stroke:#A80036;stroke-width:1.0;"/><polygon fill="#000000" points="1227.8423,669.4529,1220.2826,675.2236,1225.1184,678.565,1227.8423,669.4529" style="stroke:#000000;stroke-width:1.0;"/><text fill="#000000" font-family="sans-serif" font-size="13" lengthAdjust="spacing" textLength="78" x="1234" y="678.0669">analysed by</text><!--MD5=[e60dbfb26f96b2bc09dc8c8b2d22e46f]
link LabCoordinator to TestResult--><path codeLine="74" d="M1094.89,635.163 C1095.77,649.526 1098.68,667.8674 1107,682 C1113.86,693.6514 1124.31,703.7733 1134.89,711.9603 " fill="none" id="LabCoordinator-TestResult" style="stroke:#A80036;stroke-width:1.0;"/><polygon fill="#000000" points="1109.6903,669.1319,1111.2621,678.5117,1116.4752,675.7964,1109.6903,669.1319" style="stroke:#000000;stroke-width:1.0;"/><text fill="#000000" font-family="sans-serif" font-size="13" lengthAdjust="spacing" textLength="79" x="1121" y="678.0669">validated by</text><!--MD5=[fd5f5b962c28af1c88b5bc5c4cfdb2d8]
link Diagnosis to SpecialistDoctor--><path codeLine="75" d="M1258,465.007 C1258,496.999 1258,554.601 1258,586.731 " fill="none" id="Diagnosis-SpecialistDoctor" style="stroke:#A80036;stroke-width:1.0;"/><polygon fill="#000000" points="1263,553.5664,1265.9389,544.5213,1260.0611,544.5213,1263,553.5664" style="stroke:#000000;stroke-width:1.0;"/><text fill="#000000" font-family="sans-serif" font-size="13" lengthAdjust="spacing" textLength="86" x="1272" y="553.0669">generated by</text><!--MD5=[aa7f6e8aeb9310a97173f9b6fb8851f0]
link Diagnosis to LabCoordinator--><path codeLine="76" d="M1232.66,465.164 C1211.65,484.654 1181.24,513.506 1156,540 C1141.55,555.173 1126.04,572.988 1114.28,586.848 " fill="none" id="Diagnosis-LabCoordinator" style="stroke:#A80036;stroke-width:1.0;"/><polygon fill="#000000" points="1157.5135,552.1503,1165.9272,547.7163,1161.7141,543.6177,1157.5135,552.1503" style="stroke:#000000;stroke-width:1.0;"/><text fill="#000000" font-family="sans-serif" font-size="13" lengthAdjust="spacing" textLength="79" x="1170" y="553.0669">validated by</text><!--MD5=[c9ce66265abea0024719b01d064e7ebf]
link Diagnosis to TestResult--><path codeLine="77" d="M1303.64,464.879 C1336.32,484.873 1373.5,516.949 1367,557 C1357.52,615.434 1364.06,641.382 1321,682 C1293.4,708.0298 1252.14,721.4181 1220.19,728.2188 " fill="none" id="Diagnosis-TestResult" style="stroke:#A80036;stroke-width:1.0;"/><polygon fill="#000000" points="1365.4896,615.8328,1371.0236,608.0981,1365.4203,606.3225,1365.4896,615.8328" style="stroke:#000000;stroke-width:1.0;"/><text fill="#000000" font-family="sans-serif" font-size="13" lengthAdjust="spacing" textLength="86" x="1376" y="615.5669">associated to</text><!--MD5=[f923d4b2b0bfa3bc16306ca4dbe44866]
link Test to NHS--><path codeLine="78" d="M583.363,510.145 C587.867,525.638 592.876,541.959 598,557 C601.383,566.931 605.565,577.724 609.304,586.964 " fill="none" id="Test-NHS" style="stroke:#A80036;stroke-width:1.0;"/><polygon fill="#000000" points="601.4003,543.8292,601.5097,553.3392,607.0786,551.4586,601.4003,543.8292" style="stroke:#000000;stroke-width:1.0;"/><text fill="#000000" font-family="sans-serif" font-size="13" lengthAdjust="spacing" textLength="116" x="612" y="553.0669">requests report of</text><!--MD5=[3c4f73593d2af9cebae5ce08f1c1e534]
@startuml
skinparam classAttributeIconSize 0
skinparam backgroundColor white
class Test {
-internalCode 
-nhsCode 
-description 
-dateCollection 
-dateAnalysis 
-dateDiagnosis 
-dateValidation
}
class TestType
class Client {
-name 
-cardNumber 
-birthDate 
-sex 
-nhsID
-TIF
-phoneNumber
-email
}
class Sample {
-barcode
}
class Parameter {
-rbcCount 
-wbcCount 
-pltCount 
-boolean covidResult 
}
class "Lab Order" {
-testType 
-parameters 
}
class Company {
-designation
}
class Category {
-code 
-description 
-nhsID 
}
class Administrator
class SampleType
class MedicalLabTechnician
class ClinicalChemistryTechnologist
class ChemicalLaboratory
class Receptionist
class TestResult
class SpecialistDoctor
class LabCoordinator
class Diagnosis
class NHS
class User {
-password
}
Test - -|> "TestType" : is of
Test -up- Client : requested by >
Test -left- Sample : collects >
Test -right- Parameter : requests analysis of >
Test -up- "Lab Order" : requires >
Test -up- Company : performs >
Administrator -up- Category : created by <
Parameter -right- Category : presented under >
sampleType -up- Sample  : is of <
MedicalLabTechnician -up- Sample : collected by <
ClinicalChemistryTechnologist -up- Sample : analysed by <
ClinicalChemistryTechnologist -down- ChemicalLaboratory : works at >
Receptionist -down- Client : registers >
Receptionist -down- Test : registers >
TestResult -up- ClinicalChemistryTechnologist : generated by >
TestResult -up- SpecialistDoctor : analysed by >
TestResult -up- LabCoordinator : validated by >
Diagnosis -down- SpecialistDoctor : generated by >
Diagnosis -down- LabCoordinator : validated by >
Diagnosis -down- TestResult : associated to >
NHS -up- Test : requests report of >
@enduml

PlantUML version 1.2021.4beta3(Unknown compile time)
(GPL source distribution)
Java Runtime: Java(TM) SE Runtime Environment
JVM: Java HotSpot(TM) 64-Bit Server VM
Default Encoding: UTF-8
Language: en
Country: US
--></g></svg>