<?xml version="1.0" encoding="UTF-8" standalone="no"?><svg xmlns="http://www.w3.org/2000/svg" xmlns:xlink="http://www.w3.org/1999/xlink" contentScriptType="application/ecmascript" contentStyleType="text/css" height="915px" preserveAspectRatio="none" style="width:740px;height:915px;" version="1.1" viewBox="0 0 740 915" width="740px" zoomAndPan="magnify"><defs><filter height="300%" id="f3tx02nrygpwu" width="300%" x="-1" y="-1"><feGaussianBlur result="blurOut" stdDeviation="2.0"/><feColorMatrix in="blurOut" result="blurOut2" type="matrix" values="0 0 0 0 0 0 0 0 0 0 0 0 0 0 0 0 0 0 .4 0"/><feOffset dx="4.0" dy="4.0" in="blurOut2" result="blurOut3"/><feBlend in="SourceGraphic" in2="blurOut3" mode="normal"/></filter></defs><g><!--MD5=[d64883541e3d62e3241c4d12decf100d]
cluster Application--><rect fill="#FFFFFF" filter="url(#f3tx02nrygpwu)" height="896" style="stroke:#000000;stroke-width:1.5;" width="379" x="162" y="7"/><text fill="#000000" font-family="sans-serif" font-size="14" font-weight="bold" lengthAdjust="spacing" textLength="78" x="312.5" y="23.5332">Application</text><ellipse cx="351.4169" cy="127.8834" fill="#FEFECE" filter="url(#f3tx02nrygpwu)" rx="67.4169" ry="15.8834" style="stroke:#A80036;stroke-width:1.5;"/><text fill="#000000" font-family="sans-serif" font-size="14" lengthAdjust="spacing" textLength="80" x="308.4169" y="132.4">Register test</text><ellipse cx="351.3567" cy="60.0713" fill="#FEFECE" filter="url(#f3tx02nrygpwu)" rx="70.8567" ry="16.5713" style="stroke:#A80036;stroke-width:1.5;"/><text fill="#000000" font-family="sans-serif" font-size="14" lengthAdjust="spacing" textLength="90" x="303.3567" y="64.5879">Register client</text><ellipse cx="351.7256" cy="196.9451" fill="#FEFECE" filter="url(#f3tx02nrygpwu)" rx="75.2256" ry="17.4451" style="stroke:#A80036;stroke-width:1.5;"/><text fill="#000000" font-family="sans-serif" font-size="14" lengthAdjust="spacing" textLength="102" x="297.7256" y="201.4617">Register sample</text><ellipse cx="351.4525" cy="271.7905" fill="#FEFECE" filter="url(#f3tx02nrygpwu)" rx="96.9525" ry="21.7905" style="stroke:#A80036;stroke-width:1.5;"/><text fill="#000000" font-family="sans-serif" font-size="14" lengthAdjust="spacing" textLength="154" x="274.4525" y="275.519">Register analysis results</text><ellipse cx="351.5066" cy="573.2013" fill="#FEFECE" filter="url(#f3tx02nrygpwu)" rx="84.0066" ry="19.2013" style="stroke:#A80036;stroke-width:1.5;"/><text fill="#000000" font-family="sans-serif" font-size="14" lengthAdjust="spacing" textLength="124" x="289.5066" y="576.9298">Generate diagnosis</text><ellipse cx="351.434" cy="651.9868" fill="#FEFECE" filter="url(#f3tx02nrygpwu)" rx="110.434" ry="24.4868" style="stroke:#A80036;stroke-width:1.5;"/><text fill="#000000" font-family="sans-serif" font-size="14" lengthAdjust="spacing" textLength="184" x="259.434" y="655.7153">Choose client sorting method</text><ellipse cx="351.2982" cy="419.7596" fill="#FEFECE" filter="url(#f3tx02nrygpwu)" rx="106.7982" ry="23.7596" style="stroke:#A80036;stroke-width:1.5;"/><text fill="#000000" font-family="sans-serif" font-size="14" lengthAdjust="spacing" textLength="176" x="263.2982" y="423.4882">Validate the clinical analysis</text><ellipse cx="351.341" cy="345.1182" fill="#FEFECE" filter="url(#f3tx02nrygpwu)" rx="65.341" ry="15.6182" style="stroke:#A80036;stroke-width:1.5;"/><text fill="#000000" font-family="sans-serif" font-size="14" lengthAdjust="spacing" textLength="75" x="310.841" y="349.6348">View results</text><ellipse cx="351.2889" cy="749.0578" fill="#FEFECE" filter="url(#f3tx02nrygpwu)" rx="173.2889" ry="37.0578" style="stroke:#A80036;stroke-width:1.5;"/><text fill="#000000" font-family="sans-serif" font-size="14" lengthAdjust="spacing" textLength="317" x="192.7889" y="752.7863">View statistics for number of tests waiting for result</text><ellipse cx="351.3923" cy="498.8785" fill="#FEFECE" filter="url(#f3tx02nrygpwu)" rx="87.3923" ry="19.8785" style="stroke:#A80036;stroke-width:1.5;"/><text fill="#000000" font-family="sans-serif" font-size="14" lengthAdjust="spacing" textLength="132" x="285.3923" y="502.607">Access all client data</text><ellipse cx="351.601" cy="854.0202" fill="#FEFECE" filter="url(#f3tx02nrygpwu)" rx="153.101" ry="33.0202" style="stroke:#A80036;stroke-width:1.5;"/><text fill="#000000" font-family="sans-serif" font-size="14" lengthAdjust="spacing" textLength="275" x="214.101" y="857.7487">Get feedback from the Covid-19 tests made</text><!--MD5=[87a04b683345c3cce94ac9a6e159ab2f]
entity Receptionist--><ellipse cx="62" cy="62" fill="#FEFECE" filter="url(#f3tx02nrygpwu)" rx="8" ry="8" style="stroke:#A80036;stroke-width:1.5;"/><path d="M62,70 L62,97 M49,78 L75,78 M62,97 L49,112 M62,97 L75,112 " fill="none" filter="url(#f3tx02nrygpwu)" style="stroke:#A80036;stroke-width:1.5;"/><text fill="#000000" font-family="sans-serif" font-size="14" lengthAdjust="spacing" textLength="78" x="23" y="132.0332">Receptionist</text><!--MD5=[e7d38603a700bedb049d1f5e1789c8aa]
entity MLT--><ellipse cx="659" cy="156.5" fill="#FEFECE" filter="url(#f3tx02nrygpwu)" rx="8" ry="8" style="stroke:#A80036;stroke-width:1.5;"/><path d="M659,164.5 L659,191.5 M646,172.5 L672,172.5 M659,191.5 L646,206.5 M659,191.5 L672,206.5 " fill="none" filter="url(#f3tx02nrygpwu)" style="stroke:#A80036;stroke-width:1.5;"/><text fill="#000000" font-family="sans-serif" font-size="14" lengthAdjust="spacing" textLength="76" x="621" y="226.5332">Medical Lab</text><text fill="#000000" font-family="sans-serif" font-size="14" lengthAdjust="spacing" textLength="69" x="625" y="244.1426">Technician</text><!--MD5=[234b11d210a3d78b3bcac40f493e1b07]
entity CCT--><ellipse cx="62" cy="268.5" fill="#FEFECE" filter="url(#f3tx02nrygpwu)" rx="8" ry="8" style="stroke:#A80036;stroke-width:1.5;"/><path d="M62,276.5 L62,303.5 M49,284.5 L75,284.5 M62,303.5 L49,318.5 M62,303.5 L75,318.5 " fill="none" filter="url(#f3tx02nrygpwu)" style="stroke:#A80036;stroke-width:1.5;"/><text fill="#000000" font-family="sans-serif" font-size="14" lengthAdjust="spacing" textLength="112" x="6" y="338.5332">Clinical Chemistry</text><text fill="#000000" font-family="sans-serif" font-size="14" lengthAdjust="spacing" textLength="81" x="10" y="356.1426">Technologist</text><!--MD5=[5a5d35bcfc46556bdff8e646cc6c81c2]
entity Doctor--><ellipse cx="62" cy="467" fill="#FEFECE" filter="url(#f3tx02nrygpwu)" rx="8" ry="8" style="stroke:#A80036;stroke-width:1.5;"/><path d="M62,475 L62,502 M49,483 L75,483 M62,502 L49,517 M62,502 L75,517 " fill="none" filter="url(#f3tx02nrygpwu)" style="stroke:#A80036;stroke-width:1.5;"/><text fill="#000000" font-family="sans-serif" font-size="14" lengthAdjust="spacing" textLength="106" x="9" y="537.0332">Specialist Doctor</text><!--MD5=[b0100dfa164aec77c855c16afe11d7ec]
entity LC--><ellipse cx="659" cy="410" fill="#FEFECE" filter="url(#f3tx02nrygpwu)" rx="8" ry="8" style="stroke:#A80036;stroke-width:1.5;"/><path d="M659,418 L659,445 M646,426 L672,426 M659,445 L646,460 M659,445 L672,460 " fill="none" filter="url(#f3tx02nrygpwu)" style="stroke:#A80036;stroke-width:1.5;"/><text fill="#000000" font-family="sans-serif" font-size="14" lengthAdjust="spacing" textLength="148" x="585" y="480.0332">Laboratory Coordinator</text><!--MD5=[fee662a292a0353a69bd162820bae93b]
entity User--><ellipse cx="62" cy="668" fill="#FEFECE" filter="url(#f3tx02nrygpwu)" rx="8" ry="8" style="stroke:#A80036;stroke-width:1.5;"/><path d="M62,676 L62,703 M49,684 L75,684 M62,703 L49,718 M62,703 L75,718 " fill="none" filter="url(#f3tx02nrygpwu)" style="stroke:#A80036;stroke-width:1.5;"/><text fill="#000000" font-family="sans-serif" font-size="14" lengthAdjust="spacing" textLength="29" x="47.5" y="738.0332">User</text><!--MD5=[0ba5ee7700168656dc1b457c6fe9fdac]
entity Client--><ellipse cx="659" cy="292" fill="#FEFECE" filter="url(#f3tx02nrygpwu)" rx="8" ry="8" style="stroke:#A80036;stroke-width:1.5;"/><path d="M659,300 L659,327 M646,308 L672,308 M659,327 L646,342 M659,327 L672,342 " fill="none" filter="url(#f3tx02nrygpwu)" style="stroke:#A80036;stroke-width:1.5;"/><text fill="#000000" font-family="sans-serif" font-size="14" lengthAdjust="spacing" textLength="36" x="641" y="362.0332">Client</text><!--MD5=[5a1786b5e30d1c03d49c57d6b3197434]
entity NHS--><ellipse cx="659" cy="822" fill="#FEFECE" filter="url(#f3tx02nrygpwu)" rx="8" ry="8" style="stroke:#A80036;stroke-width:1.5;"/><path d="M659,830 L659,857 M646,838 L672,838 M659,857 L646,872 M659,857 L672,872 " fill="none" filter="url(#f3tx02nrygpwu)" style="stroke:#A80036;stroke-width:1.5;"/><text fill="#000000" font-family="sans-serif" font-size="14" lengthAdjust="spacing" textLength="27" x="645.5" y="892.0332">NHS</text><!--MD5=[ae1ffe75aad78ec08f72c7afce75d044]
link Receptionist to UC1--><path d="M101.18,98.51 C149.67,104.25 233.9,114.21 290.89,120.95 " fill="none" id="Receptionist-UC1" style="stroke:#A80036;stroke-width:1.0;"/><!--MD5=[15efd0eb678966c0b6b20d0a4a200ded]
link Receptionist to UC2--><path d="M101.18,89.49 C148.83,83.85 230.99,74.13 287.91,67.4 " fill="none" id="Receptionist-UC2" style="stroke:#A80036;stroke-width:1.0;"/><!--MD5=[a5e458ca0e7efe4fa5557b44823e053f]
link UC3 to MLT--><path d="M426.84,197 C488.31,197 573.01,197 620.96,197 " fill="none" id="UC3-MLT" style="stroke:#A80036;stroke-width:1.0;"/><!--MD5=[0af8a168789322cb67d283e9c283da4c]
link CCT to UC4--><path d="M118.09,301.91 C160.16,296.5 218.84,288.94 266.72,282.78 " fill="none" id="CCT-UC4" style="stroke:#A80036;stroke-width:1.0;"/><!--MD5=[52bc5f20303bcb268c08179222897b9f]
link Doctor to UC5--><path d="M115.29,522.34 C127.81,527.34 141.24,532.25 154,536 C194.8,548 241.54,556.99 279.2,563.1 " fill="none" id="Doctor-UC5" style="stroke:#A80036;stroke-width:1.0;"/><!--MD5=[c3cbf0c63ed82a5d0a0584885332cee8]
link User to UC6--><path d="M76.87,697.68 C109.96,692.16 195.75,677.84 262.54,666.69 " fill="none" id="User-UC6" style="stroke:#A80036;stroke-width:1.0;"/><!--MD5=[2f4c32df500e49590e9a4aef56f1f542]
link UC7 to LC--><path d="M453.8,427.3 C496.7,430.38 545.73,433.92 585,436.74 " fill="none" id="UC7-LC" style="stroke:#A80036;stroke-width:1.0;"/><!--MD5=[12da0fdaeace2c57f9712b0f99c4a009]
link UC8 to Client--><path d="M414.69,340.73 C485.87,335.83 598.11,328.12 640.77,325.18 " fill="none" id="UC8-Client" style="stroke:#A80036;stroke-width:1.0;"/><!--MD5=[fb502da31c13f50141e157ed9dc2b26a]
link UC8 to MLT--><path d="M417.17,345.39 C457.6,342.95 509.33,334.73 549,311 C571.28,297.67 567.45,284.13 585,265 C596.12,252.88 609.05,240.39 620.9,229.47 " fill="none" id="UC8-MLT" style="stroke:#A80036;stroke-width:1.0;"/><!--MD5=[0a0f09c9d3803544060c844e94dfab16]
link CCT to UC8--><path d="M118.09,315.9 C168.31,322.19 242.21,331.44 293.13,337.82 " fill="none" id="CCT-UC8" style="stroke:#A80036;stroke-width:1.0;"/><!--MD5=[1dbde82a15218753beeac9dd29dfe602]
link UC8 to LC--><path d="M414.16,349.55 C453.64,353.86 505.44,362.16 549,378 C564.88,383.77 581.07,391.86 595.94,400.35 " fill="none" id="UC8-LC" style="stroke:#A80036;stroke-width:1.0;"/><!--MD5=[1d70908601ef91a384a9524d01a792db]
link Doctor to UC8--><path d="M83.59,457.29 C99.16,430.29 123.12,396.77 154,378 C193.61,353.92 245.59,346.01 286.14,343.94 " fill="none" id="Doctor-UC8" style="stroke:#A80036;stroke-width:1.0;"/><!--MD5=[dd61da65488dc98c118a5c0809430a5b]
link User to UC9--><path d="M76.87,702.36 C102.5,706.73 159.75,716.49 215.3,725.96 " fill="none" id="User-UC9" style="stroke:#A80036;stroke-width:1.0;"/><!--MD5=[e86ec0b9a736994e2f6f5509cae16ecb]
link Doctor to UC10--><path d="M115.06,499 C156.49,499 215.35,499 263.85,499 " fill="none" id="Doctor-UC10" style="stroke:#A80036;stroke-width:1.0;"/><!--MD5=[1dfaf833f5186338606ce8dca19916ef]
link UC11 to NHS--><path d="M504.8,854 C561.9,854 619.07,854 644.43,854 " fill="none" id="UC11-NHS" style="stroke:#A80036;stroke-width:1.0;"/><!--MD5=[fc7e536c9bb30a2e480edcca6b7ed791]
@startuml
'https://plantuml.com/use-case-diagram

left to right direction
skinparam packageStyle rectangle
'Actors
:Receptionist:
:Medical Lab\n Technician: as MLT
:Clinical Chemistry\n Technologist: as CCT
:Specialist Doctor: as Doctor
:Laboratory Coordinator: as LC
:User:
:Client:
:NHS:

package Application {
    (Register test) as UC1
    (Register client) as UC2
    (Register sample) as UC3
    (Register analysis results) as UC4
    (Generate diagnosis) as UC5
    (Choose client sorting method) as UC6
    (Validate the clinical analysis) as UC7
    (View results) as UC8
    (View statistics for number of tests waiting for result) as UC9
    (Access all client data) as UC10
    (Get feedback from the Covid-19 tests made) as UC11
}

'Use Cases
Receptionist - - UC1
Receptionist - - UC2
UC3 - - MLT
CCT - - UC4
Doctor - - UC5
User - - UC6
UC7 - - LC
UC8 - - Client
UC8 - - MLT
CCT - - UC8
UC8 - - LC
Doctor - - UC8
User - - UC9
Doctor - - UC10
UC11 - - NHS
@enduml

@startuml

left to right direction
skinparam packageStyle rectangle
:Receptionist:
:Medical Lab\n Technician: as MLT
:Clinical Chemistry\n Technologist: as CCT
:Specialist Doctor: as Doctor
:Laboratory Coordinator: as LC
:User:
:Client:
:NHS:

package Application {
    (Register test) as UC1
    (Register client) as UC2
    (Register sample) as UC3
    (Register analysis results) as UC4
    (Generate diagnosis) as UC5
    (Choose client sorting method) as UC6
    (Validate the clinical analysis) as UC7
    (View results) as UC8
    (View statistics for number of tests waiting for result) as UC9
    (Access all client data) as UC10
    (Get feedback from the Covid-19 tests made) as UC11
}

Receptionist - - UC1
Receptionist - - UC2
UC3 - - MLT
CCT - - UC4
Doctor - - UC5
User - - UC6
UC7 - - LC
UC8 - - Client
UC8 - - MLT
CCT - - UC8
UC8 - - LC
Doctor - - UC8
User - - UC9
Doctor - - UC10
UC11 - - NHS
@enduml

PlantUML version 1.2021.2(Sun Mar 07 11:10:27 GMT 2021)
(GPL source distribution)
Java Runtime: OpenJDK Runtime Environment
JVM: OpenJDK 64-Bit Server VM
Default Encoding: Cp1252
Language: pt
Country: PT
--></g></svg>