<?xml version="1.0" encoding="UTF-8" standalone="no"?><svg xmlns="http://www.w3.org/2000/svg" xmlns:xlink="http://www.w3.org/1999/xlink" contentScriptType="application/ecmascript" contentStyleType="text/css" height="1157px" preserveAspectRatio="none" style="width:740px;height:1157px;" version="1.1" viewBox="0 0 740 1157" width="740px" zoomAndPan="magnify"><defs><filter height="300%" id="f1uoplxd1xjluy" width="300%" x="-1" y="-1"><feGaussianBlur result="blurOut" stdDeviation="2.0"/><feColorMatrix in="blurOut" result="blurOut2" type="matrix" values="0 0 0 0 0 0 0 0 0 0 0 0 0 0 0 0 0 0 .4 0"/><feOffset dx="4.0" dy="4.0" in="blurOut2" result="blurOut3"/><feBlend in="SourceGraphic" in2="blurOut3" mode="normal"/></filter></defs><g><!--MD5=[d64883541e3d62e3241c4d12decf100d]
cluster Application--><rect fill="#FFFFFF" filter="url(#f1uoplxd1xjluy)" height="1138" style="stroke:#000000;stroke-width:1.5;" width="379" x="162" y="7"/><text fill="#000000" font-family="sans-serif" font-size="14" font-weight="bold" lengthAdjust="spacing" textLength="78" x="312.5" y="23.5332">Application</text><ellipse cx="351.4169" cy="58.8834" fill="#FEFECE" filter="url(#f1uoplxd1xjluy)" rx="67.4169" ry="15.8834" style="stroke:#A80036;stroke-width:1.5;"/><text fill="#000000" font-family="sans-serif" font-size="14" lengthAdjust="spacing" textLength="80" x="308.4169" y="63.4">Register test</text><ellipse cx="351.3567" cy="127.0713" fill="#FEFECE" filter="url(#f1uoplxd1xjluy)" rx="70.8567" ry="16.5713" style="stroke:#A80036;stroke-width:1.5;"/><text fill="#000000" font-family="sans-serif" font-size="14" lengthAdjust="spacing" textLength="90" x="303.3567" y="131.5879">Register client</text><ellipse cx="351.7256" cy="195.9451" fill="#FEFECE" filter="url(#f1uoplxd1xjluy)" rx="75.2256" ry="17.4451" style="stroke:#A80036;stroke-width:1.5;"/><text fill="#000000" font-family="sans-serif" font-size="14" lengthAdjust="spacing" textLength="102" x="297.7256" y="200.4617">Register sample</text><ellipse cx="351.4525" cy="270.7905" fill="#FEFECE" filter="url(#f1uoplxd1xjluy)" rx="96.9525" ry="21.7905" style="stroke:#A80036;stroke-width:1.5;"/><text fill="#000000" font-family="sans-serif" font-size="14" lengthAdjust="spacing" textLength="154" x="274.4525" y="274.519">Register analysis results</text><ellipse cx="351.5066" cy="572.2013" fill="#FEFECE" filter="url(#f1uoplxd1xjluy)" rx="84.0066" ry="19.2013" style="stroke:#A80036;stroke-width:1.5;"/><text fill="#000000" font-family="sans-serif" font-size="14" lengthAdjust="spacing" textLength="124" x="289.5066" y="575.9298">Generate diagnosis</text><ellipse cx="351.434" cy="650.9868" fill="#FEFECE" filter="url(#f1uoplxd1xjluy)" rx="110.434" ry="24.4868" style="stroke:#A80036;stroke-width:1.5;"/><text fill="#000000" font-family="sans-serif" font-size="14" lengthAdjust="spacing" textLength="184" x="259.434" y="654.7153">Choose client sorting method</text><ellipse cx="351.2982" cy="493.7596" fill="#FEFECE" filter="url(#f1uoplxd1xjluy)" rx="106.7982" ry="23.7596" style="stroke:#A80036;stroke-width:1.5;"/><text fill="#000000" font-family="sans-serif" font-size="14" lengthAdjust="spacing" textLength="176" x="263.2982" y="497.4882">Validate the clinical analysis</text><ellipse cx="351.341" cy="344.1182" fill="#FEFECE" filter="url(#f1uoplxd1xjluy)" rx="65.341" ry="15.6182" style="stroke:#A80036;stroke-width:1.5;"/><text fill="#000000" font-family="sans-serif" font-size="14" lengthAdjust="spacing" textLength="75" x="310.841" y="348.6348">View results</text><ellipse cx="351.2889" cy="748.0578" fill="#FEFECE" filter="url(#f1uoplxd1xjluy)" rx="173.2889" ry="37.0578" style="stroke:#A80036;stroke-width:1.5;"/><text fill="#000000" font-family="sans-serif" font-size="14" lengthAdjust="spacing" textLength="317" x="192.7889" y="751.7863">View statistics for number of tests waiting for result</text><ellipse cx="351.3923" cy="414.8785" fill="#FEFECE" filter="url(#f1uoplxd1xjluy)" rx="87.3923" ry="19.8785" style="stroke:#A80036;stroke-width:1.5;"/><text fill="#000000" font-family="sans-serif" font-size="14" lengthAdjust="spacing" textLength="132" x="285.3923" y="418.607">Access all client data</text><ellipse cx="351.601" cy="853.0202" fill="#FEFECE" filter="url(#f1uoplxd1xjluy)" rx="153.101" ry="33.0202" style="stroke:#A80036;stroke-width:1.5;"/><text fill="#000000" font-family="sans-serif" font-size="14" lengthAdjust="spacing" textLength="275" x="214.101" y="856.7487">Get feedback from the Covid-19 tests made</text><ellipse cx="351.7256" cy="1110.9451" fill="#FEFECE" filter="url(#f1uoplxd1xjluy)" rx="75.2256" ry="17.4451" style="stroke:#A80036;stroke-width:1.5;"/><text fill="#000000" font-family="sans-serif" font-size="14" lengthAdjust="spacing" textLength="102" x="297.7256" y="1115.4617">Specify new test</text><ellipse cx="351.5397" cy="944.8079" fill="#FEFECE" filter="url(#f1uoplxd1xjluy)" rx="104.5397" ry="23.3079" style="stroke:#A80036;stroke-width:1.5;"/><text fill="#000000" font-family="sans-serif" font-size="14" lengthAdjust="spacing" textLength="171" x="266.0397" y="948.5365">Specify new test parameter</text><ellipse cx="351.7387" cy="1030.8477" fill="#FEFECE" filter="url(#f1uoplxd1xjluy)" rx="124.7387" ry="27.3477" style="stroke:#A80036;stroke-width:1.5;"/><text fill="#000000" font-family="sans-serif" font-size="14" lengthAdjust="spacing" textLength="215" x="244.2387" y="1034.5763">Specify a new parameter category</text><!--MD5=[87a04b683345c3cce94ac9a6e159ab2f]
entity Receptionist--><ellipse cx="62" cy="61" fill="#FEFECE" filter="url(#f1uoplxd1xjluy)" rx="8" ry="8" style="stroke:#A80036;stroke-width:1.5;"/><path d="M62,69 L62,96 M49,77 L75,77 M62,96 L49,111 M62,96 L75,111 " fill="none" filter="url(#f1uoplxd1xjluy)" style="stroke:#A80036;stroke-width:1.5;"/><text fill="#000000" font-family="sans-serif" font-size="14" lengthAdjust="spacing" textLength="78" x="23" y="131.0332">Receptionist</text><!--MD5=[e7d38603a700bedb049d1f5e1789c8aa]
entity MLT--><ellipse cx="659" cy="166.5" fill="#FEFECE" filter="url(#f1uoplxd1xjluy)" rx="8" ry="8" style="stroke:#A80036;stroke-width:1.5;"/><path d="M659,174.5 L659,201.5 M646,182.5 L672,182.5 M659,201.5 L646,216.5 M659,201.5 L672,216.5 " fill="none" filter="url(#f1uoplxd1xjluy)" style="stroke:#A80036;stroke-width:1.5;"/><text fill="#000000" font-family="sans-serif" font-size="14" lengthAdjust="spacing" textLength="76" x="621" y="236.5332">Medical Lab</text><text fill="#000000" font-family="sans-serif" font-size="14" lengthAdjust="spacing" textLength="69" x="625" y="254.1426">Technician</text><!--MD5=[234b11d210a3d78b3bcac40f493e1b07]
entity CCT--><ellipse cx="62" cy="238.5" fill="#FEFECE" filter="url(#f1uoplxd1xjluy)" rx="8" ry="8" style="stroke:#A80036;stroke-width:1.5;"/><path d="M62,246.5 L62,273.5 M49,254.5 L75,254.5 M62,273.5 L49,288.5 M62,273.5 L75,288.5 " fill="none" filter="url(#f1uoplxd1xjluy)" style="stroke:#A80036;stroke-width:1.5;"/><text fill="#000000" font-family="sans-serif" font-size="14" lengthAdjust="spacing" textLength="112" x="6" y="308.5332">Clinical Chemistry</text><text fill="#000000" font-family="sans-serif" font-size="14" lengthAdjust="spacing" textLength="81" x="10" y="326.1426">Technologist</text><!--MD5=[5a5d35bcfc46556bdff8e646cc6c81c2]
entity Doctor--><ellipse cx="62" cy="383" fill="#FEFECE" filter="url(#f1uoplxd1xjluy)" rx="8" ry="8" style="stroke:#A80036;stroke-width:1.5;"/><path d="M62,391 L62,418 M49,399 L75,399 M62,418 L49,433 M62,418 L75,433 " fill="none" filter="url(#f1uoplxd1xjluy)" style="stroke:#A80036;stroke-width:1.5;"/><text fill="#000000" font-family="sans-serif" font-size="14" lengthAdjust="spacing" textLength="106" x="9" y="453.0332">Specialist Doctor</text><!--MD5=[b0100dfa164aec77c855c16afe11d7ec]
entity LC--><ellipse cx="659" cy="446" fill="#FEFECE" filter="url(#f1uoplxd1xjluy)" rx="8" ry="8" style="stroke:#A80036;stroke-width:1.5;"/><path d="M659,454 L659,481 M646,462 L672,462 M659,481 L646,496 M659,481 L672,496 " fill="none" filter="url(#f1uoplxd1xjluy)" style="stroke:#A80036;stroke-width:1.5;"/><text fill="#000000" font-family="sans-serif" font-size="14" lengthAdjust="spacing" textLength="148" x="585" y="516.0332">Laboratory Coordinator</text><!--MD5=[fee662a292a0353a69bd162820bae93b]
entity User--><ellipse cx="62" cy="668" fill="#FEFECE" filter="url(#f1uoplxd1xjluy)" rx="8" ry="8" style="stroke:#A80036;stroke-width:1.5;"/><path d="M62,676 L62,703 M49,684 L75,684 M62,703 L49,718 M62,703 L75,718 " fill="none" filter="url(#f1uoplxd1xjluy)" style="stroke:#A80036;stroke-width:1.5;"/><text fill="#000000" font-family="sans-serif" font-size="14" lengthAdjust="spacing" textLength="29" x="47.5" y="738.0332">User</text><!--MD5=[0ba5ee7700168656dc1b457c6fe9fdac]
entity Client--><ellipse cx="659" cy="312" fill="#FEFECE" filter="url(#f1uoplxd1xjluy)" rx="8" ry="8" style="stroke:#A80036;stroke-width:1.5;"/><path d="M659,320 L659,347 M646,328 L672,328 M659,347 L646,362 M659,347 L672,362 " fill="none" filter="url(#f1uoplxd1xjluy)" style="stroke:#A80036;stroke-width:1.5;"/><text fill="#000000" font-family="sans-serif" font-size="14" lengthAdjust="spacing" textLength="36" x="641" y="382.0332">Client</text><!--MD5=[5a1786b5e30d1c03d49c57d6b3197434]
entity NHS--><ellipse cx="659" cy="821" fill="#FEFECE" filter="url(#f1uoplxd1xjluy)" rx="8" ry="8" style="stroke:#A80036;stroke-width:1.5;"/><path d="M659,829 L659,856 M646,837 L672,837 M659,856 L646,871 M659,856 L672,871 " fill="none" filter="url(#f1uoplxd1xjluy)" style="stroke:#A80036;stroke-width:1.5;"/><text fill="#000000" font-family="sans-serif" font-size="14" lengthAdjust="spacing" textLength="27" x="645.5" y="891.0332">NHS</text><!--MD5=[62529e7d5259bf274c3bf3e446350d88]
entity Administrator--><ellipse cx="62" cy="999" fill="#FEFECE" filter="url(#f1uoplxd1xjluy)" rx="8" ry="8" style="stroke:#A80036;stroke-width:1.5;"/><path d="M62,1007 L62,1034 M49,1015 L75,1015 M62,1034 L49,1049 M62,1034 L75,1049 " fill="none" filter="url(#f1uoplxd1xjluy)" style="stroke:#A80036;stroke-width:1.5;"/><text fill="#000000" font-family="sans-serif" font-size="14" lengthAdjust="spacing" textLength="83" x="20.5" y="1069.0332">Administrator</text><!--MD5=[ae1ffe75aad78ec08f72c7afce75d044]
link Receptionist to UC1--><path d="M101.18,88.49 C149.67,82.75 233.9,72.79 290.89,66.05 " fill="none" id="Receptionist-UC1" style="stroke:#A80036;stroke-width:1.0;"/><!--MD5=[15efd0eb678966c0b6b20d0a4a200ded]
link Receptionist to UC2--><path d="M101.18,97.51 C148.83,103.15 230.99,112.87 287.91,119.6 " fill="none" id="Receptionist-UC2" style="stroke:#A80036;stroke-width:1.0;"/><!--MD5=[a5e458ca0e7efe4fa5557b44823e053f]
link UC3 to MLT--><path d="M425.67,198.63 C487.1,200.85 572.36,203.92 620.67,205.66 " fill="none" id="UC3-MLT" style="stroke:#A80036;stroke-width:1.0;"/><!--MD5=[0af8a168789322cb67d283e9c283da4c]
link CCT to UC4--><path d="M118.09,277.47 C156.82,276.39 209.62,274.92 255.11,273.65 " fill="none" id="CCT-UC4" style="stroke:#A80036;stroke-width:1.0;"/><!--MD5=[52bc5f20303bcb268c08179222897b9f]
link Doctor to UC5--><path d="M84.13,456.76 C99.79,483.35 123.65,516.22 154,535 C187.8,555.91 230.68,565.52 267.74,569.75 " fill="none" id="Doctor-UC5" style="stroke:#A80036;stroke-width:1.0;"/><!--MD5=[c3cbf0c63ed82a5d0a0584885332cee8]
link User to UC6--><path d="M76.87,697.64 C110.07,691.98 196.34,677.27 263.22,665.88 " fill="none" id="User-UC6" style="stroke:#A80036;stroke-width:1.0;"/><!--MD5=[2f4c32df500e49590e9a4aef56f1f542]
link UC7 to LC--><path d="M455.93,488.58 C498.17,486.37 546.04,483.86 584.58,481.85 " fill="none" id="UC7-LC" style="stroke:#A80036;stroke-width:1.0;"/><!--MD5=[12da0fdaeace2c57f9712b0f99c4a009]
link UC8 to Client--><path d="M417.29,344 C488.57,344 598.63,344 640.78,344 " fill="none" id="UC8-Client" style="stroke:#A80036;stroke-width:1.0;"/><!--MD5=[fb502da31c13f50141e157ed9dc2b26a]
link UC8 to MLT--><path d="M416.93,342.24 C456.78,338.92 507.98,330.54 549,310 C565.24,301.87 596.15,272.02 620.91,246.53 " fill="none" id="UC8-MLT" style="stroke:#A80036;stroke-width:1.0;"/><!--MD5=[0a0f09c9d3803544060c844e94dfab16]
link CCT to UC8--><path d="M118.41,299.42 C130.06,303.28 142.36,307.03 154,310 C200.46,321.86 254.17,330.83 293.68,336.58 " fill="none" id="CCT-UC8" style="stroke:#A80036;stroke-width:1.0;"/><!--MD5=[1dbde82a15218753beeac9dd29dfe602]
link UC8 to LC--><path d="M416.85,345.51 C456.67,348.65 507.87,356.78 549,377 C564.51,384.62 593.65,411.94 617.9,436.24 " fill="none" id="UC8-LC" style="stroke:#A80036;stroke-width:1.0;"/><!--MD5=[1d70908601ef91a384a9524d01a792db]
link Doctor to UC8--><path d="M115.2,390.8 C127.71,385.68 141.17,380.7 154,377 C199.2,363.95 251.83,355.46 291.24,350.36 " fill="none" id="Doctor-UC8" style="stroke:#A80036;stroke-width:1.0;"/><!--MD5=[dd61da65488dc98c118a5c0809430a5b]
link User to UC9--><path d="M76.87,702.32 C102.33,706.57 159,716.03 214.2,725.24 " fill="none" id="User-UC9" style="stroke:#A80036;stroke-width:1.0;"/><!--MD5=[e86ec0b9a736994e2f6f5509cae16ecb]
link Doctor to UC10--><path d="M115.06,415 C156.49,415 215.35,415 263.85,415 " fill="none" id="Doctor-UC10" style="stroke:#A80036;stroke-width:1.0;"/><!--MD5=[1dfaf833f5186338606ce8dca19916ef]
link UC11 to NHS--><path d="M504.8,853 C561.9,853 619.07,853 644.43,853 " fill="none" id="UC11-NHS" style="stroke:#A80036;stroke-width:1.0;"/><!--MD5=[9a8ec91457bdbdd11bcf4d995105943b]
link Administrator to UC12--><path d="M103.63,1054.16 C119.01,1062.1 136.92,1070.38 154,1076 C195.8,1089.75 244.49,1098.47 282.94,1103.77 " fill="none" id="Administrator-UC12" style="stroke:#A80036;stroke-width:1.0;"/><!--MD5=[279a83dbfe76f284cd6a3391181339e4]
link Administrator to UC13--><path d="M103.72,1008.11 C119.11,1000.2 137.01,991.87 154,986 C189.25,973.83 229.36,964.67 264.11,958.13 " fill="none" id="Administrator-UC13" style="stroke:#A80036;stroke-width:1.0;"/><!--MD5=[94b9b3f4b26fd95ef878f7b442ebc71b]
link Administrator to UC14--><path d="M103.58,1031 C135.78,1031 182.56,1031 226.78,1031 " fill="none" id="Administrator-UC14" style="stroke:#A80036;stroke-width:1.0;"/><!--MD5=[15247894f26110a76b5584bdd27306e0]
@startuml
'https://plantuml.com/use-case-diagram

left to right direction
skinparam packageStyle rectangle
'Actors
:Receptionist:
:Medical Lab\n Technician: as MLT
:Clinical Chemistry\n Technologist: as CCT
:Specialist Doctor: as Doctor
:Laboratory Coordinator: as LC
:User:
:Client:
:NHS:
:Administrator:

package Application {
    (Register test) as UC1
    (Register client) as UC2
    (Register sample) as UC3
    (Register analysis results) as UC4
    (Generate diagnosis) as UC5
    (Choose client sorting method) as UC6
    (Validate the clinical analysis) as UC7
    (View results) as UC8
    (View statistics for number of tests waiting for result) as UC9
    (Access all client data) as UC10
    (Get feedback from the Covid-19 tests made) as UC11
    (Specify new test) as UC12
    (Specify new test parameter) as UC13
    (Specify a new parameter category) as UC14
}

'Use Cases
Receptionist - - UC1
Receptionist - - UC2
UC3 - - MLT
CCT - - UC4
Doctor - - UC5
User - - UC6
UC7 - - LC
UC8 - - Client
UC8 - - MLT
CCT - - UC8
UC8 - - LC
Doctor - - UC8
User - - UC9
Doctor - - UC10
UC11 - - NHS
Administrator - - UC12
Administrator - - UC13
Administrator - - UC14
@enduml

@startuml

left to right direction
skinparam packageStyle rectangle
:Receptionist:
:Medical Lab\n Technician: as MLT
:Clinical Chemistry\n Technologist: as CCT
:Specialist Doctor: as Doctor
:Laboratory Coordinator: as LC
:User:
:Client:
:NHS:
:Administrator:

package Application {
    (Register test) as UC1
    (Register client) as UC2
    (Register sample) as UC3
    (Register analysis results) as UC4
    (Generate diagnosis) as UC5
    (Choose client sorting method) as UC6
    (Validate the clinical analysis) as UC7
    (View results) as UC8
    (View statistics for number of tests waiting for result) as UC9
    (Access all client data) as UC10
    (Get feedback from the Covid-19 tests made) as UC11
    (Specify new test) as UC12
    (Specify new test parameter) as UC13
    (Specify a new parameter category) as UC14
}

Receptionist - - UC1
Receptionist - - UC2
UC3 - - MLT
CCT - - UC4
Doctor - - UC5
User - - UC6
UC7 - - LC
UC8 - - Client
UC8 - - MLT
CCT - - UC8
UC8 - - LC
Doctor - - UC8
User - - UC9
Doctor - - UC10
UC11 - - NHS
Administrator - - UC12
Administrator - - UC13
Administrator - - UC14
@enduml

PlantUML version 1.2021.2(Sun Mar 07 11:10:27 GMT 2021)
(GPL source distribution)
Java Runtime: OpenJDK Runtime Environment
JVM: OpenJDK 64-Bit Server VM
Default Encoding: Cp1252
Language: pt
Country: PT
--></g></svg>