<?xml version="1.0" encoding="UTF-8" standalone="no"?><svg xmlns="http://www.w3.org/2000/svg" xmlns:xlink="http://www.w3.org/1999/xlink" contentScriptType="application/ecmascript" contentStyleType="text/css" height="1205px" preserveAspectRatio="none" style="width:740px;height:1205px;" version="1.1" viewBox="0 0 740 1205" width="740px" zoomAndPan="magnify"><defs><filter height="300%" id="f1ft36qcpmen9t" width="300%" x="-1" y="-1"><feGaussianBlur result="blurOut" stdDeviation="2.0"/><feColorMatrix in="blurOut" result="blurOut2" type="matrix" values="0 0 0 0 0 0 0 0 0 0 0 0 0 0 0 0 0 0 .4 0"/><feOffset dx="4.0" dy="4.0" in="blurOut2" result="blurOut3"/><feBlend in="SourceGraphic" in2="blurOut3" mode="normal"/></filter></defs><g><!--MD5=[d64883541e3d62e3241c4d12decf100d]
cluster Application--><rect fill="#FFFFFF" filter="url(#f1ft36qcpmen9t)" height="1179" style="stroke:#000000;stroke-width:1.5;" width="379" x="162" y="7"/><text fill="#000000" font-family="sans-serif" font-size="14" font-weight="bold" lengthAdjust="spacing" textLength="78" x="312.5" y="23.5332">Application</text><ellipse cx="351.4169" cy="127.8834" fill="#FEFECE" filter="url(#f1ft36qcpmen9t)" rx="67.4169" ry="15.8834" style="stroke:#A80036;stroke-width:1.5;"/><text fill="#000000" font-family="sans-serif" font-size="14" lengthAdjust="spacing" textLength="80" x="308.4169" y="132.4">Register test</text><ellipse cx="351.3567" cy="60.0713" fill="#FEFECE" filter="url(#f1ft36qcpmen9t)" rx="70.8567" ry="16.5713" style="stroke:#A80036;stroke-width:1.5;"/><text fill="#000000" font-family="sans-serif" font-size="14" lengthAdjust="spacing" textLength="90" x="303.3567" y="64.5879">Register client</text><ellipse cx="351.7256" cy="608.9451" fill="#FEFECE" filter="url(#f1ft36qcpmen9t)" rx="75.2256" ry="17.4451" style="stroke:#A80036;stroke-width:1.5;"/><text fill="#000000" font-family="sans-serif" font-size="14" lengthAdjust="spacing" textLength="102" x="297.7256" y="613.4617">Register sample</text><ellipse cx="351.4525" cy="309.7905" fill="#FEFECE" filter="url(#f1ft36qcpmen9t)" rx="96.9525" ry="21.7905" style="stroke:#A80036;stroke-width:1.5;"/><text fill="#000000" font-family="sans-serif" font-size="14" lengthAdjust="spacing" textLength="154" x="274.4525" y="313.519">Register analysis results</text><ellipse cx="351.5066" cy="386.2013" fill="#FEFECE" filter="url(#f1ft36qcpmen9t)" rx="84.0066" ry="19.2013" style="stroke:#A80036;stroke-width:1.5;"/><text fill="#000000" font-family="sans-serif" font-size="14" lengthAdjust="spacing" textLength="124" x="289.5066" y="389.9298">Generate diagnosis</text><ellipse cx="351.434" cy="917.9868" fill="#FEFECE" filter="url(#f1ft36qcpmen9t)" rx="110.434" ry="24.4868" style="stroke:#A80036;stroke-width:1.5;"/><text fill="#000000" font-family="sans-serif" font-size="14" lengthAdjust="spacing" textLength="184" x="259.434" y="921.7153">Choose client sorting method</text><ellipse cx="351.2982" cy="463.7596" fill="#FEFECE" filter="url(#f1ft36qcpmen9t)" rx="106.7982" ry="23.7596" style="stroke:#A80036;stroke-width:1.5;"/><text fill="#000000" font-family="sans-serif" font-size="14" lengthAdjust="spacing" textLength="176" x="263.2982" y="467.4882">Validate the clinical analysis</text><ellipse cx="351.341" cy="753.1182" fill="#FEFECE" filter="url(#f1ft36qcpmen9t)" rx="65.341" ry="15.6182" style="stroke:#A80036;stroke-width:1.5;"/><text fill="#000000" font-family="sans-serif" font-size="14" lengthAdjust="spacing" textLength="75" x="310.841" y="757.6348">View results</text><ellipse cx="351.457" cy="539.7914" fill="#FEFECE" filter="url(#f1ft36qcpmen9t)" rx="69.457" ry="16.2914" style="stroke:#A80036;stroke-width:1.5;"/><text fill="#000000" font-family="sans-serif" font-size="14" lengthAdjust="spacing" textLength="86" x="305.457" y="544.308">Check results</text><ellipse cx="351.2889" cy="216.0578" fill="#FEFECE" filter="url(#f1ft36qcpmen9t)" rx="173.2889" ry="37.0578" style="stroke:#A80036;stroke-width:1.5;"/><text fill="#000000" font-family="sans-serif" font-size="14" lengthAdjust="spacing" textLength="317" x="192.7889" y="219.7863">View statistics for number of tests waiting for result</text><ellipse cx="351.3923" cy="681.8785" fill="#FEFECE" filter="url(#f1ft36qcpmen9t)" rx="87.3923" ry="19.8785" style="stroke:#A80036;stroke-width:1.5;"/><text fill="#000000" font-family="sans-serif" font-size="14" lengthAdjust="spacing" textLength="132" x="285.3923" y="685.607">Access all client data</text><ellipse cx="351.3193" cy="1149.9639" fill="#FEFECE" filter="url(#f1ft36qcpmen9t)" rx="87.8193" ry="19.9639" style="stroke:#A80036;stroke-width:1.5;"/><text fill="#000000" font-family="sans-serif" font-size="14" lengthAdjust="spacing" textLength="133" x="284.8193" y="1153.6924">Generate NHS report</text><ellipse cx="351.7256" cy="994.9451" fill="#FEFECE" filter="url(#f1ft36qcpmen9t)" rx="75.2256" ry="17.4451" style="stroke:#A80036;stroke-width:1.5;"/><text fill="#000000" font-family="sans-serif" font-size="14" lengthAdjust="spacing" textLength="102" x="297.7256" y="999.4617">Specify new test</text><ellipse cx="351.5397" cy="1070.8079" fill="#FEFECE" filter="url(#f1ft36qcpmen9t)" rx="104.5397" ry="23.3079" style="stroke:#A80036;stroke-width:1.5;"/><text fill="#000000" font-family="sans-serif" font-size="14" lengthAdjust="spacing" textLength="171" x="266.0397" y="1074.5365">Specify new test parameter</text><ellipse cx="351.7387" cy="830.8477" fill="#FEFECE" filter="url(#f1ft36qcpmen9t)" rx="124.7387" ry="27.3477" style="stroke:#A80036;stroke-width:1.5;"/><text fill="#000000" font-family="sans-serif" font-size="14" lengthAdjust="spacing" textLength="215" x="244.2387" y="834.5763">Specify a new parameter category</text><!--MD5=[87a04b683345c3cce94ac9a6e159ab2f]
entity Receptionist--><ellipse cx="62" cy="62" fill="#FEFECE" filter="url(#f1ft36qcpmen9t)" rx="8" ry="8" style="stroke:#A80036;stroke-width:1.5;"/><path d="M62,70 L62,97 M49,78 L75,78 M62,97 L49,112 M62,97 L75,112 " fill="none" filter="url(#f1ft36qcpmen9t)" style="stroke:#A80036;stroke-width:1.5;"/><text fill="#000000" font-family="sans-serif" font-size="14" lengthAdjust="spacing" textLength="78" x="23" y="132.0332">Receptionist</text><!--MD5=[e7d38603a700bedb049d1f5e1789c8aa]
entity MLT--><ellipse cx="659" cy="559.5" fill="#FEFECE" filter="url(#f1ft36qcpmen9t)" rx="8" ry="8" style="stroke:#A80036;stroke-width:1.5;"/><path d="M659,567.5 L659,594.5 M646,575.5 L672,575.5 M659,594.5 L646,609.5 M659,594.5 L672,609.5 " fill="none" filter="url(#f1ft36qcpmen9t)" style="stroke:#A80036;stroke-width:1.5;"/><text fill="#000000" font-family="sans-serif" font-size="14" lengthAdjust="spacing" textLength="76" x="621" y="629.5332">Medical Lab</text><text fill="#000000" font-family="sans-serif" font-size="14" lengthAdjust="spacing" textLength="69" x="625" y="647.1426">Technician</text><!--MD5=[234b11d210a3d78b3bcac40f493e1b07]
entity CCT--><ellipse cx="62" cy="320.5" fill="#FEFECE" filter="url(#f1ft36qcpmen9t)" rx="8" ry="8" style="stroke:#A80036;stroke-width:1.5;"/><path d="M62,328.5 L62,355.5 M49,336.5 L75,336.5 M62,355.5 L49,370.5 M62,355.5 L75,370.5 " fill="none" filter="url(#f1ft36qcpmen9t)" style="stroke:#A80036;stroke-width:1.5;"/><text fill="#000000" font-family="sans-serif" font-size="14" lengthAdjust="spacing" textLength="112" x="6" y="390.5332">Clinical Chemistry</text><text fill="#000000" font-family="sans-serif" font-size="14" lengthAdjust="spacing" textLength="81" x="10" y="408.1426">Technologist</text><!--MD5=[5a5d35bcfc46556bdff8e646cc6c81c2]
entity Doctor--><ellipse cx="62" cy="482" fill="#FEFECE" filter="url(#f1ft36qcpmen9t)" rx="8" ry="8" style="stroke:#A80036;stroke-width:1.5;"/><path d="M62,490 L62,517 M49,498 L75,498 M62,517 L49,532 M62,517 L75,532 " fill="none" filter="url(#f1ft36qcpmen9t)" style="stroke:#A80036;stroke-width:1.5;"/><text fill="#000000" font-family="sans-serif" font-size="14" lengthAdjust="spacing" textLength="106" x="9" y="552.0332">Specialist Doctor</text><!--MD5=[b0100dfa164aec77c855c16afe11d7ec]
entity LC--><ellipse cx="659" cy="432" fill="#FEFECE" filter="url(#f1ft36qcpmen9t)" rx="8" ry="8" style="stroke:#A80036;stroke-width:1.5;"/><path d="M659,440 L659,467 M646,448 L672,448 M659,467 L646,482 M659,467 L672,482 " fill="none" filter="url(#f1ft36qcpmen9t)" style="stroke:#A80036;stroke-width:1.5;"/><text fill="#000000" font-family="sans-serif" font-size="14" lengthAdjust="spacing" textLength="148" x="585" y="502.0332">Laboratory Coordinator</text><!--MD5=[fee662a292a0353a69bd162820bae93b]
entity User--><ellipse cx="62" cy="600" fill="#FEFECE" filter="url(#f1ft36qcpmen9t)" rx="8" ry="8" style="stroke:#A80036;stroke-width:1.5;"/><path d="M62,608 L62,635 M49,616 L75,616 M62,635 L49,650 M62,635 L75,650 " fill="none" filter="url(#f1ft36qcpmen9t)" style="stroke:#A80036;stroke-width:1.5;"/><text fill="#000000" font-family="sans-serif" font-size="14" lengthAdjust="spacing" textLength="29" x="47.5" y="670.0332">User</text><!--MD5=[0ba5ee7700168656dc1b457c6fe9fdac]
entity Client--><ellipse cx="659" cy="721" fill="#FEFECE" filter="url(#f1ft36qcpmen9t)" rx="8" ry="8" style="stroke:#A80036;stroke-width:1.5;"/><path d="M659,729 L659,756 M646,737 L672,737 M659,756 L646,771 M659,756 L672,771 " fill="none" filter="url(#f1ft36qcpmen9t)" style="stroke:#A80036;stroke-width:1.5;"/><text fill="#000000" font-family="sans-serif" font-size="14" lengthAdjust="spacing" textLength="36" x="641" y="791.0332">Client</text><!--MD5=[62529e7d5259bf274c3bf3e446350d88]
entity Administrator--><ellipse cx="62" cy="886" fill="#FEFECE" filter="url(#f1ft36qcpmen9t)" rx="8" ry="8" style="stroke:#A80036;stroke-width:1.5;"/><path d="M62,894 L62,921 M49,902 L75,902 M62,921 L49,936 M62,921 L75,936 " fill="none" filter="url(#f1ft36qcpmen9t)" style="stroke:#A80036;stroke-width:1.5;"/><text fill="#000000" font-family="sans-serif" font-size="14" lengthAdjust="spacing" textLength="83" x="20.5" y="956.0332">Administrator</text><!--MD5=[8deeff1cfa66d96b67ddb5a2a7f9c862]
entity Clock--><ellipse cx="62" cy="1109.5" fill="#FEFECE" filter="url(#f1ft36qcpmen9t)" rx="8" ry="8" style="stroke:#A80036;stroke-width:1.5;"/><path d="M62,1117.5 L62,1144.5 M49,1125.5 L75,1125.5 M62,1144.5 L49,1159.5 M62,1144.5 L75,1159.5 " fill="none" filter="url(#f1ft36qcpmen9t)" style="stroke:#A80036;stroke-width:1.5;"/><text fill="#000000" font-family="sans-serif" font-size="14" lengthAdjust="spacing" textLength="46" x="39" y="1179.5332">System</text><text fill="#000000" font-family="sans-serif" font-size="14" lengthAdjust="spacing" textLength="35" x="43" y="1197.1426">Clock</text><!--MD5=[ae1ffe75aad78ec08f72c7afce75d044]
link Receptionist to UC1--><path d="M101.18,98.51 C149.67,104.25 233.9,114.21 290.89,120.95 " fill="none" id="Receptionist-UC1" style="stroke:#A80036;stroke-width:1.0;"/><!--MD5=[15efd0eb678966c0b6b20d0a4a200ded]
link Receptionist to UC2--><path d="M101.18,89.49 C148.83,83.85 230.99,74.13 287.91,67.4 " fill="none" id="Receptionist-UC2" style="stroke:#A80036;stroke-width:1.0;"/><!--MD5=[a5e458ca0e7efe4fa5557b44823e053f]
link UC3 to MLT--><path d="M426.06,606.83 C487.51,605.02 572.57,602.52 620.77,601.1 " fill="none" id="UC3-MLT" style="stroke:#A80036;stroke-width:1.0;"/><!--MD5=[0af8a168789322cb67d283e9c283da4c]
link CCT to UC4--><path d="M118.09,351.23 C162.52,343.35 225.49,332.18 274.68,323.45 " fill="none" id="CCT-UC4" style="stroke:#A80036;stroke-width:1.0;"/><!--MD5=[52bc5f20303bcb268c08179222897b9f]
link Doctor to UC5--><path d="M94.21,472.47 C110.11,454.2 130.96,434.17 154,422 C189.11,403.45 232.12,394.29 268.95,389.84 " fill="none" id="Doctor-UC5" style="stroke:#A80036;stroke-width:1.0;"/><!--MD5=[664b5d658f02658dc2bb7afbea31a1ab]
link Administrator to UC6--><path d="M103.58,918 C139.18,918 192.63,918 240.7,918 " fill="none" id="Administrator-UC6" style="stroke:#A80036;stroke-width:1.0;"/><!--MD5=[2f4c32df500e49590e9a4aef56f1f542]
link UC7 to LC--><path d="M458.92,464 C500.42,464 546.96,464 584.6,464 " fill="none" id="UC7-LC" style="stroke:#A80036;stroke-width:1.0;"/><!--MD5=[12da0fdaeace2c57f9712b0f99c4a009]
link UC8 to Client--><path d="M417.29,753 C488.57,753 598.63,753 640.78,753 " fill="none" id="UC8-Client" style="stroke:#A80036;stroke-width:1.0;"/><!--MD5=[06be2763310ddd95af07270b0594564a]
link UC9 to MLT--><path d="M410.29,549.02 C449.53,555.38 502.54,564.45 549,574 C573.01,578.94 599.79,585.31 620.8,590.51 " fill="none" id="UC9-MLT" style="stroke:#A80036;stroke-width:1.0;"/><!--MD5=[8cc042cfcf0a4909d3174965a02feaa0]
link CCT to UC9--><path d="M91.92,411.05 C114.94,450.12 144.76,498.79 154,505 C191.39,530.13 241.48,538.76 281.72,541.17 " fill="none" id="CCT-UC9" style="stroke:#A80036;stroke-width:1.0;"/><!--MD5=[1b7a3f4376922a3c069ca2af1eec6a6f]
link UC9 to LC--><path d="M412.9,532.17 C452.1,526.38 504.06,517.34 549,505 C560.7,501.79 572.9,497.83 584.73,493.65 " fill="none" id="UC9-LC" style="stroke:#A80036;stroke-width:1.0;"/><!--MD5=[b46f60c65289d8272c1ad835bf57711c]
link Doctor to UC9--><path d="M115.06,518.71 C163.12,523.05 234.65,529.52 286.24,534.19 " fill="none" id="Doctor-UC9" style="stroke:#A80036;stroke-width:1.0;"/><!--MD5=[dd61da65488dc98c118a5c0809430a5b]
link User to UC9--><path d="M76.55,620.89 C93.56,607.56 124.12,585.57 154,574 C195.81,557.81 245.6,549.3 284.6,544.84 " fill="none" id="User-UC9" style="stroke:#A80036;stroke-width:1.0;"/><!--MD5=[40e2592b95e22baa35de449a6ed4bfd1]
link LC to UC10--><path d="M645.37,422.37 C629.8,378.08 599.07,309.14 549,270 C531.51,256.33 510.79,246.11 489.47,238.48 " fill="none" id="LC-UC10" style="stroke:#A80036;stroke-width:1.0;"/><!--MD5=[92e0f4fcf3c7a902f29996be55f66c1e]
link Doctor to UC11--><path d="M104.45,555.65 C109.27,561.28 113.91,567.15 118,573 C138.26,602 125.75,622.69 154,644 C185.21,667.54 226.93,677.73 263.91,681.76 " fill="none" id="Doctor-UC11" style="stroke:#A80036;stroke-width:1.0;"/><!--MD5=[6044fe0673fcfe8344998787b7ee2ec3]
link Clock to UC12--><path d="M85.08,1150 C122.75,1150 201.37,1150 263.32,1150 " fill="none" id="Clock-UC12" style="stroke:#A80036;stroke-width:1.0;"/><!--MD5=[94b9b3f4b26fd95ef878f7b442ebc71b]
link Administrator to UC14--><path d="M86.67,959.54 C102.62,983.78 125.86,1012.86 154,1030 C183.24,1047.81 218.98,1057.99 251.92,1063.77 " fill="none" id="Administrator-UC14" style="stroke:#A80036;stroke-width:1.0;"/><!--MD5=[f4be9e0e21d21cf4bf93cf1ea00232ac]
link Administrator to UC15--><path d="M103.94,896.91 C119.34,889.56 137.2,881.73 154,876 C186.46,864.93 222.86,855.74 255.44,848.61 " fill="none" id="Administrator-UC15" style="stroke:#A80036;stroke-width:1.0;"/><!--MD5=[acb69231942244eff6b753e542c11964]
@startuml
'https://plantuml.com/use-case-diagram

left to right direction
skinparam packageStyle rectangle
'Actors
:Receptionist:
:Medical Lab\n Technician: as MLT
:Clinical Chemistry\n Technologist: as CCT
:Specialist Doctor: as Doctor
:Laboratory Coordinator: as LC
:User:
:Client:
:Administrator:
:System\n Clock: as Clock

package Application {
    (Register test) as UC1
    (Register client) as UC2
    (Register sample) as UC3
    (Register analysis results) as UC4
    (Generate diagnosis) as UC5
    (Choose client sorting method) as UC6
    (Validate the clinical analysis) as UC7
    (View results) as UC8
    (Check results) as UC9
    (View statistics for number of tests waiting for result) as UC10
    (Access all client data) as UC11
    (Generate NHS report) as UC12
    (Specify new test) as UC13
    (Specify new test parameter) as UC14
    (Specify a new parameter category) as UC15
}

'Use Cases
Receptionist - - UC1
Receptionist - - UC2
UC3 - - MLT
CCT - - UC4
Doctor - - UC5
Administrator - - UC6
UC7 - - LC
UC8 - - Client
UC9 - - MLT
CCT - - UC9
UC9 - - LC
Doctor - - UC9
User - - UC9
LC - - UC10
Doctor - - UC11
Clock - - UC12
Administrator - - UC14
Administrator - - UC15
@enduml

@startuml

left to right direction
skinparam packageStyle rectangle
:Receptionist:
:Medical Lab\n Technician: as MLT
:Clinical Chemistry\n Technologist: as CCT
:Specialist Doctor: as Doctor
:Laboratory Coordinator: as LC
:User:
:Client:
:Administrator:
:System\n Clock: as Clock

package Application {
    (Register test) as UC1
    (Register client) as UC2
    (Register sample) as UC3
    (Register analysis results) as UC4
    (Generate diagnosis) as UC5
    (Choose client sorting method) as UC6
    (Validate the clinical analysis) as UC7
    (View results) as UC8
    (Check results) as UC9
    (View statistics for number of tests waiting for result) as UC10
    (Access all client data) as UC11
    (Generate NHS report) as UC12
    (Specify new test) as UC13
    (Specify new test parameter) as UC14
    (Specify a new parameter category) as UC15
}

Receptionist - - UC1
Receptionist - - UC2
UC3 - - MLT
CCT - - UC4
Doctor - - UC5
Administrator - - UC6
UC7 - - LC
UC8 - - Client
UC9 - - MLT
CCT - - UC9
UC9 - - LC
Doctor - - UC9
User - - UC9
LC - - UC10
Doctor - - UC11
Clock - - UC12
Administrator - - UC14
Administrator - - UC15
@enduml

PlantUML version 1.2021.2(Sun Mar 07 11:10:27 GMT 2021)
(GPL source distribution)
Java Runtime: OpenJDK Runtime Environment
JVM: OpenJDK 64-Bit Server VM
Default Encoding: Cp1252
Language: pt
Country: PT
--></g></svg>