<?xml version="1.0" encoding="UTF-8" standalone="no"?><svg xmlns="http://www.w3.org/2000/svg" xmlns:xlink="http://www.w3.org/1999/xlink" contentScriptType="application/ecmascript" contentStyleType="text/css" height="873.48px" preserveAspectRatio="none" style="width:614px;height:873px;" version="1.1" viewBox="0 0 614 873" width="614.22px" zoomAndPan="magnify"><defs><filter height="300%" id="f1k64lniytbfxe" width="300%" x="-1" y="-1"><feGaussianBlur result="blurOut" stdDeviation="1.74"/><feColorMatrix in="blurOut" result="blurOut2" type="matrix" values="0 0 0 0 0 0 0 0 0 0 0 0 0 0 0 0 0 0 .4 0"/><feOffset dx="3.48" dy="3.48" in="blurOut2" result="blurOut3"/><feBlend in="SourceGraphic" in2="blurOut3" mode="normal"/></filter></defs><g><!--MD5=[ed6624c6556d5e7b1bd23032162d20b7]
class Client--><rect codeLine="4" fill="#FEFECE" filter="url(#f1k64lniytbfxe)" height="150.0954" id="Client" style="stroke:#A80036;stroke-width:1.305;" width="72.21" x="6.525" y="491.55"/><ellipse cx="27.0135" cy="505.47" fill="#ADD1B2" rx="9.57" ry="9.57" style="stroke:#A80036;stroke-width:0.87;"/><path d="M28.7535,502.425 Q28.9302,501.99 29.1341,501.7725 Q29.338,501.555 29.5691,501.555 Q29.9769,501.555 30.2352,501.7997 Q30.4935,502.0444 30.4935,502.6153 L30.4935,503.9747 Q30.4935,504.5456 30.2488,504.7903 Q30.0041,505.035 29.6235,505.035 Q29.2837,505.035 29.0662,504.8855 Q28.8487,504.7359 28.7535,504.3417 Q28.7127,504.0698 28.5632,503.9203 Q28.2913,503.6348 27.8019,503.4717 Q27.3126,503.295 26.8232,503.295 Q26.2115,503.295 25.6949,503.5397 Q25.1919,503.7844 24.7977,504.3281 Q24.4035,504.8719 24.4035,505.6195 L24.4035,506.4216 Q24.4035,507.3188 25.1376,507.9169 Q25.8716,508.515 27.1766,508.515 Q27.9515,508.515 28.4952,508.3383 Q28.8079,508.2431 29.1613,507.9305 Q29.3924,507.7538 29.5147,507.6994 Q29.6371,507.645 29.7866,507.645 Q30.0721,507.645 30.276,507.8761 Q30.4935,508.0936 30.4935,508.4063 Q30.4935,508.7053 30.1944,509.0588 Q29.7594,509.5753 29.0662,509.8608 Q28.1554,510.255 27.0407,510.255 Q25.7357,510.255 24.689,509.7384 Q23.8462,509.3306 23.248,508.447 Q22.6635,507.5634 22.6635,506.5167 L22.6635,505.5652 Q22.6635,504.4777 23.1801,503.5261 Q23.7102,502.5745 24.621,502.0716 Q25.5454,501.555 26.5785,501.555 Q27.2038,501.555 27.7476,501.7725 Q28.2913,501.99 28.7535,502.425 Z " fill="#000000"/><text fill="#000000" font-family="sans-serif" font-size="10.44" lengthAdjust="spacing" textLength="27.84" x="40.8465" y="509.7418">Client</text><line style="stroke:#A80036;stroke-width:1.305;" x1="7.395" x2="77.865" y1="519.39" y2="519.39"/><text fill="#000000" font-family="sans-serif" font-size="9.57" lengthAdjust="spacing" textLength="26.1" x="11.745" y="532.8045">-name</text><text fill="#000000" font-family="sans-serif" font-size="9.57" lengthAdjust="spacing" textLength="54.81" x="11.745" y="544.8417">-cardNumber</text><text fill="#000000" font-family="sans-serif" font-size="9.57" lengthAdjust="spacing" textLength="40.89" x="11.745" y="556.879">-birthDate</text><text fill="#000000" font-family="sans-serif" font-size="9.57" lengthAdjust="spacing" textLength="19.14" x="11.745" y="568.9163">-sex</text><text fill="#000000" font-family="sans-serif" font-size="9.57" lengthAdjust="spacing" textLength="26.97" x="11.745" y="580.9535">-nhsID</text><text fill="#000000" font-family="sans-serif" font-size="9.57" lengthAdjust="spacing" textLength="15.66" x="11.745" y="592.9908">-TIF</text><text fill="#000000" font-family="sans-serif" font-size="9.57" lengthAdjust="spacing" textLength="61.77" x="11.745" y="605.0281">-phoneNumber</text><text fill="#000000" font-family="sans-serif" font-size="9.57" lengthAdjust="spacing" textLength="24.36" x="11.745" y="617.0653">-email</text><text fill="#000000" font-family="sans-serif" font-size="9.57" lengthAdjust="spacing" textLength="46.98" x="11.745" y="629.1026">-password</text><line style="stroke:#A80036;stroke-width:1.305;" x1="7.395" x2="77.865" y1="634.6854" y2="634.6854"/><!--MD5=[012ee2a8bf3ae2b319009b06f951c2e5]
class ClinicalChemistryTechnologist--><rect codeLine="16" fill="#FEFECE" filter="url(#f1k64lniytbfxe)" height="41.76" id="ClinicalChemistryTechnologist" style="stroke:#A80036;stroke-width:1.305;" width="174" x="428.04" y="133.98"/><ellipse cx="441.09" cy="147.9" fill="#ADD1B2" rx="9.57" ry="9.57" style="stroke:#A80036;stroke-width:0.87;"/><path d="M442.83,144.855 Q443.0067,144.42 443.2106,144.2025 Q443.4145,143.985 443.6456,143.985 Q444.0534,143.985 444.3117,144.2297 Q444.57,144.4744 444.57,145.0453 L444.57,146.4047 Q444.57,146.9756 444.3253,147.2203 Q444.0806,147.465 443.7,147.465 Q443.3602,147.465 443.1427,147.3155 Q442.9252,147.1659 442.83,146.7717 Q442.7892,146.4998 442.6397,146.3503 Q442.3678,146.0648 441.8784,145.9017 Q441.3891,145.725 440.8997,145.725 Q440.288,145.725 439.7714,145.9697 Q439.2684,146.2144 438.8742,146.7581 Q438.48,147.3019 438.48,148.0495 L438.48,148.8516 Q438.48,149.7488 439.2141,150.3469 Q439.9481,150.945 441.2531,150.945 Q442.028,150.945 442.5717,150.7683 Q442.8844,150.6731 443.2378,150.3605 Q443.4689,150.1838 443.5913,150.1294 Q443.7136,150.075 443.8631,150.075 Q444.1486,150.075 444.3525,150.3061 Q444.57,150.5236 444.57,150.8363 Q444.57,151.1353 444.2709,151.4888 Q443.8359,152.0053 443.1427,152.2908 Q442.2319,152.685 441.1172,152.685 Q439.8122,152.685 438.7655,152.1684 Q437.9227,151.7606 437.3245,150.877 Q436.74,149.9934 436.74,148.9467 L436.74,147.9952 Q436.74,146.9077 437.2566,145.9561 Q437.7867,145.0045 438.6975,144.5016 Q439.6219,143.985 440.655,143.985 Q441.2803,143.985 441.8241,144.2025 Q442.3678,144.42 442.83,144.855 Z " fill="#000000"/><text fill="#000000" font-family="sans-serif" font-size="10.44" lengthAdjust="spacing" textLength="146.16" x="453.27" y="152.1718">ClinicalChemistryTechnologist</text><line style="stroke:#A80036;stroke-width:1.305;" x1="428.91" x2="601.17" y1="161.82" y2="161.82"/><line style="stroke:#A80036;stroke-width:1.305;" x1="428.91" x2="601.17" y1="168.78" y2="168.78"/><!--MD5=[10d06bcee75aaf74ab8f6040820ceef2]
class Diagnosis--><rect codeLine="30" fill="#FEFECE" filter="url(#f1k64lniytbfxe)" height="41.76" id="Diagnosis" style="stroke:#A80036;stroke-width:1.305;" width="77.43" x="213.585" y="709.92"/><ellipse cx="226.635" cy="723.84" fill="#ADD1B2" rx="9.57" ry="9.57" style="stroke:#A80036;stroke-width:0.87;"/><path d="M228.375,720.795 Q228.5517,720.36 228.7556,720.1425 Q228.9595,719.925 229.1906,719.925 Q229.5984,719.925 229.8567,720.1697 Q230.115,720.4144 230.115,720.9853 L230.115,722.3447 Q230.115,722.9156 229.8703,723.1603 Q229.6256,723.405 229.245,723.405 Q228.9052,723.405 228.6877,723.2555 Q228.4702,723.1059 228.375,722.7117 Q228.3342,722.4398 228.1847,722.2903 Q227.9128,722.0048 227.4234,721.8417 Q226.9341,721.665 226.4447,721.665 Q225.833,721.665 225.3164,721.9097 Q224.8134,722.1544 224.4192,722.6981 Q224.025,723.2419 224.025,723.9895 L224.025,724.7916 Q224.025,725.6888 224.7591,726.2869 Q225.4931,726.885 226.7981,726.885 Q227.573,726.885 228.1167,726.7083 Q228.4294,726.6131 228.7828,726.3005 Q229.0139,726.1238 229.1363,726.0694 Q229.2586,726.015 229.4081,726.015 Q229.6936,726.015 229.8975,726.2461 Q230.115,726.4636 230.115,726.7763 Q230.115,727.0753 229.8159,727.4288 Q229.3809,727.9453 228.6877,728.2308 Q227.7769,728.625 226.6622,728.625 Q225.3572,728.625 224.3105,728.1084 Q223.4677,727.7006 222.8695,726.817 Q222.285,725.9334 222.285,724.8867 L222.285,723.9352 Q222.285,722.8477 222.8016,721.8961 Q223.3317,720.9445 224.2425,720.4416 Q225.1669,719.925 226.2,719.925 Q226.8253,719.925 227.3691,720.1425 Q227.9128,720.36 228.375,720.795 Z " fill="#000000"/><text fill="#000000" font-family="sans-serif" font-size="10.44" lengthAdjust="spacing" textLength="49.59" x="238.815" y="728.1118">Diagnosis</text><line style="stroke:#A80036;stroke-width:1.305;" x1="214.455" x2="290.145" y1="737.76" y2="737.76"/><line style="stroke:#A80036;stroke-width:1.305;" x1="214.455" x2="290.145" y1="744.72" y2="744.72"/><!--MD5=[052425de1c0eb6cc1c1b48342b0bb88f]
class LaboratoryCoordinator--><rect codeLine="20" fill="#FEFECE" filter="url(#f1k64lniytbfxe)" height="41.76" id="LaboratoryCoordinator" style="stroke:#A80036;stroke-width:1.305;" width="134.85" x="246.645" y="819.54"/><ellipse cx="259.695" cy="833.46" fill="#ADD1B2" rx="9.57" ry="9.57" style="stroke:#A80036;stroke-width:0.87;"/><path d="M261.435,830.415 Q261.6117,829.98 261.8156,829.7625 Q262.0195,829.545 262.2506,829.545 Q262.6584,829.545 262.9167,829.7897 Q263.175,830.0344 263.175,830.6053 L263.175,831.9647 Q263.175,832.5356 262.9303,832.7803 Q262.6856,833.025 262.305,833.025 Q261.9652,833.025 261.7477,832.8755 Q261.5302,832.7259 261.435,832.3317 Q261.3942,832.0598 261.2447,831.9103 Q260.9728,831.6248 260.4834,831.4617 Q259.9941,831.285 259.5047,831.285 Q258.893,831.285 258.3764,831.5297 Q257.8734,831.7744 257.4792,832.3181 Q257.085,832.8619 257.085,833.6095 L257.085,834.4116 Q257.085,835.3088 257.8191,835.9069 Q258.5531,836.505 259.8581,836.505 Q260.633,836.505 261.1767,836.3283 Q261.4894,836.2331 261.8428,835.9205 Q262.0739,835.7438 262.1963,835.6894 Q262.3186,835.635 262.4681,835.635 Q262.7536,835.635 262.9575,835.8661 Q263.175,836.0836 263.175,836.3963 Q263.175,836.6953 262.8759,837.0488 Q262.4409,837.5653 261.7477,837.8508 Q260.8369,838.245 259.7222,838.245 Q258.4172,838.245 257.3705,837.7284 Q256.5277,837.3206 255.9295,836.437 Q255.345,835.5534 255.345,834.5067 L255.345,833.5552 Q255.345,832.4677 255.8616,831.5161 Q256.3917,830.5645 257.3025,830.0616 Q258.2269,829.545 259.26,829.545 Q259.8853,829.545 260.4291,829.7625 Q260.9728,829.98 261.435,830.415 Z " fill="#000000"/><text fill="#000000" font-family="sans-serif" font-size="10.44" lengthAdjust="spacing" textLength="107.01" x="271.875" y="837.7318">LaboratoryCoordinator</text><line style="stroke:#A80036;stroke-width:1.305;" x1="247.515" x2="380.625" y1="847.38" y2="847.38"/><line style="stroke:#A80036;stroke-width:1.305;" x1="247.515" x2="380.625" y1="854.34" y2="854.34"/><!--MD5=[7d96fd15f3014691d2fcaf89c5791e2a]
class SpecialistDoctor--><rect codeLine="22" fill="#FEFECE" filter="url(#f1k64lniytbfxe)" height="53.7973" id="SpecialistDoctor" style="stroke:#A80036;stroke-width:1.305;" width="106.14" x="109.62" y="315.81"/><ellipse cx="122.67" cy="329.73" fill="#ADD1B2" rx="9.57" ry="9.57" style="stroke:#A80036;stroke-width:0.87;"/><path d="M124.41,326.685 Q124.5867,326.25 124.7906,326.0325 Q124.9945,325.815 125.2256,325.815 Q125.6334,325.815 125.8917,326.0597 Q126.15,326.3044 126.15,326.8753 L126.15,328.2347 Q126.15,328.8056 125.9053,329.0503 Q125.6606,329.295 125.28,329.295 Q124.9402,329.295 124.7227,329.1455 Q124.5052,328.9959 124.41,328.6017 Q124.3692,328.3298 124.2197,328.1803 Q123.9478,327.8948 123.4584,327.7317 Q122.9691,327.555 122.4797,327.555 Q121.868,327.555 121.3514,327.7997 Q120.8484,328.0444 120.4542,328.5881 Q120.06,329.1319 120.06,329.8795 L120.06,330.6816 Q120.06,331.5788 120.7941,332.1769 Q121.5281,332.775 122.8331,332.775 Q123.608,332.775 124.1517,332.5983 Q124.4644,332.5031 124.8178,332.1905 Q125.0489,332.0138 125.1713,331.9594 Q125.2936,331.905 125.4431,331.905 Q125.7286,331.905 125.9325,332.1361 Q126.15,332.3536 126.15,332.6663 Q126.15,332.9653 125.8509,333.3188 Q125.4159,333.8353 124.7227,334.1208 Q123.8119,334.515 122.6972,334.515 Q121.3922,334.515 120.3455,333.9984 Q119.5027,333.5906 118.9045,332.707 Q118.32,331.8234 118.32,330.7767 L118.32,329.8252 Q118.32,328.7377 118.8366,327.7861 Q119.3667,326.8345 120.2775,326.3316 Q121.2019,325.815 122.235,325.815 Q122.8603,325.815 123.4041,326.0325 Q123.9478,326.25 124.41,326.685 Z " fill="#000000"/><text fill="#000000" font-family="sans-serif" font-size="10.44" lengthAdjust="spacing" textLength="78.3" x="134.85" y="334.0018">SpecialistDoctor</text><line style="stroke:#A80036;stroke-width:1.305;" x1="110.49" x2="214.89" y1="343.65" y2="343.65"/><text fill="#000000" font-family="sans-serif" font-size="9.57" lengthAdjust="spacing" textLength="85.26" x="114.84" y="357.0645">-doctorIndexNumber</text><line style="stroke:#A80036;stroke-width:1.305;" x1="110.49" x2="214.89" y1="362.6473" y2="362.6473"/><!--MD5=[f00dbe8c0302c6aec2cb26b3c659c8fc]
class Report--><rect codeLine="26" fill="#FEFECE" filter="url(#f1k64lniytbfxe)" height="53.7973" id="Report" style="stroke:#A80036;stroke-width:1.305;" width="60.03" x="130.935" y="539.835"/><ellipse cx="143.985" cy="553.755" fill="#ADD1B2" rx="9.57" ry="9.57" style="stroke:#A80036;stroke-width:0.87;"/><path d="M145.725,550.71 Q145.9017,550.275 146.1056,550.0575 Q146.3095,549.84 146.5406,549.84 Q146.9484,549.84 147.2067,550.0847 Q147.465,550.3294 147.465,550.9003 L147.465,552.2597 Q147.465,552.8306 147.2203,553.0753 Q146.9756,553.32 146.595,553.32 Q146.2552,553.32 146.0377,553.1705 Q145.8202,553.0209 145.725,552.6267 Q145.6842,552.3548 145.5347,552.2053 Q145.2628,551.9198 144.7734,551.7567 Q144.2841,551.58 143.7947,551.58 Q143.183,551.58 142.6664,551.8247 Q142.1634,552.0694 141.7692,552.6131 Q141.375,553.1569 141.375,553.9045 L141.375,554.7066 Q141.375,555.6038 142.1091,556.2019 Q142.8431,556.8 144.1481,556.8 Q144.923,556.8 145.4667,556.6233 Q145.7794,556.5281 146.1328,556.2155 Q146.3639,556.0388 146.4863,555.9844 Q146.6086,555.93 146.7581,555.93 Q147.0436,555.93 147.2475,556.1611 Q147.465,556.3786 147.465,556.6913 Q147.465,556.9903 147.1659,557.3438 Q146.7309,557.8603 146.0377,558.1458 Q145.1269,558.54 144.0122,558.54 Q142.7072,558.54 141.6605,558.0234 Q140.8177,557.6156 140.2195,556.732 Q139.635,555.8484 139.635,554.8017 L139.635,553.8502 Q139.635,552.7627 140.1516,551.8111 Q140.6817,550.8595 141.5925,550.3566 Q142.5169,549.84 143.55,549.84 Q144.1753,549.84 144.7191,550.0575 Q145.2628,550.275 145.725,550.71 Z " fill="#000000"/><text fill="#000000" font-family="sans-serif" font-size="10.44" lengthAdjust="spacing" textLength="32.19" x="156.165" y="558.0268">Report</text><line style="stroke:#A80036;stroke-width:1.305;" x1="131.805" x2="190.095" y1="567.675" y2="567.675"/><text fill="#000000" font-family="sans-serif" font-size="9.57" lengthAdjust="spacing" textLength="40.89" x="136.155" y="581.0895">-textBody</text><line style="stroke:#A80036;stroke-width:1.305;" x1="131.805" x2="190.095" y1="586.6723" y2="586.6723"/><!--MD5=[df38be88ccee13e832d6fafd6288a4ca]
class Test--><rect codeLine="32" fill="#FEFECE" filter="url(#f1k64lniytbfxe)" height="162.1327" id="Test" style="stroke:#A80036;stroke-width:1.305;" width="73.08" x="6.09" y="261.87"/><ellipse cx="30.102" cy="275.79" fill="#ADD1B2" rx="9.57" ry="9.57" style="stroke:#A80036;stroke-width:0.87;"/><path d="M31.842,272.745 Q32.0187,272.31 32.2226,272.0925 Q32.4265,271.875 32.6576,271.875 Q33.0654,271.875 33.3237,272.1197 Q33.582,272.3644 33.582,272.9353 L33.582,274.2947 Q33.582,274.8656 33.3373,275.1103 Q33.0926,275.355 32.712,275.355 Q32.3722,275.355 32.1547,275.2055 Q31.9372,275.0559 31.842,274.6617 Q31.8012,274.3898 31.6517,274.2403 Q31.3798,273.9548 30.8904,273.7917 Q30.4011,273.615 29.9117,273.615 Q29.3,273.615 28.7834,273.8597 Q28.2804,274.1044 27.8862,274.6481 Q27.492,275.1919 27.492,275.9395 L27.492,276.7416 Q27.492,277.6388 28.2261,278.2369 Q28.9601,278.835 30.2651,278.835 Q31.04,278.835 31.5837,278.6583 Q31.8964,278.5631 32.2498,278.2505 Q32.4809,278.0738 32.6033,278.0194 Q32.7256,277.965 32.8751,277.965 Q33.1606,277.965 33.3645,278.1961 Q33.582,278.4136 33.582,278.7263 Q33.582,279.0253 33.2829,279.3788 Q32.8479,279.8953 32.1547,280.1808 Q31.2439,280.575 30.1292,280.575 Q28.8242,280.575 27.7775,280.0584 Q26.9347,279.6506 26.3365,278.767 Q25.752,277.8834 25.752,276.8367 L25.752,275.8852 Q25.752,274.7977 26.2686,273.8461 Q26.7987,272.8945 27.7095,272.3916 Q28.6339,271.875 29.667,271.875 Q30.2923,271.875 30.8361,272.0925 Q31.3798,272.31 31.842,272.745 Z " fill="#000000"/><text fill="#000000" font-family="sans-serif" font-size="10.44" lengthAdjust="spacing" textLength="20.88" x="44.718" y="280.0618">Test</text><line style="stroke:#A80036;stroke-width:1.305;" x1="6.96" x2="78.3" y1="289.71" y2="289.71"/><text fill="#000000" font-family="sans-serif" font-size="9.57" lengthAdjust="spacing" textLength="55.68" x="11.31" y="303.1245">-internalCode</text><text fill="#000000" font-family="sans-serif" font-size="9.57" lengthAdjust="spacing" textLength="40.89" x="11.31" y="315.1617">-nhsCode</text><text fill="#000000" font-family="sans-serif" font-size="9.57" lengthAdjust="spacing" textLength="45.24" x="11.31" y="327.199">-createdAt</text><text fill="#000000" font-family="sans-serif" font-size="9.57" lengthAdjust="spacing" textLength="51.33" x="11.31" y="339.2363">-designation</text><text fill="#000000" font-family="sans-serif" font-size="9.57" lengthAdjust="spacing" textLength="58.29" x="11.31" y="351.2735">-dateAnalysis</text><text fill="#000000" font-family="sans-serif" font-size="9.57" lengthAdjust="spacing" textLength="56.55" x="11.31" y="363.3108">-timeAnalysis</text><text fill="#000000" font-family="sans-serif" font-size="9.57" lengthAdjust="spacing" textLength="62.64" x="11.31" y="375.3481">-dateDiagnosis</text><text fill="#000000" font-family="sans-serif" font-size="9.57" lengthAdjust="spacing" textLength="60.9" x="11.31" y="387.3853">-timeDiagnosis</text><text fill="#000000" font-family="sans-serif" font-size="9.57" lengthAdjust="spacing" textLength="62.64" x="11.31" y="399.4226">-dateValidation</text><text fill="#000000" font-family="sans-serif" font-size="9.57" lengthAdjust="spacing" textLength="60.9" x="11.31" y="411.4599">-timeValidation</text><line style="stroke:#A80036;stroke-width:1.305;" x1="6.96" x2="78.3" y1="417.0427" y2="417.0427"/><!--MD5=[4e608140b854dae633589343bce77383]
class TestParameterResult--><rect codeLine="45" fill="#FEFECE" filter="url(#f1k64lniytbfxe)" height="77.8718" id="TestParameterResult" style="stroke:#A80036;stroke-width:1.305;" width="130.5" x="204.45" y="115.71"/><ellipse cx="217.5" cy="129.63" fill="#ADD1B2" rx="9.57" ry="9.57" style="stroke:#A80036;stroke-width:0.87;"/><path d="M219.24,126.585 Q219.4167,126.15 219.6206,125.9325 Q219.8245,125.715 220.0556,125.715 Q220.4634,125.715 220.7217,125.9597 Q220.98,126.2044 220.98,126.7753 L220.98,128.1347 Q220.98,128.7056 220.7353,128.9503 Q220.4906,129.195 220.11,129.195 Q219.7702,129.195 219.5527,129.0455 Q219.3352,128.8959 219.24,128.5017 Q219.1992,128.2298 219.0497,128.0803 Q218.7778,127.7948 218.2884,127.6317 Q217.7991,127.455 217.3097,127.455 Q216.698,127.455 216.1814,127.6997 Q215.6784,127.9444 215.2842,128.4881 Q214.89,129.0319 214.89,129.7795 L214.89,130.5816 Q214.89,131.4788 215.6241,132.0769 Q216.3581,132.675 217.6631,132.675 Q218.438,132.675 218.9817,132.4983 Q219.2944,132.4031 219.6478,132.0905 Q219.8789,131.9138 220.0013,131.8594 Q220.1236,131.805 220.2731,131.805 Q220.5586,131.805 220.7625,132.0361 Q220.98,132.2536 220.98,132.5663 Q220.98,132.8653 220.6809,133.2188 Q220.2459,133.7353 219.5527,134.0208 Q218.6419,134.415 217.5272,134.415 Q216.2222,134.415 215.1755,133.8984 Q214.3327,133.4906 213.7345,132.607 Q213.15,131.7234 213.15,130.6767 L213.15,129.7252 Q213.15,128.6377 213.6666,127.6861 Q214.1967,126.7345 215.1075,126.2316 Q216.0319,125.715 217.065,125.715 Q217.6903,125.715 218.2341,125.9325 Q218.7778,126.15 219.24,126.585 Z " fill="#000000"/><text fill="#000000" font-family="sans-serif" font-size="10.44" lengthAdjust="spacing" textLength="102.66" x="229.68" y="133.9018">TestParameterResult</text><line style="stroke:#A80036;stroke-width:1.305;" x1="205.32" x2="334.08" y1="143.55" y2="143.55"/><text fill="#000000" font-family="sans-serif" font-size="9.57" lengthAdjust="spacing" textLength="45.24" x="209.67" y="156.9645">-createdAt</text><text fill="#000000" font-family="sans-serif" font-size="9.57" lengthAdjust="spacing" textLength="26.1" x="209.67" y="169.0017">-value</text><text fill="#000000" font-family="sans-serif" font-size="9.57" lengthAdjust="spacing" textLength="28.71" x="209.67" y="181.039">-metric</text><line style="stroke:#A80036;stroke-width:1.305;" x1="205.32" x2="334.08" y1="186.6218" y2="186.6218"/><!--MD5=[0f07739f46effee96e095e9c408da841]
class TestParameter--><rect fill="#FEFECE" filter="url(#f1k64lniytbfxe)" height="41.76" id="TestParameter" style="stroke:#A80036;stroke-width:1.305;" width="99.18" x="12.18" y="133.98"/><ellipse cx="25.23" cy="147.9" fill="#ADD1B2" rx="9.57" ry="9.57" style="stroke:#A80036;stroke-width:0.87;"/><path d="M26.97,144.855 Q27.1467,144.42 27.3506,144.2025 Q27.5545,143.985 27.7856,143.985 Q28.1934,143.985 28.4517,144.2297 Q28.71,144.4744 28.71,145.0453 L28.71,146.4047 Q28.71,146.9756 28.4653,147.2203 Q28.2206,147.465 27.84,147.465 Q27.5002,147.465 27.2827,147.3155 Q27.0652,147.1659 26.97,146.7717 Q26.9292,146.4998 26.7797,146.3503 Q26.5078,146.0648 26.0184,145.9017 Q25.5291,145.725 25.0397,145.725 Q24.428,145.725 23.9114,145.9697 Q23.4084,146.2144 23.0142,146.7581 Q22.62,147.3019 22.62,148.0495 L22.62,148.8516 Q22.62,149.7488 23.3541,150.3469 Q24.0881,150.945 25.3931,150.945 Q26.168,150.945 26.7117,150.7683 Q27.0244,150.6731 27.3778,150.3605 Q27.6089,150.1838 27.7313,150.1294 Q27.8536,150.075 28.0031,150.075 Q28.2886,150.075 28.4925,150.3061 Q28.71,150.5236 28.71,150.8363 Q28.71,151.1353 28.4109,151.4888 Q27.9759,152.0053 27.2827,152.2908 Q26.3719,152.685 25.2572,152.685 Q23.9522,152.685 22.9055,152.1684 Q22.0627,151.7606 21.4645,150.877 Q20.88,149.9934 20.88,148.9467 L20.88,147.9952 Q20.88,146.9077 21.3966,145.9561 Q21.9267,145.0045 22.8375,144.5016 Q23.7619,143.985 24.795,143.985 Q25.4203,143.985 25.9641,144.2025 Q26.5078,144.42 26.97,144.855 Z " fill="#000000"/><text fill="#000000" font-family="sans-serif" font-size="10.44" lengthAdjust="spacing" textLength="71.34" x="37.41" y="152.1718">TestParameter</text><line style="stroke:#A80036;stroke-width:1.305;" x1="13.05" x2="110.49" y1="161.82" y2="161.82"/><line style="stroke:#A80036;stroke-width:1.305;" x1="13.05" x2="110.49" y1="168.78" y2="168.78"/><!--MD5=[1f6362a5c8f21d8d6a0fce68f3a92a4e]
class Parameter--><rect fill="#FEFECE" filter="url(#f1k64lniytbfxe)" height="41.76" id="Parameter" style="stroke:#A80036;stroke-width:1.305;" width="78.3" x="246.21" y="321.9"/><ellipse cx="259.26" cy="335.82" fill="#ADD1B2" rx="9.57" ry="9.57" style="stroke:#A80036;stroke-width:0.87;"/><path d="M261,332.775 Q261.1767,332.34 261.3806,332.1225 Q261.5845,331.905 261.8156,331.905 Q262.2234,331.905 262.4817,332.1497 Q262.74,332.3944 262.74,332.9653 L262.74,334.3247 Q262.74,334.8956 262.4953,335.1403 Q262.2506,335.385 261.87,335.385 Q261.5302,335.385 261.3127,335.2355 Q261.0952,335.0859 261,334.6917 Q260.9592,334.4198 260.8097,334.2703 Q260.5378,333.9848 260.0484,333.8217 Q259.5591,333.645 259.0697,333.645 Q258.458,333.645 257.9414,333.8897 Q257.4384,334.1344 257.0442,334.6781 Q256.65,335.2219 256.65,335.9695 L256.65,336.7716 Q256.65,337.6688 257.3841,338.2669 Q258.1181,338.865 259.4231,338.865 Q260.198,338.865 260.7417,338.6883 Q261.0544,338.5931 261.4078,338.2805 Q261.6389,338.1038 261.7613,338.0494 Q261.8836,337.995 262.0331,337.995 Q262.3186,337.995 262.5225,338.2261 Q262.74,338.4436 262.74,338.7563 Q262.74,339.0553 262.4409,339.4088 Q262.0059,339.9253 261.3127,340.2108 Q260.4019,340.605 259.2872,340.605 Q257.9822,340.605 256.9355,340.0884 Q256.0927,339.6806 255.4945,338.797 Q254.91,337.9134 254.91,336.8667 L254.91,335.9152 Q254.91,334.8277 255.4266,333.8761 Q255.9567,332.9245 256.8675,332.4216 Q257.7919,331.905 258.825,331.905 Q259.4503,331.905 259.9941,332.1225 Q260.5378,332.34 261,332.775 Z " fill="#000000"/><text fill="#000000" font-family="sans-serif" font-size="10.44" lengthAdjust="spacing" textLength="50.46" x="271.44" y="340.0918">Parameter</text><line style="stroke:#A80036;stroke-width:1.305;" x1="247.08" x2="323.64" y1="349.74" y2="349.74"/><line style="stroke:#A80036;stroke-width:1.305;" x1="247.08" x2="323.64" y1="356.7" y2="356.7"/><!--MD5=[1c357e7e7fdba398bcadd6e61afe49f5]
class ReferenceValue--><rect fill="#FEFECE" filter="url(#f1k64lniytbfxe)" height="41.76" id="ReferenceValue" style="stroke:#A80036;stroke-width:1.305;" width="104.4" x="217.5" y="6.09"/><ellipse cx="230.55" cy="20.01" fill="#ADD1B2" rx="9.57" ry="9.57" style="stroke:#A80036;stroke-width:0.87;"/><path d="M232.29,16.965 Q232.4667,16.53 232.6706,16.3125 Q232.8745,16.095 233.1056,16.095 Q233.5134,16.095 233.7717,16.3397 Q234.03,16.5844 234.03,17.1553 L234.03,18.5147 Q234.03,19.0856 233.7853,19.3303 Q233.5406,19.575 233.16,19.575 Q232.8202,19.575 232.6027,19.4255 Q232.3852,19.2759 232.29,18.8817 Q232.2492,18.6098 232.0997,18.4603 Q231.8278,18.1748 231.3384,18.0117 Q230.8491,17.835 230.3597,17.835 Q229.748,17.835 229.2314,18.0797 Q228.7284,18.3244 228.3342,18.8681 Q227.94,19.4119 227.94,20.1595 L227.94,20.9616 Q227.94,21.8588 228.6741,22.4569 Q229.4081,23.055 230.7131,23.055 Q231.488,23.055 232.0317,22.8783 Q232.3444,22.7831 232.6978,22.4705 Q232.9289,22.2938 233.0513,22.2394 Q233.1736,22.185 233.3231,22.185 Q233.6086,22.185 233.8125,22.4161 Q234.03,22.6336 234.03,22.9463 Q234.03,23.2453 233.7309,23.5988 Q233.2959,24.1153 232.6027,24.4008 Q231.6919,24.795 230.5772,24.795 Q229.2722,24.795 228.2255,24.2784 Q227.3827,23.8706 226.7845,22.987 Q226.2,22.1034 226.2,21.0567 L226.2,20.1052 Q226.2,19.0177 226.7166,18.0661 Q227.2467,17.1145 228.1575,16.6116 Q229.0819,16.095 230.115,16.095 Q230.7403,16.095 231.2841,16.3125 Q231.8278,16.53 232.29,16.965 Z " fill="#000000"/><text fill="#000000" font-family="sans-serif" font-size="10.44" lengthAdjust="spacing" textLength="76.56" x="242.73" y="24.2818">ReferenceValue</text><line style="stroke:#A80036;stroke-width:1.305;" x1="218.37" x2="321.03" y1="33.93" y2="33.93"/><line style="stroke:#A80036;stroke-width:1.305;" x1="218.37" x2="321.03" y1="40.89" y2="40.89"/><!--MD5=[7d615427424eb1e9d8965c4eb17ecbf5]
link TestParameter to Test--><path codeLine="51" d="M59.682,176.0097 C57.5505,196.7418 54.1053,230.289 50.8689,261.8091 " fill="none" id="TestParameter-Test" style="stroke:#A80036;stroke-width:0.87;"/><polygon fill="#000000" points="60.4745,223.7657,57.1269,231.3325,62.2139,231.855,60.4745,223.7657" style="stroke:#000000;stroke-width:0.87;"/><text fill="#000000" font-family="sans-serif" font-size="11.31" lengthAdjust="spacing" textLength="18.27" x="67.86" y="232.7208">has</text><text fill="#000000" font-family="sans-serif" font-size="11.31" lengthAdjust="spacing" textLength="4.35" x="54.3462" y="194.2862">*</text><text fill="#000000" font-family="sans-serif" font-size="11.31" lengthAdjust="spacing" textLength="6.09" x="45.209" y="252.3478">1</text><!--MD5=[0e00e25ac6b8c14659aaff2cf7e5df08]
link TestParameter to TestParameterResult--><path codeLine="52" d="M111.5775,154.86 C139.3305,154.86 174.2262,154.86 204.1716,154.86 " fill="none" id="TestParameter-TestParameterResult" style="stroke:#A80036;stroke-width:0.87;"/><polygon fill="#000000" points="138.765,144.5729,130.8958,142.0161,130.8958,147.1298,138.765,144.5729" style="stroke:#000000;stroke-width:0.87;"/><text fill="#000000" font-family="sans-serif" font-size="11.31" lengthAdjust="spacing" textLength="42.63" x="142.245" y="149.2008">contains</text><text fill="#000000" font-family="sans-serif" font-size="11.31" lengthAdjust="spacing" textLength="6.09" x="118.3492" y="151.8086">1</text><text fill="#000000" font-family="sans-serif" font-size="11.31" lengthAdjust="spacing" textLength="19.14" x="178.3431" y="167.2533">0..1</text><!--MD5=[ae231f2115f9ba798a2f0cf9b31d676f]
link TestParameterResult to ClinicalChemistryTechnologist--><path codeLine="53" d="M335.124,154.86 C363.5817,154.86 397.3464,154.86 427.8921,154.86 " fill="none" id="TestParameterResult-ClinicalChemistryTechnologist" style="stroke:#A80036;stroke-width:0.87;"/><polygon fill="#000000" points="350.175,144.5729,358.0442,147.1298,358.0442,142.0161,350.175,144.5729" style="stroke:#000000;stroke-width:0.87;"/><text fill="#000000" font-family="sans-serif" font-size="11.31" lengthAdjust="spacing" textLength="49.59" x="362.355" y="149.2008">generates</text><text fill="#000000" font-family="sans-serif" font-size="11.31" lengthAdjust="spacing" textLength="4.35" x="342.0951" y="152.0009">*</text><text fill="#000000" font-family="sans-serif" font-size="11.31" lengthAdjust="spacing" textLength="6.09" x="414.8967" y="152.1596">1</text><!--MD5=[e5a1ad8cf54a15b9f508e822cc3e9fb4]
link TestParameterResult to Parameter--><path codeLine="54" d="M270.2481,194.0361 C270.6222,207.2688 271.2573,222.1893 272.31,235.77 C274.6416,265.7589 279.2439,300.2979 282.315,321.6129 " fill="none" id="TestParameterResult-Parameter" style="stroke:#A80036;stroke-width:0.87;"/><polygon fill="#000000" points="277.0696,232.4236,278.8741,224.3486,273.7831,224.8301,277.0696,232.4236" style="stroke:#000000;stroke-width:0.87;"/><text fill="#000000" font-family="sans-serif" font-size="11.31" lengthAdjust="spacing" textLength="67.86" x="284.49" y="232.7208">associated to</text><text fill="#000000" font-family="sans-serif" font-size="11.31" lengthAdjust="spacing" textLength="6.09" x="263.807" y="212.3164">1</text><text fill="#000000" font-family="sans-serif" font-size="11.31" lengthAdjust="spacing" textLength="6.09" x="274.7406" y="312.6149">1</text><!--MD5=[2fc0f4084f299b8e83a57524f584a65e]
link ReferenceValue to TestParameterResult--><path codeLine="55" d="M269.7,48.111 C269.7,66.2853 269.7,93.4467 269.7,115.71 " fill="none" id="ReferenceValue-TestParameterResult" style="stroke:#A80036;stroke-width:0.87;"/><polygon fill="#000000" points="274.05,77.5829,271.4931,85.4522,276.6069,85.4522,274.05,77.5829" style="stroke:#000000;stroke-width:0.87;"/><text fill="#000000" font-family="sans-serif" font-size="11.31" lengthAdjust="spacing" textLength="37.41" x="281.88" y="86.5608">records</text><text fill="#000000" font-family="sans-serif" font-size="11.31" lengthAdjust="spacing" textLength="6.09" x="262.9058" y="66.3855">1</text><text fill="#000000" font-family="sans-serif" font-size="11.31" lengthAdjust="spacing" textLength="6.09" x="263.1247" y="106.2405">1</text><!--MD5=[7ec515ca68007f0e82f1923893002e31]
link TestParameterResult to LaboratoryCoordinator--><path codeLine="56" d="M334.3323,194.2014 C342.9714,201.8052 350.8536,210.4704 356.7,220.11 C385.0968,266.9769 375.84,287.1087 375.84,341.91 C375.84,341.91 375.84,341.91 375.84,731.67 C375.84,760.4148 371.0637,768.5493 356.7,793.44 C351.306,802.7925 343.7109,811.8057 336.4203,819.3399 " fill="none" id="TestParameterResult-LaboratoryCoordinator" style="stroke:#A80036;stroke-width:0.87;"/><polygon fill="#000000" points="380.2045,571.3079,382.7351,563.4302,377.6214,563.4473,380.2045,571.3079" style="stroke:#000000;stroke-width:0.87;"/><text fill="#000000" font-family="sans-serif" font-size="11.31" lengthAdjust="spacing" textLength="59.16" x="388.02" y="571.5858">validated by</text><text fill="#000000" font-family="sans-serif" font-size="11.31" lengthAdjust="spacing" textLength="4.35" x="338.375" y="212.2132">*</text><text fill="#000000" font-family="sans-serif" font-size="11.31" lengthAdjust="spacing" textLength="6.09" x="335.2773" y="810.0146">1</text><!--MD5=[a0cffede1540c7fe5274bab1ecc4d208]
link TestParameterResult to SpecialistDoctor--><path codeLine="57" d="M211.9233,194.0535 C203.4408,201.8226 195.5847,210.5661 189.66,220.11 C171.3813,249.5508 165.4131,289.7709 163.5078,315.7926 " fill="none" id="TestParameterResult-SpecialistDoctor" style="stroke:#A80036;stroke-width:0.87;"/><polygon fill="#000000" points="192.4025,232.135,197.6864,225.7677,192.9346,223.8779,192.4025,232.135" style="stroke:#000000;stroke-width:0.87;"/><text fill="#000000" font-family="sans-serif" font-size="11.31" lengthAdjust="spacing" textLength="60.9" x="201.84" y="232.7208">analysed by</text><text fill="#000000" font-family="sans-serif" font-size="11.31" lengthAdjust="spacing" textLength="4.35" x="199.1426" y="212.3362">*</text><text fill="#000000" font-family="sans-serif" font-size="11.31" lengthAdjust="spacing" textLength="6.09" x="156.9306" y="306.2364">1</text><!--MD5=[3994f36c72829dbcddd1cf7021dddf61]
link Test to Client--><path codeLine="58" d="M42.63,423.8988 C42.63,445.9098 42.63,469.6782 42.63,491.3586 " fill="none" id="Test-Client" style="stroke:#A80036;stroke-width:0.87;"/><polygon fill="#000000" points="46.98,462.1229,49.5369,454.2537,44.4231,454.2537,46.98,462.1229" style="stroke:#000000;stroke-width:0.87;"/><text fill="#000000" font-family="sans-serif" font-size="11.31" lengthAdjust="spacing" textLength="65.25" x="54.81" y="462.4008">requested by</text><text fill="#000000" font-family="sans-serif" font-size="11.31" lengthAdjust="spacing" textLength="4.35" x="38.1067" y="442.6581">*</text><text fill="#000000" font-family="sans-serif" font-size="11.31" lengthAdjust="spacing" textLength="6.09" x="36.2783" y="482.1285">1</text><!--MD5=[35c5d5b78cc27fdb07caaeeaa436e174]
link SpecialistDoctor to Report--><path codeLine="59" d="M162.4812,369.8022 C162.1506,412.4931 161.4894,496.683 161.1588,539.5392 " fill="none" id="SpecialistDoctor-Report" style="stroke:#A80036;stroke-width:0.87;"/><polygon fill="#000000" points="166.1361,462.1228,168.7542,454.2737,163.6406,454.2339,166.1361,462.1228" style="stroke:#000000;stroke-width:0.87;"/><text fill="#000000" font-family="sans-serif" font-size="11.31" lengthAdjust="spacing" textLength="49.59" x="174" y="462.4008">generates</text><text fill="#000000" font-family="sans-serif" font-size="11.31" lengthAdjust="spacing" textLength="6.09" x="155.7506" y="388.2774">1</text><text fill="#000000" font-family="sans-serif" font-size="11.31" lengthAdjust="spacing" textLength="4.35" x="156.4033" y="530.3471">*</text><!--MD5=[15b96e4919f31c1f6d0b47c59fe8e2bf]
link Diagnosis to LaboratoryCoordinator--><path codeLine="60" d="M260.565,751.8975 C265.8633,764.1993 273.1974,780.0594 281.01,793.44 C286.1778,802.2879 292.5984,811.5534 298.41,819.4443 " fill="none" id="Diagnosis-LaboratoryCoordinator" style="stroke:#A80036;stroke-width:0.87;"/><polygon fill="#000000" points="287.4862,789.5579,285.8705,781.443,281.4092,783.9425,287.4862,789.5579" style="stroke:#000000;stroke-width:0.87;"/><text fill="#000000" font-family="sans-serif" font-size="11.31" lengthAdjust="spacing" textLength="59.16" x="293.19" y="790.3908">validated by</text><text fill="#000000" font-family="sans-serif" font-size="11.31" lengthAdjust="spacing" textLength="4.35" x="257.6994" y="770.5145">*</text><text fill="#000000" font-family="sans-serif" font-size="11.31" lengthAdjust="spacing" textLength="6.09" x="287.5268" y="810.1457">1</text><!--MD5=[fd5f5b962c28af1c88b5bc5c4cfdb2d8]
link Diagnosis to SpecialistDoctor--><path codeLine="61" d="M254.127,709.9113 C257.694,663.0096 262.7574,542.9322 231.42,449.79 C221.4063,420.036 201.1353,390.4038 185.1882,370.0458 " fill="none" id="Diagnosis-SpecialistDoctor" style="stroke:#A80036;stroke-width:0.87;"/><polygon fill="#000000" points="261.8647,571.2211,262.8062,563.0007,257.7946,564.0172,261.8647,571.2211" style="stroke:#000000;stroke-width:0.87;"/><text fill="#000000" font-family="sans-serif" font-size="11.31" lengthAdjust="spacing" textLength="49.59" x="268.83" y="571.5858">generates</text><text fill="#000000" font-family="sans-serif" font-size="11.31" lengthAdjust="spacing" textLength="4.35" x="249.6878" y="700.635">*</text><text fill="#000000" font-family="sans-serif" font-size="11.31" lengthAdjust="spacing" textLength="6.09" x="182.8065" y="388.3536">1</text><!--MD5=[9ea131e34883d590a1cfd41d17f43241]
link Report to Diagnosis--><path codeLine="62" d="M157.557,593.8794 C155.6778,618.9789 156.5565,656.9196 174,683.82 C183.2655,698.1141 198.6558,708.5541 213.3414,715.8534 " fill="none" id="Report-Diagnosis" style="stroke:#A80036;stroke-width:0.87;"/><polygon fill="#000000" points="180.1592,680.0988,179.2115,671.8791,174.5611,674.006,180.1592,680.0988" style="stroke:#000000;stroke-width:0.87;"/><text fill="#000000" font-family="sans-serif" font-size="11.31" lengthAdjust="spacing" textLength="42.63" x="186.18" y="680.7708">contains</text><text fill="#000000" font-family="sans-serif" font-size="11.31" lengthAdjust="spacing" textLength="6.09" x="150.1995" y="612.3648">1</text><text fill="#000000" font-family="sans-serif" font-size="11.31" lengthAdjust="spacing" textLength="6.09" x="200.5571" y="710.2072">1</text><!--MD5=[624234e9d9cebf7c1542215e0f941f36]
@startuml
skinparam classAttributeIconSize 0


class Client {
-name
-cardNumber
-birthDate
-sex
-nhsID
-TIF
-phoneNumber
-email
-password
}

class ClinicalChemistryTechnologist

class Diagnosis

class LaboratoryCoordinator

class SpecialistDoctor {
-doctorIndexNumber
}

class Report {
-textBody
}

class Diagnosis

class Test {
-internalCode
-nhsCode
-createdAt
-designation
-dateAnalysis
-timeAnalysis
-dateDiagnosis
-timeDiagnosis
-dateValidation
-timeValidation
}

class TestParameterResult {
-createdAt
-value
-metric
}

TestParameter "*"- -"1" Test : has <
TestParameter "1"-right- "0..1" TestParameterResult : contains >
TestParameterResult "*"-right-"1" ClinicalChemistryTechnologist : generates <
TestParameterResult "1"- -"1" Parameter : associated to >
TestParameterResult "1"-up-"1" ReferenceValue : records >
TestParameterResult "*"- -"1" LaboratoryCoordinator : validated by >
TestParameterResult "*"- -"1" SpecialistDoctor : analysed by >
Test "*"- -"1" Client : requested by >
SpecialistDoctor "1"- -"*" Report : generates >
Diagnosis "*"- -"1" LaboratoryCoordinator : validated by >
Diagnosis "*"- -"1" SpecialistDoctor : generates <
Report "1"- -"1" Diagnosis : contains >
@enduml

PlantUML version 1.2021.5(Sun Apr 25 12:20:28 BST 2021)
(GPL source distribution)
Java Runtime: OpenJDK Runtime Environment
JVM: OpenJDK 64-Bit Server VM
Default Encoding: Cp1252
Language: pt
Country: PT
--></g></svg>