<?xml version="1.0" encoding="UTF-8" standalone="no"?><svg xmlns="http://www.w3.org/2000/svg" xmlns:xlink="http://www.w3.org/1999/xlink" contentScriptType="application/ecmascript" contentStyleType="text/css" height="966.25px" preserveAspectRatio="none" style="width:875px;height:966px;" version="1.1" viewBox="0 0 875 966" width="875px" zoomAndPan="magnify"><defs><filter height="300%" id="f55ebjraettzz" width="300%" x="-1" y="-1"><feGaussianBlur result="blurOut" stdDeviation="2.5"/><feColorMatrix in="blurOut" result="blurOut2" type="matrix" values="0 0 0 0 0 0 0 0 0 0 0 0 0 0 0 0 0 0 .4 0"/><feOffset dx="5.0" dy="5.0" in="blurOut2" result="blurOut3"/><feBlend in="SourceGraphic" in2="blurOut3" mode="normal"/></filter></defs><g><!--MD5=[e701ef8729a86a71c44dc5c27cbd1e18]
class ValidateTestUI--><rect codeLine="3" fill="#FEFECE" filter="url(#f55ebjraettzz)" height="60" id="ValidateTestUI" style="stroke:#A80036;stroke-width:1.875;" width="140" x="213.125" y="8.75"/><ellipse cx="231.875" cy="28.75" fill="#ADD1B2" rx="13.75" ry="13.75" style="stroke:#A80036;stroke-width:1.25;"/><path d="M234.375,24.375 Q234.6289,23.75 234.9219,23.4375 Q235.2148,23.125 235.5469,23.125 Q236.1328,23.125 236.5039,23.4766 Q236.875,23.8281 236.875,24.6484 L236.875,26.6016 Q236.875,27.4219 236.5234,27.7734 Q236.1719,28.125 235.625,28.125 Q235.1367,28.125 234.8242,27.9102 Q234.5117,27.6953 234.375,27.1289 Q234.3164,26.7383 234.1016,26.5234 Q233.7109,26.1133 233.0078,25.8789 Q232.3047,25.625 231.6016,25.625 Q230.7227,25.625 229.9805,25.9766 Q229.2578,26.3281 228.6914,27.1094 Q228.125,27.8906 228.125,28.9648 L228.125,30.1172 Q228.125,31.4063 229.1797,32.2656 Q230.2344,33.125 232.1094,33.125 Q233.2227,33.125 234.0039,32.8711 Q234.4531,32.7344 234.9609,32.2852 Q235.293,32.0313 235.4688,31.9531 Q235.6445,31.875 235.8594,31.875 Q236.2695,31.875 236.5625,32.207 Q236.875,32.5195 236.875,32.9688 Q236.875,33.3984 236.4453,33.9063 Q235.8203,34.6484 234.8242,35.0586 Q233.5156,35.625 231.9141,35.625 Q230.0391,35.625 228.5352,34.8828 Q227.3242,34.2969 226.4648,33.0273 Q225.625,31.7578 225.625,30.2539 L225.625,28.8867 Q225.625,27.3242 226.3672,25.957 Q227.1289,24.5898 228.4375,23.8672 Q229.7656,23.125 231.25,23.125 Q232.1484,23.125 232.9297,23.4375 Q233.7109,23.75 234.375,24.375 Z " fill="#000000"/><text fill="#000000" font-family="sans-serif" font-size="15" lengthAdjust="spacing" textLength="100" x="249.375" y="34.8877">ValidateTestUI</text><line style="stroke:#A80036;stroke-width:1.875;" x1="214.375" x2="351.875" y1="48.75" y2="48.75"/><line style="stroke:#A80036;stroke-width:1.875;" x1="214.375" x2="351.875" y1="58.75" y2="58.75"/><!--MD5=[a384de27f396e2e81a9835fa4098d625]
class ValidateTestController--><rect codeLine="5" fill="#FEFECE" filter="url(#f55ebjraettzz)" height="181.0645" id="ValidateTestController" style="stroke:#A80036;stroke-width:1.875;" width="215" x="175.625" y="145"/><ellipse cx="204.5" cy="165" fill="#ADD1B2" rx="13.75" ry="13.75" style="stroke:#A80036;stroke-width:1.25;"/><path d="M207,160.625 Q207.2539,160 207.5469,159.6875 Q207.8398,159.375 208.1719,159.375 Q208.7578,159.375 209.1289,159.7266 Q209.5,160.0781 209.5,160.8984 L209.5,162.8516 Q209.5,163.6719 209.1484,164.0234 Q208.7969,164.375 208.25,164.375 Q207.7617,164.375 207.4492,164.1602 Q207.1367,163.9453 207,163.3789 Q206.9414,162.9883 206.7266,162.7734 Q206.3359,162.3633 205.6328,162.1289 Q204.9297,161.875 204.2266,161.875 Q203.3477,161.875 202.6055,162.2266 Q201.8828,162.5781 201.3164,163.3594 Q200.75,164.1406 200.75,165.2148 L200.75,166.3672 Q200.75,167.6563 201.8047,168.5156 Q202.8594,169.375 204.7344,169.375 Q205.8477,169.375 206.6289,169.1211 Q207.0781,168.9844 207.5859,168.5352 Q207.918,168.2813 208.0938,168.2031 Q208.2695,168.125 208.4844,168.125 Q208.8945,168.125 209.1875,168.457 Q209.5,168.7695 209.5,169.2188 Q209.5,169.6484 209.0703,170.1563 Q208.4453,170.8984 207.4492,171.3086 Q206.1406,171.875 204.5391,171.875 Q202.6641,171.875 201.1602,171.1328 Q199.9492,170.5469 199.0898,169.2773 Q198.25,168.0078 198.25,166.5039 L198.25,165.1367 Q198.25,163.5742 198.9922,162.207 Q199.7539,160.8398 201.0625,160.1172 Q202.3906,159.375 203.875,159.375 Q204.7734,159.375 205.5547,159.6875 Q206.3359,160 207,160.625 Z " fill="#000000"/><text fill="#000000" font-family="sans-serif" font-size="15" lengthAdjust="spacing" textLength="152.5" x="224.25" y="171.1377">ValidateTestController</text><line style="stroke:#A80036;stroke-width:1.875;" x1="176.875" x2="389.375" y1="185" y2="185"/><rect fill="none" height="7.5" style="stroke:#C82930;stroke-width:1.25;" width="7.5" x="185.625" y="195"/><text fill="#000000" font-family="sans-serif" font-size="13.75" lengthAdjust="spacing" textLength="115" x="200.625" y="204.2737">Company company</text><rect fill="none" height="7.5" style="stroke:#C82930;stroke-width:1.25;" width="7.5" x="185.625" y="212.2949"/><text fill="#000000" font-family="sans-serif" font-size="13.75" lengthAdjust="spacing" textLength="146.25" x="200.625" y="221.5686">TestStore currTestStore</text><rect fill="none" height="7.5" style="stroke:#C82930;stroke-width:1.25;" width="7.5" x="185.625" y="229.5898"/><text fill="#000000" font-family="sans-serif" font-size="13.75" lengthAdjust="spacing" textLength="182.5" x="200.625" y="238.8635">List&lt;Test&gt; listTestsWithReport</text><line style="stroke:#A80036;stroke-width:1.875;" x1="176.875" x2="389.375" y1="246.8848" y2="246.8848"/><ellipse cx="189.375" cy="260.6348" fill="#84BE84" rx="3.75" ry="3.75" style="stroke:#038048;stroke-width:1.25;"/><text fill="#000000" font-family="sans-serif" font-size="13.75" lengthAdjust="spacing" textLength="150" x="200.625" y="266.1584">getListTestsWithReport()</text><ellipse cx="189.375" cy="277.9297" fill="#84BE84" rx="3.75" ry="3.75" style="stroke:#038048;stroke-width:1.25;"/><text fill="#000000" font-family="sans-serif" font-size="13.75" lengthAdjust="spacing" textLength="136.25" x="200.625" y="283.4534">validateTest(nhsCode)</text><ellipse cx="189.375" cy="295.2246" fill="#84BE84" rx="3.75" ry="3.75" style="stroke:#038048;stroke-width:1.25;"/><text fill="#000000" font-family="sans-serif" font-size="13.75" lengthAdjust="spacing" textLength="163.75" x="200.625" y="300.7483">toDTO(listTestsWithReport)</text><ellipse cx="189.375" cy="312.5195" fill="#84BE84" rx="3.75" ry="3.75" style="stroke:#038048;stroke-width:1.25;"/><text fill="#000000" font-family="sans-serif" font-size="13.75" lengthAdjust="spacing" textLength="137.5" x="200.625" y="318.0432">sendNotification(client)</text><!--MD5=[0f6f7964b844a64b0496af0dda7914bd]
class TestStore--><rect codeLine="16" fill="#FEFECE" filter="url(#f55ebjraettzz)" height="111.8848" id="TestStore" style="stroke:#A80036;stroke-width:1.875;" width="182.5" x="318.125" y="715.625"/><ellipse cx="371.1875" cy="735.625" fill="#ADD1B2" rx="13.75" ry="13.75" style="stroke:#A80036;stroke-width:1.25;"/><path d="M373.6875,731.25 Q373.9414,730.625 374.2344,730.3125 Q374.5273,730 374.8594,730 Q375.4453,730 375.8164,730.3516 Q376.1875,730.7031 376.1875,731.5234 L376.1875,733.4766 Q376.1875,734.2969 375.8359,734.6484 Q375.4844,735 374.9375,735 Q374.4492,735 374.1367,734.7852 Q373.8242,734.5703 373.6875,734.0039 Q373.6289,733.6133 373.4141,733.3984 Q373.0234,732.9883 372.3203,732.7539 Q371.6172,732.5 370.9141,732.5 Q370.0352,732.5 369.293,732.8516 Q368.5703,733.2031 368.0039,733.9844 Q367.4375,734.7656 367.4375,735.8398 L367.4375,736.9922 Q367.4375,738.2813 368.4922,739.1406 Q369.5469,740 371.4219,740 Q372.5352,740 373.3164,739.7461 Q373.7656,739.6094 374.2734,739.1602 Q374.6055,738.9063 374.7813,738.8281 Q374.957,738.75 375.1719,738.75 Q375.582,738.75 375.875,739.082 Q376.1875,739.3945 376.1875,739.8438 Q376.1875,740.2734 375.7578,740.7813 Q375.1328,741.5234 374.1367,741.9336 Q372.8281,742.5 371.2266,742.5 Q369.3516,742.5 367.8477,741.7578 Q366.6367,741.1719 365.7773,739.9023 Q364.9375,738.6328 364.9375,737.1289 L364.9375,735.7617 Q364.9375,734.1992 365.6797,732.832 Q366.4414,731.4648 367.75,730.7422 Q369.0781,730 370.5625,730 Q371.4609,730 372.2422,730.3125 Q373.0234,730.625 373.6875,731.25 Z " fill="#000000"/><text fill="#000000" font-family="sans-serif" font-size="15" lengthAdjust="spacing" textLength="66.25" x="396.3125" y="741.7627">TestStore</text><line style="stroke:#A80036;stroke-width:1.875;" x1="319.375" x2="499.375" y1="755.625" y2="755.625"/><rect fill="none" height="7.5" style="stroke:#C82930;stroke-width:1.25;" width="7.5" x="328.125" y="765.625"/><text fill="#000000" font-family="sans-serif" font-size="13.75" lengthAdjust="spacing" textLength="96.25" x="343.125" y="774.8987">List&lt;Test&gt; tests</text><line style="stroke:#A80036;stroke-width:1.875;" x1="319.375" x2="499.375" y1="782.9199" y2="782.9199"/><ellipse cx="331.875" cy="796.6699" fill="#84BE84" rx="3.75" ry="3.75" style="stroke:#038048;stroke-width:1.25;"/><text fill="#000000" font-family="sans-serif" font-size="13.75" lengthAdjust="spacing" textLength="150" x="343.125" y="802.1936">getListTestsWithReport()</text><ellipse cx="331.875" cy="813.9648" fill="#84BE84" rx="3.75" ry="3.75" style="stroke:#038048;stroke-width:1.25;"/><text fill="#000000" font-family="sans-serif" font-size="13.75" lengthAdjust="spacing" textLength="136.25" x="343.125" y="819.4885">validateTest(nhsCode)</text><!--MD5=[df38be88ccee13e832d6fafd6288a4ca]
class Test--><rect codeLine="23" fill="#FEFECE" filter="url(#f55ebjraettzz)" height="354.0137" id="Test" style="stroke:#A80036;stroke-width:1.875;" width="233.75" x="623.75" y="595"/><ellipse cx="720.3125" cy="615" fill="#ADD1B2" rx="13.75" ry="13.75" style="stroke:#A80036;stroke-width:1.25;"/><path d="M722.8125,610.625 Q723.0664,610 723.3594,609.6875 Q723.6523,609.375 723.9844,609.375 Q724.5703,609.375 724.9414,609.7266 Q725.3125,610.0781 725.3125,610.8984 L725.3125,612.8516 Q725.3125,613.6719 724.9609,614.0234 Q724.6094,614.375 724.0625,614.375 Q723.5742,614.375 723.2617,614.1602 Q722.9492,613.9453 722.8125,613.3789 Q722.7539,612.9883 722.5391,612.7734 Q722.1484,612.3633 721.4453,612.1289 Q720.7422,611.875 720.0391,611.875 Q719.1602,611.875 718.418,612.2266 Q717.6953,612.5781 717.1289,613.3594 Q716.5625,614.1406 716.5625,615.2148 L716.5625,616.3672 Q716.5625,617.6563 717.6172,618.5156 Q718.6719,619.375 720.5469,619.375 Q721.6602,619.375 722.4414,619.1211 Q722.8906,618.9844 723.3984,618.5352 Q723.7305,618.2813 723.9063,618.2031 Q724.082,618.125 724.2969,618.125 Q724.707,618.125 725,618.457 Q725.3125,618.7695 725.3125,619.2188 Q725.3125,619.6484 724.8828,620.1563 Q724.2578,620.8984 723.2617,621.3086 Q721.9531,621.875 720.3516,621.875 Q718.4766,621.875 716.9727,621.1328 Q715.7617,620.5469 714.9023,619.2773 Q714.0625,618.0078 714.0625,616.5039 L714.0625,615.1367 Q714.0625,613.5742 714.8047,612.207 Q715.5664,610.8398 716.875,610.1172 Q718.2031,609.375 719.6875,609.375 Q720.5859,609.375 721.3672,609.6875 Q722.1484,610 722.8125,610.625 Z " fill="#000000"/><text fill="#000000" font-family="sans-serif" font-size="15" lengthAdjust="spacing" textLength="30" x="745.9375" y="621.1377">Test</text><line style="stroke:#A80036;stroke-width:1.875;" x1="625" x2="856.25" y1="635" y2="635"/><rect fill="none" height="7.5" style="stroke:#C82930;stroke-width:1.25;" width="7.5" x="633.75" y="645"/><text fill="#000000" font-family="sans-serif" font-size="13.75" lengthAdjust="spacing" textLength="67.5" x="648.75" y="654.2737">Client client</text><rect fill="none" height="7.5" style="stroke:#C82930;stroke-width:1.25;" width="7.5" x="633.75" y="662.2949"/><text fill="#000000" font-family="sans-serif" font-size="13.75" lengthAdjust="spacing" textLength="191.25" x="648.75" y="671.5686">List&lt;Category&gt; listOfCategories</text><rect fill="none" height="7.5" style="stroke:#C82930;stroke-width:1.25;" width="7.5" x="633.75" y="679.5898"/><text fill="#000000" font-family="sans-serif" font-size="13.75" lengthAdjust="spacing" textLength="112.5" x="648.75" y="688.8635">TestType testType</text><rect fill="none" height="7.5" style="stroke:#C82930;stroke-width:1.25;" width="7.5" x="633.75" y="696.8848"/><text fill="#000000" font-family="sans-serif" font-size="13.75" lengthAdjust="spacing" textLength="92.5" x="648.75" y="706.1584">String testCode</text><rect fill="none" height="7.5" style="stroke:#C82930;stroke-width:1.25;" width="7.5" x="633.75" y="714.1797"/><text fill="#000000" font-family="sans-serif" font-size="13.75" lengthAdjust="spacing" textLength="92.5" x="648.75" y="723.4534">String nhsCode</text><rect fill="none" height="7.5" style="stroke:#C82930;stroke-width:1.25;" width="7.5" x="633.75" y="731.4746"/><text fill="#000000" font-family="sans-serif" font-size="13.75" lengthAdjust="spacing" textLength="122.5" x="648.75" y="740.7483">Date dateOfCreation</text><rect fill="none" height="7.5" style="stroke:#C82930;stroke-width:1.25;" width="7.5" x="633.75" y="748.7695"/><text fill="#000000" font-family="sans-serif" font-size="13.75" lengthAdjust="spacing" textLength="201.25" x="648.75" y="758.0432">List&lt;Parameter&gt; listOfParameters</text><rect fill="none" height="7.5" style="stroke:#C82930;stroke-width:1.25;" width="7.5" x="633.75" y="766.0645"/><text fill="#000000" font-family="sans-serif" font-size="13.75" lengthAdjust="spacing" textLength="170" x="648.75" y="775.3381">TestParamList testParamList</text><rect fill="none" height="7.5" style="stroke:#C82930;stroke-width:1.25;" width="7.5" x="633.75" y="783.3594"/><text fill="#000000" font-family="sans-serif" font-size="13.75" lengthAdjust="spacing" textLength="132.5" x="648.75" y="792.6331">SampleList sampleList</text><rect fill="none" height="7.5" style="stroke:#C82930;stroke-width:1.25;" width="7.5" x="633.75" y="800.6543"/><text fill="#000000" font-family="sans-serif" font-size="13.75" lengthAdjust="spacing" textLength="147.5" x="648.75" y="809.928">StateOfTest stateOfTest</text><rect fill="none" height="7.5" style="stroke:#C82930;stroke-width:1.25;" width="7.5" x="633.75" y="817.9492"/><text fill="#000000" font-family="sans-serif" font-size="13.75" lengthAdjust="spacing" textLength="80" x="648.75" y="827.2229">Report report</text><rect fill="none" height="7.5" style="stroke:#C82930;stroke-width:1.25;" width="7.5" x="633.75" y="835.2441"/><text fill="#000000" font-family="sans-serif" font-size="13.75" lengthAdjust="spacing" textLength="130" x="648.75" y="844.5178">LocalDate dateReport</text><rect fill="none" height="7.5" style="stroke:#C82930;stroke-width:1.25;" width="7.5" x="633.75" y="852.5391"/><text fill="#000000" font-family="sans-serif" font-size="13.75" lengthAdjust="spacing" textLength="127.5" x="648.75" y="861.8127">LocalTime timeReport</text><rect fill="none" height="7.5" style="stroke:#C82930;stroke-width:1.25;" width="7.5" x="633.75" y="869.834"/><text fill="#000000" font-family="sans-serif" font-size="13.75" lengthAdjust="spacing" textLength="135" x="648.75" y="879.1077">LocalDate dateResults</text><rect fill="none" height="7.5" style="stroke:#C82930;stroke-width:1.25;" width="7.5" x="633.75" y="887.1289"/><text fill="#000000" font-family="sans-serif" font-size="13.75" lengthAdjust="spacing" textLength="132.5" x="648.75" y="896.4026">LocalTime timeResults</text><rect fill="none" height="7.5" style="stroke:#C82930;stroke-width:1.25;" width="7.5" x="633.75" y="904.4238"/><text fill="#000000" font-family="sans-serif" font-size="13.75" lengthAdjust="spacing" textLength="148.75" x="648.75" y="913.6975">LocalDate dateValidation</text><rect fill="none" height="7.5" style="stroke:#C82930;stroke-width:1.25;" width="7.5" x="633.75" y="921.7188"/><text fill="#000000" font-family="sans-serif" font-size="13.75" lengthAdjust="spacing" textLength="146.25" x="648.75" y="930.9924">LocalTime timeValidation</text><line style="stroke:#A80036;stroke-width:1.875;" x1="625" x2="856.25" y1="939.0137" y2="939.0137"/><!--MD5=[144698ec4d0188f6929a3b58a3eeb1f6]
class TestMapper--><rect codeLine="43" fill="#FEFECE" filter="url(#f55ebjraettzz)" height="94.5898" id="TestMapper" style="stroke:#A80036;stroke-width:1.875;" width="276.25" x="8.75" y="402.5"/><ellipse cx="100.9375" cy="422.5" fill="#ADD1B2" rx="13.75" ry="13.75" style="stroke:#A80036;stroke-width:1.25;"/><path d="M103.4375,418.125 Q103.6914,417.5 103.9844,417.1875 Q104.2773,416.875 104.6094,416.875 Q105.1953,416.875 105.5664,417.2266 Q105.9375,417.5781 105.9375,418.3984 L105.9375,420.3516 Q105.9375,421.1719 105.5859,421.5234 Q105.2344,421.875 104.6875,421.875 Q104.1992,421.875 103.8867,421.6602 Q103.5742,421.4453 103.4375,420.8789 Q103.3789,420.4883 103.1641,420.2734 Q102.7734,419.8633 102.0703,419.6289 Q101.3672,419.375 100.6641,419.375 Q99.7852,419.375 99.043,419.7266 Q98.3203,420.0781 97.7539,420.8594 Q97.1875,421.6406 97.1875,422.7148 L97.1875,423.8672 Q97.1875,425.1563 98.2422,426.0156 Q99.2969,426.875 101.1719,426.875 Q102.2852,426.875 103.0664,426.6211 Q103.5156,426.4844 104.0234,426.0352 Q104.3555,425.7813 104.5313,425.7031 Q104.707,425.625 104.9219,425.625 Q105.332,425.625 105.625,425.957 Q105.9375,426.2695 105.9375,426.7188 Q105.9375,427.1484 105.5078,427.6563 Q104.8828,428.3984 103.8867,428.8086 Q102.5781,429.375 100.9766,429.375 Q99.1016,429.375 97.5977,428.6328 Q96.3867,428.0469 95.5273,426.7773 Q94.6875,425.5078 94.6875,424.0039 L94.6875,422.6367 Q94.6875,421.0742 95.4297,419.707 Q96.1914,418.3398 97.5,417.6172 Q98.8281,416.875 100.3125,416.875 Q101.2109,416.875 101.9922,417.1875 Q102.7734,417.5 103.4375,418.125 Z " fill="#000000"/><text fill="#000000" font-family="sans-serif" font-size="15" lengthAdjust="spacing" textLength="81.25" x="126.5625" y="428.6377">TestMapper</text><line style="stroke:#A80036;stroke-width:1.875;" x1="10" x2="283.75" y1="442.5" y2="442.5"/><line style="stroke:#A80036;stroke-width:1.875;" x1="10" x2="283.75" y1="452.5" y2="452.5"/><ellipse cx="22.5" cy="466.25" fill="#84BE84" rx="3.75" ry="3.75" style="stroke:#038048;stroke-width:1.25;"/><text fill="#000000" font-family="sans-serif" font-size="13.75" lengthAdjust="spacing" textLength="243.75" x="33.75" y="471.7737">toDTOListValidation(listTestsWithReport)</text><ellipse cx="22.5" cy="483.5449" fill="#84BE84" rx="3.75" ry="3.75" style="stroke:#038048;stroke-width:1.25;"/><text fill="#000000" font-family="sans-serif" font-size="13.75" lengthAdjust="spacing" textLength="128.75" x="33.75" y="489.0686">toDTOValidation(test)</text><!--MD5=[9fb704ffefcaf68bf1a361787afa998b]
class TestDTO--><rect codeLine="50" fill="#FEFECE" filter="url(#f55ebjraettzz)" height="354.0137" id="TestDTO" style="stroke:#A80036;stroke-width:1.875;" width="233.75" x="30" y="595"/><ellipse cx="110.9375" cy="615" fill="#ADD1B2" rx="13.75" ry="13.75" style="stroke:#A80036;stroke-width:1.25;"/><path d="M113.4375,610.625 Q113.6914,610 113.9844,609.6875 Q114.2773,609.375 114.6094,609.375 Q115.1953,609.375 115.5664,609.7266 Q115.9375,610.0781 115.9375,610.8984 L115.9375,612.8516 Q115.9375,613.6719 115.5859,614.0234 Q115.2344,614.375 114.6875,614.375 Q114.1992,614.375 113.8867,614.1602 Q113.5742,613.9453 113.4375,613.3789 Q113.3789,612.9883 113.1641,612.7734 Q112.7734,612.3633 112.0703,612.1289 Q111.3672,611.875 110.6641,611.875 Q109.7852,611.875 109.043,612.2266 Q108.3203,612.5781 107.7539,613.3594 Q107.1875,614.1406 107.1875,615.2148 L107.1875,616.3672 Q107.1875,617.6563 108.2422,618.5156 Q109.2969,619.375 111.1719,619.375 Q112.2852,619.375 113.0664,619.1211 Q113.5156,618.9844 114.0234,618.5352 Q114.3555,618.2813 114.5313,618.2031 Q114.707,618.125 114.9219,618.125 Q115.332,618.125 115.625,618.457 Q115.9375,618.7695 115.9375,619.2188 Q115.9375,619.6484 115.5078,620.1563 Q114.8828,620.8984 113.8867,621.3086 Q112.5781,621.875 110.9766,621.875 Q109.1016,621.875 107.5977,621.1328 Q106.3867,620.5469 105.5273,619.2773 Q104.6875,618.0078 104.6875,616.5039 L104.6875,615.1367 Q104.6875,613.5742 105.4297,612.207 Q106.1914,610.8398 107.5,610.1172 Q108.8281,609.375 110.3125,609.375 Q111.2109,609.375 111.9922,609.6875 Q112.7734,610 113.4375,610.625 Z " fill="#000000"/><text fill="#000000" font-family="sans-serif" font-size="15" lengthAdjust="spacing" textLength="61.25" x="136.5625" y="621.1377">TestDTO</text><line style="stroke:#A80036;stroke-width:1.875;" x1="31.25" x2="262.5" y1="635" y2="635"/><rect fill="none" height="7.5" style="stroke:#C82930;stroke-width:1.25;" width="7.5" x="40" y="645"/><text fill="#000000" font-family="sans-serif" font-size="13.75" lengthAdjust="spacing" textLength="67.5" x="55" y="654.2737">Client client</text><rect fill="none" height="7.5" style="stroke:#C82930;stroke-width:1.25;" width="7.5" x="40" y="662.2949"/><text fill="#000000" font-family="sans-serif" font-size="13.75" lengthAdjust="spacing" textLength="191.25" x="55" y="671.5686">List&lt;Category&gt; listOfCategories</text><rect fill="none" height="7.5" style="stroke:#C82930;stroke-width:1.25;" width="7.5" x="40" y="679.5898"/><text fill="#000000" font-family="sans-serif" font-size="13.75" lengthAdjust="spacing" textLength="112.5" x="55" y="688.8635">TestType testType</text><rect fill="none" height="7.5" style="stroke:#C82930;stroke-width:1.25;" width="7.5" x="40" y="696.8848"/><text fill="#000000" font-family="sans-serif" font-size="13.75" lengthAdjust="spacing" textLength="92.5" x="55" y="706.1584">String testCode</text><rect fill="none" height="7.5" style="stroke:#C82930;stroke-width:1.25;" width="7.5" x="40" y="714.1797"/><text fill="#000000" font-family="sans-serif" font-size="13.75" lengthAdjust="spacing" textLength="92.5" x="55" y="723.4534">String nhsCode</text><rect fill="none" height="7.5" style="stroke:#C82930;stroke-width:1.25;" width="7.5" x="40" y="731.4746"/><text fill="#000000" font-family="sans-serif" font-size="13.75" lengthAdjust="spacing" textLength="122.5" x="55" y="740.7483">Date dateOfCreation</text><rect fill="none" height="7.5" style="stroke:#C82930;stroke-width:1.25;" width="7.5" x="40" y="748.7695"/><text fill="#000000" font-family="sans-serif" font-size="13.75" lengthAdjust="spacing" textLength="201.25" x="55" y="758.0432">List&lt;Parameter&gt; listOfParameters</text><rect fill="none" height="7.5" style="stroke:#C82930;stroke-width:1.25;" width="7.5" x="40" y="766.0645"/><text fill="#000000" font-family="sans-serif" font-size="13.75" lengthAdjust="spacing" textLength="170" x="55" y="775.3381">TestParamList testParamList</text><rect fill="none" height="7.5" style="stroke:#C82930;stroke-width:1.25;" width="7.5" x="40" y="783.3594"/><text fill="#000000" font-family="sans-serif" font-size="13.75" lengthAdjust="spacing" textLength="132.5" x="55" y="792.6331">SampleList sampleList</text><rect fill="none" height="7.5" style="stroke:#C82930;stroke-width:1.25;" width="7.5" x="40" y="800.6543"/><text fill="#000000" font-family="sans-serif" font-size="13.75" lengthAdjust="spacing" textLength="147.5" x="55" y="809.928">StateOfTest stateOfTest</text><rect fill="none" height="7.5" style="stroke:#C82930;stroke-width:1.25;" width="7.5" x="40" y="817.9492"/><text fill="#000000" font-family="sans-serif" font-size="13.75" lengthAdjust="spacing" textLength="80" x="55" y="827.2229">Report report</text><rect fill="none" height="7.5" style="stroke:#C82930;stroke-width:1.25;" width="7.5" x="40" y="835.2441"/><text fill="#000000" font-family="sans-serif" font-size="13.75" lengthAdjust="spacing" textLength="130" x="55" y="844.5178">LocalDate dateReport</text><rect fill="none" height="7.5" style="stroke:#C82930;stroke-width:1.25;" width="7.5" x="40" y="852.5391"/><text fill="#000000" font-family="sans-serif" font-size="13.75" lengthAdjust="spacing" textLength="127.5" x="55" y="861.8127">LocalTime timeReport</text><rect fill="none" height="7.5" style="stroke:#C82930;stroke-width:1.25;" width="7.5" x="40" y="869.834"/><text fill="#000000" font-family="sans-serif" font-size="13.75" lengthAdjust="spacing" textLength="135" x="55" y="879.1077">LocalDate dateResults</text><rect fill="none" height="7.5" style="stroke:#C82930;stroke-width:1.25;" width="7.5" x="40" y="887.1289"/><text fill="#000000" font-family="sans-serif" font-size="13.75" lengthAdjust="spacing" textLength="132.5" x="55" y="896.4026">LocalTime timeResults</text><rect fill="none" height="7.5" style="stroke:#C82930;stroke-width:1.25;" width="7.5" x="40" y="904.4238"/><text fill="#000000" font-family="sans-serif" font-size="13.75" lengthAdjust="spacing" textLength="148.75" x="55" y="913.6975">LocalDate dateValidation</text><rect fill="none" height="7.5" style="stroke:#C82930;stroke-width:1.25;" width="7.5" x="40" y="921.7188"/><text fill="#000000" font-family="sans-serif" font-size="13.75" lengthAdjust="spacing" textLength="146.25" x="55" y="930.9924">LocalTime timeValidation</text><line style="stroke:#A80036;stroke-width:1.875;" x1="31.25" x2="262.5" y1="939.0137" y2="939.0137"/><!--MD5=[02e4b9b7573f1156f41e60aa5b4e25a4]
class Company--><rect codeLine="70" fill="#FEFECE" filter="url(#f55ebjraettzz)" height="94.5898" id="Company" style="stroke:#A80036;stroke-width:1.875;" width="182.5" x="329.375" y="402.5"/><ellipse cx="382.4375" cy="422.5" fill="#ADD1B2" rx="13.75" ry="13.75" style="stroke:#A80036;stroke-width:1.25;"/><path d="M384.9375,418.125 Q385.1914,417.5 385.4844,417.1875 Q385.7773,416.875 386.1094,416.875 Q386.6953,416.875 387.0664,417.2266 Q387.4375,417.5781 387.4375,418.3984 L387.4375,420.3516 Q387.4375,421.1719 387.0859,421.5234 Q386.7344,421.875 386.1875,421.875 Q385.6992,421.875 385.3867,421.6602 Q385.0742,421.4453 384.9375,420.8789 Q384.8789,420.4883 384.6641,420.2734 Q384.2734,419.8633 383.5703,419.6289 Q382.8672,419.375 382.1641,419.375 Q381.2852,419.375 380.543,419.7266 Q379.8203,420.0781 379.2539,420.8594 Q378.6875,421.6406 378.6875,422.7148 L378.6875,423.8672 Q378.6875,425.1563 379.7422,426.0156 Q380.7969,426.875 382.6719,426.875 Q383.7852,426.875 384.5664,426.6211 Q385.0156,426.4844 385.5234,426.0352 Q385.8555,425.7813 386.0313,425.7031 Q386.207,425.625 386.4219,425.625 Q386.832,425.625 387.125,425.957 Q387.4375,426.2695 387.4375,426.7188 Q387.4375,427.1484 387.0078,427.6563 Q386.3828,428.3984 385.3867,428.8086 Q384.0781,429.375 382.4766,429.375 Q380.6016,429.375 379.0977,428.6328 Q377.8867,428.0469 377.0273,426.7773 Q376.1875,425.5078 376.1875,424.0039 L376.1875,422.6367 Q376.1875,421.0742 376.9297,419.707 Q377.6914,418.3398 379,417.6172 Q380.3281,416.875 381.8125,416.875 Q382.7109,416.875 383.4922,417.1875 Q384.2734,417.5 384.9375,418.125 Z " fill="#000000"/><text fill="#000000" font-family="sans-serif" font-size="15" lengthAdjust="spacing" textLength="66.25" x="407.5625" y="428.6377">Company</text><line style="stroke:#A80036;stroke-width:1.875;" x1="330.625" x2="510.625" y1="442.5" y2="442.5"/><rect fill="none" height="7.5" style="stroke:#C82930;stroke-width:1.25;" width="7.5" x="339.375" y="452.5"/><text fill="#000000" font-family="sans-serif" font-size="13.75" lengthAdjust="spacing" textLength="117.5" x="354.375" y="461.7737">TestStore testStore</text><line style="stroke:#A80036;stroke-width:1.875;" x1="330.625" x2="510.625" y1="469.7949" y2="469.7949"/><ellipse cx="343.125" cy="483.5449" fill="#84BE84" rx="3.75" ry="3.75" style="stroke:#038048;stroke-width:1.25;"/><text fill="#000000" font-family="sans-serif" font-size="13.75" lengthAdjust="spacing" textLength="150" x="354.375" y="489.0686">getListTestsWithReport()</text><!--MD5=[fdd8c1fc10394f2433e9e56b9d7f04ea]
link ValidateTestUI to ValidateTestController--><path codeLine="76" d="M283.125,69.1 C283.125,87.75 283.125,113.1125 283.125,138.375 " fill="none" id="ValidateTestUI-to-ValidateTestController" style="stroke:#A80036;stroke-width:1.25;stroke-dasharray:7.0,7.0;"/><polygon fill="#A80036" points="283.125,144.7875,288.1571,133.5518,283.1429,138.5375,278.1572,133.5233,283.125,144.7875" style="stroke:#A80036;stroke-width:1.25;"/><!--MD5=[2a6fd03b0c665f422f5a15571418b28a]
link ValidateTestController to Company--><path codeLine="77" d="M341.4375,326.725 C356.9625,350.6375 373.2,375.675 386.9125,396.8 " fill="none" id="ValidateTestController-to-Company" style="stroke:#A80036;stroke-width:1.25;stroke-dasharray:7.0,7.0;"/><polygon fill="#A80036" points="390.3375,402.0875,388.4015,389.9296,386.9326,396.8464,380.0158,395.3775,390.3375,402.0875" style="stroke:#A80036;stroke-width:1.25;"/><!--MD5=[bc74df9444e963331a9930bc5642f9af]
link ValidateTestController to TestMapper--><path codeLine="78" d="M225.3375,326.725 C209.9625,350.6375 193.8625,375.675 180.2875,396.8 " fill="none" id="ValidateTestController-to-TestMapper" style="stroke:#A80036;stroke-width:1.25;stroke-dasharray:7.0,7.0;"/><polygon fill="#A80036" points="176.8875,402.0875,187.1769,395.328,180.2672,396.8301,178.7651,389.9205,176.8875,402.0875" style="stroke:#A80036;stroke-width:1.25;"/><!--MD5=[f6fda4afaf882dd39139bcbf06c50c8c]
link TestMapper to TestDTO--><path codeLine="79" d="M146.875,497.6875 C146.875,522.525 146.875,554.9 146.875,588.6125 " fill="none" id="TestMapper-to-TestDTO" style="stroke:#A80036;stroke-width:1.25;stroke-dasharray:7.0,7.0;"/><polygon fill="#A80036" points="146.875,594.925,151.875,583.675,146.875,588.675,141.875,583.675,146.875,594.925" style="stroke:#A80036;stroke-width:1.25;"/><!--MD5=[7f6cf7f175eae0af66201860de5de971]
link Company to TestStore--><path codeLine="80" d="M418.9875,497.6875 C416.95,555.475 413.4875,654.0125 411.3125,715.55 " fill="none" id="Company-TestStore" style="stroke:#A80036;stroke-width:1.25;"/><polygon fill="#000000" points="422.905,552.7159,426.9744,541.5458,419.6316,541.2872,422.905,552.7159" style="stroke:#000000;stroke-width:1.25;"/><text fill="#000000" font-family="sans-serif" font-size="16.25" lengthAdjust="spacing" textLength="35" x="434.375" y="553.1189">uses</text><text fill="#000000" font-family="sans-serif" font-size="16.25" lengthAdjust="spacing" textLength="8.75" x="409.2793" y="523.818">1</text><text fill="#000000" font-family="sans-serif" font-size="16.25" lengthAdjust="spacing" textLength="8.75" x="402.174" y="701.9324">1</text><!--MD5=[b0f4f6db8206580012ef9cd998ed01c5]
link TestStore to Test--><path codeLine="81" d="M500.7625,771.875 C536.6125,771.875 578.3,771.875 616.775,771.875 " fill="none" id="TestStore-to-Test" style="stroke:#A80036;stroke-width:1.25;"/><polygon fill="#A80036" points="623.425,771.875,612.175,766.875,617.175,771.875,612.175,776.875,623.425,771.875" style="stroke:#A80036;stroke-width:1.25;"/><polygon fill="#000000" points="534.6875,757.0947,523.3811,753.4211,523.3811,760.7684,534.6875,757.0947" style="stroke:#000000;stroke-width:1.25;"/><text fill="#000000" font-family="sans-serif" font-size="16.25" lengthAdjust="spacing" textLength="61.25" x="539.6875" y="763.7439">contains</text><text fill="#000000" font-family="sans-serif" font-size="16.25" lengthAdjust="spacing" textLength="8.75" x="510.638" y="767.767">1</text><text fill="#000000" font-family="sans-serif" font-size="16.25" lengthAdjust="spacing" textLength="6.25" x="607.5866" y="767.954">*</text><!--MD5=[7e4bc624457760b649895ff2ead938fa]
link Company to Test--><path codeLine="82" d="M467.15,497.6875 C506.95,537.4 566.025,596.3625 619.1,649.3375 " fill="none" id="Company-to-Test" style="stroke:#A80036;stroke-width:1.25;"/><polygon fill="#A80036" points="623.5625,653.7875,619.1431,642.297,619.1431,649.3681,612.072,649.3681,623.5625,653.7875" style="stroke:#A80036;stroke-width:1.25;"/><polygon fill="#000000" points="533.7988,550.8848,528.3912,540.2976,523.201,545.4981,533.7988,550.8848" style="stroke:#000000;stroke-width:1.25;"/><text fill="#000000" font-family="sans-serif" font-size="16.25" lengthAdjust="spacing" textLength="62.5" x="540.625" y="553.1189">performs</text><!--MD5=[6810d483f3b46cb7fb828b4f26d6eb3b]
@startuml
'https://plantuml.com/class-diagram

class ValidateTestUI

class ValidateTestController{
-Company company
-TestStore currTestStore
-List<Test> listTestsWithReport

+getListTestsWithReport()
+validateTest(nhsCode)
+toDTO(listTestsWithReport)
+sendNotification(client)
}

class TestStore{
-List<Test> tests

+getListTestsWithReport()
+validateTest(nhsCode)
}

class Test{
-Client client
-List<Category> listOfCategories
-TestType testType
-String testCode
-String nhsCode
-Date dateOfCreation
-List<Parameter> listOfParameters
-TestParamList testParamList
-SampleList sampleList
-StateOfTest stateOfTest
-Report report
-LocalDate dateReport
-LocalTime timeReport
-LocalDate dateResults
-LocalTime timeResults
-LocalDate dateValidation
-LocalTime timeValidation
}

class TestMapper{


+toDTOListValidation(listTestsWithReport)
+toDTOValidation(test)
}

class TestDTO{
-Client client
-List<Category> listOfCategories
-TestType testType
-String testCode
-String nhsCode
-Date dateOfCreation
-List<Parameter> listOfParameters
-TestParamList testParamList
-SampleList sampleList
-StateOfTest stateOfTest
-Report report
-LocalDate dateReport
-LocalTime timeReport
-LocalDate dateResults
-LocalTime timeResults
-LocalDate dateValidation
-LocalTime timeValidation
}

class Company{
-TestStore testStore

+getListTestsWithReport()
}

ValidateTestUI ..> ValidateTestController
ValidateTestController ..> Company
ValidateTestController ..> TestMapper
TestMapper ..> TestDTO
Company "1"-down-"1" TestStore: uses >
TestStore "1"->"*" Test: contains >
Company - -> Test: performs >

@enduml

@startuml

class ValidateTestUI

class ValidateTestController{
-Company company
-TestStore currTestStore
-List<Test> listTestsWithReport

+getListTestsWithReport()
+validateTest(nhsCode)
+toDTO(listTestsWithReport)
+sendNotification(client)
}

class TestStore{
-List<Test> tests

+getListTestsWithReport()
+validateTest(nhsCode)
}

class Test{
-Client client
-List<Category> listOfCategories
-TestType testType
-String testCode
-String nhsCode
-Date dateOfCreation
-List<Parameter> listOfParameters
-TestParamList testParamList
-SampleList sampleList
-StateOfTest stateOfTest
-Report report
-LocalDate dateReport
-LocalTime timeReport
-LocalDate dateResults
-LocalTime timeResults
-LocalDate dateValidation
-LocalTime timeValidation
}

class TestMapper{


+toDTOListValidation(listTestsWithReport)
+toDTOValidation(test)
}

class TestDTO{
-Client client
-List<Category> listOfCategories
-TestType testType
-String testCode
-String nhsCode
-Date dateOfCreation
-List<Parameter> listOfParameters
-TestParamList testParamList
-SampleList sampleList
-StateOfTest stateOfTest
-Report report
-LocalDate dateReport
-LocalTime timeReport
-LocalDate dateResults
-LocalTime timeResults
-LocalDate dateValidation
-LocalTime timeValidation
}

class Company{
-TestStore testStore

+getListTestsWithReport()
}

ValidateTestUI ..> ValidateTestController
ValidateTestController ..> Company
ValidateTestController ..> TestMapper
TestMapper ..> TestDTO
Company "1"-down-"1" TestStore: uses >
TestStore "1"->"*" Test: contains >
Company - -> Test: performs >

@enduml

PlantUML version 1.2021.5(Sun Apr 25 12:20:28 BST 2021)
(GPL source distribution)
Java Runtime: OpenJDK Runtime Environment
JVM: OpenJDK 64-Bit Server VM
Default Encoding: Cp1252
Language: pt
Country: PT
--></g></svg>