<?xml version="1.0" encoding="UTF-8" standalone="no"?><svg xmlns="http://www.w3.org/2000/svg" xmlns:xlink="http://www.w3.org/1999/xlink" contentScriptType="application/ecmascript" contentStyleType="text/css" height="687.7px" preserveAspectRatio="none" style="width:318px;height:687px;" version="1.1" viewBox="0 0 318 687" width="318.5px" zoomAndPan="magnify"><defs><filter height="300%" id="fbh5owx6ahd0z" width="300%" x="-1" y="-1"><feGaussianBlur result="blurOut" stdDeviation="2.6"/><feColorMatrix in="blurOut" result="blurOut2" type="matrix" values="0 0 0 0 0 0 0 0 0 0 0 0 0 0 0 0 0 0 .4 0"/><feOffset dx="5.2" dy="5.2" in="blurOut2" result="blurOut3"/><feBlend in="SourceGraphic" in2="blurOut3" mode="normal"/></filter></defs><g><!--MD5=[ed6624c6556d5e7b1bd23032162d20b7]
class Client--><rect codeLine="4" fill="#FEFECE" filter="url(#fbh5owx6ahd0z)" height="206.2938" id="Client" style="stroke:#A80036;stroke-width:1.9500000000000002;" width="107.9" x="153.4" y="299"/><ellipse cx="184.015" cy="319.8" fill="#ADD1B2" rx="14.3" ry="14.3" style="stroke:#A80036;stroke-width:1.3;"/><path d="M186.615,315.25 Q186.8791,314.6 187.1838,314.275 Q187.4884,313.95 187.8338,313.95 Q188.4431,313.95 188.8291,314.3156 Q189.215,314.6813 189.215,315.5344 L189.215,317.5656 Q189.215,318.4188 188.8494,318.7844 Q188.4838,319.15 187.915,319.15 Q187.4072,319.15 187.0822,318.9266 Q186.7572,318.7031 186.615,318.1141 Q186.5541,317.7078 186.3306,317.4844 Q185.9244,317.0578 185.1931,316.8141 Q184.4619,316.55 183.7306,316.55 Q182.8166,316.55 182.0447,316.9156 Q181.2931,317.2813 180.7041,318.0938 Q180.115,318.9063 180.115,320.0234 L180.115,321.2219 Q180.115,322.5625 181.2119,323.4563 Q182.3088,324.35 184.2588,324.35 Q185.4166,324.35 186.2291,324.0859 Q186.6963,323.9438 187.2244,323.4766 Q187.5697,323.2125 187.7525,323.1313 Q187.9353,323.05 188.1588,323.05 Q188.5853,323.05 188.89,323.3953 Q189.215,323.7203 189.215,324.1875 Q189.215,324.6344 188.7681,325.1625 Q188.1181,325.9344 187.0822,326.3609 Q185.7213,326.95 184.0556,326.95 Q182.1056,326.95 180.5416,326.1781 Q179.2822,325.5688 178.3884,324.2484 Q177.515,322.9281 177.515,321.3641 L177.515,319.9422 Q177.515,318.3172 178.2869,316.8953 Q179.0791,315.4734 180.44,314.7219 Q181.8213,313.95 183.365,313.95 Q184.2994,313.95 185.1119,314.275 Q185.9244,314.6 186.615,315.25 Z " fill="#000000"/><text fill="#000000" font-family="sans-serif" font-size="15.6" lengthAdjust="spacing" textLength="41.6" x="204.685" y="326.1832">Client</text><line style="stroke:#A80036;stroke-width:1.9500000000000002;" x1="154.7" x2="260" y1="340.6" y2="340.6"/><text fill="#000000" font-family="sans-serif" font-size="14.3" lengthAdjust="spacing" textLength="39" x="161.2" y="360.6446">-name</text><text fill="#000000" font-family="sans-serif" font-size="14.3" lengthAdjust="spacing" textLength="81.9" x="161.2" y="378.6313">-cardNumber</text><text fill="#000000" font-family="sans-serif" font-size="14.3" lengthAdjust="spacing" textLength="61.1" x="161.2" y="396.6181">-birthDate</text><text fill="#000000" font-family="sans-serif" font-size="14.3" lengthAdjust="spacing" textLength="28.6" x="161.2" y="414.6048">-sex</text><text fill="#000000" font-family="sans-serif" font-size="14.3" lengthAdjust="spacing" textLength="40.3" x="161.2" y="432.5915">-nhsID</text><text fill="#000000" font-family="sans-serif" font-size="14.3" lengthAdjust="spacing" textLength="24.7" x="161.2" y="450.5782">-TIN</text><text fill="#000000" font-family="sans-serif" font-size="14.3" lengthAdjust="spacing" textLength="92.3" x="161.2" y="468.5649">-phoneNumber</text><text fill="#000000" font-family="sans-serif" font-size="14.3" lengthAdjust="spacing" textLength="36.4" x="161.2" y="486.5517">-email</text><line style="stroke:#A80036;stroke-width:1.9500000000000002;" x1="154.7" x2="260" y1="494.8938" y2="494.8938"/><!--MD5=[03960189e81aa2c066c762ffabbee709]
class Receptionist--><rect codeLine="14" fill="#FEFECE" filter="url(#fbh5owx6ahd0z)" height="188.307" id="Receptionist" style="stroke:#A80036;stroke-width:1.9500000000000002;" width="131.3" x="169" y="9.1"/><ellipse cx="188.5" cy="29.9" fill="#ADD1B2" rx="14.3" ry="14.3" style="stroke:#A80036;stroke-width:1.3;"/><path d="M191.1,25.35 Q191.3641,24.7 191.6688,24.375 Q191.9734,24.05 192.3188,24.05 Q192.9281,24.05 193.3141,24.4156 Q193.7,24.7813 193.7,25.6344 L193.7,27.6656 Q193.7,28.5188 193.3344,28.8844 Q192.9688,29.25 192.4,29.25 Q191.8922,29.25 191.5672,29.0266 Q191.2422,28.8031 191.1,28.2141 Q191.0391,27.8078 190.8156,27.5844 Q190.4094,27.1578 189.6781,26.9141 Q188.9469,26.65 188.2156,26.65 Q187.3016,26.65 186.5297,27.0156 Q185.7781,27.3813 185.1891,28.1938 Q184.6,29.0063 184.6,30.1234 L184.6,31.3219 Q184.6,32.6625 185.6969,33.5563 Q186.7938,34.45 188.7438,34.45 Q189.9016,34.45 190.7141,34.1859 Q191.1813,34.0438 191.7094,33.5766 Q192.0547,33.3125 192.2375,33.2313 Q192.4203,33.15 192.6438,33.15 Q193.0703,33.15 193.375,33.4953 Q193.7,33.8203 193.7,34.2875 Q193.7,34.7344 193.2531,35.2625 Q192.6031,36.0344 191.5672,36.4609 Q190.2063,37.05 188.5406,37.05 Q186.5906,37.05 185.0266,36.2781 Q183.7672,35.6688 182.8734,34.3484 Q182,33.0281 182,31.4641 L182,30.0422 Q182,28.4172 182.7719,26.9953 Q183.5641,25.5734 184.925,24.8219 Q186.3063,24.05 187.85,24.05 Q188.7844,24.05 189.5969,24.375 Q190.4094,24.7 191.1,25.35 Z " fill="#000000"/><text fill="#000000" font-family="sans-serif" font-size="15.6" lengthAdjust="spacing" textLength="89.7" x="206.7" y="36.2832">Receptionist</text><line style="stroke:#A80036;stroke-width:1.9500000000000002;" x1="170.3" x2="299" y1="50.7" y2="50.7"/><text fill="#000000" font-family="sans-serif" font-size="14.3" lengthAdjust="spacing" textLength="76.7" x="176.8" y="70.7446">-employeeID</text><text fill="#000000" font-family="sans-serif" font-size="14.3" lengthAdjust="spacing" textLength="93.6" x="176.8" y="88.7313">-organizationID</text><text fill="#000000" font-family="sans-serif" font-size="14.3" lengthAdjust="spacing" textLength="39" x="176.8" y="106.7181">-name</text><text fill="#000000" font-family="sans-serif" font-size="14.3" lengthAdjust="spacing" textLength="57.2" x="176.8" y="124.7048">-address</text><text fill="#000000" font-family="sans-serif" font-size="14.3" lengthAdjust="spacing" textLength="92.3" x="176.8" y="142.6915">-phoneNumber</text><text fill="#000000" font-family="sans-serif" font-size="14.3" lengthAdjust="spacing" textLength="36.4" x="176.8" y="160.6782">-email</text><text fill="#000000" font-family="sans-serif" font-size="14.3" lengthAdjust="spacing" textLength="65" x="176.8" y="178.6649">-SOCcode</text><line style="stroke:#A80036;stroke-width:1.9500000000000002;" x1="170.3" x2="299" y1="187.007" y2="187.007"/><!--MD5=[02e4b9b7573f1156f41e60aa5b4e25a4]
class Company--><rect codeLine="24" fill="#FEFECE" filter="url(#fbh5owx6ahd0z)" height="80.3867" id="Company" style="stroke:#A80036;stroke-width:1.9500000000000002;" width="110.5" x="9.1" y="63.05"/><ellipse cx="28.6" cy="83.85" fill="#ADD1B2" rx="14.3" ry="14.3" style="stroke:#A80036;stroke-width:1.3;"/><path d="M31.2,79.3 Q31.4641,78.65 31.7688,78.325 Q32.0734,78 32.4188,78 Q33.0281,78 33.4141,78.3656 Q33.8,78.7313 33.8,79.5844 L33.8,81.6156 Q33.8,82.4688 33.4344,82.8344 Q33.0688,83.2 32.5,83.2 Q31.9922,83.2 31.6672,82.9766 Q31.3422,82.7531 31.2,82.1641 Q31.1391,81.7578 30.9156,81.5344 Q30.5094,81.1078 29.7781,80.8641 Q29.0469,80.6 28.3156,80.6 Q27.4016,80.6 26.6297,80.9656 Q25.8781,81.3313 25.2891,82.1438 Q24.7,82.9563 24.7,84.0734 L24.7,85.2719 Q24.7,86.6125 25.7969,87.5063 Q26.8938,88.4 28.8438,88.4 Q30.0016,88.4 30.8141,88.1359 Q31.2813,87.9938 31.8094,87.5266 Q32.1547,87.2625 32.3375,87.1813 Q32.5203,87.1 32.7438,87.1 Q33.1703,87.1 33.475,87.4453 Q33.8,87.7703 33.8,88.2375 Q33.8,88.6844 33.3531,89.2125 Q32.7031,89.9844 31.6672,90.4109 Q30.3063,91 28.6406,91 Q26.6906,91 25.1266,90.2281 Q23.8672,89.6188 22.9734,88.2984 Q22.1,86.9781 22.1,85.4141 L22.1,83.9922 Q22.1,82.3672 22.8719,80.9453 Q23.6641,79.5234 25.025,78.7719 Q26.4063,78 27.95,78 Q28.8844,78 29.6969,78.325 Q30.5094,78.65 31.2,79.3 Z " fill="#000000"/><text fill="#000000" font-family="sans-serif" font-size="15.6" lengthAdjust="spacing" textLength="68.9" x="46.8" y="90.2332">Company</text><line style="stroke:#A80036;stroke-width:1.9500000000000002;" x1="10.4" x2="118.3" y1="104.65" y2="104.65"/><text fill="#000000" font-family="sans-serif" font-size="14.3" lengthAdjust="spacing" textLength="76.7" x="16.9" y="124.6946">-designation</text><line style="stroke:#A80036;stroke-width:1.9500000000000002;" x1="10.4" x2="118.3" y1="133.0367" y2="133.0367"/><!--MD5=[3fd616f346a44cd59a91eb10b19e157c]
class User--><rect fill="#FEFECE" filter="url(#fbh5owx6ahd0z)" height="62.4" id="User" style="stroke:#A80036;stroke-width:1.9500000000000002;" width="76.7" x="59.8" y="607.1"/><ellipse cx="79.3" cy="627.9" fill="#ADD1B2" rx="14.3" ry="14.3" style="stroke:#A80036;stroke-width:1.3;"/><path d="M81.9,623.35 Q82.1641,622.7 82.4688,622.375 Q82.7734,622.05 83.1188,622.05 Q83.7281,622.05 84.1141,622.4156 Q84.5,622.7813 84.5,623.6344 L84.5,625.6656 Q84.5,626.5188 84.1344,626.8844 Q83.7688,627.25 83.2,627.25 Q82.6922,627.25 82.3672,627.0266 Q82.0422,626.8031 81.9,626.2141 Q81.8391,625.8078 81.6156,625.5844 Q81.2094,625.1578 80.4781,624.9141 Q79.7469,624.65 79.0156,624.65 Q78.1016,624.65 77.3297,625.0156 Q76.5781,625.3813 75.9891,626.1938 Q75.4,627.0063 75.4,628.1234 L75.4,629.3219 Q75.4,630.6625 76.4969,631.5563 Q77.5938,632.45 79.5438,632.45 Q80.7016,632.45 81.5141,632.1859 Q81.9813,632.0438 82.5094,631.5766 Q82.8547,631.3125 83.0375,631.2313 Q83.2203,631.15 83.4438,631.15 Q83.8703,631.15 84.175,631.4953 Q84.5,631.8203 84.5,632.2875 Q84.5,632.7344 84.0531,633.2625 Q83.4031,634.0344 82.3672,634.4609 Q81.0063,635.05 79.3406,635.05 Q77.3906,635.05 75.8266,634.2781 Q74.5672,633.6688 73.6734,632.3484 Q72.8,631.0281 72.8,629.4641 L72.8,628.0422 Q72.8,626.4172 73.5719,624.9953 Q74.3641,623.5734 75.725,622.8219 Q77.1063,622.05 78.65,622.05 Q79.5844,622.05 80.3969,622.375 Q81.2094,622.7 81.9,623.35 Z " fill="#000000"/><text fill="#000000" font-family="sans-serif" font-size="15.6" lengthAdjust="spacing" textLength="35.1" x="97.5" y="634.2832">User</text><line style="stroke:#A80036;stroke-width:1.9500000000000002;" x1="61.1" x2="135.2" y1="648.7" y2="648.7"/><line style="stroke:#A80036;stroke-width:1.9500000000000002;" x1="61.1" x2="135.2" y1="659.1" y2="659.1"/><!--MD5=[6a35157f4c730bda767e7c9f1b8b7f73]
link Receptionist to Client--><path codeLine="28" d="M226.083,197.626 C223.132,229.71 219.804,265.824 216.788,298.623 " fill="none" id="Receptionist-Client" style="stroke:#A80036;stroke-width:1.3;"/><polygon fill="#000000" points="227.5543,255.0012,232.4365,243.6422,224.8274,242.9419,227.5543,255.0012" style="stroke:#000000;stroke-width:1.3;"/><text fill="#000000" font-family="sans-serif" font-size="16.9" lengthAdjust="spacing" textLength="65" x="239.85" y="255.4437">registers</text><text fill="#000000" font-family="sans-serif" font-size="16.9" lengthAdjust="spacing" textLength="9.1" x="215.6918" y="225.5057">1</text><text fill="#000000" font-family="sans-serif" font-size="16.9" lengthAdjust="spacing" textLength="6.5" x="210.8585" y="284.8854">*</text><!--MD5=[6eee883fdf517d3604e8bd0f2058e9aa]
link Company to Client--><path codeLine="29" d="M83.343,144.014 C102.336,183.378 132.34,245.583 158.08,298.935 " fill="none" id="Company-Client" style="stroke:#A80036;stroke-width:1.3;"/><polygon fill="#000000" points="145.1743,254.3829,143.5062,242.1322,136.624,245.4523,145.1743,254.3829" style="stroke:#000000;stroke-width:1.3;"/><text fill="#000000" font-family="sans-serif" font-size="16.9" lengthAdjust="spacing" textLength="27.3" x="154.05" y="255.4437">has</text><text fill="#000000" font-family="sans-serif" font-size="16.9" lengthAdjust="spacing" textLength="9.1" x="76.9962" y="171.3556">1</text><text fill="#000000" font-family="sans-serif" font-size="16.9" lengthAdjust="spacing" textLength="26" x="126.1449" y="284.8718">1..*</text><!--MD5=[9a8dc34b38f85b9f3fcdb440f4bffc6a]
link Client to User--><path codeLine="30" d="M159.458,505.999 C142.376,542.49 124.41,580.879 112.372,606.606 " fill="none" id="Client-User" style="stroke:#A80036;stroke-width:1.3;"/><polygon fill="#000000" points="144.7947,562.5157,153.2394,553.4852,146.3187,550.2462,144.7947,562.5157" style="stroke:#000000;stroke-width:1.3;"/><text fill="#000000" font-family="sans-serif" font-size="16.9" lengthAdjust="spacing" textLength="13" x="159.25" y="563.5437">is</text><text fill="#000000" font-family="sans-serif" font-size="16.9" lengthAdjust="spacing" textLength="9.1" x="145.8513" y="533.3808">1</text><text fill="#000000" font-family="sans-serif" font-size="16.9" lengthAdjust="spacing" textLength="26" x="86.6699" y="593.1449">1..*</text><!--MD5=[e6529539d61e4fceb49a82d3c9677c38]
link Company to User--><path codeLine="31" d="M65.481,143.975 C67.717,215.878 73.437,373.308 83.85,505.7 C86.58,540.449 91.117,580.216 94.341,606.801 " fill="none" id="Company-User" style="stroke:#A80036;stroke-width:1.3;"/><polygon fill="#000000" points="90.7545,409.0659,93.8359,397.0923,86.2095,397.5679,90.7545,409.0659" style="stroke:#000000;stroke-width:1.3;"/><text fill="#000000" font-family="sans-serif" font-size="16.9" lengthAdjust="spacing" textLength="27.3" x="102.05" y="409.4937">has</text><text fill="#000000" font-family="sans-serif" font-size="16.9" lengthAdjust="spacing" textLength="9.1" x="55.7293" y="171.3092">1</text><text fill="#000000" font-family="sans-serif" font-size="16.9" lengthAdjust="spacing" textLength="26" x="64.0337" y="592.8666">1..*</text><!--MD5=[9baeed5ddc62025a9a7545b48bd09284]
@startuml

skinparam classAttributeIconSize 0

class Client {
-name
-cardNumber
-birthDate
-sex
-nhsID
-TIN
-phoneNumber
-email
}
class Receptionist {
-employeeID
-organizationID
-name
-address
-phoneNumber
-email
-SOCcode
}

class Company{
-designation
}

Receptionist "1"- -"*" Client : registers >
Company "1"- -"1..*" Client : has >
Client "1"- -"1..*" User : is >
Company "1"- -"1..*" User : has >

@enduml

PlantUML version 1.2021.00(Sun Jan 10 10:25:05 GMT 2021)
(GPL source distribution)
Java Runtime: OpenJDK Runtime Environment
JVM: OpenJDK 64-Bit Server VM
Default Encoding: Cp1252
Language: pt
Country: PT
--></g></svg>