<?xml version="1.0" encoding="UTF-8" standalone="no"?><svg xmlns="http://www.w3.org/2000/svg" xmlns:xlink="http://www.w3.org/1999/xlink" contentScriptType="application/ecmascript" contentStyleType="text/css" height="847.6px" preserveAspectRatio="none" style="width:616px;height:847px;" version="1.1" viewBox="0 0 616 847" width="616.2px" zoomAndPan="magnify"><defs><filter height="300%" id="f6q3i3bho9htj" width="300%" x="-1" y="-1"><feGaussianBlur result="blurOut" stdDeviation="2.6"/><feColorMatrix in="blurOut" result="blurOut2" type="matrix" values="0 0 0 0 0 0 0 0 0 0 0 0 0 0 0 0 0 0 .4 0"/><feOffset dx="5.2" dy="5.2" in="blurOut2" result="blurOut3"/><feBlend in="SourceGraphic" in2="blurOut3" mode="normal"/></filter></defs><g><!--MD5=[ed6624c6556d5e7b1bd23032162d20b7]
class Client--><rect codeLine="4" fill="#FEFECE" filter="url(#f6q3i3bho9htj)" height="242.2672" id="Client" style="stroke:#A80036;stroke-width:1.9500000000000002;" width="308.1" x="115.7" y="587.6"/><ellipse cx="243.425" cy="608.4" fill="#ADD1B2" rx="14.3" ry="14.3" style="stroke:#A80036;stroke-width:1.3;"/><path d="M246.025,603.85 Q246.2891,603.2 246.5938,602.875 Q246.8984,602.55 247.2438,602.55 Q247.8531,602.55 248.2391,602.9156 Q248.625,603.2813 248.625,604.1344 L248.625,606.1656 Q248.625,607.0188 248.2594,607.3844 Q247.8938,607.75 247.325,607.75 Q246.8172,607.75 246.4922,607.5266 Q246.1672,607.3031 246.025,606.7141 Q245.9641,606.3078 245.7406,606.0844 Q245.3344,605.6578 244.6031,605.4141 Q243.8719,605.15 243.1406,605.15 Q242.2266,605.15 241.4547,605.5156 Q240.7031,605.8813 240.1141,606.6938 Q239.525,607.5063 239.525,608.6234 L239.525,609.8219 Q239.525,611.1625 240.6219,612.0563 Q241.7188,612.95 243.6688,612.95 Q244.8266,612.95 245.6391,612.6859 Q246.1063,612.5438 246.6344,612.0766 Q246.9797,611.8125 247.1625,611.7313 Q247.3453,611.65 247.5688,611.65 Q247.9953,611.65 248.3,611.9953 Q248.625,612.3203 248.625,612.7875 Q248.625,613.2344 248.1781,613.7625 Q247.5281,614.5344 246.4922,614.9609 Q245.1313,615.55 243.4656,615.55 Q241.5156,615.55 239.9516,614.7781 Q238.6922,614.1688 237.7984,612.8484 Q236.925,611.5281 236.925,609.9641 L236.925,608.5422 Q236.925,606.9172 237.6969,605.4953 Q238.4891,604.0734 239.85,603.3219 Q241.2313,602.55 242.775,602.55 Q243.7094,602.55 244.5219,602.875 Q245.3344,603.2 246.025,603.85 Z " fill="#000000"/><text fill="#000000" font-family="sans-serif" font-size="15.6" lengthAdjust="spacing" textLength="41.6" x="270.075" y="614.7832">Client</text><line style="stroke:#A80036;stroke-width:1.9500000000000002;" x1="117" x2="422.5" y1="629.2" y2="629.2"/><text fill="#000000" font-family="sans-serif" font-size="14.3" lengthAdjust="spacing" textLength="79.3" x="123.5" y="649.2446">-String name</text><text fill="#000000" font-family="sans-serif" font-size="14.3" lengthAdjust="spacing" textLength="100.1" x="123.5" y="667.2313">-int cardNumber</text><text fill="#000000" font-family="sans-serif" font-size="14.3" lengthAdjust="spacing" textLength="93.6" x="123.5" y="685.2181">-Date birthDate</text><text fill="#000000" font-family="sans-serif" font-size="14.3" lengthAdjust="spacing" textLength="68.9" x="123.5" y="703.2048">-String sex</text><text fill="#000000" font-family="sans-serif" font-size="14.3" lengthAdjust="spacing" textLength="58.5" x="123.5" y="721.1915">-int nhsID</text><text fill="#000000" font-family="sans-serif" font-size="14.3" lengthAdjust="spacing" textLength="42.9" x="123.5" y="739.1782">-int TIN</text><text fill="#000000" font-family="sans-serif" font-size="14.3" lengthAdjust="spacing" textLength="110.5" x="123.5" y="757.1649">-int phoneNumber</text><text fill="#000000" font-family="sans-serif" font-size="14.3" lengthAdjust="spacing" textLength="76.7" x="123.5" y="775.1517">-String email</text><line style="stroke:#A80036;stroke-width:1.9500000000000002;" x1="117" x2="422.5" y1="783.4938" y2="783.4938"/><text fill="#000000" font-family="sans-serif" font-size="14.3" lengthAdjust="spacing" textLength="288.6" x="123.5" y="803.5384">+validate(name, cardNumber, nhsId, birthDate,</text><text fill="#000000" font-family="sans-serif" font-size="14.3" lengthAdjust="spacing" textLength="189.8" x="127.4" y="821.5251">sex, TIN, phoneNumber, email)</text><!--MD5=[03960189e81aa2c066c762ffabbee709]
class Receptionist--><rect codeLine="15" fill="#FEFECE" filter="url(#f6q3i3bho9htj)" height="80.3867" id="Receptionist" style="stroke:#A80036;stroke-width:1.9500000000000002;" width="131.3" x="9.1" y="9.1"/><ellipse cx="28.6" cy="29.9" fill="#ADD1B2" rx="14.3" ry="14.3" style="stroke:#A80036;stroke-width:1.3;"/><path d="M31.2,25.35 Q31.4641,24.7 31.7688,24.375 Q32.0734,24.05 32.4188,24.05 Q33.0281,24.05 33.4141,24.4156 Q33.8,24.7813 33.8,25.6344 L33.8,27.6656 Q33.8,28.5188 33.4344,28.8844 Q33.0688,29.25 32.5,29.25 Q31.9922,29.25 31.6672,29.0266 Q31.3422,28.8031 31.2,28.2141 Q31.1391,27.8078 30.9156,27.5844 Q30.5094,27.1578 29.7781,26.9141 Q29.0469,26.65 28.3156,26.65 Q27.4016,26.65 26.6297,27.0156 Q25.8781,27.3813 25.2891,28.1938 Q24.7,29.0063 24.7,30.1234 L24.7,31.3219 Q24.7,32.6625 25.7969,33.5563 Q26.8938,34.45 28.8438,34.45 Q30.0016,34.45 30.8141,34.1859 Q31.2813,34.0438 31.8094,33.5766 Q32.1547,33.3125 32.3375,33.2313 Q32.5203,33.15 32.7438,33.15 Q33.1703,33.15 33.475,33.4953 Q33.8,33.8203 33.8,34.2875 Q33.8,34.7344 33.3531,35.2625 Q32.7031,36.0344 31.6672,36.4609 Q30.3063,37.05 28.6406,37.05 Q26.6906,37.05 25.1266,36.2781 Q23.8672,35.6688 22.9734,34.3484 Q22.1,33.0281 22.1,31.4641 L22.1,30.0422 Q22.1,28.4172 22.8719,26.9953 Q23.6641,25.5734 25.025,24.8219 Q26.4063,24.05 27.95,24.05 Q28.8844,24.05 29.6969,24.375 Q30.5094,24.7 31.2,25.35 Z " fill="#000000"/><text fill="#000000" font-family="sans-serif" font-size="15.6" lengthAdjust="spacing" textLength="89.7" x="46.8" y="36.2832">Receptionist</text><line style="stroke:#A80036;stroke-width:1.9500000000000002;" x1="10.4" x2="139.1" y1="50.7" y2="50.7"/><line style="stroke:#A80036;stroke-width:1.9500000000000002;" x1="10.4" x2="139.1" y1="61.1" y2="61.1"/><text fill="#000000" font-family="sans-serif" font-size="14.3" lengthAdjust="spacing" textLength="93.6" x="16.9" y="81.1446">+confirmData()</text><!--MD5=[02e4b9b7573f1156f41e60aa5b4e25a4]
class Company--><rect codeLine="18" fill="#FEFECE" filter="url(#f6q3i3bho9htj)" height="116.3602" id="Company" style="stroke:#A80036;stroke-width:1.9500000000000002;" width="132.6" x="466.05" y="369.2"/><ellipse cx="495.495" cy="390" fill="#ADD1B2" rx="14.3" ry="14.3" style="stroke:#A80036;stroke-width:1.3;"/><path d="M498.095,385.45 Q498.3591,384.8 498.6638,384.475 Q498.9684,384.15 499.3137,384.15 Q499.9231,384.15 500.3091,384.5156 Q500.695,384.8813 500.695,385.7344 L500.695,387.7656 Q500.695,388.6188 500.3294,388.9844 Q499.9638,389.35 499.395,389.35 Q498.8872,389.35 498.5622,389.1266 Q498.2372,388.9031 498.095,388.3141 Q498.0341,387.9078 497.8106,387.6844 Q497.4044,387.2578 496.6731,387.0141 Q495.9419,386.75 495.2106,386.75 Q494.2966,386.75 493.5247,387.1156 Q492.7731,387.4813 492.1841,388.2938 Q491.595,389.1063 491.595,390.2234 L491.595,391.4219 Q491.595,392.7625 492.6919,393.6563 Q493.7888,394.55 495.7388,394.55 Q496.8966,394.55 497.7091,394.2859 Q498.1763,394.1438 498.7044,393.6766 Q499.0497,393.4125 499.2325,393.3313 Q499.4153,393.25 499.6388,393.25 Q500.0653,393.25 500.37,393.5953 Q500.695,393.9203 500.695,394.3875 Q500.695,394.8344 500.2481,395.3625 Q499.5981,396.1344 498.5622,396.5609 Q497.2012,397.15 495.5356,397.15 Q493.5856,397.15 492.0216,396.3781 Q490.7622,395.7688 489.8684,394.4484 Q488.995,393.1281 488.995,391.5641 L488.995,390.1422 Q488.995,388.5172 489.7669,387.0953 Q490.5591,385.6734 491.92,384.9219 Q493.3013,384.15 494.845,384.15 Q495.7794,384.15 496.5919,384.475 Q497.4044,384.8 498.095,385.45 Z " fill="#000000"/><text fill="#000000" font-family="sans-serif" font-size="15.6" lengthAdjust="spacing" textLength="68.9" x="515.905" y="396.3832">Company</text><line style="stroke:#A80036;stroke-width:1.9500000000000002;" x1="467.35" x2="597.35" y1="410.8" y2="410.8"/><text fill="#000000" font-family="sans-serif" font-size="14.3" lengthAdjust="spacing" textLength="117" x="473.85" y="430.8446">-String designation</text><line style="stroke:#A80036;stroke-width:1.9500000000000002;" x1="467.35" x2="597.35" y1="439.1867" y2="439.1867"/><text fill="#000000" font-family="sans-serif" font-size="14.3" lengthAdjust="spacing" textLength="83.2" x="473.85" y="459.2313">+saveClient()</text><text fill="#000000" font-family="sans-serif" font-size="14.3" lengthAdjust="spacing" textLength="80.6" x="473.85" y="477.2181">+sendEmail()</text><!--MD5=[0deb7dd7aafd8ac89375ffa110837fa5]
class CreateClientUI--><rect codeLine="23" fill="#FEFECE" filter="url(#f6q3i3bho9htj)" height="98.3734" id="CreateClientUI" style="stroke:#A80036;stroke-width:1.9500000000000002;" width="308.1" x="118.3" y="169"/><ellipse cx="214.175" cy="189.8" fill="#ADD1B2" rx="14.3" ry="14.3" style="stroke:#A80036;stroke-width:1.3;"/><path d="M216.775,185.25 Q217.0391,184.6 217.3438,184.275 Q217.6484,183.95 217.9938,183.95 Q218.6031,183.95 218.9891,184.3156 Q219.375,184.6813 219.375,185.5344 L219.375,187.5656 Q219.375,188.4188 219.0094,188.7844 Q218.6438,189.15 218.075,189.15 Q217.5672,189.15 217.2422,188.9266 Q216.9172,188.7031 216.775,188.1141 Q216.7141,187.7078 216.4906,187.4844 Q216.0844,187.0578 215.3531,186.8141 Q214.6219,186.55 213.8906,186.55 Q212.9766,186.55 212.2047,186.9156 Q211.4531,187.2813 210.8641,188.0938 Q210.275,188.9063 210.275,190.0234 L210.275,191.2219 Q210.275,192.5625 211.3719,193.4563 Q212.4688,194.35 214.4188,194.35 Q215.5766,194.35 216.3891,194.0859 Q216.8563,193.9438 217.3844,193.4766 Q217.7297,193.2125 217.9125,193.1313 Q218.0953,193.05 218.3188,193.05 Q218.7453,193.05 219.05,193.3953 Q219.375,193.7203 219.375,194.1875 Q219.375,194.6344 218.9281,195.1625 Q218.2781,195.9344 217.2422,196.3609 Q215.8813,196.95 214.2156,196.95 Q212.2656,196.95 210.7016,196.1781 Q209.4422,195.5688 208.5484,194.2484 Q207.675,192.9281 207.675,191.3641 L207.675,189.9422 Q207.675,188.3172 208.4469,186.8953 Q209.2391,185.4734 210.6,184.7219 Q211.9813,183.95 213.525,183.95 Q214.4594,183.95 215.2719,184.275 Q216.0844,184.6 216.775,185.25 Z " fill="#000000"/><text fill="#000000" font-family="sans-serif" font-size="15.6" lengthAdjust="spacing" textLength="105.3" x="240.825" y="196.1832">CreateClientUI</text><line style="stroke:#A80036;stroke-width:1.9500000000000002;" x1="119.6" x2="425.1" y1="210.6" y2="210.6"/><line style="stroke:#A80036;stroke-width:1.9500000000000002;" x1="119.6" x2="425.1" y1="221" y2="221"/><text fill="#000000" font-family="sans-serif" font-size="14.3" lengthAdjust="spacing" textLength="288.6" x="126.1" y="241.0446">+setData(name, cardNumber, nhsId, birthDate,</text><text fill="#000000" font-family="sans-serif" font-size="14.3" lengthAdjust="spacing" textLength="189.8" x="130" y="259.0313">sex, TIN, phoneNumber, email)</text><!--MD5=[7b68a60807ef0d5ecf982988765ba5ca]
class CreateClientController--><rect codeLine="26" fill="#FEFECE" filter="url(#f6q3i3bho9htj)" height="98.3734" id="CreateClientController" style="stroke:#A80036;stroke-width:1.9500000000000002;" width="300.3" x="119.6" y="378.3"/><ellipse cx="184.275" cy="399.1" fill="#ADD1B2" rx="14.3" ry="14.3" style="stroke:#A80036;stroke-width:1.3;"/><path d="M186.875,394.55 Q187.1391,393.9 187.4438,393.575 Q187.7484,393.25 188.0938,393.25 Q188.7031,393.25 189.0891,393.6156 Q189.475,393.9813 189.475,394.8344 L189.475,396.8656 Q189.475,397.7188 189.1094,398.0844 Q188.7438,398.45 188.175,398.45 Q187.6672,398.45 187.3422,398.2266 Q187.0172,398.0031 186.875,397.4141 Q186.8141,397.0078 186.5906,396.7844 Q186.1844,396.3578 185.4531,396.1141 Q184.7219,395.85 183.9906,395.85 Q183.0766,395.85 182.3047,396.2156 Q181.5531,396.5813 180.9641,397.3938 Q180.375,398.2063 180.375,399.3234 L180.375,400.5219 Q180.375,401.8625 181.4719,402.7563 Q182.5688,403.65 184.5188,403.65 Q185.6766,403.65 186.4891,403.3859 Q186.9563,403.2438 187.4844,402.7766 Q187.8297,402.5125 188.0125,402.4313 Q188.1953,402.35 188.4188,402.35 Q188.8453,402.35 189.15,402.6953 Q189.475,403.0203 189.475,403.4875 Q189.475,403.9344 189.0281,404.4625 Q188.3781,405.2344 187.3422,405.6609 Q185.9813,406.25 184.3156,406.25 Q182.3656,406.25 180.8016,405.4781 Q179.5422,404.8688 178.6484,403.5484 Q177.775,402.2281 177.775,400.6641 L177.775,399.2422 Q177.775,397.6172 178.5469,396.1953 Q179.3391,394.7734 180.7,394.0219 Q182.0813,393.25 183.625,393.25 Q184.5594,393.25 185.3719,393.575 Q186.1844,393.9 186.875,394.55 Z " fill="#000000"/><text fill="#000000" font-family="sans-serif" font-size="15.6" lengthAdjust="spacing" textLength="159.9" x="210.925" y="405.4832">CreateClientController</text><line style="stroke:#A80036;stroke-width:1.9500000000000002;" x1="120.9" x2="418.6" y1="419.9" y2="419.9"/><line style="stroke:#A80036;stroke-width:1.9500000000000002;" x1="120.9" x2="418.6" y1="430.3" y2="430.3"/><text fill="#000000" font-family="sans-serif" font-size="14.3" lengthAdjust="spacing" textLength="280.8" x="127.4" y="450.3446">+create(name, cardNumber, nhsId, birthDate,</text><text fill="#000000" font-family="sans-serif" font-size="14.3" lengthAdjust="spacing" textLength="189.8" x="131.3" y="468.3313">sex, TIN, phoneNumber, email)</text><!--MD5=[7acdd5ace50a99f663c9958df3fb8cfd]
link Receptionist to CreateClientUI--><path codeLine="30" d="M121.082,89.713 C147.498,111.956 180.96,140.14 209.703,164.346 " fill="none" id="Receptionist-to-CreateClientUI" style="stroke:#A80036;stroke-width:1.3;stroke-dasharray:7.0,7.0;"/><polygon fill="#A80036" points="215.007,168.805,209.411,157.2891,210.0365,164.6164,202.7093,165.2419,215.007,168.805" style="stroke:#A80036;stroke-width:1.3;"/><!--MD5=[8090ea5979f93a1303155e437990326e]
link CreateClientUI to CreateClientController--><path codeLine="31" d="M271.739,268.164 C271.349,299.13 270.842,339.365 270.439,371.514 " fill="none" id="CreateClientUI-to-CreateClientController" style="stroke:#A80036;stroke-width:1.3;stroke-dasharray:7.0,7.0;"/><polygon fill="#A80036" points="270.361,378.248,275.7276,366.6235,270.4538,371.7487,265.3287,366.4749,270.361,378.248" style="stroke:#A80036;stroke-width:1.3;"/><!--MD5=[5e0004deadefe782d12e29dc3925821a]
link CreateClientController to Client--><path codeLine="32" d="M269.75,477.464 C269.75,506.181 269.75,544.037 269.75,580.723 " fill="none" id="CreateClientController-to-Client" style="stroke:#A80036;stroke-width:1.3;stroke-dasharray:7.0,7.0;"/><polygon fill="#A80036" points="269.75,587.548,274.95,575.848,269.75,581.048,264.55,575.848,269.75,587.548" style="stroke:#A80036;stroke-width:1.3;"/><!--MD5=[6a35157f4c730bda767e7c9f1b8b7f73]
link Receptionist to Client--><path codeLine="33" d="M69.043,90.142 C59.345,168.532 45.357,348.257 96.85,486.2 C110.227,522.028 131.651,556.66 154.947,587.47 " fill="none" id="Receptionist-Client" style="stroke:#A80036;stroke-width:1.3;"/><polygon fill="#000000" points="71.9564,325.1337,73.7198,312.8963,66.1901,314.1969,71.9564,325.1337" style="stroke:#000000;stroke-width:1.3;"/><text fill="#000000" font-family="sans-serif" font-size="16.9" lengthAdjust="spacing" textLength="65" x="82.55" y="325.6437">registers</text><text fill="#000000" font-family="sans-serif" font-size="16.9" lengthAdjust="spacing" textLength="9.1" x="57.9878" y="117.4985">1</text><text fill="#000000" font-family="sans-serif" font-size="16.9" lengthAdjust="spacing" textLength="6.5" x="138.6707" y="573.3292">*</text><!--MD5=[6eee883fdf517d3604e8bd0f2058e9aa]
link Company to Client--><path codeLine="34" d="M478.257,486.304 C450.632,515.567 415.935,552.331 382.811,587.418 " fill="none" id="Company-Client" style="stroke:#A80036;stroke-width:1.3;"/><polygon fill="#000000" points="440.7882,541.8553,451.638,535.9271,446.0814,530.6819,440.7882,541.8553" style="stroke:#000000;stroke-width:1.3;"/><text fill="#000000" font-family="sans-serif" font-size="16.9" lengthAdjust="spacing" textLength="27.3" x="456.95" y="544.0437">has</text><text fill="#000000" font-family="sans-serif" font-size="16.9" lengthAdjust="spacing" textLength="9.1" x="460.9103" y="513.6285">1</text><text fill="#000000" font-family="sans-serif" font-size="16.9" lengthAdjust="spacing" textLength="26" x="364.7846" y="573.6838">1..*</text><!--MD5=[8f30f6f86695ed357228a0096719abe7]
@startuml

skinparam classAttributeIconSize 0

class Client {
-String name
-int cardNumber
-Date birthDate
-String sex
-int nhsID
-int TIN
-int phoneNumber
-String email
+validate(name, cardNumber, nhsId, birthDate, \n sex, TIN, phoneNumber, email)
}
class Receptionist {
+confirmData()
}
class Company{
-String designation
+saveClient()
+sendEmail()
}
class CreateClientUI{
+setData(name, cardNumber, nhsId, birthDate, \n sex, TIN, phoneNumber, email)
}
class CreateClientController{
+create(name, cardNumber, nhsId, birthDate, \n sex, TIN, phoneNumber, email)
}

Receptionist ..> CreateClientUI
CreateClientUI ..> CreateClientController
CreateClientController ..> Client
Receptionist "1"- -"*" Client : registers >
Company "1"- -"1..*" Client : has >



@enduml

PlantUML version 1.2021.00(Sun Jan 10 10:25:05 GMT 2021)
(GPL source distribution)
Java Runtime: OpenJDK Runtime Environment
JVM: OpenJDK 64-Bit Server VM
Default Encoding: Cp1252
Language: pt
Country: PT
--></g></svg>