<?xml version="1.0" encoding="UTF-8" standalone="no"?><svg xmlns="http://www.w3.org/2000/svg" xmlns:xlink="http://www.w3.org/1999/xlink" contentScriptType="application/ecmascript" contentStyleType="text/css" height="398.75px" preserveAspectRatio="none" style="width:341px;height:398px;" version="1.1" viewBox="0 0 341 398" width="341.25px" zoomAndPan="magnify"><defs><filter height="300%" id="f1013zpy911967" width="300%" x="-1" y="-1"><feGaussianBlur result="blurOut" stdDeviation="2.5"/><feColorMatrix in="blurOut" result="blurOut2" type="matrix" values="0 0 0 0 0 0 0 0 0 0 0 0 0 0 0 0 0 0 .4 0"/><feOffset dx="5.0" dy="5.0" in="blurOut2" result="blurOut3"/><feBlend in="SourceGraphic" in2="blurOut3" mode="normal"/></filter></defs><g><!--MD5=[da547346deef918ea16944ba046651ef]
class Administrator--><rect codeLine="4" fill="#FEFECE" filter="url(#f1013zpy911967)" height="60" id="Administrator" style="stroke:#A80036;stroke-width:1.875;" width="131.25" x="8.75" y="43.125"/><ellipse cx="27.5" cy="63.125" fill="#ADD1B2" rx="13.75" ry="13.75" style="stroke:#A80036;stroke-width:1.25;"/><path d="M30,58.75 Q30.2539,58.125 30.5469,57.8125 Q30.8398,57.5 31.1719,57.5 Q31.7578,57.5 32.1289,57.8516 Q32.5,58.2031 32.5,59.0234 L32.5,60.9766 Q32.5,61.7969 32.1484,62.1484 Q31.7969,62.5 31.25,62.5 Q30.7617,62.5 30.4492,62.2852 Q30.1367,62.0703 30,61.5039 Q29.9414,61.1133 29.7266,60.8984 Q29.3359,60.4883 28.6328,60.2539 Q27.9297,60 27.2266,60 Q26.3477,60 25.6055,60.3516 Q24.8828,60.7031 24.3164,61.4844 Q23.75,62.2656 23.75,63.3398 L23.75,64.4922 Q23.75,65.7813 24.8047,66.6406 Q25.8594,67.5 27.7344,67.5 Q28.8477,67.5 29.6289,67.2461 Q30.0781,67.1094 30.5859,66.6602 Q30.918,66.4063 31.0938,66.3281 Q31.2695,66.25 31.4844,66.25 Q31.8945,66.25 32.1875,66.582 Q32.5,66.8945 32.5,67.3438 Q32.5,67.7734 32.0703,68.2813 Q31.4453,69.0234 30.4492,69.4336 Q29.1406,70 27.5391,70 Q25.6641,70 24.1602,69.2578 Q22.9492,68.6719 22.0898,67.4023 Q21.25,66.1328 21.25,64.6289 L21.25,63.2617 Q21.25,61.6992 21.9922,60.332 Q22.7539,58.9648 24.0625,58.2422 Q25.3906,57.5 26.875,57.5 Q27.7734,57.5 28.5547,57.8125 Q29.3359,58.125 30,58.75 Z " fill="#000000"/><text fill="#000000" font-family="sans-serif" font-size="15" lengthAdjust="spacing" textLength="91.25" x="45" y="69.2627">Administrator</text><line style="stroke:#A80036;stroke-width:1.875;" x1="10" x2="138.75" y1="83.125" y2="83.125"/><line style="stroke:#A80036;stroke-width:1.875;" x1="10" x2="138.75" y1="93.125" y2="93.125"/><!--MD5=[1f6362a5c8f21d8d6a0fce68f3a92a4e]
class Parameter--><rect codeLine="5" fill="#FEFECE" filter="url(#f1013zpy911967)" height="146.4746" id="Parameter" style="stroke:#A80036;stroke-width:1.875;" width="153.75" x="77.5" y="235"/><ellipse cx="114.8125" cy="255" fill="#ADD1B2" rx="13.75" ry="13.75" style="stroke:#A80036;stroke-width:1.25;"/><path d="M117.3125,250.625 Q117.5664,250 117.8594,249.6875 Q118.1523,249.375 118.4844,249.375 Q119.0703,249.375 119.4414,249.7266 Q119.8125,250.0781 119.8125,250.8984 L119.8125,252.8516 Q119.8125,253.6719 119.4609,254.0234 Q119.1094,254.375 118.5625,254.375 Q118.0742,254.375 117.7617,254.1602 Q117.4492,253.9453 117.3125,253.3789 Q117.2539,252.9883 117.0391,252.7734 Q116.6484,252.3633 115.9453,252.1289 Q115.2422,251.875 114.5391,251.875 Q113.6602,251.875 112.918,252.2266 Q112.1953,252.5781 111.6289,253.3594 Q111.0625,254.1406 111.0625,255.2148 L111.0625,256.3672 Q111.0625,257.6563 112.1172,258.5156 Q113.1719,259.375 115.0469,259.375 Q116.1602,259.375 116.9414,259.1211 Q117.3906,258.9844 117.8984,258.5352 Q118.2305,258.2813 118.4063,258.2031 Q118.582,258.125 118.7969,258.125 Q119.207,258.125 119.5,258.457 Q119.8125,258.7695 119.8125,259.2188 Q119.8125,259.6484 119.3828,260.1563 Q118.7578,260.8984 117.7617,261.3086 Q116.4531,261.875 114.8516,261.875 Q112.9766,261.875 111.4727,261.1328 Q110.2617,260.5469 109.4023,259.2773 Q108.5625,258.0078 108.5625,256.5039 L108.5625,255.1367 Q108.5625,253.5742 109.3047,252.207 Q110.0664,250.8398 111.375,250.1172 Q112.7031,249.375 114.1875,249.375 Q115.0859,249.375 115.8672,249.6875 Q116.6484,250 117.3125,250.625 Z " fill="#000000"/><text fill="#000000" font-family="sans-serif" font-size="15" lengthAdjust="spacing" textLength="72.5" x="136.4375" y="261.1377">Parameter</text><line style="stroke:#A80036;stroke-width:1.875;" x1="78.75" x2="230" y1="275" y2="275"/><text fill="#000000" font-family="sans-serif" font-size="13.75" lengthAdjust="spacing" textLength="35" x="85" y="294.2737">-code</text><text fill="#000000" font-family="sans-serif" font-size="13.75" lengthAdjust="spacing" textLength="70" x="85" y="311.5686">-shortName</text><text fill="#000000" font-family="sans-serif" font-size="13.75" lengthAdjust="spacing" textLength="71.25" x="85" y="328.8635">-description</text><text fill="#000000" font-family="sans-serif" font-size="13.75" lengthAdjust="spacing" textLength="138.75" x="85" y="346.1584">-upperReferenceValue</text><text fill="#000000" font-family="sans-serif" font-size="13.75" lengthAdjust="spacing" textLength="138.75" x="85" y="363.4534">-lowerReferenceValue</text><line style="stroke:#A80036;stroke-width:1.875;" x1="78.75" x2="230" y1="371.4746" y2="371.4746"/><!--MD5=[a96594a83e2ecdc78cbf17c2ddf01934]
class Category--><rect codeLine="13" fill="#FEFECE" filter="url(#f1013zpy911967)" height="129.1797" id="Category" style="stroke:#A80036;stroke-width:1.875;" width="101.25" x="183.75" y="8.75"/><ellipse cx="202.5" cy="28.75" fill="#ADD1B2" rx="13.75" ry="13.75" style="stroke:#A80036;stroke-width:1.25;"/><path d="M205,24.375 Q205.2539,23.75 205.5469,23.4375 Q205.8398,23.125 206.1719,23.125 Q206.7578,23.125 207.1289,23.4766 Q207.5,23.8281 207.5,24.6484 L207.5,26.6016 Q207.5,27.4219 207.1484,27.7734 Q206.7969,28.125 206.25,28.125 Q205.7617,28.125 205.4492,27.9102 Q205.1367,27.6953 205,27.1289 Q204.9414,26.7383 204.7266,26.5234 Q204.3359,26.1133 203.6328,25.8789 Q202.9297,25.625 202.2266,25.625 Q201.3477,25.625 200.6055,25.9766 Q199.8828,26.3281 199.3164,27.1094 Q198.75,27.8906 198.75,28.9648 L198.75,30.1172 Q198.75,31.4063 199.8047,32.2656 Q200.8594,33.125 202.7344,33.125 Q203.8477,33.125 204.6289,32.8711 Q205.0781,32.7344 205.5859,32.2852 Q205.918,32.0313 206.0938,31.9531 Q206.2695,31.875 206.4844,31.875 Q206.8945,31.875 207.1875,32.207 Q207.5,32.5195 207.5,32.9688 Q207.5,33.3984 207.0703,33.9063 Q206.4453,34.6484 205.4492,35.0586 Q204.1406,35.625 202.5391,35.625 Q200.6641,35.625 199.1602,34.8828 Q197.9492,34.2969 197.0898,33.0273 Q196.25,31.7578 196.25,30.2539 L196.25,28.8867 Q196.25,27.3242 196.9922,25.957 Q197.7539,24.5898 199.0625,23.8672 Q200.3906,23.125 201.875,23.125 Q202.7734,23.125 203.5547,23.4375 Q204.3359,23.75 205,24.375 Z " fill="#000000"/><text fill="#000000" font-family="sans-serif" font-size="15" lengthAdjust="spacing" textLength="61.25" x="220" y="34.8877">Category</text><line style="stroke:#A80036;stroke-width:1.875;" x1="185" x2="283.75" y1="48.75" y2="48.75"/><text fill="#000000" font-family="sans-serif" font-size="13.75" lengthAdjust="spacing" textLength="37.5" x="191.25" y="68.0237">-name</text><text fill="#000000" font-family="sans-serif" font-size="13.75" lengthAdjust="spacing" textLength="35" x="191.25" y="85.3186">-code</text><text fill="#000000" font-family="sans-serif" font-size="13.75" lengthAdjust="spacing" textLength="71.25" x="191.25" y="102.6135">-description</text><text fill="#000000" font-family="sans-serif" font-size="13.75" lengthAdjust="spacing" textLength="38.75" x="191.25" y="119.9084">-nhsID</text><line style="stroke:#A80036;stroke-width:1.875;" x1="185" x2="283.75" y1="127.9297" y2="127.9297"/><!--MD5=[9e2b536d5f14dafa66c4d5113ebdcad2]
link Category to Parameter--><path codeLine="20" d="M212.5125,137.9125 C202.2,167.8875 189.8375,203.8125 179.175,234.8 " fill="none" id="Category-Parameter" style="stroke:#A80036;stroke-width:1.25;"/><polygon fill="#000000" points="206.4085,180.5598,199.2561,190.0557,206.2036,192.4462,206.4085,180.5598" style="stroke:#000000;stroke-width:1.25;"/><text fill="#000000" font-family="sans-serif" font-size="16.25" lengthAdjust="spacing" textLength="116.25" x="215.625" y="193.1189">presented under</text><text fill="#000000" font-family="sans-serif" font-size="16.25" lengthAdjust="spacing" textLength="6.25" x="202.9048" y="164.8316">*</text><text fill="#000000" font-family="sans-serif" font-size="16.25" lengthAdjust="spacing" textLength="8.75" x="172.9143" y="221.5268">1</text><!--MD5=[4816e9029af7918ac30a965ff8ded5aa]
link Administrator to Parameter--><path codeLine="21" d="M71.1,103.55 C69.275,129.025 69.125,166.6375 79.375,197.5 C83.5875,210.175 89.7375,222.7125 96.7375,234.5375 " fill="none" id="Administrator-Parameter" style="stroke:#A80036;stroke-width:1.25;"/><polygon fill="#000000" points="84.4245,180.3361,82.991,192.1376,90.2015,190.7263,84.4245,180.3361" style="stroke:#000000;stroke-width:1.25;"/><text fill="#000000" font-family="sans-serif" font-size="16.25" lengthAdjust="spacing" textLength="86.25" x="96.875" y="193.1189">specified by</text><text fill="#000000" font-family="sans-serif" font-size="16.25" lengthAdjust="spacing" textLength="8.75" x="60.5809" y="129.818">1</text><text fill="#000000" font-family="sans-serif" font-size="16.25" lengthAdjust="spacing" textLength="6.25" x="83.0821" y="221.2323">*</text><!--MD5=[662f72b2a269085cebff8bd1955624e1]
@startuml

skinparam classAttributeIconSize 0

class Administrator
class Parameter {
-code
-shortName
-description
-upperReferenceValue
-lowerReferenceValue
}

class Category {
-name
-code
-description
-nhsID
}

Category "*"- -"1" Parameter : presented under <
Parameter "*"-up-"1" Administrator : specified by >

@enduml

PlantUML version 1.2021.5(Sun Apr 25 12:20:28 BST 2021)
(GPL source distribution)
Java Runtime: OpenJDK Runtime Environment
JVM: OpenJDK 64-Bit Server VM
Default Encoding: Cp1252
Language: pt
Country: PT
--></g></svg>