<?xml version="1.0" encoding="UTF-8" standalone="no"?><svg xmlns="http://www.w3.org/2000/svg" xmlns:xlink="http://www.w3.org/1999/xlink" contentScriptType="application/ecmascript" contentStyleType="text/css" height="816px" preserveAspectRatio="none" style="width:604px;height:816px;" version="1.1" viewBox="0 0 604 816" width="604px" zoomAndPan="magnify"><defs><filter height="300%" id="f1xstxjrgk6ki0" width="300%" x="-1" y="-1"><feGaussianBlur result="blurOut" stdDeviation="2.0"/><feColorMatrix in="blurOut" result="blurOut2" type="matrix" values="0 0 0 0 0 0 0 0 0 0 0 0 0 0 0 0 0 0 .4 0"/><feOffset dx="4.0" dy="4.0" in="blurOut2" result="blurOut3"/><feBlend in="SourceGraphic" in2="blurOut3" mode="normal"/></filter></defs><g><!--MD5=[8ae808d068a8995f06b9b3ec51357f0b]
class AuthFacade--><rect codeLine="3" fill="#FEFECE" filter="url(#f1xstxjrgk6ki0)" height="75.6719" id="AuthFacade" style="stroke:#A80036;stroke-width:1.5;" width="199" x="7" y="266.5"/><ellipse cx="69.75" cy="282.5" fill="#ADD1B2" rx="11" ry="11" style="stroke:#A80036;stroke-width:1.0;"/><path d="M71.75,279 Q71.9531,278.5 72.1875,278.25 Q72.4219,278 72.6875,278 Q73.1563,278 73.4531,278.2813 Q73.75,278.5625 73.75,279.2188 L73.75,280.7813 Q73.75,281.4375 73.4688,281.7188 Q73.1875,282 72.75,282 Q72.3594,282 72.1094,281.8281 Q71.8594,281.6563 71.75,281.2031 Q71.7031,280.8906 71.5313,280.7188 Q71.2188,280.3906 70.6563,280.2031 Q70.0938,280 69.5313,280 Q68.8281,280 68.2344,280.2813 Q67.6563,280.5625 67.2031,281.1875 Q66.75,281.8125 66.75,282.6719 L66.75,283.5938 Q66.75,284.625 67.5938,285.3125 Q68.4375,286 69.9375,286 Q70.8281,286 71.4531,285.7969 Q71.8125,285.6875 72.2188,285.3281 Q72.4844,285.125 72.625,285.0625 Q72.7656,285 72.9375,285 Q73.2656,285 73.5,285.2656 Q73.75,285.5156 73.75,285.875 Q73.75,286.2188 73.4063,286.625 Q72.9063,287.2188 72.1094,287.5469 Q71.0625,288 69.7813,288 Q68.2813,288 67.0781,287.4063 Q66.1094,286.9375 65.4219,285.9219 Q64.75,284.9063 64.75,283.7031 L64.75,282.6094 Q64.75,281.3594 65.3438,280.2656 Q65.9531,279.1719 67,278.5938 Q68.0625,278 69.25,278 Q69.9688,278 70.5938,278.25 Q71.2188,278.5 71.75,279 Z " fill="#000000"/><text fill="#000000" font-family="sans-serif" font-size="12" lengthAdjust="spacing" textLength="65" x="90.25" y="287.4102">AuthFacade</text><line style="stroke:#A80036;stroke-width:1.5;" x1="8" x2="205" y1="298.5" y2="298.5"/><line style="stroke:#A80036;stroke-width:1.5;" x1="8" x2="205" y1="306.5" y2="306.5"/><text fill="#000000" font-family="sans-serif" font-size="11" lengthAdjust="spacing" textLength="187" x="13" y="321.9189">+changeUserEmail(oldEmail, newEmail)</text><text fill="#000000" font-family="sans-serif" font-size="11" lengthAdjust="spacing" textLength="175" x="13" y="335.7549">+changeUserPassword(email, pwd)</text><!--MD5=[ed6624c6556d5e7b1bd23032162d20b7]
class Client--><rect codeLine="7" fill="#FEFECE" filter="url(#f1xstxjrgk6ki0)" height="172.5234" id="Client" style="stroke:#A80036;stroke-width:1.5;" width="96" x="235.5" y="630"/><ellipse cx="264.9" cy="646" fill="#ADD1B2" rx="11" ry="11" style="stroke:#A80036;stroke-width:1.0;"/><path d="M266.9,642.5 Q267.1031,642 267.3375,641.75 Q267.5719,641.5 267.8375,641.5 Q268.3063,641.5 268.6031,641.7813 Q268.9,642.0625 268.9,642.7188 L268.9,644.2813 Q268.9,644.9375 268.6188,645.2188 Q268.3375,645.5 267.9,645.5 Q267.5094,645.5 267.2594,645.3281 Q267.0094,645.1563 266.9,644.7031 Q266.8531,644.3906 266.6813,644.2188 Q266.3688,643.8906 265.8063,643.7031 Q265.2438,643.5 264.6813,643.5 Q263.9781,643.5 263.3844,643.7813 Q262.8063,644.0625 262.3531,644.6875 Q261.9,645.3125 261.9,646.1719 L261.9,647.0938 Q261.9,648.125 262.7438,648.8125 Q263.5875,649.5 265.0875,649.5 Q265.9781,649.5 266.6031,649.2969 Q266.9625,649.1875 267.3688,648.8281 Q267.6344,648.625 267.775,648.5625 Q267.9156,648.5 268.0875,648.5 Q268.4156,648.5 268.65,648.7656 Q268.9,649.0156 268.9,649.375 Q268.9,649.7188 268.5563,650.125 Q268.0563,650.7188 267.2594,651.0469 Q266.2125,651.5 264.9313,651.5 Q263.4313,651.5 262.2281,650.9063 Q261.2594,650.4375 260.5719,649.4219 Q259.9,648.4063 259.9,647.2031 L259.9,646.1094 Q259.9,644.8594 260.4938,643.7656 Q261.1031,642.6719 262.15,642.0938 Q263.2125,641.5 264.4,641.5 Q265.1188,641.5 265.7438,641.75 Q266.3688,642 266.9,642.5 Z " fill="#000000"/><text fill="#000000" font-family="sans-serif" font-size="12" lengthAdjust="spacing" textLength="32" x="282.1" y="650.9102">Client</text><line style="stroke:#A80036;stroke-width:1.5;" x1="236.5" x2="330.5" y1="662" y2="662"/><text fill="#000000" font-family="sans-serif" font-size="11" lengthAdjust="spacing" textLength="30" x="241.5" y="677.4189">-name</text><text fill="#000000" font-family="sans-serif" font-size="11" lengthAdjust="spacing" textLength="63" x="241.5" y="691.2549">-cardNumber</text><text fill="#000000" font-family="sans-serif" font-size="11" lengthAdjust="spacing" textLength="30" x="241.5" y="705.0908">-nhsId</text><text fill="#000000" font-family="sans-serif" font-size="11" lengthAdjust="spacing" textLength="47" x="241.5" y="718.9268">-dateBirth</text><text fill="#000000" font-family="sans-serif" font-size="11" lengthAdjust="spacing" textLength="19" x="241.5" y="732.7627">-TIN</text><text fill="#000000" font-family="sans-serif" font-size="11" lengthAdjust="spacing" textLength="71" x="241.5" y="746.5986">-phoneNumber</text><text fill="#000000" font-family="sans-serif" font-size="11" lengthAdjust="spacing" textLength="28" x="241.5" y="760.4346">-email</text><text fill="#000000" font-family="sans-serif" font-size="11" lengthAdjust="spacing" textLength="22" x="241.5" y="774.2705">-sex</text><line style="stroke:#A80036;stroke-width:1.5;" x1="236.5" x2="330.5" y1="780.6875" y2="780.6875"/><text fill="#000000" font-family="sans-serif" font-size="11" lengthAdjust="spacing" textLength="84" x="241.5" y="796.1064">+updateData(dto)</text><!--MD5=[40e9945282c48598bf8e8f901722e250]
class UpdateClientDataUI--><rect codeLine="18" fill="#FEFECE" filter="url(#f1xstxjrgk6ki0)" height="48" id="UpdateClientDataUI" style="stroke:#A80036;stroke-width:1.5;" width="142" x="380.5" y="7"/><ellipse cx="395.5" cy="23" fill="#ADD1B2" rx="11" ry="11" style="stroke:#A80036;stroke-width:1.0;"/><path d="M397.5,19.5 Q397.7031,19 397.9375,18.75 Q398.1719,18.5 398.4375,18.5 Q398.9063,18.5 399.2031,18.7813 Q399.5,19.0625 399.5,19.7188 L399.5,21.2813 Q399.5,21.9375 399.2188,22.2188 Q398.9375,22.5 398.5,22.5 Q398.1094,22.5 397.8594,22.3281 Q397.6094,22.1563 397.5,21.7031 Q397.4531,21.3906 397.2813,21.2188 Q396.9688,20.8906 396.4063,20.7031 Q395.8438,20.5 395.2813,20.5 Q394.5781,20.5 393.9844,20.7813 Q393.4063,21.0625 392.9531,21.6875 Q392.5,22.3125 392.5,23.1719 L392.5,24.0938 Q392.5,25.125 393.3438,25.8125 Q394.1875,26.5 395.6875,26.5 Q396.5781,26.5 397.2031,26.2969 Q397.5625,26.1875 397.9688,25.8281 Q398.2344,25.625 398.375,25.5625 Q398.5156,25.5 398.6875,25.5 Q399.0156,25.5 399.25,25.7656 Q399.5,26.0156 399.5,26.375 Q399.5,26.7188 399.1563,27.125 Q398.6563,27.7188 397.8594,28.0469 Q396.8125,28.5 395.5313,28.5 Q394.0313,28.5 392.8281,27.9063 Q391.8594,27.4375 391.1719,26.4219 Q390.5,25.4063 390.5,24.2031 L390.5,23.1094 Q390.5,21.8594 391.0938,20.7656 Q391.7031,19.6719 392.75,19.0938 Q393.8125,18.5 395,18.5 Q395.7188,18.5 396.3438,18.75 Q396.9688,19 397.5,19.5 Z " fill="#000000"/><text fill="#000000" font-family="sans-serif" font-size="12" lengthAdjust="spacing" textLength="110" x="409.5" y="27.9102">UpdateClientDataUI</text><line style="stroke:#A80036;stroke-width:1.5;" x1="381.5" x2="521.5" y1="39" y2="39"/><line style="stroke:#A80036;stroke-width:1.5;" x1="381.5" x2="521.5" y1="47" y2="47"/><!--MD5=[e36a2c212d7d2d48ac79e8136dd7cfaa]
class UpdateClientDataController--><rect codeLine="19" fill="#FEFECE" filter="url(#f1xstxjrgk6ki0)" height="48" id="UpdateClientDataController" style="stroke:#A80036;stroke-width:1.5;" width="184" x="247.5" y="116"/><ellipse cx="262.5" cy="132" fill="#ADD1B2" rx="11" ry="11" style="stroke:#A80036;stroke-width:1.0;"/><path d="M264.5,128.5 Q264.7031,128 264.9375,127.75 Q265.1719,127.5 265.4375,127.5 Q265.9063,127.5 266.2031,127.7813 Q266.5,128.0625 266.5,128.7188 L266.5,130.2813 Q266.5,130.9375 266.2188,131.2188 Q265.9375,131.5 265.5,131.5 Q265.1094,131.5 264.8594,131.3281 Q264.6094,131.1563 264.5,130.7031 Q264.4531,130.3906 264.2813,130.2188 Q263.9688,129.8906 263.4063,129.7031 Q262.8438,129.5 262.2813,129.5 Q261.5781,129.5 260.9844,129.7813 Q260.4063,130.0625 259.9531,130.6875 Q259.5,131.3125 259.5,132.1719 L259.5,133.0938 Q259.5,134.125 260.3438,134.8125 Q261.1875,135.5 262.6875,135.5 Q263.5781,135.5 264.2031,135.2969 Q264.5625,135.1875 264.9688,134.8281 Q265.2344,134.625 265.375,134.5625 Q265.5156,134.5 265.6875,134.5 Q266.0156,134.5 266.25,134.7656 Q266.5,135.0156 266.5,135.375 Q266.5,135.7188 266.1563,136.125 Q265.6563,136.7188 264.8594,137.0469 Q263.8125,137.5 262.5313,137.5 Q261.0313,137.5 259.8281,136.9063 Q258.8594,136.4375 258.1719,135.4219 Q257.5,134.4063 257.5,133.2031 L257.5,132.1094 Q257.5,130.8594 258.0938,129.7656 Q258.7031,128.6719 259.75,128.0938 Q260.8125,127.5 262,127.5 Q262.7188,127.5 263.3438,127.75 Q263.9688,128 264.5,128.5 Z " fill="#000000"/><text fill="#000000" font-family="sans-serif" font-size="12" lengthAdjust="spacing" textLength="152" x="276.5" y="136.9102">UpdateClientDataController</text><line style="stroke:#A80036;stroke-width:1.5;" x1="248.5" x2="430.5" y1="148" y2="148"/><line style="stroke:#A80036;stroke-width:1.5;" x1="248.5" x2="430.5" y1="156" y2="156"/><!--MD5=[02e4b9b7573f1156f41e60aa5b4e25a4]
class Company--><rect codeLine="20" fill="#FEFECE" filter="url(#f1xstxjrgk6ki0)" height="61.8359" id="Company" style="stroke:#A80036;stroke-width:1.5;" width="85" x="241" y="273.5"/><ellipse cx="256" cy="289.5" fill="#ADD1B2" rx="11" ry="11" style="stroke:#A80036;stroke-width:1.0;"/><path d="M258,286 Q258.2031,285.5 258.4375,285.25 Q258.6719,285 258.9375,285 Q259.4063,285 259.7031,285.2813 Q260,285.5625 260,286.2188 L260,287.7813 Q260,288.4375 259.7188,288.7188 Q259.4375,289 259,289 Q258.6094,289 258.3594,288.8281 Q258.1094,288.6563 258,288.2031 Q257.9531,287.8906 257.7813,287.7188 Q257.4688,287.3906 256.9063,287.2031 Q256.3438,287 255.7813,287 Q255.0781,287 254.4844,287.2813 Q253.9063,287.5625 253.4531,288.1875 Q253,288.8125 253,289.6719 L253,290.5938 Q253,291.625 253.8438,292.3125 Q254.6875,293 256.1875,293 Q257.0781,293 257.7031,292.7969 Q258.0625,292.6875 258.4688,292.3281 Q258.7344,292.125 258.875,292.0625 Q259.0156,292 259.1875,292 Q259.5156,292 259.75,292.2656 Q260,292.5156 260,292.875 Q260,293.2188 259.6563,293.625 Q259.1563,294.2188 258.3594,294.5469 Q257.3125,295 256.0313,295 Q254.5313,295 253.3281,294.4063 Q252.3594,293.9375 251.6719,292.9219 Q251,291.9063 251,290.7031 L251,289.6094 Q251,288.3594 251.5938,287.2656 Q252.2031,286.1719 253.25,285.5938 Q254.3125,285 255.5,285 Q256.2188,285 256.8438,285.25 Q257.4688,285.5 258,286 Z " fill="#000000"/><text fill="#000000" font-family="sans-serif" font-size="12" lengthAdjust="spacing" textLength="53" x="270" y="294.4102">Company</text><line style="stroke:#A80036;stroke-width:1.5;" x1="242" x2="325" y1="305.5" y2="305.5"/><text fill="#000000" font-family="sans-serif" font-size="11" lengthAdjust="spacing" textLength="59" x="247" y="320.9189">-designation</text><line style="stroke:#A80036;stroke-width:1.5;" x1="242" x2="325" y1="327.3359" y2="327.3359"/><!--MD5=[55cb992be19579b505cea3c5691093cb]
class ClientStore--><rect codeLine="23" fill="#FEFECE" filter="url(#f1xstxjrgk6ki0)" height="89.5078" id="ClientStore" style="stroke:#A80036;stroke-width:1.5;" width="153" x="207" y="462"/><ellipse cx="249" cy="478" fill="#ADD1B2" rx="11" ry="11" style="stroke:#A80036;stroke-width:1.0;"/><path d="M251,474.5 Q251.2031,474 251.4375,473.75 Q251.6719,473.5 251.9375,473.5 Q252.4063,473.5 252.7031,473.7813 Q253,474.0625 253,474.7188 L253,476.2813 Q253,476.9375 252.7188,477.2188 Q252.4375,477.5 252,477.5 Q251.6094,477.5 251.3594,477.3281 Q251.1094,477.1563 251,476.7031 Q250.9531,476.3906 250.7813,476.2188 Q250.4688,475.8906 249.9063,475.7031 Q249.3438,475.5 248.7813,475.5 Q248.0781,475.5 247.4844,475.7813 Q246.9063,476.0625 246.4531,476.6875 Q246,477.3125 246,478.1719 L246,479.0938 Q246,480.125 246.8438,480.8125 Q247.6875,481.5 249.1875,481.5 Q250.0781,481.5 250.7031,481.2969 Q251.0625,481.1875 251.4688,480.8281 Q251.7344,480.625 251.875,480.5625 Q252.0156,480.5 252.1875,480.5 Q252.5156,480.5 252.75,480.7656 Q253,481.0156 253,481.375 Q253,481.7188 252.6563,482.125 Q252.1563,482.7188 251.3594,483.0469 Q250.3125,483.5 249.0313,483.5 Q247.5313,483.5 246.3281,482.9063 Q245.3594,482.4375 244.6719,481.4219 Q244,480.4063 244,479.2031 L244,478.1094 Q244,476.8594 244.5938,475.7656 Q245.2031,474.6719 246.25,474.0938 Q247.3125,473.5 248.5,473.5 Q249.2188,473.5 249.8438,473.75 Q250.4688,474 251,474.5 Z " fill="#000000"/><text fill="#000000" font-family="sans-serif" font-size="12" lengthAdjust="spacing" textLength="61" x="269" y="482.9102">ClientStore</text><line style="stroke:#A80036;stroke-width:1.5;" x1="208" x2="359" y1="494" y2="494"/><line style="stroke:#A80036;stroke-width:1.5;" x1="208" x2="359" y1="502" y2="502"/><text fill="#000000" font-family="sans-serif" font-size="11" lengthAdjust="spacing" textLength="116" x="213" y="517.4189">+getClientByEmail(email)</text><text fill="#000000" font-family="sans-serif" font-size="11" lengthAdjust="spacing" textLength="141" x="213" y="531.2549">+updateClientData(client, dto)</text><text fill="#000000" font-family="sans-serif" font-size="11" lengthAdjust="spacing" textLength="86" x="213" y="545.0908">-validateData(dto)</text><!--MD5=[d9af5e34e5bc78cd5a2caff02363fedd]
class ClientMapper--><rect codeLine="28" fill="#FEFECE" filter="url(#f1xstxjrgk6ki0)" height="61.8359" id="ClientMapper" style="stroke:#A80036;stroke-width:1.5;" width="105" x="361" y="273.5"/><ellipse cx="376" cy="289.5" fill="#ADD1B2" rx="11" ry="11" style="stroke:#A80036;stroke-width:1.0;"/><path d="M378,286 Q378.2031,285.5 378.4375,285.25 Q378.6719,285 378.9375,285 Q379.4063,285 379.7031,285.2813 Q380,285.5625 380,286.2188 L380,287.7813 Q380,288.4375 379.7188,288.7188 Q379.4375,289 379,289 Q378.6094,289 378.3594,288.8281 Q378.1094,288.6563 378,288.2031 Q377.9531,287.8906 377.7813,287.7188 Q377.4688,287.3906 376.9063,287.2031 Q376.3438,287 375.7813,287 Q375.0781,287 374.4844,287.2813 Q373.9063,287.5625 373.4531,288.1875 Q373,288.8125 373,289.6719 L373,290.5938 Q373,291.625 373.8438,292.3125 Q374.6875,293 376.1875,293 Q377.0781,293 377.7031,292.7969 Q378.0625,292.6875 378.4688,292.3281 Q378.7344,292.125 378.875,292.0625 Q379.0156,292 379.1875,292 Q379.5156,292 379.75,292.2656 Q380,292.5156 380,292.875 Q380,293.2188 379.6563,293.625 Q379.1563,294.2188 378.3594,294.5469 Q377.3125,295 376.0313,295 Q374.5313,295 373.3281,294.4063 Q372.3594,293.9375 371.6719,292.9219 Q371,291.9063 371,290.7031 L371,289.6094 Q371,288.3594 371.5938,287.2656 Q372.2031,286.1719 373.25,285.5938 Q374.3125,285 375.5,285 Q376.2188,285 376.8438,285.25 Q377.4688,285.5 378,286 Z " fill="#000000"/><text fill="#000000" font-family="sans-serif" font-size="12" lengthAdjust="spacing" textLength="73" x="390" y="294.4102">ClientMapper</text><line style="stroke:#A80036;stroke-width:1.5;" x1="362" x2="465" y1="305.5" y2="305.5"/><line style="stroke:#A80036;stroke-width:1.5;" x1="362" x2="465" y1="313.5" y2="313.5"/><text fill="#000000" font-family="sans-serif" font-size="11" lengthAdjust="spacing" textLength="69" x="367" y="328.9189">+toDTO(client)</text><!--MD5=[d92da6d3e9b1e9631354e1a6db35e891]
class ClientDTO--><rect codeLine="31" fill="#FEFECE" filter="url(#f1xstxjrgk6ki0)" height="158.6875" id="ClientDTO" style="stroke:#A80036;stroke-width:1.5;" width="89" x="501" y="225"/><ellipse cx="516" cy="241" fill="#ADD1B2" rx="11" ry="11" style="stroke:#A80036;stroke-width:1.0;"/><path d="M518,237.5 Q518.2031,237 518.4375,236.75 Q518.6719,236.5 518.9375,236.5 Q519.4063,236.5 519.7031,236.7813 Q520,237.0625 520,237.7188 L520,239.2813 Q520,239.9375 519.7188,240.2188 Q519.4375,240.5 519,240.5 Q518.6094,240.5 518.3594,240.3281 Q518.1094,240.1563 518,239.7031 Q517.9531,239.3906 517.7813,239.2188 Q517.4688,238.8906 516.9063,238.7031 Q516.3438,238.5 515.7813,238.5 Q515.0781,238.5 514.4844,238.7813 Q513.9063,239.0625 513.4531,239.6875 Q513,240.3125 513,241.1719 L513,242.0938 Q513,243.125 513.8438,243.8125 Q514.6875,244.5 516.1875,244.5 Q517.0781,244.5 517.7031,244.2969 Q518.0625,244.1875 518.4688,243.8281 Q518.7344,243.625 518.875,243.5625 Q519.0156,243.5 519.1875,243.5 Q519.5156,243.5 519.75,243.7656 Q520,244.0156 520,244.375 Q520,244.7188 519.6563,245.125 Q519.1563,245.7188 518.3594,246.0469 Q517.3125,246.5 516.0313,246.5 Q514.5313,246.5 513.3281,245.9063 Q512.3594,245.4375 511.6719,244.4219 Q511,243.4063 511,242.2031 L511,241.1094 Q511,239.8594 511.5938,238.7656 Q512.2031,237.6719 513.25,237.0938 Q514.3125,236.5 515.5,236.5 Q516.2188,236.5 516.8438,236.75 Q517.4688,237 518,237.5 Z " fill="#000000"/><text fill="#000000" font-family="sans-serif" font-size="12" lengthAdjust="spacing" textLength="57" x="530" y="245.9102">ClientDTO</text><line style="stroke:#A80036;stroke-width:1.5;" x1="502" x2="589" y1="257" y2="257"/><text fill="#000000" font-family="sans-serif" font-size="11" lengthAdjust="spacing" textLength="30" x="507" y="272.4189">-name</text><text fill="#000000" font-family="sans-serif" font-size="11" lengthAdjust="spacing" textLength="63" x="507" y="286.2549">-cardNumber</text><text fill="#000000" font-family="sans-serif" font-size="11" lengthAdjust="spacing" textLength="30" x="507" y="300.0908">-nhsId</text><text fill="#000000" font-family="sans-serif" font-size="11" lengthAdjust="spacing" textLength="47" x="507" y="313.9268">-dateBirth</text><text fill="#000000" font-family="sans-serif" font-size="11" lengthAdjust="spacing" textLength="19" x="507" y="327.7627">-TIN</text><text fill="#000000" font-family="sans-serif" font-size="11" lengthAdjust="spacing" textLength="71" x="507" y="341.5986">-phoneNumber</text><text fill="#000000" font-family="sans-serif" font-size="11" lengthAdjust="spacing" textLength="28" x="507" y="355.4346">-email</text><text fill="#000000" font-family="sans-serif" font-size="11" lengthAdjust="spacing" textLength="22" x="507" y="369.2705">-sex</text><line style="stroke:#A80036;stroke-width:1.5;" x1="502" x2="589" y1="375.6875" y2="375.6875"/><!--MD5=[a07bde5ebeed6d61e8f80f6ad30d4fad]
link UpdateClientDataUI to UpdateClientDataController--><path codeLine="42" d="M427.2,55.22 C409.73,71.9 386.13,94.45 367.82,111.95 " fill="none" id="UpdateClientDataUI-to-UpdateClientDataController" style="stroke:#A80036;stroke-width:1.0;stroke-dasharray:7.0,7.0;"/><polygon fill="#A80036" points="363.75,115.83,373.0187,112.4996,367.3632,112.3739,367.4889,106.7184,363.75,115.83" style="stroke:#A80036;stroke-width:1.0;"/><!--MD5=[aaaa78cfd9479e60fcdeb482b9a9c7de]
link UpdateClientDataUI to ClientDTO--><path codeLine="43" d="M459.51,55.15 C472.04,91.32 496.86,163.01 516.63,220.11 " fill="none" id="UpdateClientDataUI-to-ClientDTO" style="stroke:#A80036;stroke-width:1.0;stroke-dasharray:7.0,7.0;"/><polygon fill="#A80036" points="518.28,224.89,519.1048,215.0757,516.6391,220.1669,511.5479,217.7012,518.28,224.89" style="stroke:#A80036;stroke-width:1.0;"/><!--MD5=[521fb7b950e8542efb912e876b992062]
link UpdateClientDataController to ClientMapper--><path codeLine="44" d="M350.1,164.28 C362.51,191.52 383.17,236.9 397.52,268.41 " fill="none" id="UpdateClientDataController-to-ClientMapper" style="stroke:#A80036;stroke-width:1.0;stroke-dasharray:7.0,7.0;"/><polygon fill="#A80036" points="399.77,273.35,399.6872,263.5015,397.701,268.7982,392.4043,266.8119,399.77,273.35" style="stroke:#A80036;stroke-width:1.0;"/><!--MD5=[b093ad39c63cd7eb53723b931e60df6d]
link UpdateClientDataController to AuthFacade--><path codeLine="45" d="M306.12,164.28 C269.06,190.13 208.59,232.3 163.9,263.47 " fill="none" id="UpdateClientDataController-to-AuthFacade" style="stroke:#A80036;stroke-width:1.0;stroke-dasharray:7.0,7.0;"/><polygon fill="#A80036" points="159.63,266.45,169.3009,264.5861,163.7322,263.5913,164.727,258.0226,159.63,266.45" style="stroke:#A80036;stroke-width:1.0;"/><!--MD5=[af3939234646809cec66923e43961aa6]
link ClientMapper to ClientDTO--><path codeLine="46" d="M466.09,304.5 C475.95,304.5 485.82,304.5 495.68,304.5 " fill="none" id="ClientMapper-to-ClientDTO" style="stroke:#A80036;stroke-width:1.0;stroke-dasharray:7.0,7.0;"/><polygon fill="#A80036" points="500.83,304.5,491.83,300.5,495.83,304.5,491.83,308.5,500.83,304.5" style="stroke:#A80036;stroke-width:1.0;"/><!--MD5=[cf8c151e5875d79d17ae5fa254c6e19b]
link UpdateClientDataController to Company--><path codeLine="47" d="M331.48,164.28 C322.09,191.52 306.45,236.9 295.59,268.41 " fill="none" id="UpdateClientDataController-to-Company" style="stroke:#A80036;stroke-width:1.0;stroke-dasharray:7.0,7.0;"/><polygon fill="#A80036" points="293.89,273.35,300.6094,266.1494,295.5226,268.624,293.0479,263.5372,293.89,273.35" style="stroke:#A80036;stroke-width:1.0;"/><!--MD5=[a11230341c8e65219708844feaa40162]
link Company to ClientStore--><path codeLine="48" d="M283.5,335.52 C283.5,367.51 283.5,418.68 283.5,456.62 " fill="none" id="Company-to-ClientStore" style="stroke:#A80036;stroke-width:1.0;"/><polygon fill="#A80036" points="283.5,461.65,287.5,452.65,283.5,456.65,279.5,452.65,283.5,461.65" style="stroke:#A80036;stroke-width:1.0;"/><text fill="#000000" font-family="sans-serif" font-size="13" lengthAdjust="spacing" textLength="28" x="284.5" y="428.4951">uses</text><!--MD5=[1d934105a045dbf126514c6917bd5072]
link ClientStore to Client--><path codeLine="49" d="M283.5,552.01 C283.5,573.2 283.5,599.43 283.5,624.63 " fill="none" id="ClientStore-to-Client" style="stroke:#A80036;stroke-width:1.0;"/><polygon fill="#A80036" points="283.5,629.66,287.5,620.66,283.5,624.66,279.5,620.66,283.5,629.66" style="stroke:#A80036;stroke-width:1.0;"/><text fill="#000000" font-family="sans-serif" font-size="13" lengthAdjust="spacing" textLength="49" x="284.5" y="596.4951">contains</text><!--MD5=[f50f2dc884a9288a70c76a5b0ca6511f]
@startuml
skinparam classAttributeIconSize 0

class AuthFacade {
+ changeUserEmail(oldEmail, newEmail)
+ changeUserPassword(email, pwd)
}
class Client {
- name
- cardNumber
- nhsId
- dateBirth
- TIN
- phoneNumber
- email
- sex
+ updateData(dto)
}
class UpdateClientDataUI
class UpdateClientDataController
class Company {
- designation
}
class ClientStore {
+ getClientByEmail(email)
+ updateClientData(client, dto)
- validateData(dto)
}
class ClientMapper {
+ toDTO(client)
}
class ClientDTO {
- name
- cardNumber
- nhsId
- dateBirth
- TIN
- phoneNumber
- email
- sex
}

UpdateClientDataUI ..> UpdateClientDataController
UpdateClientDataUI ..> ClientDTO
UpdateClientDataController ..> ClientMapper
UpdateClientDataController ..> AuthFacade
ClientMapper .right.> ClientDTO
UpdateClientDataController ..> Company
Company - -> ClientStore : uses
ClientStore - -> Client : contains
@enduml

PlantUML version 1.2021.2(Sun Mar 07 11:10:27 GMT 2021)
(GPL source distribution)
Java Runtime: OpenJDK Runtime Environment
JVM: OpenJDK 64-Bit Server VM
Default Encoding: Cp1252
Language: pt
Country: PT
--></g></svg>