<?xml version="1.0" encoding="UTF-8" standalone="no"?><svg xmlns="http://www.w3.org/2000/svg" xmlns:xlink="http://www.w3.org/1999/xlink" contentScriptType="application/ecmascript" contentStyleType="text/css" height="774px" preserveAspectRatio="none" style="width:391px;height:774px;" version="1.1" viewBox="0 0 391 774" width="391px" zoomAndPan="magnify"><defs><filter height="300%" id="f1jgk98m3z2vas" width="300%" x="-1" y="-1"><feGaussianBlur result="blurOut" stdDeviation="2.0"/><feColorMatrix in="blurOut" result="blurOut2" type="matrix" values="0 0 0 0 0 0 0 0 0 0 0 0 0 0 0 0 0 0 .4 0"/><feOffset dx="4.0" dy="4.0" in="blurOut2" result="blurOut3"/><feBlend in="SourceGraphic" in2="blurOut3" mode="normal"/></filter></defs><g><!--MD5=[ed6624c6556d5e7b1bd23032162d20b7]
class Client--><rect codeLine="3" fill="#FEFECE" filter="url(#f1jgk98m3z2vas)" height="158.6875" id="Client" style="stroke:#A80036;stroke-width:1.5;" width="83" x="29.5" y="602"/><ellipse cx="53.05" cy="618" fill="#ADD1B2" rx="11" ry="11" style="stroke:#A80036;stroke-width:1.0;"/><path d="M55.05,614.5 Q55.2531,614 55.4875,613.75 Q55.7219,613.5 55.9875,613.5 Q56.4563,613.5 56.7531,613.7813 Q57.05,614.0625 57.05,614.7188 L57.05,616.2813 Q57.05,616.9375 56.7688,617.2188 Q56.4875,617.5 56.05,617.5 Q55.6594,617.5 55.4094,617.3281 Q55.1594,617.1563 55.05,616.7031 Q55.0031,616.3906 54.8313,616.2188 Q54.5188,615.8906 53.9563,615.7031 Q53.3938,615.5 52.8313,615.5 Q52.1281,615.5 51.5344,615.7813 Q50.9563,616.0625 50.5031,616.6875 Q50.05,617.3125 50.05,618.1719 L50.05,619.0938 Q50.05,620.125 50.8938,620.8125 Q51.7375,621.5 53.2375,621.5 Q54.1281,621.5 54.7531,621.2969 Q55.1125,621.1875 55.5188,620.8281 Q55.7844,620.625 55.925,620.5625 Q56.0656,620.5 56.2375,620.5 Q56.5656,620.5 56.8,620.7656 Q57.05,621.0156 57.05,621.375 Q57.05,621.7188 56.7063,622.125 Q56.2063,622.7188 55.4094,623.0469 Q54.3625,623.5 53.0813,623.5 Q51.5813,623.5 50.3781,622.9063 Q49.4094,622.4375 48.7219,621.4219 Q48.05,620.4063 48.05,619.2031 L48.05,618.1094 Q48.05,616.8594 48.6438,615.7656 Q49.2531,614.6719 50.3,614.0938 Q51.3625,613.5 52.55,613.5 Q53.2688,613.5 53.8938,613.75 Q54.5188,614 55.05,614.5 Z " fill="#000000"/><text fill="#000000" font-family="sans-serif" font-size="12" lengthAdjust="spacing" textLength="32" x="68.95" y="622.9102">Client</text><line style="stroke:#A80036;stroke-width:1.5;" x1="30.5" x2="111.5" y1="634" y2="634"/><text fill="#000000" font-family="sans-serif" font-size="11" lengthAdjust="spacing" textLength="30" x="35.5" y="649.4189">-name</text><text fill="#000000" font-family="sans-serif" font-size="11" lengthAdjust="spacing" textLength="63" x="35.5" y="663.2549">-cardNumber</text><text fill="#000000" font-family="sans-serif" font-size="11" lengthAdjust="spacing" textLength="30" x="35.5" y="677.0908">-nhsId</text><text fill="#000000" font-family="sans-serif" font-size="11" lengthAdjust="spacing" textLength="47" x="35.5" y="690.9268">-dateBirth</text><text fill="#000000" font-family="sans-serif" font-size="11" lengthAdjust="spacing" textLength="19" x="35.5" y="704.7627">-TIN</text><text fill="#000000" font-family="sans-serif" font-size="11" lengthAdjust="spacing" textLength="71" x="35.5" y="718.5986">-phoneNumber</text><text fill="#000000" font-family="sans-serif" font-size="11" lengthAdjust="spacing" textLength="28" x="35.5" y="732.4346">-email</text><text fill="#000000" font-family="sans-serif" font-size="11" lengthAdjust="spacing" textLength="22" x="35.5" y="746.2705">-sex</text><line style="stroke:#A80036;stroke-width:1.5;" x1="30.5" x2="111.5" y1="752.6875" y2="752.6875"/><!--MD5=[40e9945282c48598bf8e8f901722e250]
class UpdateClientDataUI--><rect codeLine="13" fill="#FEFECE" filter="url(#f1jgk98m3z2vas)" height="48" id="UpdateClientDataUI" style="stroke:#A80036;stroke-width:1.5;" width="142" x="189" y="7"/><ellipse cx="204" cy="23" fill="#ADD1B2" rx="11" ry="11" style="stroke:#A80036;stroke-width:1.0;"/><path d="M206,19.5 Q206.2031,19 206.4375,18.75 Q206.6719,18.5 206.9375,18.5 Q207.4063,18.5 207.7031,18.7813 Q208,19.0625 208,19.7188 L208,21.2813 Q208,21.9375 207.7188,22.2188 Q207.4375,22.5 207,22.5 Q206.6094,22.5 206.3594,22.3281 Q206.1094,22.1563 206,21.7031 Q205.9531,21.3906 205.7813,21.2188 Q205.4688,20.8906 204.9063,20.7031 Q204.3438,20.5 203.7813,20.5 Q203.0781,20.5 202.4844,20.7813 Q201.9063,21.0625 201.4531,21.6875 Q201,22.3125 201,23.1719 L201,24.0938 Q201,25.125 201.8438,25.8125 Q202.6875,26.5 204.1875,26.5 Q205.0781,26.5 205.7031,26.2969 Q206.0625,26.1875 206.4688,25.8281 Q206.7344,25.625 206.875,25.5625 Q207.0156,25.5 207.1875,25.5 Q207.5156,25.5 207.75,25.7656 Q208,26.0156 208,26.375 Q208,26.7188 207.6563,27.125 Q207.1563,27.7188 206.3594,28.0469 Q205.3125,28.5 204.0313,28.5 Q202.5313,28.5 201.3281,27.9063 Q200.3594,27.4375 199.6719,26.4219 Q199,25.4063 199,24.2031 L199,23.1094 Q199,21.8594 199.5938,20.7656 Q200.2031,19.6719 201.25,19.0938 Q202.3125,18.5 203.5,18.5 Q204.2188,18.5 204.8438,18.75 Q205.4688,19 206,19.5 Z " fill="#000000"/><text fill="#000000" font-family="sans-serif" font-size="12" lengthAdjust="spacing" textLength="110" x="218" y="27.9102">UpdateClientDataUI</text><line style="stroke:#A80036;stroke-width:1.5;" x1="190" x2="330" y1="39" y2="39"/><line style="stroke:#A80036;stroke-width:1.5;" x1="190" x2="330" y1="47" y2="47"/><!--MD5=[e36a2c212d7d2d48ac79e8136dd7cfaa]
class UpdateClientDataController--><rect codeLine="14" fill="#FEFECE" filter="url(#f1jgk98m3z2vas)" height="48" id="UpdateClientDataController" style="stroke:#A80036;stroke-width:1.5;" width="184" x="96" y="116"/><ellipse cx="111" cy="132" fill="#ADD1B2" rx="11" ry="11" style="stroke:#A80036;stroke-width:1.0;"/><path d="M113,128.5 Q113.2031,128 113.4375,127.75 Q113.6719,127.5 113.9375,127.5 Q114.4063,127.5 114.7031,127.7813 Q115,128.0625 115,128.7188 L115,130.2813 Q115,130.9375 114.7188,131.2188 Q114.4375,131.5 114,131.5 Q113.6094,131.5 113.3594,131.3281 Q113.1094,131.1563 113,130.7031 Q112.9531,130.3906 112.7813,130.2188 Q112.4688,129.8906 111.9063,129.7031 Q111.3438,129.5 110.7813,129.5 Q110.0781,129.5 109.4844,129.7813 Q108.9063,130.0625 108.4531,130.6875 Q108,131.3125 108,132.1719 L108,133.0938 Q108,134.125 108.8438,134.8125 Q109.6875,135.5 111.1875,135.5 Q112.0781,135.5 112.7031,135.2969 Q113.0625,135.1875 113.4688,134.8281 Q113.7344,134.625 113.875,134.5625 Q114.0156,134.5 114.1875,134.5 Q114.5156,134.5 114.75,134.7656 Q115,135.0156 115,135.375 Q115,135.7188 114.6563,136.125 Q114.1563,136.7188 113.3594,137.0469 Q112.3125,137.5 111.0313,137.5 Q109.5313,137.5 108.3281,136.9063 Q107.3594,136.4375 106.6719,135.4219 Q106,134.4063 106,133.2031 L106,132.1094 Q106,130.8594 106.5938,129.7656 Q107.2031,128.6719 108.25,128.0938 Q109.3125,127.5 110.5,127.5 Q111.2188,127.5 111.8438,127.75 Q112.4688,128 113,128.5 Z " fill="#000000"/><text fill="#000000" font-family="sans-serif" font-size="12" lengthAdjust="spacing" textLength="152" x="125" y="136.9102">UpdateClientDataController</text><line style="stroke:#A80036;stroke-width:1.5;" x1="97" x2="279" y1="148" y2="148"/><line style="stroke:#A80036;stroke-width:1.5;" x1="97" x2="279" y1="156" y2="156"/><!--MD5=[02e4b9b7573f1156f41e60aa5b4e25a4]
class Company--><rect codeLine="15" fill="#FEFECE" filter="url(#f1jgk98m3z2vas)" height="61.8359" id="Company" style="stroke:#A80036;stroke-width:1.5;" width="85" x="28.5" y="273.5"/><ellipse cx="43.5" cy="289.5" fill="#ADD1B2" rx="11" ry="11" style="stroke:#A80036;stroke-width:1.0;"/><path d="M45.5,286 Q45.7031,285.5 45.9375,285.25 Q46.1719,285 46.4375,285 Q46.9063,285 47.2031,285.2813 Q47.5,285.5625 47.5,286.2188 L47.5,287.7813 Q47.5,288.4375 47.2188,288.7188 Q46.9375,289 46.5,289 Q46.1094,289 45.8594,288.8281 Q45.6094,288.6563 45.5,288.2031 Q45.4531,287.8906 45.2813,287.7188 Q44.9688,287.3906 44.4063,287.2031 Q43.8438,287 43.2813,287 Q42.5781,287 41.9844,287.2813 Q41.4063,287.5625 40.9531,288.1875 Q40.5,288.8125 40.5,289.6719 L40.5,290.5938 Q40.5,291.625 41.3438,292.3125 Q42.1875,293 43.6875,293 Q44.5781,293 45.2031,292.7969 Q45.5625,292.6875 45.9688,292.3281 Q46.2344,292.125 46.375,292.0625 Q46.5156,292 46.6875,292 Q47.0156,292 47.25,292.2656 Q47.5,292.5156 47.5,292.875 Q47.5,293.2188 47.1563,293.625 Q46.6563,294.2188 45.8594,294.5469 Q44.8125,295 43.5313,295 Q42.0313,295 40.8281,294.4063 Q39.8594,293.9375 39.1719,292.9219 Q38.5,291.9063 38.5,290.7031 L38.5,289.6094 Q38.5,288.3594 39.0938,287.2656 Q39.7031,286.1719 40.75,285.5938 Q41.8125,285 43,285 Q43.7188,285 44.3438,285.25 Q44.9688,285.5 45.5,286 Z " fill="#000000"/><text fill="#000000" font-family="sans-serif" font-size="12" lengthAdjust="spacing" textLength="53" x="57.5" y="294.4102">Company</text><line style="stroke:#A80036;stroke-width:1.5;" x1="29.5" x2="112.5" y1="305.5" y2="305.5"/><text fill="#000000" font-family="sans-serif" font-size="11" lengthAdjust="spacing" textLength="59" x="34.5" y="320.9189">-designation</text><line style="stroke:#A80036;stroke-width:1.5;" x1="29.5" x2="112.5" y1="327.3359" y2="327.3359"/><!--MD5=[55cb992be19579b505cea3c5691093cb]
class ClientStore--><rect codeLine="18" fill="#FEFECE" filter="url(#f1jgk98m3z2vas)" height="61.8359" id="ClientStore" style="stroke:#A80036;stroke-width:1.5;" width="128" x="7" y="462"/><ellipse cx="37.75" cy="478" fill="#ADD1B2" rx="11" ry="11" style="stroke:#A80036;stroke-width:1.0;"/><path d="M39.75,474.5 Q39.9531,474 40.1875,473.75 Q40.4219,473.5 40.6875,473.5 Q41.1563,473.5 41.4531,473.7813 Q41.75,474.0625 41.75,474.7188 L41.75,476.2813 Q41.75,476.9375 41.4688,477.2188 Q41.1875,477.5 40.75,477.5 Q40.3594,477.5 40.1094,477.3281 Q39.8594,477.1563 39.75,476.7031 Q39.7031,476.3906 39.5313,476.2188 Q39.2188,475.8906 38.6563,475.7031 Q38.0938,475.5 37.5313,475.5 Q36.8281,475.5 36.2344,475.7813 Q35.6563,476.0625 35.2031,476.6875 Q34.75,477.3125 34.75,478.1719 L34.75,479.0938 Q34.75,480.125 35.5938,480.8125 Q36.4375,481.5 37.9375,481.5 Q38.8281,481.5 39.4531,481.2969 Q39.8125,481.1875 40.2188,480.8281 Q40.4844,480.625 40.625,480.5625 Q40.7656,480.5 40.9375,480.5 Q41.2656,480.5 41.5,480.7656 Q41.75,481.0156 41.75,481.375 Q41.75,481.7188 41.4063,482.125 Q40.9063,482.7188 40.1094,483.0469 Q39.0625,483.5 37.7813,483.5 Q36.2813,483.5 35.0781,482.9063 Q34.1094,482.4375 33.4219,481.4219 Q32.75,480.4063 32.75,479.2031 L32.75,478.1094 Q32.75,476.8594 33.3438,475.7656 Q33.9531,474.6719 35,474.0938 Q36.0625,473.5 37.25,473.5 Q37.9688,473.5 38.5938,473.75 Q39.2188,474 39.75,474.5 Z " fill="#000000"/><text fill="#000000" font-family="sans-serif" font-size="12" lengthAdjust="spacing" textLength="61" x="55.25" y="482.9102">ClientStore</text><line style="stroke:#A80036;stroke-width:1.5;" x1="8" x2="134" y1="494" y2="494"/><line style="stroke:#A80036;stroke-width:1.5;" x1="8" x2="134" y1="502" y2="502"/><text fill="#000000" font-family="sans-serif" font-size="11" lengthAdjust="spacing" textLength="116" x="13" y="517.4189">+getClientByEmail(email)</text><!--MD5=[d9af5e34e5bc78cd5a2caff02363fedd]
class ClientMapper--><rect codeLine="21" fill="#FEFECE" filter="url(#f1jgk98m3z2vas)" height="61.8359" id="ClientMapper" style="stroke:#A80036;stroke-width:1.5;" width="105" x="148.5" y="273.5"/><ellipse cx="163.5" cy="289.5" fill="#ADD1B2" rx="11" ry="11" style="stroke:#A80036;stroke-width:1.0;"/><path d="M165.5,286 Q165.7031,285.5 165.9375,285.25 Q166.1719,285 166.4375,285 Q166.9063,285 167.2031,285.2813 Q167.5,285.5625 167.5,286.2188 L167.5,287.7813 Q167.5,288.4375 167.2188,288.7188 Q166.9375,289 166.5,289 Q166.1094,289 165.8594,288.8281 Q165.6094,288.6563 165.5,288.2031 Q165.4531,287.8906 165.2813,287.7188 Q164.9688,287.3906 164.4063,287.2031 Q163.8438,287 163.2813,287 Q162.5781,287 161.9844,287.2813 Q161.4063,287.5625 160.9531,288.1875 Q160.5,288.8125 160.5,289.6719 L160.5,290.5938 Q160.5,291.625 161.3438,292.3125 Q162.1875,293 163.6875,293 Q164.5781,293 165.2031,292.7969 Q165.5625,292.6875 165.9688,292.3281 Q166.2344,292.125 166.375,292.0625 Q166.5156,292 166.6875,292 Q167.0156,292 167.25,292.2656 Q167.5,292.5156 167.5,292.875 Q167.5,293.2188 167.1563,293.625 Q166.6563,294.2188 165.8594,294.5469 Q164.8125,295 163.5313,295 Q162.0313,295 160.8281,294.4063 Q159.8594,293.9375 159.1719,292.9219 Q158.5,291.9063 158.5,290.7031 L158.5,289.6094 Q158.5,288.3594 159.0938,287.2656 Q159.7031,286.1719 160.75,285.5938 Q161.8125,285 163,285 Q163.7188,285 164.3438,285.25 Q164.9688,285.5 165.5,286 Z " fill="#000000"/><text fill="#000000" font-family="sans-serif" font-size="12" lengthAdjust="spacing" textLength="73" x="177.5" y="294.4102">ClientMapper</text><line style="stroke:#A80036;stroke-width:1.5;" x1="149.5" x2="252.5" y1="305.5" y2="305.5"/><line style="stroke:#A80036;stroke-width:1.5;" x1="149.5" x2="252.5" y1="313.5" y2="313.5"/><text fill="#000000" font-family="sans-serif" font-size="11" lengthAdjust="spacing" textLength="69" x="154.5" y="328.9189">+toDTO(client)</text><!--MD5=[d92da6d3e9b1e9631354e1a6db35e891]
class ClientDTO--><rect codeLine="24" fill="#FEFECE" filter="url(#f1jgk98m3z2vas)" height="158.6875" id="ClientDTO" style="stroke:#A80036;stroke-width:1.5;" width="89" x="288.5" y="225"/><ellipse cx="303.5" cy="241" fill="#ADD1B2" rx="11" ry="11" style="stroke:#A80036;stroke-width:1.0;"/><path d="M305.5,237.5 Q305.7031,237 305.9375,236.75 Q306.1719,236.5 306.4375,236.5 Q306.9063,236.5 307.2031,236.7813 Q307.5,237.0625 307.5,237.7188 L307.5,239.2813 Q307.5,239.9375 307.2188,240.2188 Q306.9375,240.5 306.5,240.5 Q306.1094,240.5 305.8594,240.3281 Q305.6094,240.1563 305.5,239.7031 Q305.4531,239.3906 305.2813,239.2188 Q304.9688,238.8906 304.4063,238.7031 Q303.8438,238.5 303.2813,238.5 Q302.5781,238.5 301.9844,238.7813 Q301.4063,239.0625 300.9531,239.6875 Q300.5,240.3125 300.5,241.1719 L300.5,242.0938 Q300.5,243.125 301.3438,243.8125 Q302.1875,244.5 303.6875,244.5 Q304.5781,244.5 305.2031,244.2969 Q305.5625,244.1875 305.9688,243.8281 Q306.2344,243.625 306.375,243.5625 Q306.5156,243.5 306.6875,243.5 Q307.0156,243.5 307.25,243.7656 Q307.5,244.0156 307.5,244.375 Q307.5,244.7188 307.1563,245.125 Q306.6563,245.7188 305.8594,246.0469 Q304.8125,246.5 303.5313,246.5 Q302.0313,246.5 300.8281,245.9063 Q299.8594,245.4375 299.1719,244.4219 Q298.5,243.4063 298.5,242.2031 L298.5,241.1094 Q298.5,239.8594 299.0938,238.7656 Q299.7031,237.6719 300.75,237.0938 Q301.8125,236.5 303,236.5 Q303.7188,236.5 304.3438,236.75 Q304.9688,237 305.5,237.5 Z " fill="#000000"/><text fill="#000000" font-family="sans-serif" font-size="12" lengthAdjust="spacing" textLength="57" x="317.5" y="245.9102">ClientDTO</text><line style="stroke:#A80036;stroke-width:1.5;" x1="289.5" x2="376.5" y1="257" y2="257"/><text fill="#000000" font-family="sans-serif" font-size="11" lengthAdjust="spacing" textLength="30" x="294.5" y="272.4189">-name</text><text fill="#000000" font-family="sans-serif" font-size="11" lengthAdjust="spacing" textLength="63" x="294.5" y="286.2549">-cardNumber</text><text fill="#000000" font-family="sans-serif" font-size="11" lengthAdjust="spacing" textLength="30" x="294.5" y="300.0908">-nhsId</text><text fill="#000000" font-family="sans-serif" font-size="11" lengthAdjust="spacing" textLength="47" x="294.5" y="313.9268">-dateBirth</text><text fill="#000000" font-family="sans-serif" font-size="11" lengthAdjust="spacing" textLength="19" x="294.5" y="327.7627">-TIN</text><text fill="#000000" font-family="sans-serif" font-size="11" lengthAdjust="spacing" textLength="71" x="294.5" y="341.5986">-phoneNumber</text><text fill="#000000" font-family="sans-serif" font-size="11" lengthAdjust="spacing" textLength="28" x="294.5" y="355.4346">-email</text><text fill="#000000" font-family="sans-serif" font-size="11" lengthAdjust="spacing" textLength="22" x="294.5" y="369.2705">-sex</text><line style="stroke:#A80036;stroke-width:1.5;" x1="289.5" x2="376.5" y1="375.6875" y2="375.6875"/><!--MD5=[a07bde5ebeed6d61e8f80f6ad30d4fad]
link UpdateClientDataUI to UpdateClientDataController--><path codeLine="35" d="M244.38,55.22 C233.24,71.76 218.23,94.07 206.5,111.51 " fill="none" id="UpdateClientDataUI-to-UpdateClientDataController" style="stroke:#A80036;stroke-width:1.0;stroke-dasharray:7.0,7.0;"/><polygon fill="#A80036" points="203.59,115.83,211.9354,110.5999,206.3832,111.683,205.3001,106.1307,203.59,115.83" style="stroke:#A80036;stroke-width:1.0;"/><!--MD5=[aaaa78cfd9479e60fcdeb482b9a9c7de]
link UpdateClientDataUI to ClientDTO--><path codeLine="36" d="M272.37,55.3 C280.7,71.84 291.33,94.78 298,116 C308.47,149.28 316.25,186.93 321.78,219.71 " fill="none" id="UpdateClientDataUI-to-ClientDTO" style="stroke:#A80036;stroke-width:1.0;stroke-dasharray:7.0,7.0;"/><polygon fill="#A80036" points="322.65,224.93,325.1025,215.3914,321.8211,219.9992,317.2133,216.7177,322.65,224.93" style="stroke:#A80036;stroke-width:1.0;"/><!--MD5=[521fb7b950e8542efb912e876b992062]
link UpdateClientDataController to ClientMapper--><path codeLine="37" d="M189.86,164.28 C192.03,191.41 195.64,236.53 198.16,268.02 " fill="none" id="UpdateClientDataController-to-ClientMapper" style="stroke:#A80036;stroke-width:1.0;stroke-dasharray:7.0,7.0;"/><polygon fill="#A80036" points="198.59,273.35,201.8574,264.0589,198.1901,268.366,193.8831,264.6987,198.59,273.35" style="stroke:#A80036;stroke-width:1.0;"/><!--MD5=[af3939234646809cec66923e43961aa6]
link ClientMapper to ClientDTO--><path codeLine="38" d="M253.59,304.5 C263.45,304.5 273.32,304.5 283.18,304.5 " fill="none" id="ClientMapper-to-ClientDTO" style="stroke:#A80036;stroke-width:1.0;stroke-dasharray:7.0,7.0;"/><polygon fill="#A80036" points="288.33,304.5,279.33,300.5,283.33,304.5,279.33,308.5,288.33,304.5" style="stroke:#A80036;stroke-width:1.0;"/><!--MD5=[cf8c151e5875d79d17ae5fa254c6e19b]
link UpdateClientDataController to Company--><path codeLine="39" d="M171.24,164.28 C151.46,191.75 118.41,237.65 95.7,269.19 " fill="none" id="UpdateClientDataController-to-Company" style="stroke:#A80036;stroke-width:1.0;stroke-dasharray:7.0,7.0;"/><polygon fill="#A80036" points="92.71,273.35,101.2093,268.3739,95.627,269.2891,94.7119,263.7067,92.71,273.35" style="stroke:#A80036;stroke-width:1.0;"/><!--MD5=[a11230341c8e65219708844feaa40162]
link Company to ClientStore--><path codeLine="40" d="M71,335.88 C71,369.03 71,422.03 71,456.93 " fill="none" id="Company-to-ClientStore" style="stroke:#A80036;stroke-width:1.0;"/><polygon fill="#A80036" points="71,461.94,75,452.94,71,456.94,67,452.94,71,461.94" style="stroke:#A80036;stroke-width:1.0;"/><text fill="#000000" font-family="sans-serif" font-size="13" lengthAdjust="spacing" textLength="28" x="72" y="428.4951">uses</text><!--MD5=[1d934105a045dbf126514c6917bd5072]
link ClientStore to Client--><path codeLine="41" d="M71,524.38 C71,544.12 71,570.9 71,596.7 " fill="none" id="ClientStore-to-Client" style="stroke:#A80036;stroke-width:1.0;"/><polygon fill="#A80036" points="71,601.84,75,592.84,71,596.84,67,592.84,71,601.84" style="stroke:#A80036;stroke-width:1.0;"/><text fill="#000000" font-family="sans-serif" font-size="13" lengthAdjust="spacing" textLength="49" x="72" y="568.4951">contains</text><!--MD5=[d275db245f194a8800325eb34b652790]
@startuml
skinparam classAttributeIconSize 0

class Client {
- name
- cardNumber
- nhsId
- dateBirth
- TIN
- phoneNumber
- email
- sex
}
class UpdateClientDataUI
class UpdateClientDataController
class Company {
- designation
}
class ClientStore {
+ getClientByEmail(email)
}
class ClientMapper {
+ toDTO(client)
}
class ClientDTO {
- name
- cardNumber
- nhsId
- dateBirth
- TIN
- phoneNumber
- email
- sex
}

UpdateClientDataUI ..> UpdateClientDataController
UpdateClientDataUI ..> ClientDTO
UpdateClientDataController ..> ClientMapper
ClientMapper .right.> ClientDTO
UpdateClientDataController ..> Company
Company - -> ClientStore : uses
ClientStore - -> Client : contains
@enduml

PlantUML version 1.2021.2(Sun Mar 07 11:10:27 GMT 2021)
(GPL source distribution)
Java Runtime: OpenJDK Runtime Environment
JVM: OpenJDK 64-Bit Server VM
Default Encoding: Cp1252
Language: pt
Country: PT
--></g></svg>