<?xml version="1.0" encoding="UTF-8" standalone="no"?><svg xmlns="http://www.w3.org/2000/svg" xmlns:xlink="http://www.w3.org/1999/xlink" contentScriptType="application/ecmascript" contentStyleType="text/css" height="333px" preserveAspectRatio="none" style="width:277px;height:333px;" version="1.1" viewBox="0 0 277 333" width="277px" zoomAndPan="magnify"><defs><filter height="300%" id="f1u0b0jaujgv9i" width="300%" x="-1" y="-1"><feGaussianBlur result="blurOut" stdDeviation="2.0"/><feColorMatrix in="blurOut" result="blurOut2" type="matrix" values="0 0 0 0 0 0 0 0 0 0 0 0 0 0 0 0 0 0 .4 0"/><feOffset dx="4.0" dy="4.0" in="blurOut2" result="blurOut3"/><feBlend in="SourceGraphic" in2="blurOut3" mode="normal"/></filter></defs><g><!--MD5=[ed6624c6556d5e7b1bd23032162d20b7]
class Client--><rect codeLine="1" fill="#FEFECE" filter="url(#f1u0b0jaujgv9i)" height="172.5234" id="Client" style="stroke:#A80036;stroke-width:1.5;" width="93" x="7" y="147"/><ellipse cx="35.05" cy="163" fill="#ADD1B2" rx="11" ry="11" style="stroke:#A80036;stroke-width:1.0;"/><path d="M37.05,159.5 Q37.2531,159 37.4875,158.75 Q37.7219,158.5 37.9875,158.5 Q38.4563,158.5 38.7531,158.7813 Q39.05,159.0625 39.05,159.7188 L39.05,161.2813 Q39.05,161.9375 38.7688,162.2188 Q38.4875,162.5 38.05,162.5 Q37.6594,162.5 37.4094,162.3281 Q37.1594,162.1563 37.05,161.7031 Q37.0031,161.3906 36.8313,161.2188 Q36.5188,160.8906 35.9563,160.7031 Q35.3938,160.5 34.8313,160.5 Q34.1281,160.5 33.5344,160.7813 Q32.9563,161.0625 32.5031,161.6875 Q32.05,162.3125 32.05,163.1719 L32.05,164.0938 Q32.05,165.125 32.8938,165.8125 Q33.7375,166.5 35.2375,166.5 Q36.1281,166.5 36.7531,166.2969 Q37.1125,166.1875 37.5188,165.8281 Q37.7844,165.625 37.925,165.5625 Q38.0656,165.5 38.2375,165.5 Q38.5656,165.5 38.8,165.7656 Q39.05,166.0156 39.05,166.375 Q39.05,166.7188 38.7063,167.125 Q38.2063,167.7188 37.4094,168.0469 Q36.3625,168.5 35.0813,168.5 Q33.5813,168.5 32.3781,167.9063 Q31.4094,167.4375 30.7219,166.4219 Q30.05,165.4063 30.05,164.2031 L30.05,163.1094 Q30.05,161.8594 30.6437,160.7656 Q31.2531,159.6719 32.3,159.0938 Q33.3625,158.5 34.55,158.5 Q35.2688,158.5 35.8938,158.75 Q36.5188,159 37.05,159.5 Z " fill="#000000"/><text fill="#000000" font-family="sans-serif" font-size="12" lengthAdjust="spacing" textLength="32" x="51.95" y="167.9102">Client</text><line style="stroke:#A80036;stroke-width:1.5;" x1="8" x2="99" y1="179" y2="179"/><rect fill="none" height="6" style="stroke:#C82930;stroke-width:1.0;" width="6" x="15" y="187"/><text fill="#000000" font-family="sans-serif" font-size="11" lengthAdjust="spacing" textLength="26" x="27" y="194.4189">name</text><rect fill="none" height="6" style="stroke:#C82930;stroke-width:1.0;" width="6" x="15" y="200.8359"/><text fill="#000000" font-family="sans-serif" font-size="11" lengthAdjust="spacing" textLength="59" x="27" y="208.2549">cardNumber</text><rect fill="none" height="6" style="stroke:#C82930;stroke-width:1.0;" width="6" x="15" y="214.6719"/><text fill="#000000" font-family="sans-serif" font-size="11" lengthAdjust="spacing" textLength="43" x="27" y="222.0908">birthDate</text><rect fill="none" height="6" style="stroke:#C82930;stroke-width:1.0;" width="6" x="15" y="228.5078"/><text fill="#000000" font-family="sans-serif" font-size="11" lengthAdjust="spacing" textLength="18" x="27" y="235.9268">sex</text><rect fill="none" height="6" style="stroke:#C82930;stroke-width:1.0;" width="6" x="15" y="242.3438"/><text fill="#000000" font-family="sans-serif" font-size="11" lengthAdjust="spacing" textLength="27" x="27" y="249.7627">nhsID</text><rect fill="none" height="6" style="stroke:#C82930;stroke-width:1.0;" width="6" x="15" y="256.1797"/><text fill="#000000" font-family="sans-serif" font-size="11" lengthAdjust="spacing" textLength="14" x="27" y="263.5986">TIF</text><rect fill="none" height="6" style="stroke:#C82930;stroke-width:1.0;" width="6" x="15" y="270.0156"/><text fill="#000000" font-family="sans-serif" font-size="11" lengthAdjust="spacing" textLength="67" x="27" y="277.4346">phoneNumber</text><rect fill="none" height="6" style="stroke:#C82930;stroke-width:1.0;" width="6" x="15" y="283.8516"/><text fill="#000000" font-family="sans-serif" font-size="11" lengthAdjust="spacing" textLength="24" x="27" y="291.2705">email</text><rect fill="none" height="6" style="stroke:#C82930;stroke-width:1.0;" width="6" x="15" y="297.6875"/><text fill="#000000" font-family="sans-serif" font-size="11" lengthAdjust="spacing" textLength="50" x="27" y="305.1064">password</text><line style="stroke:#A80036;stroke-width:1.5;" x1="8" x2="99" y1="311.5234" y2="311.5234"/><!--MD5=[02e4b9b7573f1156f41e60aa5b4e25a4]
class Company--><rect codeLine="13" fill="#FEFECE" filter="url(#f1u0b0jaujgv9i)" height="61.8359" id="Company" style="stroke:#A80036;stroke-width:1.5;" width="85" x="11" y="7"/><ellipse cx="26" cy="23" fill="#ADD1B2" rx="11" ry="11" style="stroke:#A80036;stroke-width:1.0;"/><path d="M28,19.5 Q28.2031,19 28.4375,18.75 Q28.6719,18.5 28.9375,18.5 Q29.4063,18.5 29.7031,18.7813 Q30,19.0625 30,19.7188 L30,21.2813 Q30,21.9375 29.7188,22.2188 Q29.4375,22.5 29,22.5 Q28.6094,22.5 28.3594,22.3281 Q28.1094,22.1563 28,21.7031 Q27.9531,21.3906 27.7813,21.2188 Q27.4688,20.8906 26.9063,20.7031 Q26.3438,20.5 25.7813,20.5 Q25.0781,20.5 24.4844,20.7813 Q23.9063,21.0625 23.4531,21.6875 Q23,22.3125 23,23.1719 L23,24.0938 Q23,25.125 23.8438,25.8125 Q24.6875,26.5 26.1875,26.5 Q27.0781,26.5 27.7031,26.2969 Q28.0625,26.1875 28.4688,25.8281 Q28.7344,25.625 28.875,25.5625 Q29.0156,25.5 29.1875,25.5 Q29.5156,25.5 29.75,25.7656 Q30,26.0156 30,26.375 Q30,26.7188 29.6563,27.125 Q29.1563,27.7188 28.3594,28.0469 Q27.3125,28.5 26.0313,28.5 Q24.5313,28.5 23.3281,27.9063 Q22.3594,27.4375 21.6719,26.4219 Q21,25.4063 21,24.2031 L21,23.1094 Q21,21.8594 21.5938,20.7656 Q22.2031,19.6719 23.25,19.0938 Q24.3125,18.5 25.5,18.5 Q26.2188,18.5 26.8438,18.75 Q27.4688,19 28,19.5 Z " fill="#000000"/><text fill="#000000" font-family="sans-serif" font-size="12" lengthAdjust="spacing" textLength="53" x="40" y="27.9102">Company</text><line style="stroke:#A80036;stroke-width:1.5;" x1="12" x2="95" y1="39" y2="39"/><rect fill="none" height="6" style="stroke:#C82930;stroke-width:1.0;" width="6" x="19" y="47"/><text fill="#000000" font-family="sans-serif" font-size="11" lengthAdjust="spacing" textLength="55" x="31" y="54.4189">designation</text><line style="stroke:#A80036;stroke-width:1.5;" x1="12" x2="95" y1="60.8359" y2="60.8359"/><!--MD5=[3fd616f346a44cd59a91eb10b19e157c]
class User--><rect fill="#FEFECE" filter="url(#f1u0b0jaujgv9i)" height="48" id="User" style="stroke:#A80036;stroke-width:1.5;" width="59" x="204" y="209.5"/><ellipse cx="219" cy="225.5" fill="#ADD1B2" rx="11" ry="11" style="stroke:#A80036;stroke-width:1.0;"/><path d="M221,222 Q221.2031,221.5 221.4375,221.25 Q221.6719,221 221.9375,221 Q222.4063,221 222.7031,221.2813 Q223,221.5625 223,222.2188 L223,223.7813 Q223,224.4375 222.7188,224.7188 Q222.4375,225 222,225 Q221.6094,225 221.3594,224.8281 Q221.1094,224.6563 221,224.2031 Q220.9531,223.8906 220.7813,223.7188 Q220.4688,223.3906 219.9063,223.2031 Q219.3438,223 218.7813,223 Q218.0781,223 217.4844,223.2813 Q216.9063,223.5625 216.4531,224.1875 Q216,224.8125 216,225.6719 L216,226.5938 Q216,227.625 216.8438,228.3125 Q217.6875,229 219.1875,229 Q220.0781,229 220.7031,228.7969 Q221.0625,228.6875 221.4688,228.3281 Q221.7344,228.125 221.875,228.0625 Q222.0156,228 222.1875,228 Q222.5156,228 222.75,228.2656 Q223,228.5156 223,228.875 Q223,229.2188 222.6563,229.625 Q222.1563,230.2188 221.3594,230.5469 Q220.3125,231 219.0313,231 Q217.5313,231 216.3281,230.4063 Q215.3594,229.9375 214.6719,228.9219 Q214,227.9063 214,226.7031 L214,225.6094 Q214,224.3594 214.5938,223.2656 Q215.2031,222.1719 216.25,221.5938 Q217.3125,221 218.5,221 Q219.2188,221 219.8438,221.25 Q220.4688,221.5 221,222 Z " fill="#000000"/><text fill="#000000" font-family="sans-serif" font-size="12" lengthAdjust="spacing" textLength="27" x="233" y="230.4102">User</text><line style="stroke:#A80036;stroke-width:1.5;" x1="205" x2="262" y1="241.5" y2="241.5"/><line style="stroke:#A80036;stroke-width:1.5;" x1="205" x2="262" y1="249.5" y2="249.5"/><!--MD5=[6eee883fdf517d3604e8bd0f2058e9aa]
link Company to Client--><path codeLine="17" d="M53.5,69.23 C53.5,90.17 53.5,119.17 53.5,146.92 " fill="none" id="Company-Client" style="stroke:#A80036;stroke-width:1.0;"/><polygon fill="#000000" points="58.5,113.1758,61.4389,104.1307,55.5611,104.1307,58.5,113.1758" style="stroke:#000000;stroke-width:1.0;"/><text fill="#000000" font-family="sans-serif" font-size="13" lengthAdjust="spacing" textLength="21" x="67.5" y="113.4951">has</text><text fill="#000000" font-family="sans-serif" font-size="13" lengthAdjust="spacing" textLength="7" x="45.8328" y="90.2525">1</text><text fill="#000000" font-family="sans-serif" font-size="13" lengthAdjust="spacing" textLength="20" x="32.6094" y="136.0285">1..*</text><!--MD5=[9a8dc34b38f85b9f3fcdb440f4bffc6a]
link Client to User--><path codeLine="18" d="M100.32,233.5 C133.03,233.5 175.71,233.5 203.83,233.5 " fill="none" id="Client-User" style="stroke:#A80036;stroke-width:1.0;"/><polygon fill="#000000" points="127.5,221.6758,118.4549,218.7369,118.4549,224.6147,127.5,221.6758" style="stroke:#000000;stroke-width:1.0;"/><text fill="#000000" font-family="sans-serif" font-size="13" lengthAdjust="spacing" textLength="54" x="131.5" y="226.9951">relates to</text><text fill="#000000" font-family="sans-serif" font-size="13" lengthAdjust="spacing" textLength="7" x="108.0253" y="229.8335">1</text><text fill="#000000" font-family="sans-serif" font-size="13" lengthAdjust="spacing" textLength="7" x="189.1594" y="229.1858">1</text><!--MD5=[75004224f0d65dc3a8feee1836b6611b]
@startuml
class Client {
-name
-cardNumber
-birthDate
-sex
-nhsID
-TIF
-phoneNumber
-email
-password
}

class Company {
-designation
}

Company "1"- -"1..*" Client : has >
Client "1"-right-"1" User : relates to >
@enduml

PlantUML version 1.2021.2(Sun Mar 07 11:10:27 GMT 2021)
(GPL source distribution)
Java Runtime: OpenJDK Runtime Environment
JVM: OpenJDK 64-Bit Server VM
Default Encoding: Cp1252
Language: pt
Country: PT
--></g></svg>