<?xml version="1.0" encoding="UTF-8" standalone="no"?><svg xmlns="http://www.w3.org/2000/svg" xmlns:xlink="http://www.w3.org/1999/xlink" contentScriptType="application/ecmascript" contentStyleType="text/css" height="909px" preserveAspectRatio="none" style="width:1245px;height:909px;" version="1.1" viewBox="0 0 1245 909" width="1245px" zoomAndPan="magnify"><defs><filter height="300%" id="f1m6aw3sqng684" width="300%" x="-1" y="-1"><feGaussianBlur result="blurOut" stdDeviation="2.0"/><feColorMatrix in="blurOut" result="blurOut2" type="matrix" values="0 0 0 0 0 0 0 0 0 0 0 0 0 0 0 0 0 0 .4 0"/><feOffset dx="4.0" dy="4.0" in="blurOut2" result="blurOut3"/><feBlend in="SourceGraphic" in2="blurOut3" mode="normal"/></filter></defs><g><rect fill="#FFFFFF" filter="url(#f1m6aw3sqng684)" height="715.6797" style="stroke:#A80036;stroke-width:1.0;" width="10" x="36" y="99.6094"/><rect fill="#FFFFFF" filter="url(#f1m6aw3sqng684)" height="261.7578" style="stroke:#A80036;stroke-width:1.0;" width="10" x="329" y="121.9609"/><rect fill="#FFFFFF" filter="url(#f1m6aw3sqng684)" height="30.3516" style="stroke:#A80036;stroke-width:1.0;" width="10" x="329" y="439.4219"/><rect fill="#FFFFFF" filter="url(#f1m6aw3sqng684)" height="37.3516" style="stroke:#A80036;stroke-width:1.0;" width="10" x="329" y="500.125"/><rect fill="#FFFFFF" filter="url(#f1m6aw3sqng684)" height="238.4609" style="stroke:#A80036;stroke-width:1.0;" width="10" x="329" y="567.8281"/><rect fill="#FFFFFF" filter="url(#f1m6aw3sqng684)" height="201.0547" style="stroke:#A80036;stroke-width:1.0;" width="10" x="509" y="152.3125"/><rect fill="#FFFFFF" filter="url(#f1m6aw3sqng684)" height="30" style="stroke:#A80036;stroke-width:1.0;" width="10" x="657.5" y="182.6641"/><rect fill="#FFFFFF" filter="url(#f1m6aw3sqng684)" height="30" style="stroke:#A80036;stroke-width:1.0;" width="10" x="790" y="268.0156"/><rect fill="#FFFFFF" filter="url(#f1m6aw3sqng684)" height="109.4063" style="stroke:#000000;stroke-width:2.0;" width="406.5" x="10" y="398.7188"/><line style="stroke:#A80036;stroke-width:1.0;stroke-dasharray:5.0,5.0;" x1="41" x2="41" y1="89.6094" y2="824.2891"/><line style="stroke:#A80036;stroke-width:1.0;stroke-dasharray:5.0,5.0;" x1="333.5" x2="333.5" y1="89.6094" y2="824.2891"/><line style="stroke:#A80036;stroke-width:1.0;stroke-dasharray:5.0,5.0;" x1="513.5" x2="513.5" y1="89.6094" y2="824.2891"/><line style="stroke:#A80036;stroke-width:1.0;stroke-dasharray:5.0,5.0;" x1="662.5" x2="662.5" y1="89.6094" y2="824.2891"/><line style="stroke:#A80036;stroke-width:1.0;stroke-dasharray:5.0,5.0;" x1="794.5" x2="794.5" y1="89.6094" y2="824.2891"/><line style="stroke:#A80036;stroke-width:1.0;stroke-dasharray:5.0,5.0;" x1="981.5" x2="981.5" y1="89.6094" y2="824.2891"/><line style="stroke:#A80036;stroke-width:1.0;stroke-dasharray:5.0,5.0;" x1="1134.5" x2="1134.5" y1="89.6094" y2="824.2891"/><text fill="#000000" font-family="sans-serif" font-size="14" lengthAdjust="spacing" textLength="36" x="20" y="86.5332">Client</text><ellipse cx="41" cy="15" fill="#FEFECE" filter="url(#f1m6aw3sqng684)" rx="8" ry="8" style="stroke:#A80036;stroke-width:2.0;"/><path d="M41,23 L41,50 M28,31 L54,31 M41,50 L28,65 M41,50 L54,65 " fill="none" filter="url(#f1m6aw3sqng684)" style="stroke:#A80036;stroke-width:2.0;"/><text fill="#000000" font-family="sans-serif" font-size="14" lengthAdjust="spacing" textLength="36" x="20" y="837.8223">Client</text><ellipse cx="41" cy="850.8984" fill="#FEFECE" filter="url(#f1m6aw3sqng684)" rx="8" ry="8" style="stroke:#A80036;stroke-width:2.0;"/><path d="M41,858.8984 L41,885.8984 M28,866.8984 L54,866.8984 M41,885.8984 L28,900.8984 M41,885.8984 L54,900.8984 " fill="none" filter="url(#f1m6aw3sqng684)" style="stroke:#A80036;stroke-width:2.0;"/><rect fill="#FEFECE" filter="url(#f1m6aw3sqng684)" height="31.6094" style="stroke:#A80036;stroke-width:1.5;" width="141" x="261.5" y="53"/><text fill="#000000" font-family="sans-serif" font-size="14" lengthAdjust="spacing" textLength="127" x="268.5" y="74.5332">:UpdateClientDataUI</text><rect fill="#FEFECE" filter="url(#f1m6aw3sqng684)" height="31.6094" style="stroke:#A80036;stroke-width:1.5;" width="141" x="261.5" y="823.2891"/><text fill="#000000" font-family="sans-serif" font-size="14" lengthAdjust="spacing" textLength="127" x="268.5" y="844.8223">:UpdateClientDataUI</text><rect fill="#FEFECE" filter="url(#f1m6aw3sqng684)" height="31.6094" style="stroke:#A80036;stroke-width:1.5;" width="191" x="416.5" y="53"/><text fill="#000000" font-family="sans-serif" font-size="14" lengthAdjust="spacing" textLength="177" x="423.5" y="74.5332">:UpdateClientDataController</text><rect fill="#FEFECE" filter="url(#f1m6aw3sqng684)" height="31.6094" style="stroke:#A80036;stroke-width:1.5;" width="191" x="416.5" y="823.2891"/><text fill="#000000" font-family="sans-serif" font-size="14" lengthAdjust="spacing" textLength="177" x="423.5" y="844.8223">:UpdateClientDataController</text><rect fill="#FEFECE" filter="url(#f1m6aw3sqng684)" height="31.6094" style="stroke:#A80036;stroke-width:1.5;" width="78" x="621.5" y="53"/><text fill="#000000" font-family="sans-serif" font-size="14" lengthAdjust="spacing" textLength="64" x="628.5" y="74.5332">:Company</text><rect fill="#FEFECE" filter="url(#f1m6aw3sqng684)" height="31.6094" style="stroke:#A80036;stroke-width:1.5;" width="78" x="621.5" y="823.2891"/><text fill="#000000" font-family="sans-serif" font-size="14" lengthAdjust="spacing" textLength="64" x="628.5" y="844.8223">:Company</text><rect fill="#FEFECE" filter="url(#f1m6aw3sqng684)" height="31.6094" style="stroke:#A80036;stroke-width:1.5;" width="159" x="713.5" y="53"/><text fill="#000000" font-family="sans-serif" font-size="14" lengthAdjust="spacing" textLength="145" x="720.5" y="74.5332">clientStore: ClientStore</text><rect fill="#FEFECE" filter="url(#f1m6aw3sqng684)" height="31.6094" style="stroke:#A80036;stroke-width:1.5;" width="159" x="713.5" y="823.2891"/><text fill="#000000" font-family="sans-serif" font-size="14" lengthAdjust="spacing" textLength="145" x="720.5" y="844.8223">clientStore: ClientStore</text><rect fill="#FEFECE" filter="url(#f1m6aw3sqng684)" height="31.6094" style="stroke:#A80036;stroke-width:1.5;" width="187" x="886.5" y="53"/><text fill="#000000" font-family="sans-serif" font-size="14" lengthAdjust="spacing" textLength="173" x="893.5" y="74.5332">clientMapper: ClientMapper</text><rect fill="#FEFECE" filter="url(#f1m6aw3sqng684)" height="31.6094" style="stroke:#A80036;stroke-width:1.5;" width="187" x="886.5" y="823.2891"/><text fill="#000000" font-family="sans-serif" font-size="14" lengthAdjust="spacing" textLength="173" x="893.5" y="844.8223">clientMapper: ClientMapper</text><rect fill="#FEFECE" filter="url(#f1m6aw3sqng684)" height="31.6094" style="stroke:#A80036;stroke-width:1.5;" width="91" x="1087.5" y="53"/><text fill="#000000" font-family="sans-serif" font-size="14" lengthAdjust="spacing" textLength="77" x="1094.5" y="74.5332">client: Client</text><rect fill="#FEFECE" filter="url(#f1m6aw3sqng684)" height="31.6094" style="stroke:#A80036;stroke-width:1.5;" width="91" x="1087.5" y="823.2891"/><text fill="#000000" font-family="sans-serif" font-size="14" lengthAdjust="spacing" textLength="77" x="1094.5" y="844.8223">client: Client</text><rect fill="#FFFFFF" filter="url(#f1m6aw3sqng684)" height="715.6797" style="stroke:#A80036;stroke-width:1.0;" width="10" x="36" y="99.6094"/><rect fill="#FFFFFF" filter="url(#f1m6aw3sqng684)" height="261.7578" style="stroke:#A80036;stroke-width:1.0;" width="10" x="329" y="121.9609"/><rect fill="#FFFFFF" filter="url(#f1m6aw3sqng684)" height="30.3516" style="stroke:#A80036;stroke-width:1.0;" width="10" x="329" y="439.4219"/><rect fill="#FFFFFF" filter="url(#f1m6aw3sqng684)" height="37.3516" style="stroke:#A80036;stroke-width:1.0;" width="10" x="329" y="500.125"/><rect fill="#FFFFFF" filter="url(#f1m6aw3sqng684)" height="238.4609" style="stroke:#A80036;stroke-width:1.0;" width="10" x="329" y="567.8281"/><rect fill="#FFFFFF" filter="url(#f1m6aw3sqng684)" height="201.0547" style="stroke:#A80036;stroke-width:1.0;" width="10" x="509" y="152.3125"/><rect fill="#FFFFFF" filter="url(#f1m6aw3sqng684)" height="30" style="stroke:#A80036;stroke-width:1.0;" width="10" x="657.5" y="182.6641"/><rect fill="#FFFFFF" filter="url(#f1m6aw3sqng684)" height="30" style="stroke:#A80036;stroke-width:1.0;" width="10" x="790" y="268.0156"/><polygon fill="#A80036" points="317,117.9609,327,121.9609,317,125.9609,321,121.9609" style="stroke:#A80036;stroke-width:1.0;"/><line style="stroke:#A80036;stroke-width:1.0;" x1="46" x2="323" y1="121.9609" y2="121.9609"/><text fill="#000000" font-family="sans-serif" font-size="13" font-weight="bold" lengthAdjust="spacing" textLength="7" x="53" y="117.1045">1</text><text fill="#000000" font-family="sans-serif" font-size="13" lengthAdjust="spacing" textLength="158" x="64" y="117.1045">starts personal data update</text><polygon fill="#A80036" points="497,148.3125,507,152.3125,497,156.3125,501,152.3125" style="stroke:#A80036;stroke-width:1.0;"/><line style="stroke:#A80036;stroke-width:1.0;" x1="339" x2="503" y1="152.3125" y2="152.3125"/><text fill="#000000" font-family="sans-serif" font-size="13" font-weight="bold" lengthAdjust="spacing" textLength="7" x="346" y="147.4561">2</text><text fill="#000000" font-family="sans-serif" font-size="13" lengthAdjust="spacing" textLength="90" x="357" y="147.4561">getClient(email)</text><polygon fill="#A80036" points="645.5,178.6641,655.5,182.6641,645.5,186.6641,649.5,182.6641" style="stroke:#A80036;stroke-width:1.0;"/><line style="stroke:#A80036;stroke-width:1.0;" x1="519" x2="651.5" y1="182.6641" y2="182.6641"/><text fill="#000000" font-family="sans-serif" font-size="13" font-weight="bold" lengthAdjust="spacing" textLength="7" x="526" y="177.8076">3</text><text fill="#000000" font-family="sans-serif" font-size="13" lengthAdjust="spacing" textLength="90" x="537" y="177.8076">getClientStore()</text><polygon fill="#A80036" points="778,264.0156,788,268.0156,778,272.0156,782,268.0156" style="stroke:#A80036;stroke-width:1.0;"/><line style="stroke:#A80036;stroke-width:1.0;" x1="519" x2="784" y1="268.0156" y2="268.0156"/><text fill="#000000" font-family="sans-serif" font-size="13" font-weight="bold" lengthAdjust="spacing" textLength="7" x="526" y="263.1592">4</text><text fill="#000000" font-family="sans-serif" font-size="13" lengthAdjust="spacing" textLength="186" x="537" y="263.1592">client = getClientByEmail(email)</text><polygon fill="#A80036" points="970,349.3672,980,353.3672,970,357.3672,974,353.3672" style="stroke:#A80036;stroke-width:1.0;"/><line style="stroke:#A80036;stroke-width:1.0;" x1="514" x2="976" y1="353.3672" y2="353.3672"/><text fill="#000000" font-family="sans-serif" font-size="13" font-weight="bold" lengthAdjust="spacing" textLength="7" x="521" y="348.5107">5</text><text fill="#000000" font-family="sans-serif" font-size="13" lengthAdjust="spacing" textLength="76" x="532" y="348.5107">toDTO(client)</text><polygon fill="#A80036" points="57,379.7188,47,383.7188,57,387.7188,53,383.7188" style="stroke:#A80036;stroke-width:1.0;"/><line style="stroke:#A80036;stroke-width:1.0;stroke-dasharray:2.0,2.0;" x1="51" x2="333" y1="383.7188" y2="383.7188"/><text fill="#000000" font-family="sans-serif" font-size="13" font-weight="bold" lengthAdjust="spacing" textLength="7" x="63" y="378.8623">6</text><text fill="#000000" font-family="sans-serif" font-size="13" lengthAdjust="spacing" textLength="112" x="74" y="378.8623">displays client data</text><path d="M10,398.7188 L83,398.7188 L83,406.7188 L73,416.7188 L10,416.7188 L10,398.7188 " fill="#EEEEEE" style="stroke:#000000;stroke-width:1.0;"/><rect fill="none" height="109.4063" style="stroke:#000000;stroke-width:2.0;" width="406.5" x="10" y="398.7188"/><text fill="#000000" font-family="sans-serif" font-size="13" font-weight="bold" lengthAdjust="spacing" textLength="28" x="25" y="413.2139">loop</text><text fill="#000000" font-family="sans-serif" font-size="11" font-weight="bold" lengthAdjust="spacing" textLength="154" x="98" y="412.1377">[until client finishes editing]</text><polygon fill="#A80036" points="317,435.4219,327,439.4219,317,443.4219,321,439.4219" style="stroke:#A80036;stroke-width:1.0;"/><line style="stroke:#A80036;stroke-width:1.0;" x1="46" x2="323" y1="439.4219" y2="439.4219"/><text fill="#000000" font-family="sans-serif" font-size="13" font-weight="bold" lengthAdjust="spacing" textLength="7" x="53" y="434.5654">7</text><text fill="#000000" font-family="sans-serif" font-size="13" lengthAdjust="spacing" textLength="111" x="64" y="434.5654">selects data to edit</text><polygon fill="#A80036" points="57,465.7734,47,469.7734,57,473.7734,53,469.7734" style="stroke:#A80036;stroke-width:1.0;"/><line style="stroke:#A80036;stroke-width:1.0;stroke-dasharray:2.0,2.0;" x1="51" x2="333" y1="469.7734" y2="469.7734"/><text fill="#000000" font-family="sans-serif" font-size="13" font-weight="bold" lengthAdjust="spacing" textLength="7" x="63" y="464.917">8</text><text fill="#000000" font-family="sans-serif" font-size="13" lengthAdjust="spacing" textLength="106" x="74" y="464.917">requests new data</text><polygon fill="#A80036" points="317,496.125,327,500.125,317,504.125,321,500.125" style="stroke:#A80036;stroke-width:1.0;"/><line style="stroke:#A80036;stroke-width:1.0;" x1="46" x2="323" y1="500.125" y2="500.125"/><text fill="#000000" font-family="sans-serif" font-size="13" font-weight="bold" lengthAdjust="spacing" textLength="7" x="53" y="495.2686">9</text><text fill="#000000" font-family="sans-serif" font-size="13" lengthAdjust="spacing" textLength="122" x="64" y="495.2686">types requested data</text><polygon fill="#A80036" points="57,533.4766,47,537.4766,57,541.4766,53,537.4766" style="stroke:#A80036;stroke-width:1.0;"/><line style="stroke:#A80036;stroke-width:1.0;stroke-dasharray:2.0,2.0;" x1="51" x2="333" y1="537.4766" y2="537.4766"/><text fill="#000000" font-family="sans-serif" font-size="13" font-weight="bold" lengthAdjust="spacing" textLength="14" x="63" y="532.6201">10</text><text fill="#000000" font-family="sans-serif" font-size="13" lengthAdjust="spacing" textLength="241" x="81" y="532.6201">shows the data and requests confirmation</text><polygon fill="#A80036" points="317,563.8281,327,567.8281,317,571.8281,321,567.8281" style="stroke:#A80036;stroke-width:1.0;"/><line style="stroke:#A80036;stroke-width:1.0;" x1="46" x2="323" y1="567.8281" y2="567.8281"/><text fill="#000000" font-family="sans-serif" font-size="13" font-weight="bold" lengthAdjust="spacing" textLength="14" x="53" y="562.9717">11</text><text fill="#000000" font-family="sans-serif" font-size="13" lengthAdjust="spacing" textLength="100" x="71" y="562.9717">confirms the data</text><polygon fill="#A80036" points="970,594.1797,980,598.1797,970,602.1797,974,598.1797" style="stroke:#A80036;stroke-width:1.0;"/><line style="stroke:#A80036;stroke-width:1.0;" x1="339" x2="976" y1="598.1797" y2="598.1797"/><text fill="#000000" font-family="sans-serif" font-size="13" font-weight="bold" lengthAdjust="spacing" textLength="14" x="346" y="593.3232">12</text><text fill="#000000" font-family="sans-serif" font-size="13" lengthAdjust="spacing" textLength="246" x="364" y="593.3232">dto = toDTO(name, cardNumber, TIN, etc.)</text><polygon fill="#A80036" points="502,624.5313,512,628.5313,502,632.5313,506,628.5313" style="stroke:#A80036;stroke-width:1.0;"/><line style="stroke:#A80036;stroke-width:1.0;" x1="339" x2="508" y1="628.5313" y2="628.5313"/><text fill="#000000" font-family="sans-serif" font-size="13" font-weight="bold" lengthAdjust="spacing" textLength="14" x="346" y="623.6748">13</text><text fill="#000000" font-family="sans-serif" font-size="13" lengthAdjust="spacing" textLength="125" x="364" y="623.6748">updateClientData(dto)</text><polygon fill="#A80036" points="783,654.8828,793,658.8828,783,662.8828,787,658.8828" style="stroke:#A80036;stroke-width:1.0;"/><line style="stroke:#A80036;stroke-width:1.0;" x1="514" x2="789" y1="658.8828" y2="658.8828"/><text fill="#000000" font-family="sans-serif" font-size="13" font-weight="bold" lengthAdjust="spacing" textLength="14" x="521" y="654.0264">14</text><text fill="#000000" font-family="sans-serif" font-size="13" lengthAdjust="spacing" textLength="164" x="539" y="654.0264">updateClientData(client, dto)</text><polygon fill="#A80036" points="1123,685.2344,1133,689.2344,1123,693.2344,1127,689.2344" style="stroke:#A80036;stroke-width:1.0;"/><line style="stroke:#A80036;stroke-width:1.0;" x1="795" x2="1129" y1="689.2344" y2="689.2344"/><text fill="#000000" font-family="sans-serif" font-size="13" font-weight="bold" lengthAdjust="spacing" textLength="14" x="802" y="684.3779">15</text><text fill="#000000" font-family="sans-serif" font-size="13" lengthAdjust="spacing" textLength="125" x="820" y="684.3779">updateClientData(dto)</text><line style="stroke:#A80036;stroke-width:1.0;" x1="1135" x2="1177" y1="719.5859" y2="719.5859"/><line style="stroke:#A80036;stroke-width:1.0;" x1="1177" x2="1177" y1="719.5859" y2="732.5859"/><line style="stroke:#A80036;stroke-width:1.0;" x1="1136" x2="1177" y1="732.5859" y2="732.5859"/><polygon fill="#A80036" points="1146,728.5859,1136,732.5859,1146,736.5859,1142,732.5859" style="stroke:#A80036;stroke-width:1.0;"/><text fill="#000000" font-family="sans-serif" font-size="13" font-weight="bold" lengthAdjust="spacing" textLength="14" x="1142" y="714.7295">16</text><text fill="#000000" font-family="sans-serif" font-size="13" lengthAdjust="spacing" textLength="78" x="1160" y="714.7295">validateData()</text><line style="stroke:#A80036;stroke-width:1.0;" x1="1135" x2="1177" y1="762.9375" y2="762.9375"/><line style="stroke:#A80036;stroke-width:1.0;" x1="1177" x2="1177" y1="762.9375" y2="775.9375"/><line style="stroke:#A80036;stroke-width:1.0;" x1="1136" x2="1177" y1="775.9375" y2="775.9375"/><polygon fill="#A80036" points="1146,771.9375,1136,775.9375,1146,779.9375,1142,775.9375" style="stroke:#A80036;stroke-width:1.0;"/><text fill="#000000" font-family="sans-serif" font-size="13" font-weight="bold" lengthAdjust="spacing" textLength="14" x="1142" y="758.0811">17</text><text fill="#000000" font-family="sans-serif" font-size="13" lengthAdjust="spacing" textLength="53" x="1160" y="758.0811">setData()</text><polygon fill="#A80036" points="57,802.2891,47,806.2891,57,810.2891,53,806.2891" style="stroke:#A80036;stroke-width:1.0;"/><line style="stroke:#A80036;stroke-width:1.0;stroke-dasharray:2.0,2.0;" x1="51" x2="333" y1="806.2891" y2="806.2891"/><text fill="#000000" font-family="sans-serif" font-size="13" font-weight="bold" lengthAdjust="spacing" textLength="14" x="63" y="801.4326">18</text><text fill="#000000" font-family="sans-serif" font-size="13" lengthAdjust="spacing" textLength="152" x="81" y="801.4326">informs operation success</text><!--MD5=[b3033479c52a8acbf61f467e04707e2f]
@startuml
autonumber

actor Client as cli
participant ":UpdateClientDataUI" as ui
participant ":UpdateClientDataController" as controller
participant ":Company" as company
participant "clientStore: ClientStore" as cstore
participant "clientMapper: ClientMapper" as cmapper
participant "client: Client" as client

activate cli
cli -> ui : starts personal data update
activate ui
ui -> controller : getClient(email)
activate controller
controller -> company : getClientStore()
activate company
|||
deactivate company
controller -> cstore : client = getClientByEmail(email)
activate cstore
|||
deactivate cstore
controller -> cmapper : toDTO(client)
deactivate controller
ui - -> cli : displays client data
deactivate ui
loop until client finishes editing
cli -> ui :  selects data to edit
activate ui
ui - -> cli : requests new data
deactivate ui
cli -> ui :  types requested data
activate ui
end loop
activate ui
ui - -> cli : shows the data and requests confirmation
deactivate ui
cli -> ui :  confirms the data
activate ui
ui -> cmapper: dto = toDTO(name, cardNumber, TIN, etc.)
ui -> controller: updateClientData(dto)
controller -> cstore: updateClientData(client, dto)
cstore -> client : updateClientData(dto)
client -> client : validateData()
client -> client : setData()
ui - -> cli : informs operation success
deactivate ui
@enduml

PlantUML version 1.2021.2(Sun Mar 07 11:10:27 GMT 2021)
(GPL source distribution)
Java Runtime: OpenJDK Runtime Environment
JVM: OpenJDK 64-Bit Server VM
Default Encoding: Cp1252
Language: pt
Country: PT
--></g></svg>