<?xml version="1.0" encoding="UTF-8" standalone="no"?><svg xmlns="http://www.w3.org/2000/svg" xmlns:xlink="http://www.w3.org/1999/xlink" contentScriptType="application/ecmascript" contentStyleType="text/css" height="1608px" preserveAspectRatio="none" style="width:1565px;height:1608px;" version="1.1" viewBox="0 0 1565 1608" width="1565px" zoomAndPan="magnify"><defs><filter height="300%" id="f17w8wn7y78go2" width="300%" x="-1" y="-1"><feGaussianBlur result="blurOut" stdDeviation="2.0"/><feColorMatrix in="blurOut" result="blurOut2" type="matrix" values="0 0 0 0 0 0 0 0 0 0 0 0 0 0 0 0 0 0 .4 0"/><feOffset dx="4.0" dy="4.0" in="blurOut2" result="blurOut3"/><feBlend in="SourceGraphic" in2="blurOut3" mode="normal"/></filter></defs><g><line style="stroke:#A80036;stroke-width:1.0;stroke-dasharray:5.0,5.0;" x1="49" x2="49" y1="89.6094" y2="1523.0781"/><line style="stroke:#A80036;stroke-width:1.0;stroke-dasharray:5.0,5.0;" x1="372" x2="372" y1="89.6094" y2="1523.0781"/><line style="stroke:#A80036;stroke-width:1.0;stroke-dasharray:5.0,5.0;" x1="624" x2="624" y1="89.6094" y2="1523.0781"/><line style="stroke:#A80036;stroke-width:1.0;stroke-dasharray:5.0,5.0;" x1="814.5" x2="814.5" y1="89.6094" y2="1523.0781"/><line style="stroke:#A80036;stroke-width:1.0;stroke-dasharray:5.0,5.0;" x1="923.5" x2="923.5" y1="89.6094" y2="1523.0781"/><line style="stroke:#A80036;stroke-width:1.0;stroke-dasharray:5.0,5.0;" x1="1067.5" x2="1067.5" y1="89.6094" y2="1523.0781"/><line style="stroke:#A80036;stroke-width:1.0;stroke-dasharray:5.0,5.0;" x1="1316" x2="1316" y1="89.6094" y2="1523.0781"/><text fill="#000000" font-family="sans-serif" font-size="14" lengthAdjust="spacing" textLength="83" x="5" y="86.5332">Administrator</text><ellipse cx="49.5" cy="15" fill="#FEFECE" filter="url(#f17w8wn7y78go2)" rx="8" ry="8" style="stroke:#A80036;stroke-width:2.0;"/><path d="M49.5,23 L49.5,50 M36.5,31 L62.5,31 M49.5,50 L36.5,65 M49.5,50 L62.5,65 " fill="none" filter="url(#f17w8wn7y78go2)" style="stroke:#A80036;stroke-width:2.0;"/><text fill="#000000" font-family="sans-serif" font-size="14" lengthAdjust="spacing" textLength="83" x="5" y="1536.6113">Administrator</text><ellipse cx="49.5" cy="1549.6875" fill="#FEFECE" filter="url(#f17w8wn7y78go2)" rx="8" ry="8" style="stroke:#A80036;stroke-width:2.0;"/><path d="M49.5,1557.6875 L49.5,1584.6875 M36.5,1565.6875 L62.5,1565.6875 M49.5,1584.6875 L36.5,1599.6875 M49.5,1584.6875 L62.5,1599.6875 " fill="none" filter="url(#f17w8wn7y78go2)" style="stroke:#A80036;stroke-width:2.0;"/><rect fill="#FEFECE" filter="url(#f17w8wn7y78go2)" height="31.6094" style="stroke:#A80036;stroke-width:1.5;" width="133" x="304" y="53"/><text fill="#000000" font-family="sans-serif" font-size="14" lengthAdjust="spacing" textLength="119" x="311" y="74.5332">:CreateTestTypeUI</text><rect fill="#FEFECE" filter="url(#f17w8wn7y78go2)" height="31.6094" style="stroke:#A80036;stroke-width:1.5;" width="133" x="304" y="1522.0781"/><text fill="#000000" font-family="sans-serif" font-size="14" lengthAdjust="spacing" textLength="119" x="311" y="1543.6113">:CreateTestTypeUI</text><rect fill="#FEFECE" filter="url(#f17w8wn7y78go2)" height="31.6094" style="stroke:#A80036;stroke-width:1.5;" width="183" x="531" y="53"/><text fill="#000000" font-family="sans-serif" font-size="14" lengthAdjust="spacing" textLength="169" x="538" y="74.5332">:CreateTestTypeController</text><rect fill="#FEFECE" filter="url(#f17w8wn7y78go2)" height="31.6094" style="stroke:#A80036;stroke-width:1.5;" width="183" x="531" y="1522.0781"/><text fill="#000000" font-family="sans-serif" font-size="14" lengthAdjust="spacing" textLength="169" x="538" y="1543.6113">:CreateTestTypeController</text><rect fill="#FEFECE" filter="url(#f17w8wn7y78go2)" height="31.6094" style="stroke:#A80036;stroke-width:1.5;" width="78" x="773.5" y="53"/><text fill="#000000" font-family="sans-serif" font-size="14" lengthAdjust="spacing" textLength="64" x="780.5" y="74.5332">:Company</text><rect fill="#FEFECE" filter="url(#f17w8wn7y78go2)" height="31.6094" style="stroke:#A80036;stroke-width:1.5;" width="78" x="773.5" y="1522.0781"/><text fill="#000000" font-family="sans-serif" font-size="14" lengthAdjust="spacing" textLength="64" x="780.5" y="1543.6113">:Company</text><rect fill="#FEFECE" filter="url(#f17w8wn7y78go2)" height="31.6094" style="stroke:#A80036;stroke-width:1.5;" width="112" x="865.5" y="53"/><text fill="#000000" font-family="sans-serif" font-size="14" lengthAdjust="spacing" textLength="98" x="872.5" y="74.5332">:TestTypeStore</text><rect fill="#FEFECE" filter="url(#f17w8wn7y78go2)" height="31.6094" style="stroke:#A80036;stroke-width:1.5;" width="112" x="865.5" y="1522.0781"/><text fill="#000000" font-family="sans-serif" font-size="14" lengthAdjust="spacing" textLength="98" x="872.5" y="1543.6113">:TestTypeStore</text><rect fill="#FEFECE" filter="url(#f17w8wn7y78go2)" height="31.6094" style="stroke:#A80036;stroke-width:1.5;" width="78" x="1026.5" y="53"/><text fill="#000000" font-family="sans-serif" font-size="14" lengthAdjust="spacing" textLength="64" x="1033.5" y="74.5332">:TestType</text><rect fill="#FEFECE" filter="url(#f17w8wn7y78go2)" height="31.6094" style="stroke:#A80036;stroke-width:1.5;" width="78" x="1026.5" y="1522.0781"/><text fill="#000000" font-family="sans-serif" font-size="14" lengthAdjust="spacing" textLength="64" x="1033.5" y="1543.6113">:TestType</text><rect fill="#FEFECE" filter="url(#f17w8wn7y78go2)" height="31.6094" style="stroke:#A80036;stroke-width:1.5;" width="127" x="1251" y="53"/><text fill="#000000" font-family="sans-serif" font-size="14" lengthAdjust="spacing" textLength="113" x="1258" y="74.5332">:CollectionMethod</text><rect fill="#FEFECE" filter="url(#f17w8wn7y78go2)" height="31.6094" style="stroke:#A80036;stroke-width:1.5;" width="127" x="1251" y="1522.0781"/><text fill="#000000" font-family="sans-serif" font-size="14" lengthAdjust="spacing" textLength="113" x="1258" y="1543.6113">:CollectionMethod</text><polygon fill="#A80036" points="360.5,117.9609,370.5,121.9609,360.5,125.9609,364.5,121.9609" style="stroke:#A80036;stroke-width:1.0;"/><line style="stroke:#A80036;stroke-width:1.0;" x1="49.5" x2="366.5" y1="121.9609" y2="121.9609"/><text fill="#000000" font-family="sans-serif" font-size="13" font-weight="bold" lengthAdjust="spacing" textLength="7" x="56.5" y="117.1045">1</text><text fill="#000000" font-family="sans-serif" font-size="13" lengthAdjust="spacing" textLength="115" x="67.5" y="117.1045">starts new test type</text><polygon fill="#A80036" points="612.5,148.3125,622.5,152.3125,612.5,156.3125,616.5,152.3125" style="stroke:#A80036;stroke-width:1.0;"/><line style="stroke:#A80036;stroke-width:1.0;" x1="372.5" x2="618.5" y1="152.3125" y2="152.3125"/><text fill="#000000" font-family="sans-serif" font-size="13" font-weight="bold" lengthAdjust="spacing" textLength="7" x="379.5" y="147.4561">2</text><text fill="#000000" font-family="sans-serif" font-size="13" lengthAdjust="spacing" textLength="97" x="390.5" y="147.4561">createTestType()</text><polygon fill="#A80036" points="612.5,178.6641,622.5,182.6641,612.5,186.6641,616.5,182.6641" style="stroke:#A80036;stroke-width:1.0;"/><line style="stroke:#A80036;stroke-width:1.0;" x1="372.5" x2="618.5" y1="182.6641" y2="182.6641"/><text fill="#000000" font-family="sans-serif" font-size="13" font-weight="bold" lengthAdjust="spacing" textLength="7" x="379.5" y="177.8076">3</text><text fill="#000000" font-family="sans-serif" font-size="13" lengthAdjust="spacing" textLength="144" x="390.5" y="177.8076">createCollectionMethod()</text><polygon fill="#A80036" points="802.5,209.0156,812.5,213.0156,802.5,217.0156,806.5,213.0156" style="stroke:#A80036;stroke-width:1.0;"/><line style="stroke:#A80036;stroke-width:1.0;" x1="624.5" x2="808.5" y1="213.0156" y2="213.0156"/><text fill="#000000" font-family="sans-serif" font-size="13" font-weight="bold" lengthAdjust="spacing" textLength="7" x="631.5" y="208.1592">4</text><text fill="#000000" font-family="sans-serif" font-size="13" lengthAdjust="spacing" textLength="155" x="642.5" y="208.1592">store = getTestTypeStore()</text><polygon fill="#A80036" points="911.5,239.3672,921.5,243.3672,911.5,247.3672,915.5,243.3672" style="stroke:#A80036;stroke-width:1.0;"/><line style="stroke:#A80036;stroke-width:1.0;" x1="624.5" x2="917.5" y1="243.3672" y2="243.3672"/><text fill="#000000" font-family="sans-serif" font-size="13" font-weight="bold" lengthAdjust="spacing" textLength="7" x="631.5" y="238.5107">5</text><text fill="#000000" font-family="sans-serif" font-size="13" lengthAdjust="spacing" textLength="121" x="642.5" y="238.5107">tt = createTestType()</text><polygon fill="#A80036" points="911.5,269.7188,921.5,273.7188,911.5,277.7188,915.5,273.7188" style="stroke:#A80036;stroke-width:1.0;"/><line style="stroke:#A80036;stroke-width:1.0;" x1="624.5" x2="917.5" y1="273.7188" y2="273.7188"/><text fill="#000000" font-family="sans-serif" font-size="13" font-weight="bold" lengthAdjust="spacing" textLength="7" x="631.5" y="268.8623">6</text><text fill="#000000" font-family="sans-serif" font-size="13" lengthAdjust="spacing" textLength="178" x="642.5" y="268.8623">cm = createCollectionMethod()</text><polygon fill="#A80036" points="1055.5,300.0703,1065.5,304.0703,1055.5,308.0703,1059.5,304.0703" style="stroke:#A80036;stroke-width:1.0;"/><line style="stroke:#A80036;stroke-width:1.0;" x1="923.5" x2="1061.5" y1="304.0703" y2="304.0703"/><text fill="#000000" font-family="sans-serif" font-size="13" font-weight="bold" lengthAdjust="spacing" textLength="7" x="930.5" y="299.2139">7</text><text fill="#000000" font-family="sans-serif" font-size="13" lengthAdjust="spacing" textLength="97" x="941.5" y="299.2139">createTestType()</text><polygon fill="#A80036" points="1304.5,330.4219,1314.5,334.4219,1304.5,338.4219,1308.5,334.4219" style="stroke:#A80036;stroke-width:1.0;"/><line style="stroke:#A80036;stroke-width:1.0;" x1="923.5" x2="1310.5" y1="334.4219" y2="334.4219"/><text fill="#000000" font-family="sans-serif" font-size="13" font-weight="bold" lengthAdjust="spacing" textLength="7" x="930.5" y="329.5654">8</text><text fill="#000000" font-family="sans-serif" font-size="13" lengthAdjust="spacing" textLength="144" x="941.5" y="329.5654">createCollectionMethod()</text><polygon fill="#A80036" points="60.5,360.7734,50.5,364.7734,60.5,368.7734,56.5,364.7734" style="stroke:#A80036;stroke-width:1.0;"/><line style="stroke:#A80036;stroke-width:1.0;" x1="54.5" x2="371.5" y1="364.7734" y2="364.7734"/><text fill="#000000" font-family="sans-serif" font-size="13" font-weight="bold" lengthAdjust="spacing" textLength="7" x="66.5" y="359.917">9</text><text fill="#000000" font-family="sans-serif" font-size="13" lengthAdjust="spacing" textLength="104" x="77.5" y="359.917">requests the code</text><polygon fill="#A80036" points="360.5,391.125,370.5,395.125,360.5,399.125,364.5,395.125" style="stroke:#A80036;stroke-width:1.0;"/><line style="stroke:#A80036;stroke-width:1.0;" x1="49.5" x2="366.5" y1="395.125" y2="395.125"/><text fill="#000000" font-family="sans-serif" font-size="13" font-weight="bold" lengthAdjust="spacing" textLength="14" x="56.5" y="390.2686">10</text><text fill="#000000" font-family="sans-serif" font-size="13" lengthAdjust="spacing" textLength="86" x="74.5" y="390.2686">types the code</text><polygon fill="#A80036" points="60.5,421.4766,50.5,425.4766,60.5,429.4766,56.5,425.4766" style="stroke:#A80036;stroke-width:1.0;"/><line style="stroke:#A80036;stroke-width:1.0;" x1="54.5" x2="371.5" y1="425.4766" y2="425.4766"/><text fill="#000000" font-family="sans-serif" font-size="13" font-weight="bold" lengthAdjust="spacing" textLength="14" x="66.5" y="420.6201">11</text><text fill="#000000" font-family="sans-serif" font-size="13" lengthAdjust="spacing" textLength="124" x="84.5" y="420.6201">requests confirmation</text><polygon fill="#A80036" points="360.5,451.8281,370.5,455.8281,360.5,459.8281,364.5,455.8281" style="stroke:#A80036;stroke-width:1.0;"/><line style="stroke:#A80036;stroke-width:1.0;" x1="49.5" x2="366.5" y1="455.8281" y2="455.8281"/><text fill="#000000" font-family="sans-serif" font-size="13" font-weight="bold" lengthAdjust="spacing" textLength="14" x="56.5" y="450.9717">12</text><text fill="#000000" font-family="sans-serif" font-size="13" lengthAdjust="spacing" textLength="49" x="74.5" y="450.9717">confirms</text><polygon fill="#A80036" points="612.5,482.1797,622.5,486.1797,612.5,490.1797,616.5,486.1797" style="stroke:#A80036;stroke-width:1.0;"/><line style="stroke:#A80036;stroke-width:1.0;" x1="372.5" x2="618.5" y1="486.1797" y2="486.1797"/><text fill="#000000" font-family="sans-serif" font-size="13" font-weight="bold" lengthAdjust="spacing" textLength="14" x="379.5" y="481.3232">13</text><text fill="#000000" font-family="sans-serif" font-size="13" lengthAdjust="spacing" textLength="122" x="397.5" y="481.3232">setCode(String code)</text><polygon fill="#A80036" points="1055.5,512.5313,1065.5,516.5313,1055.5,520.5313,1059.5,516.5313" style="stroke:#A80036;stroke-width:1.0;"/><line style="stroke:#A80036;stroke-width:1.0;" x1="624.5" x2="1061.5" y1="516.5313" y2="516.5313"/><text fill="#000000" font-family="sans-serif" font-size="13" font-weight="bold" lengthAdjust="spacing" textLength="14" x="631.5" y="511.6748">14</text><text fill="#000000" font-family="sans-serif" font-size="13" lengthAdjust="spacing" textLength="122" x="649.5" y="511.6748">setCode(String code)</text><line style="stroke:#A80036;stroke-width:1.0;" x1="1067.5" x2="1109.5" y1="546.8828" y2="546.8828"/><line style="stroke:#A80036;stroke-width:1.0;" x1="1109.5" x2="1109.5" y1="546.8828" y2="559.8828"/><line style="stroke:#A80036;stroke-width:1.0;" x1="1068.5" x2="1109.5" y1="559.8828" y2="559.8828"/><polygon fill="#A80036" points="1078.5,555.8828,1068.5,559.8828,1078.5,563.8828,1074.5,559.8828" style="stroke:#A80036;stroke-width:1.0;"/><text fill="#000000" font-family="sans-serif" font-size="13" font-weight="bold" lengthAdjust="spacing" textLength="14" x="1074.5" y="542.0264">15</text><text fill="#000000" font-family="sans-serif" font-size="13" lengthAdjust="spacing" textLength="185" x="1092.5" y="542.0264">validateCode(String designation)</text><polygon fill="#A80036" points="60.5,586.2344,50.5,590.2344,60.5,594.2344,56.5,590.2344" style="stroke:#A80036;stroke-width:1.0;"/><line style="stroke:#A80036;stroke-width:1.0;" x1="54.5" x2="371.5" y1="590.2344" y2="590.2344"/><text fill="#000000" font-family="sans-serif" font-size="13" font-weight="bold" lengthAdjust="spacing" textLength="14" x="66.5" y="585.3779">16</text><text fill="#000000" font-family="sans-serif" font-size="13" lengthAdjust="spacing" textLength="139" x="84.5" y="585.3779">requests the description</text><polygon fill="#A80036" points="360.5,616.5859,370.5,620.5859,360.5,624.5859,364.5,620.5859" style="stroke:#A80036;stroke-width:1.0;"/><line style="stroke:#A80036;stroke-width:1.0;" x1="49.5" x2="366.5" y1="620.5859" y2="620.5859"/><text fill="#000000" font-family="sans-serif" font-size="13" font-weight="bold" lengthAdjust="spacing" textLength="14" x="56.5" y="615.7295">17</text><text fill="#000000" font-family="sans-serif" font-size="13" lengthAdjust="spacing" textLength="121" x="74.5" y="615.7295">types the description</text><polygon fill="#A80036" points="60.5,646.9375,50.5,650.9375,60.5,654.9375,56.5,650.9375" style="stroke:#A80036;stroke-width:1.0;"/><line style="stroke:#A80036;stroke-width:1.0;" x1="54.5" x2="371.5" y1="650.9375" y2="650.9375"/><text fill="#000000" font-family="sans-serif" font-size="13" font-weight="bold" lengthAdjust="spacing" textLength="14" x="66.5" y="646.0811">18</text><text fill="#000000" font-family="sans-serif" font-size="13" lengthAdjust="spacing" textLength="124" x="84.5" y="646.0811">requests confirmation</text><polygon fill="#A80036" points="360.5,677.2891,370.5,681.2891,360.5,685.2891,364.5,681.2891" style="stroke:#A80036;stroke-width:1.0;"/><line style="stroke:#A80036;stroke-width:1.0;" x1="49.5" x2="366.5" y1="681.2891" y2="681.2891"/><text fill="#000000" font-family="sans-serif" font-size="13" font-weight="bold" lengthAdjust="spacing" textLength="14" x="56.5" y="676.4326">19</text><text fill="#000000" font-family="sans-serif" font-size="13" lengthAdjust="spacing" textLength="49" x="74.5" y="676.4326">confirms</text><polygon fill="#A80036" points="612.5,707.6406,622.5,711.6406,612.5,715.6406,616.5,711.6406" style="stroke:#A80036;stroke-width:1.0;"/><line style="stroke:#A80036;stroke-width:1.0;" x1="372.5" x2="618.5" y1="711.6406" y2="711.6406"/><text fill="#000000" font-family="sans-serif" font-size="13" font-weight="bold" lengthAdjust="spacing" textLength="14" x="379.5" y="706.7842">20</text><text fill="#000000" font-family="sans-serif" font-size="13" lengthAdjust="spacing" textLength="210" x="397.5" y="706.7842">setTestTypeDescription(designation)</text><polygon fill="#A80036" points="1055.5,737.9922,1065.5,741.9922,1055.5,745.9922,1059.5,741.9922" style="stroke:#A80036;stroke-width:1.0;"/><line style="stroke:#A80036;stroke-width:1.0;" x1="624.5" x2="1061.5" y1="741.9922" y2="741.9922"/><text fill="#000000" font-family="sans-serif" font-size="13" font-weight="bold" lengthAdjust="spacing" textLength="14" x="631.5" y="737.1357">21</text><text fill="#000000" font-family="sans-serif" font-size="13" lengthAdjust="spacing" textLength="154" x="649.5" y="737.1357">setDescription(description)</text><line style="stroke:#A80036;stroke-width:1.0;" x1="1067.5" x2="1109.5" y1="772.3438" y2="772.3438"/><line style="stroke:#A80036;stroke-width:1.0;" x1="1109.5" x2="1109.5" y1="772.3438" y2="785.3438"/><line style="stroke:#A80036;stroke-width:1.0;" x1="1068.5" x2="1109.5" y1="785.3438" y2="785.3438"/><polygon fill="#A80036" points="1078.5,781.3438,1068.5,785.3438,1078.5,789.3438,1074.5,785.3438" style="stroke:#A80036;stroke-width:1.0;"/><text fill="#000000" font-family="sans-serif" font-size="13" font-weight="bold" lengthAdjust="spacing" textLength="14" x="1074.5" y="767.4873">22</text><text fill="#000000" font-family="sans-serif" font-size="13" lengthAdjust="spacing" textLength="217" x="1092.5" y="767.4873">validateDescription(String description)</text><polygon fill="#A80036" points="60.5,811.6953,50.5,815.6953,60.5,819.6953,56.5,815.6953" style="stroke:#A80036;stroke-width:1.0;"/><line style="stroke:#A80036;stroke-width:1.0;" x1="54.5" x2="371.5" y1="815.6953" y2="815.6953"/><text fill="#000000" font-family="sans-serif" font-size="13" font-weight="bold" lengthAdjust="spacing" textLength="14" x="66.5" y="810.8389">23</text><text fill="#000000" font-family="sans-serif" font-size="13" lengthAdjust="spacing" textLength="281" x="84.5" y="810.8389">requests the description of the collection method</text><polygon fill="#A80036" points="360.5,842.0469,370.5,846.0469,360.5,850.0469,364.5,846.0469" style="stroke:#A80036;stroke-width:1.0;"/><line style="stroke:#A80036;stroke-width:1.0;" x1="49.5" x2="366.5" y1="846.0469" y2="846.0469"/><text fill="#000000" font-family="sans-serif" font-size="13" font-weight="bold" lengthAdjust="spacing" textLength="14" x="56.5" y="841.1904">24</text><text fill="#000000" font-family="sans-serif" font-size="13" lengthAdjust="spacing" textLength="121" x="74.5" y="841.1904">types the description</text><polygon fill="#A80036" points="60.5,872.3984,50.5,876.3984,60.5,880.3984,56.5,876.3984" style="stroke:#A80036;stroke-width:1.0;"/><line style="stroke:#A80036;stroke-width:1.0;" x1="54.5" x2="371.5" y1="876.3984" y2="876.3984"/><text fill="#000000" font-family="sans-serif" font-size="13" font-weight="bold" lengthAdjust="spacing" textLength="14" x="66.5" y="871.542">25</text><text fill="#000000" font-family="sans-serif" font-size="13" lengthAdjust="spacing" textLength="124" x="84.5" y="871.542">requests confirmation</text><polygon fill="#A80036" points="360.5,902.75,370.5,906.75,360.5,910.75,364.5,906.75" style="stroke:#A80036;stroke-width:1.0;"/><line style="stroke:#A80036;stroke-width:1.0;" x1="49.5" x2="366.5" y1="906.75" y2="906.75"/><text fill="#000000" font-family="sans-serif" font-size="13" font-weight="bold" lengthAdjust="spacing" textLength="14" x="56.5" y="901.8936">26</text><text fill="#000000" font-family="sans-serif" font-size="13" lengthAdjust="spacing" textLength="49" x="74.5" y="901.8936">confirms</text><polygon fill="#A80036" points="612.5,933.1016,622.5,937.1016,612.5,941.1016,616.5,937.1016" style="stroke:#A80036;stroke-width:1.0;"/><line style="stroke:#A80036;stroke-width:1.0;" x1="372.5" x2="618.5" y1="937.1016" y2="937.1016"/><text fill="#000000" font-family="sans-serif" font-size="13" font-weight="bold" lengthAdjust="spacing" textLength="14" x="379.5" y="932.2451">27</text><text fill="#000000" font-family="sans-serif" font-size="13" lengthAdjust="spacing" textLength="154" x="397.5" y="932.2451">setDescription(description)</text><polygon fill="#A80036" points="1304.5,963.4531,1314.5,967.4531,1304.5,971.4531,1308.5,967.4531" style="stroke:#A80036;stroke-width:1.0;"/><line style="stroke:#A80036;stroke-width:1.0;" x1="624.5" x2="1310.5" y1="967.4531" y2="967.4531"/><text fill="#000000" font-family="sans-serif" font-size="13" font-weight="bold" lengthAdjust="spacing" textLength="14" x="631.5" y="962.5967">28</text><text fill="#000000" font-family="sans-serif" font-size="13" lengthAdjust="spacing" textLength="189" x="649.5" y="962.5967">setCollectionMethod(description)</text><line style="stroke:#A80036;stroke-width:1.0;" x1="1316.5" x2="1358.5" y1="997.8047" y2="997.8047"/><line style="stroke:#A80036;stroke-width:1.0;" x1="1358.5" x2="1358.5" y1="997.8047" y2="1010.8047"/><line style="stroke:#A80036;stroke-width:1.0;" x1="1317.5" x2="1358.5" y1="1010.8047" y2="1010.8047"/><polygon fill="#A80036" points="1327.5,1006.8047,1317.5,1010.8047,1327.5,1014.8047,1323.5,1010.8047" style="stroke:#A80036;stroke-width:1.0;"/><text fill="#000000" font-family="sans-serif" font-size="13" font-weight="bold" lengthAdjust="spacing" textLength="14" x="1323.5" y="992.9482">29</text><text fill="#000000" font-family="sans-serif" font-size="13" lengthAdjust="spacing" textLength="217" x="1341.5" y="992.9482">validateDescription(String description)</text><polygon fill="#A80036" points="1055.5,1037.1563,1065.5,1041.1563,1055.5,1045.1563,1059.5,1041.1563" style="stroke:#A80036;stroke-width:1.0;"/><line style="stroke:#A80036;stroke-width:1.0;" x1="624.5" x2="1061.5" y1="1041.1563" y2="1041.1563"/><text fill="#000000" font-family="sans-serif" font-size="13" font-weight="bold" lengthAdjust="spacing" textLength="14" x="631.5" y="1036.2998">30</text><text fill="#000000" font-family="sans-serif" font-size="13" lengthAdjust="spacing" textLength="211" x="649.5" y="1036.2998">setCollectionMethodToTestType(cm)</text><polygon fill="#A80036" points="635.5,1067.5078,625.5,1071.5078,635.5,1075.5078,631.5,1071.5078" style="stroke:#A80036;stroke-width:1.0;"/><line style="stroke:#A80036;stroke-width:1.0;" x1="629.5" x2="813.5" y1="1071.5078" y2="1071.5078"/><text fill="#000000" font-family="sans-serif" font-size="13" font-weight="bold" lengthAdjust="spacing" textLength="14" x="641.5" y="1066.6514">31</text><text fill="#000000" font-family="sans-serif" font-size="13" lengthAdjust="spacing" textLength="99" x="659.5" y="1066.6514">getCategoryList()</text><polygon fill="#A80036" points="383.5,1097.8594,373.5,1101.8594,383.5,1105.8594,379.5,1101.8594" style="stroke:#A80036;stroke-width:1.0;"/><line style="stroke:#A80036;stroke-width:1.0;" x1="377.5" x2="623.5" y1="1101.8594" y2="1101.8594"/><text fill="#000000" font-family="sans-serif" font-size="13" font-weight="bold" lengthAdjust="spacing" textLength="14" x="389.5" y="1097.0029">32</text><text fill="#000000" font-family="sans-serif" font-size="13" lengthAdjust="spacing" textLength="122" x="407.5" y="1097.0029">displayCategoryList()</text><polygon fill="#A80036" points="60.5,1128.2109,50.5,1132.2109,60.5,1136.2109,56.5,1132.2109" style="stroke:#A80036;stroke-width:1.0;"/><line style="stroke:#A80036;stroke-width:1.0;" x1="54.5" x2="371.5" y1="1132.2109" y2="1132.2109"/><text fill="#000000" font-family="sans-serif" font-size="13" font-weight="bold" lengthAdjust="spacing" textLength="14" x="66.5" y="1127.3545">33</text><text fill="#000000" font-family="sans-serif" font-size="13" lengthAdjust="spacing" textLength="202" x="84.5" y="1127.3545">shows and requests the categories</text><polygon fill="#A80036" points="360.5,1158.5625,370.5,1162.5625,360.5,1166.5625,364.5,1162.5625" style="stroke:#A80036;stroke-width:1.0;"/><line style="stroke:#A80036;stroke-width:1.0;" x1="49.5" x2="366.5" y1="1162.5625" y2="1162.5625"/><text fill="#000000" font-family="sans-serif" font-size="13" font-weight="bold" lengthAdjust="spacing" textLength="14" x="56.5" y="1157.7061">34</text><text fill="#000000" font-family="sans-serif" font-size="13" lengthAdjust="spacing" textLength="163" x="74.5" y="1157.7061">types the wanted categories</text><polygon fill="#A80036" points="60.5,1188.9141,50.5,1192.9141,60.5,1196.9141,56.5,1192.9141" style="stroke:#A80036;stroke-width:1.0;"/><line style="stroke:#A80036;stroke-width:1.0;" x1="54.5" x2="371.5" y1="1192.9141" y2="1192.9141"/><text fill="#000000" font-family="sans-serif" font-size="13" font-weight="bold" lengthAdjust="spacing" textLength="14" x="66.5" y="1188.0576">35</text><text fill="#000000" font-family="sans-serif" font-size="13" lengthAdjust="spacing" textLength="124" x="84.5" y="1188.0576">requests confirmation</text><polygon fill="#A80036" points="360.5,1219.2656,370.5,1223.2656,360.5,1227.2656,364.5,1223.2656" style="stroke:#A80036;stroke-width:1.0;"/><line style="stroke:#A80036;stroke-width:1.0;" x1="49.5" x2="366.5" y1="1223.2656" y2="1223.2656"/><text fill="#000000" font-family="sans-serif" font-size="13" font-weight="bold" lengthAdjust="spacing" textLength="14" x="56.5" y="1218.4092">36</text><text fill="#000000" font-family="sans-serif" font-size="13" lengthAdjust="spacing" textLength="49" x="74.5" y="1218.4092">confirms</text><polygon fill="#A80036" points="612.5,1249.6172,622.5,1253.6172,612.5,1257.6172,616.5,1253.6172" style="stroke:#A80036;stroke-width:1.0;"/><line style="stroke:#A80036;stroke-width:1.0;" x1="372.5" x2="618.5" y1="1253.6172" y2="1253.6172"/><text fill="#000000" font-family="sans-serif" font-size="13" font-weight="bold" lengthAdjust="spacing" textLength="14" x="379.5" y="1248.7607">37</text><text fill="#000000" font-family="sans-serif" font-size="13" lengthAdjust="spacing" textLength="88" x="397.5" y="1248.7607">setCategories()</text><polygon fill="#A80036" points="1055.5,1279.9688,1065.5,1283.9688,1055.5,1287.9688,1059.5,1283.9688" style="stroke:#A80036;stroke-width:1.0;"/><line style="stroke:#A80036;stroke-width:1.0;" x1="624.5" x2="1061.5" y1="1283.9688" y2="1283.9688"/><text fill="#000000" font-family="sans-serif" font-size="13" font-weight="bold" lengthAdjust="spacing" textLength="14" x="631.5" y="1279.1123">38</text><text fill="#000000" font-family="sans-serif" font-size="13" lengthAdjust="spacing" textLength="215" x="649.5" y="1279.1123">setCategoriesToTestType(categories)</text><line style="stroke:#A80036;stroke-width:1.0;" x1="1067.5" x2="1109.5" y1="1314.3203" y2="1314.3203"/><line style="stroke:#A80036;stroke-width:1.0;" x1="1109.5" x2="1109.5" y1="1314.3203" y2="1327.3203"/><line style="stroke:#A80036;stroke-width:1.0;" x1="1068.5" x2="1109.5" y1="1327.3203" y2="1327.3203"/><polygon fill="#A80036" points="1078.5,1323.3203,1068.5,1327.3203,1078.5,1331.3203,1074.5,1327.3203" style="stroke:#A80036;stroke-width:1.0;"/><text fill="#000000" font-family="sans-serif" font-size="13" font-weight="bold" lengthAdjust="spacing" textLength="14" x="1074.5" y="1309.4639">39</text><text fill="#000000" font-family="sans-serif" font-size="13" lengthAdjust="spacing" textLength="209" x="1092.5" y="1309.4639">validateCategory(Category category)</text><polygon fill="#A80036" points="612.5,1353.6719,622.5,1357.6719,612.5,1361.6719,616.5,1357.6719" style="stroke:#A80036;stroke-width:1.0;"/><line style="stroke:#A80036;stroke-width:1.0;" x1="372.5" x2="618.5" y1="1357.6719" y2="1357.6719"/><text fill="#000000" font-family="sans-serif" font-size="13" font-weight="bold" lengthAdjust="spacing" textLength="14" x="379.5" y="1352.8154">40</text><text fill="#000000" font-family="sans-serif" font-size="13" lengthAdjust="spacing" textLength="87" x="397.5" y="1352.8154">saveTestType()</text><polygon fill="#A80036" points="802.5,1384.0234,812.5,1388.0234,802.5,1392.0234,806.5,1388.0234" style="stroke:#A80036;stroke-width:1.0;"/><line style="stroke:#A80036;stroke-width:1.0;" x1="624.5" x2="808.5" y1="1388.0234" y2="1388.0234"/><text fill="#000000" font-family="sans-serif" font-size="13" font-weight="bold" lengthAdjust="spacing" textLength="14" x="631.5" y="1383.167">41</text><text fill="#000000" font-family="sans-serif" font-size="13" lengthAdjust="spacing" textLength="87" x="649.5" y="1383.167">saveTestType()</text><line style="stroke:#A80036;stroke-width:1.0;" x1="923.5" x2="965.5" y1="1418.375" y2="1418.375"/><line style="stroke:#A80036;stroke-width:1.0;" x1="965.5" x2="965.5" y1="1418.375" y2="1431.375"/><line style="stroke:#A80036;stroke-width:1.0;" x1="924.5" x2="965.5" y1="1431.375" y2="1431.375"/><polygon fill="#A80036" points="934.5,1427.375,924.5,1431.375,934.5,1435.375,930.5,1431.375" style="stroke:#A80036;stroke-width:1.0;"/><text fill="#000000" font-family="sans-serif" font-size="13" font-weight="bold" lengthAdjust="spacing" textLength="14" x="930.5" y="1413.5186">42</text><text fill="#000000" font-family="sans-serif" font-size="13" lengthAdjust="spacing" textLength="112" x="948.5" y="1413.5186">validateTestType(tt)</text><line style="stroke:#A80036;stroke-width:1.0;" x1="923.5" x2="965.5" y1="1461.7266" y2="1461.7266"/><line style="stroke:#A80036;stroke-width:1.0;" x1="965.5" x2="965.5" y1="1461.7266" y2="1474.7266"/><line style="stroke:#A80036;stroke-width:1.0;" x1="924.5" x2="965.5" y1="1474.7266" y2="1474.7266"/><polygon fill="#A80036" points="934.5,1470.7266,924.5,1474.7266,934.5,1478.7266,930.5,1474.7266" style="stroke:#A80036;stroke-width:1.0;"/><text fill="#000000" font-family="sans-serif" font-size="13" font-weight="bold" lengthAdjust="spacing" textLength="14" x="930.5" y="1456.8701">43</text><text fill="#000000" font-family="sans-serif" font-size="13" lengthAdjust="spacing" textLength="90" x="948.5" y="1456.8701">addTestType(tt)</text><polygon fill="#A80036" points="60.5,1501.0781,50.5,1505.0781,60.5,1509.0781,56.5,1505.0781" style="stroke:#A80036;stroke-width:1.0;"/><line style="stroke:#A80036;stroke-width:1.0;" x1="54.5" x2="371.5" y1="1505.0781" y2="1505.0781"/><text fill="#000000" font-family="sans-serif" font-size="13" font-weight="bold" lengthAdjust="spacing" textLength="14" x="66.5" y="1500.2217">44</text><text fill="#000000" font-family="sans-serif" font-size="13" lengthAdjust="spacing" textLength="152" x="84.5" y="1500.2217">informs operation success</text><!--MD5=[c217d69f6c1ee301fc81d8de1ba83757]
@startuml


autonumber

actor Administrator

Administrator -> ":CreateTestTypeUI": starts new test type
":CreateTestTypeUI" -> ":CreateTestTypeController": createTestType()
":CreateTestTypeUI" -> ":CreateTestTypeController": createCollectionMethod()
":CreateTestTypeController" -> ":Company": store = getTestTypeStore()
":CreateTestTypeController" -> ":TestTypeStore": tt = createTestType()
":CreateTestTypeController" -> ":TestTypeStore": cm = createCollectionMethod()
":TestTypeStore" -> ":TestType": createTestType()
":TestTypeStore" -> ":CollectionMethod": createCollectionMethod()

":CreateTestTypeUI" -> Administrator: requests the code
Administrator -> ":CreateTestTypeUI": types the code
":CreateTestTypeUI" -> Administrator: requests confirmation
Administrator -> ":CreateTestTypeUI": confirms

":CreateTestTypeUI" -> ":CreateTestTypeController": setCode(String code)
":CreateTestTypeController" -> ":TestType": setCode(String code)
":TestType" -> ":TestType": validateCode(String designation)

":CreateTestTypeUI" -> Administrator: requests the description
Administrator -> ":CreateTestTypeUI": types the description
":CreateTestTypeUI" -> Administrator: requests confirmation
Administrator -> ":CreateTestTypeUI": confirms

":CreateTestTypeUI" -> ":CreateTestTypeController": setTestTypeDescription(designation)
":CreateTestTypeController" -> ":TestType": setDescription(description)
":TestType" -> ":TestType": validateDescription(String description)

":CreateTestTypeUI" -> Administrator: requests the description of the collection method
Administrator -> ":CreateTestTypeUI": types the description
":CreateTestTypeUI" -> Administrator: requests confirmation
Administrator -> ":CreateTestTypeUI": confirms

":CreateTestTypeUI" -> ":CreateTestTypeController": setDescription(description)

":CreateTestTypeController" -> ":CollectionMethod": setCollectionMethod(description)
":CollectionMethod" -> ":CollectionMethod": validateDescription(String description)
":CreateTestTypeController" -> ":TestType": setCollectionMethodToTestType(cm)

":Company" -> ":CreateTestTypeController": getCategoryList()
":CreateTestTypeController" -> ":CreateTestTypeUI": displayCategoryList()

":CreateTestTypeUI" -> Administrator: shows and requests the categories
Administrator -> ":CreateTestTypeUI": types the wanted categories
":CreateTestTypeUI" -> Administrator: requests confirmation
Administrator -> ":CreateTestTypeUI": confirms

":CreateTestTypeUI" -> ":CreateTestTypeController": setCategories()
":CreateTestTypeController" -> ":TestType": setCategoriesToTestType(categories)
":TestType" -> ":TestType": validateCategory(Category category)
":CreateTestTypeUI" -> ":CreateTestTypeController": saveTestType()
":CreateTestTypeController" -> ":Company": saveTestType()
":TestTypeStore" -> ":TestTypeStore": validateTestType(tt)
":TestTypeStore" -> ":TestTypeStore": addTestType(tt)

":CreateTestTypeUI" -> Administrator: informs operation success



@enduml

PlantUML version 1.2021.5(Sun Apr 25 12:20:28 BST 2021)
(GPL source distribution)
Java Runtime: OpenJDK Runtime Environment
JVM: Dynamic Code Evolution 64-Bit Server VM
Default Encoding: Cp1252
Language: pt
Country: PT
--></g></svg>