<?xml version="1.0" encoding="UTF-8" standalone="no"?><svg xmlns="http://www.w3.org/2000/svg" xmlns:xlink="http://www.w3.org/1999/xlink" contentScriptType="application/ecmascript" contentStyleType="text/css" height="816.8px" preserveAspectRatio="none" style="width:628px;height:816px;" version="1.1" viewBox="0 0 628 816" width="628.4px" zoomAndPan="magnify"><defs><filter height="300%" id="fdt1drw5rwpj3" width="300%" x="-1" y="-1"><feGaussianBlur result="blurOut" stdDeviation="0.8"/><feColorMatrix in="blurOut" result="blurOut2" type="matrix" values="0 0 0 0 0 0 0 0 0 0 0 0 0 0 0 0 0 0 .4 0"/><feOffset dx="1.6" dy="1.6" in="blurOut2" result="blurOut3"/><feBlend in="SourceGraphic" in2="blurOut3" mode="normal"/></filter></defs><g><!--MD5=[da547346deef918ea16944ba046651ef]
class Administrator--><rect codeLine="3" fill="#FEFECE" filter="url(#fdt1drw5rwpj3)" height="19.2" id="Administrator" style="stroke:#A80036;stroke-width:0.6000000000000001;" width="42" x="99.3793" y="716.8"/><ellipse cx="105.3793" cy="723.2" fill="#ADD1B2" rx="4.4" ry="4.4" style="stroke:#A80036;stroke-width:0.4;"/><path d="M106.1793,721.8 Q106.2605,721.6 106.3543,721.5 Q106.448,721.4 106.5543,721.4 Q106.7418,721.4 106.8605,721.5125 Q106.9793,721.625 106.9793,721.8875 L106.9793,722.5125 Q106.9793,722.775 106.8668,722.8875 Q106.7543,723 106.5793,723 Q106.423,723 106.323,722.9313 Q106.223,722.8625 106.1793,722.6813 Q106.1605,722.5563 106.0918,722.4875 Q105.9668,722.3563 105.7418,722.2813 Q105.5168,722.2 105.2918,722.2 Q105.0105,722.2 104.773,722.3125 Q104.5418,722.425 104.3605,722.675 Q104.1793,722.925 104.1793,723.2688 L104.1793,723.6375 Q104.1793,724.05 104.5168,724.325 Q104.8543,724.6 105.4543,724.6 Q105.8105,724.6 106.0605,724.5188 Q106.2043,724.475 106.3668,724.3313 Q106.473,724.25 106.5293,724.225 Q106.5855,724.2 106.6543,724.2 Q106.7855,724.2 106.8793,724.3063 Q106.9793,724.4063 106.9793,724.55 Q106.9793,724.6875 106.8418,724.85 Q106.6418,725.0875 106.323,725.2188 Q105.9043,725.4 105.3918,725.4 Q104.7918,725.4 104.3105,725.1625 Q103.923,724.975 103.648,724.5688 Q103.3793,724.1625 103.3793,723.6813 L103.3793,723.2438 Q103.3793,722.7438 103.6168,722.3063 Q103.8605,721.8688 104.2793,721.6375 Q104.7043,721.4 105.1793,721.4 Q105.4668,721.4 105.7168,721.5 Q105.9668,721.6 106.1793,721.8 Z " fill="#000000"/><text fill="#000000" font-family="sans-serif" font-size="4.8" lengthAdjust="spacing" textLength="29.2" x="110.9793" y="725.1641">Administrator</text><line style="stroke:#A80036;stroke-width:0.6000000000000001;" x1="99.7793" x2="140.9793" y1="729.6" y2="729.6"/><line style="stroke:#A80036;stroke-width:0.6000000000000001;" x1="99.7793" x2="140.9793" y1="732.8" y2="732.8"/><!--MD5=[a96594a83e2ecdc78cbf17c2ddf01934]
class Category--><rect codeLine="4" fill="#FEFECE" filter="url(#fdt1drw5rwpj3)" height="35.8031" id="Category" style="stroke:#A80036;stroke-width:0.6000000000000001;" width="32.4" x="104.1793" y="775.6"/><ellipse cx="110.1793" cy="782" fill="#ADD1B2" rx="4.4" ry="4.4" style="stroke:#A80036;stroke-width:0.4;"/><path d="M110.9793,780.6 Q111.0605,780.4 111.1543,780.3 Q111.248,780.2 111.3543,780.2 Q111.5418,780.2 111.6605,780.3125 Q111.7793,780.425 111.7793,780.6875 L111.7793,781.3125 Q111.7793,781.575 111.6668,781.6875 Q111.5543,781.8 111.3793,781.8 Q111.223,781.8 111.123,781.7313 Q111.023,781.6625 110.9793,781.4813 Q110.9605,781.3563 110.8918,781.2875 Q110.7668,781.1563 110.5418,781.0813 Q110.3168,781 110.0918,781 Q109.8105,781 109.573,781.1125 Q109.3418,781.225 109.1605,781.475 Q108.9793,781.725 108.9793,782.0688 L108.9793,782.4375 Q108.9793,782.85 109.3168,783.125 Q109.6543,783.4 110.2543,783.4 Q110.6105,783.4 110.8605,783.3188 Q111.0043,783.275 111.1668,783.1313 Q111.273,783.05 111.3293,783.025 Q111.3855,783 111.4543,783 Q111.5855,783 111.6793,783.1063 Q111.7793,783.2063 111.7793,783.35 Q111.7793,783.4875 111.6418,783.65 Q111.4418,783.8875 111.123,784.0188 Q110.7043,784.2 110.1918,784.2 Q109.5918,784.2 109.1105,783.9625 Q108.723,783.775 108.448,783.3688 Q108.1793,782.9625 108.1793,782.4813 L108.1793,782.0438 Q108.1793,781.5438 108.4168,781.1063 Q108.6605,780.6688 109.0793,780.4375 Q109.5043,780.2 109.9793,780.2 Q110.2668,780.2 110.5168,780.3 Q110.7668,780.4 110.9793,780.6 Z " fill="#000000"/><text fill="#000000" font-family="sans-serif" font-size="4.8" lengthAdjust="spacing" textLength="19.6" x="115.7793" y="783.9641">Category</text><line style="stroke:#A80036;stroke-width:0.6000000000000001;" x1="104.5793" x2="136.1793" y1="788.4" y2="788.4"/><text fill="#000000" font-family="sans-serif" font-size="4.4" lengthAdjust="spacing" textLength="11.2" x="106.5793" y="794.5676">-code</text><text fill="#000000" font-family="sans-serif" font-size="4.4" lengthAdjust="spacing" textLength="22.8" x="106.5793" y="800.102">-description</text><text fill="#000000" font-family="sans-serif" font-size="4.4" lengthAdjust="spacing" textLength="12.4" x="106.5793" y="805.6363">-nhsID</text><line style="stroke:#A80036;stroke-width:0.6000000000000001;" x1="104.5793" x2="136.1793" y1="808.2031" y2="808.2031"/><!--MD5=[a64badb107d3691f2dc6af242cdbeb21]
class ChemicalLaboratory--><rect codeLine="9" fill="#FEFECE" filter="url(#fdt1drw5rwpj3)" height="41.3375" id="ChemicalLaboratory" style="stroke:#A80036;stroke-width:0.6000000000000001;" width="57.2" x="345.7793" y="179.2"/><ellipse cx="351.7793" cy="185.6" fill="#ADD1B2" rx="4.4" ry="4.4" style="stroke:#A80036;stroke-width:0.4;"/><path d="M352.5793,184.2 Q352.6605,184 352.7543,183.9 Q352.848,183.8 352.9543,183.8 Q353.1418,183.8 353.2605,183.9125 Q353.3793,184.025 353.3793,184.2875 L353.3793,184.9125 Q353.3793,185.175 353.2668,185.2875 Q353.1543,185.4 352.9793,185.4 Q352.823,185.4 352.723,185.3313 Q352.623,185.2625 352.5793,185.0813 Q352.5605,184.9563 352.4918,184.8875 Q352.3668,184.7563 352.1418,184.6813 Q351.9168,184.6 351.6918,184.6 Q351.4105,184.6 351.173,184.7125 Q350.9418,184.825 350.7605,185.075 Q350.5793,185.325 350.5793,185.6688 L350.5793,186.0375 Q350.5793,186.45 350.9168,186.725 Q351.2543,187 351.8543,187 Q352.2105,187 352.4605,186.9188 Q352.6043,186.875 352.7668,186.7313 Q352.873,186.65 352.9293,186.625 Q352.9855,186.6 353.0543,186.6 Q353.1855,186.6 353.2793,186.7063 Q353.3793,186.8063 353.3793,186.95 Q353.3793,187.0875 353.2418,187.25 Q353.0418,187.4875 352.723,187.6188 Q352.3043,187.8 351.7918,187.8 Q351.1918,187.8 350.7105,187.5625 Q350.323,187.375 350.048,186.9688 Q349.7793,186.5625 349.7793,186.0813 L349.7793,185.6438 Q349.7793,185.1438 350.0168,184.7063 Q350.2605,184.2688 350.6793,184.0375 Q351.1043,183.8 351.5793,183.8 Q351.8668,183.8 352.1168,183.9 Q352.3668,184 352.5793,184.2 Z " fill="#000000"/><text fill="#000000" font-family="sans-serif" font-size="4.8" lengthAdjust="spacing" textLength="44.4" x="357.3793" y="187.5641">ChemicalLaboratory</text><line style="stroke:#A80036;stroke-width:0.6000000000000001;" x1="346.1793" x2="402.5793" y1="192" y2="192"/><text fill="#000000" font-family="sans-serif" font-size="4.4" lengthAdjust="spacing" textLength="12" x="348.1793" y="198.1676">-name</text><text fill="#000000" font-family="sans-serif" font-size="4.4" lengthAdjust="spacing" textLength="17.6" x="348.1793" y="203.702">-address</text><text fill="#000000" font-family="sans-serif" font-size="4.4" lengthAdjust="spacing" textLength="28.4" x="348.1793" y="209.2363">-phoneNumber</text><text fill="#000000" font-family="sans-serif" font-size="4.4" lengthAdjust="spacing" textLength="7.6" x="348.1793" y="214.7707">-TIN</text><line style="stroke:#A80036;stroke-width:0.6000000000000001;" x1="346.1793" x2="402.5793" y1="217.3375" y2="217.3375"/><!--MD5=[ec908970c524777c08fd0d8397a1f7bf]
class CollectionMethod--><rect codeLine="15" fill="#FEFECE" filter="url(#fdt1drw5rwpj3)" height="24.7344" id="CollectionMethod" style="stroke:#A80036;stroke-width:0.6000000000000001;" width="50.8" x="407.3793" y="446.4"/><ellipse cx="413.3793" cy="452.8" fill="#ADD1B2" rx="4.4" ry="4.4" style="stroke:#A80036;stroke-width:0.4;"/><path d="M414.1793,451.4 Q414.2605,451.2 414.3543,451.1 Q414.448,451 414.5543,451 Q414.7418,451 414.8605,451.1125 Q414.9793,451.225 414.9793,451.4875 L414.9793,452.1125 Q414.9793,452.375 414.8668,452.4875 Q414.7543,452.6 414.5793,452.6 Q414.423,452.6 414.323,452.5313 Q414.223,452.4625 414.1793,452.2813 Q414.1605,452.1563 414.0918,452.0875 Q413.9668,451.9563 413.7418,451.8813 Q413.5168,451.8 413.2918,451.8 Q413.0105,451.8 412.773,451.9125 Q412.5418,452.025 412.3605,452.275 Q412.1793,452.525 412.1793,452.8688 L412.1793,453.2375 Q412.1793,453.65 412.5168,453.925 Q412.8543,454.2 413.4543,454.2 Q413.8105,454.2 414.0605,454.1188 Q414.2043,454.075 414.3668,453.9313 Q414.473,453.85 414.5293,453.825 Q414.5855,453.8 414.6543,453.8 Q414.7855,453.8 414.8793,453.9063 Q414.9793,454.0063 414.9793,454.15 Q414.9793,454.2875 414.8418,454.45 Q414.6418,454.6875 414.323,454.8188 Q413.9043,455 413.3918,455 Q412.7918,455 412.3105,454.7625 Q411.923,454.575 411.648,454.1688 Q411.3793,453.7625 411.3793,453.2813 L411.3793,452.8438 Q411.3793,452.3438 411.6168,451.9063 Q411.8605,451.4688 412.2793,451.2375 Q412.7043,451 413.1793,451 Q413.4668,451 413.7168,451.1 Q413.9668,451.2 414.1793,451.4 Z " fill="#000000"/><text fill="#000000" font-family="sans-serif" font-size="4.8" lengthAdjust="spacing" textLength="38" x="418.9793" y="454.7641">CollectionMethod</text><line style="stroke:#A80036;stroke-width:0.6000000000000001;" x1="407.7793" x2="457.7793" y1="459.2" y2="459.2"/><text fill="#000000" font-family="sans-serif" font-size="4.4" lengthAdjust="spacing" textLength="23.6" x="409.7793" y="465.3676">-designation</text><line style="stroke:#A80036;stroke-width:0.6000000000000001;" x1="407.7793" x2="457.7793" y1="467.9344" y2="467.9344"/><!--MD5=[ed6624c6556d5e7b1bd23032162d20b7]
class Client--><rect codeLine="18" fill="#FEFECE" filter="url(#fdt1drw5rwpj3)" height="63.475" id="Client" style="stroke:#A80036;stroke-width:0.6000000000000001;" width="33.2" x="250.5793" y="613.6"/><ellipse cx="259.9993" cy="620" fill="#ADD1B2" rx="4.4" ry="4.4" style="stroke:#A80036;stroke-width:0.4;"/><path d="M260.7993,618.6 Q260.8805,618.4 260.9743,618.3 Q261.068,618.2 261.1743,618.2 Q261.3618,618.2 261.4805,618.3125 Q261.5993,618.425 261.5993,618.6875 L261.5993,619.3125 Q261.5993,619.575 261.4868,619.6875 Q261.3743,619.8 261.1993,619.8 Q261.043,619.8 260.943,619.7313 Q260.843,619.6625 260.7993,619.4813 Q260.7805,619.3563 260.7118,619.2875 Q260.5868,619.1563 260.3618,619.0813 Q260.1368,619 259.9118,619 Q259.6305,619 259.393,619.1125 Q259.1618,619.225 258.9805,619.475 Q258.7993,619.725 258.7993,620.0688 L258.7993,620.4375 Q258.7993,620.85 259.1368,621.125 Q259.4743,621.4 260.0743,621.4 Q260.4305,621.4 260.6805,621.3188 Q260.8243,621.275 260.9868,621.1313 Q261.093,621.05 261.1493,621.025 Q261.2055,621 261.2743,621 Q261.4055,621 261.4993,621.1063 Q261.5993,621.2063 261.5993,621.35 Q261.5993,621.4875 261.4618,621.65 Q261.2618,621.8875 260.943,622.0188 Q260.5243,622.2 260.0118,622.2 Q259.4118,622.2 258.9305,621.9625 Q258.543,621.775 258.268,621.3688 Q257.9993,620.9625 257.9993,620.4813 L257.9993,620.0438 Q257.9993,619.5438 258.2368,619.1063 Q258.4805,618.6688 258.8993,618.4375 Q259.3243,618.2 259.7993,618.2 Q260.0868,618.2 260.3368,618.3 Q260.5868,618.4 260.7993,618.6 Z " fill="#000000"/><text fill="#000000" font-family="sans-serif" font-size="4.8" lengthAdjust="spacing" textLength="12.8" x="266.3593" y="621.9641">Client</text><line style="stroke:#A80036;stroke-width:0.6000000000000001;" x1="250.9793" x2="283.3793" y1="626.4" y2="626.4"/><text fill="#000000" font-family="sans-serif" font-size="4.4" lengthAdjust="spacing" textLength="12" x="252.9793" y="632.5676">-name</text><text fill="#000000" font-family="sans-serif" font-size="4.4" lengthAdjust="spacing" textLength="25.2" x="252.9793" y="638.102">-cardNumber</text><text fill="#000000" font-family="sans-serif" font-size="4.4" lengthAdjust="spacing" textLength="18.8" x="252.9793" y="643.6363">-birthDate</text><text fill="#000000" font-family="sans-serif" font-size="4.4" lengthAdjust="spacing" textLength="8.8" x="252.9793" y="649.1707">-sex</text><text fill="#000000" font-family="sans-serif" font-size="4.4" lengthAdjust="spacing" textLength="12.4" x="252.9793" y="654.7051">-nhsID</text><text fill="#000000" font-family="sans-serif" font-size="4.4" lengthAdjust="spacing" textLength="7.2" x="252.9793" y="660.2395">-TIF</text><text fill="#000000" font-family="sans-serif" font-size="4.4" lengthAdjust="spacing" textLength="28.4" x="252.9793" y="665.7738">-phoneNumber</text><text fill="#000000" font-family="sans-serif" font-size="4.4" lengthAdjust="spacing" textLength="11.2" x="252.9793" y="671.3082">-email</text><line style="stroke:#A80036;stroke-width:0.6000000000000001;" x1="250.9793" x2="283.3793" y1="673.875" y2="673.875"/><!--MD5=[1934a092c0e7d4da7dc7075b6f4b6b03]
class ClinicalAnalysisLaboratory--><rect codeLine="28" fill="#FEFECE" filter="url(#fdt1drw5rwpj3)" height="46.8719" id="ClinicalAnalysisLaboratory" style="stroke:#A80036;stroke-width:0.6000000000000001;" width="70.8" x="134.9793" y="350.8"/><ellipse cx="140.9793" cy="357.2" fill="#ADD1B2" rx="4.4" ry="4.4" style="stroke:#A80036;stroke-width:0.4;"/><path d="M141.7793,355.8 Q141.8605,355.6 141.9543,355.5 Q142.048,355.4 142.1543,355.4 Q142.3418,355.4 142.4605,355.5125 Q142.5793,355.625 142.5793,355.8875 L142.5793,356.5125 Q142.5793,356.775 142.4668,356.8875 Q142.3543,357 142.1793,357 Q142.023,357 141.923,356.9313 Q141.823,356.8625 141.7793,356.6813 Q141.7605,356.5563 141.6918,356.4875 Q141.5668,356.3563 141.3418,356.2813 Q141.1168,356.2 140.8918,356.2 Q140.6105,356.2 140.373,356.3125 Q140.1418,356.425 139.9605,356.675 Q139.7793,356.925 139.7793,357.2688 L139.7793,357.6375 Q139.7793,358.05 140.1168,358.325 Q140.4543,358.6 141.0543,358.6 Q141.4105,358.6 141.6605,358.5188 Q141.8043,358.475 141.9668,358.3313 Q142.073,358.25 142.1293,358.225 Q142.1855,358.2 142.2543,358.2 Q142.3855,358.2 142.4793,358.3063 Q142.5793,358.4063 142.5793,358.55 Q142.5793,358.6875 142.4418,358.85 Q142.2418,359.0875 141.923,359.2188 Q141.5043,359.4 140.9918,359.4 Q140.3918,359.4 139.9105,359.1625 Q139.523,358.975 139.248,358.5688 Q138.9793,358.1625 138.9793,357.6813 L138.9793,357.2438 Q138.9793,356.7438 139.2168,356.3063 Q139.4605,355.8688 139.8793,355.6375 Q140.3043,355.4 140.7793,355.4 Q141.0668,355.4 141.3168,355.5 Q141.5668,355.6 141.7793,355.8 Z " fill="#000000"/><text fill="#000000" font-family="sans-serif" font-size="4.8" lengthAdjust="spacing" textLength="58" x="146.5793" y="359.1641">ClinicalAnalysisLaboratory</text><line style="stroke:#A80036;stroke-width:0.6000000000000001;" x1="135.3793" x2="205.3793" y1="363.6" y2="363.6"/><text fill="#000000" font-family="sans-serif" font-size="4.4" lengthAdjust="spacing" textLength="12" x="137.3793" y="369.7676">-name</text><text fill="#000000" font-family="sans-serif" font-size="4.4" lengthAdjust="spacing" textLength="17.6" x="137.3793" y="375.302">-address</text><text fill="#000000" font-family="sans-serif" font-size="4.4" lengthAdjust="spacing" textLength="28.4" x="137.3793" y="380.8363">-phoneNumber</text><text fill="#000000" font-family="sans-serif" font-size="4.4" lengthAdjust="spacing" textLength="7.6" x="137.3793" y="386.3707">-TIN</text><text fill="#000000" font-family="sans-serif" font-size="4.4" lengthAdjust="spacing" textLength="24.8" x="137.3793" y="391.9051">-laboratoryID</text><line style="stroke:#A80036;stroke-width:0.6000000000000001;" x1="135.3793" x2="205.3793" y1="394.4719" y2="394.4719"/><!--MD5=[012ee2a8bf3ae2b319009b06f951c2e5]
class ClinicalChemistryTechnologist--><rect codeLine="35" fill="#FEFECE" filter="url(#fdt1drw5rwpj3)" height="19.2" id="ClinicalChemistryTechnologist" style="stroke:#A80036;stroke-width:0.6000000000000001;" width="80" x="276.7793" y="364.6"/><ellipse cx="282.7793" cy="371" fill="#ADD1B2" rx="4.4" ry="4.4" style="stroke:#A80036;stroke-width:0.4;"/><path d="M283.5793,369.6 Q283.6605,369.4 283.7543,369.3 Q283.848,369.2 283.9543,369.2 Q284.1418,369.2 284.2605,369.3125 Q284.3793,369.425 284.3793,369.6875 L284.3793,370.3125 Q284.3793,370.575 284.2668,370.6875 Q284.1543,370.8 283.9793,370.8 Q283.823,370.8 283.723,370.7313 Q283.623,370.6625 283.5793,370.4813 Q283.5605,370.3563 283.4918,370.2875 Q283.3668,370.1563 283.1418,370.0813 Q282.9168,370 282.6918,370 Q282.4105,370 282.173,370.1125 Q281.9418,370.225 281.7605,370.475 Q281.5793,370.725 281.5793,371.0688 L281.5793,371.4375 Q281.5793,371.85 281.9168,372.125 Q282.2543,372.4 282.8543,372.4 Q283.2105,372.4 283.4605,372.3188 Q283.6043,372.275 283.7668,372.1313 Q283.873,372.05 283.9293,372.025 Q283.9855,372 284.0543,372 Q284.1855,372 284.2793,372.1063 Q284.3793,372.2063 284.3793,372.35 Q284.3793,372.4875 284.2418,372.65 Q284.0418,372.8875 283.723,373.0188 Q283.3043,373.2 282.7918,373.2 Q282.1918,373.2 281.7105,372.9625 Q281.323,372.775 281.048,372.3688 Q280.7793,371.9625 280.7793,371.4813 L280.7793,371.0438 Q280.7793,370.5438 281.0168,370.1063 Q281.2605,369.6688 281.6793,369.4375 Q282.1043,369.2 282.5793,369.2 Q282.8668,369.2 283.1168,369.3 Q283.3668,369.4 283.5793,369.6 Z " fill="#000000"/><text fill="#000000" font-family="sans-serif" font-size="4.8" lengthAdjust="spacing" textLength="67.2" x="288.3793" y="372.9641">ClinicalChemistryTechnologist</text><line style="stroke:#A80036;stroke-width:0.6000000000000001;" x1="277.1793" x2="356.3793" y1="377.4" y2="377.4"/><line style="stroke:#A80036;stroke-width:0.6000000000000001;" x1="277.1793" x2="356.3793" y1="380.6" y2="380.6"/><!--MD5=[02e4b9b7573f1156f41e60aa5b4e25a4]
class Company--><rect codeLine="36" fill="#FEFECE" filter="url(#fdt1drw5rwpj3)" height="24.7344" id="Company" style="stroke:#A80036;stroke-width:0.6000000000000001;" width="34" x="102.5793" y="53.2"/><ellipse cx="108.5793" cy="59.6" fill="#ADD1B2" rx="4.4" ry="4.4" style="stroke:#A80036;stroke-width:0.4;"/><path d="M109.3793,58.2 Q109.4605,58 109.5543,57.9 Q109.648,57.8 109.7543,57.8 Q109.9418,57.8 110.0605,57.9125 Q110.1793,58.025 110.1793,58.2875 L110.1793,58.9125 Q110.1793,59.175 110.0668,59.2875 Q109.9543,59.4 109.7793,59.4 Q109.623,59.4 109.523,59.3313 Q109.423,59.2625 109.3793,59.0813 Q109.3605,58.9563 109.2918,58.8875 Q109.1668,58.7563 108.9418,58.6813 Q108.7168,58.6 108.4918,58.6 Q108.2105,58.6 107.973,58.7125 Q107.7418,58.825 107.5605,59.075 Q107.3793,59.325 107.3793,59.6688 L107.3793,60.0375 Q107.3793,60.45 107.7168,60.725 Q108.0543,61 108.6543,61 Q109.0105,61 109.2605,60.9188 Q109.4043,60.875 109.5668,60.7313 Q109.673,60.65 109.7293,60.625 Q109.7855,60.6 109.8543,60.6 Q109.9855,60.6 110.0793,60.7063 Q110.1793,60.8063 110.1793,60.95 Q110.1793,61.0875 110.0418,61.25 Q109.8418,61.4875 109.523,61.6188 Q109.1043,61.8 108.5918,61.8 Q107.9918,61.8 107.5105,61.5625 Q107.123,61.375 106.848,60.9688 Q106.5793,60.5625 106.5793,60.0813 L106.5793,59.6438 Q106.5793,59.1438 106.8168,58.7063 Q107.0605,58.2688 107.4793,58.0375 Q107.9043,57.8 108.3793,57.8 Q108.6668,57.8 108.9168,57.9 Q109.1668,58 109.3793,58.2 Z " fill="#000000"/><text fill="#000000" font-family="sans-serif" font-size="4.8" lengthAdjust="spacing" textLength="21.2" x="114.1793" y="61.5641">Company</text><line style="stroke:#A80036;stroke-width:0.6000000000000001;" x1="102.9793" x2="136.1793" y1="66" y2="66"/><text fill="#000000" font-family="sans-serif" font-size="4.4" lengthAdjust="spacing" textLength="23.6" x="104.9793" y="72.1676">-designation</text><line style="stroke:#A80036;stroke-width:0.6000000000000001;" x1="102.9793" x2="136.1793" y1="74.7344" y2="74.7344"/><!--MD5=[10d06bcee75aaf74ab8f6040820ceef2]
class Diagnosis--><rect codeLine="39" fill="#FEFECE" filter="url(#fdt1drw5rwpj3)" height="19.2" id="Diagnosis" style="stroke:#A80036;stroke-width:0.6000000000000001;" width="35.6" x="427.3793" y="300.4"/><ellipse cx="433.3793" cy="306.8" fill="#ADD1B2" rx="4.4" ry="4.4" style="stroke:#A80036;stroke-width:0.4;"/><path d="M434.1793,305.4 Q434.2605,305.2 434.3543,305.1 Q434.448,305 434.5543,305 Q434.7418,305 434.8605,305.1125 Q434.9793,305.225 434.9793,305.4875 L434.9793,306.1125 Q434.9793,306.375 434.8668,306.4875 Q434.7543,306.6 434.5793,306.6 Q434.423,306.6 434.323,306.5313 Q434.223,306.4625 434.1793,306.2813 Q434.1605,306.1563 434.0918,306.0875 Q433.9668,305.9563 433.7418,305.8813 Q433.5168,305.8 433.2918,305.8 Q433.0105,305.8 432.773,305.9125 Q432.5418,306.025 432.3605,306.275 Q432.1793,306.525 432.1793,306.8688 L432.1793,307.2375 Q432.1793,307.65 432.5168,307.925 Q432.8543,308.2 433.4543,308.2 Q433.8105,308.2 434.0605,308.1188 Q434.2043,308.075 434.3668,307.9313 Q434.473,307.85 434.5293,307.825 Q434.5855,307.8 434.6543,307.8 Q434.7855,307.8 434.8793,307.9063 Q434.9793,308.0063 434.9793,308.15 Q434.9793,308.2875 434.8418,308.45 Q434.6418,308.6875 434.323,308.8188 Q433.9043,309 433.3918,309 Q432.7918,309 432.3105,308.7625 Q431.923,308.575 431.648,308.1688 Q431.3793,307.7625 431.3793,307.2813 L431.3793,306.8438 Q431.3793,306.3438 431.6168,305.9063 Q431.8605,305.4688 432.2793,305.2375 Q432.7043,305 433.1793,305 Q433.4668,305 433.7168,305.1 Q433.9668,305.2 434.1793,305.4 Z " fill="#000000"/><text fill="#000000" font-family="sans-serif" font-size="4.8" lengthAdjust="spacing" textLength="22.8" x="438.9793" y="308.7641">Diagnosis</text><line style="stroke:#A80036;stroke-width:0.6000000000000001;" x1="427.7793" x2="462.5793" y1="313.2" y2="313.2"/><line style="stroke:#A80036;stroke-width:0.6000000000000001;" x1="427.7793" x2="462.5793" y1="316.4" y2="316.4"/><!--MD5=[a999c1570c205a2156b04a15307bc1ff]
class LabOrder--><rect codeLine="40" fill="#FEFECE" filter="url(#fdt1drw5rwpj3)" height="30.2688" id="LabOrder" style="stroke:#A80036;stroke-width:0.6000000000000001;" width="33.6" x="265.9793" y="711.2"/><ellipse cx="271.9793" cy="717.6" fill="#ADD1B2" rx="4.4" ry="4.4" style="stroke:#A80036;stroke-width:0.4;"/><path d="M272.7793,716.2 Q272.8605,716 272.9543,715.9 Q273.048,715.8 273.1543,715.8 Q273.3418,715.8 273.4605,715.9125 Q273.5793,716.025 273.5793,716.2875 L273.5793,716.9125 Q273.5793,717.175 273.4668,717.2875 Q273.3543,717.4 273.1793,717.4 Q273.023,717.4 272.923,717.3313 Q272.823,717.2625 272.7793,717.0813 Q272.7605,716.9563 272.6918,716.8875 Q272.5668,716.7563 272.3418,716.6813 Q272.1168,716.6 271.8918,716.6 Q271.6105,716.6 271.373,716.7125 Q271.1418,716.825 270.9605,717.075 Q270.7793,717.325 270.7793,717.6688 L270.7793,718.0375 Q270.7793,718.45 271.1168,718.725 Q271.4543,719 272.0543,719 Q272.4105,719 272.6605,718.9188 Q272.8043,718.875 272.9668,718.7313 Q273.073,718.65 273.1293,718.625 Q273.1855,718.6 273.2543,718.6 Q273.3855,718.6 273.4793,718.7063 Q273.5793,718.8063 273.5793,718.95 Q273.5793,719.0875 273.4418,719.25 Q273.2418,719.4875 272.923,719.6188 Q272.5043,719.8 271.9918,719.8 Q271.3918,719.8 270.9105,719.5625 Q270.523,719.375 270.248,718.9688 Q269.9793,718.5625 269.9793,718.0813 L269.9793,717.6438 Q269.9793,717.1438 270.2168,716.7063 Q270.4605,716.2688 270.8793,716.0375 Q271.3043,715.8 271.7793,715.8 Q272.0668,715.8 272.3168,715.9 Q272.5668,716 272.7793,716.2 Z " fill="#000000"/><text fill="#000000" font-family="sans-serif" font-size="4.8" lengthAdjust="spacing" textLength="20.8" x="277.5793" y="719.5641">LabOrder</text><line style="stroke:#A80036;stroke-width:0.6000000000000001;" x1="266.3793" x2="299.1793" y1="724" y2="724"/><text fill="#000000" font-family="sans-serif" font-size="4.4" lengthAdjust="spacing" textLength="18.4" x="268.3793" y="730.1676">-testType</text><text fill="#000000" font-family="sans-serif" font-size="4.4" lengthAdjust="spacing" textLength="23.6" x="268.3793" y="735.702">-parameters</text><line style="stroke:#A80036;stroke-width:0.6000000000000001;" x1="266.3793" x2="299.1793" y1="738.2688" y2="738.2688"/><!--MD5=[7421f545a0d8420c5bec41e74b387d9c]
class Employee--><rect codeLine="44" fill="#FEFECE" filter="url(#fdt1drw5rwpj3)" height="57.9406" id="Employee" style="stroke:#A80036;stroke-width:0.6000000000000001;" width="34.8" x="224.1793" y="109.2"/><ellipse cx="230.1793" cy="115.6" fill="#ADD1B2" rx="4.4" ry="4.4" style="stroke:#A80036;stroke-width:0.4;"/><path d="M230.9793,114.2 Q231.0605,114 231.1543,113.9 Q231.248,113.8 231.3543,113.8 Q231.5418,113.8 231.6605,113.9125 Q231.7793,114.025 231.7793,114.2875 L231.7793,114.9125 Q231.7793,115.175 231.6668,115.2875 Q231.5543,115.4 231.3793,115.4 Q231.223,115.4 231.123,115.3313 Q231.023,115.2625 230.9793,115.0813 Q230.9605,114.9563 230.8918,114.8875 Q230.7668,114.7563 230.5418,114.6813 Q230.3168,114.6 230.0918,114.6 Q229.8105,114.6 229.573,114.7125 Q229.3418,114.825 229.1605,115.075 Q228.9793,115.325 228.9793,115.6688 L228.9793,116.0375 Q228.9793,116.45 229.3168,116.725 Q229.6543,117 230.2543,117 Q230.6105,117 230.8605,116.9188 Q231.0043,116.875 231.1668,116.7313 Q231.273,116.65 231.3293,116.625 Q231.3855,116.6 231.4543,116.6 Q231.5855,116.6 231.6793,116.7063 Q231.7793,116.8063 231.7793,116.95 Q231.7793,117.0875 231.6418,117.25 Q231.4418,117.4875 231.123,117.6188 Q230.7043,117.8 230.1918,117.8 Q229.5918,117.8 229.1105,117.5625 Q228.723,117.375 228.448,116.9688 Q228.1793,116.5625 228.1793,116.0813 L228.1793,115.6438 Q228.1793,115.1438 228.4168,114.7063 Q228.6605,114.2688 229.0793,114.0375 Q229.5043,113.8 229.9793,113.8 Q230.2668,113.8 230.5168,113.9 Q230.7668,114 230.9793,114.2 Z " fill="#000000"/><text fill="#000000" font-family="sans-serif" font-size="4.8" lengthAdjust="spacing" textLength="22" x="235.7793" y="117.5641">Employee</text><line style="stroke:#A80036;stroke-width:0.6000000000000001;" x1="224.5793" x2="258.5793" y1="122" y2="122"/><text fill="#000000" font-family="sans-serif" font-size="4.4" lengthAdjust="spacing" textLength="23.6" x="226.5793" y="128.1676">-employeeID</text><text fill="#000000" font-family="sans-serif" font-size="4.4" lengthAdjust="spacing" textLength="28.8" x="226.5793" y="133.702">-organizationID</text><text fill="#000000" font-family="sans-serif" font-size="4.4" lengthAdjust="spacing" textLength="12" x="226.5793" y="139.2363">-name</text><text fill="#000000" font-family="sans-serif" font-size="4.4" lengthAdjust="spacing" textLength="17.6" x="226.5793" y="144.7707">-address</text><text fill="#000000" font-family="sans-serif" font-size="4.4" lengthAdjust="spacing" textLength="28.4" x="226.5793" y="150.3051">-phoneNumber</text><text fill="#000000" font-family="sans-serif" font-size="4.4" lengthAdjust="spacing" textLength="11.2" x="226.5793" y="155.8395">-email</text><text fill="#000000" font-family="sans-serif" font-size="4.4" lengthAdjust="spacing" textLength="20" x="226.5793" y="161.3738">-SOCcode</text><line style="stroke:#A80036;stroke-width:0.6000000000000001;" x1="224.5793" x2="258.5793" y1="163.9406" y2="163.9406"/><!--MD5=[052425de1c0eb6cc1c1b48342b0bb88f]
class LaboratoryCoordinator--><rect codeLine="53" fill="#FEFECE" filter="url(#fdt1drw5rwpj3)" height="19.2" id="LaboratoryCoordinator" style="stroke:#A80036;stroke-width:0.6000000000000001;" width="62" x="453.7793" y="364.6"/><ellipse cx="459.7793" cy="371" fill="#ADD1B2" rx="4.4" ry="4.4" style="stroke:#A80036;stroke-width:0.4;"/><path d="M460.5793,369.6 Q460.6605,369.4 460.7543,369.3 Q460.848,369.2 460.9543,369.2 Q461.1418,369.2 461.2605,369.3125 Q461.3793,369.425 461.3793,369.6875 L461.3793,370.3125 Q461.3793,370.575 461.2668,370.6875 Q461.1543,370.8 460.9793,370.8 Q460.823,370.8 460.723,370.7313 Q460.623,370.6625 460.5793,370.4813 Q460.5605,370.3563 460.4918,370.2875 Q460.3668,370.1563 460.1418,370.0813 Q459.9168,370 459.6918,370 Q459.4105,370 459.173,370.1125 Q458.9418,370.225 458.7605,370.475 Q458.5793,370.725 458.5793,371.0688 L458.5793,371.4375 Q458.5793,371.85 458.9168,372.125 Q459.2543,372.4 459.8543,372.4 Q460.2105,372.4 460.4605,372.3188 Q460.6043,372.275 460.7668,372.1313 Q460.873,372.05 460.9293,372.025 Q460.9855,372 461.0543,372 Q461.1855,372 461.2793,372.1063 Q461.3793,372.2063 461.3793,372.35 Q461.3793,372.4875 461.2418,372.65 Q461.0418,372.8875 460.723,373.0188 Q460.3043,373.2 459.7918,373.2 Q459.1918,373.2 458.7105,372.9625 Q458.323,372.775 458.048,372.3688 Q457.7793,371.9625 457.7793,371.4813 L457.7793,371.0438 Q457.7793,370.5438 458.0168,370.1063 Q458.2605,369.6688 458.6793,369.4375 Q459.1043,369.2 459.5793,369.2 Q459.8668,369.2 460.1168,369.3 Q460.3668,369.4 460.5793,369.6 Z " fill="#000000"/><text fill="#000000" font-family="sans-serif" font-size="4.8" lengthAdjust="spacing" textLength="49.2" x="465.3793" y="372.9641">LaboratoryCoordinator</text><line style="stroke:#A80036;stroke-width:0.6000000000000001;" x1="454.1793" x2="515.3793" y1="377.4" y2="377.4"/><line style="stroke:#A80036;stroke-width:0.6000000000000001;" x1="454.1793" x2="515.3793" y1="380.6" y2="380.6"/><!--MD5=[01931d41e78f8996acd44f6f0fd8de28]
class MedicalLabTechnician--><rect codeLine="54" fill="#FEFECE" filter="url(#fdt1drw5rwpj3)" height="19.2" id="MedicalLabTechnician" style="stroke:#A80036;stroke-width:0.6000000000000001;" width="62" x="236.5793" y="269.2"/><ellipse cx="242.5793" cy="275.6" fill="#ADD1B2" rx="4.4" ry="4.4" style="stroke:#A80036;stroke-width:0.4;"/><path d="M243.3793,274.2 Q243.4605,274 243.5543,273.9 Q243.648,273.8 243.7543,273.8 Q243.9418,273.8 244.0605,273.9125 Q244.1793,274.025 244.1793,274.2875 L244.1793,274.9125 Q244.1793,275.175 244.0668,275.2875 Q243.9543,275.4 243.7793,275.4 Q243.623,275.4 243.523,275.3313 Q243.423,275.2625 243.3793,275.0813 Q243.3605,274.9563 243.2918,274.8875 Q243.1668,274.7563 242.9418,274.6813 Q242.7168,274.6 242.4918,274.6 Q242.2105,274.6 241.973,274.7125 Q241.7418,274.825 241.5605,275.075 Q241.3793,275.325 241.3793,275.6688 L241.3793,276.0375 Q241.3793,276.45 241.7168,276.725 Q242.0543,277 242.6543,277 Q243.0105,277 243.2605,276.9188 Q243.4043,276.875 243.5668,276.7313 Q243.673,276.65 243.7293,276.625 Q243.7855,276.6 243.8543,276.6 Q243.9855,276.6 244.0793,276.7063 Q244.1793,276.8063 244.1793,276.95 Q244.1793,277.0875 244.0418,277.25 Q243.8418,277.4875 243.523,277.6188 Q243.1043,277.8 242.5918,277.8 Q241.9918,277.8 241.5105,277.5625 Q241.123,277.375 240.848,276.9688 Q240.5793,276.5625 240.5793,276.0813 L240.5793,275.6438 Q240.5793,275.1438 240.8168,274.7063 Q241.0605,274.2688 241.4793,274.0375 Q241.9043,273.8 242.3793,273.8 Q242.6668,273.8 242.9168,273.9 Q243.1668,274 243.3793,274.2 Z " fill="#000000"/><text fill="#000000" font-family="sans-serif" font-size="4.8" lengthAdjust="spacing" textLength="49.2" x="248.1793" y="277.5641">MedicalLabTechnician</text><line style="stroke:#A80036;stroke-width:0.6000000000000001;" x1="236.9793" x2="298.1793" y1="282" y2="282"/><line style="stroke:#A80036;stroke-width:0.6000000000000001;" x1="236.9793" x2="298.1793" y1="285.2" y2="285.2"/><!--MD5=[0a105ea8d9af02dadec02d3e239f1d60]
class NHS--><rect codeLine="55" fill="#FEFECE" filter="url(#fdt1drw5rwpj3)" height="19.2" id="NHS" style="stroke:#A80036;stroke-width:0.6000000000000001;" width="23.2" x="107.9793" y="2.8"/><ellipse cx="113.9793" cy="9.2" fill="#ADD1B2" rx="4.4" ry="4.4" style="stroke:#A80036;stroke-width:0.4;"/><path d="M114.7793,7.8 Q114.8605,7.6 114.9543,7.5 Q115.048,7.4 115.1543,7.4 Q115.3418,7.4 115.4605,7.5125 Q115.5793,7.625 115.5793,7.8875 L115.5793,8.5125 Q115.5793,8.775 115.4668,8.8875 Q115.3543,9 115.1793,9 Q115.023,9 114.923,8.9313 Q114.823,8.8625 114.7793,8.6813 Q114.7605,8.5563 114.6918,8.4875 Q114.5668,8.3563 114.3418,8.2813 Q114.1168,8.2 113.8918,8.2 Q113.6105,8.2 113.373,8.3125 Q113.1418,8.425 112.9605,8.675 Q112.7793,8.925 112.7793,9.2688 L112.7793,9.6375 Q112.7793,10.05 113.1168,10.325 Q113.4543,10.6 114.0543,10.6 Q114.4105,10.6 114.6605,10.5188 Q114.8043,10.475 114.9668,10.3313 Q115.073,10.25 115.1293,10.225 Q115.1855,10.2 115.2543,10.2 Q115.3855,10.2 115.4793,10.3063 Q115.5793,10.4063 115.5793,10.55 Q115.5793,10.6875 115.4418,10.85 Q115.2418,11.0875 114.923,11.2188 Q114.5043,11.4 113.9918,11.4 Q113.3918,11.4 112.9105,11.1625 Q112.523,10.975 112.248,10.5688 Q111.9793,10.1625 111.9793,9.6813 L111.9793,9.2438 Q111.9793,8.7438 112.2168,8.3063 Q112.4605,7.8688 112.8793,7.6375 Q113.3043,7.4 113.7793,7.4 Q114.0668,7.4 114.3168,7.5 Q114.5668,7.6 114.7793,7.8 Z " fill="#000000"/><text fill="#000000" font-family="sans-serif" font-size="4.8" lengthAdjust="spacing" textLength="10.4" x="119.5793" y="11.1641">NHS</text><line style="stroke:#A80036;stroke-width:0.6000000000000001;" x1="108.3793" x2="130.7793" y1="15.6" y2="15.6"/><line style="stroke:#A80036;stroke-width:0.6000000000000001;" x1="108.3793" x2="130.7793" y1="18.8" y2="18.8"/><!--MD5=[03960189e81aa2c066c762ffabbee709]
class Receptionist--><rect codeLine="56" fill="#FEFECE" filter="url(#fdt1drw5rwpj3)" height="19.2" id="Receptionist" style="stroke:#A80036;stroke-width:0.6000000000000001;" width="40.4" x="206.9793" y="449.2"/><ellipse cx="212.9793" cy="455.6" fill="#ADD1B2" rx="4.4" ry="4.4" style="stroke:#A80036;stroke-width:0.4;"/><path d="M213.7793,454.2 Q213.8605,454 213.9543,453.9 Q214.048,453.8 214.1543,453.8 Q214.3418,453.8 214.4605,453.9125 Q214.5793,454.025 214.5793,454.2875 L214.5793,454.9125 Q214.5793,455.175 214.4668,455.2875 Q214.3543,455.4 214.1793,455.4 Q214.023,455.4 213.923,455.3313 Q213.823,455.2625 213.7793,455.0813 Q213.7605,454.9563 213.6918,454.8875 Q213.5668,454.7563 213.3418,454.6813 Q213.1168,454.6 212.8918,454.6 Q212.6105,454.6 212.373,454.7125 Q212.1418,454.825 211.9605,455.075 Q211.7793,455.325 211.7793,455.6688 L211.7793,456.0375 Q211.7793,456.45 212.1168,456.725 Q212.4543,457 213.0543,457 Q213.4105,457 213.6605,456.9188 Q213.8043,456.875 213.9668,456.7313 Q214.073,456.65 214.1293,456.625 Q214.1855,456.6 214.2543,456.6 Q214.3855,456.6 214.4793,456.7063 Q214.5793,456.8063 214.5793,456.95 Q214.5793,457.0875 214.4418,457.25 Q214.2418,457.4875 213.923,457.6188 Q213.5043,457.8 212.9918,457.8 Q212.3918,457.8 211.9105,457.5625 Q211.523,457.375 211.248,456.9688 Q210.9793,456.5625 210.9793,456.0813 L210.9793,455.6438 Q210.9793,455.1438 211.2168,454.7063 Q211.4605,454.2688 211.8793,454.0375 Q212.3043,453.8 212.7793,453.8 Q213.0668,453.8 213.3168,453.9 Q213.5668,454 213.7793,454.2 Z " fill="#000000"/><text fill="#000000" font-family="sans-serif" font-size="4.8" lengthAdjust="spacing" textLength="27.6" x="218.5793" y="457.5641">Receptionist</text><line style="stroke:#A80036;stroke-width:0.6000000000000001;" x1="207.3793" x2="246.9793" y1="462" y2="462"/><line style="stroke:#A80036;stroke-width:0.6000000000000001;" x1="207.3793" x2="246.9793" y1="465.2" y2="465.2"/><!--MD5=[df38be88ccee13e832d6fafd6288a4ca]
class Test--><rect codeLine="57" fill="#FEFECE" filter="url(#fdt1drw5rwpj3)" height="74.5438" id="Test" style="stroke:#A80036;stroke-width:0.6000000000000001;" width="33.6" x="307.1793" y="508"/><ellipse cx="318.2193" cy="514.4" fill="#ADD1B2" rx="4.4" ry="4.4" style="stroke:#A80036;stroke-width:0.4;"/><path d="M319.0193,513 Q319.1005,512.8 319.1943,512.7 Q319.288,512.6 319.3943,512.6 Q319.5818,512.6 319.7005,512.7125 Q319.8193,512.825 319.8193,513.0875 L319.8193,513.7125 Q319.8193,513.975 319.7068,514.0875 Q319.5943,514.2 319.4193,514.2 Q319.263,514.2 319.163,514.1313 Q319.063,514.0625 319.0193,513.8813 Q319.0005,513.7563 318.9318,513.6875 Q318.8068,513.5563 318.5818,513.4813 Q318.3568,513.4 318.1318,513.4 Q317.8505,513.4 317.613,513.5125 Q317.3818,513.625 317.2005,513.875 Q317.0193,514.125 317.0193,514.4688 L317.0193,514.8375 Q317.0193,515.25 317.3568,515.525 Q317.6943,515.8 318.2943,515.8 Q318.6505,515.8 318.9005,515.7188 Q319.0443,515.675 319.2068,515.5313 Q319.313,515.45 319.3693,515.425 Q319.4255,515.4 319.4943,515.4 Q319.6255,515.4 319.7193,515.5063 Q319.8193,515.6063 319.8193,515.75 Q319.8193,515.8875 319.6818,516.05 Q319.4818,516.2875 319.163,516.4188 Q318.7443,516.6 318.2318,516.6 Q317.6318,516.6 317.1505,516.3625 Q316.763,516.175 316.488,515.7688 Q316.2193,515.3625 316.2193,514.8813 L316.2193,514.4438 Q316.2193,513.9438 316.4568,513.5063 Q316.7005,513.0688 317.1193,512.8375 Q317.5443,512.6 318.0193,512.6 Q318.3068,512.6 318.5568,512.7 Q318.8068,512.8 319.0193,513 Z " fill="#000000"/><text fill="#000000" font-family="sans-serif" font-size="4.8" lengthAdjust="spacing" textLength="9.6" x="324.9393" y="516.3641">Test</text><line style="stroke:#A80036;stroke-width:0.6000000000000001;" x1="307.5793" x2="340.3793" y1="520.8" y2="520.8"/><text fill="#000000" font-family="sans-serif" font-size="4.4" lengthAdjust="spacing" textLength="25.6" x="309.5793" y="526.9676">-internalCode</text><text fill="#000000" font-family="sans-serif" font-size="4.4" lengthAdjust="spacing" textLength="18.8" x="309.5793" y="532.502">-nhsCode</text><text fill="#000000" font-family="sans-serif" font-size="4.4" lengthAdjust="spacing" textLength="20.8" x="309.5793" y="538.0363">-createdAt</text><text fill="#000000" font-family="sans-serif" font-size="4.4" lengthAdjust="spacing" textLength="23.6" x="309.5793" y="543.5707">-designation</text><text fill="#000000" font-family="sans-serif" font-size="4.4" lengthAdjust="spacing" textLength="26.8" x="309.5793" y="549.1051">-dateAnalysis</text><text fill="#000000" font-family="sans-serif" font-size="4.4" lengthAdjust="spacing" textLength="26" x="309.5793" y="554.6395">-timeAnalysis</text><text fill="#000000" font-family="sans-serif" font-size="4.4" lengthAdjust="spacing" textLength="28.8" x="309.5793" y="560.1738">-dateDiagnosis</text><text fill="#000000" font-family="sans-serif" font-size="4.4" lengthAdjust="spacing" textLength="28" x="309.5793" y="565.7082">-timeDiagnosis</text><text fill="#000000" font-family="sans-serif" font-size="4.4" lengthAdjust="spacing" textLength="28.8" x="309.5793" y="571.2426">-dateValidation</text><text fill="#000000" font-family="sans-serif" font-size="4.4" lengthAdjust="spacing" textLength="28" x="309.5793" y="576.777">-timeValidation</text><line style="stroke:#A80036;stroke-width:0.6000000000000001;" x1="307.5793" x2="340.3793" y1="579.3438" y2="579.3438"/><!--MD5=[1f6362a5c8f21d8d6a0fce68f3a92a4e]
class Parameter--><rect codeLine="69" fill="#FEFECE" filter="url(#fdt1drw5rwpj3)" height="35.8031" id="Parameter" style="stroke:#A80036;stroke-width:0.6000000000000001;" width="49.2" x="346.1793" y="708.4"/><ellipse cx="358.1193" cy="714.8" fill="#ADD1B2" rx="4.4" ry="4.4" style="stroke:#A80036;stroke-width:0.4;"/><path d="M358.9193,713.4 Q359.0005,713.2 359.0943,713.1 Q359.188,713 359.2943,713 Q359.4818,713 359.6005,713.1125 Q359.7193,713.225 359.7193,713.4875 L359.7193,714.1125 Q359.7193,714.375 359.6068,714.4875 Q359.4943,714.6 359.3193,714.6 Q359.163,714.6 359.063,714.5313 Q358.963,714.4625 358.9193,714.2813 Q358.9005,714.1563 358.8318,714.0875 Q358.7068,713.9563 358.4818,713.8813 Q358.2568,713.8 358.0318,713.8 Q357.7505,713.8 357.513,713.9125 Q357.2818,714.025 357.1005,714.275 Q356.9193,714.525 356.9193,714.8688 L356.9193,715.2375 Q356.9193,715.65 357.2568,715.925 Q357.5943,716.2 358.1943,716.2 Q358.5505,716.2 358.8005,716.1188 Q358.9443,716.075 359.1068,715.9313 Q359.213,715.85 359.2693,715.825 Q359.3255,715.8 359.3943,715.8 Q359.5255,715.8 359.6193,715.9063 Q359.7193,716.0063 359.7193,716.15 Q359.7193,716.2875 359.5818,716.45 Q359.3818,716.6875 359.063,716.8188 Q358.6443,717 358.1318,717 Q357.5318,717 357.0505,716.7625 Q356.663,716.575 356.388,716.1688 Q356.1193,715.7625 356.1193,715.2813 L356.1193,714.8438 Q356.1193,714.3438 356.3568,713.9063 Q356.6005,713.4688 357.0193,713.2375 Q357.4443,713 357.9193,713 Q358.2068,713 358.4568,713.1 Q358.7068,713.2 358.9193,713.4 Z " fill="#000000"/><text fill="#000000" font-family="sans-serif" font-size="4.8" lengthAdjust="spacing" textLength="23.2" x="365.0393" y="716.7641">Parameter</text><line style="stroke:#A80036;stroke-width:0.6000000000000001;" x1="346.5793" x2="394.9793" y1="721.2" y2="721.2"/><text fill="#000000" font-family="sans-serif" font-size="4.4" lengthAdjust="spacing" textLength="23.6" x="348.5793" y="727.3676">-designation</text><text fill="#000000" font-family="sans-serif" font-size="4.4" lengthAdjust="spacing" textLength="44.4" x="348.5793" y="732.902">-upperReferenceValue</text><text fill="#000000" font-family="sans-serif" font-size="4.4" lengthAdjust="spacing" textLength="44.4" x="348.5793" y="738.4363">-lowerReferenceValue</text><line style="stroke:#A80036;stroke-width:0.6000000000000001;" x1="346.5793" x2="394.9793" y1="741.0031" y2="741.0031"/><!--MD5=[80e560c845ce9ec3c8b9ef25ef04dbf1]
class ParameterResult--><rect codeLine="74" fill="#FEFECE" filter="url(#fdt1drw5rwpj3)" height="19.2" id="ParameterResult" style="stroke:#A80036;stroke-width:0.6000000000000001;" width="50.4" x="540.3793" y="409.6"/><ellipse cx="546.3793" cy="416" fill="#ADD1B2" rx="4.4" ry="4.4" style="stroke:#A80036;stroke-width:0.4;"/><path d="M547.1793,414.6 Q547.2605,414.4 547.3543,414.3 Q547.448,414.2 547.5543,414.2 Q547.7418,414.2 547.8605,414.3125 Q547.9793,414.425 547.9793,414.6875 L547.9793,415.3125 Q547.9793,415.575 547.8668,415.6875 Q547.7543,415.8 547.5793,415.8 Q547.423,415.8 547.323,415.7313 Q547.223,415.6625 547.1793,415.4813 Q547.1605,415.3563 547.0918,415.2875 Q546.9668,415.1563 546.7418,415.0813 Q546.5168,415 546.2918,415 Q546.0105,415 545.773,415.1125 Q545.5418,415.225 545.3605,415.475 Q545.1793,415.725 545.1793,416.0688 L545.1793,416.4375 Q545.1793,416.85 545.5168,417.125 Q545.8543,417.4 546.4543,417.4 Q546.8105,417.4 547.0605,417.3188 Q547.2043,417.275 547.3668,417.1313 Q547.473,417.05 547.5293,417.025 Q547.5855,417 547.6543,417 Q547.7855,417 547.8793,417.1063 Q547.9793,417.2063 547.9793,417.35 Q547.9793,417.4875 547.8418,417.65 Q547.6418,417.8875 547.323,418.0188 Q546.9043,418.2 546.3918,418.2 Q545.7918,418.2 545.3105,417.9625 Q544.923,417.775 544.648,417.3688 Q544.3793,416.9625 544.3793,416.4813 L544.3793,416.0438 Q544.3793,415.5438 544.6168,415.1063 Q544.8605,414.6688 545.2793,414.4375 Q545.7043,414.2 546.1793,414.2 Q546.4668,414.2 546.7168,414.3 Q546.9668,414.4 547.1793,414.6 Z " fill="#000000"/><text fill="#000000" font-family="sans-serif" font-size="4.8" lengthAdjust="spacing" textLength="37.6" x="551.9793" y="417.9641">ParameterResult</text><line style="stroke:#A80036;stroke-width:0.6000000000000001;" x1="540.7793" x2="590.3793" y1="422.4" y2="422.4"/><line style="stroke:#A80036;stroke-width:0.6000000000000001;" x1="540.7793" x2="590.3793" y1="425.6" y2="425.6"/><!--MD5=[f00dbe8c0302c6aec2cb26b3c659c8fc]
class Report--><rect codeLine="75" fill="#FEFECE" filter="url(#fdt1drw5rwpj3)" height="24.7344" id="Report" style="stroke:#A80036;stroke-width:0.6000000000000001;" width="27.6" x="464.9793" y="232.4"/><ellipse cx="470.9793" cy="238.8" fill="#ADD1B2" rx="4.4" ry="4.4" style="stroke:#A80036;stroke-width:0.4;"/><path d="M471.7793,237.4 Q471.8605,237.2 471.9543,237.1 Q472.048,237 472.1543,237 Q472.3418,237 472.4605,237.1125 Q472.5793,237.225 472.5793,237.4875 L472.5793,238.1125 Q472.5793,238.375 472.4668,238.4875 Q472.3543,238.6 472.1793,238.6 Q472.023,238.6 471.923,238.5313 Q471.823,238.4625 471.7793,238.2813 Q471.7605,238.1563 471.6918,238.0875 Q471.5668,237.9563 471.3418,237.8813 Q471.1168,237.8 470.8918,237.8 Q470.6105,237.8 470.373,237.9125 Q470.1418,238.025 469.9605,238.275 Q469.7793,238.525 469.7793,238.8688 L469.7793,239.2375 Q469.7793,239.65 470.1168,239.925 Q470.4543,240.2 471.0543,240.2 Q471.4105,240.2 471.6605,240.1188 Q471.8043,240.075 471.9668,239.9313 Q472.073,239.85 472.1293,239.825 Q472.1855,239.8 472.2543,239.8 Q472.3855,239.8 472.4793,239.9063 Q472.5793,240.0063 472.5793,240.15 Q472.5793,240.2875 472.4418,240.45 Q472.2418,240.6875 471.923,240.8188 Q471.5043,241 470.9918,241 Q470.3918,241 469.9105,240.7625 Q469.523,240.575 469.248,240.1688 Q468.9793,239.7625 468.9793,239.2813 L468.9793,238.8438 Q468.9793,238.3438 469.2168,237.9063 Q469.4605,237.4688 469.8793,237.2375 Q470.3043,237 470.7793,237 Q471.0668,237 471.3168,237.1 Q471.5668,237.2 471.7793,237.4 Z " fill="#000000"/><text fill="#000000" font-family="sans-serif" font-size="4.8" lengthAdjust="spacing" textLength="14.8" x="476.5793" y="240.7641">Report</text><line style="stroke:#A80036;stroke-width:0.6000000000000001;" x1="465.3793" x2="492.1793" y1="245.2" y2="245.2"/><text fill="#000000" font-family="sans-serif" font-size="4.4" lengthAdjust="spacing" textLength="18.8" x="467.3793" y="251.3676">-textBody</text><line style="stroke:#A80036;stroke-width:0.6000000000000001;" x1="465.3793" x2="492.1793" y1="253.9344" y2="253.9344"/><!--MD5=[e27cb01a39563223b22d42504ec96d07]
class TestResult--><rect codeLine="78" fill="#FEFECE" filter="url(#fdt1drw5rwpj3)" height="19.2" id="TestResult" style="stroke:#A80036;stroke-width:0.6000000000000001;" width="36.8" x="497.1793" y="300.4"/><ellipse cx="503.1793" cy="306.8" fill="#ADD1B2" rx="4.4" ry="4.4" style="stroke:#A80036;stroke-width:0.4;"/><path d="M503.9793,305.4 Q504.0605,305.2 504.1543,305.1 Q504.248,305 504.3543,305 Q504.5418,305 504.6605,305.1125 Q504.7793,305.225 504.7793,305.4875 L504.7793,306.1125 Q504.7793,306.375 504.6668,306.4875 Q504.5543,306.6 504.3793,306.6 Q504.223,306.6 504.123,306.5313 Q504.023,306.4625 503.9793,306.2813 Q503.9605,306.1563 503.8918,306.0875 Q503.7668,305.9563 503.5418,305.8813 Q503.3168,305.8 503.0918,305.8 Q502.8105,305.8 502.573,305.9125 Q502.3418,306.025 502.1605,306.275 Q501.9793,306.525 501.9793,306.8688 L501.9793,307.2375 Q501.9793,307.65 502.3168,307.925 Q502.6543,308.2 503.2543,308.2 Q503.6105,308.2 503.8605,308.1188 Q504.0043,308.075 504.1668,307.9313 Q504.273,307.85 504.3293,307.825 Q504.3855,307.8 504.4543,307.8 Q504.5855,307.8 504.6793,307.9063 Q504.7793,308.0063 504.7793,308.15 Q504.7793,308.2875 504.6418,308.45 Q504.4418,308.6875 504.123,308.8188 Q503.7043,309 503.1918,309 Q502.5918,309 502.1105,308.7625 Q501.723,308.575 501.448,308.1688 Q501.1793,307.7625 501.1793,307.2813 L501.1793,306.8438 Q501.1793,306.3438 501.4168,305.9063 Q501.6605,305.4688 502.0793,305.2375 Q502.5043,305 502.9793,305 Q503.2668,305 503.5168,305.1 Q503.7668,305.2 503.9793,305.4 Z " fill="#000000"/><text fill="#000000" font-family="sans-serif" font-size="4.8" lengthAdjust="spacing" textLength="24" x="508.7793" y="308.7641">TestResult</text><line style="stroke:#A80036;stroke-width:0.6000000000000001;" x1="497.5793" x2="533.5793" y1="313.2" y2="313.2"/><line style="stroke:#A80036;stroke-width:0.6000000000000001;" x1="497.5793" x2="533.5793" y1="316.4" y2="316.4"/><!--MD5=[aeb3272166074d8737a70b61b1e71682]
class TestType--><rect codeLine="79" fill="#FEFECE" filter="url(#fdt1drw5rwpj3)" height="24.7344" id="TestType" style="stroke:#A80036;stroke-width:0.6000000000000001;" width="32.8" x="149.9793" y="633"/><ellipse cx="155.9793" cy="639.4" fill="#ADD1B2" rx="4.4" ry="4.4" style="stroke:#A80036;stroke-width:0.4;"/><path d="M156.7793,638 Q156.8605,637.8 156.9543,637.7 Q157.048,637.6 157.1543,637.6 Q157.3418,637.6 157.4605,637.7125 Q157.5793,637.825 157.5793,638.0875 L157.5793,638.7125 Q157.5793,638.975 157.4668,639.0875 Q157.3543,639.2 157.1793,639.2 Q157.023,639.2 156.923,639.1313 Q156.823,639.0625 156.7793,638.8813 Q156.7605,638.7563 156.6918,638.6875 Q156.5668,638.5563 156.3418,638.4813 Q156.1168,638.4 155.8918,638.4 Q155.6105,638.4 155.373,638.5125 Q155.1418,638.625 154.9605,638.875 Q154.7793,639.125 154.7793,639.4688 L154.7793,639.8375 Q154.7793,640.25 155.1168,640.525 Q155.4543,640.8 156.0543,640.8 Q156.4105,640.8 156.6605,640.7188 Q156.8043,640.675 156.9668,640.5313 Q157.073,640.45 157.1293,640.425 Q157.1855,640.4 157.2543,640.4 Q157.3855,640.4 157.4793,640.5063 Q157.5793,640.6063 157.5793,640.75 Q157.5793,640.8875 157.4418,641.05 Q157.2418,641.2875 156.923,641.4188 Q156.5043,641.6 155.9918,641.6 Q155.3918,641.6 154.9105,641.3625 Q154.523,641.175 154.248,640.7688 Q153.9793,640.3625 153.9793,639.8813 L153.9793,639.4438 Q153.9793,638.9438 154.2168,638.5063 Q154.4605,638.0688 154.8793,637.8375 Q155.3043,637.6 155.7793,637.6 Q156.0668,637.6 156.3168,637.7 Q156.5668,637.8 156.7793,638 Z " fill="#000000"/><text fill="#000000" font-family="sans-serif" font-size="4.8" lengthAdjust="spacing" textLength="20" x="161.5793" y="641.3641">TestType</text><line style="stroke:#A80036;stroke-width:0.6000000000000001;" x1="150.3793" x2="182.3793" y1="645.8" y2="645.8"/><text fill="#000000" font-family="sans-serif" font-size="4.4" lengthAdjust="spacing" textLength="23.6" x="152.3793" y="651.9676">-designation</text><line style="stroke:#A80036;stroke-width:0.6000000000000001;" x1="150.3793" x2="182.3793" y1="654.5344" y2="654.5344"/><!--MD5=[9681492165142af2a4a3a169d90ee8d4]
class Sample--><rect codeLine="82" fill="#FEFECE" filter="url(#fdt1drw5rwpj3)" height="35.8031" id="Sample" style="stroke:#A80036;stroke-width:0.6000000000000001;" width="33.2" x="302.1793" y="440.8"/><ellipse cx="309.6193" cy="447.2" fill="#ADD1B2" rx="4.4" ry="4.4" style="stroke:#A80036;stroke-width:0.4;"/><path d="M310.4193,445.8 Q310.5005,445.6 310.5943,445.5 Q310.688,445.4 310.7943,445.4 Q310.9818,445.4 311.1005,445.5125 Q311.2193,445.625 311.2193,445.8875 L311.2193,446.5125 Q311.2193,446.775 311.1068,446.8875 Q310.9943,447 310.8193,447 Q310.663,447 310.563,446.9313 Q310.463,446.8625 310.4193,446.6813 Q310.4005,446.5563 310.3318,446.4875 Q310.2068,446.3563 309.9818,446.2813 Q309.7568,446.2 309.5318,446.2 Q309.2505,446.2 309.013,446.3125 Q308.7818,446.425 308.6005,446.675 Q308.4193,446.925 308.4193,447.2688 L308.4193,447.6375 Q308.4193,448.05 308.7568,448.325 Q309.0943,448.6 309.6943,448.6 Q310.0505,448.6 310.3005,448.5188 Q310.4443,448.475 310.6068,448.3313 Q310.713,448.25 310.7693,448.225 Q310.8255,448.2 310.8943,448.2 Q311.0255,448.2 311.1193,448.3063 Q311.2193,448.4063 311.2193,448.55 Q311.2193,448.6875 311.0818,448.85 Q310.8818,449.0875 310.563,449.2188 Q310.1443,449.4 309.6318,449.4 Q309.0318,449.4 308.5505,449.1625 Q308.163,448.975 307.888,448.5688 Q307.6193,448.1625 307.6193,447.6813 L307.6193,447.2438 Q307.6193,446.7438 307.8568,446.3063 Q308.1005,445.8688 308.5193,445.6375 Q308.9443,445.4 309.4193,445.4 Q309.7068,445.4 309.9568,445.5 Q310.2068,445.6 310.4193,445.8 Z " fill="#000000"/><text fill="#000000" font-family="sans-serif" font-size="4.8" lengthAdjust="spacing" textLength="17.2" x="315.5393" y="449.1641">Sample</text><line style="stroke:#A80036;stroke-width:0.6000000000000001;" x1="302.5793" x2="334.9793" y1="453.6" y2="453.6"/><text fill="#000000" font-family="sans-serif" font-size="4.4" lengthAdjust="spacing" textLength="17.6" x="304.5793" y="459.7676">-barcode</text><text fill="#000000" font-family="sans-serif" font-size="4.4" lengthAdjust="spacing" textLength="28.4" x="304.5793" y="465.302">-dateCollection</text><text fill="#000000" font-family="sans-serif" font-size="4.4" lengthAdjust="spacing" textLength="27.6" x="304.5793" y="470.8363">-timeCollection</text><line style="stroke:#A80036;stroke-width:0.6000000000000001;" x1="302.5793" x2="334.9793" y1="473.4031" y2="473.4031"/><!--MD5=[1e5329fc67d8218f135f70ba961513ea]
class SampleType--><rect codeLine="87" fill="#FEFECE" filter="url(#fdt1drw5rwpj3)" height="19.2" id="SampleType" style="stroke:#A80036;stroke-width:0.6000000000000001;" width="40.4" x="399.3793" y="364.6"/><ellipse cx="405.3793" cy="371" fill="#ADD1B2" rx="4.4" ry="4.4" style="stroke:#A80036;stroke-width:0.4;"/><path d="M406.1793,369.6 Q406.2605,369.4 406.3543,369.3 Q406.448,369.2 406.5543,369.2 Q406.7418,369.2 406.8605,369.3125 Q406.9793,369.425 406.9793,369.6875 L406.9793,370.3125 Q406.9793,370.575 406.8668,370.6875 Q406.7543,370.8 406.5793,370.8 Q406.423,370.8 406.323,370.7313 Q406.223,370.6625 406.1793,370.4813 Q406.1605,370.3563 406.0918,370.2875 Q405.9668,370.1563 405.7418,370.0813 Q405.5168,370 405.2918,370 Q405.0105,370 404.773,370.1125 Q404.5418,370.225 404.3605,370.475 Q404.1793,370.725 404.1793,371.0688 L404.1793,371.4375 Q404.1793,371.85 404.5168,372.125 Q404.8543,372.4 405.4543,372.4 Q405.8105,372.4 406.0605,372.3188 Q406.2043,372.275 406.3668,372.1313 Q406.473,372.05 406.5293,372.025 Q406.5855,372 406.6543,372 Q406.7855,372 406.8793,372.1063 Q406.9793,372.2063 406.9793,372.35 Q406.9793,372.4875 406.8418,372.65 Q406.6418,372.8875 406.323,373.0188 Q405.9043,373.2 405.3918,373.2 Q404.7918,373.2 404.3105,372.9625 Q403.923,372.775 403.648,372.3688 Q403.3793,371.9625 403.3793,371.4813 L403.3793,371.0438 Q403.3793,370.5438 403.6168,370.1063 Q403.8605,369.6688 404.2793,369.4375 Q404.7043,369.2 405.1793,369.2 Q405.4668,369.2 405.7168,369.3 Q405.9668,369.4 406.1793,369.6 Z " fill="#000000"/><text fill="#000000" font-family="sans-serif" font-size="4.8" lengthAdjust="spacing" textLength="27.6" x="410.9793" y="372.9641">SampleType</text><line style="stroke:#A80036;stroke-width:0.6000000000000001;" x1="399.7793" x2="439.3793" y1="377.4" y2="377.4"/><line style="stroke:#A80036;stroke-width:0.6000000000000001;" x1="399.7793" x2="439.3793" y1="380.6" y2="380.6"/><!--MD5=[7d96fd15f3014691d2fcaf89c5791e2a]
class SpecialistDoctor--><rect codeLine="88" fill="#FEFECE" filter="url(#fdt1drw5rwpj3)" height="24.7344" id="SpecialistDoctor" style="stroke:#A80036;stroke-width:0.6000000000000001;" width="48.8" x="417.5793" y="125.8"/><ellipse cx="423.5793" cy="132.2" fill="#ADD1B2" rx="4.4" ry="4.4" style="stroke:#A80036;stroke-width:0.4;"/><path d="M424.3793,130.8 Q424.4605,130.6 424.5543,130.5 Q424.648,130.4 424.7543,130.4 Q424.9418,130.4 425.0605,130.5125 Q425.1793,130.625 425.1793,130.8875 L425.1793,131.5125 Q425.1793,131.775 425.0668,131.8875 Q424.9543,132 424.7793,132 Q424.623,132 424.523,131.9313 Q424.423,131.8625 424.3793,131.6813 Q424.3605,131.5563 424.2918,131.4875 Q424.1668,131.3563 423.9418,131.2813 Q423.7168,131.2 423.4918,131.2 Q423.2105,131.2 422.973,131.3125 Q422.7418,131.425 422.5605,131.675 Q422.3793,131.925 422.3793,132.2688 L422.3793,132.6375 Q422.3793,133.05 422.7168,133.325 Q423.0543,133.6 423.6543,133.6 Q424.0105,133.6 424.2605,133.5188 Q424.4043,133.475 424.5668,133.3313 Q424.673,133.25 424.7293,133.225 Q424.7855,133.2 424.8543,133.2 Q424.9855,133.2 425.0793,133.3063 Q425.1793,133.4063 425.1793,133.55 Q425.1793,133.6875 425.0418,133.85 Q424.8418,134.0875 424.523,134.2188 Q424.1043,134.4 423.5918,134.4 Q422.9918,134.4 422.5105,134.1625 Q422.123,133.975 421.848,133.5688 Q421.5793,133.1625 421.5793,132.6813 L421.5793,132.2438 Q421.5793,131.7438 421.8168,131.3063 Q422.0605,130.8688 422.4793,130.6375 Q422.9043,130.4 423.3793,130.4 Q423.6668,130.4 423.9168,130.5 Q424.1668,130.6 424.3793,130.8 Z " fill="#000000"/><text fill="#000000" font-family="sans-serif" font-size="4.8" lengthAdjust="spacing" textLength="36" x="429.1793" y="134.1641">SpecialistDoctor</text><line style="stroke:#A80036;stroke-width:0.6000000000000001;" x1="417.9793" x2="465.9793" y1="138.6" y2="138.6"/><text fill="#000000" font-family="sans-serif" font-size="4.4" lengthAdjust="spacing" textLength="39.2" x="419.9793" y="144.7676">-doctorIndexNumber</text><line style="stroke:#A80036;stroke-width:0.6000000000000001;" x1="417.9793" x2="465.9793" y1="147.3344" y2="147.3344"/><!--MD5=[7d17329589c8a1a28e6f8826215bde21]
link Administrator to Category--><path codeLine="92" d="M120.3793,736.032 C120.3793,746.224 120.3793,762.868 120.3793,775.576 " fill="none" id="Administrator-Category" style="stroke:#A80036;stroke-width:0.4;"/><polygon fill="#000000" points="122.3793,758.0703,121.2037,761.6883,123.5549,761.6883,122.3793,758.0703" style="stroke:#000000;stroke-width:0.4;"/><text fill="#000000" font-family="sans-serif" font-size="5.2" lengthAdjust="spacing" textLength="24.4" x="125.9793" y="762.198">created by</text><text fill="#000000" font-family="sans-serif" font-size="5.2" lengthAdjust="spacing" textLength="2.8" x="117.238" y="744.575">1</text><text fill="#000000" font-family="sans-serif" font-size="5.2" lengthAdjust="spacing" textLength="2" x="118.2199" y="771.2184">*</text><!--MD5=[47855ee4dabeea37c5949a17ed9e3a41]
link ChemicalLaboratory to Sample--><path codeLine="93" d="M374.7873,220.536 C375.1833,256.508 374.5553,333.608 363.9793,397.6 C361.6313,411.816 363.0913,416.76 355.1793,428.8 C350.1233,436.492 342.4393,443.16 335.4313,448.212 " fill="none" id="ChemicalLaboratory-Sample" style="stroke:#A80036;stroke-width:0.4;"/><polygon fill="#000000" points="374.8386,312.0411,376.6133,308.6762,374.2965,308.2757,374.8386,312.0411" style="stroke:#000000;stroke-width:0.4;"/><text fill="#000000" font-family="sans-serif" font-size="5.2" lengthAdjust="spacing" textLength="20.8" x="378.7793" y="312.198">analyses</text><text fill="#000000" font-family="sans-serif" font-size="5.2" lengthAdjust="spacing" textLength="2.8" x="371.854" y="229.1507">1</text><text fill="#000000" font-family="sans-serif" font-size="5.2" lengthAdjust="spacing" textLength="2" x="338.5756" y="444.7841">*</text><!--MD5=[0bde84c484199f8c429a86e32cc6847f]
link Client to LabOrder--><path codeLine="94" d="M273.2993,677.268 C275.5713,688.94 278.0393,701.636 279.8913,711.144 " fill="none" id="Client-LabOrder" style="stroke:#A80036;stroke-width:0.4;"/><polygon fill="#000000" points="279.1613,694.8335,279.6242,691.0575,277.3163,691.5066,279.1613,694.8335" style="stroke:#000000;stroke-width:0.4;"/><text fill="#000000" font-family="sans-serif" font-size="5.2" lengthAdjust="spacing" textLength="12.8" x="282.3793" y="694.998">has a</text><text fill="#000000" font-family="sans-serif" font-size="5.2" lengthAdjust="spacing" textLength="2.8" x="270.9049" y="685.6911">1</text><text fill="#000000" font-family="sans-serif" font-size="5.2" lengthAdjust="spacing" textLength="2" x="277.1987" y="706.8788">*</text><!--MD5=[6f5a8b15e66799c0d601e2bda0c1caed]
link ClinicalAnalysisLaboratory to Sample--><path codeLine="95" d="M200.9033,397.716 C215.1473,407.94 232.5873,419.688 249.1793,428.8 C266.6153,438.376 287.7913,446.984 302.1713,452.416 " fill="none" id="ClinicalAnalysisLaboratory-Sample" style="stroke:#A80036;stroke-width:0.4;"/><polygon fill="#000000" points="252.939,420.2208,250.3144,417.467,249.197,419.5357,252.939,420.2208" style="stroke:#000000;stroke-width:0.4;"/><text fill="#000000" font-family="sans-serif" font-size="5.2" lengthAdjust="spacing" textLength="18" x="254.7793" y="421.398">collects</text><text fill="#000000" font-family="sans-serif" font-size="5.2" lengthAdjust="spacing" textLength="2.8" x="201.4708" y="406.2071">1</text><text fill="#000000" font-family="sans-serif" font-size="5.2" lengthAdjust="spacing" textLength="2" x="296.9248" y="449.6781">*</text><!--MD5=[2eb961b30663a01bbfd8b4b9b8950031]
link ClinicalAnalysisLaboratory to TestType--><path codeLine="96" d="M170.0393,397.656 C169.2193,452.892 167.1753,591.304 166.5593,632.956 " fill="none" id="ClinicalAnalysisLaboratory-TestType" style="stroke:#A80036;stroke-width:0.4;"/><polygon fill="#000000" points="170.3497,494.4701,171.5787,490.8698,169.2278,490.8351,170.3497,494.4701" style="stroke:#000000;stroke-width:0.4;"/><text fill="#000000" font-family="sans-serif" font-size="5.2" lengthAdjust="spacing" textLength="20" x="173.9793" y="494.598">performs</text><text fill="#000000" font-family="sans-serif" font-size="5.2" lengthAdjust="spacing" textLength="2.8" x="167.0272" y="406.3069">1</text><text fill="#000000" font-family="sans-serif" font-size="5.2" lengthAdjust="spacing" textLength="2" x="164.3902" y="628.7487">*</text><!--MD5=[98994e1502641fa381021dffe882d56a]
link ClinicalChemistryTechnologist to Sample--><path codeLine="97" d="M316.9993,383.888 C317.3273,397.568 317.9433,423.384 318.3593,440.74 " fill="none" id="ClinicalChemistryTechnologist-Sample" style="stroke:#A80036;stroke-width:0.4;"/><polygon fill="#000000" points="319.9315,417.2709,318.8428,420.916,321.1932,420.8598,319.9315,417.2709" style="stroke:#000000;stroke-width:0.4;"/><text fill="#000000" font-family="sans-serif" font-size="5.2" lengthAdjust="spacing" textLength="28" x="323.5793" y="421.398">analysed by</text><text fill="#000000" font-family="sans-serif" font-size="5.2" lengthAdjust="spacing" textLength="2.8" x="313.9117" y="392.4446">1</text><text fill="#000000" font-family="sans-serif" font-size="5.2" lengthAdjust="spacing" textLength="2" x="316.1419" y="436.5084">*</text><!--MD5=[742a261f27a3dcd734c626287d811acd]
link Company to TestType--><path codeLine="98" d="M102.5633,71.564 C77.6033,80.924 33.9793,102.352 33.9793,137.8 C33.9793,137.8 33.9793,137.8 33.9793,545.6 C33.9793,602.944 114.3873,631.276 149.8793,640.992 " fill="none" id="Company-TestType" style="stroke:#A80036;stroke-width:0.4;"/><polygon fill="#000000" points="36.1449,337.2634,37.0168,333.5605,34.6738,333.7552,36.1449,337.2634" style="stroke:#000000;stroke-width:0.4;"/><text fill="#000000" font-family="sans-serif" font-size="5.2" lengthAdjust="spacing" textLength="21.2" x="39.5793" y="337.398">conducts</text><text fill="#000000" font-family="sans-serif" font-size="5.2" lengthAdjust="spacing" textLength="2.8" x="96.598" y="78.5548">1</text><text fill="#000000" font-family="sans-serif" font-size="5.2" lengthAdjust="spacing" textLength="2" x="144.7621" y="638.6532">*</text><!--MD5=[cc1f60f7fb1c702a98cbcc58aaecd7da]
link Company to Category--><path codeLine="99" d="M102.5113,68.656 C70.7113,74.68 5.5793,92.54 5.5793,137.8 C5.5793,137.8 5.5793,137.8 5.5793,726.8 C5.5793,771.812 72.5313,786.8 104.1753,791.368 " fill="none" id="Company-Category" style="stroke:#A80036;stroke-width:0.4;"/><polygon fill="#000000" points="7.5839,421.2703,8.7511,417.6496,6.4,417.655,7.5839,421.2703" style="stroke:#000000;stroke-width:0.4;"/><text fill="#000000" font-family="sans-serif" font-size="5.2" lengthAdjust="spacing" textLength="8.4" x="11.1793" y="421.398">has</text><text fill="#000000" font-family="sans-serif" font-size="5.2" lengthAdjust="spacing" textLength="2.8" x="96.5371" y="67.647">1</text><text fill="#000000" font-family="sans-serif" font-size="5.2" lengthAdjust="spacing" textLength="2" x="99.0033" y="789.3956">*</text><!--MD5=[aafc5d8a5829a6a8d6dc892cb1ff5d24]
link Company to ClinicalAnalysisLaboratory--><path codeLine="100" d="M113.6393,78.072 C99.5393,108.252 66.2313,189.428 79.9793,257.2 C87.7313,295.42 118.2393,329.42 141.6913,350.7 " fill="none" id="Company-ClinicalAnalysisLaboratory" style="stroke:#A80036;stroke-width:0.4;"/><polygon fill="#000000" points="82.184,246.8598,82.9831,243.1405,80.6443,243.3811,82.184,246.8598" style="stroke:#000000;stroke-width:0.4;"/><text fill="#000000" font-family="sans-serif" font-size="5.2" lengthAdjust="spacing" textLength="12" x="85.5793" y="246.998">owns</text><text fill="#000000" font-family="sans-serif" font-size="5.2" lengthAdjust="spacing" textLength="2.8" x="109.3942" y="86.5758">1</text><text fill="#000000" font-family="sans-serif" font-size="5.2" lengthAdjust="spacing" textLength="2" x="136.0731" y="346.4482">*</text><!--MD5=[d6a5ae732362cd0f86c2003645f951b1]
link Company to ChemicalLaboratory--><path codeLine="101" d="M136.6793,68.716 C164.9193,73.696 222.4993,85.984 265.9793,109.2 C300.7513,127.768 334.6593,158.656 355.0393,179.024 " fill="none" id="Company-ChemicalLaboratory" style="stroke:#A80036;stroke-width:0.4;"/><polygon fill="#000000" points="242.5644,94.5721,239.8651,91.8915,238.805,93.99,242.5644,94.5721" style="stroke:#000000;stroke-width:0.4;"/><text fill="#000000" font-family="sans-serif" font-size="5.2" lengthAdjust="spacing" textLength="12" x="244.3793" y="95.798">owns</text><text fill="#000000" font-family="sans-serif" font-size="5.2" lengthAdjust="spacing" textLength="2.8" x="139.7434" y="67.7172">1</text><text fill="#000000" font-family="sans-serif" font-size="5.2" lengthAdjust="spacing" textLength="2.8" x="349.4524" y="174.8005">1</text><!--MD5=[15b96e4919f31c1f6d0b47c59fe8e2bf]
link Diagnosis to LaboratoryCoordinator--><path codeLine="102" d="M448.3673,319.652 C450.5073,325.356 453.5833,332.716 457.1793,338.8 C462.6913,348.128 470.4273,357.72 476.3113,364.5 " fill="none" id="Diagnosis-LaboratoryCoordinator" style="stroke:#A80036;stroke-width:0.4;"/><polygon fill="#000000" points="460.2369,336.9678,459.3214,333.2754,457.3259,334.5187,460.2369,336.9678" style="stroke:#000000;stroke-width:0.4;"/><text fill="#000000" font-family="sans-serif" font-size="5.2" lengthAdjust="spacing" textLength="27.2" x="462.7793" y="337.398">validated by</text><text fill="#000000" font-family="sans-serif" font-size="5.2" lengthAdjust="spacing" textLength="2" x="446.9006" y="328.1999">*</text><text fill="#000000" font-family="sans-serif" font-size="5.2" lengthAdjust="spacing" textLength="2.8" x="470.9826" y="360.2104">1</text><!--MD5=[fd5f5b962c28af1c88b5bc5c4cfdb2d8]
link Diagnosis to SpecialistDoctor--><path codeLine="103" d="M441.2953,300.348 C437.2233,290.04 431.1433,272.772 429.1793,257.2 C424.2793,218.368 433.5913,172.228 438.7993,150.74 " fill="none" id="Diagnosis-SpecialistDoctor" style="stroke:#A80036;stroke-width:0.4;"/><polygon fill="#000000" points="431.2127,246.87,432.3277,243.2329,429.9769,243.2721,431.2127,246.87" style="stroke:#000000;stroke-width:0.4;"/><text fill="#000000" font-family="sans-serif" font-size="5.2" lengthAdjust="spacing" textLength="22.8" x="434.7793" y="246.998">generates</text><text fill="#000000" font-family="sans-serif" font-size="5.2" lengthAdjust="spacing" textLength="2" x="438.0438" y="296.0707">*</text><text fill="#000000" font-family="sans-serif" font-size="5.2" lengthAdjust="spacing" textLength="2.8" x="435.1262" y="159.1581">1</text><!--MD5=[0a29b4543c1af9e8341b856b8b8ec05c]
link MedicalLabTechnician to Sample--><path codeLine="104" d="M265.5873,288.416 C261.5993,308.968 254.2953,359.7 269.9793,397.6 C277.1993,415.048 291.0433,431.532 302.1433,442.924 " fill="none" id="MedicalLabTechnician-Sample" style="stroke:#A80036;stroke-width:0.4;"/><polygon fill="#000000" points="261.9188,333.324,261.6078,337.1155,263.8958,336.5742,261.9188,333.324" style="stroke:#000000;stroke-width:0.4;"/><text fill="#000000" font-family="sans-serif" font-size="5.2" lengthAdjust="spacing" textLength="28" x="265.9793" y="337.398">collected by</text><text fill="#000000" font-family="sans-serif" font-size="5.2" lengthAdjust="spacing" textLength="2.8" x="261.9605" y="296.9551">1</text><text fill="#000000" font-family="sans-serif" font-size="5.2" lengthAdjust="spacing" textLength="2" x="297.0019" y="438.5542">*</text><!--MD5=[19be1708881710afac89d72e827851dc]
link NHS to Company--><path codeLine="105" d="M119.5793,22.048 C119.5793,30.684 119.5793,43.632 119.5793,53.092 " fill="none" id="NHS-Company" style="stroke:#A80036;stroke-width:0.4;"/><polygon fill="#000000" points="121.5793,39.6703,122.7549,36.0523,120.4037,36.0523,121.5793,39.6703" style="stroke:#000000;stroke-width:0.4;"/><text fill="#000000" font-family="sans-serif" font-size="5.2" lengthAdjust="spacing" textLength="40.8" x="125.1793" y="39.798">requests report to</text><text fill="#000000" font-family="sans-serif" font-size="5.2" lengthAdjust="spacing" textLength="2.8" x="116.438" y="30.5949">1</text><text fill="#000000" font-family="sans-serif" font-size="5.2" lengthAdjust="spacing" textLength="2.8" x="116.4905" y="48.8715">1</text><!--MD5=[852f3a1b1bcfc6074ebcba484562eac0]
link Parameter to Category--><path codeLine="106" d="M346.0273,733.684 C334.1633,736.964 319.7473,740.92 306.7793,744.4 C243.9393,761.264 168.9873,780.672 136.6033,789.024 " fill="none" id="Parameter-Category" style="stroke:#A80036;stroke-width:0.4;"/><polygon fill="#000000" points="260.8457,760.5813,264.644,760.7935,264.0433,758.5204,260.8457,760.5813" style="stroke:#000000;stroke-width:0.4;"/><text fill="#000000" font-family="sans-serif" font-size="5.2" lengthAdjust="spacing" textLength="37.2" x="266.3793" y="762.198">presented under</text><text fill="#000000" font-family="sans-serif" font-size="5.2" lengthAdjust="spacing" textLength="2" x="341.0497" y="733.1738">*</text><text fill="#000000" font-family="sans-serif" font-size="5.2" lengthAdjust="spacing" textLength="2.8" x="139.7426" y="786.667">1</text><!--MD5=[15b2848963e3cb1b607833a8179862c1]
link ParameterResult to Parameter--><path codeLine="107" d="M566.8353,428.836 C568.5953,442.58 571.5793,469.236 571.5793,492 C571.5793,492 571.5793,492 571.5793,645.8 C571.5793,683.34 449.0193,711.172 395.4033,721.556 " fill="none" id="ParameterResult-Parameter" style="stroke:#A80036;stroke-width:0.4;"/><polygon fill="#000000" points="572.5686,546.9961,575.4114,544.4682,573.3826,543.28,572.5686,546.9961" style="stroke:#000000;stroke-width:0.4;"/><text fill="#000000" font-family="sans-serif" font-size="5.2" lengthAdjust="spacing" textLength="31.2" x="577.1793" y="547.398">associated to</text><text fill="#000000" font-family="sans-serif" font-size="5.2" lengthAdjust="spacing" textLength="2.8" x="564.0002" y="437.38">1</text><text fill="#000000" font-family="sans-serif" font-size="5.2" lengthAdjust="spacing" textLength="2.8" x="398.575" y="719.5943">1</text><!--MD5=[6a35157f4c730bda767e7c9f1b8b7f73]
link Receptionist to Client--><path codeLine="108" d="M223.1873,468.516 C214.7793,489.56 197.2193,542.068 212.3793,582.4 C219.9753,602.612 237.3913,620.568 250.5633,632.008 " fill="none" id="Receptionist-Client" style="stroke:#A80036;stroke-width:0.4;"/><polygon fill="#000000" points="214.7096,547.2429,215.2715,543.4804,212.9527,543.8686,214.7096,547.2429" style="stroke:#000000;stroke-width:0.4;"/><text fill="#000000" font-family="sans-serif" font-size="5.2" lengthAdjust="spacing" textLength="20" x="217.9793" y="547.398">registers</text><text fill="#000000" font-family="sans-serif" font-size="5.2" lengthAdjust="spacing" textLength="2.8" x="219.1404" y="476.9171">1</text><text fill="#000000" font-family="sans-serif" font-size="5.2" lengthAdjust="spacing" textLength="2" x="245.4254" y="628.0743">*</text><!--MD5=[e8b34c2e6517a986175307f5599f058a]
link Receptionist to Test--><path codeLine="109" d="M242.9553,468.452 C257.6033,477.472 279.5593,492.12 295.9793,508 C299.8473,511.74 303.6073,516.04 307.0513,520.356 " fill="none" id="Receptionist-Test" style="stroke:#A80036;stroke-width:0.4;"/><polygon fill="#000000" points="285.5336,493.729,283.4617,490.5385,281.982,492.3656,285.5336,493.729" style="stroke:#000000;stroke-width:0.4;"/><text fill="#000000" font-family="sans-serif" font-size="5.2" lengthAdjust="spacing" textLength="20" x="287.5793" y="494.598">registers</text><text fill="#000000" font-family="sans-serif" font-size="5.2" lengthAdjust="spacing" textLength="2.8" x="243.6594" y="476.9999">1</text><text fill="#000000" font-family="sans-serif" font-size="5.2" lengthAdjust="spacing" textLength="2" x="301.9699" y="514.5337">*</text><!--MD5=[9ea131e34883d590a1cfd41d17f43241]
link Report to Diagnosis--><path codeLine="110" d="M464.8313,250.872 C457.1833,254.788 448.3793,260.816 443.9793,269.2 C438.8913,278.892 440.4473,291.772 442.4433,300.36 " fill="none" id="Report-Diagnosis" style="stroke:#A80036;stroke-width:0.4;"/><polygon fill="#000000" points="445.1549,280.6925,447.7173,277.8807,445.5751,276.9116,445.1549,280.6925" style="stroke:#000000;stroke-width:0.4;"/><text fill="#000000" font-family="sans-serif" font-size="5.2" lengthAdjust="spacing" textLength="19.6" x="449.5793" y="280.998">contains</text><text fill="#000000" font-family="sans-serif" font-size="5.2" lengthAdjust="spacing" textLength="2.8" x="459.0097" y="250.4558">1</text><text fill="#000000" font-family="sans-serif" font-size="5.2" lengthAdjust="spacing" textLength="2.8" x="442.1009" y="296.0858">1</text><!--MD5=[0e54f9b161a60743d9b464e5484a1c06]
link Report to TestResult--><path codeLine="111" d="M478.2313,257.248 C478.3593,266.432 479.7713,279.048 485.5793,288.4 C488.5393,293.168 493.0113,297.164 497.6033,300.352 " fill="none" id="Report-TestResult" style="stroke:#A80036;stroke-width:0.4;"/><polygon fill="#000000" points="488.3991,280.6945,487.9883,276.9126,485.8438,277.8764,488.3991,280.6945" style="stroke:#000000;stroke-width:0.4;"/><text fill="#000000" font-family="sans-serif" font-size="5.2" lengthAdjust="spacing" textLength="31.2" x="491.1793" y="280.998">associated to</text><text fill="#000000" font-family="sans-serif" font-size="5.2" lengthAdjust="spacing" textLength="2.8" x="475.0478" y="265.747">1</text><text fill="#000000" font-family="sans-serif" font-size="5.2" lengthAdjust="spacing" textLength="2.8" x="491.2308" y="296.9942">1</text><!--MD5=[a23f50aea1fcb140948e132a9bfce5a1]
link Sample to Client--><path codeLine="112" d="M302.1553,466.5 C292.2033,471.564 279.9153,479.132 271.5793,488.8 C265.4953,495.856 265.0873,498.884 263.1793,508 C255.7393,543.576 258.5993,585.472 262.1193,613.48 " fill="none" id="Sample-Client" style="stroke:#A80036;stroke-width:0.4;"/><polygon fill="#000000" points="264.6537,547.2,266.7388,544.0181,264.4703,543.4002,264.6537,547.2" style="stroke:#000000;stroke-width:0.4;"/><text fill="#000000" font-family="sans-serif" font-size="5.2" lengthAdjust="spacing" textLength="31.2" x="268.7793" y="547.398">associated to</text><text fill="#000000" font-family="sans-serif" font-size="5.2" lengthAdjust="spacing" textLength="2" x="297.016" y="466.3297">*</text><text fill="#000000" font-family="sans-serif" font-size="5.2" lengthAdjust="spacing" textLength="2.8" x="258.7238" y="609.2527">1</text><!--MD5=[1ae83efc6d1967ce5bc17dfe294d00c2]
link Sample to Test--><path codeLine="113" d="M318.9193,476.804 C319.0313,482.888 319.2313,489.748 319.5793,496 C319.7953,499.864 320.0753,503.896 320.3833,507.916 " fill="none" id="Sample-Test" style="stroke:#A80036;stroke-width:0.4;"/><polygon fill="#000000" points="321.6733,494.4681,322.6775,490.7988,320.329,490.9093,321.6733,494.4681" style="stroke:#000000;stroke-width:0.4;"/><text fill="#000000" font-family="sans-serif" font-size="5.2" lengthAdjust="spacing" textLength="31.2" x="325.1793" y="494.598">associated to</text><text fill="#000000" font-family="sans-serif" font-size="5.2" lengthAdjust="spacing" textLength="2" x="316.7984" y="485.2076">*</text><text fill="#000000" font-family="sans-serif" font-size="5.2" lengthAdjust="spacing" textLength="2.8" x="317.1852" y="503.6879">1</text><!--MD5=[b72ac8ab7fb5921fceb5036a3902baea]
link Test to Sample--><path codeLine="122" d="M340.8553,531.708 C353.0033,520.588 366.0193,504.052 358.3793,488.8 C353.5553,479.168 343.9433,471.868 335.3993,466.924 " fill="none" id="Test-Sample" style="stroke:#A80036;stroke-width:0.4;"/><polygon fill="#000000" points="362.2115,490.4774,361.3437,494.1813,363.6865,493.984,362.2115,490.4774" style="stroke:#000000;stroke-width:0.4;"/><text fill="#000000" font-family="sans-serif" font-size="5.2" lengthAdjust="spacing" textLength="18" x="365.9793" y="494.598">collects</text><text fill="#000000" font-family="sans-serif" font-size="5.2" lengthAdjust="spacing" textLength="2.8" x="343.9965" y="527.8368">1</text><text fill="#000000" font-family="sans-serif" font-size="5.2" lengthAdjust="spacing" textLength="2" x="338.5379" y="466.8292">*</text><!--MD5=[25a58075d12b4e24c3095e04bee16a0d]
link SampleType to Sample--><path codeLine="114" d="M415.8473,383.824 C410.6473,395.656 400.1873,416.144 385.5793,428.8 C370.9113,441.508 349.9153,449.596 335.3953,454.052 " fill="none" id="SampleType-Sample" style="stroke:#A80036;stroke-width:0.4;"/><polygon fill="#000000" points="404.686,417.9551,401.1873,419.4487,402.7334,421.22,404.686,417.9551" style="stroke:#000000;stroke-width:0.4;"/><text fill="#000000" font-family="sans-serif" font-size="5.2" lengthAdjust="spacing" textLength="9.6" x="406.7793" y="421.398">is of</text><text fill="#000000" font-family="sans-serif" font-size="5.2" lengthAdjust="spacing" textLength="2.8" x="411.7964" y="392.365">1</text><text fill="#000000" font-family="sans-serif" font-size="5.2" lengthAdjust="spacing" textLength="2.8" x="338.6044" y="459.2044">1</text><!--MD5=[35c5d5b78cc27fdb07caaeeaa436e174]
link SpecialistDoctor to Report--><path codeLine="115" d="M446.1633,150.632 C453.2473,170.996 467.5153,212.02 474.5993,232.376 " fill="none" id="SpecialistDoctor-Report" style="stroke:#A80036;stroke-width:0.4;"/><polygon fill="#000000" points="472.2364,201.7593,472.158,197.9559,469.9374,198.7283,472.2364,201.7593" style="stroke:#000000;stroke-width:0.4;"/><text fill="#000000" font-family="sans-serif" font-size="5.2" lengthAdjust="spacing" textLength="22.8" x="475.1793" y="201.998">generates</text><text fill="#000000" font-family="sans-serif" font-size="5.2" lengthAdjust="spacing" textLength="2.8" x="443.9114" y="159.1279">1</text><text fill="#000000" font-family="sans-serif" font-size="5.2" lengthAdjust="spacing" textLength="2" x="471.4662" y="227.9789">*</text><!--MD5=[3994f36c72829dbcddd1cf7021dddf61]
link Test to Client--><path codeLine="116" d="M307.1713,570.168 C303.7113,574.472 299.9193,578.736 295.9793,582.4 C288.8313,589.048 283.0753,586.328 277.5793,594.4 C273.7433,600.032 271.2673,606.784 269.6833,613.488 " fill="none" id="Test-Client" style="stroke:#A80036;stroke-width:0.4;"/><polygon fill="#000000" points="278.2705,599.5827,281.527,597.6161,279.7492,596.0775,278.2705,599.5827" style="stroke:#000000;stroke-width:0.4;"/><text fill="#000000" font-family="sans-serif" font-size="5.2" lengthAdjust="spacing" textLength="30" x="283.1793" y="600.198">requested by</text><text fill="#000000" font-family="sans-serif" font-size="5.2" lengthAdjust="spacing" textLength="2" x="301.9992" y="573.0432">*</text><text fill="#000000" font-family="sans-serif" font-size="5.2" lengthAdjust="spacing" textLength="2.8" x="266.9851" y="609.2614">1</text><!--MD5=[7e4bc624457760b649895ff2ead938fa]
link Company to Test--><path codeLine="117" d="M136.6753,66.712 C222.2553,70.504 599.9793,89.944 599.9793,137.8 C599.9793,137.8 599.9793,137.8 599.9793,419.6 C599.9793,534.04 400.7513,544.396 340.8273,544.92 " fill="none" id="Company-Test" style="stroke:#A80036;stroke-width:0.4;"/><polygon fill="#000000" points="602.7645,311.9097,602.4252,308.1206,600.2628,309.0438,602.7645,311.9097" style="stroke:#000000;stroke-width:0.4;"/><text fill="#000000" font-family="sans-serif" font-size="5.2" lengthAdjust="spacing" textLength="20" x="605.5793" y="312.198">performs</text><text fill="#000000" font-family="sans-serif" font-size="5.2" lengthAdjust="spacing" textLength="2.8" x="139.7387" y="65.3813">1</text><text fill="#000000" font-family="sans-serif" font-size="5.2" lengthAdjust="spacing" textLength="2" x="344.0065" y="543.2979">*</text><!--MD5=[c23963f6e403fc3ebec8dae22c30ade6]
link Test to Parameter--><path codeLine="118" d="M335.7833,582.52 C338.8553,592.564 342.0593,603.464 344.7793,613.6 C353.7033,646.872 362.3753,686.176 367.1033,708.384 " fill="none" id="Test-Parameter" style="stroke:#A80036;stroke-width:0.4;"/><polygon fill="#000000" points="362.4622,647.4111,362.7294,643.6163,360.4478,644.184,362.4622,647.4111" style="stroke:#000000;stroke-width:0.4;"/><text fill="#000000" font-family="sans-serif" font-size="5.2" lengthAdjust="spacing" textLength="46.4" x="365.5793" y="647.598">requests analysis of</text><text fill="#000000" font-family="sans-serif" font-size="5.2" lengthAdjust="spacing" textLength="2" x="334.6442" y="591.1469">*</text><text fill="#000000" font-family="sans-serif" font-size="5.2" lengthAdjust="spacing" textLength="8" x="357.8799" y="704.0276">1..*</text><!--MD5=[7ae31b06ecb5db678e40497ee74dd179]
link Test to LabOrder--><path codeLine="119" d="M321.2993,582.4 C318.2233,613.472 311.8113,658.776 298.7793,696.4 C297.0593,701.368 294.5713,706.5 292.0673,711.068 " fill="none" id="Test-LabOrder" style="stroke:#A80036;stroke-width:0.4;"/><polygon fill="#000000" points="318.7362,647.4206,320.6841,644.1529,318.3914,643.632,318.7362,647.4206" style="stroke:#000000;stroke-width:0.4;"/><text fill="#000000" font-family="sans-serif" font-size="5.2" lengthAdjust="spacing" textLength="18.4" x="322.7793" y="647.598">requires</text><text fill="#000000" font-family="sans-serif" font-size="5.2" lengthAdjust="spacing" textLength="2.8" x="318.1614" y="591.1435">1</text><text fill="#000000" font-family="sans-serif" font-size="5.2" lengthAdjust="spacing" textLength="2.8" x="290.623" y="706.9042">1</text><!--MD5=[e981d4f96c4342412d1e68160b30cf70]
link Test to TestType--><path codeLine="120" d="M307.1713,572.104 C303.8353,575.96 300.0793,579.576 295.9793,582.4 C280.4153,593.124 272.5753,587.004 255.1793,594.4 C228.7273,605.648 200.1913,622.924 182.8033,634.092 " fill="none" id="Test-TestType" style="stroke:#A80036;stroke-width:0.4;"/><polygon fill="#000000" points="255.3893,598.9625,259.1518,598.4007,258.103,596.2964,255.3893,598.9625" style="stroke:#000000;stroke-width:0.4;"/><text fill="#000000" font-family="sans-serif" font-size="5.2" lengthAdjust="spacing" textLength="9.6" x="260.7793" y="600.198">is of</text><text fill="#000000" font-family="sans-serif" font-size="5.2" lengthAdjust="spacing" textLength="2" x="301.9992" y="582.864">*</text><text fill="#000000" font-family="sans-serif" font-size="5.2" lengthAdjust="spacing" textLength="2.8" x="185.9782" y="630.5242">1</text><!--MD5=[73dffd3648c374487b6d8c6733c5b5e0]
link Test to TestResult--><path codeLine="121" d="M340.8233,539.712 C368.9313,530.6 426.1673,509.356 465.1793,476.8 C467.2673,475.056 521.7473,400.116 522.7793,397.6 C555.8513,316.844 537.0633,347.968 531.5793,331.6 C530.1273,327.272 527.4073,323.12 524.6153,319.656 " fill="none" id="Test-TestResult" style="stroke:#A80036;stroke-width:0.4;"/><polygon fill="#000000" points="517.2614,417.7353,514.0398,419.7586,515.8443,421.2658,517.2614,417.7353" style="stroke:#000000;stroke-width:0.4;"/><text fill="#000000" font-family="sans-serif" font-size="5.2" lengthAdjust="spacing" textLength="12.8" x="519.5793" y="421.398">has a</text><text fill="#000000" font-family="sans-serif" font-size="5.2" lengthAdjust="spacing" textLength="2.8" x="343.959" y="537.2165">1</text><text fill="#000000" font-family="sans-serif" font-size="5.2" lengthAdjust="spacing" textLength="2.8" x="523.6766" y="328.2048">1</text><!--MD5=[39307a57e800e669e446a1017bb37a9f]
link TestResult to LaboratoryCoordinator--><path codeLine="123" d="M505.7793,319.616 C502.5273,323.108 499.1433,327.284 496.7793,331.6 C491.0313,342.088 487.8233,355.584 486.1953,364.452 " fill="none" id="TestResult-LaboratoryCoordinator" style="stroke:#A80036;stroke-width:0.4;"/><polygon fill="#000000" points="497.9787,337.1031,500.5042,334.2581,498.3497,333.317,497.9787,337.1031" style="stroke:#000000;stroke-width:0.4;"/><text fill="#000000" font-family="sans-serif" font-size="5.2" lengthAdjust="spacing" textLength="27.2" x="502.3793" y="337.398">validated by</text><text fill="#000000" font-family="sans-serif" font-size="5.2" lengthAdjust="spacing" textLength="2" x="501.1468" y="328.1551">*</text><text fill="#000000" font-family="sans-serif" font-size="5.2" lengthAdjust="spacing" textLength="2.8" x="483.3992" y="360.3111">1</text><!--MD5=[b68fa5675f8a531b49dc6f7e20370c4c]
link TestResult to SpecialistDoctor--><path codeLine="124" d="M520.3473,300.352 C521.9633,296.724 523.5673,292.464 524.3793,288.4 C526.0473,280.032 525.4353,277.668 524.3793,269.2 C519.2753,228.252 525.2313,213.012 501.5793,179.2 C492.7873,166.632 478.7633,156.796 466.5273,149.956 " fill="none" id="TestResult-SpecialistDoctor" style="stroke:#A80036;stroke-width:0.4;"/><polygon fill="#000000" points="524.1054,242.9873,524.2176,246.7898,526.4313,245.9977,524.1054,242.9873" style="stroke:#000000;stroke-width:0.4;"/><text fill="#000000" font-family="sans-serif" font-size="5.2" lengthAdjust="spacing" textLength="28" x="528.3793" y="246.998">analysed by</text><text fill="#000000" font-family="sans-serif" font-size="5.2" lengthAdjust="spacing" textLength="2" x="519.3128" y="296.0758">*</text><text fill="#000000" font-family="sans-serif" font-size="5.2" lengthAdjust="spacing" textLength="2.8" x="469.5275" y="149.9553">1</text><!--MD5=[c3eab042445b9f1143b07b00e4f65a8d]
link TestResult to ClinicalChemistryTechnologist--><path codeLine="125" d="M497.0993,314.2 C473.9073,319.032 435.4753,327.268 421.5793,331.6 C391.4313,341 357.7553,355.268 336.9113,364.564 " fill="none" id="TestResult-ClinicalChemistryTechnologist" style="stroke:#A80036;stroke-width:0.4;"/><polygon fill="#000000" points="425.4872,334.6705,421.6832,334.6342,422.3883,336.8771,425.4872,334.6705" style="stroke:#000000;stroke-width:0.4;"/><text fill="#000000" font-family="sans-serif" font-size="5.2" lengthAdjust="spacing" textLength="22.8" x="427.1793" y="337.398">generates</text><text fill="#000000" font-family="sans-serif" font-size="5.2" lengthAdjust="spacing" textLength="2" x="491.9947" y="313.3686">*</text><text fill="#000000" font-family="sans-serif" font-size="5.2" lengthAdjust="spacing" textLength="2.8" x="338.9114" y="360.2908">1</text><!--MD5=[6351e58b5f8c8ec0a6ac945d352d6ad9]
link TestResult to ParameterResult--><path codeLine="126" d="M534.1153,318.064 C540.0393,321.388 546.0713,325.86 549.9793,331.6 C566.5113,355.88 567.0593,392.472 566.2713,409.484 " fill="none" id="TestResult-ParameterResult" style="stroke:#A80036;stroke-width:0.4;"/><polygon fill="#000000" points="555.8429,337.157,555.7514,333.3539,553.5334,334.134,555.8429,337.157" style="stroke:#000000;stroke-width:0.4;"/><text fill="#000000" font-family="sans-serif" font-size="5.2" lengthAdjust="spacing" textLength="8.4" x="558.7793" y="337.398">has</text><text fill="#000000" font-family="sans-serif" font-size="5.2" lengthAdjust="spacing" textLength="2.8" x="537.168" y="317.8176">1</text><text fill="#000000" font-family="sans-serif" font-size="5.2" lengthAdjust="spacing" textLength="2" x="564.1924" y="405.1903">*</text><!--MD5=[0985ee834cc881275852ed47ce1e01f6]
link TestType to Administrator--><path codeLine="127" d="M159.4913,657.808 C150.2433,673.932 134.0113,702.236 125.6633,716.788 " fill="none" id="TestType-Administrator" style="stroke:#A80036;stroke-width:0.4;"/><polygon fill="#000000" points="141.7842,694.6052,144.6041,692.0516,142.5646,690.8819,141.7842,694.6052" style="stroke:#000000;stroke-width:0.4;"/><text fill="#000000" font-family="sans-serif" font-size="5.2" lengthAdjust="spacing" textLength="24.4" x="146.3793" y="694.998">created by</text><text fill="#000000" font-family="sans-serif" font-size="5.2" lengthAdjust="spacing" textLength="2" x="155.9383" y="666.2992">*</text><text fill="#000000" font-family="sans-serif" font-size="5.2" lengthAdjust="spacing" textLength="2.8" x="123.8586" y="712.521">1</text><!--MD5=[5b7a9ded131023be416e27d15bcd6d77]
link TestType to Parameter--><path codeLine="128" d="M182.7793,656.608 C200.6233,667.94 230.3153,685.58 257.9793,696.4 C278.7793,704.536 285.1633,702.772 306.7793,708.4 C319.7713,711.784 334.1913,715.732 346.0513,719.032 " fill="none" id="TestType-Parameter" style="stroke:#A80036;stroke-width:0.4;"/><polygon fill="#000000" points="261.8474,693.5846,258.8878,691.1944,258.0481,693.3905,261.8474,693.5846" style="stroke:#000000;stroke-width:0.4;"/><text fill="#000000" font-family="sans-serif" font-size="5.2" lengthAdjust="spacing" textLength="8.4" x="263.5793" y="694.998">has</text><text fill="#000000" font-family="sans-serif" font-size="5.2" lengthAdjust="spacing" textLength="2.8" x="185.9499" y="657.0508">1</text><text fill="#000000" font-family="sans-serif" font-size="5.2" lengthAdjust="spacing" textLength="8" x="334.9092" y="716.8926">1..*</text><!--MD5=[f7fb1bbd8b4f4021e9754ae6fe2871a0]
reverse link Employee to Administrator--><path codeLine="129" d="M219.5113,169.604 C192.5193,209.408 147.9513,281.608 127.9793,350.8 C114.6833,396.86 120.3793,410.46 120.3793,458.4 C120.3793,458.4 120.3793,458.4 120.3793,645.8 C120.3793,671.488 120.3793,701.808 120.3793,716.736 " fill="none" id="Employee-backto-Administrator" style="stroke:#A80036;stroke-width:0.4;"/><polygon fill="none" points="217.2633,167.932,224.0953,162.912,221.8873,171.096,217.2633,167.932" style="stroke:#A80036;stroke-width:0.4;"/><!--MD5=[8f7dd94d56b58fc07b233ccd3dd98f8c]
link Administrator to Employee--><path codeLine="136" d="M113.2553,716.708 C102.9713,702.336 85.1793,673.476 85.1793,645.8 C85.1793,418.8 85.1793,418.8 85.1793,418.8 C85.1793,303.544 112.5353,269.32 184.3793,179.2 C195.1593,165.68 211.5793,154.664 224.0673,147.54 " fill="none" id="Administrator-Employee" style="stroke:#A80036;stroke-width:0.4;"/><polygon fill="#000000" points="87.9615,417.3072,86.1162,420.6339,88.424,421.0832,87.9615,417.3072" style="stroke:#000000;stroke-width:0.4;"/><text fill="#000000" font-family="sans-serif" font-size="5.2" lengthAdjust="spacing" textLength="20" x="91.1793" y="421.398">registers</text><text fill="#000000" font-family="sans-serif" font-size="5.2" lengthAdjust="spacing" textLength="2.8" x="108.271" y="712.4205">1</text><text fill="#000000" font-family="sans-serif" font-size="5.2" lengthAdjust="spacing" textLength="2" x="219.0012" y="147.5715">*</text><!--MD5=[4c7c52c4bf7e982cdae6fb6daeda4b43]
reverse link Employee to ClinicalChemistryTechnologist--><path codeLine="130" d="M260.5953,174.572 C261.3433,176.128 262.0753,177.676 262.7793,179.2 C280.8753,218.368 287.4393,227.68 299.1793,269.2 C308.9233,303.668 314.0193,346.14 315.9073,364.556 " fill="none" id="Employee-backto-ClinicalChemistryTechnologist" style="stroke:#A80036;stroke-width:0.4;"/><polygon fill="none" points="258.0153,175.676,256.9833,167.26,263.0353,173.196,258.0153,175.676" style="stroke:#A80036;stroke-width:0.4;"/><!--MD5=[8c76900db13228c02bafda6909b4bb57]
reverse link Employee to MedicalLabTechnician--><path codeLine="131" d="M248.3833,175.184 C254.2593,206.768 262.3353,250.204 265.8393,269.048 " fill="none" id="Employee-backto-MedicalLabTechnician" style="stroke:#A80036;stroke-width:0.4;"/><polygon fill="none" points="245.6153,175.604,246.9033,167.228,251.1193,174.58,245.6153,175.604" style="stroke:#A80036;stroke-width:0.4;"/><!--MD5=[7dae17bb55c59b06af656d7c83a51371]
reverse link Employee to LaboratoryCoordinator--><path codeLine="132" d="M265.2353,168.684 C272.2433,173.812 276.2233,173.936 282.3793,179.2 C336.1513,225.176 351.4033,238.452 385.5793,300.4 C394.2153,316.056 384.5393,326.564 397.5793,338.8 C413.9913,354.2 425.9753,342.208 446.7793,350.8 C455.5473,354.42 464.6593,359.872 471.7633,364.56 " fill="none" id="Employee-backto-LaboratoryCoordinator" style="stroke:#A80036;stroke-width:0.4;"/><polygon fill="none" points="263.3553,170.76,259.0353,163.468,266.9593,166.476,263.3553,170.76" style="stroke:#A80036;stroke-width:0.4;"/><!--MD5=[bfff716514ca687b645fe473c6e098a4]
reverse link Employee to Receptionist--><path codeLine="133" d="M234.1153,175.224 C230.6033,195.516 227.1793,221.252 227.1793,244.4 C227.1793,244.4 227.1793,244.4 227.1793,374.6 C227.1793,401.66 227.1793,433.636 227.1793,449.1 " fill="none" id="Employee-backto-Receptionist" style="stroke:#A80036;stroke-width:0.4;"/><polygon fill="none" points="231.3673,174.688,235.5353,167.308,236.8793,175.676,231.3673,174.688" style="stroke:#A80036;stroke-width:0.4;"/><!--MD5=[372bd27a178b4208a6d241b4516ac7e6]
reverse link Employee to SpecialistDoctor--><path codeLine="134" d="M267.0473,138.2 C317.1953,138.2 367.3473,138.2 417.4993,138.2 " fill="none" id="Employee-backto-SpecialistDoctor" style="stroke:#A80036;stroke-width:0.4;"/><polygon fill="none" points="266.9953,141,258.9953,138.2,266.9953,135.4,266.9953,141" style="stroke:#A80036;stroke-width:0.4;"/><!--MD5=[09366576ee87d48d594df10cacc83f45]
link Company to Employee--><path codeLine="135" d="M136.6713,76.06 C159.7553,89.644 200.6833,113.732 224.0113,127.46 " fill="none" id="Company-Employee" style="stroke:#A80036;stroke-width:0.4;"/><polygon fill="#000000" points="173.303,94.6847,170.7811,91.8365,169.5886,93.8628,173.303,94.6847" style="stroke:#000000;stroke-width:0.4;"/><text fill="#000000" font-family="sans-serif" font-size="5.2" lengthAdjust="spacing" textLength="8.4" x="175.1793" y="95.798">has</text><text fill="#000000" font-family="sans-serif" font-size="5.2" lengthAdjust="spacing" textLength="2.8" x="139.734" y="76.2776">1</text><text fill="#000000" font-family="sans-serif" font-size="5.2" lengthAdjust="spacing" textLength="8" x="212.9783" y="124.5118">1..*</text><!--MD5=[0e983f4860443f76db36d54e7f3ee406]
link SampleType to CollectionMethod--><path codeLine="137" d="M421.0433,383.888 C423.4473,399.144 428.2273,429.496 430.8833,446.372 " fill="none" id="SampleType-CollectionMethod" style="stroke:#A80036;stroke-width:0.4;"/><polygon fill="#000000" points="429.8904,421.246,430.4888,417.4891,428.1663,417.8549,429.8904,421.246" style="stroke:#000000;stroke-width:0.4;"/><text fill="#000000" font-family="sans-serif" font-size="5.2" lengthAdjust="spacing" textLength="8.4" x="433.1793" y="421.398">has</text><text fill="#000000" font-family="sans-serif" font-size="5.2" lengthAdjust="spacing" textLength="2.8" x="418.2589" y="392.4446">1</text><text fill="#000000" font-family="sans-serif" font-size="5.2" lengthAdjust="spacing" textLength="8" x="421.5935" y="441.974">1..*</text><!--MD5=[f9927f8f22bc9f61d080669066434153]
@startuml
skinparam classAttributeIconSize 0

class Administrator
class Category {
-code
-description
-nhsID
}
class ChemicalLaboratory {
-name
-address
-phoneNumber
-TIN
}
class CollectionMethod {
-designation
}
class Client {
-name
-cardNumber
-birthDate
-sex
-nhsID
-TIF
-phoneNumber
-email
}
class ClinicalAnalysisLaboratory {
-name
-address
-phoneNumber
-TIN
-laboratoryID
}
class ClinicalChemistryTechnologist
class Company {
-designation
}
class Diagnosis
class LabOrder {
-testType
-parameters
}
class Employee {
-employeeID
-organizationID
-name
-address
-phoneNumber
-email
-SOCcode
}
class LaboratoryCoordinator
class MedicalLabTechnician
class NHS
class Receptionist
class Test {
-internalCode
-nhsCode
-createdAt
-designation
-dateAnalysis
-timeAnalysis
-dateDiagnosis
-timeDiagnosis
-dateValidation
-timeValidation
}
class Parameter {
-designation
-upperReferenceValue
-lowerReferenceValue
}
class ParameterResult
class Report {
-textBody
}
class TestResult
class TestType {
-designation
}
class Sample {
-barcode
-dateCollection
-timeCollection
}
class SampleType
class SpecialistDoctor {
-doctorIndexNumber
}

Administrator "1"- -"*" Category : created by <
ChemicalLaboratory "1"- -"*" Sample : analyses >
Client "1"- -"*" LabOrder : has a >
ClinicalAnalysisLaboratory "1"- -"*" Sample : collects >
ClinicalAnalysisLaboratory "1"- -"*" TestType : performs >
ClinicalChemistryTechnologist "1"- -"*" Sample : analysed by <
Company "1"-down-"*" TestType : conducts >
Company "1"-down-"*" Category : has >
Company "1"-down-"*" ClinicalAnalysisLaboratory : owns >
Company "1"-down-"1" ChemicalLaboratory : owns >
Diagnosis "*"- -"1" LaboratoryCoordinator : validated by >
Diagnosis "*"- -"1" SpecialistDoctor : generates <
MedicalLabTechnician "1"- -"*" Sample : collected by <
NHS "1"- -"1" Company : requests report to >
Parameter "*"- -"1" Category : presented under >
ParameterResult "1"- -"1" Parameter : associated to >
Receptionist "1"- -"*" Client : registers >
Receptionist "1"- -"*" Test : registers >
Report "1"- -"1" Diagnosis : contains >
Report "1"- -"1" TestResult : associated to >
Sample "*"- -"1" Client : associated to >
Sample "*"- -"1" Test : associated to >
SampleType "1"- -"1" Sample  : is of <
SpecialistDoctor "1"- -"*" Report : generates >
Test "*"- -"1" Client : requested by >
Test "*"-up-"1" Company : performs <
Test "*"- -"1..*" Parameter : requests analysis of >
Test "1"- -"1" LabOrder : requires >
Test "*"- -"1" "TestType" : is of >
Test "1"- -"1" TestResult : has a >
Test "1"- -"*" Sample : collects >
TestResult "*"- -"1" LaboratoryCoordinator : validated by >
TestResult "*"- -"1" SpecialistDoctor : analysed by >
TestResult "*"- -"1" ClinicalChemistryTechnologist : generates <
TestResult "1"- -"*" ParameterResult : has >
TestType "*"- -"1" Administrator : created by >
TestType "1"- -"1..*" Parameter : has >
Employee <|-down- Administrator
Employee <|-down- ClinicalChemistryTechnologist
Employee <|-down- MedicalLabTechnician
Employee <|-down- LaboratoryCoordinator
Employee <|-down- Receptionist
Employee <|-right- SpecialistDoctor
Company "1"- -"1..*" Employee : has >
Administrator "1"- -"*" Employee : registers >
SampleType "1"- -"1..*" CollectionMethod : has >
@enduml

PlantUML version 1.2021.2(Sun Mar 07 11:10:27 GMT 2021)
(GPL source distribution)
Java Runtime: OpenJDK Runtime Environment
JVM: OpenJDK 64-Bit Server VM
Default Encoding: Cp1252
Language: pt
Country: PT
--></g></svg>