<?xml version="1.0" encoding="UTF-8" standalone="no"?><svg xmlns="http://www.w3.org/2000/svg" xmlns:xlink="http://www.w3.org/1999/xlink" contentScriptType="application/ecmascript" contentStyleType="text/css" height="1249.8px" preserveAspectRatio="none" style="width:959px;height:1249px;" version="1.1" viewBox="0 0 959 1249" width="959.4px" zoomAndPan="magnify"><defs><filter height="300%" id="f8ou5ui02r7f1" width="300%" x="-1" y="-1"><feGaussianBlur result="blurOut" stdDeviation="1.2"/><feColorMatrix in="blurOut" result="blurOut2" type="matrix" values="0 0 0 0 0 0 0 0 0 0 0 0 0 0 0 0 0 0 .4 0"/><feOffset dx="2.4" dy="2.4" in="blurOut2" result="blurOut3"/><feBlend in="SourceGraphic" in2="blurOut3" mode="normal"/></filter></defs><g><!--MD5=[da547346deef918ea16944ba046651ef]
class Administrator--><rect codeLine="3" fill="#FEFECE" filter="url(#f8ou5ui02r7f1)" height="28.8" id="Administrator" style="stroke:#A80036;stroke-width:0.8999999999999999;" width="63" x="111.9" y="1091.7"/><ellipse cx="120.9" cy="1101.3" fill="#ADD1B2" rx="6.6" ry="6.6" style="stroke:#A80036;stroke-width:0.6;"/><path d="M122.1,1099.2 Q122.2219,1098.9 122.3625,1098.75 Q122.5031,1098.6 122.6625,1098.6 Q122.9438,1098.6 123.1219,1098.7688 Q123.3,1098.9375 123.3,1099.3313 L123.3,1100.2688 Q123.3,1100.6625 123.1313,1100.8313 Q122.9625,1101 122.7,1101 Q122.4656,1101 122.3156,1100.8969 Q122.1656,1100.7938 122.1,1100.5219 Q122.0719,1100.3344 121.9688,1100.2313 Q121.7813,1100.0344 121.4438,1099.9219 Q121.1062,1099.8 120.7688,1099.8 Q120.3469,1099.8 119.9906,1099.9688 Q119.6438,1100.1375 119.3719,1100.5125 Q119.1,1100.8875 119.1,1101.4031 L119.1,1101.9563 Q119.1,1102.575 119.6062,1102.9875 Q120.1125,1103.4 121.0125,1103.4 Q121.5469,1103.4 121.9219,1103.2781 Q122.1375,1103.2125 122.3813,1102.9969 Q122.5406,1102.875 122.625,1102.8375 Q122.7094,1102.8 122.8125,1102.8 Q123.0094,1102.8 123.15,1102.9594 Q123.3,1103.1094 123.3,1103.325 Q123.3,1103.5313 123.0938,1103.775 Q122.7937,1104.1313 122.3156,1104.3281 Q121.6875,1104.6 120.9187,1104.6 Q120.0188,1104.6 119.2969,1104.2437 Q118.7156,1103.9625 118.3031,1103.3531 Q117.9,1102.7437 117.9,1102.0219 L117.9,1101.3656 Q117.9,1100.6156 118.2563,1099.9594 Q118.6219,1099.3031 119.25,1098.9563 Q119.8875,1098.6 120.6,1098.6 Q121.0313,1098.6 121.4063,1098.75 Q121.7813,1098.9 122.1,1099.2 Z " fill="#000000"/><text fill="#000000" font-family="sans-serif" font-size="7.2" lengthAdjust="spacing" textLength="43.8" x="129.3" y="1104.2461">Administrator</text><line style="stroke:#A80036;stroke-width:0.8999999999999999;" x1="112.5" x2="174.3" y1="1110.9" y2="1110.9"/><line style="stroke:#A80036;stroke-width:0.8999999999999999;" x1="112.5" x2="174.3" y1="1115.7" y2="1115.7"/><!--MD5=[a96594a83e2ecdc78cbf17c2ddf01934]
class Category--><rect codeLine="4" fill="#FEFECE" filter="url(#f8ou5ui02r7f1)" height="53.7047" id="Category" style="stroke:#A80036;stroke-width:0.8999999999999999;" width="48.6" x="414.9" y="1188"/><ellipse cx="423.9" cy="1197.6" fill="#ADD1B2" rx="6.6" ry="6.6" style="stroke:#A80036;stroke-width:0.6;"/><path d="M425.1,1195.5 Q425.2219,1195.2 425.3625,1195.05 Q425.5031,1194.9 425.6625,1194.9 Q425.9437,1194.9 426.1219,1195.0688 Q426.3,1195.2375 426.3,1195.6313 L426.3,1196.5688 Q426.3,1196.9625 426.1312,1197.1313 Q425.9625,1197.3 425.7,1197.3 Q425.4656,1197.3 425.3156,1197.1969 Q425.1656,1197.0938 425.1,1196.8219 Q425.0719,1196.6344 424.9688,1196.5313 Q424.7813,1196.3344 424.4437,1196.2219 Q424.1063,1196.1 423.7688,1196.1 Q423.3469,1196.1 422.9906,1196.2688 Q422.6438,1196.4375 422.3719,1196.8125 Q422.1,1197.1875 422.1,1197.7031 L422.1,1198.2563 Q422.1,1198.875 422.6063,1199.2875 Q423.1125,1199.7 424.0125,1199.7 Q424.5469,1199.7 424.9219,1199.5781 Q425.1375,1199.5125 425.3812,1199.2969 Q425.5406,1199.175 425.625,1199.1375 Q425.7094,1199.1 425.8125,1199.1 Q426.0094,1199.1 426.15,1199.2594 Q426.3,1199.4094 426.3,1199.625 Q426.3,1199.8313 426.0938,1200.075 Q425.7938,1200.4312 425.3156,1200.6281 Q424.6875,1200.9 423.9188,1200.9 Q423.0188,1200.9 422.2969,1200.5438 Q421.7156,1200.2625 421.3031,1199.6531 Q420.9,1199.0438 420.9,1198.3219 L420.9,1197.6656 Q420.9,1196.9156 421.2562,1196.2594 Q421.6219,1195.6031 422.25,1195.2563 Q422.8875,1194.9 423.6,1194.9 Q424.0313,1194.9 424.4063,1195.05 Q424.7813,1195.2 425.1,1195.5 Z " fill="#000000"/><text fill="#000000" font-family="sans-serif" font-size="7.2" lengthAdjust="spacing" textLength="29.4" x="432.3" y="1200.5461">Category</text><line style="stroke:#A80036;stroke-width:0.8999999999999999;" x1="415.5" x2="462.9" y1="1207.2" y2="1207.2"/><text fill="#000000" font-family="sans-serif" font-size="6.6" lengthAdjust="spacing" textLength="16.8" x="418.5" y="1216.4514">-code</text><text fill="#000000" font-family="sans-serif" font-size="6.6" lengthAdjust="spacing" textLength="34.2" x="418.5" y="1224.7529">-description</text><text fill="#000000" font-family="sans-serif" font-size="6.6" lengthAdjust="spacing" textLength="18.6" x="418.5" y="1233.0545">-nhsID</text><line style="stroke:#A80036;stroke-width:0.8999999999999999;" x1="415.5" x2="462.9" y1="1236.9047" y2="1236.9047"/><!--MD5=[a64badb107d3691f2dc6af242cdbeb21]
class ChemicalLaboratory--><rect codeLine="9" fill="#FEFECE" filter="url(#f8ou5ui02r7f1)" height="62.0062" id="ChemicalLaboratory" style="stroke:#A80036;stroke-width:0.8999999999999999;" width="85.8" x="201.3" y="268.8"/><ellipse cx="210.3" cy="278.4" fill="#ADD1B2" rx="6.6" ry="6.6" style="stroke:#A80036;stroke-width:0.6;"/><path d="M211.5,276.3 Q211.6219,276 211.7625,275.85 Q211.9031,275.7 212.0625,275.7 Q212.3438,275.7 212.5219,275.8688 Q212.7,276.0375 212.7,276.4313 L212.7,277.3688 Q212.7,277.7625 212.5313,277.9313 Q212.3625,278.1 212.1,278.1 Q211.8656,278.1 211.7156,277.9969 Q211.5656,277.8938 211.5,277.6219 Q211.4719,277.4344 211.3688,277.3313 Q211.1813,277.1344 210.8438,277.0219 Q210.5063,276.9 210.1688,276.9 Q209.7469,276.9 209.3906,277.0687 Q209.0438,277.2375 208.7719,277.6125 Q208.5,277.9875 208.5,278.5031 L208.5,279.0563 Q208.5,279.675 209.0063,280.0875 Q209.5125,280.5 210.4125,280.5 Q210.9469,280.5 211.3219,280.3781 Q211.5375,280.3125 211.7813,280.0969 Q211.9406,279.975 212.025,279.9375 Q212.1094,279.9 212.2125,279.9 Q212.4094,279.9 212.55,280.0594 Q212.7,280.2094 212.7,280.425 Q212.7,280.6312 212.4938,280.875 Q212.1938,281.2313 211.7156,281.4281 Q211.0875,281.7 210.3188,281.7 Q209.4188,281.7 208.6969,281.3438 Q208.1156,281.0625 207.7031,280.4531 Q207.3,279.8438 207.3,279.1219 L207.3,278.4656 Q207.3,277.7156 207.6563,277.0594 Q208.0219,276.4031 208.65,276.0563 Q209.2875,275.7 210,275.7 Q210.4313,275.7 210.8063,275.85 Q211.1813,276 211.5,276.3 Z " fill="#000000"/><text fill="#000000" font-family="sans-serif" font-size="7.2" lengthAdjust="spacing" textLength="66.6" x="218.7" y="281.3461">ChemicalLaboratory</text><line style="stroke:#A80036;stroke-width:0.8999999999999999;" x1="201.9" x2="286.5" y1="288" y2="288"/><text fill="#000000" font-family="sans-serif" font-size="6.6" lengthAdjust="spacing" textLength="18" x="204.9" y="297.2514">-name</text><text fill="#000000" font-family="sans-serif" font-size="6.6" lengthAdjust="spacing" textLength="26.4" x="204.9" y="305.5529">-address</text><text fill="#000000" font-family="sans-serif" font-size="6.6" lengthAdjust="spacing" textLength="42.6" x="204.9" y="313.8545">-phoneNumber</text><text fill="#000000" font-family="sans-serif" font-size="6.6" lengthAdjust="spacing" textLength="11.4" x="204.9" y="322.1561">-TIN</text><line style="stroke:#A80036;stroke-width:0.8999999999999999;" x1="201.9" x2="286.5" y1="326.0062" y2="326.0062"/><!--MD5=[ec908970c524777c08fd0d8397a1f7bf]
class CollectionMethod--><rect codeLine="15" fill="#FEFECE" filter="url(#f8ou5ui02r7f1)" height="37.1016" id="CollectionMethod" style="stroke:#A80036;stroke-width:0.8999999999999999;" width="76.2" x="131.1" y="669.6"/><ellipse cx="140.1" cy="679.2" fill="#ADD1B2" rx="6.6" ry="6.6" style="stroke:#A80036;stroke-width:0.6;"/><path d="M141.3,677.1 Q141.4219,676.8 141.5625,676.65 Q141.7031,676.5 141.8625,676.5 Q142.1437,676.5 142.3219,676.6687 Q142.5,676.8375 142.5,677.2312 L142.5,678.1687 Q142.5,678.5625 142.3312,678.7312 Q142.1625,678.9 141.9,678.9 Q141.6656,678.9 141.5156,678.7969 Q141.3656,678.6938 141.3,678.4219 Q141.2719,678.2344 141.1688,678.1313 Q140.9813,677.9344 140.6437,677.8219 Q140.3063,677.7 139.9688,677.7 Q139.5469,677.7 139.1906,677.8688 Q138.8438,678.0375 138.5719,678.4125 Q138.3,678.7875 138.3,679.3031 L138.3,679.8562 Q138.3,680.475 138.8063,680.8875 Q139.3125,681.3 140.2125,681.3 Q140.7469,681.3 141.1219,681.1781 Q141.3375,681.1125 141.5812,680.8969 Q141.7406,680.775 141.825,680.7375 Q141.9094,680.7 142.0125,680.7 Q142.2094,680.7 142.35,680.8594 Q142.5,681.0094 142.5,681.225 Q142.5,681.4313 142.2938,681.675 Q141.9938,682.0313 141.5156,682.2281 Q140.8875,682.5 140.1188,682.5 Q139.2188,682.5 138.4969,682.1438 Q137.9156,681.8625 137.5031,681.2531 Q137.1,680.6438 137.1,679.9219 L137.1,679.2656 Q137.1,678.5156 137.4562,677.8594 Q137.8219,677.2031 138.45,676.8562 Q139.0875,676.5 139.8,676.5 Q140.2313,676.5 140.6063,676.65 Q140.9813,676.8 141.3,677.1 Z " fill="#000000"/><text fill="#000000" font-family="sans-serif" font-size="7.2" lengthAdjust="spacing" textLength="57" x="148.5" y="682.1461">CollectionMethod</text><line style="stroke:#A80036;stroke-width:0.8999999999999999;" x1="131.7" x2="206.7" y1="688.8" y2="688.8"/><text fill="#000000" font-family="sans-serif" font-size="6.6" lengthAdjust="spacing" textLength="35.4" x="134.7" y="698.0514">-designation</text><line style="stroke:#A80036;stroke-width:0.8999999999999999;" x1="131.7" x2="206.7" y1="701.9016" y2="701.9016"/><!--MD5=[ed6624c6556d5e7b1bd23032162d20b7]
class Client--><rect codeLine="18" fill="#FEFECE" filter="url(#f8ou5ui02r7f1)" height="103.5141" id="Client" style="stroke:#A80036;stroke-width:0.8999999999999999;" width="49.8" x="539.1" y="920.4"/><ellipse cx="553.23" cy="930" fill="#ADD1B2" rx="6.6" ry="6.6" style="stroke:#A80036;stroke-width:0.6;"/><path d="M554.43,927.9 Q554.5519,927.6 554.6925,927.45 Q554.8331,927.3 554.9925,927.3 Q555.2738,927.3 555.4519,927.4688 Q555.63,927.6375 555.63,928.0313 L555.63,928.9688 Q555.63,929.3625 555.4613,929.5313 Q555.2925,929.7 555.03,929.7 Q554.7956,929.7 554.6456,929.5969 Q554.4956,929.4938 554.43,929.2219 Q554.4019,929.0344 554.2987,928.9313 Q554.1112,928.7344 553.7738,928.6219 Q553.4363,928.5 553.0988,928.5 Q552.6769,928.5 552.3206,928.6687 Q551.9738,928.8375 551.7019,929.2125 Q551.43,929.5875 551.43,930.1031 L551.43,930.6563 Q551.43,931.275 551.9363,931.6875 Q552.4425,932.1 553.3425,932.1 Q553.8769,932.1 554.2519,931.9781 Q554.4675,931.9125 554.7113,931.6969 Q554.8706,931.575 554.955,931.5375 Q555.0394,931.5 555.1425,931.5 Q555.3394,931.5 555.48,931.6594 Q555.63,931.8094 555.63,932.025 Q555.63,932.2312 555.4237,932.475 Q555.1238,932.8313 554.6456,933.0281 Q554.0175,933.3 553.2488,933.3 Q552.3488,933.3 551.6269,932.9437 Q551.0456,932.6625 550.6331,932.0531 Q550.23,931.4437 550.23,930.7219 L550.23,930.0656 Q550.23,929.3156 550.5863,928.6594 Q550.9519,928.0031 551.58,927.6563 Q552.2175,927.3 552.93,927.3 Q553.3612,927.3 553.7362,927.45 Q554.1112,927.6 554.43,927.9 Z " fill="#000000"/><text fill="#000000" font-family="sans-serif" font-size="7.2" lengthAdjust="spacing" textLength="19.2" x="562.77" y="932.9461">Client</text><line style="stroke:#A80036;stroke-width:0.8999999999999999;" x1="539.7" x2="588.3" y1="939.6" y2="939.6"/><text fill="#000000" font-family="sans-serif" font-size="6.6" lengthAdjust="spacing" textLength="18" x="542.7" y="948.8514">-name</text><text fill="#000000" font-family="sans-serif" font-size="6.6" lengthAdjust="spacing" textLength="37.8" x="542.7" y="957.1529">-cardNumber</text><text fill="#000000" font-family="sans-serif" font-size="6.6" lengthAdjust="spacing" textLength="28.2" x="542.7" y="965.4545">-birthDate</text><text fill="#000000" font-family="sans-serif" font-size="6.6" lengthAdjust="spacing" textLength="13.2" x="542.7" y="973.7561">-sex</text><text fill="#000000" font-family="sans-serif" font-size="6.6" lengthAdjust="spacing" textLength="18.6" x="542.7" y="982.0576">-nhsID</text><text fill="#000000" font-family="sans-serif" font-size="6.6" lengthAdjust="spacing" textLength="10.8" x="542.7" y="990.3592">-TIF</text><text fill="#000000" font-family="sans-serif" font-size="6.6" lengthAdjust="spacing" textLength="42.6" x="542.7" y="998.6607">-phoneNumber</text><text fill="#000000" font-family="sans-serif" font-size="6.6" lengthAdjust="spacing" textLength="16.8" x="542.7" y="1006.9623">-email</text><text fill="#000000" font-family="sans-serif" font-size="6.6" lengthAdjust="spacing" textLength="32.4" x="542.7" y="1015.2639">-password</text><line style="stroke:#A80036;stroke-width:0.8999999999999999;" x1="539.7" x2="588.3" y1="1019.1141" y2="1019.1141"/><!--MD5=[1934a092c0e7d4da7dc7075b6f4b6b03]
class ClinicalAnalysisLaboratory--><rect codeLine="29" fill="#FEFECE" filter="url(#f8ou5ui02r7f1)" height="70.3078" id="ClinicalAnalysisLaboratory" style="stroke:#A80036;stroke-width:0.8999999999999999;" width="106.2" x="226.5" y="526.2"/><ellipse cx="235.5" cy="535.8" fill="#ADD1B2" rx="6.6" ry="6.6" style="stroke:#A80036;stroke-width:0.6;"/><path d="M236.7,533.7 Q236.8219,533.4 236.9625,533.25 Q237.1031,533.1 237.2625,533.1 Q237.5438,533.1 237.7219,533.2688 Q237.9,533.4375 237.9,533.8313 L237.9,534.7688 Q237.9,535.1625 237.7313,535.3313 Q237.5625,535.5 237.3,535.5 Q237.0656,535.5 236.9156,535.3969 Q236.7656,535.2937 236.7,535.0219 Q236.6719,534.8344 236.5688,534.7312 Q236.3813,534.5344 236.0438,534.4219 Q235.7062,534.3 235.3687,534.3 Q234.9469,534.3 234.5906,534.4688 Q234.2437,534.6375 233.9719,535.0125 Q233.7,535.3875 233.7,535.9031 L233.7,536.4563 Q233.7,537.075 234.2062,537.4875 Q234.7125,537.9 235.6125,537.9 Q236.1469,537.9 236.5219,537.7781 Q236.7375,537.7125 236.9813,537.4969 Q237.1406,537.375 237.225,537.3375 Q237.3094,537.3 237.4125,537.3 Q237.6094,537.3 237.75,537.4594 Q237.9,537.6094 237.9,537.825 Q237.9,538.0313 237.6938,538.275 Q237.3937,538.6313 236.9156,538.8281 Q236.2875,539.1 235.5187,539.1 Q234.6187,539.1 233.8969,538.7438 Q233.3156,538.4625 232.9031,537.8531 Q232.5,537.2438 232.5,536.5219 L232.5,535.8656 Q232.5,535.1156 232.8563,534.4594 Q233.2219,533.8031 233.85,533.4563 Q234.4875,533.1 235.2,533.1 Q235.6313,533.1 236.0063,533.25 Q236.3813,533.4 236.7,533.7 Z " fill="#000000"/><text fill="#000000" font-family="sans-serif" font-size="7.2" lengthAdjust="spacing" textLength="87" x="243.9" y="538.7461">ClinicalAnalysisLaboratory</text><line style="stroke:#A80036;stroke-width:0.8999999999999999;" x1="227.1" x2="332.1" y1="545.4" y2="545.4"/><text fill="#000000" font-family="sans-serif" font-size="6.6" lengthAdjust="spacing" textLength="18" x="230.1" y="554.6514">-name</text><text fill="#000000" font-family="sans-serif" font-size="6.6" lengthAdjust="spacing" textLength="26.4" x="230.1" y="562.9529">-address</text><text fill="#000000" font-family="sans-serif" font-size="6.6" lengthAdjust="spacing" textLength="42.6" x="230.1" y="571.2545">-phoneNumber</text><text fill="#000000" font-family="sans-serif" font-size="6.6" lengthAdjust="spacing" textLength="11.4" x="230.1" y="579.5561">-TIN</text><text fill="#000000" font-family="sans-serif" font-size="6.6" lengthAdjust="spacing" textLength="37.2" x="230.1" y="587.8576">-laboratoryID</text><line style="stroke:#A80036;stroke-width:0.8999999999999999;" x1="227.1" x2="332.1" y1="591.7078" y2="591.7078"/><!--MD5=[012ee2a8bf3ae2b319009b06f951c2e5]
class ClinicalChemistryTechnologist--><rect codeLine="36" fill="#FEFECE" filter="url(#f8ou5ui02r7f1)" height="28.8" id="ClinicalChemistryTechnologist" style="stroke:#A80036;stroke-width:0.8999999999999999;" width="120" x="439.2" y="546.9"/><ellipse cx="448.2" cy="556.5" fill="#ADD1B2" rx="6.6" ry="6.6" style="stroke:#A80036;stroke-width:0.6;"/><path d="M449.4,554.4 Q449.5219,554.1 449.6625,553.95 Q449.8031,553.8 449.9625,553.8 Q450.2438,553.8 450.4219,553.9688 Q450.6,554.1375 450.6,554.5313 L450.6,555.4688 Q450.6,555.8625 450.4313,556.0313 Q450.2625,556.2 450,556.2 Q449.7656,556.2 449.6156,556.0969 Q449.4656,555.9938 449.4,555.7219 Q449.3719,555.5344 449.2688,555.4313 Q449.0813,555.2344 448.7438,555.1219 Q448.4063,555 448.0687,555 Q447.6469,555 447.2906,555.1687 Q446.9437,555.3375 446.6719,555.7125 Q446.4,556.0875 446.4,556.6031 L446.4,557.1563 Q446.4,557.775 446.9063,558.1875 Q447.4125,558.6 448.3125,558.6 Q448.8469,558.6 449.2219,558.4781 Q449.4375,558.4125 449.6813,558.1969 Q449.8406,558.075 449.925,558.0375 Q450.0094,558 450.1125,558 Q450.3094,558 450.45,558.1594 Q450.6,558.3094 450.6,558.525 Q450.6,558.7312 450.3938,558.975 Q450.0938,559.3313 449.6156,559.5281 Q448.9875,559.8 448.2188,559.8 Q447.3187,559.8 446.5969,559.4438 Q446.0156,559.1625 445.6031,558.5531 Q445.2,557.9438 445.2,557.2219 L445.2,556.5656 Q445.2,555.8156 445.5563,555.1594 Q445.9219,554.5031 446.55,554.1563 Q447.1875,553.8 447.9,553.8 Q448.3313,553.8 448.7063,553.95 Q449.0813,554.1 449.4,554.4 Z " fill="#000000"/><text fill="#000000" font-family="sans-serif" font-size="7.2" lengthAdjust="spacing" textLength="100.8" x="456.6" y="559.4461">ClinicalChemistryTechnologist</text><line style="stroke:#A80036;stroke-width:0.8999999999999999;" x1="439.8" x2="558.6" y1="566.1" y2="566.1"/><line style="stroke:#A80036;stroke-width:0.8999999999999999;" x1="439.8" x2="558.6" y1="570.9" y2="570.9"/><!--MD5=[02e4b9b7573f1156f41e60aa5b4e25a4]
class Company--><rect codeLine="37" fill="#FEFECE" filter="url(#f8ou5ui02r7f1)" height="37.1016" id="Company" style="stroke:#A80036;stroke-width:0.8999999999999999;" width="51" x="332.7" y="79.8"/><ellipse cx="341.7" cy="89.4" fill="#ADD1B2" rx="6.6" ry="6.6" style="stroke:#A80036;stroke-width:0.6;"/><path d="M342.9,87.3 Q343.0219,87 343.1625,86.85 Q343.3031,86.7 343.4625,86.7 Q343.7438,86.7 343.9219,86.8687 Q344.1,87.0375 344.1,87.4312 L344.1,88.3687 Q344.1,88.7625 343.9313,88.9312 Q343.7625,89.1 343.5,89.1 Q343.2656,89.1 343.1156,88.9969 Q342.9656,88.8938 342.9,88.6219 Q342.8719,88.4344 342.7688,88.3313 Q342.5813,88.1344 342.2438,88.0219 Q341.9063,87.9 341.5687,87.9 Q341.1469,87.9 340.7906,88.0688 Q340.4437,88.2375 340.1719,88.6125 Q339.9,88.9875 339.9,89.5031 L339.9,90.0562 Q339.9,90.675 340.4063,91.0875 Q340.9125,91.5 341.8125,91.5 Q342.3469,91.5 342.7219,91.3781 Q342.9375,91.3125 343.1813,91.0969 Q343.3406,90.975 343.425,90.9375 Q343.5094,90.9 343.6125,90.9 Q343.8094,90.9 343.95,91.0594 Q344.1,91.2094 344.1,91.425 Q344.1,91.6313 343.8938,91.875 Q343.5938,92.2313 343.1156,92.4281 Q342.4875,92.7 341.7188,92.7 Q340.8187,92.7 340.0969,92.3438 Q339.5156,92.0625 339.1031,91.4531 Q338.7,90.8438 338.7,90.1219 L338.7,89.4656 Q338.7,88.7156 339.0563,88.0594 Q339.4219,87.4031 340.05,87.0562 Q340.6875,86.7 341.4,86.7 Q341.8313,86.7 342.2063,86.85 Q342.5813,87 342.9,87.3 Z " fill="#000000"/><text fill="#000000" font-family="sans-serif" font-size="7.2" lengthAdjust="spacing" textLength="31.8" x="350.1" y="92.3461">Company</text><line style="stroke:#A80036;stroke-width:0.8999999999999999;" x1="333.3" x2="383.1" y1="99" y2="99"/><text fill="#000000" font-family="sans-serif" font-size="6.6" lengthAdjust="spacing" textLength="35.4" x="336.3" y="108.2514">-designation</text><line style="stroke:#A80036;stroke-width:0.8999999999999999;" x1="333.3" x2="383.1" y1="112.1016" y2="112.1016"/><!--MD5=[10d06bcee75aaf74ab8f6040820ceef2]
class Diagnosis--><rect codeLine="40" fill="#FEFECE" filter="url(#f8ou5ui02r7f1)" height="28.8" id="Diagnosis" style="stroke:#A80036;stroke-width:0.8999999999999999;" width="53.4" x="757.5" y="450.6"/><ellipse cx="766.5" cy="460.2" fill="#ADD1B2" rx="6.6" ry="6.6" style="stroke:#A80036;stroke-width:0.6;"/><path d="M767.7,458.1 Q767.8219,457.8 767.9625,457.65 Q768.1031,457.5 768.2625,457.5 Q768.5437,457.5 768.7219,457.6688 Q768.9,457.8375 768.9,458.2313 L768.9,459.1688 Q768.9,459.5625 768.7312,459.7313 Q768.5625,459.9 768.3,459.9 Q768.0656,459.9 767.9156,459.7969 Q767.7656,459.6937 767.7,459.4219 Q767.6719,459.2344 767.5688,459.1312 Q767.3813,458.9344 767.0437,458.8219 Q766.7063,458.7 766.3688,458.7 Q765.9469,458.7 765.5906,458.8688 Q765.2438,459.0375 764.9719,459.4125 Q764.7,459.7875 764.7,460.3031 L764.7,460.8563 Q764.7,461.475 765.2063,461.8875 Q765.7125,462.3 766.6125,462.3 Q767.1469,462.3 767.5219,462.1781 Q767.7375,462.1125 767.9812,461.8969 Q768.1406,461.775 768.225,461.7375 Q768.3094,461.7 768.4125,461.7 Q768.6094,461.7 768.75,461.8594 Q768.9,462.0094 768.9,462.225 Q768.9,462.4313 768.6938,462.675 Q768.3938,463.0313 767.9156,463.2281 Q767.2875,463.5 766.5188,463.5 Q765.6188,463.5 764.8969,463.1437 Q764.3156,462.8625 763.9031,462.2531 Q763.5,461.6437 763.5,460.9219 L763.5,460.2656 Q763.5,459.5156 763.8562,458.8594 Q764.2219,458.2031 764.85,457.8563 Q765.4875,457.5 766.2,457.5 Q766.6313,457.5 767.0063,457.65 Q767.3813,457.8 767.7,458.1 Z " fill="#000000"/><text fill="#000000" font-family="sans-serif" font-size="7.2" lengthAdjust="spacing" textLength="34.2" x="774.9" y="463.1461">Diagnosis</text><line style="stroke:#A80036;stroke-width:0.8999999999999999;" x1="758.1" x2="810.3" y1="469.8" y2="469.8"/><line style="stroke:#A80036;stroke-width:0.8999999999999999;" x1="758.1" x2="810.3" y1="474.6" y2="474.6"/><!--MD5=[a999c1570c205a2156b04a15307bc1ff]
class LabOrder--><rect codeLine="41" fill="#FEFECE" filter="url(#f8ou5ui02r7f1)" height="45.4031" id="LabOrder" style="stroke:#A80036;stroke-width:0.8999999999999999;" width="50.4" x="508.2" y="1083.3"/><ellipse cx="517.2" cy="1092.9" fill="#ADD1B2" rx="6.6" ry="6.6" style="stroke:#A80036;stroke-width:0.6;"/><path d="M518.4,1090.8 Q518.5219,1090.5 518.6625,1090.35 Q518.8031,1090.2 518.9625,1090.2 Q519.2438,1090.2 519.4219,1090.3687 Q519.6,1090.5375 519.6,1090.9312 L519.6,1091.8687 Q519.6,1092.2625 519.4313,1092.4312 Q519.2625,1092.6 519,1092.6 Q518.7656,1092.6 518.6156,1092.4969 Q518.4656,1092.3938 518.4,1092.1219 Q518.3719,1091.9344 518.2688,1091.8313 Q518.0813,1091.6344 517.7438,1091.5219 Q517.4063,1091.4 517.0688,1091.4 Q516.6469,1091.4 516.2906,1091.5688 Q515.9438,1091.7375 515.6719,1092.1125 Q515.4,1092.4875 515.4,1093.0031 L515.4,1093.5562 Q515.4,1094.175 515.9063,1094.5875 Q516.4125,1095 517.3125,1095 Q517.8469,1095 518.2219,1094.8781 Q518.4375,1094.8125 518.6813,1094.5969 Q518.8406,1094.475 518.925,1094.4375 Q519.0094,1094.4 519.1125,1094.4 Q519.3094,1094.4 519.45,1094.5594 Q519.6,1094.7094 519.6,1094.925 Q519.6,1095.1313 519.3938,1095.375 Q519.0938,1095.7313 518.6156,1095.9281 Q517.9875,1096.2 517.2188,1096.2 Q516.3188,1096.2 515.5969,1095.8438 Q515.0156,1095.5625 514.6031,1094.9531 Q514.2,1094.3438 514.2,1093.6219 L514.2,1092.9656 Q514.2,1092.2156 514.5563,1091.5594 Q514.9219,1090.9031 515.55,1090.5562 Q516.1875,1090.2 516.9,1090.2 Q517.3313,1090.2 517.7063,1090.35 Q518.0813,1090.5 518.4,1090.8 Z " fill="#000000"/><text fill="#000000" font-family="sans-serif" font-size="7.2" lengthAdjust="spacing" textLength="31.2" x="525.6" y="1095.8461">LabOrder</text><line style="stroke:#A80036;stroke-width:0.8999999999999999;" x1="508.8" x2="558" y1="1102.5" y2="1102.5"/><text fill="#000000" font-family="sans-serif" font-size="6.6" lengthAdjust="spacing" textLength="27.6" x="511.8" y="1111.7514">-testType</text><text fill="#000000" font-family="sans-serif" font-size="6.6" lengthAdjust="spacing" textLength="35.4" x="511.8" y="1120.0529">-parameters</text><line style="stroke:#A80036;stroke-width:0.8999999999999999;" x1="508.8" x2="558" y1="1123.9031" y2="1123.9031"/><!--MD5=[7421f545a0d8420c5bec41e74b387d9c]
class Employee--><rect codeLine="45" fill="#FEFECE" filter="url(#f8ou5ui02r7f1)" height="86.9109" id="Employee" style="stroke:#A80036;stroke-width:0.8999999999999999;" width="52.2" x="420.3" y="163.8"/><ellipse cx="429.3" cy="173.4" fill="#ADD1B2" rx="6.6" ry="6.6" style="stroke:#A80036;stroke-width:0.6;"/><path d="M430.5,171.3 Q430.6219,171 430.7625,170.85 Q430.9031,170.7 431.0625,170.7 Q431.3438,170.7 431.5219,170.8688 Q431.7,171.0375 431.7,171.4313 L431.7,172.3688 Q431.7,172.7625 431.5313,172.9313 Q431.3625,173.1 431.1,173.1 Q430.8656,173.1 430.7156,172.9969 Q430.5656,172.8937 430.5,172.6219 Q430.4719,172.4344 430.3688,172.3312 Q430.1813,172.1344 429.8438,172.0219 Q429.5062,171.9 429.1688,171.9 Q428.7469,171.9 428.3906,172.0688 Q428.0438,172.2375 427.7719,172.6125 Q427.5,172.9875 427.5,173.5031 L427.5,174.0563 Q427.5,174.675 428.0062,175.0875 Q428.5125,175.5 429.4125,175.5 Q429.9469,175.5 430.3219,175.3781 Q430.5375,175.3125 430.7813,175.0969 Q430.9406,174.975 431.025,174.9375 Q431.1094,174.9 431.2125,174.9 Q431.4094,174.9 431.55,175.0594 Q431.7,175.2094 431.7,175.425 Q431.7,175.6313 431.4938,175.875 Q431.1937,176.2313 430.7156,176.4281 Q430.0875,176.7 429.3187,176.7 Q428.4188,176.7 427.6969,176.3438 Q427.1156,176.0625 426.7031,175.4531 Q426.3,174.8438 426.3,174.1219 L426.3,173.4656 Q426.3,172.7156 426.6563,172.0594 Q427.0219,171.4031 427.65,171.0563 Q428.2875,170.7 429,170.7 Q429.4313,170.7 429.8063,170.85 Q430.1813,171 430.5,171.3 Z " fill="#000000"/><text fill="#000000" font-family="sans-serif" font-size="7.2" lengthAdjust="spacing" textLength="33" x="437.7" y="176.3461">Employee</text><line style="stroke:#A80036;stroke-width:0.8999999999999999;" x1="420.9" x2="471.9" y1="183" y2="183"/><text fill="#000000" font-family="sans-serif" font-size="6.6" lengthAdjust="spacing" textLength="35.4" x="423.9" y="192.2514">-employeeID</text><text fill="#000000" font-family="sans-serif" font-size="6.6" lengthAdjust="spacing" textLength="43.2" x="423.9" y="200.5529">-organizationID</text><text fill="#000000" font-family="sans-serif" font-size="6.6" lengthAdjust="spacing" textLength="18" x="423.9" y="208.8545">-name</text><text fill="#000000" font-family="sans-serif" font-size="6.6" lengthAdjust="spacing" textLength="26.4" x="423.9" y="217.1561">-address</text><text fill="#000000" font-family="sans-serif" font-size="6.6" lengthAdjust="spacing" textLength="42.6" x="423.9" y="225.4576">-phoneNumber</text><text fill="#000000" font-family="sans-serif" font-size="6.6" lengthAdjust="spacing" textLength="16.8" x="423.9" y="233.7592">-email</text><text fill="#000000" font-family="sans-serif" font-size="6.6" lengthAdjust="spacing" textLength="30" x="423.9" y="242.0607">-SOCcode</text><line style="stroke:#A80036;stroke-width:0.8999999999999999;" x1="420.9" x2="471.9" y1="245.9109" y2="245.9109"/><!--MD5=[052425de1c0eb6cc1c1b48342b0bb88f]
class LaboratoryCoordinator--><rect codeLine="54" fill="#FEFECE" filter="url(#f8ou5ui02r7f1)" height="28.8" id="LaboratoryCoordinator" style="stroke:#A80036;stroke-width:0.8999999999999999;" width="93" x="677.1" y="546.9"/><ellipse cx="686.1" cy="556.5" fill="#ADD1B2" rx="6.6" ry="6.6" style="stroke:#A80036;stroke-width:0.6;"/><path d="M687.3,554.4 Q687.4219,554.1 687.5625,553.95 Q687.7031,553.8 687.8625,553.8 Q688.1438,553.8 688.3219,553.9688 Q688.5,554.1375 688.5,554.5313 L688.5,555.4688 Q688.5,555.8625 688.3313,556.0313 Q688.1625,556.2 687.9,556.2 Q687.6656,556.2 687.5156,556.0969 Q687.3656,555.9938 687.3,555.7219 Q687.2719,555.5344 687.1687,555.4313 Q686.9812,555.2344 686.6438,555.1219 Q686.3063,555 685.9688,555 Q685.5469,555 685.1906,555.1687 Q684.8438,555.3375 684.5719,555.7125 Q684.3,556.0875 684.3,556.6031 L684.3,557.1563 Q684.3,557.775 684.8063,558.1875 Q685.3125,558.6 686.2125,558.6 Q686.7469,558.6 687.1219,558.4781 Q687.3375,558.4125 687.5813,558.1969 Q687.7406,558.075 687.825,558.0375 Q687.9094,558 688.0125,558 Q688.2094,558 688.35,558.1594 Q688.5,558.3094 688.5,558.525 Q688.5,558.7312 688.2937,558.975 Q687.9938,559.3313 687.5156,559.5281 Q686.8875,559.8 686.1188,559.8 Q685.2188,559.8 684.4969,559.4438 Q683.9156,559.1625 683.5031,558.5531 Q683.1,557.9438 683.1,557.2219 L683.1,556.5656 Q683.1,555.8156 683.4563,555.1594 Q683.8219,554.5031 684.45,554.1563 Q685.0875,553.8 685.8,553.8 Q686.2312,553.8 686.6062,553.95 Q686.9812,554.1 687.3,554.4 Z " fill="#000000"/><text fill="#000000" font-family="sans-serif" font-size="7.2" lengthAdjust="spacing" textLength="73.8" x="694.5" y="559.4461">LaboratoryCoordinator</text><line style="stroke:#A80036;stroke-width:0.8999999999999999;" x1="677.7" x2="769.5" y1="566.1" y2="566.1"/><line style="stroke:#A80036;stroke-width:0.8999999999999999;" x1="677.7" x2="769.5" y1="570.9" y2="570.9"/><!--MD5=[01931d41e78f8996acd44f6f0fd8de28]
class MedicalLabTechnician--><rect codeLine="55" fill="#FEFECE" filter="url(#f8ou5ui02r7f1)" height="28.8" id="MedicalLabTechnician" style="stroke:#A80036;stroke-width:0.8999999999999999;" width="93" x="365.1" y="403.8"/><ellipse cx="374.1" cy="413.4" fill="#ADD1B2" rx="6.6" ry="6.6" style="stroke:#A80036;stroke-width:0.6;"/><path d="M375.3,411.3 Q375.4219,411 375.5625,410.85 Q375.7031,410.7 375.8625,410.7 Q376.1438,410.7 376.3219,410.8688 Q376.5,411.0375 376.5,411.4313 L376.5,412.3688 Q376.5,412.7625 376.3313,412.9313 Q376.1625,413.1 375.9,413.1 Q375.6656,413.1 375.5156,412.9969 Q375.3656,412.8938 375.3,412.6219 Q375.2719,412.4344 375.1688,412.3313 Q374.9813,412.1344 374.6438,412.0219 Q374.3063,411.9 373.9688,411.9 Q373.5469,411.9 373.1906,412.0687 Q372.8438,412.2375 372.5719,412.6125 Q372.3,412.9875 372.3,413.5031 L372.3,414.0563 Q372.3,414.675 372.8063,415.0875 Q373.3125,415.5 374.2125,415.5 Q374.7469,415.5 375.1219,415.3781 Q375.3375,415.3125 375.5813,415.0969 Q375.7406,414.975 375.825,414.9375 Q375.9094,414.9 376.0125,414.9 Q376.2094,414.9 376.35,415.0594 Q376.5,415.2094 376.5,415.425 Q376.5,415.6312 376.2938,415.875 Q375.9938,416.2313 375.5156,416.4281 Q374.8875,416.7 374.1188,416.7 Q373.2188,416.7 372.4969,416.3438 Q371.9156,416.0625 371.5031,415.4531 Q371.1,414.8438 371.1,414.1219 L371.1,413.4656 Q371.1,412.7156 371.4563,412.0594 Q371.8219,411.4031 372.45,411.0563 Q373.0875,410.7 373.8,410.7 Q374.2313,410.7 374.6063,410.85 Q374.9813,411 375.3,411.3 Z " fill="#000000"/><text fill="#000000" font-family="sans-serif" font-size="7.2" lengthAdjust="spacing" textLength="73.8" x="382.5" y="416.3461">MedicalLabTechnician</text><line style="stroke:#A80036;stroke-width:0.8999999999999999;" x1="365.7" x2="457.5" y1="423" y2="423"/><line style="stroke:#A80036;stroke-width:0.8999999999999999;" x1="365.7" x2="457.5" y1="427.8" y2="427.8"/><!--MD5=[0a105ea8d9af02dadec02d3e239f1d60]
class NHS--><rect codeLine="56" fill="#FEFECE" filter="url(#f8ou5ui02r7f1)" height="28.8" id="NHS" style="stroke:#A80036;stroke-width:0.8999999999999999;" width="34.8" x="340.8" y="4.2"/><ellipse cx="349.8" cy="13.8" fill="#ADD1B2" rx="6.6" ry="6.6" style="stroke:#A80036;stroke-width:0.6;"/><path d="M351,11.7 Q351.1219,11.4 351.2625,11.25 Q351.4031,11.1 351.5625,11.1 Q351.8438,11.1 352.0219,11.2687 Q352.2,11.4375 352.2,11.8312 L352.2,12.7687 Q352.2,13.1625 352.0313,13.3312 Q351.8625,13.5 351.6,13.5 Q351.3656,13.5 351.2156,13.3969 Q351.0656,13.2938 351,13.0219 Q350.9719,12.8344 350.8688,12.7313 Q350.6813,12.5344 350.3438,12.4219 Q350.0062,12.3 349.6688,12.3 Q349.2469,12.3 348.8906,12.4688 Q348.5438,12.6375 348.2719,13.0125 Q348,13.3875 348,13.9031 L348,14.4562 Q348,15.075 348.5062,15.4875 Q349.0125,15.9 349.9125,15.9 Q350.4469,15.9 350.8219,15.7781 Q351.0375,15.7125 351.2813,15.4969 Q351.4406,15.375 351.525,15.3375 Q351.6094,15.3 351.7125,15.3 Q351.9094,15.3 352.05,15.4594 Q352.2,15.6094 352.2,15.825 Q352.2,16.0313 351.9938,16.275 Q351.6937,16.6312 351.2156,16.8281 Q350.5875,17.1 349.8187,17.1 Q348.9188,17.1 348.1969,16.7438 Q347.6156,16.4625 347.2031,15.8531 Q346.8,15.2437 346.8,14.5219 L346.8,13.8656 Q346.8,13.1156 347.1563,12.4594 Q347.5219,11.8031 348.15,11.4562 Q348.7875,11.1 349.5,11.1 Q349.9313,11.1 350.3063,11.25 Q350.6813,11.4 351,11.7 Z " fill="#000000"/><text fill="#000000" font-family="sans-serif" font-size="7.2" lengthAdjust="spacing" textLength="15.6" x="358.2" y="16.7461">NHS</text><line style="stroke:#A80036;stroke-width:0.8999999999999999;" x1="341.4" x2="375" y1="23.4" y2="23.4"/><line style="stroke:#A80036;stroke-width:0.8999999999999999;" x1="341.4" x2="375" y1="28.2" y2="28.2"/><!--MD5=[03960189e81aa2c066c762ffabbee709]
class Receptionist--><rect codeLine="57" fill="#FEFECE" filter="url(#f8ou5ui02r7f1)" height="28.8" id="Receptionist" style="stroke:#A80036;stroke-width:0.8999999999999999;" width="60.6" x="552.3" y="673.8"/><ellipse cx="561.3" cy="683.4" fill="#ADD1B2" rx="6.6" ry="6.6" style="stroke:#A80036;stroke-width:0.6;"/><path d="M562.5,681.3 Q562.6219,681 562.7625,680.85 Q562.9031,680.7 563.0625,680.7 Q563.3438,680.7 563.5219,680.8688 Q563.7,681.0375 563.7,681.4313 L563.7,682.3688 Q563.7,682.7625 563.5313,682.9313 Q563.3625,683.1 563.1,683.1 Q562.8656,683.1 562.7156,682.9969 Q562.5656,682.8938 562.5,682.6219 Q562.4719,682.4344 562.3688,682.3313 Q562.1813,682.1344 561.8438,682.0219 Q561.5063,681.9 561.1687,681.9 Q560.7469,681.9 560.3906,682.0688 Q560.0437,682.2375 559.7719,682.6125 Q559.5,682.9875 559.5,683.5031 L559.5,684.0563 Q559.5,684.675 560.0063,685.0875 Q560.5125,685.5 561.4125,685.5 Q561.9469,685.5 562.3219,685.3781 Q562.5375,685.3125 562.7813,685.0969 Q562.9406,684.975 563.025,684.9375 Q563.1094,684.9 563.2125,684.9 Q563.4094,684.9 563.55,685.0594 Q563.7,685.2094 563.7,685.425 Q563.7,685.6313 563.4938,685.875 Q563.1938,686.2312 562.7156,686.4281 Q562.0875,686.7 561.3188,686.7 Q560.4187,686.7 559.6969,686.3438 Q559.1156,686.0625 558.7031,685.4531 Q558.3,684.8438 558.3,684.1219 L558.3,683.4656 Q558.3,682.7156 558.6563,682.0594 Q559.0219,681.4031 559.65,681.0563 Q560.2875,680.7 561,680.7 Q561.4313,680.7 561.8063,680.85 Q562.1813,681 562.5,681.3 Z " fill="#000000"/><text fill="#000000" font-family="sans-serif" font-size="7.2" lengthAdjust="spacing" textLength="41.4" x="569.7" y="686.3461">Receptionist</text><line style="stroke:#A80036;stroke-width:0.8999999999999999;" x1="552.9" x2="612.3" y1="693" y2="693"/><line style="stroke:#A80036;stroke-width:0.8999999999999999;" x1="552.9" x2="612.3" y1="697.8" y2="697.8"/><!--MD5=[df38be88ccee13e832d6fafd6288a4ca]
class Test--><rect codeLine="58" fill="#FEFECE" filter="url(#f8ou5ui02r7f1)" height="111.8156" id="Test" style="stroke:#A80036;stroke-width:0.8999999999999999;" width="50.4" x="414" y="762"/><ellipse cx="430.56" cy="771.6" fill="#ADD1B2" rx="6.6" ry="6.6" style="stroke:#A80036;stroke-width:0.6;"/><path d="M431.76,769.5 Q431.8819,769.2 432.0225,769.05 Q432.1631,768.9 432.3225,768.9 Q432.6038,768.9 432.7819,769.0688 Q432.96,769.2375 432.96,769.6313 L432.96,770.5688 Q432.96,770.9625 432.7913,771.1313 Q432.6225,771.3 432.36,771.3 Q432.1256,771.3 431.9756,771.1969 Q431.8256,771.0938 431.76,770.8219 Q431.7319,770.6344 431.6288,770.5313 Q431.4413,770.3344 431.1038,770.2219 Q430.7663,770.1 430.4288,770.1 Q430.0069,770.1 429.6506,770.2688 Q429.3038,770.4375 429.0319,770.8125 Q428.76,771.1875 428.76,771.7031 L428.76,772.2563 Q428.76,772.875 429.2663,773.2875 Q429.7725,773.7 430.6725,773.7 Q431.2069,773.7 431.5819,773.5781 Q431.7975,773.5125 432.0413,773.2969 Q432.2006,773.175 432.285,773.1375 Q432.3694,773.1 432.4725,773.1 Q432.6694,773.1 432.81,773.2594 Q432.96,773.4094 432.96,773.625 Q432.96,773.8313 432.7538,774.075 Q432.4538,774.4313 431.9756,774.6281 Q431.3475,774.9 430.5788,774.9 Q429.6788,774.9 428.9569,774.5437 Q428.3756,774.2625 427.9631,773.6531 Q427.56,773.0437 427.56,772.3219 L427.56,771.6656 Q427.56,770.9156 427.9163,770.2594 Q428.2819,769.6031 428.91,769.2563 Q429.5475,768.9 430.26,768.9 Q430.6913,768.9 431.0663,769.05 Q431.4413,769.2 431.76,769.5 Z " fill="#000000"/><text fill="#000000" font-family="sans-serif" font-size="7.2" lengthAdjust="spacing" textLength="14.4" x="440.64" y="774.5461">Test</text><line style="stroke:#A80036;stroke-width:0.8999999999999999;" x1="414.6" x2="463.8" y1="781.2" y2="781.2"/><text fill="#000000" font-family="sans-serif" font-size="6.6" lengthAdjust="spacing" textLength="38.4" x="417.6" y="790.4514">-internalCode</text><text fill="#000000" font-family="sans-serif" font-size="6.6" lengthAdjust="spacing" textLength="28.2" x="417.6" y="798.7529">-nhsCode</text><text fill="#000000" font-family="sans-serif" font-size="6.6" lengthAdjust="spacing" textLength="31.2" x="417.6" y="807.0545">-createdAt</text><text fill="#000000" font-family="sans-serif" font-size="6.6" lengthAdjust="spacing" textLength="35.4" x="417.6" y="815.3561">-designation</text><text fill="#000000" font-family="sans-serif" font-size="6.6" lengthAdjust="spacing" textLength="40.2" x="417.6" y="823.6576">-dateAnalysis</text><text fill="#000000" font-family="sans-serif" font-size="6.6" lengthAdjust="spacing" textLength="39" x="417.6" y="831.9592">-timeAnalysis</text><text fill="#000000" font-family="sans-serif" font-size="6.6" lengthAdjust="spacing" textLength="43.2" x="417.6" y="840.2607">-dateDiagnosis</text><text fill="#000000" font-family="sans-serif" font-size="6.6" lengthAdjust="spacing" textLength="42" x="417.6" y="848.5623">-timeDiagnosis</text><text fill="#000000" font-family="sans-serif" font-size="6.6" lengthAdjust="spacing" textLength="43.2" x="417.6" y="856.8639">-dateValidation</text><text fill="#000000" font-family="sans-serif" font-size="6.6" lengthAdjust="spacing" textLength="42" x="417.6" y="865.1654">-timeValidation</text><line style="stroke:#A80036;stroke-width:0.8999999999999999;" x1="414.6" x2="463.8" y1="869.0156" y2="869.0156"/><!--MD5=[1f6362a5c8f21d8d6a0fce68f3a92a4e]
class Parameter--><rect codeLine="70" fill="#FEFECE" filter="url(#f8ou5ui02r7f1)" height="70.3078" id="Parameter" style="stroke:#A80036;stroke-width:0.8999999999999999;" width="73.8" x="402.3" y="1071"/><ellipse cx="420.21" cy="1080.6" fill="#ADD1B2" rx="6.6" ry="6.6" style="stroke:#A80036;stroke-width:0.6;"/><path d="M421.41,1078.5 Q421.5319,1078.2 421.6725,1078.05 Q421.8131,1077.9 421.9725,1077.9 Q422.2538,1077.9 422.4319,1078.0688 Q422.61,1078.2375 422.61,1078.6313 L422.61,1079.5688 Q422.61,1079.9625 422.4413,1080.1313 Q422.2725,1080.3 422.01,1080.3 Q421.7756,1080.3 421.6256,1080.1969 Q421.4756,1080.0938 421.41,1079.8219 Q421.3819,1079.6344 421.2788,1079.5313 Q421.0913,1079.3344 420.7538,1079.2219 Q420.4163,1079.1 420.0788,1079.1 Q419.6569,1079.1 419.3006,1079.2688 Q418.9538,1079.4375 418.6819,1079.8125 Q418.41,1080.1875 418.41,1080.7031 L418.41,1081.2563 Q418.41,1081.875 418.9163,1082.2875 Q419.4225,1082.7 420.3225,1082.7 Q420.8569,1082.7 421.2319,1082.5781 Q421.4475,1082.5125 421.6913,1082.2969 Q421.8506,1082.175 421.935,1082.1375 Q422.0194,1082.1 422.1225,1082.1 Q422.3194,1082.1 422.46,1082.2594 Q422.61,1082.4094 422.61,1082.625 Q422.61,1082.8313 422.4038,1083.075 Q422.1038,1083.4312 421.6256,1083.6281 Q420.9975,1083.9 420.2288,1083.9 Q419.3288,1083.9 418.6069,1083.5438 Q418.0256,1083.2625 417.6131,1082.6531 Q417.21,1082.0438 417.21,1081.3219 L417.21,1080.6656 Q417.21,1079.9156 417.5663,1079.2594 Q417.9319,1078.6031 418.56,1078.2563 Q419.1975,1077.9 419.91,1077.9 Q420.3413,1077.9 420.7163,1078.05 Q421.0913,1078.2 421.41,1078.5 Z " fill="#000000"/><text fill="#000000" font-family="sans-serif" font-size="7.2" lengthAdjust="spacing" textLength="34.8" x="430.59" y="1083.5461">Parameter</text><line style="stroke:#A80036;stroke-width:0.8999999999999999;" x1="402.9" x2="475.5" y1="1090.2" y2="1090.2"/><text fill="#000000" font-family="sans-serif" font-size="6.6" lengthAdjust="spacing" textLength="16.8" x="405.9" y="1099.4514">-code</text><text fill="#000000" font-family="sans-serif" font-size="6.6" lengthAdjust="spacing" textLength="33.6" x="405.9" y="1107.7529">-shortName</text><text fill="#000000" font-family="sans-serif" font-size="6.6" lengthAdjust="spacing" textLength="34.2" x="405.9" y="1116.0545">-description</text><text fill="#000000" font-family="sans-serif" font-size="6.6" lengthAdjust="spacing" textLength="66.6" x="405.9" y="1124.3561">-upperReferenceValue</text><text fill="#000000" font-family="sans-serif" font-size="6.6" lengthAdjust="spacing" textLength="66.6" x="405.9" y="1132.6576">-lowerReferenceValue</text><line style="stroke:#A80036;stroke-width:0.8999999999999999;" x1="402.9" x2="475.5" y1="1136.5078" y2="1136.5078"/><!--MD5=[80e560c845ce9ec3c8b9ef25ef04dbf1]
class ParameterResult--><rect codeLine="77" fill="#FEFECE" filter="url(#f8ou5ui02r7f1)" height="28.8" id="ParameterResult" style="stroke:#A80036;stroke-width:0.8999999999999999;" width="75.6" x="769.2" y="614.4"/><ellipse cx="778.2" cy="624" fill="#ADD1B2" rx="6.6" ry="6.6" style="stroke:#A80036;stroke-width:0.6;"/><path d="M779.4,621.9 Q779.5219,621.6 779.6625,621.45 Q779.8031,621.3 779.9625,621.3 Q780.2438,621.3 780.4219,621.4688 Q780.6,621.6375 780.6,622.0313 L780.6,622.9688 Q780.6,623.3625 780.4313,623.5313 Q780.2625,623.7 780,623.7 Q779.7656,623.7 779.6156,623.5969 Q779.4656,623.4938 779.4,623.2219 Q779.3719,623.0344 779.2688,622.9313 Q779.0813,622.7344 778.7438,622.6219 Q778.4063,622.5 778.0688,622.5 Q777.6469,622.5 777.2906,622.6687 Q776.9438,622.8375 776.6719,623.2125 Q776.4,623.5875 776.4,624.1031 L776.4,624.6563 Q776.4,625.275 776.9063,625.6875 Q777.4125,626.1 778.3125,626.1 Q778.8469,626.1 779.2219,625.9781 Q779.4375,625.9125 779.6813,625.6969 Q779.8406,625.575 779.925,625.5375 Q780.0094,625.5 780.1125,625.5 Q780.3094,625.5 780.45,625.6594 Q780.6,625.8094 780.6,626.025 Q780.6,626.2312 780.3938,626.475 Q780.0938,626.8313 779.6156,627.0281 Q778.9875,627.3 778.2188,627.3 Q777.3188,627.3 776.5969,626.9438 Q776.0156,626.6625 775.6031,626.0531 Q775.2,625.4438 775.2,624.7219 L775.2,624.0656 Q775.2,623.3156 775.5563,622.6594 Q775.9219,622.0031 776.55,621.6563 Q777.1875,621.3 777.9,621.3 Q778.3313,621.3 778.7063,621.45 Q779.0813,621.6 779.4,621.9 Z " fill="#000000"/><text fill="#000000" font-family="sans-serif" font-size="7.2" lengthAdjust="spacing" textLength="56.4" x="786.6" y="626.9461">ParameterResult</text><line style="stroke:#A80036;stroke-width:0.8999999999999999;" x1="769.8" x2="844.2" y1="633.6" y2="633.6"/><line style="stroke:#A80036;stroke-width:0.8999999999999999;" x1="769.8" x2="844.2" y1="638.4" y2="638.4"/><!--MD5=[f00dbe8c0302c6aec2cb26b3c659c8fc]
class Report--><rect codeLine="78" fill="#FEFECE" filter="url(#f8ou5ui02r7f1)" height="37.1016" id="Report" style="stroke:#A80036;stroke-width:0.8999999999999999;" width="41.4" x="689.7" y="348.6"/><ellipse cx="698.7" cy="358.2" fill="#ADD1B2" rx="6.6" ry="6.6" style="stroke:#A80036;stroke-width:0.6;"/><path d="M699.9,356.1 Q700.0219,355.8 700.1625,355.65 Q700.3031,355.5 700.4625,355.5 Q700.7438,355.5 700.9219,355.6688 Q701.1,355.8375 701.1,356.2313 L701.1,357.1688 Q701.1,357.5625 700.9313,357.7313 Q700.7625,357.9 700.5,357.9 Q700.2656,357.9 700.1156,357.7969 Q699.9656,357.6937 699.9,357.4219 Q699.8719,357.2344 699.7688,357.1312 Q699.5813,356.9344 699.2438,356.8219 Q698.9063,356.7 698.5688,356.7 Q698.1469,356.7 697.7906,356.8688 Q697.4438,357.0375 697.1719,357.4125 Q696.9,357.7875 696.9,358.3031 L696.9,358.8563 Q696.9,359.475 697.4063,359.8875 Q697.9125,360.3 698.8125,360.3 Q699.3469,360.3 699.7219,360.1781 Q699.9375,360.1125 700.1813,359.8969 Q700.3406,359.775 700.425,359.7375 Q700.5094,359.7 700.6125,359.7 Q700.8094,359.7 700.95,359.8594 Q701.1,360.0094 701.1,360.225 Q701.1,360.4313 700.8938,360.675 Q700.5938,361.0313 700.1156,361.2281 Q699.4875,361.5 698.7188,361.5 Q697.8188,361.5 697.0969,361.1438 Q696.5156,360.8625 696.1031,360.2531 Q695.7,359.6438 695.7,358.9219 L695.7,358.2656 Q695.7,357.5156 696.0563,356.8594 Q696.4219,356.2031 697.05,355.8563 Q697.6875,355.5 698.4,355.5 Q698.8313,355.5 699.2063,355.65 Q699.5813,355.8 699.9,356.1 Z " fill="#000000"/><text fill="#000000" font-family="sans-serif" font-size="7.2" lengthAdjust="spacing" textLength="22.2" x="707.1" y="361.1461">Report</text><line style="stroke:#A80036;stroke-width:0.8999999999999999;" x1="690.3" x2="730.5" y1="367.8" y2="367.8"/><text fill="#000000" font-family="sans-serif" font-size="6.6" lengthAdjust="spacing" textLength="28.2" x="693.3" y="377.0514">-textBody</text><line style="stroke:#A80036;stroke-width:0.8999999999999999;" x1="690.3" x2="730.5" y1="380.9016" y2="380.9016"/><!--MD5=[e27cb01a39563223b22d42504ec96d07]
class TestResult--><rect codeLine="81" fill="#FEFECE" filter="url(#f8ou5ui02r7f1)" height="28.8" id="TestResult" style="stroke:#A80036;stroke-width:0.8999999999999999;" width="55.2" x="621" y="450.6"/><ellipse cx="630" cy="460.2" fill="#ADD1B2" rx="6.6" ry="6.6" style="stroke:#A80036;stroke-width:0.6;"/><path d="M631.2,458.1 Q631.3219,457.8 631.4625,457.65 Q631.6031,457.5 631.7625,457.5 Q632.0437,457.5 632.2219,457.6688 Q632.4,457.8375 632.4,458.2313 L632.4,459.1688 Q632.4,459.5625 632.2312,459.7313 Q632.0625,459.9 631.8,459.9 Q631.5656,459.9 631.4156,459.7969 Q631.2656,459.6937 631.2,459.4219 Q631.1719,459.2344 631.0688,459.1312 Q630.8813,458.9344 630.5437,458.8219 Q630.2063,458.7 629.8688,458.7 Q629.4469,458.7 629.0906,458.8688 Q628.7438,459.0375 628.4719,459.4125 Q628.2,459.7875 628.2,460.3031 L628.2,460.8563 Q628.2,461.475 628.7063,461.8875 Q629.2125,462.3 630.1125,462.3 Q630.6469,462.3 631.0219,462.1781 Q631.2375,462.1125 631.4812,461.8969 Q631.6406,461.775 631.725,461.7375 Q631.8094,461.7 631.9125,461.7 Q632.1094,461.7 632.25,461.8594 Q632.4,462.0094 632.4,462.225 Q632.4,462.4313 632.1938,462.675 Q631.8938,463.0313 631.4156,463.2281 Q630.7875,463.5 630.0188,463.5 Q629.1188,463.5 628.3969,463.1437 Q627.8156,462.8625 627.4031,462.2531 Q627,461.6437 627,460.9219 L627,460.2656 Q627,459.5156 627.3562,458.8594 Q627.7219,458.2031 628.35,457.8563 Q628.9875,457.5 629.7,457.5 Q630.1313,457.5 630.5063,457.65 Q630.8813,457.8 631.2,458.1 Z " fill="#000000"/><text fill="#000000" font-family="sans-serif" font-size="7.2" lengthAdjust="spacing" textLength="36" x="638.4" y="463.1461">TestResult</text><line style="stroke:#A80036;stroke-width:0.8999999999999999;" x1="621.6" x2="675.6" y1="469.8" y2="469.8"/><line style="stroke:#A80036;stroke-width:0.8999999999999999;" x1="621.6" x2="675.6" y1="474.6" y2="474.6"/><!--MD5=[aeb3272166074d8737a70b61b1e71682]
class TestType--><rect codeLine="82" fill="#FEFECE" filter="url(#f8ou5ui02r7f1)" height="37.1016" id="TestType" style="stroke:#A80036;stroke-width:0.8999999999999999;" width="49.2" x="222.6" y="953.7"/><ellipse cx="231.6" cy="963.3" fill="#ADD1B2" rx="6.6" ry="6.6" style="stroke:#A80036;stroke-width:0.6;"/><path d="M232.8,961.2 Q232.9219,960.9 233.0625,960.75 Q233.2031,960.6 233.3625,960.6 Q233.6437,960.6 233.8219,960.7688 Q234,960.9375 234,961.3313 L234,962.2688 Q234,962.6625 233.8312,962.8313 Q233.6625,963 233.4,963 Q233.1656,963 233.0156,962.8969 Q232.8656,962.7937 232.8,962.5219 Q232.7719,962.3344 232.6688,962.2312 Q232.4813,962.0344 232.1437,961.9219 Q231.8062,961.8 231.4688,961.8 Q231.0469,961.8 230.6906,961.9688 Q230.3438,962.1375 230.0719,962.5125 Q229.8,962.8875 229.8,963.4031 L229.8,963.9563 Q229.8,964.575 230.3063,964.9875 Q230.8125,965.4 231.7125,965.4 Q232.2469,965.4 232.6219,965.2781 Q232.8375,965.2125 233.0812,964.9969 Q233.2406,964.875 233.325,964.8375 Q233.4094,964.8 233.5125,964.8 Q233.7094,964.8 233.85,964.9594 Q234,965.1094 234,965.325 Q234,965.5313 233.7938,965.775 Q233.4937,966.1312 233.0156,966.3281 Q232.3875,966.6 231.6187,966.6 Q230.7188,966.6 229.9969,966.2438 Q229.4156,965.9625 229.0031,965.3531 Q228.6,964.7438 228.6,964.0219 L228.6,963.3656 Q228.6,962.6156 228.9562,961.9594 Q229.3219,961.3031 229.95,960.9563 Q230.5875,960.6 231.3,960.6 Q231.7313,960.6 232.1063,960.75 Q232.4813,960.9 232.8,961.2 Z " fill="#000000"/><text fill="#000000" font-family="sans-serif" font-size="7.2" lengthAdjust="spacing" textLength="30" x="240" y="966.2461">TestType</text><line style="stroke:#A80036;stroke-width:0.8999999999999999;" x1="223.2" x2="271.2" y1="972.9" y2="972.9"/><text fill="#000000" font-family="sans-serif" font-size="6.6" lengthAdjust="spacing" textLength="35.4" x="226.2" y="982.1514">-designation</text><line style="stroke:#A80036;stroke-width:0.8999999999999999;" x1="223.2" x2="271.2" y1="986.0016" y2="986.0016"/><!--MD5=[9681492165142af2a4a3a169d90ee8d4]
class Sample--><rect codeLine="85" fill="#FEFECE" filter="url(#f8ou5ui02r7f1)" height="53.7047" id="Sample" style="stroke:#A80036;stroke-width:0.8999999999999999;" width="49.8" x="365.1" y="661.2"/><ellipse cx="376.26" cy="670.8" fill="#ADD1B2" rx="6.6" ry="6.6" style="stroke:#A80036;stroke-width:0.6;"/><path d="M377.46,668.7 Q377.5819,668.4 377.7225,668.25 Q377.8631,668.1 378.0225,668.1 Q378.3038,668.1 378.4819,668.2688 Q378.66,668.4375 378.66,668.8313 L378.66,669.7688 Q378.66,670.1625 378.4913,670.3313 Q378.3225,670.5 378.06,670.5 Q377.8256,670.5 377.6756,670.3969 Q377.5256,670.2937 377.46,670.0219 Q377.4319,669.8344 377.3288,669.7312 Q377.1413,669.5344 376.8038,669.4219 Q376.4663,669.3 376.1288,669.3 Q375.7069,669.3 375.3506,669.4688 Q375.0038,669.6375 374.7319,670.0125 Q374.46,670.3875 374.46,670.9031 L374.46,671.4563 Q374.46,672.075 374.9663,672.4875 Q375.4725,672.9 376.3725,672.9 Q376.9069,672.9 377.2819,672.7781 Q377.4975,672.7125 377.7413,672.4969 Q377.9006,672.375 377.985,672.3375 Q378.0694,672.3 378.1725,672.3 Q378.3694,672.3 378.51,672.4594 Q378.66,672.6094 378.66,672.825 Q378.66,673.0313 378.4538,673.275 Q378.1538,673.6313 377.6756,673.8281 Q377.0475,674.1 376.2788,674.1 Q375.3788,674.1 374.6569,673.7438 Q374.0756,673.4625 373.6631,672.8531 Q373.26,672.2438 373.26,671.5219 L373.26,670.8656 Q373.26,670.1156 373.6163,669.4594 Q373.9819,668.8031 374.61,668.4563 Q375.2475,668.1 375.96,668.1 Q376.3913,668.1 376.7663,668.25 Q377.1413,668.4 377.46,668.7 Z " fill="#000000"/><text fill="#000000" font-family="sans-serif" font-size="7.2" lengthAdjust="spacing" textLength="25.8" x="385.14" y="673.7461">Sample</text><line style="stroke:#A80036;stroke-width:0.8999999999999999;" x1="365.7" x2="414.3" y1="680.4" y2="680.4"/><text fill="#000000" font-family="sans-serif" font-size="6.6" lengthAdjust="spacing" textLength="26.4" x="368.7" y="689.6514">-barcode</text><text fill="#000000" font-family="sans-serif" font-size="6.6" lengthAdjust="spacing" textLength="42.6" x="368.7" y="697.9529">-dateCollection</text><text fill="#000000" font-family="sans-serif" font-size="6.6" lengthAdjust="spacing" textLength="41.4" x="368.7" y="706.2545">-timeCollection</text><line style="stroke:#A80036;stroke-width:0.8999999999999999;" x1="365.7" x2="414.3" y1="710.1047" y2="710.1047"/><!--MD5=[1e5329fc67d8218f135f70ba961513ea]
class SampleType--><rect codeLine="90" fill="#FEFECE" filter="url(#f8ou5ui02r7f1)" height="28.8" id="SampleType" style="stroke:#A80036;stroke-width:0.8999999999999999;" width="60.6" x="144.9" y="546.9"/><ellipse cx="153.9" cy="556.5" fill="#ADD1B2" rx="6.6" ry="6.6" style="stroke:#A80036;stroke-width:0.6;"/><path d="M155.1,554.4 Q155.2219,554.1 155.3625,553.95 Q155.5031,553.8 155.6625,553.8 Q155.9438,553.8 156.1219,553.9688 Q156.3,554.1375 156.3,554.5313 L156.3,555.4688 Q156.3,555.8625 156.1313,556.0313 Q155.9625,556.2 155.7,556.2 Q155.4656,556.2 155.3156,556.0969 Q155.1656,555.9938 155.1,555.7219 Q155.0719,555.5344 154.9688,555.4313 Q154.7813,555.2344 154.4438,555.1219 Q154.1063,555 153.7687,555 Q153.3469,555 152.9906,555.1687 Q152.6437,555.3375 152.3719,555.7125 Q152.1,556.0875 152.1,556.6031 L152.1,557.1563 Q152.1,557.775 152.6063,558.1875 Q153.1125,558.6 154.0125,558.6 Q154.5469,558.6 154.9219,558.4781 Q155.1375,558.4125 155.3813,558.1969 Q155.5406,558.075 155.625,558.0375 Q155.7094,558 155.8125,558 Q156.0094,558 156.15,558.1594 Q156.3,558.3094 156.3,558.525 Q156.3,558.7312 156.0938,558.975 Q155.7938,559.3313 155.3156,559.5281 Q154.6875,559.8 153.9188,559.8 Q153.0187,559.8 152.2969,559.4438 Q151.7156,559.1625 151.3031,558.5531 Q150.9,557.9438 150.9,557.2219 L150.9,556.5656 Q150.9,555.8156 151.2563,555.1594 Q151.6219,554.5031 152.25,554.1563 Q152.8875,553.8 153.6,553.8 Q154.0313,553.8 154.4063,553.95 Q154.7813,554.1 155.1,554.4 Z " fill="#000000"/><text fill="#000000" font-family="sans-serif" font-size="7.2" lengthAdjust="spacing" textLength="41.4" x="162.3" y="559.4461">SampleType</text><line style="stroke:#A80036;stroke-width:0.8999999999999999;" x1="145.5" x2="204.9" y1="566.1" y2="566.1"/><line style="stroke:#A80036;stroke-width:0.8999999999999999;" x1="145.5" x2="204.9" y1="570.9" y2="570.9"/><!--MD5=[7d96fd15f3014691d2fcaf89c5791e2a]
class SpecialistDoctor--><rect codeLine="91" fill="#FEFECE" filter="url(#f8ou5ui02r7f1)" height="37.1016" id="SpecialistDoctor" style="stroke:#A80036;stroke-width:0.8999999999999999;" width="73.2" x="612.6" y="188.7"/><ellipse cx="621.6" cy="198.3" fill="#ADD1B2" rx="6.6" ry="6.6" style="stroke:#A80036;stroke-width:0.6;"/><path d="M622.8,196.2 Q622.9219,195.9 623.0625,195.75 Q623.2031,195.6 623.3625,195.6 Q623.6438,195.6 623.8219,195.7687 Q624,195.9375 624,196.3312 L624,197.2687 Q624,197.6625 623.8313,197.8312 Q623.6625,198 623.4,198 Q623.1656,198 623.0156,197.8969 Q622.8656,197.7938 622.8,197.5219 Q622.7719,197.3344 622.6687,197.2313 Q622.4812,197.0344 622.1438,196.9219 Q621.8063,196.8 621.4688,196.8 Q621.0469,196.8 620.6906,196.9688 Q620.3438,197.1375 620.0719,197.5125 Q619.8,197.8875 619.8,198.4031 L619.8,198.9562 Q619.8,199.575 620.3063,199.9875 Q620.8125,200.4 621.7125,200.4 Q622.2469,200.4 622.6219,200.2781 Q622.8375,200.2125 623.0813,199.9969 Q623.2406,199.875 623.325,199.8375 Q623.4094,199.8 623.5125,199.8 Q623.7094,199.8 623.85,199.9594 Q624,200.1094 624,200.325 Q624,200.5313 623.7937,200.775 Q623.4938,201.1313 623.0156,201.3281 Q622.3875,201.6 621.6188,201.6 Q620.7188,201.6 619.9969,201.2438 Q619.4156,200.9625 619.0031,200.3531 Q618.6,199.7438 618.6,199.0219 L618.6,198.3656 Q618.6,197.6156 618.9563,196.9594 Q619.3219,196.3031 619.95,195.9562 Q620.5875,195.6 621.3,195.6 Q621.7312,195.6 622.1062,195.75 Q622.4812,195.9 622.8,196.2 Z " fill="#000000"/><text fill="#000000" font-family="sans-serif" font-size="7.2" lengthAdjust="spacing" textLength="54" x="630" y="201.2461">SpecialistDoctor</text><line style="stroke:#A80036;stroke-width:0.8999999999999999;" x1="613.2" x2="685.2" y1="207.9" y2="207.9"/><text fill="#000000" font-family="sans-serif" font-size="6.6" lengthAdjust="spacing" textLength="58.8" x="616.2" y="217.1514">-doctorIndexNumber</text><line style="stroke:#A80036;stroke-width:0.8999999999999999;" x1="613.2" x2="685.2" y1="221.0016" y2="221.0016"/><!--MD5=[7d17329589c8a1a28e6f8826215bde21]
link Administrator to Category--><path codeLine="95" d="M175.056,1118.226 C234.45,1139.85 361.404,1186.074 414.768,1205.502 " fill="none" id="Administrator-Category" style="stroke:#A80036;stroke-width:0.6;"/><polygon fill="#000000" points="309.781,1163.6791,314.2773,1167.1928,315.4839,1163.8789,309.781,1163.6791" style="stroke:#000000;stroke-width:0.6;"/><text fill="#000000" font-family="sans-serif" font-size="7.8" lengthAdjust="spacing" textLength="36.6" x="318" y="1167.8971">created by</text><text fill="#000000" font-family="sans-serif" font-size="7.8" lengthAdjust="spacing" textLength="4.2" x="179.8029" y="1117.7681">1</text><text fill="#000000" font-family="sans-serif" font-size="7.8" lengthAdjust="spacing" textLength="3" x="407.1489" y="1201.4973">*</text><!--MD5=[47855ee4dabeea37c5949a17ed9e3a41]
link ChemicalLaboratory to Sample--><path codeLine="96" d="M254.01,330.738 C263.076,357.87 277.434,398.46 292.8,432.6 C312.192,475.686 325.32,482.466 343.2,526.2 C362.022,572.244 376.53,628.548 384.126,661.026 " fill="none" id="ChemicalLaboratory-Sample" style="stroke:#A80036;stroke-width:0.6;"/><polygon fill="#000000" points="322.6996,467.8967,322.351,462.201,319.0698,463.4937,322.6996,467.8967" style="stroke:#000000;stroke-width:0.6;"/><text fill="#000000" font-family="sans-serif" font-size="7.8" lengthAdjust="spacing" textLength="31.2" x="327" y="468.2971">analyses</text><text fill="#000000" font-family="sans-serif" font-size="7.8" lengthAdjust="spacing" textLength="4.2" x="250.846" y="343.6511">1</text><text fill="#000000" font-family="sans-serif" font-size="7.8" lengthAdjust="spacing" textLength="3" x="379.9969" y="654.6658">*</text><!--MD5=[0bde84c484199f8c429a86e32cc6847f]
link Client to LabOrder--><path codeLine="97" d="M552.126,1024.356 C547.422,1044.738 542.262,1067.094 538.554,1083.174 " fill="none" id="Client-LabOrder" style="stroke:#A80036;stroke-width:0.6;"/><polygon fill="#000000" points="549.5255,1050.6287,552.4639,1045.737,549.0275,1044.9441,549.5255,1050.6287" style="stroke:#000000;stroke-width:0.6;"/><text fill="#000000" font-family="sans-serif" font-size="7.8" lengthAdjust="spacing" textLength="19.2" x="555.6" y="1050.8971">has a</text><text fill="#000000" font-family="sans-serif" font-size="7.8" lengthAdjust="spacing" textLength="4.2" x="546.8561" y="1036.8251">1</text><text fill="#000000" font-family="sans-serif" font-size="7.8" lengthAdjust="spacing" textLength="3" x="536.2049" y="1076.7687">*</text><!--MD5=[6f5a8b15e66799c0d601e2bda0c1caed]
link ClinicalAnalysisLaboratory to Sample--><path codeLine="98" d="M291.726,596.472 C298.338,611.97 307.686,629.742 319.8,643.2 C332.394,657.186 350.388,668.448 365.004,676.134 " fill="none" id="ClinicalAnalysisLaboratory-Sample" style="stroke:#A80036;stroke-width:0.6;"/><polygon fill="#000000" points="324.831,631.1134,322.4547,625.9254,319.8591,628.313,324.831,631.1134" style="stroke:#000000;stroke-width:0.6;"/><text fill="#000000" font-family="sans-serif" font-size="7.8" lengthAdjust="spacing" textLength="27" x="328.2" y="632.0971">collects</text><text fill="#000000" font-family="sans-serif" font-size="7.8" lengthAdjust="spacing" textLength="4.2" x="288.7479" y="609.4469">1</text><text fill="#000000" font-family="sans-serif" font-size="7.8" lengthAdjust="spacing" textLength="3" x="357.2844" y="671.6719">*</text><!--MD5=[2eb961b30663a01bbfd8b4b9b8950031]
link ClinicalAnalysisLaboratory to TestType--><path codeLine="99" d="M277.098,596.52 C276.036,610.956 274.782,627.888 273.6,643.2 C264.474,761.568 252.798,903.87 248.7,953.544 " fill="none" id="ClinicalAnalysisLaboratory-TestType" style="stroke:#A80036;stroke-width:0.6;"/><polygon fill="#000000" points="269.7621,741.696,271.9502,736.4259,268.4346,736.1462,269.7621,741.696" style="stroke:#000000;stroke-width:0.6;"/><text fill="#000000" font-family="sans-serif" font-size="7.8" lengthAdjust="spacing" textLength="30" x="275.4" y="741.8971">performs</text><text fill="#000000" font-family="sans-serif" font-size="7.8" lengthAdjust="spacing" textLength="4.2" x="272.3371" y="609.5008">1</text><text fill="#000000" font-family="sans-serif" font-size="7.8" lengthAdjust="spacing" textLength="3" x="245.7" y="947.2145">*</text><!--MD5=[98994e1502641fa381021dffe882d56a]
link ClinicalChemistryTechnologist to Sample--><path codeLine="100" d="M487.098,575.832 C469.272,596.352 435.63,635.076 413.016,661.11 " fill="none" id="ClinicalChemistryTechnologist-Sample" style="stroke:#A80036;stroke-width:0.6;"/><polygon fill="#000000" points="456.1674,626.6407,451.2771,629.5813,453.9395,631.8941,456.1674,626.6407" style="stroke:#000000;stroke-width:0.6;"/><text fill="#000000" font-family="sans-serif" font-size="7.8" lengthAdjust="spacing" textLength="42" x="459.6" y="632.0971">analysed by</text><text fill="#000000" font-family="sans-serif" font-size="7.8" lengthAdjust="spacing" textLength="4.2" x="479.4363" y="588.667">1</text><text fill="#000000" font-family="sans-serif" font-size="7.8" lengthAdjust="spacing" textLength="3" x="413.3106" y="654.7627">*</text><!--MD5=[742a261f27a3dcd734c626287d811acd]
link Company to TestType--><path codeLine="101" d="M332.532,101.748 C254.856,110.772 27.6,142.638 27.6,206.7 C27.6,206.7 27.6,206.7 27.6,503.4 C27.6,558.288 60.732,694.014 83.4,744 C122.52,830.262 196.746,916.884 230.154,953.526 " fill="none" id="Company-TestType" style="stroke:#A80036;stroke-width:0.6;"/><polygon fill="#000000" points="30.242,505.884,32.6404,500.7062,29.1389,500.2853,30.242,505.884" style="stroke:#000000;stroke-width:0.6;"/><text fill="#000000" font-family="sans-serif" font-size="7.8" lengthAdjust="spacing" textLength="31.8" x="36" y="506.0971">conducts</text><text fill="#000000" font-family="sans-serif" font-size="7.8" lengthAdjust="spacing" textLength="4.2" x="323.7329" y="111.2202">1</text><text fill="#000000" font-family="sans-serif" font-size="7.8" lengthAdjust="spacing" textLength="3" x="223.3289" y="947.1928">*</text><!--MD5=[cc1f60f7fb1c702a98cbcc58aaecd7da]
link Company to Category--><path codeLine="102" d="M383.964,100.116 C465.096,103.788 714.582,116.346 793.2,135 C861.372,151.176 933.6,136.632 933.6,206.7 C933.6,206.7 933.6,206.7 933.6,1106.7 C933.6,1204.044 563.058,1213.56 463.548,1214.364 " fill="none" id="Company-Category" style="stroke:#A80036;stroke-width:0.6;"/><polygon fill="#000000" points="936.8137,631.8978,938.186,626.359,934.6682,626.6102,936.8137,631.8978" style="stroke:#000000;stroke-width:0.6;"/><text fill="#000000" font-family="sans-serif" font-size="7.8" lengthAdjust="spacing" textLength="12.6" x="942" y="632.0971">has</text><text fill="#000000" font-family="sans-serif" font-size="7.8" lengthAdjust="spacing" textLength="4.2" x="388.579" y="98.1279">1</text><text fill="#000000" font-family="sans-serif" font-size="7.8" lengthAdjust="spacing" textLength="3" x="468.3137" y="1211.9055">*</text><!--MD5=[aafc5d8a5829a6a8d6dc892cb1ff5d24]
link Company to ClinicalAnalysisLaboratory--><path codeLine="103" d="M332.514,102.276 C282.654,110.22 177.6,135.42 177.6,206.7 C177.6,206.7 177.6,206.7 177.6,465.6 C177.6,481.458 204.312,505.992 230.394,526.164 " fill="none" id="Company-ClinicalAnalysisLaboratory" style="stroke:#A80036;stroke-width:0.6;"/><polygon fill="#000000" points="179.8974,370.222,182.8828,365.3589,179.4541,364.5329,179.8974,370.222" style="stroke:#000000;stroke-width:0.6;"/><text fill="#000000" font-family="sans-serif" font-size="7.8" lengthAdjust="spacing" textLength="18" x="186" y="370.4971">owns</text><text fill="#000000" font-family="sans-serif" font-size="7.8" lengthAdjust="spacing" textLength="4.2" x="323.7119" y="100.6457">1</text><text fill="#000000" font-family="sans-serif" font-size="7.8" lengthAdjust="spacing" textLength="3" x="221.2142" y="519.8002">*</text><!--MD5=[d6a5ae732362cd0f86c2003645f951b1]
link Company to ChemicalLaboratory--><path codeLine="104" d="M347.88,117.108 C328.29,151.506 285.51,226.596 261.474,268.782 " fill="none" id="Company-ChemicalLaboratory" style="stroke:#A80036;stroke-width:0.6;"/><polygon fill="#000000" points="339.315,143.1122,343.5336,139.2695,340.4692,137.5238,339.315,143.1122" style="stroke:#000000;stroke-width:0.6;"/><text fill="#000000" font-family="sans-serif" font-size="7.8" lengthAdjust="spacing" textLength="18" x="346.2" y="143.6971">owns</text><text fill="#000000" font-family="sans-serif" font-size="7.8" lengthAdjust="spacing" textLength="4.2" x="341.2348" y="129.8637">1</text><text fill="#000000" font-family="sans-serif" font-size="7.8" lengthAdjust="spacing" textLength="4.2" x="259.4078" y="262.2566">1</text><!--MD5=[15b96e4919f31c1f6d0b47c59fe8e2bf]
link Diagnosis to LaboratoryCoordinator--><path codeLine="105" d="M783.504,479.52 C782.592,488.196 780.504,499.35 775.8,508.2 C767.658,523.524 753.582,537.282 742.104,546.87 " fill="none" id="Diagnosis-LaboratoryCoordinator" style="stroke:#A80036;stroke-width:0.6;"/><polygon fill="#000000" points="780.829,505.4612,785.1732,501.7612,782.1687,499.9144,780.829,505.4612" style="stroke:#000000;stroke-width:0.6;"/><text fill="#000000" font-family="sans-serif" font-size="7.8" lengthAdjust="spacing" textLength="40.8" x="787.8" y="506.0971">validated by</text><text fill="#000000" font-family="sans-serif" font-size="7.8" lengthAdjust="spacing" textLength="3" x="779.9687" y="492.352">*</text><text fill="#000000" font-family="sans-serif" font-size="7.8" lengthAdjust="spacing" textLength="4.2" x="742.1075" y="540.4664">1</text><!--MD5=[fd5f5b962c28af1c88b5bc5c4cfdb2d8]
link Diagnosis to SpecialistDoctor--><path codeLine="106" d="M784.794,450.438 C785.562,416.274 783.336,327.012 743.4,268.8 C729.354,248.322 705.936,233.136 685.962,223.05 " fill="none" id="Diagnosis-SpecialistDoctor" style="stroke:#A80036;stroke-width:0.6;"/><polygon fill="#000000" points="785.3958,370.0568,784.8497,364.3767,781.6153,365.7825,785.3958,370.0568" style="stroke:#000000;stroke-width:0.6;"/><text fill="#000000" font-family="sans-serif" font-size="7.8" lengthAdjust="spacing" textLength="34.2" x="789.6" y="370.4971">generates</text><text fill="#000000" font-family="sans-serif" font-size="7.8" lengthAdjust="spacing" textLength="3" x="781.5618" y="444.0006">*</text><text fill="#000000" font-family="sans-serif" font-size="7.8" lengthAdjust="spacing" textLength="4.2" x="690.6983" y="222.9005">1</text><!--MD5=[0a29b4543c1af9e8341b856b8b8ec05c]
link MedicalLabTechnician to Sample--><path codeLine="107" d="M410.484,432.684 C407.058,475.314 396.654,604.794 392.136,661.044 " fill="none" id="MedicalLabTechnician-Sample" style="stroke:#A80036;stroke-width:0.6;"/><polygon fill="#000000" points="408.8403,499.9151,406.6479,505.1835,410.1633,505.4659,408.8403,499.9151" style="stroke:#000000;stroke-width:0.6;"/><text fill="#000000" font-family="sans-serif" font-size="7.8" lengthAdjust="spacing" textLength="42" x="414" y="506.0971">collected by</text><text fill="#000000" font-family="sans-serif" font-size="7.8" lengthAdjust="spacing" textLength="4.2" x="405.5001" y="445.5073">1</text><text fill="#000000" font-family="sans-serif" font-size="7.8" lengthAdjust="spacing" textLength="3" x="389.2334" y="654.6866">*</text><!--MD5=[19be1708881710afac89d72e827851dc]
link NHS to Company--><path codeLine="108" d="M358.2,33.072 C358.2,46.026 358.2,65.448 358.2,79.638 " fill="none" id="NHS-Company" style="stroke:#A80036;stroke-width:0.6;"/><polygon fill="#000000" points="361.2,59.5055,362.9634,54.0784,359.4366,54.0784,361.2,59.5055" style="stroke:#000000;stroke-width:0.6;"/><text fill="#000000" font-family="sans-serif" font-size="7.8" lengthAdjust="spacing" textLength="61.2" x="366.6" y="59.6971">requests report to</text><text fill="#000000" font-family="sans-serif" font-size="7.8" lengthAdjust="spacing" textLength="4.2" x="353.4881" y="45.8923">1</text><text fill="#000000" font-family="sans-serif" font-size="7.8" lengthAdjust="spacing" textLength="4.2" x="353.5669" y="73.3073">1</text><!--MD5=[852f3a1b1bcfc6074ebcba484562eac0]
link Parameter to Category--><path codeLine="109" d="M439.2,1141.368 C439.2,1156.494 439.2,1173.948 439.2,1187.994 " fill="none" id="Parameter-Category" style="stroke:#A80036;stroke-width:0.6;"/><polygon fill="#000000" points="442.2,1167.7055,443.9634,1162.2784,440.4366,1162.2784,442.2,1167.7055" style="stroke:#000000;stroke-width:0.6;"/><text fill="#000000" font-family="sans-serif" font-size="7.8" lengthAdjust="spacing" textLength="55.8" x="447.6" y="1167.8971">presented under</text><text fill="#000000" font-family="sans-serif" font-size="7.8" lengthAdjust="spacing" textLength="3" x="436.0266" y="1154.1039">*</text><text fill="#000000" font-family="sans-serif" font-size="7.8" lengthAdjust="spacing" textLength="4.2" x="434.6653" y="1181.4623">1</text><!--MD5=[15b2848963e3cb1b607833a8179862c1]
link ParameterResult to Parameter--><path codeLine="110" d="M809.766,643.218 C813.636,663.792 820.2,703.716 820.2,738 C820.2,738 820.2,738 820.2,972.9 C820.2,1122.588 637.392,1016.436 498,1071 C490.668,1073.868 483.18,1077.576 476.112,1081.488 " fill="none" id="ParameterResult-Parameter" style="stroke:#A80036;stroke-width:0.6;"/><polygon fill="#000000" points="821.3828,820.2925,826.0732,817.0425,823.2671,814.9062,821.3828,820.2925" style="stroke:#000000;stroke-width:0.6;"/><text fill="#000000" font-family="sans-serif" font-size="7.8" lengthAdjust="spacing" textLength="46.8" x="828.6" y="821.0971">associated to</text><text fill="#000000" font-family="sans-serif" font-size="7.8" lengthAdjust="spacing" textLength="4.2" x="805.7283" y="656.0252">1</text><text fill="#000000" font-family="sans-serif" font-size="7.8" lengthAdjust="spacing" textLength="4.2" x="480.8666" y="1076.4068">1</text><!--MD5=[6a35157f4c730bda767e7c9f1b8b7f73]
link Receptionist to Client--><path codeLine="111" d="M587.754,702.864 C592.794,717.426 600.12,740.958 603,762 C609.72,811.14 612.33,824.886 603,873.6 C600,889.26 594.534,905.604 588.63,920.364 " fill="none" id="Receptionist-Client" style="stroke:#A80036;stroke-width:0.6;"/><polygon fill="#000000" points="612.0121,820.9054,613.7536,815.4713,610.2269,815.4855,612.0121,820.9054" style="stroke:#000000;stroke-width:0.6;"/><text fill="#000000" font-family="sans-serif" font-size="7.8" lengthAdjust="spacing" textLength="30" x="617.4" y="821.0971">registers</text><text fill="#000000" font-family="sans-serif" font-size="7.8" lengthAdjust="spacing" textLength="4.2" x="584.2602" y="715.4865">1</text><text fill="#000000" font-family="sans-serif" font-size="7.8" lengthAdjust="spacing" textLength="3" x="587.69" y="913.8301">*</text><!--MD5=[e8b34c2e6517a986175307f5599f058a]
link Receptionist to Test--><path codeLine="112" d="M566.982,702.786 C542.298,724.884 494.052,768.09 464.418,794.622 " fill="none" id="Receptionist-Test" style="stroke:#A80036;stroke-width:0.6;"/><polygon fill="#000000" points="532.365,740.7067,537.5844,738.4001,535.2319,735.7728,532.365,740.7067" style="stroke:#000000;stroke-width:0.6;"/><text fill="#000000" font-family="sans-serif" font-size="7.8" lengthAdjust="spacing" textLength="30" x="540" y="741.8971">registers</text><text fill="#000000" font-family="sans-serif" font-size="7.8" lengthAdjust="spacing" textLength="4.2" x="558.6847" y="715.3905">1</text><text fill="#000000" font-family="sans-serif" font-size="7.8" lengthAdjust="spacing" textLength="3" x="469.1771" y="788.1351">*</text><!--MD5=[9ea131e34883d590a1cfd41d17f43241]
link Report to Diagnosis--><path codeLine="113" d="M712.338,385.938 C714.624,399.93 719.568,419.112 730.2,432.6 C737.274,441.57 747.63,448.536 757.38,453.624 " fill="none" id="Report-Diagnosis" style="stroke:#A80036;stroke-width:0.6;"/><polygon fill="#000000" points="734.862,420.803,733.3234,415.308,730.3874,417.2618,734.862,420.803" style="stroke:#000000;stroke-width:0.6;"/><text fill="#000000" font-family="sans-serif" font-size="7.8" lengthAdjust="spacing" textLength="29.4" x="738.6" y="421.4971">contains</text><text fill="#000000" font-family="sans-serif" font-size="7.8" lengthAdjust="spacing" textLength="4.2" x="708.1071" y="398.5515">1</text><text fill="#000000" font-family="sans-serif" font-size="7.8" lengthAdjust="spacing" textLength="4.2" x="748.5709" y="449.5598">1</text><!--MD5=[0e54f9b161a60743d9b464e5484a1c06]
link Report to TestResult--><path codeLine="114" d="M689.646,377.556 C674.16,385.296 654.93,396.072 650.4,403.8 C642.096,417.966 643.248,437.37 645.408,450.366 " fill="none" id="Report-TestResult" style="stroke:#A80036;stroke-width:0.6;"/><polygon fill="#000000" points="651.8422,420.8693,656.1673,417.1469,653.1532,415.3156,651.8422,420.8693" style="stroke:#000000;stroke-width:0.6;"/><text fill="#000000" font-family="sans-serif" font-size="7.8" lengthAdjust="spacing" textLength="46.8" x="658.8" y="421.4971">associated to</text><text fill="#000000" font-family="sans-serif" font-size="7.8" lengthAdjust="spacing" textLength="4.2" x="680.7324" y="377.2309">1</text><text fill="#000000" font-family="sans-serif" font-size="7.8" lengthAdjust="spacing" textLength="4.2" x="639.9181" y="444.1517">1</text><!--MD5=[a23f50aea1fcb140948e132a9bfce5a1]
link Sample to Client--><path codeLine="115" d="M414.9,688.95 C446.85,690.618 501.438,698.724 529.2,733.2 C548.856,757.608 537.552,842.64 542.4,873.6 C544.788,888.846 548.106,905.28 551.424,920.25 " fill="none" id="Sample-Client" style="stroke:#A80036;stroke-width:0.6;"/><polygon fill="#000000" points="546.9249,820.489,545.6849,814.919,542.6478,816.7117,546.9249,820.489" style="stroke:#000000;stroke-width:0.6;"/><text fill="#000000" font-family="sans-serif" font-size="7.8" lengthAdjust="spacing" textLength="46.8" x="550.8" y="821.0971">associated to</text><text fill="#000000" font-family="sans-serif" font-size="7.8" lengthAdjust="spacing" textLength="3" x="419.7675" y="686.747">*</text><text fill="#000000" font-family="sans-serif" font-size="7.8" lengthAdjust="spacing" textLength="4.2" x="545.9628" y="913.8829">1</text><!--MD5=[1ae83efc6d1967ce5bc17dfe294d00c2]
link Sample to Test--><path codeLine="116" d="M398.142,715.356 C401.076,724.494 404.526,734.754 408,744 C410.184,749.82 412.566,755.856 415.008,761.85 " fill="none" id="Sample-Test" style="stroke:#A80036;stroke-width:0.6;"/><polygon fill="#000000" points="412.023,741.5256,411.83,735.8226,408.5147,737.0252,412.023,741.5256" style="stroke:#000000;stroke-width:0.6;"/><text fill="#000000" font-family="sans-serif" font-size="7.8" lengthAdjust="spacing" textLength="46.8" x="416.4" y="741.8971">associated to</text><text fill="#000000" font-family="sans-serif" font-size="7.8" lengthAdjust="spacing" textLength="3" x="396.0345" y="727.7812">*</text><text fill="#000000" font-family="sans-serif" font-size="7.8" lengthAdjust="spacing" textLength="4.2" x="408.7129" y="755.5059">1</text><!--MD5=[b72ac8ab7fb5921fceb5036a3902baea]
link Test to Sample--><path codeLine="125" d="M413.97,801.066 C396.186,788.076 373.794,768.054 363.6,744 C359.58,734.514 362.394,724.29 367.446,715.248 " fill="none" id="Test-Sample" style="stroke:#A80036;stroke-width:0.6;"/><polygon fill="#000000" points="365.1702,736.0681,366.2065,741.6796,369.3069,739.9987,365.1702,736.0681" style="stroke:#000000;stroke-width:0.6;"/><text fill="#000000" font-family="sans-serif" font-size="7.8" lengthAdjust="spacing" textLength="27" x="372" y="741.8971">collects</text><text fill="#000000" font-family="sans-serif" font-size="7.8" lengthAdjust="spacing" textLength="4.2" x="405.0727" y="795.8615">1</text><text fill="#000000" font-family="sans-serif" font-size="7.8" lengthAdjust="spacing" textLength="3" x="361.0634" y="727.8593">*</text><!--MD5=[25a58075d12b4e24c3095e04bee16a0d]
link SampleType to Sample--><path codeLine="117" d="M191.448,575.7 C198.918,582.024 207.894,589.608 216,596.4 C240.972,617.316 244.242,626.82 272.4,643.2 C302.394,660.648 340.494,673.548 365.064,680.82 " fill="none" id="SampleType-Sample" style="stroke:#A80036;stroke-width:0.6;"/><polygon fill="#000000" points="272.8337,627.3517,276.5628,631.6709,278.3895,628.6541,272.8337,627.3517" style="stroke:#000000;stroke-width:0.6;"/><text fill="#000000" font-family="sans-serif" font-size="7.8" lengthAdjust="spacing" textLength="14.4" x="280.8" y="632.0971">is of</text><text fill="#000000" font-family="sans-serif" font-size="7.8" lengthAdjust="spacing" textLength="4.2" x="190.6966" y="588.5028">1</text><text fill="#000000" font-family="sans-serif" font-size="7.8" lengthAdjust="spacing" textLength="4.2" x="356.0482" y="688.5026">1</text><!--MD5=[35c5d5b78cc27fdb07caaeeaa436e174]
link SpecialistDoctor to Report--><path codeLine="118" d="M656.16,225.948 C667.938,256.494 691.668,318.03 703.446,348.564 " fill="none" id="SpecialistDoctor-Report" style="stroke:#A80036;stroke-width:0.6;"/><polygon fill="#000000" points="699.4794,302.6045,699.172,296.9065,695.8815,298.1755,699.4794,302.6045" style="stroke:#000000;stroke-width:0.6;"/><text fill="#000000" font-family="sans-serif" font-size="7.8" lengthAdjust="spacing" textLength="34.2" x="703.8" y="302.9971">generates</text><text fill="#000000" font-family="sans-serif" font-size="7.8" lengthAdjust="spacing" textLength="4.2" x="652.9168" y="238.6918">1</text><text fill="#000000" font-family="sans-serif" font-size="7.8" lengthAdjust="spacing" textLength="3" x="698.5967" y="341.9683">*</text><!--MD5=[3994f36c72829dbcddd1cf7021dddf61]
link Test to Client--><path codeLine="119" d="M453.624,873.804 C458.37,884.316 464.616,894.486 472.8,902.4 C489.72,918.762 503.436,906.738 522.6,920.4 C528.474,924.588 533.958,929.82 538.896,935.328 " fill="none" id="Test-Client" style="stroke:#A80036;stroke-width:0.6;"/><polygon fill="#000000" points="478.2329,898.8608,474.8635,894.2554,472.8,897.1154,478.2329,898.8608" style="stroke:#000000;stroke-width:0.6;"/><text fill="#000000" font-family="sans-serif" font-size="7.8" lengthAdjust="spacing" textLength="45" x="481.2" y="900.2971">requested by</text><text fill="#000000" font-family="sans-serif" font-size="7.8" lengthAdjust="spacing" textLength="3" x="451.6539" y="886.7462">*</text><text fill="#000000" font-family="sans-serif" font-size="7.8" lengthAdjust="spacing" textLength="4.2" x="530.0203" y="926.6882">1</text><!--MD5=[7e4bc624457760b649895ff2ead938fa]
link Company to Test--><path codeLine="120" d="M383.742,98.94 C486.318,99.36 862.8,107.664 862.8,206.7 C862.8,206.7 862.8,206.7 862.8,629.4 C862.8,646.602 864.624,657.588 604.2,744 C573.63,754.146 563.802,749.778 534,762 C509.244,772.152 483.108,787.788 464.562,799.83 " fill="none" id="Company-Test" style="stroke:#A80036;stroke-width:0.6;"/><polygon fill="#000000" points="866.1437,468.0857,867.2737,462.4924,863.7702,462.8964,866.1437,468.0857" style="stroke:#000000;stroke-width:0.6;"/><text fill="#000000" font-family="sans-serif" font-size="7.8" lengthAdjust="spacing" textLength="30" x="871.2" y="468.2971">performs</text><text fill="#000000" font-family="sans-serif" font-size="7.8" lengthAdjust="spacing" textLength="4.2" x="388.493" y="107.9815">1</text><text fill="#000000" font-family="sans-serif" font-size="7.8" lengthAdjust="spacing" textLength="3" x="469.1789" y="794.4131">*</text><!--MD5=[c23963f6e403fc3ebec8dae22c30ade6]
link Test to Parameter--><path codeLine="121" d="M439.2,873.756 C439.2,932.01 439.2,1021.896 439.2,1070.844 " fill="none" id="Test-Parameter" style="stroke:#A80036;stroke-width:0.6;"/><polygon fill="#000000" points="442.2,975.4055,443.9634,969.9784,440.4366,969.9784,442.2,975.4055" style="stroke:#000000;stroke-width:0.6;"/><text fill="#000000" font-family="sans-serif" font-size="7.8" lengthAdjust="spacing" textLength="69.6" x="447.6" y="975.5971">requests analysis of</text><text fill="#000000" font-family="sans-serif" font-size="7.8" lengthAdjust="spacing" textLength="3" x="436.0805" y="886.6944">*</text><text fill="#000000" font-family="sans-serif" font-size="7.8" lengthAdjust="spacing" textLength="12" x="426.4688" y="1064.4655">1..*</text><!--MD5=[7ae31b06ecb5db678e40497ee74dd179]
link Test to LabOrder--><path codeLine="122" d="M413.91,861.426 C391.752,905.304 367.44,973.884 397.8,1024.2 C420.846,1062.396 448.806,1047.3 486.6,1071 C493.782,1075.506 501.294,1080.768 508.14,1085.808 " fill="none" id="Test-LabOrder" style="stroke:#A80036;stroke-width:0.6;"/><polygon fill="#000000" points="401.9616,975.1715,401.4861,969.485,398.2344,970.8505,401.9616,975.1715" style="stroke:#000000;stroke-width:0.6;"/><text fill="#000000" font-family="sans-serif" font-size="7.8" lengthAdjust="spacing" textLength="27.6" x="406.2" y="975.5971">requires</text><text fill="#000000" font-family="sans-serif" font-size="7.8" lengthAdjust="spacing" textLength="4.2" x="405.0023" y="866.5959">1</text><text fill="#000000" font-family="sans-serif" font-size="7.8" lengthAdjust="spacing" textLength="4.2" x="499.2375" y="1080.0274">1</text><!--MD5=[e981d4f96c4342412d1e68160b30cf70]
link Test to TestType--><path codeLine="123" d="M413.814,831.612 C389.082,845.07 351.012,867.354 321.6,891.6 C298.536,910.614 275.688,936.552 261.522,953.694 " fill="none" id="Test-TestType" style="stroke:#A80036;stroke-width:0.6;"/><polygon fill="#000000" points="322.2593,898.9819,327.5966,896.9633,325.3908,894.2116,322.2593,898.9819" style="stroke:#000000;stroke-width:0.6;"/><text fill="#000000" font-family="sans-serif" font-size="7.8" lengthAdjust="spacing" textLength="14.4" x="330" y="900.2971">is of</text><text fill="#000000" font-family="sans-serif" font-size="7.8" lengthAdjust="spacing" textLength="3" x="406.193" y="831.6576">*</text><text fill="#000000" font-family="sans-serif" font-size="7.8" lengthAdjust="spacing" textLength="4.2" x="259.9956" y="947.1048">1</text><!--MD5=[73dffd3648c374487b6d8c6733c5b5e0]
link Test to TestResult--><path codeLine="124" d="M464.502,801.378 C483.342,789.864 509.874,774.216 534,762 C551.898,752.934 557.562,753.18 575.4,744 C597.522,732.618 610.068,736.206 623.4,715.2 C672.408,637.974 657.972,519.486 651.198,479.4 " fill="none" id="Test-TestResult" style="stroke:#A80036;stroke-width:0.6;"/><polygon fill="#000000" points="660.3048,626.3102,656.0571,630.1206,659.108,631.8896,660.3048,626.3102" style="stroke:#000000;stroke-width:0.6;"/><text fill="#000000" font-family="sans-serif" font-size="7.8" lengthAdjust="spacing" textLength="19.2" x="664.2" y="632.0971">has a</text><text fill="#000000" font-family="sans-serif" font-size="7.8" lengthAdjust="spacing" textLength="4.2" x="469.2117" y="807.4771">1</text><text fill="#000000" font-family="sans-serif" font-size="7.8" lengthAdjust="spacing" textLength="4.2" x="647.1194" y="492.2028">1</text><!--MD5=[39307a57e800e669e446a1017bb37a9f]
link TestResult to LaboratoryCoordinator--><path codeLine="126" d="M657.624,479.496 C663.258,487.962 670.788,498.9 678,508.2 C688.506,521.748 701.388,536.418 710.778,546.798 " fill="none" id="TestResult-LaboratoryCoordinator" style="stroke:#A80036;stroke-width:0.6;"/><polygon fill="#000000" points="682.8594,505.2598,680.8795,499.9079,678.1119,502.0937,682.8594,505.2598" style="stroke:#000000;stroke-width:0.6;"/><text fill="#000000" font-family="sans-serif" font-size="7.8" lengthAdjust="spacing" textLength="40.8" x="686.4" y="506.0971">validated by</text><text fill="#000000" font-family="sans-serif" font-size="7.8" lengthAdjust="spacing" textLength="3" x="656.458" y="492.3222">*</text><text fill="#000000" font-family="sans-serif" font-size="7.8" lengthAdjust="spacing" textLength="4.2" x="702.7542" y="540.376">1</text><!--MD5=[b68fa5675f8a531b49dc6f7e20370c4c]
link TestResult to SpecialistDoctor--><path codeLine="127" d="M643.698,450.426 C638.544,434.886 630.834,408.912 628.2,385.8 C621.546,327.396 636.162,258.264 644.268,226.08 " fill="none" id="TestResult-SpecialistDoctor" style="stroke:#A80036;stroke-width:0.6;"/><polygon fill="#000000" points="631.2076,364.3055,629.4305,369.728,632.9572,369.737,631.2076,364.3055" style="stroke:#000000;stroke-width:0.6;"/><text fill="#000000" font-family="sans-serif" font-size="7.8" lengthAdjust="spacing" textLength="42" x="636.6" y="370.4971">analysed by</text><text fill="#000000" font-family="sans-serif" font-size="7.8" lengthAdjust="spacing" textLength="3" x="642.8262" y="443.9855">*</text><text fill="#000000" font-family="sans-serif" font-size="7.8" lengthAdjust="spacing" textLength="4.2" x="638.7275" y="238.7015">1</text><!--MD5=[c3eab042445b9f1143b07b00e4f65a8d]
link TestResult to ClinicalChemistryTechnologist--><path codeLine="128" d="M620.904,478.542 C609.894,483.99 597.24,490.632 586.2,497.4 C560.964,512.88 533.628,533.454 516.462,546.882 " fill="none" id="TestResult-ClinicalChemistryTechnologist" style="stroke:#A80036;stroke-width:0.6;"/><polygon fill="#000000" points="591.7103,501.2629,586.2036,502.7588,588.1346,505.7099,591.7103,501.2629" style="stroke:#000000;stroke-width:0.6;"/><text fill="#000000" font-family="sans-serif" font-size="7.8" lengthAdjust="spacing" textLength="34.2" x="594.6" y="506.0971">generates</text><text fill="#000000" font-family="sans-serif" font-size="7.8" lengthAdjust="spacing" textLength="3" x="613.2509" y="478.4491">*</text><text fill="#000000" font-family="sans-serif" font-size="7.8" lengthAdjust="spacing" textLength="4.2" x="516.1473" y="540.4815">1</text><!--MD5=[6351e58b5f8c8ec0a6ac945d352d6ad9]
link TestResult to ParameterResult--><path codeLine="129" d="M676.23,475.212 C692.238,481.068 712.638,489.018 730.2,497.4 C730.926,497.748 780.108,525.558 780.6,526.2 C800.868,552.726 805.656,593.268 806.736,614.364 " fill="none" id="TestResult-ParameterResult" style="stroke:#A80036;stroke-width:0.6;"/><polygon fill="#000000" points="753.8523,505.0937,751.4259,499.9289,748.8535,502.3415,753.8523,505.0937" style="stroke:#000000;stroke-width:0.6;"/><text fill="#000000" font-family="sans-serif" font-size="7.8" lengthAdjust="spacing" textLength="12.6" x="757.2" y="506.0971">has</text><text fill="#000000" font-family="sans-serif" font-size="7.8" lengthAdjust="spacing" textLength="4.2" x="680.9682" y="474.5884">1</text><text fill="#000000" font-family="sans-serif" font-size="7.8" lengthAdjust="spacing" textLength="3" x="803.284" y="607.9589">*</text><!--MD5=[0985ee834cc881275852ed47ce1e01f6]
link TestType to Administrator--><path codeLine="130" d="M232.986,991.062 C211.998,1017.87 173.172,1067.472 154.284,1091.598 " fill="none" id="TestType-Administrator" style="stroke:#A80036;stroke-width:0.6;"/><polygon fill="#000000" points="193.7508,1050.0677,198.4846,1046.8813,195.7076,1044.7074,193.7508,1050.0677" style="stroke:#000000;stroke-width:0.6;"/><text fill="#000000" font-family="sans-serif" font-size="7.8" lengthAdjust="spacing" textLength="36.6" x="201" y="1050.8971">created by</text><text fill="#000000" font-family="sans-serif" font-size="7.8" lengthAdjust="spacing" textLength="3" x="226.9905" y="1003.6801">*</text><text fill="#000000" font-family="sans-serif" font-size="7.8" lengthAdjust="spacing" textLength="4.2" x="152.3349" y="1085.176">1</text><!--MD5=[5b7a9ded131023be416e27d15bcd6d77]
link TestType to Parameter--><path codeLine="131" d="M260.886,990.906 C275.01,1008.534 298.446,1035.264 323.4,1053 C347.598,1070.202 378.336,1083.822 402.06,1092.87 " fill="none" id="TestType-Parameter" style="stroke:#A80036;stroke-width:0.6;"/><polygon fill="#000000" points="328.832,1049.462,325.4649,1044.8549,323.4,1047.7139,328.832,1049.462" style="stroke:#000000;stroke-width:0.6;"/><text fill="#000000" font-family="sans-serif" font-size="7.8" lengthAdjust="spacing" textLength="12.6" x="331.8" y="1050.8971">has</text><text fill="#000000" font-family="sans-serif" font-size="7.8" lengthAdjust="spacing" textLength="4.2" x="258.967" y="1003.6416">1</text><text fill="#000000" font-family="sans-serif" font-size="7.8" lengthAdjust="spacing" textLength="12" x="385.6112" y="1089.513">1..*</text><!--MD5=[f7fb1bbd8b4f4021e9754ae6fe2871a0]
reverse link Employee to Administrator--><path codeLine="132" d="M423.798,262.116 C388.38,346.494 322.728,500.454 312,508.2 C279.84,531.426 163.344,499.068 134.4,526.2 C64.77,591.468 99,642.558 99,738 C99,738 99,738 99,972.9 C99,1018.296 122.694,1068.126 135.462,1091.688 " fill="none" id="Employee-backto-Administrator" style="stroke:#A80036;stroke-width:0.6;"/><polygon fill="none" points="419.964,260.382,428.478,250.938,427.716,263.628,419.964,260.382" style="stroke:#A80036;stroke-width:0.6;"/><!--MD5=[8f7dd94d56b58fc07b233ccd3dd98f8c]
link Administrator to Employee--><path codeLine="139" d="M111.852,1092.408 C70.62,1072.95 3.6,1032.192 3.6,972.9 C3.6,687.6 3.6,687.6 3.6,687.6 C3.6,606.612 23.982,575.55 88.2,526.2 C162.99,468.732 222.018,538.908 295.2,479.4 C335.106,446.952 362.928,311.766 391.2,268.8 C399.438,256.284 410.202,243.792 420.036,233.406 " fill="none" id="Administrator-Employee" style="stroke:#A80036;stroke-width:0.6;"/><polygon fill="#000000" points="17.2131,626.0817,13.7206,630.5945,17.0402,631.7854,17.2131,626.0817" style="stroke:#000000;stroke-width:0.6;"/><text fill="#000000" font-family="sans-serif" font-size="7.8" lengthAdjust="spacing" textLength="30" x="21.6" y="632.0971">registers</text><text fill="#000000" font-family="sans-serif" font-size="7.8" lengthAdjust="spacing" textLength="4.2" x="102.9203" y="1088.3195">1</text><text fill="#000000" font-family="sans-serif" font-size="7.8" lengthAdjust="spacing" textLength="3" x="412.421" y="235.4567">*</text><!--MD5=[4c7c52c4bf7e982cdae6fb6daeda4b43]
reverse link Employee to ClinicalChemistryTechnologist--><path codeLine="133" d="M454.62,262.83 C467.106,346.242 490.134,500.106 497.13,546.864 " fill="none" id="Employee-backto-ClinicalChemistryTechnologist" style="stroke:#A80036;stroke-width:0.6;"/><polygon fill="none" points="450.444,263.298,452.82,250.806,458.754,262.056,450.444,263.298" style="stroke:#A80036;stroke-width:0.6;"/><!--MD5=[8c76900db13228c02bafda6909b4bb57]
reverse link Employee to MedicalLabTechnician--><path codeLine="134" d="M437.292,262.776 C429.432,310.152 418.62,375.306 413.928,403.572 " fill="none" id="Employee-backto-MedicalLabTechnician" style="stroke:#A80036;stroke-width:0.6;"/><polygon fill="none" points="433.164,261.99,439.272,250.842,441.45,263.37,433.164,261.99" style="stroke:#A80036;stroke-width:0.6;"/><!--MD5=[7dae17bb55c59b06af656d7c83a51371]
reverse link Employee to LaboratoryCoordinator--><path codeLine="135" d="M483.21,225.798 C500.298,236.016 519.252,250.47 530.4,268.8 C586.308,360.732 497.178,425.826 566.4,508.2 C573.804,517.014 633.36,535.314 676.986,547.806 " fill="none" id="Employee-backto-LaboratoryCoordinator" style="stroke:#A80036;stroke-width:0.6;"/><polygon fill="none" points="481.026,229.386,472.626,219.84,485.142,222.066,481.026,229.386" style="stroke:#A80036;stroke-width:0.6;"/><!--MD5=[bfff716514ca687b645fe473c6e098a4]
reverse link Employee to Receptionist--><path codeLine="136" d="M473.166,262.122 C474.084,264.366 474.966,266.598 475.8,268.8 C510.126,359.718 494.076,391.074 534.6,479.4 C541.014,493.38 544.362,496.05 553.8,508.2 C560.4,516.702 565.758,516.312 570,526.2 C591.78,576.954 587.55,644.886 584.406,673.722 " fill="none" id="Employee-backto-Receptionist" style="stroke:#A80036;stroke-width:0.6;"/><polygon fill="none" points="469.224,263.586,468.318,250.902,476.934,260.25,469.224,263.586" style="stroke:#A80036;stroke-width:0.6;"/><!--MD5=[372bd27a178b4208a6d241b4516ac7e6]
reverse link Employee to SpecialistDoctor--><path codeLine="137" d="M484.566,207.3 C527.196,207.3 569.826,207.3 612.456,207.3 " fill="none" id="Employee-backto-SpecialistDoctor" style="stroke:#A80036;stroke-width:0.6;"/><polygon fill="none" points="484.542,211.5,472.542,207.3,484.542,203.1,484.542,211.5" style="stroke:#A80036;stroke-width:0.6;"/><!--MD5=[09366576ee87d48d594df10cacc83f45]
link Company to Employee--><path codeLine="138" d="M372.96,117.024 C385.812,132.714 404.742,155.832 420.162,174.66 " fill="none" id="Company-Employee" style="stroke:#A80036;stroke-width:0.6;"/><polygon fill="#000000" points="399.7008,142.8264,397.6265,137.5105,394.898,139.745,399.7008,142.8264" style="stroke:#000000;stroke-width:0.6;"/><text fill="#000000" font-family="sans-serif" font-size="7.8" lengthAdjust="spacing" textLength="12.6" x="403.2" y="143.6971">has</text><text fill="#000000" font-family="sans-serif" font-size="7.8" lengthAdjust="spacing" textLength="4.2" x="371.2524" y="129.7631">1</text><text fill="#000000" font-family="sans-serif" font-size="7.8" lengthAdjust="spacing" textLength="12" x="403.427" y="167.6801">1..*</text><!--MD5=[0e983f4860443f76db36d54e7f3ee406]
link SampleType to CollectionMethod--><path codeLine="140" d="M174.534,575.832 C173.442,598.716 171.27,644.244 170.064,669.558 " fill="none" id="SampleType-CollectionMethod" style="stroke:#A80036;stroke-width:0.6;"/><polygon fill="#000000" points="175.6571,631.9021,177.677,626.5652,174.1543,626.3972,175.6571,631.9021" style="stroke:#000000;stroke-width:0.6;"/><text fill="#000000" font-family="sans-serif" font-size="7.8" lengthAdjust="spacing" textLength="12.6" x="181.2" y="632.0971">has</text><text fill="#000000" font-family="sans-serif" font-size="7.8" lengthAdjust="spacing" textLength="4.2" x="169.6598" y="588.667">1</text><text fill="#000000" font-family="sans-serif" font-size="7.8" lengthAdjust="spacing" textLength="12" x="156.9405" y="662.961">1..*</text><!--MD5=[d9b0b8f9c6445dab70aeeb241b080283]
link SampleType to TestType--><path codeLine="141" d="M183.444,575.748 C193.986,594.396 211.626,628.956 217.8,661.2 C222.312,684.774 225.018,692.31 217.8,715.2 C214.866,724.512 208.134,723.888 205.2,733.2 C203.754,737.778 204.762,739.218 205.2,744 C212.412,822.864 233.394,915.192 242.682,953.556 " fill="none" id="SampleType-TestType" style="stroke:#A80036;stroke-width:0.6;"/><polygon fill="#000000" points="207.7353,735.7417,206.8339,741.3764,210.318,740.8301,207.7353,735.7417" style="stroke:#000000;stroke-width:0.6;"/><text fill="#000000" font-family="sans-serif" font-size="7.8" lengthAdjust="spacing" textLength="46.8" x="213.6" y="741.8971">associated to</text><text fill="#000000" font-family="sans-serif" font-size="7.8" lengthAdjust="spacing" textLength="4.2" x="180.7416" y="588.5625">1</text><text fill="#000000" font-family="sans-serif" font-size="7.8" lengthAdjust="spacing" textLength="4.2" x="237.117" y="947.229">1</text><!--MD5=[5b87cc7a2398b4cf8874e01b115dee63]
@startuml
skinparam classAttributeIconSize 0

class Administrator
class Category {
-code
-description
-nhsID
}
class ChemicalLaboratory {
-name
-address
-phoneNumber
-TIN
}
class CollectionMethod {
-designation
}
class Client {
-name
-cardNumber
-birthDate
-sex
-nhsID
-TIF
-phoneNumber
-email
-password
}
class ClinicalAnalysisLaboratory {
-name
-address
-phoneNumber
-TIN
-laboratoryID
}
class ClinicalChemistryTechnologist
class Company {
-designation
}
class Diagnosis
class LabOrder {
-testType
-parameters
}
class Employee {
-employeeID
-organizationID
-name
-address
-phoneNumber
-email
-SOCcode
}
class LaboratoryCoordinator
class MedicalLabTechnician
class NHS
class Receptionist
class Test {
-internalCode
-nhsCode
-createdAt
-designation
-dateAnalysis
-timeAnalysis
-dateDiagnosis
-timeDiagnosis
-dateValidation
-timeValidation
}
class Parameter {
-code
-shortName
-description
-upperReferenceValue
-lowerReferenceValue
}
class ParameterResult
class Report {
-textBody
}
class TestResult
class TestType {
-designation
}
class Sample {
-barcode
-dateCollection
-timeCollection
}
class SampleType
class SpecialistDoctor {
-doctorIndexNumber
}

Administrator "1"- -"*" Category : created by <
ChemicalLaboratory "1"- -"*" Sample : analyses >
Client "1"- -"*" LabOrder : has a >
ClinicalAnalysisLaboratory "1"- -"*" Sample : collects >
ClinicalAnalysisLaboratory "1"- -"*" TestType : performs >
ClinicalChemistryTechnologist "1"- -"*" Sample : analysed by <
Company "1"-down-"*" TestType : conducts >
Company "1"-down-"*" Category : has >
Company "1"-down-"*" ClinicalAnalysisLaboratory : owns >
Company "1"-down-"1" ChemicalLaboratory : owns >
Diagnosis "*"- -"1" LaboratoryCoordinator : validated by >
Diagnosis "*"- -"1" SpecialistDoctor : generates <
MedicalLabTechnician "1"- -"*" Sample : collected by <
NHS "1"- -"1" Company : requests report to >
Parameter "*"- -"1" Category : presented under >
ParameterResult "1"- -"1" Parameter : associated to >
Receptionist "1"- -"*" Client : registers >
Receptionist "1"- -"*" Test : registers >
Report "1"- -"1" Diagnosis : contains >
Report "1"- -"1" TestResult : associated to >
Sample "*"- -"1" Client : associated to >
Sample "*"- -"1" Test : associated to >
SampleType "1"- -"1" Sample  : is of <
SpecialistDoctor "1"- -"*" Report : generates >
Test "*"- -"1" Client : requested by >
Test "*"-up-"1" Company : performs <
Test "*"- -"1..*" Parameter : requests analysis of >
Test "1"- -"1" LabOrder : requires >
Test "*"- -"1" "TestType" : is of >
Test "1"- -"1" TestResult : has a >
Test "1"- -"*" Sample : collects >
TestResult "*"- -"1" LaboratoryCoordinator : validated by >
TestResult "*"- -"1" SpecialistDoctor : analysed by >
TestResult "*"- -"1" ClinicalChemistryTechnologist : generates <
TestResult "1"- -"*" ParameterResult : has >
TestType "*"- -"1" Administrator : created by >
TestType "1"- -"1..*" Parameter : has >
Employee <|-down- Administrator
Employee <|-down- ClinicalChemistryTechnologist
Employee <|-down- MedicalLabTechnician
Employee <|-down- LaboratoryCoordinator
Employee <|-down- Receptionist
Employee <|-right- SpecialistDoctor
Company "1"- -"1..*" Employee : has >
Administrator "1"- -"*" Employee : registers >
SampleType "1"- -"1..*" CollectionMethod : has >
SampleType "1"- -"1" TestType  : associated to <
@enduml

PlantUML version 1.2021.2(Sun Mar 07 11:10:27 GMT 2021)
(GPL source distribution)
Java Runtime: OpenJDK Runtime Environment
JVM: OpenJDK 64-Bit Server VM
Default Encoding: Cp1252
Language: pt
Country: PT
--></g></svg>