<?xml version="1.0" encoding="UTF-8" standalone="no"?><svg xmlns="http://www.w3.org/2000/svg" xmlns:xlink="http://www.w3.org/1999/xlink" contentScriptType="application/ecmascript" contentStyleType="text/css" height="2078px" preserveAspectRatio="none" style="width:1375px;height:2078px;" version="1.1" viewBox="0 0 1375 2078" width="1375px" zoomAndPan="magnify"><defs><filter height="300%" id="f14w70mtknlakh" width="300%" x="-1" y="-1"><feGaussianBlur result="blurOut" stdDeviation="2.0"/><feColorMatrix in="blurOut" result="blurOut2" type="matrix" values="0 0 0 0 0 0 0 0 0 0 0 0 0 0 0 0 0 0 .4 0"/><feOffset dx="4.0" dy="4.0" in="blurOut2" result="blurOut3"/><feBlend in="SourceGraphic" in2="blurOut3" mode="normal"/></filter></defs><g><!--MD5=[da547346deef918ea16944ba046651ef]
class Administrator--><rect codeLine="3" fill="#FEFECE" filter="url(#f14w70mtknlakh)" height="144.8516" id="Administrator" style="stroke:#A80036;stroke-width:1.5;" width="105" x="1175" y="1409"/><ellipse cx="1190" cy="1425" fill="#ADD1B2" rx="11" ry="11" style="stroke:#A80036;stroke-width:1.0;"/><path d="M1192,1421.5 Q1192.2031,1421 1192.4375,1420.75 Q1192.6719,1420.5 1192.9375,1420.5 Q1193.4063,1420.5 1193.7031,1420.7813 Q1194,1421.0625 1194,1421.7188 L1194,1423.2813 Q1194,1423.9375 1193.7188,1424.2188 Q1193.4375,1424.5 1193,1424.5 Q1192.6094,1424.5 1192.3594,1424.3281 Q1192.1094,1424.1563 1192,1423.7031 Q1191.9531,1423.3906 1191.7813,1423.2188 Q1191.4688,1422.8906 1190.9063,1422.7031 Q1190.3438,1422.5 1189.7813,1422.5 Q1189.0781,1422.5 1188.4844,1422.7813 Q1187.9063,1423.0625 1187.4531,1423.6875 Q1187,1424.3125 1187,1425.1719 L1187,1426.0938 Q1187,1427.125 1187.8438,1427.8125 Q1188.6875,1428.5 1190.1875,1428.5 Q1191.0781,1428.5 1191.7031,1428.2969 Q1192.0625,1428.1875 1192.4688,1427.8281 Q1192.7344,1427.625 1192.875,1427.5625 Q1193.0156,1427.5 1193.1875,1427.5 Q1193.5156,1427.5 1193.75,1427.7656 Q1194,1428.0156 1194,1428.375 Q1194,1428.7188 1193.6563,1429.125 Q1193.1563,1429.7188 1192.3594,1430.0469 Q1191.3125,1430.5 1190.0313,1430.5 Q1188.5313,1430.5 1187.3281,1429.9063 Q1186.3594,1429.4375 1185.6719,1428.4219 Q1185,1427.4063 1185,1426.2031 L1185,1425.1094 Q1185,1423.8594 1185.5938,1422.7656 Q1186.2031,1421.6719 1187.25,1421.0938 Q1188.3125,1420.5 1189.5,1420.5 Q1190.2188,1420.5 1190.8438,1420.75 Q1191.4688,1421 1192,1421.5 Z " fill="#000000"/><text fill="#000000" font-family="sans-serif" font-size="12" lengthAdjust="spacing" textLength="73" x="1204" y="1429.9102">Administrator</text><line style="stroke:#A80036;stroke-width:1.5;" x1="1176" x2="1279" y1="1441" y2="1441"/><text fill="#000000" font-family="sans-serif" font-size="11" lengthAdjust="spacing" textLength="59" x="1181" y="1456.4189">-employeeID</text><text fill="#000000" font-family="sans-serif" font-size="11" lengthAdjust="spacing" textLength="72" x="1181" y="1470.2549">-organizationID</text><text fill="#000000" font-family="sans-serif" font-size="11" lengthAdjust="spacing" textLength="30" x="1181" y="1484.0908">-name</text><text fill="#000000" font-family="sans-serif" font-size="11" lengthAdjust="spacing" textLength="44" x="1181" y="1497.9268">-address</text><text fill="#000000" font-family="sans-serif" font-size="11" lengthAdjust="spacing" textLength="71" x="1181" y="1511.7627">-phoneNumber</text><text fill="#000000" font-family="sans-serif" font-size="11" lengthAdjust="spacing" textLength="28" x="1181" y="1525.5986">-email</text><text fill="#000000" font-family="sans-serif" font-size="11" lengthAdjust="spacing" textLength="50" x="1181" y="1539.4346">-SOCcode</text><line style="stroke:#A80036;stroke-width:1.5;" x1="1176" x2="1279" y1="1545.8516" y2="1545.8516"/><!--MD5=[a96594a83e2ecdc78cbf17c2ddf01934]
class Category--><rect codeLine="12" fill="#FEFECE" filter="url(#f14w70mtknlakh)" height="89.5078" id="Category" style="stroke:#A80036;stroke-width:1.5;" width="81" x="1163" y="1752"/><ellipse cx="1178" cy="1768" fill="#ADD1B2" rx="11" ry="11" style="stroke:#A80036;stroke-width:1.0;"/><path d="M1180,1764.5 Q1180.2031,1764 1180.4375,1763.75 Q1180.6719,1763.5 1180.9375,1763.5 Q1181.4063,1763.5 1181.7031,1763.7813 Q1182,1764.0625 1182,1764.7188 L1182,1766.2813 Q1182,1766.9375 1181.7188,1767.2188 Q1181.4375,1767.5 1181,1767.5 Q1180.6094,1767.5 1180.3594,1767.3281 Q1180.1094,1767.1563 1180,1766.7031 Q1179.9531,1766.3906 1179.7813,1766.2188 Q1179.4688,1765.8906 1178.9063,1765.7031 Q1178.3438,1765.5 1177.7813,1765.5 Q1177.0781,1765.5 1176.4844,1765.7813 Q1175.9063,1766.0625 1175.4531,1766.6875 Q1175,1767.3125 1175,1768.1719 L1175,1769.0938 Q1175,1770.125 1175.8438,1770.8125 Q1176.6875,1771.5 1178.1875,1771.5 Q1179.0781,1771.5 1179.7031,1771.2969 Q1180.0625,1771.1875 1180.4688,1770.8281 Q1180.7344,1770.625 1180.875,1770.5625 Q1181.0156,1770.5 1181.1875,1770.5 Q1181.5156,1770.5 1181.75,1770.7656 Q1182,1771.0156 1182,1771.375 Q1182,1771.7188 1181.6563,1772.125 Q1181.1563,1772.7188 1180.3594,1773.0469 Q1179.3125,1773.5 1178.0313,1773.5 Q1176.5313,1773.5 1175.3281,1772.9063 Q1174.3594,1772.4375 1173.6719,1771.4219 Q1173,1770.4063 1173,1769.2031 L1173,1768.1094 Q1173,1766.8594 1173.5938,1765.7656 Q1174.2031,1764.6719 1175.25,1764.0938 Q1176.3125,1763.5 1177.5,1763.5 Q1178.2188,1763.5 1178.8438,1763.75 Q1179.4688,1764 1180,1764.5 Z " fill="#000000"/><text fill="#000000" font-family="sans-serif" font-size="12" lengthAdjust="spacing" textLength="49" x="1192" y="1772.9102">Category</text><line style="stroke:#A80036;stroke-width:1.5;" x1="1164" x2="1243" y1="1784" y2="1784"/><text fill="#000000" font-family="sans-serif" font-size="11" lengthAdjust="spacing" textLength="28" x="1169" y="1799.4189">-code</text><text fill="#000000" font-family="sans-serif" font-size="11" lengthAdjust="spacing" textLength="57" x="1169" y="1813.2549">-description</text><text fill="#000000" font-family="sans-serif" font-size="11" lengthAdjust="spacing" textLength="31" x="1169" y="1827.0908">-nhsID</text><line style="stroke:#A80036;stroke-width:1.5;" x1="1164" x2="1243" y1="1833.5078" y2="1833.5078"/><!--MD5=[a64badb107d3691f2dc6af242cdbeb21]
class ChemicalLaboratory--><rect codeLine="17" fill="#FEFECE" filter="url(#f14w70mtknlakh)" height="103.3438" id="ChemicalLaboratory" style="stroke:#A80036;stroke-width:1.5;" width="143" x="475" y="294"/><ellipse cx="490" cy="310" fill="#ADD1B2" rx="11" ry="11" style="stroke:#A80036;stroke-width:1.0;"/><path d="M492,306.5 Q492.2031,306 492.4375,305.75 Q492.6719,305.5 492.9375,305.5 Q493.4063,305.5 493.7031,305.7813 Q494,306.0625 494,306.7188 L494,308.2813 Q494,308.9375 493.7188,309.2188 Q493.4375,309.5 493,309.5 Q492.6094,309.5 492.3594,309.3281 Q492.1094,309.1563 492,308.7031 Q491.9531,308.3906 491.7813,308.2188 Q491.4688,307.8906 490.9063,307.7031 Q490.3438,307.5 489.7813,307.5 Q489.0781,307.5 488.4844,307.7813 Q487.9063,308.0625 487.4531,308.6875 Q487,309.3125 487,310.1719 L487,311.0938 Q487,312.125 487.8438,312.8125 Q488.6875,313.5 490.1875,313.5 Q491.0781,313.5 491.7031,313.2969 Q492.0625,313.1875 492.4688,312.8281 Q492.7344,312.625 492.875,312.5625 Q493.0156,312.5 493.1875,312.5 Q493.5156,312.5 493.75,312.7656 Q494,313.0156 494,313.375 Q494,313.7188 493.6563,314.125 Q493.1563,314.7188 492.3594,315.0469 Q491.3125,315.5 490.0313,315.5 Q488.5313,315.5 487.3281,314.9063 Q486.3594,314.4375 485.6719,313.4219 Q485,312.4063 485,311.2031 L485,310.1094 Q485,308.8594 485.5938,307.7656 Q486.2031,306.6719 487.25,306.0938 Q488.3125,305.5 489.5,305.5 Q490.2188,305.5 490.8438,305.75 Q491.4688,306 492,306.5 Z " fill="#000000"/><text fill="#000000" font-family="sans-serif" font-size="12" lengthAdjust="spacing" textLength="111" x="504" y="314.9102">ChemicalLaboratory</text><line style="stroke:#A80036;stroke-width:1.5;" x1="476" x2="617" y1="326" y2="326"/><text fill="#000000" font-family="sans-serif" font-size="11" lengthAdjust="spacing" textLength="30" x="481" y="341.4189">-name</text><text fill="#000000" font-family="sans-serif" font-size="11" lengthAdjust="spacing" textLength="44" x="481" y="355.2549">-address</text><text fill="#000000" font-family="sans-serif" font-size="11" lengthAdjust="spacing" textLength="71" x="481" y="369.0908">-phoneNumber</text><text fill="#000000" font-family="sans-serif" font-size="11" lengthAdjust="spacing" textLength="19" x="481" y="382.9268">-TIN</text><line style="stroke:#A80036;stroke-width:1.5;" x1="476" x2="617" y1="389.3438" y2="389.3438"/><!--MD5=[ec908970c524777c08fd0d8397a1f7bf]
class CollectionMethod--><rect codeLine="23" fill="#FEFECE" filter="url(#f14w70mtknlakh)" height="61.8359" id="CollectionMethod" style="stroke:#A80036;stroke-width:1.5;" width="127" x="927" y="537.5"/><ellipse cx="942" cy="553.5" fill="#ADD1B2" rx="11" ry="11" style="stroke:#A80036;stroke-width:1.0;"/><path d="M944,550 Q944.2031,549.5 944.4375,549.25 Q944.6719,549 944.9375,549 Q945.4063,549 945.7031,549.2813 Q946,549.5625 946,550.2188 L946,551.7813 Q946,552.4375 945.7188,552.7188 Q945.4375,553 945,553 Q944.6094,553 944.3594,552.8281 Q944.1094,552.6563 944,552.2031 Q943.9531,551.8906 943.7813,551.7188 Q943.4688,551.3906 942.9063,551.2031 Q942.3438,551 941.7813,551 Q941.0781,551 940.4844,551.2813 Q939.9063,551.5625 939.4531,552.1875 Q939,552.8125 939,553.6719 L939,554.5938 Q939,555.625 939.8438,556.3125 Q940.6875,557 942.1875,557 Q943.0781,557 943.7031,556.7969 Q944.0625,556.6875 944.4688,556.3281 Q944.7344,556.125 944.875,556.0625 Q945.0156,556 945.1875,556 Q945.5156,556 945.75,556.2656 Q946,556.5156 946,556.875 Q946,557.2188 945.6563,557.625 Q945.1563,558.2188 944.3594,558.5469 Q943.3125,559 942.0313,559 Q940.5313,559 939.3281,558.4063 Q938.3594,557.9375 937.6719,556.9219 Q937,555.9063 937,554.7031 L937,553.6094 Q937,552.3594 937.5938,551.2656 Q938.2031,550.1719 939.25,549.5938 Q940.3125,549 941.5,549 Q942.2188,549 942.8438,549.25 Q943.4688,549.5 944,550 Z " fill="#000000"/><text fill="#000000" font-family="sans-serif" font-size="12" lengthAdjust="spacing" textLength="95" x="956" y="558.4102">CollectionMethod</text><line style="stroke:#A80036;stroke-width:1.5;" x1="928" x2="1053" y1="569.5" y2="569.5"/><text fill="#000000" font-family="sans-serif" font-size="11" lengthAdjust="spacing" textLength="59" x="933" y="584.9189">-designation</text><line style="stroke:#A80036;stroke-width:1.5;" x1="928" x2="1053" y1="591.3359" y2="591.3359"/><!--MD5=[ed6624c6556d5e7b1bd23032162d20b7]
class Client--><rect codeLine="26" fill="#FEFECE" filter="url(#f14w70mtknlakh)" height="158.6875" id="Client" style="stroke:#A80036;stroke-width:1.5;" width="83" x="133" y="983"/><ellipse cx="156.55" cy="999" fill="#ADD1B2" rx="11" ry="11" style="stroke:#A80036;stroke-width:1.0;"/><path d="M158.55,995.5 Q158.7531,995 158.9875,994.75 Q159.2219,994.5 159.4875,994.5 Q159.9563,994.5 160.2531,994.7813 Q160.55,995.0625 160.55,995.7188 L160.55,997.2813 Q160.55,997.9375 160.2688,998.2188 Q159.9875,998.5 159.55,998.5 Q159.1594,998.5 158.9094,998.3281 Q158.6594,998.1563 158.55,997.7031 Q158.5031,997.3906 158.3313,997.2188 Q158.0188,996.8906 157.4563,996.7031 Q156.8938,996.5 156.3313,996.5 Q155.6281,996.5 155.0344,996.7813 Q154.4563,997.0625 154.0031,997.6875 Q153.55,998.3125 153.55,999.1719 L153.55,1000.0938 Q153.55,1001.125 154.3938,1001.8125 Q155.2375,1002.5 156.7375,1002.5 Q157.6281,1002.5 158.2531,1002.2969 Q158.6125,1002.1875 159.0188,1001.8281 Q159.2844,1001.625 159.425,1001.5625 Q159.5656,1001.5 159.7375,1001.5 Q160.0656,1001.5 160.3,1001.7656 Q160.55,1002.0156 160.55,1002.375 Q160.55,1002.7188 160.2063,1003.125 Q159.7063,1003.7188 158.9094,1004.0469 Q157.8625,1004.5 156.5813,1004.5 Q155.0813,1004.5 153.8781,1003.9063 Q152.9094,1003.4375 152.2219,1002.4219 Q151.55,1001.4063 151.55,1000.2031 L151.55,999.1094 Q151.55,997.8594 152.1438,996.7656 Q152.7531,995.6719 153.8,995.0938 Q154.8625,994.5 156.05,994.5 Q156.7688,994.5 157.3938,994.75 Q158.0188,995 158.55,995.5 Z " fill="#000000"/><text fill="#000000" font-family="sans-serif" font-size="12" lengthAdjust="spacing" textLength="32" x="172.45" y="1003.9102">Client</text><line style="stroke:#A80036;stroke-width:1.5;" x1="134" x2="215" y1="1015" y2="1015"/><text fill="#000000" font-family="sans-serif" font-size="11" lengthAdjust="spacing" textLength="30" x="139" y="1030.4189">-name</text><text fill="#000000" font-family="sans-serif" font-size="11" lengthAdjust="spacing" textLength="63" x="139" y="1044.2549">-cardNumber</text><text fill="#000000" font-family="sans-serif" font-size="11" lengthAdjust="spacing" textLength="47" x="139" y="1058.0908">-birthDate</text><text fill="#000000" font-family="sans-serif" font-size="11" lengthAdjust="spacing" textLength="22" x="139" y="1071.9268">-sex</text><text fill="#000000" font-family="sans-serif" font-size="11" lengthAdjust="spacing" textLength="31" x="139" y="1085.7627">-nhsID</text><text fill="#000000" font-family="sans-serif" font-size="11" lengthAdjust="spacing" textLength="18" x="139" y="1099.5986">-TIF</text><text fill="#000000" font-family="sans-serif" font-size="11" lengthAdjust="spacing" textLength="71" x="139" y="1113.4346">-phoneNumber</text><text fill="#000000" font-family="sans-serif" font-size="11" lengthAdjust="spacing" textLength="28" x="139" y="1127.2705">-email</text><line style="stroke:#A80036;stroke-width:1.5;" x1="134" x2="215" y1="1133.6875" y2="1133.6875"/><!--MD5=[1934a092c0e7d4da7dc7075b6f4b6b03]
class ClinicalAnalysisLaboratory--><rect codeLine="36" fill="#FEFECE" filter="url(#f14w70mtknlakh)" height="117.1797" id="ClinicalAnalysisLaboratory" style="stroke:#A80036;stroke-width:1.5;" width="177" x="979" y="287"/><ellipse cx="994" cy="303" fill="#ADD1B2" rx="11" ry="11" style="stroke:#A80036;stroke-width:1.0;"/><path d="M996,299.5 Q996.2031,299 996.4375,298.75 Q996.6719,298.5 996.9375,298.5 Q997.4063,298.5 997.7031,298.7813 Q998,299.0625 998,299.7188 L998,301.2813 Q998,301.9375 997.7188,302.2188 Q997.4375,302.5 997,302.5 Q996.6094,302.5 996.3594,302.3281 Q996.1094,302.1563 996,301.7031 Q995.9531,301.3906 995.7813,301.2188 Q995.4688,300.8906 994.9063,300.7031 Q994.3438,300.5 993.7813,300.5 Q993.0781,300.5 992.4844,300.7813 Q991.9063,301.0625 991.4531,301.6875 Q991,302.3125 991,303.1719 L991,304.0938 Q991,305.125 991.8438,305.8125 Q992.6875,306.5 994.1875,306.5 Q995.0781,306.5 995.7031,306.2969 Q996.0625,306.1875 996.4688,305.8281 Q996.7344,305.625 996.875,305.5625 Q997.0156,305.5 997.1875,305.5 Q997.5156,305.5 997.75,305.7656 Q998,306.0156 998,306.375 Q998,306.7188 997.6563,307.125 Q997.1563,307.7188 996.3594,308.0469 Q995.3125,308.5 994.0313,308.5 Q992.5313,308.5 991.3281,307.9063 Q990.3594,307.4375 989.6719,306.4219 Q989,305.4063 989,304.2031 L989,303.1094 Q989,301.8594 989.5938,300.7656 Q990.2031,299.6719 991.25,299.0938 Q992.3125,298.5 993.5,298.5 Q994.2188,298.5 994.8438,298.75 Q995.4688,299 996,299.5 Z " fill="#000000"/><text fill="#000000" font-family="sans-serif" font-size="12" lengthAdjust="spacing" textLength="145" x="1008" y="307.9102">ClinicalAnalysisLaboratory</text><line style="stroke:#A80036;stroke-width:1.5;" x1="980" x2="1155" y1="319" y2="319"/><text fill="#000000" font-family="sans-serif" font-size="11" lengthAdjust="spacing" textLength="30" x="985" y="334.4189">-name</text><text fill="#000000" font-family="sans-serif" font-size="11" lengthAdjust="spacing" textLength="44" x="985" y="348.2549">-address</text><text fill="#000000" font-family="sans-serif" font-size="11" lengthAdjust="spacing" textLength="71" x="985" y="362.0908">-phoneNumber</text><text fill="#000000" font-family="sans-serif" font-size="11" lengthAdjust="spacing" textLength="19" x="985" y="375.9268">-TIN</text><text fill="#000000" font-family="sans-serif" font-size="11" lengthAdjust="spacing" textLength="62" x="985" y="389.7627">-laboratoryID</text><line style="stroke:#A80036;stroke-width:1.5;" x1="980" x2="1155" y1="396.1797" y2="396.1797"/><!--MD5=[012ee2a8bf3ae2b319009b06f951c2e5]
class ClinicalChemistryTechnologist--><rect codeLine="43" fill="#FEFECE" filter="url(#f14w70mtknlakh)" height="144.8516" id="ClinicalChemistryTechnologist" style="stroke:#A80036;stroke-width:1.5;" width="200" x="803.5" y="1227"/><ellipse cx="818.5" cy="1243" fill="#ADD1B2" rx="11" ry="11" style="stroke:#A80036;stroke-width:1.0;"/><path d="M820.5,1239.5 Q820.7031,1239 820.9375,1238.75 Q821.1719,1238.5 821.4375,1238.5 Q821.9063,1238.5 822.2031,1238.7813 Q822.5,1239.0625 822.5,1239.7188 L822.5,1241.2813 Q822.5,1241.9375 822.2188,1242.2188 Q821.9375,1242.5 821.5,1242.5 Q821.1094,1242.5 820.8594,1242.3281 Q820.6094,1242.1563 820.5,1241.7031 Q820.4531,1241.3906 820.2813,1241.2188 Q819.9688,1240.8906 819.4063,1240.7031 Q818.8438,1240.5 818.2813,1240.5 Q817.5781,1240.5 816.9844,1240.7813 Q816.4063,1241.0625 815.9531,1241.6875 Q815.5,1242.3125 815.5,1243.1719 L815.5,1244.0938 Q815.5,1245.125 816.3438,1245.8125 Q817.1875,1246.5 818.6875,1246.5 Q819.5781,1246.5 820.2031,1246.2969 Q820.5625,1246.1875 820.9688,1245.8281 Q821.2344,1245.625 821.375,1245.5625 Q821.5156,1245.5 821.6875,1245.5 Q822.0156,1245.5 822.25,1245.7656 Q822.5,1246.0156 822.5,1246.375 Q822.5,1246.7188 822.1563,1247.125 Q821.6563,1247.7188 820.8594,1248.0469 Q819.8125,1248.5 818.5313,1248.5 Q817.0313,1248.5 815.8281,1247.9063 Q814.8594,1247.4375 814.1719,1246.4219 Q813.5,1245.4063 813.5,1244.2031 L813.5,1243.1094 Q813.5,1241.8594 814.0938,1240.7656 Q814.7031,1239.6719 815.75,1239.0938 Q816.8125,1238.5 818,1238.5 Q818.7188,1238.5 819.3438,1238.75 Q819.9688,1239 820.5,1239.5 Z " fill="#000000"/><text fill="#000000" font-family="sans-serif" font-size="12" lengthAdjust="spacing" textLength="168" x="832.5" y="1247.9102">ClinicalChemistryTechnologist</text><line style="stroke:#A80036;stroke-width:1.5;" x1="804.5" x2="1002.5" y1="1259" y2="1259"/><text fill="#000000" font-family="sans-serif" font-size="11" lengthAdjust="spacing" textLength="59" x="809.5" y="1274.4189">-employeeID</text><text fill="#000000" font-family="sans-serif" font-size="11" lengthAdjust="spacing" textLength="72" x="809.5" y="1288.2549">-organizationID</text><text fill="#000000" font-family="sans-serif" font-size="11" lengthAdjust="spacing" textLength="30" x="809.5" y="1302.0908">-name</text><text fill="#000000" font-family="sans-serif" font-size="11" lengthAdjust="spacing" textLength="44" x="809.5" y="1315.9268">-address</text><text fill="#000000" font-family="sans-serif" font-size="11" lengthAdjust="spacing" textLength="71" x="809.5" y="1329.7627">-phoneNumber</text><text fill="#000000" font-family="sans-serif" font-size="11" lengthAdjust="spacing" textLength="28" x="809.5" y="1343.5986">-email</text><text fill="#000000" font-family="sans-serif" font-size="11" lengthAdjust="spacing" textLength="50" x="809.5" y="1357.4346">-SOCcode</text><line style="stroke:#A80036;stroke-width:1.5;" x1="804.5" x2="1002.5" y1="1363.8516" y2="1363.8516"/><!--MD5=[02e4b9b7573f1156f41e60aa5b4e25a4]
class Company--><rect codeLine="52" fill="#FEFECE" filter="url(#f14w70mtknlakh)" height="61.8359" id="Company" style="stroke:#A80036;stroke-width:1.5;" width="85" x="1025" y="133"/><ellipse cx="1040" cy="149" fill="#ADD1B2" rx="11" ry="11" style="stroke:#A80036;stroke-width:1.0;"/><path d="M1042,145.5 Q1042.2031,145 1042.4375,144.75 Q1042.6719,144.5 1042.9375,144.5 Q1043.4063,144.5 1043.7031,144.7813 Q1044,145.0625 1044,145.7188 L1044,147.2813 Q1044,147.9375 1043.7188,148.2188 Q1043.4375,148.5 1043,148.5 Q1042.6094,148.5 1042.3594,148.3281 Q1042.1094,148.1563 1042,147.7031 Q1041.9531,147.3906 1041.7813,147.2188 Q1041.4688,146.8906 1040.9063,146.7031 Q1040.3438,146.5 1039.7813,146.5 Q1039.0781,146.5 1038.4844,146.7813 Q1037.9063,147.0625 1037.4531,147.6875 Q1037,148.3125 1037,149.1719 L1037,150.0938 Q1037,151.125 1037.8438,151.8125 Q1038.6875,152.5 1040.1875,152.5 Q1041.0781,152.5 1041.7031,152.2969 Q1042.0625,152.1875 1042.4688,151.8281 Q1042.7344,151.625 1042.875,151.5625 Q1043.0156,151.5 1043.1875,151.5 Q1043.5156,151.5 1043.75,151.7656 Q1044,152.0156 1044,152.375 Q1044,152.7188 1043.6563,153.125 Q1043.1563,153.7188 1042.3594,154.0469 Q1041.3125,154.5 1040.0313,154.5 Q1038.5313,154.5 1037.3281,153.9063 Q1036.3594,153.4375 1035.6719,152.4219 Q1035,151.4063 1035,150.2031 L1035,149.1094 Q1035,147.8594 1035.5938,146.7656 Q1036.2031,145.6719 1037.25,145.0938 Q1038.3125,144.5 1039.5,144.5 Q1040.2188,144.5 1040.8438,144.75 Q1041.4688,145 1042,145.5 Z " fill="#000000"/><text fill="#000000" font-family="sans-serif" font-size="12" lengthAdjust="spacing" textLength="53" x="1054" y="153.9102">Company</text><line style="stroke:#A80036;stroke-width:1.5;" x1="1026" x2="1109" y1="165" y2="165"/><text fill="#000000" font-family="sans-serif" font-size="11" lengthAdjust="spacing" textLength="59" x="1031" y="180.4189">-designation</text><line style="stroke:#A80036;stroke-width:1.5;" x1="1026" x2="1109" y1="186.8359" y2="186.8359"/><!--MD5=[10d06bcee75aaf74ab8f6040820ceef2]
class Diagnosis--><rect codeLine="55" fill="#FEFECE" filter="url(#f14w70mtknlakh)" height="48" id="Diagnosis" style="stroke:#A80036;stroke-width:1.5;" width="89" x="334" y="1773"/><ellipse cx="349" cy="1789" fill="#ADD1B2" rx="11" ry="11" style="stroke:#A80036;stroke-width:1.0;"/><path d="M351,1785.5 Q351.2031,1785 351.4375,1784.75 Q351.6719,1784.5 351.9375,1784.5 Q352.4063,1784.5 352.7031,1784.7813 Q353,1785.0625 353,1785.7188 L353,1787.2813 Q353,1787.9375 352.7188,1788.2188 Q352.4375,1788.5 352,1788.5 Q351.6094,1788.5 351.3594,1788.3281 Q351.1094,1788.1563 351,1787.7031 Q350.9531,1787.3906 350.7813,1787.2188 Q350.4688,1786.8906 349.9063,1786.7031 Q349.3438,1786.5 348.7813,1786.5 Q348.0781,1786.5 347.4844,1786.7813 Q346.9063,1787.0625 346.4531,1787.6875 Q346,1788.3125 346,1789.1719 L346,1790.0938 Q346,1791.125 346.8438,1791.8125 Q347.6875,1792.5 349.1875,1792.5 Q350.0781,1792.5 350.7031,1792.2969 Q351.0625,1792.1875 351.4688,1791.8281 Q351.7344,1791.625 351.875,1791.5625 Q352.0156,1791.5 352.1875,1791.5 Q352.5156,1791.5 352.75,1791.7656 Q353,1792.0156 353,1792.375 Q353,1792.7188 352.6563,1793.125 Q352.1563,1793.7188 351.3594,1794.0469 Q350.3125,1794.5 349.0313,1794.5 Q347.5313,1794.5 346.3281,1793.9063 Q345.3594,1793.4375 344.6719,1792.4219 Q344,1791.4063 344,1790.2031 L344,1789.1094 Q344,1787.8594 344.5938,1786.7656 Q345.2031,1785.6719 346.25,1785.0938 Q347.3125,1784.5 348.5,1784.5 Q349.2188,1784.5 349.8438,1784.75 Q350.4688,1785 351,1785.5 Z " fill="#000000"/><text fill="#000000" font-family="sans-serif" font-size="12" lengthAdjust="spacing" textLength="57" x="363" y="1793.9102">Diagnosis</text><line style="stroke:#A80036;stroke-width:1.5;" x1="335" x2="422" y1="1805" y2="1805"/><line style="stroke:#A80036;stroke-width:1.5;" x1="335" x2="422" y1="1813" y2="1813"/><!--MD5=[a999c1570c205a2156b04a15307bc1ff]
class LabOrder--><rect codeLine="56" fill="#FEFECE" filter="url(#f14w70mtknlakh)" height="75.6719" id="LabOrder" style="stroke:#A80036;stroke-width:1.5;" width="84" x="132.5" y="1261.5"/><ellipse cx="147.5" cy="1277.5" fill="#ADD1B2" rx="11" ry="11" style="stroke:#A80036;stroke-width:1.0;"/><path d="M149.5,1274 Q149.7031,1273.5 149.9375,1273.25 Q150.1719,1273 150.4375,1273 Q150.9063,1273 151.2031,1273.2813 Q151.5,1273.5625 151.5,1274.2188 L151.5,1275.7813 Q151.5,1276.4375 151.2188,1276.7188 Q150.9375,1277 150.5,1277 Q150.1094,1277 149.8594,1276.8281 Q149.6094,1276.6563 149.5,1276.2031 Q149.4531,1275.8906 149.2813,1275.7188 Q148.9688,1275.3906 148.4063,1275.2031 Q147.8438,1275 147.2813,1275 Q146.5781,1275 145.9844,1275.2813 Q145.4063,1275.5625 144.9531,1276.1875 Q144.5,1276.8125 144.5,1277.6719 L144.5,1278.5938 Q144.5,1279.625 145.3438,1280.3125 Q146.1875,1281 147.6875,1281 Q148.5781,1281 149.2031,1280.7969 Q149.5625,1280.6875 149.9688,1280.3281 Q150.2344,1280.125 150.375,1280.0625 Q150.5156,1280 150.6875,1280 Q151.0156,1280 151.25,1280.2656 Q151.5,1280.5156 151.5,1280.875 Q151.5,1281.2188 151.1563,1281.625 Q150.6563,1282.2188 149.8594,1282.5469 Q148.8125,1283 147.5313,1283 Q146.0313,1283 144.8281,1282.4063 Q143.8594,1281.9375 143.1719,1280.9219 Q142.5,1279.9063 142.5,1278.7031 L142.5,1277.6094 Q142.5,1276.3594 143.0938,1275.2656 Q143.7031,1274.1719 144.75,1273.5938 Q145.8125,1273 147,1273 Q147.7188,1273 148.3438,1273.25 Q148.9688,1273.5 149.5,1274 Z " fill="#000000"/><text fill="#000000" font-family="sans-serif" font-size="12" lengthAdjust="spacing" textLength="52" x="161.5" y="1282.4102">LabOrder</text><line style="stroke:#A80036;stroke-width:1.5;" x1="133.5" x2="215.5" y1="1293.5" y2="1293.5"/><text fill="#000000" font-family="sans-serif" font-size="11" lengthAdjust="spacing" textLength="46" x="138.5" y="1308.9189">-testType</text><text fill="#000000" font-family="sans-serif" font-size="11" lengthAdjust="spacing" textLength="59" x="138.5" y="1322.7549">-parameters</text><line style="stroke:#A80036;stroke-width:1.5;" x1="133.5" x2="215.5" y1="1329.1719" y2="1329.1719"/><!--MD5=[052425de1c0eb6cc1c1b48342b0bb88f]
class LaboratoryCoordinator--><rect codeLine="60" fill="#FEFECE" filter="url(#f14w70mtknlakh)" height="144.8516" id="LaboratoryCoordinator" style="stroke:#A80036;stroke-width:1.5;" width="155" x="177" y="1920"/><ellipse cx="192" cy="1936" fill="#ADD1B2" rx="11" ry="11" style="stroke:#A80036;stroke-width:1.0;"/><path d="M194,1932.5 Q194.2031,1932 194.4375,1931.75 Q194.6719,1931.5 194.9375,1931.5 Q195.4063,1931.5 195.7031,1931.7813 Q196,1932.0625 196,1932.7188 L196,1934.2813 Q196,1934.9375 195.7188,1935.2188 Q195.4375,1935.5 195,1935.5 Q194.6094,1935.5 194.3594,1935.3281 Q194.1094,1935.1563 194,1934.7031 Q193.9531,1934.3906 193.7813,1934.2188 Q193.4688,1933.8906 192.9063,1933.7031 Q192.3438,1933.5 191.7813,1933.5 Q191.0781,1933.5 190.4844,1933.7813 Q189.9063,1934.0625 189.4531,1934.6875 Q189,1935.3125 189,1936.1719 L189,1937.0938 Q189,1938.125 189.8438,1938.8125 Q190.6875,1939.5 192.1875,1939.5 Q193.0781,1939.5 193.7031,1939.2969 Q194.0625,1939.1875 194.4688,1938.8281 Q194.7344,1938.625 194.875,1938.5625 Q195.0156,1938.5 195.1875,1938.5 Q195.5156,1938.5 195.75,1938.7656 Q196,1939.0156 196,1939.375 Q196,1939.7188 195.6563,1940.125 Q195.1563,1940.7188 194.3594,1941.0469 Q193.3125,1941.5 192.0313,1941.5 Q190.5313,1941.5 189.3281,1940.9063 Q188.3594,1940.4375 187.6719,1939.4219 Q187,1938.4063 187,1937.2031 L187,1936.1094 Q187,1934.8594 187.5938,1933.7656 Q188.2031,1932.6719 189.25,1932.0938 Q190.3125,1931.5 191.5,1931.5 Q192.2188,1931.5 192.8438,1931.75 Q193.4688,1932 194,1932.5 Z " fill="#000000"/><text fill="#000000" font-family="sans-serif" font-size="12" lengthAdjust="spacing" textLength="123" x="206" y="1940.9102">LaboratoryCoordinator</text><line style="stroke:#A80036;stroke-width:1.5;" x1="178" x2="331" y1="1952" y2="1952"/><text fill="#000000" font-family="sans-serif" font-size="11" lengthAdjust="spacing" textLength="59" x="183" y="1967.4189">-employeeID</text><text fill="#000000" font-family="sans-serif" font-size="11" lengthAdjust="spacing" textLength="72" x="183" y="1981.2549">-organizationID</text><text fill="#000000" font-family="sans-serif" font-size="11" lengthAdjust="spacing" textLength="30" x="183" y="1995.0908">-name</text><text fill="#000000" font-family="sans-serif" font-size="11" lengthAdjust="spacing" textLength="44" x="183" y="2008.9268">-address</text><text fill="#000000" font-family="sans-serif" font-size="11" lengthAdjust="spacing" textLength="71" x="183" y="2022.7627">-phoneNumber</text><text fill="#000000" font-family="sans-serif" font-size="11" lengthAdjust="spacing" textLength="28" x="183" y="2036.5986">-email</text><text fill="#000000" font-family="sans-serif" font-size="11" lengthAdjust="spacing" textLength="50" x="183" y="2050.4346">-SOCcode</text><line style="stroke:#A80036;stroke-width:1.5;" x1="178" x2="331" y1="2056.8516" y2="2056.8516"/><!--MD5=[01931d41e78f8996acd44f6f0fd8de28]
class MedicalLabTechnician--><rect codeLine="69" fill="#FEFECE" filter="url(#f14w70mtknlakh)" height="144.8516" id="MedicalLabTechnician" style="stroke:#A80036;stroke-width:1.5;" width="155" x="653" y="273"/><ellipse cx="668" cy="289" fill="#ADD1B2" rx="11" ry="11" style="stroke:#A80036;stroke-width:1.0;"/><path d="M670,285.5 Q670.2031,285 670.4375,284.75 Q670.6719,284.5 670.9375,284.5 Q671.4063,284.5 671.7031,284.7813 Q672,285.0625 672,285.7188 L672,287.2813 Q672,287.9375 671.7188,288.2188 Q671.4375,288.5 671,288.5 Q670.6094,288.5 670.3594,288.3281 Q670.1094,288.1563 670,287.7031 Q669.9531,287.3906 669.7813,287.2188 Q669.4688,286.8906 668.9063,286.7031 Q668.3438,286.5 667.7813,286.5 Q667.0781,286.5 666.4844,286.7813 Q665.9063,287.0625 665.4531,287.6875 Q665,288.3125 665,289.1719 L665,290.0938 Q665,291.125 665.8438,291.8125 Q666.6875,292.5 668.1875,292.5 Q669.0781,292.5 669.7031,292.2969 Q670.0625,292.1875 670.4688,291.8281 Q670.7344,291.625 670.875,291.5625 Q671.0156,291.5 671.1875,291.5 Q671.5156,291.5 671.75,291.7656 Q672,292.0156 672,292.375 Q672,292.7188 671.6563,293.125 Q671.1563,293.7188 670.3594,294.0469 Q669.3125,294.5 668.0313,294.5 Q666.5313,294.5 665.3281,293.9063 Q664.3594,293.4375 663.6719,292.4219 Q663,291.4063 663,290.2031 L663,289.1094 Q663,287.8594 663.5938,286.7656 Q664.2031,285.6719 665.25,285.0938 Q666.3125,284.5 667.5,284.5 Q668.2188,284.5 668.8438,284.75 Q669.4688,285 670,285.5 Z " fill="#000000"/><text fill="#000000" font-family="sans-serif" font-size="12" lengthAdjust="spacing" textLength="123" x="682" y="293.9102">MedicalLabTechnician</text><line style="stroke:#A80036;stroke-width:1.5;" x1="654" x2="807" y1="305" y2="305"/><text fill="#000000" font-family="sans-serif" font-size="11" lengthAdjust="spacing" textLength="59" x="659" y="320.4189">-employeeID</text><text fill="#000000" font-family="sans-serif" font-size="11" lengthAdjust="spacing" textLength="72" x="659" y="334.2549">-organizationID</text><text fill="#000000" font-family="sans-serif" font-size="11" lengthAdjust="spacing" textLength="30" x="659" y="348.0908">-name</text><text fill="#000000" font-family="sans-serif" font-size="11" lengthAdjust="spacing" textLength="44" x="659" y="361.9268">-address</text><text fill="#000000" font-family="sans-serif" font-size="11" lengthAdjust="spacing" textLength="71" x="659" y="375.7627">-phoneNumber</text><text fill="#000000" font-family="sans-serif" font-size="11" lengthAdjust="spacing" textLength="28" x="659" y="389.5986">-email</text><text fill="#000000" font-family="sans-serif" font-size="11" lengthAdjust="spacing" textLength="50" x="659" y="403.4346">-SOCcode</text><line style="stroke:#A80036;stroke-width:1.5;" x1="654" x2="807" y1="409.8516" y2="409.8516"/><!--MD5=[0a105ea8d9af02dadec02d3e239f1d60]
class NHS--><rect codeLine="78" fill="#FEFECE" filter="url(#f14w70mtknlakh)" height="48" id="NHS" style="stroke:#A80036;stroke-width:1.5;" width="58" x="1038.5" y="7"/><ellipse cx="1053.5" cy="23" fill="#ADD1B2" rx="11" ry="11" style="stroke:#A80036;stroke-width:1.0;"/><path d="M1055.5,19.5 Q1055.7031,19 1055.9375,18.75 Q1056.1719,18.5 1056.4375,18.5 Q1056.9063,18.5 1057.2031,18.7813 Q1057.5,19.0625 1057.5,19.7188 L1057.5,21.2813 Q1057.5,21.9375 1057.2188,22.2188 Q1056.9375,22.5 1056.5,22.5 Q1056.1094,22.5 1055.8594,22.3281 Q1055.6094,22.1563 1055.5,21.7031 Q1055.4531,21.3906 1055.2813,21.2188 Q1054.9688,20.8906 1054.4063,20.7031 Q1053.8438,20.5 1053.2813,20.5 Q1052.5781,20.5 1051.9844,20.7813 Q1051.4063,21.0625 1050.9531,21.6875 Q1050.5,22.3125 1050.5,23.1719 L1050.5,24.0938 Q1050.5,25.125 1051.3438,25.8125 Q1052.1875,26.5 1053.6875,26.5 Q1054.5781,26.5 1055.2031,26.2969 Q1055.5625,26.1875 1055.9688,25.8281 Q1056.2344,25.625 1056.375,25.5625 Q1056.5156,25.5 1056.6875,25.5 Q1057.0156,25.5 1057.25,25.7656 Q1057.5,26.0156 1057.5,26.375 Q1057.5,26.7188 1057.1563,27.125 Q1056.6563,27.7188 1055.8594,28.0469 Q1054.8125,28.5 1053.5313,28.5 Q1052.0313,28.5 1050.8281,27.9063 Q1049.8594,27.4375 1049.1719,26.4219 Q1048.5,25.4063 1048.5,24.2031 L1048.5,23.1094 Q1048.5,21.8594 1049.0938,20.7656 Q1049.7031,19.6719 1050.75,19.0938 Q1051.8125,18.5 1053,18.5 Q1053.7188,18.5 1054.3438,18.75 Q1054.9688,19 1055.5,19.5 Z " fill="#000000"/><text fill="#000000" font-family="sans-serif" font-size="12" lengthAdjust="spacing" textLength="26" x="1067.5" y="27.9102">NHS</text><line style="stroke:#A80036;stroke-width:1.5;" x1="1039.5" x2="1095.5" y1="39" y2="39"/><line style="stroke:#A80036;stroke-width:1.5;" x1="1039.5" x2="1095.5" y1="47" y2="47"/><!--MD5=[03960189e81aa2c066c762ffabbee709]
class Receptionist--><rect codeLine="79" fill="#FEFECE" filter="url(#f14w70mtknlakh)" height="144.8516" id="Receptionist" style="stroke:#A80036;stroke-width:1.5;" width="101" x="7" y="496"/><ellipse cx="22" cy="512" fill="#ADD1B2" rx="11" ry="11" style="stroke:#A80036;stroke-width:1.0;"/><path d="M24,508.5 Q24.2031,508 24.4375,507.75 Q24.6719,507.5 24.9375,507.5 Q25.4063,507.5 25.7031,507.7813 Q26,508.0625 26,508.7188 L26,510.2813 Q26,510.9375 25.7188,511.2188 Q25.4375,511.5 25,511.5 Q24.6094,511.5 24.3594,511.3281 Q24.1094,511.1563 24,510.7031 Q23.9531,510.3906 23.7813,510.2188 Q23.4688,509.8906 22.9063,509.7031 Q22.3438,509.5 21.7813,509.5 Q21.0781,509.5 20.4844,509.7813 Q19.9063,510.0625 19.4531,510.6875 Q19,511.3125 19,512.1719 L19,513.0938 Q19,514.125 19.8438,514.8125 Q20.6875,515.5 22.1875,515.5 Q23.0781,515.5 23.7031,515.2969 Q24.0625,515.1875 24.4688,514.8281 Q24.7344,514.625 24.875,514.5625 Q25.0156,514.5 25.1875,514.5 Q25.5156,514.5 25.75,514.7656 Q26,515.0156 26,515.375 Q26,515.7188 25.6563,516.125 Q25.1563,516.7188 24.3594,517.0469 Q23.3125,517.5 22.0313,517.5 Q20.5313,517.5 19.3281,516.9063 Q18.3594,516.4375 17.6719,515.4219 Q17,514.4063 17,513.2031 L17,512.1094 Q17,510.8594 17.5938,509.7656 Q18.2031,508.6719 19.25,508.0938 Q20.3125,507.5 21.5,507.5 Q22.2188,507.5 22.8438,507.75 Q23.4688,508 24,508.5 Z " fill="#000000"/><text fill="#000000" font-family="sans-serif" font-size="12" lengthAdjust="spacing" textLength="69" x="36" y="516.9102">Receptionist</text><line style="stroke:#A80036;stroke-width:1.5;" x1="8" x2="107" y1="528" y2="528"/><text fill="#000000" font-family="sans-serif" font-size="11" lengthAdjust="spacing" textLength="59" x="13" y="543.4189">-employeeID</text><text fill="#000000" font-family="sans-serif" font-size="11" lengthAdjust="spacing" textLength="72" x="13" y="557.2549">-organizationID</text><text fill="#000000" font-family="sans-serif" font-size="11" lengthAdjust="spacing" textLength="30" x="13" y="571.0908">-name</text><text fill="#000000" font-family="sans-serif" font-size="11" lengthAdjust="spacing" textLength="44" x="13" y="584.9268">-address</text><text fill="#000000" font-family="sans-serif" font-size="11" lengthAdjust="spacing" textLength="71" x="13" y="598.7627">-phoneNumber</text><text fill="#000000" font-family="sans-serif" font-size="11" lengthAdjust="spacing" textLength="28" x="13" y="612.5986">-email</text><text fill="#000000" font-family="sans-serif" font-size="11" lengthAdjust="spacing" textLength="50" x="13" y="626.4346">-SOCcode</text><line style="stroke:#A80036;stroke-width:1.5;" x1="8" x2="107" y1="632.8516" y2="632.8516"/><!--MD5=[df38be88ccee13e832d6fafd6288a4ca]
class Test--><rect codeLine="88" fill="#FEFECE" filter="url(#f14w70mtknlakh)" height="186.3594" id="Test" style="stroke:#A80036;stroke-width:1.5;" width="131" x="449" y="719"/><ellipse cx="498.25" cy="735" fill="#ADD1B2" rx="11" ry="11" style="stroke:#A80036;stroke-width:1.0;"/><path d="M500.25,731.5 Q500.4531,731 500.6875,730.75 Q500.9219,730.5 501.1875,730.5 Q501.6563,730.5 501.9531,730.7813 Q502.25,731.0625 502.25,731.7188 L502.25,733.2813 Q502.25,733.9375 501.9688,734.2188 Q501.6875,734.5 501.25,734.5 Q500.8594,734.5 500.6094,734.3281 Q500.3594,734.1563 500.25,733.7031 Q500.2031,733.3906 500.0313,733.2188 Q499.7188,732.8906 499.1563,732.7031 Q498.5938,732.5 498.0313,732.5 Q497.3281,732.5 496.7344,732.7813 Q496.1563,733.0625 495.7031,733.6875 Q495.25,734.3125 495.25,735.1719 L495.25,736.0938 Q495.25,737.125 496.0938,737.8125 Q496.9375,738.5 498.4375,738.5 Q499.3281,738.5 499.9531,738.2969 Q500.3125,738.1875 500.7188,737.8281 Q500.9844,737.625 501.125,737.5625 Q501.2656,737.5 501.4375,737.5 Q501.7656,737.5 502,737.7656 Q502.25,738.0156 502.25,738.375 Q502.25,738.7188 501.9063,739.125 Q501.4063,739.7188 500.6094,740.0469 Q499.5625,740.5 498.2813,740.5 Q496.7813,740.5 495.5781,739.9063 Q494.6094,739.4375 493.9219,738.4219 Q493.25,737.4063 493.25,736.2031 L493.25,735.1094 Q493.25,733.8594 493.8438,732.7656 Q494.4531,731.6719 495.5,731.0938 Q496.5625,730.5 497.75,730.5 Q498.4688,730.5 499.0938,730.75 Q499.7188,731 500.25,731.5 Z " fill="#000000"/><text fill="#000000" font-family="sans-serif" font-size="12" lengthAdjust="spacing" textLength="24" x="518.75" y="739.9102">Test</text><line style="stroke:#A80036;stroke-width:1.5;" x1="450" x2="579" y1="751" y2="751"/><text fill="#000000" font-family="sans-serif" font-size="11" lengthAdjust="spacing" textLength="64" x="455" y="766.4189">-internalCode</text><text fill="#000000" font-family="sans-serif" font-size="11" lengthAdjust="spacing" textLength="47" x="455" y="780.2549">-nhsCode</text><text fill="#000000" font-family="sans-serif" font-size="11" lengthAdjust="spacing" textLength="52" x="455" y="794.0908">-createdAt</text><text fill="#000000" font-family="sans-serif" font-size="11" lengthAdjust="spacing" textLength="119" x="455" y="807.9268">-sampleCollectionMethod</text><text fill="#000000" font-family="sans-serif" font-size="11" lengthAdjust="spacing" textLength="67" x="455" y="821.7627">-dateAnalysis</text><text fill="#000000" font-family="sans-serif" font-size="11" lengthAdjust="spacing" textLength="65" x="455" y="835.5986">-timeAnalysis</text><text fill="#000000" font-family="sans-serif" font-size="11" lengthAdjust="spacing" textLength="72" x="455" y="849.4346">-dateDiagnosis</text><text fill="#000000" font-family="sans-serif" font-size="11" lengthAdjust="spacing" textLength="70" x="455" y="863.2705">-timeDiagnosis</text><text fill="#000000" font-family="sans-serif" font-size="11" lengthAdjust="spacing" textLength="72" x="455" y="877.1064">-dateValidation</text><text fill="#000000" font-family="sans-serif" font-size="11" lengthAdjust="spacing" textLength="70" x="455" y="890.9424">-timeValidation</text><line style="stroke:#A80036;stroke-width:1.5;" x1="450" x2="579" y1="897.3594" y2="897.3594"/><!--MD5=[1f6362a5c8f21d8d6a0fce68f3a92a4e]
class Parameter--><rect codeLine="100" fill="#FEFECE" filter="url(#f14w70mtknlakh)" height="89.5078" id="Parameter" style="stroke:#A80036;stroke-width:1.5;" width="123" x="999" y="1584"/><ellipse cx="1028.85" cy="1600" fill="#ADD1B2" rx="11" ry="11" style="stroke:#A80036;stroke-width:1.0;"/><path d="M1030.85,1596.5 Q1031.0531,1596 1031.2875,1595.75 Q1031.5219,1595.5 1031.7875,1595.5 Q1032.2563,1595.5 1032.5531,1595.7813 Q1032.85,1596.0625 1032.85,1596.7188 L1032.85,1598.2813 Q1032.85,1598.9375 1032.5688,1599.2188 Q1032.2875,1599.5 1031.85,1599.5 Q1031.4594,1599.5 1031.2094,1599.3281 Q1030.9594,1599.1563 1030.85,1598.7031 Q1030.8031,1598.3906 1030.6313,1598.2188 Q1030.3188,1597.8906 1029.7563,1597.7031 Q1029.1938,1597.5 1028.6313,1597.5 Q1027.9281,1597.5 1027.3344,1597.7813 Q1026.7563,1598.0625 1026.3031,1598.6875 Q1025.85,1599.3125 1025.85,1600.1719 L1025.85,1601.0938 Q1025.85,1602.125 1026.6938,1602.8125 Q1027.5375,1603.5 1029.0375,1603.5 Q1029.9281,1603.5 1030.5531,1603.2969 Q1030.9125,1603.1875 1031.3188,1602.8281 Q1031.5844,1602.625 1031.725,1602.5625 Q1031.8656,1602.5 1032.0375,1602.5 Q1032.3656,1602.5 1032.6,1602.7656 Q1032.85,1603.0156 1032.85,1603.375 Q1032.85,1603.7188 1032.5063,1604.125 Q1032.0063,1604.7188 1031.2094,1605.0469 Q1030.1625,1605.5 1028.8813,1605.5 Q1027.3813,1605.5 1026.1781,1604.9063 Q1025.2094,1604.4375 1024.5219,1603.4219 Q1023.85,1602.4063 1023.85,1601.2031 L1023.85,1600.1094 Q1023.85,1598.8594 1024.4438,1597.7656 Q1025.0531,1596.6719 1026.1,1596.0938 Q1027.1625,1595.5 1028.35,1595.5 Q1029.0688,1595.5 1029.6938,1595.75 Q1030.3188,1596 1030.85,1596.5 Z " fill="#000000"/><text fill="#000000" font-family="sans-serif" font-size="12" lengthAdjust="spacing" textLength="58" x="1046.15" y="1604.9102">Parameter</text><line style="stroke:#A80036;stroke-width:1.5;" x1="1000" x2="1121" y1="1616" y2="1616"/><text fill="#000000" font-family="sans-serif" font-size="11" lengthAdjust="spacing" textLength="59" x="1005" y="1631.4189">-designation</text><text fill="#000000" font-family="sans-serif" font-size="11" lengthAdjust="spacing" textLength="111" x="1005" y="1645.2549">-upperReferenceValue</text><text fill="#000000" font-family="sans-serif" font-size="11" lengthAdjust="spacing" textLength="111" x="1005" y="1659.0908">-lowerReferenceValue</text><line style="stroke:#A80036;stroke-width:1.5;" x1="1000" x2="1121" y1="1665.5078" y2="1665.5078"/><!--MD5=[80e560c845ce9ec3c8b9ef25ef04dbf1]
class ParameterResult--><rect codeLine="105" fill="#FEFECE" filter="url(#f14w70mtknlakh)" height="48" id="ParameterResult" style="stroke:#A80036;stroke-width:1.5;" width="126" x="642.5" y="1275.5"/><ellipse cx="657.5" cy="1291.5" fill="#ADD1B2" rx="11" ry="11" style="stroke:#A80036;stroke-width:1.0;"/><path d="M659.5,1288 Q659.7031,1287.5 659.9375,1287.25 Q660.1719,1287 660.4375,1287 Q660.9063,1287 661.2031,1287.2813 Q661.5,1287.5625 661.5,1288.2188 L661.5,1289.7813 Q661.5,1290.4375 661.2188,1290.7188 Q660.9375,1291 660.5,1291 Q660.1094,1291 659.8594,1290.8281 Q659.6094,1290.6563 659.5,1290.2031 Q659.4531,1289.8906 659.2813,1289.7188 Q658.9688,1289.3906 658.4063,1289.2031 Q657.8438,1289 657.2813,1289 Q656.5781,1289 655.9844,1289.2813 Q655.4063,1289.5625 654.9531,1290.1875 Q654.5,1290.8125 654.5,1291.6719 L654.5,1292.5938 Q654.5,1293.625 655.3438,1294.3125 Q656.1875,1295 657.6875,1295 Q658.5781,1295 659.2031,1294.7969 Q659.5625,1294.6875 659.9688,1294.3281 Q660.2344,1294.125 660.375,1294.0625 Q660.5156,1294 660.6875,1294 Q661.0156,1294 661.25,1294.2656 Q661.5,1294.5156 661.5,1294.875 Q661.5,1295.2188 661.1563,1295.625 Q660.6563,1296.2188 659.8594,1296.5469 Q658.8125,1297 657.5313,1297 Q656.0313,1297 654.8281,1296.4063 Q653.8594,1295.9375 653.1719,1294.9219 Q652.5,1293.9063 652.5,1292.7031 L652.5,1291.6094 Q652.5,1290.3594 653.0938,1289.2656 Q653.7031,1288.1719 654.75,1287.5938 Q655.8125,1287 657,1287 Q657.7188,1287 658.3438,1287.25 Q658.9688,1287.5 659.5,1288 Z " fill="#000000"/><text fill="#000000" font-family="sans-serif" font-size="12" lengthAdjust="spacing" textLength="94" x="671.5" y="1296.4102">ParameterResult</text><line style="stroke:#A80036;stroke-width:1.5;" x1="643.5" x2="767.5" y1="1307.5" y2="1307.5"/><line style="stroke:#A80036;stroke-width:1.5;" x1="643.5" x2="767.5" y1="1315.5" y2="1315.5"/><!--MD5=[f00dbe8c0302c6aec2cb26b3c659c8fc]
class Report--><rect codeLine="106" fill="#FEFECE" filter="url(#f14w70mtknlakh)" height="61.8359" id="Report" style="stroke:#A80036;stroke-width:1.5;" width="69" x="486" y="1598"/><ellipse cx="501" cy="1614" fill="#ADD1B2" rx="11" ry="11" style="stroke:#A80036;stroke-width:1.0;"/><path d="M503,1610.5 Q503.2031,1610 503.4375,1609.75 Q503.6719,1609.5 503.9375,1609.5 Q504.4063,1609.5 504.7031,1609.7813 Q505,1610.0625 505,1610.7188 L505,1612.2813 Q505,1612.9375 504.7188,1613.2188 Q504.4375,1613.5 504,1613.5 Q503.6094,1613.5 503.3594,1613.3281 Q503.1094,1613.1563 503,1612.7031 Q502.9531,1612.3906 502.7813,1612.2188 Q502.4688,1611.8906 501.9063,1611.7031 Q501.3438,1611.5 500.7813,1611.5 Q500.0781,1611.5 499.4844,1611.7813 Q498.9063,1612.0625 498.4531,1612.6875 Q498,1613.3125 498,1614.1719 L498,1615.0938 Q498,1616.125 498.8438,1616.8125 Q499.6875,1617.5 501.1875,1617.5 Q502.0781,1617.5 502.7031,1617.2969 Q503.0625,1617.1875 503.4688,1616.8281 Q503.7344,1616.625 503.875,1616.5625 Q504.0156,1616.5 504.1875,1616.5 Q504.5156,1616.5 504.75,1616.7656 Q505,1617.0156 505,1617.375 Q505,1617.7188 504.6563,1618.125 Q504.1563,1618.7188 503.3594,1619.0469 Q502.3125,1619.5 501.0313,1619.5 Q499.5313,1619.5 498.3281,1618.9063 Q497.3594,1618.4375 496.6719,1617.4219 Q496,1616.4063 496,1615.2031 L496,1614.1094 Q496,1612.8594 496.5938,1611.7656 Q497.2031,1610.6719 498.25,1610.0938 Q499.3125,1609.5 500.5,1609.5 Q501.2188,1609.5 501.8438,1609.75 Q502.4688,1610 503,1610.5 Z " fill="#000000"/><text fill="#000000" font-family="sans-serif" font-size="12" lengthAdjust="spacing" textLength="37" x="515" y="1618.9102">Report</text><line style="stroke:#A80036;stroke-width:1.5;" x1="487" x2="554" y1="1630" y2="1630"/><text fill="#000000" font-family="sans-serif" font-size="11" lengthAdjust="spacing" textLength="47" x="492" y="1645.4189">-textBody</text><line style="stroke:#A80036;stroke-width:1.5;" x1="487" x2="554" y1="1651.8359" y2="1651.8359"/><!--MD5=[e27cb01a39563223b22d42504ec96d07]
class TestResult--><rect codeLine="109" fill="#FEFECE" filter="url(#f14w70mtknlakh)" height="48" id="TestResult" style="stroke:#A80036;stroke-width:1.5;" width="92" x="468.5" y="1038.5"/><ellipse cx="483.5" cy="1054.5" fill="#ADD1B2" rx="11" ry="11" style="stroke:#A80036;stroke-width:1.0;"/><path d="M485.5,1051 Q485.7031,1050.5 485.9375,1050.25 Q486.1719,1050 486.4375,1050 Q486.9063,1050 487.2031,1050.2813 Q487.5,1050.5625 487.5,1051.2188 L487.5,1052.7813 Q487.5,1053.4375 487.2188,1053.7188 Q486.9375,1054 486.5,1054 Q486.1094,1054 485.8594,1053.8281 Q485.6094,1053.6563 485.5,1053.2031 Q485.4531,1052.8906 485.2813,1052.7188 Q484.9688,1052.3906 484.4063,1052.2031 Q483.8438,1052 483.2813,1052 Q482.5781,1052 481.9844,1052.2813 Q481.4063,1052.5625 480.9531,1053.1875 Q480.5,1053.8125 480.5,1054.6719 L480.5,1055.5938 Q480.5,1056.625 481.3438,1057.3125 Q482.1875,1058 483.6875,1058 Q484.5781,1058 485.2031,1057.7969 Q485.5625,1057.6875 485.9688,1057.3281 Q486.2344,1057.125 486.375,1057.0625 Q486.5156,1057 486.6875,1057 Q487.0156,1057 487.25,1057.2656 Q487.5,1057.5156 487.5,1057.875 Q487.5,1058.2188 487.1563,1058.625 Q486.6563,1059.2188 485.8594,1059.5469 Q484.8125,1060 483.5313,1060 Q482.0313,1060 480.8281,1059.4063 Q479.8594,1058.9375 479.1719,1057.9219 Q478.5,1056.9063 478.5,1055.7031 L478.5,1054.6094 Q478.5,1053.3594 479.0938,1052.2656 Q479.7031,1051.1719 480.75,1050.5938 Q481.8125,1050 483,1050 Q483.7188,1050 484.3438,1050.25 Q484.9688,1050.5 485.5,1051 Z " fill="#000000"/><text fill="#000000" font-family="sans-serif" font-size="12" lengthAdjust="spacing" textLength="60" x="497.5" y="1059.4102">TestResult</text><line style="stroke:#A80036;stroke-width:1.5;" x1="469.5" x2="559.5" y1="1070.5" y2="1070.5"/><line style="stroke:#A80036;stroke-width:1.5;" x1="469.5" x2="559.5" y1="1078.5" y2="1078.5"/><!--MD5=[aeb3272166074d8737a70b61b1e71682]
class TestType--><rect codeLine="110" fill="#FEFECE" filter="url(#f14w70mtknlakh)" height="61.8359" id="TestType" style="stroke:#A80036;stroke-width:1.5;" width="82" x="1103.5" y="1031.5"/><ellipse cx="1118.5" cy="1047.5" fill="#ADD1B2" rx="11" ry="11" style="stroke:#A80036;stroke-width:1.0;"/><path d="M1120.5,1044 Q1120.7031,1043.5 1120.9375,1043.25 Q1121.1719,1043 1121.4375,1043 Q1121.9063,1043 1122.2031,1043.2813 Q1122.5,1043.5625 1122.5,1044.2188 L1122.5,1045.7813 Q1122.5,1046.4375 1122.2188,1046.7188 Q1121.9375,1047 1121.5,1047 Q1121.1094,1047 1120.8594,1046.8281 Q1120.6094,1046.6563 1120.5,1046.2031 Q1120.4531,1045.8906 1120.2813,1045.7188 Q1119.9688,1045.3906 1119.4063,1045.2031 Q1118.8438,1045 1118.2813,1045 Q1117.5781,1045 1116.9844,1045.2813 Q1116.4063,1045.5625 1115.9531,1046.1875 Q1115.5,1046.8125 1115.5,1047.6719 L1115.5,1048.5938 Q1115.5,1049.625 1116.3438,1050.3125 Q1117.1875,1051 1118.6875,1051 Q1119.5781,1051 1120.2031,1050.7969 Q1120.5625,1050.6875 1120.9688,1050.3281 Q1121.2344,1050.125 1121.375,1050.0625 Q1121.5156,1050 1121.6875,1050 Q1122.0156,1050 1122.25,1050.2656 Q1122.5,1050.5156 1122.5,1050.875 Q1122.5,1051.2188 1122.1563,1051.625 Q1121.6563,1052.2188 1120.8594,1052.5469 Q1119.8125,1053 1118.5313,1053 Q1117.0313,1053 1115.8281,1052.4063 Q1114.8594,1051.9375 1114.1719,1050.9219 Q1113.5,1049.9063 1113.5,1048.7031 L1113.5,1047.6094 Q1113.5,1046.3594 1114.0938,1045.2656 Q1114.7031,1044.1719 1115.75,1043.5938 Q1116.8125,1043 1118,1043 Q1118.7188,1043 1119.3438,1043.25 Q1119.9688,1043.5 1120.5,1044 Z " fill="#000000"/><text fill="#000000" font-family="sans-serif" font-size="12" lengthAdjust="spacing" textLength="50" x="1132.5" y="1052.4102">TestType</text><line style="stroke:#A80036;stroke-width:1.5;" x1="1104.5" x2="1184.5" y1="1063.5" y2="1063.5"/><text fill="#000000" font-family="sans-serif" font-size="11" lengthAdjust="spacing" textLength="59" x="1109.5" y="1078.9189">-designation</text><line style="stroke:#A80036;stroke-width:1.5;" x1="1104.5" x2="1184.5" y1="1085.3359" y2="1085.3359"/><!--MD5=[9681492165142af2a4a3a169d90ee8d4]
class Sample--><rect codeLine="113" fill="#FEFECE" filter="url(#f14w70mtknlakh)" height="89.5078" id="Sample" style="stroke:#A80036;stroke-width:1.5;" width="83" x="625" y="523.5"/><ellipse cx="643.6" cy="539.5" fill="#ADD1B2" rx="11" ry="11" style="stroke:#A80036;stroke-width:1.0;"/><path d="M645.6,536 Q645.8031,535.5 646.0375,535.25 Q646.2719,535 646.5375,535 Q647.0063,535 647.3031,535.2813 Q647.6,535.5625 647.6,536.2188 L647.6,537.7813 Q647.6,538.4375 647.3188,538.7188 Q647.0375,539 646.6,539 Q646.2094,539 645.9594,538.8281 Q645.7094,538.6563 645.6,538.2031 Q645.5531,537.8906 645.3813,537.7188 Q645.0688,537.3906 644.5063,537.2031 Q643.9438,537 643.3813,537 Q642.6781,537 642.0844,537.2813 Q641.5063,537.5625 641.0531,538.1875 Q640.6,538.8125 640.6,539.6719 L640.6,540.5938 Q640.6,541.625 641.4438,542.3125 Q642.2875,543 643.7875,543 Q644.6781,543 645.3031,542.7969 Q645.6625,542.6875 646.0688,542.3281 Q646.3344,542.125 646.475,542.0625 Q646.6156,542 646.7875,542 Q647.1156,542 647.35,542.2656 Q647.6,542.5156 647.6,542.875 Q647.6,543.2188 647.2563,543.625 Q646.7563,544.2188 645.9594,544.5469 Q644.9125,545 643.6313,545 Q642.1313,545 640.9281,544.4063 Q639.9594,543.9375 639.2719,542.9219 Q638.6,541.9063 638.6,540.7031 L638.6,539.6094 Q638.6,538.3594 639.1938,537.2656 Q639.8031,536.1719 640.85,535.5938 Q641.9125,535 643.1,535 Q643.8188,535 644.4438,535.25 Q645.0688,535.5 645.6,536 Z " fill="#000000"/><text fill="#000000" font-family="sans-serif" font-size="12" lengthAdjust="spacing" textLength="43" x="658.4" y="544.4102">Sample</text><line style="stroke:#A80036;stroke-width:1.5;" x1="626" x2="707" y1="555.5" y2="555.5"/><text fill="#000000" font-family="sans-serif" font-size="11" lengthAdjust="spacing" textLength="44" x="631" y="570.9189">-barcode</text><text fill="#000000" font-family="sans-serif" font-size="11" lengthAdjust="spacing" textLength="71" x="631" y="584.7549">-dateCollection</text><text fill="#000000" font-family="sans-serif" font-size="11" lengthAdjust="spacing" textLength="69" x="631" y="598.5908">-timeCollection</text><line style="stroke:#A80036;stroke-width:1.5;" x1="626" x2="707" y1="605.0078" y2="605.0078"/><!--MD5=[1e5329fc67d8218f135f70ba961513ea]
class SampleType--><rect codeLine="118" fill="#FEFECE" filter="url(#f14w70mtknlakh)" height="48" id="SampleType" style="stroke:#A80036;stroke-width:1.5;" width="101" x="843" y="321.5"/><ellipse cx="858" cy="337.5" fill="#ADD1B2" rx="11" ry="11" style="stroke:#A80036;stroke-width:1.0;"/><path d="M860,334 Q860.2031,333.5 860.4375,333.25 Q860.6719,333 860.9375,333 Q861.4063,333 861.7031,333.2813 Q862,333.5625 862,334.2188 L862,335.7813 Q862,336.4375 861.7188,336.7188 Q861.4375,337 861,337 Q860.6094,337 860.3594,336.8281 Q860.1094,336.6563 860,336.2031 Q859.9531,335.8906 859.7813,335.7188 Q859.4688,335.3906 858.9063,335.2031 Q858.3438,335 857.7813,335 Q857.0781,335 856.4844,335.2813 Q855.9063,335.5625 855.4531,336.1875 Q855,336.8125 855,337.6719 L855,338.5938 Q855,339.625 855.8438,340.3125 Q856.6875,341 858.1875,341 Q859.0781,341 859.7031,340.7969 Q860.0625,340.6875 860.4688,340.3281 Q860.7344,340.125 860.875,340.0625 Q861.0156,340 861.1875,340 Q861.5156,340 861.75,340.2656 Q862,340.5156 862,340.875 Q862,341.2188 861.6563,341.625 Q861.1563,342.2188 860.3594,342.5469 Q859.3125,343 858.0313,343 Q856.5313,343 855.3281,342.4063 Q854.3594,341.9375 853.6719,340.9219 Q853,339.9063 853,338.7031 L853,337.6094 Q853,336.3594 853.5938,335.2656 Q854.2031,334.1719 855.25,333.5938 Q856.3125,333 857.5,333 Q858.2188,333 858.8438,333.25 Q859.4688,333.5 860,334 Z " fill="#000000"/><text fill="#000000" font-family="sans-serif" font-size="12" lengthAdjust="spacing" textLength="69" x="872" y="342.4102">SampleType</text><line style="stroke:#A80036;stroke-width:1.5;" x1="844" x2="943" y1="353.5" y2="353.5"/><line style="stroke:#A80036;stroke-width:1.5;" x1="844" x2="943" y1="361.5" y2="361.5"/><!--MD5=[7d96fd15f3014691d2fcaf89c5791e2a]
class SpecialistDoctor--><rect codeLine="119" fill="#FEFECE" filter="url(#f14w70mtknlakh)" height="158.6875" id="SpecialistDoctor" style="stroke:#A80036;stroke-width:1.5;" width="122" x="322.5" y="1220"/><ellipse cx="337.5" cy="1236" fill="#ADD1B2" rx="11" ry="11" style="stroke:#A80036;stroke-width:1.0;"/><path d="M339.5,1232.5 Q339.7031,1232 339.9375,1231.75 Q340.1719,1231.5 340.4375,1231.5 Q340.9063,1231.5 341.2031,1231.7813 Q341.5,1232.0625 341.5,1232.7188 L341.5,1234.2813 Q341.5,1234.9375 341.2188,1235.2188 Q340.9375,1235.5 340.5,1235.5 Q340.1094,1235.5 339.8594,1235.3281 Q339.6094,1235.1563 339.5,1234.7031 Q339.4531,1234.3906 339.2813,1234.2188 Q338.9688,1233.8906 338.4063,1233.7031 Q337.8438,1233.5 337.2813,1233.5 Q336.5781,1233.5 335.9844,1233.7813 Q335.4063,1234.0625 334.9531,1234.6875 Q334.5,1235.3125 334.5,1236.1719 L334.5,1237.0938 Q334.5,1238.125 335.3438,1238.8125 Q336.1875,1239.5 337.6875,1239.5 Q338.5781,1239.5 339.2031,1239.2969 Q339.5625,1239.1875 339.9688,1238.8281 Q340.2344,1238.625 340.375,1238.5625 Q340.5156,1238.5 340.6875,1238.5 Q341.0156,1238.5 341.25,1238.7656 Q341.5,1239.0156 341.5,1239.375 Q341.5,1239.7188 341.1563,1240.125 Q340.6563,1240.7188 339.8594,1241.0469 Q338.8125,1241.5 337.5313,1241.5 Q336.0313,1241.5 334.8281,1240.9063 Q333.8594,1240.4375 333.1719,1239.4219 Q332.5,1238.4063 332.5,1237.2031 L332.5,1236.1094 Q332.5,1234.8594 333.0938,1233.7656 Q333.7031,1232.6719 334.75,1232.0938 Q335.8125,1231.5 337,1231.5 Q337.7188,1231.5 338.3438,1231.75 Q338.9688,1232 339.5,1232.5 Z " fill="#000000"/><text fill="#000000" font-family="sans-serif" font-size="12" lengthAdjust="spacing" textLength="90" x="351.5" y="1240.9102">SpecialistDoctor</text><line style="stroke:#A80036;stroke-width:1.5;" x1="323.5" x2="443.5" y1="1252" y2="1252"/><text fill="#000000" font-family="sans-serif" font-size="11" lengthAdjust="spacing" textLength="59" x="328.5" y="1267.4189">-employeeID</text><text fill="#000000" font-family="sans-serif" font-size="11" lengthAdjust="spacing" textLength="72" x="328.5" y="1281.2549">-organizationID</text><text fill="#000000" font-family="sans-serif" font-size="11" lengthAdjust="spacing" textLength="30" x="328.5" y="1295.0908">-name</text><text fill="#000000" font-family="sans-serif" font-size="11" lengthAdjust="spacing" textLength="44" x="328.5" y="1308.9268">-address</text><text fill="#000000" font-family="sans-serif" font-size="11" lengthAdjust="spacing" textLength="71" x="328.5" y="1322.7627">-phoneNumber</text><text fill="#000000" font-family="sans-serif" font-size="11" lengthAdjust="spacing" textLength="28" x="328.5" y="1336.5986">-email</text><text fill="#000000" font-family="sans-serif" font-size="11" lengthAdjust="spacing" textLength="50" x="328.5" y="1350.4346">-SOCcode</text><text fill="#000000" font-family="sans-serif" font-size="11" lengthAdjust="spacing" textLength="98" x="328.5" y="1364.2705">-doctorIndexNumber</text><line style="stroke:#A80036;stroke-width:1.5;" x1="323.5" x2="443.5" y1="1370.6875" y2="1370.6875"/><!--MD5=[7d17329589c8a1a28e6f8826215bde21]
link Administrator to Category--><path codeLine="130" d="M1222.02,1554.03 C1217.36,1614.93 1210.81,1700.49 1206.88,1751.86 " fill="none" id="Administrator-Category" style="stroke:#A80036;stroke-width:1.0;"/><polygon fill="#000000" points="1225.8815,1624.1904,1222.261,1632.9848,1228.1217,1633.4333,1225.8815,1624.1904" style="stroke:#000000;stroke-width:1.0;"/><text fill="#000000" font-family="sans-serif" font-size="13" lengthAdjust="spacing" textLength="61" x="1234.5" y="1634.4951">created by</text><text fill="#000000" font-family="sans-serif" font-size="13" lengthAdjust="spacing" textLength="7" x="1214.1641" y="1575.2245">1</text><text fill="#000000" font-family="sans-serif" font-size="13" lengthAdjust="spacing" textLength="5" x="1202.0148" y="1741.2827">*</text><!--MD5=[47855ee4dabeea37c5949a17ed9e3a41]
link ChemicalLaboratory to Sample--><path codeLine="131" d="M569.71,397.05 C579.92,418.55 592.34,443.74 604.5,466 C614.95,485.12 627.31,505.72 638.24,523.33 " fill="none" id="ChemicalLaboratory-Sample" style="stroke:#A80036;stroke-width:1.0;"/><polygon fill="#000000" points="611.8849,461.5704,610.1537,452.2187,604.9875,455.0223,611.8849,461.5704" style="stroke:#000000;stroke-width:1.0;"/><text fill="#000000" font-family="sans-serif" font-size="13" lengthAdjust="spacing" textLength="52" x="618.5" y="462.4951">analyses</text><text fill="#000000" font-family="sans-serif" font-size="13" lengthAdjust="spacing" textLength="7" x="565.4817" y="418.9199">1</text><text fill="#000000" font-family="sans-serif" font-size="13" lengthAdjust="spacing" textLength="5" x="628.5299" y="512.7481">*</text><!--MD5=[0bde84c484199f8c429a86e32cc6847f]
link Client to LabOrder--><path codeLine="132" d="M174.5,1142.08 C174.5,1182.37 174.5,1229.56 174.5,1261.48 " fill="none" id="Client-LabOrder" style="stroke:#A80036;stroke-width:1.0;"/><polygon fill="#000000" points="179.5,1186.1758,182.4389,1177.1307,176.5611,1177.1307,179.5,1186.1758" style="stroke:#000000;stroke-width:1.0;"/><text fill="#000000" font-family="sans-serif" font-size="13" lengthAdjust="spacing" textLength="32" x="188.5" y="1186.4951">has a</text><text fill="#000000" font-family="sans-serif" font-size="13" lengthAdjust="spacing" textLength="7" x="167.1992" y="1163.1301">1</text><text fill="#000000" font-family="sans-serif" font-size="13" lengthAdjust="spacing" textLength="5" x="169.0391" y="1250.5528">*</text><!--MD5=[6f5a8b15e66799c0d601e2bda0c1caed]
link ClinicalAnalysisLaboratory to Sample--><path codeLine="133" d="M986.16,404.01 C977.98,408.99 969.67,413.74 961.5,418 C928.56,435.16 917.18,432.34 883.5,448 C820.71,477.2 751.07,516.93 708.03,542.41 " fill="none" id="ClinicalAnalysisLaboratory-Sample" style="stroke:#A80036;stroke-width:1.0;"/><polygon fill="#000000" points="884.0236,459.4033,893.4308,458.0049,890.8122,452.7425,884.0236,459.4033" style="stroke:#000000;stroke-width:1.0;"/><text fill="#000000" font-family="sans-serif" font-size="13" lengthAdjust="spacing" textLength="45" x="897.5" y="462.4951">collects</text><text fill="#000000" font-family="sans-serif" font-size="13" lengthAdjust="spacing" textLength="7" x="968.8201" y="425.6215">1</text><text fill="#000000" font-family="sans-serif" font-size="13" lengthAdjust="spacing" textLength="5" x="715.8728" y="552.758">*</text><!--MD5=[2eb961b30663a01bbfd8b4b9b8950031]
link ClinicalAnalysisLaboratory to TestType--><path codeLine="134" d="M1073.7,404.1 C1089.25,548.49 1129.48,922.06 1141.23,1031.16 " fill="none" id="ClinicalAnalysisLaboratory-TestType" style="stroke:#A80036;stroke-width:1.0;"/><polygon fill="#000000" points="1110.0354,685.147,1111.9889,675.8393,1106.1448,676.4686,1110.0354,685.147" style="stroke:#000000;stroke-width:1.0;"/><text fill="#000000" font-family="sans-serif" font-size="13" lengthAdjust="spacing" textLength="50" x="1118.5" y="685.4951">performs</text><text fill="#000000" font-family="sans-serif" font-size="13" lengthAdjust="spacing" textLength="7" x="1067.0291" y="425.7225">1</text><text fill="#000000" font-family="sans-serif" font-size="13" lengthAdjust="spacing" textLength="5" x="1135.0399" y="1020.5944">*</text><!--MD5=[98994e1502641fa381021dffe882d56a]
link ClinicalChemistryTechnologist to Sample--><path codeLine="135" d="M880.96,1226.82 C844.13,1110.12 768.45,871.86 701.5,671 C695.22,652.17 688.11,631.44 681.95,613.65 " fill="none" id="ClinicalChemistryTechnologist-Sample" style="stroke:#A80036;stroke-width:1.0;"/><polygon fill="#000000" points="799.0435,948.9316,799.0466,939.421,793.4559,941.2355,799.0435,948.9316" style="stroke:#000000;stroke-width:1.0;"/><text fill="#000000" font-family="sans-serif" font-size="13" lengthAdjust="spacing" textLength="70" x="806.5" y="949.4951">analysed by</text><text fill="#000000" font-family="sans-serif" font-size="13" lengthAdjust="spacing" textLength="7" x="871.2746" y="1216.0208">1</text><text fill="#000000" font-family="sans-serif" font-size="13" lengthAdjust="spacing" textLength="5" x="678.6902" y="634.3438">*</text><!--MD5=[742a261f27a3dcd734c626287d811acd]
link Company to TestType--><path codeLine="136" d="M1110.1,193.21 C1151.93,224.67 1209.5,279.73 1209.5,344.5 C1209.5,344.5 1209.5,344.5 1209.5,813 C1209.5,893.94 1176.83,985.02 1157.81,1031.18 " fill="none" id="Company-TestType" style="stroke:#A80036;stroke-width:1.0;"/><polygon fill="#000000" points="1214.7842,573.6677,1217.2042,564.4702,1211.3359,564.8043,1214.7842,573.6677" style="stroke:#000000;stroke-width:1.0;"/><text fill="#000000" font-family="sans-serif" font-size="13" lengthAdjust="spacing" textLength="53" x="1223.5" y="573.9951">conducts</text><text fill="#000000" font-family="sans-serif" font-size="13" lengthAdjust="spacing" textLength="7" x="1118.0234" y="194.3949">1</text><text fill="#000000" font-family="sans-serif" font-size="13" lengthAdjust="spacing" textLength="5" x="1155.0396" y="1020.6185">*</text><!--MD5=[cc1f60f7fb1c702a98cbcc58aaecd7da]
link Company to Category--><path codeLine="137" d="M1110.08,173.31 C1184.99,190.68 1332.5,238.37 1332.5,344.5 C1332.5,344.5 1332.5,344.5 1332.5,1630 C1332.5,1688.4 1282.11,1738.64 1244.32,1768.11 " fill="none" id="Company-Category" style="stroke:#A80036;stroke-width:1.0;"/><polygon fill="#000000" points="1337.9194,949.1582,1340.0893,939.8984,1334.2321,940.3915,1337.9194,949.1582" style="stroke:#000000;stroke-width:1.0;"/><text fill="#000000" font-family="sans-serif" font-size="13" lengthAdjust="spacing" textLength="21" x="1346.5" y="949.4951">has</text><text fill="#000000" font-family="sans-serif" font-size="13" lengthAdjust="spacing" textLength="7" x="1118" y="171.0746">1</text><text fill="#000000" font-family="sans-serif" font-size="13" lengthAdjust="spacing" textLength="5" x="1252.0364" y="1759.1092">*</text><!--MD5=[aafc5d8a5829a6a8d6dc892cb1ff5d24]
link Company to ClinicalAnalysisLaboratory--><path codeLine="138" d="M1067.5,195.04 C1067.5,220 1067.5,256.21 1067.5,286.75 " fill="none" id="Company-ClinicalAnalysisLaboratory" style="stroke:#A80036;stroke-width:1.0;"/><polygon fill="#000000" points="1072.5,239.1758,1075.4389,230.1307,1069.5611,230.1307,1072.5,239.1758" style="stroke:#000000;stroke-width:1.0;"/><text fill="#000000" font-family="sans-serif" font-size="13" lengthAdjust="spacing" textLength="30" x="1081.5" y="239.4951">owns</text><text fill="#000000" font-family="sans-serif" font-size="13" lengthAdjust="spacing" textLength="7" x="1059.8109" y="216.2719">1</text><text fill="#000000" font-family="sans-serif" font-size="13" lengthAdjust="spacing" textLength="5" x="1062.1953" y="276.1204">*</text><!--MD5=[d6a5ae732362cd0f86c2003645f951b1]
link Company to ChemicalLaboratory--><path codeLine="139" d="M1024.93,169.5 C944.97,179.24 768.44,206.99 635.5,273 C624.14,278.64 612.9,285.93 602.42,293.69 " fill="none" id="Company-ChemicalLaboratory" style="stroke:#A80036;stroke-width:1.0;"/><polygon fill="#000000" points="748.7029,235.5858,758.2097,235.8547,756.5521,230.2154,748.7029,235.5858" style="stroke:#000000;stroke-width:1.0;"/><text fill="#000000" font-family="sans-serif" font-size="13" lengthAdjust="spacing" textLength="30" x="762.5" y="239.4951">owns</text><text fill="#000000" font-family="sans-serif" font-size="13" lengthAdjust="spacing" textLength="7" x="1010.0117" y="185.3597">1</text><text fill="#000000" font-family="sans-serif" font-size="13" lengthAdjust="spacing" textLength="7" x="602.4639" y="283.1487">1</text><!--MD5=[15b96e4919f31c1f6d0b47c59fe8e2bf]
link Diagnosis to LaboratoryCoordinator--><path codeLine="140" d="M363.54,1821.34 C347.95,1845.67 322.74,1885.01 300.48,1919.74 " fill="none" id="Diagnosis-LaboratoryCoordinator" style="stroke:#A80036;stroke-width:1.0;"/><polygon fill="#000000" points="330.8022,1885.3855,338.157,1879.3558,333.2082,1876.1843,330.8022,1885.3855" style="stroke:#000000;stroke-width:1.0;"/><text fill="#000000" font-family="sans-serif" font-size="13" lengthAdjust="spacing" textLength="68" x="342.5" y="1886.4951">validated by</text><text fill="#000000" font-family="sans-serif" font-size="13" lengthAdjust="spacing" textLength="5" x="354.5024" y="1842.3544">*</text><text fill="#000000" font-family="sans-serif" font-size="13" lengthAdjust="spacing" textLength="7" x="297.8608" y="1908.9325">1</text><!--MD5=[fd5f5b962c28af1c88b5bc5c4cfdb2d8]
link Diagnosis to SpecialistDoctor--><path codeLine="141" d="M378.74,1772.55 C379.44,1702.77 381.55,1494.17 382.71,1379.01 " fill="none" id="Diagnosis-SpecialistDoctor" style="stroke:#A80036;stroke-width:1.0;"/><polygon fill="#000000" points="386.4496,1634.1755,389.4796,1625.1605,383.602,1625.1013,386.4496,1634.1755" style="stroke:#000000;stroke-width:1.0;"/><text fill="#000000" font-family="sans-serif" font-size="13" lengthAdjust="spacing" textLength="57" x="395.5" y="1634.4951">generates</text><text fill="#000000" font-family="sans-serif" font-size="13" lengthAdjust="spacing" textLength="5" x="373.1891" y="1762.1783">*</text><text fill="#000000" font-family="sans-serif" font-size="13" lengthAdjust="spacing" textLength="7" x="375.3413" y="1400.054">1</text><!--MD5=[0a29b4543c1af9e8341b856b8b8ec05c]
link MedicalLabTechnician to Sample--><path codeLine="142" d="M694.21,418.13 C690.14,428 686.42,438.13 683.5,448 C676.28,472.42 672.08,500.57 669.67,523.42 " fill="none" id="MedicalLabTechnician-Sample" style="stroke:#A80036;stroke-width:1.0;"/><polygon fill="#000000" points="689.6349,452.3063,684.7196,460.4482,690.444,461.7824,689.6349,452.3063" style="stroke:#000000;stroke-width:1.0;"/><text fill="#000000" font-family="sans-serif" font-size="13" lengthAdjust="spacing" textLength="70" x="697.5" y="462.4951">collected by</text><text fill="#000000" font-family="sans-serif" font-size="13" lengthAdjust="spacing" textLength="7" x="683.4175" y="439.334">1</text><text fill="#000000" font-family="sans-serif" font-size="13" lengthAdjust="spacing" textLength="5" x="664.7768" y="512.5227">*</text><!--MD5=[19be1708881710afac89d72e827851dc]
link NHS to Company--><path codeLine="143" d="M1067.5,55.12 C1067.5,76.71 1067.5,109.08 1067.5,132.73 " fill="none" id="NHS-Company" style="stroke:#A80036;stroke-width:1.0;"/><polygon fill="#000000" points="1072.5,99.1758,1075.4389,90.1307,1069.5611,90.1307,1072.5,99.1758" style="stroke:#000000;stroke-width:1.0;"/><text fill="#000000" font-family="sans-serif" font-size="13" lengthAdjust="spacing" textLength="102" x="1081.5" y="99.4951">requests report to</text><text fill="#000000" font-family="sans-serif" font-size="13" lengthAdjust="spacing" textLength="7" x="1059.6469" y="76.4872">1</text><text fill="#000000" font-family="sans-serif" font-size="13" lengthAdjust="spacing" textLength="7" x="1059.7781" y="122.1789">1</text><!--MD5=[852f3a1b1bcfc6074ebcba484562eac0]
link Parameter to Category--><path codeLine="144" d="M1056.55,1674.04 C1057.12,1690.26 1060.33,1708.06 1069.5,1722 C1090.97,1754.64 1131.97,1774.19 1162.99,1784.93 " fill="none" id="Parameter-Category" style="stroke:#A80036;stroke-width:1.0;"/><polygon fill="#000000" points="1077.9624,1716.783,1073.8191,1708.2224,1069.5786,1712.2927,1077.9624,1716.783" style="stroke:#000000;stroke-width:1.0;"/><text fill="#000000" font-family="sans-serif" font-size="13" lengthAdjust="spacing" textLength="93" x="1083.5" y="1718.4951">presented under</text><text fill="#000000" font-family="sans-serif" font-size="13" lengthAdjust="spacing" textLength="5" x="1050.643" y="1695.0532">*</text><text fill="#000000" font-family="sans-serif" font-size="13" lengthAdjust="spacing" textLength="7" x="1147.8757" y="1778.8025">1</text><!--MD5=[15b2848963e3cb1b607833a8179862c1]
link ParameterResult to Parameter--><path codeLine="145" d="M722.84,1323.55 C759.08,1370.7 846.99,1479.96 937.5,1554 C956.21,1569.31 978.4,1583.64 998.75,1595.53 " fill="none" id="ParameterResult-Parameter" style="stroke:#A80036;stroke-width:1.0;"/><polygon fill="#000000" points="946.0608,1485.1859,941.6824,1476.7431,937.5561,1480.9291,946.0608,1485.1859" style="stroke:#000000;stroke-width:1.0;"/><text fill="#000000" font-family="sans-serif" font-size="13" lengthAdjust="spacing" textLength="78" x="951.5" y="1486.9951">associated to</text><text fill="#000000" font-family="sans-serif" font-size="13" lengthAdjust="spacing" textLength="7" x="719.2135" y="1344.9002">1</text><text fill="#000000" font-family="sans-serif" font-size="13" lengthAdjust="spacing" textLength="7" x="983.7977" y="1588.0224">1</text><!--MD5=[6a35157f4c730bda767e7c9f1b8b7f73]
link Receptionist to Client--><path codeLine="146" d="M47.86,641.21 C41.19,710.53 37.98,817.62 66.5,905 C80.07,946.58 108.52,987.05 132.82,1016.41 " fill="none" id="Receptionist-Client" style="stroke:#A80036;stroke-width:1.0;"/><polygon fill="#000000" points="72.6042,817.0523,73.473,807.5815,67.7403,808.8796,72.6042,817.0523" style="stroke:#000000;stroke-width:1.0;"/><text fill="#000000" font-family="sans-serif" font-size="13" lengthAdjust="spacing" textLength="50" x="80.5" y="817.4951">registers</text><text fill="#000000" font-family="sans-serif" font-size="13" lengthAdjust="spacing" textLength="7" x="39.6076" y="662.4216">1</text><text fill="#000000" font-family="sans-serif" font-size="13" lengthAdjust="spacing" textLength="5" x="119.9504" y="1004.3295">*</text><!--MD5=[e8b34c2e6517a986175307f5599f058a]
link Receptionist to Test--><path codeLine="147" d="M108.15,596.27 C191.35,640.23 356.87,727.7 448.91,776.34 " fill="none" id="Receptionist-Test" style="stroke:#A80036;stroke-width:1.0;"/><polygon fill="#000000" points="281.9207,682.5119,275.2967,675.6874,272.5505,680.8843,281.9207,682.5119" style="stroke:#000000;stroke-width:1.0;"/><text fill="#000000" font-family="sans-serif" font-size="13" lengthAdjust="spacing" textLength="50" x="286.5" y="685.4951">registers</text><text fill="#000000" font-family="sans-serif" font-size="13" lengthAdjust="spacing" textLength="7" x="116.1033" y="596.7056">1</text><text fill="#000000" font-family="sans-serif" font-size="13" lengthAdjust="spacing" textLength="5" x="436.0371" y="768.7865">*</text><!--MD5=[9ea131e34883d590a1cfd41d17f43241]
link Report to Diagnosis--><path codeLine="148" d="M494.78,1660.06 C467.05,1692.48 423.5,1743.4 398.31,1772.85 " fill="none" id="Report-Diagnosis" style="stroke:#A80036;stroke-width:1.0;"/><polygon fill="#000000" points="456.2501,1716.9755,464.3627,1712.012,459.8958,1708.1915,456.2501,1716.9755" style="stroke:#000000;stroke-width:1.0;"/><text fill="#000000" font-family="sans-serif" font-size="13" lengthAdjust="spacing" textLength="49" x="468.5" y="1718.4951">contains</text><text fill="#000000" font-family="sans-serif" font-size="13" lengthAdjust="spacing" textLength="7" x="482.0273" y="1681.2958">1</text><text fill="#000000" font-family="sans-serif" font-size="13" lengthAdjust="spacing" textLength="7" x="395.4894" y="1762.1517">1</text><!--MD5=[0e54f9b161a60743d9b464e5484a1c06]
link Report to TestResult--><path codeLine="149" d="M520.18,1597.66 C519.11,1497.07 515.69,1175.89 514.75,1086.68 " fill="none" id="Report-TestResult" style="stroke:#A80036;stroke-width:1.0;"/><polygon fill="#000000" points="523.4469,1294.6761,520.6042,1303.7519,526.4817,1303.6894,523.4469,1294.6761" style="stroke:#000000;stroke-width:1.0;"/><text fill="#000000" font-family="sans-serif" font-size="13" lengthAdjust="spacing" textLength="78" x="532.5" y="1304.9951">associated to</text><text fill="#000000" font-family="sans-serif" font-size="13" lengthAdjust="spacing" textLength="7" x="512.3921" y="1587.0944">1</text><text fill="#000000" font-family="sans-serif" font-size="13" lengthAdjust="spacing" textLength="7" x="506.9578" y="1108.0618">1</text><!--MD5=[a23f50aea1fcb140948e132a9bfce5a1]
link Sample to Client--><path codeLine="150" d="M624.77,579.87 C557.79,598.26 425.03,642.08 338.5,719 C254.58,793.59 251.24,831.59 207.5,935 C201.13,950.05 195.74,966.64 191.27,982.72 " fill="none" id="Sample-Client" style="stroke:#A80036;stroke-width:1.0;"/><polygon fill="#000000" points="339.8374,815.5795,348.4638,811.575,344.4625,807.2693,339.8374,815.5795" style="stroke:#000000;stroke-width:1.0;"/><text fill="#000000" font-family="sans-serif" font-size="13" lengthAdjust="spacing" textLength="78" x="352.5" y="817.4951">associated to</text><text fill="#000000" font-family="sans-serif" font-size="13" lengthAdjust="spacing" textLength="5" x="611.8915" y="578.0405">*</text><text fill="#000000" font-family="sans-serif" font-size="13" lengthAdjust="spacing" textLength="7" x="185.4933" y="972.1535">1</text><!--MD5=[1ae83efc6d1967ce5bc17dfe294d00c2]
link Sample to Test--><path codeLine="151" d="M638.8,613.51 C620.3,642.9 595.29,682.64 572.55,718.77 " fill="none" id="Sample-Test" style="stroke:#A80036;stroke-width:1.0;"/><polygon fill="#000000" points="602.8366,684.4074,610.142,678.3178,605.1674,675.1869,602.8366,684.4074" style="stroke:#000000;stroke-width:1.0;"/><text fill="#000000" font-family="sans-serif" font-size="13" lengthAdjust="spacing" textLength="78" x="614.5" y="685.4951">associated to</text><text fill="#000000" font-family="sans-serif" font-size="13" lengthAdjust="spacing" textLength="5" x="629.5531" y="634.519">*</text><text fill="#000000" font-family="sans-serif" font-size="13" lengthAdjust="spacing" textLength="7" x="569.897" y="708.198">1</text><!--MD5=[b72ac8ab7fb5921fceb5036a3902baea]
link Test to Sample--><path codeLine="160" d="M511.98,718.74 C514.55,702.08 519.31,685.43 527.5,671 C549.33,632.54 592.38,604.63 624.81,587.92 " fill="none" id="Test-Sample" style="stroke:#A80036;stroke-width:1.0;"/><polygon fill="#000000" points="535.7656,676.3895,527.6326,681.3195,532.0836,685.1584,535.7656,676.3895" style="stroke:#000000;stroke-width:1.0;"/><text fill="#000000" font-family="sans-serif" font-size="13" lengthAdjust="spacing" textLength="45" x="541.5" y="685.4951">collects</text><text fill="#000000" font-family="sans-serif" font-size="13" lengthAdjust="spacing" textLength="7" x="504.5003" y="708.1656">1</text><text fill="#000000" font-family="sans-serif" font-size="13" lengthAdjust="spacing" textLength="5" x="611.9387" y="606.3745">*</text><!--MD5=[25a58075d12b4e24c3095e04bee16a0d]
link SampleType to Sample--><path codeLine="152" d="M872.08,369.68 C858.85,383.83 841.41,402.18 825.5,418 C786.54,456.74 740.71,499.55 708.28,529.4 " fill="none" id="SampleType-Sample" style="stroke:#A80036;stroke-width:1.0;"/><polygon fill="#000000" points="800.0798,453.6851,791.5521,457.8956,795.6556,462.104,800.0798,453.6851" style="stroke:#000000;stroke-width:1.0;"/><text fill="#000000" font-family="sans-serif" font-size="13" lengthAdjust="spacing" textLength="24" x="805.5" y="462.4951">is of</text><text fill="#000000" font-family="sans-serif" font-size="13" lengthAdjust="spacing" textLength="7" x="859.0058" y="391.0618">1</text><text fill="#000000" font-family="sans-serif" font-size="13" lengthAdjust="spacing" textLength="7" x="716.0625" y="518.8723">1</text><!--MD5=[35c5d5b78cc27fdb07caaeeaa436e174]
link SpecialistDoctor to Report--><path codeLine="153" d="M390.99,1379.13 C398.12,1442.28 410.33,1525.04 427.5,1554 C434.92,1566.51 462.38,1587.69 485.55,1604.19 " fill="none" id="SpecialistDoctor-Report" style="stroke:#A80036;stroke-width:1.0;"/><polygon fill="#000000" points="434.4368,1486.2854,433.6426,1476.8081,428.2236,1479.0849,434.4368,1486.2854" style="stroke:#000000;stroke-width:1.0;"/><text fill="#000000" font-family="sans-serif" font-size="13" lengthAdjust="spacing" textLength="57" x="441.5" y="1486.9951">generates</text><text fill="#000000" font-family="sans-serif" font-size="13" lengthAdjust="spacing" textLength="7" x="384.3329" y="1400.1844">1</text><text fill="#000000" font-family="sans-serif" font-size="13" lengthAdjust="spacing" textLength="5" x="472.8259" y="1594.9712">*</text><!--MD5=[3994f36c72829dbcddd1cf7021dddf61]
link Test to Client--><path codeLine="154" d="M448.91,838.11 C370,868.79 245.98,918.61 229.5,935 C216.08,948.34 205.71,965.49 197.78,982.84 " fill="none" id="Test-Client" style="stroke:#A80036;stroke-width:1.0;"/><polygon fill="#000000" points="230.1679,946.6724,239.4722,944.7023,236.5372,939.6096,230.1679,946.6724" style="stroke:#000000;stroke-width:1.0;"/><text fill="#000000" font-family="sans-serif" font-size="13" lengthAdjust="spacing" textLength="75" x="243.5" y="949.4951">requested by</text><text fill="#000000" font-family="sans-serif" font-size="13" lengthAdjust="spacing" textLength="5" x="436.0371" y="837.6986">*</text><text fill="#000000" font-family="sans-serif" font-size="13" lengthAdjust="spacing" textLength="7" x="200.3325" y="972.0117">1</text><!--MD5=[7e4bc624457760b649895ff2ead938fa]
link Company to Test--><path codeLine="155" d="M1024.73,165.72 C898.16,168.83 529.83,185.4 457.5,273 C353.67,398.75 416.9,601.4 468.34,718.8 " fill="none" id="Company-Test" style="stroke:#A80036;stroke-width:1.0;"/><polygon fill="#000000" points="403.9539,460.7008,412.4408,456.4083,408.2969,452.2397,403.9539,460.7008" style="stroke:#000000;stroke-width:1.0;"/><text fill="#000000" font-family="sans-serif" font-size="13" lengthAdjust="spacing" textLength="50" x="416.5" y="462.4951">performs</text><text fill="#000000" font-family="sans-serif" font-size="13" lengthAdjust="spacing" textLength="7" x="1010.0665" y="162.2177">1</text><text fill="#000000" font-family="sans-serif" font-size="13" lengthAdjust="spacing" textLength="5" x="459.4624" y="708.2304">*</text><!--MD5=[c23963f6e403fc3ebec8dae22c30ade6]
link Test to Parameter--><path codeLine="156" d="M580.03,861.21 C710.86,958.1 994.2,1171.34 1020.5,1220 C1084.64,1338.65 1075.74,1505.2 1066.79,1583.73 " fill="none" id="Test-Parameter" style="stroke:#A80036;stroke-width:1.0;"/><polygon fill="#000000" points="1001.2937,1185.3225,998.6773,1176.1789,993.8025,1179.4631,1001.2937,1185.3225" style="stroke:#000000;stroke-width:1.0;"/><text fill="#000000" font-family="sans-serif" font-size="13" lengthAdjust="spacing" textLength="116" x="1007.5" y="1186.4951">requests analysis of</text><text fill="#000000" font-family="sans-serif" font-size="13" lengthAdjust="spacing" textLength="5" x="587.896" y="863.4696">*</text><text fill="#000000" font-family="sans-serif" font-size="13" lengthAdjust="spacing" textLength="20" x="1046.2219" y="1573.1327">1..*</text><!--MD5=[7ae31b06ecb5db678e40497ee74dd179]
link Test to LabOrder--><path codeLine="157" d="M448.7,901.24 C429.42,927.41 408.45,956.24 389.5,983 C319.02,1082.54 238.79,1201.98 199.23,1261.29 " fill="none" id="Test-LabOrder" style="stroke:#A80036;stroke-width:1.0;"/><polygon fill="#000000" points="391.6524,1066.7856,399.2195,1061.0246,394.3881,1057.677,391.6524,1066.7856" style="stroke:#000000;stroke-width:1.0;"/><text fill="#000000" font-family="sans-serif" font-size="13" lengthAdjust="spacing" textLength="46" x="403.5" y="1067.9951">requires</text><text fill="#000000" font-family="sans-serif" font-size="13" lengthAdjust="spacing" textLength="7" x="434.1203" y="907.6203">1</text><text fill="#000000" font-family="sans-serif" font-size="13" lengthAdjust="spacing" textLength="7" x="196.0116" y="1250.6145">1</text><!--MD5=[e981d4f96c4342412d1e68160b30cf70]
link Test to TestType--><path codeLine="158" d="M580.04,817.37 C680.55,826.51 876.18,854.04 1019.5,935 C1062.38,959.22 1100.35,1002.37 1122.88,1031.45 " fill="none" id="Test-TestType" style="stroke:#A80036;stroke-width:1.0;"/><polygon fill="#000000" points="1054.1514,946.0101,1046.8152,939.9578,1044.6588,945.4258,1054.1514,946.0101" style="stroke:#000000;stroke-width:1.0;"/><text fill="#000000" font-family="sans-serif" font-size="13" lengthAdjust="spacing" textLength="24" x="1058.5" y="949.4951">is of</text><text fill="#000000" font-family="sans-serif" font-size="13" lengthAdjust="spacing" textLength="5" x="587.9071" y="814.5606">*</text><text fill="#000000" font-family="sans-serif" font-size="13" lengthAdjust="spacing" textLength="7" x="1110.385" y="1020.4593">1</text><!--MD5=[73dffd3648c374487b6d8c6733c5b5e0]
link Test to TestResult--><path codeLine="159" d="M514.5,905.18 C514.5,953.25 514.5,1008.19 514.5,1038.45 " fill="none" id="Test-TestResult" style="stroke:#A80036;stroke-width:1.0;"/><polygon fill="#000000" points="519.5,949.1758,522.4389,940.1307,516.5611,940.1307,519.5,949.1758" style="stroke:#000000;stroke-width:1.0;"/><text fill="#000000" font-family="sans-serif" font-size="13" lengthAdjust="spacing" textLength="32" x="528.5" y="949.4951">has a</text><text fill="#000000" font-family="sans-serif" font-size="13" lengthAdjust="spacing" textLength="7" x="507.2211" y="926.7376">1</text><text fill="#000000" font-family="sans-serif" font-size="13" lengthAdjust="spacing" textLength="7" x="506.6031" y="1027.7773">1</text><!--MD5=[39307a57e800e669e446a1017bb37a9f]
link TestResult to LaboratoryCoordinator--><path codeLine="161" d="M502.48,1086.72 C492.61,1103.89 477.24,1126.83 458.5,1142 C398.87,1190.28 345.3,1155.03 304.5,1220 C164.95,1442.22 209.38,1774.97 238.18,1919.83 " fill="none" id="TestResult-LaboratoryCoordinator" style="stroke:#A80036;stroke-width:1.0;"/><polygon fill="#000000" points="212.988,1633.9417,218.5245,1626.2088,212.9219,1624.4314,212.988,1633.9417" style="stroke:#000000;stroke-width:1.0;"/><text fill="#000000" font-family="sans-serif" font-size="13" lengthAdjust="spacing" textLength="68" x="223.5" y="1634.4951">validated by</text><text fill="#000000" font-family="sans-serif" font-size="13" lengthAdjust="spacing" textLength="5" x="493.9408" y="1108.1116">*</text><text fill="#000000" font-family="sans-serif" font-size="13" lengthAdjust="spacing" textLength="7" x="229.1361" y="1909.0318">1</text><!--MD5=[b68fa5675f8a531b49dc6f7e20370c4c]
link TestResult to SpecialistDoctor--><path codeLine="162" d="M481.15,1086.62 C455.58,1106.25 421.68,1136.8 403.5,1172 C395.95,1186.62 391.09,1203.36 388,1219.77 " fill="none" id="TestResult-SpecialistDoctor" style="stroke:#A80036;stroke-width:1.0;"/><polygon fill="#000000" points="405.6338,1185.2727,413.2269,1179.546,408.4107,1176.1766,405.6338,1185.2727" style="stroke:#000000;stroke-width:1.0;"/><text fill="#000000" font-family="sans-serif" font-size="13" lengthAdjust="spacing" textLength="70" x="417.5" y="1186.4951">analysed by</text><text fill="#000000" font-family="sans-serif" font-size="13" lengthAdjust="spacing" textLength="5" x="467.4116" y="1107.9872">*</text><text fill="#000000" font-family="sans-serif" font-size="13" lengthAdjust="spacing" textLength="7" x="381.0922" y="1209.2081">1</text><!--MD5=[c3eab042445b9f1143b07b00e4f65a8d]
link TestResult to ClinicalChemistryTechnologist--><path codeLine="163" d="M556.3,1086.56 C609.95,1116.39 705.63,1170.44 785.5,1220 C791.35,1223.63 797.34,1227.41 803.36,1231.26 " fill="none" id="TestResult-ClinicalChemistryTechnologist" style="stroke:#A80036;stroke-width:1.0;"/><polygon fill="#000000" points="735.1855,1178.6489,741.5052,1185.7561,744.4758,1180.6841,735.1855,1178.6489" style="stroke:#000000;stroke-width:1.0;"/><text fill="#000000" font-family="sans-serif" font-size="13" lengthAdjust="spacing" textLength="57" x="748.5" y="1186.4951">generates</text><text fill="#000000" font-family="sans-serif" font-size="13" lengthAdjust="spacing" textLength="5" x="560.8794" y="1107.9126">*</text><text fill="#000000" font-family="sans-serif" font-size="13" lengthAdjust="spacing" textLength="7" x="788.4251" y="1222.9371">1</text><!--MD5=[6351e58b5f8c8ec0a6ac945d352d6ad9]
link TestResult to ParameterResult--><path codeLine="164" d="M533.51,1086.89 C570.12,1131.94 650.01,1230.23 686.56,1275.2 " fill="none" id="TestResult-ParameterResult" style="stroke:#A80036;stroke-width:1.0;"/><polygon fill="#000000" points="624.6536,1185.0559,621.2294,1176.1831,616.6681,1179.8903,624.6536,1185.0559" style="stroke:#000000;stroke-width:1.0;"/><text fill="#000000" font-family="sans-serif" font-size="13" lengthAdjust="spacing" textLength="21" x="630.5" y="1186.4951">has</text><text fill="#000000" font-family="sans-serif" font-size="13" lengthAdjust="spacing" textLength="7" x="530.0967" y="1107.916">1</text><text fill="#000000" font-family="sans-serif" font-size="13" lengthAdjust="spacing" textLength="5" x="676.066" y="1264.4633">*</text><!--MD5=[0985ee834cc881275852ed47ce1e01f6]
link TestType to Administrator--><path codeLine="165" d="M1154.15,1093.51 C1163.93,1124.81 1178.94,1175.43 1188.5,1220 C1202.07,1283.27 1212.56,1356.18 1219.22,1408.75 " fill="none" id="TestType-Administrator" style="stroke:#A80036;stroke-width:1.0;"/><polygon fill="#000000" points="1187.5108,1186.0726,1188.5605,1176.6201,1182.804,1177.8083,1187.5108,1186.0726" style="stroke:#000000;stroke-width:1.0;"/><text fill="#000000" font-family="sans-serif" font-size="13" lengthAdjust="spacing" textLength="61" x="1195.5" y="1186.4951">created by</text><text fill="#000000" font-family="sans-serif" font-size="13" lengthAdjust="spacing" textLength="5" x="1150.5577" y="1114.736">*</text><text fill="#000000" font-family="sans-serif" font-size="13" lengthAdjust="spacing" textLength="7" x="1211.0052" y="1397.9436">1</text><!--MD5=[5b7a9ded131023be416e27d15bcd6d77]
link TestType to Parameter--><path codeLine="166" d="M1142.41,1093.64 C1136.69,1170.86 1118.73,1381.81 1082.5,1554 C1080.46,1563.71 1077.76,1573.98 1074.95,1583.69 " fill="none" id="TestType-Parameter" style="stroke:#A80036;stroke-width:1.0;"/><polygon fill="#000000" points="1135.8181,1304.6291,1139.9631,1296.0693,1134.1402,1295.2677,1135.8181,1304.6291" style="stroke:#000000;stroke-width:1.0;"/><text fill="#000000" font-family="sans-serif" font-size="13" lengthAdjust="spacing" textLength="21" x="1145.5" y="1304.9951">has</text><text fill="#000000" font-family="sans-serif" font-size="13" lengthAdjust="spacing" textLength="7" x="1134.3095" y="1114.8916">1</text><text fill="#000000" font-family="sans-serif" font-size="13" lengthAdjust="spacing" textLength="20" x="1078.6939" y="1573.0866">1..*</text><!--MD5=[0e983f4860443f76db36d54e7f3ee406]
link SampleType to CollectionMethod--><path codeLine="167" d="M908.5,369.58 C921.13,389.7 939.08,419.98 951.5,448 C964.59,477.53 975.58,512.85 982.52,537.41 " fill="none" id="SampleType-CollectionMethod" style="stroke:#A80036;stroke-width:1.0;"/><polygon fill="#000000" points="965.5177,461.7506,964.5567,452.2887,959.1786,454.6606,965.5177,461.7506" style="stroke:#000000;stroke-width:1.0;"/><text fill="#000000" font-family="sans-serif" font-size="13" lengthAdjust="spacing" textLength="21" x="972.5" y="462.4951">has</text><text fill="#000000" font-family="sans-serif" font-size="13" lengthAdjust="spacing" textLength="7" x="904.3031" y="390.9375">1</text><text fill="#000000" font-family="sans-serif" font-size="13" lengthAdjust="spacing" textLength="20" x="958.5869" y="526.4106">1..*</text><!--MD5=[0852e4fdbab7abcca2aa34f7c6018bb8]
@startuml
skinparam classAttributeIconSize 0

class Administrator {
-employeeID
-organizationID
-name
-address
-phoneNumber
-email
-SOCcode
}
class Category {
-code
-description
-nhsID
}
class ChemicalLaboratory {
-name
-address
-phoneNumber
-TIN
}
class CollectionMethod {
-designation
}
class Client {
-name 
-cardNumber 
-birthDate 
-sex 
-nhsID
-TIF
-phoneNumber
-email
}
class ClinicalAnalysisLaboratory {
-name
-address
-phoneNumber
-TIN
-laboratoryID
}
class ClinicalChemistryTechnologist {
-employeeID
-organizationID
-name
-address
-phoneNumber
-email
-SOCcode
}
class Company {
-designation
}
class Diagnosis
class LabOrder {
-testType 
-parameters 
}
class LaboratoryCoordinator {
-employeeID
-organizationID
-name
-address
-phoneNumber
-email
-SOCcode
}
class MedicalLabTechnician {
-employeeID
-organizationID
-name
-address
-phoneNumber
-email
-SOCcode
}
class NHS
class Receptionist {
-employeeID
-organizationID
-name
-address
-phoneNumber
-email
-SOCcode
}
class Test {
-internalCode 
-nhsCode
-createdAt
-sampleCollectionMethod
-dateAnalysis
-timeAnalysis
-dateDiagnosis
-timeDiagnosis
-dateValidation
-timeValidation
}
class Parameter {
-designation
-upperReferenceValue
-lowerReferenceValue
}
class ParameterResult
class Report {
-textBody
}
class TestResult
class TestType {
-designation
}
class Sample {
-barcode
-dateCollection
-timeCollection
}
class SampleType
class SpecialistDoctor {
-employeeID
-organizationID
-name
-address
-phoneNumber
-email
-SOCcode
-doctorIndexNumber
}

Administrator "1"- -"*" Category : created by <
ChemicalLaboratory "1"- -"*" Sample : analyses >
Client "1"- -"*" LabOrder : has a >
ClinicalAnalysisLaboratory "1"- -"*" Sample : collects >
ClinicalAnalysisLaboratory "1"- -"*" TestType : performs >
ClinicalChemistryTechnologist "1"- -"*" Sample : analysed by <
Company "1"-down-"*" TestType : conducts >
Company "1"-down-"*" Category : has >
Company "1"-down-"*" ClinicalAnalysisLaboratory : owns >
Company "1"-down-"1" ChemicalLaboratory : owns >
Diagnosis "*"- -"1" LaboratoryCoordinator : validated by >
Diagnosis "*"- -"1" SpecialistDoctor : generates <
MedicalLabTechnician "1"- -"*" Sample : collected by <
NHS "1"- -"1" Company : requests report to >
Parameter "*"- -"1" Category : presented under >
ParameterResult "1"- -"1" Parameter : associated to >
Receptionist "1"- -"*" Client : registers >
Receptionist "1"- -"*" Test : registers >
Report "1"- -"1" Diagnosis : contains >
Report "1"- -"1" TestResult : associated to >
Sample "*"- -"1" Client : associated to >
Sample "*"- -"1" Test : associated to >
SampleType "1"- -"1" Sample  : is of <
SpecialistDoctor "1"- -"*" Report : generates >
Test "*"- -"1" Client : requested by >
Test "*"-up-"1" Company : performs <
Test "*"- -"1..*" Parameter : requests analysis of >
Test "1"- -"1" LabOrder : requires >
Test "*"- -"1" "TestType" : is of >
Test "1"- -"1" TestResult : has a >
Test "1"- -"*" Sample : collects >
TestResult "*"- -"1" LaboratoryCoordinator : validated by >
TestResult "*"- -"1" SpecialistDoctor : analysed by >
TestResult "*"- -"1" ClinicalChemistryTechnologist : generates <
TestResult "1"- -"*" ParameterResult : has >
TestType "*"- -"1" Administrator : created by >
TestType "1"- -"1..*" Parameter : has >
SampleType "1"- -"1..*" CollectionMethod : has >
@enduml

PlantUML version 1.2021.2(Sun Mar 07 11:10:27 GMT 2021)
(GPL source distribution)
Java Runtime: OpenJDK Runtime Environment
JVM: OpenJDK 64-Bit Server VM
Default Encoding: Cp1252
Language: pt
Country: PT
--></g></svg>