<?xml version="1.0" encoding="UTF-8" standalone="no"?><svg xmlns="http://www.w3.org/2000/svg" xmlns:xlink="http://www.w3.org/1999/xlink" contentScriptType="application/ecmascript" contentStyleType="text/css" height="1216.8px" preserveAspectRatio="none" style="width:991px;height:1216px;" version="1.1" viewBox="0 0 991 1216" width="991.8px" zoomAndPan="magnify"><defs><filter height="300%" id="fo0wks60q9ezi" width="300%" x="-1" y="-1"><feGaussianBlur result="blurOut" stdDeviation="1.2"/><feColorMatrix in="blurOut" result="blurOut2" type="matrix" values="0 0 0 0 0 0 0 0 0 0 0 0 0 0 0 0 0 0 .4 0"/><feOffset dx="2.4" dy="2.4" in="blurOut2" result="blurOut3"/><feBlend in="SourceGraphic" in2="blurOut3" mode="normal"/></filter></defs><g><!--MD5=[da547346deef918ea16944ba046651ef]
class Administrator--><rect codeLine="3" fill="#FEFECE" filter="url(#fo0wks60q9ezi)" height="28.8" id="Administrator" style="stroke:#A80036;stroke-width:0.8999999999999999;" width="63" x="114.7991" y="1071"/><ellipse cx="123.7991" cy="1080.6" fill="#ADD1B2" rx="6.6" ry="6.6" style="stroke:#A80036;stroke-width:0.6;"/><path d="M124.9991,1078.5 Q125.121,1078.2 125.2616,1078.05 Q125.4022,1077.9 125.5616,1077.9 Q125.8429,1077.9 126.021,1078.0688 Q126.1991,1078.2375 126.1991,1078.6313 L126.1991,1079.5688 Q126.1991,1079.9625 126.0304,1080.1313 Q125.8616,1080.3 125.5991,1080.3 Q125.3647,1080.3 125.2147,1080.1969 Q125.0647,1080.0938 124.9991,1079.8219 Q124.971,1079.6344 124.8679,1079.5313 Q124.6804,1079.3344 124.3429,1079.2219 Q124.0054,1079.1 123.6679,1079.1 Q123.246,1079.1 122.8897,1079.2688 Q122.5429,1079.4375 122.271,1079.8125 Q121.9991,1080.1875 121.9991,1080.7031 L121.9991,1081.2563 Q121.9991,1081.875 122.5054,1082.2875 Q123.0116,1082.7 123.9116,1082.7 Q124.446,1082.7 124.821,1082.5781 Q125.0366,1082.5125 125.2804,1082.2969 Q125.4397,1082.175 125.5241,1082.1375 Q125.6085,1082.1 125.7116,1082.1 Q125.9085,1082.1 126.0491,1082.2594 Q126.1991,1082.4094 126.1991,1082.625 Q126.1991,1082.8313 125.9929,1083.075 Q125.6929,1083.4312 125.2147,1083.6281 Q124.5866,1083.9 123.8179,1083.9 Q122.9179,1083.9 122.196,1083.5438 Q121.6147,1083.2625 121.2022,1082.6531 Q120.7991,1082.0438 120.7991,1081.3219 L120.7991,1080.6656 Q120.7991,1079.9156 121.1554,1079.2594 Q121.521,1078.6031 122.1491,1078.2563 Q122.7866,1077.9 123.4991,1077.9 Q123.9304,1077.9 124.3054,1078.05 Q124.6804,1078.2 124.9991,1078.5 Z " fill="#000000"/><text fill="#000000" font-family="sans-serif" font-size="7.2" lengthAdjust="spacing" textLength="43.8" x="132.1991" y="1083.5461">Administrator</text><line style="stroke:#A80036;stroke-width:0.8999999999999999;" x1="115.3991" x2="177.1991" y1="1090.2" y2="1090.2"/><line style="stroke:#A80036;stroke-width:0.8999999999999999;" x1="115.3991" x2="177.1991" y1="1095" y2="1095"/><!--MD5=[a96594a83e2ecdc78cbf17c2ddf01934]
class Category--><rect codeLine="4" fill="#FEFECE" filter="url(#fo0wks60q9ezi)" height="53.7047" id="Category" style="stroke:#A80036;stroke-width:0.8999999999999999;" width="48.6" x="121.9991" y="1155"/><ellipse cx="130.9991" cy="1164.6" fill="#ADD1B2" rx="6.6" ry="6.6" style="stroke:#A80036;stroke-width:0.6;"/><path d="M132.1991,1162.5 Q132.321,1162.2 132.4616,1162.05 Q132.6022,1161.9 132.7616,1161.9 Q133.0429,1161.9 133.221,1162.0688 Q133.3991,1162.2375 133.3991,1162.6313 L133.3991,1163.5688 Q133.3991,1163.9625 133.2304,1164.1313 Q133.0616,1164.3 132.7991,1164.3 Q132.5647,1164.3 132.4147,1164.1969 Q132.2647,1164.0938 132.1991,1163.8219 Q132.171,1163.6344 132.0679,1163.5313 Q131.8804,1163.3344 131.5429,1163.2219 Q131.2054,1163.1 130.8679,1163.1 Q130.446,1163.1 130.0897,1163.2688 Q129.7429,1163.4375 129.471,1163.8125 Q129.1991,1164.1875 129.1991,1164.7031 L129.1991,1165.2563 Q129.1991,1165.875 129.7054,1166.2875 Q130.2116,1166.7 131.1116,1166.7 Q131.646,1166.7 132.021,1166.5781 Q132.2366,1166.5125 132.4804,1166.2969 Q132.6397,1166.175 132.7241,1166.1375 Q132.8085,1166.1 132.9116,1166.1 Q133.1085,1166.1 133.2491,1166.2594 Q133.3991,1166.4094 133.3991,1166.625 Q133.3991,1166.8313 133.1929,1167.075 Q132.8929,1167.4312 132.4147,1167.6281 Q131.7866,1167.9 131.0179,1167.9 Q130.1179,1167.9 129.396,1167.5438 Q128.8147,1167.2625 128.4022,1166.6531 Q127.9991,1166.0438 127.9991,1165.3219 L127.9991,1164.6656 Q127.9991,1163.9156 128.3554,1163.2594 Q128.721,1162.6031 129.3491,1162.2563 Q129.9866,1161.9 130.6991,1161.9 Q131.1304,1161.9 131.5054,1162.05 Q131.8804,1162.2 132.1991,1162.5 Z " fill="#000000"/><text fill="#000000" font-family="sans-serif" font-size="7.2" lengthAdjust="spacing" textLength="29.4" x="139.3991" y="1167.5461">Category</text><line style="stroke:#A80036;stroke-width:0.8999999999999999;" x1="122.5991" x2="169.9991" y1="1174.2" y2="1174.2"/><text fill="#000000" font-family="sans-serif" font-size="6.6" lengthAdjust="spacing" textLength="16.8" x="125.5991" y="1183.4514">-code</text><text fill="#000000" font-family="sans-serif" font-size="6.6" lengthAdjust="spacing" textLength="34.2" x="125.5991" y="1191.7529">-description</text><text fill="#000000" font-family="sans-serif" font-size="6.6" lengthAdjust="spacing" textLength="18.6" x="125.5991" y="1200.0545">-nhsID</text><line style="stroke:#A80036;stroke-width:0.8999999999999999;" x1="122.5991" x2="169.9991" y1="1203.9047" y2="1203.9047"/><!--MD5=[a64badb107d3691f2dc6af242cdbeb21]
class ChemicalLaboratory--><rect codeLine="9" fill="#FEFECE" filter="url(#fo0wks60q9ezi)" height="62.0062" id="ChemicalLaboratory" style="stroke:#A80036;stroke-width:0.8999999999999999;" width="85.8" x="533.5991" y="268.8"/><ellipse cx="542.5991" cy="278.4" fill="#ADD1B2" rx="6.6" ry="6.6" style="stroke:#A80036;stroke-width:0.6;"/><path d="M543.7991,276.3 Q543.921,276 544.0616,275.85 Q544.2022,275.7 544.3616,275.7 Q544.6429,275.7 544.821,275.8688 Q544.9991,276.0375 544.9991,276.4313 L544.9991,277.3688 Q544.9991,277.7625 544.8304,277.9313 Q544.6616,278.1 544.3991,278.1 Q544.1647,278.1 544.0147,277.9969 Q543.8647,277.8938 543.7991,277.6219 Q543.771,277.4344 543.6679,277.3313 Q543.4804,277.1344 543.1429,277.0219 Q542.8054,276.9 542.4679,276.9 Q542.046,276.9 541.6897,277.0687 Q541.3429,277.2375 541.071,277.6125 Q540.7991,277.9875 540.7991,278.5031 L540.7991,279.0563 Q540.7991,279.675 541.3054,280.0875 Q541.8116,280.5 542.7116,280.5 Q543.246,280.5 543.621,280.3781 Q543.8366,280.3125 544.0804,280.0969 Q544.2397,279.975 544.3241,279.9375 Q544.4085,279.9 544.5116,279.9 Q544.7085,279.9 544.8491,280.0594 Q544.9991,280.2094 544.9991,280.425 Q544.9991,280.6312 544.7929,280.875 Q544.4929,281.2313 544.0147,281.4281 Q543.3866,281.7 542.6179,281.7 Q541.7179,281.7 540.996,281.3438 Q540.4147,281.0625 540.0022,280.4531 Q539.5991,279.8438 539.5991,279.1219 L539.5991,278.4656 Q539.5991,277.7156 539.9554,277.0594 Q540.321,276.4031 540.9491,276.0563 Q541.5866,275.7 542.2991,275.7 Q542.7304,275.7 543.1054,275.85 Q543.4804,276 543.7991,276.3 Z " fill="#000000"/><text fill="#000000" font-family="sans-serif" font-size="7.2" lengthAdjust="spacing" textLength="66.6" x="550.9991" y="281.3461">ChemicalLaboratory</text><line style="stroke:#A80036;stroke-width:0.8999999999999999;" x1="534.1991" x2="618.7991" y1="288" y2="288"/><text fill="#000000" font-family="sans-serif" font-size="6.6" lengthAdjust="spacing" textLength="18" x="537.1991" y="297.2514">-name</text><text fill="#000000" font-family="sans-serif" font-size="6.6" lengthAdjust="spacing" textLength="26.4" x="537.1991" y="305.5529">-address</text><text fill="#000000" font-family="sans-serif" font-size="6.6" lengthAdjust="spacing" textLength="42.6" x="537.1991" y="313.8545">-phoneNumber</text><text fill="#000000" font-family="sans-serif" font-size="6.6" lengthAdjust="spacing" textLength="11.4" x="537.1991" y="322.1561">-TIN</text><line style="stroke:#A80036;stroke-width:0.8999999999999999;" x1="534.1991" x2="618.7991" y1="326.0062" y2="326.0062"/><!--MD5=[ed6624c6556d5e7b1bd23032162d20b7]
class Client--><rect codeLine="15" fill="#FEFECE" filter="url(#fo0wks60q9ezi)" height="95.2125" id="Client" style="stroke:#A80036;stroke-width:0.8999999999999999;" width="49.8" x="420.1991" y="920.4"/><ellipse cx="434.3291" cy="930" fill="#ADD1B2" rx="6.6" ry="6.6" style="stroke:#A80036;stroke-width:0.6;"/><path d="M435.5291,927.9 Q435.651,927.6 435.7916,927.45 Q435.9322,927.3 436.0916,927.3 Q436.3729,927.3 436.551,927.4688 Q436.7291,927.6375 436.7291,928.0313 L436.7291,928.9688 Q436.7291,929.3625 436.5604,929.5313 Q436.3916,929.7 436.1291,929.7 Q435.8947,929.7 435.7447,929.5969 Q435.5947,929.4938 435.5291,929.2219 Q435.501,929.0344 435.3979,928.9313 Q435.2104,928.7344 434.8729,928.6219 Q434.5354,928.5 434.1979,928.5 Q433.776,928.5 433.4197,928.6687 Q433.0729,928.8375 432.801,929.2125 Q432.5291,929.5875 432.5291,930.1031 L432.5291,930.6563 Q432.5291,931.275 433.0354,931.6875 Q433.5416,932.1 434.4416,932.1 Q434.976,932.1 435.351,931.9781 Q435.5666,931.9125 435.8104,931.6969 Q435.9697,931.575 436.0541,931.5375 Q436.1385,931.5 436.2416,931.5 Q436.4385,931.5 436.5791,931.6594 Q436.7291,931.8094 436.7291,932.025 Q436.7291,932.2312 436.5229,932.475 Q436.2229,932.8313 435.7447,933.0281 Q435.1166,933.3 434.3479,933.3 Q433.4479,933.3 432.726,932.9437 Q432.1447,932.6625 431.7322,932.0531 Q431.3291,931.4437 431.3291,930.7219 L431.3291,930.0656 Q431.3291,929.3156 431.6854,928.6594 Q432.051,928.0031 432.6791,927.6563 Q433.3166,927.3 434.0291,927.3 Q434.4604,927.3 434.8354,927.45 Q435.2104,927.6 435.5291,927.9 Z " fill="#000000"/><text fill="#000000" font-family="sans-serif" font-size="7.2" lengthAdjust="spacing" textLength="19.2" x="443.8691" y="932.9461">Client</text><line style="stroke:#A80036;stroke-width:0.8999999999999999;" x1="420.7991" x2="469.3991" y1="939.6" y2="939.6"/><text fill="#000000" font-family="sans-serif" font-size="6.6" lengthAdjust="spacing" textLength="18" x="423.7991" y="948.8514">-name</text><text fill="#000000" font-family="sans-serif" font-size="6.6" lengthAdjust="spacing" textLength="37.8" x="423.7991" y="957.1529">-cardNumber</text><text fill="#000000" font-family="sans-serif" font-size="6.6" lengthAdjust="spacing" textLength="28.2" x="423.7991" y="965.4545">-birthDate</text><text fill="#000000" font-family="sans-serif" font-size="6.6" lengthAdjust="spacing" textLength="13.2" x="423.7991" y="973.7561">-sex</text><text fill="#000000" font-family="sans-serif" font-size="6.6" lengthAdjust="spacing" textLength="18.6" x="423.7991" y="982.0576">-nhsID</text><text fill="#000000" font-family="sans-serif" font-size="6.6" lengthAdjust="spacing" textLength="10.8" x="423.7991" y="990.3592">-TIF</text><text fill="#000000" font-family="sans-serif" font-size="6.6" lengthAdjust="spacing" textLength="42.6" x="423.7991" y="998.6607">-phoneNumber</text><text fill="#000000" font-family="sans-serif" font-size="6.6" lengthAdjust="spacing" textLength="16.8" x="423.7991" y="1006.9623">-email</text><line style="stroke:#A80036;stroke-width:0.8999999999999999;" x1="420.7991" x2="469.3991" y1="1010.8125" y2="1010.8125"/><!--MD5=[1934a092c0e7d4da7dc7075b6f4b6b03]
class ClinicalAnalysisLaboratory--><rect codeLine="25" fill="#FEFECE" filter="url(#fo0wks60q9ezi)" height="70.3078" id="ClinicalAnalysisLaboratory" style="stroke:#A80036;stroke-width:0.8999999999999999;" width="106.2" x="168.1991" y="526.2"/><ellipse cx="177.1991" cy="535.8" fill="#ADD1B2" rx="6.6" ry="6.6" style="stroke:#A80036;stroke-width:0.6;"/><path d="M178.3991,533.7 Q178.521,533.4 178.6616,533.25 Q178.8022,533.1 178.9616,533.1 Q179.2429,533.1 179.421,533.2688 Q179.5991,533.4375 179.5991,533.8313 L179.5991,534.7688 Q179.5991,535.1625 179.4304,535.3313 Q179.2616,535.5 178.9991,535.5 Q178.7647,535.5 178.6147,535.3969 Q178.4647,535.2937 178.3991,535.0219 Q178.371,534.8344 178.2679,534.7312 Q178.0804,534.5344 177.7429,534.4219 Q177.4054,534.3 177.0679,534.3 Q176.646,534.3 176.2897,534.4688 Q175.9429,534.6375 175.671,535.0125 Q175.3991,535.3875 175.3991,535.9031 L175.3991,536.4563 Q175.3991,537.075 175.9054,537.4875 Q176.4116,537.9 177.3116,537.9 Q177.846,537.9 178.221,537.7781 Q178.4366,537.7125 178.6804,537.4969 Q178.8397,537.375 178.9241,537.3375 Q179.0085,537.3 179.1116,537.3 Q179.3085,537.3 179.4491,537.4594 Q179.5991,537.6094 179.5991,537.825 Q179.5991,538.0313 179.3929,538.275 Q179.0929,538.6313 178.6147,538.8281 Q177.9866,539.1 177.2179,539.1 Q176.3179,539.1 175.596,538.7438 Q175.0147,538.4625 174.6022,537.8531 Q174.1991,537.2438 174.1991,536.5219 L174.1991,535.8656 Q174.1991,535.1156 174.5554,534.4594 Q174.921,533.8031 175.5491,533.4563 Q176.1866,533.1 176.8991,533.1 Q177.3304,533.1 177.7054,533.25 Q178.0804,533.4 178.3991,533.7 Z " fill="#000000"/><text fill="#000000" font-family="sans-serif" font-size="7.2" lengthAdjust="spacing" textLength="87" x="185.5991" y="538.7461">ClinicalAnalysisLaboratory</text><line style="stroke:#A80036;stroke-width:0.8999999999999999;" x1="168.7991" x2="273.7991" y1="545.4" y2="545.4"/><text fill="#000000" font-family="sans-serif" font-size="6.6" lengthAdjust="spacing" textLength="18" x="171.7991" y="554.6514">-name</text><text fill="#000000" font-family="sans-serif" font-size="6.6" lengthAdjust="spacing" textLength="26.4" x="171.7991" y="562.9529">-address</text><text fill="#000000" font-family="sans-serif" font-size="6.6" lengthAdjust="spacing" textLength="42.6" x="171.7991" y="571.2545">-phoneNumber</text><text fill="#000000" font-family="sans-serif" font-size="6.6" lengthAdjust="spacing" textLength="11.4" x="171.7991" y="579.5561">-TIN</text><text fill="#000000" font-family="sans-serif" font-size="6.6" lengthAdjust="spacing" textLength="37.2" x="171.7991" y="587.8576">-laboratoryID</text><line style="stroke:#A80036;stroke-width:0.8999999999999999;" x1="168.7991" x2="273.7991" y1="591.7078" y2="591.7078"/><!--MD5=[012ee2a8bf3ae2b319009b06f951c2e5]
class ClinicalChemistryTechnologist--><rect codeLine="32" fill="#FEFECE" filter="url(#fo0wks60q9ezi)" height="28.8" id="ClinicalChemistryTechnologist" style="stroke:#A80036;stroke-width:0.8999999999999999;" width="120" x="420.4991" y="546.9"/><ellipse cx="429.4991" cy="556.5" fill="#ADD1B2" rx="6.6" ry="6.6" style="stroke:#A80036;stroke-width:0.6;"/><path d="M430.6991,554.4 Q430.821,554.1 430.9616,553.95 Q431.1022,553.8 431.2616,553.8 Q431.5429,553.8 431.721,553.9688 Q431.8991,554.1375 431.8991,554.5313 L431.8991,555.4688 Q431.8991,555.8625 431.7304,556.0313 Q431.5616,556.2 431.2991,556.2 Q431.0647,556.2 430.9147,556.0969 Q430.7647,555.9938 430.6991,555.7219 Q430.671,555.5344 430.5679,555.4313 Q430.3804,555.2344 430.0429,555.1219 Q429.7054,555 429.3679,555 Q428.946,555 428.5897,555.1687 Q428.2429,555.3375 427.971,555.7125 Q427.6991,556.0875 427.6991,556.6031 L427.6991,557.1563 Q427.6991,557.775 428.2054,558.1875 Q428.7116,558.6 429.6116,558.6 Q430.146,558.6 430.521,558.4781 Q430.7366,558.4125 430.9804,558.1969 Q431.1397,558.075 431.2241,558.0375 Q431.3085,558 431.4116,558 Q431.6085,558 431.7491,558.1594 Q431.8991,558.3094 431.8991,558.525 Q431.8991,558.7312 431.6929,558.975 Q431.3929,559.3313 430.9147,559.5281 Q430.2866,559.8 429.5179,559.8 Q428.6179,559.8 427.896,559.4438 Q427.3147,559.1625 426.9022,558.5531 Q426.4991,557.9438 426.4991,557.2219 L426.4991,556.5656 Q426.4991,555.8156 426.8554,555.1594 Q427.221,554.5031 427.8491,554.1563 Q428.4866,553.8 429.1991,553.8 Q429.6304,553.8 430.0054,553.95 Q430.3804,554.1 430.6991,554.4 Z " fill="#000000"/><text fill="#000000" font-family="sans-serif" font-size="7.2" lengthAdjust="spacing" textLength="100.8" x="437.8991" y="559.4461">ClinicalChemistryTechnologist</text><line style="stroke:#A80036;stroke-width:0.8999999999999999;" x1="421.0991" x2="539.8991" y1="566.1" y2="566.1"/><line style="stroke:#A80036;stroke-width:0.8999999999999999;" x1="421.0991" x2="539.8991" y1="570.9" y2="570.9"/><!--MD5=[02e4b9b7573f1156f41e60aa5b4e25a4]
class Company--><rect codeLine="33" fill="#FEFECE" filter="url(#fo0wks60q9ezi)" height="37.1016" id="Company" style="stroke:#A80036;stroke-width:0.8999999999999999;" width="51" x="150.1991" y="79.8"/><ellipse cx="159.1991" cy="89.4" fill="#ADD1B2" rx="6.6" ry="6.6" style="stroke:#A80036;stroke-width:0.6;"/><path d="M160.3991,87.3 Q160.521,87 160.6616,86.85 Q160.8022,86.7 160.9616,86.7 Q161.2429,86.7 161.421,86.8687 Q161.5991,87.0375 161.5991,87.4312 L161.5991,88.3687 Q161.5991,88.7625 161.4304,88.9312 Q161.2616,89.1 160.9991,89.1 Q160.7647,89.1 160.6147,88.9969 Q160.4647,88.8938 160.3991,88.6219 Q160.371,88.4344 160.2679,88.3313 Q160.0804,88.1344 159.7429,88.0219 Q159.4054,87.9 159.0679,87.9 Q158.646,87.9 158.2897,88.0688 Q157.9429,88.2375 157.671,88.6125 Q157.3991,88.9875 157.3991,89.5031 L157.3991,90.0562 Q157.3991,90.675 157.9054,91.0875 Q158.4116,91.5 159.3116,91.5 Q159.846,91.5 160.221,91.3781 Q160.4366,91.3125 160.6804,91.0969 Q160.8397,90.975 160.9241,90.9375 Q161.0085,90.9 161.1116,90.9 Q161.3085,90.9 161.4491,91.0594 Q161.5991,91.2094 161.5991,91.425 Q161.5991,91.6313 161.3929,91.875 Q161.0929,92.2313 160.6147,92.4281 Q159.9866,92.7 159.2179,92.7 Q158.3179,92.7 157.596,92.3438 Q157.0147,92.0625 156.6022,91.4531 Q156.1991,90.8438 156.1991,90.1219 L156.1991,89.4656 Q156.1991,88.7156 156.5554,88.0594 Q156.921,87.4031 157.5491,87.0562 Q158.1866,86.7 158.8991,86.7 Q159.3304,86.7 159.7054,86.85 Q160.0804,87 160.3991,87.3 Z " fill="#000000"/><text fill="#000000" font-family="sans-serif" font-size="7.2" lengthAdjust="spacing" textLength="31.8" x="167.5991" y="92.3461">Company</text><line style="stroke:#A80036;stroke-width:0.8999999999999999;" x1="150.7991" x2="200.5991" y1="99" y2="99"/><text fill="#000000" font-family="sans-serif" font-size="6.6" lengthAdjust="spacing" textLength="35.4" x="153.7991" y="108.2514">-designation</text><line style="stroke:#A80036;stroke-width:0.8999999999999999;" x1="150.7991" x2="200.5991" y1="112.1016" y2="112.1016"/><!--MD5=[10d06bcee75aaf74ab8f6040820ceef2]
class Diagnosis--><rect codeLine="36" fill="#FEFECE" filter="url(#fo0wks60q9ezi)" height="28.8" id="Diagnosis" style="stroke:#A80036;stroke-width:0.8999999999999999;" width="53.4" x="639.1991" y="450.6"/><ellipse cx="648.1991" cy="460.2" fill="#ADD1B2" rx="6.6" ry="6.6" style="stroke:#A80036;stroke-width:0.6;"/><path d="M649.3991,458.1 Q649.521,457.8 649.6616,457.65 Q649.8022,457.5 649.9616,457.5 Q650.2429,457.5 650.421,457.6688 Q650.5991,457.8375 650.5991,458.2313 L650.5991,459.1688 Q650.5991,459.5625 650.4304,459.7313 Q650.2616,459.9 649.9991,459.9 Q649.7647,459.9 649.6147,459.7969 Q649.4647,459.6937 649.3991,459.4219 Q649.371,459.2344 649.2679,459.1312 Q649.0804,458.9344 648.7429,458.8219 Q648.4054,458.7 648.0679,458.7 Q647.646,458.7 647.2897,458.8688 Q646.9429,459.0375 646.671,459.4125 Q646.3991,459.7875 646.3991,460.3031 L646.3991,460.8563 Q646.3991,461.475 646.9054,461.8875 Q647.4116,462.3 648.3116,462.3 Q648.846,462.3 649.221,462.1781 Q649.4366,462.1125 649.6804,461.8969 Q649.8397,461.775 649.9241,461.7375 Q650.0085,461.7 650.1116,461.7 Q650.3085,461.7 650.4491,461.8594 Q650.5991,462.0094 650.5991,462.225 Q650.5991,462.4313 650.3929,462.675 Q650.0929,463.0313 649.6147,463.2281 Q648.9866,463.5 648.2179,463.5 Q647.3179,463.5 646.596,463.1437 Q646.0147,462.8625 645.6022,462.2531 Q645.1991,461.6437 645.1991,460.9219 L645.1991,460.2656 Q645.1991,459.5156 645.5554,458.8594 Q645.921,458.2031 646.5491,457.8563 Q647.1866,457.5 647.8991,457.5 Q648.3304,457.5 648.7054,457.65 Q649.0804,457.8 649.3991,458.1 Z " fill="#000000"/><text fill="#000000" font-family="sans-serif" font-size="7.2" lengthAdjust="spacing" textLength="34.2" x="656.5991" y="463.1461">Diagnosis</text><line style="stroke:#A80036;stroke-width:0.8999999999999999;" x1="639.7991" x2="691.9991" y1="469.8" y2="469.8"/><line style="stroke:#A80036;stroke-width:0.8999999999999999;" x1="639.7991" x2="691.9991" y1="474.6" y2="474.6"/><!--MD5=[a999c1570c205a2156b04a15307bc1ff]
class LabOrder--><rect codeLine="37" fill="#FEFECE" filter="url(#fo0wks60q9ezi)" height="45.4031" id="LabOrder" style="stroke:#A80036;stroke-width:0.8999999999999999;" width="50.4" x="442.6991" y="1062.6"/><ellipse cx="451.6991" cy="1072.2" fill="#ADD1B2" rx="6.6" ry="6.6" style="stroke:#A80036;stroke-width:0.6;"/><path d="M452.8991,1070.1 Q453.021,1069.8 453.1616,1069.65 Q453.3022,1069.5 453.4616,1069.5 Q453.7429,1069.5 453.921,1069.6688 Q454.0991,1069.8375 454.0991,1070.2313 L454.0991,1071.1688 Q454.0991,1071.5625 453.9304,1071.7313 Q453.7616,1071.9 453.4991,1071.9 Q453.2647,1071.9 453.1147,1071.7969 Q452.9647,1071.6938 452.8991,1071.4219 Q452.871,1071.2344 452.7679,1071.1313 Q452.5804,1070.9344 452.2429,1070.8219 Q451.9054,1070.7 451.5679,1070.7 Q451.146,1070.7 450.7897,1070.8687 Q450.4429,1071.0375 450.171,1071.4125 Q449.8991,1071.7875 449.8991,1072.3031 L449.8991,1072.8563 Q449.8991,1073.475 450.4054,1073.8875 Q450.9116,1074.3 451.8116,1074.3 Q452.346,1074.3 452.721,1074.1781 Q452.9366,1074.1125 453.1804,1073.8969 Q453.3397,1073.775 453.4241,1073.7375 Q453.5085,1073.7 453.6116,1073.7 Q453.8085,1073.7 453.9491,1073.8594 Q454.0991,1074.0094 454.0991,1074.225 Q454.0991,1074.4312 453.8929,1074.675 Q453.5929,1075.0313 453.1147,1075.2281 Q452.4866,1075.5 451.7179,1075.5 Q450.8179,1075.5 450.096,1075.1438 Q449.5147,1074.8625 449.1022,1074.2531 Q448.6991,1073.6438 448.6991,1072.9219 L448.6991,1072.2656 Q448.6991,1071.5156 449.0554,1070.8594 Q449.421,1070.2031 450.0491,1069.8563 Q450.6866,1069.5 451.3991,1069.5 Q451.8304,1069.5 452.2054,1069.65 Q452.5804,1069.8 452.8991,1070.1 Z " fill="#000000"/><text fill="#000000" font-family="sans-serif" font-size="7.2" lengthAdjust="spacing" textLength="31.2" x="460.0991" y="1075.1461">LabOrder</text><line style="stroke:#A80036;stroke-width:0.8999999999999999;" x1="443.2991" x2="492.4991" y1="1081.8" y2="1081.8"/><text fill="#000000" font-family="sans-serif" font-size="6.6" lengthAdjust="spacing" textLength="27.6" x="446.2991" y="1091.0514">-testType</text><text fill="#000000" font-family="sans-serif" font-size="6.6" lengthAdjust="spacing" textLength="35.4" x="446.2991" y="1099.3529">-parameters</text><line style="stroke:#A80036;stroke-width:0.8999999999999999;" x1="443.2991" x2="492.4991" y1="1103.2031" y2="1103.2031"/><!--MD5=[7421f545a0d8420c5bec41e74b387d9c]
class Employee--><rect codeLine="41" fill="#FEFECE" filter="url(#fo0wks60q9ezi)" height="86.9109" id="Employee" style="stroke:#A80036;stroke-width:0.8999999999999999;" width="52.2" x="346.9991" y="163.8"/><ellipse cx="355.9991" cy="173.4" fill="#ADD1B2" rx="6.6" ry="6.6" style="stroke:#A80036;stroke-width:0.6;"/><path d="M357.1991,171.3 Q357.321,171 357.4616,170.85 Q357.6022,170.7 357.7616,170.7 Q358.0429,170.7 358.221,170.8688 Q358.3991,171.0375 358.3991,171.4313 L358.3991,172.3688 Q358.3991,172.7625 358.2304,172.9313 Q358.0616,173.1 357.7991,173.1 Q357.5647,173.1 357.4147,172.9969 Q357.2647,172.8937 357.1991,172.6219 Q357.171,172.4344 357.0679,172.3312 Q356.8804,172.1344 356.5429,172.0219 Q356.2054,171.9 355.8679,171.9 Q355.446,171.9 355.0897,172.0688 Q354.7429,172.2375 354.471,172.6125 Q354.1991,172.9875 354.1991,173.5031 L354.1991,174.0563 Q354.1991,174.675 354.7054,175.0875 Q355.2116,175.5 356.1116,175.5 Q356.646,175.5 357.021,175.3781 Q357.2366,175.3125 357.4804,175.0969 Q357.6397,174.975 357.7241,174.9375 Q357.8085,174.9 357.9116,174.9 Q358.1085,174.9 358.2491,175.0594 Q358.3991,175.2094 358.3991,175.425 Q358.3991,175.6313 358.1929,175.875 Q357.8929,176.2313 357.4147,176.4281 Q356.7866,176.7 356.0179,176.7 Q355.1179,176.7 354.396,176.3438 Q353.8147,176.0625 353.4022,175.4531 Q352.9991,174.8438 352.9991,174.1219 L352.9991,173.4656 Q352.9991,172.7156 353.3554,172.0594 Q353.721,171.4031 354.3491,171.0563 Q354.9866,170.7 355.6991,170.7 Q356.1304,170.7 356.5054,170.85 Q356.8804,171 357.1991,171.3 Z " fill="#000000"/><text fill="#000000" font-family="sans-serif" font-size="7.2" lengthAdjust="spacing" textLength="33" x="364.3991" y="176.3461">Employee</text><line style="stroke:#A80036;stroke-width:0.8999999999999999;" x1="347.5991" x2="398.5991" y1="183" y2="183"/><text fill="#000000" font-family="sans-serif" font-size="6.6" lengthAdjust="spacing" textLength="35.4" x="350.5991" y="192.2514">-employeeID</text><text fill="#000000" font-family="sans-serif" font-size="6.6" lengthAdjust="spacing" textLength="43.2" x="350.5991" y="200.5529">-organizationID</text><text fill="#000000" font-family="sans-serif" font-size="6.6" lengthAdjust="spacing" textLength="18" x="350.5991" y="208.8545">-name</text><text fill="#000000" font-family="sans-serif" font-size="6.6" lengthAdjust="spacing" textLength="26.4" x="350.5991" y="217.1561">-address</text><text fill="#000000" font-family="sans-serif" font-size="6.6" lengthAdjust="spacing" textLength="42.6" x="350.5991" y="225.4576">-phoneNumber</text><text fill="#000000" font-family="sans-serif" font-size="6.6" lengthAdjust="spacing" textLength="16.8" x="350.5991" y="233.7592">-email</text><text fill="#000000" font-family="sans-serif" font-size="6.6" lengthAdjust="spacing" textLength="30" x="350.5991" y="242.0607">-SOCcode</text><line style="stroke:#A80036;stroke-width:0.8999999999999999;" x1="347.5991" x2="398.5991" y1="245.9109" y2="245.9109"/><!--MD5=[052425de1c0eb6cc1c1b48342b0bb88f]
class LaboratoryCoordinator--><rect codeLine="50" fill="#FEFECE" filter="url(#fo0wks60q9ezi)" height="28.8" id="LaboratoryCoordinator" style="stroke:#A80036;stroke-width:0.8999999999999999;" width="93" x="646.9991" y="546.9"/><ellipse cx="655.9991" cy="556.5" fill="#ADD1B2" rx="6.6" ry="6.6" style="stroke:#A80036;stroke-width:0.6;"/><path d="M657.1991,554.4 Q657.321,554.1 657.4616,553.95 Q657.6022,553.8 657.7616,553.8 Q658.0429,553.8 658.221,553.9688 Q658.3991,554.1375 658.3991,554.5313 L658.3991,555.4688 Q658.3991,555.8625 658.2304,556.0313 Q658.0616,556.2 657.7991,556.2 Q657.5647,556.2 657.4147,556.0969 Q657.2647,555.9938 657.1991,555.7219 Q657.171,555.5344 657.0679,555.4313 Q656.8804,555.2344 656.5429,555.1219 Q656.2054,555 655.8679,555 Q655.446,555 655.0897,555.1687 Q654.7429,555.3375 654.471,555.7125 Q654.1991,556.0875 654.1991,556.6031 L654.1991,557.1563 Q654.1991,557.775 654.7054,558.1875 Q655.2116,558.6 656.1116,558.6 Q656.646,558.6 657.021,558.4781 Q657.2366,558.4125 657.4804,558.1969 Q657.6397,558.075 657.7241,558.0375 Q657.8085,558 657.9116,558 Q658.1085,558 658.2491,558.1594 Q658.3991,558.3094 658.3991,558.525 Q658.3991,558.7312 658.1929,558.975 Q657.8929,559.3313 657.4147,559.5281 Q656.7866,559.8 656.0179,559.8 Q655.1179,559.8 654.396,559.4438 Q653.8147,559.1625 653.4022,558.5531 Q652.9991,557.9438 652.9991,557.2219 L652.9991,556.5656 Q652.9991,555.8156 653.3554,555.1594 Q653.721,554.5031 654.3491,554.1563 Q654.9866,553.8 655.6991,553.8 Q656.1304,553.8 656.5054,553.95 Q656.8804,554.1 657.1991,554.4 Z " fill="#000000"/><text fill="#000000" font-family="sans-serif" font-size="7.2" lengthAdjust="spacing" textLength="73.8" x="664.3991" y="559.4461">LaboratoryCoordinator</text><line style="stroke:#A80036;stroke-width:0.8999999999999999;" x1="647.5991" x2="739.3991" y1="566.1" y2="566.1"/><line style="stroke:#A80036;stroke-width:0.8999999999999999;" x1="647.5991" x2="739.3991" y1="570.9" y2="570.9"/><!--MD5=[01931d41e78f8996acd44f6f0fd8de28]
class MedicalLabTechnician--><rect codeLine="51" fill="#FEFECE" filter="url(#fo0wks60q9ezi)" height="28.8" id="MedicalLabTechnician" style="stroke:#A80036;stroke-width:0.8999999999999999;" width="93" x="274.9991" y="403.8"/><ellipse cx="283.9991" cy="413.4" fill="#ADD1B2" rx="6.6" ry="6.6" style="stroke:#A80036;stroke-width:0.6;"/><path d="M285.1991,411.3 Q285.321,411 285.4616,410.85 Q285.6022,410.7 285.7616,410.7 Q286.0429,410.7 286.221,410.8688 Q286.3991,411.0375 286.3991,411.4313 L286.3991,412.3688 Q286.3991,412.7625 286.2304,412.9313 Q286.0616,413.1 285.7991,413.1 Q285.5647,413.1 285.4147,412.9969 Q285.2647,412.8938 285.1991,412.6219 Q285.171,412.4344 285.0679,412.3313 Q284.8804,412.1344 284.5429,412.0219 Q284.2054,411.9 283.8679,411.9 Q283.446,411.9 283.0897,412.0687 Q282.7429,412.2375 282.471,412.6125 Q282.1991,412.9875 282.1991,413.5031 L282.1991,414.0563 Q282.1991,414.675 282.7054,415.0875 Q283.2116,415.5 284.1116,415.5 Q284.646,415.5 285.021,415.3781 Q285.2366,415.3125 285.4804,415.0969 Q285.6397,414.975 285.7241,414.9375 Q285.8085,414.9 285.9116,414.9 Q286.1085,414.9 286.2491,415.0594 Q286.3991,415.2094 286.3991,415.425 Q286.3991,415.6312 286.1929,415.875 Q285.8929,416.2313 285.4147,416.4281 Q284.7866,416.7 284.0179,416.7 Q283.1179,416.7 282.396,416.3438 Q281.8147,416.0625 281.4022,415.4531 Q280.9991,414.8438 280.9991,414.1219 L280.9991,413.4656 Q280.9991,412.7156 281.3554,412.0594 Q281.721,411.4031 282.3491,411.0563 Q282.9866,410.7 283.6991,410.7 Q284.1304,410.7 284.5054,410.85 Q284.8804,411 285.1991,411.3 Z " fill="#000000"/><text fill="#000000" font-family="sans-serif" font-size="7.2" lengthAdjust="spacing" textLength="73.8" x="292.3991" y="416.3461">MedicalLabTechnician</text><line style="stroke:#A80036;stroke-width:0.8999999999999999;" x1="275.5991" x2="367.3991" y1="423" y2="423"/><line style="stroke:#A80036;stroke-width:0.8999999999999999;" x1="275.5991" x2="367.3991" y1="427.8" y2="427.8"/><!--MD5=[0a105ea8d9af02dadec02d3e239f1d60]
class NHS--><rect codeLine="52" fill="#FEFECE" filter="url(#fo0wks60q9ezi)" height="28.8" id="NHS" style="stroke:#A80036;stroke-width:0.8999999999999999;" width="34.8" x="158.2991" y="4.2"/><ellipse cx="167.2991" cy="13.8" fill="#ADD1B2" rx="6.6" ry="6.6" style="stroke:#A80036;stroke-width:0.6;"/><path d="M168.4991,11.7 Q168.621,11.4 168.7616,11.25 Q168.9022,11.1 169.0616,11.1 Q169.3429,11.1 169.521,11.2687 Q169.6991,11.4375 169.6991,11.8312 L169.6991,12.7687 Q169.6991,13.1625 169.5304,13.3312 Q169.3616,13.5 169.0991,13.5 Q168.8647,13.5 168.7147,13.3969 Q168.5647,13.2938 168.4991,13.0219 Q168.471,12.8344 168.3679,12.7313 Q168.1804,12.5344 167.8429,12.4219 Q167.5054,12.3 167.1679,12.3 Q166.746,12.3 166.3897,12.4688 Q166.0429,12.6375 165.771,13.0125 Q165.4991,13.3875 165.4991,13.9031 L165.4991,14.4562 Q165.4991,15.075 166.0054,15.4875 Q166.5116,15.9 167.4116,15.9 Q167.946,15.9 168.321,15.7781 Q168.5366,15.7125 168.7804,15.4969 Q168.9397,15.375 169.0241,15.3375 Q169.1085,15.3 169.2116,15.3 Q169.4085,15.3 169.5491,15.4594 Q169.6991,15.6094 169.6991,15.825 Q169.6991,16.0313 169.4929,16.275 Q169.1929,16.6312 168.7147,16.8281 Q168.0866,17.1 167.3179,17.1 Q166.4179,17.1 165.696,16.7438 Q165.1147,16.4625 164.7022,15.8531 Q164.2991,15.2437 164.2991,14.5219 L164.2991,13.8656 Q164.2991,13.1156 164.6554,12.4594 Q165.021,11.8031 165.6491,11.4562 Q166.2866,11.1 166.9991,11.1 Q167.4304,11.1 167.8054,11.25 Q168.1804,11.4 168.4991,11.7 Z " fill="#000000"/><text fill="#000000" font-family="sans-serif" font-size="7.2" lengthAdjust="spacing" textLength="15.6" x="175.6991" y="16.7461">NHS</text><line style="stroke:#A80036;stroke-width:0.8999999999999999;" x1="158.8991" x2="192.4991" y1="23.4" y2="23.4"/><line style="stroke:#A80036;stroke-width:0.8999999999999999;" x1="158.8991" x2="192.4991" y1="28.2" y2="28.2"/><!--MD5=[03960189e81aa2c066c762ffabbee709]
class Receptionist--><rect codeLine="53" fill="#FEFECE" filter="url(#fo0wks60q9ezi)" height="28.8" id="Receptionist" style="stroke:#A80036;stroke-width:0.8999999999999999;" width="60.6" x="571.9991" y="673.8"/><ellipse cx="580.9991" cy="683.4" fill="#ADD1B2" rx="6.6" ry="6.6" style="stroke:#A80036;stroke-width:0.6;"/><path d="M582.1991,681.3 Q582.321,681 582.4616,680.85 Q582.6022,680.7 582.7616,680.7 Q583.0429,680.7 583.221,680.8688 Q583.3991,681.0375 583.3991,681.4313 L583.3991,682.3688 Q583.3991,682.7625 583.2304,682.9313 Q583.0616,683.1 582.7991,683.1 Q582.5647,683.1 582.4147,682.9969 Q582.2647,682.8938 582.1991,682.6219 Q582.171,682.4344 582.0679,682.3313 Q581.8804,682.1344 581.5429,682.0219 Q581.2054,681.9 580.8679,681.9 Q580.446,681.9 580.0897,682.0688 Q579.7429,682.2375 579.471,682.6125 Q579.1991,682.9875 579.1991,683.5031 L579.1991,684.0563 Q579.1991,684.675 579.7054,685.0875 Q580.2116,685.5 581.1116,685.5 Q581.646,685.5 582.021,685.3781 Q582.2366,685.3125 582.4804,685.0969 Q582.6397,684.975 582.7241,684.9375 Q582.8085,684.9 582.9116,684.9 Q583.1085,684.9 583.2491,685.0594 Q583.3991,685.2094 583.3991,685.425 Q583.3991,685.6313 583.1929,685.875 Q582.8929,686.2312 582.4147,686.4281 Q581.7866,686.7 581.0179,686.7 Q580.1179,686.7 579.396,686.3438 Q578.8147,686.0625 578.4022,685.4531 Q577.9991,684.8438 577.9991,684.1219 L577.9991,683.4656 Q577.9991,682.7156 578.3554,682.0594 Q578.721,681.4031 579.3491,681.0563 Q579.9866,680.7 580.6991,680.7 Q581.1304,680.7 581.5054,680.85 Q581.8804,681 582.1991,681.3 Z " fill="#000000"/><text fill="#000000" font-family="sans-serif" font-size="7.2" lengthAdjust="spacing" textLength="41.4" x="589.3991" y="686.3461">Receptionist</text><line style="stroke:#A80036;stroke-width:0.8999999999999999;" x1="572.5991" x2="631.9991" y1="693" y2="693"/><line style="stroke:#A80036;stroke-width:0.8999999999999999;" x1="572.5991" x2="631.9991" y1="697.8" y2="697.8"/><!--MD5=[df38be88ccee13e832d6fafd6288a4ca]
class Test--><rect codeLine="54" fill="#FEFECE" filter="url(#fo0wks60q9ezi)" height="111.8156" id="Test" style="stroke:#A80036;stroke-width:0.8999999999999999;" width="78.6" x="502.9991" y="762"/><ellipse cx="532.5491" cy="771.6" fill="#ADD1B2" rx="6.6" ry="6.6" style="stroke:#A80036;stroke-width:0.6;"/><path d="M533.7491,769.5 Q533.871,769.2 534.0116,769.05 Q534.1522,768.9 534.3116,768.9 Q534.5929,768.9 534.771,769.0688 Q534.9491,769.2375 534.9491,769.6313 L534.9491,770.5688 Q534.9491,770.9625 534.7804,771.1313 Q534.6116,771.3 534.3491,771.3 Q534.1147,771.3 533.9647,771.1969 Q533.8147,771.0938 533.7491,770.8219 Q533.721,770.6344 533.6179,770.5313 Q533.4304,770.3344 533.0929,770.2219 Q532.7554,770.1 532.4179,770.1 Q531.996,770.1 531.6397,770.2688 Q531.2929,770.4375 531.021,770.8125 Q530.7491,771.1875 530.7491,771.7031 L530.7491,772.2563 Q530.7491,772.875 531.2554,773.2875 Q531.7616,773.7 532.6616,773.7 Q533.196,773.7 533.571,773.5781 Q533.7866,773.5125 534.0304,773.2969 Q534.1897,773.175 534.2741,773.1375 Q534.3585,773.1 534.4616,773.1 Q534.6585,773.1 534.7991,773.2594 Q534.9491,773.4094 534.9491,773.625 Q534.9491,773.8313 534.7429,774.075 Q534.4429,774.4313 533.9647,774.6281 Q533.3366,774.9 532.5679,774.9 Q531.6679,774.9 530.946,774.5437 Q530.3647,774.2625 529.9522,773.6531 Q529.5491,773.0437 529.5491,772.3219 L529.5491,771.6656 Q529.5491,770.9156 529.9054,770.2594 Q530.271,769.6031 530.8991,769.2563 Q531.5366,768.9 532.2491,768.9 Q532.6804,768.9 533.0554,769.05 Q533.4304,769.2 533.7491,769.5 Z " fill="#000000"/><text fill="#000000" font-family="sans-serif" font-size="7.2" lengthAdjust="spacing" textLength="14.4" x="544.8491" y="774.5461">Test</text><line style="stroke:#A80036;stroke-width:0.8999999999999999;" x1="503.5991" x2="580.9991" y1="781.2" y2="781.2"/><text fill="#000000" font-family="sans-serif" font-size="6.6" lengthAdjust="spacing" textLength="38.4" x="506.5991" y="790.4514">-internalCode</text><text fill="#000000" font-family="sans-serif" font-size="6.6" lengthAdjust="spacing" textLength="28.2" x="506.5991" y="798.7529">-nhsCode</text><text fill="#000000" font-family="sans-serif" font-size="6.6" lengthAdjust="spacing" textLength="31.2" x="506.5991" y="807.0545">-createdAt</text><text fill="#000000" font-family="sans-serif" font-size="6.6" lengthAdjust="spacing" textLength="71.4" x="506.5991" y="815.3561">-sampleCollectionMethod</text><text fill="#000000" font-family="sans-serif" font-size="6.6" lengthAdjust="spacing" textLength="40.2" x="506.5991" y="823.6576">-dateAnalysis</text><text fill="#000000" font-family="sans-serif" font-size="6.6" lengthAdjust="spacing" textLength="39" x="506.5991" y="831.9592">-timeAnalysis</text><text fill="#000000" font-family="sans-serif" font-size="6.6" lengthAdjust="spacing" textLength="43.2" x="506.5991" y="840.2607">-dateDiagnosis</text><text fill="#000000" font-family="sans-serif" font-size="6.6" lengthAdjust="spacing" textLength="42" x="506.5991" y="848.5623">-timeDiagnosis</text><text fill="#000000" font-family="sans-serif" font-size="6.6" lengthAdjust="spacing" textLength="43.2" x="506.5991" y="856.8639">-dateValidation</text><text fill="#000000" font-family="sans-serif" font-size="6.6" lengthAdjust="spacing" textLength="42" x="506.5991" y="865.1654">-timeValidation</text><line style="stroke:#A80036;stroke-width:0.8999999999999999;" x1="503.5991" x2="580.9991" y1="869.0156" y2="869.0156"/><!--MD5=[1f6362a5c8f21d8d6a0fce68f3a92a4e]
class Parameter--><rect codeLine="66" fill="#FEFECE" filter="url(#fo0wks60q9ezi)" height="37.1016" id="Parameter" style="stroke:#A80036;stroke-width:0.8999999999999999;" width="54" x="562.0991" y="1066.8"/><ellipse cx="571.0991" cy="1076.4" fill="#ADD1B2" rx="6.6" ry="6.6" style="stroke:#A80036;stroke-width:0.6;"/><path d="M572.2991,1074.3 Q572.421,1074 572.5616,1073.85 Q572.7022,1073.7 572.8616,1073.7 Q573.1429,1073.7 573.321,1073.8687 Q573.4991,1074.0375 573.4991,1074.4312 L573.4991,1075.3687 Q573.4991,1075.7625 573.3304,1075.9312 Q573.1616,1076.1 572.8991,1076.1 Q572.6647,1076.1 572.5147,1075.9969 Q572.3647,1075.8938 572.2991,1075.6219 Q572.271,1075.4344 572.1679,1075.3313 Q571.9804,1075.1344 571.6429,1075.0219 Q571.3054,1074.9 570.9679,1074.9 Q570.546,1074.9 570.1897,1075.0688 Q569.8429,1075.2375 569.571,1075.6125 Q569.2991,1075.9875 569.2991,1076.5031 L569.2991,1077.0562 Q569.2991,1077.675 569.8054,1078.0875 Q570.3116,1078.5 571.2116,1078.5 Q571.746,1078.5 572.121,1078.3781 Q572.3366,1078.3125 572.5804,1078.0969 Q572.7397,1077.975 572.8241,1077.9375 Q572.9085,1077.9 573.0116,1077.9 Q573.2085,1077.9 573.3491,1078.0594 Q573.4991,1078.2094 573.4991,1078.425 Q573.4991,1078.6313 573.2929,1078.875 Q572.9929,1079.2313 572.5147,1079.4281 Q571.8866,1079.7 571.1179,1079.7 Q570.2179,1079.7 569.496,1079.3438 Q568.9147,1079.0625 568.5022,1078.4531 Q568.0991,1077.8438 568.0991,1077.1219 L568.0991,1076.4656 Q568.0991,1075.7156 568.4554,1075.0594 Q568.821,1074.4031 569.4491,1074.0562 Q570.0866,1073.7 570.7991,1073.7 Q571.2304,1073.7 571.6054,1073.85 Q571.9804,1074 572.2991,1074.3 Z " fill="#000000"/><text fill="#000000" font-family="sans-serif" font-size="7.2" lengthAdjust="spacing" textLength="34.8" x="579.4991" y="1079.3461">Parameter</text><line style="stroke:#A80036;stroke-width:0.8999999999999999;" x1="562.6991" x2="615.4991" y1="1086" y2="1086"/><text fill="#000000" font-family="sans-serif" font-size="6.6" lengthAdjust="spacing" textLength="35.4" x="565.6991" y="1095.2514">-designation</text><line style="stroke:#A80036;stroke-width:0.8999999999999999;" x1="562.6991" x2="615.4991" y1="1099.1016" y2="1099.1016"/><!--MD5=[80e560c845ce9ec3c8b9ef25ef04dbf1]
class ParameterResult--><rect codeLine="69" fill="#FEFECE" filter="url(#fo0wks60q9ezi)" height="28.8" id="ParameterResult" style="stroke:#A80036;stroke-width:0.8999999999999999;" width="75.6" x="800.2991" y="614.4"/><ellipse cx="809.2991" cy="624" fill="#ADD1B2" rx="6.6" ry="6.6" style="stroke:#A80036;stroke-width:0.6;"/><path d="M810.4991,621.9 Q810.621,621.6 810.7616,621.45 Q810.9022,621.3 811.0616,621.3 Q811.3429,621.3 811.521,621.4688 Q811.6991,621.6375 811.6991,622.0313 L811.6991,622.9688 Q811.6991,623.3625 811.5304,623.5313 Q811.3616,623.7 811.0991,623.7 Q810.8647,623.7 810.7147,623.5969 Q810.5647,623.4938 810.4991,623.2219 Q810.471,623.0344 810.3679,622.9313 Q810.1804,622.7344 809.8429,622.6219 Q809.5054,622.5 809.1679,622.5 Q808.746,622.5 808.3897,622.6687 Q808.0429,622.8375 807.771,623.2125 Q807.4991,623.5875 807.4991,624.1031 L807.4991,624.6563 Q807.4991,625.275 808.0054,625.6875 Q808.5116,626.1 809.4116,626.1 Q809.946,626.1 810.321,625.9781 Q810.5366,625.9125 810.7804,625.6969 Q810.9397,625.575 811.0241,625.5375 Q811.1085,625.5 811.2116,625.5 Q811.4085,625.5 811.5491,625.6594 Q811.6991,625.8094 811.6991,626.025 Q811.6991,626.2312 811.4929,626.475 Q811.1929,626.8313 810.7147,627.0281 Q810.0866,627.3 809.3179,627.3 Q808.4179,627.3 807.696,626.9438 Q807.1147,626.6625 806.7022,626.0531 Q806.2991,625.4438 806.2991,624.7219 L806.2991,624.0656 Q806.2991,623.3156 806.6554,622.6594 Q807.021,622.0031 807.6491,621.6563 Q808.2866,621.3 808.9991,621.3 Q809.4304,621.3 809.8054,621.45 Q810.1804,621.6 810.4991,621.9 Z " fill="#000000"/><text fill="#000000" font-family="sans-serif" font-size="7.2" lengthAdjust="spacing" textLength="56.4" x="817.6991" y="626.9461">ParameterResult</text><line style="stroke:#A80036;stroke-width:0.8999999999999999;" x1="800.8991" x2="875.2991" y1="633.6" y2="633.6"/><line style="stroke:#A80036;stroke-width:0.8999999999999999;" x1="800.8991" x2="875.2991" y1="638.4" y2="638.4"/><!--MD5=[f00dbe8c0302c6aec2cb26b3c659c8fc]
class Report--><rect codeLine="70" fill="#FEFECE" filter="url(#fo0wks60q9ezi)" height="37.1016" id="Report" style="stroke:#A80036;stroke-width:0.8999999999999999;" width="41.4" x="697.9991" y="348.6"/><ellipse cx="706.9991" cy="358.2" fill="#ADD1B2" rx="6.6" ry="6.6" style="stroke:#A80036;stroke-width:0.6;"/><path d="M708.1991,356.1 Q708.321,355.8 708.4616,355.65 Q708.6022,355.5 708.7616,355.5 Q709.0429,355.5 709.221,355.6688 Q709.3991,355.8375 709.3991,356.2313 L709.3991,357.1688 Q709.3991,357.5625 709.2304,357.7313 Q709.0616,357.9 708.7991,357.9 Q708.5647,357.9 708.4147,357.7969 Q708.2647,357.6937 708.1991,357.4219 Q708.171,357.2344 708.0679,357.1312 Q707.8804,356.9344 707.5429,356.8219 Q707.2054,356.7 706.8679,356.7 Q706.446,356.7 706.0897,356.8688 Q705.7429,357.0375 705.471,357.4125 Q705.1991,357.7875 705.1991,358.3031 L705.1991,358.8563 Q705.1991,359.475 705.7054,359.8875 Q706.2116,360.3 707.1116,360.3 Q707.646,360.3 708.021,360.1781 Q708.2366,360.1125 708.4804,359.8969 Q708.6397,359.775 708.7241,359.7375 Q708.8085,359.7 708.9116,359.7 Q709.1085,359.7 709.2491,359.8594 Q709.3991,360.0094 709.3991,360.225 Q709.3991,360.4313 709.1929,360.675 Q708.8929,361.0313 708.4147,361.2281 Q707.7866,361.5 707.0179,361.5 Q706.1179,361.5 705.396,361.1438 Q704.8147,360.8625 704.4022,360.2531 Q703.9991,359.6438 703.9991,358.9219 L703.9991,358.2656 Q703.9991,357.5156 704.3554,356.8594 Q704.721,356.2031 705.3491,355.8563 Q705.9866,355.5 706.6991,355.5 Q707.1304,355.5 707.5054,355.65 Q707.8804,355.8 708.1991,356.1 Z " fill="#000000"/><text fill="#000000" font-family="sans-serif" font-size="7.2" lengthAdjust="spacing" textLength="22.2" x="715.3991" y="361.1461">Report</text><line style="stroke:#A80036;stroke-width:0.8999999999999999;" x1="698.5991" x2="738.7991" y1="367.8" y2="367.8"/><text fill="#000000" font-family="sans-serif" font-size="6.6" lengthAdjust="spacing" textLength="28.2" x="701.5991" y="377.0514">-textBody</text><line style="stroke:#A80036;stroke-width:0.8999999999999999;" x1="698.5991" x2="738.7991" y1="380.9016" y2="380.9016"/><!--MD5=[e27cb01a39563223b22d42504ec96d07]
class TestResult--><rect codeLine="73" fill="#FEFECE" filter="url(#fo0wks60q9ezi)" height="28.8" id="TestResult" style="stroke:#A80036;stroke-width:0.8999999999999999;" width="55.2" x="743.2991" y="450.6"/><ellipse cx="752.2991" cy="460.2" fill="#ADD1B2" rx="6.6" ry="6.6" style="stroke:#A80036;stroke-width:0.6;"/><path d="M753.4991,458.1 Q753.621,457.8 753.7616,457.65 Q753.9022,457.5 754.0616,457.5 Q754.3429,457.5 754.521,457.6688 Q754.6991,457.8375 754.6991,458.2313 L754.6991,459.1688 Q754.6991,459.5625 754.5304,459.7313 Q754.3616,459.9 754.0991,459.9 Q753.8647,459.9 753.7147,459.7969 Q753.5647,459.6937 753.4991,459.4219 Q753.471,459.2344 753.3679,459.1312 Q753.1804,458.9344 752.8429,458.8219 Q752.5054,458.7 752.1679,458.7 Q751.746,458.7 751.3897,458.8688 Q751.0429,459.0375 750.771,459.4125 Q750.4991,459.7875 750.4991,460.3031 L750.4991,460.8563 Q750.4991,461.475 751.0054,461.8875 Q751.5116,462.3 752.4116,462.3 Q752.946,462.3 753.321,462.1781 Q753.5366,462.1125 753.7804,461.8969 Q753.9397,461.775 754.0241,461.7375 Q754.1085,461.7 754.2116,461.7 Q754.4085,461.7 754.5491,461.8594 Q754.6991,462.0094 754.6991,462.225 Q754.6991,462.4313 754.4929,462.675 Q754.1929,463.0313 753.7147,463.2281 Q753.0866,463.5 752.3179,463.5 Q751.4179,463.5 750.696,463.1437 Q750.1147,462.8625 749.7022,462.2531 Q749.2991,461.6437 749.2991,460.9219 L749.2991,460.2656 Q749.2991,459.5156 749.6554,458.8594 Q750.021,458.2031 750.6491,457.8563 Q751.2866,457.5 751.9991,457.5 Q752.4304,457.5 752.8054,457.65 Q753.1804,457.8 753.4991,458.1 Z " fill="#000000"/><text fill="#000000" font-family="sans-serif" font-size="7.2" lengthAdjust="spacing" textLength="36" x="760.6991" y="463.1461">TestResult</text><line style="stroke:#A80036;stroke-width:0.8999999999999999;" x1="743.8991" x2="797.8991" y1="469.8" y2="469.8"/><line style="stroke:#A80036;stroke-width:0.8999999999999999;" x1="743.8991" x2="797.8991" y1="474.6" y2="474.6"/><!--MD5=[aeb3272166074d8737a70b61b1e71682]
class TestType--><rect codeLine="74" fill="#FEFECE" filter="url(#fo0wks60q9ezi)" height="37.1016" id="TestType" style="stroke:#A80036;stroke-width:0.8999999999999999;" width="49.2" x="196.6991" y="949.5"/><ellipse cx="205.6991" cy="959.1" fill="#ADD1B2" rx="6.6" ry="6.6" style="stroke:#A80036;stroke-width:0.6;"/><path d="M206.8991,957 Q207.021,956.7 207.1616,956.55 Q207.3022,956.4 207.4616,956.4 Q207.7429,956.4 207.921,956.5687 Q208.0991,956.7375 208.0991,957.1312 L208.0991,958.0687 Q208.0991,958.4625 207.9304,958.6312 Q207.7616,958.8 207.4991,958.8 Q207.2647,958.8 207.1147,958.6969 Q206.9647,958.5938 206.8991,958.3219 Q206.871,958.1344 206.7679,958.0313 Q206.5804,957.8344 206.2429,957.7219 Q205.9054,957.6 205.5679,957.6 Q205.146,957.6 204.7897,957.7688 Q204.4429,957.9375 204.171,958.3125 Q203.8991,958.6875 203.8991,959.2031 L203.8991,959.7562 Q203.8991,960.375 204.4054,960.7875 Q204.9116,961.2 205.8116,961.2 Q206.346,961.2 206.721,961.0781 Q206.9366,961.0125 207.1804,960.7969 Q207.3397,960.675 207.4241,960.6375 Q207.5085,960.6 207.6116,960.6 Q207.8085,960.6 207.9491,960.7594 Q208.0991,960.9094 208.0991,961.125 Q208.0991,961.3313 207.8929,961.575 Q207.5929,961.9313 207.1147,962.1281 Q206.4866,962.4 205.7179,962.4 Q204.8179,962.4 204.096,962.0437 Q203.5147,961.7625 203.1022,961.1531 Q202.6991,960.5437 202.6991,959.8219 L202.6991,959.1656 Q202.6991,958.4156 203.0554,957.7594 Q203.421,957.1031 204.0491,956.7562 Q204.6866,956.4 205.3991,956.4 Q205.8304,956.4 206.2054,956.55 Q206.5804,956.7 206.8991,957 Z " fill="#000000"/><text fill="#000000" font-family="sans-serif" font-size="7.2" lengthAdjust="spacing" textLength="30" x="214.0991" y="962.0461">TestType</text><line style="stroke:#A80036;stroke-width:0.8999999999999999;" x1="197.2991" x2="245.2991" y1="968.7" y2="968.7"/><text fill="#000000" font-family="sans-serif" font-size="6.6" lengthAdjust="spacing" textLength="35.4" x="200.2991" y="977.9514">-designation</text><line style="stroke:#A80036;stroke-width:0.8999999999999999;" x1="197.2991" x2="245.2991" y1="981.8016" y2="981.8016"/><!--MD5=[9681492165142af2a4a3a169d90ee8d4]
class Sample--><rect codeLine="77" fill="#FEFECE" filter="url(#fo0wks60q9ezi)" height="53.7047" id="Sample" style="stroke:#A80036;stroke-width:0.8999999999999999;" width="49.8" x="383.5991" y="661.2"/><ellipse cx="394.7591" cy="670.8" fill="#ADD1B2" rx="6.6" ry="6.6" style="stroke:#A80036;stroke-width:0.6;"/><path d="M395.9591,668.7 Q396.081,668.4 396.2216,668.25 Q396.3622,668.1 396.5216,668.1 Q396.8029,668.1 396.981,668.2688 Q397.1591,668.4375 397.1591,668.8313 L397.1591,669.7688 Q397.1591,670.1625 396.9904,670.3313 Q396.8216,670.5 396.5591,670.5 Q396.3247,670.5 396.1747,670.3969 Q396.0247,670.2937 395.9591,670.0219 Q395.931,669.8344 395.8279,669.7312 Q395.6404,669.5344 395.3029,669.4219 Q394.9654,669.3 394.6279,669.3 Q394.206,669.3 393.8497,669.4688 Q393.5029,669.6375 393.231,670.0125 Q392.9591,670.3875 392.9591,670.9031 L392.9591,671.4563 Q392.9591,672.075 393.4654,672.4875 Q393.9716,672.9 394.8716,672.9 Q395.406,672.9 395.781,672.7781 Q395.9966,672.7125 396.2404,672.4969 Q396.3997,672.375 396.4841,672.3375 Q396.5685,672.3 396.6716,672.3 Q396.8685,672.3 397.0091,672.4594 Q397.1591,672.6094 397.1591,672.825 Q397.1591,673.0313 396.9529,673.275 Q396.6529,673.6313 396.1747,673.8281 Q395.5466,674.1 394.7779,674.1 Q393.8779,674.1 393.156,673.7438 Q392.5747,673.4625 392.1622,672.8531 Q391.7591,672.2438 391.7591,671.5219 L391.7591,670.8656 Q391.7591,670.1156 392.1154,669.4594 Q392.481,668.8031 393.1091,668.4563 Q393.7466,668.1 394.4591,668.1 Q394.8904,668.1 395.2654,668.25 Q395.6404,668.4 395.9591,668.7 Z " fill="#000000"/><text fill="#000000" font-family="sans-serif" font-size="7.2" lengthAdjust="spacing" textLength="25.8" x="403.6391" y="673.7461">Sample</text><line style="stroke:#A80036;stroke-width:0.8999999999999999;" x1="384.1991" x2="432.7991" y1="680.4" y2="680.4"/><text fill="#000000" font-family="sans-serif" font-size="6.6" lengthAdjust="spacing" textLength="26.4" x="387.1991" y="689.6514">-barcode</text><text fill="#000000" font-family="sans-serif" font-size="6.6" lengthAdjust="spacing" textLength="42.6" x="387.1991" y="697.9529">-dateCollection</text><text fill="#000000" font-family="sans-serif" font-size="6.6" lengthAdjust="spacing" textLength="41.4" x="387.1991" y="706.2545">-timeCollection</text><line style="stroke:#A80036;stroke-width:0.8999999999999999;" x1="384.1991" x2="432.7991" y1="710.1047" y2="710.1047"/><!--MD5=[1e5329fc67d8218f135f70ba961513ea]
class SampleType--><rect codeLine="82" fill="#FEFECE" filter="url(#fo0wks60q9ezi)" height="28.8" id="SampleType" style="stroke:#A80036;stroke-width:0.8999999999999999;" width="60.6" x="338.5991" y="546.9"/><ellipse cx="347.5991" cy="556.5" fill="#ADD1B2" rx="6.6" ry="6.6" style="stroke:#A80036;stroke-width:0.6;"/><path d="M348.7991,554.4 Q348.921,554.1 349.0616,553.95 Q349.2022,553.8 349.3616,553.8 Q349.6429,553.8 349.821,553.9688 Q349.9991,554.1375 349.9991,554.5313 L349.9991,555.4688 Q349.9991,555.8625 349.8304,556.0313 Q349.6616,556.2 349.3991,556.2 Q349.1647,556.2 349.0147,556.0969 Q348.8647,555.9938 348.7991,555.7219 Q348.771,555.5344 348.6679,555.4313 Q348.4804,555.2344 348.1429,555.1219 Q347.8054,555 347.4679,555 Q347.046,555 346.6897,555.1687 Q346.3429,555.3375 346.071,555.7125 Q345.7991,556.0875 345.7991,556.6031 L345.7991,557.1563 Q345.7991,557.775 346.3054,558.1875 Q346.8116,558.6 347.7116,558.6 Q348.246,558.6 348.621,558.4781 Q348.8366,558.4125 349.0804,558.1969 Q349.2397,558.075 349.3241,558.0375 Q349.4085,558 349.5116,558 Q349.7085,558 349.8491,558.1594 Q349.9991,558.3094 349.9991,558.525 Q349.9991,558.7312 349.7929,558.975 Q349.4929,559.3313 349.0147,559.5281 Q348.3866,559.8 347.6179,559.8 Q346.7179,559.8 345.996,559.4438 Q345.4147,559.1625 345.0022,558.5531 Q344.5991,557.9438 344.5991,557.2219 L344.5991,556.5656 Q344.5991,555.8156 344.9554,555.1594 Q345.321,554.5031 345.9491,554.1563 Q346.5866,553.8 347.2991,553.8 Q347.7304,553.8 348.1054,553.95 Q348.4804,554.1 348.7991,554.4 Z " fill="#000000"/><text fill="#000000" font-family="sans-serif" font-size="7.2" lengthAdjust="spacing" textLength="41.4" x="355.9991" y="559.4461">SampleType</text><line style="stroke:#A80036;stroke-width:0.8999999999999999;" x1="339.1991" x2="398.5991" y1="566.1" y2="566.1"/><line style="stroke:#A80036;stroke-width:0.8999999999999999;" x1="339.1991" x2="398.5991" y1="570.9" y2="570.9"/><!--MD5=[7d96fd15f3014691d2fcaf89c5791e2a]
class SpecialistDoctor--><rect codeLine="83" fill="#FEFECE" filter="url(#fo0wks60q9ezi)" height="37.1016" id="SpecialistDoctor" style="stroke:#A80036;stroke-width:0.8999999999999999;" width="73.2" x="626.8991" y="188.7"/><ellipse cx="635.8991" cy="198.3" fill="#ADD1B2" rx="6.6" ry="6.6" style="stroke:#A80036;stroke-width:0.6;"/><path d="M637.0991,196.2 Q637.221,195.9 637.3616,195.75 Q637.5022,195.6 637.6616,195.6 Q637.9429,195.6 638.121,195.7687 Q638.2991,195.9375 638.2991,196.3312 L638.2991,197.2687 Q638.2991,197.6625 638.1304,197.8312 Q637.9616,198 637.6991,198 Q637.4647,198 637.3147,197.8969 Q637.1647,197.7938 637.0991,197.5219 Q637.071,197.3344 636.9679,197.2313 Q636.7804,197.0344 636.4429,196.9219 Q636.1054,196.8 635.7679,196.8 Q635.346,196.8 634.9897,196.9688 Q634.6429,197.1375 634.371,197.5125 Q634.0991,197.8875 634.0991,198.4031 L634.0991,198.9562 Q634.0991,199.575 634.6054,199.9875 Q635.1116,200.4 636.0116,200.4 Q636.546,200.4 636.921,200.2781 Q637.1366,200.2125 637.3804,199.9969 Q637.5397,199.875 637.6241,199.8375 Q637.7085,199.8 637.8116,199.8 Q638.0085,199.8 638.1491,199.9594 Q638.2991,200.1094 638.2991,200.325 Q638.2991,200.5313 638.0929,200.775 Q637.7929,201.1313 637.3147,201.3281 Q636.6866,201.6 635.9179,201.6 Q635.0179,201.6 634.296,201.2438 Q633.7147,200.9625 633.3022,200.3531 Q632.8991,199.7438 632.8991,199.0219 L632.8991,198.3656 Q632.8991,197.6156 633.2554,196.9594 Q633.621,196.3031 634.2491,195.9562 Q634.8866,195.6 635.5991,195.6 Q636.0304,195.6 636.4054,195.75 Q636.7804,195.9 637.0991,196.2 Z " fill="#000000"/><text fill="#000000" font-family="sans-serif" font-size="7.2" lengthAdjust="spacing" textLength="54" x="644.2991" y="201.2461">SpecialistDoctor</text><line style="stroke:#A80036;stroke-width:0.8999999999999999;" x1="627.4991" x2="699.4991" y1="207.9" y2="207.9"/><text fill="#000000" font-family="sans-serif" font-size="6.6" lengthAdjust="spacing" textLength="58.8" x="630.4991" y="217.1514">-doctorIndexNumber</text><line style="stroke:#A80036;stroke-width:0.8999999999999999;" x1="627.4991" x2="699.4991" y1="221.0016" y2="221.0016"/><!--MD5=[7d17329589c8a1a28e6f8826215bde21]
link Administrator to Category--><path codeLine="87" d="M146.2991,1099.872 C146.2991,1114.236 146.2991,1137.042 146.2991,1154.88 " fill="none" id="Administrator-Category" style="stroke:#A80036;stroke-width:0.6;"/><polygon fill="#000000" points="149.2991,1128.7055,147.5358,1134.1325,151.0625,1134.1325,149.2991,1128.7055" style="stroke:#000000;stroke-width:0.6;"/><text fill="#000000" font-family="sans-serif" font-size="7.8" lengthAdjust="spacing" textLength="36.6" x="154.6991" y="1134.8971">created by</text><text fill="#000000" font-family="sans-serif" font-size="7.8" lengthAdjust="spacing" textLength="4.2" x="141.5872" y="1112.6923">1</text><text fill="#000000" font-family="sans-serif" font-size="7.8" lengthAdjust="spacing" textLength="3" x="143.0694" y="1148.5281">*</text><!--MD5=[47855ee4dabeea37c5949a17ed9e3a41]
link ChemicalLaboratory to Sample--><path codeLine="88" d="M569.7311,330.618 C563.3591,360.834 554.2751,408.654 550.6991,450.6 C545.1971,515.166 576.0971,536.532 551.2991,596.4 C531.0371,645.318 468.6671,670.536 433.4231,681.192 " fill="none" id="ChemicalLaboratory-Sample" style="stroke:#A80036;stroke-width:0.6;"/><polygon fill="#000000" points="552.612,467.9016,556.2221,463.4824,552.9351,462.2044,552.612,467.9016" style="stroke:#000000;stroke-width:0.6;"/><text fill="#000000" font-family="sans-serif" font-size="7.8" lengthAdjust="spacing" textLength="31.2" x="559.0991" y="468.2971">analyses</text><text fill="#000000" font-family="sans-serif" font-size="7.8" lengthAdjust="spacing" textLength="4.2" x="564.284" y="343.7382">1</text><text fill="#000000" font-family="sans-serif" font-size="7.8" lengthAdjust="spacing" textLength="3" x="438.1299" y="677.6309">*</text><!--MD5=[0bde84c484199f8c429a86e32cc6847f]
link Client to LabOrder--><path codeLine="89" d="M454.3751,1015.92 C457.5431,1032.054 460.9391,1049.346 463.5311,1062.57 " fill="none" id="Client-LabOrder" style="stroke:#A80036;stroke-width:0.6;"/><polygon fill="#000000" points="463.0769,1042.2493,463.762,1036.5842,460.3013,1037.2635,463.0769,1042.2493" style="stroke:#000000;stroke-width:0.6;"/><text fill="#000000" font-family="sans-serif" font-size="7.8" lengthAdjust="spacing" textLength="19.2" x="467.8991" y="1042.4971">has a</text><text fill="#000000" font-family="sans-serif" font-size="7.8" lengthAdjust="spacing" textLength="4.2" x="450.7918" y="1028.5562">1</text><text fill="#000000" font-family="sans-serif" font-size="7.8" lengthAdjust="spacing" textLength="3" x="459.4492" y="1056.0104">*</text><!--MD5=[6f5a8b15e66799c0d601e2bda0c1caed]
link ClinicalAnalysisLaboratory to Sample--><path codeLine="90" d="M228.2351,596.418 C233.1431,612.66 241.3571,631.08 254.8991,643.2 C291.3011,675.786 350.2511,684.552 383.5391,686.85 " fill="none" id="ClinicalAnalysisLaboratory-Sample" style="stroke:#A80036;stroke-width:0.6;"/><polygon fill="#000000" points="260.4916,630.4151,256.689,626.1603,254.9144,629.208,260.4916,630.4151" style="stroke:#000000;stroke-width:0.6;"/><text fill="#000000" font-family="sans-serif" font-size="7.8" lengthAdjust="spacing" textLength="27" x="263.2991" y="632.0971">collects</text><text fill="#000000" font-family="sans-serif" font-size="7.8" lengthAdjust="spacing" textLength="4.2" x="224.6245" y="609.3864">1</text><text fill="#000000" font-family="sans-serif" font-size="7.8" lengthAdjust="spacing" textLength="3" x="375.8259" y="684.2967">*</text><!--MD5=[2eb961b30663a01bbfd8b4b9b8950031]
link ClinicalAnalysisLaboratory to TestType--><path codeLine="91" d="M221.2991,596.484 C221.2991,679.338 221.2991,886.956 221.2991,949.434 " fill="none" id="ClinicalAnalysisLaboratory-TestType" style="stroke:#A80036;stroke-width:0.6;"/><polygon fill="#000000" points="224.2991,741.7055,226.0625,736.2784,222.5358,736.2784,224.2991,741.7055" style="stroke:#000000;stroke-width:0.6;"/><text fill="#000000" font-family="sans-serif" font-size="7.8" lengthAdjust="spacing" textLength="30" x="229.6991" y="741.8971">performs</text><text fill="#000000" font-family="sans-serif" font-size="7.8" lengthAdjust="spacing" textLength="4.2" x="216.8432" y="609.4604">1</text><text fill="#000000" font-family="sans-serif" font-size="7.8" lengthAdjust="spacing" textLength="3" x="217.9897" y="943.1231">*</text><!--MD5=[98994e1502641fa381021dffe882d56a]
link ClinicalChemistryTechnologist to Sample--><path codeLine="92" d="M472.5191,575.832 C460.7651,596.352 438.5831,635.076 423.6731,661.11 " fill="none" id="ClinicalChemistryTechnologist-Sample" style="stroke:#A80036;stroke-width:0.6;"/><polygon fill="#000000" points="453.1902,626.3023,448.9627,630.1351,452.0229,631.8879,453.1902,626.3023" style="stroke:#000000;stroke-width:0.6;"/><text fill="#000000" font-family="sans-serif" font-size="7.8" lengthAdjust="spacing" textLength="42" x="457.0991" y="632.0971">analysed by</text><text fill="#000000" font-family="sans-serif" font-size="7.8" lengthAdjust="spacing" textLength="4.2" x="465.8621" y="588.667">1</text><text fill="#000000" font-family="sans-serif" font-size="7.8" lengthAdjust="spacing" textLength="3" x="422.7669" y="654.7627">*</text><!--MD5=[742a261f27a3dcd734c626287d811acd]
link Company to TestType--><path codeLine="93" d="M150.1451,107.856 C113.6291,122.328 50.8991,154.758 50.8991,206.7 C50.8991,206.7 50.8991,206.7 50.8991,739.2 C50.8991,835.398 149.2631,917.202 196.5191,950.958 " fill="none" id="Company-TestType" style="stroke:#A80036;stroke-width:0.6;"/><polygon fill="#000000" points="54.0639,505.9009,55.5265,500.3852,52.0051,500.5789,54.0639,505.9009" style="stroke:#000000;stroke-width:0.6;"/><text fill="#000000" font-family="sans-serif" font-size="7.8" lengthAdjust="spacing" textLength="31.8" x="59.2991" y="506.0971">conducts</text><text fill="#000000" font-family="sans-serif" font-size="7.8" lengthAdjust="spacing" textLength="4.2" x="141.1921" y="118.4299">1</text><text fill="#000000" font-family="sans-serif" font-size="7.8" lengthAdjust="spacing" textLength="3" x="188.838" y="945.5742">*</text><!--MD5=[cc1f60f7fb1c702a98cbcc58aaecd7da]
link Company to Category--><path codeLine="94" d="M150.0911,103.278 C103.2011,112.728 8.2991,140.088 8.2991,206.7 C8.2991,206.7 8.2991,206.7 8.2991,1086 C8.2991,1140.612 82.3271,1166.4 121.9451,1176.294 " fill="none" id="Company-Category" style="stroke:#A80036;stroke-width:0.6;"/><polygon fill="#000000" points="11.2204,631.9044,13.1255,626.5255,9.6,626.433,11.2204,631.9044" style="stroke:#000000;stroke-width:0.6;"/><text fill="#000000" font-family="sans-serif" font-size="7.8" lengthAdjust="spacing" textLength="12.6" x="16.6991" y="632.0971">has</text><text fill="#000000" font-family="sans-serif" font-size="7.8" lengthAdjust="spacing" textLength="4.2" x="141.1288" y="101.8151">1</text><text fill="#000000" font-family="sans-serif" font-size="7.8" lengthAdjust="spacing" textLength="3" x="114.1783" y="1172.9007">*</text><!--MD5=[aafc5d8a5829a6a8d6dc892cb1ff5d24]
link Company to ClinicalAnalysisLaboratory--><path codeLine="95" d="M166.4831,117.156 C144.5411,162.78 92.9951,285.75 119.8991,385.8 C134.1851,438.93 168.9911,492.57 193.8371,526.176 " fill="none" id="Company-ClinicalAnalysisLaboratory" style="stroke:#A80036;stroke-width:0.6;"/><polygon fill="#000000" points="123.0993,370.2988,124.4966,364.7662,120.9777,365.0015,123.0993,370.2988" style="stroke:#000000;stroke-width:0.6;"/><text fill="#000000" font-family="sans-serif" font-size="7.8" lengthAdjust="spacing" textLength="18" x="128.2991" y="370.4971">owns</text><text fill="#000000" font-family="sans-serif" font-size="7.8" lengthAdjust="spacing" textLength="4.2" x="160.126" y="129.7729">1</text><text fill="#000000" font-family="sans-serif" font-size="7.8" lengthAdjust="spacing" textLength="3" x="187.1264" y="519.5644">*</text><!--MD5=[d6a5ae732362cd0f86c2003645f951b1]
link Company to ChemicalLaboratory--><path codeLine="96" d="M201.3731,102.576 C245.8271,109.518 339.1571,127.452 409.6991,163.8 C463.2311,191.382 515.6051,238.014 546.9731,268.68 " fill="none" id="Company-ChemicalLaboratory" style="stroke:#A80036;stroke-width:0.6;"/><polygon fill="#000000" points="372.203,141.805,368.0755,137.8648,366.5477,141.0434,372.203,141.805" style="stroke:#000000;stroke-width:0.6;"/><text fill="#000000" font-family="sans-serif" font-size="7.8" lengthAdjust="spacing" textLength="18" x="374.8991" y="143.6971">owns</text><text fill="#000000" font-family="sans-serif" font-size="7.8" lengthAdjust="spacing" textLength="4.2" x="205.9732" y="100.9953">1</text><text fill="#000000" font-family="sans-serif" font-size="7.8" lengthAdjust="spacing" textLength="4.2" x="538.5234" y="262.3641">1</text><!--MD5=[15b96e4919f31c1f6d0b47c59fe8e2bf]
link Diagnosis to LaboratoryCoordinator--><path codeLine="97" d="M663.2771,479.442 C662.1791,487.884 661.6511,498.816 664.0991,508.2 C667.7891,522.354 676.2371,536.724 683.1371,546.846 " fill="none" id="Diagnosis-LaboratoryCoordinator" style="stroke:#A80036;stroke-width:0.6;"/><polygon fill="#000000" points="667.947,505.7832,668.1046,500.079,664.7217,501.0757,667.947,505.7832" style="stroke:#000000;stroke-width:0.6;"/><text fill="#000000" font-family="sans-serif" font-size="7.8" lengthAdjust="spacing" textLength="40.8" x="672.4991" y="506.0971">validated by</text><text fill="#000000" font-family="sans-serif" font-size="7.8" lengthAdjust="spacing" textLength="3" x="659.2724" y="492.255">*</text><text fill="#000000" font-family="sans-serif" font-size="7.8" lengthAdjust="spacing" textLength="4.2" x="675.7437" y="540.4363">1</text><!--MD5=[fd5f5b962c28af1c88b5bc5c4cfdb2d8]
link Diagnosis to SpecialistDoctor--><path codeLine="98" d="M660.8351,450.438 C655.4891,434.904 647.4191,408.942 644.2991,385.8 C636.4511,327.612 650.6531,258.378 658.6271,226.122 " fill="none" id="Diagnosis-SpecialistDoctor" style="stroke:#A80036;stroke-width:0.6;"/><polygon fill="#000000" points="647.3286,370.3053,649.0385,364.8612,645.5119,364.8959,647.3286,370.3053" style="stroke:#000000;stroke-width:0.6;"/><text fill="#000000" font-family="sans-serif" font-size="7.8" lengthAdjust="spacing" textLength="34.2" x="652.6991" y="370.4971">generates</text><text fill="#000000" font-family="sans-serif" font-size="7.8" lengthAdjust="spacing" textLength="3" x="656.1531" y="444.0006">*</text><text fill="#000000" font-family="sans-serif" font-size="7.8" lengthAdjust="spacing" textLength="4.2" x="653.0981" y="238.7515">1</text><!--MD5=[0a29b4543c1af9e8341b856b8b8ec05c]
link MedicalLabTechnician to Sample--><path codeLine="99" d="M318.9491,432.81 C313.9751,463.692 305.3351,539.376 328.0991,596.4 C339.6011,625.218 364.4051,651.012 383.4431,667.752 " fill="none" id="MedicalLabTechnician-Sample" style="stroke:#A80036;stroke-width:0.6;"/><polygon fill="#000000" points="315.305,500.0125,315.0411,505.7127,318.442,504.7791,315.305,500.0125" style="stroke:#000000;stroke-width:0.6;"/><text fill="#000000" font-family="sans-serif" font-size="7.8" lengthAdjust="spacing" textLength="42" x="321.4991" y="506.0971">collected by</text><text fill="#000000" font-family="sans-serif" font-size="7.8" lengthAdjust="spacing" textLength="4.2" x="313.6738" y="445.42">1</text><text fill="#000000" font-family="sans-serif" font-size="7.8" lengthAdjust="spacing" textLength="3" x="375.8788" y="661.9531">*</text><!--MD5=[19be1708881710afac89d72e827851dc]
link NHS to Company--><path codeLine="100" d="M175.6991,33.072 C175.6991,46.026 175.6991,65.448 175.6991,79.638 " fill="none" id="NHS-Company" style="stroke:#A80036;stroke-width:0.6;"/><polygon fill="#000000" points="178.6991,59.5055,180.4625,54.0784,176.9358,54.0784,178.6991,59.5055" style="stroke:#000000;stroke-width:0.6;"/><text fill="#000000" font-family="sans-serif" font-size="7.8" lengthAdjust="spacing" textLength="61.2" x="184.0991" y="59.6971">requests report to</text><text fill="#000000" font-family="sans-serif" font-size="7.8" lengthAdjust="spacing" textLength="4.2" x="170.9872" y="45.8923">1</text><text fill="#000000" font-family="sans-serif" font-size="7.8" lengthAdjust="spacing" textLength="4.2" x="171.066" y="73.3073">1</text><!--MD5=[852f3a1b1bcfc6074ebcba484562eac0]
link Parameter to Category--><path codeLine="101" d="M561.9491,1093.464 C545.2571,1097.958 523.4051,1103.664 503.8991,1108.2 C379.2131,1137.186 228.6491,1166.004 170.6771,1176.87 " fill="none" id="Parameter-Category" style="stroke:#A80036;stroke-width:0.6;"/><polygon fill="#000000" points="415.765,1132.3309,421.4405,1132.9241,420.7052,1129.4749,415.765,1132.3309" style="stroke:#000000;stroke-width:0.6;"/><text fill="#000000" font-family="sans-serif" font-size="7.8" lengthAdjust="spacing" textLength="55.8" x="424.0991" y="1134.8971">presented under</text><text fill="#000000" font-family="sans-serif" font-size="7.8" lengthAdjust="spacing" textLength="3" x="554.383" y="1092.5059">*</text><text fill="#000000" font-family="sans-serif" font-size="7.8" lengthAdjust="spacing" textLength="4.2" x="175.3935" y="1173.6434">1</text><!--MD5=[15b2848963e3cb1b607833a8179862c1]
link ParameterResult to Parameter--><path codeLine="102" d="M862.3571,643.254 C890.2691,661.2 932.2991,695.322 932.2991,738 C932.2991,738 932.2991,738 932.2991,968.7 C932.2991,1035.294 697.4891,1071.156 616.3151,1081.56 " fill="none" id="ParameterResult-Parameter" style="stroke:#A80036;stroke-width:0.6;"/><polygon fill="#000000" points="933.8306,820.5215,938.0248,816.6522,934.9495,814.9259,933.8306,820.5215" style="stroke:#000000;stroke-width:0.6;"/><text fill="#000000" font-family="sans-serif" font-size="7.8" lengthAdjust="spacing" textLength="46.8" x="940.6991" y="821.0971">associated to</text><text fill="#000000" font-family="sans-serif" font-size="7.8" lengthAdjust="spacing" textLength="4.2" x="863.5581" y="656.0699">1</text><text fill="#000000" font-family="sans-serif" font-size="7.8" lengthAdjust="spacing" textLength="4.2" x="620.9873" y="1078.7047">1</text><!--MD5=[6a35157f4c730bda767e7c9f1b8b7f73]
link Receptionist to Client--><path codeLine="103" d="M571.8251,693.024 C530.5751,699.432 460.3511,713.046 445.0991,733.2 C404.5391,786.804 416.3411,868.83 429.8111,920.256 " fill="none" id="Receptionist-Client" style="stroke:#A80036;stroke-width:0.6;"/><polygon fill="#000000" points="429.7092,820.4495,434.0807,816.7819,431.0901,814.9128,429.7092,820.4495" style="stroke:#000000;stroke-width:0.6;"/><text fill="#000000" font-family="sans-serif" font-size="7.8" lengthAdjust="spacing" textLength="30" x="436.6991" y="821.0971">registers</text><text fill="#000000" font-family="sans-serif" font-size="7.8" lengthAdjust="spacing" textLength="4.2" x="563.0444" y="691.5393">1</text><text fill="#000000" font-family="sans-serif" font-size="7.8" lengthAdjust="spacing" textLength="3" x="425.2635" y="913.9183">*</text><!--MD5=[e8b34c2e6517a986175307f5599f058a]
link Receptionist to Test--><path codeLine="104" d="M596.6711,702.744 C592.0751,713.97 585.3071,730.104 578.8991,744 C576.2231,749.808 573.3551,755.832 570.4451,761.82 " fill="none" id="Receptionist-Test" style="stroke:#A80036;stroke-width:0.6;"/><polygon fill="#000000" points="584.8819,741.4474,588.6956,737.2027,585.4722,735.7717,584.8819,741.4474" style="stroke:#000000;stroke-width:0.6;"/><text fill="#000000" font-family="sans-serif" font-size="7.8" lengthAdjust="spacing" textLength="30" x="591.4991" y="741.8971">registers</text><text fill="#000000" font-family="sans-serif" font-size="7.8" lengthAdjust="spacing" textLength="4.2" x="590.5874" y="715.5819">1</text><text fill="#000000" font-family="sans-serif" font-size="7.8" lengthAdjust="spacing" textLength="3" x="569.5685" y="755.4735">*</text><!--MD5=[9ea131e34883d590a1cfd41d17f43241]
link Report to Diagnosis--><path codeLine="105" d="M697.8611,380.706 C689.8211,386.742 681.3251,394.632 676.0991,403.8 C667.8611,418.26 665.8751,437.598 665.5811,450.504 " fill="none" id="Report-Diagnosis" style="stroke:#A80036;stroke-width:0.6;"/><polygon fill="#000000" points="677.8398,421.0284,681.7184,416.8428,678.5174,415.3624,677.8398,421.0284" style="stroke:#000000;stroke-width:0.6;"/><text fill="#000000" font-family="sans-serif" font-size="7.8" lengthAdjust="spacing" textLength="29.4" x="684.4991" y="421.4971">contains</text><text fill="#000000" font-family="sans-serif" font-size="7.8" lengthAdjust="spacing" textLength="4.2" x="688.9301" y="381.0306">1</text><text fill="#000000" font-family="sans-serif" font-size="7.8" lengthAdjust="spacing" textLength="4.2" x="660.7615" y="444.0835">1</text><!--MD5=[0e54f9b161a60743d9b464e5484a1c06]
link Report to TestResult--><path codeLine="106" d="M718.0091,386.076 C718.3031,399.786 720.4751,418.53 728.8991,432.6 C733.1291,439.662 739.5731,445.692 746.1551,450.534 " fill="none" id="Report-TestResult" style="stroke:#A80036;stroke-width:0.6;"/><polygon fill="#000000" points="733.0996,421.0548,732.5439,415.3756,729.3119,416.7869,733.0996,421.0548" style="stroke:#000000;stroke-width:0.6;"/><text fill="#000000" font-family="sans-serif" font-size="7.8" lengthAdjust="spacing" textLength="46.8" x="737.2991" y="421.4971">associated to</text><text fill="#000000" font-family="sans-serif" font-size="7.8" lengthAdjust="spacing" textLength="4.2" x="713.2947" y="398.5669">1</text><text fill="#000000" font-family="sans-serif" font-size="7.8" lengthAdjust="spacing" textLength="4.2" x="735.0763" y="444.1212">1</text><!--MD5=[a23f50aea1fcb140948e132a9bfce5a1]
link Sample to Client--><path codeLine="107" d="M383.4851,709.74 C369.5771,723.072 353.6051,741.63 346.0991,762 C328.9511,808.542 326.5151,828.03 346.0991,873.6 C361.0631,908.424 395.9951,936.396 420.0911,952.482 " fill="none" id="Sample-Client" style="stroke:#A80036;stroke-width:0.6;"/><polygon fill="#000000" points="349.5465,820.8719,350.4808,815.2426,346.9936,815.7685,349.5465,820.8719" style="stroke:#000000;stroke-width:0.6;"/><text fill="#000000" font-family="sans-serif" font-size="7.8" lengthAdjust="spacing" textLength="46.8" x="354.4991" y="821.0971">associated to</text><text fill="#000000" font-family="sans-serif" font-size="7.8" lengthAdjust="spacing" textLength="3" x="375.7623" y="711.264">*</text><text fill="#000000" font-family="sans-serif" font-size="7.8" lengthAdjust="spacing" textLength="4.2" x="411.2319" y="947.504">1</text><!--MD5=[1ae83efc6d1967ce5bc17dfe294d00c2]
link Sample to Test--><path codeLine="108" d="M432.7631,715.338 C441.4211,724.572 451.3451,734.886 460.6991,744 C474.1271,757.08 489.3011,770.934 502.8911,783.024 " fill="none" id="Sample-Test" style="stroke:#A80036;stroke-width:0.6;"/><polygon fill="#000000" points="465.8577,740.7889,463.1774,735.7512,460.7282,738.2887,465.8577,740.7889" style="stroke:#000000;stroke-width:0.6;"/><text fill="#000000" font-family="sans-serif" font-size="7.8" lengthAdjust="spacing" textLength="46.8" x="469.0991" y="741.8971">associated to</text><text fill="#000000" font-family="sans-serif" font-size="7.8" lengthAdjust="spacing" textLength="3" x="432.822" y="727.7608">*</text><text fill="#000000" font-family="sans-serif" font-size="7.8" lengthAdjust="spacing" textLength="4.2" x="493.8917" y="776.9448">1</text><!--MD5=[b72ac8ab7fb5921fceb5036a3902baea]
link Test to Sample--><path codeLine="117" d="M534.6791,761.982 C531.1991,751.518 526.1711,741.324 518.8991,733.2 C496.6511,708.342 458.5331,697.176 433.4291,692.322 " fill="none" id="Test-Sample" style="stroke:#A80036;stroke-width:0.6;"/><polygon fill="#000000" points="526.0276,737.005,529.4991,741.5339,531.4981,738.6284,526.0276,737.005" style="stroke:#000000;stroke-width:0.6;"/><text fill="#000000" font-family="sans-serif" font-size="7.8" lengthAdjust="spacing" textLength="27" x="533.8991" y="741.8971">collects</text><text fill="#000000" font-family="sans-serif" font-size="7.8" lengthAdjust="spacing" textLength="4.2" x="529.6742" y="755.4589">1</text><text fill="#000000" font-family="sans-serif" font-size="7.8" lengthAdjust="spacing" textLength="3" x="438.137" y="690.7434">*</text><!--MD5=[25a58075d12b4e24c3095e04bee16a0d]
link SampleType to Sample--><path codeLine="109" d="M373.2911,575.832 C379.7531,596.352 391.9511,635.076 400.1531,661.11 " fill="none" id="SampleType-Sample" style="stroke:#A80036;stroke-width:0.6;"/><polygon fill="#000000" points="394.9978,626.0441,394.9464,631.7502,398.3102,630.6906,394.9978,626.0441" style="stroke:#000000;stroke-width:0.6;"/><text fill="#000000" font-family="sans-serif" font-size="7.8" lengthAdjust="spacing" textLength="14.4" x="401.2991" y="632.0971">is of</text><text fill="#000000" font-family="sans-serif" font-size="7.8" lengthAdjust="spacing" textLength="4.2" x="369.6498" y="588.667">1</text><text fill="#000000" font-family="sans-serif" font-size="7.8" lengthAdjust="spacing" textLength="4.2" x="394.3536" y="654.7627">1</text><!--MD5=[35c5d5b78cc27fdb07caaeeaa436e174]
link SpecialistDoctor to Report--><path codeLine="110" d="M669.7751,225.948 C680.4011,256.494 701.8031,318.03 712.4291,348.564 " fill="none" id="SpecialistDoctor-Report" style="stroke:#A80036;stroke-width:0.6;"/><polygon fill="#000000" points="708.8848,302.6389,708.7672,296.9338,705.4362,298.0925,708.8848,302.6389" style="stroke:#000000;stroke-width:0.6;"/><text fill="#000000" font-family="sans-serif" font-size="7.8" lengthAdjust="spacing" textLength="34.2" x="713.2991" y="302.9971">generates</text><text fill="#000000" font-family="sans-serif" font-size="7.8" lengthAdjust="spacing" textLength="4.2" x="666.3973" y="238.6918">1</text><text fill="#000000" font-family="sans-serif" font-size="7.8" lengthAdjust="spacing" textLength="3" x="707.7294" y="341.9683">*</text><!--MD5=[3994f36c72829dbcddd1cf7021dddf61]
link Test to Client--><path codeLine="111" d="M502.9091,845.124 C487.5011,857.52 471.0731,873.528 460.6991,891.6 C455.7071,900.294 452.3051,910.35 449.9771,920.25 " fill="none" id="Test-Client" style="stroke:#A80036;stroke-width:0.6;"/><polygon fill="#000000" points="461.9712,899.5579,466.5385,896.1371,463.6555,894.1058,461.9712,899.5579" style="stroke:#000000;stroke-width:0.6;"/><text fill="#000000" font-family="sans-serif" font-size="7.8" lengthAdjust="spacing" textLength="45" x="469.0991" y="900.2971">requested by</text><text fill="#000000" font-family="sans-serif" font-size="7.8" lengthAdjust="spacing" textLength="3" x="495.1812" y="846.2251">*</text><text fill="#000000" font-family="sans-serif" font-size="7.8" lengthAdjust="spacing" textLength="4.2" x="446.0332" y="913.9118">1</text><!--MD5=[7e4bc624457760b649895ff2ead938fa]
link Company to Test--><path codeLine="112" d="M201.3191,100.104 C328.9211,105.936 889.6991,135.6 889.6991,206.7 C889.6991,206.7 889.6991,206.7 889.6991,688.8 C889.6991,753.864 672.5951,796.302 581.6411,811.224 " fill="none" id="Company-Test" style="stroke:#A80036;stroke-width:0.6;"/><polygon fill="#000000" points="894.1139,467.7509,893.1094,462.1337,889.9995,463.7969,894.1139,467.7509" style="stroke:#000000;stroke-width:0.6;"/><text fill="#000000" font-family="sans-serif" font-size="7.8" lengthAdjust="spacing" textLength="30" x="898.0991" y="468.2971">performs</text><text fill="#000000" font-family="sans-serif" font-size="7.8" lengthAdjust="spacing" textLength="4.2" x="206.0835" y="98.0955">1</text><text fill="#000000" font-family="sans-serif" font-size="7.8" lengthAdjust="spacing" textLength="3" x="586.3635" y="808.4054">*</text><!--MD5=[c23963f6e403fc3ebec8dae22c30ade6]
link Test to Parameter--><path codeLine="113" d="M560.1791,873.822 C564.4931,888.81 568.7111,905.118 571.6991,920.4 C581.9651,972.936 586.5071,1036.176 588.2171,1066.644 " fill="none" id="Test-Parameter" style="stroke:#A80036;stroke-width:0.6;"/><polygon fill="#000000" points="587.7308,971.1742,588.6949,965.5499,585.2049,966.0574,587.7308,971.1742" style="stroke:#000000;stroke-width:0.6;"/><text fill="#000000" font-family="sans-serif" font-size="7.8" lengthAdjust="spacing" textLength="69.6" x="592.6991" y="971.3971">requests analysis of</text><text fill="#000000" font-family="sans-serif" font-size="7.8" lengthAdjust="spacing" textLength="3" x="558.4844" y="886.7656">*</text><text fill="#000000" font-family="sans-serif" font-size="7.8" lengthAdjust="spacing" textLength="12" x="574.7977" y="1060.3145">1..*</text><!--MD5=[7ae31b06ecb5db678e40497ee74dd179]
link Test to LabOrder--><path codeLine="114" d="M535.3811,873.618 C528.3011,920.382 515.0711,988.56 492.4991,1044.6 C490.0511,1050.672 486.7331,1056.876 483.3251,1062.534 " fill="none" id="Test-LabOrder" style="stroke:#A80036;stroke-width:0.6;"/><polygon fill="#000000" points="528.9022,971.0977,532.0439,966.3341,528.6439,965.3972,528.9022,971.0977" style="stroke:#000000;stroke-width:0.6;"/><text fill="#000000" font-family="sans-serif" font-size="7.8" lengthAdjust="spacing" textLength="27.6" x="535.0991" y="971.3971">requires</text><text fill="#000000" font-family="sans-serif" font-size="7.8" lengthAdjust="spacing" textLength="4.2" x="530.4343" y="886.7348">1</text><text fill="#000000" font-family="sans-serif" font-size="7.8" lengthAdjust="spacing" textLength="4.2" x="481.4988" y="1056.1394">1</text><!--MD5=[e981d4f96c4342412d1e68160b30cf70]
link Test to TestType--><path codeLine="115" d="M502.9691,852.444 C493.0931,860.022 482.2391,867.582 471.4991,873.6 C461.1371,879.402 307.3031,935.988 246.1211,958.416 " fill="none" id="Test-TestType" style="stroke:#A80036;stroke-width:0.6;"/><polygon fill="#000000" points="423.7259,898.2497,429.4152,897.8099,428.0702,894.5497,423.7259,898.2497" style="stroke:#000000;stroke-width:0.6;"/><text fill="#000000" font-family="sans-serif" font-size="7.8" lengthAdjust="spacing" textLength="14.4" x="431.8991" y="900.2971">is of</text><text fill="#000000" font-family="sans-serif" font-size="7.8" lengthAdjust="spacing" textLength="3" x="495.2481" y="865.1015">*</text><text fill="#000000" font-family="sans-serif" font-size="7.8" lengthAdjust="spacing" textLength="4.2" x="250.7483" y="954.4502">1</text><!--MD5=[73dffd3648c374487b6d8c6733c5b5e0]
link Test to TestResult--><path codeLine="116" d="M581.7971,785.292 C596.4311,772.896 612.8711,758.262 626.8991,744 C686.9111,683.01 705.0791,668.916 750.4991,596.4 C773.3111,559.986 781.0991,550.218 790.0991,508.2 C791.1071,503.508 791.3891,502.026 790.0991,497.4 C788.3531,491.124 784.9931,484.854 781.5671,479.556 " fill="none" id="Test-TestResult" style="stroke:#A80036;stroke-width:0.6;"/><polygon fill="#000000" points="743.1401,626.3941,738.6954,629.9727,741.6477,631.9018,743.1401,626.3941" style="stroke:#000000;stroke-width:0.6;"/><text fill="#000000" font-family="sans-serif" font-size="7.8" lengthAdjust="spacing" textLength="19.2" x="746.8991" y="632.0971">has a</text><text fill="#000000" font-family="sans-serif" font-size="7.8" lengthAdjust="spacing" textLength="4.2" x="586.3469" y="779.7083">1</text><text fill="#000000" font-family="sans-serif" font-size="7.8" lengthAdjust="spacing" textLength="4.2" x="779.4556" y="492.3968">1</text><!--MD5=[39307a57e800e669e446a1017bb37a9f]
link TestResult to LaboratoryCoordinator--><path codeLine="118" d="M755.3351,479.424 C749.6111,484.812 743.2271,491.172 737.8991,497.4 C724.1951,513.414 710.5991,533.592 702.1391,546.804 " fill="none" id="TestResult-LaboratoryCoordinator" style="stroke:#A80036;stroke-width:0.6;"/><polygon fill="#000000" points="739.0401,505.2601,743.7871,502.0932,741.019,499.9079,739.0401,505.2601" style="stroke:#000000;stroke-width:0.6;"/><text fill="#000000" font-family="sans-serif" font-size="7.8" lengthAdjust="spacing" textLength="40.8" x="746.2991" y="506.0971">validated by</text><text fill="#000000" font-family="sans-serif" font-size="7.8" lengthAdjust="spacing" textLength="3" x="748.1758" y="492.2326">*</text><text fill="#000000" font-family="sans-serif" font-size="7.8" lengthAdjust="spacing" textLength="4.2" x="699.615" y="540.3835">1</text><!--MD5=[b68fa5675f8a531b49dc6f7e20370c4c]
link TestResult to SpecialistDoctor--><path codeLine="119" d="M779.7431,450.552 C782.6951,445.164 785.6111,438.804 787.0991,432.6 C790.0871,420.156 788.6831,416.502 787.0991,403.8 C779.4431,342.378 788.3771,319.518 752.8991,268.8 C739.7111,249.948 718.6751,235.194 700.3211,224.934 " fill="none" id="TestResult-SpecialistDoctor" style="stroke:#A80036;stroke-width:0.6;"/><polygon fill="#000000" points="786.703,364.4757,786.8417,370.1803,790.1683,369.0093,786.703,364.4757" style="stroke:#000000;stroke-width:0.6;"/><text fill="#000000" font-family="sans-serif" font-size="7.8" lengthAdjust="spacing" textLength="42" x="793.0991" y="370.4971">analysed by</text><text fill="#000000" font-family="sans-serif" font-size="7.8" lengthAdjust="spacing" textLength="3" x="778.625" y="444.1438">*</text><text fill="#000000" font-family="sans-serif" font-size="7.8" lengthAdjust="spacing" textLength="4.2" x="704.8215" y="224.9329">1</text><!--MD5=[c3eab042445b9f1143b07b00e4f65a8d]
link TestResult to ClinicalChemistryTechnologist--><path codeLine="120" d="M743.1911,471.246 C730.9091,473.748 716.2811,476.724 703.0991,479.4 C663.6371,487.416 652.5131,484.698 614.2991,497.4 C574.6751,510.576 531.4391,532.53 505.1471,546.81 " fill="none" id="TestResult-ClinicalChemistryTechnologist" style="stroke:#A80036;stroke-width:0.6;"/><polygon fill="#000000" points="620.1585,501.9978,614.4523,501.9591,615.5193,505.3205,620.1585,501.9978" style="stroke:#000000;stroke-width:0.6;"/><text fill="#000000" font-family="sans-serif" font-size="7.8" lengthAdjust="spacing" textLength="34.2" x="622.6991" y="506.0971">generates</text><text fill="#000000" font-family="sans-serif" font-size="7.8" lengthAdjust="spacing" textLength="3" x="735.5361" y="469.9903">*</text><text fill="#000000" font-family="sans-serif" font-size="7.8" lengthAdjust="spacing" textLength="4.2" x="506.725" y="540.391">1</text><!--MD5=[6351e58b5f8c8ec0a6ac945d352d6ad9]
link TestResult to ParameterResult--><path codeLine="121" d="M796.8251,479.496 C803.6111,484.314 810.2591,490.314 814.6991,497.4 C838.0391,534.636 839.5991,588.882 838.8731,614.208 " fill="none" id="TestResult-ParameterResult" style="stroke:#A80036;stroke-width:0.6;"/><polygon fill="#000000" points="823.393,505.7692,823.4592,500.0633,820.0927,501.1141,823.393,505.7692" style="stroke:#000000;stroke-width:0.6;"/><text fill="#000000" font-family="sans-serif" font-size="7.8" lengthAdjust="spacing" textLength="12.6" x="827.8991" y="506.0971">has</text><text fill="#000000" font-family="sans-serif" font-size="7.8" lengthAdjust="spacing" textLength="4.2" x="798.4327" y="492.3222">1</text><text fill="#000000" font-family="sans-serif" font-size="7.8" lengthAdjust="spacing" textLength="3" x="835.6961" y="608.004">*</text><!--MD5=[0985ee834cc881275852ed47ce1e01f6]
link TestType to Administrator--><path codeLine="122" d="M209.5811,986.838 C194.5451,1010.118 168.7871,1049.994 155.2331,1070.97 " fill="none" id="TestType-Administrator" style="stroke:#A80036;stroke-width:0.6;"/><polygon fill="#000000" points="178.8713,1041.8254,183.2972,1038.2236,180.3349,1036.31,178.8713,1041.8254" style="stroke:#000000;stroke-width:0.6;"/><text fill="#000000" font-family="sans-serif" font-size="7.8" lengthAdjust="spacing" textLength="36.6" x="185.8991" y="1042.4971">created by</text><text fill="#000000" font-family="sans-serif" font-size="7.8" lengthAdjust="spacing" textLength="3" x="204.0614" y="999.4515">*</text><text fill="#000000" font-family="sans-serif" font-size="7.8" lengthAdjust="spacing" textLength="4.2" x="152.7843" y="1064.5664">1</text><!--MD5=[5b7a9ded131023be416e27d15bcd6d77]
link TestType to Parameter--><path codeLine="123" d="M245.9291,975.114 C281.8511,984.414 350.7671,1002.03 409.6991,1015.8 C446.3711,1024.368 457.1231,1020.888 492.4991,1033.8 C516.9971,1042.74 543.0431,1056.786 561.9131,1067.88 " fill="none" id="TestType-Parameter" style="stroke:#A80036;stroke-width:0.6;"/><polygon fill="#000000" points="522.9776,1040.1505,518.2671,1036.9298,517.2736,1040.3137,522.9776,1040.1505" style="stroke:#000000;stroke-width:0.6;"/><text fill="#000000" font-family="sans-serif" font-size="7.8" lengthAdjust="spacing" textLength="12.6" x="525.4991" y="1042.4971">has</text><text fill="#000000" font-family="sans-serif" font-size="7.8" lengthAdjust="spacing" textLength="4.2" x="250.6904" y="974.033">1</text><text fill="#000000" font-family="sans-serif" font-size="7.8" lengthAdjust="spacing" textLength="12" x="545.2463" y="1063.2601">1..*</text><!--MD5=[f7fb1bbd8b4f4021e9754ae6fe2871a0]
reverse link Employee to Administrator--><path codeLine="124" d="M338.8031,244.26 C288.7031,299.934 197.1911,411.918 157.6991,526.2 C134.2091,594.168 146.2991,615.69 146.2991,687.6 C146.2991,687.6 146.2991,687.6 146.2991,968.7 C146.2991,1005.588 146.2991,1049.064 146.2991,1070.862 " fill="none" id="Employee-backto-Administrator" style="stroke:#A80036;stroke-width:0.6;"/><polygon fill="none" points="335.7371,241.392,346.9151,235.338,341.9531,247.038,335.7371,241.392" style="stroke:#A80036;stroke-width:0.6;"/><!--MD5=[8f7dd94d56b58fc07b233ccd3dd98f8c]
link Administrator to Employee--><path codeLine="131" d="M135.2291,1070.892 C119.7491,1049.994 93.4991,1008.666 93.4991,968.7 C93.4991,628.2 93.4991,628.2 93.4991,628.2 C93.4991,451.65 140.6651,396.378 262.6991,268.8 C286.4531,243.966 322.5971,226.686 346.9931,217.038 " fill="none" id="Administrator-Employee" style="stroke:#A80036;stroke-width:0.6;"/><polygon fill="#000000" points="97.8213,625.9937,94.8034,630.8367,98.2264,631.6856,97.8213,625.9937" style="stroke:#000000;stroke-width:0.6;"/><text fill="#000000" font-family="sans-serif" font-size="7.8" lengthAdjust="spacing" textLength="30" x="102.4991" y="632.0971">registers</text><text fill="#000000" font-family="sans-serif" font-size="7.8" lengthAdjust="spacing" textLength="4.2" x="127.6543" y="1064.4684">1</text><text fill="#000000" font-family="sans-serif" font-size="7.8" lengthAdjust="spacing" textLength="3" x="339.2483" y="216.4096">*</text><!--MD5=[4c7c52c4bf7e982cdae6fb6daeda4b43]
reverse link Employee to ClinicalChemistryTechnologist--><path codeLine="125" d="M389.6651,262.314 C415.0211,345.612 462.0251,500.01 476.2871,546.864 " fill="none" id="Employee-backto-ClinicalChemistryTechnologist" style="stroke:#A80036;stroke-width:0.6;"/><polygon fill="none" points="385.6391,263.508,386.1611,250.806,393.6731,261.066,385.6391,263.508" style="stroke:#A80036;stroke-width:0.6;"/><!--MD5=[8c76900db13228c02bafda6909b4bb57]
reverse link Employee to MedicalLabTechnician--><path codeLine="126" d="M359.6351,262.626 C347.9711,310.014 331.9151,375.276 324.9491,403.572 " fill="none" id="Employee-backto-MedicalLabTechnician" style="stroke:#A80036;stroke-width:0.6;"/><polygon fill="none" points="355.5851,261.492,362.5331,250.842,363.7451,263.496,355.5851,261.492" style="stroke:#A80036;stroke-width:0.6;"/><!--MD5=[7dae17bb55c59b06af656d7c83a51371]
reverse link Employee to LaboratoryCoordinator--><path codeLine="127" d="M407.1011,253.224 C510.8651,376.956 637.8131,505.242 679.5371,546.852 " fill="none" id="Employee-backto-LaboratoryCoordinator" style="stroke:#A80036;stroke-width:0.6;"/><polygon fill="none" points="403.8191,255.846,399.3551,243.942,410.2691,250.464,403.8191,255.846" style="stroke:#A80036;stroke-width:0.6;"/><!--MD5=[bfff716514ca687b645fe473c6e098a4]
reverse link Employee to Receptionist--><path codeLine="128" d="M409.5251,252.6 C430.5851,263.376 443.5271,255.342 462.4991,268.8 C477.5831,279.498 592.2551,447.486 593.2991,450.6 C620.4611,531.39 609.5831,636.486 604.4231,673.752 " fill="none" id="Employee-backto-Receptionist" style="stroke:#A80036;stroke-width:0.6;"/><polygon fill="none" points="407.1851,256.092,399.2231,246.18,411.6311,248.964,407.1851,256.092" style="stroke:#A80036;stroke-width:0.6;"/><!--MD5=[372bd27a178b4208a6d241b4516ac7e6]
reverse link Employee to SpecialistDoctor--><path codeLine="129" d="M411.6851,207.3 C483.4211,207.3 555.1511,207.3 626.8871,207.3 " fill="none" id="Employee-backto-SpecialistDoctor" style="stroke:#A80036;stroke-width:0.6;"/><polygon fill="none" points="411.4751,211.5,399.4751,207.3,411.4751,203.1,411.4751,211.5" style="stroke:#A80036;stroke-width:0.6;"/><!--MD5=[09366576ee87d48d594df10cacc83f45]
link Company to Employee--><path codeLine="130" d="M201.3011,112.968 C238.9631,133.518 308.9231,171.684 346.9091,192.414 " fill="none" id="Company-Employee" style="stroke:#A80036;stroke-width:0.6;"/><polygon fill="#000000" points="262.3326,141.9424,258.4131,137.7951,256.724,140.8909,262.3326,141.9424" style="stroke:#000000;stroke-width:0.6;"/><text fill="#000000" font-family="sans-serif" font-size="7.8" lengthAdjust="spacing" textLength="12.6" x="265.0991" y="143.6971">has</text><text fill="#000000" font-family="sans-serif" font-size="7.8" lengthAdjust="spacing" textLength="4.2" x="206.0624" y="113.1705">1</text><text fill="#000000" font-family="sans-serif" font-size="7.8" lengthAdjust="spacing" textLength="12" x="330.1812" y="188.0417">1..*</text><!--MD5=[6d6201fe123853ef0c49f3eedea27b17]
@startuml
skinparam classAttributeIconSize 0

class Administrator
class Category {
-code
-description
-nhsID
}
class ChemicalLaboratory {
-name
-address
-phoneNumber
-TIN
}
class Client {
-name
-cardNumber
-birthDate
-sex
-nhsID
-TIF
-phoneNumber
-email
}
class ClinicalAnalysisLaboratory {
-name
-address
-phoneNumber
-TIN
-laboratoryID
}
class ClinicalChemistryTechnologist
class Company {
-designation
}
class Diagnosis
class LabOrder {
-testType
-parameters
}
class Employee {
-employeeID
-organizationID
-name
-address
-phoneNumber
-email
-SOCcode
}
class LaboratoryCoordinator
class MedicalLabTechnician
class NHS
class Receptionist
class Test {
-internalCode
-nhsCode
-createdAt
-sampleCollectionMethod
-dateAnalysis
-timeAnalysis
-dateDiagnosis
-timeDiagnosis
-dateValidation
-timeValidation
}
class Parameter {
-designation
}
class ParameterResult
class Report {
-textBody
}
class TestResult
class TestType {
-designation
}
class Sample {
-barcode
-dateCollection
-timeCollection
}
class SampleType
class SpecialistDoctor {
-doctorIndexNumber
}

Administrator "1"- -"*" Category : created by <
ChemicalLaboratory "1"- -"*" Sample : analyses >
Client "1"- -"*" LabOrder : has a >
ClinicalAnalysisLaboratory "1"- -"*" Sample : collects >
ClinicalAnalysisLaboratory "1"- -"*" TestType : performs >
ClinicalChemistryTechnologist "1"- -"*" Sample : analysed by <
Company "1"-down-"*" TestType : conducts >
Company "1"-down-"*" Category : has >
Company "1"-down-"*" ClinicalAnalysisLaboratory : owns >
Company "1"-down-"1" ChemicalLaboratory : owns >
Diagnosis "*"- -"1" LaboratoryCoordinator : validated by >
Diagnosis "*"- -"1" SpecialistDoctor : generates <
MedicalLabTechnician "1"- -"*" Sample : collected by <
NHS "1"- -"1" Company : requests report to >
Parameter "*"- -"1" Category : presented under >
ParameterResult "1"- -"1" Parameter : associated to >
Receptionist "1"- -"*" Client : registers >
Receptionist "1"- -"*" Test : registers >
Report "1"- -"1" Diagnosis : contains >
Report "1"- -"1" TestResult : associated to >
Sample "*"- -"1" Client : associated to >
Sample "*"- -"1" Test : associated to >
SampleType "1"- -"1" Sample  : is of <
SpecialistDoctor "1"- -"*" Report : generates >
Test "*"- -"1" Client : requested by >
Test "*"-up-"1" Company : performs <
Test "*"- -"1..*" Parameter : requests analysis of >
Test "1"- -"1" LabOrder : requires >
Test "*"- -"1" "TestType" : is of >
Test "1"- -"1" TestResult : has a >
Test "1"- -"*" Sample : collects >
TestResult "*"- -"1" LaboratoryCoordinator : validated by >
TestResult "*"- -"1" SpecialistDoctor : analysed by >
TestResult "*"- -"1" ClinicalChemistryTechnologist : generates <
TestResult "1"- -"*" ParameterResult : has >
TestType "*"- -"1" Administrator : created by >
TestType "1"- -"1..*" Parameter : has >
Employee <|-down- Administrator
Employee <|-down- ClinicalChemistryTechnologist
Employee <|-down- MedicalLabTechnician
Employee <|-down- LaboratoryCoordinator
Employee <|-down- Receptionist
Employee <|-right- SpecialistDoctor
Company "1"- -"1..*" Employee : has >
Administrator "1"- -"*" Employee : registers >
@enduml

PlantUML version 1.2021.2(Sun Mar 07 11:10:27 GMT 2021)
(GPL source distribution)
Java Runtime: OpenJDK Runtime Environment
JVM: OpenJDK 64-Bit Server VM
Default Encoding: Cp1252
Language: pt
Country: PT
--></g></svg>