<?xml version="1.0" encoding="UTF-8" standalone="no"?><svg xmlns="http://www.w3.org/2000/svg" xmlns:xlink="http://www.w3.org/1999/xlink" contentScriptType="application/ecmascript" contentStyleType="text/css" height="547.5px" preserveAspectRatio="none" style="width:507px;height:547px;" version="1.1" viewBox="0 0 507 547" width="507.5px" zoomAndPan="magnify"><defs><filter height="300%" id="f17ao2lhr0ddql" width="300%" x="-1" y="-1"><feGaussianBlur result="blurOut" stdDeviation="2.5"/><feColorMatrix in="blurOut" result="blurOut2" type="matrix" values="0 0 0 0 0 0 0 0 0 0 0 0 0 0 0 0 0 0 .4 0"/><feOffset dx="5.0" dy="5.0" in="blurOut2" result="blurOut3"/><feBlend in="SourceGraphic" in2="blurOut3" mode="normal"/></filter></defs><g><line style="stroke:#A80036;stroke-width:1.25;stroke-dasharray:5.0,5.0;" x1="97.5" x2="97.5" y1="112.0117" y2="440.5273"/><line style="stroke:#A80036;stroke-width:1.25;stroke-dasharray:5.0,5.0;" x1="453.125" x2="453.125" y1="112.0117" y2="440.5273"/><text fill="#000000" font-family="sans-serif" font-size="17.5" lengthAdjust="spacing" textLength="176.25" x="6.25" y="108.1665">MedicalLabTechnician</text><ellipse cx="98.125" cy="18.75" fill="#FEFECE" filter="url(#f17ao2lhr0ddql)" rx="10" ry="10" style="stroke:#A80036;stroke-width:2.5;"/><path d="M98.125,28.75 L98.125,62.5 M81.875,38.75 L114.375,38.75 M98.125,62.5 L81.875,81.25 M98.125,62.5 L114.375,81.25 " fill="none" filter="url(#f17ao2lhr0ddql)" style="stroke:#A80036;stroke-width:2.5;"/><text fill="#000000" font-family="sans-serif" font-size="17.5" lengthAdjust="spacing" textLength="176.25" x="6.25" y="457.4438">MedicalLabTechnician</text><ellipse cx="98.125" cy="473.7891" fill="#FEFECE" filter="url(#f17ao2lhr0ddql)" rx="10" ry="10" style="stroke:#A80036;stroke-width:2.5;"/><path d="M98.125,483.7891 L98.125,517.5391 M81.875,493.7891 L114.375,493.7891 M98.125,517.5391 L81.875,536.2891 M98.125,517.5391 L114.375,536.2891 " fill="none" filter="url(#f17ao2lhr0ddql)" style="stroke:#A80036;stroke-width:2.5;"/><rect fill="#FEFECE" filter="url(#f17ao2lhr0ddql)" height="39.5117" style="stroke:#A80036;stroke-width:1.875;" width="80" x="410.625" y="66.25"/><text fill="#000000" font-family="sans-serif" font-size="17.5" lengthAdjust="spacing" textLength="62.5" x="419.375" y="93.1665">:System</text><rect fill="#FEFECE" filter="url(#f17ao2lhr0ddql)" height="39.5117" style="stroke:#A80036;stroke-width:1.875;" width="80" x="410.625" y="439.2773"/><text fill="#000000" font-family="sans-serif" font-size="17.5" lengthAdjust="spacing" textLength="62.5" x="419.375" y="466.1938">:System</text><polygon fill="#A80036" points="438.125,147.4512,450.625,152.4512,438.125,157.4512,443.125,152.4512" style="stroke:#A80036;stroke-width:1.25;"/><line style="stroke:#A80036;stroke-width:1.25;" x1="98.125" x2="445.625" y1="152.4512" y2="152.4512"/><text fill="#000000" font-family="sans-serif" font-size="16.25" font-weight="bold" lengthAdjust="spacing" textLength="8.75" x="106.875" y="146.3806">1</text><text fill="#000000" font-family="sans-serif" font-size="16.25" lengthAdjust="spacing" textLength="311.25" x="120.625" y="146.3806">requests to record new sample(s) collected</text><polygon fill="#A80036" points="111.875,185.3906,99.375,190.3906,111.875,195.3906,106.875,190.3906" style="stroke:#A80036;stroke-width:1.25;"/><line style="stroke:#A80036;stroke-width:1.25;stroke-dasharray:2.0,2.0;" x1="104.375" x2="451.875" y1="190.3906" y2="190.3906"/><text fill="#000000" font-family="sans-serif" font-size="16.25" font-weight="bold" lengthAdjust="spacing" textLength="8.75" x="119.375" y="184.3201">2</text><text fill="#000000" font-family="sans-serif" font-size="16.25" lengthAdjust="spacing" textLength="131.25" x="133.125" y="184.3201">requests test type</text><polygon fill="#A80036" points="438.125,223.3301,450.625,228.3301,438.125,233.3301,443.125,228.3301" style="stroke:#A80036;stroke-width:1.25;"/><line style="stroke:#A80036;stroke-width:1.25;" x1="98.125" x2="445.625" y1="228.3301" y2="228.3301"/><text fill="#000000" font-family="sans-serif" font-size="16.25" font-weight="bold" lengthAdjust="spacing" textLength="8.75" x="106.875" y="222.2595">3</text><text fill="#000000" font-family="sans-serif" font-size="16.25" lengthAdjust="spacing" textLength="121.25" x="120.625" y="222.2595">selects test type</text><polygon fill="#A80036" points="111.875,261.2695,99.375,266.2695,111.875,271.2695,106.875,266.2695" style="stroke:#A80036;stroke-width:1.25;"/><line style="stroke:#A80036;stroke-width:1.25;stroke-dasharray:2.0,2.0;" x1="104.375" x2="451.875" y1="266.2695" y2="266.2695"/><text fill="#000000" font-family="sans-serif" font-size="16.25" font-weight="bold" lengthAdjust="spacing" textLength="8.75" x="119.375" y="260.199">4</text><text fill="#000000" font-family="sans-serif" font-size="16.25" lengthAdjust="spacing" textLength="273.75" x="133.125" y="260.199">requests number of samples to record</text><polygon fill="#A80036" points="438.125,299.209,450.625,304.209,438.125,309.209,443.125,304.209" style="stroke:#A80036;stroke-width:1.25;"/><line style="stroke:#A80036;stroke-width:1.25;" x1="98.125" x2="445.625" y1="304.209" y2="304.209"/><text fill="#000000" font-family="sans-serif" font-size="16.25" font-weight="bold" lengthAdjust="spacing" textLength="8.75" x="106.875" y="298.1384">5</text><text fill="#000000" font-family="sans-serif" font-size="16.25" lengthAdjust="spacing" textLength="247.5" x="120.625" y="298.1384">gives number of samples to record</text><polygon fill="#A80036" points="111.875,337.1484,99.375,342.1484,111.875,347.1484,106.875,342.1484" style="stroke:#A80036;stroke-width:1.25;"/><line style="stroke:#A80036;stroke-width:1.25;stroke-dasharray:2.0,2.0;" x1="104.375" x2="451.875" y1="342.1484" y2="342.1484"/><text fill="#000000" font-family="sans-serif" font-size="16.25" font-weight="bold" lengthAdjust="spacing" textLength="8.75" x="119.375" y="336.0779">6</text><text fill="#000000" font-family="sans-serif" font-size="16.25" lengthAdjust="spacing" textLength="146.25" x="133.125" y="336.0779">request confirmation</text><polygon fill="#A80036" points="438.125,375.0879,450.625,380.0879,438.125,385.0879,443.125,380.0879" style="stroke:#A80036;stroke-width:1.25;"/><line style="stroke:#A80036;stroke-width:1.25;" x1="98.125" x2="445.625" y1="380.0879" y2="380.0879"/><text fill="#000000" font-family="sans-serif" font-size="16.25" font-weight="bold" lengthAdjust="spacing" textLength="8.75" x="106.875" y="374.0173">7</text><text fill="#000000" font-family="sans-serif" font-size="16.25" lengthAdjust="spacing" textLength="128.75" x="120.625" y="374.0173">gives confirmation</text><polygon fill="#A80036" points="111.875,413.0273,99.375,418.0273,111.875,423.0273,106.875,418.0273" style="stroke:#A80036;stroke-width:1.25;"/><line style="stroke:#A80036;stroke-width:1.25;stroke-dasharray:2.0,2.0;" x1="104.375" x2="451.875" y1="418.0273" y2="418.0273"/><text fill="#000000" font-family="sans-serif" font-size="16.25" font-weight="bold" lengthAdjust="spacing" textLength="8.75" x="119.375" y="411.9568">8</text><text fill="#000000" font-family="sans-serif" font-size="16.25" lengthAdjust="spacing" textLength="191.25" x="133.125" y="411.9568">gives success of operation</text><!--MD5=[08fbb85504997baa2375dd3d97902bd4]
@startuml

autonumber

actor MedicalLabTechnician as mlt
participant ":System" as sys
mlt -> sys: requests to record new sample(s) collected
sys - -> mlt: requests test type
mlt -> sys: selects test type
sys - -> mlt: requests number of samples to record
mlt -> sys: gives number of samples to record
sys - -> mlt: request confirmation
mlt -> sys: gives confirmation
sys - -> mlt: gives success of operation

@enduml

PlantUML version 1.2021.4(Sun Apr 04 09:49:39 BST 2021)
(GPL source distribution)
Java Runtime: OpenJDK Runtime Environment
JVM: OpenJDK 64-Bit Server VM
Default Encoding: Cp1252
Language: pt
Country: PT
--></g></svg>