<?xml version="1.0" encoding="UTF-8" standalone="no"?><svg xmlns="http://www.w3.org/2000/svg" xmlns:xlink="http://www.w3.org/1999/xlink" contentScriptType="application/ecmascript" contentStyleType="text/css" height="775.5px" preserveAspectRatio="none" style="width:898px;height:775px;" version="1.1" viewBox="0 0 898 775" width="898.7px" zoomAndPan="magnify"><defs><filter height="300%" id="f142zomk9x08s4" width="300%" x="-1" y="-1"><feGaussianBlur result="blurOut" stdDeviation="2.2"/><feColorMatrix in="blurOut" result="blurOut2" type="matrix" values="0 0 0 0 0 0 0 0 0 0 0 0 0 0 0 0 0 0 .4 0"/><feOffset dx="4.4" dy="4.4" in="blurOut2" result="blurOut3"/><feBlend in="SourceGraphic" in2="blurOut3" mode="normal"/></filter></defs><g><!--MD5=[62cf91c4ac61bc95d5ac8bab52d03502]
class SampleUI--><rect codeLine="4" fill="#FEFECE" filter="url(#f142zomk9x08s4)" height="83.2391" id="SampleUI" style="stroke:#A80036;stroke-width:1.6500000000000001;" width="166.1" x="399.85" y="7.7"/><ellipse cx="448.03" cy="25.3" fill="#ADD1B2" rx="12.1" ry="12.1" style="stroke:#A80036;stroke-width:1.1;"/><path d="M450.23,21.45 Q450.4534,20.9 450.7113,20.625 Q450.9691,20.35 451.2613,20.35 Q451.7769,20.35 452.1034,20.6594 Q452.43,20.9688 452.43,21.6906 L452.43,23.4094 Q452.43,24.1313 452.1206,24.4406 Q451.8113,24.75 451.33,24.75 Q450.9003,24.75 450.6253,24.5609 Q450.3503,24.3719 450.23,23.8734 Q450.1784,23.5297 449.9894,23.3406 Q449.6456,22.9797 449.0269,22.7734 Q448.4081,22.55 447.7894,22.55 Q447.0159,22.55 446.3628,22.8594 Q445.7269,23.1688 445.2284,23.8563 Q444.73,24.5438 444.73,25.4891 L444.73,26.5031 Q444.73,27.6375 445.6581,28.3938 Q446.5863,29.15 448.2363,29.15 Q449.2159,29.15 449.9034,28.9266 Q450.2988,28.8063 450.7456,28.4109 Q451.0378,28.1875 451.1925,28.1188 Q451.3472,28.05 451.5363,28.05 Q451.8972,28.05 452.155,28.3422 Q452.43,28.6172 452.43,29.0125 Q452.43,29.3906 452.0519,29.8375 Q451.5019,30.4906 450.6253,30.8516 Q449.4738,31.35 448.0644,31.35 Q446.4144,31.35 445.0909,30.6969 Q444.0253,30.1813 443.2691,29.0641 Q442.53,27.9469 442.53,26.6234 L442.53,25.4203 Q442.53,24.0453 443.1831,22.8422 Q443.8534,21.6391 445.005,21.0031 Q446.1738,20.35 447.48,20.35 Q448.2706,20.35 448.9581,20.625 Q449.6456,20.9 450.23,21.45 Z " fill="#000000"/><text fill="#000000" font-family="sans-serif" font-size="13.2" lengthAdjust="spacing" textLength="60.5" x="470.47" y="30.7012">SampleUI</text><line style="stroke:#A80036;stroke-width:1.6500000000000001;" x1="400.95" x2="564.85" y1="42.9" y2="42.9"/><line style="stroke:#A80036;stroke-width:1.6500000000000001;" x1="400.95" x2="564.85" y1="51.7" y2="51.7"/><text fill="#000000" font-family="sans-serif" font-size="12.1" lengthAdjust="spacing" textLength="152.9" x="406.45" y="68.6608">+TestCodeSelection(testList)</text><text fill="#000000" font-family="sans-serif" font-size="12.1" lengthAdjust="spacing" textLength="111.1" x="406.45" y="83.8804">+setSampleNumber()</text><!--MD5=[b2e0343becd3acb74ca007b70fee6233]
class SampleController--><rect codeLine="9" fill="#FEFECE" filter="url(#f142zomk9x08s4)" height="113.6781" id="SampleController" style="stroke:#A80036;stroke-width:1.6500000000000001;" width="143" x="261.8" y="158.4"/><ellipse cx="278.795" cy="176" fill="#ADD1B2" rx="12.1" ry="12.1" style="stroke:#A80036;stroke-width:1.1;"/><path d="M280.995,172.15 Q281.2184,171.6 281.4763,171.325 Q281.7341,171.05 282.0263,171.05 Q282.5419,171.05 282.8684,171.3594 Q283.195,171.6688 283.195,172.3906 L283.195,174.1094 Q283.195,174.8313 282.8856,175.1406 Q282.5763,175.45 282.095,175.45 Q281.6653,175.45 281.3903,175.2609 Q281.1153,175.0719 280.995,174.5734 Q280.9434,174.2297 280.7544,174.0406 Q280.4106,173.6797 279.7919,173.4734 Q279.1731,173.25 278.5544,173.25 Q277.7809,173.25 277.1278,173.5594 Q276.4919,173.8688 275.9934,174.5563 Q275.495,175.2438 275.495,176.1891 L275.495,177.2031 Q275.495,178.3375 276.4231,179.0938 Q277.3513,179.85 279.0013,179.85 Q279.9809,179.85 280.6684,179.6266 Q281.0638,179.5063 281.5106,179.1109 Q281.8028,178.8875 281.9575,178.8188 Q282.1122,178.75 282.3013,178.75 Q282.6622,178.75 282.92,179.0422 Q283.195,179.3172 283.195,179.7125 Q283.195,180.0906 282.8169,180.5375 Q282.2669,181.1906 281.3903,181.5516 Q280.2388,182.05 278.8294,182.05 Q277.1794,182.05 275.8559,181.3969 Q274.7903,180.8813 274.0341,179.7641 Q273.295,178.6469 273.295,177.3234 L273.295,176.1203 Q273.295,174.7453 273.9481,173.5422 Q274.6184,172.3391 275.77,171.7031 Q276.9388,171.05 278.245,171.05 Q279.0356,171.05 279.7231,171.325 Q280.4106,171.6 280.995,172.15 Z " fill="#000000"/><text fill="#000000" font-family="sans-serif" font-size="13.2" lengthAdjust="spacing" textLength="106.7" x="294.305" y="181.4012">SampleController</text><line style="stroke:#A80036;stroke-width:1.6500000000000001;" x1="262.9" x2="403.7" y1="193.6" y2="193.6"/><line style="stroke:#A80036;stroke-width:1.6500000000000001;" x1="262.9" x2="403.7" y1="202.4" y2="202.4"/><text fill="#000000" font-family="sans-serif" font-size="12.1" lengthAdjust="spacing" textLength="73.7" x="268.4" y="219.3608">+getTestList()</text><text fill="#000000" font-family="sans-serif" font-size="12.1" lengthAdjust="spacing" textLength="129.8" x="268.4" y="234.5804">+setTestCode(testCode)</text><text fill="#000000" font-family="sans-serif" font-size="12.1" lengthAdjust="spacing" textLength="117.7" x="268.4" y="249.7999">+setSampleNumber(n)</text><text fill="#000000" font-family="sans-serif" font-size="12.1" lengthAdjust="spacing" textLength="113.3" x="268.4" y="265.0194">+createSampleList(n)</text><!--MD5=[5d1067525748def49708bb23e378646e]
class ExternalModuleBarcode--><rect codeLine="16" fill="#FEFECE" filter="url(#f142zomk9x08s4)" height="83.2391" id="ExternalModuleBarcode" style="stroke:#A80036;stroke-width:1.6500000000000001;" width="354.2" x="529.1" y="338.8"/><ellipse cx="629.475" cy="356.4" fill="#B4A7E5" rx="12.1" ry="12.1" style="stroke:#A80036;stroke-width:1.1;"/><path d="M630.575,353.1 L630.575,359.7 L632.775,359.7 L633.3078,359.7 L633.875,360.3875 L633.875,360.8 L633.875,361.2125 L633.3078,361.9 L632.775,361.9 L626.175,361.9 L625.6422,361.9 L625.075,361.2125 L625.075,360.8 L625.075,360.3875 L625.6422,359.7 L626.175,359.7 L628.375,359.7 L628.375,353.1 L626.175,353.1 L625.6422,353.1 L625.075,352.4125 L625.075,352 L625.075,351.5875 L625.6422,350.9 L626.175,350.9 L632.775,350.9 L633.3078,350.9 L633.875,351.5875 L633.875,352 L633.875,352.4125 L633.3078,353.1 L632.775,353.1 L630.575,353.1 Z " fill="#000000"/><text fill="#000000" font-family="sans-serif" font-size="13.2" font-style="italic" lengthAdjust="spacing" textLength="144.1" x="652.025" y="361.8012">ExternalModuleBarcode</text><line style="stroke:#A80036;stroke-width:1.6500000000000001;" x1="530.2" x2="882.2" y1="374" y2="374"/><line style="stroke:#A80036;stroke-width:1.6500000000000001;" x1="530.2" x2="882.2" y1="382.8" y2="382.8"/><text fill="#000000" font-family="sans-serif" font-size="12.1" lengthAdjust="spacing" textLength="295.9" x="535.7" y="399.7608">+BufferedImage barcodeGenerator(String barcodeText)</text><text fill="#000000" font-family="sans-serif" font-size="12.1" lengthAdjust="spacing" textLength="341" x="535.7" y="414.9804">+saveBarcode(BufferedImage barcodeJPG, String barcodeText)</text><!--MD5=[b1e6b9ee4ec5506b81677ffc1c2a7f71]
class ExternalModuleBarcodeAdapter--><rect codeLine="21" fill="#FEFECE" filter="url(#f142zomk9x08s4)" height="83.2391" id="ExternalModuleBarcodeAdapter" style="stroke:#A80036;stroke-width:1.6500000000000001;" width="238.7" x="587.95" y="508.2"/><ellipse cx="610.885" cy="525.8" fill="#ADD1B2" rx="12.1" ry="12.1" style="stroke:#A80036;stroke-width:1.1;"/><path d="M613.085,521.95 Q613.3084,521.4 613.5663,521.125 Q613.8241,520.85 614.1163,520.85 Q614.6319,520.85 614.9584,521.1594 Q615.285,521.4688 615.285,522.1906 L615.285,523.9094 Q615.285,524.6313 614.9756,524.9406 Q614.6663,525.25 614.185,525.25 Q613.7553,525.25 613.4803,525.0609 Q613.2053,524.8719 613.085,524.3734 Q613.0334,524.0297 612.8444,523.8406 Q612.5006,523.4797 611.8819,523.2734 Q611.2631,523.05 610.6444,523.05 Q609.8709,523.05 609.2178,523.3594 Q608.5819,523.6688 608.0834,524.3563 Q607.585,525.0438 607.585,525.9891 L607.585,527.0031 Q607.585,528.1375 608.5131,528.8938 Q609.4413,529.65 611.0913,529.65 Q612.0709,529.65 612.7584,529.4266 Q613.1538,529.3063 613.6006,528.9109 Q613.8928,528.6875 614.0475,528.6188 Q614.2022,528.55 614.3913,528.55 Q614.7522,528.55 615.01,528.8422 Q615.285,529.1172 615.285,529.5125 Q615.285,529.8906 614.9069,530.3375 Q614.3569,530.9906 613.4803,531.3516 Q612.3288,531.85 610.9194,531.85 Q609.2694,531.85 607.9459,531.1969 Q606.8803,530.6813 606.1241,529.5641 Q605.385,528.4469 605.385,527.1234 L605.385,525.9203 Q605.385,524.5453 606.0381,523.3422 Q606.7084,522.1391 607.86,521.5031 Q609.0288,520.85 610.335,520.85 Q611.1256,520.85 611.8131,521.125 Q612.5006,521.4 613.085,521.95 Z " fill="#000000"/><text fill="#000000" font-family="sans-serif" font-size="13.2" lengthAdjust="spacing" textLength="189.2" x="627.715" y="531.2012">ExternalModuleBarcodeAdapter</text><line style="stroke:#A80036;stroke-width:1.6500000000000001;" x1="589.05" x2="825.55" y1="543.4" y2="543.4"/><line style="stroke:#A80036;stroke-width:1.6500000000000001;" x1="589.05" x2="825.55" y1="552.2" y2="552.2"/><text fill="#000000" font-family="sans-serif" font-size="12.1" lengthAdjust="spacing" textLength="180.4" x="594.55" y="569.1608">+barcodeGenerator(barcodeText)</text><text fill="#000000" font-family="sans-serif" font-size="12.1" lengthAdjust="spacing" textLength="225.5" x="594.55" y="584.3804">+saveBarcode(barcodeJPG, barcodeText)</text><!--MD5=[5148b047e2d79a9954d8ccd843ea5362]
class Barbecue--><rect codeLine="26" fill="#FEFECE" filter="url(#f142zomk9x08s4)" height="68.0195" id="Barbecue" style="stroke:#A80036;stroke-width:1.6500000000000001;" width="249.7" x="582.45" y="685.3"/><ellipse cx="673.475" cy="702.9" fill="#ADD1B2" rx="12.1" ry="12.1" style="stroke:#A80036;stroke-width:1.1;"/><path d="M675.675,699.05 Q675.8984,698.5 676.1563,698.225 Q676.4141,697.95 676.7063,697.95 Q677.2219,697.95 677.5484,698.2594 Q677.875,698.5688 677.875,699.2906 L677.875,701.0094 Q677.875,701.7313 677.5656,702.0406 Q677.2563,702.35 676.775,702.35 Q676.3453,702.35 676.0703,702.1609 Q675.7953,701.9719 675.675,701.4734 Q675.6234,701.1297 675.4344,700.9406 Q675.0906,700.5797 674.4719,700.3734 Q673.8531,700.15 673.2344,700.15 Q672.4609,700.15 671.8078,700.4594 Q671.1719,700.7688 670.6734,701.4563 Q670.175,702.1438 670.175,703.0891 L670.175,704.1031 Q670.175,705.2375 671.1031,705.9938 Q672.0313,706.75 673.6813,706.75 Q674.6609,706.75 675.3484,706.5266 Q675.7438,706.4063 676.1906,706.0109 Q676.4828,705.7875 676.6375,705.7188 Q676.7922,705.65 676.9813,705.65 Q677.3422,705.65 677.6,705.9422 Q677.875,706.2172 677.875,706.6125 Q677.875,706.9906 677.4969,707.4375 Q676.9469,708.0906 676.0703,708.4516 Q674.9188,708.95 673.5094,708.95 Q671.8594,708.95 670.5359,708.2969 Q669.4703,707.7813 668.7141,706.6641 Q667.975,705.5469 667.975,704.2234 L667.975,703.0203 Q667.975,701.6453 668.6281,700.4422 Q669.2984,699.2391 670.45,698.6031 Q671.6188,697.95 672.925,697.95 Q673.7156,697.95 674.4031,698.225 Q675.0906,698.5 675.675,699.05 Z " fill="#000000"/><text fill="#000000" font-family="sans-serif" font-size="13.2" lengthAdjust="spacing" textLength="58.3" x="696.025" y="708.3012">Barbecue</text><line style="stroke:#A80036;stroke-width:1.6500000000000001;" x1="583.55" x2="831.05" y1="720.5" y2="720.5"/><line style="stroke:#A80036;stroke-width:1.6500000000000001;" x1="583.55" x2="831.05" y1="729.3" y2="729.3"/><text fill="#000000" font-family="sans-serif" font-size="12.1" lengthAdjust="spacing" textLength="236.5" x="589.05" y="746.2608">+Barcode createUPCA(java.lang.String data)</text><!--MD5=[02e4b9b7573f1156f41e60aa5b4e25a4]
class Company--><rect codeLine="30" fill="#FEFECE" filter="url(#f142zomk9x08s4)" height="68.0195" id="Company" style="stroke:#A80036;stroke-width:1.6500000000000001;" width="96.8" x="392.7" y="346.5"/><ellipse cx="410.685" cy="364.1" fill="#ADD1B2" rx="12.1" ry="12.1" style="stroke:#A80036;stroke-width:1.1;"/><path d="M412.885,360.25 Q413.1084,359.7 413.3663,359.425 Q413.6241,359.15 413.9163,359.15 Q414.4319,359.15 414.7584,359.4594 Q415.085,359.7688 415.085,360.4906 L415.085,362.2094 Q415.085,362.9313 414.7756,363.2406 Q414.4663,363.55 413.985,363.55 Q413.5553,363.55 413.2803,363.3609 Q413.0053,363.1719 412.885,362.6734 Q412.8334,362.3297 412.6444,362.1406 Q412.3006,361.7797 411.6819,361.5734 Q411.0631,361.35 410.4444,361.35 Q409.6709,361.35 409.0178,361.6594 Q408.3819,361.9688 407.8834,362.6563 Q407.385,363.3438 407.385,364.2891 L407.385,365.3031 Q407.385,366.4375 408.3131,367.1938 Q409.2413,367.95 410.8913,367.95 Q411.8709,367.95 412.5584,367.7266 Q412.9538,367.6063 413.4006,367.2109 Q413.6928,366.9875 413.8475,366.9188 Q414.0022,366.85 414.1913,366.85 Q414.5522,366.85 414.81,367.1422 Q415.085,367.4172 415.085,367.8125 Q415.085,368.1906 414.7069,368.6375 Q414.1569,369.2906 413.2803,369.6516 Q412.1288,370.15 410.7194,370.15 Q409.0694,370.15 407.7459,369.4969 Q406.6803,368.9813 405.9241,367.8641 Q405.185,366.7469 405.185,365.4234 L405.185,364.2203 Q405.185,362.8453 405.8381,361.6422 Q406.5084,360.4391 407.66,359.8031 Q408.8288,359.15 410.135,359.15 Q410.9256,359.15 411.6131,359.425 Q412.3006,359.7 412.885,360.25 Z " fill="#000000"/><text fill="#000000" font-family="sans-serif" font-size="13.2" lengthAdjust="spacing" textLength="58.3" x="426.415" y="369.5012">Company</text><line style="stroke:#A80036;stroke-width:1.6500000000000001;" x1="393.8" x2="488.4" y1="381.7" y2="381.7"/><line style="stroke:#A80036;stroke-width:1.6500000000000001;" x1="393.8" x2="488.4" y1="390.5" y2="390.5"/><text fill="#000000" font-family="sans-serif" font-size="12.1" lengthAdjust="spacing" textLength="83.6" x="399.3" y="407.4608">+getTestStore()</text><!--MD5=[144698ec4d0188f6929a3b58a3eeb1f6]
class TestMapper--><rect codeLine="35" fill="#FEFECE" filter="url(#f142zomk9x08s4)" height="68.0195" id="TestMapper" style="stroke:#A80036;stroke-width:1.6500000000000001;" width="106.7" x="443.85" y="180.95"/><ellipse cx="460.35" cy="198.55" fill="#ADD1B2" rx="12.1" ry="12.1" style="stroke:#A80036;stroke-width:1.1;"/><path d="M462.55,194.7 Q462.7734,194.15 463.0313,193.875 Q463.2891,193.6 463.5813,193.6 Q464.0969,193.6 464.4234,193.9094 Q464.75,194.2188 464.75,194.9406 L464.75,196.6594 Q464.75,197.3813 464.4406,197.6906 Q464.1313,198 463.65,198 Q463.2203,198 462.9453,197.8109 Q462.6703,197.6219 462.55,197.1234 Q462.4984,196.7797 462.3094,196.5906 Q461.9656,196.2297 461.3469,196.0234 Q460.7281,195.8 460.1094,195.8 Q459.3359,195.8 458.6828,196.1094 Q458.0469,196.4188 457.5484,197.1063 Q457.05,197.7938 457.05,198.7391 L457.05,199.7531 Q457.05,200.8875 457.9781,201.6438 Q458.9063,202.4 460.5563,202.4 Q461.5359,202.4 462.2234,202.1766 Q462.6188,202.0563 463.0656,201.6609 Q463.3578,201.4375 463.5125,201.3688 Q463.6672,201.3 463.8563,201.3 Q464.2172,201.3 464.475,201.5922 Q464.75,201.8672 464.75,202.2625 Q464.75,202.6406 464.3719,203.0875 Q463.8219,203.7406 462.9453,204.1016 Q461.7938,204.6 460.3844,204.6 Q458.7344,204.6 457.4109,203.9469 Q456.3453,203.4313 455.5891,202.3141 Q454.85,201.1969 454.85,199.8734 L454.85,198.6703 Q454.85,197.2953 455.5031,196.0922 Q456.1734,194.8891 457.325,194.2531 Q458.4938,193.6 459.8,193.6 Q460.5906,193.6 461.2781,193.875 Q461.9656,194.15 462.55,194.7 Z " fill="#000000"/><text fill="#000000" font-family="sans-serif" font-size="13.2" lengthAdjust="spacing" textLength="71.5" x="475.75" y="203.9512">TestMapper</text><line style="stroke:#A80036;stroke-width:1.6500000000000001;" x1="444.95" x2="549.45" y1="216.15" y2="216.15"/><line style="stroke:#A80036;stroke-width:1.6500000000000001;" x1="444.95" x2="549.45" y1="224.95" y2="224.95"/><text fill="#000000" font-family="sans-serif" font-size="12.1" lengthAdjust="spacing" textLength="67.1" x="450.45" y="241.9108">+toDTOList()</text><!--MD5=[9fb704ffefcaf68bf1a361787afa998b]
class TestDTO--><rect codeLine="39" fill="#FEFECE" filter="url(#f142zomk9x08s4)" height="52.8" id="TestDTO" style="stroke:#A80036;stroke-width:1.6500000000000001;" width="89.1" x="589.05" y="188.65"/><ellipse cx="605.55" cy="206.25" fill="#ADD1B2" rx="12.1" ry="12.1" style="stroke:#A80036;stroke-width:1.1;"/><path d="M607.75,202.4 Q607.9734,201.85 608.2313,201.575 Q608.4891,201.3 608.7813,201.3 Q609.2969,201.3 609.6234,201.6094 Q609.95,201.9188 609.95,202.6406 L609.95,204.3594 Q609.95,205.0813 609.6406,205.3906 Q609.3313,205.7 608.85,205.7 Q608.4203,205.7 608.1453,205.5109 Q607.8703,205.3219 607.75,204.8234 Q607.6984,204.4797 607.5094,204.2906 Q607.1656,203.9297 606.5469,203.7234 Q605.9281,203.5 605.3094,203.5 Q604.5359,203.5 603.8828,203.8094 Q603.2469,204.1188 602.7484,204.8063 Q602.25,205.4938 602.25,206.4391 L602.25,207.4531 Q602.25,208.5875 603.1781,209.3438 Q604.1063,210.1 605.7563,210.1 Q606.7359,210.1 607.4234,209.8766 Q607.8188,209.7563 608.2656,209.3609 Q608.5578,209.1375 608.7125,209.0688 Q608.8672,209 609.0563,209 Q609.4172,209 609.675,209.2922 Q609.95,209.5672 609.95,209.9625 Q609.95,210.3406 609.5719,210.7875 Q609.0219,211.4406 608.1453,211.8016 Q606.9938,212.3 605.5844,212.3 Q603.9344,212.3 602.6109,211.6469 Q601.5453,211.1313 600.7891,210.0141 Q600.05,208.8969 600.05,207.5734 L600.05,206.3703 Q600.05,204.9953 600.7031,203.7922 Q601.3734,202.5891 602.525,201.9531 Q603.6938,201.3 605,201.3 Q605.7906,201.3 606.4781,201.575 Q607.1656,201.85 607.75,202.4 Z " fill="#000000"/><text fill="#000000" font-family="sans-serif" font-size="13.2" lengthAdjust="spacing" textLength="53.9" x="620.95" y="211.6512">TestDTO</text><line style="stroke:#A80036;stroke-width:1.6500000000000001;" x1="590.15" x2="677.05" y1="223.85" y2="223.85"/><line style="stroke:#A80036;stroke-width:1.6500000000000001;" x1="590.15" x2="677.05" y1="232.65" y2="232.65"/><!--MD5=[9681492165142af2a4a3a169d90ee8d4]
class Sample--><rect codeLine="42" fill="#FEFECE" filter="url(#f142zomk9x08s4)" height="83.2391" id="Sample" style="stroke:#A80036;stroke-width:1.6500000000000001;" width="143" x="7.7" y="677.6"/><ellipse cx="51.425" cy="695.2" fill="#ADD1B2" rx="12.1" ry="12.1" style="stroke:#A80036;stroke-width:1.1;"/><path d="M53.625,691.35 Q53.8484,690.8 54.1063,690.525 Q54.3641,690.25 54.6563,690.25 Q55.1719,690.25 55.4984,690.5594 Q55.825,690.8688 55.825,691.5906 L55.825,693.3094 Q55.825,694.0313 55.5156,694.3406 Q55.2063,694.65 54.725,694.65 Q54.2953,694.65 54.0203,694.4609 Q53.7453,694.2719 53.625,693.7734 Q53.5734,693.4297 53.3844,693.2406 Q53.0406,692.8797 52.4219,692.6734 Q51.8031,692.45 51.1844,692.45 Q50.4109,692.45 49.7578,692.7594 Q49.1219,693.0688 48.6234,693.7563 Q48.125,694.4438 48.125,695.3891 L48.125,696.4031 Q48.125,697.5375 49.0531,698.2938 Q49.9813,699.05 51.6313,699.05 Q52.6109,699.05 53.2984,698.8266 Q53.6938,698.7063 54.1406,698.3109 Q54.4328,698.0875 54.5875,698.0188 Q54.7422,697.95 54.9313,697.95 Q55.2922,697.95 55.55,698.2422 Q55.825,698.5172 55.825,698.9125 Q55.825,699.2906 55.4469,699.7375 Q54.8969,700.3906 54.0203,700.7516 Q52.8688,701.25 51.4594,701.25 Q49.8094,701.25 48.4859,700.5969 Q47.4203,700.0813 46.6641,698.9641 Q45.925,697.8469 45.925,696.5234 L45.925,695.3203 Q45.925,693.9453 46.5781,692.7422 Q47.2484,691.5391 48.4,690.9031 Q49.5688,690.25 50.875,690.25 Q51.6656,690.25 52.3531,690.525 Q53.0406,690.8 53.625,691.35 Z " fill="#000000"/><text fill="#000000" font-family="sans-serif" font-size="13.2" lengthAdjust="spacing" textLength="47.3" x="72.875" y="700.6012">Sample</text><line style="stroke:#A80036;stroke-width:1.6500000000000001;" x1="8.8" x2="149.6" y1="712.8" y2="712.8"/><text fill="#000000" font-family="sans-serif" font-size="12.1" lengthAdjust="spacing" textLength="71.5" x="14.3" y="729.7608">-barcodeText</text><line style="stroke:#A80036;stroke-width:1.6500000000000001;" x1="8.8" x2="149.6" y1="736.8195" y2="736.8195"/><text fill="#000000" font-family="sans-serif" font-size="12.1" lengthAdjust="spacing" textLength="129.8" x="14.3" y="753.7804">+generateBarcodeUPC()</text><!--MD5=[2b343c20b2df7b16f479f389dd4eb438]
class SampleList--><rect codeLine="47" fill="#FEFECE" filter="url(#f142zomk9x08s4)" height="68.0195" id="SampleList" style="stroke:#A80036;stroke-width:1.6500000000000001;" width="134.2" x="245.3" y="685.3"/><ellipse cx="275.165" cy="702.9" fill="#ADD1B2" rx="12.1" ry="12.1" style="stroke:#A80036;stroke-width:1.1;"/><path d="M277.365,699.05 Q277.5884,698.5 277.8463,698.225 Q278.1041,697.95 278.3963,697.95 Q278.9119,697.95 279.2384,698.2594 Q279.565,698.5688 279.565,699.2906 L279.565,701.0094 Q279.565,701.7313 279.2556,702.0406 Q278.9463,702.35 278.465,702.35 Q278.0353,702.35 277.7603,702.1609 Q277.4853,701.9719 277.365,701.4734 Q277.3134,701.1297 277.1244,700.9406 Q276.7806,700.5797 276.1619,700.3734 Q275.5431,700.15 274.9244,700.15 Q274.1509,700.15 273.4978,700.4594 Q272.8619,700.7688 272.3634,701.4563 Q271.865,702.1438 271.865,703.0891 L271.865,704.1031 Q271.865,705.2375 272.7931,705.9938 Q273.7213,706.75 275.3713,706.75 Q276.3509,706.75 277.0384,706.5266 Q277.4338,706.4063 277.8806,706.0109 Q278.1728,705.7875 278.3275,705.7188 Q278.4822,705.65 278.6713,705.65 Q279.0322,705.65 279.29,705.9422 Q279.565,706.2172 279.565,706.6125 Q279.565,706.9906 279.1869,707.4375 Q278.6369,708.0906 277.7603,708.4516 Q276.6088,708.95 275.1994,708.95 Q273.5494,708.95 272.2259,708.2969 Q271.1603,707.7813 270.4041,706.6641 Q269.665,705.5469 269.665,704.2234 L269.665,703.0203 Q269.665,701.6453 270.3181,700.4422 Q270.9884,699.2391 272.14,698.6031 Q273.3088,697.95 274.615,697.95 Q275.4056,697.95 276.0931,698.225 Q276.7806,698.5 277.365,699.05 Z " fill="#000000"/><text fill="#000000" font-family="sans-serif" font-size="13.2" lengthAdjust="spacing" textLength="69.3" x="293.535" y="708.3012">SampleList</text><line style="stroke:#A80036;stroke-width:1.6500000000000001;" x1="246.4" x2="378.4" y1="720.5" y2="720.5"/><line style="stroke:#A80036;stroke-width:1.6500000000000001;" x1="246.4" x2="378.4" y1="729.3" y2="729.3"/><text fill="#000000" font-family="sans-serif" font-size="12.1" lengthAdjust="spacing" textLength="121" x="251.9" y="746.2608">+saveSample(sample);</text><!--MD5=[0f6f7964b844a64b0496af0dda7914bd]
class TestStore--><rect codeLine="51" fill="#FEFECE" filter="url(#f142zomk9x08s4)" height="83.2391" id="TestStore" style="stroke:#A80036;stroke-width:1.6500000000000001;" width="157.3" x="392.15" y="508.2"/><ellipse cx="437.36" cy="525.8" fill="#ADD1B2" rx="12.1" ry="12.1" style="stroke:#A80036;stroke-width:1.1;"/><path d="M439.56,521.95 Q439.7834,521.4 440.0413,521.125 Q440.2991,520.85 440.5913,520.85 Q441.1069,520.85 441.4334,521.1594 Q441.76,521.4688 441.76,522.1906 L441.76,523.9094 Q441.76,524.6313 441.4506,524.9406 Q441.1413,525.25 440.66,525.25 Q440.2303,525.25 439.9553,525.0609 Q439.6803,524.8719 439.56,524.3734 Q439.5084,524.0297 439.3194,523.8406 Q438.9756,523.4797 438.3569,523.2734 Q437.7381,523.05 437.1194,523.05 Q436.3459,523.05 435.6928,523.3594 Q435.0569,523.6688 434.5584,524.3563 Q434.06,525.0438 434.06,525.9891 L434.06,527.0031 Q434.06,528.1375 434.9881,528.8938 Q435.9163,529.65 437.5663,529.65 Q438.5459,529.65 439.2334,529.4266 Q439.6288,529.3063 440.0756,528.9109 Q440.3678,528.6875 440.5225,528.6188 Q440.6772,528.55 440.8663,528.55 Q441.2272,528.55 441.485,528.8422 Q441.76,529.1172 441.76,529.5125 Q441.76,529.8906 441.3819,530.3375 Q440.8319,530.9906 439.9553,531.3516 Q438.8038,531.85 437.3944,531.85 Q435.7444,531.85 434.4209,531.1969 Q433.3553,530.6813 432.5991,529.5641 Q431.86,528.4469 431.86,527.1234 L431.86,525.9203 Q431.86,524.5453 432.5131,523.3422 Q433.1834,522.1391 434.335,521.5031 Q435.5038,520.85 436.81,520.85 Q437.6006,520.85 438.2881,521.125 Q438.9756,521.4 439.56,521.95 Z " fill="#000000"/><text fill="#000000" font-family="sans-serif" font-size="13.2" lengthAdjust="spacing" textLength="58.3" x="459.14" y="531.2012">TestStore</text><line style="stroke:#A80036;stroke-width:1.6500000000000001;" x1="393.25" x2="548.35" y1="543.4" y2="543.4"/><line style="stroke:#A80036;stroke-width:1.6500000000000001;" x1="393.25" x2="548.35" y1="552.2" y2="552.2"/><text fill="#000000" font-family="sans-serif" font-size="12.1" lengthAdjust="spacing" textLength="118.8" x="398.75" y="569.1608">+getRegisteredTests()</text><text fill="#000000" font-family="sans-serif" font-size="12.1" lengthAdjust="spacing" textLength="144.1" x="398.75" y="584.3804">+getTestByCode(testCode)</text><!--MD5=[df38be88ccee13e832d6fafd6288a4ca]
class Test--><rect codeLine="56" fill="#FEFECE" filter="url(#f142zomk9x08s4)" height="83.2391" id="Test" style="stroke:#A80036;stroke-width:1.6500000000000001;" width="158.4" x="116.6" y="508.2"/><ellipse cx="177.925" cy="525.8" fill="#ADD1B2" rx="12.1" ry="12.1" style="stroke:#A80036;stroke-width:1.1;"/><path d="M180.125,521.95 Q180.3484,521.4 180.6063,521.125 Q180.8641,520.85 181.1563,520.85 Q181.6719,520.85 181.9984,521.1594 Q182.325,521.4688 182.325,522.1906 L182.325,523.9094 Q182.325,524.6313 182.0156,524.9406 Q181.7063,525.25 181.225,525.25 Q180.7953,525.25 180.5203,525.0609 Q180.2453,524.8719 180.125,524.3734 Q180.0734,524.0297 179.8844,523.8406 Q179.5406,523.4797 178.9219,523.2734 Q178.3031,523.05 177.6844,523.05 Q176.9109,523.05 176.2578,523.3594 Q175.6219,523.6688 175.1234,524.3563 Q174.625,525.0438 174.625,525.9891 L174.625,527.0031 Q174.625,528.1375 175.5531,528.8938 Q176.4813,529.65 178.1313,529.65 Q179.1109,529.65 179.7984,529.4266 Q180.1938,529.3063 180.6406,528.9109 Q180.9328,528.6875 181.0875,528.6188 Q181.2422,528.55 181.4313,528.55 Q181.7922,528.55 182.05,528.8422 Q182.325,529.1172 182.325,529.5125 Q182.325,529.8906 181.9469,530.3375 Q181.3969,530.9906 180.5203,531.3516 Q179.3688,531.85 177.9594,531.85 Q176.3094,531.85 174.9859,531.1969 Q173.9203,530.6813 173.1641,529.5641 Q172.425,528.4469 172.425,527.1234 L172.425,525.9203 Q172.425,524.5453 173.0781,523.3422 Q173.7484,522.1391 174.9,521.5031 Q176.0688,520.85 177.375,520.85 Q178.1656,520.85 178.8531,521.125 Q179.5406,521.4 180.125,521.95 Z " fill="#000000"/><text fill="#000000" font-family="sans-serif" font-size="13.2" lengthAdjust="spacing" textLength="26.4" x="200.475" y="531.2012">Test</text><line style="stroke:#A80036;stroke-width:1.6500000000000001;" x1="117.7" x2="273.9" y1="543.4" y2="543.4"/><text fill="#000000" font-family="sans-serif" font-size="12.1" lengthAdjust="spacing" textLength="60.5" x="123.2" y="560.3608">-sampleList</text><line style="stroke:#A80036;stroke-width:1.6500000000000001;" x1="117.7" x2="273.9" y1="567.4195" y2="567.4195"/><text fill="#000000" font-family="sans-serif" font-size="12.1" lengthAdjust="spacing" textLength="145.2" x="123.2" y="584.3804">+setSampleList(sampleList)</text><!--MD5=[201cf8439a08916d1f38ab05e55ad123]
link SampleUI to SampleController--><path codeLine="61" d="M445.533,91.399 C428.175,110.352 407.187,133.276 388.08,154.143 " fill="none" id="SampleUI-to-SampleController" style="stroke:#A80036;stroke-width:1.1;stroke-dasharray:7.0,7.0;"/><polygon fill="#A80036" points="384.285,158.279,394.2227,153.9648,388.0057,154.2286,387.742,148.0116,384.285,158.279" style="stroke:#A80036;stroke-width:1.1;"/><!--MD5=[39b8a89389709c1cb1b9df8565d96aec]
reverse link ExternalModuleBarcode to ExternalModuleBarcodeAdapter--><path codeLine="62" d="M706.618,444.642 C706.75,465.894 706.904,489.049 707.036,508.134 " fill="none" id="ExternalModuleBarcode-backto-ExternalModuleBarcodeAdapter" style="stroke:#A80036;stroke-width:1.1;stroke-dasharray:7.0,7.0;"/><polygon fill="none" points="698.918,444.653,706.464,422.598,714.318,444.554,698.918,444.653" style="stroke:#A80036;stroke-width:1.1;"/><!--MD5=[08a6728b76f7c9bee8d0ea8b62013e85]
link ExternalModuleBarcodeAdapter to Barbecue--><path codeLine="63" d="M707.3,591.998 C707.3,618.607 707.3,653.092 707.3,679.316 " fill="none" id="ExternalModuleBarcodeAdapter-to-Barbecue" style="stroke:#A80036;stroke-width:1.1;"/><polygon fill="#A80036" points="707.3,685.113,711.7,675.213,707.3,679.613,702.9,675.213,707.3,685.113" style="stroke:#A80036;stroke-width:1.1;"/><!--MD5=[f14d6931ee7b83449a4ce97ee2c518ed]
link SampleController to Company--><path codeLine="64" d="M370.095,271.909 C385.297,294.932 402.512,321.035 416.196,341.759 " fill="none" id="SampleController-to-Company" style="stroke:#A80036;stroke-width:1.1;stroke-dasharray:7.0,7.0;"/><polygon fill="#A80036" points="419.232,346.357,417.4693,335.6676,416.2103,341.7614,410.1164,340.5024,419.232,346.357" style="stroke:#A80036;stroke-width:1.1;"/><!--MD5=[aa85792963d55107d845b13a7c9c7cf2]
link SampleController to TestMapper--><path codeLine="65" d="M405.009,215.05 C415.943,215.05 426.877,215.05 437.822,215.05 " fill="none" id="SampleController-to-TestMapper" style="stroke:#A80036;stroke-width:1.1;stroke-dasharray:7.0,7.0;"/><polygon fill="#A80036" points="443.542,215.05,433.642,210.65,438.042,215.05,433.642,219.45,443.542,215.05" style="stroke:#A80036;stroke-width:1.1;"/><!--MD5=[f6fda4afaf882dd39139bcbf06c50c8c]
link TestMapper to TestDTO--><path codeLine="66" d="M551.012,215.05 C561.726,215.05 572.44,215.05 583.154,215.05 " fill="none" id="TestMapper-to-TestDTO" style="stroke:#A80036;stroke-width:1.1;stroke-dasharray:7.0,7.0;"/><polygon fill="#A80036" points="588.753,215.05,578.853,210.65,583.253,215.05,578.853,219.45,588.753,215.05" style="stroke:#A80036;stroke-width:1.1;"/><!--MD5=[cc611d447c1a60cf050c6ad84c30a76a]
link SampleController to Sample--><path codeLine="67" d="M270.6,271.799 C214.269,325.974 134.75,413.765 96.8,508.2 C75.438,561.341 73.623,628.012 75.427,671.825 " fill="none" id="SampleController-to-Sample" style="stroke:#A80036;stroke-width:1.1;stroke-dasharray:7.0,7.0;"/><polygon fill="#A80036" points="75.691,677.578,79.6343,667.4874,75.4398,672.0837,70.8435,667.8893,75.691,677.578" style="stroke:#A80036;stroke-width:1.1;"/><!--MD5=[77b1a8c098ad966be031ad390c496da3]
link SampleController to ExternalModuleBarcode--><path codeLine="68" d="M404.888,261.36 C411.466,265.012 418.099,268.51 424.6,271.7 C474.144,295.999 530.629,318.571 579.942,336.71 " fill="none" id="SampleController-to-ExternalModuleBarcode" style="stroke:#A80036;stroke-width:1.1;stroke-dasharray:7.0,7.0;"/><polygon fill="#A80036" points="585.299,338.679,577.5263,331.1322,580.137,336.7805,574.4887,339.3913,585.299,338.679" style="stroke:#A80036;stroke-width:1.1;"/><!--MD5=[4e110d1e973607199050f89f89838fda]
link SampleController to SampleList--><path codeLine="69" d="M330.979,271.81 C326.711,374.506 317.68,591.349 314.006,679.657 " fill="none" id="SampleController-to-SampleList" style="stroke:#A80036;stroke-width:1.1;stroke-dasharray:7.0,7.0;"/><polygon fill="#A80036" points="313.775,685.278,318.5672,675.5618,313.9948,679.7824,309.7742,675.2101,313.775,685.278" style="stroke:#A80036;stroke-width:1.1;"/><!--MD5=[32ab1de427273075b811497f44260ad5]
link SampleController to Test--><path codeLine="70" d="M310.288,271.843 C283.569,336.501 239.987,441.958 215.017,502.403 " fill="none" id="SampleController-to-Test" style="stroke:#A80036;stroke-width:1.1;stroke-dasharray:7.0,7.0;"/><polygon fill="#A80036" points="212.806,507.749,220.644,500.27,214.9001,502.6633,212.5068,496.9194,212.806,507.749" style="stroke:#A80036;stroke-width:1.1;"/><!--MD5=[7f6cf7f175eae0af66201860de5de971]
link Company to TestStore--><path codeLine="71" d="M446.963,414.733 C451.418,439.802 457.6,474.595 462.55,502.469 " fill="none" id="Company-to-TestStore" style="stroke:#A80036;stroke-width:1.1;"/><polygon fill="#A80036" points="463.529,507.947,466.1329,497.4308,462.5687,502.5315,457.468,498.9673,463.529,507.947" style="stroke:#A80036;stroke-width:1.1;"/><text fill="#000000" font-family="sans-serif" font-size="14.3" lengthAdjust="spacing" textLength="30.8" x="458.7" y="471.3446">uses</text><text fill="#000000" font-family="sans-serif" font-size="14.3" lengthAdjust="spacing" textLength="7.7" x="439.6593" y="438.0859">1</text><text fill="#000000" font-family="sans-serif" font-size="14.3" lengthAdjust="spacing" textLength="7.7" x="449.0562" y="496.2">1</text><!--MD5=[b72ac8ab7fb5921fceb5036a3902baea]
link Test to Sample--><path codeLine="72" d="M167.277,591.998 C150.205,616.484 128.469,647.647 110.869,672.892 " fill="none" id="Test-to-Sample" style="stroke:#A80036;stroke-width:1.1;"/><polygon fill="#A80036" points="107.635,677.534,116.9051,671.9273,110.7795,673.0216,109.6852,666.896,107.635,677.534" style="stroke:#A80036;stroke-width:1.1;"/><text fill="#000000" font-family="sans-serif" font-size="14.3" lengthAdjust="spacing" textLength="49.5" x="143" y="640.7446">collects</text><text fill="#000000" font-family="sans-serif" font-size="14.3" lengthAdjust="spacing" textLength="7.7" x="139.8151" y="614.9981">1</text><text fill="#000000" font-family="sans-serif" font-size="14.3" lengthAdjust="spacing" textLength="5.5" x="106.8707" y="665.506">*</text><!--MD5=[b0f4f6db8206580012ef9cd998ed01c5]
link TestStore to Test--><path codeLine="73" d="M391.908,550 C357.203,550 316.371,550 280.973,550 " fill="none" id="TestStore-to-Test" style="stroke:#A80036;stroke-width:1.1;"/><polygon fill="#A80036" points="275.341,550,285.241,554.4,280.841,550,285.241,545.6,275.341,550" style="stroke:#A80036;stroke-width:1.1;"/><text fill="#000000" font-family="sans-serif" font-size="14.3" lengthAdjust="spacing" textLength="53.9" x="306.625" y="542.8446">contains</text><text fill="#000000" font-family="sans-serif" font-size="14.3" lengthAdjust="spacing" textLength="7.7" x="375.5849" y="565.633">1</text><text fill="#000000" font-family="sans-serif" font-size="14.3" lengthAdjust="spacing" textLength="5.5" x="292.5363" y="565.633">*</text><!--MD5=[9e73c4dac38628e51c731dcaf44d45fc]
reverse link Sample to SampleList--><path codeLine="74" d="M156.431,719.4 C185.064,719.4 217.283,719.4 244.97,719.4 " fill="none" id="Sample-backto-SampleList" style="stroke:#A80036;stroke-width:1.1;"/><polygon fill="#A80036" points="150.755,719.4,160.655,723.8,156.255,719.4,160.655,715,150.755,719.4" style="stroke:#A80036;stroke-width:1.1;"/><text fill="#000000" font-family="sans-serif" font-size="14.3" lengthAdjust="spacing" textLength="53.9" x="171.05" y="712.2446">contains</text><text fill="#000000" font-family="sans-serif" font-size="14.3" lengthAdjust="spacing" textLength="5.5" x="163.7252" y="735.1907">*</text><text fill="#000000" font-family="sans-serif" font-size="14.3" lengthAdjust="spacing" textLength="7.7" x="228.7519" y="735.2381">1</text><!--MD5=[03474f3c6203152d515dbbdcb11a8418]
link Test to SampleList--><path codeLine="75" d="M224.323,591.998 C243.111,618.937 267.542,653.972 285.901,680.295 " fill="none" id="Test-to-SampleList" style="stroke:#A80036;stroke-width:1.1;"/><polygon fill="#A80036" points="289.256,685.113,287.2058,674.475,286.1115,680.6006,279.9859,679.5063,289.256,685.113" style="stroke:#A80036;stroke-width:1.1;"/><text fill="#000000" font-family="sans-serif" font-size="14.3" lengthAdjust="spacing" textLength="30.8" x="259.6" y="640.7446">uses</text><text fill="#000000" font-family="sans-serif" font-size="14.3" lengthAdjust="spacing" textLength="7.7" x="220.5553" y="614.9981">1</text><text fill="#000000" font-family="sans-serif" font-size="14.3" lengthAdjust="spacing" textLength="7.7" x="261.4272" y="673.5294">1</text><!--MD5=[d1174c91dd103f1eabc9b404e690511e]
link SampleUI to TestDTO--><path codeLine="76" d="M520.542,91.399 C547.184,120.285 582.307,158.356 606.298,184.349 " fill="none" id="SampleUI-to-TestDTO" style="stroke:#A80036;stroke-width:1.1;stroke-dasharray:7.0,7.0;"/><polygon fill="#A80036" points="610.049,188.419,606.5721,178.1583,606.3204,184.3758,600.103,184.1241,610.049,188.419" style="stroke:#A80036;stroke-width:1.1;"/><!--MD5=[6397c98be57fb3c0e3491f2bf35ef02b]
@startuml

skinparam classAttributeIconSize 0

class SampleUI {
+TestCodeSelection(testList)
+setSampleNumber()
}

class SampleController {
+getTestList()
+setTestCode(testCode)
+setSampleNumber(n)
+createSampleList(n)
}

interface ExternalModuleBarcode {
+BufferedImage barcodeGenerator(String barcodeText)
+saveBarcode(BufferedImage barcodeJPG, String barcodeText)
}

class ExternalModuleBarcodeAdapter {
+barcodeGenerator(barcodeText)
+saveBarcode(barcodeJPG, barcodeText)
}

class Barbecue {
+Barcode createUPCA(java.lang.String data)
}

class Company {
+getTestStore()
}


class TestMapper {
+toDTOList()
}

class TestDTO {
}

class Sample {
-barcodeText
+generateBarcodeUPC()
}

class SampleList {
+saveSample(sample);
}

class TestStore {
+getRegisteredTests()
+getTestByCode(testCode)
}

class Test {
-sampleList
+setSampleList(sampleList)
}

SampleUI ..> SampleController
ExternalModuleBarcode <|.. ExternalModuleBarcodeAdapter
ExternalModuleBarcodeAdapter - -> Barbecue
SampleController ..> Company
SampleController .> TestMapper
TestMapper .> TestDTO
SampleController ..> Sample
SampleController ..> ExternalModuleBarcode
SampleController ..> SampleList
SampleController ...> Test
Company "1"- ->"1 " TestStore : uses
Test " 1   "- ->"*" Sample : collects
TestStore "        1"->"  *     " Test : contains
Sample " *   "<-"   1" SampleList : contains
Test "1"->"1   " SampleList : uses
SampleUI ..> TestDTO

@enduml

PlantUML version 1.2021.4(Sun Apr 04 09:49:39 BST 2021)
(GPL source distribution)
Java Runtime: OpenJDK Runtime Environment
JVM: OpenJDK 64-Bit Server VM
Default Encoding: Cp1252
Language: en
Country: US
--></g></svg>