<?xml version="1.0" encoding="UTF-8" standalone="no"?><svg xmlns="http://www.w3.org/2000/svg" xmlns:xlink="http://www.w3.org/1999/xlink" contentScriptType="application/ecmascript" contentStyleType="text/css" height="418.75px" preserveAspectRatio="none" style="width:316px;height:418px;" version="1.1" viewBox="0 0 316 418" width="316.25px" zoomAndPan="magnify"><defs><filter height="300%" id="f9f4f6ks5ftuz" width="300%" x="-1" y="-1"><feGaussianBlur result="blurOut" stdDeviation="2.5"/><feColorMatrix in="blurOut" result="blurOut2" type="matrix" values="0 0 0 0 0 0 0 0 0 0 0 0 0 0 0 0 0 0 .4 0"/><feOffset dx="5.0" dy="5.0" in="blurOut2" result="blurOut3"/><feBlend in="SourceGraphic" in2="blurOut3" mode="normal"/></filter></defs><g><!--MD5=[9681492165142af2a4a3a169d90ee8d4]
class Sample--><rect codeLine="2" fill="#FEFECE" filter="url(#f9f4f6ks5ftuz)" height="77.2949" id="Sample" style="stroke:#A80036;stroke-width:1.875;" width="93.75" x="99.375" y="166.25"/><ellipse cx="118.125" cy="186.25" fill="#ADD1B2" rx="13.75" ry="13.75" style="stroke:#A80036;stroke-width:1.25;"/><path d="M120.625,181.875 Q120.8789,181.25 121.1719,180.9375 Q121.4648,180.625 121.7969,180.625 Q122.3828,180.625 122.7539,180.9766 Q123.125,181.3281 123.125,182.1484 L123.125,184.1016 Q123.125,184.9219 122.7734,185.2734 Q122.4219,185.625 121.875,185.625 Q121.3867,185.625 121.0742,185.4102 Q120.7617,185.1953 120.625,184.6289 Q120.5664,184.2383 120.3516,184.0234 Q119.9609,183.6133 119.2578,183.3789 Q118.5547,183.125 117.8516,183.125 Q116.9727,183.125 116.2305,183.4766 Q115.5078,183.8281 114.9414,184.6094 Q114.375,185.3906 114.375,186.4648 L114.375,187.6172 Q114.375,188.9063 115.4297,189.7656 Q116.4844,190.625 118.3594,190.625 Q119.4727,190.625 120.2539,190.3711 Q120.7031,190.2344 121.2109,189.7852 Q121.543,189.5313 121.7188,189.4531 Q121.8945,189.375 122.1094,189.375 Q122.5195,189.375 122.8125,189.707 Q123.125,190.0195 123.125,190.4688 Q123.125,190.8984 122.6953,191.4063 Q122.0703,192.1484 121.0742,192.5586 Q119.7656,193.125 118.1641,193.125 Q116.2891,193.125 114.7852,192.3828 Q113.5742,191.7969 112.7148,190.5273 Q111.875,189.2578 111.875,187.7539 L111.875,186.3867 Q111.875,184.8242 112.6172,183.457 Q113.3789,182.0898 114.6875,181.3672 Q116.0156,180.625 117.5,180.625 Q118.3984,180.625 119.1797,180.9375 Q119.9609,181.25 120.625,181.875 Z " fill="#000000"/><text fill="#000000" font-family="sans-serif" font-size="15" lengthAdjust="spacing" textLength="53.75" x="135.625" y="192.3877">Sample</text><line style="stroke:#A80036;stroke-width:1.875;" x1="100.625" x2="191.875" y1="206.25" y2="206.25"/><rect fill="none" height="7.5" style="stroke:#C82930;stroke-width:1.25;" width="7.5" x="109.375" y="216.25"/><text fill="#000000" font-family="sans-serif" font-size="13.75" lengthAdjust="spacing" textLength="50" x="124.375" y="225.5237">barcode</text><line style="stroke:#A80036;stroke-width:1.875;" x1="100.625" x2="191.875" y1="233.5449" y2="233.5449"/><!--MD5=[e671f3231fffda95da92cdb61ed3f059]
class BarcodeAPI--><rect codeLine="5" fill="#FEFECE" filter="url(#f9f4f6ks5ftuz)" height="60" id="BarcodeAPI" style="stroke:#A80036;stroke-width:1.875;" width="120" x="8.75" y="341.25"/><ellipse cx="27.5" cy="361.25" fill="#ADD1B2" rx="13.75" ry="13.75" style="stroke:#A80036;stroke-width:1.25;"/><path d="M30,356.875 Q30.2539,356.25 30.5469,355.9375 Q30.8398,355.625 31.1719,355.625 Q31.7578,355.625 32.1289,355.9766 Q32.5,356.3281 32.5,357.1484 L32.5,359.1016 Q32.5,359.9219 32.1484,360.2734 Q31.7969,360.625 31.25,360.625 Q30.7617,360.625 30.4492,360.4102 Q30.1367,360.1953 30,359.6289 Q29.9414,359.2383 29.7266,359.0234 Q29.3359,358.6133 28.6328,358.3789 Q27.9297,358.125 27.2266,358.125 Q26.3477,358.125 25.6055,358.4766 Q24.8828,358.8281 24.3164,359.6094 Q23.75,360.3906 23.75,361.4648 L23.75,362.6172 Q23.75,363.9063 24.8047,364.7656 Q25.8594,365.625 27.7344,365.625 Q28.8477,365.625 29.6289,365.3711 Q30.0781,365.2344 30.5859,364.7852 Q30.918,364.5313 31.0938,364.4531 Q31.2695,364.375 31.4844,364.375 Q31.8945,364.375 32.1875,364.707 Q32.5,365.0195 32.5,365.4688 Q32.5,365.8984 32.0703,366.4063 Q31.4453,367.1484 30.4492,367.5586 Q29.1406,368.125 27.5391,368.125 Q25.6641,368.125 24.1602,367.3828 Q22.9492,366.7969 22.0898,365.5273 Q21.25,364.2578 21.25,362.7539 L21.25,361.3867 Q21.25,359.8242 21.9922,358.457 Q22.7539,357.0898 24.0625,356.3672 Q25.3906,355.625 26.875,355.625 Q27.7734,355.625 28.5547,355.9375 Q29.3359,356.25 30,356.875 Z " fill="#000000"/><text fill="#000000" font-family="sans-serif" font-size="15" lengthAdjust="spacing" textLength="80" x="45" y="367.3877">BarcodeAPI</text><line style="stroke:#A80036;stroke-width:1.875;" x1="10" x2="127.5" y1="381.25" y2="381.25"/><line style="stroke:#A80036;stroke-width:1.875;" x1="10" x2="127.5" y1="391.25" y2="391.25"/><!--MD5=[ed6624c6556d5e7b1bd23032162d20b7]
class Client--><rect codeLine="6" fill="#FEFECE" filter="url(#f9f4f6ks5ftuz)" height="60" id="Client" style="stroke:#A80036;stroke-width:1.875;" width="80" x="183.75" y="341.25"/><ellipse cx="202.5" cy="361.25" fill="#ADD1B2" rx="13.75" ry="13.75" style="stroke:#A80036;stroke-width:1.25;"/><path d="M205,356.875 Q205.2539,356.25 205.5469,355.9375 Q205.8398,355.625 206.1719,355.625 Q206.7578,355.625 207.1289,355.9766 Q207.5,356.3281 207.5,357.1484 L207.5,359.1016 Q207.5,359.9219 207.1484,360.2734 Q206.7969,360.625 206.25,360.625 Q205.7617,360.625 205.4492,360.4102 Q205.1367,360.1953 205,359.6289 Q204.9414,359.2383 204.7266,359.0234 Q204.3359,358.6133 203.6328,358.3789 Q202.9297,358.125 202.2266,358.125 Q201.3477,358.125 200.6055,358.4766 Q199.8828,358.8281 199.3164,359.6094 Q198.75,360.3906 198.75,361.4648 L198.75,362.6172 Q198.75,363.9063 199.8047,364.7656 Q200.8594,365.625 202.7344,365.625 Q203.8477,365.625 204.6289,365.3711 Q205.0781,365.2344 205.5859,364.7852 Q205.918,364.5313 206.0938,364.4531 Q206.2695,364.375 206.4844,364.375 Q206.8945,364.375 207.1875,364.707 Q207.5,365.0195 207.5,365.4688 Q207.5,365.8984 207.0703,366.4063 Q206.4453,367.1484 205.4492,367.5586 Q204.1406,368.125 202.5391,368.125 Q200.6641,368.125 199.1602,367.3828 Q197.9492,366.7969 197.0898,365.5273 Q196.25,364.2578 196.25,362.7539 L196.25,361.3867 Q196.25,359.8242 196.9922,358.457 Q197.7539,357.0898 199.0625,356.3672 Q200.3906,355.625 201.875,355.625 Q202.7734,355.625 203.5547,355.9375 Q204.3359,356.25 205,356.875 Z " fill="#000000"/><text fill="#000000" font-family="sans-serif" font-size="15" lengthAdjust="spacing" textLength="40" x="220" y="367.3877">Client</text><line style="stroke:#A80036;stroke-width:1.875;" x1="185" x2="262.5" y1="381.25" y2="381.25"/><line style="stroke:#A80036;stroke-width:1.875;" x1="185" x2="262.5" y1="391.25" y2="391.25"/><!--MD5=[df38be88ccee13e832d6fafd6288a4ca]
class Test--><rect codeLine="7" fill="#FEFECE" filter="url(#f9f4f6ks5ftuz)" height="60" id="Test" style="stroke:#A80036;stroke-width:1.875;" width="70" x="111.25" y="8.75"/><ellipse cx="130" cy="28.75" fill="#ADD1B2" rx="13.75" ry="13.75" style="stroke:#A80036;stroke-width:1.25;"/><path d="M132.5,24.375 Q132.7539,23.75 133.0469,23.4375 Q133.3398,23.125 133.6719,23.125 Q134.2578,23.125 134.6289,23.4766 Q135,23.8281 135,24.6484 L135,26.6016 Q135,27.4219 134.6484,27.7734 Q134.2969,28.125 133.75,28.125 Q133.2617,28.125 132.9492,27.9102 Q132.6367,27.6953 132.5,27.1289 Q132.4414,26.7383 132.2266,26.5234 Q131.8359,26.1133 131.1328,25.8789 Q130.4297,25.625 129.7266,25.625 Q128.8477,25.625 128.1055,25.9766 Q127.3828,26.3281 126.8164,27.1094 Q126.25,27.8906 126.25,28.9648 L126.25,30.1172 Q126.25,31.4063 127.3047,32.2656 Q128.3594,33.125 130.2344,33.125 Q131.3477,33.125 132.1289,32.8711 Q132.5781,32.7344 133.0859,32.2852 Q133.418,32.0313 133.5938,31.9531 Q133.7695,31.875 133.9844,31.875 Q134.3945,31.875 134.6875,32.207 Q135,32.5195 135,32.9688 Q135,33.3984 134.5703,33.9063 Q133.9453,34.6484 132.9492,35.0586 Q131.6406,35.625 130.0391,35.625 Q128.1641,35.625 126.6602,34.8828 Q125.4492,34.2969 124.5898,33.0273 Q123.75,31.7578 123.75,30.2539 L123.75,28.8867 Q123.75,27.3242 124.4922,25.957 Q125.2539,24.5898 126.5625,23.8672 Q127.8906,23.125 129.375,23.125 Q130.2734,23.125 131.0547,23.4375 Q131.8359,23.75 132.5,24.375 Z " fill="#000000"/><text fill="#000000" font-family="sans-serif" font-size="15" lengthAdjust="spacing" textLength="30" x="147.5" y="34.8877">Test</text><line style="stroke:#A80036;stroke-width:1.875;" x1="112.5" x2="180" y1="48.75" y2="48.75"/><line style="stroke:#A80036;stroke-width:1.875;" x1="112.5" x2="180" y1="58.75" y2="58.75"/><!--MD5=[9e18cdcaa9fc98b54e28689ca42ef92a]
link Sample to BarcodeAPI--><path codeLine="9" d="M99.375,237.7375 C85.6625,249.6 72.3875,264.3625 65,281.25 C56.775,300.0375 58.1125,323.2625 61.2875,341.2375 " fill="none" id="Sample-BarcodeAPI" style="stroke:#A80036;stroke-width:1.25;"/><polygon fill="#000000" points="69.0915,298.5852,76.4439,289.2432,69.5486,286.7058,69.0915,298.5852" style="stroke:#000000;stroke-width:1.25;"/><text fill="#000000" font-family="sans-serif" font-size="16.25" lengthAdjust="spacing" textLength="86.25" x="82.5" y="299.3689">identified by</text><text fill="#000000" font-family="sans-serif" font-size="16.25" lengthAdjust="spacing" textLength="8.75" x="80.5352" y="239.1463">1</text><text fill="#000000" font-family="sans-serif" font-size="16.25" lengthAdjust="spacing" textLength="8.75" x="43.8635" y="327.9095">1</text><!--MD5=[a23f50aea1fcb140948e132a9bfce5a1]
link Sample to Client--><path codeLine="10" d="M164.025,243.8125 C177.975,273.275 197.1,313.6875 209.9125,340.7625 " fill="none" id="Sample-Client" style="stroke:#A80036;stroke-width:1.25;"/><polygon fill="#000000" points="200.1738,298.3689,198.6573,286.5778,192.0163,289.7211,200.1738,298.3689" style="stroke:#000000;stroke-width:1.25;"/><text fill="#000000" font-family="sans-serif" font-size="16.25" lengthAdjust="spacing" textLength="97.5" x="208.75" y="299.3689">associated to</text><text fill="#000000" font-family="sans-serif" font-size="16.25" lengthAdjust="spacing" textLength="6.25" x="160.6592" y="270.3548">*</text><text fill="#000000" font-family="sans-serif" font-size="16.25" lengthAdjust="spacing" textLength="8.75" x="185.5045" y="327.8161">1</text><!--MD5=[b72ac8ab7fb5921fceb5036a3902baea]
link Test to Sample--><path codeLine="11" d="M146.25,68.9 C146.25,95.8875 146.25,136.35 146.25,165.9125 " fill="none" id="Test-Sample" style="stroke:#A80036;stroke-width:1.25;"/><polygon fill="#000000" points="152.5,123.9697,156.1737,112.6634,148.8263,112.6634,152.5,123.9697" style="stroke:#000000;stroke-width:1.25;"/><text fill="#000000" font-family="sans-serif" font-size="16.25" lengthAdjust="spacing" textLength="56.25" x="163.75" y="124.3689">collects</text><text fill="#000000" font-family="sans-serif" font-size="16.25" lengthAdjust="spacing" textLength="8.75" x="125.2148" y="95.609">1</text><text fill="#000000" font-family="sans-serif" font-size="16.25" lengthAdjust="spacing" textLength="6.25" x="139.3555" y="152.7236">*</text><!--MD5=[5b4c2a8580ac236438647c89fb5c679a]
@startuml

class Sample {
-barcode
}
class BarcodeAPI
class Client
class Test

Sample "1"- -"1 " BarcodeAPI : identified by >
Sample "*"- -"1  " Client : associated to >
Test "1  "- -"*" Sample : collects >

@enduml

PlantUML version 1.2021.4(Sun Apr 04 09:49:39 BST 2021)
(GPL source distribution)
Java Runtime: OpenJDK Runtime Environment
JVM: OpenJDK 64-Bit Server VM
Default Encoding: Cp1252
Language: pt
Country: PT
--></g></svg>