<?xml version="1.0" encoding="UTF-8" standalone="no"?><svg xmlns="http://www.w3.org/2000/svg" xmlns:xlink="http://www.w3.org/1999/xlink" contentScriptType="application/ecmascript" contentStyleType="text/css" height="348px" preserveAspectRatio="none" style="width:121px;height:348px;" version="1.1" viewBox="0 0 121 348" width="121px" zoomAndPan="magnify"><defs><filter height="300%" id="ffpvcfxgcy88l" width="300%" x="-1" y="-1"><feGaussianBlur result="blurOut" stdDeviation="2.0"/><feColorMatrix in="blurOut" result="blurOut2" type="matrix" values="0 0 0 0 0 0 0 0 0 0 0 0 0 0 0 0 0 0 .4 0"/><feOffset dx="4.0" dy="4.0" in="blurOut2" result="blurOut3"/><feBlend in="SourceGraphic" in2="blurOut3" mode="normal"/></filter></defs><g><!--MD5=[02e4b9b7573f1156f41e60aa5b4e25a4]
class Company--><rect codeLine="4" fill="#FEFECE" filter="url(#ffpvcfxgcy88l)" height="61.8359" id="Company" style="stroke:#A80036;stroke-width:1.5;" width="85" x="7" y="7"/><ellipse cx="22" cy="23" fill="#ADD1B2" rx="11" ry="11" style="stroke:#A80036;stroke-width:1.0;"/><path d="M24,19.5 Q24.2031,19 24.4375,18.75 Q24.6719,18.5 24.9375,18.5 Q25.4063,18.5 25.7031,18.7813 Q26,19.0625 26,19.7188 L26,21.2813 Q26,21.9375 25.7188,22.2188 Q25.4375,22.5 25,22.5 Q24.6094,22.5 24.3594,22.3281 Q24.1094,22.1563 24,21.7031 Q23.9531,21.3906 23.7813,21.2188 Q23.4688,20.8906 22.9063,20.7031 Q22.3438,20.5 21.7813,20.5 Q21.0781,20.5 20.4844,20.7813 Q19.9063,21.0625 19.4531,21.6875 Q19,22.3125 19,23.1719 L19,24.0938 Q19,25.125 19.8438,25.8125 Q20.6875,26.5 22.1875,26.5 Q23.0781,26.5 23.7031,26.2969 Q24.0625,26.1875 24.4688,25.8281 Q24.7344,25.625 24.875,25.5625 Q25.0156,25.5 25.1875,25.5 Q25.5156,25.5 25.75,25.7656 Q26,26.0156 26,26.375 Q26,26.7188 25.6563,27.125 Q25.1563,27.7188 24.3594,28.0469 Q23.3125,28.5 22.0313,28.5 Q20.5313,28.5 19.3281,27.9063 Q18.3594,27.4375 17.6719,26.4219 Q17,25.4063 17,24.2031 L17,23.1094 Q17,21.8594 17.5938,20.7656 Q18.2031,19.6719 19.25,19.0938 Q20.3125,18.5 21.5,18.5 Q22.2188,18.5 22.8438,18.75 Q23.4688,19 24,19.5 Z " fill="#000000"/><text fill="#000000" font-family="sans-serif" font-size="12" lengthAdjust="spacing" textLength="53" x="36" y="27.9102">Company</text><line style="stroke:#A80036;stroke-width:1.5;" x1="8" x2="91" y1="39" y2="39"/><text fill="#000000" font-family="sans-serif" font-size="11" lengthAdjust="spacing" textLength="59" x="13" y="54.4189">-designation</text><line style="stroke:#A80036;stroke-width:1.5;" x1="8" x2="91" y1="60.8359" y2="60.8359"/><!--MD5=[9681492165142af2a4a3a169d90ee8d4]
class Sample--><rect codeLine="7" fill="#FEFECE" filter="url(#ffpvcfxgcy88l)" height="61.8359" id="Sample" style="stroke:#A80036;stroke-width:1.5;" width="77" x="11" y="273"/><ellipse cx="26.9" cy="289" fill="#ADD1B2" rx="11" ry="11" style="stroke:#A80036;stroke-width:1.0;"/><path d="M28.9,285.5 Q29.1031,285 29.3375,284.75 Q29.5719,284.5 29.8375,284.5 Q30.3063,284.5 30.6031,284.7813 Q30.9,285.0625 30.9,285.7188 L30.9,287.2813 Q30.9,287.9375 30.6188,288.2188 Q30.3375,288.5 29.9,288.5 Q29.5094,288.5 29.2594,288.3281 Q29.0094,288.1563 28.9,287.7031 Q28.8531,287.3906 28.6813,287.2188 Q28.3688,286.8906 27.8063,286.7031 Q27.2438,286.5 26.6813,286.5 Q25.9781,286.5 25.3844,286.7813 Q24.8063,287.0625 24.3531,287.6875 Q23.9,288.3125 23.9,289.1719 L23.9,290.0938 Q23.9,291.125 24.7438,291.8125 Q25.5875,292.5 27.0875,292.5 Q27.9781,292.5 28.6031,292.2969 Q28.9625,292.1875 29.3688,291.8281 Q29.6344,291.625 29.775,291.5625 Q29.9156,291.5 30.0875,291.5 Q30.4156,291.5 30.65,291.7656 Q30.9,292.0156 30.9,292.375 Q30.9,292.7188 30.5563,293.125 Q30.0563,293.7188 29.2594,294.0469 Q28.2125,294.5 26.9313,294.5 Q25.4313,294.5 24.2281,293.9063 Q23.2594,293.4375 22.5719,292.4219 Q21.9,291.4063 21.9,290.2031 L21.9,289.1094 Q21.9,287.8594 22.4938,286.7656 Q23.1031,285.6719 24.15,285.0938 Q25.2125,284.5 26.4,284.5 Q27.1188,284.5 27.7438,284.75 Q28.3688,285 28.9,285.5 Z " fill="#000000"/><text fill="#000000" font-family="sans-serif" font-size="12" lengthAdjust="spacing" textLength="43" x="41.1" y="293.9102">Sample</text><line style="stroke:#A80036;stroke-width:1.5;" x1="12" x2="87" y1="305" y2="305"/><text fill="#000000" font-family="sans-serif" font-size="11" lengthAdjust="spacing" textLength="65" x="17" y="320.4189">-barcodeText</text><line style="stroke:#A80036;stroke-width:1.5;" x1="12" x2="87" y1="326.8359" y2="326.8359"/><!--MD5=[df38be88ccee13e832d6fafd6288a4ca]
class Test--><rect codeLine="10" fill="#FEFECE" filter="url(#ffpvcfxgcy88l)" height="48" id="Test" style="stroke:#A80036;stroke-width:1.5;" width="56" x="21.5" y="147"/><ellipse cx="36.5" cy="163" fill="#ADD1B2" rx="11" ry="11" style="stroke:#A80036;stroke-width:1.0;"/><path d="M38.5,159.5 Q38.7031,159 38.9375,158.75 Q39.1719,158.5 39.4375,158.5 Q39.9063,158.5 40.2031,158.7813 Q40.5,159.0625 40.5,159.7188 L40.5,161.2813 Q40.5,161.9375 40.2188,162.2188 Q39.9375,162.5 39.5,162.5 Q39.1094,162.5 38.8594,162.3281 Q38.6094,162.1563 38.5,161.7031 Q38.4531,161.3906 38.2813,161.2188 Q37.9688,160.8906 37.4063,160.7031 Q36.8438,160.5 36.2813,160.5 Q35.5781,160.5 34.9844,160.7813 Q34.4063,161.0625 33.9531,161.6875 Q33.5,162.3125 33.5,163.1719 L33.5,164.0938 Q33.5,165.125 34.3438,165.8125 Q35.1875,166.5 36.6875,166.5 Q37.5781,166.5 38.2031,166.2969 Q38.5625,166.1875 38.9688,165.8281 Q39.2344,165.625 39.375,165.5625 Q39.5156,165.5 39.6875,165.5 Q40.0156,165.5 40.25,165.7656 Q40.5,166.0156 40.5,166.375 Q40.5,166.7188 40.1563,167.125 Q39.6563,167.7188 38.8594,168.0469 Q37.8125,168.5 36.5313,168.5 Q35.0313,168.5 33.8281,167.9063 Q32.8594,167.4375 32.1719,166.4219 Q31.5,165.4063 31.5,164.2031 L31.5,163.1094 Q31.5,161.8594 32.0938,160.7656 Q32.7031,159.6719 33.75,159.0938 Q34.8125,158.5 36,158.5 Q36.7188,158.5 37.3438,158.75 Q37.9688,159 38.5,159.5 Z " fill="#000000"/><text fill="#000000" font-family="sans-serif" font-size="12" lengthAdjust="spacing" textLength="24" x="50.5" y="167.9102">Test</text><line style="stroke:#A80036;stroke-width:1.5;" x1="22.5" x2="76.5" y1="179" y2="179"/><line style="stroke:#A80036;stroke-width:1.5;" x1="22.5" x2="76.5" y1="187" y2="187"/><!--MD5=[7e4bc624457760b649895ff2ead938fa]
link Company to Test--><path codeLine="12" d="M49.5,69.05 C49.5,92.62 49.5,124.95 49.5,146.61 " fill="none" id="Company-Test" style="stroke:#A80036;stroke-width:1.0;"/><polygon fill="#000000" points="54.5,113.1758,57.4389,104.1307,51.5611,104.1307,54.5,113.1758" style="stroke:#000000;stroke-width:1.0;"/><text fill="#000000" font-family="sans-serif" font-size="13" lengthAdjust="spacing" textLength="50" x="63.5" y="113.4951">performs</text><text fill="#000000" font-family="sans-serif" font-size="13" lengthAdjust="spacing" textLength="7" x="37.0234" y="90.2838">1</text><text fill="#000000" font-family="sans-serif" font-size="13" lengthAdjust="spacing" textLength="5" x="38.9156" y="136.2529">*</text><!--MD5=[b72ac8ab7fb5921fceb5036a3902baea]
link Test to Sample--><path codeLine="13" d="M49.5,195.12 C49.5,216.71 49.5,249.08 49.5,272.73 " fill="none" id="Test-Sample" style="stroke:#A80036;stroke-width:1.0;"/><polygon fill="#000000" points="54.5,239.1758,57.4389,230.1307,51.5611,230.1307,54.5,239.1758" style="stroke:#000000;stroke-width:1.0;"/><text fill="#000000" font-family="sans-serif" font-size="13" lengthAdjust="spacing" textLength="45" x="63.5" y="239.4951">collects</text><text fill="#000000" font-family="sans-serif" font-size="13" lengthAdjust="spacing" textLength="7" x="37.1594" y="216.4872">1</text><text fill="#000000" font-family="sans-serif" font-size="13" lengthAdjust="spacing" textLength="5" x="39.1594" y="262.1789">*</text><!--MD5=[101aab26596adc654917d0f3f1b3ce85]
@startuml

skinparam classAttributeIconSize 0

class Company {
-designation
}
class Sample {
-barcodeText
}
class Test

Company " 1 "- -" * " Test : performs >
Test "1 "- -" * " Sample : collects >

@enduml

PlantUML version 1.2021.4(Sun Apr 04 09:49:39 BST 2021)
(GPL source distribution)
Java Runtime: OpenJDK Runtime Environment
JVM: OpenJDK 64-Bit Server VM
Default Encoding: Cp1252
Language: en
Country: US
--></g></svg>