<?xml version="1.0" encoding="UTF-8" standalone="no"?><svg xmlns="http://www.w3.org/2000/svg" xmlns:xlink="http://www.w3.org/1999/xlink" contentScriptType="application/ecmascript" contentStyleType="text/css" height="471.25px" preserveAspectRatio="none" style="width:470px;height:471px;" version="1.1" viewBox="0 0 470 471" width="470px" zoomAndPan="magnify"><defs><filter height="300%" id="f23sjqeln98kx" width="300%" x="-1" y="-1"><feGaussianBlur result="blurOut" stdDeviation="2.5"/><feColorMatrix in="blurOut" result="blurOut2" type="matrix" values="0 0 0 0 0 0 0 0 0 0 0 0 0 0 0 0 0 0 .4 0"/><feOffset dx="5.0" dy="5.0" in="blurOut2" result="blurOut3"/><feBlend in="SourceGraphic" in2="blurOut3" mode="normal"/></filter></defs><g><line style="stroke:#A80036;stroke-width:1.25;stroke-dasharray:5.0,5.0;" x1="97.5" x2="97.5" y1="112.0117" y2="364.6484"/><line style="stroke:#A80036;stroke-width:1.25;stroke-dasharray:5.0,5.0;" x1="415.625" x2="415.625" y1="112.0117" y2="364.6484"/><text fill="#000000" font-family="sans-serif" font-size="17.5" lengthAdjust="spacing" textLength="176.25" x="6.25" y="108.1665">MedicalLabTechnician</text><ellipse cx="98.125" cy="18.75" fill="#FEFECE" filter="url(#f23sjqeln98kx)" rx="10" ry="10" style="stroke:#A80036;stroke-width:2.5;"/><path d="M98.125,28.75 L98.125,62.5 M81.875,38.75 L114.375,38.75 M98.125,62.5 L81.875,81.25 M98.125,62.5 L114.375,81.25 " fill="none" filter="url(#f23sjqeln98kx)" style="stroke:#A80036;stroke-width:2.5;"/><text fill="#000000" font-family="sans-serif" font-size="17.5" lengthAdjust="spacing" textLength="176.25" x="6.25" y="381.5649">MedicalLabTechnician</text><ellipse cx="98.125" cy="397.9102" fill="#FEFECE" filter="url(#f23sjqeln98kx)" rx="10" ry="10" style="stroke:#A80036;stroke-width:2.5;"/><path d="M98.125,407.9102 L98.125,441.6602 M81.875,417.9102 L114.375,417.9102 M98.125,441.6602 L81.875,460.4102 M98.125,441.6602 L114.375,460.4102 " fill="none" filter="url(#f23sjqeln98kx)" style="stroke:#A80036;stroke-width:2.5;"/><rect fill="#FEFECE" filter="url(#f23sjqeln98kx)" height="39.5117" style="stroke:#A80036;stroke-width:1.875;" width="80" x="373.125" y="66.25"/><text fill="#000000" font-family="sans-serif" font-size="17.5" lengthAdjust="spacing" textLength="62.5" x="381.875" y="93.1665">:System</text><rect fill="#FEFECE" filter="url(#f23sjqeln98kx)" height="39.5117" style="stroke:#A80036;stroke-width:1.875;" width="80" x="373.125" y="363.3984"/><text fill="#000000" font-family="sans-serif" font-size="17.5" lengthAdjust="spacing" textLength="62.5" x="381.875" y="390.3149">:System</text><polygon fill="#A80036" points="400.625,147.4512,413.125,152.4512,400.625,157.4512,405.625,152.4512" style="stroke:#A80036;stroke-width:1.25;"/><line style="stroke:#A80036;stroke-width:1.25;" x1="98.125" x2="408.125" y1="152.4512" y2="152.4512"/><text fill="#000000" font-family="sans-serif" font-size="16.25" font-weight="bold" lengthAdjust="spacing" textLength="8.75" x="106.875" y="146.3806">1</text><text fill="#000000" font-family="sans-serif" font-size="16.25" lengthAdjust="spacing" textLength="228.75" x="120.625" y="146.3806">records a new sample collected</text><polygon fill="#A80036" points="111.875,185.3906,99.375,190.3906,111.875,195.3906,106.875,190.3906" style="stroke:#A80036;stroke-width:1.25;"/><line style="stroke:#A80036;stroke-width:1.25;stroke-dasharray:2.0,2.0;" x1="104.375" x2="414.375" y1="190.3906" y2="190.3906"/><text fill="#000000" font-family="sans-serif" font-size="16.25" font-weight="bold" lengthAdjust="spacing" textLength="8.75" x="119.375" y="184.3201">2</text><text fill="#000000" font-family="sans-serif" font-size="16.25" lengthAdjust="spacing" textLength="131.25" x="133.125" y="184.3201">requests test type</text><polygon fill="#A80036" points="400.625,223.3301,413.125,228.3301,400.625,233.3301,405.625,228.3301" style="stroke:#A80036;stroke-width:1.25;"/><line style="stroke:#A80036;stroke-width:1.25;" x1="98.125" x2="408.125" y1="228.3301" y2="228.3301"/><text fill="#000000" font-family="sans-serif" font-size="16.25" font-weight="bold" lengthAdjust="spacing" textLength="8.75" x="106.875" y="222.2595">3</text><text fill="#000000" font-family="sans-serif" font-size="16.25" lengthAdjust="spacing" textLength="121.25" x="120.625" y="222.2595">selects test type</text><polygon fill="#A80036" points="111.875,261.2695,99.375,266.2695,111.875,271.2695,106.875,266.2695" style="stroke:#A80036;stroke-width:1.25;"/><line style="stroke:#A80036;stroke-width:1.25;stroke-dasharray:2.0,2.0;" x1="104.375" x2="414.375" y1="266.2695" y2="266.2695"/><text fill="#000000" font-family="sans-serif" font-size="16.25" font-weight="bold" lengthAdjust="spacing" textLength="8.75" x="119.375" y="260.199">4</text><text fill="#000000" font-family="sans-serif" font-size="16.25" lengthAdjust="spacing" textLength="273.75" x="133.125" y="260.199">requests number of samples to record</text><polygon fill="#A80036" points="400.625,299.209,413.125,304.209,400.625,309.209,405.625,304.209" style="stroke:#A80036;stroke-width:1.25;"/><line style="stroke:#A80036;stroke-width:1.25;" x1="98.125" x2="408.125" y1="304.209" y2="304.209"/><text fill="#000000" font-family="sans-serif" font-size="16.25" font-weight="bold" lengthAdjust="spacing" textLength="8.75" x="106.875" y="298.1384">5</text><text fill="#000000" font-family="sans-serif" font-size="16.25" lengthAdjust="spacing" textLength="247.5" x="120.625" y="298.1384">gives number of samples to record</text><polygon fill="#A80036" points="111.875,337.1484,99.375,342.1484,111.875,347.1484,106.875,342.1484" style="stroke:#A80036;stroke-width:1.25;"/><line style="stroke:#A80036;stroke-width:1.25;stroke-dasharray:2.0,2.0;" x1="104.375" x2="414.375" y1="342.1484" y2="342.1484"/><text fill="#000000" font-family="sans-serif" font-size="16.25" font-weight="bold" lengthAdjust="spacing" textLength="8.75" x="119.375" y="336.0779">6</text><text fill="#000000" font-family="sans-serif" font-size="16.25" lengthAdjust="spacing" textLength="0" x="138.125" y="336.0779"/><!--MD5=[02ed92792addc397dc002b8129d9535b]
@startuml

autonumber

actor MedicalLabTechnician as mlt
participant ":System" as sys
mlt -> sys: records a new sample collected
sys - -> mlt: requests test type
mlt -> sys: selects test type
sys - -> mlt: requests number of samples to record
mlt -> sys: gives number of samples to record
sys - -> mlt:

@enduml

PlantUML version 1.2021.4(Sun Apr 04 09:49:39 BST 2021)
(GPL source distribution)
Java Runtime: OpenJDK Runtime Environment
JVM: OpenJDK 64-Bit Server VM
Default Encoding: Cp1252
Language: pt
Country: PT
--></g></svg>