<?xml version="1.0" encoding="UTF-8" standalone="no"?><svg xmlns="http://www.w3.org/2000/svg" xmlns:xlink="http://www.w3.org/1999/xlink" contentScriptType="application/ecmascript" contentStyleType="text/css" height="438px" preserveAspectRatio="none" style="width:406px;height:438px;" version="1.1" viewBox="0 0 406 438" width="406px" zoomAndPan="magnify"><defs><filter height="300%" id="flfjjvdzgvei3" width="300%" x="-1" y="-1"><feGaussianBlur result="blurOut" stdDeviation="2.0"/><feColorMatrix in="blurOut" result="blurOut2" type="matrix" values="0 0 0 0 0 0 0 0 0 0 0 0 0 0 0 0 0 0 .4 0"/><feOffset dx="4.0" dy="4.0" in="blurOut2" result="blurOut3"/><feBlend in="SourceGraphic" in2="blurOut3" mode="normal"/></filter></defs><g><line style="stroke:#A80036;stroke-width:1.0;stroke-dasharray:5.0,5.0;" x1="78" x2="78" y1="89.6094" y2="352.4219"/><line style="stroke:#A80036;stroke-width:1.0;stroke-dasharray:5.0,5.0;" x1="362.5" x2="362.5" y1="89.6094" y2="352.4219"/><text fill="#000000" font-family="sans-serif" font-size="14" lengthAdjust="spacing" textLength="141" x="5" y="86.5332">MedicalLabTechnician</text><ellipse cx="78.5" cy="15" fill="#FEFECE" filter="url(#flfjjvdzgvei3)" rx="8" ry="8" style="stroke:#A80036;stroke-width:2.0;"/><path d="M78.5,23 L78.5,50 M65.5,31 L91.5,31 M78.5,50 L65.5,65 M78.5,50 L91.5,65 " fill="none" filter="url(#flfjjvdzgvei3)" style="stroke:#A80036;stroke-width:2.0;"/><text fill="#000000" font-family="sans-serif" font-size="14" lengthAdjust="spacing" textLength="141" x="5" y="365.9551">MedicalLabTechnician</text><ellipse cx="78.5" cy="379.0313" fill="#FEFECE" filter="url(#flfjjvdzgvei3)" rx="8" ry="8" style="stroke:#A80036;stroke-width:2.0;"/><path d="M78.5,387.0313 L78.5,414.0313 M65.5,395.0313 L91.5,395.0313 M78.5,414.0313 L65.5,429.0313 M78.5,414.0313 L91.5,429.0313 " fill="none" filter="url(#flfjjvdzgvei3)" style="stroke:#A80036;stroke-width:2.0;"/><rect fill="#FEFECE" filter="url(#flfjjvdzgvei3)" height="31.6094" style="stroke:#A80036;stroke-width:1.5;" width="64" x="328.5" y="53"/><text fill="#000000" font-family="sans-serif" font-size="14" lengthAdjust="spacing" textLength="50" x="335.5" y="74.5332">:System</text><rect fill="#FEFECE" filter="url(#flfjjvdzgvei3)" height="31.6094" style="stroke:#A80036;stroke-width:1.5;" width="64" x="328.5" y="351.4219"/><text fill="#000000" font-family="sans-serif" font-size="14" lengthAdjust="spacing" textLength="50" x="335.5" y="372.9551">:System</text><polygon fill="#A80036" points="350.5,117.9609,360.5,121.9609,350.5,125.9609,354.5,121.9609" style="stroke:#A80036;stroke-width:1.0;"/><line style="stroke:#A80036;stroke-width:1.0;" x1="78.5" x2="356.5" y1="121.9609" y2="121.9609"/><text fill="#000000" font-family="sans-serif" font-size="13" font-weight="bold" lengthAdjust="spacing" textLength="7" x="85.5" y="117.1045">1</text><text fill="#000000" font-family="sans-serif" font-size="13" lengthAdjust="spacing" textLength="249" x="96.5" y="117.1045">requests to record new collected sample(s)</text><polygon fill="#A80036" points="89.5,148.3125,79.5,152.3125,89.5,156.3125,85.5,152.3125" style="stroke:#A80036;stroke-width:1.0;"/><line style="stroke:#A80036;stroke-width:1.0;stroke-dasharray:2.0,2.0;" x1="83.5" x2="361.5" y1="152.3125" y2="152.3125"/><text fill="#000000" font-family="sans-serif" font-size="13" font-weight="bold" lengthAdjust="spacing" textLength="7" x="95.5" y="147.4561">2</text><text fill="#000000" font-family="sans-serif" font-size="13" lengthAdjust="spacing" textLength="105" x="106.5" y="147.4561">shows list of tests</text><polygon fill="#A80036" points="350.5,178.6641,360.5,182.6641,350.5,186.6641,354.5,182.6641" style="stroke:#A80036;stroke-width:1.0;"/><line style="stroke:#A80036;stroke-width:1.0;" x1="78.5" x2="356.5" y1="182.6641" y2="182.6641"/><text fill="#000000" font-family="sans-serif" font-size="13" font-weight="bold" lengthAdjust="spacing" textLength="7" x="85.5" y="177.8076">3</text><text fill="#000000" font-family="sans-serif" font-size="13" lengthAdjust="spacing" textLength="68" x="96.5" y="177.8076">selects test</text><polygon fill="#A80036" points="89.5,209.0156,79.5,213.0156,89.5,217.0156,85.5,213.0156" style="stroke:#A80036;stroke-width:1.0;"/><line style="stroke:#A80036;stroke-width:1.0;stroke-dasharray:2.0,2.0;" x1="83.5" x2="361.5" y1="213.0156" y2="213.0156"/><text fill="#000000" font-family="sans-serif" font-size="13" font-weight="bold" lengthAdjust="spacing" textLength="7" x="95.5" y="208.1592">4</text><text fill="#000000" font-family="sans-serif" font-size="13" lengthAdjust="spacing" textLength="219" x="106.5" y="208.1592">requests number of samples to record</text><polygon fill="#A80036" points="350.5,239.3672,360.5,243.3672,350.5,247.3672,354.5,243.3672" style="stroke:#A80036;stroke-width:1.0;"/><line style="stroke:#A80036;stroke-width:1.0;" x1="78.5" x2="356.5" y1="243.3672" y2="243.3672"/><text fill="#000000" font-family="sans-serif" font-size="13" font-weight="bold" lengthAdjust="spacing" textLength="7" x="85.5" y="238.5107">5</text><text fill="#000000" font-family="sans-serif" font-size="13" lengthAdjust="spacing" textLength="198" x="96.5" y="238.5107">gives number of samples to record</text><polygon fill="#A80036" points="89.5,269.7188,79.5,273.7188,89.5,277.7188,85.5,273.7188" style="stroke:#A80036;stroke-width:1.0;"/><line style="stroke:#A80036;stroke-width:1.0;stroke-dasharray:2.0,2.0;" x1="83.5" x2="361.5" y1="273.7188" y2="273.7188"/><text fill="#000000" font-family="sans-serif" font-size="13" font-weight="bold" lengthAdjust="spacing" textLength="7" x="95.5" y="268.8623">6</text><text fill="#000000" font-family="sans-serif" font-size="13" lengthAdjust="spacing" textLength="117" x="106.5" y="268.8623">request confirmation</text><polygon fill="#A80036" points="350.5,300.0703,360.5,304.0703,350.5,308.0703,354.5,304.0703" style="stroke:#A80036;stroke-width:1.0;"/><line style="stroke:#A80036;stroke-width:1.0;" x1="78.5" x2="356.5" y1="304.0703" y2="304.0703"/><text fill="#000000" font-family="sans-serif" font-size="13" font-weight="bold" lengthAdjust="spacing" textLength="7" x="85.5" y="299.2139">7</text><text fill="#000000" font-family="sans-serif" font-size="13" lengthAdjust="spacing" textLength="103" x="96.5" y="299.2139">gives confirmation</text><polygon fill="#A80036" points="89.5,330.4219,79.5,334.4219,89.5,338.4219,85.5,334.4219" style="stroke:#A80036;stroke-width:1.0;"/><line style="stroke:#A80036;stroke-width:1.0;stroke-dasharray:2.0,2.0;" x1="83.5" x2="361.5" y1="334.4219" y2="334.4219"/><text fill="#000000" font-family="sans-serif" font-size="13" font-weight="bold" lengthAdjust="spacing" textLength="7" x="95.5" y="329.5654">8</text><text fill="#000000" font-family="sans-serif" font-size="13" lengthAdjust="spacing" textLength="179" x="106.5" y="329.5654">shows (in)success of operation</text><!--MD5=[8c2048964e7730cbc64ea6729b594b9d]
@startuml

autonumber

actor MedicalLabTechnician as mlt
participant ":System" as sys
mlt -> sys: requests to record new collected sample(s)
sys - -> mlt: shows list of tests
mlt -> sys: selects test
sys - -> mlt: requests number of samples to record
mlt -> sys: gives number of samples to record
sys - -> mlt: request confirmation
mlt -> sys: gives confirmation
sys - -> mlt: shows (in)success of operation

@enduml

PlantUML version 1.2021.4(Sun Apr 04 09:49:39 BST 2021)
(GPL source distribution)
Java Runtime: OpenJDK Runtime Environment
JVM: OpenJDK 64-Bit Server VM
Default Encoding: Cp1252
Language: en
Country: US
--></g></svg>