<?xml version="1.0" encoding="UTF-8" standalone="no"?><svg xmlns="http://www.w3.org/2000/svg" xmlns:xlink="http://www.w3.org/1999/xlink" contentScriptType="application/ecmascript" contentStyleType="text/css" height="864px" preserveAspectRatio="none" style="width:1398px;height:864px;" version="1.1" viewBox="0 0 1398 864" width="1398px" zoomAndPan="magnify"><defs><filter height="300%" id="f16nxnaue5lfmq" width="300%" x="-1" y="-1"><feGaussianBlur result="blurOut" stdDeviation="2.0"/><feColorMatrix in="blurOut" result="blurOut2" type="matrix" values="0 0 0 0 0 0 0 0 0 0 0 0 0 0 0 0 0 0 .4 0"/><feOffset dx="4.0" dy="4.0" in="blurOut2" result="blurOut3"/><feBlend in="SourceGraphic" in2="blurOut3" mode="normal"/></filter></defs><g><rect fill="#FFFFFF" filter="url(#f16nxnaue5lfmq)" height="661.3828" style="stroke:#A80036;stroke-width:1.0;" width="10" x="73.5" y="99.6094"/><rect fill="#FFFFFF" filter="url(#f16nxnaue5lfmq)" height="151.7578" style="stroke:#A80036;stroke-width:1.0;" width="10" x="362.5" y="121.9609"/><rect fill="#FFFFFF" filter="url(#f16nxnaue5lfmq)" height="90.7031" style="stroke:#A80036;stroke-width:1.0;" width="10" x="362.5" y="304.0703"/><rect fill="#FFFFFF" filter="url(#f16nxnaue5lfmq)" height="30.3516" style="stroke:#A80036;stroke-width:1.0;" width="10" x="362.5" y="425.125"/><rect fill="#FFFFFF" filter="url(#f16nxnaue5lfmq)" height="275.1641" style="stroke:#A80036;stroke-width:1.0;" width="10" x="362.5" y="485.8281"/><rect fill="#FFFFFF" filter="url(#f16nxnaue5lfmq)" height="91.0547" style="stroke:#A80036;stroke-width:1.0;" width="10" x="552.5" y="152.3125"/><rect fill="#FFFFFF" filter="url(#f16nxnaue5lfmq)" height="328.5156" style="stroke:#A80036;stroke-width:1.0;" width="10" x="552.5" y="334.4219"/><rect fill="#FFFFFF" filter="url(#f16nxnaue5lfmq)" height="30.3516" style="stroke:#A80036;stroke-width:1.0;" width="10" x="665" y="182.6641"/><rect fill="#FFFFFF" filter="url(#f16nxnaue5lfmq)" height="30.3516" style="stroke:#A80036;stroke-width:1.0;" width="10" x="1011" y="602.2344"/><rect fill="#FFFFFF" filter="url(#f16nxnaue5lfmq)" height="30.3516" style="stroke:#A80036;stroke-width:1.0;" width="10" x="1099.5" y="662.9375"/><rect fill="#FFFFFF" filter="url(#f16nxnaue5lfmq)" height="184.1094" style="stroke:#A80036;stroke-width:1.0;" width="10" x="1319.5" y="546.5313"/><rect fill="#FFFFFF" filter="url(#f16nxnaue5lfmq)" height="139.7578" style="stroke:#000000;stroke-width:2.0;" width="900" x="484" y="561.5313"/><line style="stroke:#A80036;stroke-width:1.0;stroke-dasharray:5.0,5.0;" x1="78" x2="78" y1="89.6094" y2="778.9922"/><line style="stroke:#A80036;stroke-width:1.0;stroke-dasharray:5.0,5.0;" x1="367" x2="367" y1="89.6094" y2="778.9922"/><line style="stroke:#A80036;stroke-width:1.0;stroke-dasharray:5.0,5.0;" x1="557" x2="557" y1="89.6094" y2="778.9922"/><line style="stroke:#A80036;stroke-width:1.0;stroke-dasharray:5.0,5.0;" x1="670" x2="670" y1="89.6094" y2="778.9922"/><line style="stroke:#A80036;stroke-width:1.0;stroke-dasharray:5.0,5.0;" x1="812" x2="812" y1="89.6094" y2="778.9922"/><line style="stroke:#A80036;stroke-width:1.0;stroke-dasharray:5.0,5.0;" x1="911" x2="911" y1="89.6094" y2="778.9922"/><line style="stroke:#A80036;stroke-width:1.0;stroke-dasharray:5.0,5.0;" x1="1016" x2="1016" y1="89.6094" y2="778.9922"/><line style="stroke:#A80036;stroke-width:1.0;stroke-dasharray:5.0,5.0;" x1="1104" x2="1104" y1="89.6094" y2="778.9922"/><line style="stroke:#A80036;stroke-width:1.0;stroke-dasharray:5.0,5.0;" x1="1324" x2="1324" y1="89.6094" y2="778.9922"/><text fill="#000000" font-family="sans-serif" font-size="14" lengthAdjust="spacing" textLength="141" x="5" y="86.5332">MedicalLabTechnician</text><ellipse cx="78.5" cy="15" fill="#FEFECE" filter="url(#f16nxnaue5lfmq)" rx="8" ry="8" style="stroke:#A80036;stroke-width:2.0;"/><path d="M78.5,23 L78.5,50 M65.5,31 L91.5,31 M78.5,50 L65.5,65 M78.5,50 L91.5,65 " fill="none" filter="url(#f16nxnaue5lfmq)" style="stroke:#A80036;stroke-width:2.0;"/><text fill="#000000" font-family="sans-serif" font-size="14" lengthAdjust="spacing" textLength="141" x="5" y="792.5254">MedicalLabTechnician</text><ellipse cx="78.5" cy="805.6016" fill="#FEFECE" filter="url(#f16nxnaue5lfmq)" rx="8" ry="8" style="stroke:#A80036;stroke-width:2.0;"/><path d="M78.5,813.6016 L78.5,840.6016 M65.5,821.6016 L91.5,821.6016 M78.5,840.6016 L65.5,855.6016 M78.5,840.6016 L91.5,855.6016 " fill="none" filter="url(#f16nxnaue5lfmq)" style="stroke:#A80036;stroke-width:2.0;"/><rect fill="#FEFECE" filter="url(#f16nxnaue5lfmq)" height="31.6094" style="stroke:#A80036;stroke-width:1.5;" width="73" x="329" y="53"/><text fill="#000000" font-family="sans-serif" font-size="14" lengthAdjust="spacing" textLength="59" x="336" y="74.5332">SampleUI</text><rect fill="#FEFECE" filter="url(#f16nxnaue5lfmq)" height="31.6094" style="stroke:#A80036;stroke-width:1.5;" width="73" x="329" y="777.9922"/><text fill="#000000" font-family="sans-serif" font-size="14" lengthAdjust="spacing" textLength="59" x="336" y="799.5254">SampleUI</text><rect fill="#FEFECE" filter="url(#f16nxnaue5lfmq)" height="31.6094" style="stroke:#A80036;stroke-width:1.5;" width="123" x="494" y="53"/><text fill="#000000" font-family="sans-serif" font-size="14" lengthAdjust="spacing" textLength="109" x="501" y="74.5332">SampleController</text><rect fill="#FEFECE" filter="url(#f16nxnaue5lfmq)" height="31.6094" style="stroke:#A80036;stroke-width:1.5;" width="123" x="494" y="777.9922"/><text fill="#000000" font-family="sans-serif" font-size="14" lengthAdjust="spacing" textLength="109" x="501" y="799.5254">SampleController</text><rect fill="#FEFECE" filter="url(#f16nxnaue5lfmq)" height="31.6094" style="stroke:#A80036;stroke-width:1.5;" width="74" x="631" y="53"/><text fill="#000000" font-family="sans-serif" font-size="14" lengthAdjust="spacing" textLength="60" x="638" y="74.5332">Company</text><rect fill="#FEFECE" filter="url(#f16nxnaue5lfmq)" height="31.6094" style="stroke:#A80036;stroke-width:1.5;" width="74" x="631" y="777.9922"/><text fill="#000000" font-family="sans-serif" font-size="14" lengthAdjust="spacing" textLength="60" x="638" y="799.5254">Company</text><rect fill="#FEFECE" filter="url(#f16nxnaue5lfmq)" height="31.6094" style="stroke:#A80036;stroke-width:1.5;" width="76" x="772" y="53"/><text fill="#000000" font-family="sans-serif" font-size="14" lengthAdjust="spacing" textLength="62" x="779" y="74.5332">TestStore</text><rect fill="#FEFECE" filter="url(#f16nxnaue5lfmq)" height="31.6094" style="stroke:#A80036;stroke-width:1.5;" width="76" x="772" y="777.9922"/><text fill="#000000" font-family="sans-serif" font-size="14" lengthAdjust="spacing" textLength="62" x="779" y="799.5254">TestStore</text><rect fill="#FEFECE" filter="url(#f16nxnaue5lfmq)" height="31.6094" style="stroke:#A80036;stroke-width:1.5;" width="94" x="862" y="53"/><text fill="#000000" font-family="sans-serif" font-size="14" lengthAdjust="spacing" textLength="80" x="869" y="74.5332">:TestMapper</text><rect fill="#FEFECE" filter="url(#f16nxnaue5lfmq)" height="31.6094" style="stroke:#A80036;stroke-width:1.5;" width="94" x="862" y="777.9922"/><text fill="#000000" font-family="sans-serif" font-size="14" lengthAdjust="spacing" textLength="80" x="869" y="799.5254">:TestMapper</text><rect fill="#FEFECE" filter="url(#f16nxnaue5lfmq)" height="31.6094" style="stroke:#A80036;stroke-width:1.5;" width="88" x="970" y="53"/><text fill="#000000" font-family="sans-serif" font-size="14" lengthAdjust="spacing" textLength="74" x="977" y="74.5332">BarcodeAPI</text><rect fill="#FEFECE" filter="url(#f16nxnaue5lfmq)" height="31.6094" style="stroke:#A80036;stroke-width:1.5;" width="88" x="970" y="777.9922"/><text fill="#000000" font-family="sans-serif" font-size="14" lengthAdjust="spacing" textLength="74" x="977" y="799.5254">BarcodeAPI</text><rect fill="#FEFECE" filter="url(#f16nxnaue5lfmq)" height="31.6094" style="stroke:#A80036;stroke-width:1.5;" width="61" x="1072" y="53"/><text fill="#000000" font-family="sans-serif" font-size="14" lengthAdjust="spacing" textLength="47" x="1079" y="74.5332">Sample</text><rect fill="#FEFECE" filter="url(#f16nxnaue5lfmq)" height="31.6094" style="stroke:#A80036;stroke-width:1.5;" width="61" x="1072" y="777.9922"/><text fill="#000000" font-family="sans-serif" font-size="14" lengthAdjust="spacing" textLength="47" x="1079" y="799.5254">Sample</text><rect fill="#FEFECE" filter="url(#f16nxnaue5lfmq)" height="31.6094" style="stroke:#A80036;stroke-width:1.5;" width="95" x="1275" y="53"/><text fill="#000000" font-family="sans-serif" font-size="14" lengthAdjust="spacing" textLength="81" x="1282" y="74.5332">SampleStore</text><rect fill="#FEFECE" filter="url(#f16nxnaue5lfmq)" height="31.6094" style="stroke:#A80036;stroke-width:1.5;" width="95" x="1275" y="777.9922"/><text fill="#000000" font-family="sans-serif" font-size="14" lengthAdjust="spacing" textLength="81" x="1282" y="799.5254">SampleStore</text><rect fill="#FFFFFF" filter="url(#f16nxnaue5lfmq)" height="661.3828" style="stroke:#A80036;stroke-width:1.0;" width="10" x="73.5" y="99.6094"/><rect fill="#FFFFFF" filter="url(#f16nxnaue5lfmq)" height="151.7578" style="stroke:#A80036;stroke-width:1.0;" width="10" x="362.5" y="121.9609"/><rect fill="#FFFFFF" filter="url(#f16nxnaue5lfmq)" height="90.7031" style="stroke:#A80036;stroke-width:1.0;" width="10" x="362.5" y="304.0703"/><rect fill="#FFFFFF" filter="url(#f16nxnaue5lfmq)" height="30.3516" style="stroke:#A80036;stroke-width:1.0;" width="10" x="362.5" y="425.125"/><rect fill="#FFFFFF" filter="url(#f16nxnaue5lfmq)" height="275.1641" style="stroke:#A80036;stroke-width:1.0;" width="10" x="362.5" y="485.8281"/><rect fill="#FFFFFF" filter="url(#f16nxnaue5lfmq)" height="91.0547" style="stroke:#A80036;stroke-width:1.0;" width="10" x="552.5" y="152.3125"/><rect fill="#FFFFFF" filter="url(#f16nxnaue5lfmq)" height="328.5156" style="stroke:#A80036;stroke-width:1.0;" width="10" x="552.5" y="334.4219"/><rect fill="#FFFFFF" filter="url(#f16nxnaue5lfmq)" height="30.3516" style="stroke:#A80036;stroke-width:1.0;" width="10" x="665" y="182.6641"/><rect fill="#FFFFFF" filter="url(#f16nxnaue5lfmq)" height="30.3516" style="stroke:#A80036;stroke-width:1.0;" width="10" x="1011" y="602.2344"/><rect fill="#FFFFFF" filter="url(#f16nxnaue5lfmq)" height="30.3516" style="stroke:#A80036;stroke-width:1.0;" width="10" x="1099.5" y="662.9375"/><rect fill="#FFFFFF" filter="url(#f16nxnaue5lfmq)" height="184.1094" style="stroke:#A80036;stroke-width:1.0;" width="10" x="1319.5" y="546.5313"/><polygon fill="#A80036" points="350.5,117.9609,360.5,121.9609,350.5,125.9609,354.5,121.9609" style="stroke:#A80036;stroke-width:1.0;"/><line style="stroke:#A80036;stroke-width:1.0;" x1="83.5" x2="356.5" y1="121.9609" y2="121.9609"/><text fill="#000000" font-family="sans-serif" font-size="13" font-weight="bold" lengthAdjust="spacing" textLength="7" x="90.5" y="117.1045">1</text><text fill="#000000" font-family="sans-serif" font-size="13" lengthAdjust="spacing" textLength="249" x="101.5" y="117.1045">requests to record new collected sample(s)</text><polygon fill="#A80036" points="540.5,148.3125,550.5,152.3125,540.5,156.3125,544.5,152.3125" style="stroke:#A80036;stroke-width:1.0;"/><line style="stroke:#A80036;stroke-width:1.0;" x1="372.5" x2="546.5" y1="152.3125" y2="152.3125"/><text fill="#000000" font-family="sans-serif" font-size="13" font-weight="bold" lengthAdjust="spacing" textLength="7" x="379.5" y="147.4561">2</text><text fill="#000000" font-family="sans-serif" font-size="13" lengthAdjust="spacing" textLength="72" x="390.5" y="147.4561">getTestList()</text><polygon fill="#A80036" points="653,178.6641,663,182.6641,653,186.6641,657,182.6641" style="stroke:#A80036;stroke-width:1.0;"/><line style="stroke:#A80036;stroke-width:1.0;" x1="562.5" x2="659" y1="182.6641" y2="182.6641"/><text fill="#000000" font-family="sans-serif" font-size="13" font-weight="bold" lengthAdjust="spacing" textLength="7" x="569.5" y="177.8076">3</text><text fill="#000000" font-family="sans-serif" font-size="13" lengthAdjust="spacing" textLength="72" x="580.5" y="177.8076">getTestList()</text><polygon fill="#A80036" points="800,209.0156,810,213.0156,800,217.0156,804,213.0156" style="stroke:#A80036;stroke-width:1.0;"/><line style="stroke:#A80036;stroke-width:1.0;" x1="670" x2="806" y1="213.0156" y2="213.0156"/><text fill="#000000" font-family="sans-serif" font-size="13" font-weight="bold" lengthAdjust="spacing" textLength="7" x="677" y="208.1592">4</text><text fill="#000000" font-family="sans-serif" font-size="13" lengthAdjust="spacing" textLength="102" x="688" y="208.1592">getUnusedTests()</text><polygon fill="#A80036" points="899,239.3672,909,243.3672,899,247.3672,903,243.3672" style="stroke:#A80036;stroke-width:1.0;"/><line style="stroke:#A80036;stroke-width:1.0;" x1="557.5" x2="905" y1="243.3672" y2="243.3672"/><text fill="#000000" font-family="sans-serif" font-size="13" font-weight="bold" lengthAdjust="spacing" textLength="7" x="564.5" y="238.5107">5</text><text fill="#000000" font-family="sans-serif" font-size="13" lengthAdjust="spacing" textLength="87" x="575.5" y="238.5107">toDTO(listTest)</text><polygon fill="#A80036" points="94.5,269.7188,84.5,273.7188,94.5,277.7188,90.5,273.7188" style="stroke:#A80036;stroke-width:1.0;"/><line style="stroke:#A80036;stroke-width:1.0;stroke-dasharray:2.0,2.0;" x1="88.5" x2="366.5" y1="273.7188" y2="273.7188"/><text fill="#000000" font-family="sans-serif" font-size="13" font-weight="bold" lengthAdjust="spacing" textLength="7" x="100.5" y="268.8623">6</text><text fill="#000000" font-family="sans-serif" font-size="13" lengthAdjust="spacing" textLength="105" x="111.5" y="268.8623">shows list of tests</text><polygon fill="#A80036" points="350.5,300.0703,360.5,304.0703,350.5,308.0703,354.5,304.0703" style="stroke:#A80036;stroke-width:1.0;"/><line style="stroke:#A80036;stroke-width:1.0;" x1="83.5" x2="356.5" y1="304.0703" y2="304.0703"/><text fill="#000000" font-family="sans-serif" font-size="13" font-weight="bold" lengthAdjust="spacing" textLength="7" x="90.5" y="299.2139">7</text><text fill="#000000" font-family="sans-serif" font-size="13" lengthAdjust="spacing" textLength="68" x="101.5" y="299.2139">selects test</text><polygon fill="#A80036" points="540.5,330.4219,550.5,334.4219,540.5,338.4219,544.5,334.4219" style="stroke:#A80036;stroke-width:1.0;"/><line style="stroke:#A80036;stroke-width:1.0;" x1="372.5" x2="546.5" y1="334.4219" y2="334.4219"/><text fill="#000000" font-family="sans-serif" font-size="13" font-weight="bold" lengthAdjust="spacing" textLength="7" x="379.5" y="329.5654">8</text><text fill="#000000" font-family="sans-serif" font-size="13" lengthAdjust="spacing" textLength="150" x="390.5" y="329.5654">selectTestCode(testCode)</text><polygon fill="#A80036" points="94.5,390.7734,84.5,394.7734,94.5,398.7734,90.5,394.7734" style="stroke:#A80036;stroke-width:1.0;"/><line style="stroke:#A80036;stroke-width:1.0;stroke-dasharray:2.0,2.0;" x1="88.5" x2="366.5" y1="394.7734" y2="394.7734"/><text fill="#000000" font-family="sans-serif" font-size="13" font-weight="bold" lengthAdjust="spacing" textLength="7" x="100.5" y="389.917">9</text><text fill="#000000" font-family="sans-serif" font-size="13" lengthAdjust="spacing" textLength="219" x="111.5" y="389.917">requests number of samples to record</text><polygon fill="#A80036" points="350.5,421.125,360.5,425.125,350.5,429.125,354.5,425.125" style="stroke:#A80036;stroke-width:1.0;"/><line style="stroke:#A80036;stroke-width:1.0;" x1="83.5" x2="356.5" y1="425.125" y2="425.125"/><text fill="#000000" font-family="sans-serif" font-size="13" font-weight="bold" lengthAdjust="spacing" textLength="14" x="90.5" y="420.2686">10</text><text fill="#000000" font-family="sans-serif" font-size="13" lengthAdjust="spacing" textLength="198" x="108.5" y="420.2686">gives number of samples to record</text><polygon fill="#A80036" points="94.5,451.4766,84.5,455.4766,94.5,459.4766,90.5,455.4766" style="stroke:#A80036;stroke-width:1.0;"/><line style="stroke:#A80036;stroke-width:1.0;stroke-dasharray:2.0,2.0;" x1="88.5" x2="366.5" y1="455.4766" y2="455.4766"/><text fill="#000000" font-family="sans-serif" font-size="13" font-weight="bold" lengthAdjust="spacing" textLength="14" x="100.5" y="450.6201">11</text><text fill="#000000" font-family="sans-serif" font-size="13" lengthAdjust="spacing" textLength="117" x="118.5" y="450.6201">request confirmation</text><polygon fill="#A80036" points="350.5,481.8281,360.5,485.8281,350.5,489.8281,354.5,485.8281" style="stroke:#A80036;stroke-width:1.0;"/><line style="stroke:#A80036;stroke-width:1.0;" x1="83.5" x2="356.5" y1="485.8281" y2="485.8281"/><text fill="#000000" font-family="sans-serif" font-size="13" font-weight="bold" lengthAdjust="spacing" textLength="14" x="90.5" y="480.9717">12</text><text fill="#000000" font-family="sans-serif" font-size="13" lengthAdjust="spacing" textLength="103" x="108.5" y="480.9717">gives confirmation</text><polygon fill="#A80036" points="540.5,512.1797,550.5,516.1797,540.5,520.1797,544.5,516.1797" style="stroke:#A80036;stroke-width:1.0;"/><line style="stroke:#A80036;stroke-width:1.0;" x1="372.5" x2="546.5" y1="516.1797" y2="516.1797"/><text fill="#000000" font-family="sans-serif" font-size="13" font-weight="bold" lengthAdjust="spacing" textLength="14" x="379.5" y="511.3232">13</text><text fill="#000000" font-family="sans-serif" font-size="13" lengthAdjust="spacing" textLength="122" x="397.5" y="511.3232">setSampleNumber(n)</text><polygon fill="#A80036" points="1307.5,542.5313,1317.5,546.5313,1307.5,550.5313,1311.5,546.5313" style="stroke:#A80036;stroke-width:1.0;"/><line style="stroke:#A80036;stroke-width:1.0;" x1="562.5" x2="1313.5" y1="546.5313" y2="546.5313"/><text fill="#000000" font-family="sans-serif" font-size="13" font-weight="bold" lengthAdjust="spacing" textLength="14" x="569.5" y="541.6748">14</text><text fill="#000000" font-family="sans-serif" font-size="13" lengthAdjust="spacing" textLength="133" x="587.5" y="541.6748">setTestCode(testCode)</text><path d="M484,561.5313 L557,561.5313 L557,569.5313 L547,579.5313 L484,579.5313 L484,561.5313 " fill="#EEEEEE" style="stroke:#000000;stroke-width:1.0;"/><rect fill="none" height="139.7578" style="stroke:#000000;stroke-width:2.0;" width="900" x="484" y="561.5313"/><text fill="#000000" font-family="sans-serif" font-size="13" font-weight="bold" lengthAdjust="spacing" textLength="28" x="499" y="576.0264">loop</text><text fill="#000000" font-family="sans-serif" font-size="11" font-weight="bold" lengthAdjust="spacing" textLength="96" x="572" y="574.9502">[loop for n times]</text><polygon fill="#A80036" points="999,598.2344,1009,602.2344,999,606.2344,1003,602.2344" style="stroke:#A80036;stroke-width:1.0;"/><line style="stroke:#A80036;stroke-width:1.0;" x1="562.5" x2="1005" y1="602.2344" y2="602.2344"/><text fill="#000000" font-family="sans-serif" font-size="13" font-weight="bold" lengthAdjust="spacing" textLength="14" x="569.5" y="597.3779">15</text><text fill="#000000" font-family="sans-serif" font-size="13" lengthAdjust="spacing" textLength="106" x="587.5" y="597.3779">generateBarcode()</text><polygon fill="#A80036" points="573.5,628.5859,563.5,632.5859,573.5,636.5859,569.5,632.5859" style="stroke:#A80036;stroke-width:1.0;"/><line style="stroke:#A80036;stroke-width:1.0;" x1="567.5" x2="1015" y1="632.5859" y2="632.5859"/><text fill="#000000" font-family="sans-serif" font-size="13" font-weight="bold" lengthAdjust="spacing" textLength="14" x="579.5" y="627.7295">16</text><text fill="#000000" font-family="sans-serif" font-size="13" lengthAdjust="spacing" textLength="125" x="597.5" y="627.7295">newBarcode(barcode)</text><polygon fill="#A80036" points="1087.5,658.9375,1097.5,662.9375,1087.5,666.9375,1091.5,662.9375" style="stroke:#A80036;stroke-width:1.0;"/><line style="stroke:#A80036;stroke-width:1.0;" x1="557.5" x2="1093.5" y1="662.9375" y2="662.9375"/><text fill="#000000" font-family="sans-serif" font-size="13" font-weight="bold" lengthAdjust="spacing" textLength="14" x="564.5" y="658.0811">17</text><text fill="#000000" font-family="sans-serif" font-size="13" lengthAdjust="spacing" textLength="164" x="582.5" y="658.0811">cs = createSample(barcode)</text><polygon fill="#A80036" points="1307.5,689.2891,1317.5,693.2891,1307.5,697.2891,1311.5,693.2891" style="stroke:#A80036;stroke-width:1.0;"/><line style="stroke:#A80036;stroke-width:1.0;" x1="1104.5" x2="1313.5" y1="693.2891" y2="693.2891"/><text fill="#000000" font-family="sans-serif" font-size="13" font-weight="bold" lengthAdjust="spacing" textLength="14" x="1111.5" y="688.4326">18</text><text fill="#000000" font-family="sans-serif" font-size="13" lengthAdjust="spacing" textLength="168" x="1129.5" y="688.4326">saveSample(Sample sample)</text><polygon fill="#A80036" points="823,726.6406,813,730.6406,823,734.6406,819,730.6406" style="stroke:#A80036;stroke-width:1.0;"/><line style="stroke:#A80036;stroke-width:1.0;" x1="817" x2="1323.5" y1="730.6406" y2="730.6406"/><text fill="#000000" font-family="sans-serif" font-size="13" font-weight="bold" lengthAdjust="spacing" textLength="14" x="829" y="725.7842">19</text><text fill="#000000" font-family="sans-serif" font-size="13" lengthAdjust="spacing" textLength="155" x="847" y="725.7842">mudar estado do test used</text><polygon fill="#A80036" points="89.5,756.9922,79.5,760.9922,89.5,764.9922,85.5,760.9922" style="stroke:#A80036;stroke-width:1.0;"/><line style="stroke:#A80036;stroke-width:1.0;stroke-dasharray:2.0,2.0;" x1="83.5" x2="366.5" y1="760.9922" y2="760.9922"/><text fill="#000000" font-family="sans-serif" font-size="13" font-weight="bold" lengthAdjust="spacing" textLength="14" x="95.5" y="756.1357">20</text><text fill="#000000" font-family="sans-serif" font-size="13" lengthAdjust="spacing" textLength="179" x="113.5" y="756.1357">shows (in)success of operation</text><!--MD5=[834508c04722802ac4412ffee6ef52bd]
@startuml

autonumber

actor MedicalLabTechnician as mlt
participant SampleUI as UI
participant SampleController as Controller
participant Company
participant TestStore
participant ":TestMapper" as TestMapper
participant BarcodeAPI as API
participant Sample
participant SampleStore

activate mlt
mlt -> UI: requests to record new collected sample(s)
activate UI
UI -> Controller: getTestList()
activate Controller
Controller -> Company: getTestList()
activate Company
Company -> TestStore: getUnusedTests()
deactivate Company
Controller -> TestMapper: toDTO(listTest)
deactivate Controller
deactivate Company
UI - -> mlt: shows list of tests
deactivate UI
mlt -> UI: selects test
activate UI
UI -> Controller: selectTestCode(testCode)
activate Controller
deactivate Company
UI - -> mlt: requests number of samples to record
deactivate UI
mlt -> UI: gives number of samples to record
activate UI
UI - -> mlt: request confirmation
deactivate UI
mlt -> UI: gives confirmation
activate UI

UI -> Controller: setSampleNumber(n)
Controller -> SampleStore: setTestCode(testCode)
activate SampleStore
loop loop for n times
Controller -> API: generateBarcode()
activate API
API -> Controller: newBarcode(barcode)
deactivate API
Controller -> Sample: cs = createSample(barcode)
deactivate Controller
activate Sample
Sample -> SampleStore: saveSample(Sample sample)
deactivate Sample
end loop
SampleStore -> TestStore: mudar estado do test used
deactivate SampleStore
UI - -> mlt: shows (in)success of operation
deactivate UI
deactivate mlt

@enduml

PlantUML version 1.2021.4(Sun Apr 04 09:49:39 BST 2021)
(GPL source distribution)
Java Runtime: OpenJDK Runtime Environment
JVM: OpenJDK 64-Bit Server VM
Default Encoding: Cp1252
Language: en
Country: US
--></g></svg>