<?xml version="1.0" encoding="UTF-8" standalone="no"?><svg xmlns="http://www.w3.org/2000/svg" xmlns:xlink="http://www.w3.org/1999/xlink" contentScriptType="application/ecmascript" contentStyleType="text/css" height="418.75px" preserveAspectRatio="none" style="width:362px;height:418px;" version="1.1" viewBox="0 0 362 418" width="362.5px" zoomAndPan="magnify"><defs><filter height="300%" id="f1dbgn2ozabcc2" width="300%" x="-1" y="-1"><feGaussianBlur result="blurOut" stdDeviation="2.5"/><feColorMatrix in="blurOut" result="blurOut2" type="matrix" values="0 0 0 0 0 0 0 0 0 0 0 0 0 0 0 0 0 0 .4 0"/><feOffset dx="5.0" dy="5.0" in="blurOut2" result="blurOut3"/><feBlend in="SourceGraphic" in2="blurOut3" mode="normal"/></filter></defs><g><!--MD5=[01931d41e78f8996acd44f6f0fd8de28]
class MedicalLabTechnician--><rect codeLine="2" fill="#FEFECE" filter="url(#f1dbgn2ozabcc2)" height="60" id="MedicalLabTechnician" style="stroke:#A80036;stroke-width:1.875;" width="193.75" x="8.75" y="8.75"/><ellipse cx="27.5" cy="28.75" fill="#ADD1B2" rx="13.75" ry="13.75" style="stroke:#A80036;stroke-width:1.25;"/><path d="M30,24.375 Q30.2539,23.75 30.5469,23.4375 Q30.8398,23.125 31.1719,23.125 Q31.7578,23.125 32.1289,23.4766 Q32.5,23.8281 32.5,24.6484 L32.5,26.6016 Q32.5,27.4219 32.1484,27.7734 Q31.7969,28.125 31.25,28.125 Q30.7617,28.125 30.4492,27.9102 Q30.1367,27.6953 30,27.1289 Q29.9414,26.7383 29.7266,26.5234 Q29.3359,26.1133 28.6328,25.8789 Q27.9297,25.625 27.2266,25.625 Q26.3477,25.625 25.6055,25.9766 Q24.8828,26.3281 24.3164,27.1094 Q23.75,27.8906 23.75,28.9648 L23.75,30.1172 Q23.75,31.4063 24.8047,32.2656 Q25.8594,33.125 27.7344,33.125 Q28.8477,33.125 29.6289,32.8711 Q30.0781,32.7344 30.5859,32.2852 Q30.918,32.0313 31.0938,31.9531 Q31.2695,31.875 31.4844,31.875 Q31.8945,31.875 32.1875,32.207 Q32.5,32.5195 32.5,32.9688 Q32.5,33.3984 32.0703,33.9063 Q31.4453,34.6484 30.4492,35.0586 Q29.1406,35.625 27.5391,35.625 Q25.6641,35.625 24.1602,34.8828 Q22.9492,34.2969 22.0898,33.0273 Q21.25,31.7578 21.25,30.2539 L21.25,28.8867 Q21.25,27.3242 21.9922,25.957 Q22.7539,24.5898 24.0625,23.8672 Q25.3906,23.125 26.875,23.125 Q27.7734,23.125 28.5547,23.4375 Q29.3359,23.75 30,24.375 Z " fill="#000000"/><text fill="#000000" font-family="sans-serif" font-size="15" lengthAdjust="spacing" textLength="153.75" x="45" y="34.8877">MedicalLabTechnician</text><line style="stroke:#A80036;stroke-width:1.875;" x1="10" x2="201.25" y1="48.75" y2="48.75"/><line style="stroke:#A80036;stroke-width:1.875;" x1="10" x2="201.25" y1="58.75" y2="58.75"/><!--MD5=[9681492165142af2a4a3a169d90ee8d4]
class Sample--><rect codeLine="3" fill="#FEFECE" filter="url(#f1dbgn2ozabcc2)" height="77.2949" id="Sample" style="stroke:#A80036;stroke-width:1.875;" width="93.75" x="146.25" y="166.25"/><ellipse cx="165" cy="186.25" fill="#ADD1B2" rx="13.75" ry="13.75" style="stroke:#A80036;stroke-width:1.25;"/><path d="M167.5,181.875 Q167.7539,181.25 168.0469,180.9375 Q168.3398,180.625 168.6719,180.625 Q169.2578,180.625 169.6289,180.9766 Q170,181.3281 170,182.1484 L170,184.1016 Q170,184.9219 169.6484,185.2734 Q169.2969,185.625 168.75,185.625 Q168.2617,185.625 167.9492,185.4102 Q167.6367,185.1953 167.5,184.6289 Q167.4414,184.2383 167.2266,184.0234 Q166.8359,183.6133 166.1328,183.3789 Q165.4297,183.125 164.7266,183.125 Q163.8477,183.125 163.1055,183.4766 Q162.3828,183.8281 161.8164,184.6094 Q161.25,185.3906 161.25,186.4648 L161.25,187.6172 Q161.25,188.9063 162.3047,189.7656 Q163.3594,190.625 165.2344,190.625 Q166.3477,190.625 167.1289,190.3711 Q167.5781,190.2344 168.0859,189.7852 Q168.418,189.5313 168.5938,189.4531 Q168.7695,189.375 168.9844,189.375 Q169.3945,189.375 169.6875,189.707 Q170,190.0195 170,190.4688 Q170,190.8984 169.5703,191.4063 Q168.9453,192.1484 167.9492,192.5586 Q166.6406,193.125 165.0391,193.125 Q163.1641,193.125 161.6602,192.3828 Q160.4492,191.7969 159.5898,190.5273 Q158.75,189.2578 158.75,187.7539 L158.75,186.3867 Q158.75,184.8242 159.4922,183.457 Q160.2539,182.0898 161.5625,181.3672 Q162.8906,180.625 164.375,180.625 Q165.2734,180.625 166.0547,180.9375 Q166.8359,181.25 167.5,181.875 Z " fill="#000000"/><text fill="#000000" font-family="sans-serif" font-size="15" lengthAdjust="spacing" textLength="53.75" x="182.5" y="192.3877">Sample</text><line style="stroke:#A80036;stroke-width:1.875;" x1="147.5" x2="238.75" y1="206.25" y2="206.25"/><rect fill="none" height="7.5" style="stroke:#C82930;stroke-width:1.25;" width="7.5" x="156.25" y="216.25"/><text fill="#000000" font-family="sans-serif" font-size="13.75" lengthAdjust="spacing" textLength="50" x="171.25" y="225.5237">barcode</text><line style="stroke:#A80036;stroke-width:1.875;" x1="147.5" x2="238.75" y1="233.5449" y2="233.5449"/><!--MD5=[e671f3231fffda95da92cdb61ed3f059]
class BarcodeAPI--><rect codeLine="6" fill="#FEFECE" filter="url(#f1dbgn2ozabcc2)" height="60" id="BarcodeAPI" style="stroke:#A80036;stroke-width:1.875;" width="120" x="55.625" y="341.25"/><ellipse cx="74.375" cy="361.25" fill="#ADD1B2" rx="13.75" ry="13.75" style="stroke:#A80036;stroke-width:1.25;"/><path d="M76.875,356.875 Q77.1289,356.25 77.4219,355.9375 Q77.7148,355.625 78.0469,355.625 Q78.6328,355.625 79.0039,355.9766 Q79.375,356.3281 79.375,357.1484 L79.375,359.1016 Q79.375,359.9219 79.0234,360.2734 Q78.6719,360.625 78.125,360.625 Q77.6367,360.625 77.3242,360.4102 Q77.0117,360.1953 76.875,359.6289 Q76.8164,359.2383 76.6016,359.0234 Q76.2109,358.6133 75.5078,358.3789 Q74.8047,358.125 74.1016,358.125 Q73.2227,358.125 72.4805,358.4766 Q71.7578,358.8281 71.1914,359.6094 Q70.625,360.3906 70.625,361.4648 L70.625,362.6172 Q70.625,363.9063 71.6797,364.7656 Q72.7344,365.625 74.6094,365.625 Q75.7227,365.625 76.5039,365.3711 Q76.9531,365.2344 77.4609,364.7852 Q77.793,364.5313 77.9688,364.4531 Q78.1445,364.375 78.3594,364.375 Q78.7695,364.375 79.0625,364.707 Q79.375,365.0195 79.375,365.4688 Q79.375,365.8984 78.9453,366.4063 Q78.3203,367.1484 77.3242,367.5586 Q76.0156,368.125 74.4141,368.125 Q72.5391,368.125 71.0352,367.3828 Q69.8242,366.7969 68.9648,365.5273 Q68.125,364.2578 68.125,362.7539 L68.125,361.3867 Q68.125,359.8242 68.8672,358.457 Q69.6289,357.0898 70.9375,356.3672 Q72.2656,355.625 73.75,355.625 Q74.6484,355.625 75.4297,355.9375 Q76.2109,356.25 76.875,356.875 Z " fill="#000000"/><text fill="#000000" font-family="sans-serif" font-size="15" lengthAdjust="spacing" textLength="80" x="91.875" y="367.3877">BarcodeAPI</text><line style="stroke:#A80036;stroke-width:1.875;" x1="56.875" x2="174.375" y1="381.25" y2="381.25"/><line style="stroke:#A80036;stroke-width:1.875;" x1="56.875" x2="174.375" y1="391.25" y2="391.25"/><!--MD5=[ed6624c6556d5e7b1bd23032162d20b7]
class Client--><rect codeLine="7" fill="#FEFECE" filter="url(#f1dbgn2ozabcc2)" height="60" id="Client" style="stroke:#A80036;stroke-width:1.875;" width="80" x="230.625" y="341.25"/><ellipse cx="249.375" cy="361.25" fill="#ADD1B2" rx="13.75" ry="13.75" style="stroke:#A80036;stroke-width:1.25;"/><path d="M251.875,356.875 Q252.1289,356.25 252.4219,355.9375 Q252.7148,355.625 253.0469,355.625 Q253.6328,355.625 254.0039,355.9766 Q254.375,356.3281 254.375,357.1484 L254.375,359.1016 Q254.375,359.9219 254.0234,360.2734 Q253.6719,360.625 253.125,360.625 Q252.6367,360.625 252.3242,360.4102 Q252.0117,360.1953 251.875,359.6289 Q251.8164,359.2383 251.6016,359.0234 Q251.2109,358.6133 250.5078,358.3789 Q249.8047,358.125 249.1016,358.125 Q248.2227,358.125 247.4805,358.4766 Q246.7578,358.8281 246.1914,359.6094 Q245.625,360.3906 245.625,361.4648 L245.625,362.6172 Q245.625,363.9063 246.6797,364.7656 Q247.7344,365.625 249.6094,365.625 Q250.7227,365.625 251.5039,365.3711 Q251.9531,365.2344 252.4609,364.7852 Q252.793,364.5313 252.9688,364.4531 Q253.1445,364.375 253.3594,364.375 Q253.7695,364.375 254.0625,364.707 Q254.375,365.0195 254.375,365.4688 Q254.375,365.8984 253.9453,366.4063 Q253.3203,367.1484 252.3242,367.5586 Q251.0156,368.125 249.4141,368.125 Q247.5391,368.125 246.0352,367.3828 Q244.8242,366.7969 243.9648,365.5273 Q243.125,364.2578 243.125,362.7539 L243.125,361.3867 Q243.125,359.8242 243.8672,358.457 Q244.6289,357.0898 245.9375,356.3672 Q247.2656,355.625 248.75,355.625 Q249.6484,355.625 250.4297,355.9375 Q251.2109,356.25 251.875,356.875 Z " fill="#000000"/><text fill="#000000" font-family="sans-serif" font-size="15" lengthAdjust="spacing" textLength="40" x="266.875" y="367.3877">Client</text><line style="stroke:#A80036;stroke-width:1.875;" x1="231.875" x2="309.375" y1="381.25" y2="381.25"/><line style="stroke:#A80036;stroke-width:1.875;" x1="231.875" x2="309.375" y1="391.25" y2="391.25"/><!--MD5=[df38be88ccee13e832d6fafd6288a4ca]
class Test--><rect codeLine="8" fill="#FEFECE" filter="url(#f1dbgn2ozabcc2)" height="60" id="Test" style="stroke:#A80036;stroke-width:1.875;" width="70" x="246.875" y="8.75"/><ellipse cx="265.625" cy="28.75" fill="#ADD1B2" rx="13.75" ry="13.75" style="stroke:#A80036;stroke-width:1.25;"/><path d="M268.125,24.375 Q268.3789,23.75 268.6719,23.4375 Q268.9648,23.125 269.2969,23.125 Q269.8828,23.125 270.2539,23.4766 Q270.625,23.8281 270.625,24.6484 L270.625,26.6016 Q270.625,27.4219 270.2734,27.7734 Q269.9219,28.125 269.375,28.125 Q268.8867,28.125 268.5742,27.9102 Q268.2617,27.6953 268.125,27.1289 Q268.0664,26.7383 267.8516,26.5234 Q267.4609,26.1133 266.7578,25.8789 Q266.0547,25.625 265.3516,25.625 Q264.4727,25.625 263.7305,25.9766 Q263.0078,26.3281 262.4414,27.1094 Q261.875,27.8906 261.875,28.9648 L261.875,30.1172 Q261.875,31.4063 262.9297,32.2656 Q263.9844,33.125 265.8594,33.125 Q266.9727,33.125 267.7539,32.8711 Q268.2031,32.7344 268.7109,32.2852 Q269.043,32.0313 269.2188,31.9531 Q269.3945,31.875 269.6094,31.875 Q270.0195,31.875 270.3125,32.207 Q270.625,32.5195 270.625,32.9688 Q270.625,33.3984 270.1953,33.9063 Q269.5703,34.6484 268.5742,35.0586 Q267.2656,35.625 265.6641,35.625 Q263.7891,35.625 262.2852,34.8828 Q261.0742,34.2969 260.2148,33.0273 Q259.375,31.7578 259.375,30.2539 L259.375,28.8867 Q259.375,27.3242 260.1172,25.957 Q260.8789,24.5898 262.1875,23.8672 Q263.5156,23.125 265,23.125 Q265.8984,23.125 266.6797,23.4375 Q267.4609,23.75 268.125,24.375 Z " fill="#000000"/><text fill="#000000" font-family="sans-serif" font-size="15" lengthAdjust="spacing" textLength="30" x="283.125" y="34.8877">Test</text><line style="stroke:#A80036;stroke-width:1.875;" x1="248.125" x2="315.625" y1="48.75" y2="48.75"/><line style="stroke:#A80036;stroke-width:1.875;" x1="248.125" x2="315.625" y1="58.75" y2="58.75"/><!--MD5=[9e18cdcaa9fc98b54e28689ca42ef92a]
link Sample to BarcodeAPI--><path codeLine="10" d="M146.25,237.7375 C132.5375,249.6 119.2625,264.3625 111.875,281.25 C103.65,300.0375 104.9875,323.2625 108.1625,341.2375 " fill="none" id="Sample-BarcodeAPI" style="stroke:#A80036;stroke-width:1.25;"/><polygon fill="#000000" points="115.9665,298.5852,123.3189,289.2432,116.4236,286.7058,115.9665,298.5852" style="stroke:#000000;stroke-width:1.25;"/><text fill="#000000" font-family="sans-serif" font-size="16.25" lengthAdjust="spacing" textLength="86.25" x="129.375" y="299.3689">identified by</text><text fill="#000000" font-family="sans-serif" font-size="16.25" lengthAdjust="spacing" textLength="8.75" x="127.4102" y="239.1463">1</text><text fill="#000000" font-family="sans-serif" font-size="16.25" lengthAdjust="spacing" textLength="8.75" x="90.7385" y="327.9095">1</text><!--MD5=[0a29b4543c1af9e8341b856b8b8ec05c]
link MedicalLabTechnician to Sample--><path codeLine="11" d="M106.7375,68.9125 C108.4125,86.95 112.4375,110.175 121.875,128.75 C128.7125,142.2 138.7375,154.9 149.1125,165.8875 " fill="none" id="MedicalLabTechnician-Sample" style="stroke:#A80036;stroke-width:1.25;"/><polygon fill="#000000" points="125.6224,111.9926,126.7833,123.824,133.5159,120.8821,125.6224,111.9926" style="stroke:#000000;stroke-width:1.25;"/><text fill="#000000" font-family="sans-serif" font-size="16.25" lengthAdjust="spacing" textLength="87.5" x="139.375" y="124.3689">collected by</text><text fill="#000000" font-family="sans-serif" font-size="16.25" lengthAdjust="spacing" textLength="8.75" x="97.1923" y="95.6246">1</text><text fill="#000000" font-family="sans-serif" font-size="16.25" lengthAdjust="spacing" textLength="6.25" x="133.1404" y="152.6934">*</text><!--MD5=[a23f50aea1fcb140948e132a9bfce5a1]
link Sample to Client--><path codeLine="12" d="M210.9,243.8125 C224.85,273.275 243.975,313.6875 256.7875,340.7625 " fill="none" id="Sample-Client" style="stroke:#A80036;stroke-width:1.25;"/><polygon fill="#000000" points="247.0488,298.3689,245.5323,286.5778,238.8913,289.7211,247.0488,298.3689" style="stroke:#000000;stroke-width:1.25;"/><text fill="#000000" font-family="sans-serif" font-size="16.25" lengthAdjust="spacing" textLength="97.5" x="255.625" y="299.3689">associated to</text><text fill="#000000" font-family="sans-serif" font-size="16.25" lengthAdjust="spacing" textLength="6.25" x="207.5342" y="270.3548">*</text><text fill="#000000" font-family="sans-serif" font-size="16.25" lengthAdjust="spacing" textLength="8.75" x="232.3795" y="327.8161">1</text><!--MD5=[b72ac8ab7fb5921fceb5036a3902baea]
link Test to Sample--><path codeLine="13" d="M266.2125,68.9 C251.5875,95.8875 229.65,136.35 213.6375,165.9125 " fill="none" id="Test-Sample" style="stroke:#A80036;stroke-width:1.25;"/><polygon fill="#000000" points="247.6471,123.2147,256.264,115.0246,249.8044,111.5238,247.6471,123.2147" style="stroke:#000000;stroke-width:1.25;"/><text fill="#000000" font-family="sans-serif" font-size="16.25" lengthAdjust="spacing" textLength="56.25" x="261.875" y="124.3689">collects</text><text fill="#000000" font-family="sans-serif" font-size="16.25" lengthAdjust="spacing" textLength="8.75" x="241.3596" y="95.609">1</text><text fill="#000000" font-family="sans-serif" font-size="16.25" lengthAdjust="spacing" textLength="6.25" x="210.9737" y="152.7236">*</text><!--MD5=[22d41e97ff39c7de23abc65865aea1ae]
@startuml

class MedicalLabTechnician
class Sample {
-barcode
}
class BarcodeAPI
class Client
class Test

Sample "1"- -"1 " BarcodeAPI : identified by >
MedicalLabTechnician "1"- -"*" Sample : collected by <
Sample "*"- -"1  " Client : associated to >
Test "1  "- -"*" Sample : collects >

@enduml

PlantUML version 1.2021.4(Sun Apr 04 09:49:39 BST 2021)
(GPL source distribution)
Java Runtime: OpenJDK Runtime Environment
JVM: OpenJDK 64-Bit Server VM
Default Encoding: Cp1252
Language: pt
Country: PT
--></g></svg>