<?xml version="1.0" encoding="UTF-8" standalone="no"?><svg xmlns="http://www.w3.org/2000/svg" xmlns:xlink="http://www.w3.org/1999/xlink" contentScriptType="application/ecmascript" contentStyleType="text/css" height="1116px" preserveAspectRatio="none" style="width:1894px;height:1116px;" version="1.1" viewBox="0 0 1894 1116" width="1894px" zoomAndPan="magnify"><defs><filter height="300%" id="f1fjbh8lc7hx7c" width="300%" x="-1" y="-1"><feGaussianBlur result="blurOut" stdDeviation="2.0"/><feColorMatrix in="blurOut" result="blurOut2" type="matrix" values="0 0 0 0 0 0 0 0 0 0 0 0 0 0 0 0 0 0 .4 0"/><feOffset dx="4.0" dy="4.0" in="blurOut2" result="blurOut3"/><feBlend in="SourceGraphic" in2="blurOut3" mode="normal"/></filter></defs><g><rect fill="#FFFFFF" filter="url(#f1fjbh8lc7hx7c)" height="913.1953" style="stroke:#A80036;stroke-width:1.0;" width="10" x="73.5" y="99.6094"/><rect fill="#FFFFFF" filter="url(#f1fjbh8lc7hx7c)" height="238.4609" style="stroke:#A80036;stroke-width:1.0;" width="10" x="362.5" y="121.9609"/><rect fill="#FFFFFF" filter="url(#f1fjbh8lc7hx7c)" height="30.3516" style="stroke:#A80036;stroke-width:1.0;" width="10" x="362.5" y="390.7734"/><rect fill="#FFFFFF" filter="url(#f1fjbh8lc7hx7c)" height="164.7578" style="stroke:#A80036;stroke-width:1.0;" width="10" x="362.5" y="451.4766"/><rect fill="#FFFFFF" filter="url(#f1fjbh8lc7hx7c)" height="30.3516" style="stroke:#A80036;stroke-width:1.0;" width="10" x="362.5" y="646.5859"/><rect fill="#FFFFFF" filter="url(#f1fjbh8lc7hx7c)" height="305.5156" style="stroke:#A80036;stroke-width:1.0;" width="10" x="362.5" y="707.2891"/><rect fill="#FFFFFF" filter="url(#f1fjbh8lc7hx7c)" height="134.4063" style="stroke:#A80036;stroke-width:1.0;" width="10" x="618.5" y="152.3125"/><rect fill="#FFFFFF" filter="url(#f1fjbh8lc7hx7c)" height="30.3516" style="stroke:#A80036;stroke-width:1.0;" width="10" x="618.5" y="481.8281"/><rect fill="#FFFFFF" filter="url(#f1fjbh8lc7hx7c)" height="244.8125" style="stroke:#A80036;stroke-width:1.0;" width="10" x="618.5" y="737.6406"/><rect fill="#FFFFFF" filter="url(#f1fjbh8lc7hx7c)" height="30.3516" style="stroke:#A80036;stroke-width:1.0;" width="10" x="811.5" y="182.6641"/><rect fill="#FFFFFF" filter="url(#f1fjbh8lc7hx7c)" height="30.3516" style="stroke:#A80036;stroke-width:1.0;" width="10" x="811.5" y="512.1797"/><rect fill="#FFFFFF" filter="url(#f1fjbh8lc7hx7c)" height="36.3516" style="stroke:#A80036;stroke-width:1.0;" width="10" x="956.5" y="213.0156"/><rect fill="#FFFFFF" filter="url(#f1fjbh8lc7hx7c)" height="36.3516" style="stroke:#A80036;stroke-width:1.0;" width="10" x="956.5" y="542.5313"/><rect fill="#FFFFFF" filter="url(#f1fjbh8lc7hx7c)" height="36.3516" style="stroke:#A80036;stroke-width:1.0;" width="10" x="1147.5" y="286.7188"/><rect fill="#FFFFFF" filter="url(#f1fjbh8lc7hx7c)" height="60.7031" style="stroke:#A80036;stroke-width:1.0;" width="10" x="1363.5" y="823.6953"/><rect fill="#FFFFFF" filter="url(#f1fjbh8lc7hx7c)" height="30.3516" style="stroke:#A80036;stroke-width:1.0;" width="10" x="1647.5" y="854.0469"/><rect fill="#FFFFFF" filter="url(#f1fjbh8lc7hx7c)" height="200.4609" style="stroke:#000000;stroke-width:2.0;" width="1330.5" x="550" y="752.6406"/><line style="stroke:#A80036;stroke-width:1.0;stroke-dasharray:5.0,5.0;" x1="78" x2="78" y1="89.6094" y2="1030.8047"/><line style="stroke:#A80036;stroke-width:1.0;stroke-dasharray:5.0,5.0;" x1="367" x2="367" y1="89.6094" y2="1030.8047"/><line style="stroke:#A80036;stroke-width:1.0;stroke-dasharray:5.0,5.0;" x1="623" x2="623" y1="89.6094" y2="1030.8047"/><line style="stroke:#A80036;stroke-width:1.0;stroke-dasharray:5.0,5.0;" x1="816.5" x2="816.5" y1="89.6094" y2="1030.8047"/><line style="stroke:#A80036;stroke-width:1.0;stroke-dasharray:5.0,5.0;" x1="888.5" x2="888.5" y1="89.6094" y2="1030.8047"/><line style="stroke:#A80036;stroke-width:1.0;stroke-dasharray:5.0,5.0;" x1="961.5" x2="961.5" y1="89.6094" y2="1030.8047"/><line style="stroke:#A80036;stroke-width:1.0;stroke-dasharray:5.0,5.0;" x1="1152.5" x2="1152.5" y1="89.6094" y2="1030.8047"/><line style="stroke:#A80036;stroke-width:1.0;stroke-dasharray:5.0,5.0;" x1="1241.5" x2="1241.5" y1="89.6094" y2="1030.8047"/><line style="stroke:#A80036;stroke-width:1.0;stroke-dasharray:5.0,5.0;" x1="1368.5" x2="1368.5" y1="89.6094" y2="1030.8047"/><line style="stroke:#A80036;stroke-width:1.0;stroke-dasharray:5.0,5.0;" x1="1652.5" x2="1652.5" y1="89.6094" y2="1030.8047"/><line style="stroke:#A80036;stroke-width:1.0;stroke-dasharray:5.0,5.0;" x1="1820.5" x2="1820.5" y1="89.6094" y2="1030.8047"/><text fill="#000000" font-family="sans-serif" font-size="14" lengthAdjust="spacing" textLength="141" x="5" y="86.5332">MedicalLabTechnician</text><ellipse cx="78.5" cy="15" fill="#FEFECE" filter="url(#f1fjbh8lc7hx7c)" rx="8" ry="8" style="stroke:#A80036;stroke-width:2.0;"/><path d="M78.5,23 L78.5,50 M65.5,31 L91.5,31 M78.5,50 L65.5,65 M78.5,50 L91.5,65 " fill="none" filter="url(#f1fjbh8lc7hx7c)" style="stroke:#A80036;stroke-width:2.0;"/><text fill="#000000" font-family="sans-serif" font-size="14" lengthAdjust="spacing" textLength="141" x="5" y="1044.3379">MedicalLabTechnician</text><ellipse cx="78.5" cy="1057.4141" fill="#FEFECE" filter="url(#f1fjbh8lc7hx7c)" rx="8" ry="8" style="stroke:#A80036;stroke-width:2.0;"/><path d="M78.5,1065.4141 L78.5,1092.4141 M65.5,1073.4141 L91.5,1073.4141 M78.5,1092.4141 L65.5,1107.4141 M78.5,1092.4141 L91.5,1107.4141 " fill="none" filter="url(#f1fjbh8lc7hx7c)" style="stroke:#A80036;stroke-width:2.0;"/><rect fill="#FEFECE" filter="url(#f1fjbh8lc7hx7c)" height="31.6094" style="stroke:#A80036;stroke-width:1.5;" width="73" x="329" y="53"/><text fill="#000000" font-family="sans-serif" font-size="14" lengthAdjust="spacing" textLength="59" x="336" y="74.5332">SampleUI</text><rect fill="#FEFECE" filter="url(#f1fjbh8lc7hx7c)" height="31.6094" style="stroke:#A80036;stroke-width:1.5;" width="73" x="329" y="1029.8047"/><text fill="#000000" font-family="sans-serif" font-size="14" lengthAdjust="spacing" textLength="59" x="336" y="1051.3379">SampleUI</text><rect fill="#FEFECE" filter="url(#f1fjbh8lc7hx7c)" height="31.6094" style="stroke:#A80036;stroke-width:1.5;" width="123" x="560" y="53"/><text fill="#000000" font-family="sans-serif" font-size="14" lengthAdjust="spacing" textLength="109" x="567" y="74.5332">SampleController</text><rect fill="#FEFECE" filter="url(#f1fjbh8lc7hx7c)" height="31.6094" style="stroke:#A80036;stroke-width:1.5;" width="123" x="560" y="1029.8047"/><text fill="#000000" font-family="sans-serif" font-size="14" lengthAdjust="spacing" textLength="109" x="567" y="1051.3379">SampleController</text><rect fill="#FEFECE" filter="url(#f1fjbh8lc7hx7c)" height="31.6094" style="stroke:#A80036;stroke-width:1.5;" width="74" x="777.5" y="53"/><text fill="#000000" font-family="sans-serif" font-size="14" lengthAdjust="spacing" textLength="60" x="784.5" y="74.5332">Company</text><rect fill="#FEFECE" filter="url(#f1fjbh8lc7hx7c)" height="31.6094" style="stroke:#A80036;stroke-width:1.5;" width="74" x="777.5" y="1029.8047"/><text fill="#000000" font-family="sans-serif" font-size="14" lengthAdjust="spacing" textLength="60" x="784.5" y="1051.3379">Company</text><rect fill="#FEFECE" filter="url(#f1fjbh8lc7hx7c)" height="31.6094" style="stroke:#A80036;stroke-width:1.5;" width="42" x="865.5" y="53"/><text fill="#000000" font-family="sans-serif" font-size="14" lengthAdjust="spacing" textLength="28" x="872.5" y="74.5332">Test</text><rect fill="#FEFECE" filter="url(#f1fjbh8lc7hx7c)" height="31.6094" style="stroke:#A80036;stroke-width:1.5;" width="42" x="865.5" y="1029.8047"/><text fill="#000000" font-family="sans-serif" font-size="14" lengthAdjust="spacing" textLength="28" x="872.5" y="1051.3379">Test</text><rect fill="#FEFECE" filter="url(#f1fjbh8lc7hx7c)" height="31.6094" style="stroke:#A80036;stroke-width:1.5;" width="76" x="921.5" y="53"/><text fill="#000000" font-family="sans-serif" font-size="14" lengthAdjust="spacing" textLength="62" x="928.5" y="74.5332">TestStore</text><rect fill="#FEFECE" filter="url(#f1fjbh8lc7hx7c)" height="31.6094" style="stroke:#A80036;stroke-width:1.5;" width="76" x="921.5" y="1029.8047"/><text fill="#000000" font-family="sans-serif" font-size="14" lengthAdjust="spacing" textLength="62" x="928.5" y="1051.3379">TestStore</text><rect fill="#FEFECE" filter="url(#f1fjbh8lc7hx7c)" height="31.6094" style="stroke:#A80036;stroke-width:1.5;" width="90" x="1105.5" y="53"/><text fill="#000000" font-family="sans-serif" font-size="14" lengthAdjust="spacing" textLength="76" x="1112.5" y="74.5332">TestMapper</text><rect fill="#FEFECE" filter="url(#f1fjbh8lc7hx7c)" height="31.6094" style="stroke:#A80036;stroke-width:1.5;" width="90" x="1105.5" y="1029.8047"/><text fill="#000000" font-family="sans-serif" font-size="14" lengthAdjust="spacing" textLength="76" x="1112.5" y="1051.3379">TestMapper</text><rect fill="#FEFECE" filter="url(#f1fjbh8lc7hx7c)" height="31.6094" style="stroke:#A80036;stroke-width:1.5;" width="61" x="1209.5" y="53"/><text fill="#000000" font-family="sans-serif" font-size="14" lengthAdjust="spacing" textLength="47" x="1216.5" y="74.5332">Sample</text><rect fill="#FEFECE" filter="url(#f1fjbh8lc7hx7c)" height="31.6094" style="stroke:#A80036;stroke-width:1.5;" width="61" x="1209.5" y="1029.8047"/><text fill="#000000" font-family="sans-serif" font-size="14" lengthAdjust="spacing" textLength="47" x="1216.5" y="1051.3379">Sample</text><rect fill="#FEFECE" filter="url(#f1fjbh8lc7hx7c)" height="31.6094" style="stroke:#A80036;stroke-width:1.5;" width="164" x="1284.5" y="53"/><text fill="#000000" font-family="sans-serif" font-size="14" lengthAdjust="spacing" textLength="150" x="1291.5" y="74.5332">ExternalModuleBarcode</text><rect fill="#FEFECE" filter="url(#f1fjbh8lc7hx7c)" height="31.6094" style="stroke:#A80036;stroke-width:1.5;" width="164" x="1284.5" y="1029.8047"/><text fill="#000000" font-family="sans-serif" font-size="14" lengthAdjust="spacing" textLength="150" x="1291.5" y="1051.3379">ExternalModuleBarcode</text><rect fill="#FEFECE" filter="url(#f1fjbh8lc7hx7c)" height="31.6094" style="stroke:#A80036;stroke-width:1.5;" width="214" x="1543.5" y="53"/><text fill="#000000" font-family="sans-serif" font-size="14" lengthAdjust="spacing" textLength="200" x="1550.5" y="74.5332">ExternalModuleBarcodeAdapter</text><rect fill="#FEFECE" filter="url(#f1fjbh8lc7hx7c)" height="31.6094" style="stroke:#A80036;stroke-width:1.5;" width="214" x="1543.5" y="1029.8047"/><text fill="#000000" font-family="sans-serif" font-size="14" lengthAdjust="spacing" textLength="200" x="1550.5" y="1051.3379">ExternalModuleBarcodeAdapter</text><rect fill="#FEFECE" filter="url(#f1fjbh8lc7hx7c)" height="31.6094" style="stroke:#A80036;stroke-width:1.5;" width="95" x="1771.5" y="53"/><text fill="#000000" font-family="sans-serif" font-size="14" lengthAdjust="spacing" textLength="81" x="1778.5" y="74.5332">SampleStore</text><rect fill="#FEFECE" filter="url(#f1fjbh8lc7hx7c)" height="31.6094" style="stroke:#A80036;stroke-width:1.5;" width="95" x="1771.5" y="1029.8047"/><text fill="#000000" font-family="sans-serif" font-size="14" lengthAdjust="spacing" textLength="81" x="1778.5" y="1051.3379">SampleStore</text><rect fill="#FFFFFF" filter="url(#f1fjbh8lc7hx7c)" height="913.1953" style="stroke:#A80036;stroke-width:1.0;" width="10" x="73.5" y="99.6094"/><rect fill="#FFFFFF" filter="url(#f1fjbh8lc7hx7c)" height="238.4609" style="stroke:#A80036;stroke-width:1.0;" width="10" x="362.5" y="121.9609"/><rect fill="#FFFFFF" filter="url(#f1fjbh8lc7hx7c)" height="30.3516" style="stroke:#A80036;stroke-width:1.0;" width="10" x="362.5" y="390.7734"/><rect fill="#FFFFFF" filter="url(#f1fjbh8lc7hx7c)" height="164.7578" style="stroke:#A80036;stroke-width:1.0;" width="10" x="362.5" y="451.4766"/><rect fill="#FFFFFF" filter="url(#f1fjbh8lc7hx7c)" height="30.3516" style="stroke:#A80036;stroke-width:1.0;" width="10" x="362.5" y="646.5859"/><rect fill="#FFFFFF" filter="url(#f1fjbh8lc7hx7c)" height="305.5156" style="stroke:#A80036;stroke-width:1.0;" width="10" x="362.5" y="707.2891"/><rect fill="#FFFFFF" filter="url(#f1fjbh8lc7hx7c)" height="134.4063" style="stroke:#A80036;stroke-width:1.0;" width="10" x="618.5" y="152.3125"/><rect fill="#FFFFFF" filter="url(#f1fjbh8lc7hx7c)" height="30.3516" style="stroke:#A80036;stroke-width:1.0;" width="10" x="618.5" y="481.8281"/><rect fill="#FFFFFF" filter="url(#f1fjbh8lc7hx7c)" height="244.8125" style="stroke:#A80036;stroke-width:1.0;" width="10" x="618.5" y="737.6406"/><rect fill="#FFFFFF" filter="url(#f1fjbh8lc7hx7c)" height="30.3516" style="stroke:#A80036;stroke-width:1.0;" width="10" x="811.5" y="182.6641"/><rect fill="#FFFFFF" filter="url(#f1fjbh8lc7hx7c)" height="30.3516" style="stroke:#A80036;stroke-width:1.0;" width="10" x="811.5" y="512.1797"/><rect fill="#FFFFFF" filter="url(#f1fjbh8lc7hx7c)" height="36.3516" style="stroke:#A80036;stroke-width:1.0;" width="10" x="956.5" y="213.0156"/><rect fill="#FFFFFF" filter="url(#f1fjbh8lc7hx7c)" height="36.3516" style="stroke:#A80036;stroke-width:1.0;" width="10" x="956.5" y="542.5313"/><rect fill="#FFFFFF" filter="url(#f1fjbh8lc7hx7c)" height="36.3516" style="stroke:#A80036;stroke-width:1.0;" width="10" x="1147.5" y="286.7188"/><rect fill="#FFFFFF" filter="url(#f1fjbh8lc7hx7c)" height="60.7031" style="stroke:#A80036;stroke-width:1.0;" width="10" x="1363.5" y="823.6953"/><rect fill="#FFFFFF" filter="url(#f1fjbh8lc7hx7c)" height="30.3516" style="stroke:#A80036;stroke-width:1.0;" width="10" x="1647.5" y="854.0469"/><polygon fill="#A80036" points="350.5,117.9609,360.5,121.9609,350.5,125.9609,354.5,121.9609" style="stroke:#A80036;stroke-width:1.0;"/><line style="stroke:#A80036;stroke-width:1.0;" x1="83.5" x2="356.5" y1="121.9609" y2="121.9609"/><text fill="#000000" font-family="sans-serif" font-size="13" font-weight="bold" lengthAdjust="spacing" textLength="7" x="90.5" y="117.1045">1</text><text fill="#000000" font-family="sans-serif" font-size="13" lengthAdjust="spacing" textLength="249" x="101.5" y="117.1045">requests to record new collected sample(s)</text><polygon fill="#A80036" points="606.5,148.3125,616.5,152.3125,606.5,156.3125,610.5,152.3125" style="stroke:#A80036;stroke-width:1.0;"/><line style="stroke:#A80036;stroke-width:1.0;" x1="372.5" x2="612.5" y1="152.3125" y2="152.3125"/><text fill="#000000" font-family="sans-serif" font-size="13" font-weight="bold" lengthAdjust="spacing" textLength="7" x="379.5" y="147.4561">2</text><text fill="#000000" font-family="sans-serif" font-size="13" lengthAdjust="spacing" textLength="216" x="390.5" y="147.4561">Test = SampleController.getTestList()</text><polygon fill="#A80036" points="799.5,178.6641,809.5,182.6641,799.5,186.6641,803.5,182.6641" style="stroke:#A80036;stroke-width:1.0;"/><line style="stroke:#A80036;stroke-width:1.0;" x1="628.5" x2="805.5" y1="182.6641" y2="182.6641"/><text fill="#000000" font-family="sans-serif" font-size="13" font-weight="bold" lengthAdjust="spacing" textLength="7" x="635.5" y="177.8076">3</text><text fill="#000000" font-family="sans-serif" font-size="13" lengthAdjust="spacing" textLength="153" x="646.5" y="177.8076">testmapper = getTestList()</text><polygon fill="#A80036" points="944.5,209.0156,954.5,213.0156,944.5,217.0156,948.5,213.0156" style="stroke:#A80036;stroke-width:1.0;"/><line style="stroke:#A80036;stroke-width:1.0;" x1="816.5" x2="950.5" y1="213.0156" y2="213.0156"/><text fill="#000000" font-family="sans-serif" font-size="13" font-weight="bold" lengthAdjust="spacing" textLength="7" x="823.5" y="208.1592">4</text><text fill="#000000" font-family="sans-serif" font-size="13" lengthAdjust="spacing" textLength="82" x="834.5" y="208.1592">getTestStore()</text><line style="stroke:#A80036;stroke-width:1.0;" x1="966.5" x2="1008.5" y1="248.3672" y2="248.3672"/><line style="stroke:#A80036;stroke-width:1.0;" x1="1008.5" x2="1008.5" y1="248.3672" y2="261.3672"/><line style="stroke:#A80036;stroke-width:1.0;" x1="961.5" x2="1008.5" y1="261.3672" y2="261.3672"/><polygon fill="#A80036" points="971.5,257.3672,961.5,261.3672,971.5,265.3672,967.5,261.3672" style="stroke:#A80036;stroke-width:1.0;"/><text fill="#000000" font-family="sans-serif" font-size="13" font-weight="bold" lengthAdjust="spacing" textLength="7" x="973.5" y="243.5107">5</text><text fill="#000000" font-family="sans-serif" font-size="13" lengthAdjust="spacing" textLength="120" x="984.5" y="243.5107">getRegisteredTests()</text><polygon fill="#A80036" points="1135.5,282.7188,1145.5,286.7188,1135.5,290.7188,1139.5,286.7188" style="stroke:#A80036;stroke-width:1.0;"/><line style="stroke:#A80036;stroke-width:1.0;" x1="623.5" x2="1141.5" y1="286.7188" y2="286.7188"/><text fill="#000000" font-family="sans-serif" font-size="13" font-weight="bold" lengthAdjust="spacing" textLength="7" x="630.5" y="281.8623">6</text><text fill="#000000" font-family="sans-serif" font-size="13" lengthAdjust="spacing" textLength="66" x="641.5" y="281.8623">toDTOList()</text><line style="stroke:#A80036;stroke-width:1.0;" x1="1157.5" x2="1199.5" y1="322.0703" y2="322.0703"/><line style="stroke:#A80036;stroke-width:1.0;" x1="1199.5" x2="1199.5" y1="322.0703" y2="335.0703"/><line style="stroke:#A80036;stroke-width:1.0;" x1="1152.5" x2="1199.5" y1="335.0703" y2="335.0703"/><polygon fill="#A80036" points="1162.5,331.0703,1152.5,335.0703,1162.5,339.0703,1158.5,335.0703" style="stroke:#A80036;stroke-width:1.0;"/><text fill="#000000" font-family="sans-serif" font-size="13" font-weight="bold" lengthAdjust="spacing" textLength="7" x="1164.5" y="317.2139">7</text><text fill="#000000" font-family="sans-serif" font-size="13" lengthAdjust="spacing" textLength="43" x="1175.5" y="317.2139">listDTO</text><polygon fill="#A80036" points="94.5,356.4219,84.5,360.4219,94.5,364.4219,90.5,360.4219" style="stroke:#A80036;stroke-width:1.0;"/><line style="stroke:#A80036;stroke-width:1.0;stroke-dasharray:2.0,2.0;" x1="88.5" x2="366.5" y1="360.4219" y2="360.4219"/><text fill="#000000" font-family="sans-serif" font-size="13" font-weight="bold" lengthAdjust="spacing" textLength="7" x="100.5" y="355.5654">8</text><text fill="#000000" font-family="sans-serif" font-size="13" lengthAdjust="spacing" textLength="105" x="111.5" y="355.5654">shows list of tests</text><polygon fill="#A80036" points="350.5,386.7734,360.5,390.7734,350.5,394.7734,354.5,390.7734" style="stroke:#A80036;stroke-width:1.0;"/><line style="stroke:#A80036;stroke-width:1.0;" x1="83.5" x2="356.5" y1="390.7734" y2="390.7734"/><text fill="#000000" font-family="sans-serif" font-size="13" font-weight="bold" lengthAdjust="spacing" textLength="7" x="90.5" y="385.917">9</text><text fill="#000000" font-family="sans-serif" font-size="13" lengthAdjust="spacing" textLength="68" x="101.5" y="385.917">selects test</text><polygon fill="#A80036" points="94.5,417.125,84.5,421.125,94.5,425.125,90.5,421.125" style="stroke:#A80036;stroke-width:1.0;"/><line style="stroke:#A80036;stroke-width:1.0;" x1="88.5" x2="366.5" y1="421.125" y2="421.125"/><text fill="#000000" font-family="sans-serif" font-size="13" font-weight="bold" lengthAdjust="spacing" textLength="14" x="100.5" y="416.2686">10</text><text fill="#000000" font-family="sans-serif" font-size="13" lengthAdjust="spacing" textLength="117" x="118.5" y="416.2686">request confirmation</text><polygon fill="#A80036" points="350.5,447.4766,360.5,451.4766,350.5,455.4766,354.5,451.4766" style="stroke:#A80036;stroke-width:1.0;"/><line style="stroke:#A80036;stroke-width:1.0;" x1="83.5" x2="356.5" y1="451.4766" y2="451.4766"/><text fill="#000000" font-family="sans-serif" font-size="13" font-weight="bold" lengthAdjust="spacing" textLength="14" x="90.5" y="446.6201">11</text><text fill="#000000" font-family="sans-serif" font-size="13" lengthAdjust="spacing" textLength="103" x="108.5" y="446.6201">gives confirmation</text><polygon fill="#A80036" points="606.5,477.8281,616.5,481.8281,606.5,485.8281,610.5,481.8281" style="stroke:#A80036;stroke-width:1.0;"/><line style="stroke:#A80036;stroke-width:1.0;" x1="372.5" x2="612.5" y1="481.8281" y2="481.8281"/><text fill="#000000" font-family="sans-serif" font-size="13" font-weight="bold" lengthAdjust="spacing" textLength="14" x="379.5" y="476.9717">12</text><text fill="#000000" font-family="sans-serif" font-size="13" lengthAdjust="spacing" textLength="117" x="397.5" y="476.9717">TestCodeSelection()</text><polygon fill="#A80036" points="799.5,508.1797,809.5,512.1797,799.5,516.1797,803.5,512.1797" style="stroke:#A80036;stroke-width:1.0;"/><line style="stroke:#A80036;stroke-width:1.0;" x1="623.5" x2="805.5" y1="512.1797" y2="512.1797"/><text fill="#000000" font-family="sans-serif" font-size="13" font-weight="bold" lengthAdjust="spacing" textLength="14" x="630.5" y="507.3232">13</text><text fill="#000000" font-family="sans-serif" font-size="13" lengthAdjust="spacing" textLength="133" x="648.5" y="507.3232">setTestCode(testCode)</text><polygon fill="#A80036" points="944.5,538.5313,954.5,542.5313,944.5,546.5313,948.5,542.5313" style="stroke:#A80036;stroke-width:1.0;"/><line style="stroke:#A80036;stroke-width:1.0;" x1="816.5" x2="950.5" y1="542.5313" y2="542.5313"/><text fill="#000000" font-family="sans-serif" font-size="13" font-weight="bold" lengthAdjust="spacing" textLength="14" x="823.5" y="537.6748">14</text><text fill="#000000" font-family="sans-serif" font-size="13" lengthAdjust="spacing" textLength="82" x="841.5" y="537.6748">getTestStore()</text><line style="stroke:#A80036;stroke-width:1.0;" x1="966.5" x2="1008.5" y1="577.8828" y2="577.8828"/><line style="stroke:#A80036;stroke-width:1.0;" x1="1008.5" x2="1008.5" y1="577.8828" y2="590.8828"/><line style="stroke:#A80036;stroke-width:1.0;" x1="961.5" x2="1008.5" y1="590.8828" y2="590.8828"/><polygon fill="#A80036" points="971.5,586.8828,961.5,590.8828,971.5,594.8828,967.5,590.8828" style="stroke:#A80036;stroke-width:1.0;"/><text fill="#000000" font-family="sans-serif" font-size="13" font-weight="bold" lengthAdjust="spacing" textLength="14" x="973.5" y="573.0264">15</text><text fill="#000000" font-family="sans-serif" font-size="13" lengthAdjust="spacing" textLength="149" x="991.5" y="573.0264">getTestByCode(testCode)</text><polygon fill="#A80036" points="94.5,612.2344,84.5,616.2344,94.5,620.2344,90.5,616.2344" style="stroke:#A80036;stroke-width:1.0;"/><line style="stroke:#A80036;stroke-width:1.0;stroke-dasharray:2.0,2.0;" x1="88.5" x2="366.5" y1="616.2344" y2="616.2344"/><text fill="#000000" font-family="sans-serif" font-size="13" font-weight="bold" lengthAdjust="spacing" textLength="14" x="100.5" y="611.3779">16</text><text fill="#000000" font-family="sans-serif" font-size="13" lengthAdjust="spacing" textLength="219" x="118.5" y="611.3779">requests number of samples to record</text><polygon fill="#A80036" points="350.5,642.5859,360.5,646.5859,350.5,650.5859,354.5,646.5859" style="stroke:#A80036;stroke-width:1.0;"/><line style="stroke:#A80036;stroke-width:1.0;" x1="83.5" x2="356.5" y1="646.5859" y2="646.5859"/><text fill="#000000" font-family="sans-serif" font-size="13" font-weight="bold" lengthAdjust="spacing" textLength="14" x="90.5" y="641.7295">17</text><text fill="#000000" font-family="sans-serif" font-size="13" lengthAdjust="spacing" textLength="198" x="108.5" y="641.7295">gives number of samples to record</text><polygon fill="#A80036" points="94.5,672.9375,84.5,676.9375,94.5,680.9375,90.5,676.9375" style="stroke:#A80036;stroke-width:1.0;"/><line style="stroke:#A80036;stroke-width:1.0;stroke-dasharray:2.0,2.0;" x1="88.5" x2="366.5" y1="676.9375" y2="676.9375"/><text fill="#000000" font-family="sans-serif" font-size="13" font-weight="bold" lengthAdjust="spacing" textLength="14" x="100.5" y="672.0811">18</text><text fill="#000000" font-family="sans-serif" font-size="13" lengthAdjust="spacing" textLength="117" x="118.5" y="672.0811">request confirmation</text><polygon fill="#A80036" points="350.5,703.2891,360.5,707.2891,350.5,711.2891,354.5,707.2891" style="stroke:#A80036;stroke-width:1.0;"/><line style="stroke:#A80036;stroke-width:1.0;" x1="83.5" x2="356.5" y1="707.2891" y2="707.2891"/><text fill="#000000" font-family="sans-serif" font-size="13" font-weight="bold" lengthAdjust="spacing" textLength="14" x="90.5" y="702.4326">19</text><text fill="#000000" font-family="sans-serif" font-size="13" lengthAdjust="spacing" textLength="103" x="108.5" y="702.4326">gives confirmation</text><polygon fill="#A80036" points="606.5,733.6406,616.5,737.6406,606.5,741.6406,610.5,737.6406" style="stroke:#A80036;stroke-width:1.0;"/><line style="stroke:#A80036;stroke-width:1.0;" x1="372.5" x2="612.5" y1="737.6406" y2="737.6406"/><text fill="#000000" font-family="sans-serif" font-size="13" font-weight="bold" lengthAdjust="spacing" textLength="14" x="379.5" y="732.7842">20</text><text fill="#000000" font-family="sans-serif" font-size="13" lengthAdjust="spacing" textLength="115" x="397.5" y="732.7842">setSampleNumber()</text><path d="M550,752.6406 L623,752.6406 L623,760.6406 L613,770.6406 L550,770.6406 L550,752.6406 " fill="#EEEEEE" style="stroke:#000000;stroke-width:1.0;"/><rect fill="none" height="200.4609" style="stroke:#000000;stroke-width:2.0;" width="1330.5" x="550" y="752.6406"/><text fill="#000000" font-family="sans-serif" font-size="13" font-weight="bold" lengthAdjust="spacing" textLength="28" x="565" y="767.1357">loop</text><text fill="#000000" font-family="sans-serif" font-size="11" font-weight="bold" lengthAdjust="spacing" textLength="316" x="638" y="766.0596">[loop for n times, n being number of samples requested]</text><polygon fill="#A80036" points="1230,789.3438,1240,793.3438,1230,797.3438,1234,793.3438" style="stroke:#A80036;stroke-width:1.0;"/><line style="stroke:#A80036;stroke-width:1.0;" x1="628.5" x2="1236" y1="793.3438" y2="793.3438"/><text fill="#000000" font-family="sans-serif" font-size="13" font-weight="bold" lengthAdjust="spacing" textLength="14" x="635.5" y="788.4873">21</text><text fill="#000000" font-family="sans-serif" font-size="13" lengthAdjust="spacing" textLength="220" x="653.5" y="788.4873">barcodeText = generateBarcodeUPC()</text><polygon fill="#A80036" points="1351.5,819.6953,1361.5,823.6953,1351.5,827.6953,1355.5,823.6953" style="stroke:#A80036;stroke-width:1.0;"/><line style="stroke:#A80036;stroke-width:1.0;" x1="628.5" x2="1357.5" y1="823.6953" y2="823.6953"/><text fill="#000000" font-family="sans-serif" font-size="13" font-weight="bold" lengthAdjust="spacing" textLength="14" x="635.5" y="818.8389">22</text><text fill="#000000" font-family="sans-serif" font-size="13" lengthAdjust="spacing" textLength="244" x="653.5" y="818.8389">barcode = barcodeGenerator(barcodeText)</text><polygon fill="#A80036" points="1635.5,850.0469,1645.5,854.0469,1635.5,858.0469,1639.5,854.0469" style="stroke:#A80036;stroke-width:1.0;"/><line style="stroke:#A80036;stroke-width:1.0;" x1="1373.5" x2="1641.5" y1="854.0469" y2="854.0469"/><text fill="#000000" font-family="sans-serif" font-size="13" font-weight="bold" lengthAdjust="spacing" textLength="14" x="1380.5" y="849.1904">23</text><text fill="#000000" font-family="sans-serif" font-size="13" lengthAdjust="spacing" textLength="182" x="1398.5" y="849.1904">barcodeGenerator(barcodeText)</text><polygon fill="#A80036" points="1640.5,880.3984,1650.5,884.3984,1640.5,888.3984,1644.5,884.3984" style="stroke:#A80036;stroke-width:1.0;"/><line style="stroke:#A80036;stroke-width:1.0;" x1="1368.5" x2="1646.5" y1="884.3984" y2="884.3984"/><text fill="#000000" font-family="sans-serif" font-size="13" font-weight="bold" lengthAdjust="spacing" textLength="14" x="1375.5" y="879.542">24</text><text fill="#000000" font-family="sans-serif" font-size="13" lengthAdjust="spacing" textLength="232" x="1393.5" y="879.542">saveBarcode(barcodeJPG, barcodeText)</text><polygon fill="#A80036" points="1230,910.75,1240,914.75,1230,918.75,1234,914.75" style="stroke:#A80036;stroke-width:1.0;"/><line style="stroke:#A80036;stroke-width:1.0;" x1="628.5" x2="1236" y1="914.75" y2="914.75"/><text fill="#000000" font-family="sans-serif" font-size="13" font-weight="bold" lengthAdjust="spacing" textLength="14" x="635.5" y="909.8936">25</text><text fill="#000000" font-family="sans-serif" font-size="13" lengthAdjust="spacing" textLength="181" x="653.5" y="909.8936">sample = Sample(barcodeText)</text><polygon fill="#A80036" points="1809,941.1016,1819,945.1016,1809,949.1016,1813,945.1016" style="stroke:#A80036;stroke-width:1.0;"/><line style="stroke:#A80036;stroke-width:1.0;" x1="628.5" x2="1815" y1="945.1016" y2="945.1016"/><text fill="#000000" font-family="sans-serif" font-size="13" font-weight="bold" lengthAdjust="spacing" textLength="14" x="635.5" y="940.2451">26</text><text fill="#000000" font-family="sans-serif" font-size="13" lengthAdjust="spacing" textLength="120" x="653.5" y="940.2451">saveSample(sample)</text><polygon fill="#A80036" points="876.5,978.4531,886.5,982.4531,876.5,986.4531,880.5,982.4531" style="stroke:#A80036;stroke-width:1.0;"/><line style="stroke:#A80036;stroke-width:1.0;" x1="623.5" x2="882.5" y1="982.4531" y2="982.4531"/><text fill="#000000" font-family="sans-serif" font-size="13" font-weight="bold" lengthAdjust="spacing" textLength="14" x="630.5" y="977.5967">27</text><text fill="#000000" font-family="sans-serif" font-size="13" lengthAdjust="spacing" textLength="154" x="648.5" y="977.5967">setSampleList(sampleList)</text><polygon fill="#A80036" points="89.5,1008.8047,79.5,1012.8047,89.5,1016.8047,85.5,1012.8047" style="stroke:#A80036;stroke-width:1.0;"/><line style="stroke:#A80036;stroke-width:1.0;stroke-dasharray:2.0,2.0;" x1="83.5" x2="366.5" y1="1012.8047" y2="1012.8047"/><text fill="#000000" font-family="sans-serif" font-size="13" font-weight="bold" lengthAdjust="spacing" textLength="14" x="95.5" y="1007.9482">28</text><text fill="#000000" font-family="sans-serif" font-size="13" lengthAdjust="spacing" textLength="179" x="113.5" y="1007.9482">shows (in)success of operation</text><!--MD5=[b06e8d3d895f92a68d0c2b7a263e4fe8]
@startuml

autonumber

actor MedicalLabTechnician as mlt
participant SampleUI as UI
participant SampleController as Controller
participant Company
participant Test
participant TestStore
participant TestMapper
participant Sample
participant ExternalModuleBarcode as emb
participant ExternalModuleBarcodeAdapter as emba
participant SampleStore

activate mlt
mlt -> UI: requests to record new collected sample(s)
activate UI
UI -> Controller: Test = SampleController.getTestList()
activate Controller
Controller -> Company: testmapper = getTestList()
activate Company
Company -> TestStore: getTestStore()
deactivate Company
activate TestStore
TestStore -> TestStore: getRegisteredTests()
deactivate TestStore
Controller -> TestMapper: toDTOList()
deactivate Controller
activate TestMapper
TestMapper -> TestMapper: listDTO
deactivate TestMapper
deactivate Company
UI - -> mlt: shows list of tests
deactivate UI
mlt -> UI: selects test
activate UI
UI -> mlt: request confirmation
deactivate UI
mlt -> UI: gives confirmation
activate UI
UI -> Controller: TestCodeSelection()
activate Controller
Controller -> Company: setTestCode(testCode)
deactivate Controller
activate Company
Company -> TestStore: getTestStore()
deactivate Company
activate TestStore
TestStore -> TestStore: getTestByCode(testCode)
deactivate TestStore
UI - -> mlt: requests number of samples to record
deactivate UI
mlt -> UI: gives number of samples to record
activate UI
UI - -> mlt: request confirmation
deactivate UI
mlt -> UI: gives confirmation
activate UI
UI -> Controller: setSampleNumber()
activate Controller
loop loop for n times, n being number of samples requested
Controller -> Sample: barcodeText = generateBarcodeUPC()
Controller -> emb: barcode = barcodeGenerator(barcodeText)
activate emb
emb -> emba: barcodeGenerator(barcodeText)
activate emba
emb -> emba: saveBarcode(barcodeJPG, barcodeText)
deactivate emba
deactivate emb
Controller -> Sample: sample = Sample(barcodeText)
Controller -> SampleStore: saveSample(sample)
end loop
Controller -> Test: setSampleList(sampleList)
deactivate Controller
UI - -> mlt: shows (in)success of operation
deactivate UI
deactivate mlt

@enduml

PlantUML version 1.2021.4(Sun Apr 04 09:49:39 BST 2021)
(GPL source distribution)
Java Runtime: OpenJDK Runtime Environment
JVM: OpenJDK 64-Bit Server VM
Default Encoding: Cp1252
Language: en
Country: US
--></g></svg>