<?xml version="1.0" encoding="UTF-8" standalone="no"?><svg xmlns="http://www.w3.org/2000/svg" xmlns:xlink="http://www.w3.org/1999/xlink" contentScriptType="application/ecmascript" contentStyleType="text/css" height="705px" preserveAspectRatio="none" style="width:817px;height:705px;" version="1.1" viewBox="0 0 817 705" width="817px" zoomAndPan="magnify"><defs><filter height="300%" id="f5earbv4tdz65" width="300%" x="-1" y="-1"><feGaussianBlur result="blurOut" stdDeviation="2.0"/><feColorMatrix in="blurOut" result="blurOut2" type="matrix" values="0 0 0 0 0 0 0 0 0 0 0 0 0 0 0 0 0 0 .4 0"/><feOffset dx="4.0" dy="4.0" in="blurOut2" result="blurOut3"/><feBlend in="SourceGraphic" in2="blurOut3" mode="normal"/></filter></defs><g><!--MD5=[62cf91c4ac61bc95d5ac8bab52d03502]
class SampleUI--><rect codeLine="4" fill="#FEFECE" filter="url(#f5earbv4tdz65)" height="75.6719" id="SampleUI" style="stroke:#A80036;stroke-width:1.5;" width="151" x="363.5" y="7"/><ellipse cx="407.3" cy="23" fill="#ADD1B2" rx="11" ry="11" style="stroke:#A80036;stroke-width:1.0;"/><path d="M409.3,19.5 Q409.5031,19 409.7375,18.75 Q409.9719,18.5 410.2375,18.5 Q410.7063,18.5 411.0031,18.7813 Q411.3,19.0625 411.3,19.7188 L411.3,21.2813 Q411.3,21.9375 411.0188,22.2188 Q410.7375,22.5 410.3,22.5 Q409.9094,22.5 409.6594,22.3281 Q409.4094,22.1563 409.3,21.7031 Q409.2531,21.3906 409.0813,21.2188 Q408.7688,20.8906 408.2063,20.7031 Q407.6438,20.5 407.0813,20.5 Q406.3781,20.5 405.7844,20.7813 Q405.2063,21.0625 404.7531,21.6875 Q404.3,22.3125 404.3,23.1719 L404.3,24.0938 Q404.3,25.125 405.1438,25.8125 Q405.9875,26.5 407.4875,26.5 Q408.3781,26.5 409.0031,26.2969 Q409.3625,26.1875 409.7688,25.8281 Q410.0344,25.625 410.175,25.5625 Q410.3156,25.5 410.4875,25.5 Q410.8156,25.5 411.05,25.7656 Q411.3,26.0156 411.3,26.375 Q411.3,26.7188 410.9563,27.125 Q410.4563,27.7188 409.6594,28.0469 Q408.6125,28.5 407.3313,28.5 Q405.8313,28.5 404.6281,27.9063 Q403.6594,27.4375 402.9719,26.4219 Q402.3,25.4063 402.3,24.2031 L402.3,23.1094 Q402.3,21.8594 402.8938,20.7656 Q403.5031,19.6719 404.55,19.0938 Q405.6125,18.5 406.8,18.5 Q407.5188,18.5 408.1438,18.75 Q408.7688,19 409.3,19.5 Z " fill="#000000"/><text fill="#000000" font-family="sans-serif" font-size="12" lengthAdjust="spacing" textLength="55" x="427.7" y="27.9102">SampleUI</text><line style="stroke:#A80036;stroke-width:1.5;" x1="364.5" x2="513.5" y1="39" y2="39"/><line style="stroke:#A80036;stroke-width:1.5;" x1="364.5" x2="513.5" y1="47" y2="47"/><text fill="#000000" font-family="sans-serif" font-size="11" lengthAdjust="spacing" textLength="139" x="369.5" y="62.4189">+TestCodeSelection(testList)</text><text fill="#000000" font-family="sans-serif" font-size="11" lengthAdjust="spacing" textLength="101" x="369.5" y="76.2549">+setSampleNumber()</text><!--MD5=[b2e0343becd3acb74ca007b70fee6233]
class SampleController--><rect codeLine="9" fill="#FEFECE" filter="url(#f5earbv4tdz65)" height="103.3438" id="SampleController" style="stroke:#A80036;stroke-width:1.5;" width="130" x="238" y="144"/><ellipse cx="253.45" cy="160" fill="#ADD1B2" rx="11" ry="11" style="stroke:#A80036;stroke-width:1.0;"/><path d="M255.45,156.5 Q255.6531,156 255.8875,155.75 Q256.1219,155.5 256.3875,155.5 Q256.8563,155.5 257.1531,155.7813 Q257.45,156.0625 257.45,156.7188 L257.45,158.2813 Q257.45,158.9375 257.1688,159.2188 Q256.8875,159.5 256.45,159.5 Q256.0594,159.5 255.8094,159.3281 Q255.5594,159.1563 255.45,158.7031 Q255.4031,158.3906 255.2313,158.2188 Q254.9188,157.8906 254.3563,157.7031 Q253.7938,157.5 253.2313,157.5 Q252.5281,157.5 251.9344,157.7813 Q251.3563,158.0625 250.9031,158.6875 Q250.45,159.3125 250.45,160.1719 L250.45,161.0938 Q250.45,162.125 251.2938,162.8125 Q252.1375,163.5 253.6375,163.5 Q254.5281,163.5 255.1531,163.2969 Q255.5125,163.1875 255.9188,162.8281 Q256.1844,162.625 256.325,162.5625 Q256.4656,162.5 256.6375,162.5 Q256.9656,162.5 257.2,162.7656 Q257.45,163.0156 257.45,163.375 Q257.45,163.7188 257.1063,164.125 Q256.6063,164.7188 255.8094,165.0469 Q254.7625,165.5 253.4813,165.5 Q251.9813,165.5 250.7781,164.9063 Q249.8094,164.4375 249.1219,163.4219 Q248.45,162.4063 248.45,161.2031 L248.45,160.1094 Q248.45,158.8594 249.0438,157.7656 Q249.6531,156.6719 250.7,156.0938 Q251.7625,155.5 252.95,155.5 Q253.6688,155.5 254.2938,155.75 Q254.9188,156 255.45,156.5 Z " fill="#000000"/><text fill="#000000" font-family="sans-serif" font-size="12" lengthAdjust="spacing" textLength="97" x="267.55" y="164.9102">SampleController</text><line style="stroke:#A80036;stroke-width:1.5;" x1="239" x2="367" y1="176" y2="176"/><line style="stroke:#A80036;stroke-width:1.5;" x1="239" x2="367" y1="184" y2="184"/><text fill="#000000" font-family="sans-serif" font-size="11" lengthAdjust="spacing" textLength="67" x="244" y="199.4189">+getTestList()</text><text fill="#000000" font-family="sans-serif" font-size="11" lengthAdjust="spacing" textLength="118" x="244" y="213.2549">+setTestCode(testCode)</text><text fill="#000000" font-family="sans-serif" font-size="11" lengthAdjust="spacing" textLength="107" x="244" y="227.0908">+setSampleNumber(n)</text><text fill="#000000" font-family="sans-serif" font-size="11" lengthAdjust="spacing" textLength="103" x="244" y="240.9268">+createSampleList(n)</text><!--MD5=[5d1067525748def49708bb23e378646e]
class ExternalModuleBarcode--><rect codeLine="16" fill="#FEFECE" filter="url(#f5earbv4tdz65)" height="75.6719" id="ExternalModuleBarcode" style="stroke:#A80036;stroke-width:1.5;" width="322" x="481" y="308"/><ellipse cx="572.25" cy="324" fill="#B4A7E5" rx="11" ry="11" style="stroke:#A80036;stroke-width:1.0;"/><path d="M573.25,321 L573.25,327 L575.25,327 L575.7344,327 L576.25,327.625 L576.25,328 L576.25,328.375 L575.7344,329 L575.25,329 L569.25,329 L568.7656,329 L568.25,328.375 L568.25,328 L568.25,327.625 L568.7656,327 L569.25,327 L571.25,327 L571.25,321 L569.25,321 L568.7656,321 L568.25,320.375 L568.25,320 L568.25,319.625 L568.7656,319 L569.25,319 L575.25,319 L575.7344,319 L576.25,319.625 L576.25,320 L576.25,320.375 L575.7344,321 L575.25,321 L573.25,321 Z " fill="#000000"/><text fill="#000000" font-family="sans-serif" font-size="12" font-style="italic" lengthAdjust="spacing" textLength="131" x="592.75" y="328.9102">ExternalModuleBarcode</text><line style="stroke:#A80036;stroke-width:1.5;" x1="482" x2="802" y1="340" y2="340"/><line style="stroke:#A80036;stroke-width:1.5;" x1="482" x2="802" y1="348" y2="348"/><text fill="#000000" font-family="sans-serif" font-size="11" lengthAdjust="spacing" textLength="269" x="487" y="363.4189">+BufferedImage barcodeGenerator(String barcodeText)</text><text fill="#000000" font-family="sans-serif" font-size="11" lengthAdjust="spacing" textLength="310" x="487" y="377.2549">+saveBarcode(BufferedImage barcodeJPG, String barcodeText)</text><!--MD5=[b1e6b9ee4ec5506b81677ffc1c2a7f71]
class ExternalModuleBarcodeAdapter--><rect codeLine="21" fill="#FEFECE" filter="url(#f5earbv4tdz65)" height="75.6719" id="ExternalModuleBarcodeAdapter" style="stroke:#A80036;stroke-width:1.5;" width="217" x="534.5" y="462"/><ellipse cx="555.35" cy="478" fill="#ADD1B2" rx="11" ry="11" style="stroke:#A80036;stroke-width:1.0;"/><path d="M557.35,474.5 Q557.5531,474 557.7875,473.75 Q558.0219,473.5 558.2875,473.5 Q558.7563,473.5 559.0531,473.7813 Q559.35,474.0625 559.35,474.7188 L559.35,476.2813 Q559.35,476.9375 559.0688,477.2188 Q558.7875,477.5 558.35,477.5 Q557.9594,477.5 557.7094,477.3281 Q557.4594,477.1563 557.35,476.7031 Q557.3031,476.3906 557.1313,476.2188 Q556.8188,475.8906 556.2563,475.7031 Q555.6938,475.5 555.1313,475.5 Q554.4281,475.5 553.8344,475.7813 Q553.2563,476.0625 552.8031,476.6875 Q552.35,477.3125 552.35,478.1719 L552.35,479.0938 Q552.35,480.125 553.1938,480.8125 Q554.0375,481.5 555.5375,481.5 Q556.4281,481.5 557.0531,481.2969 Q557.4125,481.1875 557.8188,480.8281 Q558.0844,480.625 558.225,480.5625 Q558.3656,480.5 558.5375,480.5 Q558.8656,480.5 559.1,480.7656 Q559.35,481.0156 559.35,481.375 Q559.35,481.7188 559.0063,482.125 Q558.5063,482.7188 557.7094,483.0469 Q556.6625,483.5 555.3813,483.5 Q553.8813,483.5 552.6781,482.9063 Q551.7094,482.4375 551.0219,481.4219 Q550.35,480.4063 550.35,479.2031 L550.35,478.1094 Q550.35,476.8594 550.9438,475.7656 Q551.5531,474.6719 552.6,474.0938 Q553.6625,473.5 554.85,473.5 Q555.5688,473.5 556.1938,473.75 Q556.8188,474 557.35,474.5 Z " fill="#000000"/><text fill="#000000" font-family="sans-serif" font-size="12" lengthAdjust="spacing" textLength="172" x="570.65" y="482.9102">ExternalModuleBarcodeAdapter</text><line style="stroke:#A80036;stroke-width:1.5;" x1="535.5" x2="750.5" y1="494" y2="494"/><line style="stroke:#A80036;stroke-width:1.5;" x1="535.5" x2="750.5" y1="502" y2="502"/><text fill="#000000" font-family="sans-serif" font-size="11" lengthAdjust="spacing" textLength="164" x="540.5" y="517.4189">+barcodeGenerator(barcodeText)</text><text fill="#000000" font-family="sans-serif" font-size="11" lengthAdjust="spacing" textLength="205" x="540.5" y="531.2549">+saveBarcode(barcodeJPG, barcodeText)</text><!--MD5=[5148b047e2d79a9954d8ccd843ea5362]
class Barbecue--><rect codeLine="26" fill="#FEFECE" filter="url(#f5earbv4tdz65)" height="61.8359" id="Barbecue" style="stroke:#A80036;stroke-width:1.5;" width="227" x="529.5" y="623"/><ellipse cx="612.25" cy="639" fill="#ADD1B2" rx="11" ry="11" style="stroke:#A80036;stroke-width:1.0;"/><path d="M614.25,635.5 Q614.4531,635 614.6875,634.75 Q614.9219,634.5 615.1875,634.5 Q615.6563,634.5 615.9531,634.7813 Q616.25,635.0625 616.25,635.7188 L616.25,637.2813 Q616.25,637.9375 615.9688,638.2188 Q615.6875,638.5 615.25,638.5 Q614.8594,638.5 614.6094,638.3281 Q614.3594,638.1563 614.25,637.7031 Q614.2031,637.3906 614.0313,637.2188 Q613.7188,636.8906 613.1563,636.7031 Q612.5938,636.5 612.0313,636.5 Q611.3281,636.5 610.7344,636.7813 Q610.1563,637.0625 609.7031,637.6875 Q609.25,638.3125 609.25,639.1719 L609.25,640.0938 Q609.25,641.125 610.0938,641.8125 Q610.9375,642.5 612.4375,642.5 Q613.3281,642.5 613.9531,642.2969 Q614.3125,642.1875 614.7188,641.8281 Q614.9844,641.625 615.125,641.5625 Q615.2656,641.5 615.4375,641.5 Q615.7656,641.5 616,641.7656 Q616.25,642.0156 616.25,642.375 Q616.25,642.7188 615.9063,643.125 Q615.4063,643.7188 614.6094,644.0469 Q613.5625,644.5 612.2813,644.5 Q610.7813,644.5 609.5781,643.9063 Q608.6094,643.4375 607.9219,642.4219 Q607.25,641.4063 607.25,640.2031 L607.25,639.1094 Q607.25,637.8594 607.8438,636.7656 Q608.4531,635.6719 609.5,635.0938 Q610.5625,634.5 611.75,634.5 Q612.4688,634.5 613.0938,634.75 Q613.7188,635 614.25,635.5 Z " fill="#000000"/><text fill="#000000" font-family="sans-serif" font-size="12" lengthAdjust="spacing" textLength="53" x="632.75" y="643.9102">Barbecue</text><line style="stroke:#A80036;stroke-width:1.5;" x1="530.5" x2="755.5" y1="655" y2="655"/><line style="stroke:#A80036;stroke-width:1.5;" x1="530.5" x2="755.5" y1="663" y2="663"/><text fill="#000000" font-family="sans-serif" font-size="11" lengthAdjust="spacing" textLength="215" x="535.5" y="678.4189">+Barcode createUPCA(java.lang.String data)</text><!--MD5=[02e4b9b7573f1156f41e60aa5b4e25a4]
class Company--><rect codeLine="30" fill="#FEFECE" filter="url(#f5earbv4tdz65)" height="61.8359" id="Company" style="stroke:#A80036;stroke-width:1.5;" width="88" x="357" y="315"/><ellipse cx="373.35" cy="331" fill="#ADD1B2" rx="11" ry="11" style="stroke:#A80036;stroke-width:1.0;"/><path d="M375.35,327.5 Q375.5531,327 375.7875,326.75 Q376.0219,326.5 376.2875,326.5 Q376.7563,326.5 377.0531,326.7813 Q377.35,327.0625 377.35,327.7188 L377.35,329.2813 Q377.35,329.9375 377.0688,330.2188 Q376.7875,330.5 376.35,330.5 Q375.9594,330.5 375.7094,330.3281 Q375.4594,330.1563 375.35,329.7031 Q375.3031,329.3906 375.1313,329.2188 Q374.8188,328.8906 374.2563,328.7031 Q373.6938,328.5 373.1313,328.5 Q372.4281,328.5 371.8344,328.7813 Q371.2563,329.0625 370.8031,329.6875 Q370.35,330.3125 370.35,331.1719 L370.35,332.0938 Q370.35,333.125 371.1938,333.8125 Q372.0375,334.5 373.5375,334.5 Q374.4281,334.5 375.0531,334.2969 Q375.4125,334.1875 375.8188,333.8281 Q376.0844,333.625 376.225,333.5625 Q376.3656,333.5 376.5375,333.5 Q376.8656,333.5 377.1,333.7656 Q377.35,334.0156 377.35,334.375 Q377.35,334.7188 377.0063,335.125 Q376.5063,335.7188 375.7094,336.0469 Q374.6625,336.5 373.3813,336.5 Q371.8813,336.5 370.6781,335.9063 Q369.7094,335.4375 369.0219,334.4219 Q368.35,333.4063 368.35,332.2031 L368.35,331.1094 Q368.35,329.8594 368.9438,328.7656 Q369.5531,327.6719 370.6,327.0938 Q371.6625,326.5 372.85,326.5 Q373.5688,326.5 374.1938,326.75 Q374.8188,327 375.35,327.5 Z " fill="#000000"/><text fill="#000000" font-family="sans-serif" font-size="12" lengthAdjust="spacing" textLength="53" x="387.65" y="335.9102">Company</text><line style="stroke:#A80036;stroke-width:1.5;" x1="358" x2="444" y1="347" y2="347"/><line style="stroke:#A80036;stroke-width:1.5;" x1="358" x2="444" y1="355" y2="355"/><text fill="#000000" font-family="sans-serif" font-size="11" lengthAdjust="spacing" textLength="76" x="363" y="370.4189">+getTestStore()</text><!--MD5=[144698ec4d0188f6929a3b58a3eeb1f6]
class TestMapper--><rect codeLine="35" fill="#FEFECE" filter="url(#f5earbv4tdz65)" height="61.8359" id="TestMapper" style="stroke:#A80036;stroke-width:1.5;" width="97" x="403.5" y="164.5"/><ellipse cx="418.5" cy="180.5" fill="#ADD1B2" rx="11" ry="11" style="stroke:#A80036;stroke-width:1.0;"/><path d="M420.5,177 Q420.7031,176.5 420.9375,176.25 Q421.1719,176 421.4375,176 Q421.9063,176 422.2031,176.2813 Q422.5,176.5625 422.5,177.2188 L422.5,178.7813 Q422.5,179.4375 422.2188,179.7188 Q421.9375,180 421.5,180 Q421.1094,180 420.8594,179.8281 Q420.6094,179.6563 420.5,179.2031 Q420.4531,178.8906 420.2813,178.7188 Q419.9688,178.3906 419.4063,178.2031 Q418.8438,178 418.2813,178 Q417.5781,178 416.9844,178.2813 Q416.4063,178.5625 415.9531,179.1875 Q415.5,179.8125 415.5,180.6719 L415.5,181.5938 Q415.5,182.625 416.3438,183.3125 Q417.1875,184 418.6875,184 Q419.5781,184 420.2031,183.7969 Q420.5625,183.6875 420.9688,183.3281 Q421.2344,183.125 421.375,183.0625 Q421.5156,183 421.6875,183 Q422.0156,183 422.25,183.2656 Q422.5,183.5156 422.5,183.875 Q422.5,184.2188 422.1563,184.625 Q421.6563,185.2188 420.8594,185.5469 Q419.8125,186 418.5313,186 Q417.0313,186 415.8281,185.4063 Q414.8594,184.9375 414.1719,183.9219 Q413.5,182.9063 413.5,181.7031 L413.5,180.6094 Q413.5,179.3594 414.0938,178.2656 Q414.7031,177.1719 415.75,176.5938 Q416.8125,176 418,176 Q418.7188,176 419.3438,176.25 Q419.9688,176.5 420.5,177 Z " fill="#000000"/><text fill="#000000" font-family="sans-serif" font-size="12" lengthAdjust="spacing" textLength="65" x="432.5" y="185.4102">TestMapper</text><line style="stroke:#A80036;stroke-width:1.5;" x1="404.5" x2="499.5" y1="196.5" y2="196.5"/><line style="stroke:#A80036;stroke-width:1.5;" x1="404.5" x2="499.5" y1="204.5" y2="204.5"/><text fill="#000000" font-family="sans-serif" font-size="11" lengthAdjust="spacing" textLength="61" x="409.5" y="219.9189">+toDTOList()</text><!--MD5=[9fb704ffefcaf68bf1a361787afa998b]
class TestDTO--><rect codeLine="39" fill="#FEFECE" filter="url(#f5earbv4tdz65)" height="48" id="TestDTO" style="stroke:#A80036;stroke-width:1.5;" width="81" x="535.5" y="171.5"/><ellipse cx="550.5" cy="187.5" fill="#ADD1B2" rx="11" ry="11" style="stroke:#A80036;stroke-width:1.0;"/><path d="M552.5,184 Q552.7031,183.5 552.9375,183.25 Q553.1719,183 553.4375,183 Q553.9063,183 554.2031,183.2813 Q554.5,183.5625 554.5,184.2188 L554.5,185.7813 Q554.5,186.4375 554.2188,186.7188 Q553.9375,187 553.5,187 Q553.1094,187 552.8594,186.8281 Q552.6094,186.6563 552.5,186.2031 Q552.4531,185.8906 552.2813,185.7188 Q551.9688,185.3906 551.4063,185.2031 Q550.8438,185 550.2813,185 Q549.5781,185 548.9844,185.2813 Q548.4063,185.5625 547.9531,186.1875 Q547.5,186.8125 547.5,187.6719 L547.5,188.5938 Q547.5,189.625 548.3438,190.3125 Q549.1875,191 550.6875,191 Q551.5781,191 552.2031,190.7969 Q552.5625,190.6875 552.9688,190.3281 Q553.2344,190.125 553.375,190.0625 Q553.5156,190 553.6875,190 Q554.0156,190 554.25,190.2656 Q554.5,190.5156 554.5,190.875 Q554.5,191.2188 554.1563,191.625 Q553.6563,192.2188 552.8594,192.5469 Q551.8125,193 550.5313,193 Q549.0313,193 547.8281,192.4063 Q546.8594,191.9375 546.1719,190.9219 Q545.5,189.9063 545.5,188.7031 L545.5,187.6094 Q545.5,186.3594 546.0938,185.2656 Q546.7031,184.1719 547.75,183.5938 Q548.8125,183 550,183 Q550.7188,183 551.3438,183.25 Q551.9688,183.5 552.5,184 Z " fill="#000000"/><text fill="#000000" font-family="sans-serif" font-size="12" lengthAdjust="spacing" textLength="49" x="564.5" y="192.4102">TestDTO</text><line style="stroke:#A80036;stroke-width:1.5;" x1="536.5" x2="615.5" y1="203.5" y2="203.5"/><line style="stroke:#A80036;stroke-width:1.5;" x1="536.5" x2="615.5" y1="211.5" y2="211.5"/><!--MD5=[9681492165142af2a4a3a169d90ee8d4]
class Sample--><rect codeLine="42" fill="#FEFECE" filter="url(#f5earbv4tdz65)" height="75.6719" id="Sample" style="stroke:#A80036;stroke-width:1.5;" width="130" x="7" y="616"/><ellipse cx="46.75" cy="632" fill="#ADD1B2" rx="11" ry="11" style="stroke:#A80036;stroke-width:1.0;"/><path d="M48.75,628.5 Q48.9531,628 49.1875,627.75 Q49.4219,627.5 49.6875,627.5 Q50.1563,627.5 50.4531,627.7813 Q50.75,628.0625 50.75,628.7188 L50.75,630.2813 Q50.75,630.9375 50.4688,631.2188 Q50.1875,631.5 49.75,631.5 Q49.3594,631.5 49.1094,631.3281 Q48.8594,631.1563 48.75,630.7031 Q48.7031,630.3906 48.5313,630.2188 Q48.2188,629.8906 47.6563,629.7031 Q47.0938,629.5 46.5313,629.5 Q45.8281,629.5 45.2344,629.7813 Q44.6563,630.0625 44.2031,630.6875 Q43.75,631.3125 43.75,632.1719 L43.75,633.0938 Q43.75,634.125 44.5938,634.8125 Q45.4375,635.5 46.9375,635.5 Q47.8281,635.5 48.4531,635.2969 Q48.8125,635.1875 49.2188,634.8281 Q49.4844,634.625 49.625,634.5625 Q49.7656,634.5 49.9375,634.5 Q50.2656,634.5 50.5,634.7656 Q50.75,635.0156 50.75,635.375 Q50.75,635.7188 50.4063,636.125 Q49.9063,636.7188 49.1094,637.0469 Q48.0625,637.5 46.7813,637.5 Q45.2813,637.5 44.0781,636.9063 Q43.1094,636.4375 42.4219,635.4219 Q41.75,634.4063 41.75,633.2031 L41.75,632.1094 Q41.75,630.8594 42.3438,629.7656 Q42.9531,628.6719 44,628.0938 Q45.0625,627.5 46.25,627.5 Q46.9688,627.5 47.5938,627.75 Q48.2188,628 48.75,628.5 Z " fill="#000000"/><text fill="#000000" font-family="sans-serif" font-size="12" lengthAdjust="spacing" textLength="43" x="66.25" y="636.9102">Sample</text><line style="stroke:#A80036;stroke-width:1.5;" x1="8" x2="136" y1="648" y2="648"/><text fill="#000000" font-family="sans-serif" font-size="11" lengthAdjust="spacing" textLength="65" x="13" y="663.4189">-barcodeText</text><line style="stroke:#A80036;stroke-width:1.5;" x1="8" x2="136" y1="669.8359" y2="669.8359"/><text fill="#000000" font-family="sans-serif" font-size="11" lengthAdjust="spacing" textLength="118" x="13" y="685.2549">+generateBarcodeUPC()</text><!--MD5=[2b343c20b2df7b16f479f389dd4eb438]
class SampleList--><rect codeLine="47" fill="#FEFECE" filter="url(#f5earbv4tdz65)" height="61.8359" id="SampleList" style="stroke:#A80036;stroke-width:1.5;" width="122" x="223" y="623"/><ellipse cx="250.15" cy="639" fill="#ADD1B2" rx="11" ry="11" style="stroke:#A80036;stroke-width:1.0;"/><path d="M252.15,635.5 Q252.3531,635 252.5875,634.75 Q252.8219,634.5 253.0875,634.5 Q253.5563,634.5 253.8531,634.7813 Q254.15,635.0625 254.15,635.7188 L254.15,637.2813 Q254.15,637.9375 253.8688,638.2188 Q253.5875,638.5 253.15,638.5 Q252.7594,638.5 252.5094,638.3281 Q252.2594,638.1563 252.15,637.7031 Q252.1031,637.3906 251.9313,637.2188 Q251.6188,636.8906 251.0563,636.7031 Q250.4938,636.5 249.9313,636.5 Q249.2281,636.5 248.6344,636.7813 Q248.0563,637.0625 247.6031,637.6875 Q247.15,638.3125 247.15,639.1719 L247.15,640.0938 Q247.15,641.125 247.9938,641.8125 Q248.8375,642.5 250.3375,642.5 Q251.2281,642.5 251.8531,642.2969 Q252.2125,642.1875 252.6188,641.8281 Q252.8844,641.625 253.025,641.5625 Q253.1656,641.5 253.3375,641.5 Q253.6656,641.5 253.9,641.7656 Q254.15,642.0156 254.15,642.375 Q254.15,642.7188 253.8063,643.125 Q253.3063,643.7188 252.5094,644.0469 Q251.4625,644.5 250.1813,644.5 Q248.6813,644.5 247.4781,643.9063 Q246.5094,643.4375 245.8219,642.4219 Q245.15,641.4063 245.15,640.2031 L245.15,639.1094 Q245.15,637.8594 245.7438,636.7656 Q246.3531,635.6719 247.4,635.0938 Q248.4625,634.5 249.65,634.5 Q250.3688,634.5 250.9938,634.75 Q251.6188,635 252.15,635.5 Z " fill="#000000"/><text fill="#000000" font-family="sans-serif" font-size="12" lengthAdjust="spacing" textLength="63" x="266.85" y="643.9102">SampleList</text><line style="stroke:#A80036;stroke-width:1.5;" x1="224" x2="344" y1="655" y2="655"/><line style="stroke:#A80036;stroke-width:1.5;" x1="224" x2="344" y1="663" y2="663"/><text fill="#000000" font-family="sans-serif" font-size="11" lengthAdjust="spacing" textLength="110" x="229" y="678.4189">+saveSample(sample);</text><!--MD5=[0f6f7964b844a64b0496af0dda7914bd]
class TestStore--><rect codeLine="51" fill="#FEFECE" filter="url(#f5earbv4tdz65)" height="75.6719" id="TestStore" style="stroke:#A80036;stroke-width:1.5;" width="143" x="356.5" y="462"/><ellipse cx="397.6" cy="478" fill="#ADD1B2" rx="11" ry="11" style="stroke:#A80036;stroke-width:1.0;"/><path d="M399.6,474.5 Q399.8031,474 400.0375,473.75 Q400.2719,473.5 400.5375,473.5 Q401.0063,473.5 401.3031,473.7813 Q401.6,474.0625 401.6,474.7188 L401.6,476.2813 Q401.6,476.9375 401.3188,477.2188 Q401.0375,477.5 400.6,477.5 Q400.2094,477.5 399.9594,477.3281 Q399.7094,477.1563 399.6,476.7031 Q399.5531,476.3906 399.3813,476.2188 Q399.0688,475.8906 398.5063,475.7031 Q397.9438,475.5 397.3813,475.5 Q396.6781,475.5 396.0844,475.7813 Q395.5063,476.0625 395.0531,476.6875 Q394.6,477.3125 394.6,478.1719 L394.6,479.0938 Q394.6,480.125 395.4438,480.8125 Q396.2875,481.5 397.7875,481.5 Q398.6781,481.5 399.3031,481.2969 Q399.6625,481.1875 400.0688,480.8281 Q400.3344,480.625 400.475,480.5625 Q400.6156,480.5 400.7875,480.5 Q401.1156,480.5 401.35,480.7656 Q401.6,481.0156 401.6,481.375 Q401.6,481.7188 401.2563,482.125 Q400.7563,482.7188 399.9594,483.0469 Q398.9125,483.5 397.6313,483.5 Q396.1313,483.5 394.9281,482.9063 Q393.9594,482.4375 393.2719,481.4219 Q392.6,480.4063 392.6,479.2031 L392.6,478.1094 Q392.6,476.8594 393.1938,475.7656 Q393.8031,474.6719 394.85,474.0938 Q395.9125,473.5 397.1,473.5 Q397.8188,473.5 398.4438,473.75 Q399.0688,474 399.6,474.5 Z " fill="#000000"/><text fill="#000000" font-family="sans-serif" font-size="12" lengthAdjust="spacing" textLength="53" x="417.4" y="482.9102">TestStore</text><line style="stroke:#A80036;stroke-width:1.5;" x1="357.5" x2="498.5" y1="494" y2="494"/><line style="stroke:#A80036;stroke-width:1.5;" x1="357.5" x2="498.5" y1="502" y2="502"/><text fill="#000000" font-family="sans-serif" font-size="11" lengthAdjust="spacing" textLength="108" x="362.5" y="517.4189">+getRegisteredTests()</text><text fill="#000000" font-family="sans-serif" font-size="11" lengthAdjust="spacing" textLength="131" x="362.5" y="531.2549">+getTestByCode(testCode)</text><!--MD5=[df38be88ccee13e832d6fafd6288a4ca]
class Test--><rect codeLine="56" fill="#FEFECE" filter="url(#f5earbv4tdz65)" height="75.6719" id="Test" style="stroke:#A80036;stroke-width:1.5;" width="144" x="106" y="462"/><ellipse cx="161.75" cy="478" fill="#ADD1B2" rx="11" ry="11" style="stroke:#A80036;stroke-width:1.0;"/><path d="M163.75,474.5 Q163.9531,474 164.1875,473.75 Q164.4219,473.5 164.6875,473.5 Q165.1563,473.5 165.4531,473.7813 Q165.75,474.0625 165.75,474.7188 L165.75,476.2813 Q165.75,476.9375 165.4688,477.2188 Q165.1875,477.5 164.75,477.5 Q164.3594,477.5 164.1094,477.3281 Q163.8594,477.1563 163.75,476.7031 Q163.7031,476.3906 163.5313,476.2188 Q163.2188,475.8906 162.6563,475.7031 Q162.0938,475.5 161.5313,475.5 Q160.8281,475.5 160.2344,475.7813 Q159.6563,476.0625 159.2031,476.6875 Q158.75,477.3125 158.75,478.1719 L158.75,479.0938 Q158.75,480.125 159.5938,480.8125 Q160.4375,481.5 161.9375,481.5 Q162.8281,481.5 163.4531,481.2969 Q163.8125,481.1875 164.2188,480.8281 Q164.4844,480.625 164.625,480.5625 Q164.7656,480.5 164.9375,480.5 Q165.2656,480.5 165.5,480.7656 Q165.75,481.0156 165.75,481.375 Q165.75,481.7188 165.4063,482.125 Q164.9063,482.7188 164.1094,483.0469 Q163.0625,483.5 161.7813,483.5 Q160.2813,483.5 159.0781,482.9063 Q158.1094,482.4375 157.4219,481.4219 Q156.75,480.4063 156.75,479.2031 L156.75,478.1094 Q156.75,476.8594 157.3438,475.7656 Q157.9531,474.6719 159,474.0938 Q160.0625,473.5 161.25,473.5 Q161.9688,473.5 162.5938,473.75 Q163.2188,474 163.75,474.5 Z " fill="#000000"/><text fill="#000000" font-family="sans-serif" font-size="12" lengthAdjust="spacing" textLength="24" x="182.25" y="482.9102">Test</text><line style="stroke:#A80036;stroke-width:1.5;" x1="107" x2="249" y1="494" y2="494"/><text fill="#000000" font-family="sans-serif" font-size="11" lengthAdjust="spacing" textLength="55" x="112" y="509.4189">-sampleList</text><line style="stroke:#A80036;stroke-width:1.5;" x1="107" x2="249" y1="515.8359" y2="515.8359"/><text fill="#000000" font-family="sans-serif" font-size="11" lengthAdjust="spacing" textLength="132" x="112" y="531.2549">+setSampleList(sampleList)</text><!--MD5=[201cf8439a08916d1f38ab05e55ad123]
link SampleUI to SampleController--><path codeLine="61" d="M405.03,83.09 C389.25,100.32 370.17,121.16 352.8,140.13 " fill="none" id="SampleUI-to-SampleController" style="stroke:#A80036;stroke-width:1.0;stroke-dasharray:7.0,7.0;"/><polygon fill="#A80036" points="349.35,143.89,358.3843,139.968,352.7325,140.2078,352.4927,134.556,349.35,143.89" style="stroke:#A80036;stroke-width:1.0;"/><!--MD5=[39b8a89389709c1cb1b9df8565d96aec]
reverse link ExternalModuleBarcode to ExternalModuleBarcodeAdapter--><path codeLine="62" d="M642.38,404.22 C642.5,423.54 642.64,444.59 642.76,461.94 " fill="none" id="ExternalModuleBarcode-backto-ExternalModuleBarcodeAdapter" style="stroke:#A80036;stroke-width:1.0;stroke-dasharray:7.0,7.0;"/><polygon fill="none" points="635.38,404.23,642.24,384.18,649.38,404.14,635.38,404.23" style="stroke:#A80036;stroke-width:1.0;"/><!--MD5=[08a6728b76f7c9bee8d0ea8b62013e85]
link ExternalModuleBarcodeAdapter to Barbecue--><path codeLine="63" d="M643,538.18 C643,562.37 643,593.72 643,617.56 " fill="none" id="ExternalModuleBarcodeAdapter-to-Barbecue" style="stroke:#A80036;stroke-width:1.0;"/><polygon fill="#A80036" points="643,622.83,647,613.83,643,617.83,639,613.83,643,622.83" style="stroke:#A80036;stroke-width:1.0;"/><!--MD5=[f14d6931ee7b83449a4ce97ee2c518ed]
link SampleController to Company--><path codeLine="64" d="M336.45,247.19 C350.27,268.12 365.92,291.85 378.36,310.69 " fill="none" id="SampleController-to-Company" style="stroke:#A80036;stroke-width:1.0;stroke-dasharray:7.0,7.0;"/><polygon fill="#A80036" points="381.12,314.87,379.5176,305.1524,378.373,310.6922,372.8331,309.5476,381.12,314.87" style="stroke:#A80036;stroke-width:1.0;"/><!--MD5=[aa85792963d55107d845b13a7c9c7cf2]
link SampleController to TestMapper--><path codeLine="65" d="M368.19,195.5 C378.13,195.5 388.07,195.5 398.02,195.5 " fill="none" id="SampleController-to-TestMapper" style="stroke:#A80036;stroke-width:1.0;stroke-dasharray:7.0,7.0;"/><polygon fill="#A80036" points="403.22,195.5,394.22,191.5,398.22,195.5,394.22,199.5,403.22,195.5" style="stroke:#A80036;stroke-width:1.0;"/><!--MD5=[f6fda4afaf882dd39139bcbf06c50c8c]
link TestMapper to TestDTO--><path codeLine="66" d="M500.92,195.5 C510.66,195.5 520.4,195.5 530.14,195.5 " fill="none" id="TestMapper-to-TestDTO" style="stroke:#A80036;stroke-width:1.0;stroke-dasharray:7.0,7.0;"/><polygon fill="#A80036" points="535.23,195.5,526.23,191.5,530.23,195.5,526.23,199.5,535.23,195.5" style="stroke:#A80036;stroke-width:1.0;"/><!--MD5=[cc611d447c1a60cf050c6ad84c30a76a]
link SampleController to Sample--><path codeLine="67" d="M246,247.09 C194.79,296.34 122.5,376.15 88,462 C68.58,510.31 66.93,570.92 68.57,610.75 " fill="none" id="SampleController-to-Sample" style="stroke:#A80036;stroke-width:1.0;stroke-dasharray:7.0,7.0;"/><polygon fill="#A80036" points="68.81,615.98,72.3948,606.8067,68.5817,610.9852,64.4032,607.1721,68.81,615.98" style="stroke:#A80036;stroke-width:1.0;"/><!--MD5=[77b1a8c098ad966be031ad390c496da3]
link SampleController to ExternalModuleBarcode--><path codeLine="68" d="M368.08,237.6 C374.06,240.92 380.09,244.1 386,247 C431.04,269.09 482.39,289.61 527.22,306.1 " fill="none" id="SampleController-to-ExternalModuleBarcode" style="stroke:#A80036;stroke-width:1.0;stroke-dasharray:7.0,7.0;"/><polygon fill="#A80036" points="532.09,307.89,525.0239,301.0293,527.3973,306.1641,522.2625,308.5376,532.09,307.89" style="stroke:#A80036;stroke-width:1.0;"/><!--MD5=[4e110d1e973607199050f89f89838fda]
link SampleController to SampleList--><path codeLine="69" d="M300.89,247.1 C297.01,340.46 288.8,537.59 285.46,617.87 " fill="none" id="SampleController-to-SampleList" style="stroke:#A80036;stroke-width:1.0;stroke-dasharray:7.0,7.0;"/><polygon fill="#A80036" points="285.25,622.98,289.6065,614.1471,285.4498,617.984,281.6129,613.8273,285.25,622.98" style="stroke:#A80036;stroke-width:1.0;"/><!--MD5=[32ab1de427273075b811497f44260ad5]
link SampleController to Test--><path codeLine="70" d="M282.08,247.13 C257.79,305.91 218.17,401.78 195.47,456.73 " fill="none" id="SampleController-to-Test" style="stroke:#A80036;stroke-width:1.0;stroke-dasharray:7.0,7.0;"/><polygon fill="#A80036" points="193.46,461.59,200.5855,454.7909,195.3637,456.9666,193.188,451.7449,193.46,461.59" style="stroke:#A80036;stroke-width:1.0;"/><!--MD5=[7f6cf7f175eae0af66201860de5de971]
link Company to TestStore--><path codeLine="71" d="M406.33,377.03 C410.38,399.82 416,431.45 420.5,456.79 " fill="none" id="Company-to-TestStore" style="stroke:#A80036;stroke-width:1.0;"/><polygon fill="#A80036" points="421.39,461.77,423.7571,452.2098,420.517,456.8468,415.88,453.6067,421.39,461.77" style="stroke:#A80036;stroke-width:1.0;"/><text fill="#000000" font-family="sans-serif" font-size="13" lengthAdjust="spacing" textLength="28" x="417" y="428.4951">uses</text><!--MD5=[b72ac8ab7fb5921fceb5036a3902baea]
link Test to Sample--><path codeLine="72" d="M152.07,538.18 C136.55,560.44 116.79,588.77 100.79,611.72 " fill="none" id="Test-to-Sample" style="stroke:#A80036;stroke-width:1.0;"/><polygon fill="#A80036" points="97.85,615.94,106.2774,610.843,100.7087,611.8378,99.7139,606.2691,97.85,615.94" style="stroke:#A80036;stroke-width:1.0;"/><text fill="#000000" font-family="sans-serif" font-size="13" lengthAdjust="spacing" textLength="45" x="130" y="582.4951">collects</text><!--MD5=[b0f4f6db8206580012ef9cd998ed01c5]
link TestStore to Test--><path codeLine="73" d="M356.28,500 C324.73,500 287.61,500 255.43,500 " fill="none" id="TestStore-to-Test" style="stroke:#A80036;stroke-width:1.0;"/><polygon fill="#A80036" points="250.31,500,259.31,504,255.31,500,259.31,496,250.31,500" style="stroke:#A80036;stroke-width:1.0;"/><text fill="#000000" font-family="sans-serif" font-size="13" lengthAdjust="spacing" textLength="49" x="278.75" y="493.4951">contains</text><!--MD5=[9e73c4dac38628e51c731dcaf44d45fc]
reverse link Sample to SampleList--><path codeLine="74" d="M142.21,654 C168.24,654 197.53,654 222.7,654 " fill="none" id="Sample-backto-SampleList" style="stroke:#A80036;stroke-width:1.0;"/><polygon fill="#A80036" points="137.05,654,146.05,658,142.05,654,146.05,650,137.05,654" style="stroke:#A80036;stroke-width:1.0;"/><text fill="#000000" font-family="sans-serif" font-size="13" lengthAdjust="spacing" textLength="49" x="155.5" y="647.4951">contains</text><!--MD5=[03474f3c6203152d515dbbdcb11a8418]
link Test to SampleList--><path codeLine="75" d="M203.93,538.18 C221.01,562.67 243.22,594.52 259.91,618.45 " fill="none" id="Test-to-SampleList" style="stroke:#A80036;stroke-width:1.0;"/><polygon fill="#A80036" points="262.96,622.83,261.0961,613.1591,260.1013,618.7278,254.5326,617.733,262.96,622.83" style="stroke:#A80036;stroke-width:1.0;"/><text fill="#000000" font-family="sans-serif" font-size="13" lengthAdjust="spacing" textLength="28" x="236" y="582.4951">uses</text><!--MD5=[d1174c91dd103f1eabc9b404e690511e]
link SampleUI to TestDTO--><path codeLine="76" d="M473.22,83.09 C497.44,109.35 529.37,143.96 551.18,167.59 " fill="none" id="SampleUI-to-TestDTO" style="stroke:#A80036;stroke-width:1.0;stroke-dasharray:7.0,7.0;"/><polygon fill="#A80036" points="554.59,171.29,551.4292,161.9621,551.2004,167.6143,545.5482,167.3855,554.59,171.29" style="stroke:#A80036;stroke-width:1.0;"/><!--MD5=[cd16f8b54c61a4c8aa606fcfc1ad3f7b]
@startuml

skinparam classAttributeIconSize 0

class SampleUI {
+TestCodeSelection(testList)
+setSampleNumber()
}

class SampleController {
+getTestList()
+setTestCode(testCode)
+setSampleNumber(n)
+createSampleList(n)
}

interface ExternalModuleBarcode {
+BufferedImage barcodeGenerator(String barcodeText)
+saveBarcode(BufferedImage barcodeJPG, String barcodeText)
}

class ExternalModuleBarcodeAdapter {
+barcodeGenerator(barcodeText)
+saveBarcode(barcodeJPG, barcodeText)
}

class Barbecue {
+Barcode createUPCA(java.lang.String data)
}

class Company {
+getTestStore()
}


class TestMapper {
+toDTOList()
}

class TestDTO {
}

class Sample {
-barcodeText
+generateBarcodeUPC()
}

class SampleList {
+saveSample(sample);
}

class TestStore {
+getRegisteredTests()
+getTestByCode(testCode)
}

class Test {
-sampleList
+setSampleList(sampleList)
}

SampleUI ..> SampleController
ExternalModuleBarcode <|.. ExternalModuleBarcodeAdapter
ExternalModuleBarcodeAdapter - -> Barbecue
SampleController ..> Company
SampleController .> TestMapper
TestMapper .> TestDTO
SampleController ..> Sample
SampleController ..> ExternalModuleBarcode
SampleController ..> SampleList
SampleController ...> Test
Company - -> TestStore : uses
Test - -> Sample : collects
TestStore -> Test : contains
Sample <- SampleList : contains
Test -> SampleList : uses
SampleUI ..> TestDTO

@enduml

PlantUML version 1.2021.4(Sun Apr 04 09:49:39 BST 2021)
(GPL source distribution)
Java Runtime: OpenJDK Runtime Environment
JVM: OpenJDK 64-Bit Server VM
Default Encoding: Cp1252
Language: en
Country: US
--></g></svg>