<?xml version="1.0" encoding="UTF-8" standalone="no"?><svg xmlns="http://www.w3.org/2000/svg" xmlns:xlink="http://www.w3.org/1999/xlink" contentScriptType="application/ecmascript" contentStyleType="text/css" height="864px" preserveAspectRatio="none" style="width:1276px;height:864px;" version="1.1" viewBox="0 0 1276 864" width="1276px" zoomAndPan="magnify"><defs><filter height="300%" id="fnsnmb1s4hesf" width="300%" x="-1" y="-1"><feGaussianBlur result="blurOut" stdDeviation="2.0"/><feColorMatrix in="blurOut" result="blurOut2" type="matrix" values="0 0 0 0 0 0 0 0 0 0 0 0 0 0 0 0 0 0 .4 0"/><feOffset dx="4.0" dy="4.0" in="blurOut2" result="blurOut3"/><feBlend in="SourceGraphic" in2="blurOut3" mode="normal"/></filter></defs><g><rect fill="#FFFFFF" filter="url(#fnsnmb1s4hesf)" height="661.3828" style="stroke:#A80036;stroke-width:1.0;" width="10" x="73.5" y="99.6094"/><rect fill="#FFFFFF" filter="url(#fnsnmb1s4hesf)" height="182.1094" style="stroke:#A80036;stroke-width:1.0;" width="10" x="362.5" y="121.9609"/><rect fill="#FFFFFF" filter="url(#fnsnmb1s4hesf)" height="90.7031" style="stroke:#A80036;stroke-width:1.0;" width="10" x="362.5" y="334.4219"/><rect fill="#FFFFFF" filter="url(#fnsnmb1s4hesf)" height="30.3516" style="stroke:#A80036;stroke-width:1.0;" width="10" x="362.5" y="455.4766"/><rect fill="#FFFFFF" filter="url(#fnsnmb1s4hesf)" height="244.8125" style="stroke:#A80036;stroke-width:1.0;" width="10" x="362.5" y="516.1797"/><rect fill="#FFFFFF" filter="url(#fnsnmb1s4hesf)" height="30.3516" style="stroke:#A80036;stroke-width:1.0;" width="10" x="552.5" y="152.3125"/><rect fill="#FFFFFF" filter="url(#fnsnmb1s4hesf)" height="30.3516" style="stroke:#A80036;stroke-width:1.0;" width="10" x="552.5" y="243.3672"/><rect fill="#FFFFFF" filter="url(#fnsnmb1s4hesf)" height="328.5156" style="stroke:#A80036;stroke-width:1.0;" width="10" x="552.5" y="364.7734"/><rect fill="#FFFFFF" filter="url(#fnsnmb1s4hesf)" height="30.3516" style="stroke:#A80036;stroke-width:1.0;" width="10" x="665" y="182.6641"/><rect fill="#FFFFFF" filter="url(#fnsnmb1s4hesf)" height="30.3516" style="stroke:#A80036;stroke-width:1.0;" width="10" x="793" y="213.0156"/><rect fill="#FFFFFF" filter="url(#fnsnmb1s4hesf)" height="30.3516" style="stroke:#A80036;stroke-width:1.0;" width="10" x="889" y="632.5859"/><rect fill="#FFFFFF" filter="url(#fnsnmb1s4hesf)" height="30.3516" style="stroke:#A80036;stroke-width:1.0;" width="10" x="977.5" y="693.2891"/><rect fill="#FFFFFF" filter="url(#fnsnmb1s4hesf)" height="177.1094" style="stroke:#A80036;stroke-width:1.0;" width="10" x="1197.5" y="546.5313"/><rect fill="#FFFFFF" filter="url(#fnsnmb1s4hesf)" height="170.1094" style="stroke:#000000;stroke-width:2.0;" width="943" x="319" y="561.5313"/><line style="stroke:#A80036;stroke-width:1.0;stroke-dasharray:5.0,5.0;" x1="78" x2="78" y1="89.6094" y2="778.9922"/><line style="stroke:#A80036;stroke-width:1.0;stroke-dasharray:5.0,5.0;" x1="367" x2="367" y1="89.6094" y2="778.9922"/><line style="stroke:#A80036;stroke-width:1.0;stroke-dasharray:5.0,5.0;" x1="557" x2="557" y1="89.6094" y2="778.9922"/><line style="stroke:#A80036;stroke-width:1.0;stroke-dasharray:5.0,5.0;" x1="670" x2="670" y1="89.6094" y2="778.9922"/><line style="stroke:#A80036;stroke-width:1.0;stroke-dasharray:5.0,5.0;" x1="798" x2="798" y1="89.6094" y2="778.9922"/><line style="stroke:#A80036;stroke-width:1.0;stroke-dasharray:5.0,5.0;" x1="894" x2="894" y1="89.6094" y2="778.9922"/><line style="stroke:#A80036;stroke-width:1.0;stroke-dasharray:5.0,5.0;" x1="982" x2="982" y1="89.6094" y2="778.9922"/><line style="stroke:#A80036;stroke-width:1.0;stroke-dasharray:5.0,5.0;" x1="1202" x2="1202" y1="89.6094" y2="778.9922"/><text fill="#000000" font-family="sans-serif" font-size="14" lengthAdjust="spacing" textLength="141" x="5" y="86.5332">MedicalLabTechnician</text><ellipse cx="78.5" cy="15" fill="#FEFECE" filter="url(#fnsnmb1s4hesf)" rx="8" ry="8" style="stroke:#A80036;stroke-width:2.0;"/><path d="M78.5,23 L78.5,50 M65.5,31 L91.5,31 M78.5,50 L65.5,65 M78.5,50 L91.5,65 " fill="none" filter="url(#fnsnmb1s4hesf)" style="stroke:#A80036;stroke-width:2.0;"/><text fill="#000000" font-family="sans-serif" font-size="14" lengthAdjust="spacing" textLength="141" x="5" y="792.5254">MedicalLabTechnician</text><ellipse cx="78.5" cy="805.6016" fill="#FEFECE" filter="url(#fnsnmb1s4hesf)" rx="8" ry="8" style="stroke:#A80036;stroke-width:2.0;"/><path d="M78.5,813.6016 L78.5,840.6016 M65.5,821.6016 L91.5,821.6016 M78.5,840.6016 L65.5,855.6016 M78.5,840.6016 L91.5,855.6016 " fill="none" filter="url(#fnsnmb1s4hesf)" style="stroke:#A80036;stroke-width:2.0;"/><rect fill="#FEFECE" filter="url(#fnsnmb1s4hesf)" height="31.6094" style="stroke:#A80036;stroke-width:1.5;" width="73" x="329" y="53"/><text fill="#000000" font-family="sans-serif" font-size="14" lengthAdjust="spacing" textLength="59" x="336" y="74.5332">SampleUI</text><rect fill="#FEFECE" filter="url(#fnsnmb1s4hesf)" height="31.6094" style="stroke:#A80036;stroke-width:1.5;" width="73" x="329" y="777.9922"/><text fill="#000000" font-family="sans-serif" font-size="14" lengthAdjust="spacing" textLength="59" x="336" y="799.5254">SampleUI</text><rect fill="#FEFECE" filter="url(#fnsnmb1s4hesf)" height="31.6094" style="stroke:#A80036;stroke-width:1.5;" width="123" x="494" y="53"/><text fill="#000000" font-family="sans-serif" font-size="14" lengthAdjust="spacing" textLength="109" x="501" y="74.5332">SampleController</text><rect fill="#FEFECE" filter="url(#fnsnmb1s4hesf)" height="31.6094" style="stroke:#A80036;stroke-width:1.5;" width="123" x="494" y="777.9922"/><text fill="#000000" font-family="sans-serif" font-size="14" lengthAdjust="spacing" textLength="109" x="501" y="799.5254">SampleController</text><rect fill="#FEFECE" filter="url(#fnsnmb1s4hesf)" height="31.6094" style="stroke:#A80036;stroke-width:1.5;" width="74" x="631" y="53"/><text fill="#000000" font-family="sans-serif" font-size="14" lengthAdjust="spacing" textLength="60" x="638" y="74.5332">Company</text><rect fill="#FEFECE" filter="url(#fnsnmb1s4hesf)" height="31.6094" style="stroke:#A80036;stroke-width:1.5;" width="74" x="631" y="777.9922"/><text fill="#000000" font-family="sans-serif" font-size="14" lengthAdjust="spacing" textLength="60" x="638" y="799.5254">Company</text><rect fill="#FEFECE" filter="url(#fnsnmb1s4hesf)" height="31.6094" style="stroke:#A80036;stroke-width:1.5;" width="76" x="758" y="53"/><text fill="#000000" font-family="sans-serif" font-size="14" lengthAdjust="spacing" textLength="62" x="765" y="74.5332">TestStore</text><rect fill="#FEFECE" filter="url(#fnsnmb1s4hesf)" height="31.6094" style="stroke:#A80036;stroke-width:1.5;" width="76" x="758" y="777.9922"/><text fill="#000000" font-family="sans-serif" font-size="14" lengthAdjust="spacing" textLength="62" x="765" y="799.5254">TestStore</text><rect fill="#FEFECE" filter="url(#fnsnmb1s4hesf)" height="31.6094" style="stroke:#A80036;stroke-width:1.5;" width="88" x="848" y="53"/><text fill="#000000" font-family="sans-serif" font-size="14" lengthAdjust="spacing" textLength="74" x="855" y="74.5332">BarcodeAPI</text><rect fill="#FEFECE" filter="url(#fnsnmb1s4hesf)" height="31.6094" style="stroke:#A80036;stroke-width:1.5;" width="88" x="848" y="777.9922"/><text fill="#000000" font-family="sans-serif" font-size="14" lengthAdjust="spacing" textLength="74" x="855" y="799.5254">BarcodeAPI</text><rect fill="#FEFECE" filter="url(#fnsnmb1s4hesf)" height="31.6094" style="stroke:#A80036;stroke-width:1.5;" width="61" x="950" y="53"/><text fill="#000000" font-family="sans-serif" font-size="14" lengthAdjust="spacing" textLength="47" x="957" y="74.5332">Sample</text><rect fill="#FEFECE" filter="url(#fnsnmb1s4hesf)" height="31.6094" style="stroke:#A80036;stroke-width:1.5;" width="61" x="950" y="777.9922"/><text fill="#000000" font-family="sans-serif" font-size="14" lengthAdjust="spacing" textLength="47" x="957" y="799.5254">Sample</text><rect fill="#FEFECE" filter="url(#fnsnmb1s4hesf)" height="31.6094" style="stroke:#A80036;stroke-width:1.5;" width="95" x="1153" y="53"/><text fill="#000000" font-family="sans-serif" font-size="14" lengthAdjust="spacing" textLength="81" x="1160" y="74.5332">SampleStore</text><rect fill="#FEFECE" filter="url(#fnsnmb1s4hesf)" height="31.6094" style="stroke:#A80036;stroke-width:1.5;" width="95" x="1153" y="777.9922"/><text fill="#000000" font-family="sans-serif" font-size="14" lengthAdjust="spacing" textLength="81" x="1160" y="799.5254">SampleStore</text><rect fill="#FFFFFF" filter="url(#fnsnmb1s4hesf)" height="661.3828" style="stroke:#A80036;stroke-width:1.0;" width="10" x="73.5" y="99.6094"/><rect fill="#FFFFFF" filter="url(#fnsnmb1s4hesf)" height="182.1094" style="stroke:#A80036;stroke-width:1.0;" width="10" x="362.5" y="121.9609"/><rect fill="#FFFFFF" filter="url(#fnsnmb1s4hesf)" height="90.7031" style="stroke:#A80036;stroke-width:1.0;" width="10" x="362.5" y="334.4219"/><rect fill="#FFFFFF" filter="url(#fnsnmb1s4hesf)" height="30.3516" style="stroke:#A80036;stroke-width:1.0;" width="10" x="362.5" y="455.4766"/><rect fill="#FFFFFF" filter="url(#fnsnmb1s4hesf)" height="244.8125" style="stroke:#A80036;stroke-width:1.0;" width="10" x="362.5" y="516.1797"/><rect fill="#FFFFFF" filter="url(#fnsnmb1s4hesf)" height="30.3516" style="stroke:#A80036;stroke-width:1.0;" width="10" x="552.5" y="152.3125"/><rect fill="#FFFFFF" filter="url(#fnsnmb1s4hesf)" height="30.3516" style="stroke:#A80036;stroke-width:1.0;" width="10" x="552.5" y="243.3672"/><rect fill="#FFFFFF" filter="url(#fnsnmb1s4hesf)" height="328.5156" style="stroke:#A80036;stroke-width:1.0;" width="10" x="552.5" y="364.7734"/><rect fill="#FFFFFF" filter="url(#fnsnmb1s4hesf)" height="30.3516" style="stroke:#A80036;stroke-width:1.0;" width="10" x="665" y="182.6641"/><rect fill="#FFFFFF" filter="url(#fnsnmb1s4hesf)" height="30.3516" style="stroke:#A80036;stroke-width:1.0;" width="10" x="793" y="213.0156"/><rect fill="#FFFFFF" filter="url(#fnsnmb1s4hesf)" height="30.3516" style="stroke:#A80036;stroke-width:1.0;" width="10" x="889" y="632.5859"/><rect fill="#FFFFFF" filter="url(#fnsnmb1s4hesf)" height="30.3516" style="stroke:#A80036;stroke-width:1.0;" width="10" x="977.5" y="693.2891"/><rect fill="#FFFFFF" filter="url(#fnsnmb1s4hesf)" height="177.1094" style="stroke:#A80036;stroke-width:1.0;" width="10" x="1197.5" y="546.5313"/><polygon fill="#A80036" points="350.5,117.9609,360.5,121.9609,350.5,125.9609,354.5,121.9609" style="stroke:#A80036;stroke-width:1.0;"/><line style="stroke:#A80036;stroke-width:1.0;" x1="83.5" x2="356.5" y1="121.9609" y2="121.9609"/><text fill="#000000" font-family="sans-serif" font-size="13" font-weight="bold" lengthAdjust="spacing" textLength="7" x="90.5" y="117.1045">1</text><text fill="#000000" font-family="sans-serif" font-size="13" lengthAdjust="spacing" textLength="249" x="101.5" y="117.1045">requests to record new collected sample(s)</text><polygon fill="#A80036" points="540.5,148.3125,550.5,152.3125,540.5,156.3125,544.5,152.3125" style="stroke:#A80036;stroke-width:1.0;"/><line style="stroke:#A80036;stroke-width:1.0;" x1="372.5" x2="546.5" y1="152.3125" y2="152.3125"/><text fill="#000000" font-family="sans-serif" font-size="13" font-weight="bold" lengthAdjust="spacing" textLength="7" x="379.5" y="147.4561">2</text><text fill="#000000" font-family="sans-serif" font-size="13" lengthAdjust="spacing" textLength="72" x="390.5" y="147.4561">getTestList()</text><polygon fill="#A80036" points="653,178.6641,663,182.6641,653,186.6641,657,182.6641" style="stroke:#A80036;stroke-width:1.0;"/><line style="stroke:#A80036;stroke-width:1.0;" x1="557.5" x2="659" y1="182.6641" y2="182.6641"/><text fill="#000000" font-family="sans-serif" font-size="13" font-weight="bold" lengthAdjust="spacing" textLength="7" x="564.5" y="177.8076">3</text><text fill="#000000" font-family="sans-serif" font-size="13" lengthAdjust="spacing" textLength="72" x="575.5" y="177.8076">getTestList()</text><polygon fill="#A80036" points="781,209.0156,791,213.0156,781,217.0156,785,213.0156" style="stroke:#A80036;stroke-width:1.0;"/><line style="stroke:#A80036;stroke-width:1.0;" x1="670" x2="787" y1="213.0156" y2="213.0156"/><text fill="#000000" font-family="sans-serif" font-size="13" font-weight="bold" lengthAdjust="spacing" textLength="7" x="677" y="208.1592">4</text><text fill="#000000" font-family="sans-serif" font-size="13" lengthAdjust="spacing" textLength="88" x="688" y="208.1592">getTestCodes()</text><polygon fill="#A80036" points="573.5,239.3672,563.5,243.3672,573.5,247.3672,569.5,243.3672" style="stroke:#A80036;stroke-width:1.0;"/><line style="stroke:#A80036;stroke-width:1.0;" x1="567.5" x2="797" y1="243.3672" y2="243.3672"/><text fill="#000000" font-family="sans-serif" font-size="13" font-weight="bold" lengthAdjust="spacing" textLength="7" x="579.5" y="238.5107">5</text><text fill="#000000" font-family="sans-serif" font-size="13" lengthAdjust="spacing" textLength="169" x="590.5" y="238.5107">usar dto para os codes todos</text><polygon fill="#A80036" points="383.5,269.7188,373.5,273.7188,383.5,277.7188,379.5,273.7188" style="stroke:#A80036;stroke-width:1.0;"/><line style="stroke:#A80036;stroke-width:1.0;" x1="377.5" x2="556.5" y1="273.7188" y2="273.7188"/><text fill="#000000" font-family="sans-serif" font-size="13" font-weight="bold" lengthAdjust="spacing" textLength="7" x="389.5" y="268.8623">6</text><text fill="#000000" font-family="sans-serif" font-size="13" lengthAdjust="spacing" textLength="107" x="400.5" y="268.8623">lista de test codes</text><polygon fill="#A80036" points="94.5,300.0703,84.5,304.0703,94.5,308.0703,90.5,304.0703" style="stroke:#A80036;stroke-width:1.0;"/><line style="stroke:#A80036;stroke-width:1.0;stroke-dasharray:2.0,2.0;" x1="88.5" x2="366.5" y1="304.0703" y2="304.0703"/><text fill="#000000" font-family="sans-serif" font-size="13" font-weight="bold" lengthAdjust="spacing" textLength="7" x="100.5" y="299.2139">7</text><text fill="#000000" font-family="sans-serif" font-size="13" lengthAdjust="spacing" textLength="76" x="111.5" y="299.2139">requests test</text><polygon fill="#A80036" points="350.5,330.4219,360.5,334.4219,350.5,338.4219,354.5,334.4219" style="stroke:#A80036;stroke-width:1.0;"/><line style="stroke:#A80036;stroke-width:1.0;" x1="83.5" x2="356.5" y1="334.4219" y2="334.4219"/><text fill="#000000" font-family="sans-serif" font-size="13" font-weight="bold" lengthAdjust="spacing" textLength="7" x="90.5" y="329.5654">8</text><text fill="#000000" font-family="sans-serif" font-size="13" lengthAdjust="spacing" textLength="68" x="101.5" y="329.5654">selects test</text><polygon fill="#A80036" points="540.5,360.7734,550.5,364.7734,540.5,368.7734,544.5,364.7734" style="stroke:#A80036;stroke-width:1.0;"/><line style="stroke:#A80036;stroke-width:1.0;" x1="372.5" x2="546.5" y1="364.7734" y2="364.7734"/><text fill="#000000" font-family="sans-serif" font-size="13" font-weight="bold" lengthAdjust="spacing" textLength="7" x="379.5" y="359.917">9</text><text fill="#000000" font-family="sans-serif" font-size="13" lengthAdjust="spacing" textLength="150" x="390.5" y="359.917">selectTestCode(testCode)</text><polygon fill="#A80036" points="94.5,421.125,84.5,425.125,94.5,429.125,90.5,425.125" style="stroke:#A80036;stroke-width:1.0;"/><line style="stroke:#A80036;stroke-width:1.0;stroke-dasharray:2.0,2.0;" x1="88.5" x2="366.5" y1="425.125" y2="425.125"/><text fill="#000000" font-family="sans-serif" font-size="13" font-weight="bold" lengthAdjust="spacing" textLength="14" x="100.5" y="420.2686">10</text><text fill="#000000" font-family="sans-serif" font-size="13" lengthAdjust="spacing" textLength="219" x="118.5" y="420.2686">requests number of samples to record</text><polygon fill="#A80036" points="350.5,451.4766,360.5,455.4766,350.5,459.4766,354.5,455.4766" style="stroke:#A80036;stroke-width:1.0;"/><line style="stroke:#A80036;stroke-width:1.0;" x1="83.5" x2="356.5" y1="455.4766" y2="455.4766"/><text fill="#000000" font-family="sans-serif" font-size="13" font-weight="bold" lengthAdjust="spacing" textLength="14" x="90.5" y="450.6201">11</text><text fill="#000000" font-family="sans-serif" font-size="13" lengthAdjust="spacing" textLength="198" x="108.5" y="450.6201">gives number of samples to record</text><polygon fill="#A80036" points="94.5,481.8281,84.5,485.8281,94.5,489.8281,90.5,485.8281" style="stroke:#A80036;stroke-width:1.0;"/><line style="stroke:#A80036;stroke-width:1.0;stroke-dasharray:2.0,2.0;" x1="88.5" x2="366.5" y1="485.8281" y2="485.8281"/><text fill="#000000" font-family="sans-serif" font-size="13" font-weight="bold" lengthAdjust="spacing" textLength="14" x="100.5" y="480.9717">12</text><text fill="#000000" font-family="sans-serif" font-size="13" lengthAdjust="spacing" textLength="117" x="118.5" y="480.9717">request confirmation</text><polygon fill="#A80036" points="350.5,512.1797,360.5,516.1797,350.5,520.1797,354.5,516.1797" style="stroke:#A80036;stroke-width:1.0;"/><line style="stroke:#A80036;stroke-width:1.0;" x1="83.5" x2="356.5" y1="516.1797" y2="516.1797"/><text fill="#000000" font-family="sans-serif" font-size="13" font-weight="bold" lengthAdjust="spacing" textLength="14" x="90.5" y="511.3232">13</text><text fill="#000000" font-family="sans-serif" font-size="13" lengthAdjust="spacing" textLength="103" x="108.5" y="511.3232">gives confirmation</text><polygon fill="#A80036" points="1185.5,542.5313,1195.5,546.5313,1185.5,550.5313,1189.5,546.5313" style="stroke:#A80036;stroke-width:1.0;"/><line style="stroke:#A80036;stroke-width:1.0;" x1="562.5" x2="1191.5" y1="546.5313" y2="546.5313"/><text fill="#000000" font-family="sans-serif" font-size="13" font-weight="bold" lengthAdjust="spacing" textLength="14" x="569.5" y="541.6748">14</text><text fill="#000000" font-family="sans-serif" font-size="13" lengthAdjust="spacing" textLength="133" x="587.5" y="541.6748">setTestCode(testCode)</text><path d="M319,561.5313 L392,561.5313 L392,569.5313 L382,579.5313 L319,579.5313 L319,561.5313 " fill="#EEEEEE" style="stroke:#000000;stroke-width:1.0;"/><rect fill="none" height="170.1094" style="stroke:#000000;stroke-width:2.0;" width="943" x="319" y="561.5313"/><text fill="#000000" font-family="sans-serif" font-size="13" font-weight="bold" lengthAdjust="spacing" textLength="28" x="334" y="576.0264">loop</text><text fill="#000000" font-family="sans-serif" font-size="11" font-weight="bold" lengthAdjust="spacing" textLength="276" x="407" y="574.9502">[loop for n times, n being the number of samples]</text><polygon fill="#A80036" points="540.5,598.2344,550.5,602.2344,540.5,606.2344,544.5,602.2344" style="stroke:#A80036;stroke-width:1.0;"/><line style="stroke:#A80036;stroke-width:1.0;" x1="372.5" x2="546.5" y1="602.2344" y2="602.2344"/><text fill="#000000" font-family="sans-serif" font-size="13" font-weight="bold" lengthAdjust="spacing" textLength="14" x="379.5" y="597.3779">15</text><text fill="#000000" font-family="sans-serif" font-size="13" lengthAdjust="spacing" textLength="106" x="397.5" y="597.3779">generateBarcode()</text><polygon fill="#A80036" points="877,628.5859,887,632.5859,877,636.5859,881,632.5859" style="stroke:#A80036;stroke-width:1.0;"/><line style="stroke:#A80036;stroke-width:1.0;" x1="562.5" x2="883" y1="632.5859" y2="632.5859"/><text fill="#000000" font-family="sans-serif" font-size="13" font-weight="bold" lengthAdjust="spacing" textLength="14" x="569.5" y="627.7295">16</text><text fill="#000000" font-family="sans-serif" font-size="13" lengthAdjust="spacing" textLength="106" x="587.5" y="627.7295">generateBarcode()</text><polygon fill="#A80036" points="573.5,658.9375,563.5,662.9375,573.5,666.9375,569.5,662.9375" style="stroke:#A80036;stroke-width:1.0;"/><line style="stroke:#A80036;stroke-width:1.0;" x1="567.5" x2="893" y1="662.9375" y2="662.9375"/><text fill="#000000" font-family="sans-serif" font-size="13" font-weight="bold" lengthAdjust="spacing" textLength="14" x="579.5" y="658.0811">17</text><text fill="#000000" font-family="sans-serif" font-size="13" lengthAdjust="spacing" textLength="125" x="597.5" y="658.0811">newBarcode(barcode)</text><polygon fill="#A80036" points="965.5,689.2891,975.5,693.2891,965.5,697.2891,969.5,693.2891" style="stroke:#A80036;stroke-width:1.0;"/><line style="stroke:#A80036;stroke-width:1.0;" x1="557.5" x2="971.5" y1="693.2891" y2="693.2891"/><text fill="#000000" font-family="sans-serif" font-size="13" font-weight="bold" lengthAdjust="spacing" textLength="14" x="564.5" y="688.4326">18</text><text fill="#000000" font-family="sans-serif" font-size="13" lengthAdjust="spacing" textLength="224" x="582.5" y="688.4326">cs = createSample(testCode, barcode)</text><polygon fill="#A80036" points="1190.5,719.6406,1200.5,723.6406,1190.5,727.6406,1194.5,723.6406" style="stroke:#A80036;stroke-width:1.0;"/><line style="stroke:#A80036;stroke-width:1.0;" x1="982.5" x2="1196.5" y1="723.6406" y2="723.6406"/><text fill="#000000" font-family="sans-serif" font-size="13" font-weight="bold" lengthAdjust="spacing" textLength="14" x="989.5" y="718.7842">19</text><text fill="#000000" font-family="sans-serif" font-size="13" lengthAdjust="spacing" textLength="168" x="1007.5" y="718.7842">saveSample(Sample sample)</text><polygon fill="#A80036" points="89.5,756.9922,79.5,760.9922,89.5,764.9922,85.5,760.9922" style="stroke:#A80036;stroke-width:1.0;"/><line style="stroke:#A80036;stroke-width:1.0;stroke-dasharray:2.0,2.0;" x1="83.5" x2="366.5" y1="760.9922" y2="760.9922"/><text fill="#000000" font-family="sans-serif" font-size="13" font-weight="bold" lengthAdjust="spacing" textLength="14" x="95.5" y="756.1357">20</text><text fill="#000000" font-family="sans-serif" font-size="13" lengthAdjust="spacing" textLength="179" x="113.5" y="756.1357">shows (in)success of operation</text><!--MD5=[69239080cd78b3c0125cb78fd98983ee]
@startuml

autonumber

actor MedicalLabTechnician as mlt
participant SampleUI as UI
participant SampleController as Controller
participant Company
participant TestStore
participant BarcodeAPI as API
participant Sample
participant SampleStore

activate mlt
mlt -> UI: requests to record new collected sample(s)
activate UI
UI -> Controller: getTestList()
activate Controller
Controller -> Company: getTestList()
deactivate Controller
activate Company
Company -> TestStore: getTestCodes()
deactivate Company
activate TestStore
TestStore -> Controller: usar dto para os codes todos
deactivate TestStore
activate Controller
Controller -> UI: lista de test codes
deactivate Controller
UI - -> mlt: requests test
deactivate UI

mlt -> UI: selects test
activate UI
UI -> Controller: selectTestCode(testCode)
activate Controller

deactivate Company

UI - -> mlt: requests number of samples to record
deactivate UI

mlt -> UI: gives number of samples to record
activate UI
UI - -> mlt: request confirmation
deactivate UI
mlt -> UI: gives confirmation
activate UI

Controller -> SampleStore: setTestCode(testCode)
activate SampleStore
loop loop for n times, n being the number of samples
UI -> Controller: generateBarcode()
Controller -> API: generateBarcode()
activate API
API -> Controller: newBarcode(barcode)
deactivate API
Controller -> Sample: cs = createSample(testCode, barcode)
deactivate Controller
activate Sample
Sample -> SampleStore: saveSample(Sample sample)
deactivate Sample
deactivate SampleStore
end loop

UI - -> mlt: shows (in)success of operation
deactivate UI
deactivate mlt

@enduml

PlantUML version 1.2021.4(Sun Apr 04 09:49:39 BST 2021)
(GPL source distribution)
Java Runtime: OpenJDK Runtime Environment
JVM: OpenJDK 64-Bit Server VM
Default Encoding: Cp1252
Language: en
Country: US
--></g></svg>