<?xml version="1.0" encoding="UTF-8" standalone="no"?><svg xmlns="http://www.w3.org/2000/svg" xmlns:xlink="http://www.w3.org/1999/xlink" contentScriptType="application/ecmascript" contentStyleType="text/css" height="418.75px" preserveAspectRatio="none" style="width:482px;height:418px;" version="1.1" viewBox="0 0 482 418" width="482.5px" zoomAndPan="magnify"><defs><filter height="300%" id="fi0ufb0x0u4cs" width="300%" x="-1" y="-1"><feGaussianBlur result="blurOut" stdDeviation="2.5"/><feColorMatrix in="blurOut" result="blurOut2" type="matrix" values="0 0 0 0 0 0 0 0 0 0 0 0 0 0 0 0 0 0 .4 0"/><feOffset dx="5.0" dy="5.0" in="blurOut2" result="blurOut3"/><feBlend in="SourceGraphic" in2="blurOut3" mode="normal"/></filter></defs><g><!--MD5=[01931d41e78f8996acd44f6f0fd8de28]
class MedicalLabTechnician--><rect codeLine="2" fill="#FEFECE" filter="url(#fi0ufb0x0u4cs)" height="60" id="MedicalLabTechnician" style="stroke:#A80036;stroke-width:1.875;" width="193.75" x="126.875" y="8.75"/><ellipse cx="145.625" cy="28.75" fill="#ADD1B2" rx="13.75" ry="13.75" style="stroke:#A80036;stroke-width:1.25;"/><path d="M148.125,24.375 Q148.3789,23.75 148.6719,23.4375 Q148.9648,23.125 149.2969,23.125 Q149.8828,23.125 150.2539,23.4766 Q150.625,23.8281 150.625,24.6484 L150.625,26.6016 Q150.625,27.4219 150.2734,27.7734 Q149.9219,28.125 149.375,28.125 Q148.8867,28.125 148.5742,27.9102 Q148.2617,27.6953 148.125,27.1289 Q148.0664,26.7383 147.8516,26.5234 Q147.4609,26.1133 146.7578,25.8789 Q146.0547,25.625 145.3516,25.625 Q144.4727,25.625 143.7305,25.9766 Q143.0078,26.3281 142.4414,27.1094 Q141.875,27.8906 141.875,28.9648 L141.875,30.1172 Q141.875,31.4063 142.9297,32.2656 Q143.9844,33.125 145.8594,33.125 Q146.9727,33.125 147.7539,32.8711 Q148.2031,32.7344 148.7109,32.2852 Q149.043,32.0313 149.2188,31.9531 Q149.3945,31.875 149.6094,31.875 Q150.0195,31.875 150.3125,32.207 Q150.625,32.5195 150.625,32.9688 Q150.625,33.3984 150.1953,33.9063 Q149.5703,34.6484 148.5742,35.0586 Q147.2656,35.625 145.6641,35.625 Q143.7891,35.625 142.2852,34.8828 Q141.0742,34.2969 140.2148,33.0273 Q139.375,31.7578 139.375,30.2539 L139.375,28.8867 Q139.375,27.3242 140.1172,25.957 Q140.8789,24.5898 142.1875,23.8672 Q143.5156,23.125 145,23.125 Q145.8984,23.125 146.6797,23.4375 Q147.4609,23.75 148.125,24.375 Z " fill="#000000"/><text fill="#000000" font-family="sans-serif" font-size="15" lengthAdjust="spacing" textLength="153.75" x="163.125" y="34.8877">MedicalLabTechnician</text><line style="stroke:#A80036;stroke-width:1.875;" x1="128.125" x2="319.375" y1="48.75" y2="48.75"/><line style="stroke:#A80036;stroke-width:1.875;" x1="128.125" x2="319.375" y1="58.75" y2="58.75"/><!--MD5=[9681492165142af2a4a3a169d90ee8d4]
class Sample--><rect codeLine="3" fill="#FEFECE" filter="url(#fi0ufb0x0u4cs)" height="77.2949" id="Sample" style="stroke:#A80036;stroke-width:1.875;" width="93.75" x="176.875" y="166.25"/><ellipse cx="195.625" cy="186.25" fill="#ADD1B2" rx="13.75" ry="13.75" style="stroke:#A80036;stroke-width:1.25;"/><path d="M198.125,181.875 Q198.3789,181.25 198.6719,180.9375 Q198.9648,180.625 199.2969,180.625 Q199.8828,180.625 200.2539,180.9766 Q200.625,181.3281 200.625,182.1484 L200.625,184.1016 Q200.625,184.9219 200.2734,185.2734 Q199.9219,185.625 199.375,185.625 Q198.8867,185.625 198.5742,185.4102 Q198.2617,185.1953 198.125,184.6289 Q198.0664,184.2383 197.8516,184.0234 Q197.4609,183.6133 196.7578,183.3789 Q196.0547,183.125 195.3516,183.125 Q194.4727,183.125 193.7305,183.4766 Q193.0078,183.8281 192.4414,184.6094 Q191.875,185.3906 191.875,186.4648 L191.875,187.6172 Q191.875,188.9063 192.9297,189.7656 Q193.9844,190.625 195.8594,190.625 Q196.9727,190.625 197.7539,190.3711 Q198.2031,190.2344 198.7109,189.7852 Q199.043,189.5313 199.2188,189.4531 Q199.3945,189.375 199.6094,189.375 Q200.0195,189.375 200.3125,189.707 Q200.625,190.0195 200.625,190.4688 Q200.625,190.8984 200.1953,191.4063 Q199.5703,192.1484 198.5742,192.5586 Q197.2656,193.125 195.6641,193.125 Q193.7891,193.125 192.2852,192.3828 Q191.0742,191.7969 190.2148,190.5273 Q189.375,189.2578 189.375,187.7539 L189.375,186.3867 Q189.375,184.8242 190.1172,183.457 Q190.8789,182.0898 192.1875,181.3672 Q193.5156,180.625 195,180.625 Q195.8984,180.625 196.6797,180.9375 Q197.4609,181.25 198.125,181.875 Z " fill="#000000"/><text fill="#000000" font-family="sans-serif" font-size="15" lengthAdjust="spacing" textLength="53.75" x="213.125" y="192.3877">Sample</text><line style="stroke:#A80036;stroke-width:1.875;" x1="178.125" x2="269.375" y1="206.25" y2="206.25"/><rect fill="none" height="7.5" style="stroke:#C82930;stroke-width:1.25;" width="7.5" x="186.875" y="216.25"/><text fill="#000000" font-family="sans-serif" font-size="13.75" lengthAdjust="spacing" textLength="50" x="201.875" y="225.5237">barcode</text><line style="stroke:#A80036;stroke-width:1.875;" x1="178.125" x2="269.375" y1="233.5449" y2="233.5449"/><!--MD5=[e671f3231fffda95da92cdb61ed3f059]
class BarcodeAPI--><rect codeLine="6" fill="#FEFECE" filter="url(#fi0ufb0x0u4cs)" height="60" id="BarcodeAPI" style="stroke:#A80036;stroke-width:1.875;" width="120" x="8.75" y="341.25"/><ellipse cx="27.5" cy="361.25" fill="#ADD1B2" rx="13.75" ry="13.75" style="stroke:#A80036;stroke-width:1.25;"/><path d="M30,356.875 Q30.2539,356.25 30.5469,355.9375 Q30.8398,355.625 31.1719,355.625 Q31.7578,355.625 32.1289,355.9766 Q32.5,356.3281 32.5,357.1484 L32.5,359.1016 Q32.5,359.9219 32.1484,360.2734 Q31.7969,360.625 31.25,360.625 Q30.7617,360.625 30.4492,360.4102 Q30.1367,360.1953 30,359.6289 Q29.9414,359.2383 29.7266,359.0234 Q29.3359,358.6133 28.6328,358.3789 Q27.9297,358.125 27.2266,358.125 Q26.3477,358.125 25.6055,358.4766 Q24.8828,358.8281 24.3164,359.6094 Q23.75,360.3906 23.75,361.4648 L23.75,362.6172 Q23.75,363.9063 24.8047,364.7656 Q25.8594,365.625 27.7344,365.625 Q28.8477,365.625 29.6289,365.3711 Q30.0781,365.2344 30.5859,364.7852 Q30.918,364.5313 31.0938,364.4531 Q31.2695,364.375 31.4844,364.375 Q31.8945,364.375 32.1875,364.707 Q32.5,365.0195 32.5,365.4688 Q32.5,365.8984 32.0703,366.4063 Q31.4453,367.1484 30.4492,367.5586 Q29.1406,368.125 27.5391,368.125 Q25.6641,368.125 24.1602,367.3828 Q22.9492,366.7969 22.0898,365.5273 Q21.25,364.2578 21.25,362.7539 L21.25,361.3867 Q21.25,359.8242 21.9922,358.457 Q22.7539,357.0898 24.0625,356.3672 Q25.3906,355.625 26.875,355.625 Q27.7734,355.625 28.5547,355.9375 Q29.3359,356.25 30,356.875 Z " fill="#000000"/><text fill="#000000" font-family="sans-serif" font-size="15" lengthAdjust="spacing" textLength="80" x="45" y="367.3877">BarcodeAPI</text><line style="stroke:#A80036;stroke-width:1.875;" x1="10" x2="127.5" y1="381.25" y2="381.25"/><line style="stroke:#A80036;stroke-width:1.875;" x1="10" x2="127.5" y1="391.25" y2="391.25"/><!--MD5=[ed6624c6556d5e7b1bd23032162d20b7]
class Client--><rect codeLine="7" fill="#FEFECE" filter="url(#fi0ufb0x0u4cs)" height="60" id="Client" style="stroke:#A80036;stroke-width:1.875;" width="80" x="183.75" y="341.25"/><ellipse cx="202.5" cy="361.25" fill="#ADD1B2" rx="13.75" ry="13.75" style="stroke:#A80036;stroke-width:1.25;"/><path d="M205,356.875 Q205.2539,356.25 205.5469,355.9375 Q205.8398,355.625 206.1719,355.625 Q206.7578,355.625 207.1289,355.9766 Q207.5,356.3281 207.5,357.1484 L207.5,359.1016 Q207.5,359.9219 207.1484,360.2734 Q206.7969,360.625 206.25,360.625 Q205.7617,360.625 205.4492,360.4102 Q205.1367,360.1953 205,359.6289 Q204.9414,359.2383 204.7266,359.0234 Q204.3359,358.6133 203.6328,358.3789 Q202.9297,358.125 202.2266,358.125 Q201.3477,358.125 200.6055,358.4766 Q199.8828,358.8281 199.3164,359.6094 Q198.75,360.3906 198.75,361.4648 L198.75,362.6172 Q198.75,363.9063 199.8047,364.7656 Q200.8594,365.625 202.7344,365.625 Q203.8477,365.625 204.6289,365.3711 Q205.0781,365.2344 205.5859,364.7852 Q205.918,364.5313 206.0938,364.4531 Q206.2695,364.375 206.4844,364.375 Q206.8945,364.375 207.1875,364.707 Q207.5,365.0195 207.5,365.4688 Q207.5,365.8984 207.0703,366.4063 Q206.4453,367.1484 205.4492,367.5586 Q204.1406,368.125 202.5391,368.125 Q200.6641,368.125 199.1602,367.3828 Q197.9492,366.7969 197.0898,365.5273 Q196.25,364.2578 196.25,362.7539 L196.25,361.3867 Q196.25,359.8242 196.9922,358.457 Q197.7539,357.0898 199.0625,356.3672 Q200.3906,355.625 201.875,355.625 Q202.7734,355.625 203.5547,355.9375 Q204.3359,356.25 205,356.875 Z " fill="#000000"/><text fill="#000000" font-family="sans-serif" font-size="15" lengthAdjust="spacing" textLength="40" x="220" y="367.3877">Client</text><line style="stroke:#A80036;stroke-width:1.875;" x1="185" x2="262.5" y1="381.25" y2="381.25"/><line style="stroke:#A80036;stroke-width:1.875;" x1="185" x2="262.5" y1="391.25" y2="391.25"/><!--MD5=[aeb3272166074d8737a70b61b1e71682]
class TestType--><rect codeLine="8" fill="#FEFECE" filter="url(#fi0ufb0x0u4cs)" height="60" id="TestType" style="stroke:#A80036;stroke-width:1.875;" width="102.5" x="338.75" y="341.25"/><ellipse cx="357.5" cy="361.25" fill="#ADD1B2" rx="13.75" ry="13.75" style="stroke:#A80036;stroke-width:1.25;"/><path d="M360,356.875 Q360.2539,356.25 360.5469,355.9375 Q360.8398,355.625 361.1719,355.625 Q361.7578,355.625 362.1289,355.9766 Q362.5,356.3281 362.5,357.1484 L362.5,359.1016 Q362.5,359.9219 362.1484,360.2734 Q361.7969,360.625 361.25,360.625 Q360.7617,360.625 360.4492,360.4102 Q360.1367,360.1953 360,359.6289 Q359.9414,359.2383 359.7266,359.0234 Q359.3359,358.6133 358.6328,358.3789 Q357.9297,358.125 357.2266,358.125 Q356.3477,358.125 355.6055,358.4766 Q354.8828,358.8281 354.3164,359.6094 Q353.75,360.3906 353.75,361.4648 L353.75,362.6172 Q353.75,363.9063 354.8047,364.7656 Q355.8594,365.625 357.7344,365.625 Q358.8477,365.625 359.6289,365.3711 Q360.0781,365.2344 360.5859,364.7852 Q360.918,364.5313 361.0938,364.4531 Q361.2695,364.375 361.4844,364.375 Q361.8945,364.375 362.1875,364.707 Q362.5,365.0195 362.5,365.4688 Q362.5,365.8984 362.0703,366.4063 Q361.4453,367.1484 360.4492,367.5586 Q359.1406,368.125 357.5391,368.125 Q355.6641,368.125 354.1602,367.3828 Q352.9492,366.7969 352.0898,365.5273 Q351.25,364.2578 351.25,362.7539 L351.25,361.3867 Q351.25,359.8242 351.9922,358.457 Q352.7539,357.0898 354.0625,356.3672 Q355.3906,355.625 356.875,355.625 Q357.7734,355.625 358.5547,355.9375 Q359.3359,356.25 360,356.875 Z " fill="#000000"/><text fill="#000000" font-family="sans-serif" font-size="15" lengthAdjust="spacing" textLength="62.5" x="375" y="367.3877">TestType</text><line style="stroke:#A80036;stroke-width:1.875;" x1="340" x2="440" y1="381.25" y2="381.25"/><line style="stroke:#A80036;stroke-width:1.875;" x1="340" x2="440" y1="391.25" y2="391.25"/><!--MD5=[9e18cdcaa9fc98b54e28689ca42ef92a]
link Sample to BarcodeAPI--><path codeLine="10" d="M176.475,226.825 C152,239.5 123.2375,257.825 103.75,281.25 C89.3375,298.5625 80.3625,322.5375 75.1125,341.2 " fill="none" id="Sample-BarcodeAPI" style="stroke:#A80036;stroke-width:1.25;"/><polygon fill="#000000" points="105.8547,297.3972,116.103,291.3721,110.6043,286.499,105.8547,297.3972" style="stroke:#000000;stroke-width:1.25;"/><text fill="#000000" font-family="sans-serif" font-size="16.25" lengthAdjust="spacing" textLength="86.25" x="121.25" y="299.3689">identified by</text><text fill="#000000" font-family="sans-serif" font-size="16.25" lengthAdjust="spacing" textLength="8.75" x="158.202" y="225.9335">1</text><text fill="#000000" font-family="sans-serif" font-size="16.25" lengthAdjust="spacing" textLength="8.75" x="66.8718" y="327.8624">1</text><!--MD5=[0a29b4543c1af9e8341b856b8b8ec05c]
link MedicalLabTechnician to Sample--><path codeLine="11" d="M223.75,68.9 C223.75,95.8875 223.75,136.35 223.75,165.9125 " fill="none" id="MedicalLabTechnician-Sample" style="stroke:#A80036;stroke-width:1.25;"/><polygon fill="#000000" points="230,111.4697,226.3263,122.7761,233.6737,122.7761,230,111.4697" style="stroke:#000000;stroke-width:1.25;"/><text fill="#000000" font-family="sans-serif" font-size="16.25" lengthAdjust="spacing" textLength="87.5" x="241.25" y="124.3689">collected by</text><text fill="#000000" font-family="sans-serif" font-size="16.25" lengthAdjust="spacing" textLength="8.75" x="213.9336" y="95.609">1</text><text fill="#000000" font-family="sans-serif" font-size="16.25" lengthAdjust="spacing" textLength="6.25" x="216.8555" y="152.7236">*</text><!--MD5=[a23f50aea1fcb140948e132a9bfce5a1]
link Sample to Client--><path codeLine="12" d="M221.1125,244.2125 C220.1625,262.25 219.45,284.1125 220,303.75 C220.35,315.9625 221.05,329.4125 221.75,340.9875 " fill="none" id="Sample-Client" style="stroke:#A80036;stroke-width:1.25;"/><polygon fill="#000000" points="226.2912,298.9696,229.8903,287.6393,222.5431,287.6877,226.2912,298.9696" style="stroke:#000000;stroke-width:1.25;"/><text fill="#000000" font-family="sans-serif" font-size="16.25" lengthAdjust="spacing" textLength="97.5" x="237.5" y="299.3689">associated to</text><text fill="#000000" font-family="sans-serif" font-size="16.25" lengthAdjust="spacing" textLength="6.25" x="213.764" y="270.524">*</text><text fill="#000000" font-family="sans-serif" font-size="16.25" lengthAdjust="spacing" textLength="8.75" x="205.7258" y="327.5954">1</text><!--MD5=[daab6ca208c37d63b3cda7d4ccecb252]
link Sample to TestType--><path codeLine="13" d="M271.2,229.3125 C294.3375,242.25 321.4,260.05 341.25,281.25 C357.475,298.575 370.1375,322.3125 378.4875,340.875 " fill="none" id="Sample-TestType" style="stroke:#A80036;stroke-width:1.25;"/><polygon fill="#000000" points="368.0823,297.2246,362.893,286.5288,357.5972,291.6216,368.0823,297.2246" style="stroke:#000000;stroke-width:1.25;"/><text fill="#000000" font-family="sans-serif" font-size="16.25" lengthAdjust="spacing" textLength="97.5" x="375" y="299.3689">associated to</text><text fill="#000000" font-family="sans-serif" font-size="16.25" lengthAdjust="spacing" textLength="6.25" x="280.5248" y="228.8797">*</text><text fill="#000000" font-family="sans-serif" font-size="16.25" lengthAdjust="spacing" textLength="8.75" x="353.7445" y="327.4541">1</text><!--MD5=[94b3c24c12a73aac427d2c1c3bb8f74d]
@startuml

class MedicalLabTechnician
class Sample {
-barcode
}
class BarcodeAPI
class Client
class TestType

Sample "1"- -"1" BarcodeAPI : identified by >
MedicalLabTechnician "1"- -"*" Sample : collected by <
Sample "*"- -"1 " Client : associated to >
Sample "*"- -" 1  " TestType: associated to >

@enduml

PlantUML version 1.2021.4(Sun Apr 04 09:49:39 BST 2021)
(GPL source distribution)
Java Runtime: OpenJDK Runtime Environment
JVM: OpenJDK 64-Bit Server VM
Default Encoding: Cp1252
Language: pt
Country: PT
--></g></svg>