<?xml version="1.0" encoding="UTF-8" standalone="no"?><svg xmlns="http://www.w3.org/2000/svg" xmlns:xlink="http://www.w3.org/1999/xlink" contentScriptType="application/ecmascript" contentStyleType="text/css" height="555px" preserveAspectRatio="none" style="width:685px;height:555px;" version="1.1" viewBox="0 0 685 555" width="685px" zoomAndPan="magnify"><defs><filter height="300%" id="ftk6xcwjs2nhx" width="300%" x="-1" y="-1"><feGaussianBlur result="blurOut" stdDeviation="2.0"/><feColorMatrix in="blurOut" result="blurOut2" type="matrix" values="0 0 0 0 0 0 0 0 0 0 0 0 0 0 0 0 0 0 .4 0"/><feOffset dx="4.0" dy="4.0" in="blurOut2" result="blurOut3"/><feBlend in="SourceGraphic" in2="blurOut3" mode="normal"/></filter></defs><g><!--MD5=[62cf91c4ac61bc95d5ac8bab52d03502]
class SampleUI--><rect codeLine="2" fill="#FEFECE" filter="url(#ftk6xcwjs2nhx)" height="89.5078" id="SampleUI" style="stroke:#A80036;stroke-width:1.5;" width="152" x="127.5" y="7"/><ellipse cx="171.75" cy="23" fill="#ADD1B2" rx="11" ry="11" style="stroke:#A80036;stroke-width:1.0;"/><path d="M173.75,19.5 Q173.9531,19 174.1875,18.75 Q174.4219,18.5 174.6875,18.5 Q175.1563,18.5 175.4531,18.7813 Q175.75,19.0625 175.75,19.7188 L175.75,21.2813 Q175.75,21.9375 175.4688,22.2188 Q175.1875,22.5 174.75,22.5 Q174.3594,22.5 174.1094,22.3281 Q173.8594,22.1563 173.75,21.7031 Q173.7031,21.3906 173.5313,21.2188 Q173.2188,20.8906 172.6563,20.7031 Q172.0938,20.5 171.5313,20.5 Q170.8281,20.5 170.2344,20.7813 Q169.6563,21.0625 169.2031,21.6875 Q168.75,22.3125 168.75,23.1719 L168.75,24.0938 Q168.75,25.125 169.5938,25.8125 Q170.4375,26.5 171.9375,26.5 Q172.8281,26.5 173.4531,26.2969 Q173.8125,26.1875 174.2188,25.8281 Q174.4844,25.625 174.625,25.5625 Q174.7656,25.5 174.9375,25.5 Q175.2656,25.5 175.5,25.7656 Q175.75,26.0156 175.75,26.375 Q175.75,26.7188 175.4063,27.125 Q174.9063,27.7188 174.1094,28.0469 Q173.0625,28.5 171.7813,28.5 Q170.2813,28.5 169.0781,27.9063 Q168.1094,27.4375 167.4219,26.4219 Q166.75,25.4063 166.75,24.2031 L166.75,23.1094 Q166.75,21.8594 167.3438,20.7656 Q167.9531,19.6719 169,19.0938 Q170.0625,18.5 171.25,18.5 Q171.9688,18.5 172.5938,18.75 Q173.2188,19 173.75,19.5 Z " fill="#000000"/><text fill="#000000" font-family="sans-serif" font-size="12" lengthAdjust="spacing" textLength="55" x="192.25" y="27.9102">SampleUI</text><line style="stroke:#A80036;stroke-width:1.5;" x1="128.5" x2="278.5" y1="39" y2="39"/><line style="stroke:#A80036;stroke-width:1.5;" x1="128.5" x2="278.5" y1="47" y2="47"/><ellipse cx="138.5" cy="58" fill="#84BE84" rx="3" ry="3" style="stroke:#038048;stroke-width:1.0;"/><text fill="#000000" font-family="sans-serif" font-size="11" lengthAdjust="spacing" textLength="61" x="147.5" y="62.4189">getTestList()</text><ellipse cx="138.5" cy="71.8359" fill="#84BE84" rx="3" ry="3" style="stroke:#038048;stroke-width:1.0;"/><text fill="#000000" font-family="sans-serif" font-size="11" lengthAdjust="spacing" textLength="126" x="147.5" y="76.2549">selectTestCode(testCode)</text><ellipse cx="138.5" cy="85.6719" fill="#84BE84" rx="3" ry="3" style="stroke:#038048;stroke-width:1.0;"/><text fill="#000000" font-family="sans-serif" font-size="11" lengthAdjust="spacing" textLength="101" x="147.5" y="90.0908">setSampleNumber(n)</text><!--MD5=[b2e0343becd3acb74ca007b70fee6233]
class SampleController--><rect codeLine="7" fill="#FEFECE" filter="url(#ftk6xcwjs2nhx)" height="117.1797" id="SampleController" style="stroke:#A80036;stroke-width:1.5;" width="140" x="133.5" y="175"/><ellipse cx="153.45" cy="191" fill="#ADD1B2" rx="11" ry="11" style="stroke:#A80036;stroke-width:1.0;"/><path d="M155.45,187.5 Q155.6531,187 155.8875,186.75 Q156.1219,186.5 156.3875,186.5 Q156.8563,186.5 157.1531,186.7813 Q157.45,187.0625 157.45,187.7188 L157.45,189.2813 Q157.45,189.9375 157.1688,190.2188 Q156.8875,190.5 156.45,190.5 Q156.0594,190.5 155.8094,190.3281 Q155.5594,190.1563 155.45,189.7031 Q155.4031,189.3906 155.2313,189.2188 Q154.9188,188.8906 154.3563,188.7031 Q153.7938,188.5 153.2313,188.5 Q152.5281,188.5 151.9344,188.7813 Q151.3563,189.0625 150.9031,189.6875 Q150.45,190.3125 150.45,191.1719 L150.45,192.0938 Q150.45,193.125 151.2938,193.8125 Q152.1375,194.5 153.6375,194.5 Q154.5281,194.5 155.1531,194.2969 Q155.5125,194.1875 155.9188,193.8281 Q156.1844,193.625 156.325,193.5625 Q156.4656,193.5 156.6375,193.5 Q156.9656,193.5 157.2,193.7656 Q157.45,194.0156 157.45,194.375 Q157.45,194.7188 157.1063,195.125 Q156.6063,195.7188 155.8094,196.0469 Q154.7625,196.5 153.4813,196.5 Q151.9813,196.5 150.7781,195.9063 Q149.8094,195.4375 149.1219,194.4219 Q148.45,193.4063 148.45,192.2031 L148.45,191.1094 Q148.45,189.8594 149.0438,188.7656 Q149.6531,187.6719 150.7,187.0938 Q151.7625,186.5 152.95,186.5 Q153.6688,186.5 154.2938,186.75 Q154.9188,187 155.45,187.5 Z " fill="#000000"/><text fill="#000000" font-family="sans-serif" font-size="12" lengthAdjust="spacing" textLength="97" x="168.55" y="195.9102">SampleController</text><line style="stroke:#A80036;stroke-width:1.5;" x1="134.5" x2="272.5" y1="207" y2="207"/><line style="stroke:#A80036;stroke-width:1.5;" x1="134.5" x2="272.5" y1="215" y2="215"/><ellipse cx="144.5" cy="226" fill="#84BE84" rx="3" ry="3" style="stroke:#038048;stroke-width:1.0;"/><text fill="#000000" font-family="sans-serif" font-size="11" lengthAdjust="spacing" textLength="61" x="153.5" y="230.4189">getTestList()</text><ellipse cx="144.5" cy="239.8359" fill="#84BE84" rx="3" ry="3" style="stroke:#038048;stroke-width:1.0;"/><text fill="#000000" font-family="sans-serif" font-size="11" lengthAdjust="spacing" textLength="72" x="153.5" y="244.2549">toDTO(listTest)</text><ellipse cx="144.5" cy="253.6719" fill="#84BE84" rx="3" ry="3" style="stroke:#038048;stroke-width:1.0;"/><text fill="#000000" font-family="sans-serif" font-size="11" lengthAdjust="spacing" textLength="112" x="153.5" y="258.0908">setTestCode(testCode)</text><ellipse cx="144.5" cy="267.5078" fill="#84BE84" rx="3" ry="3" style="stroke:#038048;stroke-width:1.0;"/><text fill="#000000" font-family="sans-serif" font-size="11" lengthAdjust="spacing" textLength="92" x="153.5" y="271.9268">generateBarcode()</text><ellipse cx="144.5" cy="281.3438" fill="#84BE84" rx="3" ry="3" style="stroke:#038048;stroke-width:1.0;"/><text fill="#000000" font-family="sans-serif" font-size="11" lengthAdjust="spacing" textLength="114" x="153.5" y="285.7627">createSample(barcode)</text><!--MD5=[02e4b9b7573f1156f41e60aa5b4e25a4]
class Company--><rect codeLine="14" fill="#FEFECE" filter="url(#ftk6xcwjs2nhx)" height="61.8359" id="Company" style="stroke:#A80036;stroke-width:1.5;" width="113" x="7" y="370"/><ellipse cx="34.6" cy="386" fill="#ADD1B2" rx="11" ry="11" style="stroke:#A80036;stroke-width:1.0;"/><path d="M36.6,382.5 Q36.8031,382 37.0375,381.75 Q37.2719,381.5 37.5375,381.5 Q38.0063,381.5 38.3031,381.7813 Q38.6,382.0625 38.6,382.7188 L38.6,384.2813 Q38.6,384.9375 38.3188,385.2188 Q38.0375,385.5 37.6,385.5 Q37.2094,385.5 36.9594,385.3281 Q36.7094,385.1563 36.6,384.7031 Q36.5531,384.3906 36.3813,384.2188 Q36.0688,383.8906 35.5063,383.7031 Q34.9438,383.5 34.3813,383.5 Q33.6781,383.5 33.0844,383.7813 Q32.5063,384.0625 32.0531,384.6875 Q31.6,385.3125 31.6,386.1719 L31.6,387.0938 Q31.6,388.125 32.4438,388.8125 Q33.2875,389.5 34.7875,389.5 Q35.6781,389.5 36.3031,389.2969 Q36.6625,389.1875 37.0688,388.8281 Q37.3344,388.625 37.475,388.5625 Q37.6156,388.5 37.7875,388.5 Q38.1156,388.5 38.35,388.7656 Q38.6,389.0156 38.6,389.375 Q38.6,389.7188 38.2563,390.125 Q37.7563,390.7188 36.9594,391.0469 Q35.9125,391.5 34.6313,391.5 Q33.1313,391.5 31.9281,390.9063 Q30.9594,390.4375 30.2719,389.4219 Q29.6,388.4063 29.6,387.2031 L29.6,386.1094 Q29.6,384.8594 30.1938,383.7656 Q30.8031,382.6719 31.85,382.0938 Q32.9125,381.5 34.1,381.5 Q34.8188,381.5 35.4438,381.75 Q36.0688,382 36.6,382.5 Z " fill="#000000"/><text fill="#000000" font-family="sans-serif" font-size="12" lengthAdjust="spacing" textLength="53" x="51.4" y="390.9102">Company</text><line style="stroke:#A80036;stroke-width:1.5;" x1="8" x2="119" y1="402" y2="402"/><line style="stroke:#A80036;stroke-width:1.5;" x1="8" x2="119" y1="410" y2="410"/><ellipse cx="18" cy="421" fill="#84BE84" rx="3" ry="3" style="stroke:#038048;stroke-width:1.0;"/><text fill="#000000" font-family="sans-serif" font-size="11" lengthAdjust="spacing" textLength="87" x="27" y="425.4189">getUnusedTests()</text><!--MD5=[0f6f7964b844a64b0496af0dda7914bd]
class TestStore--><rect codeLine="17" fill="#FEFECE" filter="url(#ftk6xcwjs2nhx)" height="48" id="TestStore" style="stroke:#A80036;stroke-width:1.5;" width="85" x="21" y="493"/><ellipse cx="36" cy="509" fill="#ADD1B2" rx="11" ry="11" style="stroke:#A80036;stroke-width:1.0;"/><path d="M38,505.5 Q38.2031,505 38.4375,504.75 Q38.6719,504.5 38.9375,504.5 Q39.4063,504.5 39.7031,504.7813 Q40,505.0625 40,505.7188 L40,507.2813 Q40,507.9375 39.7188,508.2188 Q39.4375,508.5 39,508.5 Q38.6094,508.5 38.3594,508.3281 Q38.1094,508.1563 38,507.7031 Q37.9531,507.3906 37.7813,507.2188 Q37.4688,506.8906 36.9063,506.7031 Q36.3438,506.5 35.7813,506.5 Q35.0781,506.5 34.4844,506.7813 Q33.9063,507.0625 33.4531,507.6875 Q33,508.3125 33,509.1719 L33,510.0938 Q33,511.125 33.8438,511.8125 Q34.6875,512.5 36.1875,512.5 Q37.0781,512.5 37.7031,512.2969 Q38.0625,512.1875 38.4688,511.8281 Q38.7344,511.625 38.875,511.5625 Q39.0156,511.5 39.1875,511.5 Q39.5156,511.5 39.75,511.7656 Q40,512.0156 40,512.375 Q40,512.7188 39.6563,513.125 Q39.1563,513.7188 38.3594,514.0469 Q37.3125,514.5 36.0313,514.5 Q34.5313,514.5 33.3281,513.9063 Q32.3594,513.4375 31.6719,512.4219 Q31,511.4063 31,510.2031 L31,509.1094 Q31,507.8594 31.5938,506.7656 Q32.2031,505.6719 33.25,505.0938 Q34.3125,504.5 35.5,504.5 Q36.2188,504.5 36.8438,504.75 Q37.4688,505 38,505.5 Z " fill="#000000"/><text fill="#000000" font-family="sans-serif" font-size="12" lengthAdjust="spacing" textLength="53" x="50" y="513.9102">TestStore</text><line style="stroke:#A80036;stroke-width:1.5;" x1="22" x2="105" y1="525" y2="525"/><line style="stroke:#A80036;stroke-width:1.5;" x1="22" x2="105" y1="533" y2="533"/><!--MD5=[144698ec4d0188f6929a3b58a3eeb1f6]
class TestMapper--><rect codeLine="18" fill="#FEFECE" filter="url(#ftk6xcwjs2nhx)" height="48" id="TestMapper" style="stroke:#A80036;stroke-width:1.5;" width="97" x="155" y="377"/><ellipse cx="170" cy="393" fill="#ADD1B2" rx="11" ry="11" style="stroke:#A80036;stroke-width:1.0;"/><path d="M172,389.5 Q172.2031,389 172.4375,388.75 Q172.6719,388.5 172.9375,388.5 Q173.4063,388.5 173.7031,388.7813 Q174,389.0625 174,389.7188 L174,391.2813 Q174,391.9375 173.7188,392.2188 Q173.4375,392.5 173,392.5 Q172.6094,392.5 172.3594,392.3281 Q172.1094,392.1563 172,391.7031 Q171.9531,391.3906 171.7813,391.2188 Q171.4688,390.8906 170.9063,390.7031 Q170.3438,390.5 169.7813,390.5 Q169.0781,390.5 168.4844,390.7813 Q167.9063,391.0625 167.4531,391.6875 Q167,392.3125 167,393.1719 L167,394.0938 Q167,395.125 167.8438,395.8125 Q168.6875,396.5 170.1875,396.5 Q171.0781,396.5 171.7031,396.2969 Q172.0625,396.1875 172.4688,395.8281 Q172.7344,395.625 172.875,395.5625 Q173.0156,395.5 173.1875,395.5 Q173.5156,395.5 173.75,395.7656 Q174,396.0156 174,396.375 Q174,396.7188 173.6563,397.125 Q173.1563,397.7188 172.3594,398.0469 Q171.3125,398.5 170.0313,398.5 Q168.5313,398.5 167.3281,397.9063 Q166.3594,397.4375 165.6719,396.4219 Q165,395.4063 165,394.2031 L165,393.1094 Q165,391.8594 165.5938,390.7656 Q166.2031,389.6719 167.25,389.0938 Q168.3125,388.5 169.5,388.5 Q170.2188,388.5 170.8438,388.75 Q171.4688,389 172,389.5 Z " fill="#000000"/><text fill="#000000" font-family="sans-serif" font-size="12" lengthAdjust="spacing" textLength="65" x="184" y="397.9102">TestMapper</text><line style="stroke:#A80036;stroke-width:1.5;" x1="156" x2="251" y1="409" y2="409"/><line style="stroke:#A80036;stroke-width:1.5;" x1="156" x2="251" y1="417" y2="417"/><!--MD5=[9681492165142af2a4a3a169d90ee8d4]
class Sample--><rect codeLine="19" fill="#FEFECE" filter="url(#ftk6xcwjs2nhx)" height="75.6719" id="Sample" style="stroke:#A80036;stroke-width:1.5;" width="165" x="309" y="195.5"/><ellipse cx="365.75" cy="211.5" fill="#ADD1B2" rx="11" ry="11" style="stroke:#A80036;stroke-width:1.0;"/><path d="M367.75,208 Q367.9531,207.5 368.1875,207.25 Q368.4219,207 368.6875,207 Q369.1563,207 369.4531,207.2813 Q369.75,207.5625 369.75,208.2188 L369.75,209.7813 Q369.75,210.4375 369.4688,210.7188 Q369.1875,211 368.75,211 Q368.3594,211 368.1094,210.8281 Q367.8594,210.6563 367.75,210.2031 Q367.7031,209.8906 367.5313,209.7188 Q367.2188,209.3906 366.6563,209.2031 Q366.0938,209 365.5313,209 Q364.8281,209 364.2344,209.2813 Q363.6563,209.5625 363.2031,210.1875 Q362.75,210.8125 362.75,211.6719 L362.75,212.5938 Q362.75,213.625 363.5938,214.3125 Q364.4375,215 365.9375,215 Q366.8281,215 367.4531,214.7969 Q367.8125,214.6875 368.2188,214.3281 Q368.4844,214.125 368.625,214.0625 Q368.7656,214 368.9375,214 Q369.2656,214 369.5,214.2656 Q369.75,214.5156 369.75,214.875 Q369.75,215.2188 369.4063,215.625 Q368.9063,216.2188 368.1094,216.5469 Q367.0625,217 365.7813,217 Q364.2813,217 363.0781,216.4063 Q362.1094,215.9375 361.4219,214.9219 Q360.75,213.9063 360.75,212.7031 L360.75,211.6094 Q360.75,210.3594 361.3438,209.2656 Q361.9531,208.1719 363,207.5938 Q364.0625,207 365.25,207 Q365.9688,207 366.5938,207.25 Q367.2188,207.5 367.75,208 Z " fill="#000000"/><text fill="#000000" font-family="sans-serif" font-size="12" lengthAdjust="spacing" textLength="43" x="386.25" y="216.4102">Sample</text><line style="stroke:#A80036;stroke-width:1.5;" x1="310" x2="473" y1="227.5" y2="227.5"/><rect fill="none" height="6" style="stroke:#C82930;stroke-width:1.0;" width="6" x="317" y="235.5"/><text fill="#000000" font-family="sans-serif" font-size="11" lengthAdjust="spacing" textLength="40" x="329" y="242.9189">barcode</text><line style="stroke:#A80036;stroke-width:1.5;" x1="310" x2="473" y1="249.3359" y2="249.3359"/><ellipse cx="320" cy="260.3359" fill="#84BE84" rx="3" ry="3" style="stroke:#038048;stroke-width:1.0;"/><text fill="#000000" font-family="sans-serif" font-size="11" lengthAdjust="spacing" textLength="139" x="329" y="264.7549">saveSample(Sample sample)</text><!--MD5=[fcd6df96e169c9fc6403c4dc9bdb4d83]
class SampleStore--><rect codeLine="23" fill="#FEFECE" filter="url(#ftk6xcwjs2nhx)" height="61.8359" id="SampleStore" style="stroke:#A80036;stroke-width:1.5;" width="162" x="509.5" y="202.5"/><ellipse cx="550.6" cy="218.5" fill="#ADD1B2" rx="11" ry="11" style="stroke:#A80036;stroke-width:1.0;"/><path d="M552.6,215 Q552.8031,214.5 553.0375,214.25 Q553.2719,214 553.5375,214 Q554.0063,214 554.3031,214.2813 Q554.6,214.5625 554.6,215.2188 L554.6,216.7813 Q554.6,217.4375 554.3188,217.7188 Q554.0375,218 553.6,218 Q553.2094,218 552.9594,217.8281 Q552.7094,217.6563 552.6,217.2031 Q552.5531,216.8906 552.3813,216.7188 Q552.0688,216.3906 551.5063,216.2031 Q550.9438,216 550.3813,216 Q549.6781,216 549.0844,216.2813 Q548.5063,216.5625 548.0531,217.1875 Q547.6,217.8125 547.6,218.6719 L547.6,219.5938 Q547.6,220.625 548.4438,221.3125 Q549.2875,222 550.7875,222 Q551.6781,222 552.3031,221.7969 Q552.6625,221.6875 553.0688,221.3281 Q553.3344,221.125 553.475,221.0625 Q553.6156,221 553.7875,221 Q554.1156,221 554.35,221.2656 Q554.6,221.5156 554.6,221.875 Q554.6,222.2188 554.2563,222.625 Q553.7563,223.2188 552.9594,223.5469 Q551.9125,224 550.6313,224 Q549.1313,224 547.9281,223.4063 Q546.9594,222.9375 546.2719,221.9219 Q545.6,220.9063 545.6,219.7031 L545.6,218.6094 Q545.6,217.3594 546.1938,216.2656 Q546.8031,215.1719 547.85,214.5938 Q548.9125,214 550.1,214 Q550.8188,214 551.4438,214.25 Q552.0688,214.5 552.6,215 Z " fill="#000000"/><text fill="#000000" font-family="sans-serif" font-size="12" lengthAdjust="spacing" textLength="72" x="570.4" y="223.4102">SampleStore</text><line style="stroke:#A80036;stroke-width:1.5;" x1="510.5" x2="670.5" y1="234.5" y2="234.5"/><line style="stroke:#A80036;stroke-width:1.5;" x1="510.5" x2="670.5" y1="242.5" y2="242.5"/><ellipse cx="520.5" cy="253.5" fill="#84BE84" rx="3" ry="3" style="stroke:#038048;stroke-width:1.0;"/><text fill="#000000" font-family="sans-serif" font-size="11" lengthAdjust="spacing" textLength="136" x="529.5" y="257.9189">updateTestStatus(testCode)</text><!--MD5=[e671f3231fffda95da92cdb61ed3f059]
class BarcodeAPI--><rect codeLine="26" fill="#FEFECE" filter="url(#ftk6xcwjs2nhx)" height="61.8359" id="BarcodeAPI" style="stroke:#A80036;stroke-width:1.5;" width="137" x="287" y="370"/><ellipse cx="320.45" cy="386" fill="#ADD1B2" rx="11" ry="11" style="stroke:#A80036;stroke-width:1.0;"/><path d="M322.45,382.5 Q322.6531,382 322.8875,381.75 Q323.1219,381.5 323.3875,381.5 Q323.8563,381.5 324.1531,381.7813 Q324.45,382.0625 324.45,382.7188 L324.45,384.2813 Q324.45,384.9375 324.1688,385.2188 Q323.8875,385.5 323.45,385.5 Q323.0594,385.5 322.8094,385.3281 Q322.5594,385.1563 322.45,384.7031 Q322.4031,384.3906 322.2313,384.2188 Q321.9188,383.8906 321.3563,383.7031 Q320.7938,383.5 320.2313,383.5 Q319.5281,383.5 318.9344,383.7813 Q318.3563,384.0625 317.9031,384.6875 Q317.45,385.3125 317.45,386.1719 L317.45,387.0938 Q317.45,388.125 318.2938,388.8125 Q319.1375,389.5 320.6375,389.5 Q321.5281,389.5 322.1531,389.2969 Q322.5125,389.1875 322.9188,388.8281 Q323.1844,388.625 323.325,388.5625 Q323.4656,388.5 323.6375,388.5 Q323.9656,388.5 324.2,388.7656 Q324.45,389.0156 324.45,389.375 Q324.45,389.7188 324.1063,390.125 Q323.6063,390.7188 322.8094,391.0469 Q321.7625,391.5 320.4813,391.5 Q318.9813,391.5 317.7781,390.9063 Q316.8094,390.4375 316.1219,389.4219 Q315.45,388.4063 315.45,387.2031 L315.45,386.1094 Q315.45,384.8594 316.0438,383.7656 Q316.6531,382.6719 317.7,382.0938 Q318.7625,381.5 319.95,381.5 Q320.6688,381.5 321.2938,381.75 Q321.9188,382 322.45,382.5 Z " fill="#000000"/><text fill="#000000" font-family="sans-serif" font-size="12" lengthAdjust="spacing" textLength="64" x="338.55" y="390.9102">BarcodeAPI</text><line style="stroke:#A80036;stroke-width:1.5;" x1="288" x2="423" y1="402" y2="402"/><line style="stroke:#A80036;stroke-width:1.5;" x1="288" x2="423" y1="410" y2="410"/><ellipse cx="298" cy="421" fill="#84BE84" rx="3" ry="3" style="stroke:#038048;stroke-width:1.0;"/><text fill="#000000" font-family="sans-serif" font-size="11" lengthAdjust="spacing" textLength="111" x="307" y="425.4189">newBarcode(barcode)</text><!--MD5=[ed6624c6556d5e7b1bd23032162d20b7]
class Client--><rect codeLine="29" fill="#FEFECE" filter="url(#ftk6xcwjs2nhx)" height="48" id="Client" style="stroke:#A80036;stroke-width:1.5;" width="64" x="459.5" y="377"/><ellipse cx="474.5" cy="393" fill="#ADD1B2" rx="11" ry="11" style="stroke:#A80036;stroke-width:1.0;"/><path d="M476.5,389.5 Q476.7031,389 476.9375,388.75 Q477.1719,388.5 477.4375,388.5 Q477.9063,388.5 478.2031,388.7813 Q478.5,389.0625 478.5,389.7188 L478.5,391.2813 Q478.5,391.9375 478.2188,392.2188 Q477.9375,392.5 477.5,392.5 Q477.1094,392.5 476.8594,392.3281 Q476.6094,392.1563 476.5,391.7031 Q476.4531,391.3906 476.2813,391.2188 Q475.9688,390.8906 475.4063,390.7031 Q474.8438,390.5 474.2813,390.5 Q473.5781,390.5 472.9844,390.7813 Q472.4063,391.0625 471.9531,391.6875 Q471.5,392.3125 471.5,393.1719 L471.5,394.0938 Q471.5,395.125 472.3438,395.8125 Q473.1875,396.5 474.6875,396.5 Q475.5781,396.5 476.2031,396.2969 Q476.5625,396.1875 476.9688,395.8281 Q477.2344,395.625 477.375,395.5625 Q477.5156,395.5 477.6875,395.5 Q478.0156,395.5 478.25,395.7656 Q478.5,396.0156 478.5,396.375 Q478.5,396.7188 478.1563,397.125 Q477.6563,397.7188 476.8594,398.0469 Q475.8125,398.5 474.5313,398.5 Q473.0313,398.5 471.8281,397.9063 Q470.8594,397.4375 470.1719,396.4219 Q469.5,395.4063 469.5,394.2031 L469.5,393.1094 Q469.5,391.8594 470.0938,390.7656 Q470.7031,389.6719 471.75,389.0938 Q472.8125,388.5 474,388.5 Q474.7188,388.5 475.3438,388.75 Q475.9688,389 476.5,389.5 Z " fill="#000000"/><text fill="#000000" font-family="sans-serif" font-size="12" lengthAdjust="spacing" textLength="32" x="488.5" y="397.9102">Client</text><line style="stroke:#A80036;stroke-width:1.5;" x1="460.5" x2="522.5" y1="409" y2="409"/><line style="stroke:#A80036;stroke-width:1.5;" x1="460.5" x2="522.5" y1="417" y2="417"/><!--MD5=[df38be88ccee13e832d6fafd6288a4ca]
class Test--><rect codeLine="30" fill="#FEFECE" filter="url(#ftk6xcwjs2nhx)" height="48" id="Test" style="stroke:#A80036;stroke-width:1.5;" width="56" x="363.5" y="28"/><ellipse cx="378.5" cy="44" fill="#ADD1B2" rx="11" ry="11" style="stroke:#A80036;stroke-width:1.0;"/><path d="M380.5,40.5 Q380.7031,40 380.9375,39.75 Q381.1719,39.5 381.4375,39.5 Q381.9063,39.5 382.2031,39.7813 Q382.5,40.0625 382.5,40.7188 L382.5,42.2813 Q382.5,42.9375 382.2188,43.2188 Q381.9375,43.5 381.5,43.5 Q381.1094,43.5 380.8594,43.3281 Q380.6094,43.1563 380.5,42.7031 Q380.4531,42.3906 380.2813,42.2188 Q379.9688,41.8906 379.4063,41.7031 Q378.8438,41.5 378.2813,41.5 Q377.5781,41.5 376.9844,41.7813 Q376.4063,42.0625 375.9531,42.6875 Q375.5,43.3125 375.5,44.1719 L375.5,45.0938 Q375.5,46.125 376.3438,46.8125 Q377.1875,47.5 378.6875,47.5 Q379.5781,47.5 380.2031,47.2969 Q380.5625,47.1875 380.9688,46.8281 Q381.2344,46.625 381.375,46.5625 Q381.5156,46.5 381.6875,46.5 Q382.0156,46.5 382.25,46.7656 Q382.5,47.0156 382.5,47.375 Q382.5,47.7188 382.1563,48.125 Q381.6563,48.7188 380.8594,49.0469 Q379.8125,49.5 378.5313,49.5 Q377.0313,49.5 375.8281,48.9063 Q374.8594,48.4375 374.1719,47.4219 Q373.5,46.4063 373.5,45.2031 L373.5,44.1094 Q373.5,42.8594 374.0938,41.7656 Q374.7031,40.6719 375.75,40.0938 Q376.8125,39.5 378,39.5 Q378.7188,39.5 379.3438,39.75 Q379.9688,40 380.5,40.5 Z " fill="#000000"/><text fill="#000000" font-family="sans-serif" font-size="12" lengthAdjust="spacing" textLength="24" x="392.5" y="48.9102">Test</text><line style="stroke:#A80036;stroke-width:1.5;" x1="364.5" x2="418.5" y1="60" y2="60"/><line style="stroke:#A80036;stroke-width:1.5;" x1="364.5" x2="418.5" y1="68" y2="68"/><!--MD5=[201cf8439a08916d1f38ab05e55ad123]
link SampleUI to SampleController--><path codeLine="32" d="M203.5,97.37 C203.5,119.18 203.5,145.84 203.5,169.7 " fill="none" id="SampleUI-to-SampleController" style="stroke:#A80036;stroke-width:1.0;stroke-dasharray:7.0,7.0;"/><polygon fill="#A80036" points="203.5,174.74,207.5,165.74,203.5,169.74,199.5,165.74,203.5,174.74" style="stroke:#A80036;stroke-width:1.0;"/><!--MD5=[f14d6931ee7b83449a4ce97ee2c518ed]
link SampleController to Company--><path codeLine="33" d="M154.53,292.38 C133.75,316.95 110.24,344.75 92.32,365.94 " fill="none" id="SampleController-to-Company" style="stroke:#A80036;stroke-width:1.0;"/><polygon fill="#A80036" points="89.04,369.81,97.9077,365.5248,92.2704,365.9936,91.8015,360.3562,89.04,369.81" style="stroke:#A80036;stroke-width:1.0;"/><!--MD5=[7f6cf7f175eae0af66201860de5de971]
link Company to TestStore--><path codeLine="34" d="M63.5,432.25 C63.5,449.47 63.5,470.89 63.5,487.76 " fill="none" id="Company-to-TestStore" style="stroke:#A80036;stroke-width:1.0;"/><polygon fill="#A80036" points="63.5,492.84,67.5,483.84,63.5,487.84,59.5,483.84,63.5,492.84" style="stroke:#A80036;stroke-width:1.0;"/><!--MD5=[aa85792963d55107d845b13a7c9c7cf2]
link SampleController to TestMapper--><path codeLine="35" d="M203.5,292.38 C203.5,319.31 203.5,350.1 203.5,371.83 " fill="none" id="SampleController-to-TestMapper" style="stroke:#A80036;stroke-width:1.0;"/><polygon fill="#A80036" points="203.5,376.88,207.5,367.88,203.5,371.88,199.5,367.88,203.5,376.88" style="stroke:#A80036;stroke-width:1.0;"/><!--MD5=[2c89539f838c9f888efb8e08e5e12fb4]
link SampleController to BarcodeAPI--><path codeLine="36" d="M256.66,292.38 C279.23,316.95 304.76,344.75 324.21,365.94 " fill="none" id="SampleController-to-BarcodeAPI" style="stroke:#A80036;stroke-width:1.0;"/><polygon fill="#A80036" points="327.78,369.81,324.6569,360.4694,324.4053,366.1207,318.754,365.869,327.78,369.81" style="stroke:#A80036;stroke-width:1.0;"/><!--MD5=[cc611d447c1a60cf050c6ad84c30a76a]
link SampleController to Sample--><path codeLine="37" d="M273.63,233.5 C283.57,233.5 293.5,233.5 303.43,233.5 " fill="none" id="SampleController-to-Sample" style="stroke:#A80036;stroke-width:1.0;"/><polygon fill="#A80036" points="308.62,233.5,299.62,229.5,303.62,233.5,299.62,237.5,308.62,233.5" style="stroke:#A80036;stroke-width:1.0;"/><!--MD5=[55ba062825617b64d10d6875c3a356b2]
link SampleController to SampleStore--><path codeLine="38" d="M251.88,174.76 C268.21,159.14 287.75,144.32 309,136 C377.29,109.28 405.07,110.96 474,136 C508.21,148.43 539.4,175.79 560.87,198.38 " fill="none" id="SampleController-to-SampleStore" style="stroke:#A80036;stroke-width:1.0;"/><polygon fill="#A80036" points="564.5,202.25,561.2445,192.9547,561.0732,198.609,555.4189,198.4377,564.5,202.25" style="stroke:#A80036;stroke-width:1.0;"/><!--MD5=[ee271d3062e73581e83a1be40f664f5d]
link Sample to SampleStore--><path codeLine="39" d="M474.29,233.5 C484.21,233.5 494.13,233.5 504.05,233.5 " fill="none" id="Sample-to-SampleStore" style="stroke:#A80036;stroke-width:1.0;"/><polygon fill="#A80036" points="509.24,233.5,500.24,229.5,504.24,233.5,500.24,237.5,509.24,233.5" style="stroke:#A80036;stroke-width:1.0;"/><!--MD5=[9e18cdcaa9fc98b54e28689ca42ef92a]
link Sample to BarcodeAPI--><path codeLine="41" d="M378.4,271.57 C373.39,287 368.03,305.2 364.5,322 C361.22,337.61 359.06,355.24 357.68,369.79 " fill="none" id="Sample-BarcodeAPI" style="stroke:#A80036;stroke-width:1.0;"/><polygon fill="#000000" points="368.4679,336.0681,373.2106,327.8244,367.4593,326.6112,368.4679,336.0681" style="stroke:#000000;stroke-width:1.0;"/><text fill="#000000" font-family="sans-serif" font-size="13" lengthAdjust="spacing" textLength="69" x="378.5" y="336.4951">identified by</text><text fill="#000000" font-family="sans-serif" font-size="13" lengthAdjust="spacing" textLength="7" x="368.6506" y="292.7517">1</text><text fill="#000000" font-family="sans-serif" font-size="13" lengthAdjust="spacing" textLength="7" x="345.9953" y="359.2512">1</text><!--MD5=[a23f50aea1fcb140948e132a9bfce5a1]
link Sample to Client--><path codeLine="42" d="M419.15,271.61 C430.06,286.89 442.38,304.97 452.5,322 C463.1,339.83 473.52,360.92 480.92,376.66 " fill="none" id="Sample-Client" style="stroke:#A80036;stroke-width:1.0;"/><polygon fill="#000000" points="469.0344,335.4859,466.9831,326.1992,461.9162,329.1785,469.0344,335.4859" style="stroke:#000000;stroke-width:1.0;"/><text fill="#000000" font-family="sans-serif" font-size="13" lengthAdjust="spacing" textLength="78" x="475.5" y="336.4951">associated to</text><text fill="#000000" font-family="sans-serif" font-size="13" lengthAdjust="spacing" textLength="5" x="418.3155" y="292.7984">*</text><text fill="#000000" font-family="sans-serif" font-size="13" lengthAdjust="spacing" textLength="7" x="461.513" y="366.3151">1</text><!--MD5=[b72ac8ab7fb5921fceb5036a3902baea]
link Test to Sample--><path codeLine="43" d="M391.5,76.1 C391.5,106.3 391.5,159.58 391.5,195.46 " fill="none" id="Test-Sample" style="stroke:#A80036;stroke-width:1.0;"/><polygon fill="#000000" points="396.5,141.1758,399.4389,132.1307,393.5611,132.1307,396.5,141.1758" style="stroke:#000000;stroke-width:1.0;"/><text fill="#000000" font-family="sans-serif" font-size="13" lengthAdjust="spacing" textLength="45" x="405.5" y="141.4951">collects</text><text fill="#000000" font-family="sans-serif" font-size="13" lengthAdjust="spacing" textLength="7" x="374.6719" y="97.4623">1</text><text fill="#000000" font-family="sans-serif" font-size="13" lengthAdjust="spacing" textLength="5" x="386.0391" y="184.5292">*</text><!--MD5=[4729e12867eccb7b87475c0600038098]
@startuml

class SampleUI {
+getTestList()
+selectTestCode(testCode)
+setSampleNumber(n)
}
class SampleController {
+getTestList()
+toDTO(listTest)
+setTestCode(testCode)
+generateBarcode()
+createSample(barcode)
}
class Company {
+getUnusedTests()
}
class TestStore
class TestMapper
class Sample {
-barcode
+saveSample(Sample sample)
}
class SampleStore {
+updateTestStatus(testCode)
}
class BarcodeAPI {
+newBarcode(barcode)
}
class Client
class Test

SampleUI ..> SampleController
SampleController - -> Company
Company - -> TestStore
SampleController - -> TestMapper
SampleController -> BarcodeAPI
SampleController -> Sample
SampleController -> SampleStore
Sample -> SampleStore

Sample "1"- -"1 " BarcodeAPI : identified by >
Sample "*"- -"1  " Client : associated to >
Test "1  "- -"*" Sample : collects >

@enduml

PlantUML version 1.2021.4(Sun Apr 04 09:49:39 BST 2021)
(GPL source distribution)
Java Runtime: OpenJDK Runtime Environment
JVM: OpenJDK 64-Bit Server VM
Default Encoding: Cp1252
Language: en
Country: US
--></g></svg>