<?xml version="1.0" encoding="UTF-8" standalone="no"?><svg xmlns="http://www.w3.org/2000/svg" xmlns:xlink="http://www.w3.org/1999/xlink" contentScriptType="application/ecmascript" contentStyleType="text/css" height="1166px" preserveAspectRatio="none" style="width:469px;height:1166px;" version="1.1" viewBox="0 0 469 1166" width="469px" zoomAndPan="magnify"><defs><filter height="300%" id="fpj3t65b3ubrr" width="300%" x="-1" y="-1"><feGaussianBlur result="blurOut" stdDeviation="2.0"/><feColorMatrix in="blurOut" result="blurOut2" type="matrix" values="0 0 0 0 0 0 0 0 0 0 0 0 0 0 0 0 0 0 .4 0"/><feOffset dx="4.0" dy="4.0" in="blurOut2" result="blurOut3"/><feBlend in="SourceGraphic" in2="blurOut3" mode="normal"/></filter></defs><g><!--MD5=[ed6624c6556d5e7b1bd23032162d20b7]
class Client--><rect codeLine="3" fill="#FEFECE" filter="url(#fpj3t65b3ubrr)" height="158.6875" id="Client" style="stroke:#A80036;stroke-width:1.5;" width="83" x="29.5" y="532.5"/><ellipse cx="53.05" cy="548.5" fill="#ADD1B2" rx="11" ry="11" style="stroke:#A80036;stroke-width:1.0;"/><path d="M55.05,545 Q55.2531,544.5 55.4875,544.25 Q55.7219,544 55.9875,544 Q56.4563,544 56.7531,544.2813 Q57.05,544.5625 57.05,545.2188 L57.05,546.7813 Q57.05,547.4375 56.7688,547.7188 Q56.4875,548 56.05,548 Q55.6594,548 55.4094,547.8281 Q55.1594,547.6563 55.05,547.2031 Q55.0031,546.8906 54.8313,546.7188 Q54.5188,546.3906 53.9563,546.2031 Q53.3938,546 52.8313,546 Q52.1281,546 51.5344,546.2813 Q50.9563,546.5625 50.5031,547.1875 Q50.05,547.8125 50.05,548.6719 L50.05,549.5938 Q50.05,550.625 50.8938,551.3125 Q51.7375,552 53.2375,552 Q54.1281,552 54.7531,551.7969 Q55.1125,551.6875 55.5188,551.3281 Q55.7844,551.125 55.925,551.0625 Q56.0656,551 56.2375,551 Q56.5656,551 56.8,551.2656 Q57.05,551.5156 57.05,551.875 Q57.05,552.2188 56.7063,552.625 Q56.2063,553.2188 55.4094,553.5469 Q54.3625,554 53.0813,554 Q51.5813,554 50.3781,553.4063 Q49.4094,552.9375 48.7219,551.9219 Q48.05,550.9063 48.05,549.7031 L48.05,548.6094 Q48.05,547.3594 48.6438,546.2656 Q49.2531,545.1719 50.3,544.5938 Q51.3625,544 52.55,544 Q53.2688,544 53.8938,544.25 Q54.5188,544.5 55.05,545 Z " fill="#000000"/><text fill="#000000" font-family="sans-serif" font-size="12" lengthAdjust="spacing" textLength="32" x="68.95" y="553.4102">Client</text><line style="stroke:#A80036;stroke-width:1.5;" x1="30.5" x2="111.5" y1="564.5" y2="564.5"/><text fill="#000000" font-family="sans-serif" font-size="11" lengthAdjust="spacing" textLength="30" x="35.5" y="579.9189">-name</text><text fill="#000000" font-family="sans-serif" font-size="11" lengthAdjust="spacing" textLength="63" x="35.5" y="593.7549">-cardNumber</text><text fill="#000000" font-family="sans-serif" font-size="11" lengthAdjust="spacing" textLength="30" x="35.5" y="607.5908">-nhsId</text><text fill="#000000" font-family="sans-serif" font-size="11" lengthAdjust="spacing" textLength="47" x="35.5" y="621.4268">-dateBirth</text><text fill="#000000" font-family="sans-serif" font-size="11" lengthAdjust="spacing" textLength="19" x="35.5" y="635.2627">-TIN</text><text fill="#000000" font-family="sans-serif" font-size="11" lengthAdjust="spacing" textLength="71" x="35.5" y="649.0986">-phoneNumber</text><text fill="#000000" font-family="sans-serif" font-size="11" lengthAdjust="spacing" textLength="28" x="35.5" y="662.9346">-email</text><text fill="#000000" font-family="sans-serif" font-size="11" lengthAdjust="spacing" textLength="22" x="35.5" y="676.7705">-sex</text><line style="stroke:#A80036;stroke-width:1.5;" x1="30.5" x2="111.5" y1="683.1875" y2="683.1875"/><!--MD5=[fa55af956531f700b1f6f664510affc2]
class ShowTestResultsUI--><rect codeLine="13" fill="#FEFECE" filter="url(#fpj3t65b3ubrr)" height="48" id="ShowTestResultsUI" style="stroke:#A80036;stroke-width:1.5;" width="142" x="271" y="7"/><ellipse cx="286" cy="23" fill="#ADD1B2" rx="11" ry="11" style="stroke:#A80036;stroke-width:1.0;"/><path d="M288,19.5 Q288.2031,19 288.4375,18.75 Q288.6719,18.5 288.9375,18.5 Q289.4063,18.5 289.7031,18.7813 Q290,19.0625 290,19.7188 L290,21.2813 Q290,21.9375 289.7188,22.2188 Q289.4375,22.5 289,22.5 Q288.6094,22.5 288.3594,22.3281 Q288.1094,22.1563 288,21.7031 Q287.9531,21.3906 287.7813,21.2188 Q287.4688,20.8906 286.9063,20.7031 Q286.3438,20.5 285.7813,20.5 Q285.0781,20.5 284.4844,20.7813 Q283.9063,21.0625 283.4531,21.6875 Q283,22.3125 283,23.1719 L283,24.0938 Q283,25.125 283.8438,25.8125 Q284.6875,26.5 286.1875,26.5 Q287.0781,26.5 287.7031,26.2969 Q288.0625,26.1875 288.4688,25.8281 Q288.7344,25.625 288.875,25.5625 Q289.0156,25.5 289.1875,25.5 Q289.5156,25.5 289.75,25.7656 Q290,26.0156 290,26.375 Q290,26.7188 289.6563,27.125 Q289.1563,27.7188 288.3594,28.0469 Q287.3125,28.5 286.0313,28.5 Q284.5313,28.5 283.3281,27.9063 Q282.3594,27.4375 281.6719,26.4219 Q281,25.4063 281,24.2031 L281,23.1094 Q281,21.8594 281.5938,20.7656 Q282.2031,19.6719 283.25,19.0938 Q284.3125,18.5 285.5,18.5 Q286.2188,18.5 286.8438,18.75 Q287.4688,19 288,19.5 Z " fill="#000000"/><text fill="#000000" font-family="sans-serif" font-size="12" lengthAdjust="spacing" textLength="110" x="300" y="27.9102">ShowTestResultsUI</text><line style="stroke:#A80036;stroke-width:1.5;" x1="272" x2="412" y1="39" y2="39"/><line style="stroke:#A80036;stroke-width:1.5;" x1="272" x2="412" y1="47" y2="47"/><!--MD5=[fed1f8060d293b6d7695ca94391604a1]
class ShowTestResultsController--><rect codeLine="14" fill="#FEFECE" filter="url(#fpj3t65b3ubrr)" height="48" id="ShowTestResultsController" style="stroke:#A80036;stroke-width:1.5;" width="184" x="178" y="116"/><ellipse cx="193" cy="132" fill="#ADD1B2" rx="11" ry="11" style="stroke:#A80036;stroke-width:1.0;"/><path d="M195,128.5 Q195.2031,128 195.4375,127.75 Q195.6719,127.5 195.9375,127.5 Q196.4063,127.5 196.7031,127.7813 Q197,128.0625 197,128.7188 L197,130.2813 Q197,130.9375 196.7188,131.2188 Q196.4375,131.5 196,131.5 Q195.6094,131.5 195.3594,131.3281 Q195.1094,131.1563 195,130.7031 Q194.9531,130.3906 194.7813,130.2188 Q194.4688,129.8906 193.9063,129.7031 Q193.3438,129.5 192.7813,129.5 Q192.0781,129.5 191.4844,129.7813 Q190.9063,130.0625 190.4531,130.6875 Q190,131.3125 190,132.1719 L190,133.0938 Q190,134.125 190.8438,134.8125 Q191.6875,135.5 193.1875,135.5 Q194.0781,135.5 194.7031,135.2969 Q195.0625,135.1875 195.4688,134.8281 Q195.7344,134.625 195.875,134.5625 Q196.0156,134.5 196.1875,134.5 Q196.5156,134.5 196.75,134.7656 Q197,135.0156 197,135.375 Q197,135.7188 196.6563,136.125 Q196.1563,136.7188 195.3594,137.0469 Q194.3125,137.5 193.0313,137.5 Q191.5313,137.5 190.3281,136.9063 Q189.3594,136.4375 188.6719,135.4219 Q188,134.4063 188,133.2031 L188,132.1094 Q188,130.8594 188.5938,129.7656 Q189.2031,128.6719 190.25,128.0938 Q191.3125,127.5 192.5,127.5 Q193.2188,127.5 193.8438,127.75 Q194.4688,128 195,128.5 Z " fill="#000000"/><text fill="#000000" font-family="sans-serif" font-size="12" lengthAdjust="spacing" textLength="152" x="207" y="136.9102">ShowTestResultsController</text><line style="stroke:#A80036;stroke-width:1.5;" x1="179" x2="361" y1="148" y2="148"/><line style="stroke:#A80036;stroke-width:1.5;" x1="179" x2="361" y1="156" y2="156"/><!--MD5=[02e4b9b7573f1156f41e60aa5b4e25a4]
class Company--><rect codeLine="15" fill="#FEFECE" filter="url(#fpj3t65b3ubrr)" height="61.8359" id="Company" style="stroke:#A80036;stroke-width:1.5;" width="85" x="122.5" y="225"/><ellipse cx="137.5" cy="241" fill="#ADD1B2" rx="11" ry="11" style="stroke:#A80036;stroke-width:1.0;"/><path d="M139.5,237.5 Q139.7031,237 139.9375,236.75 Q140.1719,236.5 140.4375,236.5 Q140.9063,236.5 141.2031,236.7813 Q141.5,237.0625 141.5,237.7188 L141.5,239.2813 Q141.5,239.9375 141.2188,240.2188 Q140.9375,240.5 140.5,240.5 Q140.1094,240.5 139.8594,240.3281 Q139.6094,240.1563 139.5,239.7031 Q139.4531,239.3906 139.2813,239.2188 Q138.9688,238.8906 138.4063,238.7031 Q137.8438,238.5 137.2813,238.5 Q136.5781,238.5 135.9844,238.7813 Q135.4063,239.0625 134.9531,239.6875 Q134.5,240.3125 134.5,241.1719 L134.5,242.0938 Q134.5,243.125 135.3438,243.8125 Q136.1875,244.5 137.6875,244.5 Q138.5781,244.5 139.2031,244.2969 Q139.5625,244.1875 139.9688,243.8281 Q140.2344,243.625 140.375,243.5625 Q140.5156,243.5 140.6875,243.5 Q141.0156,243.5 141.25,243.7656 Q141.5,244.0156 141.5,244.375 Q141.5,244.7188 141.1563,245.125 Q140.6563,245.7188 139.8594,246.0469 Q138.8125,246.5 137.5313,246.5 Q136.0313,246.5 134.8281,245.9063 Q133.8594,245.4375 133.1719,244.4219 Q132.5,243.4063 132.5,242.2031 L132.5,241.1094 Q132.5,239.8594 133.0938,238.7656 Q133.7031,237.6719 134.75,237.0938 Q135.8125,236.5 137,236.5 Q137.7188,236.5 138.3438,236.75 Q138.9688,237 139.5,237.5 Z " fill="#000000"/><text fill="#000000" font-family="sans-serif" font-size="12" lengthAdjust="spacing" textLength="53" x="151.5" y="245.9102">Company</text><line style="stroke:#A80036;stroke-width:1.5;" x1="123.5" x2="206.5" y1="257" y2="257"/><text fill="#000000" font-family="sans-serif" font-size="11" lengthAdjust="spacing" textLength="59" x="128.5" y="272.4189">-designation</text><line style="stroke:#A80036;stroke-width:1.5;" x1="123.5" x2="206.5" y1="278.8359" y2="278.8359"/><!--MD5=[55cb992be19579b505cea3c5691093cb]
class ClientStore--><rect codeLine="18" fill="#FEFECE" filter="url(#fpj3t65b3ubrr)" height="61.8359" id="ClientStore" style="stroke:#A80036;stroke-width:1.5;" width="128" x="7" y="372"/><ellipse cx="37.75" cy="388" fill="#ADD1B2" rx="11" ry="11" style="stroke:#A80036;stroke-width:1.0;"/><path d="M39.75,384.5 Q39.9531,384 40.1875,383.75 Q40.4219,383.5 40.6875,383.5 Q41.1563,383.5 41.4531,383.7813 Q41.75,384.0625 41.75,384.7188 L41.75,386.2813 Q41.75,386.9375 41.4688,387.2188 Q41.1875,387.5 40.75,387.5 Q40.3594,387.5 40.1094,387.3281 Q39.8594,387.1563 39.75,386.7031 Q39.7031,386.3906 39.5313,386.2188 Q39.2188,385.8906 38.6563,385.7031 Q38.0938,385.5 37.5313,385.5 Q36.8281,385.5 36.2344,385.7813 Q35.6563,386.0625 35.2031,386.6875 Q34.75,387.3125 34.75,388.1719 L34.75,389.0938 Q34.75,390.125 35.5938,390.8125 Q36.4375,391.5 37.9375,391.5 Q38.8281,391.5 39.4531,391.2969 Q39.8125,391.1875 40.2188,390.8281 Q40.4844,390.625 40.625,390.5625 Q40.7656,390.5 40.9375,390.5 Q41.2656,390.5 41.5,390.7656 Q41.75,391.0156 41.75,391.375 Q41.75,391.7188 41.4063,392.125 Q40.9063,392.7188 40.1094,393.0469 Q39.0625,393.5 37.7813,393.5 Q36.2813,393.5 35.0781,392.9063 Q34.1094,392.4375 33.4219,391.4219 Q32.75,390.4063 32.75,389.2031 L32.75,388.1094 Q32.75,386.8594 33.3438,385.7656 Q33.9531,384.6719 35,384.0938 Q36.0625,383.5 37.25,383.5 Q37.9688,383.5 38.5938,383.75 Q39.2188,384 39.75,384.5 Z " fill="#000000"/><text fill="#000000" font-family="sans-serif" font-size="12" lengthAdjust="spacing" textLength="61" x="55.25" y="392.9102">ClientStore</text><line style="stroke:#A80036;stroke-width:1.5;" x1="8" x2="134" y1="404" y2="404"/><line style="stroke:#A80036;stroke-width:1.5;" x1="8" x2="134" y1="412" y2="412"/><text fill="#000000" font-family="sans-serif" font-size="11" lengthAdjust="spacing" textLength="116" x="13" y="427.4189">+getClientByEmail(email)</text><!--MD5=[0f6f7964b844a64b0496af0dda7914bd]
class TestStore--><rect codeLine="21" fill="#FEFECE" filter="url(#fpj3t65b3ubrr)" height="75.6719" id="TestStore" style="stroke:#A80036;stroke-width:1.5;" width="177" x="170.5" y="365"/><ellipse cx="228.25" cy="381" fill="#ADD1B2" rx="11" ry="11" style="stroke:#A80036;stroke-width:1.0;"/><path d="M230.25,377.5 Q230.4531,377 230.6875,376.75 Q230.9219,376.5 231.1875,376.5 Q231.6563,376.5 231.9531,376.7813 Q232.25,377.0625 232.25,377.7188 L232.25,379.2813 Q232.25,379.9375 231.9688,380.2188 Q231.6875,380.5 231.25,380.5 Q230.8594,380.5 230.6094,380.3281 Q230.3594,380.1563 230.25,379.7031 Q230.2031,379.3906 230.0313,379.2188 Q229.7188,378.8906 229.1563,378.7031 Q228.5938,378.5 228.0313,378.5 Q227.3281,378.5 226.7344,378.7813 Q226.1563,379.0625 225.7031,379.6875 Q225.25,380.3125 225.25,381.1719 L225.25,382.0938 Q225.25,383.125 226.0938,383.8125 Q226.9375,384.5 228.4375,384.5 Q229.3281,384.5 229.9531,384.2969 Q230.3125,384.1875 230.7188,383.8281 Q230.9844,383.625 231.125,383.5625 Q231.2656,383.5 231.4375,383.5 Q231.7656,383.5 232,383.7656 Q232.25,384.0156 232.25,384.375 Q232.25,384.7188 231.9063,385.125 Q231.4063,385.7188 230.6094,386.0469 Q229.5625,386.5 228.2813,386.5 Q226.7813,386.5 225.5781,385.9063 Q224.6094,385.4375 223.9219,384.4219 Q223.25,383.4063 223.25,382.2031 L223.25,381.1094 Q223.25,379.8594 223.8438,378.7656 Q224.4531,377.6719 225.5,377.0938 Q226.5625,376.5 227.75,376.5 Q228.4688,376.5 229.0938,376.75 Q229.7188,377 230.25,377.5 Z " fill="#000000"/><text fill="#000000" font-family="sans-serif" font-size="12" lengthAdjust="spacing" textLength="53" x="248.75" y="385.9102">TestStore</text><line style="stroke:#A80036;stroke-width:1.5;" x1="171.5" x2="346.5" y1="397" y2="397"/><line style="stroke:#A80036;stroke-width:1.5;" x1="171.5" x2="346.5" y1="405" y2="405"/><text fill="#000000" font-family="sans-serif" font-size="11" lengthAdjust="spacing" textLength="165" x="176.5" y="420.4189">+getValidatedTestsByClient(client)</text><text fill="#000000" font-family="sans-serif" font-size="11" lengthAdjust="spacing" textLength="131" x="176.5" y="434.2549">+getTestByCode(testCode)</text><!--MD5=[df38be88ccee13e832d6fafd6288a4ca]
class Test--><rect codeLine="25" fill="#FEFECE" filter="url(#fpj3t65b3ubrr)" height="186.3594" id="Test" style="stroke:#A80036;stroke-width:1.5;" width="128" x="195" y="519"/><ellipse cx="242.75" cy="535" fill="#ADD1B2" rx="11" ry="11" style="stroke:#A80036;stroke-width:1.0;"/><path d="M244.75,531.5 Q244.9531,531 245.1875,530.75 Q245.4219,530.5 245.6875,530.5 Q246.1563,530.5 246.4531,530.7813 Q246.75,531.0625 246.75,531.7188 L246.75,533.2813 Q246.75,533.9375 246.4688,534.2188 Q246.1875,534.5 245.75,534.5 Q245.3594,534.5 245.1094,534.3281 Q244.8594,534.1563 244.75,533.7031 Q244.7031,533.3906 244.5313,533.2188 Q244.2188,532.8906 243.6563,532.7031 Q243.0938,532.5 242.5313,532.5 Q241.8281,532.5 241.2344,532.7813 Q240.6563,533.0625 240.2031,533.6875 Q239.75,534.3125 239.75,535.1719 L239.75,536.0938 Q239.75,537.125 240.5938,537.8125 Q241.4375,538.5 242.9375,538.5 Q243.8281,538.5 244.4531,538.2969 Q244.8125,538.1875 245.2188,537.8281 Q245.4844,537.625 245.625,537.5625 Q245.7656,537.5 245.9375,537.5 Q246.2656,537.5 246.5,537.7656 Q246.75,538.0156 246.75,538.375 Q246.75,538.7188 246.4063,539.125 Q245.9063,539.7188 245.1094,540.0469 Q244.0625,540.5 242.7813,540.5 Q241.2813,540.5 240.0781,539.9063 Q239.1094,539.4375 238.4219,538.4219 Q237.75,537.4063 237.75,536.2031 L237.75,535.1094 Q237.75,533.8594 238.3438,532.7656 Q238.9531,531.6719 240,531.0938 Q241.0625,530.5 242.25,530.5 Q242.9688,530.5 243.5938,530.75 Q244.2188,531 244.75,531.5 Z " fill="#000000"/><text fill="#000000" font-family="sans-serif" font-size="12" lengthAdjust="spacing" textLength="24" x="263.25" y="539.9102">Test</text><line style="stroke:#A80036;stroke-width:1.5;" x1="196" x2="322" y1="551" y2="551"/><text fill="#000000" font-family="sans-serif" font-size="11" lengthAdjust="spacing" textLength="47" x="201" y="566.4189">-testCode</text><text fill="#000000" font-family="sans-serif" font-size="11" lengthAdjust="spacing" textLength="47" x="201" y="580.2549">-nhsCode</text><text fill="#000000" font-family="sans-serif" font-size="11" lengthAdjust="spacing" textLength="77" x="201" y="594.0908">-dateOfCreation</text><text fill="#000000" font-family="sans-serif" font-size="11" lengthAdjust="spacing" textLength="57" x="201" y="607.9268">-dateReport</text><text fill="#000000" font-family="sans-serif" font-size="11" lengthAdjust="spacing" textLength="55" x="201" y="621.7627">-timeReport</text><text fill="#000000" font-family="sans-serif" font-size="11" lengthAdjust="spacing" textLength="61" x="201" y="635.5986">-dateResults</text><text fill="#000000" font-family="sans-serif" font-size="11" lengthAdjust="spacing" textLength="59" x="201" y="649.4346">-timeResults</text><text fill="#000000" font-family="sans-serif" font-size="11" lengthAdjust="spacing" textLength="72" x="201" y="663.2705">-dateValidation</text><text fill="#000000" font-family="sans-serif" font-size="11" lengthAdjust="spacing" textLength="70" x="201" y="677.1064">-timeValidation</text><line style="stroke:#A80036;stroke-width:1.5;" x1="196" x2="322" y1="683.5234" y2="683.5234"/><text fill="#000000" font-family="sans-serif" font-size="11" lengthAdjust="spacing" textLength="116" x="201" y="698.9424">+getTestParamResults()</text><!--MD5=[144698ec4d0188f6929a3b58a3eeb1f6]
class TestMapper--><rect codeLine="37" fill="#FEFECE" filter="url(#fpj3t65b3ubrr)" height="61.8359" id="TestMapper" style="stroke:#A80036;stroke-width:1.5;" width="97" x="242.5" y="225"/><ellipse cx="257.5" cy="241" fill="#ADD1B2" rx="11" ry="11" style="stroke:#A80036;stroke-width:1.0;"/><path d="M259.5,237.5 Q259.7031,237 259.9375,236.75 Q260.1719,236.5 260.4375,236.5 Q260.9063,236.5 261.2031,236.7813 Q261.5,237.0625 261.5,237.7188 L261.5,239.2813 Q261.5,239.9375 261.2188,240.2188 Q260.9375,240.5 260.5,240.5 Q260.1094,240.5 259.8594,240.3281 Q259.6094,240.1563 259.5,239.7031 Q259.4531,239.3906 259.2813,239.2188 Q258.9688,238.8906 258.4063,238.7031 Q257.8438,238.5 257.2813,238.5 Q256.5781,238.5 255.9844,238.7813 Q255.4063,239.0625 254.9531,239.6875 Q254.5,240.3125 254.5,241.1719 L254.5,242.0938 Q254.5,243.125 255.3438,243.8125 Q256.1875,244.5 257.6875,244.5 Q258.5781,244.5 259.2031,244.2969 Q259.5625,244.1875 259.9688,243.8281 Q260.2344,243.625 260.375,243.5625 Q260.5156,243.5 260.6875,243.5 Q261.0156,243.5 261.25,243.7656 Q261.5,244.0156 261.5,244.375 Q261.5,244.7188 261.1563,245.125 Q260.6563,245.7188 259.8594,246.0469 Q258.8125,246.5 257.5313,246.5 Q256.0313,246.5 254.8281,245.9063 Q253.8594,245.4375 253.1719,244.4219 Q252.5,243.4063 252.5,242.2031 L252.5,241.1094 Q252.5,239.8594 253.0938,238.7656 Q253.7031,237.6719 254.75,237.0938 Q255.8125,236.5 257,236.5 Q257.7188,236.5 258.3438,236.75 Q258.9688,237 259.5,237.5 Z " fill="#000000"/><text fill="#000000" font-family="sans-serif" font-size="12" lengthAdjust="spacing" textLength="65" x="271.5" y="245.9102">TestMapper</text><line style="stroke:#A80036;stroke-width:1.5;" x1="243.5" x2="338.5" y1="257" y2="257"/><line style="stroke:#A80036;stroke-width:1.5;" x1="243.5" x2="338.5" y1="265" y2="265"/><text fill="#000000" font-family="sans-serif" font-size="11" lengthAdjust="spacing" textLength="80" x="248.5" y="280.4189">+toDtoList(tests)</text><!--MD5=[e1b684d3962829f7d15065466104158d]
class TestParamList--><rect codeLine="40" fill="#FEFECE" filter="url(#fpj3t65b3ubrr)" height="61.8359" id="TestParamList" style="stroke:#A80036;stroke-width:1.5;" width="128" x="195" y="783"/><ellipse cx="216.75" cy="799" fill="#ADD1B2" rx="11" ry="11" style="stroke:#A80036;stroke-width:1.0;"/><path d="M218.75,795.5 Q218.9531,795 219.1875,794.75 Q219.4219,794.5 219.6875,794.5 Q220.1563,794.5 220.4531,794.7813 Q220.75,795.0625 220.75,795.7188 L220.75,797.2813 Q220.75,797.9375 220.4688,798.2188 Q220.1875,798.5 219.75,798.5 Q219.3594,798.5 219.1094,798.3281 Q218.8594,798.1563 218.75,797.7031 Q218.7031,797.3906 218.5313,797.2188 Q218.2188,796.8906 217.6563,796.7031 Q217.0938,796.5 216.5313,796.5 Q215.8281,796.5 215.2344,796.7813 Q214.6563,797.0625 214.2031,797.6875 Q213.75,798.3125 213.75,799.1719 L213.75,800.0938 Q213.75,801.125 214.5938,801.8125 Q215.4375,802.5 216.9375,802.5 Q217.8281,802.5 218.4531,802.2969 Q218.8125,802.1875 219.2188,801.8281 Q219.4844,801.625 219.625,801.5625 Q219.7656,801.5 219.9375,801.5 Q220.2656,801.5 220.5,801.7656 Q220.75,802.0156 220.75,802.375 Q220.75,802.7188 220.4063,803.125 Q219.9063,803.7188 219.1094,804.0469 Q218.0625,804.5 216.7813,804.5 Q215.2813,804.5 214.0781,803.9063 Q213.1094,803.4375 212.4219,802.4219 Q211.75,801.4063 211.75,800.2031 L211.75,799.1094 Q211.75,797.8594 212.3438,796.7656 Q212.9531,795.6719 214,795.0938 Q215.0625,794.5 216.25,794.5 Q216.9688,794.5 217.5938,794.75 Q218.2188,795 218.75,795.5 Z " fill="#000000"/><text fill="#000000" font-family="sans-serif" font-size="12" lengthAdjust="spacing" textLength="81" x="232.25" y="803.9102">TestParamList</text><line style="stroke:#A80036;stroke-width:1.5;" x1="196" x2="322" y1="815" y2="815"/><line style="stroke:#A80036;stroke-width:1.5;" x1="196" x2="322" y1="823" y2="823"/><text fill="#000000" font-family="sans-serif" font-size="11" lengthAdjust="spacing" textLength="116" x="201" y="838.4189">+getTestParamResults()</text><!--MD5=[0f07739f46effee96e095e9c408da841]
class TestParameter--><rect codeLine="43" fill="#FEFECE" filter="url(#fpj3t65b3ubrr)" height="61.8359" id="TestParameter" style="stroke:#A80036;stroke-width:1.5;" width="122" x="198" y="923"/><ellipse cx="216.6" cy="939" fill="#ADD1B2" rx="11" ry="11" style="stroke:#A80036;stroke-width:1.0;"/><path d="M218.6,935.5 Q218.8031,935 219.0375,934.75 Q219.2719,934.5 219.5375,934.5 Q220.0063,934.5 220.3031,934.7813 Q220.6,935.0625 220.6,935.7188 L220.6,937.2813 Q220.6,937.9375 220.3188,938.2188 Q220.0375,938.5 219.6,938.5 Q219.2094,938.5 218.9594,938.3281 Q218.7094,938.1563 218.6,937.7031 Q218.5531,937.3906 218.3813,937.2188 Q218.0688,936.8906 217.5063,936.7031 Q216.9438,936.5 216.3813,936.5 Q215.6781,936.5 215.0844,936.7813 Q214.5063,937.0625 214.0531,937.6875 Q213.6,938.3125 213.6,939.1719 L213.6,940.0938 Q213.6,941.125 214.4438,941.8125 Q215.2875,942.5 216.7875,942.5 Q217.6781,942.5 218.3031,942.2969 Q218.6625,942.1875 219.0688,941.8281 Q219.3344,941.625 219.475,941.5625 Q219.6156,941.5 219.7875,941.5 Q220.1156,941.5 220.35,941.7656 Q220.6,942.0156 220.6,942.375 Q220.6,942.7188 220.2563,943.125 Q219.7563,943.7188 218.9594,944.0469 Q217.9125,944.5 216.6313,944.5 Q215.1313,944.5 213.9281,943.9063 Q212.9594,943.4375 212.2719,942.4219 Q211.6,941.4063 211.6,940.2031 L211.6,939.1094 Q211.6,937.8594 212.1938,936.7656 Q212.8031,935.6719 213.85,935.0938 Q214.9125,934.5 216.1,934.5 Q216.8188,934.5 217.4438,934.75 Q218.0688,935 218.6,935.5 Z " fill="#000000"/><text fill="#000000" font-family="sans-serif" font-size="12" lengthAdjust="spacing" textLength="82" x="231.4" y="943.9102">TestParameter</text><line style="stroke:#A80036;stroke-width:1.5;" x1="199" x2="319" y1="955" y2="955"/><line style="stroke:#A80036;stroke-width:1.5;" x1="199" x2="319" y1="963" y2="963"/><text fill="#000000" font-family="sans-serif" font-size="11" lengthAdjust="spacing" textLength="110" x="204" y="978.4189">+getTestParamResult()</text><!--MD5=[4e608140b854dae633589343bce77383]
class TestParameterResult--><rect codeLine="46" fill="#FEFECE" filter="url(#fpj3t65b3ubrr)" height="89.5078" id="TestParameterResult" style="stroke:#A80036;stroke-width:1.5;" width="150" x="184" y="1063"/><ellipse cx="199" cy="1079" fill="#ADD1B2" rx="11" ry="11" style="stroke:#A80036;stroke-width:1.0;"/><path d="M201,1075.5 Q201.2031,1075 201.4375,1074.75 Q201.6719,1074.5 201.9375,1074.5 Q202.4063,1074.5 202.7031,1074.7813 Q203,1075.0625 203,1075.7188 L203,1077.2813 Q203,1077.9375 202.7188,1078.2188 Q202.4375,1078.5 202,1078.5 Q201.6094,1078.5 201.3594,1078.3281 Q201.1094,1078.1563 201,1077.7031 Q200.9531,1077.3906 200.7813,1077.2188 Q200.4688,1076.8906 199.9063,1076.7031 Q199.3438,1076.5 198.7813,1076.5 Q198.0781,1076.5 197.4844,1076.7813 Q196.9063,1077.0625 196.4531,1077.6875 Q196,1078.3125 196,1079.1719 L196,1080.0938 Q196,1081.125 196.8438,1081.8125 Q197.6875,1082.5 199.1875,1082.5 Q200.0781,1082.5 200.7031,1082.2969 Q201.0625,1082.1875 201.4688,1081.8281 Q201.7344,1081.625 201.875,1081.5625 Q202.0156,1081.5 202.1875,1081.5 Q202.5156,1081.5 202.75,1081.7656 Q203,1082.0156 203,1082.375 Q203,1082.7188 202.6563,1083.125 Q202.1563,1083.7188 201.3594,1084.0469 Q200.3125,1084.5 199.0313,1084.5 Q197.5313,1084.5 196.3281,1083.9063 Q195.3594,1083.4375 194.6719,1082.4219 Q194,1081.4063 194,1080.2031 L194,1079.1094 Q194,1077.8594 194.5938,1076.7656 Q195.2031,1075.6719 196.25,1075.0938 Q197.3125,1074.5 198.5,1074.5 Q199.2188,1074.5 199.8438,1074.75 Q200.4688,1075 201,1075.5 Z " fill="#000000"/><text fill="#000000" font-family="sans-serif" font-size="12" lengthAdjust="spacing" textLength="118" x="213" y="1083.9102">TestParameterResult</text><line style="stroke:#A80036;stroke-width:1.5;" x1="185" x2="333" y1="1095" y2="1095"/><text fill="#000000" font-family="sans-serif" font-size="11" lengthAdjust="spacing" textLength="30" x="190" y="1110.4189">-value</text><text fill="#000000" font-family="sans-serif" font-size="11" lengthAdjust="spacing" textLength="33" x="190" y="1124.2549">-metric</text><text fill="#000000" font-family="sans-serif" font-size="11" lengthAdjust="spacing" textLength="46" x="190" y="1138.0908">-refValue</text><line style="stroke:#A80036;stroke-width:1.5;" x1="185" x2="333" y1="1144.5078" y2="1144.5078"/><!--MD5=[9fb704ffefcaf68bf1a361787afa998b]
class TestDTO--><rect fill="#FEFECE" filter="url(#fpj3t65b3ubrr)" height="48" id="TestDTO" style="stroke:#A80036;stroke-width:1.5;" width="81" x="374.5" y="232"/><ellipse cx="389.5" cy="248" fill="#ADD1B2" rx="11" ry="11" style="stroke:#A80036;stroke-width:1.0;"/><path d="M391.5,244.5 Q391.7031,244 391.9375,243.75 Q392.1719,243.5 392.4375,243.5 Q392.9063,243.5 393.2031,243.7813 Q393.5,244.0625 393.5,244.7188 L393.5,246.2813 Q393.5,246.9375 393.2188,247.2188 Q392.9375,247.5 392.5,247.5 Q392.1094,247.5 391.8594,247.3281 Q391.6094,247.1563 391.5,246.7031 Q391.4531,246.3906 391.2813,246.2188 Q390.9688,245.8906 390.4063,245.7031 Q389.8438,245.5 389.2813,245.5 Q388.5781,245.5 387.9844,245.7813 Q387.4063,246.0625 386.9531,246.6875 Q386.5,247.3125 386.5,248.1719 L386.5,249.0938 Q386.5,250.125 387.3438,250.8125 Q388.1875,251.5 389.6875,251.5 Q390.5781,251.5 391.2031,251.2969 Q391.5625,251.1875 391.9688,250.8281 Q392.2344,250.625 392.375,250.5625 Q392.5156,250.5 392.6875,250.5 Q393.0156,250.5 393.25,250.7656 Q393.5,251.0156 393.5,251.375 Q393.5,251.7188 393.1563,252.125 Q392.6563,252.7188 391.8594,253.0469 Q390.8125,253.5 389.5313,253.5 Q388.0313,253.5 386.8281,252.9063 Q385.8594,252.4375 385.1719,251.4219 Q384.5,250.4063 384.5,249.2031 L384.5,248.1094 Q384.5,246.8594 385.0938,245.7656 Q385.7031,244.6719 386.75,244.0938 Q387.8125,243.5 389,243.5 Q389.7188,243.5 390.3438,243.75 Q390.9688,244 391.5,244.5 Z " fill="#000000"/><text fill="#000000" font-family="sans-serif" font-size="12" lengthAdjust="spacing" textLength="49" x="403.5" y="252.9102">TestDTO</text><line style="stroke:#A80036;stroke-width:1.5;" x1="375.5" x2="454.5" y1="264" y2="264"/><line style="stroke:#A80036;stroke-width:1.5;" x1="375.5" x2="454.5" y1="272" y2="272"/><!--MD5=[fab6bfd86166fcebf1ee3273b0f36b6a]
link ShowTestResultsUI to ShowTestResultsController--><path codeLine="52" d="M326.38,55.22 C315.24,71.76 300.23,94.07 288.5,111.51 " fill="none" id="ShowTestResultsUI-to-ShowTestResultsController" style="stroke:#A80036;stroke-width:1.0;stroke-dasharray:7.0,7.0;"/><polygon fill="#A80036" points="285.59,115.83,293.9354,110.5999,288.3832,111.683,287.3001,106.1307,285.59,115.83" style="stroke:#A80036;stroke-width:1.0;"/><!--MD5=[2e82f276e6f223f04b14e6b1e6626556]
link ShowTestResultsUI to TestDTO--><path codeLine="53" d="M353.4,55.13 C361.3,71.78 371.68,94.92 379,116 C392.01,153.47 402.75,198.05 409.02,226.43 " fill="none" id="ShowTestResultsUI-to-TestDTO" style="stroke:#A80036;stroke-width:1.0;stroke-dasharray:7.0,7.0;"/><polygon fill="#A80036" points="410.14,231.54,412.1193,221.8921,409.069,226.6561,404.305,223.6057,410.14,231.54" style="stroke:#A80036;stroke-width:1.0;"/><!--MD5=[c9ff0204332d4ce713ee04e3bc44c00b]
link ShowTestResultsController to TestMapper--><path codeLine="54" d="M274.25,164.07 C277.19,180.01 281.15,201.51 284.48,219.6 " fill="none" id="ShowTestResultsController-to-TestMapper" style="stroke:#A80036;stroke-width:1.0;stroke-dasharray:7.0,7.0;"/><polygon fill="#A80036" points="285.4,224.61,287.6913,215.0314,284.488,219.6939,279.8255,216.4906,285.4,224.61" style="stroke:#A80036;stroke-width:1.0;"/><!--MD5=[f6fda4afaf882dd39139bcbf06c50c8c]
link TestMapper to TestDTO--><path codeLine="55" d="M339.92,256 C349.66,256 359.4,256 369.14,256 " fill="none" id="TestMapper-to-TestDTO" style="stroke:#A80036;stroke-width:1.0;stroke-dasharray:7.0,7.0;"/><polygon fill="#A80036" points="374.23,256,365.23,252,369.23,256,365.23,260,374.23,256" style="stroke:#A80036;stroke-width:1.0;"/><!--MD5=[90379deed2c67a22dbc4f168ed58b3c7]
link ShowTestResultsController to Company--><path codeLine="56" d="M248.75,164.07 C233.82,180.28 213.59,202.25 196.75,220.53 " fill="none" id="ShowTestResultsController-to-Company" style="stroke:#A80036;stroke-width:1.0;stroke-dasharray:7.0,7.0;"/><polygon fill="#A80036" points="192.99,224.61,202.0243,220.688,196.3725,220.9278,196.1327,215.276,192.99,224.61" style="stroke:#A80036;stroke-width:1.0;"/><!--MD5=[a11230341c8e65219708844feaa40162]
link Company to ClientStore--><path codeLine="57" d="M145.52,287.04 C130.34,310.47 109.23,343.03 93.35,367.52 " fill="none" id="Company-to-ClientStore" style="stroke:#A80036;stroke-width:1.0;"/><polygon fill="#A80036" points="90.45,371.99,98.6945,366.6022,93.1639,367.7906,91.9755,362.26,90.45,371.99" style="stroke:#A80036;stroke-width:1.0;"/><text fill="#000000" font-family="sans-serif" font-size="13" lengthAdjust="spacing" textLength="28" x="125" y="331.4951">uses</text><!--MD5=[1d934105a045dbf126514c6917bd5072]
link ClientStore to Client--><path codeLine="58" d="M71,434.1 C71,458.47 71,494.04 71,526.9 " fill="none" id="ClientStore-to-Client" style="stroke:#A80036;stroke-width:1.0;"/><polygon fill="#A80036" points="71,532.14,75,523.14,71,527.14,67,523.14,71,532.14" style="stroke:#A80036;stroke-width:1.0;"/><text fill="#000000" font-family="sans-serif" font-size="13" lengthAdjust="spacing" textLength="49" x="72" y="485.4951">contains</text><!--MD5=[7f6cf7f175eae0af66201860de5de971]
link Company to TestStore--><path codeLine="59" d="M184.48,287.04 C198.25,308.28 216.88,337.03 232.07,360.47 " fill="none" id="Company-to-TestStore" style="stroke:#A80036;stroke-width:1.0;"/><polygon fill="#A80036" points="234.87,364.78,233.3445,355.05,232.1561,360.5806,226.6255,359.3922,234.87,364.78" style="stroke:#A80036;stroke-width:1.0;"/><text fill="#000000" font-family="sans-serif" font-size="13" lengthAdjust="spacing" textLength="28" x="216" y="331.4951">uses</text><!--MD5=[b0f4f6db8206580012ef9cd998ed01c5]
link TestStore to Test--><path codeLine="60" d="M259,441.01 C259,461.39 259,487.75 259,513.6 " fill="none" id="TestStore-to-Test" style="stroke:#A80036;stroke-width:1.0;"/><polygon fill="#A80036" points="259,518.76,263,509.76,259,513.76,255,509.76,259,518.76" style="stroke:#A80036;stroke-width:1.0;"/><text fill="#000000" font-family="sans-serif" font-size="13" lengthAdjust="spacing" textLength="49" x="260" y="485.4951">contains</text><!--MD5=[2c91f88199f54fc4797874c7092f4fe3]
link Test to TestParamList--><path codeLine="61" d="M259,705.1 C259,730.99 259,757.6 259,777.91 " fill="none" id="Test-to-TestParamList" style="stroke:#A80036;stroke-width:1.0;"/><polygon fill="#A80036" points="259,782.94,263,773.94,259,777.94,255,773.94,259,782.94" style="stroke:#A80036;stroke-width:1.0;"/><text fill="#000000" font-family="sans-serif" font-size="13" lengthAdjust="spacing" textLength="28" x="260" y="749.4951">uses</text><!--MD5=[7dcd1600b6e42663b3fea3bcea44895b]
link TestParamList to TestParameter--><path codeLine="62" d="M259,845.28 C259,866.59 259,895.17 259,917.53 " fill="none" id="TestParamList-to-TestParameter" style="stroke:#A80036;stroke-width:1.0;"/><polygon fill="#A80036" points="259,922.79,263,913.79,259,917.79,255,913.79,259,922.79" style="stroke:#A80036;stroke-width:1.0;"/><text fill="#000000" font-family="sans-serif" font-size="13" lengthAdjust="spacing" textLength="49" x="260" y="889.4951">contains</text><!--MD5=[0e00e25ac6b8c14659aaff2cf7e5df08]
link TestParameter to TestParameterResult--><path codeLine="63" d="M259,985.03 C259,1005.79 259,1033.88 259,1057.87 " fill="none" id="TestParameter-to-TestParameterResult" style="stroke:#A80036;stroke-width:1.0;"/><polygon fill="#A80036" points="259,1062.92,263,1053.92,259,1057.92,255,1053.92,259,1062.92" style="stroke:#A80036;stroke-width:1.0;"/><text fill="#000000" font-family="sans-serif" font-size="13" lengthAdjust="spacing" textLength="49" x="260" y="1029.4951">contains</text><!--MD5=[83cdcaee81e1da164e18c77bdcfb9fef]
@startuml
skinparam classAttributeIconSize 0

class Client {
- name
- cardNumber
- nhsId
- dateBirth
- TIN
- phoneNumber
- email
- sex
}
class ShowTestResultsUI
class ShowTestResultsController
class Company {
- designation
}
class ClientStore {
+ getClientByEmail(email)
}
class TestStore {
+ getValidatedTestsByClient(client)
+ getTestByCode(testCode)
}
class Test {
- testCode
- nhsCode
- dateOfCreation
- dateReport
- timeReport
- dateResults
- timeResults
- dateValidation
- timeValidation
+ getTestParamResults()
}
class TestMapper {
+ toDtoList(tests)
}
class TestParamList {
+ getTestParamResults()
}
class TestParameter {
+ getTestParamResult()
}
class TestParameterResult {
- value
- metric
- refValue
}

ShowTestResultsUI ..> ShowTestResultsController
ShowTestResultsUI ..> TestDTO
ShowTestResultsController ..> TestMapper
TestMapper .right.> TestDTO
ShowTestResultsController ..> Company
Company - -> ClientStore : uses
ClientStore - -> Client : contains
Company - -> TestStore : uses
TestStore - -> Test : contains
Test - -> TestParamList : uses
TestParamList - -> TestParameter : contains
TestParameter - -> TestParameterResult : contains

@enduml

PlantUML version 1.2021.2(Sun Mar 07 11:10:27 GMT 2021)
(GPL source distribution)
Java Runtime: OpenJDK Runtime Environment
JVM: OpenJDK 64-Bit Server VM
Default Encoding: Cp1252
Language: pt
Country: PT
--></g></svg>