<?xml version="1.0" encoding="UTF-8" standalone="no"?><svg xmlns="http://www.w3.org/2000/svg" xmlns:xlink="http://www.w3.org/1999/xlink" contentScriptType="application/ecmascript" contentStyleType="text/css" height="1252px" preserveAspectRatio="none" style="width:624px;height:1252px;" version="1.1" viewBox="0 0 624 1252" width="624px" zoomAndPan="magnify"><defs><filter height="300%" id="f93m5yescypw8" width="300%" x="-1" y="-1"><feGaussianBlur result="blurOut" stdDeviation="1.6"/><feColorMatrix in="blurOut" result="blurOut2" type="matrix" values="0 0 0 0 0 0 0 0 0 0 0 0 0 0 0 0 0 0 .4 0"/><feOffset dx="3.2" dy="3.2" in="blurOut2" result="blurOut3"/><feBlend in="SourceGraphic" in2="blurOut3" mode="normal"/></filter></defs><g><!--MD5=[99b31deea5d7419a569cd5090bf83263]
cluster System--><rect fill="#FFFFFF" filter="url(#f93m5yescypw8)" height="1231.2" style="stroke:#000000;stroke-width:1.2000000000000002;" width="335.2" x="129.6" y="5.6"/><text fill="#000000" font-family="sans-serif" font-size="11.2" font-weight="bold" lengthAdjust="spacing" textLength="40" x="277.2" y="18.8266">System</text><ellipse cx="297.0504" cy="739.8101" fill="#FEFECE" filter="url(#f93m5yescypw8)" rx="75.4504" ry="17.0101" style="stroke:#A80036;stroke-width:1.2000000000000002;"/><text fill="#000000" font-family="sans-serif" font-size="11.2" lengthAdjust="spacing" textLength="118.4" x="237.8504" y="742.7929">US18: Send NHS report</text><ellipse cx="297.391" cy="114.2782" fill="#FEFECE" filter="url(#f93m5yescypw8)" rx="99.791" ry="21.8782" style="stroke:#A80036;stroke-width:1.2000000000000002;"/><text fill="#000000" font-family="sans-serif" font-size="11.2" lengthAdjust="spacing" textLength="172" x="211.391" y="117.261">US17: Import clinical tests from file</text><ellipse cx="297.2715" cy="676.1743" fill="#FEFECE" filter="url(#f93m5yescypw8)" rx="83.2715" ry="18.5743" style="stroke:#A80036;stroke-width:1.2000000000000002;"/><text fill="#000000" font-family="sans-serif" font-size="11.2" lengthAdjust="spacing" textLength="136" x="229.2715" y="679.1571">US2: Update personal data</text><ellipse cx="297.1031" cy="49.5006" fill="#FEFECE" filter="url(#f93m5yescypw8)" rx="63.9031" ry="14.7006" style="stroke:#A80036;stroke-width:1.2000000000000002;"/><text fill="#000000" font-family="sans-serif" font-size="11.2" lengthAdjust="spacing" textLength="91.2" x="250.6699" y="52.7219">US4: Register test</text><ellipse cx="297.2052" cy="252.161" fill="#FEFECE" filter="url(#f93m5yescypw8)" rx="67.2052" ry="15.361" style="stroke:#A80036;stroke-width:1.2000000000000002;"/><text fill="#000000" font-family="sans-serif" font-size="11.2" lengthAdjust="spacing" textLength="99.2" x="247.6052" y="255.1439">US3: Register client</text><ellipse cx="297.3521" cy="313.6304" fill="#FEFECE" filter="url(#f93m5yescypw8)" rx="82.5521" ry="18.4304" style="stroke:#A80036;stroke-width:1.2000000000000002;"/><text fill="#000000" font-family="sans-serif" font-size="11.2" lengthAdjust="spacing" textLength="134.4" x="230.1521" y="316.6132">US12: Register test results</text><ellipse cx="297.0343" cy="438.2869" fill="#FEFECE" filter="url(#f93m5yescypw8)" rx="81.8343" ry="18.2869" style="stroke:#A80036;stroke-width:1.2000000000000002;"/><text fill="#000000" font-family="sans-serif" font-size="11.2" lengthAdjust="spacing" textLength="132.8" x="230.6343" y="441.2697">US14: Generate diagnosis</text><ellipse cx="297.1156" cy="1086.5431" fill="#FEFECE" filter="url(#f93m5yescypw8)" rx="93.1156" ry="20.5431" style="stroke:#A80036;stroke-width:1.2000000000000002;"/><text fill="#000000" font-family="sans-serif" font-size="11.2" lengthAdjust="spacing" textLength="157.6" x="218.3156" y="1089.5259">US19: Send daily report to NHS</text><ellipse cx="297.3107" cy="186.5021" fill="#FEFECE" filter="url(#f93m5yescypw8)" rx="100.9107" ry="22.1021" style="stroke:#A80036;stroke-width:1.2000000000000002;"/><text fill="#000000" font-family="sans-serif" font-size="11.2" lengthAdjust="spacing" textLength="174.4" x="210.1107" y="189.485">US15: Validate the clinical analysis</text><ellipse cx="297.1168" cy="1149.5834" fill="#FEFECE" filter="url(#f93m5yescypw8)" rx="62.3168" ry="14.3834" style="stroke:#A80036;stroke-width:1.2000000000000002;"/><text fill="#000000" font-family="sans-serif" font-size="11.2" lengthAdjust="spacing" textLength="87.2" x="251.9484" y="1152.9973">US1: View results</text><ellipse cx="297.3541" cy="376.0308" fill="#FEFECE" filter="url(#f93m5yescypw8)" rx="68.5541" ry="15.6308" style="stroke:#A80036;stroke-width:1.2000000000000002;"/><text fill="#000000" font-family="sans-serif" font-size="11.2" lengthAdjust="spacing" textLength="102.4" x="246.1541" y="379.0136">US13: Check results</text><ellipse cx="297.1148" cy="804.063" fill="#FEFECE" filter="url(#f93m5yescypw8)" rx="84.7148" ry="18.863" style="stroke:#A80036;stroke-width:1.2000000000000002;"/><text fill="#000000" font-family="sans-serif" font-size="11.2" lengthAdjust="spacing" textLength="139.2" x="227.5148" y="807.0458">US7: Specify new employee</text><ellipse cx="297.0293" cy="878.3659" fill="#FEFECE" filter="url(#f93m5yescypw8)" rx="128.2293" ry="27.5659" style="stroke:#A80036;stroke-width:1.2000000000000002;"/><text fill="#000000" font-family="sans-serif" font-size="11.2" lengthAdjust="spacing" textLength="232" x="181.0293" y="881.3487">US8: Specify a new clinical analysis laboratory</text><ellipse cx="297.284" cy="950.5768" fill="#FEFECE" filter="url(#f93m5yescypw8)" rx="71.284" ry="16.1768" style="stroke:#A80036;stroke-width:1.2000000000000002;"/><text fill="#000000" font-family="sans-serif" font-size="11.2" lengthAdjust="spacing" textLength="108.8" x="242.884" y="953.5596">US9: Specify new test</text><ellipse cx="297.0455" cy="1016.1291" fill="#FEFECE" filter="url(#f93m5yescypw8)" rx="99.0455" ry="21.7291" style="stroke:#A80036;stroke-width:1.2000000000000002;"/><text fill="#000000" font-family="sans-serif" font-size="11.2" lengthAdjust="spacing" textLength="170.4" x="211.8455" y="1019.1119">US10: Specify new test parameter</text><ellipse cx="297.2171" cy="510.2434" fill="#FEFECE" filter="url(#f93m5yescypw8)" rx="115.6171" ry="25.0434" style="stroke:#A80036;stroke-width:1.2000000000000002;"/><text fill="#000000" font-family="sans-serif" font-size="11.2" lengthAdjust="spacing" textLength="205.6" x="194.4171" y="513.2262">US11: Specify a new parameter category</text><ellipse cx="297.284" cy="1208.1768" fill="#FEFECE" filter="url(#f93m5yescypw8)" rx="71.284" ry="16.1768" style="stroke:#A80036;stroke-width:1.2000000000000002;"/><text fill="#000000" font-family="sans-serif" font-size="11.2" lengthAdjust="spacing" textLength="108.8" x="242.884" y="1211.1596">US5: Register sample</text><ellipse cx="297.3219" cy="596.9044" fill="#FEFECE" filter="url(#f93m5yescypw8)" rx="154.9219" ry="32.9044" style="stroke:#A80036;stroke-width:1.2000000000000002;"/><text fill="#000000" font-family="sans-serif" font-size="11.2" lengthAdjust="spacing" textLength="287.2" x="153.7219" y="599.8872">US16: View statistics for number of tests waiting for result</text><!--MD5=[87a04b683345c3cce94ac9a6e159ab2f]
entity Receptionist--><ellipse cx="49.6" cy="111.2" fill="#FEFECE" filter="url(#f93m5yescypw8)" rx="6.4" ry="6.4" style="stroke:#A80036;stroke-width:1.2000000000000002;"/><path d="M49.6,117.6 L49.6,139.2 M39.2,124 L60,124 M49.6,139.2 L39.2,151.2 M49.6,139.2 L60,151.2 " fill="none" filter="url(#f93m5yescypw8)" style="stroke:#A80036;stroke-width:1.2000000000000002;"/><text fill="#000000" font-family="sans-serif" font-size="11.2" lengthAdjust="spacing" textLength="62.4" x="18.4" y="167.2266">Receptionist</text><!--MD5=[e7d38603a700bedb049d1f5e1789c8aa]
entity MLT--><ellipse cx="559.2" cy="1175.6" fill="#FEFECE" filter="url(#f93m5yescypw8)" rx="6.4" ry="6.4" style="stroke:#A80036;stroke-width:1.2000000000000002;"/><path d="M559.2,1182 L559.2,1203.6 M548.8,1188.4 L569.6,1188.4 M559.2,1203.6 L548.8,1215.6 M559.2,1203.6 L569.6,1215.6 " fill="none" filter="url(#f93m5yescypw8)" style="stroke:#A80036;stroke-width:1.2000000000000002;"/><text fill="#000000" font-family="sans-serif" font-size="11.2" lengthAdjust="spacing" textLength="60.8" x="528.8" y="1231.6266">Medical Lab</text><text fill="#000000" font-family="sans-serif" font-size="11.2" lengthAdjust="spacing" textLength="55.2" x="532" y="1245.7141">Technician</text><!--MD5=[234b11d210a3d78b3bcac40f493e1b07]
entity CCT--><ellipse cx="49.6" cy="293.2" fill="#FEFECE" filter="url(#f93m5yescypw8)" rx="6.4" ry="6.4" style="stroke:#A80036;stroke-width:1.2000000000000002;"/><path d="M49.6,299.6 L49.6,321.2 M39.2,306 L60,306 M49.6,321.2 L39.2,333.2 M49.6,321.2 L60,333.2 " fill="none" filter="url(#f93m5yescypw8)" style="stroke:#A80036;stroke-width:1.2000000000000002;"/><text fill="#000000" font-family="sans-serif" font-size="11.2" lengthAdjust="spacing" textLength="89.6" x="4.8" y="349.2266">Clinical Chemistry</text><text fill="#000000" font-family="sans-serif" font-size="11.2" lengthAdjust="spacing" textLength="64.8" x="8" y="363.3141">Technologist</text><!--MD5=[5a5d35bcfc46556bdff8e646cc6c81c2]
entity Doctor--><ellipse cx="49.6" cy="412.8" fill="#FEFECE" filter="url(#f93m5yescypw8)" rx="6.4" ry="6.4" style="stroke:#A80036;stroke-width:1.2000000000000002;"/><path d="M49.6,419.2 L49.6,440.8 M39.2,425.6 L60,425.6 M49.6,440.8 L39.2,452.8 M49.6,440.8 L60,452.8 " fill="none" filter="url(#f93m5yescypw8)" style="stroke:#A80036;stroke-width:1.2000000000000002;"/><text fill="#000000" font-family="sans-serif" font-size="11.2" lengthAdjust="spacing" textLength="84.8" x="7.2" y="468.8266">Specialist Doctor</text><!--MD5=[b0100dfa164aec77c855c16afe11d7ec]
entity LC--><ellipse cx="559.2" cy="160.8" fill="#FEFECE" filter="url(#f93m5yescypw8)" rx="6.4" ry="6.4" style="stroke:#A80036;stroke-width:1.2000000000000002;"/><path d="M559.2,167.2 L559.2,188.8 M548.8,173.6 L569.6,173.6 M559.2,188.8 L548.8,200.8 M559.2,188.8 L569.6,200.8 " fill="none" filter="url(#f93m5yescypw8)" style="stroke:#A80036;stroke-width:1.2000000000000002;"/><text fill="#000000" font-family="sans-serif" font-size="11.2" lengthAdjust="spacing" textLength="118.4" x="500" y="216.8266">Laboratory Coordinator</text><!--MD5=[0ba5ee7700168656dc1b457c6fe9fdac]
entity Client--><ellipse cx="559.2" cy="865.6" fill="#FEFECE" filter="url(#f93m5yescypw8)" rx="6.4" ry="6.4" style="stroke:#A80036;stroke-width:1.2000000000000002;"/><path d="M559.2,872 L559.2,893.6 M548.8,878.4 L569.6,878.4 M559.2,893.6 L548.8,905.6 M559.2,893.6 L569.6,905.6 " fill="none" filter="url(#f93m5yescypw8)" style="stroke:#A80036;stroke-width:1.2000000000000002;"/><text fill="#000000" font-family="sans-serif" font-size="11.2" lengthAdjust="spacing" textLength="28.8" x="544.8" y="921.6266">Client</text><!--MD5=[62529e7d5259bf274c3bf3e446350d88]
entity Administrator--><ellipse cx="49.6" cy="816" fill="#FEFECE" filter="url(#f93m5yescypw8)" rx="6.4" ry="6.4" style="stroke:#A80036;stroke-width:1.2000000000000002;"/><path d="M49.6,822.4 L49.6,844 M39.2,828.8 L60,828.8 M49.6,844 L39.2,856 M49.6,844 L60,856 " fill="none" filter="url(#f93m5yescypw8)" style="stroke:#A80036;stroke-width:1.2000000000000002;"/><text fill="#000000" font-family="sans-serif" font-size="11.2" lengthAdjust="spacing" textLength="66.4" x="16.4" y="872.0266">Administrator</text><!--MD5=[8deeff1cfa66d96b67ddb5a2a7f9c862]
entity Clock--><ellipse cx="49.6" cy="1054" fill="#FEFECE" filter="url(#f93m5yescypw8)" rx="6.4" ry="6.4" style="stroke:#A80036;stroke-width:1.2000000000000002;"/><path d="M49.6,1060.4 L49.6,1082 M39.2,1066.8 L60,1066.8 M49.6,1082 L39.2,1094 M49.6,1082 L60,1094 " fill="none" filter="url(#f93m5yescypw8)" style="stroke:#A80036;stroke-width:1.2000000000000002;"/><text fill="#000000" font-family="sans-serif" font-size="11.2" lengthAdjust="spacing" textLength="36.8" x="31.2" y="1110.0266">System</text><text fill="#000000" font-family="sans-serif" font-size="11.2" lengthAdjust="spacing" textLength="28" x="34.4" y="1124.1141">Clock</text><!--MD5=[4c70b7d2053631286dbeddefcb91f868]
link Receptionist to US4--><path d="M81,106.456 C93.2,95.992 107.968,85.208 123.2,78.4 C157.984,62.848 200.096,55.616 234.08,52.288 " fill="none" id="Receptionist-US4" style="stroke:#A80036;stroke-width:0.8;"/><!--MD5=[4b3d96f97d2a13824c4e9ffd6a4094db]
link Receptionist to US3--><path d="M70.376,170.12 C83.16,188.472 101.416,209.992 123.2,222.4 C155.408,240.744 196.056,248.336 229.88,251.264 " fill="none" id="Receptionist-US3" style="stroke:#A80036;stroke-width:0.8;"/><!--MD5=[155ad00363b06ca38de9dfba8c1f66f9]
link CCT to US12--><path d="M94.664,323.44 C128.488,321.792 176.008,319.472 216.44,317.504 " fill="none" id="CCT-US12" style="stroke:#A80036;stroke-width:0.8;"/><!--MD5=[0ce3a7f7d6af1aeda4d0f9e6329db736]
link CCT to US13--><path d="M94.504,338.432 C103.936,340.976 113.864,343.504 123.2,345.6 C161.776,354.264 205.64,361.944 239.576,367.416 " fill="none" id="CCT-US13" style="stroke:#A80036;stroke-width:0.8;"/><!--MD5=[9ebcca1c85a8cc7ec12fb7b75287d44d]
link Doctor to US14--><path d="M92.128,438.4 C125.712,438.4 173.928,438.4 215.088,438.4 " fill="none" id="Doctor-US14" style="stroke:#A80036;stroke-width:0.8;"/><!--MD5=[6fd9890cf69bfe3ee8b81959a8dfe7d3]
link US15 to LC--><path d="M398.304,186.4 C432.688,186.4 470.016,186.4 499.968,186.4 " fill="none" id="US15-LC" style="stroke:#A80036;stroke-width:0.8;"/><!--MD5=[c098c37656dec00ed0e391819a2666d9]
link US21 to LC--><path d="M377.032,127.6 C406.856,133.424 440.888,141.08 471.2,150.4 C480.592,153.288 490.376,156.8 499.84,160.48 " fill="none" id="US21-LC" style="stroke:#A80036;stroke-width:0.8;"/><!--MD5=[cd2e64dfea35843993ad9ff4a7023f53]
link US2 to Client--><path d="M356.984,1153.848 C393.632,1153.36 439.6,1146.68 471.2,1120.8 C531.56,1071.352 550.184,975.272 555.896,924.496 " fill="none" id="US2-Client" style="stroke:#A80036;stroke-width:0.8;"/><!--MD5=[af6c4a8cdee235a6ab9711aa71cdc6e5]
link US20 to Client--><path d="M380.448,676.232 C411.544,680.032 445.552,689.056 471.2,708.8 C519.32,745.84 542.224,816.112 552.016,857.792 " fill="none" id="US20-Client" style="stroke:#A80036;stroke-width:0.8;"/><!--MD5=[66c934191e991355bf9cd7639b1a9d6c]
link US5 to MLT--><path d="M368.464,1208 C420.888,1208 489.792,1208 528.56,1208 " fill="none" id="US5-MLT" style="stroke:#A80036;stroke-width:0.8;"/><!--MD5=[3a3baf24cc977e0b080bc11e0780e534]
link Administrator to US7--><path d="M82.816,836.648 C119.344,831.064 179.8,821.824 227.08,814.592 " fill="none" id="Administrator-US7" style="stroke:#A80036;stroke-width:0.8;"/><!--MD5=[54cb96b0569a01f749f12407765c2ffb]
link Administrator to US8--><path d="M82.816,846.448 C110.6,850.608 152.232,856.832 191.384,862.688 " fill="none" id="Administrator-US8" style="stroke:#A80036;stroke-width:0.8;"/><!--MD5=[895e1d88cda891672ffcde62fb316e5e]
link Administrator to US9--><path d="M73.312,875.056 C86.112,891.16 103.456,909.264 123.2,920 C154.576,937.064 193.456,944.88 226.416,948.336 " fill="none" id="Administrator-US9" style="stroke:#A80036;stroke-width:0.8;"/><!--MD5=[53f375424193eba8daf234b2873288b2]
link Administrator to US10--><path d="M58.984,874.96 C68.992,906.928 88.728,954.024 123.2,980 C145.272,996.632 173.232,1006.024 200.216,1011.2 " fill="none" id="Administrator-US10" style="stroke:#A80036;stroke-width:0.8;"/><!--MD5=[6213791c4a1bf6b94e1786a2cd4862fb]
link Administrator to US11--><path d="M54.32,808.216 C63.072,739.496 86.368,585.64 123.2,549.6 C140.056,533.104 162.304,522.968 185.216,516.864 " fill="none" id="Administrator-US11" style="stroke:#A80036;stroke-width:0.8;"/><!--MD5=[5dcb2544dea6519e2cbbdf0dc2240162]
link Administrator to US22--><path d="M76.952,808.36 C89.552,794.776 105.672,780.176 123.2,771.2 C153.856,755.496 191.112,747.568 223.2,743.624 " fill="none" id="Administrator-US22" style="stroke:#A80036;stroke-width:0.8;"/><!--MD5=[b471d56de7bc8db93ec9047a5778ea73]
link US6 to LC--><path d="M426.624,578.784 C443.248,571.848 458.776,562.408 471.2,549.6 C517.2,502.184 545.216,300.176 554.736,219.688 " fill="none" id="US6-LC" style="stroke:#A80036;stroke-width:0.8;"/><!--MD5=[32dc372af89c7ab7b19b6319b047ac3f]
link Clock to US19--><path d="M68.088,1086.4 C96.408,1086.4 153.816,1086.4 203.984,1086.4 " fill="none" id="Clock-US19" style="stroke:#A80036;stroke-width:0.8;"/><!--MD5=[823b35face0074e0ca44c99c89d278b6]
@startuml

left to right direction
skinparam packageStyle rectangle
'Actors
:Receptionist:
:Medical Lab\n Technician: as MLT
:Clinical Chemistry\n Technologist: as CCT
:Specialist Doctor: as Doctor
:Laboratory Coordinator: as LC
:Client:
:Administrator:
:System\n Clock: as Clock

package System {
    (US18: Send NHS report) as US22
    (US17: Import clinical tests from file) as US21
    (US2: Update personal data) as US20
    (US4: Register test) as US4
    (US3: Register client) as US3
    (US12: Register test results) as US12
    (US14: Generate diagnosis) as US14
    (US19: Send daily report to NHS) as US19
    (US15: Validate the clinical analysis) as US15
    (US1: View results) as US2
    (US13: Check results) as US13
    (US7: Specify new employee) as US7
    (US8: Specify a new clinical analysis laboratory) as US8
    (US9: Specify new test) as US9
    (US10: Specify new test parameter) as US10
    (US11: Specify a new parameter category) as US11
    (US5: Register sample) as US5
    (US16: View statistics for number of tests waiting for result) as US6
}

'Use Cases
Receptionist - - US4
Receptionist - - US3
CCT - - US12
CCT - - US13
Doctor - - US14
US15 - - LC
US21 - - LC
US2 - - Client
US20 - - Client
US5 - - MLT
Administrator - - US7
Administrator - - US8
Administrator - - US9
Administrator - - US10
Administrator - - US11
Administrator - - US22
US6 - - LC
Clock - - US19
@enduml

@startuml

left to right direction
skinparam packageStyle rectangle
:Receptionist:
:Medical Lab\n Technician: as MLT
:Clinical Chemistry\n Technologist: as CCT
:Specialist Doctor: as Doctor
:Laboratory Coordinator: as LC
:Client:
:Administrator:
:System\n Clock: as Clock

package System {
    (US18: Send NHS report) as US22
    (US17: Import clinical tests from file) as US21
    (US2: Update personal data) as US20
    (US4: Register test) as US4
    (US3: Register client) as US3
    (US12: Register test results) as US12
    (US14: Generate diagnosis) as US14
    (US19: Send daily report to NHS) as US19
    (US15: Validate the clinical analysis) as US15
    (US1: View results) as US2
    (US13: Check results) as US13
    (US7: Specify new employee) as US7
    (US8: Specify a new clinical analysis laboratory) as US8
    (US9: Specify new test) as US9
    (US10: Specify new test parameter) as US10
    (US11: Specify a new parameter category) as US11
    (US5: Register sample) as US5
    (US16: View statistics for number of tests waiting for result) as US6
}

Receptionist - - US4
Receptionist - - US3
CCT - - US12
CCT - - US13
Doctor - - US14
US15 - - LC
US21 - - LC
US2 - - Client
US20 - - Client
US5 - - MLT
Administrator - - US7
Administrator - - US8
Administrator - - US9
Administrator - - US10
Administrator - - US11
Administrator - - US22
US6 - - LC
Clock - - US19
@enduml

PlantUML version 1.2021.2(Sun Mar 07 11:10:27 GMT 2021)
(GPL source distribution)
Java Runtime: OpenJDK Runtime Environment
JVM: OpenJDK 64-Bit Server VM
Default Encoding: Cp1252
Language: pt
Country: PT
--></g></svg>