<?xml version="1.0" encoding="UTF-8" standalone="no"?><svg xmlns="http://www.w3.org/2000/svg" xmlns:xlink="http://www.w3.org/1999/xlink" contentScriptType="application/ecmascript" contentStyleType="text/css" height="984px" preserveAspectRatio="none" style="width:1056px;height:984px;" version="1.1" viewBox="0 0 1056 984" width="1056px" zoomAndPan="magnify"><defs><filter height="300%" id="f1gqmzdbphe9ht" width="300%" x="-1" y="-1"><feGaussianBlur result="blurOut" stdDeviation="2.0"/><feColorMatrix in="blurOut" result="blurOut2" type="matrix" values="0 0 0 0 0 0 0 0 0 0 0 0 0 0 0 0 0 0 .4 0"/><feOffset dx="4.0" dy="4.0" in="blurOut2" result="blurOut3"/><feBlend in="SourceGraphic" in2="blurOut3" mode="normal"/></filter></defs><g><!--MD5=[61d919aa91cd8dde0d26e62e960d0348]
class CreateReportUI--><rect codeLine="4" fill="#FEFECE" filter="url(#f1gqmzdbphe9ht)" height="48" id="CreateReportUI" style="stroke:#A80036;stroke-width:1.5;" width="118" x="765.5" y="7"/><ellipse cx="780.5" cy="23" fill="#ADD1B2" rx="11" ry="11" style="stroke:#A80036;stroke-width:1.0;"/><path d="M782.5,19.5 Q782.7031,19 782.9375,18.75 Q783.1719,18.5 783.4375,18.5 Q783.9063,18.5 784.2031,18.7813 Q784.5,19.0625 784.5,19.7188 L784.5,21.2813 Q784.5,21.9375 784.2188,22.2188 Q783.9375,22.5 783.5,22.5 Q783.1094,22.5 782.8594,22.3281 Q782.6094,22.1563 782.5,21.7031 Q782.4531,21.3906 782.2813,21.2188 Q781.9688,20.8906 781.4063,20.7031 Q780.8438,20.5 780.2813,20.5 Q779.5781,20.5 778.9844,20.7813 Q778.4063,21.0625 777.9531,21.6875 Q777.5,22.3125 777.5,23.1719 L777.5,24.0938 Q777.5,25.125 778.3438,25.8125 Q779.1875,26.5 780.6875,26.5 Q781.5781,26.5 782.2031,26.2969 Q782.5625,26.1875 782.9688,25.8281 Q783.2344,25.625 783.375,25.5625 Q783.5156,25.5 783.6875,25.5 Q784.0156,25.5 784.25,25.7656 Q784.5,26.0156 784.5,26.375 Q784.5,26.7188 784.1563,27.125 Q783.6563,27.7188 782.8594,28.0469 Q781.8125,28.5 780.5313,28.5 Q779.0313,28.5 777.8281,27.9063 Q776.8594,27.4375 776.1719,26.4219 Q775.5,25.4063 775.5,24.2031 L775.5,23.1094 Q775.5,21.8594 776.0938,20.7656 Q776.7031,19.6719 777.75,19.0938 Q778.8125,18.5 780,18.5 Q780.7188,18.5 781.3438,18.75 Q781.9688,19 782.5,19.5 Z " fill="#000000"/><text fill="#000000" font-family="sans-serif" font-size="12" lengthAdjust="spacing" textLength="86" x="794.5" y="27.9102">CreateReportUI</text><line style="stroke:#A80036;stroke-width:1.5;" x1="766.5" x2="882.5" y1="39" y2="39"/><line style="stroke:#A80036;stroke-width:1.5;" x1="766.5" x2="882.5" y1="47" y2="47"/><!--MD5=[435d59c09609fcea3345bfa2ae3de6e0]
class CreateReportController--><rect codeLine="6" fill="#FEFECE" filter="url(#f1gqmzdbphe9ht)" height="158.6875" id="CreateReportController" style="stroke:#A80036;stroke-width:1.5;" width="314" x="364.5" y="116"/><ellipse cx="453.25" cy="132" fill="#ADD1B2" rx="11" ry="11" style="stroke:#A80036;stroke-width:1.0;"/><path d="M455.25,128.5 Q455.4531,128 455.6875,127.75 Q455.9219,127.5 456.1875,127.5 Q456.6563,127.5 456.9531,127.7813 Q457.25,128.0625 457.25,128.7188 L457.25,130.2813 Q457.25,130.9375 456.9688,131.2188 Q456.6875,131.5 456.25,131.5 Q455.8594,131.5 455.6094,131.3281 Q455.3594,131.1563 455.25,130.7031 Q455.2031,130.3906 455.0313,130.2188 Q454.7188,129.8906 454.1563,129.7031 Q453.5938,129.5 453.0313,129.5 Q452.3281,129.5 451.7344,129.7813 Q451.1563,130.0625 450.7031,130.6875 Q450.25,131.3125 450.25,132.1719 L450.25,133.0938 Q450.25,134.125 451.0938,134.8125 Q451.9375,135.5 453.4375,135.5 Q454.3281,135.5 454.9531,135.2969 Q455.3125,135.1875 455.7188,134.8281 Q455.9844,134.625 456.125,134.5625 Q456.2656,134.5 456.4375,134.5 Q456.7656,134.5 457,134.7656 Q457.25,135.0156 457.25,135.375 Q457.25,135.7188 456.9063,136.125 Q456.4063,136.7188 455.6094,137.0469 Q454.5625,137.5 453.2813,137.5 Q451.7813,137.5 450.5781,136.9063 Q449.6094,136.4375 448.9219,135.4219 Q448.25,134.4063 448.25,133.2031 L448.25,132.1094 Q448.25,130.8594 448.8438,129.7656 Q449.4531,128.6719 450.5,128.0938 Q451.5625,127.5 452.75,127.5 Q453.4688,127.5 454.0938,127.75 Q454.7188,128 455.25,128.5 Z " fill="#000000"/><text fill="#000000" font-family="sans-serif" font-size="12" lengthAdjust="spacing" textLength="128" x="473.75" y="136.9102">CreateReportController</text><line style="stroke:#A80036;stroke-width:1.5;" x1="365.5" x2="677.5" y1="148" y2="148"/><text fill="#000000" font-family="sans-serif" font-size="11" lengthAdjust="spacing" textLength="22" x="370.5" y="163.4189">-test</text><text fill="#000000" font-family="sans-serif" font-size="11" lengthAdjust="spacing" textLength="59" x="370.5" y="177.2549">-reportStore</text><text fill="#000000" font-family="sans-serif" font-size="11" lengthAdjust="spacing" textLength="48" x="370.5" y="191.0908">-testStore</text><text fill="#000000" font-family="sans-serif" font-size="11" lengthAdjust="spacing" textLength="69" x="370.5" y="204.9268">-testParamList</text><line style="stroke:#A80036;stroke-width:1.5;" x1="365.5" x2="677.5" y1="211.3438" y2="211.3438"/><text fill="#000000" font-family="sans-serif" font-size="11" lengthAdjust="spacing" textLength="302" x="370.5" y="226.7627">+testListReadyForReport&lt;Test&gt; getTestsListReadyForReport()</text><text fill="#000000" font-family="sans-serif" font-size="11" lengthAdjust="spacing" textLength="203" x="370.5" y="240.5986">+getTestParametersResultsByCode(code)</text><text fill="#000000" font-family="sans-serif" font-size="11" lengthAdjust="spacing" textLength="159" x="370.5" y="254.4346">+report createReport(reportDTO)</text><text fill="#000000" font-family="sans-serif" font-size="11" lengthAdjust="spacing" textLength="70" x="370.5" y="268.2705">+saveReport()</text><!--MD5=[02e4b9b7573f1156f41e60aa5b4e25a4]
class Company--><rect codeLine="19" fill="#FEFECE" filter="url(#f1gqmzdbphe9ht)" height="75.6719" id="Company" style="stroke:#A80036;stroke-width:1.5;" width="99" x="237" y="336"/><ellipse cx="258.3" cy="352" fill="#ADD1B2" rx="11" ry="11" style="stroke:#A80036;stroke-width:1.0;"/><path d="M260.3,348.5 Q260.5031,348 260.7375,347.75 Q260.9719,347.5 261.2375,347.5 Q261.7063,347.5 262.0031,347.7813 Q262.3,348.0625 262.3,348.7188 L262.3,350.2813 Q262.3,350.9375 262.0188,351.2188 Q261.7375,351.5 261.3,351.5 Q260.9094,351.5 260.6594,351.3281 Q260.4094,351.1563 260.3,350.7031 Q260.2531,350.3906 260.0813,350.2188 Q259.7688,349.8906 259.2063,349.7031 Q258.6438,349.5 258.0813,349.5 Q257.3781,349.5 256.7844,349.7813 Q256.2063,350.0625 255.7531,350.6875 Q255.3,351.3125 255.3,352.1719 L255.3,353.0938 Q255.3,354.125 256.1438,354.8125 Q256.9875,355.5 258.4875,355.5 Q259.3781,355.5 260.0031,355.2969 Q260.3625,355.1875 260.7688,354.8281 Q261.0344,354.625 261.175,354.5625 Q261.3156,354.5 261.4875,354.5 Q261.8156,354.5 262.05,354.7656 Q262.3,355.0156 262.3,355.375 Q262.3,355.7188 261.9563,356.125 Q261.4563,356.7188 260.6594,357.0469 Q259.6125,357.5 258.3313,357.5 Q256.8313,357.5 255.6281,356.9063 Q254.6594,356.4375 253.9719,355.4219 Q253.3,354.4063 253.3,353.2031 L253.3,352.1094 Q253.3,350.8594 253.8938,349.7656 Q254.5031,348.6719 255.55,348.0938 Q256.6125,347.5 257.8,347.5 Q258.5188,347.5 259.1438,347.75 Q259.7688,348 260.3,348.5 Z " fill="#000000"/><text fill="#000000" font-family="sans-serif" font-size="12" lengthAdjust="spacing" textLength="53" x="273.7" y="356.9102">Company</text><line style="stroke:#A80036;stroke-width:1.5;" x1="238" x2="335" y1="368" y2="368"/><line style="stroke:#A80036;stroke-width:1.5;" x1="238" x2="335" y1="376" y2="376"/><text fill="#000000" font-family="sans-serif" font-size="11" lengthAdjust="spacing" textLength="76" x="243" y="391.4189">+getTestStore()</text><text fill="#000000" font-family="sans-serif" font-size="11" lengthAdjust="spacing" textLength="87" x="243" y="405.2549">+getReportStore()</text><!--MD5=[0f6f7964b844a64b0496af0dda7914bd]
class TestStore--><rect codeLine="24" fill="#FEFECE" filter="url(#f1gqmzdbphe9ht)" height="89.5078" id="TestStore" style="stroke:#A80036;stroke-width:1.5;" width="164" x="181.5" y="490"/><ellipse cx="232.75" cy="506" fill="#ADD1B2" rx="11" ry="11" style="stroke:#A80036;stroke-width:1.0;"/><path d="M234.75,502.5 Q234.9531,502 235.1875,501.75 Q235.4219,501.5 235.6875,501.5 Q236.1563,501.5 236.4531,501.7813 Q236.75,502.0625 236.75,502.7188 L236.75,504.2813 Q236.75,504.9375 236.4688,505.2188 Q236.1875,505.5 235.75,505.5 Q235.3594,505.5 235.1094,505.3281 Q234.8594,505.1563 234.75,504.7031 Q234.7031,504.3906 234.5313,504.2188 Q234.2188,503.8906 233.6563,503.7031 Q233.0938,503.5 232.5313,503.5 Q231.8281,503.5 231.2344,503.7813 Q230.6563,504.0625 230.2031,504.6875 Q229.75,505.3125 229.75,506.1719 L229.75,507.0938 Q229.75,508.125 230.5938,508.8125 Q231.4375,509.5 232.9375,509.5 Q233.8281,509.5 234.4531,509.2969 Q234.8125,509.1875 235.2188,508.8281 Q235.4844,508.625 235.625,508.5625 Q235.7656,508.5 235.9375,508.5 Q236.2656,508.5 236.5,508.7656 Q236.75,509.0156 236.75,509.375 Q236.75,509.7188 236.4063,510.125 Q235.9063,510.7188 235.1094,511.0469 Q234.0625,511.5 232.7813,511.5 Q231.2813,511.5 230.0781,510.9063 Q229.1094,510.4375 228.4219,509.4219 Q227.75,508.4063 227.75,507.2031 L227.75,506.1094 Q227.75,504.8594 228.3438,503.7656 Q228.9531,502.6719 230,502.0938 Q231.0625,501.5 232.25,501.5 Q232.9688,501.5 233.5938,501.75 Q234.2188,502 234.75,502.5 Z " fill="#000000"/><text fill="#000000" font-family="sans-serif" font-size="12" lengthAdjust="spacing" textLength="53" x="253.25" y="510.9102">TestStore</text><line style="stroke:#A80036;stroke-width:1.5;" x1="182.5" x2="344.5" y1="522" y2="522"/><line style="stroke:#A80036;stroke-width:1.5;" x1="182.5" x2="344.5" y1="530" y2="530"/><text fill="#000000" font-family="sans-serif" font-size="11" lengthAdjust="spacing" textLength="152" x="187.5" y="545.4189">+getTestsListReadyForReport()</text><text fill="#000000" font-family="sans-serif" font-size="11" lengthAdjust="spacing" textLength="131" x="187.5" y="559.2549">+getTestByCode(testCode)</text><text fill="#000000" font-family="sans-serif" font-size="11" lengthAdjust="spacing" textLength="123" x="187.5" y="573.0908">+saveReport(test, report)</text><!--MD5=[df38be88ccee13e832d6fafd6288a4ca]
class Test--><rect codeLine="30" fill="#FEFECE" filter="url(#f1gqmzdbphe9ht)" height="131.0156" id="Test" style="stroke:#A80036;stroke-width:1.5;" width="177" x="176" y="658"/><ellipse cx="248.25" cy="674" fill="#ADD1B2" rx="11" ry="11" style="stroke:#A80036;stroke-width:1.0;"/><path d="M250.25,670.5 Q250.4531,670 250.6875,669.75 Q250.9219,669.5 251.1875,669.5 Q251.6563,669.5 251.9531,669.7813 Q252.25,670.0625 252.25,670.7188 L252.25,672.2813 Q252.25,672.9375 251.9688,673.2188 Q251.6875,673.5 251.25,673.5 Q250.8594,673.5 250.6094,673.3281 Q250.3594,673.1563 250.25,672.7031 Q250.2031,672.3906 250.0313,672.2188 Q249.7188,671.8906 249.1563,671.7031 Q248.5938,671.5 248.0313,671.5 Q247.3281,671.5 246.7344,671.7813 Q246.1563,672.0625 245.7031,672.6875 Q245.25,673.3125 245.25,674.1719 L245.25,675.0938 Q245.25,676.125 246.0938,676.8125 Q246.9375,677.5 248.4375,677.5 Q249.3281,677.5 249.9531,677.2969 Q250.3125,677.1875 250.7188,676.8281 Q250.9844,676.625 251.125,676.5625 Q251.2656,676.5 251.4375,676.5 Q251.7656,676.5 252,676.7656 Q252.25,677.0156 252.25,677.375 Q252.25,677.7188 251.9063,678.125 Q251.4063,678.7188 250.6094,679.0469 Q249.5625,679.5 248.2813,679.5 Q246.7813,679.5 245.5781,678.9063 Q244.6094,678.4375 243.9219,677.4219 Q243.25,676.4063 243.25,675.2031 L243.25,674.1094 Q243.25,672.8594 243.8438,671.7656 Q244.4531,670.6719 245.5,670.0938 Q246.5625,669.5 247.75,669.5 Q248.4688,669.5 249.0938,669.75 Q249.7188,670 250.25,670.5 Z " fill="#000000"/><text fill="#000000" font-family="sans-serif" font-size="12" lengthAdjust="spacing" textLength="24" x="268.75" y="678.9102">Test</text><line style="stroke:#A80036;stroke-width:1.5;" x1="177" x2="352" y1="690" y2="690"/><text fill="#000000" font-family="sans-serif" font-size="11" lengthAdjust="spacing" textLength="47" x="182" y="705.4189">-testCode</text><text fill="#000000" font-family="sans-serif" font-size="11" lengthAdjust="spacing" textLength="57" x="182" y="719.2549">-dateReport</text><text fill="#000000" font-family="sans-serif" font-size="11" lengthAdjust="spacing" textLength="55" x="182" y="733.0908">-timeReport</text><line style="stroke:#A80036;stroke-width:1.5;" x1="177" x2="352" y1="739.5078" y2="739.5078"/><text fill="#000000" font-family="sans-serif" font-size="11" lengthAdjust="spacing" textLength="93" x="182" y="754.9268">+addReport(report)</text><text fill="#000000" font-family="sans-serif" font-size="11" lengthAdjust="spacing" textLength="121" x="182" y="768.7627">+setStatus(Report Made)</text><text fill="#000000" font-family="sans-serif" font-size="11" lengthAdjust="spacing" textLength="165" x="182" y="782.5986">+testParamList getTestParamList()</text><!--MD5=[ce0f71fbf4d9f9eefe0e2007e85cc947]
class ReportStore--><rect codeLine="40" fill="#FEFECE" filter="url(#f1gqmzdbphe9ht)" height="61.8359" id="ReportStore" style="stroke:#A80036;stroke-width:1.5;" width="139" x="7" y="504"/><ellipse cx="40.45" cy="520" fill="#ADD1B2" rx="11" ry="11" style="stroke:#A80036;stroke-width:1.0;"/><path d="M42.45,516.5 Q42.6531,516 42.8875,515.75 Q43.1219,515.5 43.3875,515.5 Q43.8563,515.5 44.1531,515.7813 Q44.45,516.0625 44.45,516.7188 L44.45,518.2813 Q44.45,518.9375 44.1688,519.2188 Q43.8875,519.5 43.45,519.5 Q43.0594,519.5 42.8094,519.3281 Q42.5594,519.1563 42.45,518.7031 Q42.4031,518.3906 42.2313,518.2188 Q41.9188,517.8906 41.3563,517.7031 Q40.7938,517.5 40.2313,517.5 Q39.5281,517.5 38.9344,517.7813 Q38.3563,518.0625 37.9031,518.6875 Q37.45,519.3125 37.45,520.1719 L37.45,521.0938 Q37.45,522.125 38.2938,522.8125 Q39.1375,523.5 40.6375,523.5 Q41.5281,523.5 42.1531,523.2969 Q42.5125,523.1875 42.9188,522.8281 Q43.1844,522.625 43.325,522.5625 Q43.4656,522.5 43.6375,522.5 Q43.9656,522.5 44.2,522.7656 Q44.45,523.0156 44.45,523.375 Q44.45,523.7188 44.1063,524.125 Q43.6063,524.7188 42.8094,525.0469 Q41.7625,525.5 40.4813,525.5 Q38.9813,525.5 37.7781,524.9063 Q36.8094,524.4375 36.1219,523.4219 Q35.45,522.4063 35.45,521.2031 L35.45,520.1094 Q35.45,518.8594 36.0438,517.7656 Q36.6531,516.6719 37.7,516.0938 Q38.7625,515.5 39.95,515.5 Q40.6688,515.5 41.2938,515.75 Q41.9188,516 42.45,516.5 Z " fill="#000000"/><text fill="#000000" font-family="sans-serif" font-size="12" lengthAdjust="spacing" textLength="66" x="58.55" y="524.9102">ReportStore</text><line style="stroke:#A80036;stroke-width:1.5;" x1="8" x2="145" y1="536" y2="536"/><line style="stroke:#A80036;stroke-width:1.5;" x1="8" x2="145" y1="544" y2="544"/><text fill="#000000" font-family="sans-serif" font-size="11" lengthAdjust="spacing" textLength="127" x="13" y="559.4189">+createReport(reportDTO)</text><!--MD5=[d5c5f0f3b32c4f565f21696889393f31]
class ReportMapper--><rect codeLine="44" fill="#FEFECE" filter="url(#f1gqmzdbphe9ht)" height="61.8359" id="ReportMapper" style="stroke:#A80036;stroke-width:1.5;" width="113" x="537" y="343"/><ellipse cx="553.35" cy="359" fill="#ADD1B2" rx="11" ry="11" style="stroke:#A80036;stroke-width:1.0;"/><path d="M555.35,355.5 Q555.5531,355 555.7875,354.75 Q556.0219,354.5 556.2875,354.5 Q556.7563,354.5 557.0531,354.7813 Q557.35,355.0625 557.35,355.7188 L557.35,357.2813 Q557.35,357.9375 557.0688,358.2188 Q556.7875,358.5 556.35,358.5 Q555.9594,358.5 555.7094,358.3281 Q555.4594,358.1563 555.35,357.7031 Q555.3031,357.3906 555.1313,357.2188 Q554.8188,356.8906 554.2563,356.7031 Q553.6938,356.5 553.1313,356.5 Q552.4281,356.5 551.8344,356.7813 Q551.2563,357.0625 550.8031,357.6875 Q550.35,358.3125 550.35,359.1719 L550.35,360.0938 Q550.35,361.125 551.1938,361.8125 Q552.0375,362.5 553.5375,362.5 Q554.4281,362.5 555.0531,362.2969 Q555.4125,362.1875 555.8188,361.8281 Q556.0844,361.625 556.225,361.5625 Q556.3656,361.5 556.5375,361.5 Q556.8656,361.5 557.1,361.7656 Q557.35,362.0156 557.35,362.375 Q557.35,362.7188 557.0063,363.125 Q556.5063,363.7188 555.7094,364.0469 Q554.6625,364.5 553.3813,364.5 Q551.8813,364.5 550.6781,363.9063 Q549.7094,363.4375 549.0219,362.4219 Q548.35,361.4063 548.35,360.2031 L548.35,359.1094 Q548.35,357.8594 548.9438,356.7656 Q549.5531,355.6719 550.6,355.0938 Q551.6625,354.5 552.85,354.5 Q553.5688,354.5 554.1938,354.75 Q554.8188,355 555.35,355.5 Z " fill="#000000"/><text fill="#000000" font-family="sans-serif" font-size="12" lengthAdjust="spacing" textLength="78" x="567.65" y="363.9102">ReportMapper</text><line style="stroke:#A80036;stroke-width:1.5;" x1="538" x2="649" y1="375" y2="375"/><line style="stroke:#A80036;stroke-width:1.5;" x1="538" x2="649" y1="383" y2="383"/><text fill="#000000" font-family="sans-serif" font-size="11" lengthAdjust="spacing" textLength="101" x="543" y="398.4189">+toModel(reportDTO)</text><!--MD5=[9a61e375d8b43ff5f458f76e6bd86b74]
class ReportDTO--><rect codeLine="48" fill="#FEFECE" filter="url(#f1gqmzdbphe9ht)" height="75.6719" id="ReportDTO" style="stroke:#A80036;stroke-width:1.5;" width="109" x="655" y="497"/><ellipse cx="676.75" cy="513" fill="#ADD1B2" rx="11" ry="11" style="stroke:#A80036;stroke-width:1.0;"/><path d="M678.75,509.5 Q678.9531,509 679.1875,508.75 Q679.4219,508.5 679.6875,508.5 Q680.1563,508.5 680.4531,508.7813 Q680.75,509.0625 680.75,509.7188 L680.75,511.2813 Q680.75,511.9375 680.4688,512.2188 Q680.1875,512.5 679.75,512.5 Q679.3594,512.5 679.1094,512.3281 Q678.8594,512.1563 678.75,511.7031 Q678.7031,511.3906 678.5313,511.2188 Q678.2188,510.8906 677.6563,510.7031 Q677.0938,510.5 676.5313,510.5 Q675.8281,510.5 675.2344,510.7813 Q674.6563,511.0625 674.2031,511.6875 Q673.75,512.3125 673.75,513.1719 L673.75,514.0938 Q673.75,515.125 674.5938,515.8125 Q675.4375,516.5 676.9375,516.5 Q677.8281,516.5 678.4531,516.2969 Q678.8125,516.1875 679.2188,515.8281 Q679.4844,515.625 679.625,515.5625 Q679.7656,515.5 679.9375,515.5 Q680.2656,515.5 680.5,515.7656 Q680.75,516.0156 680.75,516.375 Q680.75,516.7188 680.4063,517.125 Q679.9063,517.7188 679.1094,518.0469 Q678.0625,518.5 676.7813,518.5 Q675.2813,518.5 674.0781,517.9063 Q673.1094,517.4375 672.4219,516.4219 Q671.75,515.4063 671.75,514.2031 L671.75,513.1094 Q671.75,511.8594 672.3438,510.7656 Q672.9531,509.6719 674,509.0938 Q675.0625,508.5 676.25,508.5 Q676.9688,508.5 677.5938,508.75 Q678.2188,509 678.75,509.5 Z " fill="#000000"/><text fill="#000000" font-family="sans-serif" font-size="12" lengthAdjust="spacing" textLength="62" x="692.25" y="517.9102">ReportDTO</text><line style="stroke:#A80036;stroke-width:1.5;" x1="656" x2="763" y1="529" y2="529"/><line style="stroke:#A80036;stroke-width:1.5;" x1="656" x2="763" y1="537" y2="537"/><text fill="#000000" font-family="sans-serif" font-size="11" lengthAdjust="spacing" textLength="82" x="661" y="552.4189">+getTextReport()</text><text fill="#000000" font-family="sans-serif" font-size="11" lengthAdjust="spacing" textLength="97" x="661" y="566.2549">+getTextDiagnosis()</text><!--MD5=[f00dbe8c0302c6aec2cb26b3c659c8fc]
class Report--><rect codeLine="53" fill="#FEFECE" filter="url(#f1gqmzdbphe9ht)" height="103.3438" id="Report" style="stroke:#A80036;stroke-width:1.5;" width="178" x="175.5" y="867"/><ellipse cx="241.75" cy="883" fill="#ADD1B2" rx="11" ry="11" style="stroke:#A80036;stroke-width:1.0;"/><path d="M243.75,879.5 Q243.9531,879 244.1875,878.75 Q244.4219,878.5 244.6875,878.5 Q245.1563,878.5 245.4531,878.7813 Q245.75,879.0625 245.75,879.7188 L245.75,881.2813 Q245.75,881.9375 245.4688,882.2188 Q245.1875,882.5 244.75,882.5 Q244.3594,882.5 244.1094,882.3281 Q243.8594,882.1563 243.75,881.7031 Q243.7031,881.3906 243.5313,881.2188 Q243.2188,880.8906 242.6563,880.7031 Q242.0938,880.5 241.5313,880.5 Q240.8281,880.5 240.2344,880.7813 Q239.6563,881.0625 239.2031,881.6875 Q238.75,882.3125 238.75,883.1719 L238.75,884.0938 Q238.75,885.125 239.5938,885.8125 Q240.4375,886.5 241.9375,886.5 Q242.8281,886.5 243.4531,886.2969 Q243.8125,886.1875 244.2188,885.8281 Q244.4844,885.625 244.625,885.5625 Q244.7656,885.5 244.9375,885.5 Q245.2656,885.5 245.5,885.7656 Q245.75,886.0156 245.75,886.375 Q245.75,886.7188 245.4063,887.125 Q244.9063,887.7188 244.1094,888.0469 Q243.0625,888.5 241.7813,888.5 Q240.2813,888.5 239.0781,887.9063 Q238.1094,887.4375 237.4219,886.4219 Q236.75,885.4063 236.75,884.2031 L236.75,883.1094 Q236.75,881.8594 237.3438,880.7656 Q237.9531,879.6719 239,879.0938 Q240.0625,878.5 241.25,878.5 Q241.9688,878.5 242.5938,878.75 Q243.2188,879 243.75,879.5 Z " fill="#000000"/><text fill="#000000" font-family="sans-serif" font-size="12" lengthAdjust="spacing" textLength="37" x="262.25" y="887.9102">Report</text><line style="stroke:#A80036;stroke-width:1.5;" x1="176.5" x2="352.5" y1="899" y2="899"/><text fill="#000000" font-family="sans-serif" font-size="11" lengthAdjust="spacing" textLength="54" x="181.5" y="914.4189">-textReport</text><text fill="#000000" font-family="sans-serif" font-size="11" lengthAdjust="spacing" textLength="69" x="181.5" y="928.2549">-textDiagnosis</text><line style="stroke:#A80036;stroke-width:1.5;" x1="176.5" x2="352.5" y1="934.6719" y2="934.6719"/><text fill="#000000" font-family="sans-serif" font-size="11" lengthAdjust="spacing" textLength="166" x="181.5" y="950.0908">+create(textReport, textDiagnosis)</text><text fill="#000000" font-family="sans-serif" font-size="11" lengthAdjust="spacing" textLength="83" x="181.5" y="963.9268">+validateReport()</text><!--MD5=[144698ec4d0188f6929a3b58a3eeb1f6]
class TestMapper--><rect codeLine="61" fill="#FEFECE" filter="url(#f1gqmzdbphe9ht)" height="75.6719" id="TestMapper" style="stroke:#A80036;stroke-width:1.5;" width="246" x="756.5" y="336"/><ellipse cx="842.75" cy="352" fill="#ADD1B2" rx="11" ry="11" style="stroke:#A80036;stroke-width:1.0;"/><path d="M844.75,348.5 Q844.9531,348 845.1875,347.75 Q845.4219,347.5 845.6875,347.5 Q846.1563,347.5 846.4531,347.7813 Q846.75,348.0625 846.75,348.7188 L846.75,350.2813 Q846.75,350.9375 846.4688,351.2188 Q846.1875,351.5 845.75,351.5 Q845.3594,351.5 845.1094,351.3281 Q844.8594,351.1563 844.75,350.7031 Q844.7031,350.3906 844.5313,350.2188 Q844.2188,349.8906 843.6563,349.7031 Q843.0938,349.5 842.5313,349.5 Q841.8281,349.5 841.2344,349.7813 Q840.6563,350.0625 840.2031,350.6875 Q839.75,351.3125 839.75,352.1719 L839.75,353.0938 Q839.75,354.125 840.5938,354.8125 Q841.4375,355.5 842.9375,355.5 Q843.8281,355.5 844.4531,355.2969 Q844.8125,355.1875 845.2188,354.8281 Q845.4844,354.625 845.625,354.5625 Q845.7656,354.5 845.9375,354.5 Q846.2656,354.5 846.5,354.7656 Q846.75,355.0156 846.75,355.375 Q846.75,355.7188 846.4063,356.125 Q845.9063,356.7188 845.1094,357.0469 Q844.0625,357.5 842.7813,357.5 Q841.2813,357.5 840.0781,356.9063 Q839.1094,356.4375 838.4219,355.4219 Q837.75,354.4063 837.75,353.2031 L837.75,352.1094 Q837.75,350.8594 838.3438,349.7656 Q838.9531,348.6719 840,348.0938 Q841.0625,347.5 842.25,347.5 Q842.9688,347.5 843.5938,347.75 Q844.2188,348 844.75,348.5 Z " fill="#000000"/><text fill="#000000" font-family="sans-serif" font-size="12" lengthAdjust="spacing" textLength="65" x="863.25" y="356.9102">TestMapper</text><line style="stroke:#A80036;stroke-width:1.5;" x1="757.5" x2="1001.5" y1="368" y2="368"/><line style="stroke:#A80036;stroke-width:1.5;" x1="757.5" x2="1001.5" y1="376" y2="376"/><text fill="#000000" font-family="sans-serif" font-size="11" lengthAdjust="spacing" textLength="234" x="762.5" y="391.4189">+testListDTO toDTOList(testListReadyForReport)</text><text fill="#000000" font-family="sans-serif" font-size="11" lengthAdjust="spacing" textLength="183" x="762.5" y="405.2549">+testDTO toDTO(testReadyForReport)</text><!--MD5=[e1b684d3962829f7d15065466104158d]
class TestParamList--><rect codeLine="66" fill="#FEFECE" filter="url(#f1gqmzdbphe9ht)" height="75.6719" id="TestParamList" style="stroke:#A80036;stroke-width:1.5;" width="168" x="380.5" y="497"/><ellipse cx="420.25" cy="513" fill="#ADD1B2" rx="11" ry="11" style="stroke:#A80036;stroke-width:1.0;"/><path d="M422.25,509.5 Q422.4531,509 422.6875,508.75 Q422.9219,508.5 423.1875,508.5 Q423.6563,508.5 423.9531,508.7813 Q424.25,509.0625 424.25,509.7188 L424.25,511.2813 Q424.25,511.9375 423.9688,512.2188 Q423.6875,512.5 423.25,512.5 Q422.8594,512.5 422.6094,512.3281 Q422.3594,512.1563 422.25,511.7031 Q422.2031,511.3906 422.0313,511.2188 Q421.7188,510.8906 421.1563,510.7031 Q420.5938,510.5 420.0313,510.5 Q419.3281,510.5 418.7344,510.7813 Q418.1563,511.0625 417.7031,511.6875 Q417.25,512.3125 417.25,513.1719 L417.25,514.0938 Q417.25,515.125 418.0938,515.8125 Q418.9375,516.5 420.4375,516.5 Q421.3281,516.5 421.9531,516.2969 Q422.3125,516.1875 422.7188,515.8281 Q422.9844,515.625 423.125,515.5625 Q423.2656,515.5 423.4375,515.5 Q423.7656,515.5 424,515.7656 Q424.25,516.0156 424.25,516.375 Q424.25,516.7188 423.9063,517.125 Q423.4063,517.7188 422.6094,518.0469 Q421.5625,518.5 420.2813,518.5 Q418.7813,518.5 417.5781,517.9063 Q416.6094,517.4375 415.9219,516.4219 Q415.25,515.4063 415.25,514.2031 L415.25,513.1094 Q415.25,511.8594 415.8438,510.7656 Q416.4531,509.6719 417.5,509.0938 Q418.5625,508.5 419.75,508.5 Q420.4688,508.5 421.0938,508.75 Q421.7188,509 422.25,509.5 Z " fill="#000000"/><text fill="#000000" font-family="sans-serif" font-size="12" lengthAdjust="spacing" textLength="81" x="439.75" y="517.9102">TestParamList</text><line style="stroke:#A80036;stroke-width:1.5;" x1="381.5" x2="547.5" y1="529" y2="529"/><line style="stroke:#A80036;stroke-width:1.5;" x1="381.5" x2="547.5" y1="537" y2="537"/><text fill="#000000" font-family="sans-serif" font-size="11" lengthAdjust="spacing" textLength="105" x="386.5" y="552.4189">+getTestParameters()</text><text fill="#000000" font-family="sans-serif" font-size="11" lengthAdjust="spacing" textLength="156" x="386.5" y="566.2549">+getReferenceValue(testParam)</text><!--MD5=[9fb704ffefcaf68bf1a361787afa998b]
class TestDTO--><rect fill="#FEFECE" filter="url(#f1gqmzdbphe9ht)" height="48" id="TestDTO" style="stroke:#A80036;stroke-width:1.5;" width="81" x="961" y="511"/><ellipse cx="976" cy="527" fill="#ADD1B2" rx="11" ry="11" style="stroke:#A80036;stroke-width:1.0;"/><path d="M978,523.5 Q978.2031,523 978.4375,522.75 Q978.6719,522.5 978.9375,522.5 Q979.4063,522.5 979.7031,522.7813 Q980,523.0625 980,523.7188 L980,525.2813 Q980,525.9375 979.7188,526.2188 Q979.4375,526.5 979,526.5 Q978.6094,526.5 978.3594,526.3281 Q978.1094,526.1563 978,525.7031 Q977.9531,525.3906 977.7813,525.2188 Q977.4688,524.8906 976.9063,524.7031 Q976.3438,524.5 975.7813,524.5 Q975.0781,524.5 974.4844,524.7813 Q973.9063,525.0625 973.4531,525.6875 Q973,526.3125 973,527.1719 L973,528.0938 Q973,529.125 973.8438,529.8125 Q974.6875,530.5 976.1875,530.5 Q977.0781,530.5 977.7031,530.2969 Q978.0625,530.1875 978.4688,529.8281 Q978.7344,529.625 978.875,529.5625 Q979.0156,529.5 979.1875,529.5 Q979.5156,529.5 979.75,529.7656 Q980,530.0156 980,530.375 Q980,530.7188 979.6563,531.125 Q979.1563,531.7188 978.3594,532.0469 Q977.3125,532.5 976.0313,532.5 Q974.5313,532.5 973.3281,531.9063 Q972.3594,531.4375 971.6719,530.4219 Q971,529.4063 971,528.2031 L971,527.1094 Q971,525.8594 971.5938,524.7656 Q972.2031,523.6719 973.25,523.0938 Q974.3125,522.5 975.5,522.5 Q976.2188,522.5 976.8438,522.75 Q977.4688,523 978,523.5 Z " fill="#000000"/><text fill="#000000" font-family="sans-serif" font-size="12" lengthAdjust="spacing" textLength="49" x="990" y="531.9102">TestDTO</text><line style="stroke:#A80036;stroke-width:1.5;" x1="962" x2="1041" y1="543" y2="543"/><line style="stroke:#A80036;stroke-width:1.5;" x1="962" x2="1041" y1="551" y2="551"/><!--MD5=[1d70569218baf2d503ca66c6410bd51d]
link CreateReportUI to CreateReportController--><path codeLine="71" d="M781.41,55.11 C752.6,70.56 712.81,91.9 673.01,113.24 " fill="none" id="CreateReportUI-to-CreateReportController" style="stroke:#A80036;stroke-width:1.0;stroke-dasharray:7.0,7.0;"/><polygon fill="#A80036" points="668.16,115.85,677.9832,115.1392,672.5706,113.4948,674.2149,108.0822,668.16,115.85" style="stroke:#A80036;stroke-width:1.0;"/><!--MD5=[38743256474271ac36d7dcb6d9dfce69]
link CreateReportUI to TestDTO--><path codeLine="72" d="M846.25,55.2 C889.48,103.11 985.01,218.37 1019.5,336 C1036.69,394.64 1021.49,466.88 1010.49,505.85 " fill="none" id="CreateReportUI-to-TestDTO" style="stroke:#A80036;stroke-width:1.0;stroke-dasharray:7.0,7.0;"/><polygon fill="#A80036" points="1009.03,510.9,1015.3634,503.3576,1010.413,506.0951,1007.6755,501.1447,1009.03,510.9" style="stroke:#A80036;stroke-width:1.0;"/><!--MD5=[542a6331da7bd4331414b7b7b3869a47]
link CreateReportController to Company--><path codeLine="73" d="M416.71,275.2 C390.21,295.1 362.84,315.66 340.07,332.77 " fill="none" id="CreateReportController-to-Company" style="stroke:#A80036;stroke-width:1.0;stroke-dasharray:7.0,7.0;"/><polygon fill="#A80036" points="335.87,335.92,345.4662,333.7035,339.8648,332.9131,340.6552,327.3118,335.87,335.92" style="stroke:#A80036;stroke-width:1.0;"/><!--MD5=[7f6cf7f175eae0af66201860de5de971]
link Company to TestStore--><path codeLine="74" d="M269.27,412.2 C265.65,421.71 262.36,432.07 260.5,442 C257.93,455.71 257.47,470.77 257.96,484.66 " fill="none" id="Company-to-TestStore" style="stroke:#A80036;stroke-width:1.0;"/><polygon fill="#A80036" points="258.19,489.72,261.7736,480.5463,257.961,484.7252,253.782,480.9126,258.19,489.72" style="stroke:#A80036;stroke-width:1.0;"/><polygon fill="#000000" points="264.7289,456.116,269.0276,447.6323,263.2201,446.7259,264.7289,456.116" style="stroke:#000000;stroke-width:1.0;"/><text fill="#000000" font-family="sans-serif" font-size="13" lengthAdjust="spacing" textLength="28" x="274.5" y="456.4951">uses</text><text fill="#000000" font-family="sans-serif" font-size="13" lengthAdjust="spacing" textLength="7" x="258.9662" y="433.1124">1</text><text fill="#000000" font-family="sans-serif" font-size="13" lengthAdjust="spacing" textLength="7" x="249.841" y="479.1212">1</text><!--MD5=[b4f89d3e2517c5a3530ae423bd30fbb1]
link Company to ReportStore--><path codeLine="75" d="M237.53,412.08 C202.12,438.88 154.7,474.79 120.5,500.69 " fill="none" id="Company-to-ReportStore" style="stroke:#A80036;stroke-width:1.0;"/><polygon fill="#A80036" points="116.39,503.8,125.976,501.5398,120.3711,500.7749,121.1359,495.17,116.39,503.8" style="stroke:#A80036;stroke-width:1.0;"/><polygon fill="#000000" points="195.5137,454.194,204.499,451.0771,200.9509,446.3909,195.5137,454.194" style="stroke:#000000;stroke-width:1.0;"/><text fill="#000000" font-family="sans-serif" font-size="13" lengthAdjust="spacing" textLength="28" x="208.5" y="456.4951">uses</text><text fill="#000000" font-family="sans-serif" font-size="13" lengthAdjust="spacing" textLength="7" x="221.8397" y="433.2634">1</text><text fill="#000000" font-family="sans-serif" font-size="13" lengthAdjust="spacing" textLength="7" x="116.8954" y="493.2633">1</text><!--MD5=[19d6ab761d03b023bf06fae383509509]
link Company to TestParamList--><path codeLine="76" d="M328.23,412.28 C355.46,436.6 391,468.35 418.96,493.32 " fill="none" id="Company-to-TestParamList" style="stroke:#A80036;stroke-width:1.0;"/><polygon fill="#A80036" points="423.03,496.96,418.9991,487.9738,419.3072,493.6223,413.6587,493.9304,423.03,496.96" style="stroke:#A80036;stroke-width:1.0;"/><polygon fill="#000000" points="390.2291,454.5066,385.4409,446.2892,381.5253,450.673,390.2291,454.5066" style="stroke:#000000;stroke-width:1.0;"/><text fill="#000000" font-family="sans-serif" font-size="13" lengthAdjust="spacing" textLength="28" x="395.5" y="456.4951">uses</text><text fill="#000000" font-family="sans-serif" font-size="13" lengthAdjust="spacing" textLength="7" x="327.3229" y="433.2052">1</text><text fill="#000000" font-family="sans-serif" font-size="13" lengthAdjust="spacing" textLength="7" x="407.7387" y="486.0292">1</text><!--MD5=[b0f4f6db8206580012ef9cd998ed01c5]
link TestStore to Test--><path codeLine="77" d="M263.74,580.2 C263.85,601.82 264,628.36 264.13,652.64 " fill="none" id="TestStore-to-Test" style="stroke:#A80036;stroke-width:1.0;"/><polygon fill="#A80036" points="264.15,657.78,268.0985,648.7573,264.1214,652.7801,260.0986,648.803,264.15,657.78" style="stroke:#A80036;stroke-width:1.0;"/><polygon fill="#000000" points="269.5269,624.1757,272.4171,615.1149,266.5393,615.1466,269.5269,624.1757" style="stroke:#000000;stroke-width:1.0;"/><text fill="#000000" font-family="sans-serif" font-size="13" lengthAdjust="spacing" textLength="49" x="278.5" y="624.4951">contains</text><text fill="#000000" font-family="sans-serif" font-size="13" lengthAdjust="spacing" textLength="7" x="256.3019" y="600.9006">1</text><text fill="#000000" font-family="sans-serif" font-size="13" lengthAdjust="spacing" textLength="5" x="258.8383" y="647.2304">*</text><!--MD5=[72163acd41df4db10e2bb78c0e4b52d4]
link Test to Report--><path codeLine="78" d="M264.5,789.03 C264.5,812.57 264.5,838.96 264.5,861.67 " fill="none" id="Test-to-Report" style="stroke:#A80036;stroke-width:1.0;"/><polygon fill="#A80036" points="264.5,866.76,268.5,857.76,264.5,861.76,260.5,857.76,264.5,866.76" style="stroke:#A80036;stroke-width:1.0;"/><polygon fill="#000000" points="269.5,833.1758,272.4389,824.1307,266.5611,824.1307,269.5,833.1758" style="stroke:#000000;stroke-width:1.0;"/><text fill="#000000" font-family="sans-serif" font-size="13" lengthAdjust="spacing" textLength="49" x="278.5" y="833.4951">contains</text><text fill="#000000" font-family="sans-serif" font-size="13" lengthAdjust="spacing" textLength="7" x="257.1172" y="810.5858">1</text><text fill="#000000" font-family="sans-serif" font-size="13" lengthAdjust="spacing" textLength="7" x="257.0297" y="856.2281">1</text><!--MD5=[90646ec4bd93ed3a1114e446f07491bf]
link CreateReportController to TestStore--><path codeLine="79" d="M496.19,275.21 C474.95,331.75 440.07,407.03 390.5,460 C378.89,472.41 364.72,483.37 350.11,492.8 " fill="none" id="CreateReportController-to-TestStore" style="stroke:#A80036;stroke-width:1.0;stroke-dasharray:7.0,7.0;"/><polygon fill="#A80036" points="345.56,495.68,355.3017,494.2313,349.7807,492.9993,351.0126,487.4782,345.56,495.68" style="stroke:#A80036;stroke-width:1.0;"/><!--MD5=[b3620a6eb42b0a8f75c607e25ad9a355]
link CreateReportController to ReportStore--><path codeLine="80" d="M364.43,250.89 C314.91,272.62 262.07,300.93 219.5,336 C163.13,382.43 117.89,456 94.31,499.18 " fill="none" id="CreateReportController-to-ReportStore" style="stroke:#A80036;stroke-width:1.0;stroke-dasharray:7.0,7.0;"/><polygon fill="#A80036" points="91.82,503.78,99.6262,497.7748,94.2033,499.3845,92.5935,493.9616,91.82,503.78" style="stroke:#A80036;stroke-width:1.0;"/><!--MD5=[f6fda4afaf882dd39139bcbf06c50c8c]
link TestMapper to TestDTO--><path codeLine="81" d="M908.1,412.28 C930.3,441.2 960.55,480.64 980.54,506.68 " fill="none" id="TestMapper-to-TestDTO" style="stroke:#A80036;stroke-width:1.0;stroke-dasharray:7.0,7.0;"/><polygon fill="#A80036" points="983.66,510.74,981.3614,501.1631,980.619,506.771,975.0111,506.0287,983.66,510.74" style="stroke:#A80036;stroke-width:1.0;"/><!--MD5=[7112066b661eba28fadaa427df7d96fa]
link CreateReportController to TestMapper--><path codeLine="84" d="M678.52,273.92 C720.24,294.48 763.57,315.84 799.27,333.44 " fill="none" id="CreateReportController-to-TestMapper" style="stroke:#A80036;stroke-width:1.0;stroke-dasharray:7.0,7.0;"/><polygon fill="#A80036" points="804.03,335.79,797.7303,328.2195,799.5465,333.5768,794.1891,335.3931,804.03,335.79" style="stroke:#A80036;stroke-width:1.0;"/><!--MD5=[dbc869b3aa8f5b10aa9f74d1eb79b16f]
link CreateReportController to ReportDTO--><path codeLine="87" d="M620.68,275.32 C638.52,293.56 655.29,314.11 667.5,336 C694.8,384.96 704.38,449.78 707.73,491.69 " fill="none" id="CreateReportController-to-ReportDTO" style="stroke:#A80036;stroke-width:1.0;stroke-dasharray:7.0,7.0;"/><polygon fill="#A80036" points="708.11,496.68,711.4039,487.3983,707.7243,491.6949,703.4277,488.0153,708.11,496.68" style="stroke:#A80036;stroke-width:1.0;"/><!--MD5=[d70741b64691e855eb86dee88e4fbdc2]
link CreateReportController to ReportMapper--><path codeLine="88" d="M553.6,275.2 C562.52,297.05 571.75,319.68 579.09,337.67 " fill="none" id="CreateReportController-to-ReportMapper" style="stroke:#A80036;stroke-width:1.0;stroke-dasharray:7.0,7.0;"/><polygon fill="#A80036" points="581.11,342.62,581.4187,332.776,579.2235,337.9895,574.01,335.7944,581.11,342.62" style="stroke:#A80036;stroke-width:1.0;"/><!--MD5=[f2ebc5341e6f67fb45445bfe004dd91d]
link ReportMapper to ReportDTO--><path codeLine="89" d="M615.59,405.28 C633.62,430 659.29,465.18 679.24,492.52 " fill="none" id="ReportMapper-to-ReportDTO" style="stroke:#A80036;stroke-width:1.0;stroke-dasharray:7.0,7.0;"/><polygon fill="#A80036" points="682.39,496.84,680.2889,487.2179,679.4313,492.8093,673.8399,491.9518,682.39,496.84" style="stroke:#A80036;stroke-width:1.0;"/><!--MD5=[9708675fde1c2f94f372f12f37558a72]
link ReportMapper to Report--><path codeLine="90" d="M594.75,405.02 C595.31,446.36 592.11,522.26 565.5,580 C511.62,696.93 403.26,802.54 332.33,863.35 " fill="none" id="ReportMapper-to-Report" style="stroke:#A80036;stroke-width:1.0;stroke-dasharray:7.0,7.0;"/><polygon fill="#A80036" points="328.13,866.94,337.5726,864.1404,331.9333,863.6943,332.3794,858.0551,328.13,866.94" style="stroke:#A80036;stroke-width:1.0;"/><!--MD5=[7fbcfdf360a6c7ad60791099063bc3b1]
link ReportStore to Report--><path codeLine="91" d="M71.04,566.26 C63.63,616.08 55.43,717.02 94.5,789 C111.99,821.23 141.43,847.77 170.93,868.19 " fill="none" id="ReportStore-to-Report" style="stroke:#A80036;stroke-width:1.0;"/><polygon fill="#A80036" points="175.29,871.16,170.1064,862.7856,171.1586,868.3438,165.6004,869.3959,175.29,871.16" style="stroke:#A80036;stroke-width:1.0;"/><polygon fill="#000000" points="101.0705,728.4227,101.0197,718.9123,95.4393,720.7585,101.0705,728.4227" style="stroke:#000000;stroke-width:1.0;"/><text fill="#000000" font-family="sans-serif" font-size="13" lengthAdjust="spacing" textLength="49" x="108.5" y="728.9951">contains</text><text fill="#000000" font-family="sans-serif" font-size="13" lengthAdjust="spacing" textLength="7" x="62.332" y="587.2882">1</text><text fill="#000000" font-family="sans-serif" font-size="13" lengthAdjust="spacing" textLength="7" x="160.6125" y="864.0726">1</text><!--MD5=[8ac8351e61f3b525d00d4278b2a68c32]
link CreateReportController to TestParamList--><path codeLine="93" d="M508.21,275.2 C496.8,342.76 480.79,437.54 471.65,491.66 " fill="none" id="CreateReportController-to-TestParamList" style="stroke:#A80036;stroke-width:1.0;stroke-dasharray:7.0,7.0;"/><polygon fill="#A80036" points="470.79,496.77,476.2229,488.5551,471.6166,491.8388,468.333,487.2326,470.79,496.77" style="stroke:#A80036;stroke-width:1.0;"/><!--MD5=[8e6c6d79d5cf45d19b56a5a474926c90]
@startuml

skinparam classAttributeIconSize 0

class CreateReportUI

class CreateReportController {
-test
-reportStore
-testStore
-testParamList


+testListReadyForReport<Test> getTestsListReadyForReport()
+getTestParametersResultsByCode(code)
+report createReport(reportDTO)
+saveReport()
}

class Company {
+getTestStore()
+getReportStore()
}

class TestStore {
+getTestsListReadyForReport()
+getTestByCode(testCode)
+saveReport(test, report)
}

class Test {
-testCode
-dateReport
-timeReport

+addReport(report)
+setStatus(Report Made)
+testParamList getTestParamList()
}

class ReportStore {
+createReport(reportDTO)
}

class ReportMapper {
+toModel(reportDTO)
}

class ReportDTO {
+getTextReport()
+getTextDiagnosis()
}

class Report {
-textReport
-textDiagnosis

+create(textReport, textDiagnosis)
+validateReport()
}

class TestMapper {
+testListDTO toDTOList(testListReadyForReport)
+testDTO toDTO(testReadyForReport)
}

class TestParamList {
+getTestParameters()
+getReferenceValue(testParam)
}

CreateReportUI ..> CreateReportController
CreateReportUI ..> TestDTO
CreateReportController ..> Company
Company "1"-down->"1" TestStore: uses >
Company "1"-down->"1" ReportStore: uses >
Company "1"-down->"1" TestParamList: uses >
TestStore "1"- ->"*" Test: contains >
Test "1"- ->"1" Report: contains >
CreateReportController ..> TestStore
CreateReportController ..> ReportStore
TestMapper ..> TestDTO


CreateReportController ..> TestMapper


CreateReportController ..> ReportDTO
CreateReportController ..> ReportMapper
ReportMapper ..> ReportDTO
ReportMapper ..> Report
ReportStore "1"- ->"1" Report: contains >

CreateReportController ..> TestParamList

@enduml

PlantUML version 1.2021.5(Sun Apr 25 12:20:28 BST 2021)
(GPL source distribution)
Java Runtime: OpenJDK Runtime Environment
JVM: Dynamic Code Evolution 64-Bit Server VM
Default Encoding: Cp1252
Language: pt
Country: PT
--></g></svg>