<?xml version="1.0" encoding="UTF-8" standalone="no"?><svg xmlns="http://www.w3.org/2000/svg" xmlns:xlink="http://www.w3.org/1999/xlink" contentScriptType="application/ecmascript" contentStyleType="text/css" height="346px" preserveAspectRatio="none" style="width:663px;height:346px;" version="1.1" viewBox="0 0 663 346" width="663px" zoomAndPan="magnify"><defs><filter height="300%" id="f1xcz5zv7lnwp7" width="300%" x="-1" y="-1"><feGaussianBlur result="blurOut" stdDeviation="2.0"/><feColorMatrix in="blurOut" result="blurOut2" type="matrix" values="0 0 0 0 0 0 0 0 0 0 0 0 0 0 0 0 0 0 .4 0"/><feOffset dx="4.0" dy="4.0" in="blurOut2" result="blurOut3"/><feBlend in="SourceGraphic" in2="blurOut3" mode="normal"/></filter></defs><g><!--MD5=[df38be88ccee13e832d6fafd6288a4ca]
class Test--><rect codeLine="4" fill="#FEFECE" filter="url(#f1xcz5zv7lnwp7)" height="186.3594" id="Test" style="stroke:#A80036;stroke-width:1.5;" width="84" x="7" y="7"/><ellipse cx="34.6" cy="23" fill="#ADD1B2" rx="11" ry="11" style="stroke:#A80036;stroke-width:1.0;"/><path d="M36.6,19.5 Q36.8031,19 37.0375,18.75 Q37.2719,18.5 37.5375,18.5 Q38.0063,18.5 38.3031,18.7813 Q38.6,19.0625 38.6,19.7188 L38.6,21.2813 Q38.6,21.9375 38.3188,22.2188 Q38.0375,22.5 37.6,22.5 Q37.2094,22.5 36.9594,22.3281 Q36.7094,22.1563 36.6,21.7031 Q36.5531,21.3906 36.3813,21.2188 Q36.0688,20.8906 35.5063,20.7031 Q34.9438,20.5 34.3813,20.5 Q33.6781,20.5 33.0844,20.7813 Q32.5063,21.0625 32.0531,21.6875 Q31.6,22.3125 31.6,23.1719 L31.6,24.0938 Q31.6,25.125 32.4438,25.8125 Q33.2875,26.5 34.7875,26.5 Q35.6781,26.5 36.3031,26.2969 Q36.6625,26.1875 37.0688,25.8281 Q37.3344,25.625 37.475,25.5625 Q37.6156,25.5 37.7875,25.5 Q38.1156,25.5 38.35,25.7656 Q38.6,26.0156 38.6,26.375 Q38.6,26.7188 38.2563,27.125 Q37.7563,27.7188 36.9594,28.0469 Q35.9125,28.5 34.6313,28.5 Q33.1313,28.5 31.9281,27.9063 Q30.9594,27.4375 30.2719,26.4219 Q29.6,25.4063 29.6,24.2031 L29.6,23.1094 Q29.6,21.8594 30.1938,20.7656 Q30.8031,19.6719 31.85,19.0938 Q32.9125,18.5 34.1,18.5 Q34.8188,18.5 35.4438,18.75 Q36.0688,19 36.6,19.5 Z " fill="#000000"/><text fill="#000000" font-family="sans-serif" font-size="12" lengthAdjust="spacing" textLength="24" x="51.4" y="27.9102">Test</text><line style="stroke:#A80036;stroke-width:1.5;" x1="8" x2="90" y1="39" y2="39"/><text fill="#000000" font-family="sans-serif" font-size="11" lengthAdjust="spacing" textLength="64" x="13" y="54.4189">-internalCode</text><text fill="#000000" font-family="sans-serif" font-size="11" lengthAdjust="spacing" textLength="47" x="13" y="68.2549">-nhsCode</text><text fill="#000000" font-family="sans-serif" font-size="11" lengthAdjust="spacing" textLength="52" x="13" y="82.0908">-createdAt</text><text fill="#000000" font-family="sans-serif" font-size="11" lengthAdjust="spacing" textLength="59" x="13" y="95.9268">-designation</text><text fill="#000000" font-family="sans-serif" font-size="11" lengthAdjust="spacing" textLength="67" x="13" y="109.7627">-dateAnalysis</text><text fill="#000000" font-family="sans-serif" font-size="11" lengthAdjust="spacing" textLength="65" x="13" y="123.5986">-timeAnalysis</text><text fill="#000000" font-family="sans-serif" font-size="11" lengthAdjust="spacing" textLength="72" x="13" y="137.4346">-dateDiagnosis</text><text fill="#000000" font-family="sans-serif" font-size="11" lengthAdjust="spacing" textLength="70" x="13" y="151.2705">-timeDiagnosis</text><text fill="#000000" font-family="sans-serif" font-size="11" lengthAdjust="spacing" textLength="72" x="13" y="165.1064">-dateValidation</text><text fill="#000000" font-family="sans-serif" font-size="11" lengthAdjust="spacing" textLength="70" x="13" y="178.9424">-timeValidation</text><line style="stroke:#A80036;stroke-width:1.5;" x1="8" x2="90" y1="185.3594" y2="185.3594"/><!--MD5=[e27cb01a39563223b22d42504ec96d07]
class TestResult--><rect codeLine="17" fill="#FEFECE" filter="url(#f1xcz5zv7lnwp7)" height="48" id="TestResult" style="stroke:#A80036;stroke-width:1.5;" width="92" x="173" y="76"/><ellipse cx="188" cy="92" fill="#ADD1B2" rx="11" ry="11" style="stroke:#A80036;stroke-width:1.0;"/><path d="M190,88.5 Q190.2031,88 190.4375,87.75 Q190.6719,87.5 190.9375,87.5 Q191.4063,87.5 191.7031,87.7813 Q192,88.0625 192,88.7188 L192,90.2813 Q192,90.9375 191.7188,91.2188 Q191.4375,91.5 191,91.5 Q190.6094,91.5 190.3594,91.3281 Q190.1094,91.1563 190,90.7031 Q189.9531,90.3906 189.7813,90.2188 Q189.4688,89.8906 188.9063,89.7031 Q188.3438,89.5 187.7813,89.5 Q187.0781,89.5 186.4844,89.7813 Q185.9063,90.0625 185.4531,90.6875 Q185,91.3125 185,92.1719 L185,93.0938 Q185,94.125 185.8438,94.8125 Q186.6875,95.5 188.1875,95.5 Q189.0781,95.5 189.7031,95.2969 Q190.0625,95.1875 190.4688,94.8281 Q190.7344,94.625 190.875,94.5625 Q191.0156,94.5 191.1875,94.5 Q191.5156,94.5 191.75,94.7656 Q192,95.0156 192,95.375 Q192,95.7188 191.6563,96.125 Q191.1563,96.7188 190.3594,97.0469 Q189.3125,97.5 188.0313,97.5 Q186.5313,97.5 185.3281,96.9063 Q184.3594,96.4375 183.6719,95.4219 Q183,94.4063 183,93.2031 L183,92.1094 Q183,90.8594 183.5938,89.7656 Q184.2031,88.6719 185.25,88.0938 Q186.3125,87.5 187.5,87.5 Q188.2188,87.5 188.8438,87.75 Q189.4688,88 190,88.5 Z " fill="#000000"/><text fill="#000000" font-family="sans-serif" font-size="12" lengthAdjust="spacing" textLength="60" x="202" y="96.9102">TestResult</text><line style="stroke:#A80036;stroke-width:1.5;" x1="174" x2="264" y1="108" y2="108"/><line style="stroke:#A80036;stroke-width:1.5;" x1="174" x2="264" y1="116" y2="116"/><!--MD5=[7d96fd15f3014691d2fcaf89c5791e2a]
class SpecialistDoctor--><rect codeLine="19" fill="#FEFECE" filter="url(#f1xcz5zv7lnwp7)" height="61.8359" id="SpecialistDoctor" style="stroke:#A80036;stroke-width:1.5;" width="122" x="158" y="271"/><ellipse cx="173" cy="287" fill="#ADD1B2" rx="11" ry="11" style="stroke:#A80036;stroke-width:1.0;"/><path d="M175,283.5 Q175.2031,283 175.4375,282.75 Q175.6719,282.5 175.9375,282.5 Q176.4063,282.5 176.7031,282.7813 Q177,283.0625 177,283.7188 L177,285.2813 Q177,285.9375 176.7188,286.2188 Q176.4375,286.5 176,286.5 Q175.6094,286.5 175.3594,286.3281 Q175.1094,286.1563 175,285.7031 Q174.9531,285.3906 174.7813,285.2188 Q174.4688,284.8906 173.9063,284.7031 Q173.3438,284.5 172.7813,284.5 Q172.0781,284.5 171.4844,284.7813 Q170.9063,285.0625 170.4531,285.6875 Q170,286.3125 170,287.1719 L170,288.0938 Q170,289.125 170.8438,289.8125 Q171.6875,290.5 173.1875,290.5 Q174.0781,290.5 174.7031,290.2969 Q175.0625,290.1875 175.4688,289.8281 Q175.7344,289.625 175.875,289.5625 Q176.0156,289.5 176.1875,289.5 Q176.5156,289.5 176.75,289.7656 Q177,290.0156 177,290.375 Q177,290.7188 176.6563,291.125 Q176.1563,291.7188 175.3594,292.0469 Q174.3125,292.5 173.0313,292.5 Q171.5313,292.5 170.3281,291.9063 Q169.3594,291.4375 168.6719,290.4219 Q168,289.4063 168,288.2031 L168,287.1094 Q168,285.8594 168.5938,284.7656 Q169.2031,283.6719 170.25,283.0938 Q171.3125,282.5 172.5,282.5 Q173.2188,282.5 173.8438,282.75 Q174.4688,283 175,283.5 Z " fill="#000000"/><text fill="#000000" font-family="sans-serif" font-size="12" lengthAdjust="spacing" textLength="90" x="187" y="291.9102">SpecialistDoctor</text><line style="stroke:#A80036;stroke-width:1.5;" x1="159" x2="279" y1="303" y2="303"/><text fill="#000000" font-family="sans-serif" font-size="11" lengthAdjust="spacing" textLength="98" x="164" y="318.4189">-doctorIndexNumber</text><line style="stroke:#A80036;stroke-width:1.5;" x1="159" x2="279" y1="324.8359" y2="324.8359"/><!--MD5=[10d06bcee75aaf74ab8f6040820ceef2]
class Diagnosis--><rect codeLine="23" fill="#FEFECE" filter="url(#f1xcz5zv7lnwp7)" height="48" id="Diagnosis" style="stroke:#A80036;stroke-width:1.5;" width="89" x="560.5" y="76"/><ellipse cx="575.5" cy="92" fill="#ADD1B2" rx="11" ry="11" style="stroke:#A80036;stroke-width:1.0;"/><path d="M577.5,88.5 Q577.7031,88 577.9375,87.75 Q578.1719,87.5 578.4375,87.5 Q578.9063,87.5 579.2031,87.7813 Q579.5,88.0625 579.5,88.7188 L579.5,90.2813 Q579.5,90.9375 579.2188,91.2188 Q578.9375,91.5 578.5,91.5 Q578.1094,91.5 577.8594,91.3281 Q577.6094,91.1563 577.5,90.7031 Q577.4531,90.3906 577.2813,90.2188 Q576.9688,89.8906 576.4063,89.7031 Q575.8438,89.5 575.2813,89.5 Q574.5781,89.5 573.9844,89.7813 Q573.4063,90.0625 572.9531,90.6875 Q572.5,91.3125 572.5,92.1719 L572.5,93.0938 Q572.5,94.125 573.3438,94.8125 Q574.1875,95.5 575.6875,95.5 Q576.5781,95.5 577.2031,95.2969 Q577.5625,95.1875 577.9688,94.8281 Q578.2344,94.625 578.375,94.5625 Q578.5156,94.5 578.6875,94.5 Q579.0156,94.5 579.25,94.7656 Q579.5,95.0156 579.5,95.375 Q579.5,95.7188 579.1563,96.125 Q578.6563,96.7188 577.8594,97.0469 Q576.8125,97.5 575.5313,97.5 Q574.0313,97.5 572.8281,96.9063 Q571.8594,96.4375 571.1719,95.4219 Q570.5,94.4063 570.5,93.2031 L570.5,92.1094 Q570.5,90.8594 571.0938,89.7656 Q571.7031,88.6719 572.75,88.0938 Q573.8125,87.5 575,87.5 Q575.7188,87.5 576.3438,87.75 Q576.9688,88 577.5,88.5 Z " fill="#000000"/><text fill="#000000" font-family="sans-serif" font-size="12" lengthAdjust="spacing" textLength="57" x="589.5" y="96.9102">Diagnosis</text><line style="stroke:#A80036;stroke-width:1.5;" x1="561.5" x2="648.5" y1="108" y2="108"/><line style="stroke:#A80036;stroke-width:1.5;" x1="561.5" x2="648.5" y1="116" y2="116"/><!--MD5=[f00dbe8c0302c6aec2cb26b3c659c8fc]
class Report--><rect codeLine="25" fill="#FEFECE" filter="url(#f1xcz5zv7lnwp7)" height="61.8359" id="Report" style="stroke:#A80036;stroke-width:1.5;" width="69" x="392.5" y="69"/><ellipse cx="407.5" cy="85" fill="#ADD1B2" rx="11" ry="11" style="stroke:#A80036;stroke-width:1.0;"/><path d="M409.5,81.5 Q409.7031,81 409.9375,80.75 Q410.1719,80.5 410.4375,80.5 Q410.9063,80.5 411.2031,80.7813 Q411.5,81.0625 411.5,81.7188 L411.5,83.2813 Q411.5,83.9375 411.2188,84.2188 Q410.9375,84.5 410.5,84.5 Q410.1094,84.5 409.8594,84.3281 Q409.6094,84.1563 409.5,83.7031 Q409.4531,83.3906 409.2813,83.2188 Q408.9688,82.8906 408.4063,82.7031 Q407.8438,82.5 407.2813,82.5 Q406.5781,82.5 405.9844,82.7813 Q405.4063,83.0625 404.9531,83.6875 Q404.5,84.3125 404.5,85.1719 L404.5,86.0938 Q404.5,87.125 405.3438,87.8125 Q406.1875,88.5 407.6875,88.5 Q408.5781,88.5 409.2031,88.2969 Q409.5625,88.1875 409.9688,87.8281 Q410.2344,87.625 410.375,87.5625 Q410.5156,87.5 410.6875,87.5 Q411.0156,87.5 411.25,87.7656 Q411.5,88.0156 411.5,88.375 Q411.5,88.7188 411.1563,89.125 Q410.6563,89.7188 409.8594,90.0469 Q408.8125,90.5 407.5313,90.5 Q406.0313,90.5 404.8281,89.9063 Q403.8594,89.4375 403.1719,88.4219 Q402.5,87.4063 402.5,86.2031 L402.5,85.1094 Q402.5,83.8594 403.0938,82.7656 Q403.7031,81.6719 404.75,81.0938 Q405.8125,80.5 407,80.5 Q407.7188,80.5 408.3438,80.75 Q408.9688,81 409.5,81.5 Z " fill="#000000"/><text fill="#000000" font-family="sans-serif" font-size="12" lengthAdjust="spacing" textLength="37" x="421.5" y="89.9102">Report</text><line style="stroke:#A80036;stroke-width:1.5;" x1="393.5" x2="460.5" y1="101" y2="101"/><text fill="#000000" font-family="sans-serif" font-size="11" lengthAdjust="spacing" textLength="47" x="398.5" y="116.4189">-textBody</text><line style="stroke:#A80036;stroke-width:1.5;" x1="393.5" x2="460.5" y1="122.8359" y2="122.8359"/><!--MD5=[73dffd3648c374487b6d8c6733c5b5e0]
link Test to TestResult--><path codeLine="29" d="M91.02,100 C115.9,100 147.44,100 172.98,100 " fill="none" id="Test-TestResult" style="stroke:#A80036;stroke-width:1.0;"/><polygon fill="#000000" points="118.5,88.1758,109.4549,85.2369,109.4549,91.1147,118.5,88.1758" style="stroke:#000000;stroke-width:1.0;"/><text fill="#000000" font-family="sans-serif" font-size="13" lengthAdjust="spacing" textLength="32" x="122.5" y="93.4951">has a</text><text fill="#000000" font-family="sans-serif" font-size="13" lengthAdjust="spacing" textLength="7" x="99.1283" y="96.0694">1</text><text fill="#000000" font-family="sans-serif" font-size="13" lengthAdjust="spacing" textLength="7" x="158.0877" y="96.2481">1</text><!--MD5=[3a1d1c5dabc18982cba29847cc21c36c]
link TestResult to Report--><path codeLine="30" d="M265.16,100 C303.58,100 357.44,100 392.28,100 " fill="none" id="TestResult-Report" style="stroke:#A80036;stroke-width:1.0;"/><polygon fill="#000000" points="292.25,88.1758,283.2049,85.2369,283.2049,91.1147,292.25,88.1758" style="stroke:#000000;stroke-width:1.0;"/><text fill="#000000" font-family="sans-serif" font-size="13" lengthAdjust="spacing" textLength="78" x="296.25" y="93.4951">associated to</text><text fill="#000000" font-family="sans-serif" font-size="13" lengthAdjust="spacing" textLength="7" x="273.0746" y="96.2481">1</text><text fill="#000000" font-family="sans-serif" font-size="13" lengthAdjust="spacing" textLength="7" x="377.3971" y="95.8983">1</text><!--MD5=[9ea131e34883d590a1cfd41d17f43241]
link Report to Diagnosis--><path codeLine="31" d="M461.74,100 C489.87,100 529.69,100 560.21,100 " fill="none" id="Report-Diagnosis" style="stroke:#A80036;stroke-width:1.0;"/><polygon fill="#000000" points="489,88.1758,479.9549,85.2369,479.9549,91.1147,489,88.1758" style="stroke:#000000;stroke-width:1.0;"/><text fill="#000000" font-family="sans-serif" font-size="13" lengthAdjust="spacing" textLength="49" x="493" y="93.4951">contains</text><text fill="#000000" font-family="sans-serif" font-size="13" lengthAdjust="spacing" textLength="7" x="469.627" y="95.8983">1</text><text fill="#000000" font-family="sans-serif" font-size="13" lengthAdjust="spacing" textLength="7" x="545.5138" y="96.2481">1</text><!--MD5=[b68fa5675f8a531b49dc6f7e20370c4c]
link TestResult to SpecialistDoctor--><path codeLine="32" d="M219,124.33 C219,160.71 219,230.9 219,270.99 " fill="none" id="TestResult-SpecialistDoctor" style="stroke:#A80036;stroke-width:1.0;"/><polygon fill="#000000" points="224,237.1758,226.9389,228.1307,221.0611,228.1307,224,237.1758" style="stroke:#000000;stroke-width:1.0;"/><text fill="#000000" font-family="sans-serif" font-size="13" lengthAdjust="spacing" textLength="70" x="233" y="237.4951">analysed by</text><text fill="#000000" font-family="sans-serif" font-size="13" lengthAdjust="spacing" textLength="7" x="211.1906" y="145.3421">1</text><text fill="#000000" font-family="sans-serif" font-size="13" lengthAdjust="spacing" textLength="7" x="211.2344" y="260.0081">1</text><!--MD5=[cf046a26be640c7028d9e0777e3920b0]
@startuml

skinparam classAttributeIconSize 0

class Test {
-internalCode
-nhsCode
-createdAt
-designation
-dateAnalysis
-timeAnalysis
-dateDiagnosis
-timeDiagnosis
-dateValidation
-timeValidation
}

class TestResult

class SpecialistDoctor {
-doctorIndexNumber
}

class Diagnosis

class Report {
-textBody
}

Test "1"-"1" TestResult: has a >
TestResult "1"-"1" Report: associated to >
Report "1"-"1" Diagnosis: contains >
TestResult "1"-down-"1" SpecialistDoctor: analysed by >

@enduml

PlantUML version 1.2021.5(Sun Apr 25 12:20:28 BST 2021)
(GPL source distribution)
Java Runtime: OpenJDK Runtime Environment
JVM: Dynamic Code Evolution 64-Bit Server VM
Default Encoding: Cp1252
Language: pt
Country: PT
--></g></svg>