<?xml version="1.0" encoding="UTF-8" standalone="no"?><svg xmlns="http://www.w3.org/2000/svg" xmlns:xlink="http://www.w3.org/1999/xlink" contentScriptType="application/ecmascript" contentStyleType="text/css" height="627px" preserveAspectRatio="none" style="width:755px;height:627px;" version="1.1" viewBox="0 0 755 627" width="755px" zoomAndPan="magnify"><defs><filter height="300%" id="ftr04247wovlv" width="300%" x="-1" y="-1"><feGaussianBlur result="blurOut" stdDeviation="2.0"/><feColorMatrix in="blurOut" result="blurOut2" type="matrix" values="0 0 0 0 0 0 0 0 0 0 0 0 0 0 0 0 0 0 .4 0"/><feOffset dx="4.0" dy="4.0" in="blurOut2" result="blurOut3"/><feBlend in="SourceGraphic" in2="blurOut3" mode="normal"/></filter></defs><g><!--MD5=[df38be88ccee13e832d6fafd6288a4ca]
class Test--><rect codeLine="4" fill="#FEFECE" filter="url(#ftr04247wovlv)" height="186.3594" id="Test" style="stroke:#A80036;stroke-width:1.5;" width="84" x="273" y="7"/><ellipse cx="300.6" cy="23" fill="#ADD1B2" rx="11" ry="11" style="stroke:#A80036;stroke-width:1.0;"/><path d="M302.6,19.5 Q302.8031,19 303.0375,18.75 Q303.2719,18.5 303.5375,18.5 Q304.0063,18.5 304.3031,18.7813 Q304.6,19.0625 304.6,19.7188 L304.6,21.2813 Q304.6,21.9375 304.3188,22.2188 Q304.0375,22.5 303.6,22.5 Q303.2094,22.5 302.9594,22.3281 Q302.7094,22.1563 302.6,21.7031 Q302.5531,21.3906 302.3813,21.2188 Q302.0688,20.8906 301.5063,20.7031 Q300.9438,20.5 300.3813,20.5 Q299.6781,20.5 299.0844,20.7813 Q298.5063,21.0625 298.0531,21.6875 Q297.6,22.3125 297.6,23.1719 L297.6,24.0938 Q297.6,25.125 298.4438,25.8125 Q299.2875,26.5 300.7875,26.5 Q301.6781,26.5 302.3031,26.2969 Q302.6625,26.1875 303.0688,25.8281 Q303.3344,25.625 303.475,25.5625 Q303.6156,25.5 303.7875,25.5 Q304.1156,25.5 304.35,25.7656 Q304.6,26.0156 304.6,26.375 Q304.6,26.7188 304.2563,27.125 Q303.7563,27.7188 302.9594,28.0469 Q301.9125,28.5 300.6313,28.5 Q299.1313,28.5 297.9281,27.9063 Q296.9594,27.4375 296.2719,26.4219 Q295.6,25.4063 295.6,24.2031 L295.6,23.1094 Q295.6,21.8594 296.1938,20.7656 Q296.8031,19.6719 297.85,19.0938 Q298.9125,18.5 300.1,18.5 Q300.8188,18.5 301.4438,18.75 Q302.0688,19 302.6,19.5 Z " fill="#000000"/><text fill="#000000" font-family="sans-serif" font-size="12" lengthAdjust="spacing" textLength="24" x="317.4" y="27.9102">Test</text><line style="stroke:#A80036;stroke-width:1.5;" x1="274" x2="356" y1="39" y2="39"/><text fill="#000000" font-family="sans-serif" font-size="11" lengthAdjust="spacing" textLength="64" x="279" y="54.4189">-internalCode</text><text fill="#000000" font-family="sans-serif" font-size="11" lengthAdjust="spacing" textLength="47" x="279" y="68.2549">-nhsCode</text><text fill="#000000" font-family="sans-serif" font-size="11" lengthAdjust="spacing" textLength="52" x="279" y="82.0908">-createdAt</text><text fill="#000000" font-family="sans-serif" font-size="11" lengthAdjust="spacing" textLength="59" x="279" y="95.9268">-designation</text><text fill="#000000" font-family="sans-serif" font-size="11" lengthAdjust="spacing" textLength="67" x="279" y="109.7627">-dateAnalysis</text><text fill="#000000" font-family="sans-serif" font-size="11" lengthAdjust="spacing" textLength="65" x="279" y="123.5986">-timeAnalysis</text><text fill="#000000" font-family="sans-serif" font-size="11" lengthAdjust="spacing" textLength="72" x="279" y="137.4346">-dateDiagnosis</text><text fill="#000000" font-family="sans-serif" font-size="11" lengthAdjust="spacing" textLength="70" x="279" y="151.2705">-timeDiagnosis</text><text fill="#000000" font-family="sans-serif" font-size="11" lengthAdjust="spacing" textLength="72" x="279" y="165.1064">-dateValidation</text><text fill="#000000" font-family="sans-serif" font-size="11" lengthAdjust="spacing" textLength="70" x="279" y="178.9424">-timeValidation</text><line style="stroke:#A80036;stroke-width:1.5;" x1="274" x2="356" y1="185.3594" y2="185.3594"/><!--MD5=[10d06bcee75aaf74ab8f6040820ceef2]
class Diagnosis--><rect codeLine="17" fill="#FEFECE" filter="url(#ftr04247wovlv)" height="48" id="Diagnosis" style="stroke:#A80036;stroke-width:1.5;" width="89" x="652.5" y="76"/><ellipse cx="667.5" cy="92" fill="#ADD1B2" rx="11" ry="11" style="stroke:#A80036;stroke-width:1.0;"/><path d="M669.5,88.5 Q669.7031,88 669.9375,87.75 Q670.1719,87.5 670.4375,87.5 Q670.9063,87.5 671.2031,87.7813 Q671.5,88.0625 671.5,88.7188 L671.5,90.2813 Q671.5,90.9375 671.2188,91.2188 Q670.9375,91.5 670.5,91.5 Q670.1094,91.5 669.8594,91.3281 Q669.6094,91.1563 669.5,90.7031 Q669.4531,90.3906 669.2813,90.2188 Q668.9688,89.8906 668.4063,89.7031 Q667.8438,89.5 667.2813,89.5 Q666.5781,89.5 665.9844,89.7813 Q665.4063,90.0625 664.9531,90.6875 Q664.5,91.3125 664.5,92.1719 L664.5,93.0938 Q664.5,94.125 665.3438,94.8125 Q666.1875,95.5 667.6875,95.5 Q668.5781,95.5 669.2031,95.2969 Q669.5625,95.1875 669.9688,94.8281 Q670.2344,94.625 670.375,94.5625 Q670.5156,94.5 670.6875,94.5 Q671.0156,94.5 671.25,94.7656 Q671.5,95.0156 671.5,95.375 Q671.5,95.7188 671.1563,96.125 Q670.6563,96.7188 669.8594,97.0469 Q668.8125,97.5 667.5313,97.5 Q666.0313,97.5 664.8281,96.9063 Q663.8594,96.4375 663.1719,95.4219 Q662.5,94.4063 662.5,93.2031 L662.5,92.1094 Q662.5,90.8594 663.0938,89.7656 Q663.7031,88.6719 664.75,88.0938 Q665.8125,87.5 667,87.5 Q667.7188,87.5 668.3438,87.75 Q668.9688,88 669.5,88.5 Z " fill="#000000"/><text fill="#000000" font-family="sans-serif" font-size="12" lengthAdjust="spacing" textLength="57" x="681.5" y="96.9102">Diagnosis</text><line style="stroke:#A80036;stroke-width:1.5;" x1="653.5" x2="740.5" y1="108" y2="108"/><line style="stroke:#A80036;stroke-width:1.5;" x1="653.5" x2="740.5" y1="116" y2="116"/><!--MD5=[f00dbe8c0302c6aec2cb26b3c659c8fc]
class Report--><rect codeLine="19" fill="#FEFECE" filter="url(#ftr04247wovlv)" height="61.8359" id="Report" style="stroke:#A80036;stroke-width:1.5;" width="69" x="484.5" y="69"/><ellipse cx="499.5" cy="85" fill="#ADD1B2" rx="11" ry="11" style="stroke:#A80036;stroke-width:1.0;"/><path d="M501.5,81.5 Q501.7031,81 501.9375,80.75 Q502.1719,80.5 502.4375,80.5 Q502.9063,80.5 503.2031,80.7813 Q503.5,81.0625 503.5,81.7188 L503.5,83.2813 Q503.5,83.9375 503.2188,84.2188 Q502.9375,84.5 502.5,84.5 Q502.1094,84.5 501.8594,84.3281 Q501.6094,84.1563 501.5,83.7031 Q501.4531,83.3906 501.2813,83.2188 Q500.9688,82.8906 500.4063,82.7031 Q499.8438,82.5 499.2813,82.5 Q498.5781,82.5 497.9844,82.7813 Q497.4063,83.0625 496.9531,83.6875 Q496.5,84.3125 496.5,85.1719 L496.5,86.0938 Q496.5,87.125 497.3438,87.8125 Q498.1875,88.5 499.6875,88.5 Q500.5781,88.5 501.2031,88.2969 Q501.5625,88.1875 501.9688,87.8281 Q502.2344,87.625 502.375,87.5625 Q502.5156,87.5 502.6875,87.5 Q503.0156,87.5 503.25,87.7656 Q503.5,88.0156 503.5,88.375 Q503.5,88.7188 503.1563,89.125 Q502.6563,89.7188 501.8594,90.0469 Q500.8125,90.5 499.5313,90.5 Q498.0313,90.5 496.8281,89.9063 Q495.8594,89.4375 495.1719,88.4219 Q494.5,87.4063 494.5,86.2031 L494.5,85.1094 Q494.5,83.8594 495.0938,82.7656 Q495.7031,81.6719 496.75,81.0938 Q497.8125,80.5 499,80.5 Q499.7188,80.5 500.3438,80.75 Q500.9688,81 501.5,81.5 Z " fill="#000000"/><text fill="#000000" font-family="sans-serif" font-size="12" lengthAdjust="spacing" textLength="37" x="513.5" y="89.9102">Report</text><line style="stroke:#A80036;stroke-width:1.5;" x1="485.5" x2="552.5" y1="101" y2="101"/><text fill="#000000" font-family="sans-serif" font-size="11" lengthAdjust="spacing" textLength="47" x="490.5" y="116.4189">-textBody</text><line style="stroke:#A80036;stroke-width:1.5;" x1="485.5" x2="552.5" y1="122.8359" y2="122.8359"/><!--MD5=[4e608140b854dae633589343bce77383]
class TestParameterResult--><rect codeLine="23" fill="#FEFECE" filter="url(#ftr04247wovlv)" height="89.5078" id="TestParameterResult" style="stroke:#A80036;stroke-width:1.5;" width="150" x="240" y="397"/><ellipse cx="255" cy="413" fill="#ADD1B2" rx="11" ry="11" style="stroke:#A80036;stroke-width:1.0;"/><path d="M257,409.5 Q257.2031,409 257.4375,408.75 Q257.6719,408.5 257.9375,408.5 Q258.4063,408.5 258.7031,408.7813 Q259,409.0625 259,409.7188 L259,411.2813 Q259,411.9375 258.7188,412.2188 Q258.4375,412.5 258,412.5 Q257.6094,412.5 257.3594,412.3281 Q257.1094,412.1563 257,411.7031 Q256.9531,411.3906 256.7813,411.2188 Q256.4688,410.8906 255.9063,410.7031 Q255.3438,410.5 254.7813,410.5 Q254.0781,410.5 253.4844,410.7813 Q252.9063,411.0625 252.4531,411.6875 Q252,412.3125 252,413.1719 L252,414.0938 Q252,415.125 252.8438,415.8125 Q253.6875,416.5 255.1875,416.5 Q256.0781,416.5 256.7031,416.2969 Q257.0625,416.1875 257.4688,415.8281 Q257.7344,415.625 257.875,415.5625 Q258.0156,415.5 258.1875,415.5 Q258.5156,415.5 258.75,415.7656 Q259,416.0156 259,416.375 Q259,416.7188 258.6563,417.125 Q258.1563,417.7188 257.3594,418.0469 Q256.3125,418.5 255.0313,418.5 Q253.5313,418.5 252.3281,417.9063 Q251.3594,417.4375 250.6719,416.4219 Q250,415.4063 250,414.2031 L250,413.1094 Q250,411.8594 250.5938,410.7656 Q251.2031,409.6719 252.25,409.0938 Q253.3125,408.5 254.5,408.5 Q255.2188,408.5 255.8438,408.75 Q256.4688,409 257,409.5 Z " fill="#000000"/><text fill="#000000" font-family="sans-serif" font-size="12" lengthAdjust="spacing" textLength="118" x="269" y="417.9102">TestParameterResult</text><line style="stroke:#A80036;stroke-width:1.5;" x1="241" x2="389" y1="429" y2="429"/><text fill="#000000" font-family="sans-serif" font-size="11" lengthAdjust="spacing" textLength="52" x="246" y="444.4189">-createdAt</text><text fill="#000000" font-family="sans-serif" font-size="11" lengthAdjust="spacing" textLength="30" x="246" y="458.2549">-value</text><text fill="#000000" font-family="sans-serif" font-size="11" lengthAdjust="spacing" textLength="33" x="246" y="472.0908">-metric</text><line style="stroke:#A80036;stroke-width:1.5;" x1="241" x2="389" y1="478.5078" y2="478.5078"/><!--MD5=[0f07739f46effee96e095e9c408da841]
class TestParameter--><rect fill="#FEFECE" filter="url(#ftr04247wovlv)" height="48" id="TestParameter" style="stroke:#A80036;stroke-width:1.5;" width="114" x="258" y="271"/><ellipse cx="273" cy="287" fill="#ADD1B2" rx="11" ry="11" style="stroke:#A80036;stroke-width:1.0;"/><path d="M275,283.5 Q275.2031,283 275.4375,282.75 Q275.6719,282.5 275.9375,282.5 Q276.4063,282.5 276.7031,282.7813 Q277,283.0625 277,283.7188 L277,285.2813 Q277,285.9375 276.7188,286.2188 Q276.4375,286.5 276,286.5 Q275.6094,286.5 275.3594,286.3281 Q275.1094,286.1563 275,285.7031 Q274.9531,285.3906 274.7813,285.2188 Q274.4688,284.8906 273.9063,284.7031 Q273.3438,284.5 272.7813,284.5 Q272.0781,284.5 271.4844,284.7813 Q270.9063,285.0625 270.4531,285.6875 Q270,286.3125 270,287.1719 L270,288.0938 Q270,289.125 270.8438,289.8125 Q271.6875,290.5 273.1875,290.5 Q274.0781,290.5 274.7031,290.2969 Q275.0625,290.1875 275.4688,289.8281 Q275.7344,289.625 275.875,289.5625 Q276.0156,289.5 276.1875,289.5 Q276.5156,289.5 276.75,289.7656 Q277,290.0156 277,290.375 Q277,290.7188 276.6563,291.125 Q276.1563,291.7188 275.3594,292.0469 Q274.3125,292.5 273.0313,292.5 Q271.5313,292.5 270.3281,291.9063 Q269.3594,291.4375 268.6719,290.4219 Q268,289.4063 268,288.2031 L268,287.1094 Q268,285.8594 268.5938,284.7656 Q269.2031,283.6719 270.25,283.0938 Q271.3125,282.5 272.5,282.5 Q273.2188,282.5 273.8438,282.75 Q274.4688,283 275,283.5 Z " fill="#000000"/><text fill="#000000" font-family="sans-serif" font-size="12" lengthAdjust="spacing" textLength="82" x="287" y="291.9102">TestParameter</text><line style="stroke:#A80036;stroke-width:1.5;" x1="259" x2="371" y1="303" y2="303"/><line style="stroke:#A80036;stroke-width:1.5;" x1="259" x2="371" y1="311" y2="311"/><!--MD5=[1c357e7e7fdba398bcadd6e61afe49f5]
class ReferenceValue--><rect fill="#FEFECE" filter="url(#ftr04247wovlv)" height="48" id="ReferenceValue" style="stroke:#A80036;stroke-width:1.5;" width="120" x="27" y="418"/><ellipse cx="42" cy="434" fill="#ADD1B2" rx="11" ry="11" style="stroke:#A80036;stroke-width:1.0;"/><path d="M44,430.5 Q44.2031,430 44.4375,429.75 Q44.6719,429.5 44.9375,429.5 Q45.4063,429.5 45.7031,429.7813 Q46,430.0625 46,430.7188 L46,432.2813 Q46,432.9375 45.7188,433.2188 Q45.4375,433.5 45,433.5 Q44.6094,433.5 44.3594,433.3281 Q44.1094,433.1563 44,432.7031 Q43.9531,432.3906 43.7813,432.2188 Q43.4688,431.8906 42.9063,431.7031 Q42.3438,431.5 41.7813,431.5 Q41.0781,431.5 40.4844,431.7813 Q39.9063,432.0625 39.4531,432.6875 Q39,433.3125 39,434.1719 L39,435.0938 Q39,436.125 39.8438,436.8125 Q40.6875,437.5 42.1875,437.5 Q43.0781,437.5 43.7031,437.2969 Q44.0625,437.1875 44.4688,436.8281 Q44.7344,436.625 44.875,436.5625 Q45.0156,436.5 45.1875,436.5 Q45.5156,436.5 45.75,436.7656 Q46,437.0156 46,437.375 Q46,437.7188 45.6563,438.125 Q45.1563,438.7188 44.3594,439.0469 Q43.3125,439.5 42.0313,439.5 Q40.5313,439.5 39.3281,438.9063 Q38.3594,438.4375 37.6719,437.4219 Q37,436.4063 37,435.2031 L37,434.1094 Q37,432.8594 37.5938,431.7656 Q38.2031,430.6719 39.25,430.0938 Q40.3125,429.5 41.5,429.5 Q42.2188,429.5 42.8438,429.75 Q43.4688,430 44,430.5 Z " fill="#000000"/><text fill="#000000" font-family="sans-serif" font-size="12" lengthAdjust="spacing" textLength="88" x="56" y="438.9102">ReferenceValue</text><line style="stroke:#A80036;stroke-width:1.5;" x1="28" x2="146" y1="450" y2="450"/><line style="stroke:#A80036;stroke-width:1.5;" x1="28" x2="146" y1="458" y2="458"/><!--MD5=[9fa4ae489d9c314278f0bb08c0f69211]
class ReferenceValueModule--><rect fill="#FEFECE" filter="url(#ftr04247wovlv)" height="48" id="ReferenceValueModule" style="stroke:#A80036;stroke-width:1.5;" width="160" x="7" y="565"/><ellipse cx="22" cy="581" fill="#ADD1B2" rx="11" ry="11" style="stroke:#A80036;stroke-width:1.0;"/><path d="M24,577.5 Q24.2031,577 24.4375,576.75 Q24.6719,576.5 24.9375,576.5 Q25.4063,576.5 25.7031,576.7813 Q26,577.0625 26,577.7188 L26,579.2813 Q26,579.9375 25.7188,580.2188 Q25.4375,580.5 25,580.5 Q24.6094,580.5 24.3594,580.3281 Q24.1094,580.1563 24,579.7031 Q23.9531,579.3906 23.7813,579.2188 Q23.4688,578.8906 22.9063,578.7031 Q22.3438,578.5 21.7813,578.5 Q21.0781,578.5 20.4844,578.7813 Q19.9063,579.0625 19.4531,579.6875 Q19,580.3125 19,581.1719 L19,582.0938 Q19,583.125 19.8438,583.8125 Q20.6875,584.5 22.1875,584.5 Q23.0781,584.5 23.7031,584.2969 Q24.0625,584.1875 24.4688,583.8281 Q24.7344,583.625 24.875,583.5625 Q25.0156,583.5 25.1875,583.5 Q25.5156,583.5 25.75,583.7656 Q26,584.0156 26,584.375 Q26,584.7188 25.6563,585.125 Q25.1563,585.7188 24.3594,586.0469 Q23.3125,586.5 22.0313,586.5 Q20.5313,586.5 19.3281,585.9063 Q18.3594,585.4375 17.6719,584.4219 Q17,583.4063 17,582.2031 L17,581.1094 Q17,579.8594 17.5938,578.7656 Q18.2031,577.6719 19.25,577.0938 Q20.3125,576.5 21.5,576.5 Q22.2188,576.5 22.8438,576.75 Q23.4688,577 24,577.5 Z " fill="#000000"/><text fill="#000000" font-family="sans-serif" font-size="12" lengthAdjust="spacing" textLength="128" x="36" y="585.9102">ReferenceValueModule</text><line style="stroke:#A80036;stroke-width:1.5;" x1="8" x2="166" y1="597" y2="597"/><line style="stroke:#A80036;stroke-width:1.5;" x1="8" x2="166" y1="605" y2="605"/><!--MD5=[f24c888dadeb846430474fe80a58922b]
link Test to TestParameter--><path codeLine="30" d="M315,193.26 C315,221.95 315,251.14 315,270.66 " fill="none" id="Test-TestParameter" style="stroke:#A80036;stroke-width:1.0;"/><polygon fill="#000000" points="320,237.1758,322.9389,228.1307,317.0611,228.1307,320,237.1758" style="stroke:#000000;stroke-width:1.0;"/><text fill="#000000" font-family="sans-serif" font-size="13" lengthAdjust="spacing" textLength="32" x="329" y="237.4951">has a</text><text fill="#000000" font-family="sans-serif" font-size="13" lengthAdjust="spacing" textLength="7" x="307.7211" y="214.824">1</text><text fill="#000000" font-family="sans-serif" font-size="13" lengthAdjust="spacing" textLength="7" x="307.1469" y="260.3151">1</text><!--MD5=[0e00e25ac6b8c14659aaff2cf7e5df08]
link TestParameter to TestParameterResult--><path codeLine="31" d="M315,319.3 C315,340.19 315,371.41 315,397 " fill="none" id="TestParameter-TestParameterResult" style="stroke:#A80036;stroke-width:1.0;"/><polygon fill="#000000" points="320,363.1758,322.9389,354.1307,317.0611,354.1307,320,363.1758" style="stroke:#000000;stroke-width:1.0;"/><text fill="#000000" font-family="sans-serif" font-size="13" lengthAdjust="spacing" textLength="49" x="329" y="363.4951">contains</text><text fill="#000000" font-family="sans-serif" font-size="13" lengthAdjust="spacing" textLength="7" x="307.1906" y="340.3051">1</text><text fill="#000000" font-family="sans-serif" font-size="13" lengthAdjust="spacing" textLength="7" x="307.4422" y="386.1155">1</text><!--MD5=[72163acd41df4db10e2bb78c0e4b52d4]
link Test to Report--><path codeLine="32" d="M357.27,100 C394.85,100 449.13,100 484.24,100 " fill="none" id="Test-Report" style="stroke:#A80036;stroke-width:1.0;"/><polygon fill="#000000" points="384.25,88.1758,375.2049,85.2369,375.2049,91.1147,384.25,88.1758" style="stroke:#000000;stroke-width:1.0;"/><text fill="#000000" font-family="sans-serif" font-size="13" lengthAdjust="spacing" textLength="78" x="388.25" y="93.4951">associated to</text><text fill="#000000" font-family="sans-serif" font-size="13" lengthAdjust="spacing" textLength="7" x="365.1367" y="96.1194">1</text><text fill="#000000" font-family="sans-serif" font-size="13" lengthAdjust="spacing" textLength="7" x="469.3489" y="95.8983">1</text><!--MD5=[9ea131e34883d590a1cfd41d17f43241]
link Report to Diagnosis--><path codeLine="33" d="M553.74,100 C581.87,100 621.69,100 652.21,100 " fill="none" id="Report-Diagnosis" style="stroke:#A80036;stroke-width:1.0;"/><polygon fill="#000000" points="581,88.1758,571.9549,85.2369,571.9549,91.1147,581,88.1758" style="stroke:#000000;stroke-width:1.0;"/><text fill="#000000" font-family="sans-serif" font-size="13" lengthAdjust="spacing" textLength="49" x="585" y="93.4951">contains</text><text fill="#000000" font-family="sans-serif" font-size="13" lengthAdjust="spacing" textLength="7" x="561.627" y="95.8983">1</text><text fill="#000000" font-family="sans-serif" font-size="13" lengthAdjust="spacing" textLength="7" x="637.5138" y="96.2481">1</text><!--MD5=[2fc0f4084f299b8e83a57524f584a65e]
link ReferenceValue to TestParameterResult--><path codeLine="34" d="M147.2,442 C175.57,442 209.7,442 239.75,442 " fill="none" id="ReferenceValue-TestParameterResult" style="stroke:#A80036;stroke-width:1.0;"/><polygon fill="#000000" points="164.5,430.1758,173.5451,433.1147,173.5451,427.2369,164.5,430.1758" style="stroke:#000000;stroke-width:1.0;"/><text fill="#000000" font-family="sans-serif" font-size="13" lengthAdjust="spacing" textLength="43" x="178.5" y="435.4951">records</text><!--MD5=[be2d16a180f53fbaa095518283eadb42]
link ReferenceValue to ReferenceValueModule--><path codeLine="35" d="M87,466.3 C87,493.36 87,537.73 87,564.76 " fill="none" id="ReferenceValue-ReferenceValueModule" style="stroke:#A80036;stroke-width:1.0;"/><polygon fill="#000000" points="92,531.1758,94.9389,522.1307,89.0611,522.1307,92,531.1758" style="stroke:#000000;stroke-width:1.0;"/><text fill="#000000" font-family="sans-serif" font-size="13" lengthAdjust="spacing" textLength="65" x="101" y="531.4951">provided by</text><!--MD5=[b86ddb23f1f694ecbdb9d48ad70d5b8f]
@startuml

skinparam classAttributeIconSize 0

class Test {
-internalCode
-nhsCode
-createdAt
-designation
-dateAnalysis
-timeAnalysis
-dateDiagnosis
-timeDiagnosis
-dateValidation
-timeValidation
}

class Diagnosis

class Report {
-textBody
}

class TestParameterResult {
-createdAt
-value
-metric
}


Test "1"-down-"1" TestParameter: has a >
TestParameter "1"-down-"1" TestParameterResult: contains >
Test "1"-"1" Report: associated to >
Report "1"-"1" Diagnosis: contains >
TestParameterResult -left- ReferenceValue: records >
ReferenceValue -down- ReferenceValueModule: provided by >

@enduml

PlantUML version 1.2021.5(Sun Apr 25 12:20:28 BST 2021)
(GPL source distribution)
Java Runtime: OpenJDK Runtime Environment
JVM: Dynamic Code Evolution 64-Bit Server VM
Default Encoding: Cp1252
Language: pt
Country: PT
--></g></svg>