<?xml version="1.0" encoding="UTF-8" standalone="no"?><svg xmlns="http://www.w3.org/2000/svg" xmlns:xlink="http://www.w3.org/1999/xlink" contentScriptType="application/ecmascript" contentStyleType="text/css" height="1640px" preserveAspectRatio="none" style="width:1075px;height:1640px;" version="1.1" viewBox="0 0 1075 1640" width="1075.2px" zoomAndPan="magnify"><defs><filter height="300%" id="f13w687hstr8g4" width="300%" x="-1" y="-1"><feGaussianBlur result="blurOut" stdDeviation="1.6"/><feColorMatrix in="blurOut" result="blurOut2" type="matrix" values="0 0 0 0 0 0 0 0 0 0 0 0 0 0 0 0 0 0 .4 0"/><feOffset dx="3.2" dy="3.2" in="blurOut2" result="blurOut3"/><feBlend in="SourceGraphic" in2="blurOut3" mode="normal"/></filter></defs><g><!--MD5=[da547346deef918ea16944ba046651ef]
class Administrator--><rect codeLine="3" fill="#FEFECE" filter="url(#f13w687hstr8g4)" height="115.8813" id="Administrator" style="stroke:#A80036;stroke-width:1.2000000000000002;" width="84" x="911.272" y="1127.2"/><ellipse cx="923.272" cy="1140" fill="#ADD1B2" rx="8.8" ry="8.8" style="stroke:#A80036;stroke-width:0.8;"/><path d="M924.872,1137.2 Q925.0345,1136.8 925.222,1136.6 Q925.4095,1136.4 925.622,1136.4 Q925.997,1136.4 926.2345,1136.625 Q926.472,1136.85 926.472,1137.375 L926.472,1138.625 Q926.472,1139.15 926.247,1139.375 Q926.022,1139.6 925.672,1139.6 Q925.3595,1139.6 925.1595,1139.4625 Q924.9595,1139.325 924.872,1138.9625 Q924.8345,1138.7125 924.697,1138.575 Q924.447,1138.3125 923.997,1138.1625 Q923.547,1138 923.097,1138 Q922.5345,1138 922.0595,1138.225 Q921.597,1138.45 921.2345,1138.95 Q920.872,1139.45 920.872,1140.1375 L920.872,1140.875 Q920.872,1141.7 921.547,1142.25 Q922.222,1142.8 923.422,1142.8 Q924.1345,1142.8 924.6345,1142.6375 Q924.922,1142.55 925.247,1142.2625 Q925.4595,1142.1 925.572,1142.05 Q925.6845,1142 925.822,1142 Q926.0845,1142 926.272,1142.2125 Q926.472,1142.4125 926.472,1142.7 Q926.472,1142.975 926.197,1143.3 Q925.797,1143.775 925.1595,1144.0375 Q924.322,1144.4 923.297,1144.4 Q922.097,1144.4 921.1345,1143.925 Q920.3595,1143.55 919.8095,1142.7375 Q919.272,1141.925 919.272,1140.9625 L919.272,1140.0875 Q919.272,1139.0875 919.747,1138.2125 Q920.2345,1137.3375 921.072,1136.875 Q921.922,1136.4 922.872,1136.4 Q923.447,1136.4 923.947,1136.6 Q924.447,1136.8 924.872,1137.2 Z " fill="#000000"/><text fill="#000000" font-family="sans-serif" font-size="9.6" lengthAdjust="spacing" textLength="58.4" x="934.472" y="1143.9281">Administrator</text><line style="stroke:#A80036;stroke-width:1.2000000000000002;" x1="912.072" x2="994.472" y1="1152.8" y2="1152.8"/><text fill="#000000" font-family="sans-serif" font-size="8.8" lengthAdjust="spacing" textLength="47.2" x="916.072" y="1165.1352">-employeeID</text><text fill="#000000" font-family="sans-serif" font-size="8.8" lengthAdjust="spacing" textLength="57.6" x="916.072" y="1176.2039">-organizationID</text><text fill="#000000" font-family="sans-serif" font-size="8.8" lengthAdjust="spacing" textLength="24" x="916.072" y="1187.2727">-name</text><text fill="#000000" font-family="sans-serif" font-size="8.8" lengthAdjust="spacing" textLength="35.2" x="916.072" y="1198.3414">-address</text><text fill="#000000" font-family="sans-serif" font-size="8.8" lengthAdjust="spacing" textLength="56.8" x="916.072" y="1209.4102">-phoneNumber</text><text fill="#000000" font-family="sans-serif" font-size="8.8" lengthAdjust="spacing" textLength="22.4" x="916.072" y="1220.4789">-email</text><text fill="#000000" font-family="sans-serif" font-size="8.8" lengthAdjust="spacing" textLength="40" x="916.072" y="1231.5477">-SOCcode</text><line style="stroke:#A80036;stroke-width:1.2000000000000002;" x1="912.072" x2="994.472" y1="1236.6813" y2="1236.6813"/><!--MD5=[a96594a83e2ecdc78cbf17c2ddf01934]
class Category--><rect codeLine="12" fill="#FEFECE" filter="url(#f13w687hstr8g4)" height="71.6063" id="Category" style="stroke:#A80036;stroke-width:1.2000000000000002;" width="64.8" x="905.672" y="1379.2"/><ellipse cx="917.672" cy="1392" fill="#ADD1B2" rx="8.8" ry="8.8" style="stroke:#A80036;stroke-width:0.8;"/><path d="M919.272,1389.2 Q919.4345,1388.8 919.622,1388.6 Q919.8095,1388.4 920.022,1388.4 Q920.397,1388.4 920.6345,1388.625 Q920.872,1388.85 920.872,1389.375 L920.872,1390.625 Q920.872,1391.15 920.647,1391.375 Q920.422,1391.6 920.072,1391.6 Q919.7595,1391.6 919.5595,1391.4625 Q919.3595,1391.325 919.272,1390.9625 Q919.2345,1390.7125 919.097,1390.575 Q918.847,1390.3125 918.397,1390.1625 Q917.947,1390 917.497,1390 Q916.9345,1390 916.4595,1390.225 Q915.997,1390.45 915.6345,1390.95 Q915.272,1391.45 915.272,1392.1375 L915.272,1392.875 Q915.272,1393.7 915.947,1394.25 Q916.622,1394.8 917.822,1394.8 Q918.5345,1394.8 919.0345,1394.6375 Q919.322,1394.55 919.647,1394.2625 Q919.8595,1394.1 919.972,1394.05 Q920.0845,1394 920.222,1394 Q920.4845,1394 920.672,1394.2125 Q920.872,1394.4125 920.872,1394.7 Q920.872,1394.975 920.597,1395.3 Q920.197,1395.775 919.5595,1396.0375 Q918.722,1396.4 917.697,1396.4 Q916.497,1396.4 915.5345,1395.925 Q914.7595,1395.55 914.2095,1394.7375 Q913.672,1393.925 913.672,1392.9625 L913.672,1392.0875 Q913.672,1391.0875 914.147,1390.2125 Q914.6345,1389.3375 915.472,1388.875 Q916.322,1388.4 917.272,1388.4 Q917.847,1388.4 918.347,1388.6 Q918.847,1388.8 919.272,1389.2 Z " fill="#000000"/><text fill="#000000" font-family="sans-serif" font-size="9.6" lengthAdjust="spacing" textLength="39.2" x="928.872" y="1395.9281">Category</text><line style="stroke:#A80036;stroke-width:1.2000000000000002;" x1="906.472" x2="969.672" y1="1404.8" y2="1404.8"/><text fill="#000000" font-family="sans-serif" font-size="8.8" lengthAdjust="spacing" textLength="22.4" x="910.472" y="1417.1352">-code</text><text fill="#000000" font-family="sans-serif" font-size="8.8" lengthAdjust="spacing" textLength="45.6" x="910.472" y="1428.2039">-description</text><text fill="#000000" font-family="sans-serif" font-size="8.8" lengthAdjust="spacing" textLength="24.8" x="910.472" y="1439.2727">-nhsID</text><line style="stroke:#A80036;stroke-width:1.2000000000000002;" x1="906.472" x2="969.672" y1="1444.4063" y2="1444.4063"/><!--MD5=[a64badb107d3691f2dc6af242cdbeb21]
class ChemicalLaboratory--><rect codeLine="17" fill="#FEFECE" filter="url(#f13w687hstr8g4)" height="82.675" id="ChemicalLaboratory" style="stroke:#A80036;stroke-width:1.2000000000000002;" width="114.4" x="237.672" y="235.2"/><ellipse cx="249.672" cy="248" fill="#ADD1B2" rx="8.8" ry="8.8" style="stroke:#A80036;stroke-width:0.8;"/><path d="M251.272,245.2 Q251.4345,244.8 251.622,244.6 Q251.8095,244.4 252.022,244.4 Q252.397,244.4 252.6345,244.625 Q252.872,244.85 252.872,245.375 L252.872,246.625 Q252.872,247.15 252.647,247.375 Q252.422,247.6 252.072,247.6 Q251.7595,247.6 251.5595,247.4625 Q251.3595,247.325 251.272,246.9625 Q251.2345,246.7125 251.097,246.575 Q250.847,246.3125 250.397,246.1625 Q249.947,246 249.497,246 Q248.9345,246 248.4595,246.225 Q247.997,246.45 247.6345,246.95 Q247.272,247.45 247.272,248.1375 L247.272,248.875 Q247.272,249.7 247.947,250.25 Q248.622,250.8 249.822,250.8 Q250.5345,250.8 251.0345,250.6375 Q251.322,250.55 251.647,250.2625 Q251.8595,250.1 251.972,250.05 Q252.0845,250 252.222,250 Q252.4845,250 252.672,250.2125 Q252.872,250.4125 252.872,250.7 Q252.872,250.975 252.597,251.3 Q252.197,251.775 251.5595,252.0375 Q250.722,252.4 249.697,252.4 Q248.497,252.4 247.5345,251.925 Q246.7595,251.55 246.2095,250.7375 Q245.672,249.925 245.672,248.9625 L245.672,248.0875 Q245.672,247.0875 246.147,246.2125 Q246.6345,245.3375 247.472,244.875 Q248.322,244.4 249.272,244.4 Q249.847,244.4 250.347,244.6 Q250.847,244.8 251.272,245.2 Z " fill="#000000"/><text fill="#000000" font-family="sans-serif" font-size="9.6" lengthAdjust="spacing" textLength="88.8" x="260.872" y="251.9281">ChemicalLaboratory</text><line style="stroke:#A80036;stroke-width:1.2000000000000002;" x1="238.472" x2="351.272" y1="260.8" y2="260.8"/><text fill="#000000" font-family="sans-serif" font-size="8.8" lengthAdjust="spacing" textLength="24" x="242.472" y="273.1352">-name</text><text fill="#000000" font-family="sans-serif" font-size="8.8" lengthAdjust="spacing" textLength="35.2" x="242.472" y="284.2039">-address</text><text fill="#000000" font-family="sans-serif" font-size="8.8" lengthAdjust="spacing" textLength="56.8" x="242.472" y="295.2727">-phoneNumber</text><text fill="#000000" font-family="sans-serif" font-size="8.8" lengthAdjust="spacing" textLength="15.2" x="242.472" y="306.3414">-TIN</text><line style="stroke:#A80036;stroke-width:1.2000000000000002;" x1="238.472" x2="351.272" y1="311.475" y2="311.475"/><!--MD5=[ed6624c6556d5e7b1bd23032162d20b7]
class Client--><rect codeLine="23" fill="#FEFECE" filter="url(#f13w687hstr8g4)" height="126.95" id="Client" style="stroke:#A80036;stroke-width:1.2000000000000002;" width="66.4" x="77.672" y="786.4"/><ellipse cx="96.512" cy="799.2" fill="#ADD1B2" rx="8.8" ry="8.8" style="stroke:#A80036;stroke-width:0.8;"/><path d="M98.112,796.4 Q98.2745,796 98.462,795.8 Q98.6495,795.6 98.862,795.6 Q99.237,795.6 99.4745,795.825 Q99.712,796.05 99.712,796.575 L99.712,797.825 Q99.712,798.35 99.487,798.575 Q99.262,798.8 98.912,798.8 Q98.5995,798.8 98.3995,798.6625 Q98.1995,798.525 98.112,798.1625 Q98.0745,797.9125 97.937,797.775 Q97.687,797.5125 97.237,797.3625 Q96.787,797.2 96.337,797.2 Q95.7745,797.2 95.2995,797.425 Q94.837,797.65 94.4745,798.15 Q94.112,798.65 94.112,799.3375 L94.112,800.075 Q94.112,800.9 94.787,801.45 Q95.462,802 96.662,802 Q97.3745,802 97.8745,801.8375 Q98.162,801.75 98.487,801.4625 Q98.6995,801.3 98.812,801.25 Q98.9245,801.2 99.062,801.2 Q99.3245,801.2 99.512,801.4125 Q99.712,801.6125 99.712,801.9 Q99.712,802.175 99.437,802.5 Q99.037,802.975 98.3995,803.2375 Q97.562,803.6 96.537,803.6 Q95.337,803.6 94.3745,803.125 Q93.5995,802.75 93.0495,801.9375 Q92.512,801.125 92.512,800.1625 L92.512,799.2875 Q92.512,798.2875 92.987,797.4125 Q93.4745,796.5375 94.312,796.075 Q95.162,795.6 96.112,795.6 Q96.687,795.6 97.187,795.8 Q97.687,796 98.112,796.4 Z " fill="#000000"/><text fill="#000000" font-family="sans-serif" font-size="9.6" lengthAdjust="spacing" textLength="25.6" x="109.232" y="803.1281">Client</text><line style="stroke:#A80036;stroke-width:1.2000000000000002;" x1="78.472" x2="143.272" y1="812" y2="812"/><text fill="#000000" font-family="sans-serif" font-size="8.8" lengthAdjust="spacing" textLength="24" x="82.472" y="824.3352">-name</text><text fill="#000000" font-family="sans-serif" font-size="8.8" lengthAdjust="spacing" textLength="50.4" x="82.472" y="835.4039">-cardNumber</text><text fill="#000000" font-family="sans-serif" font-size="8.8" lengthAdjust="spacing" textLength="37.6" x="82.472" y="846.4727">-birthDate</text><text fill="#000000" font-family="sans-serif" font-size="8.8" lengthAdjust="spacing" textLength="17.6" x="82.472" y="857.5414">-sex</text><text fill="#000000" font-family="sans-serif" font-size="8.8" lengthAdjust="spacing" textLength="24.8" x="82.472" y="868.6102">-nhsID</text><text fill="#000000" font-family="sans-serif" font-size="8.8" lengthAdjust="spacing" textLength="14.4" x="82.472" y="879.6789">-TIF</text><text fill="#000000" font-family="sans-serif" font-size="8.8" lengthAdjust="spacing" textLength="56.8" x="82.472" y="890.7477">-phoneNumber</text><text fill="#000000" font-family="sans-serif" font-size="8.8" lengthAdjust="spacing" textLength="22.4" x="82.472" y="901.8164">-email</text><line style="stroke:#A80036;stroke-width:1.2000000000000002;" x1="78.472" x2="143.272" y1="906.95" y2="906.95"/><!--MD5=[1934a092c0e7d4da7dc7075b6f4b6b03]
class ClinicalAnalysisLaboratory--><rect codeLine="33" fill="#FEFECE" filter="url(#f13w687hstr8g4)" height="93.7438" id="ClinicalAnalysisLaboratory" style="stroke:#A80036;stroke-width:1.2000000000000002;" width="141.6" x="689.672" y="229.6"/><ellipse cx="701.672" cy="242.4" fill="#ADD1B2" rx="8.8" ry="8.8" style="stroke:#A80036;stroke-width:0.8;"/><path d="M703.272,239.6 Q703.4345,239.2 703.622,239 Q703.8095,238.8 704.022,238.8 Q704.397,238.8 704.6345,239.025 Q704.872,239.25 704.872,239.775 L704.872,241.025 Q704.872,241.55 704.647,241.775 Q704.422,242 704.072,242 Q703.7595,242 703.5595,241.8625 Q703.3595,241.725 703.272,241.3625 Q703.2345,241.1125 703.097,240.975 Q702.847,240.7125 702.397,240.5625 Q701.947,240.4 701.497,240.4 Q700.9345,240.4 700.4595,240.625 Q699.997,240.85 699.6345,241.35 Q699.272,241.85 699.272,242.5375 L699.272,243.275 Q699.272,244.1 699.947,244.65 Q700.622,245.2 701.822,245.2 Q702.5345,245.2 703.0345,245.0375 Q703.322,244.95 703.647,244.6625 Q703.8595,244.5 703.972,244.45 Q704.0845,244.4 704.222,244.4 Q704.4845,244.4 704.672,244.6125 Q704.872,244.8125 704.872,245.1 Q704.872,245.375 704.597,245.7 Q704.197,246.175 703.5595,246.4375 Q702.722,246.8 701.697,246.8 Q700.497,246.8 699.5345,246.325 Q698.7595,245.95 698.2095,245.1375 Q697.672,244.325 697.672,243.3625 L697.672,242.4875 Q697.672,241.4875 698.147,240.6125 Q698.6345,239.7375 699.472,239.275 Q700.322,238.8 701.272,238.8 Q701.847,238.8 702.347,239 Q702.847,239.2 703.272,239.6 Z " fill="#000000"/><text fill="#000000" font-family="sans-serif" font-size="9.6" lengthAdjust="spacing" textLength="116" x="712.872" y="246.3281">ClinicalAnalysisLaboratory</text><line style="stroke:#A80036;stroke-width:1.2000000000000002;" x1="690.472" x2="830.472" y1="255.2" y2="255.2"/><text fill="#000000" font-family="sans-serif" font-size="8.8" lengthAdjust="spacing" textLength="24" x="694.472" y="267.5352">-name</text><text fill="#000000" font-family="sans-serif" font-size="8.8" lengthAdjust="spacing" textLength="35.2" x="694.472" y="278.6039">-address</text><text fill="#000000" font-family="sans-serif" font-size="8.8" lengthAdjust="spacing" textLength="56.8" x="694.472" y="289.6727">-phoneNumber</text><text fill="#000000" font-family="sans-serif" font-size="8.8" lengthAdjust="spacing" textLength="15.2" x="694.472" y="300.7414">-TIN</text><text fill="#000000" font-family="sans-serif" font-size="8.8" lengthAdjust="spacing" textLength="49.6" x="694.472" y="311.8102">-laboratoryID</text><line style="stroke:#A80036;stroke-width:1.2000000000000002;" x1="690.472" x2="830.472" y1="316.9438" y2="316.9438"/><!--MD5=[012ee2a8bf3ae2b319009b06f951c2e5]
class ClinicalChemistryTechnologist--><rect codeLine="40" fill="#FEFECE" filter="url(#f13w687hstr8g4)" height="115.8813" id="ClinicalChemistryTechnologist" style="stroke:#A80036;stroke-width:1.2000000000000002;" width="160" x="172.472" y="981.6"/><ellipse cx="184.472" cy="994.4" fill="#ADD1B2" rx="8.8" ry="8.8" style="stroke:#A80036;stroke-width:0.8;"/><path d="M186.072,991.6 Q186.2345,991.2 186.422,991 Q186.6095,990.8 186.822,990.8 Q187.197,990.8 187.4345,991.025 Q187.672,991.25 187.672,991.775 L187.672,993.025 Q187.672,993.55 187.447,993.775 Q187.222,994 186.872,994 Q186.5595,994 186.3595,993.8625 Q186.1595,993.725 186.072,993.3625 Q186.0345,993.1125 185.897,992.975 Q185.647,992.7125 185.197,992.5625 Q184.747,992.4 184.297,992.4 Q183.7345,992.4 183.2595,992.625 Q182.797,992.85 182.4345,993.35 Q182.072,993.85 182.072,994.5375 L182.072,995.275 Q182.072,996.1 182.747,996.65 Q183.422,997.2 184.622,997.2 Q185.3345,997.2 185.8345,997.0375 Q186.122,996.95 186.447,996.6625 Q186.6595,996.5 186.772,996.45 Q186.8845,996.4 187.022,996.4 Q187.2845,996.4 187.472,996.6125 Q187.672,996.8125 187.672,997.1 Q187.672,997.375 187.397,997.7 Q186.997,998.175 186.3595,998.4375 Q185.522,998.8 184.497,998.8 Q183.297,998.8 182.3345,998.325 Q181.5595,997.95 181.0095,997.1375 Q180.472,996.325 180.472,995.3625 L180.472,994.4875 Q180.472,993.4875 180.947,992.6125 Q181.4345,991.7375 182.272,991.275 Q183.122,990.8 184.072,990.8 Q184.647,990.8 185.147,991 Q185.647,991.2 186.072,991.6 Z " fill="#000000"/><text fill="#000000" font-family="sans-serif" font-size="9.6" lengthAdjust="spacing" textLength="134.4" x="195.672" y="998.3281">ClinicalChemistryTechnologist</text><line style="stroke:#A80036;stroke-width:1.2000000000000002;" x1="173.272" x2="331.672" y1="1007.2" y2="1007.2"/><text fill="#000000" font-family="sans-serif" font-size="8.8" lengthAdjust="spacing" textLength="47.2" x="177.272" y="1019.5352">-employeeID</text><text fill="#000000" font-family="sans-serif" font-size="8.8" lengthAdjust="spacing" textLength="57.6" x="177.272" y="1030.6039">-organizationID</text><text fill="#000000" font-family="sans-serif" font-size="8.8" lengthAdjust="spacing" textLength="24" x="177.272" y="1041.6727">-name</text><text fill="#000000" font-family="sans-serif" font-size="8.8" lengthAdjust="spacing" textLength="35.2" x="177.272" y="1052.7414">-address</text><text fill="#000000" font-family="sans-serif" font-size="8.8" lengthAdjust="spacing" textLength="56.8" x="177.272" y="1063.8102">-phoneNumber</text><text fill="#000000" font-family="sans-serif" font-size="8.8" lengthAdjust="spacing" textLength="22.4" x="177.272" y="1074.8789">-email</text><text fill="#000000" font-family="sans-serif" font-size="8.8" lengthAdjust="spacing" textLength="40" x="177.272" y="1085.9477">-SOCcode</text><line style="stroke:#A80036;stroke-width:1.2000000000000002;" x1="173.272" x2="331.672" y1="1091.0813" y2="1091.0813"/><!--MD5=[02e4b9b7573f1156f41e60aa5b4e25a4]
class Company--><rect codeLine="49" fill="#FEFECE" filter="url(#f13w687hstr8g4)" height="49.4688" id="Company" style="stroke:#A80036;stroke-width:1.2000000000000002;" width="68" x="840.072" y="106.4"/><ellipse cx="852.072" cy="119.2" fill="#ADD1B2" rx="8.8" ry="8.8" style="stroke:#A80036;stroke-width:0.8;"/><path d="M853.672,116.4 Q853.8345,116 854.022,115.8 Q854.2095,115.6 854.422,115.6 Q854.797,115.6 855.0345,115.825 Q855.272,116.05 855.272,116.575 L855.272,117.825 Q855.272,118.35 855.047,118.575 Q854.822,118.8 854.472,118.8 Q854.1595,118.8 853.9595,118.6625 Q853.7595,118.525 853.672,118.1625 Q853.6345,117.9125 853.497,117.775 Q853.247,117.5125 852.797,117.3625 Q852.347,117.2 851.897,117.2 Q851.3345,117.2 850.8595,117.425 Q850.397,117.65 850.0345,118.15 Q849.672,118.65 849.672,119.3375 L849.672,120.075 Q849.672,120.9 850.347,121.45 Q851.022,122 852.222,122 Q852.9345,122 853.4345,121.8375 Q853.722,121.75 854.047,121.4625 Q854.2595,121.3 854.372,121.25 Q854.4845,121.2 854.622,121.2 Q854.8845,121.2 855.072,121.4125 Q855.272,121.6125 855.272,121.9 Q855.272,122.175 854.997,122.5 Q854.597,122.975 853.9595,123.2375 Q853.122,123.6 852.097,123.6 Q850.897,123.6 849.9345,123.125 Q849.1595,122.75 848.6095,121.9375 Q848.072,121.125 848.072,120.1625 L848.072,119.2875 Q848.072,118.2875 848.547,117.4125 Q849.0345,116.5375 849.872,116.075 Q850.722,115.6 851.672,115.6 Q852.247,115.6 852.747,115.8 Q853.247,116 853.672,116.4 Z " fill="#000000"/><text fill="#000000" font-family="sans-serif" font-size="9.6" lengthAdjust="spacing" textLength="42.4" x="863.272" y="123.1281">Company</text><line style="stroke:#A80036;stroke-width:1.2000000000000002;" x1="840.872" x2="907.272" y1="132" y2="132"/><text fill="#000000" font-family="sans-serif" font-size="8.8" lengthAdjust="spacing" textLength="47.2" x="844.872" y="144.3352">-designation</text><line style="stroke:#A80036;stroke-width:1.2000000000000002;" x1="840.872" x2="907.272" y1="149.4688" y2="149.4688"/><!--MD5=[10d06bcee75aaf74ab8f6040820ceef2]
class Diagnosis--><rect codeLine="52" fill="#FEFECE" filter="url(#f13w687hstr8g4)" height="38.4" id="Diagnosis" style="stroke:#A80036;stroke-width:1.2000000000000002;" width="71.2" x="426.472" y="1396"/><ellipse cx="438.472" cy="1408.8" fill="#ADD1B2" rx="8.8" ry="8.8" style="stroke:#A80036;stroke-width:0.8;"/><path d="M440.072,1406 Q440.2345,1405.6 440.422,1405.4 Q440.6095,1405.2 440.822,1405.2 Q441.197,1405.2 441.4345,1405.425 Q441.672,1405.65 441.672,1406.175 L441.672,1407.425 Q441.672,1407.95 441.447,1408.175 Q441.222,1408.4 440.872,1408.4 Q440.5595,1408.4 440.3595,1408.2625 Q440.1595,1408.125 440.072,1407.7625 Q440.0345,1407.5125 439.897,1407.375 Q439.647,1407.1125 439.197,1406.9625 Q438.747,1406.8 438.297,1406.8 Q437.7345,1406.8 437.2595,1407.025 Q436.797,1407.25 436.4345,1407.75 Q436.072,1408.25 436.072,1408.9375 L436.072,1409.675 Q436.072,1410.5 436.747,1411.05 Q437.422,1411.6 438.622,1411.6 Q439.3345,1411.6 439.8345,1411.4375 Q440.122,1411.35 440.447,1411.0625 Q440.6595,1410.9 440.772,1410.85 Q440.8845,1410.8 441.022,1410.8 Q441.2845,1410.8 441.472,1411.0125 Q441.672,1411.2125 441.672,1411.5 Q441.672,1411.775 441.397,1412.1 Q440.997,1412.575 440.3595,1412.8375 Q439.522,1413.2 438.497,1413.2 Q437.297,1413.2 436.3345,1412.725 Q435.5595,1412.35 435.0095,1411.5375 Q434.472,1410.725 434.472,1409.7625 L434.472,1408.8875 Q434.472,1407.8875 434.947,1407.0125 Q435.4345,1406.1375 436.272,1405.675 Q437.122,1405.2 438.072,1405.2 Q438.647,1405.2 439.147,1405.4 Q439.647,1405.6 440.072,1406 Z " fill="#000000"/><text fill="#000000" font-family="sans-serif" font-size="9.6" lengthAdjust="spacing" textLength="45.6" x="449.672" y="1412.7281">Diagnosis</text><line style="stroke:#A80036;stroke-width:1.2000000000000002;" x1="427.272" x2="496.872" y1="1421.6" y2="1421.6"/><line style="stroke:#A80036;stroke-width:1.2000000000000002;" x1="427.272" x2="496.872" y1="1428" y2="1428"/><!--MD5=[a999c1570c205a2156b04a15307bc1ff]
class LabOrder--><rect codeLine="53" fill="#FEFECE" filter="url(#f13w687hstr8g4)" height="60.5375" id="LabOrder" style="stroke:#A80036;stroke-width:1.2000000000000002;" width="67.2" x="77.272" y="1009.2"/><ellipse cx="89.272" cy="1022" fill="#ADD1B2" rx="8.8" ry="8.8" style="stroke:#A80036;stroke-width:0.8;"/><path d="M90.872,1019.2 Q91.0345,1018.8 91.222,1018.6 Q91.4095,1018.4 91.622,1018.4 Q91.997,1018.4 92.2345,1018.625 Q92.472,1018.85 92.472,1019.375 L92.472,1020.625 Q92.472,1021.15 92.247,1021.375 Q92.022,1021.6 91.672,1021.6 Q91.3595,1021.6 91.1595,1021.4625 Q90.9595,1021.325 90.872,1020.9625 Q90.8345,1020.7125 90.697,1020.575 Q90.447,1020.3125 89.997,1020.1625 Q89.547,1020 89.097,1020 Q88.5345,1020 88.0595,1020.225 Q87.597,1020.45 87.2345,1020.95 Q86.872,1021.45 86.872,1022.1375 L86.872,1022.875 Q86.872,1023.7 87.547,1024.25 Q88.222,1024.8 89.422,1024.8 Q90.1345,1024.8 90.6345,1024.6375 Q90.922,1024.55 91.247,1024.2625 Q91.4595,1024.1 91.572,1024.05 Q91.6845,1024 91.822,1024 Q92.0845,1024 92.272,1024.2125 Q92.472,1024.4125 92.472,1024.7 Q92.472,1024.975 92.197,1025.3 Q91.797,1025.775 91.1595,1026.0375 Q90.322,1026.4 89.297,1026.4 Q88.097,1026.4 87.1345,1025.925 Q86.3595,1025.55 85.8095,1024.7375 Q85.272,1023.925 85.272,1022.9625 L85.272,1022.0875 Q85.272,1021.0875 85.747,1020.2125 Q86.2345,1019.3375 87.072,1018.875 Q87.922,1018.4 88.872,1018.4 Q89.447,1018.4 89.947,1018.6 Q90.447,1018.8 90.872,1019.2 Z " fill="#000000"/><text fill="#000000" font-family="sans-serif" font-size="9.6" lengthAdjust="spacing" textLength="41.6" x="100.472" y="1025.9281">LabOrder</text><line style="stroke:#A80036;stroke-width:1.2000000000000002;" x1="78.072" x2="143.672" y1="1034.8" y2="1034.8"/><text fill="#000000" font-family="sans-serif" font-size="8.8" lengthAdjust="spacing" textLength="36.8" x="82.072" y="1047.1352">-testType</text><text fill="#000000" font-family="sans-serif" font-size="8.8" lengthAdjust="spacing" textLength="47.2" x="82.072" y="1058.2039">-parameters</text><line style="stroke:#A80036;stroke-width:1.2000000000000002;" x1="78.072" x2="143.672" y1="1063.3375" y2="1063.3375"/><!--MD5=[052425de1c0eb6cc1c1b48342b0bb88f]
class LaboratoryCoordinator--><rect codeLine="57" fill="#FEFECE" filter="url(#f13w687hstr8g4)" height="115.8813" id="LaboratoryCoordinator" style="stroke:#A80036;stroke-width:1.2000000000000002;" width="124" x="300.872" y="1513.6"/><ellipse cx="312.872" cy="1526.4" fill="#ADD1B2" rx="8.8" ry="8.8" style="stroke:#A80036;stroke-width:0.8;"/><path d="M314.472,1523.6 Q314.6345,1523.2 314.822,1523 Q315.0095,1522.8 315.222,1522.8 Q315.597,1522.8 315.8345,1523.025 Q316.072,1523.25 316.072,1523.775 L316.072,1525.025 Q316.072,1525.55 315.847,1525.775 Q315.622,1526 315.272,1526 Q314.9595,1526 314.7595,1525.8625 Q314.5595,1525.725 314.472,1525.3625 Q314.4345,1525.1125 314.297,1524.975 Q314.047,1524.7125 313.597,1524.5625 Q313.147,1524.4 312.697,1524.4 Q312.1345,1524.4 311.6595,1524.625 Q311.197,1524.85 310.8345,1525.35 Q310.472,1525.85 310.472,1526.5375 L310.472,1527.275 Q310.472,1528.1 311.147,1528.65 Q311.822,1529.2 313.022,1529.2 Q313.7345,1529.2 314.2345,1529.0375 Q314.522,1528.95 314.847,1528.6625 Q315.0595,1528.5 315.172,1528.45 Q315.2845,1528.4 315.422,1528.4 Q315.6845,1528.4 315.872,1528.6125 Q316.072,1528.8125 316.072,1529.1 Q316.072,1529.375 315.797,1529.7 Q315.397,1530.175 314.7595,1530.4375 Q313.922,1530.8 312.897,1530.8 Q311.697,1530.8 310.7345,1530.325 Q309.9595,1529.95 309.4095,1529.1375 Q308.872,1528.325 308.872,1527.3625 L308.872,1526.4875 Q308.872,1525.4875 309.347,1524.6125 Q309.8345,1523.7375 310.672,1523.275 Q311.522,1522.8 312.472,1522.8 Q313.047,1522.8 313.547,1523 Q314.047,1523.2 314.472,1523.6 Z " fill="#000000"/><text fill="#000000" font-family="sans-serif" font-size="9.6" lengthAdjust="spacing" textLength="98.4" x="324.072" y="1530.3281">LaboratoryCoordinator</text><line style="stroke:#A80036;stroke-width:1.2000000000000002;" x1="301.672" x2="424.072" y1="1539.2" y2="1539.2"/><text fill="#000000" font-family="sans-serif" font-size="8.8" lengthAdjust="spacing" textLength="47.2" x="305.672" y="1551.5352">-employeeID</text><text fill="#000000" font-family="sans-serif" font-size="8.8" lengthAdjust="spacing" textLength="57.6" x="305.672" y="1562.6039">-organizationID</text><text fill="#000000" font-family="sans-serif" font-size="8.8" lengthAdjust="spacing" textLength="24" x="305.672" y="1573.6727">-name</text><text fill="#000000" font-family="sans-serif" font-size="8.8" lengthAdjust="spacing" textLength="35.2" x="305.672" y="1584.7414">-address</text><text fill="#000000" font-family="sans-serif" font-size="8.8" lengthAdjust="spacing" textLength="56.8" x="305.672" y="1595.8102">-phoneNumber</text><text fill="#000000" font-family="sans-serif" font-size="8.8" lengthAdjust="spacing" textLength="22.4" x="305.672" y="1606.8789">-email</text><text fill="#000000" font-family="sans-serif" font-size="8.8" lengthAdjust="spacing" textLength="40" x="305.672" y="1617.9477">-SOCcode</text><line style="stroke:#A80036;stroke-width:1.2000000000000002;" x1="301.672" x2="424.072" y1="1623.0813" y2="1623.0813"/><!--MD5=[01931d41e78f8996acd44f6f0fd8de28]
class MedicalLabTechnician--><rect codeLine="66" fill="#FEFECE" filter="url(#f13w687hstr8g4)" height="115.8813" id="MedicalLabTechnician" style="stroke:#A80036;stroke-width:1.2000000000000002;" width="124" x="380.072" y="218.4"/><ellipse cx="392.072" cy="231.2" fill="#ADD1B2" rx="8.8" ry="8.8" style="stroke:#A80036;stroke-width:0.8;"/><path d="M393.672,228.4 Q393.8345,228 394.022,227.8 Q394.2095,227.6 394.422,227.6 Q394.797,227.6 395.0345,227.825 Q395.272,228.05 395.272,228.575 L395.272,229.825 Q395.272,230.35 395.047,230.575 Q394.822,230.8 394.472,230.8 Q394.1595,230.8 393.9595,230.6625 Q393.7595,230.525 393.672,230.1625 Q393.6345,229.9125 393.497,229.775 Q393.247,229.5125 392.797,229.3625 Q392.347,229.2 391.897,229.2 Q391.3345,229.2 390.8595,229.425 Q390.397,229.65 390.0345,230.15 Q389.672,230.65 389.672,231.3375 L389.672,232.075 Q389.672,232.9 390.347,233.45 Q391.022,234 392.222,234 Q392.9345,234 393.4345,233.8375 Q393.722,233.75 394.047,233.4625 Q394.2595,233.3 394.372,233.25 Q394.4845,233.2 394.622,233.2 Q394.8845,233.2 395.072,233.4125 Q395.272,233.6125 395.272,233.9 Q395.272,234.175 394.997,234.5 Q394.597,234.975 393.9595,235.2375 Q393.122,235.6 392.097,235.6 Q390.897,235.6 389.9345,235.125 Q389.1595,234.75 388.6095,233.9375 Q388.072,233.125 388.072,232.1625 L388.072,231.2875 Q388.072,230.2875 388.547,229.4125 Q389.0345,228.5375 389.872,228.075 Q390.722,227.6 391.672,227.6 Q392.247,227.6 392.747,227.8 Q393.247,228 393.672,228.4 Z " fill="#000000"/><text fill="#000000" font-family="sans-serif" font-size="9.6" lengthAdjust="spacing" textLength="98.4" x="403.272" y="235.1281">MedicalLabTechnician</text><line style="stroke:#A80036;stroke-width:1.2000000000000002;" x1="380.872" x2="503.272" y1="244" y2="244"/><text fill="#000000" font-family="sans-serif" font-size="8.8" lengthAdjust="spacing" textLength="47.2" x="384.872" y="256.3352">-employeeID</text><text fill="#000000" font-family="sans-serif" font-size="8.8" lengthAdjust="spacing" textLength="57.6" x="384.872" y="267.4039">-organizationID</text><text fill="#000000" font-family="sans-serif" font-size="8.8" lengthAdjust="spacing" textLength="24" x="384.872" y="278.4727">-name</text><text fill="#000000" font-family="sans-serif" font-size="8.8" lengthAdjust="spacing" textLength="35.2" x="384.872" y="289.5414">-address</text><text fill="#000000" font-family="sans-serif" font-size="8.8" lengthAdjust="spacing" textLength="56.8" x="384.872" y="300.6102">-phoneNumber</text><text fill="#000000" font-family="sans-serif" font-size="8.8" lengthAdjust="spacing" textLength="22.4" x="384.872" y="311.6789">-email</text><text fill="#000000" font-family="sans-serif" font-size="8.8" lengthAdjust="spacing" textLength="40" x="384.872" y="322.7477">-SOCcode</text><line style="stroke:#A80036;stroke-width:1.2000000000000002;" x1="380.872" x2="503.272" y1="327.8813" y2="327.8813"/><!--MD5=[0a105ea8d9af02dadec02d3e239f1d60]
class NHS--><rect codeLine="75" fill="#FEFECE" filter="url(#f13w687hstr8g4)" height="38.4" id="NHS" style="stroke:#A80036;stroke-width:1.2000000000000002;" width="46.4" x="850.872" y="5.6"/><ellipse cx="862.872" cy="18.4" fill="#ADD1B2" rx="8.8" ry="8.8" style="stroke:#A80036;stroke-width:0.8;"/><path d="M864.472,15.6 Q864.6345,15.2 864.822,15 Q865.0095,14.8 865.222,14.8 Q865.597,14.8 865.8345,15.025 Q866.072,15.25 866.072,15.775 L866.072,17.025 Q866.072,17.55 865.847,17.775 Q865.622,18 865.272,18 Q864.9595,18 864.7595,17.8625 Q864.5595,17.725 864.472,17.3625 Q864.4345,17.1125 864.297,16.975 Q864.047,16.7125 863.597,16.5625 Q863.147,16.4 862.697,16.4 Q862.1345,16.4 861.6595,16.625 Q861.197,16.85 860.8345,17.35 Q860.472,17.85 860.472,18.5375 L860.472,19.275 Q860.472,20.1 861.147,20.65 Q861.822,21.2 863.022,21.2 Q863.7345,21.2 864.2345,21.0375 Q864.522,20.95 864.847,20.6625 Q865.0595,20.5 865.172,20.45 Q865.2845,20.4 865.422,20.4 Q865.6845,20.4 865.872,20.6125 Q866.072,20.8125 866.072,21.1 Q866.072,21.375 865.797,21.7 Q865.397,22.175 864.7595,22.4375 Q863.922,22.8 862.897,22.8 Q861.697,22.8 860.7345,22.325 Q859.9595,21.95 859.4095,21.1375 Q858.872,20.325 858.872,19.3625 L858.872,18.4875 Q858.872,17.4875 859.347,16.6125 Q859.8345,15.7375 860.672,15.275 Q861.522,14.8 862.472,14.8 Q863.047,14.8 863.547,15 Q864.047,15.2 864.472,15.6 Z " fill="#000000"/><text fill="#000000" font-family="sans-serif" font-size="9.6" lengthAdjust="spacing" textLength="20.8" x="874.072" y="22.3281">NHS</text><line style="stroke:#A80036;stroke-width:1.2000000000000002;" x1="851.672" x2="896.472" y1="31.2" y2="31.2"/><line style="stroke:#A80036;stroke-width:1.2000000000000002;" x1="851.672" x2="896.472" y1="37.6" y2="37.6"/><!--MD5=[03960189e81aa2c066c762ffabbee709]
class Receptionist--><rect codeLine="76" fill="#FEFECE" filter="url(#f13w687hstr8g4)" height="115.8813" id="Receptionist" style="stroke:#A80036;stroke-width:1.2000000000000002;" width="80.8" x="48.072" y="396.8"/><ellipse cx="60.072" cy="409.6" fill="#ADD1B2" rx="8.8" ry="8.8" style="stroke:#A80036;stroke-width:0.8;"/><path d="M61.672,406.8 Q61.8345,406.4 62.022,406.2 Q62.2095,406 62.422,406 Q62.797,406 63.0345,406.225 Q63.272,406.45 63.272,406.975 L63.272,408.225 Q63.272,408.75 63.047,408.975 Q62.822,409.2 62.472,409.2 Q62.1595,409.2 61.9595,409.0625 Q61.7595,408.925 61.672,408.5625 Q61.6345,408.3125 61.497,408.175 Q61.247,407.9125 60.797,407.7625 Q60.347,407.6 59.897,407.6 Q59.3345,407.6 58.8595,407.825 Q58.397,408.05 58.0345,408.55 Q57.672,409.05 57.672,409.7375 L57.672,410.475 Q57.672,411.3 58.347,411.85 Q59.022,412.4 60.222,412.4 Q60.9345,412.4 61.4345,412.2375 Q61.722,412.15 62.047,411.8625 Q62.2595,411.7 62.372,411.65 Q62.4845,411.6 62.622,411.6 Q62.8845,411.6 63.072,411.8125 Q63.272,412.0125 63.272,412.3 Q63.272,412.575 62.997,412.9 Q62.597,413.375 61.9595,413.6375 Q61.122,414 60.097,414 Q58.897,414 57.9345,413.525 Q57.1595,413.15 56.6095,412.3375 Q56.072,411.525 56.072,410.5625 L56.072,409.6875 Q56.072,408.6875 56.547,407.8125 Q57.0345,406.9375 57.872,406.475 Q58.722,406 59.672,406 Q60.247,406 60.747,406.2 Q61.247,406.4 61.672,406.8 Z " fill="#000000"/><text fill="#000000" font-family="sans-serif" font-size="9.6" lengthAdjust="spacing" textLength="55.2" x="71.272" y="413.5281">Receptionist</text><line style="stroke:#A80036;stroke-width:1.2000000000000002;" x1="48.872" x2="128.072" y1="422.4" y2="422.4"/><text fill="#000000" font-family="sans-serif" font-size="8.8" lengthAdjust="spacing" textLength="47.2" x="52.872" y="434.7352">-employeeID</text><text fill="#000000" font-family="sans-serif" font-size="8.8" lengthAdjust="spacing" textLength="57.6" x="52.872" y="445.8039">-organizationID</text><text fill="#000000" font-family="sans-serif" font-size="8.8" lengthAdjust="spacing" textLength="24" x="52.872" y="456.8727">-name</text><text fill="#000000" font-family="sans-serif" font-size="8.8" lengthAdjust="spacing" textLength="35.2" x="52.872" y="467.9414">-address</text><text fill="#000000" font-family="sans-serif" font-size="8.8" lengthAdjust="spacing" textLength="56.8" x="52.872" y="479.0102">-phoneNumber</text><text fill="#000000" font-family="sans-serif" font-size="8.8" lengthAdjust="spacing" textLength="22.4" x="52.872" y="490.0789">-email</text><text fill="#000000" font-family="sans-serif" font-size="8.8" lengthAdjust="spacing" textLength="40" x="52.872" y="501.1477">-SOCcode</text><line style="stroke:#A80036;stroke-width:1.2000000000000002;" x1="48.872" x2="128.072" y1="506.2813" y2="506.2813"/><!--MD5=[df38be88ccee13e832d6fafd6288a4ca]
class Test--><rect codeLine="85" fill="#FEFECE" filter="url(#f13w687hstr8g4)" height="149.0875" id="Test" style="stroke:#A80036;stroke-width:1.2000000000000002;" width="104.8" x="413.672" y="575.2"/><ellipse cx="453.072" cy="588" fill="#ADD1B2" rx="8.8" ry="8.8" style="stroke:#A80036;stroke-width:0.8;"/><path d="M454.672,585.2 Q454.8345,584.8 455.022,584.6 Q455.2095,584.4 455.422,584.4 Q455.797,584.4 456.0345,584.625 Q456.272,584.85 456.272,585.375 L456.272,586.625 Q456.272,587.15 456.047,587.375 Q455.822,587.6 455.472,587.6 Q455.1595,587.6 454.9595,587.4625 Q454.7595,587.325 454.672,586.9625 Q454.6345,586.7125 454.497,586.575 Q454.247,586.3125 453.797,586.1625 Q453.347,586 452.897,586 Q452.3345,586 451.8595,586.225 Q451.397,586.45 451.0345,586.95 Q450.672,587.45 450.672,588.1375 L450.672,588.875 Q450.672,589.7 451.347,590.25 Q452.022,590.8 453.222,590.8 Q453.9345,590.8 454.4345,590.6375 Q454.722,590.55 455.047,590.2625 Q455.2595,590.1 455.372,590.05 Q455.4845,590 455.622,590 Q455.8845,590 456.072,590.2125 Q456.272,590.4125 456.272,590.7 Q456.272,590.975 455.997,591.3 Q455.597,591.775 454.9595,592.0375 Q454.122,592.4 453.097,592.4 Q451.897,592.4 450.9345,591.925 Q450.1595,591.55 449.6095,590.7375 Q449.072,589.925 449.072,588.9625 L449.072,588.0875 Q449.072,587.0875 449.547,586.2125 Q450.0345,585.3375 450.872,584.875 Q451.722,584.4 452.672,584.4 Q453.247,584.4 453.747,584.6 Q454.247,584.8 454.672,585.2 Z " fill="#000000"/><text fill="#000000" font-family="sans-serif" font-size="9.6" lengthAdjust="spacing" textLength="19.2" x="469.472" y="591.9281">Test</text><line style="stroke:#A80036;stroke-width:1.2000000000000002;" x1="414.472" x2="517.672" y1="600.8" y2="600.8"/><text fill="#000000" font-family="sans-serif" font-size="8.8" lengthAdjust="spacing" textLength="51.2" x="418.472" y="613.1352">-internalCode</text><text fill="#000000" font-family="sans-serif" font-size="8.8" lengthAdjust="spacing" textLength="37.6" x="418.472" y="624.2039">-nhsCode</text><text fill="#000000" font-family="sans-serif" font-size="8.8" lengthAdjust="spacing" textLength="41.6" x="418.472" y="635.2727">-createdAt</text><text fill="#000000" font-family="sans-serif" font-size="8.8" lengthAdjust="spacing" textLength="95.2" x="418.472" y="646.3414">-sampleCollectionMethod</text><text fill="#000000" font-family="sans-serif" font-size="8.8" lengthAdjust="spacing" textLength="53.6" x="418.472" y="657.4102">-dateAnalysis</text><text fill="#000000" font-family="sans-serif" font-size="8.8" lengthAdjust="spacing" textLength="52" x="418.472" y="668.4789">-timeAnalysis</text><text fill="#000000" font-family="sans-serif" font-size="8.8" lengthAdjust="spacing" textLength="57.6" x="418.472" y="679.5477">-dateDiagnosis</text><text fill="#000000" font-family="sans-serif" font-size="8.8" lengthAdjust="spacing" textLength="56" x="418.472" y="690.6164">-timeDiagnosis</text><text fill="#000000" font-family="sans-serif" font-size="8.8" lengthAdjust="spacing" textLength="57.6" x="418.472" y="701.6852">-dateValidation</text><text fill="#000000" font-family="sans-serif" font-size="8.8" lengthAdjust="spacing" textLength="56" x="418.472" y="712.7539">-timeValidation</text><line style="stroke:#A80036;stroke-width:1.2000000000000002;" x1="414.472" x2="517.672" y1="717.8875" y2="717.8875"/><!--MD5=[1f6362a5c8f21d8d6a0fce68f3a92a4e]
class Parameter--><rect codeLine="97" fill="#FEFECE" filter="url(#f13w687hstr8g4)" height="49.4688" id="Parameter" style="stroke:#A80036;stroke-width:1.2000000000000002;" width="72" x="786.072" y="1267.2"/><ellipse cx="798.072" cy="1280" fill="#ADD1B2" rx="8.8" ry="8.8" style="stroke:#A80036;stroke-width:0.8;"/><path d="M799.672,1277.2 Q799.8345,1276.8 800.022,1276.6 Q800.2095,1276.4 800.422,1276.4 Q800.797,1276.4 801.0345,1276.625 Q801.272,1276.85 801.272,1277.375 L801.272,1278.625 Q801.272,1279.15 801.047,1279.375 Q800.822,1279.6 800.472,1279.6 Q800.1595,1279.6 799.9595,1279.4625 Q799.7595,1279.325 799.672,1278.9625 Q799.6345,1278.7125 799.497,1278.575 Q799.247,1278.3125 798.797,1278.1625 Q798.347,1278 797.897,1278 Q797.3345,1278 796.8595,1278.225 Q796.397,1278.45 796.0345,1278.95 Q795.672,1279.45 795.672,1280.1375 L795.672,1280.875 Q795.672,1281.7 796.347,1282.25 Q797.022,1282.8 798.222,1282.8 Q798.9345,1282.8 799.4345,1282.6375 Q799.722,1282.55 800.047,1282.2625 Q800.2595,1282.1 800.372,1282.05 Q800.4845,1282 800.622,1282 Q800.8845,1282 801.072,1282.2125 Q801.272,1282.4125 801.272,1282.7 Q801.272,1282.975 800.997,1283.3 Q800.597,1283.775 799.9595,1284.0375 Q799.122,1284.4 798.097,1284.4 Q796.897,1284.4 795.9345,1283.925 Q795.1595,1283.55 794.6095,1282.7375 Q794.072,1281.925 794.072,1280.9625 L794.072,1280.0875 Q794.072,1279.0875 794.547,1278.2125 Q795.0345,1277.3375 795.872,1276.875 Q796.722,1276.4 797.672,1276.4 Q798.247,1276.4 798.747,1276.6 Q799.247,1276.8 799.672,1277.2 Z " fill="#000000"/><text fill="#000000" font-family="sans-serif" font-size="9.6" lengthAdjust="spacing" textLength="46.4" x="809.272" y="1283.9281">Parameter</text><line style="stroke:#A80036;stroke-width:1.2000000000000002;" x1="786.872" x2="857.272" y1="1292.8" y2="1292.8"/><text fill="#000000" font-family="sans-serif" font-size="8.8" lengthAdjust="spacing" textLength="47.2" x="790.872" y="1305.1352">-designation</text><line style="stroke:#A80036;stroke-width:1.2000000000000002;" x1="786.872" x2="857.272" y1="1310.2688" y2="1310.2688"/><!--MD5=[80e560c845ce9ec3c8b9ef25ef04dbf1]
class ParameterResult--><rect codeLine="100" fill="#FEFECE" filter="url(#f13w687hstr8g4)" height="38.4" id="ParameterResult" style="stroke:#A80036;stroke-width:1.2000000000000002;" width="100.8" x="673.272" y="1020.4"/><ellipse cx="685.272" cy="1033.2" fill="#ADD1B2" rx="8.8" ry="8.8" style="stroke:#A80036;stroke-width:0.8;"/><path d="M686.872,1030.4 Q687.0345,1030 687.222,1029.8 Q687.4095,1029.6 687.622,1029.6 Q687.997,1029.6 688.2345,1029.825 Q688.472,1030.05 688.472,1030.575 L688.472,1031.825 Q688.472,1032.35 688.247,1032.575 Q688.022,1032.8 687.672,1032.8 Q687.3595,1032.8 687.1595,1032.6625 Q686.9595,1032.525 686.872,1032.1625 Q686.8345,1031.9125 686.697,1031.775 Q686.447,1031.5125 685.997,1031.3625 Q685.547,1031.2 685.097,1031.2 Q684.5345,1031.2 684.0595,1031.425 Q683.597,1031.65 683.2345,1032.15 Q682.872,1032.65 682.872,1033.3375 L682.872,1034.075 Q682.872,1034.9 683.547,1035.45 Q684.222,1036 685.422,1036 Q686.1345,1036 686.6345,1035.8375 Q686.922,1035.75 687.247,1035.4625 Q687.4595,1035.3 687.572,1035.25 Q687.6845,1035.2 687.822,1035.2 Q688.0845,1035.2 688.272,1035.4125 Q688.472,1035.6125 688.472,1035.9 Q688.472,1036.175 688.197,1036.5 Q687.797,1036.975 687.1595,1037.2375 Q686.322,1037.6 685.297,1037.6 Q684.097,1037.6 683.1345,1037.125 Q682.3595,1036.75 681.8095,1035.9375 Q681.272,1035.125 681.272,1034.1625 L681.272,1033.2875 Q681.272,1032.2875 681.747,1031.4125 Q682.2345,1030.5375 683.072,1030.075 Q683.922,1029.6 684.872,1029.6 Q685.447,1029.6 685.947,1029.8 Q686.447,1030 686.872,1030.4 Z " fill="#000000"/><text fill="#000000" font-family="sans-serif" font-size="9.6" lengthAdjust="spacing" textLength="75.2" x="696.472" y="1037.1281">ParameterResult</text><line style="stroke:#A80036;stroke-width:1.2000000000000002;" x1="674.072" x2="773.272" y1="1046" y2="1046"/><line style="stroke:#A80036;stroke-width:1.2000000000000002;" x1="674.072" x2="773.272" y1="1052.4" y2="1052.4"/><!--MD5=[f00dbe8c0302c6aec2cb26b3c659c8fc]
class Report--><rect codeLine="101" fill="#FEFECE" filter="url(#f13w687hstr8g4)" height="49.4688" id="Report" style="stroke:#A80036;stroke-width:1.2000000000000002;" width="55.2" x="548.072" y="1267.2"/><ellipse cx="560.072" cy="1280" fill="#ADD1B2" rx="8.8" ry="8.8" style="stroke:#A80036;stroke-width:0.8;"/><path d="M561.672,1277.2 Q561.8345,1276.8 562.022,1276.6 Q562.2095,1276.4 562.422,1276.4 Q562.797,1276.4 563.0345,1276.625 Q563.272,1276.85 563.272,1277.375 L563.272,1278.625 Q563.272,1279.15 563.047,1279.375 Q562.822,1279.6 562.472,1279.6 Q562.1595,1279.6 561.9595,1279.4625 Q561.7595,1279.325 561.672,1278.9625 Q561.6345,1278.7125 561.497,1278.575 Q561.247,1278.3125 560.797,1278.1625 Q560.347,1278 559.897,1278 Q559.3345,1278 558.8595,1278.225 Q558.397,1278.45 558.0345,1278.95 Q557.672,1279.45 557.672,1280.1375 L557.672,1280.875 Q557.672,1281.7 558.347,1282.25 Q559.022,1282.8 560.222,1282.8 Q560.9345,1282.8 561.4345,1282.6375 Q561.722,1282.55 562.047,1282.2625 Q562.2595,1282.1 562.372,1282.05 Q562.4845,1282 562.622,1282 Q562.8845,1282 563.072,1282.2125 Q563.272,1282.4125 563.272,1282.7 Q563.272,1282.975 562.997,1283.3 Q562.597,1283.775 561.9595,1284.0375 Q561.122,1284.4 560.097,1284.4 Q558.897,1284.4 557.9345,1283.925 Q557.1595,1283.55 556.6095,1282.7375 Q556.072,1281.925 556.072,1280.9625 L556.072,1280.0875 Q556.072,1279.0875 556.547,1278.2125 Q557.0345,1277.3375 557.872,1276.875 Q558.722,1276.4 559.672,1276.4 Q560.247,1276.4 560.747,1276.6 Q561.247,1276.8 561.672,1277.2 Z " fill="#000000"/><text fill="#000000" font-family="sans-serif" font-size="9.6" lengthAdjust="spacing" textLength="29.6" x="571.272" y="1283.9281">Report</text><line style="stroke:#A80036;stroke-width:1.2000000000000002;" x1="548.872" x2="602.472" y1="1292.8" y2="1292.8"/><text fill="#000000" font-family="sans-serif" font-size="8.8" lengthAdjust="spacing" textLength="37.6" x="552.872" y="1305.1352">-textBody</text><line style="stroke:#A80036;stroke-width:1.2000000000000002;" x1="548.872" x2="602.472" y1="1310.2688" y2="1310.2688"/><!--MD5=[e27cb01a39563223b22d42504ec96d07]
class TestResult--><rect codeLine="104" fill="#FEFECE" filter="url(#f13w687hstr8g4)" height="38.4" id="TestResult" style="stroke:#A80036;stroke-width:1.2000000000000002;" width="73.6" x="429.272" y="830.8"/><ellipse cx="441.272" cy="843.6" fill="#ADD1B2" rx="8.8" ry="8.8" style="stroke:#A80036;stroke-width:0.8;"/><path d="M442.872,840.8 Q443.0345,840.4 443.222,840.2 Q443.4095,840 443.622,840 Q443.997,840 444.2345,840.225 Q444.472,840.45 444.472,840.975 L444.472,842.225 Q444.472,842.75 444.247,842.975 Q444.022,843.2 443.672,843.2 Q443.3595,843.2 443.1595,843.0625 Q442.9595,842.925 442.872,842.5625 Q442.8345,842.3125 442.697,842.175 Q442.447,841.9125 441.997,841.7625 Q441.547,841.6 441.097,841.6 Q440.5345,841.6 440.0595,841.825 Q439.597,842.05 439.2345,842.55 Q438.872,843.05 438.872,843.7375 L438.872,844.475 Q438.872,845.3 439.547,845.85 Q440.222,846.4 441.422,846.4 Q442.1345,846.4 442.6345,846.2375 Q442.922,846.15 443.247,845.8625 Q443.4595,845.7 443.572,845.65 Q443.6845,845.6 443.822,845.6 Q444.0845,845.6 444.272,845.8125 Q444.472,846.0125 444.472,846.3 Q444.472,846.575 444.197,846.9 Q443.797,847.375 443.1595,847.6375 Q442.322,848 441.297,848 Q440.097,848 439.1345,847.525 Q438.3595,847.15 437.8095,846.3375 Q437.272,845.525 437.272,844.5625 L437.272,843.6875 Q437.272,842.6875 437.747,841.8125 Q438.2345,840.9375 439.072,840.475 Q439.922,840 440.872,840 Q441.447,840 441.947,840.2 Q442.447,840.4 442.872,840.8 Z " fill="#000000"/><text fill="#000000" font-family="sans-serif" font-size="9.6" lengthAdjust="spacing" textLength="48" x="452.472" y="847.5281">TestResult</text><line style="stroke:#A80036;stroke-width:1.2000000000000002;" x1="430.072" x2="502.072" y1="856.4" y2="856.4"/><line style="stroke:#A80036;stroke-width:1.2000000000000002;" x1="430.072" x2="502.072" y1="862.8" y2="862.8"/><!--MD5=[aeb3272166074d8737a70b61b1e71682]
class TestType--><rect codeLine="105" fill="#FEFECE" filter="url(#f13w687hstr8g4)" height="49.4688" id="TestType" style="stroke:#A80036;stroke-width:1.2000000000000002;" width="65.6" x="854.072" y="825.2"/><ellipse cx="866.072" cy="838" fill="#ADD1B2" rx="8.8" ry="8.8" style="stroke:#A80036;stroke-width:0.8;"/><path d="M867.672,835.2 Q867.8345,834.8 868.022,834.6 Q868.2095,834.4 868.422,834.4 Q868.797,834.4 869.0345,834.625 Q869.272,834.85 869.272,835.375 L869.272,836.625 Q869.272,837.15 869.047,837.375 Q868.822,837.6 868.472,837.6 Q868.1595,837.6 867.9595,837.4625 Q867.7595,837.325 867.672,836.9625 Q867.6345,836.7125 867.497,836.575 Q867.247,836.3125 866.797,836.1625 Q866.347,836 865.897,836 Q865.3345,836 864.8595,836.225 Q864.397,836.45 864.0345,836.95 Q863.672,837.45 863.672,838.1375 L863.672,838.875 Q863.672,839.7 864.347,840.25 Q865.022,840.8 866.222,840.8 Q866.9345,840.8 867.4345,840.6375 Q867.722,840.55 868.047,840.2625 Q868.2595,840.1 868.372,840.05 Q868.4845,840 868.622,840 Q868.8845,840 869.072,840.2125 Q869.272,840.4125 869.272,840.7 Q869.272,840.975 868.997,841.3 Q868.597,841.775 867.9595,842.0375 Q867.122,842.4 866.097,842.4 Q864.897,842.4 863.9345,841.925 Q863.1595,841.55 862.6095,840.7375 Q862.072,839.925 862.072,838.9625 L862.072,838.0875 Q862.072,837.0875 862.547,836.2125 Q863.0345,835.3375 863.872,834.875 Q864.722,834.4 865.672,834.4 Q866.247,834.4 866.747,834.6 Q867.247,834.8 867.672,835.2 Z " fill="#000000"/><text fill="#000000" font-family="sans-serif" font-size="9.6" lengthAdjust="spacing" textLength="40" x="877.272" y="841.9281">TestType</text><line style="stroke:#A80036;stroke-width:1.2000000000000002;" x1="854.872" x2="918.872" y1="850.8" y2="850.8"/><text fill="#000000" font-family="sans-serif" font-size="8.8" lengthAdjust="spacing" textLength="47.2" x="858.872" y="863.1352">-designation</text><line style="stroke:#A80036;stroke-width:1.2000000000000002;" x1="854.872" x2="918.872" y1="868.2688" y2="868.2688"/><!--MD5=[9681492165142af2a4a3a169d90ee8d4]
class Sample--><rect codeLine="108" fill="#FEFECE" filter="url(#f13w687hstr8g4)" height="71.6063" id="Sample" style="stroke:#A80036;stroke-width:1.2000000000000002;" width="66.4" x="396.872" y="418.8"/><ellipse cx="411.752" cy="431.6" fill="#ADD1B2" rx="8.8" ry="8.8" style="stroke:#A80036;stroke-width:0.8;"/><path d="M413.352,428.8 Q413.5145,428.4 413.702,428.2 Q413.8895,428 414.102,428 Q414.477,428 414.7145,428.225 Q414.952,428.45 414.952,428.975 L414.952,430.225 Q414.952,430.75 414.727,430.975 Q414.502,431.2 414.152,431.2 Q413.8395,431.2 413.6395,431.0625 Q413.4395,430.925 413.352,430.5625 Q413.3145,430.3125 413.177,430.175 Q412.927,429.9125 412.477,429.7625 Q412.027,429.6 411.577,429.6 Q411.0145,429.6 410.5395,429.825 Q410.077,430.05 409.7145,430.55 Q409.352,431.05 409.352,431.7375 L409.352,432.475 Q409.352,433.3 410.027,433.85 Q410.702,434.4 411.902,434.4 Q412.6145,434.4 413.1145,434.2375 Q413.402,434.15 413.727,433.8625 Q413.9395,433.7 414.052,433.65 Q414.1645,433.6 414.302,433.6 Q414.5645,433.6 414.752,433.8125 Q414.952,434.0125 414.952,434.3 Q414.952,434.575 414.677,434.9 Q414.277,435.375 413.6395,435.6375 Q412.802,436 411.777,436 Q410.577,436 409.6145,435.525 Q408.8395,435.15 408.2895,434.3375 Q407.752,433.525 407.752,432.5625 L407.752,431.6875 Q407.752,430.6875 408.227,429.8125 Q408.7145,428.9375 409.552,428.475 Q410.402,428 411.352,428 Q411.927,428 412.427,428.2 Q412.927,428.4 413.352,428.8 Z " fill="#000000"/><text fill="#000000" font-family="sans-serif" font-size="9.6" lengthAdjust="spacing" textLength="34.4" x="423.592" y="435.5281">Sample</text><line style="stroke:#A80036;stroke-width:1.2000000000000002;" x1="397.672" x2="462.472" y1="444.4" y2="444.4"/><text fill="#000000" font-family="sans-serif" font-size="8.8" lengthAdjust="spacing" textLength="35.2" x="401.672" y="456.7352">-barcode</text><text fill="#000000" font-family="sans-serif" font-size="8.8" lengthAdjust="spacing" textLength="56.8" x="401.672" y="467.8039">-dateCollection</text><text fill="#000000" font-family="sans-serif" font-size="8.8" lengthAdjust="spacing" textLength="55.2" x="401.672" y="478.8727">-timeCollection</text><line style="stroke:#A80036;stroke-width:1.2000000000000002;" x1="397.672" x2="462.472" y1="484.0063" y2="484.0063"/><!--MD5=[1e5329fc67d8218f135f70ba961513ea]
class SampleType--><rect codeLine="113" fill="#FEFECE" filter="url(#f13w687hstr8g4)" height="38.4" id="SampleType" style="stroke:#A80036;stroke-width:1.2000000000000002;" width="80.8" x="532.072" y="257.2"/><ellipse cx="544.072" cy="270" fill="#ADD1B2" rx="8.8" ry="8.8" style="stroke:#A80036;stroke-width:0.8;"/><path d="M545.672,267.2 Q545.8345,266.8 546.022,266.6 Q546.2095,266.4 546.422,266.4 Q546.797,266.4 547.0345,266.625 Q547.272,266.85 547.272,267.375 L547.272,268.625 Q547.272,269.15 547.047,269.375 Q546.822,269.6 546.472,269.6 Q546.1595,269.6 545.9595,269.4625 Q545.7595,269.325 545.672,268.9625 Q545.6345,268.7125 545.497,268.575 Q545.247,268.3125 544.797,268.1625 Q544.347,268 543.897,268 Q543.3345,268 542.8595,268.225 Q542.397,268.45 542.0345,268.95 Q541.672,269.45 541.672,270.1375 L541.672,270.875 Q541.672,271.7 542.347,272.25 Q543.022,272.8 544.222,272.8 Q544.9345,272.8 545.4345,272.6375 Q545.722,272.55 546.047,272.2625 Q546.2595,272.1 546.372,272.05 Q546.4845,272 546.622,272 Q546.8845,272 547.072,272.2125 Q547.272,272.4125 547.272,272.7 Q547.272,272.975 546.997,273.3 Q546.597,273.775 545.9595,274.0375 Q545.122,274.4 544.097,274.4 Q542.897,274.4 541.9345,273.925 Q541.1595,273.55 540.6095,272.7375 Q540.072,271.925 540.072,270.9625 L540.072,270.0875 Q540.072,269.0875 540.547,268.2125 Q541.0345,267.3375 541.872,266.875 Q542.722,266.4 543.672,266.4 Q544.247,266.4 544.747,266.6 Q545.247,266.8 545.672,267.2 Z " fill="#000000"/><text fill="#000000" font-family="sans-serif" font-size="9.6" lengthAdjust="spacing" textLength="55.2" x="555.272" y="273.9281">SampleType</text><line style="stroke:#A80036;stroke-width:1.2000000000000002;" x1="532.872" x2="612.072" y1="282.8" y2="282.8"/><line style="stroke:#A80036;stroke-width:1.2000000000000002;" x1="532.872" x2="612.072" y1="289.2" y2="289.2"/><!--MD5=[7d96fd15f3014691d2fcaf89c5791e2a]
class SpecialistDoctor--><rect codeLine="114" fill="#FEFECE" filter="url(#f13w687hstr8g4)" height="126.95" id="SpecialistDoctor" style="stroke:#A80036;stroke-width:1.2000000000000002;" width="97.6" x="417.272" y="976"/><ellipse cx="429.272" cy="988.8" fill="#ADD1B2" rx="8.8" ry="8.8" style="stroke:#A80036;stroke-width:0.8;"/><path d="M430.872,986 Q431.0345,985.6 431.222,985.4 Q431.4095,985.2 431.622,985.2 Q431.997,985.2 432.2345,985.425 Q432.472,985.65 432.472,986.175 L432.472,987.425 Q432.472,987.95 432.247,988.175 Q432.022,988.4 431.672,988.4 Q431.3595,988.4 431.1595,988.2625 Q430.9595,988.125 430.872,987.7625 Q430.8345,987.5125 430.697,987.375 Q430.447,987.1125 429.997,986.9625 Q429.547,986.8 429.097,986.8 Q428.5345,986.8 428.0595,987.025 Q427.597,987.25 427.2345,987.75 Q426.872,988.25 426.872,988.9375 L426.872,989.675 Q426.872,990.5 427.547,991.05 Q428.222,991.6 429.422,991.6 Q430.1345,991.6 430.6345,991.4375 Q430.922,991.35 431.247,991.0625 Q431.4595,990.9 431.572,990.85 Q431.6845,990.8 431.822,990.8 Q432.0845,990.8 432.272,991.0125 Q432.472,991.2125 432.472,991.5 Q432.472,991.775 432.197,992.1 Q431.797,992.575 431.1595,992.8375 Q430.322,993.2 429.297,993.2 Q428.097,993.2 427.1345,992.725 Q426.3595,992.35 425.8095,991.5375 Q425.272,990.725 425.272,989.7625 L425.272,988.8875 Q425.272,987.8875 425.747,987.0125 Q426.2345,986.1375 427.072,985.675 Q427.922,985.2 428.872,985.2 Q429.447,985.2 429.947,985.4 Q430.447,985.6 430.872,986 Z " fill="#000000"/><text fill="#000000" font-family="sans-serif" font-size="9.6" lengthAdjust="spacing" textLength="72" x="440.472" y="992.7281">SpecialistDoctor</text><line style="stroke:#A80036;stroke-width:1.2000000000000002;" x1="418.072" x2="514.072" y1="1001.6" y2="1001.6"/><text fill="#000000" font-family="sans-serif" font-size="8.8" lengthAdjust="spacing" textLength="47.2" x="422.072" y="1013.9352">-employeeID</text><text fill="#000000" font-family="sans-serif" font-size="8.8" lengthAdjust="spacing" textLength="57.6" x="422.072" y="1025.0039">-organizationID</text><text fill="#000000" font-family="sans-serif" font-size="8.8" lengthAdjust="spacing" textLength="24" x="422.072" y="1036.0727">-name</text><text fill="#000000" font-family="sans-serif" font-size="8.8" lengthAdjust="spacing" textLength="35.2" x="422.072" y="1047.1414">-address</text><text fill="#000000" font-family="sans-serif" font-size="8.8" lengthAdjust="spacing" textLength="56.8" x="422.072" y="1058.2102">-phoneNumber</text><text fill="#000000" font-family="sans-serif" font-size="8.8" lengthAdjust="spacing" textLength="22.4" x="422.072" y="1069.2789">-email</text><text fill="#000000" font-family="sans-serif" font-size="8.8" lengthAdjust="spacing" textLength="40" x="422.072" y="1080.3477">-SOCcode</text><text fill="#000000" font-family="sans-serif" font-size="8.8" lengthAdjust="spacing" textLength="78.4" x="422.072" y="1091.4164">-doctorIndexNumber</text><line style="stroke:#A80036;stroke-width:1.2000000000000002;" x1="418.072" x2="514.072" y1="1096.55" y2="1096.55"/><!--MD5=[7d17329589c8a1a28e6f8826215bde21]
link Administrator to Category--><path codeLine="125" d="M949.456,1243.344 C946.616,1286.024 942.832,1342.928 940.416,1379.128 " fill="none" id="Administrator-Category" style="stroke:#A80036;stroke-width:0.8;"/><polygon fill="#000000" points="951.9377,1288.1495,949.1111,1295.2134,953.803,1295.5257,951.9377,1288.1495" style="stroke:#000000;stroke-width:0.8;"/><text fill="#000000" font-family="sans-serif" font-size="10.4" lengthAdjust="spacing" textLength="48.8" x="958.872" y="1296.3961">created by</text><text fill="#000000" font-family="sans-serif" font-size="10.4" lengthAdjust="spacing" textLength="5.6" x="943.2254" y="1260.311">1</text><text fill="#000000" font-family="sans-serif" font-size="10.4" lengthAdjust="spacing" textLength="4" x="936.4708" y="1370.4089">*</text><!--MD5=[47855ee4dabeea37c5949a17ed9e3a41]
link ChemicalLaboratory to Sample--><path codeLine="126" d="M325.888,317.76 C349.2,348.24 380.816,389.584 403.088,418.712 " fill="none" id="ChemicalLaboratory-Sample" style="stroke:#A80036;stroke-width:0.8;"/><polygon fill="#000000" points="373.3018,368.918,370.7739,361.7418,367.0386,364.5983,373.3018,368.918" style="stroke:#000000;stroke-width:0.8;"/><text fill="#000000" font-family="sans-serif" font-size="10.4" lengthAdjust="spacing" textLength="41.6" x="378.072" y="369.9961">analyses</text><text fill="#000000" font-family="sans-serif" font-size="10.4" lengthAdjust="spacing" textLength="5.6" x="324.0795" y="334.9743">1</text><text fill="#000000" font-family="sans-serif" font-size="10.4" lengthAdjust="spacing" textLength="4" x="394.4687" y="409.9904">*</text><!--MD5=[0bde84c484199f8c429a86e32cc6847f]
link Client to LabOrder--><path codeLine="127" d="M110.872,913.664 C110.872,945.896 110.872,983.648 110.872,1009.184 " fill="none" id="Client-LabOrder" style="stroke:#A80036;stroke-width:0.8;"/><polygon fill="#000000" points="114.872,948.9406,117.2231,941.7046,112.5209,941.7046,114.872,948.9406" style="stroke:#000000;stroke-width:0.8;"/><text fill="#000000" font-family="sans-serif" font-size="10.4" lengthAdjust="spacing" textLength="25.6" x="122.072" y="949.1961">has a</text><text fill="#000000" font-family="sans-serif" font-size="10.4" lengthAdjust="spacing" textLength="5.6" x="105.0314" y="930.504">1</text><text fill="#000000" font-family="sans-serif" font-size="10.4" lengthAdjust="spacing" textLength="4" x="106.5033" y="1000.4423">*</text><!--MD5=[6f5a8b15e66799c0d601e2bda0c1caed]
link ClinicalAnalysisLaboratory to Sample--><path codeLine="128" d="M689.592,315.128 C619.72,352.52 515.992,408.024 463.336,436.2 " fill="none" id="ClinicalAnalysisLaboratory-Sample" style="stroke:#A80036;stroke-width:0.8;"/><polygon fill="#000000" points="605.7452,367.6279,613.2345,366.2868,611.016,362.1408,605.7452,367.6279" style="stroke:#000000;stroke-width:0.8;"/><text fill="#000000" font-family="sans-serif" font-size="10.4" lengthAdjust="spacing" textLength="36" x="616.472" y="369.9961">collects</text><text fill="#000000" font-family="sans-serif" font-size="10.4" lengthAdjust="spacing" textLength="5.6" x="677.6601" y="315.9082">1</text><text fill="#000000" font-family="sans-serif" font-size="10.4" lengthAdjust="spacing" textLength="4" x="469.6174" y="444.8831">*</text><!--MD5=[2eb961b30663a01bbfd8b4b9b8950031]
link ClinicalAnalysisLaboratory to TestType--><path codeLine="129" d="M770.656,323.28 C796.184,438.792 862.224,737.648 881.512,824.928 " fill="none" id="ClinicalAnalysisLaboratory-TestType" style="stroke:#A80036;stroke-width:0.8;"/><polygon fill="#000000" points="826.1351,548.0464,826.8695,540.4735,822.278,541.4881,826.1351,548.0464" style="stroke:#000000;stroke-width:0.8;"/><text fill="#000000" font-family="sans-serif" font-size="10.4" lengthAdjust="spacing" textLength="40" x="832.472" y="548.3961">performs</text><text fill="#000000" font-family="sans-serif" font-size="10.4" lengthAdjust="spacing" textLength="5.6" x="765.9559" y="340.578">1</text><text fill="#000000" font-family="sans-serif" font-size="10.4" lengthAdjust="spacing" textLength="4" x="875.994" y="816.4755">*</text><!--MD5=[98994e1502641fa381021dffe882d56a]
link ClinicalChemistryTechnologist to Sample--><path codeLine="130" d="M252.176,981.328 C253.28,921.8 259.032,826.648 282.072,748 C310.984,649.312 372.848,544.216 406.72,490.96 " fill="none" id="ClinicalChemistryTechnologist-Sample" style="stroke:#A80036;stroke-width:0.8;"/><polygon fill="#000000" points="284.8697,759.1556,289.2871,752.9609,284.8023,751.5475,284.8697,759.1556" style="stroke:#000000;stroke-width:0.8;"/><text fill="#000000" font-family="sans-serif" font-size="10.4" lengthAdjust="spacing" textLength="56" x="293.272" y="759.5961">analysed by</text><text fill="#000000" font-family="sans-serif" font-size="10.4" lengthAdjust="spacing" textLength="5.6" x="246.2712" y="972.9776">1</text><text fill="#000000" font-family="sans-serif" font-size="10.4" lengthAdjust="spacing" textLength="4" x="399.3133" y="507.5204">*</text><!--MD5=[742a261f27a3dcd734c626287d811acd]
link Company to TestType--><path codeLine="131" d="M894.432,156.168 C915.224,183.376 944.472,229.784 944.472,275.6 C944.472,275.6 944.472,275.6 944.472,650.4 C944.472,715.616 915.52,788.288 898.664,825.064 " fill="none" id="Company-TestType" style="stroke:#A80036;stroke-width:0.8;"/><polygon fill="#000000" points="948.4973,458.9405,950.8026,451.6897,946.1004,451.7195,948.4973,458.9405" style="stroke:#000000;stroke-width:0.8;"/><text fill="#000000" font-family="sans-serif" font-size="10.4" lengthAdjust="spacing" textLength="42.4" x="955.672" y="459.1961">conducts</text><text fill="#000000" font-family="sans-serif" font-size="10.4" lengthAdjust="spacing" textLength="5.6" x="892.1794" y="172.9829">1</text><text fill="#000000" font-family="sans-serif" font-size="10.4" lengthAdjust="spacing" textLength="4" x="896.6836" y="816.6396">*</text><!--MD5=[cc1f60f7fb1c702a98cbcc58aaecd7da]
link Company to Category--><path codeLine="132" d="M908.112,143.68 C957,162.88 1041.272,206.056 1041.272,275.6 C1041.272,275.6 1041.272,275.6 1041.272,1292.8 C1041.272,1337.104 1000.96,1373.528 970.728,1394.616 " fill="none" id="Company-Category" style="stroke:#A80036;stroke-width:0.8;"/><polygon fill="#000000" points="1045.472,759.3356,1047.4584,751.9911,1042.762,752.2261,1045.472,759.3356" style="stroke:#000000;stroke-width:0.8;"/><text fill="#000000" font-family="sans-serif" font-size="10.4" lengthAdjust="spacing" textLength="16.8" x="1052.472" y="759.5961">has</text><text fill="#000000" font-family="sans-serif" font-size="10.4" lengthAdjust="spacing" textLength="5.6" x="914.4439" y="142.7565">1</text><text fill="#000000" font-family="sans-serif" font-size="10.4" lengthAdjust="spacing" textLength="4" x="976.9011" y="1387.8657">*</text><!--MD5=[aafc5d8a5829a6a8d6dc892cb1ff5d24]
link Company to ClinicalAnalysisLaboratory--><path codeLine="133" d="M841.688,156.176 C833.216,163.328 824.448,171.528 817.272,180 C804.608,194.952 793.056,213.08 783.728,229.512 " fill="none" id="Company-ClinicalAnalysisLaboratory" style="stroke:#A80036;stroke-width:0.8;"/><polygon fill="#000000" points="818.7918,190.4788,825.1232,186.2596,821.434,183.3439,818.7918,190.4788" style="stroke:#000000;stroke-width:0.8;"/><text fill="#000000" font-family="sans-serif" font-size="10.4" lengthAdjust="spacing" textLength="24" x="828.472" y="191.5961">owns</text><text fill="#000000" font-family="sans-serif" font-size="10.4" lengthAdjust="spacing" textLength="5.6" x="829.3811" y="172.9925">1</text><text fill="#000000" font-family="sans-serif" font-size="10.4" lengthAdjust="spacing" textLength="4" x="782.3186" y="221.022">*</text><!--MD5=[d6a5ae732362cd0f86c2003645f951b1]
link Company to ChemicalLaboratory--><path codeLine="134" d="M840,131.984 C755.728,133.152 532.312,143.64 366.072,218.4 C356.528,222.696 347.176,228.576 338.544,234.936 " fill="none" id="Company-ChemicalLaboratory" style="stroke:#A80036;stroke-width:0.8;"/><polygon fill="#000000" points="471.7537,188.1451,479.3148,188.9929,478.3691,184.3867,471.7537,188.1451" style="stroke:#000000;stroke-width:0.8;"/><text fill="#000000" font-family="sans-serif" font-size="10.4" lengthAdjust="spacing" textLength="24" x="482.872" y="191.5961">owns</text><text fill="#000000" font-family="sans-serif" font-size="10.4" lengthAdjust="spacing" textLength="5.6" x="828.0626" y="129.0503">1</text><text fill="#000000" font-family="sans-serif" font-size="10.4" lengthAdjust="spacing" textLength="5.6" x="338.4362" y="226.5008">1</text><!--MD5=[15b96e4919f31c1f6d0b47c59fe8e2bf]
link Diagnosis to LaboratoryCoordinator--><path codeLine="135" d="M450.104,1434.672 C437.64,1454.136 417.464,1485.608 399.664,1513.392 " fill="none" id="Diagnosis-LaboratoryCoordinator" style="stroke:#A80036;stroke-width:0.8;"/><polygon fill="#000000" points="423.914,1485.9086,429.7975,1481.0844,425.8382,1478.5475,423.914,1485.9086" style="stroke:#000000;stroke-width:0.8;"/><text fill="#000000" font-family="sans-serif" font-size="10.4" lengthAdjust="spacing" textLength="54.4" x="433.272" y="1486.7961">validated by</text><text fill="#000000" font-family="sans-serif" font-size="10.4" lengthAdjust="spacing" textLength="4" x="442.8739" y="1451.4835">*</text><text fill="#000000" font-family="sans-serif" font-size="10.4" lengthAdjust="spacing" textLength="5.6" x="397.5694" y="1504.746">1</text><!--MD5=[fd5f5b962c28af1c88b5bc5c4cfdb2d8]
link Diagnosis to SpecialistDoctor--><path codeLine="136" d="M462.272,1395.96 C462.832,1343.288 464.472,1190.392 465.4,1103.208 " fill="none" id="Diagnosis-SpecialistDoctor" style="stroke:#A80036;stroke-width:0.8;"/><polygon fill="#000000" points="467.6293,1296.1404,470.0576,1288.9299,465.3556,1288.8796,467.6293,1296.1404" style="stroke:#000000;stroke-width:0.8;"/><text fill="#000000" font-family="sans-serif" font-size="10.4" lengthAdjust="spacing" textLength="45.6" x="474.872" y="1296.3961">generates</text><text fill="#000000" font-family="sans-serif" font-size="10.4" lengthAdjust="spacing" textLength="4" x="457.8107" y="1387.4219">*</text><text fill="#000000" font-family="sans-serif" font-size="10.4" lengthAdjust="spacing" textLength="5.6" x="459.5016" y="1120.0432">1</text><!--MD5=[0a29b4543c1af9e8341b856b8b8ec05c]
link MedicalLabTechnician to Sample--><path codeLine="137" d="M438.176,334.6 C436.296,362.328 434.096,394.72 432.464,418.76 " fill="none" id="MedicalLabTechnician-Sample" style="stroke:#A80036;stroke-width:0.8;"/><polygon fill="#000000" points="440.7429,361.7498,437.9071,368.8101,442.5986,369.1285,440.7429,361.7498" style="stroke:#000000;stroke-width:0.8;"/><text fill="#000000" font-family="sans-serif" font-size="10.4" lengthAdjust="spacing" textLength="56" x="447.672" y="369.9961">collected by</text><text fill="#000000" font-family="sans-serif" font-size="10.4" lengthAdjust="spacing" textLength="5.6" x="431.9378" y="351.5723">1</text><text fill="#000000" font-family="sans-serif" font-size="10.4" lengthAdjust="spacing" textLength="4" x="428.5265" y="410.046">*</text><!--MD5=[19be1708881710afac89d72e827851dc]
link NHS to Company--><path codeLine="138" d="M874.072,44.096 C874.072,61.368 874.072,87.264 874.072,106.184 " fill="none" id="NHS-Company" style="stroke:#A80036;stroke-width:0.8;"/><polygon fill="#000000" points="878.072,79.3406,880.4231,72.1046,875.7209,72.1046,878.072,79.3406" style="stroke:#000000;stroke-width:0.8;"/><text fill="#000000" font-family="sans-serif" font-size="10.4" lengthAdjust="spacing" textLength="81.6" x="885.272" y="79.5961">requests report to</text><text fill="#000000" font-family="sans-serif" font-size="10.4" lengthAdjust="spacing" textLength="5.6" x="867.7895" y="61.1898">1</text><text fill="#000000" font-family="sans-serif" font-size="10.4" lengthAdjust="spacing" textLength="5.6" x="867.8945" y="97.7431">1</text><!--MD5=[852f3a1b1bcfc6074ebcba484562eac0]
link Parameter to Category--><path codeLine="139" d="M820.552,1316.856 C820.912,1329.28 823.24,1344.12 830.872,1355.2 C848.48,1380.76 880.872,1396.424 905.456,1405.16 " fill="none" id="Parameter-Category" style="stroke:#A80036;stroke-width:0.8;"/><polygon fill="#000000" points="837.6444,1351.024,834.3239,1344.1784,830.9343,1347.4375,837.6444,1351.024" style="stroke:#000000;stroke-width:0.8;"/><text fill="#000000" font-family="sans-serif" font-size="10.4" lengthAdjust="spacing" textLength="74.4" x="842.072" y="1352.3961">presented under</text><text fill="#000000" font-family="sans-serif" font-size="10.4" lengthAdjust="spacing" textLength="4" x="815.859" y="1333.8462">*</text><text fill="#000000" font-family="sans-serif" font-size="10.4" lengthAdjust="spacing" textLength="5.6" x="893.7689" y="1400.3885">1</text><!--MD5=[15b2848963e3cb1b607833a8179862c1]
link ParameterResult to Parameter--><path codeLine="140" d="M717.264,1058.984 C705.408,1096.968 684.424,1184.848 721.272,1243.2 C735.4,1265.568 763.12,1277.736 785.92,1284.208 " fill="none" id="ParameterResult-Parameter" style="stroke:#A80036;stroke-width:0.8;"/><polygon fill="#000000" points="726.4383,1189.1668,726.5774,1181.5596,722.0794,1182.9307,726.4383,1189.1668" style="stroke:#000000;stroke-width:0.8;"/><text fill="#000000" font-family="sans-serif" font-size="10.4" lengthAdjust="spacing" textLength="62.4" x="732.472" y="1189.5961">associated to</text><text fill="#000000" font-family="sans-serif" font-size="10.4" lengthAdjust="spacing" textLength="5.6" x="709.4196" y="1076.0992">1</text><text fill="#000000" font-family="sans-serif" font-size="10.4" lengthAdjust="spacing" textLength="5.6" x="774.112" y="1279.9751">1</text><!--MD5=[6a35157f4c730bda767e7c9f1b8b7f73]
link Receptionist to Client--><path codeLine="141" d="M50.488,512.872 C39.912,531.896 29.856,553.728 24.472,575.2 C8.392,639.344 4.8,660.864 24.472,724 C34.96,757.664 58.008,790.264 77.656,813.752 " fill="none" id="Receptionist-Client" style="stroke:#A80036;stroke-width:0.8;"/><polygon fill="#000000" points="28.8317,653.7244,30.5226,646.3062,25.8394,646.7291,28.8317,653.7244" style="stroke:#000000;stroke-width:0.8;"/><text fill="#000000" font-family="sans-serif" font-size="10.4" lengthAdjust="spacing" textLength="40" x="35.672" y="653.9961">registers</text><text fill="#000000" font-family="sans-serif" font-size="10.4" lengthAdjust="spacing" textLength="5.6" x="41.0008" y="529.8321">1</text><text fill="#000000" font-family="sans-serif" font-size="10.4" lengthAdjust="spacing" textLength="4" x="67.163" y="803.9338">*</text><!--MD5=[e8b34c2e6517a986175307f5599f058a]
link Receptionist to Test--><path codeLine="142" d="M128.88,476.272 C197.656,511.464 337.408,582.968 413.624,621.968 " fill="none" id="Receptionist-Test" style="stroke:#A80036;stroke-width:0.8;"/><polygon fill="#000000" points="273.6329,545.9627,268.2621,540.5735,266.1202,544.7596,273.6329,545.9627" style="stroke:#000000;stroke-width:0.8;"/><text fill="#000000" font-family="sans-serif" font-size="10.4" lengthAdjust="spacing" textLength="40" x="277.272" y="548.3961">registers</text><text fill="#000000" font-family="sans-serif" font-size="10.4" lengthAdjust="spacing" textLength="5.6" x="135.2262" y="476.5112">1</text><text fill="#000000" font-family="sans-serif" font-size="10.4" lengthAdjust="spacing" textLength="4" x="403.3285" y="616.0288">*</text><!--MD5=[9ea131e34883d590a1cfd41d17f43241]
link Report to Diagnosis--><path codeLine="143" d="M553.232,1316.824 C531.504,1340.08 499.032,1374.832 479.28,1395.984 " fill="none" id="Report-Diagnosis" style="stroke:#A80036;stroke-width:0.8;"/><polygon fill="#000000" points="530.5414,1351.0636,537.1992,1347.3809,533.7631,1344.1709,530.5414,1351.0636" style="stroke:#000000;stroke-width:0.8;"/><text fill="#000000" font-family="sans-serif" font-size="10.4" lengthAdjust="spacing" textLength="39.2" x="540.472" y="1352.3961">contains</text><text fill="#000000" font-family="sans-serif" font-size="10.4" lengthAdjust="spacing" textLength="5.6" x="542.6629" y="1333.8079">1</text><text fill="#000000" font-family="sans-serif" font-size="10.4" lengthAdjust="spacing" textLength="5.6" x="477.372" y="1387.452">1</text><!--MD5=[0e54f9b161a60743d9b464e5484a1c06]
link Report to TestResult--><path codeLine="144" d="M578.184,1266.992 C583.304,1207.864 590.576,1052.544 540.472,937.6 C528.656,910.488 505.392,885.536 488.008,869.408 " fill="none" id="Report-TestResult" style="stroke:#A80036;stroke-width:0.8;"/><polygon fill="#000000" points="581.9872,1035.8397,581.2949,1043.4166,585.8807,1042.3765,581.9872,1035.8397" style="stroke:#000000;stroke-width:0.8;"/><text fill="#000000" font-family="sans-serif" font-size="10.4" lengthAdjust="spacing" textLength="62.4" x="590.072" y="1043.9961">associated to</text><text fill="#000000" font-family="sans-serif" font-size="10.4" lengthAdjust="spacing" textLength="5.6" x="572.5246" y="1258.5527">1</text><text fill="#000000" font-family="sans-serif" font-size="10.4" lengthAdjust="spacing" textLength="5.6" x="487.0724" y="886.5291">1</text><!--MD5=[a23f50aea1fcb140948e132a9bfce5a1]
link Sample to Client--><path codeLine="145" d="M396.696,460.656 C339.832,471.128 224.656,500.76 166.072,575.2 C118.584,635.544 108.712,725.984 108.096,786.256 " fill="none" id="Sample-Client" style="stroke:#A80036;stroke-width:0.8;"/><polygon fill="#000000" points="167.4188,652.734,173.978,648.8785,170.459,645.7594,167.4188,652.734" style="stroke:#000000;stroke-width:0.8;"/><text fill="#000000" font-family="sans-serif" font-size="10.4" lengthAdjust="spacing" textLength="62.4" x="177.272" y="653.9961">associated to</text><text fill="#000000" font-family="sans-serif" font-size="10.4" lengthAdjust="spacing" textLength="4" x="386.3947" y="458.6153">*</text><text fill="#000000" font-family="sans-serif" font-size="10.4" lengthAdjust="spacing" textLength="5.6" x="101.982" y="777.8102">1</text><!--MD5=[1ae83efc6d1967ce5bc17dfe294d00c2]
link Sample to Test--><path codeLine="146" d="M411.312,490.88 C404.056,508.96 398.72,531.312 404.472,551.2 C406.808,559.288 410.04,567.344 413.8,575.168 " fill="none" id="Sample-Test" style="stroke:#A80036;stroke-width:0.8;"/><polygon fill="#000000" points="408.59,548.1389,410.7266,540.8366,406.0264,540.9753,408.59,548.1389" style="stroke:#000000;stroke-width:0.8;"/><text fill="#000000" font-family="sans-serif" font-size="10.4" lengthAdjust="spacing" textLength="62.4" x="415.672" y="548.3961">associated to</text><text fill="#000000" font-family="sans-serif" font-size="10.4" lengthAdjust="spacing" textLength="4" x="404.3926" y="507.6973">*</text><text fill="#000000" font-family="sans-serif" font-size="10.4" lengthAdjust="spacing" textLength="5.6" x="403.6394" y="566.4699">1</text><!--MD5=[b72ac8ab7fb5921fceb5036a3902baea]
link Test to Sample--><path codeLine="155" d="M485.512,574.96 C486.384,562.104 485.632,548.96 482.072,536.8 C477.296,520.496 468.136,504.352 458.816,490.808 " fill="none" id="Test-Sample" style="stroke:#A80036;stroke-width:0.8;"/><polygon fill="#000000" points="488.0625,540.3279,488.0095,547.9361,492.4916,546.5143,488.0625,540.3279" style="stroke:#000000;stroke-width:0.8;"/><text fill="#000000" font-family="sans-serif" font-size="10.4" lengthAdjust="spacing" textLength="36" x="496.472" y="548.3961">collects</text><text fill="#000000" font-family="sans-serif" font-size="10.4" lengthAdjust="spacing" textLength="5.6" x="481.238" y="566.498">1</text><text fill="#000000" font-family="sans-serif" font-size="10.4" lengthAdjust="spacing" textLength="4" x="458.5769" y="507.6152">*</text><!--MD5=[25a58075d12b4e24c3095e04bee16a0d]
link SampleType to Sample--><path codeLine="147" d="M561.976,295.96 C550.504,315.824 531.048,347.728 510.872,372.8 C496.536,390.616 478.768,408.816 463.56,423.448 " fill="none" id="SampleType-Sample" style="stroke:#A80036;stroke-width:0.8;"/><polygon fill="#000000" points="526.9163,362.5743,520.6334,366.8655,524.3557,369.7389,526.9163,362.5743" style="stroke:#000000;stroke-width:0.8;"/><text fill="#000000" font-family="sans-serif" font-size="10.4" lengthAdjust="spacing" textLength="19.2" x="531.672" y="369.9961">is of</text><text fill="#000000" font-family="sans-serif" font-size="10.4" lengthAdjust="spacing" textLength="5.6" x="553.3013" y="312.7919">1</text><text fill="#000000" font-family="sans-serif" font-size="10.4" lengthAdjust="spacing" textLength="5.6" x="469.5702" y="415.2473">1</text><!--MD5=[35c5d5b78cc27fdb07caaeeaa436e174]
link SpecialistDoctor to Report--><path codeLine="148" d="M471.464,1103.408 C476.808,1154.192 486.376,1220.704 501.272,1243.2 C507.256,1252.232 529.216,1265.88 547.744,1276.312 " fill="none" id="SpecialistDoctor-Report" style="stroke:#A80036;stroke-width:0.8;"/><polygon fill="#000000" points="506.8865,1189.0003,506.1169,1181.4309,501.8147,1183.3289,506.8865,1189.0003" style="stroke:#000000;stroke-width:0.8;"/><text fill="#000000" font-family="sans-serif" font-size="10.4" lengthAdjust="spacing" textLength="45.6" x="512.472" y="1189.5961">generates</text><text fill="#000000" font-family="sans-serif" font-size="10.4" lengthAdjust="spacing" textLength="5.6" x="466.0786" y="1120.0402">1</text><text fill="#000000" font-family="sans-serif" font-size="10.4" lengthAdjust="spacing" textLength="4" x="537.5714" y="1269.795">*</text><!--MD5=[3994f36c72829dbcddd1cf7021dddf61]
link Test to Client--><path codeLine="149" d="M413.664,661.304 C335.48,678.464 193.352,713.408 154.872,748 C143.4,758.312 134.8,772.144 128.384,786.264 " fill="none" id="Test-Client" style="stroke:#A80036;stroke-width:0.8;"/><polygon fill="#000000" points="155.2081,756.9455,162.7795,756.1958,160.8928,751.8886,155.2081,756.9455" style="stroke:#000000;stroke-width:0.8;"/><text fill="#000000" font-family="sans-serif" font-size="10.4" lengthAdjust="spacing" textLength="60" x="166.072" y="759.5961">requested by</text><text fill="#000000" font-family="sans-serif" font-size="10.4" lengthAdjust="spacing" textLength="4" x="403.3731" y="659.913">*</text><text fill="#000000" font-family="sans-serif" font-size="10.4" lengthAdjust="spacing" textLength="5.6" x="124.1403" y="777.8189">1</text><!--MD5=[7e4bc624457760b649895ff2ead938fa]
link Company to Test--><path codeLine="150" d="M873.848,156.248 C872.952,243.32 869,535.832 856.472,551.2 C814.04,603.256 615.168,632.168 518.752,643.344 " fill="none" id="Company-Test" style="stroke:#A80036;stroke-width:0.8;"/><polygon fill="#000000" points="872.5157,368.9729,878.6782,364.5107,874.8784,361.7406,872.5157,368.9729" style="stroke:#000000;stroke-width:0.8;"/><text fill="#000000" font-family="sans-serif" font-size="10.4" lengthAdjust="spacing" textLength="40" x="882.072" y="369.9961">performs</text><text fill="#000000" font-family="sans-serif" font-size="10.4" lengthAdjust="spacing" textLength="5.6" x="867.6716" y="173.0782">1</text><text fill="#000000" font-family="sans-serif" font-size="10.4" lengthAdjust="spacing" textLength="4" x="524.7326" y="639.9555">*</text><!--MD5=[c23963f6e403fc3ebec8dae22c30ade6]
link Test to Parameter--><path codeLine="151" d="M518.616,701.8 C607.704,789.208 779.6,959.024 787.672,976 C835.016,1075.544 829.344,1212.224 824.624,1267.032 " fill="none" id="Test-Parameter" style="stroke:#A80036;stroke-width:0.8;"/><polygon fill="#000000" points="773.5764,948.4582,772.1989,940.9755,768.0638,943.2142,773.5764,948.4582" style="stroke:#000000;stroke-width:0.8;"/><text fill="#000000" font-family="sans-serif" font-size="10.4" lengthAdjust="spacing" textLength="92.8" x="778.872" y="949.1961">requests analysis of</text><text fill="#000000" font-family="sans-serif" font-size="10.4" lengthAdjust="spacing" textLength="4" x="524.9227" y="705.0914">*</text><text fill="#000000" font-family="sans-serif" font-size="10.4" lengthAdjust="spacing" textLength="16" x="807.5004" y="1258.601">1..*</text><!--MD5=[7ae31b06ecb5db678e40497ee74dd179]
link Test to LabOrder--><path codeLine="152" d="M413.48,702.28 C350.592,765.152 243.144,875.216 158.072,976 C149.184,986.528 139.968,998.52 132.056,1009.192 " fill="none" id="Test-LabOrder" style="stroke:#A80036;stroke-width:0.8;"/><polygon fill="#000000" points="332.1686,853.0888,338.792,849.3445,335.3262,846.1665,332.1686,853.0888" style="stroke:#000000;stroke-width:0.8;"/><text fill="#000000" font-family="sans-serif" font-size="10.4" lengthAdjust="spacing" textLength="36.8" x="342.072" y="854.3961">requires</text><text fill="#000000" font-family="sans-serif" font-size="10.4" lengthAdjust="spacing" textLength="5.6" x="401.8215" y="705.3376">1</text><text fill="#000000" font-family="sans-serif" font-size="10.4" lengthAdjust="spacing" textLength="5.6" x="129.8456" y="1000.4517">1</text><!--MD5=[e981d4f96c4342412d1e68160b30cf70]
link Test to TestType--><path codeLine="153" d="M518.608,665.72 C573.432,682.6 661.176,712.168 732.472,748 C777,770.376 824.408,802.912 854.76,825 " fill="none" id="Test-TestType" style="stroke:#A80036;stroke-width:0.8;"/><polygon fill="#000000" points="767.2867,757.0534,761.7544,751.8303,759.7409,756.0796,767.2867,757.0534" style="stroke:#000000;stroke-width:0.8;"/><text fill="#000000" font-family="sans-serif" font-size="10.4" lengthAdjust="spacing" textLength="19.2" x="770.872" y="759.5961">is of</text><text fill="#000000" font-family="sans-serif" font-size="10.4" lengthAdjust="spacing" textLength="4" x="524.9137" y="664.8396">*</text><text fill="#000000" font-family="sans-serif" font-size="10.4" lengthAdjust="spacing" textLength="5.6" x="841.9594" y="816.5624">1</text><!--MD5=[73dffd3648c374487b6d8c6733c5b5e0]
link Test to TestResult--><path codeLine="154" d="M466.072,724.144 C466.072,762.6 466.072,806.552 466.072,830.76 " fill="none" id="Test-TestResult" style="stroke:#A80036;stroke-width:0.8;"/><polygon fill="#000000" points="470.072,759.3406,472.4231,752.1046,467.7209,752.1046,470.072,759.3406" style="stroke:#000000;stroke-width:0.8;"/><text fill="#000000" font-family="sans-serif" font-size="10.4" lengthAdjust="spacing" textLength="25.6" x="477.272" y="759.5961">has a</text><text fill="#000000" font-family="sans-serif" font-size="10.4" lengthAdjust="spacing" textLength="5.6" x="460.2489" y="741.3901">1</text><text fill="#000000" font-family="sans-serif" font-size="10.4" lengthAdjust="spacing" textLength="5.6" x="459.7545" y="822.2219">1</text><!--MD5=[39307a57e800e669e446a1017bb37a9f]
link TestResult to LaboratoryCoordinator--><path codeLine="156" d="M453.696,869.344 C438.664,892.976 413.936,935.608 402.872,976 C350.416,1167.536 354.12,1406.096 359.272,1513.592 " fill="none" id="TestResult-LaboratoryCoordinator" style="stroke:#A80036;stroke-width:0.8;"/><polygon fill="#000000" points="363.8919,1296.0983,367.2676,1289.2797,362.615,1288.5978,363.8919,1296.0983" style="stroke:#000000;stroke-width:0.8;"/><text fill="#000000" font-family="sans-serif" font-size="10.4" lengthAdjust="spacing" textLength="54.4" x="371.672" y="1296.3961">validated by</text><text fill="#000000" font-family="sans-serif" font-size="10.4" lengthAdjust="spacing" textLength="4" x="446.1919" y="886.4495">*</text><text fill="#000000" font-family="sans-serif" font-size="10.4" lengthAdjust="spacing" textLength="5.6" x="353.012" y="1504.9666">1</text><!--MD5=[b68fa5675f8a531b49dc6f7e20370c4c]
link TestResult to SpecialistDoctor--><path codeLine="157" d="M466.072,869.512 C466.072,894.128 466.072,938.608 466.072,975.8 " fill="none" id="TestResult-SpecialistDoctor" style="stroke:#A80036;stroke-width:0.8;"/><polygon fill="#000000" points="470.072,948.9406,472.4231,941.7046,467.7209,941.7046,470.072,948.9406" style="stroke:#000000;stroke-width:0.8;"/><text fill="#000000" font-family="sans-serif" font-size="10.4" lengthAdjust="spacing" textLength="56" x="477.272" y="949.1961">analysed by</text><text fill="#000000" font-family="sans-serif" font-size="10.4" lengthAdjust="spacing" textLength="4" x="461.6095" y="886.3328">*</text><text fill="#000000" font-family="sans-serif" font-size="10.4" lengthAdjust="spacing" textLength="5.6" x="460.2139" y="967.349">1</text><!--MD5=[c3eab042445b9f1143b07b00e4f65a8d]
link TestResult to ClinicalChemistryTechnologist--><path codeLine="158" d="M448.328,869.312 C434.648,882.84 414.76,900.952 394.872,913.6 C372.296,927.96 361.216,921.736 339.672,937.6 C323.056,949.84 307.448,965.8 294.168,981.416 " fill="none" id="TestResult-ClinicalChemistryTechnologist" style="stroke:#A80036;stroke-width:0.8;"/><polygon fill="#000000" points="346.9071,942.5881,339.672,944.9423,342.4376,948.7454,346.9071,942.5881" style="stroke:#000000;stroke-width:0.8;"/><text fill="#000000" font-family="sans-serif" font-size="10.4" lengthAdjust="spacing" textLength="45.6" x="350.872" y="949.1961">generates</text><text fill="#000000" font-family="sans-serif" font-size="10.4" lengthAdjust="spacing" textLength="4" x="439.5154" y="886.4097">*</text><text fill="#000000" font-family="sans-serif" font-size="10.4" lengthAdjust="spacing" textLength="5.6" x="292.5792" y="972.7725">1</text><!--MD5=[6351e58b5f8c8ec0a6ac945d352d6ad9]
link TestResult to ParameterResult--><path codeLine="159" d="M495.784,869.232 C533.104,892.744 598.672,935.256 651.672,976 C669.952,990.048 689.608,1007.36 703.76,1020.24 " fill="none" id="TestResult-ParameterResult" style="stroke:#A80036;stroke-width:0.8;"/><polygon fill="#000000" points="624.5088,947.2908,620.0348,941.1368,617.272,944.9418,624.5088,947.2908" style="stroke:#000000;stroke-width:0.8;"/><text fill="#000000" font-family="sans-serif" font-size="10.4" lengthAdjust="spacing" textLength="16.8" x="628.472" y="949.1961">has</text><text fill="#000000" font-family="sans-serif" font-size="10.4" lengthAdjust="spacing" textLength="5.6" x="496.7438" y="886.3102">1</text><text fill="#000000" font-family="sans-serif" font-size="10.4" lengthAdjust="spacing" textLength="4" x="694.1451" y="1011.6711">*</text><!--MD5=[0985ee834cc881275852ed47ce1e01f6]
link TestType to Administrator--><path codeLine="160" d="M894.592,874.808 C902.416,899.848 914.424,940.344 922.072,976 C932.928,1026.616 941.32,1084.944 946.648,1127 " fill="none" id="TestType-Administrator" style="stroke:#A80036;stroke-width:0.8;"/><polygon fill="#000000" points="921.2806,948.858,922.1204,941.2961,917.5152,942.2467,921.2806,948.858" style="stroke:#000000;stroke-width:0.8;"/><text fill="#000000" font-family="sans-serif" font-size="10.4" lengthAdjust="spacing" textLength="48.8" x="927.672" y="949.1961">created by</text><text fill="#000000" font-family="sans-serif" font-size="10.4" lengthAdjust="spacing" textLength="4" x="891.7181" y="891.7888">*</text><text fill="#000000" font-family="sans-serif" font-size="10.4" lengthAdjust="spacing" textLength="5.6" x="940.0761" y="1118.3548">1</text><!--MD5=[5b7a9ded131023be416e27d15bcd6d77]
link TestType to Parameter--><path codeLine="161" d="M885.344,874.944 C881.112,936.792 867.472,1105.712 837.272,1243.2 C835.544,1251.056 833.096,1259.464 830.672,1267.016 " fill="none" id="TestType-Parameter" style="stroke:#A80036;stroke-width:0.8;"/><polygon fill="#000000" points="880.7196,1043.7023,884.0475,1036.8603,879.3903,1036.2109,880.7196,1043.7023" style="stroke:#000000;stroke-width:0.8;"/><text fill="#000000" font-family="sans-serif" font-size="10.4" lengthAdjust="spacing" textLength="16.8" x="888.472" y="1043.9961">has</text><text fill="#000000" font-family="sans-serif" font-size="10.4" lengthAdjust="spacing" textLength="5.6" x="878.8919" y="891.9515">1</text><text fill="#000000" font-family="sans-serif" font-size="10.4" lengthAdjust="spacing" textLength="16" x="834.0958" y="1258.5817">1..*</text><!--MD5=[c02759505cd9079d551ae7bab6dfe172]
@startuml
skinparam classAttributeIconSize 0

class Administrator {
-employeeID
-organizationID
-name
-address
-phoneNumber
-email
-SOCcode
}
class Category {
-code
-description
-nhsID
}
class ChemicalLaboratory {
-name
-address
-phoneNumber
-TIN
}
class Client {
-name 
-cardNumber 
-birthDate 
-sex 
-nhsID
-TIF
-phoneNumber
-email
}
class ClinicalAnalysisLaboratory {
-name
-address
-phoneNumber
-TIN
-laboratoryID
}
class ClinicalChemistryTechnologist {
-employeeID
-organizationID
-name
-address
-phoneNumber
-email
-SOCcode
}
class Company {
-designation
}
class Diagnosis
class LabOrder {
-testType 
-parameters 
}
class LaboratoryCoordinator {
-employeeID
-organizationID
-name
-address
-phoneNumber
-email
-SOCcode
}
class MedicalLabTechnician {
-employeeID
-organizationID
-name
-address
-phoneNumber
-email
-SOCcode
}
class NHS
class Receptionist {
-employeeID
-organizationID
-name
-address
-phoneNumber
-email
-SOCcode
}
class Test {
-internalCode 
-nhsCode
-createdAt
-sampleCollectionMethod
-dateAnalysis
-timeAnalysis
-dateDiagnosis
-timeDiagnosis
-dateValidation
-timeValidation
}
class Parameter {
-designation
}
class ParameterResult
class Report {
-textBody
}
class TestResult
class TestType {
-designation
}
class Sample {
-barcode
-dateCollection
-timeCollection
}
class SampleType
class SpecialistDoctor {
-employeeID
-organizationID
-name
-address
-phoneNumber
-email
-SOCcode
-doctorIndexNumber
}

Administrator "1"- -"*" Category : created by <
ChemicalLaboratory "1"- -"*" Sample : analyses >
Client "1"- -"*" LabOrder : has a >
ClinicalAnalysisLaboratory "1"- -"*" Sample : collects >
ClinicalAnalysisLaboratory "1"- -"*" TestType : performs >
ClinicalChemistryTechnologist "1"- -"*" Sample : analysed by <
Company "1"-down-"*" TestType : conducts >
Company "1"-down-"*" Category : has >
Company "1"-down-"*" ClinicalAnalysisLaboratory : owns >
Company "1"-down-"1" ChemicalLaboratory : owns >
Diagnosis "*"- -"1" LaboratoryCoordinator : validated by >
Diagnosis "*"- -"1" SpecialistDoctor : generates <
MedicalLabTechnician "1"- -"*" Sample : collected by <
NHS "1"- -"1" Company : requests report to >
Parameter "*"- -"1" Category : presented under >
ParameterResult "1"- -"1" Parameter : associated to >
Receptionist "1"- -"*" Client : registers >
Receptionist "1"- -"*" Test : registers >
Report "1"- -"1" Diagnosis : contains >
Report "1"- -"1" TestResult : associated to >
Sample "*"- -"1" Client : associated to >
Sample "*"- -"1" Test : associated to >
SampleType "1"- -"1" Sample  : is of <
SpecialistDoctor "1"- -"*" Report : generates >
Test "*"- -"1" Client : requested by >
Test "*"-up-"1" Company : performs <
Test "*"- -"1..*" Parameter : requests analysis of >
Test "1"- -"1" LabOrder : requires >
Test "*"- -"1" "TestType" : is of >
Test "1"- -"1" TestResult : has a >
Test "1"- -"*" Sample : collects >
TestResult "*"- -"1" LaboratoryCoordinator : validated by >
TestResult "*"- -"1" SpecialistDoctor : analysed by >
TestResult "*"- -"1" ClinicalChemistryTechnologist : generates <
TestResult "1"- -"*" ParameterResult : has >
TestType "*"- -"1" Administrator : created by >
TestType "1"- -"1..*" Parameter : has >
@enduml

PlantUML version 1.2021.2(Sun Mar 07 11:10:27 GMT 2021)
(GPL source distribution)
Java Runtime: OpenJDK Runtime Environment
JVM: OpenJDK 64-Bit Server VM
Default Encoding: Cp1252
Language: pt
Country: PT
--></g></svg>