<?xml version="1.0" encoding="UTF-8" standalone="no"?><svg xmlns="http://www.w3.org/2000/svg" xmlns:xlink="http://www.w3.org/1999/xlink" contentScriptType="application/ecmascript" contentStyleType="text/css" height="1188px" preserveAspectRatio="none" style="width:569px;height:1188px;" version="1.1" viewBox="0 0 569 1188" width="569px" zoomAndPan="magnify"><defs><filter height="300%" id="fl1oea5tbtfe" width="300%" x="-1" y="-1"><feGaussianBlur result="blurOut" stdDeviation="2.0"/><feColorMatrix in="blurOut" result="blurOut2" type="matrix" values="0 0 0 0 0 0 0 0 0 0 0 0 0 0 0 0 0 0 .4 0"/><feOffset dx="4.0" dy="4.0" in="blurOut2" result="blurOut3"/><feBlend in="SourceGraphic" in2="blurOut3" mode="normal"/></filter></defs><g><!--MD5=[da547346deef918ea16944ba046651ef]
class Administrator--><rect codeLine="4" fill="#FEFECE" filter="url(#fl1oea5tbtfe)" height="48" id="Administrator" style="stroke:#A80036;stroke-width:1.5;" width="105" x="255.92" y="7"/><ellipse cx="270.92" cy="23" fill="#ADD1B2" rx="11" ry="11" style="stroke:#A80036;stroke-width:1.0;"/><path d="M272.92,19.5 Q273.1231,19 273.3575,18.75 Q273.5919,18.5 273.8575,18.5 Q274.3262,18.5 274.6231,18.7813 Q274.92,19.0625 274.92,19.7188 L274.92,21.2813 Q274.92,21.9375 274.6387,22.2188 Q274.3575,22.5 273.92,22.5 Q273.5294,22.5 273.2794,22.3281 Q273.0294,22.1563 272.92,21.7031 Q272.8731,21.3906 272.7012,21.2188 Q272.3887,20.8906 271.8262,20.7031 Q271.2637,20.5 270.7012,20.5 Q269.9981,20.5 269.4044,20.7813 Q268.8262,21.0625 268.3731,21.6875 Q267.92,22.3125 267.92,23.1719 L267.92,24.0938 Q267.92,25.125 268.7637,25.8125 Q269.6075,26.5 271.1075,26.5 Q271.9981,26.5 272.6231,26.2969 Q272.9825,26.1875 273.3887,25.8281 Q273.6544,25.625 273.795,25.5625 Q273.9356,25.5 274.1075,25.5 Q274.4356,25.5 274.67,25.7656 Q274.92,26.0156 274.92,26.375 Q274.92,26.7188 274.5762,27.125 Q274.0762,27.7188 273.2794,28.0469 Q272.2325,28.5 270.9512,28.5 Q269.4512,28.5 268.2481,27.9063 Q267.2794,27.4375 266.5919,26.4219 Q265.92,25.4063 265.92,24.2031 L265.92,23.1094 Q265.92,21.8594 266.5137,20.7656 Q267.1231,19.6719 268.17,19.0938 Q269.2325,18.5 270.42,18.5 Q271.1387,18.5 271.7637,18.75 Q272.3887,19 272.92,19.5 Z " fill="#000000"/><text fill="#000000" font-family="sans-serif" font-size="12" lengthAdjust="spacing" textLength="73" x="284.92" y="27.9102">Administrator</text><line style="stroke:#A80036;stroke-width:1.5;" x1="256.92" x2="359.92" y1="39" y2="39"/><line style="stroke:#A80036;stroke-width:1.5;" x1="256.92" x2="359.92" y1="47" y2="47"/><!--MD5=[bebdcc43ebcb1534ee764d1f430c03ae]
class CreateTestTypeUI--><rect codeLine="5" fill="#FEFECE" filter="url(#fl1oea5tbtfe)" height="144.8516" id="CreateTestTypeUI" style="stroke:#A80036;stroke-width:1.5;" width="179" x="130.92" y="116"/><ellipse cx="167.52" cy="132" fill="#ADD1B2" rx="11" ry="11" style="stroke:#A80036;stroke-width:1.0;"/><path d="M169.52,128.5 Q169.7231,128 169.9575,127.75 Q170.1919,127.5 170.4575,127.5 Q170.9262,127.5 171.2231,127.7813 Q171.52,128.0625 171.52,128.7188 L171.52,130.2813 Q171.52,130.9375 171.2387,131.2188 Q170.9575,131.5 170.52,131.5 Q170.1294,131.5 169.8794,131.3281 Q169.6294,131.1563 169.52,130.7031 Q169.4731,130.3906 169.3012,130.2188 Q168.9887,129.8906 168.4262,129.7031 Q167.8637,129.5 167.3012,129.5 Q166.5981,129.5 166.0044,129.7813 Q165.4262,130.0625 164.9731,130.6875 Q164.52,131.3125 164.52,132.1719 L164.52,133.0938 Q164.52,134.125 165.3637,134.8125 Q166.2075,135.5 167.7075,135.5 Q168.5981,135.5 169.2231,135.2969 Q169.5825,135.1875 169.9887,134.8281 Q170.2544,134.625 170.395,134.5625 Q170.5356,134.5 170.7075,134.5 Q171.0356,134.5 171.27,134.7656 Q171.52,135.0156 171.52,135.375 Q171.52,135.7188 171.1762,136.125 Q170.6762,136.7188 169.8794,137.0469 Q168.8325,137.5 167.5512,137.5 Q166.0512,137.5 164.8481,136.9063 Q163.8794,136.4375 163.1919,135.4219 Q162.52,134.4063 162.52,133.2031 L162.52,132.1094 Q162.52,130.8594 163.1137,129.7656 Q163.7231,128.6719 164.77,128.0938 Q165.8325,127.5 167.02,127.5 Q167.7387,127.5 168.3637,127.75 Q168.9887,128 169.52,128.5 Z " fill="#000000"/><text fill="#000000" font-family="sans-serif" font-size="12" lengthAdjust="spacing" textLength="99" x="186.32" y="136.9102">CreateTestTypeUI</text><line style="stroke:#A80036;stroke-width:1.5;" x1="131.92" x2="308.92" y1="148" y2="148"/><line style="stroke:#A80036;stroke-width:1.5;" x1="131.92" x2="308.92" y1="156" y2="156"/><text fill="#000000" font-family="sans-serif" font-size="11" lengthAdjust="spacing" textLength="90" x="136.92" y="171.4189">+createTestType()</text><text fill="#000000" font-family="sans-serif" font-size="11" lengthAdjust="spacing" textLength="126" x="136.92" y="185.2549">+createCollectionMethod()</text><text fill="#000000" font-family="sans-serif" font-size="11" lengthAdjust="spacing" textLength="109" x="136.92" y="199.0908">+setCode(String code)</text><text fill="#000000" font-family="sans-serif" font-size="11" lengthAdjust="spacing" textLength="167" x="136.92" y="212.9268">+setDescription(String description)</text><text fill="#000000" font-family="sans-serif" font-size="11" lengthAdjust="spacing" textLength="109" x="136.92" y="226.7627">+displayCategoryList()</text><text fill="#000000" font-family="sans-serif" font-size="11" lengthAdjust="spacing" textLength="81" x="136.92" y="240.5986">+setCategories()</text><text fill="#000000" font-family="sans-serif" font-size="11" lengthAdjust="spacing" textLength="83" x="136.92" y="254.4346">+saveTestType()</text><!--MD5=[2c845ebea24388d268f5a9acbeca4fd9]
class CreateTestTypeController--><rect codeLine="15" fill="#FEFECE" filter="url(#fl1oea5tbtfe)" height="172.5234" id="CreateTestTypeController" style="stroke:#A80036;stroke-width:1.5;" width="277" x="14.92" y="322"/><ellipse cx="78.67" cy="338" fill="#ADD1B2" rx="11" ry="11" style="stroke:#A80036;stroke-width:1.0;"/><path d="M80.67,334.5 Q80.8731,334 81.1075,333.75 Q81.3419,333.5 81.6075,333.5 Q82.0763,333.5 82.3731,333.7813 Q82.67,334.0625 82.67,334.7188 L82.67,336.2813 Q82.67,336.9375 82.3888,337.2188 Q82.1075,337.5 81.67,337.5 Q81.2794,337.5 81.0294,337.3281 Q80.7794,337.1563 80.67,336.7031 Q80.6231,336.3906 80.4513,336.2188 Q80.1388,335.8906 79.5763,335.7031 Q79.0138,335.5 78.4513,335.5 Q77.7481,335.5 77.1544,335.7813 Q76.5763,336.0625 76.1231,336.6875 Q75.67,337.3125 75.67,338.1719 L75.67,339.0938 Q75.67,340.125 76.5138,340.8125 Q77.3575,341.5 78.8575,341.5 Q79.7481,341.5 80.3731,341.2969 Q80.7325,341.1875 81.1388,340.8281 Q81.4044,340.625 81.545,340.5625 Q81.6856,340.5 81.8575,340.5 Q82.1856,340.5 82.42,340.7656 Q82.67,341.0156 82.67,341.375 Q82.67,341.7188 82.3263,342.125 Q81.8263,342.7188 81.0294,343.0469 Q79.9825,343.5 78.7013,343.5 Q77.2013,343.5 75.9981,342.9063 Q75.0294,342.4375 74.3419,341.4219 Q73.67,340.4063 73.67,339.2031 L73.67,338.1094 Q73.67,336.8594 74.2638,335.7656 Q74.8731,334.6719 75.92,334.0938 Q76.9825,333.5 78.17,333.5 Q78.8888,333.5 79.5138,333.75 Q80.1388,334 80.67,334.5 Z " fill="#000000"/><text fill="#000000" font-family="sans-serif" font-size="12" lengthAdjust="spacing" textLength="141" x="99.17" y="342.9102">CreateTestTypeController</text><line style="stroke:#A80036;stroke-width:1.5;" x1="15.92" x2="290.92" y1="354" y2="354"/><line style="stroke:#A80036;stroke-width:1.5;" x1="15.92" x2="290.92" y1="362" y2="362"/><text fill="#000000" font-family="sans-serif" font-size="11" lengthAdjust="spacing" textLength="90" x="20.92" y="377.4189">+createTestType()</text><text fill="#000000" font-family="sans-serif" font-size="11" lengthAdjust="spacing" textLength="126" x="20.92" y="391.2549">+createCollectionMethod()</text><text fill="#000000" font-family="sans-serif" font-size="11" lengthAdjust="spacing" textLength="109" x="20.92" y="405.0908">+setCode(String code)</text><text fill="#000000" font-family="sans-serif" font-size="11" lengthAdjust="spacing" textLength="167" x="20.92" y="418.9268">+setDescription(String description)</text><text fill="#000000" font-family="sans-serif" font-size="11" lengthAdjust="spacing" textLength="194" x="20.92" y="432.7627">+setCollectionMethod(String description)</text><text fill="#000000" font-family="sans-serif" font-size="11" lengthAdjust="spacing" textLength="265" x="20.92" y="446.5986">+setCollectionMethodToTestType(CollectionMethod cm)</text><text fill="#000000" font-family="sans-serif" font-size="11" lengthAdjust="spacing" textLength="83" x="20.92" y="460.4346">+saveTestType()</text><text fill="#000000" font-family="sans-serif" font-size="11" lengthAdjust="spacing" textLength="109" x="20.92" y="474.2705">+displayCategoryList()</text><text fill="#000000" font-family="sans-serif" font-size="11" lengthAdjust="spacing" textLength="178" x="20.92" y="488.1064">+setCategoriesToTestType(int index)</text><!--MD5=[ec908970c524777c08fd0d8397a1f7bf]
class CollectionMethod--><rect codeLine="27" fill="#FEFECE" filter="url(#fl1oea5tbtfe)" height="103.3438" id="CollectionMethod" style="stroke:#A80036;stroke-width:1.5;" width="201" x="18.92" y="1071"/><ellipse cx="67.67" cy="1087" fill="#ADD1B2" rx="11" ry="11" style="stroke:#A80036;stroke-width:1.0;"/><path d="M69.67,1083.5 Q69.8731,1083 70.1075,1082.75 Q70.3419,1082.5 70.6075,1082.5 Q71.0763,1082.5 71.3731,1082.7813 Q71.67,1083.0625 71.67,1083.7188 L71.67,1085.2813 Q71.67,1085.9375 71.3888,1086.2188 Q71.1075,1086.5 70.67,1086.5 Q70.2794,1086.5 70.0294,1086.3281 Q69.7794,1086.1563 69.67,1085.7031 Q69.6231,1085.3906 69.4513,1085.2188 Q69.1388,1084.8906 68.5763,1084.7031 Q68.0138,1084.5 67.4513,1084.5 Q66.7481,1084.5 66.1544,1084.7813 Q65.5763,1085.0625 65.1231,1085.6875 Q64.67,1086.3125 64.67,1087.1719 L64.67,1088.0938 Q64.67,1089.125 65.5138,1089.8125 Q66.3575,1090.5 67.8575,1090.5 Q68.7481,1090.5 69.3731,1090.2969 Q69.7325,1090.1875 70.1388,1089.8281 Q70.4044,1089.625 70.545,1089.5625 Q70.6856,1089.5 70.8575,1089.5 Q71.1856,1089.5 71.42,1089.7656 Q71.67,1090.0156 71.67,1090.375 Q71.67,1090.7188 71.3263,1091.125 Q70.8263,1091.7188 70.0294,1092.0469 Q68.9825,1092.5 67.7013,1092.5 Q66.2013,1092.5 64.9981,1091.9063 Q64.0294,1091.4375 63.3419,1090.4219 Q62.67,1089.4063 62.67,1088.2031 L62.67,1087.1094 Q62.67,1085.8594 63.2638,1084.7656 Q63.8731,1083.6719 64.92,1083.0938 Q65.9825,1082.5 67.17,1082.5 Q67.8888,1082.5 68.5138,1082.75 Q69.1388,1083 69.67,1083.5 Z " fill="#000000"/><text fill="#000000" font-family="sans-serif" font-size="12" lengthAdjust="spacing" textLength="95" x="88.17" y="1091.9102">CollectionMethod</text><line style="stroke:#A80036;stroke-width:1.5;" x1="19.92" x2="218.92" y1="1103" y2="1103"/><text fill="#000000" font-family="sans-serif" font-size="11" lengthAdjust="spacing" textLength="88" x="24.92" y="1118.4189">-String description</text><line style="stroke:#A80036;stroke-width:1.5;" x1="19.92" x2="218.92" y1="1124.8359" y2="1124.8359"/><text fill="#000000" font-family="sans-serif" font-size="11" lengthAdjust="spacing" textLength="167" x="24.92" y="1140.2549">+setDescription(String description)</text><text fill="#000000" font-family="sans-serif" font-size="11" lengthAdjust="spacing" textLength="83" x="24.92" y="1154.0908">+getDescription()</text><text fill="#000000" font-family="sans-serif" font-size="11" lengthAdjust="spacing" textLength="189" x="24.92" y="1167.9268">+validateDescription(String description)</text><!--MD5=[aeb3272166074d8737a70b61b1e71682]
class TestType--><rect codeLine="34" fill="#FEFECE" filter="url(#fl1oea5tbtfe)" height="241.7031" id="TestType" style="stroke:#A80036;stroke-width:1.5;" width="286" x="269.42" y="751"/><ellipse cx="383.17" cy="767" fill="#ADD1B2" rx="11" ry="11" style="stroke:#A80036;stroke-width:1.0;"/><path d="M385.17,763.5 Q385.3731,763 385.6075,762.75 Q385.8419,762.5 386.1075,762.5 Q386.5763,762.5 386.8731,762.7813 Q387.17,763.0625 387.17,763.7188 L387.17,765.2813 Q387.17,765.9375 386.8888,766.2188 Q386.6075,766.5 386.17,766.5 Q385.7794,766.5 385.5294,766.3281 Q385.2794,766.1563 385.17,765.7031 Q385.1231,765.3906 384.9513,765.2188 Q384.6388,764.8906 384.0763,764.7031 Q383.5138,764.5 382.9513,764.5 Q382.2481,764.5 381.6544,764.7813 Q381.0763,765.0625 380.6231,765.6875 Q380.17,766.3125 380.17,767.1719 L380.17,768.0938 Q380.17,769.125 381.0138,769.8125 Q381.8575,770.5 383.3575,770.5 Q384.2481,770.5 384.8731,770.2969 Q385.2325,770.1875 385.6388,769.8281 Q385.9044,769.625 386.045,769.5625 Q386.1856,769.5 386.3575,769.5 Q386.6856,769.5 386.92,769.7656 Q387.17,770.0156 387.17,770.375 Q387.17,770.7188 386.8263,771.125 Q386.3263,771.7188 385.5294,772.0469 Q384.4825,772.5 383.2013,772.5 Q381.7013,772.5 380.4981,771.9063 Q379.5294,771.4375 378.8419,770.4219 Q378.17,769.4063 378.17,768.2031 L378.17,767.1094 Q378.17,765.8594 378.7638,764.7656 Q379.3731,763.6719 380.42,763.0938 Q381.4825,762.5 382.67,762.5 Q383.3888,762.5 384.0138,762.75 Q384.6388,763 385.17,763.5 Z " fill="#000000"/><text fill="#000000" font-family="sans-serif" font-size="12" lengthAdjust="spacing" textLength="50" x="403.67" y="771.9102">TestType</text><line style="stroke:#A80036;stroke-width:1.5;" x1="270.42" x2="554.42" y1="783" y2="783"/><text fill="#000000" font-family="sans-serif" font-size="11" lengthAdjust="spacing" textLength="59" x="275.42" y="798.4189">-String code</text><text fill="#000000" font-family="sans-serif" font-size="11" lengthAdjust="spacing" textLength="88" x="275.42" y="812.2549">-String description</text><text fill="#000000" font-family="sans-serif" font-size="11" lengthAdjust="spacing" textLength="168" x="275.42" y="826.0908">-CollectionMethod collectionMethod</text><text fill="#000000" font-family="sans-serif" font-size="11" lengthAdjust="spacing" textLength="155" x="275.42" y="839.9268">-Arraylist&lt;Category&gt; categories</text><line style="stroke:#A80036;stroke-width:1.5;" x1="270.42" x2="554.42" y1="846.3438" y2="846.3438"/><text fill="#000000" font-family="sans-serif" font-size="11" lengthAdjust="spacing" textLength="109" x="275.42" y="861.7627">+setCode(String code)</text><text fill="#000000" font-family="sans-serif" font-size="11" lengthAdjust="spacing" textLength="167" x="275.42" y="875.5986">+setDescription(String description)</text><text fill="#000000" font-family="sans-serif" font-size="11" lengthAdjust="spacing" textLength="274" x="275.42" y="889.4346">+setCollectionMethod(CollectionMethod collectionMethod)</text><text fill="#000000" font-family="sans-serif" font-size="11" lengthAdjust="spacing" textLength="163" x="275.42" y="903.2705">+setCategory(Category category)</text><text fill="#000000" font-family="sans-serif" font-size="11" lengthAdjust="spacing" textLength="54" x="275.42" y="917.1064">+getCode()</text><text fill="#000000" font-family="sans-serif" font-size="11" lengthAdjust="spacing" textLength="110" x="275.42" y="930.9424">+getCollectionMethod()</text><text fill="#000000" font-family="sans-serif" font-size="11" lengthAdjust="spacing" textLength="81" x="275.42" y="944.7783">+getCategories()</text><text fill="#000000" font-family="sans-serif" font-size="11" lengthAdjust="spacing" textLength="131" x="275.42" y="958.6143">+validateCode(String code)</text><text fill="#000000" font-family="sans-serif" font-size="11" lengthAdjust="spacing" textLength="189" x="275.42" y="972.4502">+validateDescription(String description)</text><text fill="#000000" font-family="sans-serif" font-size="11" lengthAdjust="spacing" textLength="193" x="275.42" y="986.2861">+validateCategories(Category category)</text><!--MD5=[02e4b9b7573f1156f41e60aa5b4e25a4]
class Company--><rect codeLine="51" fill="#FEFECE" filter="url(#fl1oea5tbtfe)" height="117.1797" id="Company" style="stroke:#A80036;stroke-width:1.5;" width="152" x="171.42" y="556"/><ellipse cx="216.67" cy="572" fill="#ADD1B2" rx="11" ry="11" style="stroke:#A80036;stroke-width:1.0;"/><path d="M218.67,568.5 Q218.8731,568 219.1075,567.75 Q219.3419,567.5 219.6075,567.5 Q220.0763,567.5 220.3731,567.7813 Q220.67,568.0625 220.67,568.7188 L220.67,570.2813 Q220.67,570.9375 220.3888,571.2188 Q220.1075,571.5 219.67,571.5 Q219.2794,571.5 219.0294,571.3281 Q218.7794,571.1563 218.67,570.7031 Q218.6231,570.3906 218.4513,570.2188 Q218.1388,569.8906 217.5763,569.7031 Q217.0138,569.5 216.4513,569.5 Q215.7481,569.5 215.1544,569.7813 Q214.5763,570.0625 214.1231,570.6875 Q213.67,571.3125 213.67,572.1719 L213.67,573.0938 Q213.67,574.125 214.5138,574.8125 Q215.3575,575.5 216.8575,575.5 Q217.7481,575.5 218.3731,575.2969 Q218.7325,575.1875 219.1388,574.8281 Q219.4044,574.625 219.545,574.5625 Q219.6856,574.5 219.8575,574.5 Q220.1856,574.5 220.42,574.7656 Q220.67,575.0156 220.67,575.375 Q220.67,575.7188 220.3263,576.125 Q219.8263,576.7188 219.0294,577.0469 Q217.9825,577.5 216.7013,577.5 Q215.2013,577.5 213.9981,576.9063 Q213.0294,576.4375 212.3419,575.4219 Q211.67,574.4063 211.67,573.2031 L211.67,572.1094 Q211.67,570.8594 212.2638,569.7656 Q212.8731,568.6719 213.92,568.0938 Q214.9825,567.5 216.17,567.5 Q216.8888,567.5 217.5138,567.75 Q218.1388,568 218.67,568.5 Z " fill="#000000"/><text fill="#000000" font-family="sans-serif" font-size="12" lengthAdjust="spacing" textLength="53" x="237.17" y="576.9102">Company</text><line style="stroke:#A80036;stroke-width:1.5;" x1="172.42" x2="322.42" y1="588" y2="588"/><text fill="#000000" font-family="sans-serif" font-size="11" lengthAdjust="spacing" textLength="90" x="177.42" y="603.4189">-String designation</text><text fill="#000000" font-family="sans-serif" font-size="11" lengthAdjust="spacing" textLength="90" x="177.42" y="617.2549">-TestTypeStore tts</text><text fill="#000000" font-family="sans-serif" font-size="11" lengthAdjust="spacing" textLength="140" x="177.42" y="631.0908">-List&lt;Category&gt; categoryList</text><line style="stroke:#A80036;stroke-width:1.5;" x1="172.42" x2="322.42" y1="637.5078" y2="637.5078"/><text fill="#000000" font-family="sans-serif" font-size="11" lengthAdjust="spacing" textLength="90" x="177.42" y="652.9268">+getCategoryList()</text><text fill="#000000" font-family="sans-serif" font-size="11" lengthAdjust="spacing" textLength="100" x="177.42" y="666.7627">+getTestTypeStore()</text><!--MD5=[6ba72ddf03822b91e8d41ca71de58ed3]
class TestTypeStore--><rect codeLine="59" fill="#FEFECE" filter="url(#fl1oea5tbtfe)" height="131.0156" id="TestTypeStore" style="stroke:#A80036;stroke-width:1.5;" width="180" x="54.42" y="806.5"/><ellipse cx="100.67" cy="822.5" fill="#ADD1B2" rx="11" ry="11" style="stroke:#A80036;stroke-width:1.0;"/><path d="M102.67,819 Q102.8731,818.5 103.1075,818.25 Q103.3419,818 103.6075,818 Q104.0763,818 104.3731,818.2813 Q104.67,818.5625 104.67,819.2188 L104.67,820.7813 Q104.67,821.4375 104.3888,821.7188 Q104.1075,822 103.67,822 Q103.2794,822 103.0294,821.8281 Q102.7794,821.6563 102.67,821.2031 Q102.6231,820.8906 102.4513,820.7188 Q102.1388,820.3906 101.5763,820.2031 Q101.0138,820 100.4513,820 Q99.7481,820 99.1544,820.2813 Q98.5763,820.5625 98.1231,821.1875 Q97.67,821.8125 97.67,822.6719 L97.67,823.5938 Q97.67,824.625 98.5138,825.3125 Q99.3575,826 100.8575,826 Q101.7481,826 102.3731,825.7969 Q102.7325,825.6875 103.1388,825.3281 Q103.4044,825.125 103.545,825.0625 Q103.6856,825 103.8575,825 Q104.1856,825 104.42,825.2656 Q104.67,825.5156 104.67,825.875 Q104.67,826.2188 104.3263,826.625 Q103.8263,827.2188 103.0294,827.5469 Q101.9825,828 100.7013,828 Q99.2013,828 97.9981,827.4063 Q97.0294,826.9375 96.3419,825.9219 Q95.67,824.9063 95.67,823.7031 L95.67,822.6094 Q95.67,821.3594 96.2638,820.2656 Q96.8731,819.1719 97.92,818.5938 Q98.9825,818 100.17,818 Q100.8888,818 101.5138,818.25 Q102.1388,818.5 102.67,819 Z " fill="#000000"/><text fill="#000000" font-family="sans-serif" font-size="12" lengthAdjust="spacing" textLength="79" x="121.17" y="827.4102">TestTypeStore</text><line style="stroke:#A80036;stroke-width:1.5;" x1="55.42" x2="233.42" y1="838.5" y2="838.5"/><text fill="#000000" font-family="sans-serif" font-size="11" lengthAdjust="spacing" textLength="168" x="60.42" y="853.9189">-ArrayList&lt;TestType&gt; testTypeList</text><line style="stroke:#A80036;stroke-width:1.5;" x1="55.42" x2="233.42" y1="860.3359" y2="860.3359"/><text fill="#000000" font-family="sans-serif" font-size="11" lengthAdjust="spacing" textLength="90" x="60.42" y="875.7549">+createTestType()</text><text fill="#000000" font-family="sans-serif" font-size="11" lengthAdjust="spacing" textLength="126" x="60.42" y="889.5908">+createCollectionMethod()</text><text fill="#000000" font-family="sans-serif" font-size="11" lengthAdjust="spacing" textLength="102" x="60.42" y="903.4268">+validateTestType(tt)</text><text fill="#000000" font-family="sans-serif" font-size="11" lengthAdjust="spacing" textLength="83" x="60.42" y="917.2627">+addTestType(tt)</text><text fill="#000000" font-family="sans-serif" font-size="11" lengthAdjust="spacing" textLength="91" x="60.42" y="931.0986">+getTestTypeList()</text><!--MD5=[a96594a83e2ecdc78cbf17c2ddf01934]
class Category--><rect fill="#FEFECE" filter="url(#fl1oea5tbtfe)" height="48" id="Category" style="stroke:#A80036;stroke-width:1.5;" width="81" x="371.92" y="1098.5"/><ellipse cx="386.92" cy="1114.5" fill="#ADD1B2" rx="11" ry="11" style="stroke:#A80036;stroke-width:1.0;"/><path d="M388.92,1111 Q389.1231,1110.5 389.3575,1110.25 Q389.5919,1110 389.8575,1110 Q390.3263,1110 390.6231,1110.2813 Q390.92,1110.5625 390.92,1111.2188 L390.92,1112.7813 Q390.92,1113.4375 390.6388,1113.7188 Q390.3575,1114 389.92,1114 Q389.5294,1114 389.2794,1113.8281 Q389.0294,1113.6563 388.92,1113.2031 Q388.8731,1112.8906 388.7013,1112.7188 Q388.3888,1112.3906 387.8263,1112.2031 Q387.2638,1112 386.7013,1112 Q385.9981,1112 385.4044,1112.2813 Q384.8263,1112.5625 384.3731,1113.1875 Q383.92,1113.8125 383.92,1114.6719 L383.92,1115.5938 Q383.92,1116.625 384.7638,1117.3125 Q385.6075,1118 387.1075,1118 Q387.9981,1118 388.6231,1117.7969 Q388.9825,1117.6875 389.3888,1117.3281 Q389.6544,1117.125 389.795,1117.0625 Q389.9356,1117 390.1075,1117 Q390.4356,1117 390.67,1117.2656 Q390.92,1117.5156 390.92,1117.875 Q390.92,1118.2188 390.5763,1118.625 Q390.0763,1119.2188 389.2794,1119.5469 Q388.2325,1120 386.9513,1120 Q385.4513,1120 384.2481,1119.4063 Q383.2794,1118.9375 382.5919,1117.9219 Q381.92,1116.9063 381.92,1115.7031 L381.92,1114.6094 Q381.92,1113.3594 382.5138,1112.2656 Q383.1231,1111.1719 384.17,1110.5938 Q385.2325,1110 386.42,1110 Q387.1388,1110 387.7638,1110.25 Q388.3888,1110.5 388.92,1111 Z " fill="#000000"/><text fill="#000000" font-family="sans-serif" font-size="12" lengthAdjust="spacing" textLength="49" x="400.92" y="1119.4102">Category</text><line style="stroke:#A80036;stroke-width:1.5;" x1="372.92" x2="451.92" y1="1130.5" y2="1130.5"/><line style="stroke:#A80036;stroke-width:1.5;" x1="372.92" x2="451.92" y1="1138.5" y2="1138.5"/><!--MD5=[19bd7f6e2d7783cadf568159f572f7c1]
link Administrator to CreateTestTypeUI--><path codeLine="68" d="M295.25,55.28 C286.7,70.39 275.03,91.01 263.44,111.47 " fill="none" id="Administrator-to-CreateTestTypeUI" style="stroke:#A80036;stroke-width:1.0;stroke-dasharray:7.0,7.0;"/><polygon fill="#A80036" points="260.98,115.83,268.9079,109.9863,263.453,111.4844,261.9549,106.0295,260.98,115.83" style="stroke:#A80036;stroke-width:1.0;"/><!--MD5=[69134a8957932d955e1f822b15ec4b1c]
link CreateTestTypeUI to CreateTestTypeController--><path codeLine="69" d="M198.39,261.18 C192.95,278.88 187.05,298.07 181.37,316.54 " fill="none" id="CreateTestTypeUI-to-CreateTestTypeController" style="stroke:#A80036;stroke-width:1.0;stroke-dasharray:7.0,7.0;"/><polygon fill="#A80036" points="179.78,321.73,186.2546,314.3084,181.2534,316.952,178.6098,311.9509,179.78,321.73" style="stroke:#A80036;stroke-width:1.0;"/><!--MD5=[71159b3869b6d7a411768e18bcaa697a]
link Administrator to TestType--><path codeLine="70" d="M331.54,55 C357.61,83.5 396.42,134.77 396.42,187.5 C396.42,187.5 396.42,187.5 396.42,615.5 C396.42,659.72 398.84,708.17 401.79,750.87 " fill="none" id="Administrator-TestType" style="stroke:#A80036;stroke-width:1.0;"/><polygon fill="#000000" points="400.9178,403.7011,398.9022,412.9956,404.7504,412.4052,400.9178,403.7011" style="stroke:#000000;stroke-width:1.0;"/><text fill="#000000" font-family="sans-serif" font-size="13" lengthAdjust="spacing" textLength="61" x="410.42" y="413.9951">created by</text><text fill="#000000" font-family="sans-serif" font-size="13" lengthAdjust="spacing" textLength="7" x="329.3224" y="76.338">1</text><text fill="#000000" font-family="sans-serif" font-size="13" lengthAdjust="spacing" textLength="5" x="395.9489" y="740.1135">*</text><!--MD5=[2148a3300dad30af455fcbe81ca204c2]
link TestType to Category--><path codeLine="71" d="M412.42,993.25 C412.42,1033.14 412.42,1073.58 412.42,1098.1 " fill="none" id="TestType-Category" style="stroke:#A80036;stroke-width:1.0;"/><polygon fill="#000000" points="417.42,1037.1758,420.3589,1028.1307,414.4811,1028.1307,417.42,1037.1758" style="stroke:#000000;stroke-width:1.0;"/><text fill="#000000" font-family="sans-serif" font-size="13" lengthAdjust="spacing" textLength="78" x="426.42" y="1037.4951">associated to</text><text fill="#000000" font-family="sans-serif" font-size="13" lengthAdjust="spacing" textLength="7" x="405.2177" y="1014.2361">1</text><text fill="#000000" font-family="sans-serif" font-size="13" lengthAdjust="spacing" textLength="20" x="389.9825" y="1087.7405">1..*</text><!--MD5=[2595b7e412cbba06707a2f110c7e1781]
link TestType to CollectionMethod--><path codeLine="72" d="M270.64,993.25 C238.36,1020.63 205.77,1048.26 179.16,1070.84 " fill="none" id="TestType-CollectionMethod" style="stroke:#A80036;stroke-width:1.0;"/><polygon fill="#000000" points="232.6068,1035.41,241.4059,1031.8006,237.6039,1027.318,232.6068,1035.41" style="stroke:#000000;stroke-width:1.0;"/><text fill="#000000" font-family="sans-serif" font-size="13" lengthAdjust="spacing" textLength="32" x="245.42" y="1037.4951">has a</text><text fill="#000000" font-family="sans-serif" font-size="13" lengthAdjust="spacing" textLength="7" x="255.241" y="1014.2361">1</text><text fill="#000000" font-family="sans-serif" font-size="13" lengthAdjust="spacing" textLength="7" x="179.7173" y="1060.3188">1</text><!--MD5=[742a261f27a3dcd734c626287d811acd]
link Company to TestType--><path codeLine="73" d="M275.41,673.05 C283.64,688.87 292.98,705.83 302.42,721 C308.56,730.87 315.15,740.93 321.94,750.93 " fill="none" id="Company-TestType" style="stroke:#A80036;stroke-width:1.0;"/><polygon fill="#000000" points="309.9845,716.4681,307.8682,707.1959,302.8224,710.2106,309.9845,716.4681" style="stroke:#000000;stroke-width:1.0;"/><text fill="#000000" font-family="sans-serif" font-size="13" lengthAdjust="spacing" textLength="53" x="316.42" y="717.4951">conducts</text><text fill="#000000" font-family="sans-serif" font-size="13" lengthAdjust="spacing" textLength="7" x="271.3947" y="694.6664">1</text><text fill="#000000" font-family="sans-serif" font-size="13" lengthAdjust="spacing" textLength="5" x="310.9835" y="740.1773">*</text><!--MD5=[812ef8251b528d1a64980212cceda9f5]
link CreateTestTypeController to Company--><path codeLine="74" d="M192.88,495.13 C201.51,513.86 210.49,533.36 218.62,550.99 " fill="none" id="CreateTestTypeController-to-Company" style="stroke:#A80036;stroke-width:1.0;stroke-dasharray:7.0,7.0;"/><polygon fill="#A80036" points="220.88,555.91,220.76,546.0619,218.7938,551.366,213.4896,549.3998,220.88,555.91" style="stroke:#A80036;stroke-width:1.0;"/><!--MD5=[5a82a387146907254b130c6b1980ca8f]
link CreateTestTypeController to TestType--><path codeLine="75" d="M134.83,495.15 C127.52,548.95 126.36,618.25 153.42,673 C155.23,676.65 207.89,717.14 265.25,760.55 " fill="none" id="CreateTestTypeController-to-TestType" style="stroke:#A80036;stroke-width:1.0;stroke-dasharray:7.0,7.0;"/><polygon fill="#A80036" points="269.39,763.68,264.6441,755.05,265.4089,760.6549,259.804,761.4198,269.39,763.68" style="stroke:#A80036;stroke-width:1.0;"/><!--MD5=[052e92fcdf9cd7163dfa2933718a6992]
link CreateTestTypeController to CollectionMethod--><path codeLine="76" d="M115.22,495.18 C87.15,563.03 51.4,661.05 36.42,751 C18.75,857.09 6,889.84 36.42,993 C44.13,1019.15 59,1044.99 74.06,1066.57 " fill="none" id="CreateTestTypeController-to-CollectionMethod" style="stroke:#A80036;stroke-width:1.0;stroke-dasharray:7.0,7.0;"/><polygon fill="#A80036" points="77.07,1070.82,75.1451,1061.1611,74.1855,1066.736,68.6106,1065.7763,77.07,1070.82" style="stroke:#A80036;stroke-width:1.0;"/><!--MD5=[141c3afa12b2b3c0a39ffce56dbd5f19]
link Company to TestTypeStore--><path codeLine="77" d="M224.18,673.16 C208.84,711.2 188.66,761.26 172.44,801.5 " fill="none" id="Company-to-TestTypeStore" style="stroke:#A80036;stroke-width:1.0;stroke-dasharray:7.0,7.0;"/><polygon fill="#A80036" points="170.48,806.36,177.5546,799.508,172.3492,801.7226,170.1347,796.5172,170.48,806.36" style="stroke:#A80036;stroke-width:1.0;"/><!--MD5=[19969e5868b75ba1ec530575b903fec3]
@startuml

skinparam classAttributeIconSize 0

class Administrator
class CreateTestTypeUI {
+createTestType()
+createCollectionMethod()
+setCode(String code)
+setDescription(String description)
+displayCategoryList()
+setCategories()
+saveTestType()
}

class CreateTestTypeController {
+createTestType()
+createCollectionMethod()
+setCode(String code)
+setDescription(String description)
+setCollectionMethod(String description)
+setCollectionMethodToTestType(CollectionMethod cm)
+saveTestType()
+displayCategoryList()
+setCategoriesToTestType(int index)
}

class CollectionMethod {
-String description
+setDescription(String description)
+getDescription()
+validateDescription(String description)
}

class TestType {
-String code
-String description
-CollectionMethod collectionMethod
-Arraylist<Category> categories
+setCode(String code)
+setDescription(String description)
+setCollectionMethod(CollectionMethod collectionMethod)
+setCategory(Category category)
+getCode()
+getCollectionMethod()
+getCategories()
+validateCode(String code)
+validateDescription(String description)
+validateCategories(Category category)
}

class Company {
-String designation
-TestTypeStore tts
-List<Category> categoryList
+getCategoryList()
+getTestTypeStore()
}

class TestTypeStore {
-ArrayList<TestType> testTypeList
+createTestType()
+createCollectionMethod()
+validateTestType(tt)
+addTestType(tt)
+getTestTypeList()
}

Administrator ..> CreateTestTypeUI
CreateTestTypeUI ..> CreateTestTypeController
TestType "*"-up-"1" Administrator : created by >
Category "1..*"-up-"1" TestType  : associated to <
TestType "1"- -"1" CollectionMethod : has a  >
Company "1"-down-"*" TestType : conducts >
CreateTestTypeController ..> Company
CreateTestTypeController ..> TestType
CreateTestTypeController ..> CollectionMethod
Company ..> TestTypeStore

@enduml

PlantUML version 1.2021.5(Sun Apr 25 12:20:28 BST 2021)
(GPL source distribution)
Java Runtime: OpenJDK Runtime Environment
JVM: Dynamic Code Evolution 64-Bit Server VM
Default Encoding: Cp1252
Language: pt
Country: PT
--></g></svg>