<?xml version="1.0" encoding="UTF-8" standalone="no"?><svg xmlns="http://www.w3.org/2000/svg" xmlns:xlink="http://www.w3.org/1999/xlink" contentScriptType="application/ecmascript" contentStyleType="text/css" height="1615.5px" preserveAspectRatio="none" style="width:787px;height:1615px;" version="1.1" viewBox="0 0 787 1615" width="787.5px" zoomAndPan="magnify"><defs><filter height="300%" id="f4r7lhjuq03md" width="300%" x="-1" y="-1"><feGaussianBlur result="blurOut" stdDeviation="3.0"/><feColorMatrix in="blurOut" result="blurOut2" type="matrix" values="0 0 0 0 0 0 0 0 0 0 0 0 0 0 0 0 0 0 .4 0"/><feOffset dx="6.0" dy="6.0" in="blurOut2" result="blurOut3"/><feBlend in="SourceGraphic" in2="blurOut3" mode="normal"/></filter></defs><g><!--MD5=[da547346deef918ea16944ba046651ef]
class Administrator--><rect codeLine="4" fill="#FEFECE" filter="url(#f4r7lhjuq03md)" height="72" id="Administrator" style="stroke:#A80036;stroke-width:2.25;" width="157.5" x="451.5" y="10.5"/><ellipse cx="474" cy="34.5" fill="#ADD1B2" rx="16.5" ry="16.5" style="stroke:#A80036;stroke-width:1.5;"/><path d="M477,29.25 Q477.3047,28.5 477.6563,28.125 Q478.0078,27.75 478.4063,27.75 Q479.1094,27.75 479.5547,28.1719 Q480,28.5938 480,29.5781 L480,31.9219 Q480,32.9063 479.5781,33.3281 Q479.1563,33.75 478.5,33.75 Q477.9141,33.75 477.5391,33.4922 Q477.1641,33.2344 477,32.5547 Q476.9297,32.0859 476.6719,31.8281 Q476.2031,31.3359 475.3594,31.0547 Q474.5156,30.75 473.6719,30.75 Q472.6172,30.75 471.7266,31.1719 Q470.8594,31.5938 470.1797,32.5313 Q469.5,33.4688 469.5,34.7578 L469.5,36.1406 Q469.5,37.6875 470.7656,38.7188 Q472.0313,39.75 474.2813,39.75 Q475.6172,39.75 476.5547,39.4453 Q477.0938,39.2813 477.7031,38.7422 Q478.1016,38.4375 478.3125,38.3438 Q478.5234,38.25 478.7813,38.25 Q479.2734,38.25 479.625,38.6484 Q480,39.0234 480,39.5625 Q480,40.0781 479.4844,40.6875 Q478.7344,41.5781 477.5391,42.0703 Q475.9688,42.75 474.0469,42.75 Q471.7969,42.75 469.9922,41.8594 Q468.5391,41.1563 467.5078,39.6328 Q466.5,38.1094 466.5,36.3047 L466.5,34.6641 Q466.5,32.7891 467.3906,31.1484 Q468.3047,29.5078 469.875,28.6406 Q471.4688,27.75 473.25,27.75 Q474.3281,27.75 475.2656,28.125 Q476.2031,28.5 477,29.25 Z " fill="#000000"/><text fill="#000000" font-family="sans-serif" font-size="18" lengthAdjust="spacing" textLength="109.5" x="495" y="41.8652">Administrator</text><line style="stroke:#A80036;stroke-width:2.25;" x1="453" x2="607.5" y1="58.5" y2="58.5"/><line style="stroke:#A80036;stroke-width:2.25;" x1="453" x2="607.5" y1="70.5" y2="70.5"/><!--MD5=[bebdcc43ebcb1534ee764d1f430c03ae]
class CreateTestTypeUI--><rect codeLine="5" fill="#FEFECE" filter="url(#f4r7lhjuq03md)" height="155.0156" id="CreateTestTypeUI" style="stroke:#A80036;stroke-width:2.25;" width="342" x="225.75" y="174"/><ellipse cx="316.125" cy="198" fill="#ADD1B2" rx="16.5" ry="16.5" style="stroke:#A80036;stroke-width:1.5;"/><path d="M319.125,192.75 Q319.4297,192 319.7813,191.625 Q320.1328,191.25 320.5313,191.25 Q321.2344,191.25 321.6797,191.6719 Q322.125,192.0938 322.125,193.0781 L322.125,195.4219 Q322.125,196.4063 321.7031,196.8281 Q321.2813,197.25 320.625,197.25 Q320.0391,197.25 319.6641,196.9922 Q319.2891,196.7344 319.125,196.0547 Q319.0547,195.5859 318.7969,195.3281 Q318.3281,194.8359 317.4844,194.5547 Q316.6406,194.25 315.7969,194.25 Q314.7422,194.25 313.8516,194.6719 Q312.9844,195.0938 312.3047,196.0313 Q311.625,196.9688 311.625,198.2578 L311.625,199.6406 Q311.625,201.1875 312.8906,202.2188 Q314.1563,203.25 316.4063,203.25 Q317.7422,203.25 318.6797,202.9453 Q319.2188,202.7813 319.8281,202.2422 Q320.2266,201.9375 320.4375,201.8438 Q320.6484,201.75 320.9063,201.75 Q321.3984,201.75 321.75,202.1484 Q322.125,202.5234 322.125,203.0625 Q322.125,203.5781 321.6094,204.1875 Q320.8594,205.0781 319.6641,205.5703 Q318.0938,206.25 316.1719,206.25 Q313.9219,206.25 312.1172,205.3594 Q310.6641,204.6563 309.6328,203.1328 Q308.625,201.6094 308.625,199.8047 L308.625,198.1641 Q308.625,196.2891 309.5156,194.6484 Q310.4297,193.0078 312,192.1406 Q313.5938,191.25 315.375,191.25 Q316.4531,191.25 317.3906,191.625 Q318.3281,192 319.125,192.75 Z " fill="#000000"/><text fill="#000000" font-family="sans-serif" font-size="18" lengthAdjust="spacing" textLength="148.5" x="346.875" y="205.3652">CreateTestTypeUI</text><line style="stroke:#A80036;stroke-width:2.25;" x1="227.25" x2="566.25" y1="222" y2="222"/><line style="stroke:#A80036;stroke-width:2.25;" x1="227.25" x2="566.25" y1="234" y2="234"/><text fill="#000000" font-family="sans-serif" font-size="16.5" lengthAdjust="spacing" textLength="135" x="234.75" y="257.1284">+createTestType()</text><text fill="#000000" font-family="sans-serif" font-size="16.5" lengthAdjust="spacing" textLength="324" x="234.75" y="277.8823">+setTestType(designation, CollectionMethod)</text><text fill="#000000" font-family="sans-serif" font-size="16.5" lengthAdjust="spacing" textLength="288" x="234.75" y="298.6362">+addCategoriesToTestType(categories)</text><text fill="#000000" font-family="sans-serif" font-size="16.5" lengthAdjust="spacing" textLength="124.5" x="234.75" y="319.3901">+saveTestType()</text><!--MD5=[2c845ebea24388d268f5a9acbeca4fd9]
class CreateTestTypeController--><rect codeLine="11" fill="#FEFECE" filter="url(#f4r7lhjuq03md)" height="238.0313" id="CreateTestTypeController" style="stroke:#A80036;stroke-width:2.25;" width="415.5" x="139.5" y="420"/><ellipse cx="235.125" cy="444" fill="#ADD1B2" rx="16.5" ry="16.5" style="stroke:#A80036;stroke-width:1.5;"/><path d="M238.125,438.75 Q238.4297,438 238.7813,437.625 Q239.1328,437.25 239.5313,437.25 Q240.2344,437.25 240.6797,437.6719 Q241.125,438.0938 241.125,439.0781 L241.125,441.4219 Q241.125,442.4063 240.7031,442.8281 Q240.2813,443.25 239.625,443.25 Q239.0391,443.25 238.6641,442.9922 Q238.2891,442.7344 238.125,442.0547 Q238.0547,441.5859 237.7969,441.3281 Q237.3281,440.8359 236.4844,440.5547 Q235.6406,440.25 234.7969,440.25 Q233.7422,440.25 232.8516,440.6719 Q231.9844,441.0938 231.3047,442.0313 Q230.625,442.9688 230.625,444.2578 L230.625,445.6406 Q230.625,447.1875 231.8906,448.2188 Q233.1563,449.25 235.4063,449.25 Q236.7422,449.25 237.6797,448.9453 Q238.2188,448.7813 238.8281,448.2422 Q239.2266,447.9375 239.4375,447.8438 Q239.6484,447.75 239.9063,447.75 Q240.3984,447.75 240.75,448.1484 Q241.125,448.5234 241.125,449.0625 Q241.125,449.5781 240.6094,450.1875 Q239.8594,451.0781 238.6641,451.5703 Q237.0938,452.25 235.1719,452.25 Q232.9219,452.25 231.1172,451.3594 Q229.6641,450.6563 228.6328,449.1328 Q227.625,447.6094 227.625,445.8047 L227.625,444.1641 Q227.625,442.2891 228.5156,440.6484 Q229.4297,439.0078 231,438.1406 Q232.5938,437.25 234.375,437.25 Q235.4531,437.25 236.3906,437.625 Q237.3281,438 238.125,438.75 Z " fill="#000000"/><text fill="#000000" font-family="sans-serif" font-size="18" lengthAdjust="spacing" textLength="211.5" x="265.875" y="451.3652">CreateTestTypeController</text><line style="stroke:#A80036;stroke-width:2.25;" x1="141" x2="553.5" y1="468" y2="468"/><line style="stroke:#A80036;stroke-width:2.25;" x1="141" x2="553.5" y1="480" y2="480"/><text fill="#000000" font-family="sans-serif" font-size="16.5" lengthAdjust="spacing" textLength="163.5" x="148.5" y="503.1284">+displayCategoryList()</text><text fill="#000000" font-family="sans-serif" font-size="16.5" lengthAdjust="spacing" textLength="135" x="148.5" y="523.8823">+createTestType()</text><text fill="#000000" font-family="sans-serif" font-size="16.5" lengthAdjust="spacing" textLength="189" x="148.5" y="544.6362">+createCollectionMethod()</text><text fill="#000000" font-family="sans-serif" font-size="16.5" lengthAdjust="spacing" textLength="256.5" x="148.5" y="565.3901">+setDesignation(String designation)</text><text fill="#000000" font-family="sans-serif" font-size="16.5" lengthAdjust="spacing" textLength="291" x="148.5" y="586.144">+setCollectionMethod(String description)</text><text fill="#000000" font-family="sans-serif" font-size="16.5" lengthAdjust="spacing" textLength="397.5" x="148.5" y="606.8979">+setCollectionMethodToTestType(CollectionMethod cm)</text><text fill="#000000" font-family="sans-serif" font-size="16.5" lengthAdjust="spacing" textLength="354" x="148.5" y="627.6519">+setCategoriesToTestType(Category categories)</text><text fill="#000000" font-family="sans-serif" font-size="16.5" lengthAdjust="spacing" textLength="133.5" x="148.5" y="648.4058">+saveTestType(tt)</text><!--MD5=[ec908970c524777c08fd0d8397a1f7bf]
class CollectionMethod--><rect codeLine="21" fill="#FEFECE" filter="url(#f4r7lhjuq03md)" height="113.5078" id="CollectionMethod" style="stroke:#A80036;stroke-width:2.25;" width="304.5" x="10.5" y="1460.25"/><ellipse cx="85.125" cy="1484.25" fill="#ADD1B2" rx="16.5" ry="16.5" style="stroke:#A80036;stroke-width:1.5;"/><path d="M88.125,1479 Q88.4297,1478.25 88.7813,1477.875 Q89.1328,1477.5 89.5313,1477.5 Q90.2344,1477.5 90.6797,1477.9219 Q91.125,1478.3438 91.125,1479.3281 L91.125,1481.6719 Q91.125,1482.6563 90.7031,1483.0781 Q90.2813,1483.5 89.625,1483.5 Q89.0391,1483.5 88.6641,1483.2422 Q88.2891,1482.9844 88.125,1482.3047 Q88.0547,1481.8359 87.7969,1481.5781 Q87.3281,1481.0859 86.4844,1480.8047 Q85.6406,1480.5 84.7969,1480.5 Q83.7422,1480.5 82.8516,1480.9219 Q81.9844,1481.3438 81.3047,1482.2813 Q80.625,1483.2188 80.625,1484.5078 L80.625,1485.8906 Q80.625,1487.4375 81.8906,1488.4688 Q83.1563,1489.5 85.4063,1489.5 Q86.7422,1489.5 87.6797,1489.1953 Q88.2188,1489.0313 88.8281,1488.4922 Q89.2266,1488.1875 89.4375,1488.0938 Q89.6484,1488 89.9063,1488 Q90.3984,1488 90.75,1488.3984 Q91.125,1488.7734 91.125,1489.3125 Q91.125,1489.8281 90.6094,1490.4375 Q89.8594,1491.3281 88.6641,1491.8203 Q87.0938,1492.5 85.1719,1492.5 Q82.9219,1492.5 81.1172,1491.6094 Q79.6641,1490.9063 78.6328,1489.3828 Q77.625,1487.8594 77.625,1486.0547 L77.625,1484.4141 Q77.625,1482.5391 78.5156,1480.8984 Q79.4297,1479.2578 81,1478.3906 Q82.5938,1477.5 84.375,1477.5 Q85.4531,1477.5 86.3906,1477.875 Q87.3281,1478.25 88.125,1479 Z " fill="#000000"/><text fill="#000000" font-family="sans-serif" font-size="18" lengthAdjust="spacing" textLength="142.5" x="115.875" y="1491.6152">CollectionMethod</text><line style="stroke:#A80036;stroke-width:2.25;" x1="12" x2="313.5" y1="1508.25" y2="1508.25"/><text fill="#000000" font-family="sans-serif" font-size="16.5" lengthAdjust="spacing" textLength="132" x="19.5" y="1531.3784">-String description</text><line style="stroke:#A80036;stroke-width:2.25;" x1="12" x2="313.5" y1="1541.0039" y2="1541.0039"/><text fill="#000000" font-family="sans-serif" font-size="16.5" lengthAdjust="spacing" textLength="286.5" x="19.5" y="1564.1323">+setCollectionMethod(CollectionMethod)</text><!--MD5=[aeb3272166074d8737a70b61b1e71682]
class TestType--><rect codeLine="25" fill="#FEFECE" filter="url(#f4r7lhjuq03md)" height="217.2773" id="TestType" style="stroke:#A80036;stroke-width:2.25;" width="303" x="387.75" y="1105.5"/><ellipse cx="495.375" cy="1129.5" fill="#ADD1B2" rx="16.5" ry="16.5" style="stroke:#A80036;stroke-width:1.5;"/><path d="M498.375,1124.25 Q498.6797,1123.5 499.0313,1123.125 Q499.3828,1122.75 499.7813,1122.75 Q500.4844,1122.75 500.9297,1123.1719 Q501.375,1123.5938 501.375,1124.5781 L501.375,1126.9219 Q501.375,1127.9063 500.9531,1128.3281 Q500.5313,1128.75 499.875,1128.75 Q499.2891,1128.75 498.9141,1128.4922 Q498.5391,1128.2344 498.375,1127.5547 Q498.3047,1127.0859 498.0469,1126.8281 Q497.5781,1126.3359 496.7344,1126.0547 Q495.8906,1125.75 495.0469,1125.75 Q493.9922,1125.75 493.1016,1126.1719 Q492.2344,1126.5938 491.5547,1127.5313 Q490.875,1128.4688 490.875,1129.7578 L490.875,1131.1406 Q490.875,1132.6875 492.1406,1133.7188 Q493.4063,1134.75 495.6563,1134.75 Q496.9922,1134.75 497.9297,1134.4453 Q498.4688,1134.2813 499.0781,1133.7422 Q499.4766,1133.4375 499.6875,1133.3438 Q499.8984,1133.25 500.1563,1133.25 Q500.6484,1133.25 501,1133.6484 Q501.375,1134.0234 501.375,1134.5625 Q501.375,1135.0781 500.8594,1135.6875 Q500.1094,1136.5781 498.9141,1137.0703 Q497.3438,1137.75 495.4219,1137.75 Q493.1719,1137.75 491.3672,1136.8594 Q489.9141,1136.1563 488.8828,1134.6328 Q487.875,1133.1094 487.875,1131.3047 L487.875,1129.6641 Q487.875,1127.7891 488.7656,1126.1484 Q489.6797,1124.5078 491.25,1123.6406 Q492.8438,1122.75 494.625,1122.75 Q495.7031,1122.75 496.6406,1123.125 Q497.5781,1123.5 498.375,1124.25 Z " fill="#000000"/><text fill="#000000" font-family="sans-serif" font-size="18" lengthAdjust="spacing" textLength="75" x="526.125" y="1136.8652">TestType</text><line style="stroke:#A80036;stroke-width:2.25;" x1="389.25" x2="689.25" y1="1153.5" y2="1153.5"/><text fill="#000000" font-family="sans-serif" font-size="16.5" lengthAdjust="spacing" textLength="135" x="396.75" y="1176.6284">-String designation</text><text fill="#000000" font-family="sans-serif" font-size="16.5" lengthAdjust="spacing" textLength="252" x="396.75" y="1197.3823">-CollectionMethod collectionMethod</text><text fill="#000000" font-family="sans-serif" font-size="16.5" lengthAdjust="spacing" textLength="232.5" x="396.75" y="1218.1362">-Arraylist&lt;Category&gt; categories</text><line style="stroke:#A80036;stroke-width:2.25;" x1="389.25" x2="689.25" y1="1227.7617" y2="1227.7617"/><text fill="#000000" font-family="sans-serif" font-size="16.5" lengthAdjust="spacing" textLength="210" x="396.75" y="1250.8901">+setDesignation(designation)</text><text fill="#000000" font-family="sans-serif" font-size="16.5" lengthAdjust="spacing" textLength="198" x="396.75" y="1271.644">+setCategories(categories)</text><text fill="#000000" font-family="sans-serif" font-size="16.5" lengthAdjust="spacing" textLength="285" x="396.75" y="1292.3979">+setCollectionMethod(collectionMethod)</text><text fill="#000000" font-family="sans-serif" font-size="16.5" lengthAdjust="spacing" textLength="147" x="396.75" y="1313.1519">+validateAttributes()</text><!--MD5=[a96594a83e2ecdc78cbf17c2ddf01934]
class Category--><rect codeLine="34" fill="#FEFECE" filter="url(#f4r7lhjuq03md)" height="155.0156" id="Category" style="stroke:#A80036;stroke-width:2.25;" width="306" x="386.25" y="1440"/><ellipse cx="496.125" cy="1464" fill="#ADD1B2" rx="16.5" ry="16.5" style="stroke:#A80036;stroke-width:1.5;"/><path d="M499.125,1458.75 Q499.4297,1458 499.7813,1457.625 Q500.1328,1457.25 500.5313,1457.25 Q501.2344,1457.25 501.6797,1457.6719 Q502.125,1458.0938 502.125,1459.0781 L502.125,1461.4219 Q502.125,1462.4063 501.7031,1462.8281 Q501.2813,1463.25 500.625,1463.25 Q500.0391,1463.25 499.6641,1462.9922 Q499.2891,1462.7344 499.125,1462.0547 Q499.0547,1461.5859 498.7969,1461.3281 Q498.3281,1460.8359 497.4844,1460.5547 Q496.6406,1460.25 495.7969,1460.25 Q494.7422,1460.25 493.8516,1460.6719 Q492.9844,1461.0938 492.3047,1462.0313 Q491.625,1462.9688 491.625,1464.2578 L491.625,1465.6406 Q491.625,1467.1875 492.8906,1468.2188 Q494.1563,1469.25 496.4063,1469.25 Q497.7422,1469.25 498.6797,1468.9453 Q499.2188,1468.7813 499.8281,1468.2422 Q500.2266,1467.9375 500.4375,1467.8438 Q500.6484,1467.75 500.9063,1467.75 Q501.3984,1467.75 501.75,1468.1484 Q502.125,1468.5234 502.125,1469.0625 Q502.125,1469.5781 501.6094,1470.1875 Q500.8594,1471.0781 499.6641,1471.5703 Q498.0938,1472.25 496.1719,1472.25 Q493.9219,1472.25 492.1172,1471.3594 Q490.6641,1470.6563 489.6328,1469.1328 Q488.625,1467.6094 488.625,1465.8047 L488.625,1464.1641 Q488.625,1462.2891 489.5156,1460.6484 Q490.4297,1459.0078 492,1458.1406 Q493.5938,1457.25 495.375,1457.25 Q496.4531,1457.25 497.3906,1457.625 Q498.3281,1458 499.125,1458.75 Z " fill="#000000"/><text fill="#000000" font-family="sans-serif" font-size="18" lengthAdjust="spacing" textLength="73.5" x="526.875" y="1471.3652">Category</text><line style="stroke:#A80036;stroke-width:2.25;" x1="387.75" x2="690.75" y1="1488" y2="1488"/><text fill="#000000" font-family="sans-serif" font-size="16.5" lengthAdjust="spacing" textLength="88.5" x="395.25" y="1511.1284">-String code</text><text fill="#000000" font-family="sans-serif" font-size="16.5" lengthAdjust="spacing" textLength="132" x="395.25" y="1531.8823">-String description</text><text fill="#000000" font-family="sans-serif" font-size="16.5" lengthAdjust="spacing" textLength="93" x="395.25" y="1552.6362">-String nhsID</text><line style="stroke:#A80036;stroke-width:2.25;" x1="387.75" x2="690.75" y1="1562.2617" y2="1562.2617"/><text fill="#000000" font-family="sans-serif" font-size="16.5" lengthAdjust="spacing" textLength="288" x="395.25" y="1585.3901">+addCategoriesToTestType(categories)</text><!--MD5=[02e4b9b7573f1156f41e60aa5b4e25a4]
class Company--><rect codeLine="40" fill="#FEFECE" filter="url(#f4r7lhjuq03md)" height="238.0313" id="Company" style="stroke:#A80036;stroke-width:2.25;" width="270" x="207.75" y="750"/><ellipse cx="296.625" cy="774" fill="#ADD1B2" rx="16.5" ry="16.5" style="stroke:#A80036;stroke-width:1.5;"/><path d="M299.625,768.75 Q299.9297,768 300.2813,767.625 Q300.6328,767.25 301.0313,767.25 Q301.7344,767.25 302.1797,767.6719 Q302.625,768.0938 302.625,769.0781 L302.625,771.4219 Q302.625,772.4063 302.2031,772.8281 Q301.7813,773.25 301.125,773.25 Q300.5391,773.25 300.1641,772.9922 Q299.7891,772.7344 299.625,772.0547 Q299.5547,771.5859 299.2969,771.3281 Q298.8281,770.8359 297.9844,770.5547 Q297.1406,770.25 296.2969,770.25 Q295.2422,770.25 294.3516,770.6719 Q293.4844,771.0938 292.8047,772.0313 Q292.125,772.9688 292.125,774.2578 L292.125,775.6406 Q292.125,777.1875 293.3906,778.2188 Q294.6563,779.25 296.9063,779.25 Q298.2422,779.25 299.1797,778.9453 Q299.7188,778.7813 300.3281,778.2422 Q300.7266,777.9375 300.9375,777.8438 Q301.1484,777.75 301.4063,777.75 Q301.8984,777.75 302.25,778.1484 Q302.625,778.5234 302.625,779.0625 Q302.625,779.5781 302.1094,780.1875 Q301.3594,781.0781 300.1641,781.5703 Q298.5938,782.25 296.6719,782.25 Q294.4219,782.25 292.6172,781.3594 Q291.1641,780.6563 290.1328,779.1328 Q289.125,777.6094 289.125,775.8047 L289.125,774.1641 Q289.125,772.2891 290.0156,770.6484 Q290.9297,769.0078 292.5,768.1406 Q294.0938,767.25 295.875,767.25 Q296.9531,767.25 297.8906,767.625 Q298.8281,768 299.625,768.75 Z " fill="#000000"/><text fill="#000000" font-family="sans-serif" font-size="18" lengthAdjust="spacing" textLength="79.5" x="327.375" y="781.3652">Company</text><line style="stroke:#A80036;stroke-width:2.25;" x1="209.25" x2="476.25" y1="798" y2="798"/><text fill="#000000" font-family="sans-serif" font-size="16.5" lengthAdjust="spacing" textLength="135" x="216.75" y="821.1284">-String designation</text><text fill="#000000" font-family="sans-serif" font-size="16.5" lengthAdjust="spacing" textLength="252" x="216.75" y="841.8823">-ArrayList&lt;TestType&gt; testTypeList</text><line style="stroke:#A80036;stroke-width:2.25;" x1="209.25" x2="476.25" y1="851.5078" y2="851.5078"/><text fill="#000000" font-family="sans-serif" font-size="16.5" lengthAdjust="spacing" textLength="135" x="216.75" y="874.6362">+createTestType()</text><text fill="#000000" font-family="sans-serif" font-size="16.5" lengthAdjust="spacing" textLength="189" x="216.75" y="895.3901">+createCollectionMethod()</text><text fill="#000000" font-family="sans-serif" font-size="16.5" lengthAdjust="spacing" textLength="76.5" x="216.75" y="916.144">+validate()</text><text fill="#000000" font-family="sans-serif" font-size="16.5" lengthAdjust="spacing" textLength="153" x="216.75" y="936.8979">+validateTestType(tt)</text><text fill="#000000" font-family="sans-serif" font-size="16.5" lengthAdjust="spacing" textLength="124.5" x="216.75" y="957.6519">+addTestType(tt)</text><text fill="#000000" font-family="sans-serif" font-size="16.5" lengthAdjust="spacing" textLength="135" x="216.75" y="978.4058">+getCategoryList()</text><!--MD5=[19bd7f6e2d7783cadf568159f572f7c1]
link Administrator to CreateTestTypeUI--><path codeLine="51" d="M507.3,82.68 C491.91,105.93 470.97,137.595 451.44,167.085 " fill="none" id="Administrator-to-CreateTestTypeUI" style="stroke:#A80036;stroke-width:1.5;stroke-dasharray:7.0,7.0;"/><polygon fill="#A80036" points="447.045,173.745,459.5132,165.8208,451.1954,167.498,449.5181,159.1802,447.045,173.745" style="stroke:#A80036;stroke-width:1.5;"/><!--MD5=[69134a8957932d955e1f822b15ec4b1c]
link CreateTestTypeUI to CreateTestTypeController--><path codeLine="52" d="M383.49,329.13 C379.065,354.6 374.01,383.685 369.105,411.9 " fill="none" id="CreateTestTypeUI-to-CreateTestTypeController" style="stroke:#A80036;stroke-width:1.5;stroke-dasharray:7.0,7.0;"/><polygon fill="#A80036" points="367.725,419.82,375.9554,407.5517,369.0137,412.4315,364.1339,405.4898,367.725,419.82" style="stroke:#A80036;stroke-width:1.5;"/><!--MD5=[71159b3869b6d7a411768e18bcaa697a]
link Administrator to TestType--><path codeLine="53" d="M571.755,82.8 C610.95,119.76 663.75,182.13 663.75,249.75 C663.75,249.75 663.75,249.75 663.75,870.75 C663.75,952.89 631.65,1039.8 600.045,1105.455 " fill="none" id="Administrator-TestType" style="stroke:#A80036;stroke-width:1.5;"/><polygon fill="#000000" points="671.0426,532.0165,667.0111,545.7009,675.8245,545.4571,671.0426,532.0165" style="stroke:#000000;stroke-width:1.5;"/><text fill="#000000" font-family="sans-serif" font-size="19.5" lengthAdjust="spacing" textLength="91.5" x="684.75" y="547.4927">created by</text><text fill="#000000" font-family="sans-serif" font-size="19.5" lengthAdjust="spacing" textLength="10.5" x="570.0922" y="114.8801">1</text><text fill="#000000" font-family="sans-serif" font-size="19.5" lengthAdjust="spacing" textLength="7.5" x="598.4278" y="1089.2794">*</text><!--MD5=[2148a3300dad30af455fcbe81ca204c2]
link TestType to Category--><path codeLine="54" d="M539.25,1323.21 C539.25,1361.715 539.25,1404.285 539.25,1439.595 " fill="none" id="TestType-Category" style="stroke:#A80036;stroke-width:1.5;"/><polygon fill="#000000" points="546.75,1389.2637,551.1584,1375.696,542.3416,1375.696,546.75,1389.2637" style="stroke:#000000;stroke-width:1.5;"/><text fill="#000000" font-family="sans-serif" font-size="19.5" lengthAdjust="spacing" textLength="117" x="560.25" y="1389.7427">associated to</text><text fill="#000000" font-family="sans-serif" font-size="19.5" lengthAdjust="spacing" textLength="10.5" x="528.2496" y="1355.0174">1</text><text fill="#000000" font-family="sans-serif" font-size="19.5" lengthAdjust="spacing" textLength="30" x="507.2344" y="1423.7911">1..*</text><!--MD5=[2595b7e412cbba06707a2f110c7e1781]
link TestType to CollectionMethod--><path codeLine="55" d="M404.385,1323.21 C346.365,1369.44 280.965,1421.565 232.845,1459.905 " fill="none" id="TestType-CollectionMethod" style="stroke:#A80036;stroke-width:1.5;"/><polygon fill="#000000" points="341.3845,1386.4377,354.7426,1381.43,349.2479,1374.5347,341.3845,1386.4377" style="stroke:#000000;stroke-width:1.5;"/><text fill="#000000" font-family="sans-serif" font-size="19.5" lengthAdjust="spacing" textLength="48" x="360.75" y="1389.7427">has a</text><text fill="#000000" font-family="sans-serif" font-size="19.5" lengthAdjust="spacing" textLength="10.5" x="380.5303" y="1355.0174">1</text><text fill="#000000" font-family="sans-serif" font-size="19.5" lengthAdjust="spacing" textLength="10.5" x="233.8955" y="1443.8864">1</text><!--MD5=[742a261f27a3dcd734c626287d811acd]
link Company to TestType--><path codeLine="56" d="M381.93,988.785 C391.815,1013.16 403.335,1038.18 416.25,1060.5 C424.935,1075.5 435.03,1090.56 445.65,1105.08 " fill="none" id="Company-TestType" style="stroke:#A80036;stroke-width:1.5;"/><polygon fill="#000000" points="427.3539,1053.8411,424.7005,1039.8241,416.9683,1044.0607,427.3539,1053.8411" style="stroke:#000000;stroke-width:1.5;"/><text fill="#000000" font-family="sans-serif" font-size="19.5" lengthAdjust="spacing" textLength="79.5" x="437.25" y="1055.2427">conducts</text><text fill="#000000" font-family="sans-serif" font-size="19.5" lengthAdjust="spacing" textLength="10.5" x="374.3459" y="1020.3743">1</text><text fill="#000000" font-family="sans-serif" font-size="19.5" lengthAdjust="spacing" textLength="7.5" x="428.1108" y="1088.8657">*</text><!--MD5=[812ef8251b528d1a64980212cceda9f5]
link CreateTestTypeController to Company--><path codeLine="57" d="M345.63,658.8 C345.255,685.89 344.85,714.795 344.475,742.185 " fill="none" id="CreateTestTypeController-to-Company" style="stroke:#A80036;stroke-width:1.5;stroke-dasharray:7.0,7.0;"/><polygon fill="#A80036" points="344.37,749.865,350.5622,736.4521,344.4771,742.3658,338.5634,736.2807,344.37,749.865" style="stroke:#A80036;stroke-width:1.5;"/><!--MD5=[5a82a387146907254b130c6b1980ca8f]
link CreateTestTypeController to TestType--><path codeLine="58" d="M453.015,658.935 C472.965,687.045 491.31,718.185 503.25,750 C545.535,862.635 550.74,1001.295 547.74,1097.295 " fill="none" id="CreateTestTypeController-to-TestType" style="stroke:#A80036;stroke-width:1.5;stroke-dasharray:7.0,7.0;"/><polygon fill="#A80036" points="547.47,1105.29,553.9291,1092.0035,547.727,1097.7944,541.9361,1091.5923,547.47,1105.29" style="stroke:#A80036;stroke-width:1.5;"/><!--MD5=[052e92fcdf9cd7163dfa2933718a6992]
link CreateTestTypeController to CollectionMethod--><path codeLine="59" d="M232.2,658.68 C211.305,686.595 192.465,717.705 180.75,750 C91.23,996.93 129.135,1318.665 151.125,1452.78 " fill="none" id="CreateTestTypeController-to-CollectionMethod" style="stroke:#A80036;stroke-width:1.5;stroke-dasharray:7.0,7.0;"/><polygon fill="#A80036" points="152.355,1460.175,156.0338,1445.8671,151.1116,1452.7788,144.1999,1447.8566,152.355,1460.175" style="stroke:#A80036;stroke-width:1.5;"/><!--MD5=[bbfc6d789171b2f2a9c82018083018d0]
@startuml

skinparam classAttributeIconSize 0

class Administrator
class CreateTestTypeUI {
+createTestType()
+setTestType(designation, CollectionMethod)
+addCategoriesToTestType(categories)
+saveTestType()
}
class CreateTestTypeController {
+displayCategoryList()
+createTestType()
+createCollectionMethod()
+setDesignation(String designation)
+setCollectionMethod(String description)
+setCollectionMethodToTestType(CollectionMethod cm)
+setCategoriesToTestType(Category categories)
+saveTestType(tt)
}
class CollectionMethod {
-String description
+setCollectionMethod(CollectionMethod)
}
class TestType {
-String designation
-CollectionMethod collectionMethod
-Arraylist<Category> categories
+setDesignation(designation)
+setCategories(categories)
+setCollectionMethod(collectionMethod)
+validateAttributes()
}
class Category {
-String code
-String description
-String nhsID
+addCategoriesToTestType(categories)
}
class Company {
-String designation
-ArrayList<TestType> testTypeList
+createTestType()
+createCollectionMethod()
+validate()
+validateTestType(tt)
+addTestType(tt)
+getCategoryList()
}

Administrator ..> CreateTestTypeUI
CreateTestTypeUI ..> CreateTestTypeController
TestType "*"-up-"1" Administrator : created by >
Category "1..*"-up-"1" TestType  : associated to <
TestType "1"- -"1" CollectionMethod : has a  >
Company "1"-down-"*" TestType : conducts >
CreateTestTypeController ..> Company
CreateTestTypeController ..> TestType
CreateTestTypeController ..> CollectionMethod


@enduml

PlantUML version 1.2021.5(Sun Apr 25 12:20:28 BST 2021)
(GPL source distribution)
Java Runtime: OpenJDK Runtime Environment
JVM: Dynamic Code Evolution 64-Bit Server VM
Default Encoding: Cp1252
Language: pt
Country: PT
--></g></svg>