<?xml version="1.0" encoding="UTF-8" standalone="no"?><svg xmlns="http://www.w3.org/2000/svg" xmlns:xlink="http://www.w3.org/1999/xlink" contentScriptType="application/ecmascript" contentStyleType="text/css" height="1344px" preserveAspectRatio="none" style="width:1425px;height:1344px;" version="1.1" viewBox="0 0 1425 1344" width="1425px" zoomAndPan="magnify"><defs><filter height="300%" id="fpkpna8ws8s6" width="300%" x="-1" y="-1"><feGaussianBlur result="blurOut" stdDeviation="2.0"/><feColorMatrix in="blurOut" result="blurOut2" type="matrix" values="0 0 0 0 0 0 0 0 0 0 0 0 0 0 0 0 0 0 .4 0"/><feOffset dx="4.0" dy="4.0" in="blurOut2" result="blurOut3"/><feBlend in="SourceGraphic" in2="blurOut3" mode="normal"/></filter></defs><g><line style="stroke:#A80036;stroke-width:1.0;stroke-dasharray:5.0,5.0;" x1="49" x2="49" y1="89.6094" y2="1258.6172"/><line style="stroke:#A80036;stroke-width:1.0;stroke-dasharray:5.0,5.0;" x1="588" x2="588" y1="89.6094" y2="1258.6172"/><line style="stroke:#A80036;stroke-width:1.0;stroke-dasharray:5.0,5.0;" x1="790" x2="790" y1="89.6094" y2="1258.6172"/><line style="stroke:#A80036;stroke-width:1.0;stroke-dasharray:5.0,5.0;" x1="980.5" x2="980.5" y1="89.6094" y2="1258.6172"/><line style="stroke:#A80036;stroke-width:1.0;stroke-dasharray:5.0,5.0;" x1="1089.5" x2="1089.5" y1="89.6094" y2="1258.6172"/><line style="stroke:#A80036;stroke-width:1.0;stroke-dasharray:5.0,5.0;" x1="1233.5" x2="1233.5" y1="89.6094" y2="1258.6172"/><line style="stroke:#A80036;stroke-width:1.0;stroke-dasharray:5.0,5.0;" x1="1349.5" x2="1349.5" y1="89.6094" y2="1258.6172"/><text fill="#000000" font-family="sans-serif" font-size="14" lengthAdjust="spacing" textLength="83" x="5" y="86.5332">Administrator</text><ellipse cx="49.5" cy="15" fill="#FEFECE" filter="url(#fpkpna8ws8s6)" rx="8" ry="8" style="stroke:#A80036;stroke-width:2.0;"/><path d="M49.5,23 L49.5,50 M36.5,31 L62.5,31 M49.5,50 L36.5,65 M49.5,50 L62.5,65 " fill="none" filter="url(#fpkpna8ws8s6)" style="stroke:#A80036;stroke-width:2.0;"/><text fill="#000000" font-family="sans-serif" font-size="14" lengthAdjust="spacing" textLength="83" x="5" y="1272.1504">Administrator</text><ellipse cx="49.5" cy="1285.2266" fill="#FEFECE" filter="url(#fpkpna8ws8s6)" rx="8" ry="8" style="stroke:#A80036;stroke-width:2.0;"/><path d="M49.5,1293.2266 L49.5,1320.2266 M36.5,1301.2266 L62.5,1301.2266 M49.5,1320.2266 L36.5,1335.2266 M49.5,1320.2266 L62.5,1335.2266 " fill="none" filter="url(#fpkpna8ws8s6)" style="stroke:#A80036;stroke-width:2.0;"/><rect fill="#FEFECE" filter="url(#fpkpna8ws8s6)" height="31.6094" style="stroke:#A80036;stroke-width:1.5;" width="133" x="520" y="53"/><text fill="#000000" font-family="sans-serif" font-size="14" lengthAdjust="spacing" textLength="119" x="527" y="74.5332">:CreateTestTypeUI</text><rect fill="#FEFECE" filter="url(#fpkpna8ws8s6)" height="31.6094" style="stroke:#A80036;stroke-width:1.5;" width="133" x="520" y="1257.6172"/><text fill="#000000" font-family="sans-serif" font-size="14" lengthAdjust="spacing" textLength="119" x="527" y="1279.1504">:CreateTestTypeUI</text><rect fill="#FEFECE" filter="url(#fpkpna8ws8s6)" height="31.6094" style="stroke:#A80036;stroke-width:1.5;" width="183" x="697" y="53"/><text fill="#000000" font-family="sans-serif" font-size="14" lengthAdjust="spacing" textLength="169" x="704" y="74.5332">:CreateTestTypeController</text><rect fill="#FEFECE" filter="url(#fpkpna8ws8s6)" height="31.6094" style="stroke:#A80036;stroke-width:1.5;" width="183" x="697" y="1257.6172"/><text fill="#000000" font-family="sans-serif" font-size="14" lengthAdjust="spacing" textLength="169" x="704" y="1279.1504">:CreateTestTypeController</text><rect fill="#FEFECE" filter="url(#fpkpna8ws8s6)" height="31.6094" style="stroke:#A80036;stroke-width:1.5;" width="78" x="939.5" y="53"/><text fill="#000000" font-family="sans-serif" font-size="14" lengthAdjust="spacing" textLength="64" x="946.5" y="74.5332">:Company</text><rect fill="#FEFECE" filter="url(#fpkpna8ws8s6)" height="31.6094" style="stroke:#A80036;stroke-width:1.5;" width="78" x="939.5" y="1257.6172"/><text fill="#000000" font-family="sans-serif" font-size="14" lengthAdjust="spacing" textLength="64" x="946.5" y="1279.1504">:Company</text><rect fill="#FEFECE" filter="url(#fpkpna8ws8s6)" height="31.6094" style="stroke:#A80036;stroke-width:1.5;" width="112" x="1031.5" y="53"/><text fill="#000000" font-family="sans-serif" font-size="14" lengthAdjust="spacing" textLength="98" x="1038.5" y="74.5332">:TestTypeStore</text><rect fill="#FEFECE" filter="url(#fpkpna8ws8s6)" height="31.6094" style="stroke:#A80036;stroke-width:1.5;" width="112" x="1031.5" y="1257.6172"/><text fill="#000000" font-family="sans-serif" font-size="14" lengthAdjust="spacing" textLength="98" x="1038.5" y="1279.1504">:TestTypeStore</text><rect fill="#FEFECE" filter="url(#fpkpna8ws8s6)" height="31.6094" style="stroke:#A80036;stroke-width:1.5;" width="78" x="1192.5" y="53"/><text fill="#000000" font-family="sans-serif" font-size="14" lengthAdjust="spacing" textLength="64" x="1199.5" y="74.5332">:TestType</text><rect fill="#FEFECE" filter="url(#fpkpna8ws8s6)" height="31.6094" style="stroke:#A80036;stroke-width:1.5;" width="78" x="1192.5" y="1257.6172"/><text fill="#000000" font-family="sans-serif" font-size="14" lengthAdjust="spacing" textLength="64" x="1199.5" y="1279.1504">:TestType</text><rect fill="#FEFECE" filter="url(#fpkpna8ws8s6)" height="31.6094" style="stroke:#A80036;stroke-width:1.5;" width="127" x="1284.5" y="53"/><text fill="#000000" font-family="sans-serif" font-size="14" lengthAdjust="spacing" textLength="113" x="1291.5" y="74.5332">:CollectionMethod</text><rect fill="#FEFECE" filter="url(#fpkpna8ws8s6)" height="31.6094" style="stroke:#A80036;stroke-width:1.5;" width="127" x="1284.5" y="1257.6172"/><text fill="#000000" font-family="sans-serif" font-size="14" lengthAdjust="spacing" textLength="113" x="1291.5" y="1279.1504">:CollectionMethod</text><polygon fill="#A80036" points="576.5,117.9609,586.5,121.9609,576.5,125.9609,580.5,121.9609" style="stroke:#A80036;stroke-width:1.0;"/><line style="stroke:#A80036;stroke-width:1.0;" x1="49.5" x2="582.5" y1="121.9609" y2="121.9609"/><text fill="#000000" font-family="sans-serif" font-size="13" font-weight="bold" lengthAdjust="spacing" textLength="7" x="56.5" y="117.1045">1</text><text fill="#000000" font-family="sans-serif" font-size="13" lengthAdjust="spacing" textLength="115" x="67.5" y="117.1045">starts new test type</text><polygon fill="#A80036" points="778.5,148.3125,788.5,152.3125,778.5,156.3125,782.5,152.3125" style="stroke:#A80036;stroke-width:1.0;"/><line style="stroke:#A80036;stroke-width:1.0;" x1="588.5" x2="784.5" y1="152.3125" y2="152.3125"/><text fill="#000000" font-family="sans-serif" font-size="13" font-weight="bold" lengthAdjust="spacing" textLength="7" x="595.5" y="147.4561">2</text><text fill="#000000" font-family="sans-serif" font-size="13" lengthAdjust="spacing" textLength="97" x="606.5" y="147.4561">createTestType()</text><polygon fill="#A80036" points="778.5,178.6641,788.5,182.6641,778.5,186.6641,782.5,182.6641" style="stroke:#A80036;stroke-width:1.0;"/><line style="stroke:#A80036;stroke-width:1.0;" x1="588.5" x2="784.5" y1="182.6641" y2="182.6641"/><text fill="#000000" font-family="sans-serif" font-size="13" font-weight="bold" lengthAdjust="spacing" textLength="7" x="595.5" y="177.8076">3</text><text fill="#000000" font-family="sans-serif" font-size="13" lengthAdjust="spacing" textLength="144" x="606.5" y="177.8076">createCollectionMethod()</text><polygon fill="#A80036" points="968.5,209.0156,978.5,213.0156,968.5,217.0156,972.5,213.0156" style="stroke:#A80036;stroke-width:1.0;"/><line style="stroke:#A80036;stroke-width:1.0;" x1="790.5" x2="974.5" y1="213.0156" y2="213.0156"/><text fill="#000000" font-family="sans-serif" font-size="13" font-weight="bold" lengthAdjust="spacing" textLength="7" x="797.5" y="208.1592">4</text><text fill="#000000" font-family="sans-serif" font-size="13" lengthAdjust="spacing" textLength="155" x="808.5" y="208.1592">store = getTestTypeStore()</text><polygon fill="#A80036" points="1077.5,239.3672,1087.5,243.3672,1077.5,247.3672,1081.5,243.3672" style="stroke:#A80036;stroke-width:1.0;"/><line style="stroke:#A80036;stroke-width:1.0;" x1="790.5" x2="1083.5" y1="243.3672" y2="243.3672"/><text fill="#000000" font-family="sans-serif" font-size="13" font-weight="bold" lengthAdjust="spacing" textLength="7" x="797.5" y="238.5107">5</text><text fill="#000000" font-family="sans-serif" font-size="13" lengthAdjust="spacing" textLength="121" x="808.5" y="238.5107">tt = createTestType()</text><polygon fill="#A80036" points="1077.5,269.7188,1087.5,273.7188,1077.5,277.7188,1081.5,273.7188" style="stroke:#A80036;stroke-width:1.0;"/><line style="stroke:#A80036;stroke-width:1.0;" x1="790.5" x2="1083.5" y1="273.7188" y2="273.7188"/><text fill="#000000" font-family="sans-serif" font-size="13" font-weight="bold" lengthAdjust="spacing" textLength="7" x="797.5" y="268.8623">6</text><text fill="#000000" font-family="sans-serif" font-size="13" lengthAdjust="spacing" textLength="178" x="808.5" y="268.8623">cm = createCollectionMethod()</text><polygon fill="#A80036" points="1221.5,300.0703,1231.5,304.0703,1221.5,308.0703,1225.5,304.0703" style="stroke:#A80036;stroke-width:1.0;"/><line style="stroke:#A80036;stroke-width:1.0;" x1="1089.5" x2="1227.5" y1="304.0703" y2="304.0703"/><text fill="#000000" font-family="sans-serif" font-size="13" font-weight="bold" lengthAdjust="spacing" textLength="7" x="1096.5" y="299.2139">7</text><text fill="#000000" font-family="sans-serif" font-size="13" lengthAdjust="spacing" textLength="97" x="1107.5" y="299.2139">createTestType()</text><polygon fill="#A80036" points="1338,330.4219,1348,334.4219,1338,338.4219,1342,334.4219" style="stroke:#A80036;stroke-width:1.0;"/><line style="stroke:#A80036;stroke-width:1.0;" x1="1089.5" x2="1344" y1="334.4219" y2="334.4219"/><text fill="#000000" font-family="sans-serif" font-size="13" font-weight="bold" lengthAdjust="spacing" textLength="7" x="1096.5" y="329.5654">8</text><text fill="#000000" font-family="sans-serif" font-size="13" lengthAdjust="spacing" textLength="144" x="1107.5" y="329.5654">createCollectionMethod()</text><polygon fill="#A80036" points="60.5,360.7734,50.5,364.7734,60.5,368.7734,56.5,364.7734" style="stroke:#A80036;stroke-width:1.0;"/><line style="stroke:#A80036;stroke-width:1.0;" x1="54.5" x2="587.5" y1="364.7734" y2="364.7734"/><text fill="#000000" font-family="sans-serif" font-size="13" font-weight="bold" lengthAdjust="spacing" textLength="7" x="66.5" y="359.917">9</text><text fill="#000000" font-family="sans-serif" font-size="13" lengthAdjust="spacing" textLength="142" x="77.5" y="359.917">requests the designation</text><polygon fill="#A80036" points="576.5,391.125,586.5,395.125,576.5,399.125,580.5,395.125" style="stroke:#A80036;stroke-width:1.0;"/><line style="stroke:#A80036;stroke-width:1.0;" x1="49.5" x2="582.5" y1="395.125" y2="395.125"/><text fill="#000000" font-family="sans-serif" font-size="13" font-weight="bold" lengthAdjust="spacing" textLength="14" x="56.5" y="390.2686">10</text><text fill="#000000" font-family="sans-serif" font-size="13" lengthAdjust="spacing" textLength="124" x="74.5" y="390.2686">types the designation</text><polygon fill="#A80036" points="60.5,421.4766,50.5,425.4766,60.5,429.4766,56.5,425.4766" style="stroke:#A80036;stroke-width:1.0;"/><line style="stroke:#A80036;stroke-width:1.0;" x1="54.5" x2="587.5" y1="425.4766" y2="425.4766"/><text fill="#000000" font-family="sans-serif" font-size="13" font-weight="bold" lengthAdjust="spacing" textLength="14" x="66.5" y="420.6201">11</text><text fill="#000000" font-family="sans-serif" font-size="13" lengthAdjust="spacing" textLength="124" x="84.5" y="420.6201">requests confirmation</text><polygon fill="#A80036" points="576.5,451.8281,586.5,455.8281,576.5,459.8281,580.5,455.8281" style="stroke:#A80036;stroke-width:1.0;"/><line style="stroke:#A80036;stroke-width:1.0;" x1="49.5" x2="582.5" y1="455.8281" y2="455.8281"/><text fill="#000000" font-family="sans-serif" font-size="13" font-weight="bold" lengthAdjust="spacing" textLength="14" x="56.5" y="450.9717">12</text><text fill="#000000" font-family="sans-serif" font-size="13" lengthAdjust="spacing" textLength="49" x="74.5" y="450.9717">confirms</text><polygon fill="#A80036" points="778.5,482.1797,788.5,486.1797,778.5,490.1797,782.5,486.1797" style="stroke:#A80036;stroke-width:1.0;"/><line style="stroke:#A80036;stroke-width:1.0;" x1="588.5" x2="784.5" y1="486.1797" y2="486.1797"/><text fill="#000000" font-family="sans-serif" font-size="13" font-weight="bold" lengthAdjust="spacing" textLength="14" x="595.5" y="481.3232">13</text><text fill="#000000" font-family="sans-serif" font-size="13" lengthAdjust="spacing" textLength="160" x="613.5" y="481.3232">setDesignation(designation)</text><polygon fill="#A80036" points="1221.5,512.5313,1231.5,516.5313,1221.5,520.5313,1225.5,516.5313" style="stroke:#A80036;stroke-width:1.0;"/><line style="stroke:#A80036;stroke-width:1.0;" x1="790.5" x2="1227.5" y1="516.5313" y2="516.5313"/><text fill="#000000" font-family="sans-serif" font-size="13" font-weight="bold" lengthAdjust="spacing" textLength="14" x="797.5" y="511.6748">14</text><text fill="#000000" font-family="sans-serif" font-size="13" lengthAdjust="spacing" textLength="160" x="815.5" y="511.6748">setDesignation(designation)</text><polygon fill="#A80036" points="60.5,542.8828,50.5,546.8828,60.5,550.8828,56.5,546.8828" style="stroke:#A80036;stroke-width:1.0;"/><line style="stroke:#A80036;stroke-width:1.0;" x1="54.5" x2="587.5" y1="546.8828" y2="546.8828"/><text fill="#000000" font-family="sans-serif" font-size="13" font-weight="bold" lengthAdjust="spacing" textLength="14" x="66.5" y="542.0264">15</text><text fill="#000000" font-family="sans-serif" font-size="13" lengthAdjust="spacing" textLength="281" x="84.5" y="542.0264">requests the description of the collection method</text><polygon fill="#A80036" points="576.5,573.2344,586.5,577.2344,576.5,581.2344,580.5,577.2344" style="stroke:#A80036;stroke-width:1.0;"/><line style="stroke:#A80036;stroke-width:1.0;" x1="49.5" x2="582.5" y1="577.2344" y2="577.2344"/><text fill="#000000" font-family="sans-serif" font-size="13" font-weight="bold" lengthAdjust="spacing" textLength="14" x="56.5" y="572.3779">16</text><text fill="#000000" font-family="sans-serif" font-size="13" lengthAdjust="spacing" textLength="121" x="74.5" y="572.3779">types the description</text><polygon fill="#A80036" points="60.5,603.5859,50.5,607.5859,60.5,611.5859,56.5,607.5859" style="stroke:#A80036;stroke-width:1.0;"/><line style="stroke:#A80036;stroke-width:1.0;" x1="54.5" x2="587.5" y1="607.5859" y2="607.5859"/><text fill="#000000" font-family="sans-serif" font-size="13" font-weight="bold" lengthAdjust="spacing" textLength="14" x="66.5" y="602.7295">17</text><text fill="#000000" font-family="sans-serif" font-size="13" lengthAdjust="spacing" textLength="124" x="84.5" y="602.7295">requests confirmation</text><polygon fill="#A80036" points="576.5,633.9375,586.5,637.9375,576.5,641.9375,580.5,637.9375" style="stroke:#A80036;stroke-width:1.0;"/><line style="stroke:#A80036;stroke-width:1.0;" x1="49.5" x2="582.5" y1="637.9375" y2="637.9375"/><text fill="#000000" font-family="sans-serif" font-size="13" font-weight="bold" lengthAdjust="spacing" textLength="14" x="56.5" y="633.0811">18</text><text fill="#000000" font-family="sans-serif" font-size="13" lengthAdjust="spacing" textLength="49" x="74.5" y="633.0811">confirms</text><polygon fill="#A80036" points="778.5,664.2891,788.5,668.2891,778.5,672.2891,782.5,668.2891" style="stroke:#A80036;stroke-width:1.0;"/><line style="stroke:#A80036;stroke-width:1.0;" x1="588.5" x2="784.5" y1="668.2891" y2="668.2891"/><text fill="#000000" font-family="sans-serif" font-size="13" font-weight="bold" lengthAdjust="spacing" textLength="14" x="595.5" y="663.4326">19</text><text fill="#000000" font-family="sans-serif" font-size="13" lengthAdjust="spacing" textLength="154" x="613.5" y="663.4326">setDescription(description)</text><polygon fill="#A80036" points="1338,694.6406,1348,698.6406,1338,702.6406,1342,698.6406" style="stroke:#A80036;stroke-width:1.0;"/><line style="stroke:#A80036;stroke-width:1.0;" x1="790.5" x2="1344" y1="698.6406" y2="698.6406"/><text fill="#000000" font-family="sans-serif" font-size="13" font-weight="bold" lengthAdjust="spacing" textLength="14" x="797.5" y="693.7842">20</text><text fill="#000000" font-family="sans-serif" font-size="13" lengthAdjust="spacing" textLength="189" x="815.5" y="693.7842">setCollectionMethod(description)</text><polygon fill="#A80036" points="1221.5,724.9922,1231.5,728.9922,1221.5,732.9922,1225.5,728.9922" style="stroke:#A80036;stroke-width:1.0;"/><line style="stroke:#A80036;stroke-width:1.0;" x1="790.5" x2="1227.5" y1="728.9922" y2="728.9922"/><text fill="#000000" font-family="sans-serif" font-size="13" font-weight="bold" lengthAdjust="spacing" textLength="14" x="797.5" y="724.1357">21</text><text fill="#000000" font-family="sans-serif" font-size="13" lengthAdjust="spacing" textLength="211" x="815.5" y="724.1357">setCollectionMethodToTestType(cm)</text><polygon fill="#A80036" points="1221.5,755.3438,1231.5,759.3438,1221.5,763.3438,1225.5,759.3438" style="stroke:#A80036;stroke-width:1.0;"/><line style="stroke:#A80036;stroke-width:1.0;" x1="1089.5" x2="1227.5" y1="759.3438" y2="759.3438"/><text fill="#000000" font-family="sans-serif" font-size="13" font-weight="bold" lengthAdjust="spacing" textLength="14" x="1096.5" y="754.4873">22</text><text fill="#000000" font-family="sans-serif" font-size="13" lengthAdjust="spacing" textLength="51" x="1114.5" y="754.4873">validate()</text><polygon fill="#A80036" points="801.5,785.6953,791.5,789.6953,801.5,793.6953,797.5,789.6953" style="stroke:#A80036;stroke-width:1.0;"/><line style="stroke:#A80036;stroke-width:1.0;" x1="795.5" x2="979.5" y1="789.6953" y2="789.6953"/><text fill="#000000" font-family="sans-serif" font-size="13" font-weight="bold" lengthAdjust="spacing" textLength="14" x="807.5" y="784.8389">23</text><text fill="#000000" font-family="sans-serif" font-size="13" lengthAdjust="spacing" textLength="99" x="825.5" y="784.8389">getCategoryList()</text><polygon fill="#A80036" points="599.5,816.0469,589.5,820.0469,599.5,824.0469,595.5,820.0469" style="stroke:#A80036;stroke-width:1.0;"/><line style="stroke:#A80036;stroke-width:1.0;" x1="593.5" x2="789.5" y1="820.0469" y2="820.0469"/><text fill="#000000" font-family="sans-serif" font-size="13" font-weight="bold" lengthAdjust="spacing" textLength="14" x="605.5" y="815.1904">24</text><text fill="#000000" font-family="sans-serif" font-size="13" lengthAdjust="spacing" textLength="122" x="623.5" y="815.1904">displayCategoryList()</text><polygon fill="#A80036" points="60.5,846.3984,50.5,850.3984,60.5,854.3984,56.5,850.3984" style="stroke:#A80036;stroke-width:1.0;"/><line style="stroke:#A80036;stroke-width:1.0;" x1="54.5" x2="587.5" y1="850.3984" y2="850.3984"/><text fill="#000000" font-family="sans-serif" font-size="13" font-weight="bold" lengthAdjust="spacing" textLength="14" x="66.5" y="845.542">25</text><text fill="#000000" font-family="sans-serif" font-size="13" lengthAdjust="spacing" textLength="202" x="84.5" y="845.542">shows and requests the categories</text><polygon fill="#A80036" points="576.5,876.75,586.5,880.75,576.5,884.75,580.5,880.75" style="stroke:#A80036;stroke-width:1.0;"/><line style="stroke:#A80036;stroke-width:1.0;" x1="49.5" x2="582.5" y1="880.75" y2="880.75"/><text fill="#000000" font-family="sans-serif" font-size="13" font-weight="bold" lengthAdjust="spacing" textLength="14" x="56.5" y="875.8936">26</text><text fill="#000000" font-family="sans-serif" font-size="13" lengthAdjust="spacing" textLength="163" x="74.5" y="875.8936">types the wanted categories</text><polygon fill="#A80036" points="60.5,907.1016,50.5,911.1016,60.5,915.1016,56.5,911.1016" style="stroke:#A80036;stroke-width:1.0;"/><line style="stroke:#A80036;stroke-width:1.0;" x1="54.5" x2="587.5" y1="911.1016" y2="911.1016"/><text fill="#000000" font-family="sans-serif" font-size="13" font-weight="bold" lengthAdjust="spacing" textLength="14" x="66.5" y="906.2451">27</text><text fill="#000000" font-family="sans-serif" font-size="13" lengthAdjust="spacing" textLength="124" x="84.5" y="906.2451">requests confirmation</text><polygon fill="#A80036" points="576.5,937.4531,586.5,941.4531,576.5,945.4531,580.5,941.4531" style="stroke:#A80036;stroke-width:1.0;"/><line style="stroke:#A80036;stroke-width:1.0;" x1="49.5" x2="582.5" y1="941.4531" y2="941.4531"/><text fill="#000000" font-family="sans-serif" font-size="13" font-weight="bold" lengthAdjust="spacing" textLength="14" x="56.5" y="936.5967">28</text><text fill="#000000" font-family="sans-serif" font-size="13" lengthAdjust="spacing" textLength="49" x="74.5" y="936.5967">confirms</text><polygon fill="#A80036" points="778.5,967.8047,788.5,971.8047,778.5,975.8047,782.5,971.8047" style="stroke:#A80036;stroke-width:1.0;"/><line style="stroke:#A80036;stroke-width:1.0;" x1="588.5" x2="784.5" y1="971.8047" y2="971.8047"/><text fill="#000000" font-family="sans-serif" font-size="13" font-weight="bold" lengthAdjust="spacing" textLength="14" x="595.5" y="966.9482">29</text><text fill="#000000" font-family="sans-serif" font-size="13" lengthAdjust="spacing" textLength="88" x="613.5" y="966.9482">setCategories()</text><polygon fill="#A80036" points="1221.5,998.1563,1231.5,1002.1563,1221.5,1006.1563,1225.5,1002.1563" style="stroke:#A80036;stroke-width:1.0;"/><line style="stroke:#A80036;stroke-width:1.0;" x1="790.5" x2="1227.5" y1="1002.1563" y2="1002.1563"/><text fill="#000000" font-family="sans-serif" font-size="13" font-weight="bold" lengthAdjust="spacing" textLength="14" x="797.5" y="997.2998">30</text><text fill="#000000" font-family="sans-serif" font-size="13" lengthAdjust="spacing" textLength="215" x="815.5" y="997.2998">setCategoriesToTestType(categories)</text><polygon fill="#A80036" points="60.5,1028.5078,50.5,1032.5078,60.5,1036.5078,56.5,1032.5078" style="stroke:#A80036;stroke-width:1.0;"/><line style="stroke:#A80036;stroke-width:1.0;" x1="54.5" x2="587.5" y1="1032.5078" y2="1032.5078"/><text fill="#000000" font-family="sans-serif" font-size="13" font-weight="bold" lengthAdjust="spacing" textLength="14" x="66.5" y="1027.6514">31</text><text fill="#000000" font-family="sans-serif" font-size="13" lengthAdjust="spacing" textLength="497" x="84.5" y="1027.6514">shows the data (designation, CollectionMethod, Categories) and requests confirmation</text><polygon fill="#A80036" points="576.5,1058.8594,586.5,1062.8594,576.5,1066.8594,580.5,1062.8594" style="stroke:#A80036;stroke-width:1.0;"/><line style="stroke:#A80036;stroke-width:1.0;" x1="49.5" x2="582.5" y1="1062.8594" y2="1062.8594"/><text fill="#000000" font-family="sans-serif" font-size="13" font-weight="bold" lengthAdjust="spacing" textLength="14" x="56.5" y="1058.0029">32</text><text fill="#000000" font-family="sans-serif" font-size="13" lengthAdjust="spacing" textLength="100" x="74.5" y="1058.0029">confirms the data</text><polygon fill="#A80036" points="778.5,1089.2109,788.5,1093.2109,778.5,1097.2109,782.5,1093.2109" style="stroke:#A80036;stroke-width:1.0;"/><line style="stroke:#A80036;stroke-width:1.0;" x1="588.5" x2="784.5" y1="1093.2109" y2="1093.2109"/><text fill="#000000" font-family="sans-serif" font-size="13" font-weight="bold" lengthAdjust="spacing" textLength="14" x="595.5" y="1088.3545">33</text><text fill="#000000" font-family="sans-serif" font-size="13" lengthAdjust="spacing" textLength="87" x="613.5" y="1088.3545">saveTestType()</text><polygon fill="#A80036" points="968.5,1119.5625,978.5,1123.5625,968.5,1127.5625,972.5,1123.5625" style="stroke:#A80036;stroke-width:1.0;"/><line style="stroke:#A80036;stroke-width:1.0;" x1="790.5" x2="974.5" y1="1123.5625" y2="1123.5625"/><text fill="#000000" font-family="sans-serif" font-size="13" font-weight="bold" lengthAdjust="spacing" textLength="14" x="797.5" y="1118.7061">34</text><text fill="#000000" font-family="sans-serif" font-size="13" lengthAdjust="spacing" textLength="87" x="815.5" y="1118.7061">saveTestType()</text><line style="stroke:#A80036;stroke-width:1.0;" x1="1089.5" x2="1131.5" y1="1153.9141" y2="1153.9141"/><line style="stroke:#A80036;stroke-width:1.0;" x1="1131.5" x2="1131.5" y1="1153.9141" y2="1166.9141"/><line style="stroke:#A80036;stroke-width:1.0;" x1="1090.5" x2="1131.5" y1="1166.9141" y2="1166.9141"/><polygon fill="#A80036" points="1100.5,1162.9141,1090.5,1166.9141,1100.5,1170.9141,1096.5,1166.9141" style="stroke:#A80036;stroke-width:1.0;"/><text fill="#000000" font-family="sans-serif" font-size="13" font-weight="bold" lengthAdjust="spacing" textLength="14" x="1096.5" y="1149.0576">35</text><text fill="#000000" font-family="sans-serif" font-size="13" lengthAdjust="spacing" textLength="112" x="1114.5" y="1149.0576">validateTestType(tt)</text><line style="stroke:#A80036;stroke-width:1.0;" x1="1089.5" x2="1131.5" y1="1197.2656" y2="1197.2656"/><line style="stroke:#A80036;stroke-width:1.0;" x1="1131.5" x2="1131.5" y1="1197.2656" y2="1210.2656"/><line style="stroke:#A80036;stroke-width:1.0;" x1="1090.5" x2="1131.5" y1="1210.2656" y2="1210.2656"/><polygon fill="#A80036" points="1100.5,1206.2656,1090.5,1210.2656,1100.5,1214.2656,1096.5,1210.2656" style="stroke:#A80036;stroke-width:1.0;"/><text fill="#000000" font-family="sans-serif" font-size="13" font-weight="bold" lengthAdjust="spacing" textLength="14" x="1096.5" y="1192.4092">36</text><text fill="#000000" font-family="sans-serif" font-size="13" lengthAdjust="spacing" textLength="90" x="1114.5" y="1192.4092">addTestType(tt)</text><polygon fill="#A80036" points="60.5,1236.6172,50.5,1240.6172,60.5,1244.6172,56.5,1240.6172" style="stroke:#A80036;stroke-width:1.0;"/><line style="stroke:#A80036;stroke-width:1.0;" x1="54.5" x2="587.5" y1="1240.6172" y2="1240.6172"/><text fill="#000000" font-family="sans-serif" font-size="13" font-weight="bold" lengthAdjust="spacing" textLength="14" x="66.5" y="1235.7607">37</text><text fill="#000000" font-family="sans-serif" font-size="13" lengthAdjust="spacing" textLength="152" x="84.5" y="1235.7607">informs operation success</text><!--MD5=[09bf0eef3511bc12def5e09f50c85659]
@startuml


autonumber

actor Administrator

Administrator -> ":CreateTestTypeUI": starts new test type
":CreateTestTypeUI" -> ":CreateTestTypeController": createTestType()
":CreateTestTypeUI" -> ":CreateTestTypeController": createCollectionMethod()
":CreateTestTypeController" -> ":Company": store = getTestTypeStore()
":CreateTestTypeController" -> ":TestTypeStore": tt = createTestType()
":CreateTestTypeController" -> ":TestTypeStore": cm = createCollectionMethod()
":TestTypeStore" -> ":TestType": createTestType()
":TestTypeStore" -> ":CollectionMethod": createCollectionMethod()

":CreateTestTypeUI" -> Administrator: requests the designation
Administrator -> ":CreateTestTypeUI": types the designation
":CreateTestTypeUI" -> Administrator: requests confirmation
Administrator -> ":CreateTestTypeUI": confirms

":CreateTestTypeUI" -> ":CreateTestTypeController": setDesignation(designation)
":CreateTestTypeController" -> ":TestType": setDesignation(designation)

":CreateTestTypeUI" -> Administrator: requests the description of the collection method
Administrator -> ":CreateTestTypeUI": types the description
":CreateTestTypeUI" -> Administrator: requests confirmation
Administrator -> ":CreateTestTypeUI": confirms

":CreateTestTypeUI" -> ":CreateTestTypeController": setDescription(description)

":CreateTestTypeController" -> ":CollectionMethod": setCollectionMethod(description)
":CreateTestTypeController" -> ":TestType": setCollectionMethodToTestType(cm)

":TestTypeStore" -> ":TestType": validate()

":Company" -> ":CreateTestTypeController": getCategoryList()
":CreateTestTypeController" -> ":CreateTestTypeUI": displayCategoryList()

":CreateTestTypeUI" -> Administrator: shows and requests the categories
Administrator -> ":CreateTestTypeUI": types the wanted categories
":CreateTestTypeUI" -> Administrator: requests confirmation
Administrator -> ":CreateTestTypeUI": confirms

":CreateTestTypeUI" -> ":CreateTestTypeController": setCategories()
":CreateTestTypeController" -> ":TestType": setCategoriesToTestType(categories)
":CreateTestTypeUI" -> Administrator: shows the data (designation, CollectionMethod, Categories) and requests confirmation
Administrator -> ":CreateTestTypeUI": confirms the data
":CreateTestTypeUI" -> ":CreateTestTypeController": saveTestType()
":CreateTestTypeController" -> ":Company": saveTestType()
":TestTypeStore" -> ":TestTypeStore": validateTestType(tt)
":TestTypeStore" -> ":TestTypeStore": addTestType(tt)

":CreateTestTypeUI" -> Administrator: informs operation success



@enduml

PlantUML version 1.2021.5(Sun Apr 25 12:20:28 BST 2021)
(GPL source distribution)
Java Runtime: OpenJDK Runtime Environment
JVM: Dynamic Code Evolution 64-Bit Server VM
Default Encoding: Cp1252
Language: pt
Country: PT
--></g></svg>