<?xml version="1.0" encoding="UTF-8" standalone="no"?><svg xmlns="http://www.w3.org/2000/svg" xmlns:xlink="http://www.w3.org/1999/xlink" contentScriptType="application/ecmascript" contentStyleType="text/css" height="935px" preserveAspectRatio="none" style="width:534px;height:935px;" version="1.1" viewBox="0 0 534 935" width="534px" zoomAndPan="magnify"><defs><filter height="300%" id="fy0luhcpa0pni" width="300%" x="-1" y="-1"><feGaussianBlur result="blurOut" stdDeviation="2.0"/><feColorMatrix in="blurOut" result="blurOut2" type="matrix" values="0 0 0 0 0 0 0 0 0 0 0 0 0 0 0 0 0 0 .4 0"/><feOffset dx="4.0" dy="4.0" in="blurOut2" result="blurOut3"/><feBlend in="SourceGraphic" in2="blurOut3" mode="normal"/></filter></defs><g><!--MD5=[da547346deef918ea16944ba046651ef]
class Administrator--><rect codeLine="3" fill="#FEFECE" filter="url(#fy0luhcpa0pni)" height="48" id="Administrator" style="stroke:#A80036;stroke-width:1.5;" width="105" x="268.13" y="7"/><ellipse cx="283.13" cy="23" fill="#ADD1B2" rx="11" ry="11" style="stroke:#A80036;stroke-width:1.0;"/><path d="M285.13,19.5 Q285.3331,19 285.5675,18.75 Q285.8019,18.5 286.0675,18.5 Q286.5363,18.5 286.8331,18.7813 Q287.13,19.0625 287.13,19.7188 L287.13,21.2813 Q287.13,21.9375 286.8488,22.2188 Q286.5675,22.5 286.13,22.5 Q285.7394,22.5 285.4894,22.3281 Q285.2394,22.1563 285.13,21.7031 Q285.0831,21.3906 284.9113,21.2188 Q284.5988,20.8906 284.0363,20.7031 Q283.4738,20.5 282.9113,20.5 Q282.2081,20.5 281.6144,20.7813 Q281.0363,21.0625 280.5831,21.6875 Q280.13,22.3125 280.13,23.1719 L280.13,24.0938 Q280.13,25.125 280.9738,25.8125 Q281.8175,26.5 283.3175,26.5 Q284.2081,26.5 284.8331,26.2969 Q285.1925,26.1875 285.5988,25.8281 Q285.8644,25.625 286.005,25.5625 Q286.1456,25.5 286.3175,25.5 Q286.6456,25.5 286.88,25.7656 Q287.13,26.0156 287.13,26.375 Q287.13,26.7188 286.7863,27.125 Q286.2863,27.7188 285.4894,28.0469 Q284.4425,28.5 283.1613,28.5 Q281.6613,28.5 280.4581,27.9063 Q279.4894,27.4375 278.8019,26.4219 Q278.13,25.4063 278.13,24.2031 L278.13,23.1094 Q278.13,21.8594 278.7238,20.7656 Q279.3331,19.6719 280.38,19.0938 Q281.4425,18.5 282.63,18.5 Q283.3488,18.5 283.9738,18.75 Q284.5988,19 285.13,19.5 Z " fill="#000000"/><text fill="#000000" font-family="sans-serif" font-size="12" lengthAdjust="spacing" textLength="73" x="297.13" y="27.9102">Administrator</text><line style="stroke:#A80036;stroke-width:1.5;" x1="269.13" x2="372.13" y1="39" y2="39"/><line style="stroke:#A80036;stroke-width:1.5;" x1="269.13" x2="372.13" y1="47" y2="47"/><!--MD5=[ec908970c524777c08fd0d8397a1f7bf]
class CollectionMethod--><rect codeLine="4" fill="#FEFECE" filter="url(#fy0luhcpa0pni)" height="61.8359" id="CollectionMethod" style="stroke:#A80036;stroke-width:1.5;" width="127" x="42.13" y="846"/><ellipse cx="57.13" cy="862" fill="#ADD1B2" rx="11" ry="11" style="stroke:#A80036;stroke-width:1.0;"/><path d="M59.13,858.5 Q59.3331,858 59.5675,857.75 Q59.8019,857.5 60.0675,857.5 Q60.5363,857.5 60.8331,857.7813 Q61.13,858.0625 61.13,858.7188 L61.13,860.2813 Q61.13,860.9375 60.8488,861.2188 Q60.5675,861.5 60.13,861.5 Q59.7394,861.5 59.4894,861.3281 Q59.2394,861.1563 59.13,860.7031 Q59.0831,860.3906 58.9113,860.2188 Q58.5988,859.8906 58.0363,859.7031 Q57.4738,859.5 56.9113,859.5 Q56.2081,859.5 55.6144,859.7813 Q55.0363,860.0625 54.5831,860.6875 Q54.13,861.3125 54.13,862.1719 L54.13,863.0938 Q54.13,864.125 54.9738,864.8125 Q55.8175,865.5 57.3175,865.5 Q58.2081,865.5 58.8331,865.2969 Q59.1925,865.1875 59.5988,864.8281 Q59.8644,864.625 60.005,864.5625 Q60.1456,864.5 60.3175,864.5 Q60.6456,864.5 60.88,864.7656 Q61.13,865.0156 61.13,865.375 Q61.13,865.7188 60.7863,866.125 Q60.2863,866.7188 59.4894,867.0469 Q58.4425,867.5 57.1613,867.5 Q55.6613,867.5 54.4581,866.9063 Q53.4894,866.4375 52.8019,865.4219 Q52.13,864.4063 52.13,863.2031 L52.13,862.1094 Q52.13,860.8594 52.7238,859.7656 Q53.3331,858.6719 54.38,858.0938 Q55.4425,857.5 56.63,857.5 Q57.3488,857.5 57.9738,857.75 Q58.5988,858 59.13,858.5 Z " fill="#000000"/><text fill="#000000" font-family="sans-serif" font-size="12" lengthAdjust="spacing" textLength="95" x="71.13" y="866.9102">CollectionMethod</text><line style="stroke:#A80036;stroke-width:1.5;" x1="43.13" x2="168.13" y1="878" y2="878"/><text fill="#000000" font-family="sans-serif" font-size="11" lengthAdjust="spacing" textLength="57" x="48.13" y="893.4189">-description</text><line style="stroke:#A80036;stroke-width:1.5;" x1="43.13" x2="168.13" y1="899.8359" y2="899.8359"/><!--MD5=[df38be88ccee13e832d6fafd6288a4ca]
class Test--><rect codeLine="8" fill="#FEFECE" filter="url(#fy0luhcpa0pni)" height="172.5234" id="Test" style="stroke:#A80036;stroke-width:1.5;" width="84" x="164.63" y="273"/><ellipse cx="192.23" cy="289" fill="#ADD1B2" rx="11" ry="11" style="stroke:#A80036;stroke-width:1.0;"/><path d="M194.23,285.5 Q194.4331,285 194.6675,284.75 Q194.9019,284.5 195.1675,284.5 Q195.6363,284.5 195.9331,284.7813 Q196.23,285.0625 196.23,285.7188 L196.23,287.2813 Q196.23,287.9375 195.9488,288.2188 Q195.6675,288.5 195.23,288.5 Q194.8394,288.5 194.5894,288.3281 Q194.3394,288.1563 194.23,287.7031 Q194.1831,287.3906 194.0113,287.2188 Q193.6988,286.8906 193.1363,286.7031 Q192.5738,286.5 192.0113,286.5 Q191.3081,286.5 190.7144,286.7813 Q190.1363,287.0625 189.6831,287.6875 Q189.23,288.3125 189.23,289.1719 L189.23,290.0938 Q189.23,291.125 190.0738,291.8125 Q190.9175,292.5 192.4175,292.5 Q193.3081,292.5 193.9331,292.2969 Q194.2925,292.1875 194.6988,291.8281 Q194.9644,291.625 195.105,291.5625 Q195.2456,291.5 195.4175,291.5 Q195.7456,291.5 195.98,291.7656 Q196.23,292.0156 196.23,292.375 Q196.23,292.7188 195.8863,293.125 Q195.3863,293.7188 194.5894,294.0469 Q193.5425,294.5 192.2613,294.5 Q190.7613,294.5 189.5581,293.9063 Q188.5894,293.4375 187.9019,292.4219 Q187.23,291.4063 187.23,290.2031 L187.23,289.1094 Q187.23,287.8594 187.8238,286.7656 Q188.4331,285.6719 189.48,285.0938 Q190.5425,284.5 191.73,284.5 Q192.4488,284.5 193.0738,284.75 Q193.6988,285 194.23,285.5 Z " fill="#000000"/><text fill="#000000" font-family="sans-serif" font-size="12" lengthAdjust="spacing" textLength="24" x="209.03" y="293.9102">Test</text><line style="stroke:#A80036;stroke-width:1.5;" x1="165.63" x2="247.63" y1="305" y2="305"/><text fill="#000000" font-family="sans-serif" font-size="11" lengthAdjust="spacing" textLength="64" x="170.63" y="320.4189">-internalCode</text><text fill="#000000" font-family="sans-serif" font-size="11" lengthAdjust="spacing" textLength="47" x="170.63" y="334.2549">-nhsCode</text><text fill="#000000" font-family="sans-serif" font-size="11" lengthAdjust="spacing" textLength="52" x="170.63" y="348.0908">-createdAt</text><text fill="#000000" font-family="sans-serif" font-size="11" lengthAdjust="spacing" textLength="67" x="170.63" y="361.9268">-dateAnalysis</text><text fill="#000000" font-family="sans-serif" font-size="11" lengthAdjust="spacing" textLength="65" x="170.63" y="375.7627">-timeAnalysis</text><text fill="#000000" font-family="sans-serif" font-size="11" lengthAdjust="spacing" textLength="72" x="170.63" y="389.5986">-dateDiagnosis</text><text fill="#000000" font-family="sans-serif" font-size="11" lengthAdjust="spacing" textLength="70" x="170.63" y="403.4346">-timeDiagnosis</text><text fill="#000000" font-family="sans-serif" font-size="11" lengthAdjust="spacing" textLength="72" x="170.63" y="417.2705">-dateValidation</text><text fill="#000000" font-family="sans-serif" font-size="11" lengthAdjust="spacing" textLength="70" x="170.63" y="431.1064">-timeValidation</text><line style="stroke:#A80036;stroke-width:1.5;" x1="165.63" x2="247.63" y1="437.5234" y2="437.5234"/><!--MD5=[e27cb01a39563223b22d42504ec96d07]
class TestResult--><rect codeLine="19" fill="#FEFECE" filter="url(#fy0luhcpa0pni)" height="48" id="TestResult" style="stroke:#A80036;stroke-width:1.5;" width="92" x="135.63" y="545"/><ellipse cx="150.63" cy="561" fill="#ADD1B2" rx="11" ry="11" style="stroke:#A80036;stroke-width:1.0;"/><path d="M152.63,557.5 Q152.8331,557 153.0675,556.75 Q153.3019,556.5 153.5675,556.5 Q154.0363,556.5 154.3331,556.7813 Q154.63,557.0625 154.63,557.7188 L154.63,559.2813 Q154.63,559.9375 154.3488,560.2188 Q154.0675,560.5 153.63,560.5 Q153.2394,560.5 152.9894,560.3281 Q152.7394,560.1563 152.63,559.7031 Q152.5831,559.3906 152.4113,559.2188 Q152.0988,558.8906 151.5363,558.7031 Q150.9738,558.5 150.4113,558.5 Q149.7081,558.5 149.1144,558.7813 Q148.5363,559.0625 148.0831,559.6875 Q147.63,560.3125 147.63,561.1719 L147.63,562.0938 Q147.63,563.125 148.4738,563.8125 Q149.3175,564.5 150.8175,564.5 Q151.7081,564.5 152.3331,564.2969 Q152.6925,564.1875 153.0988,563.8281 Q153.3644,563.625 153.505,563.5625 Q153.6456,563.5 153.8175,563.5 Q154.1456,563.5 154.38,563.7656 Q154.63,564.0156 154.63,564.375 Q154.63,564.7188 154.2863,565.125 Q153.7863,565.7188 152.9894,566.0469 Q151.9425,566.5 150.6613,566.5 Q149.1613,566.5 147.9581,565.9063 Q146.9894,565.4375 146.3019,564.4219 Q145.63,563.4063 145.63,562.2031 L145.63,561.1094 Q145.63,559.8594 146.2238,558.7656 Q146.8331,557.6719 147.88,557.0938 Q148.9425,556.5 150.13,556.5 Q150.8488,556.5 151.4738,556.75 Q152.0988,557 152.63,557.5 Z " fill="#000000"/><text fill="#000000" font-family="sans-serif" font-size="12" lengthAdjust="spacing" textLength="60" x="164.63" y="565.9102">TestResult</text><line style="stroke:#A80036;stroke-width:1.5;" x1="136.63" x2="226.63" y1="577" y2="577"/><line style="stroke:#A80036;stroke-width:1.5;" x1="136.63" x2="226.63" y1="585" y2="585"/><!--MD5=[aeb3272166074d8737a70b61b1e71682]
class TestType--><rect codeLine="20" fill="#FEFECE" filter="url(#fy0luhcpa0pni)" height="61.8359" id="TestType" style="stroke:#A80036;stroke-width:1.5;" width="82" x="279.63" y="133"/><ellipse cx="294.63" cy="149" fill="#ADD1B2" rx="11" ry="11" style="stroke:#A80036;stroke-width:1.0;"/><path d="M296.63,145.5 Q296.8331,145 297.0675,144.75 Q297.3019,144.5 297.5675,144.5 Q298.0363,144.5 298.3331,144.7813 Q298.63,145.0625 298.63,145.7188 L298.63,147.2813 Q298.63,147.9375 298.3488,148.2188 Q298.0675,148.5 297.63,148.5 Q297.2394,148.5 296.9894,148.3281 Q296.7394,148.1563 296.63,147.7031 Q296.5831,147.3906 296.4113,147.2188 Q296.0988,146.8906 295.5363,146.7031 Q294.9738,146.5 294.4113,146.5 Q293.7081,146.5 293.1144,146.7813 Q292.5363,147.0625 292.0831,147.6875 Q291.63,148.3125 291.63,149.1719 L291.63,150.0938 Q291.63,151.125 292.4738,151.8125 Q293.3175,152.5 294.8175,152.5 Q295.7081,152.5 296.3331,152.2969 Q296.6925,152.1875 297.0988,151.8281 Q297.3644,151.625 297.505,151.5625 Q297.6456,151.5 297.8175,151.5 Q298.1456,151.5 298.38,151.7656 Q298.63,152.0156 298.63,152.375 Q298.63,152.7188 298.2863,153.125 Q297.7863,153.7188 296.9894,154.0469 Q295.9425,154.5 294.6613,154.5 Q293.1613,154.5 291.9581,153.9063 Q290.9894,153.4375 290.3019,152.4219 Q289.63,151.4063 289.63,150.2031 L289.63,149.1094 Q289.63,147.8594 290.2238,146.7656 Q290.8331,145.6719 291.88,145.0938 Q292.9425,144.5 294.13,144.5 Q294.8488,144.5 295.4738,144.75 Q296.0988,145 296.63,145.5 Z " fill="#000000"/><text fill="#000000" font-family="sans-serif" font-size="12" lengthAdjust="spacing" textLength="50" x="308.63" y="153.9102">TestType</text><line style="stroke:#A80036;stroke-width:1.5;" x1="280.63" x2="360.63" y1="165" y2="165"/><text fill="#000000" font-family="sans-serif" font-size="11" lengthAdjust="spacing" textLength="59" x="285.63" y="180.4189">-designation</text><line style="stroke:#A80036;stroke-width:1.5;" x1="280.63" x2="360.63" y1="186.8359" y2="186.8359"/><!--MD5=[9681492165142af2a4a3a169d90ee8d4]
class Sample--><rect codeLine="23" fill="#FEFECE" filter="url(#fy0luhcpa0pni)" height="89.5078" id="Sample" style="stroke:#A80036;stroke-width:1.5;" width="83" x="17.13" y="524"/><ellipse cx="35.73" cy="540" fill="#ADD1B2" rx="11" ry="11" style="stroke:#A80036;stroke-width:1.0;"/><path d="M37.73,536.5 Q37.9331,536 38.1675,535.75 Q38.4019,535.5 38.6675,535.5 Q39.1363,535.5 39.4331,535.7813 Q39.73,536.0625 39.73,536.7188 L39.73,538.2813 Q39.73,538.9375 39.4488,539.2188 Q39.1675,539.5 38.73,539.5 Q38.3394,539.5 38.0894,539.3281 Q37.8394,539.1563 37.73,538.7031 Q37.6831,538.3906 37.5113,538.2188 Q37.1988,537.8906 36.6363,537.7031 Q36.0738,537.5 35.5113,537.5 Q34.8081,537.5 34.2144,537.7813 Q33.6363,538.0625 33.1831,538.6875 Q32.73,539.3125 32.73,540.1719 L32.73,541.0938 Q32.73,542.125 33.5738,542.8125 Q34.4175,543.5 35.9175,543.5 Q36.8081,543.5 37.4331,543.2969 Q37.7925,543.1875 38.1988,542.8281 Q38.4644,542.625 38.605,542.5625 Q38.7456,542.5 38.9175,542.5 Q39.2456,542.5 39.48,542.7656 Q39.73,543.0156 39.73,543.375 Q39.73,543.7188 39.3863,544.125 Q38.8863,544.7188 38.0894,545.0469 Q37.0425,545.5 35.7613,545.5 Q34.2613,545.5 33.0581,544.9063 Q32.0894,544.4375 31.4019,543.4219 Q30.73,542.4063 30.73,541.2031 L30.73,540.1094 Q30.73,538.8594 31.3238,537.7656 Q31.9331,536.6719 32.98,536.0938 Q34.0425,535.5 35.23,535.5 Q35.9488,535.5 36.5738,535.75 Q37.1988,536 37.73,536.5 Z " fill="#000000"/><text fill="#000000" font-family="sans-serif" font-size="12" lengthAdjust="spacing" textLength="43" x="50.53" y="544.9102">Sample</text><line style="stroke:#A80036;stroke-width:1.5;" x1="18.13" x2="99.13" y1="556" y2="556"/><text fill="#000000" font-family="sans-serif" font-size="11" lengthAdjust="spacing" textLength="44" x="23.13" y="571.4189">-barcode</text><text fill="#000000" font-family="sans-serif" font-size="11" lengthAdjust="spacing" textLength="71" x="23.13" y="585.2549">-dateCollection</text><text fill="#000000" font-family="sans-serif" font-size="11" lengthAdjust="spacing" textLength="69" x="23.13" y="599.0908">-timeCollection</text><line style="stroke:#A80036;stroke-width:1.5;" x1="18.13" x2="99.13" y1="605.5078" y2="605.5078"/><!--MD5=[1e5329fc67d8218f135f70ba961513ea]
class SampleType--><rect codeLine="28" fill="#FEFECE" filter="url(#fy0luhcpa0pni)" height="61.8359" id="SampleType" style="stroke:#A80036;stroke-width:1.5;" width="101" x="55.13" y="692"/><ellipse cx="70.13" cy="708" fill="#ADD1B2" rx="11" ry="11" style="stroke:#A80036;stroke-width:1.0;"/><path d="M72.13,704.5 Q72.3331,704 72.5675,703.75 Q72.8019,703.5 73.0675,703.5 Q73.5363,703.5 73.8331,703.7813 Q74.13,704.0625 74.13,704.7188 L74.13,706.2813 Q74.13,706.9375 73.8488,707.2188 Q73.5675,707.5 73.13,707.5 Q72.7394,707.5 72.4894,707.3281 Q72.2394,707.1563 72.13,706.7031 Q72.0831,706.3906 71.9113,706.2188 Q71.5988,705.8906 71.0363,705.7031 Q70.4738,705.5 69.9113,705.5 Q69.2081,705.5 68.6144,705.7813 Q68.0363,706.0625 67.5831,706.6875 Q67.13,707.3125 67.13,708.1719 L67.13,709.0938 Q67.13,710.125 67.9738,710.8125 Q68.8175,711.5 70.3175,711.5 Q71.2081,711.5 71.8331,711.2969 Q72.1925,711.1875 72.5988,710.8281 Q72.8644,710.625 73.005,710.5625 Q73.1456,710.5 73.3175,710.5 Q73.6456,710.5 73.88,710.7656 Q74.13,711.0156 74.13,711.375 Q74.13,711.7188 73.7863,712.125 Q73.2863,712.7188 72.4894,713.0469 Q71.4425,713.5 70.1613,713.5 Q68.6613,713.5 67.4581,712.9063 Q66.4894,712.4375 65.8019,711.4219 Q65.13,710.4063 65.13,709.2031 L65.13,708.1094 Q65.13,706.8594 65.7238,705.7656 Q66.3331,704.6719 67.38,704.0938 Q68.4425,703.5 69.63,703.5 Q70.3488,703.5 70.9738,703.75 Q71.5988,704 72.13,704.5 Z " fill="#000000"/><text fill="#000000" font-family="sans-serif" font-size="12" lengthAdjust="spacing" textLength="69" x="84.13" y="712.9102">SampleType</text><line style="stroke:#A80036;stroke-width:1.5;" x1="56.13" x2="155.13" y1="724" y2="724"/><text fill="#000000" font-family="sans-serif" font-size="11" lengthAdjust="spacing" textLength="59" x="61.13" y="739.4189">-designation</text><line style="stroke:#A80036;stroke-width:1.5;" x1="56.13" x2="155.13" y1="745.8359" y2="745.8359"/><!--MD5=[1f6362a5c8f21d8d6a0fce68f3a92a4e]
class Parameter--><rect codeLine="31" fill="#FEFECE" filter="url(#fy0luhcpa0pni)" height="89.5078" id="Parameter" style="stroke:#A80036;stroke-width:1.5;" width="123" x="219.13" y="832"/><ellipse cx="248.98" cy="848" fill="#ADD1B2" rx="11" ry="11" style="stroke:#A80036;stroke-width:1.0;"/><path d="M250.98,844.5 Q251.1831,844 251.4175,843.75 Q251.6519,843.5 251.9175,843.5 Q252.3863,843.5 252.6831,843.7813 Q252.98,844.0625 252.98,844.7188 L252.98,846.2813 Q252.98,846.9375 252.6988,847.2188 Q252.4175,847.5 251.98,847.5 Q251.5894,847.5 251.3394,847.3281 Q251.0894,847.1563 250.98,846.7031 Q250.9331,846.3906 250.7613,846.2188 Q250.4488,845.8906 249.8863,845.7031 Q249.3238,845.5 248.7613,845.5 Q248.0581,845.5 247.4644,845.7813 Q246.8863,846.0625 246.4331,846.6875 Q245.98,847.3125 245.98,848.1719 L245.98,849.0938 Q245.98,850.125 246.8238,850.8125 Q247.6675,851.5 249.1675,851.5 Q250.0581,851.5 250.6831,851.2969 Q251.0425,851.1875 251.4488,850.8281 Q251.7144,850.625 251.855,850.5625 Q251.9956,850.5 252.1675,850.5 Q252.4956,850.5 252.73,850.7656 Q252.98,851.0156 252.98,851.375 Q252.98,851.7188 252.6363,852.125 Q252.1363,852.7188 251.3394,853.0469 Q250.2925,853.5 249.0113,853.5 Q247.5113,853.5 246.3081,852.9063 Q245.3394,852.4375 244.6519,851.4219 Q243.98,850.4063 243.98,849.2031 L243.98,848.1094 Q243.98,846.8594 244.5738,845.7656 Q245.1831,844.6719 246.23,844.0938 Q247.2925,843.5 248.48,843.5 Q249.1988,843.5 249.8238,843.75 Q250.4488,844 250.98,844.5 Z " fill="#000000"/><text fill="#000000" font-family="sans-serif" font-size="12" lengthAdjust="spacing" textLength="58" x="266.28" y="852.9102">Parameter</text><line style="stroke:#A80036;stroke-width:1.5;" x1="220.13" x2="341.13" y1="864" y2="864"/><text fill="#000000" font-family="sans-serif" font-size="11" lengthAdjust="spacing" textLength="59" x="225.13" y="879.4189">-designation</text><text fill="#000000" font-family="sans-serif" font-size="11" lengthAdjust="spacing" textLength="111" x="225.13" y="893.2549">-upperReferenceValue</text><text fill="#000000" font-family="sans-serif" font-size="11" lengthAdjust="spacing" textLength="111" x="225.13" y="907.0908">-lowerReferenceValue</text><line style="stroke:#A80036;stroke-width:1.5;" x1="220.13" x2="341.13" y1="913.5078" y2="913.5078"/><!--MD5=[1ae83efc6d1967ce5bc17dfe294d00c2]
link Sample to Test--><path codeLine="37" d="M69.62,523.56 C74.64,507.83 81.54,490.46 90.63,476 C110.36,444.6 140.12,415.2 164.55,393.92 " fill="none" id="Sample-Test" style="stroke:#A80036;stroke-width:1.0;"/><polygon fill="#000000" points="98.584,481.1417,90.869,486.7031,95.6113,490.1757,98.584,481.1417" style="stroke:#000000;stroke-width:1.0;"/><text fill="#000000" font-family="sans-serif" font-size="13" lengthAdjust="spacing" textLength="78" x="104.63" y="490.4951">associated to</text><text fill="#000000" font-family="sans-serif" font-size="13" lengthAdjust="spacing" textLength="5" x="65.867" y="513.2681">*</text><text fill="#000000" font-family="sans-serif" font-size="13" lengthAdjust="spacing" textLength="7" x="149.7159" y="396.0272">1</text><!--MD5=[b72ac8ab7fb5921fceb5036a3902baea]
link Test to Sample--><path codeLine="41" d="M164.32,372.31 C118.13,387.72 46.5,419.62 14.63,476 C6,491.26 10.62,508.47 19.54,523.85 " fill="none" id="Test-Sample" style="stroke:#A80036;stroke-width:1.0;"/><polygon fill="#000000" points="16.176,488.791,24.5493,484.2812,20.2993,480.2208,16.176,488.791" style="stroke:#000000;stroke-width:1.0;"/><text fill="#000000" font-family="sans-serif" font-size="13" lengthAdjust="spacing" textLength="45" x="28.63" y="490.4951">collects</text><text fill="#000000" font-family="sans-serif" font-size="13" lengthAdjust="spacing" textLength="7" x="149.7327" y="370.6704">1</text><text fill="#000000" font-family="sans-serif" font-size="13" lengthAdjust="spacing" textLength="5" x="8.1715" y="513.2711">*</text><!--MD5=[c4beab05fd2ca347a4533f326e6e1c7e]
link Sample to SampleType--><path codeLine="38" d="M72.35,614.37 C80.04,639.26 89.44,669.65 96.28,691.79 " fill="none" id="Sample-SampleType" style="stroke:#A80036;stroke-width:1.0;"/><polygon fill="#000000" points="93.1065,657.9528,93.2433,648.4432,87.6276,650.179,93.1065,657.9528" style="stroke:#000000;stroke-width:1.0;"/><text fill="#000000" font-family="sans-serif" font-size="13" lengthAdjust="spacing" textLength="24" x="100.63" y="658.4951">is of</text><text fill="#000000" font-family="sans-serif" font-size="13" lengthAdjust="spacing" textLength="7" x="66.7233" y="635.0934">1</text><text fill="#000000" font-family="sans-serif" font-size="13" lengthAdjust="spacing" textLength="7" x="86.6297" y="681.2512">1</text><!--MD5=[c23963f6e403fc3ebec8dae22c30ade6]
link Test to Parameter--><path codeLine="39" d="M230.78,446.01 C233.26,456.08 235.61,466.24 237.63,476 C263.95,603.57 274.74,757.56 278.66,831.77 " fill="none" id="Test-Parameter" style="stroke:#A80036;stroke-width:1.0;"/><polygon fill="#000000" points="271.2459,658.1377,273.0483,648.7995,267.2152,649.5235,271.2459,658.1377" style="stroke:#000000;stroke-width:1.0;"/><text fill="#000000" font-family="sans-serif" font-size="13" lengthAdjust="spacing" textLength="116" x="279.63" y="658.4951">requests analysis of</text><text fill="#000000" font-family="sans-serif" font-size="13" lengthAdjust="spacing" textLength="5" x="227.5052" y="467.0694">*</text><text fill="#000000" font-family="sans-serif" font-size="13" lengthAdjust="spacing" textLength="20" x="256.8271" y="821.1789">1..*</text><!--MD5=[c2c6b28b052a3fe86d789b83a09b2815]
link TestType to Test--><path codeLine="40" d="M302.81,195.23 C288.35,219.79 267.36,255.42 248.67,287.13 " fill="none" id="TestType-Test" style="stroke:#A80036;stroke-width:1.0;"/><polygon fill="#000000" points="292.1679,229.8678,285.0446,236.1693,290.109,239.1528,292.1679,229.8678" style="stroke:#000000;stroke-width:1.0;"/><text fill="#000000" font-family="sans-serif" font-size="13" lengthAdjust="spacing" textLength="24" x="298.63" y="239.4951">is of</text><text fill="#000000" font-family="sans-serif" font-size="13" lengthAdjust="spacing" textLength="7" x="291.7459" y="216.2525">1</text><text fill="#000000" font-family="sans-serif" font-size="13" lengthAdjust="spacing" textLength="5" x="256.6037" y="270.383">*</text><!--MD5=[71159b3869b6d7a411768e18bcaa697a]
link Administrator to TestType--><path codeLine="42" d="M320.63,55.12 C320.63,76.71 320.63,109.08 320.63,132.73 " fill="none" id="Administrator-TestType" style="stroke:#A80036;stroke-width:1.0;"/><polygon fill="#000000" points="325.63,89.1758,322.6911,98.2209,328.5689,98.2209,325.63,89.1758" style="stroke:#000000;stroke-width:1.0;"/><text fill="#000000" font-family="sans-serif" font-size="13" lengthAdjust="spacing" textLength="61" x="334.63" y="99.4951">created by</text><text fill="#000000" font-family="sans-serif" font-size="13" lengthAdjust="spacing" textLength="7" x="312.7769" y="76.4872">1</text><text fill="#000000" font-family="sans-serif" font-size="13" lengthAdjust="spacing" textLength="5" x="315.1144" y="122.1789">*</text><!--MD5=[0e983f4860443f76db36d54e7f3ee406]
link SampleType to CollectionMethod--><path codeLine="43" d="M105.63,754.03 C105.63,780.59 105.63,819.15 105.63,845.77 " fill="none" id="SampleType-CollectionMethod" style="stroke:#A80036;stroke-width:1.0;"/><polygon fill="#000000" points="110.63,798.1758,113.5689,789.1307,107.6911,789.1307,110.63,798.1758" style="stroke:#000000;stroke-width:1.0;"/><text fill="#000000" font-family="sans-serif" font-size="13" lengthAdjust="spacing" textLength="32" x="119.63" y="798.4951">has a</text><text fill="#000000" font-family="sans-serif" font-size="13" lengthAdjust="spacing" textLength="7" x="97.9409" y="775.2599">1</text><text fill="#000000" font-family="sans-serif" font-size="13" lengthAdjust="spacing" textLength="20" x="83.5675" y="835.2271">1..*</text><!--MD5=[5b7a9ded131023be416e27d15bcd6d77]
link TestType to Parameter--><path codeLine="44" d="M352.38,195.29 C386.11,230.88 434.63,293.39 434.63,358.5 C434.63,358.5 434.63,358.5 434.63,724 C434.63,778.47 385.22,820 342.38,845.77 " fill="none" id="TestType-Parameter" style="stroke:#A80036;stroke-width:1.0;"/><polygon fill="#000000" points="439.5531,574.1752,442.6308,565.1763,436.7536,565.086,439.5531,574.1752" style="stroke:#000000;stroke-width:1.0;"/><text fill="#000000" font-family="sans-serif" font-size="13" lengthAdjust="spacing" textLength="78" x="448.63" y="574.4951">associated to</text><text fill="#000000" font-family="sans-serif" font-size="13" lengthAdjust="spacing" textLength="7" x="350.7652" y="216.3239">1</text><text fill="#000000" font-family="sans-serif" font-size="13" lengthAdjust="spacing" textLength="15" x="349.9542" y="839.0205">1..</text><!--MD5=[6c119b5ec4c1d4dc709da51882c498c4]
link SampleType to Parameter--><path codeLine="45" d="M140.2,754.03 C165.8,776.27 201.08,806.91 229.87,831.92 " fill="none" id="SampleType-Parameter" style="stroke:#A80036;stroke-width:1.0;"/><polygon fill="#000000" points="194.8552,789.8969,199.7566,798.0472,203.6111,793.6097,194.8552,789.8969" style="stroke:#000000;stroke-width:1.0;"/><text fill="#000000" font-family="sans-serif" font-size="13" lengthAdjust="spacing" textLength="21" x="207.63" y="798.4951">has</text><text fill="#000000" font-family="sans-serif" font-size="13" lengthAdjust="spacing" textLength="7" x="139.3169" y="775.2599">1</text><text fill="#000000" font-family="sans-serif" font-size="13" lengthAdjust="spacing" textLength="7" x="214.2223" y="821.0227">1</text><!--MD5=[73dffd3648c374487b6d8c6733c5b5e0]
link Test to TestResult--><path codeLine="46" d="M196.31,446.1 C191.98,482.04 187.29,520.99 184.4,544.95 " fill="none" id="Test-TestResult" style="stroke:#A80036;stroke-width:1.0;"/><polygon fill="#000000" points="198.0319,490.1399,202.0317,481.5113,196.1961,480.8082,198.0319,490.1399" style="stroke:#000000;stroke-width:1.0;"/><text fill="#000000" font-family="sans-serif" font-size="13" lengthAdjust="spacing" textLength="21" x="207.63" y="490.4951">has</text><text fill="#000000" font-family="sans-serif" font-size="13" lengthAdjust="spacing" textLength="7" x="188.2087" y="467.1666">1</text><text fill="#000000" font-family="sans-serif" font-size="13" lengthAdjust="spacing" textLength="7" x="177.2129" y="534.2773">1</text><!--MD5=[ad1f21c6e322ea3d68d11f5c92540be5]
@startuml
skinparam classAttributeIconSize 0

class Administrator
class CollectionMethod {
-description
}

class Test {
-internalCode
-nhsCode
-createdAt
-dateAnalysis
-timeAnalysis
-dateDiagnosis
-timeDiagnosis
-dateValidation
-timeValidation
}
class TestResult
class TestType {
-designation
}
class Sample {
-barcode
-dateCollection
-timeCollection
}
class SampleType {
-designation
}
class Parameter {
-designation
-upperReferenceValue
-lowerReferenceValue
}

Sample "*"- -"1" Test : associated to >
SampleType "1"-up-"1" Sample  : is of <
Test "*"-down-"1..*" Parameter : requests analysis of >
Test "*"-up-"1" TestType : is of >
Test "1"-down-"*" Sample : collects >
TestType "*"-up-"1" Administrator : created by >
SampleType "1"- -"1..*" CollectionMethod : has a >
Parameter "1.."-up-"1" TestType  : associated to <
SampleType "1"-down-"1" Parameter : has <
Test "1"-down-"1" TestResult : has >
@enduml

PlantUML version 1.2021.4(Sun Apr 04 09:49:39 BST 2021)
(GPL source distribution)
Java Runtime: OpenJDK Runtime Environment
JVM: OpenJDK 64-Bit Server VM
Default Encoding: Cp1252
Language: pt
Country: PT
--></g></svg>