<?xml version="1.0" encoding="UTF-8" standalone="no"?><svg xmlns="http://www.w3.org/2000/svg" xmlns:xlink="http://www.w3.org/1999/xlink" contentScriptType="application/ecmascript" contentStyleType="text/css" height="832px" preserveAspectRatio="none" style="width:1403px;height:832px;" version="1.1" viewBox="0 0 1403 832" width="1403px" zoomAndPan="magnify"><defs><filter height="300%" id="f12metnaqk6lut" width="300%" x="-1" y="-1"><feGaussianBlur result="blurOut" stdDeviation="2.0"/><feColorMatrix in="blurOut" result="blurOut2" type="matrix" values="0 0 0 0 0 0 0 0 0 0 0 0 0 0 0 0 0 0 .4 0"/><feOffset dx="4.0" dy="4.0" in="blurOut2" result="blurOut3"/><feBlend in="SourceGraphic" in2="blurOut3" mode="normal"/></filter></defs><g><line style="stroke:#A80036;stroke-width:1.0;stroke-dasharray:5.0,5.0;" x1="49" x2="49" y1="89.6094" y2="746.9922"/><line style="stroke:#A80036;stroke-width:1.0;stroke-dasharray:5.0,5.0;" x1="588" x2="588" y1="89.6094" y2="746.9922"/><line style="stroke:#A80036;stroke-width:1.0;stroke-dasharray:5.0,5.0;" x1="876" x2="876" y1="89.6094" y2="746.9922"/><line style="stroke:#A80036;stroke-width:1.0;stroke-dasharray:5.0,5.0;" x1="1032.5" x2="1032.5" y1="89.6094" y2="746.9922"/><line style="stroke:#A80036;stroke-width:1.0;stroke-dasharray:5.0,5.0;" x1="1211.5" x2="1211.5" y1="89.6094" y2="746.9922"/><line style="stroke:#A80036;stroke-width:1.0;stroke-dasharray:5.0,5.0;" x1="1327.5" x2="1327.5" y1="89.6094" y2="746.9922"/><text fill="#000000" font-family="sans-serif" font-size="14" lengthAdjust="spacing" textLength="83" x="5" y="86.5332">Administrator</text><ellipse cx="49.5" cy="15" fill="#FEFECE" filter="url(#f12metnaqk6lut)" rx="8" ry="8" style="stroke:#A80036;stroke-width:2.0;"/><path d="M49.5,23 L49.5,50 M36.5,31 L62.5,31 M49.5,50 L36.5,65 M49.5,50 L62.5,65 " fill="none" filter="url(#f12metnaqk6lut)" style="stroke:#A80036;stroke-width:2.0;"/><text fill="#000000" font-family="sans-serif" font-size="14" lengthAdjust="spacing" textLength="83" x="5" y="760.5254">Administrator</text><ellipse cx="49.5" cy="773.6016" fill="#FEFECE" filter="url(#f12metnaqk6lut)" rx="8" ry="8" style="stroke:#A80036;stroke-width:2.0;"/><path d="M49.5,781.6016 L49.5,808.6016 M36.5,789.6016 L62.5,789.6016 M49.5,808.6016 L36.5,823.6016 M49.5,808.6016 L62.5,823.6016 " fill="none" filter="url(#f12metnaqk6lut)" style="stroke:#A80036;stroke-width:2.0;"/><rect fill="#FEFECE" filter="url(#f12metnaqk6lut)" height="31.6094" style="stroke:#A80036;stroke-width:1.5;" width="133" x="520" y="53"/><text fill="#000000" font-family="sans-serif" font-size="14" lengthAdjust="spacing" textLength="119" x="527" y="74.5332">:CreateTestTypeUI</text><rect fill="#FEFECE" filter="url(#f12metnaqk6lut)" height="31.6094" style="stroke:#A80036;stroke-width:1.5;" width="133" x="520" y="745.9922"/><text fill="#000000" font-family="sans-serif" font-size="14" lengthAdjust="spacing" textLength="119" x="527" y="767.5254">:CreateTestTypeUI</text><rect fill="#FEFECE" filter="url(#f12metnaqk6lut)" height="31.6094" style="stroke:#A80036;stroke-width:1.5;" width="183" x="783" y="53"/><text fill="#000000" font-family="sans-serif" font-size="14" lengthAdjust="spacing" textLength="169" x="790" y="74.5332">:CreateTestTypeController</text><rect fill="#FEFECE" filter="url(#f12metnaqk6lut)" height="31.6094" style="stroke:#A80036;stroke-width:1.5;" width="183" x="783" y="745.9922"/><text fill="#000000" font-family="sans-serif" font-size="14" lengthAdjust="spacing" textLength="169" x="790" y="767.5254">:CreateTestTypeController</text><rect fill="#FEFECE" filter="url(#f12metnaqk6lut)" height="31.6094" style="stroke:#A80036;stroke-width:1.5;" width="78" x="991.5" y="53"/><text fill="#000000" font-family="sans-serif" font-size="14" lengthAdjust="spacing" textLength="64" x="998.5" y="74.5332">:Company</text><rect fill="#FEFECE" filter="url(#f12metnaqk6lut)" height="31.6094" style="stroke:#A80036;stroke-width:1.5;" width="78" x="991.5" y="745.9922"/><text fill="#000000" font-family="sans-serif" font-size="14" lengthAdjust="spacing" textLength="64" x="998.5" y="767.5254">:Company</text><rect fill="#FEFECE" filter="url(#f12metnaqk6lut)" height="31.6094" style="stroke:#A80036;stroke-width:1.5;" width="78" x="1170.5" y="53"/><text fill="#000000" font-family="sans-serif" font-size="14" lengthAdjust="spacing" textLength="64" x="1177.5" y="74.5332">:TestType</text><rect fill="#FEFECE" filter="url(#f12metnaqk6lut)" height="31.6094" style="stroke:#A80036;stroke-width:1.5;" width="78" x="1170.5" y="745.9922"/><text fill="#000000" font-family="sans-serif" font-size="14" lengthAdjust="spacing" textLength="64" x="1177.5" y="767.5254">:TestType</text><rect fill="#FEFECE" filter="url(#f12metnaqk6lut)" height="31.6094" style="stroke:#A80036;stroke-width:1.5;" width="127" x="1262.5" y="53"/><text fill="#000000" font-family="sans-serif" font-size="14" lengthAdjust="spacing" textLength="113" x="1269.5" y="74.5332">:CollectionMethod</text><rect fill="#FEFECE" filter="url(#f12metnaqk6lut)" height="31.6094" style="stroke:#A80036;stroke-width:1.5;" width="127" x="1262.5" y="745.9922"/><text fill="#000000" font-family="sans-serif" font-size="14" lengthAdjust="spacing" textLength="113" x="1269.5" y="767.5254">:CollectionMethod</text><polygon fill="#A80036" points="576.5,117.9609,586.5,121.9609,576.5,125.9609,580.5,121.9609" style="stroke:#A80036;stroke-width:1.0;"/><line style="stroke:#A80036;stroke-width:1.0;" x1="49.5" x2="582.5" y1="121.9609" y2="121.9609"/><text fill="#000000" font-family="sans-serif" font-size="13" font-weight="bold" lengthAdjust="spacing" textLength="7" x="56.5" y="117.1045">1</text><text fill="#000000" font-family="sans-serif" font-size="13" lengthAdjust="spacing" textLength="115" x="67.5" y="117.1045">starts new test type</text><polygon fill="#A80036" points="864.5,148.3125,874.5,152.3125,864.5,156.3125,868.5,152.3125" style="stroke:#A80036;stroke-width:1.0;"/><line style="stroke:#A80036;stroke-width:1.0;" x1="588.5" x2="870.5" y1="152.3125" y2="152.3125"/><text fill="#000000" font-family="sans-serif" font-size="13" font-weight="bold" lengthAdjust="spacing" textLength="7" x="595.5" y="147.4561">2</text><text fill="#000000" font-family="sans-serif" font-size="13" lengthAdjust="spacing" textLength="97" x="606.5" y="147.4561">createTestType()</text><polygon fill="#A80036" points="1020.5,178.6641,1030.5,182.6641,1020.5,186.6641,1024.5,182.6641" style="stroke:#A80036;stroke-width:1.0;"/><line style="stroke:#A80036;stroke-width:1.0;" x1="876.5" x2="1026.5" y1="182.6641" y2="182.6641"/><text fill="#000000" font-family="sans-serif" font-size="13" font-weight="bold" lengthAdjust="spacing" textLength="7" x="883.5" y="177.8076">3</text><text fill="#000000" font-family="sans-serif" font-size="13" lengthAdjust="spacing" textLength="121" x="894.5" y="177.8076">tt = createTestType()</text><polygon fill="#A80036" points="60.5,209.0156,50.5,213.0156,60.5,217.0156,56.5,213.0156" style="stroke:#A80036;stroke-width:1.0;"/><line style="stroke:#A80036;stroke-width:1.0;" x1="54.5" x2="587.5" y1="213.0156" y2="213.0156"/><text fill="#000000" font-family="sans-serif" font-size="13" font-weight="bold" lengthAdjust="spacing" textLength="7" x="66.5" y="208.1592">4</text><text fill="#000000" font-family="sans-serif" font-size="13" lengthAdjust="spacing" textLength="142" x="77.5" y="208.1592">requests the designation</text><polygon fill="#A80036" points="576.5,239.3672,586.5,243.3672,576.5,247.3672,580.5,243.3672" style="stroke:#A80036;stroke-width:1.0;"/><line style="stroke:#A80036;stroke-width:1.0;" x1="49.5" x2="582.5" y1="243.3672" y2="243.3672"/><text fill="#000000" font-family="sans-serif" font-size="13" font-weight="bold" lengthAdjust="spacing" textLength="7" x="56.5" y="238.5107">5</text><text fill="#000000" font-family="sans-serif" font-size="13" lengthAdjust="spacing" textLength="124" x="67.5" y="238.5107">types the designation</text><polygon fill="#A80036" points="60.5,269.7188,50.5,273.7188,60.5,277.7188,56.5,273.7188" style="stroke:#A80036;stroke-width:1.0;"/><line style="stroke:#A80036;stroke-width:1.0;" x1="54.5" x2="587.5" y1="273.7188" y2="273.7188"/><text fill="#000000" font-family="sans-serif" font-size="13" font-weight="bold" lengthAdjust="spacing" textLength="7" x="66.5" y="268.8623">6</text><text fill="#000000" font-family="sans-serif" font-size="13" lengthAdjust="spacing" textLength="281" x="77.5" y="268.8623">requests the description of the collection method</text><polygon fill="#A80036" points="576.5,300.0703,586.5,304.0703,576.5,308.0703,580.5,304.0703" style="stroke:#A80036;stroke-width:1.0;"/><line style="stroke:#A80036;stroke-width:1.0;" x1="49.5" x2="582.5" y1="304.0703" y2="304.0703"/><text fill="#000000" font-family="sans-serif" font-size="13" font-weight="bold" lengthAdjust="spacing" textLength="7" x="56.5" y="299.2139">7</text><text fill="#000000" font-family="sans-serif" font-size="13" lengthAdjust="spacing" textLength="121" x="67.5" y="299.2139">types the description</text><polygon fill="#A80036" points="864.5,330.4219,874.5,334.4219,864.5,338.4219,868.5,334.4219" style="stroke:#A80036;stroke-width:1.0;"/><line style="stroke:#A80036;stroke-width:1.0;" x1="588.5" x2="870.5" y1="334.4219" y2="334.4219"/><text fill="#000000" font-family="sans-serif" font-size="13" font-weight="bold" lengthAdjust="spacing" textLength="7" x="595.5" y="329.5654">8</text><text fill="#000000" font-family="sans-serif" font-size="13" lengthAdjust="spacing" textLength="253" x="606.5" y="329.5654">setTestType(designation, CollectionMethod)</text><polygon fill="#A80036" points="1199.5,360.7734,1209.5,364.7734,1199.5,368.7734,1203.5,364.7734" style="stroke:#A80036;stroke-width:1.0;"/><line style="stroke:#A80036;stroke-width:1.0;" x1="876.5" x2="1205.5" y1="364.7734" y2="364.7734"/><text fill="#000000" font-family="sans-serif" font-size="13" font-weight="bold" lengthAdjust="spacing" textLength="7" x="883.5" y="359.917">9</text><text fill="#000000" font-family="sans-serif" font-size="13" lengthAdjust="spacing" textLength="160" x="894.5" y="359.917">setDesignation(designation)</text><polygon fill="#A80036" points="1316,391.125,1326,395.125,1316,399.125,1320,395.125" style="stroke:#A80036;stroke-width:1.0;"/><line style="stroke:#A80036;stroke-width:1.0;" x1="876.5" x2="1322" y1="395.125" y2="395.125"/><text fill="#000000" font-family="sans-serif" font-size="13" font-weight="bold" lengthAdjust="spacing" textLength="14" x="883.5" y="390.2686">10</text><text fill="#000000" font-family="sans-serif" font-size="13" lengthAdjust="spacing" textLength="226" x="901.5" y="390.2686">setCollectionMethod(CollectionMethod)</text><polygon fill="#A80036" points="1199.5,421.4766,1209.5,425.4766,1199.5,429.4766,1203.5,425.4766" style="stroke:#A80036;stroke-width:1.0;"/><line style="stroke:#A80036;stroke-width:1.0;" x1="876.5" x2="1205.5" y1="425.4766" y2="425.4766"/><text fill="#000000" font-family="sans-serif" font-size="13" font-weight="bold" lengthAdjust="spacing" textLength="14" x="883.5" y="420.6201">11</text><text fill="#000000" font-family="sans-serif" font-size="13" lengthAdjust="spacing" textLength="293" x="901.5" y="420.6201">setCollectionMethodToTestType(CollectionMethod)</text><polygon fill="#A80036" points="60.5,451.8281,50.5,455.8281,60.5,459.8281,56.5,455.8281" style="stroke:#A80036;stroke-width:1.0;"/><line style="stroke:#A80036;stroke-width:1.0;" x1="54.5" x2="587.5" y1="455.8281" y2="455.8281"/><text fill="#000000" font-family="sans-serif" font-size="13" font-weight="bold" lengthAdjust="spacing" textLength="14" x="66.5" y="450.9717">12</text><text fill="#000000" font-family="sans-serif" font-size="13" lengthAdjust="spacing" textLength="202" x="84.5" y="450.9717">shows and requests the categories</text><polygon fill="#A80036" points="576.5,482.1797,586.5,486.1797,576.5,490.1797,580.5,486.1797" style="stroke:#A80036;stroke-width:1.0;"/><line style="stroke:#A80036;stroke-width:1.0;" x1="49.5" x2="582.5" y1="486.1797" y2="486.1797"/><text fill="#000000" font-family="sans-serif" font-size="13" font-weight="bold" lengthAdjust="spacing" textLength="14" x="56.5" y="481.3232">13</text><text fill="#000000" font-family="sans-serif" font-size="13" lengthAdjust="spacing" textLength="163" x="74.5" y="481.3232">types the wanted categories</text><polygon fill="#A80036" points="864.5,512.5313,874.5,516.5313,864.5,520.5313,868.5,516.5313" style="stroke:#A80036;stroke-width:1.0;"/><line style="stroke:#A80036;stroke-width:1.0;" x1="588.5" x2="870.5" y1="516.5313" y2="516.5313"/><text fill="#000000" font-family="sans-serif" font-size="13" font-weight="bold" lengthAdjust="spacing" textLength="14" x="595.5" y="511.6748">14</text><text fill="#000000" font-family="sans-serif" font-size="13" lengthAdjust="spacing" textLength="218" x="613.5" y="511.6748">addCategoriesToTestType(categories)</text><polygon fill="#A80036" points="1199.5,542.8828,1209.5,546.8828,1199.5,550.8828,1203.5,546.8828" style="stroke:#A80036;stroke-width:1.0;"/><line style="stroke:#A80036;stroke-width:1.0;" x1="876.5" x2="1205.5" y1="546.8828" y2="546.8828"/><text fill="#000000" font-family="sans-serif" font-size="13" font-weight="bold" lengthAdjust="spacing" textLength="14" x="883.5" y="542.0264">15</text><text fill="#000000" font-family="sans-serif" font-size="13" lengthAdjust="spacing" textLength="215" x="901.5" y="542.0264">setCategoriesToTestType(categories)</text><polygon fill="#A80036" points="1020.5,573.2344,1030.5,577.2344,1020.5,581.2344,1024.5,577.2344" style="stroke:#A80036;stroke-width:1.0;"/><line style="stroke:#A80036;stroke-width:1.0;" x1="876.5" x2="1026.5" y1="577.2344" y2="577.2344"/><text fill="#000000" font-family="sans-serif" font-size="13" font-weight="bold" lengthAdjust="spacing" textLength="14" x="883.5" y="572.3779">16</text><text fill="#000000" font-family="sans-serif" font-size="13" lengthAdjust="spacing" textLength="112" x="901.5" y="572.3779">validateTestType(tt)</text><polygon fill="#A80036" points="60.5,603.5859,50.5,607.5859,60.5,611.5859,56.5,607.5859" style="stroke:#A80036;stroke-width:1.0;"/><line style="stroke:#A80036;stroke-width:1.0;" x1="54.5" x2="587.5" y1="607.5859" y2="607.5859"/><text fill="#000000" font-family="sans-serif" font-size="13" font-weight="bold" lengthAdjust="spacing" textLength="14" x="66.5" y="602.7295">17</text><text fill="#000000" font-family="sans-serif" font-size="13" lengthAdjust="spacing" textLength="497" x="84.5" y="602.7295">shows the data (designation, CollectionMethod, Categories) and requests confirmation</text><polygon fill="#A80036" points="576.5,633.9375,586.5,637.9375,576.5,641.9375,580.5,637.9375" style="stroke:#A80036;stroke-width:1.0;"/><line style="stroke:#A80036;stroke-width:1.0;" x1="49.5" x2="582.5" y1="637.9375" y2="637.9375"/><text fill="#000000" font-family="sans-serif" font-size="13" font-weight="bold" lengthAdjust="spacing" textLength="14" x="56.5" y="633.0811">18</text><text fill="#000000" font-family="sans-serif" font-size="13" lengthAdjust="spacing" textLength="100" x="74.5" y="633.0811">confirms the data</text><polygon fill="#A80036" points="864.5,664.2891,874.5,668.2891,864.5,672.2891,868.5,668.2891" style="stroke:#A80036;stroke-width:1.0;"/><line style="stroke:#A80036;stroke-width:1.0;" x1="588.5" x2="870.5" y1="668.2891" y2="668.2891"/><text fill="#000000" font-family="sans-serif" font-size="13" font-weight="bold" lengthAdjust="spacing" textLength="14" x="595.5" y="663.4326">19</text><text fill="#000000" font-family="sans-serif" font-size="13" lengthAdjust="spacing" textLength="87" x="613.5" y="663.4326">saveTestType()</text><polygon fill="#A80036" points="1020.5,694.6406,1030.5,698.6406,1020.5,702.6406,1024.5,698.6406" style="stroke:#A80036;stroke-width:1.0;"/><line style="stroke:#A80036;stroke-width:1.0;" x1="876.5" x2="1026.5" y1="698.6406" y2="698.6406"/><text fill="#000000" font-family="sans-serif" font-size="13" font-weight="bold" lengthAdjust="spacing" textLength="14" x="883.5" y="693.7842">20</text><text fill="#000000" font-family="sans-serif" font-size="13" lengthAdjust="spacing" textLength="95" x="901.5" y="693.7842">saveTestType(tt)</text><polygon fill="#A80036" points="60.5,724.9922,50.5,728.9922,60.5,732.9922,56.5,728.9922" style="stroke:#A80036;stroke-width:1.0;"/><line style="stroke:#A80036;stroke-width:1.0;" x1="54.5" x2="587.5" y1="728.9922" y2="728.9922"/><text fill="#000000" font-family="sans-serif" font-size="13" font-weight="bold" lengthAdjust="spacing" textLength="14" x="66.5" y="724.1357">21</text><text fill="#000000" font-family="sans-serif" font-size="13" lengthAdjust="spacing" textLength="152" x="84.5" y="724.1357">informs operation success</text><!--MD5=[f4200bab8e6e12564fa4c8077163270b]
@startuml


autonumber

actor Administrator

Administrator -> ":CreateTestTypeUI": starts new test type
":CreateTestTypeUI" -> ":CreateTestTypeController": createTestType()
":CreateTestTypeController" -> ":Company": tt = createTestType()

":CreateTestTypeUI" -> Administrator: requests the designation
Administrator -> ":CreateTestTypeUI": types the designation
":CreateTestTypeUI" -> Administrator: requests the description of the collection method
Administrator -> ":CreateTestTypeUI": types the description

":CreateTestTypeUI" -> ":CreateTestTypeController": setTestType(designation, CollectionMethod)
":CreateTestTypeController" -> ":TestType": setDesignation(designation)
":CreateTestTypeController" -> ":CollectionMethod": setCollectionMethod(CollectionMethod)
":CreateTestTypeController" -> ":TestType": setCollectionMethodToTestType(CollectionMethod)

":CreateTestTypeUI" -> Administrator: shows and requests the categories
Administrator -> ":CreateTestTypeUI": types the wanted categories

":CreateTestTypeUI" -> ":CreateTestTypeController": addCategoriesToTestType(categories)
":CreateTestTypeController" -> ":TestType": setCategoriesToTestType(categories)
":CreateTestTypeController" -> ":Company": validateTestType(tt)
":CreateTestTypeUI" -> Administrator: shows the data (designation, CollectionMethod, Categories) and requests confirmation
Administrator -> ":CreateTestTypeUI": confirms the data
":CreateTestTypeUI" -> ":CreateTestTypeController": saveTestType()
":CreateTestTypeController" -> ":Company": saveTestType(tt)

":CreateTestTypeUI" -> Administrator: informs operation success



@enduml

PlantUML version 1.2021.5(Sun Apr 25 12:20:28 BST 2021)
(GPL source distribution)
Java Runtime: OpenJDK Runtime Environment
JVM: Dynamic Code Evolution 64-Bit Server VM
Default Encoding: Cp1252
Language: pt
Country: PT
--></g></svg>