<?xml version="1.0" encoding="UTF-8" standalone="no"?><svg xmlns="http://www.w3.org/2000/svg" xmlns:xlink="http://www.w3.org/1999/xlink" contentScriptType="application/ecmascript" contentStyleType="text/css" height="1716px" preserveAspectRatio="none" style="width:2182px;height:1716px;" version="1.1" viewBox="0 0 2182 1716" width="2182.5px" zoomAndPan="magnify"><defs><filter height="300%" id="f9p7a9furo4tj" width="300%" x="-1" y="-1"><feGaussianBlur result="blurOut" stdDeviation="3.0"/><feColorMatrix in="blurOut" result="blurOut2" type="matrix" values="0 0 0 0 0 0 0 0 0 0 0 0 0 0 0 0 0 0 .4 0"/><feOffset dx="6.0" dy="6.0" in="blurOut2" result="blurOut3"/><feBlend in="SourceGraphic" in2="blurOut3" mode="normal"/></filter></defs><g><line style="stroke:#A80036;stroke-width:1.5;stroke-dasharray:5.0,5.0;" x1="73.5" x2="73.5" y1="134.4141" y2="1588.7344"/><line style="stroke:#A80036;stroke-width:1.5;stroke-dasharray:5.0,5.0;" x1="882" x2="882" y1="134.4141" y2="1588.7344"/><line style="stroke:#A80036;stroke-width:1.5;stroke-dasharray:5.0,5.0;" x1="1324.5" x2="1324.5" y1="134.4141" y2="1588.7344"/><line style="stroke:#A80036;stroke-width:1.5;stroke-dasharray:5.0,5.0;" x1="1644.75" x2="1644.75" y1="134.4141" y2="1588.7344"/><line style="stroke:#A80036;stroke-width:1.5;stroke-dasharray:5.0,5.0;" x1="1860.75" x2="1860.75" y1="134.4141" y2="1588.7344"/><line style="stroke:#A80036;stroke-width:1.5;stroke-dasharray:5.0,5.0;" x1="2068.5" x2="2068.5" y1="134.4141" y2="1588.7344"/><text fill="#000000" font-family="sans-serif" font-size="21" lengthAdjust="spacing" textLength="124.5" x="7.5" y="129.7998">Administrator</text><ellipse cx="74.25" cy="22.5" fill="#FEFECE" filter="url(#f9p7a9furo4tj)" rx="12" ry="12" style="stroke:#A80036;stroke-width:3.0;"/><path d="M74.25,34.5 L74.25,75 M54.75,46.5 L93.75,46.5 M74.25,75 L54.75,97.5 M74.25,75 L93.75,97.5 " fill="none" filter="url(#f9p7a9furo4tj)" style="stroke:#A80036;stroke-width:3.0;"/><text fill="#000000" font-family="sans-serif" font-size="21" lengthAdjust="spacing" textLength="124.5" x="7.5" y="1609.0342">Administrator</text><ellipse cx="74.25" cy="1628.6484" fill="#FEFECE" filter="url(#f9p7a9furo4tj)" rx="12" ry="12" style="stroke:#A80036;stroke-width:3.0;"/><path d="M74.25,1640.6484 L74.25,1681.1484 M54.75,1652.6484 L93.75,1652.6484 M74.25,1681.1484 L54.75,1703.6484 M74.25,1681.1484 L93.75,1703.6484 " fill="none" filter="url(#f9p7a9furo4tj)" style="stroke:#A80036;stroke-width:3.0;"/><rect fill="#FEFECE" filter="url(#f9p7a9furo4tj)" height="47.4141" style="stroke:#A80036;stroke-width:2.25;" width="199.5" x="780" y="79.5"/><text fill="#000000" font-family="sans-serif" font-size="21" lengthAdjust="spacing" textLength="178.5" x="790.5" y="111.7998">:CreateTestTypeUI</text><rect fill="#FEFECE" filter="url(#f9p7a9furo4tj)" height="47.4141" style="stroke:#A80036;stroke-width:2.25;" width="199.5" x="780" y="1587.2344"/><text fill="#000000" font-family="sans-serif" font-size="21" lengthAdjust="spacing" textLength="178.5" x="790.5" y="1619.5342">:CreateTestTypeUI</text><rect fill="#FEFECE" filter="url(#f9p7a9furo4tj)" height="47.4141" style="stroke:#A80036;stroke-width:2.25;" width="274.5" x="1185" y="79.5"/><text fill="#000000" font-family="sans-serif" font-size="21" lengthAdjust="spacing" textLength="253.5" x="1195.5" y="111.7998">:CreateTestTypeController</text><rect fill="#FEFECE" filter="url(#f9p7a9furo4tj)" height="47.4141" style="stroke:#A80036;stroke-width:2.25;" width="274.5" x="1185" y="1587.2344"/><text fill="#000000" font-family="sans-serif" font-size="21" lengthAdjust="spacing" textLength="253.5" x="1195.5" y="1619.5342">:CreateTestTypeController</text><rect fill="#FEFECE" filter="url(#f9p7a9furo4tj)" height="47.4141" style="stroke:#A80036;stroke-width:2.25;" width="117" x="1583.25" y="79.5"/><text fill="#000000" font-family="sans-serif" font-size="21" lengthAdjust="spacing" textLength="96" x="1593.75" y="111.7998">:Company</text><rect fill="#FEFECE" filter="url(#f9p7a9furo4tj)" height="47.4141" style="stroke:#A80036;stroke-width:2.25;" width="117" x="1583.25" y="1587.2344"/><text fill="#000000" font-family="sans-serif" font-size="21" lengthAdjust="spacing" textLength="96" x="1593.75" y="1619.5342">:Company</text><rect fill="#FEFECE" filter="url(#f9p7a9furo4tj)" height="47.4141" style="stroke:#A80036;stroke-width:2.25;" width="117" x="1799.25" y="79.5"/><text fill="#000000" font-family="sans-serif" font-size="21" lengthAdjust="spacing" textLength="96" x="1809.75" y="111.7998">:TestType</text><rect fill="#FEFECE" filter="url(#f9p7a9furo4tj)" height="47.4141" style="stroke:#A80036;stroke-width:2.25;" width="117" x="1799.25" y="1587.2344"/><text fill="#000000" font-family="sans-serif" font-size="21" lengthAdjust="spacing" textLength="96" x="1809.75" y="1619.5342">:TestType</text><rect fill="#FEFECE" filter="url(#f9p7a9furo4tj)" height="47.4141" style="stroke:#A80036;stroke-width:2.25;" width="190.5" x="1971" y="79.5"/><text fill="#000000" font-family="sans-serif" font-size="21" lengthAdjust="spacing" textLength="169.5" x="1981.5" y="111.7998">:CollectionMethod</text><rect fill="#FEFECE" filter="url(#f9p7a9furo4tj)" height="47.4141" style="stroke:#A80036;stroke-width:2.25;" width="190.5" x="1971" y="1587.2344"/><text fill="#000000" font-family="sans-serif" font-size="21" lengthAdjust="spacing" textLength="169.5" x="1981.5" y="1619.5342">:CollectionMethod</text><polygon fill="#A80036" points="864.75,176.9414,879.75,182.9414,864.75,188.9414,870.75,182.9414" style="stroke:#A80036;stroke-width:1.5;"/><line style="stroke:#A80036;stroke-width:1.5;" x1="74.25" x2="873.75" y1="182.9414" y2="182.9414"/><text fill="#000000" font-family="sans-serif" font-size="19.5" font-weight="bold" lengthAdjust="spacing" textLength="10.5" x="84.75" y="175.6567">1</text><text fill="#000000" font-family="sans-serif" font-size="19.5" lengthAdjust="spacing" textLength="172.5" x="101.25" y="175.6567">starts new test type</text><polygon fill="#A80036" points="1307.25,222.4688,1322.25,228.4688,1307.25,234.4688,1313.25,228.4688" style="stroke:#A80036;stroke-width:1.5;"/><line style="stroke:#A80036;stroke-width:1.5;" x1="882.75" x2="1316.25" y1="228.4688" y2="228.4688"/><text fill="#000000" font-family="sans-serif" font-size="19.5" font-weight="bold" lengthAdjust="spacing" textLength="10.5" x="893.25" y="221.1841">2</text><text fill="#000000" font-family="sans-serif" font-size="19.5" lengthAdjust="spacing" textLength="145.5" x="909.75" y="221.1841">createTestType()</text><polygon fill="#A80036" points="1307.25,267.9961,1322.25,273.9961,1307.25,279.9961,1313.25,273.9961" style="stroke:#A80036;stroke-width:1.5;"/><line style="stroke:#A80036;stroke-width:1.5;" x1="882.75" x2="1316.25" y1="273.9961" y2="273.9961"/><text fill="#000000" font-family="sans-serif" font-size="19.5" font-weight="bold" lengthAdjust="spacing" textLength="10.5" x="893.25" y="266.7114">3</text><text fill="#000000" font-family="sans-serif" font-size="19.5" lengthAdjust="spacing" textLength="216" x="909.75" y="266.7114">createCollectionMethod()</text><polygon fill="#A80036" points="1626.75,313.5234,1641.75,319.5234,1626.75,325.5234,1632.75,319.5234" style="stroke:#A80036;stroke-width:1.5;"/><line style="stroke:#A80036;stroke-width:1.5;" x1="1325.25" x2="1635.75" y1="319.5234" y2="319.5234"/><text fill="#000000" font-family="sans-serif" font-size="19.5" font-weight="bold" lengthAdjust="spacing" textLength="10.5" x="1335.75" y="312.2388">4</text><text fill="#000000" font-family="sans-serif" font-size="19.5" lengthAdjust="spacing" textLength="181.5" x="1352.25" y="312.2388">tt = createTestType()</text><polygon fill="#A80036" points="1626.75,359.0508,1641.75,365.0508,1626.75,371.0508,1632.75,365.0508" style="stroke:#A80036;stroke-width:1.5;"/><line style="stroke:#A80036;stroke-width:1.5;" x1="1325.25" x2="1635.75" y1="365.0508" y2="365.0508"/><text fill="#000000" font-family="sans-serif" font-size="19.5" font-weight="bold" lengthAdjust="spacing" textLength="10.5" x="1335.75" y="357.7661">5</text><text fill="#000000" font-family="sans-serif" font-size="19.5" lengthAdjust="spacing" textLength="267" x="1352.25" y="357.7661">cm = createCollectionMethod()</text><polygon fill="#A80036" points="1842.75,404.5781,1857.75,410.5781,1842.75,416.5781,1848.75,410.5781" style="stroke:#A80036;stroke-width:1.5;"/><line style="stroke:#A80036;stroke-width:1.5;" x1="1644.75" x2="1851.75" y1="410.5781" y2="410.5781"/><text fill="#000000" font-family="sans-serif" font-size="19.5" font-weight="bold" lengthAdjust="spacing" textLength="10.5" x="1655.25" y="403.2935">6</text><text fill="#000000" font-family="sans-serif" font-size="19.5" lengthAdjust="spacing" textLength="145.5" x="1671.75" y="403.2935">createTestType()</text><polygon fill="#A80036" points="2051.25,450.1055,2066.25,456.1055,2051.25,462.1055,2057.25,456.1055" style="stroke:#A80036;stroke-width:1.5;"/><line style="stroke:#A80036;stroke-width:1.5;" x1="1644.75" x2="2060.25" y1="456.1055" y2="456.1055"/><text fill="#000000" font-family="sans-serif" font-size="19.5" font-weight="bold" lengthAdjust="spacing" textLength="10.5" x="1655.25" y="448.8208">7</text><text fill="#000000" font-family="sans-serif" font-size="19.5" lengthAdjust="spacing" textLength="216" x="1671.75" y="448.8208">createCollectionMethod()</text><polygon fill="#A80036" points="90.75,495.6328,75.75,501.6328,90.75,507.6328,84.75,501.6328" style="stroke:#A80036;stroke-width:1.5;"/><line style="stroke:#A80036;stroke-width:1.5;" x1="81.75" x2="881.25" y1="501.6328" y2="501.6328"/><text fill="#000000" font-family="sans-serif" font-size="19.5" font-weight="bold" lengthAdjust="spacing" textLength="10.5" x="99.75" y="494.3481">8</text><text fill="#000000" font-family="sans-serif" font-size="19.5" lengthAdjust="spacing" textLength="213" x="116.25" y="494.3481">requests the designation</text><polygon fill="#A80036" points="864.75,541.1602,879.75,547.1602,864.75,553.1602,870.75,547.1602" style="stroke:#A80036;stroke-width:1.5;"/><line style="stroke:#A80036;stroke-width:1.5;" x1="74.25" x2="873.75" y1="547.1602" y2="547.1602"/><text fill="#000000" font-family="sans-serif" font-size="19.5" font-weight="bold" lengthAdjust="spacing" textLength="10.5" x="84.75" y="539.8755">9</text><text fill="#000000" font-family="sans-serif" font-size="19.5" lengthAdjust="spacing" textLength="186" x="101.25" y="539.8755">types the designation</text><polygon fill="#A80036" points="90.75,586.6875,75.75,592.6875,90.75,598.6875,84.75,592.6875" style="stroke:#A80036;stroke-width:1.5;"/><line style="stroke:#A80036;stroke-width:1.5;" x1="81.75" x2="881.25" y1="592.6875" y2="592.6875"/><text fill="#000000" font-family="sans-serif" font-size="19.5" font-weight="bold" lengthAdjust="spacing" textLength="21" x="99.75" y="585.4028">10</text><text fill="#000000" font-family="sans-serif" font-size="19.5" lengthAdjust="spacing" textLength="421.5" x="126.75" y="585.4028">requests the description of the collection method</text><polygon fill="#A80036" points="864.75,632.2148,879.75,638.2148,864.75,644.2148,870.75,638.2148" style="stroke:#A80036;stroke-width:1.5;"/><line style="stroke:#A80036;stroke-width:1.5;" x1="74.25" x2="873.75" y1="638.2148" y2="638.2148"/><text fill="#000000" font-family="sans-serif" font-size="19.5" font-weight="bold" lengthAdjust="spacing" textLength="21" x="84.75" y="630.9302">11</text><text fill="#000000" font-family="sans-serif" font-size="19.5" lengthAdjust="spacing" textLength="181.5" x="111.75" y="630.9302">types the description</text><polygon fill="#A80036" points="1307.25,677.7422,1322.25,683.7422,1307.25,689.7422,1313.25,683.7422" style="stroke:#A80036;stroke-width:1.5;"/><line style="stroke:#A80036;stroke-width:1.5;" x1="882.75" x2="1316.25" y1="683.7422" y2="683.7422"/><text fill="#000000" font-family="sans-serif" font-size="19.5" font-weight="bold" lengthAdjust="spacing" textLength="21" x="893.25" y="676.4575">12</text><text fill="#000000" font-family="sans-serif" font-size="19.5" lengthAdjust="spacing" textLength="379.5" x="920.25" y="676.4575">setTestType(designation, CollectionMethod)</text><polygon fill="#A80036" points="1842.75,723.2695,1857.75,729.2695,1842.75,735.2695,1848.75,729.2695" style="stroke:#A80036;stroke-width:1.5;"/><line style="stroke:#A80036;stroke-width:1.5;" x1="1325.25" x2="1851.75" y1="729.2695" y2="729.2695"/><text fill="#000000" font-family="sans-serif" font-size="19.5" font-weight="bold" lengthAdjust="spacing" textLength="21" x="1335.75" y="721.9849">13</text><text fill="#000000" font-family="sans-serif" font-size="19.5" lengthAdjust="spacing" textLength="240" x="1362.75" y="721.9849">setDesignation(designation)</text><polygon fill="#A80036" points="2051.25,768.7969,2066.25,774.7969,2051.25,780.7969,2057.25,774.7969" style="stroke:#A80036;stroke-width:1.5;"/><line style="stroke:#A80036;stroke-width:1.5;" x1="1325.25" x2="2060.25" y1="774.7969" y2="774.7969"/><text fill="#000000" font-family="sans-serif" font-size="19.5" font-weight="bold" lengthAdjust="spacing" textLength="21" x="1335.75" y="767.5122">14</text><text fill="#000000" font-family="sans-serif" font-size="19.5" lengthAdjust="spacing" textLength="283.5" x="1362.75" y="767.5122">setCollectionMethod(description)</text><polygon fill="#A80036" points="1842.75,814.3242,1857.75,820.3242,1842.75,826.3242,1848.75,820.3242" style="stroke:#A80036;stroke-width:1.5;"/><line style="stroke:#A80036;stroke-width:1.5;" x1="1325.25" x2="1851.75" y1="820.3242" y2="820.3242"/><text fill="#000000" font-family="sans-serif" font-size="19.5" font-weight="bold" lengthAdjust="spacing" textLength="21" x="1335.75" y="813.0396">15</text><text fill="#000000" font-family="sans-serif" font-size="19.5" lengthAdjust="spacing" textLength="316.5" x="1362.75" y="813.0396">setCollectionMethodToTestType(cm)</text><polygon fill="#A80036" points="1842.75,859.8516,1857.75,865.8516,1842.75,871.8516,1848.75,865.8516" style="stroke:#A80036;stroke-width:1.5;"/><line style="stroke:#A80036;stroke-width:1.5;" x1="1644.75" x2="1851.75" y1="865.8516" y2="865.8516"/><text fill="#000000" font-family="sans-serif" font-size="19.5" font-weight="bold" lengthAdjust="spacing" textLength="21" x="1655.25" y="858.5669">16</text><text fill="#000000" font-family="sans-serif" font-size="19.5" lengthAdjust="spacing" textLength="76.5" x="1682.25" y="858.5669">validate()</text><line style="stroke:#A80036;stroke-width:1.5;" x1="1860.75" x2="1923.75" y1="911.3789" y2="911.3789"/><line style="stroke:#A80036;stroke-width:1.5;" x1="1923.75" x2="1923.75" y1="911.3789" y2="930.8789"/><line style="stroke:#A80036;stroke-width:1.5;" x1="1862.25" x2="1923.75" y1="930.8789" y2="930.8789"/><polygon fill="#A80036" points="1877.25,924.8789,1862.25,930.8789,1877.25,936.8789,1871.25,930.8789" style="stroke:#A80036;stroke-width:1.5;"/><text fill="#000000" font-family="sans-serif" font-size="19.5" font-weight="bold" lengthAdjust="spacing" textLength="21" x="1871.25" y="904.0942">17</text><text fill="#000000" font-family="sans-serif" font-size="19.5" lengthAdjust="spacing" textLength="160.5" x="1898.25" y="904.0942">validateAttributes()</text><polygon fill="#A80036" points="1341.75,970.4063,1326.75,976.4063,1341.75,982.4063,1335.75,976.4063" style="stroke:#A80036;stroke-width:1.5;"/><line style="stroke:#A80036;stroke-width:1.5;" x1="1332.75" x2="1643.25" y1="976.4063" y2="976.4063"/><text fill="#000000" font-family="sans-serif" font-size="19.5" font-weight="bold" lengthAdjust="spacing" textLength="21" x="1350.75" y="969.1216">18</text><text fill="#000000" font-family="sans-serif" font-size="19.5" lengthAdjust="spacing" textLength="148.5" x="1377.75" y="969.1216">getCategoryList()</text><polygon fill="#A80036" points="899.25,1015.9336,884.25,1021.9336,899.25,1027.9336,893.25,1021.9336" style="stroke:#A80036;stroke-width:1.5;"/><line style="stroke:#A80036;stroke-width:1.5;" x1="890.25" x2="1323.75" y1="1021.9336" y2="1021.9336"/><text fill="#000000" font-family="sans-serif" font-size="19.5" font-weight="bold" lengthAdjust="spacing" textLength="21" x="908.25" y="1014.6489">19</text><text fill="#000000" font-family="sans-serif" font-size="19.5" lengthAdjust="spacing" textLength="183" x="935.25" y="1014.6489">displayCategoryList()</text><polygon fill="#A80036" points="90.75,1061.4609,75.75,1067.4609,90.75,1073.4609,84.75,1067.4609" style="stroke:#A80036;stroke-width:1.5;"/><line style="stroke:#A80036;stroke-width:1.5;" x1="81.75" x2="881.25" y1="1067.4609" y2="1067.4609"/><text fill="#000000" font-family="sans-serif" font-size="19.5" font-weight="bold" lengthAdjust="spacing" textLength="21" x="99.75" y="1060.1763">20</text><text fill="#000000" font-family="sans-serif" font-size="19.5" lengthAdjust="spacing" textLength="303" x="126.75" y="1060.1763">shows and requests the categories</text><polygon fill="#A80036" points="864.75,1106.9883,879.75,1112.9883,864.75,1118.9883,870.75,1112.9883" style="stroke:#A80036;stroke-width:1.5;"/><line style="stroke:#A80036;stroke-width:1.5;" x1="74.25" x2="873.75" y1="1112.9883" y2="1112.9883"/><text fill="#000000" font-family="sans-serif" font-size="19.5" font-weight="bold" lengthAdjust="spacing" textLength="21" x="84.75" y="1105.7036">21</text><text fill="#000000" font-family="sans-serif" font-size="19.5" lengthAdjust="spacing" textLength="244.5" x="111.75" y="1105.7036">types the wanted categories</text><polygon fill="#A80036" points="1307.25,1152.5156,1322.25,1158.5156,1307.25,1164.5156,1313.25,1158.5156" style="stroke:#A80036;stroke-width:1.5;"/><line style="stroke:#A80036;stroke-width:1.5;" x1="882.75" x2="1316.25" y1="1158.5156" y2="1158.5156"/><text fill="#000000" font-family="sans-serif" font-size="19.5" font-weight="bold" lengthAdjust="spacing" textLength="21" x="893.25" y="1151.231">22</text><text fill="#000000" font-family="sans-serif" font-size="19.5" lengthAdjust="spacing" textLength="327" x="920.25" y="1151.231">addCategoriesToTestType(categories)</text><polygon fill="#A80036" points="1842.75,1198.043,1857.75,1204.043,1842.75,1210.043,1848.75,1204.043" style="stroke:#A80036;stroke-width:1.5;"/><line style="stroke:#A80036;stroke-width:1.5;" x1="1325.25" x2="1851.75" y1="1204.043" y2="1204.043"/><text fill="#000000" font-family="sans-serif" font-size="19.5" font-weight="bold" lengthAdjust="spacing" textLength="21" x="1335.75" y="1196.7583">23</text><text fill="#000000" font-family="sans-serif" font-size="19.5" lengthAdjust="spacing" textLength="322.5" x="1362.75" y="1196.7583">setCategoriesToTestType(categories)</text><polygon fill="#A80036" points="90.75,1243.5703,75.75,1249.5703,90.75,1255.5703,84.75,1249.5703" style="stroke:#A80036;stroke-width:1.5;"/><line style="stroke:#A80036;stroke-width:1.5;" x1="81.75" x2="881.25" y1="1249.5703" y2="1249.5703"/><text fill="#000000" font-family="sans-serif" font-size="19.5" font-weight="bold" lengthAdjust="spacing" textLength="21" x="99.75" y="1242.2856">24</text><text fill="#000000" font-family="sans-serif" font-size="19.5" lengthAdjust="spacing" textLength="745.5" x="126.75" y="1242.2856">shows the data (designation, CollectionMethod, Categories) and requests confirmation</text><polygon fill="#A80036" points="864.75,1289.0977,879.75,1295.0977,864.75,1301.0977,870.75,1295.0977" style="stroke:#A80036;stroke-width:1.5;"/><line style="stroke:#A80036;stroke-width:1.5;" x1="74.25" x2="873.75" y1="1295.0977" y2="1295.0977"/><text fill="#000000" font-family="sans-serif" font-size="19.5" font-weight="bold" lengthAdjust="spacing" textLength="21" x="84.75" y="1287.813">25</text><text fill="#000000" font-family="sans-serif" font-size="19.5" lengthAdjust="spacing" textLength="150" x="111.75" y="1287.813">confirms the data</text><polygon fill="#A80036" points="1307.25,1334.625,1322.25,1340.625,1307.25,1346.625,1313.25,1340.625" style="stroke:#A80036;stroke-width:1.5;"/><line style="stroke:#A80036;stroke-width:1.5;" x1="882.75" x2="1316.25" y1="1340.625" y2="1340.625"/><text fill="#000000" font-family="sans-serif" font-size="19.5" font-weight="bold" lengthAdjust="spacing" textLength="21" x="893.25" y="1333.3403">26</text><text fill="#000000" font-family="sans-serif" font-size="19.5" lengthAdjust="spacing" textLength="130.5" x="920.25" y="1333.3403">saveTestType()</text><polygon fill="#A80036" points="1626.75,1380.1523,1641.75,1386.1523,1626.75,1392.1523,1632.75,1386.1523" style="stroke:#A80036;stroke-width:1.5;"/><line style="stroke:#A80036;stroke-width:1.5;" x1="1325.25" x2="1635.75" y1="1386.1523" y2="1386.1523"/><text fill="#000000" font-family="sans-serif" font-size="19.5" font-weight="bold" lengthAdjust="spacing" textLength="21" x="1335.75" y="1378.8677">27</text><text fill="#000000" font-family="sans-serif" font-size="19.5" lengthAdjust="spacing" textLength="142.5" x="1362.75" y="1378.8677">saveTestType(tt)</text><line style="stroke:#A80036;stroke-width:1.5;" x1="1644.75" x2="1707.75" y1="1431.6797" y2="1431.6797"/><line style="stroke:#A80036;stroke-width:1.5;" x1="1707.75" x2="1707.75" y1="1431.6797" y2="1451.1797"/><line style="stroke:#A80036;stroke-width:1.5;" x1="1646.25" x2="1707.75" y1="1451.1797" y2="1451.1797"/><polygon fill="#A80036" points="1661.25,1445.1797,1646.25,1451.1797,1661.25,1457.1797,1655.25,1451.1797" style="stroke:#A80036;stroke-width:1.5;"/><text fill="#000000" font-family="sans-serif" font-size="19.5" font-weight="bold" lengthAdjust="spacing" textLength="21" x="1655.25" y="1424.395">28</text><text fill="#000000" font-family="sans-serif" font-size="19.5" lengthAdjust="spacing" textLength="168" x="1682.25" y="1424.395">validateTestType(tt)</text><line style="stroke:#A80036;stroke-width:1.5;" x1="1644.75" x2="1707.75" y1="1496.707" y2="1496.707"/><line style="stroke:#A80036;stroke-width:1.5;" x1="1707.75" x2="1707.75" y1="1496.707" y2="1516.207"/><line style="stroke:#A80036;stroke-width:1.5;" x1="1646.25" x2="1707.75" y1="1516.207" y2="1516.207"/><polygon fill="#A80036" points="1661.25,1510.207,1646.25,1516.207,1661.25,1522.207,1655.25,1516.207" style="stroke:#A80036;stroke-width:1.5;"/><text fill="#000000" font-family="sans-serif" font-size="19.5" font-weight="bold" lengthAdjust="spacing" textLength="21" x="1655.25" y="1489.4224">29</text><text fill="#000000" font-family="sans-serif" font-size="19.5" lengthAdjust="spacing" textLength="135" x="1682.25" y="1489.4224">addTestType(tt)</text><polygon fill="#A80036" points="90.75,1555.7344,75.75,1561.7344,90.75,1567.7344,84.75,1561.7344" style="stroke:#A80036;stroke-width:1.5;"/><line style="stroke:#A80036;stroke-width:1.5;" x1="81.75" x2="881.25" y1="1561.7344" y2="1561.7344"/><text fill="#000000" font-family="sans-serif" font-size="19.5" font-weight="bold" lengthAdjust="spacing" textLength="21" x="99.75" y="1554.4497">30</text><text fill="#000000" font-family="sans-serif" font-size="19.5" lengthAdjust="spacing" textLength="228" x="126.75" y="1554.4497">informs operation success</text><!--MD5=[6bcfd102cfd3aac35ad201a93e3950e3]
@startuml


autonumber

actor Administrator

Administrator -> ":CreateTestTypeUI": starts new test type
":CreateTestTypeUI" -> ":CreateTestTypeController": createTestType()
":CreateTestTypeUI" -> ":CreateTestTypeController": createCollectionMethod()
":CreateTestTypeController" -> ":Company": tt = createTestType()
":CreateTestTypeController" -> ":Company": cm = createCollectionMethod()
":Company" -> ":TestType": createTestType()
":Company" -> ":CollectionMethod": createCollectionMethod()

":CreateTestTypeUI" -> Administrator: requests the designation
Administrator -> ":CreateTestTypeUI": types the designation
":CreateTestTypeUI" -> Administrator: requests the description of the collection method
Administrator -> ":CreateTestTypeUI": types the description

":CreateTestTypeUI" -> ":CreateTestTypeController": setTestType(designation, CollectionMethod)
":CreateTestTypeController" -> ":TestType": setDesignation(designation)
":CreateTestTypeController" -> ":CollectionMethod": setCollectionMethod(description)
":CreateTestTypeController" -> ":TestType": setCollectionMethodToTestType(cm)

":Company" -> ":TestType": validate()
":TestType" -> ":TestType": validateAttributes()

":Company" -> ":CreateTestTypeController": getCategoryList()
":CreateTestTypeController" -> ":CreateTestTypeUI": displayCategoryList()

":CreateTestTypeUI" -> Administrator: shows and requests the categories
Administrator -> ":CreateTestTypeUI": types the wanted categories

":CreateTestTypeUI" -> ":CreateTestTypeController": addCategoriesToTestType(categories)
":CreateTestTypeController" -> ":TestType": setCategoriesToTestType(categories)
":CreateTestTypeUI" -> Administrator: shows the data (designation, CollectionMethod, Categories) and requests confirmation
Administrator -> ":CreateTestTypeUI": confirms the data
":CreateTestTypeUI" -> ":CreateTestTypeController": saveTestType()
":CreateTestTypeController" -> ":Company": saveTestType(tt)
":Company" -> ":Company": validateTestType(tt)
":Company" -> ":Company": addTestType(tt)

":CreateTestTypeUI" -> Administrator: informs operation success



@enduml

PlantUML version 1.2021.5(Sun Apr 25 12:20:28 BST 2021)
(GPL source distribution)
Java Runtime: OpenJDK Runtime Environment
JVM: Dynamic Code Evolution 64-Bit Server VM
Default Encoding: Cp1252
Language: pt
Country: PT
--></g></svg>