<?xml version="1.0" encoding="UTF-8" standalone="no"?><svg xmlns="http://www.w3.org/2000/svg" xmlns:xlink="http://www.w3.org/1999/xlink" contentScriptType="application/ecmascript" contentStyleType="text/css" height="390px" preserveAspectRatio="none" style="width:306px;height:390px;" version="1.1" viewBox="0 0 306 390" width="306px" zoomAndPan="magnify"><defs><filter height="300%" id="foq2x7ynxlxaa" width="300%" x="-1" y="-1"><feGaussianBlur result="blurOut" stdDeviation="2.0"/><feColorMatrix in="blurOut" result="blurOut2" type="matrix" values="0 0 0 0 0 0 0 0 0 0 0 0 0 0 0 0 0 0 .4 0"/><feOffset dx="4.0" dy="4.0" in="blurOut2" result="blurOut3"/><feBlend in="SourceGraphic" in2="blurOut3" mode="normal"/></filter></defs><g><!--MD5=[02e4b9b7573f1156f41e60aa5b4e25a4]
class Company--><rect codeLine="3" fill="#FEFECE" filter="url(#foq2x7ynxlxaa)" height="61.8359" id="Company" style="stroke:#A80036;stroke-width:1.5;" width="85" x="173" y="7"/><ellipse cx="188" cy="23" fill="#ADD1B2" rx="11" ry="11" style="stroke:#A80036;stroke-width:1.0;"/><path d="M190,19.5 Q190.2031,19 190.4375,18.75 Q190.6719,18.5 190.9375,18.5 Q191.4063,18.5 191.7031,18.7813 Q192,19.0625 192,19.7188 L192,21.2813 Q192,21.9375 191.7188,22.2188 Q191.4375,22.5 191,22.5 Q190.6094,22.5 190.3594,22.3281 Q190.1094,22.1563 190,21.7031 Q189.9531,21.3906 189.7813,21.2188 Q189.4688,20.8906 188.9063,20.7031 Q188.3438,20.5 187.7813,20.5 Q187.0781,20.5 186.4844,20.7813 Q185.9063,21.0625 185.4531,21.6875 Q185,22.3125 185,23.1719 L185,24.0938 Q185,25.125 185.8438,25.8125 Q186.6875,26.5 188.1875,26.5 Q189.0781,26.5 189.7031,26.2969 Q190.0625,26.1875 190.4688,25.8281 Q190.7344,25.625 190.875,25.5625 Q191.0156,25.5 191.1875,25.5 Q191.5156,25.5 191.75,25.7656 Q192,26.0156 192,26.375 Q192,26.7188 191.6563,27.125 Q191.1563,27.7188 190.3594,28.0469 Q189.3125,28.5 188.0313,28.5 Q186.5313,28.5 185.3281,27.9063 Q184.3594,27.4375 183.6719,26.4219 Q183,25.4063 183,24.2031 L183,23.1094 Q183,21.8594 183.5938,20.7656 Q184.2031,19.6719 185.25,19.0938 Q186.3125,18.5 187.5,18.5 Q188.2188,18.5 188.8438,18.75 Q189.4688,19 190,19.5 Z " fill="#000000"/><text fill="#000000" font-family="sans-serif" font-size="12" lengthAdjust="spacing" textLength="53" x="202" y="27.9102">Company</text><line style="stroke:#A80036;stroke-width:1.5;" x1="174" x2="257" y1="39" y2="39"/><text fill="#000000" font-family="sans-serif" font-size="11" lengthAdjust="spacing" textLength="59" x="179" y="54.4189">-designation</text><line style="stroke:#A80036;stroke-width:1.5;" x1="174" x2="257" y1="60.8359" y2="60.8359"/><!--MD5=[da547346deef918ea16944ba046651ef]
class Administrator--><rect codeLine="7" fill="#FEFECE" filter="url(#foq2x7ynxlxaa)" height="48" id="Administrator" style="stroke:#A80036;stroke-width:1.5;" width="105" x="33" y="14"/><ellipse cx="48" cy="30" fill="#ADD1B2" rx="11" ry="11" style="stroke:#A80036;stroke-width:1.0;"/><path d="M50,26.5 Q50.2031,26 50.4375,25.75 Q50.6719,25.5 50.9375,25.5 Q51.4063,25.5 51.7031,25.7813 Q52,26.0625 52,26.7188 L52,28.2813 Q52,28.9375 51.7188,29.2188 Q51.4375,29.5 51,29.5 Q50.6094,29.5 50.3594,29.3281 Q50.1094,29.1563 50,28.7031 Q49.9531,28.3906 49.7813,28.2188 Q49.4688,27.8906 48.9063,27.7031 Q48.3438,27.5 47.7813,27.5 Q47.0781,27.5 46.4844,27.7813 Q45.9063,28.0625 45.4531,28.6875 Q45,29.3125 45,30.1719 L45,31.0938 Q45,32.125 45.8438,32.8125 Q46.6875,33.5 48.1875,33.5 Q49.0781,33.5 49.7031,33.2969 Q50.0625,33.1875 50.4688,32.8281 Q50.7344,32.625 50.875,32.5625 Q51.0156,32.5 51.1875,32.5 Q51.5156,32.5 51.75,32.7656 Q52,33.0156 52,33.375 Q52,33.7188 51.6563,34.125 Q51.1563,34.7188 50.3594,35.0469 Q49.3125,35.5 48.0313,35.5 Q46.5313,35.5 45.3281,34.9063 Q44.3594,34.4375 43.6719,33.4219 Q43,32.4063 43,31.2031 L43,30.1094 Q43,28.8594 43.5938,27.7656 Q44.2031,26.6719 45.25,26.0938 Q46.3125,25.5 47.5,25.5 Q48.2188,25.5 48.8438,25.75 Q49.4688,26 50,26.5 Z " fill="#000000"/><text fill="#000000" font-family="sans-serif" font-size="12" lengthAdjust="spacing" textLength="73" x="62" y="34.9102">Administrator</text><line style="stroke:#A80036;stroke-width:1.5;" x1="34" x2="137" y1="46" y2="46"/><line style="stroke:#A80036;stroke-width:1.5;" x1="34" x2="137" y1="54" y2="54"/><!--MD5=[ec908970c524777c08fd0d8397a1f7bf]
class CollectionMethod--><rect codeLine="9" fill="#FEFECE" filter="url(#foq2x7ynxlxaa)" height="61.8359" id="CollectionMethod" style="stroke:#A80036;stroke-width:1.5;" width="127" x="7" y="301"/><ellipse cx="22" cy="317" fill="#ADD1B2" rx="11" ry="11" style="stroke:#A80036;stroke-width:1.0;"/><path d="M24,313.5 Q24.2031,313 24.4375,312.75 Q24.6719,312.5 24.9375,312.5 Q25.4063,312.5 25.7031,312.7813 Q26,313.0625 26,313.7188 L26,315.2813 Q26,315.9375 25.7188,316.2188 Q25.4375,316.5 25,316.5 Q24.6094,316.5 24.3594,316.3281 Q24.1094,316.1563 24,315.7031 Q23.9531,315.3906 23.7813,315.2188 Q23.4688,314.8906 22.9063,314.7031 Q22.3438,314.5 21.7813,314.5 Q21.0781,314.5 20.4844,314.7813 Q19.9063,315.0625 19.4531,315.6875 Q19,316.3125 19,317.1719 L19,318.0938 Q19,319.125 19.8438,319.8125 Q20.6875,320.5 22.1875,320.5 Q23.0781,320.5 23.7031,320.2969 Q24.0625,320.1875 24.4688,319.8281 Q24.7344,319.625 24.875,319.5625 Q25.0156,319.5 25.1875,319.5 Q25.5156,319.5 25.75,319.7656 Q26,320.0156 26,320.375 Q26,320.7188 25.6563,321.125 Q25.1563,321.7188 24.3594,322.0469 Q23.3125,322.5 22.0313,322.5 Q20.5313,322.5 19.3281,321.9063 Q18.3594,321.4375 17.6719,320.4219 Q17,319.4063 17,318.2031 L17,317.1094 Q17,315.8594 17.5938,314.7656 Q18.2031,313.6719 19.25,313.0938 Q20.3125,312.5 21.5,312.5 Q22.2188,312.5 22.8438,312.75 Q23.4688,313 24,313.5 Z " fill="#000000"/><text fill="#000000" font-family="sans-serif" font-size="12" lengthAdjust="spacing" textLength="95" x="36" y="321.9102">CollectionMethod</text><line style="stroke:#A80036;stroke-width:1.5;" x1="8" x2="133" y1="333" y2="333"/><text fill="#000000" font-family="sans-serif" font-size="11" lengthAdjust="spacing" textLength="57" x="13" y="348.4189">-description</text><line style="stroke:#A80036;stroke-width:1.5;" x1="8" x2="133" y1="354.8359" y2="354.8359"/><!--MD5=[aeb3272166074d8737a70b61b1e71682]
class TestType--><rect codeLine="13" fill="#FEFECE" filter="url(#foq2x7ynxlxaa)" height="61.8359" id="TestType" style="stroke:#A80036;stroke-width:1.5;" width="82" x="109.5" y="147"/><ellipse cx="124.5" cy="163" fill="#ADD1B2" rx="11" ry="11" style="stroke:#A80036;stroke-width:1.0;"/><path d="M126.5,159.5 Q126.7031,159 126.9375,158.75 Q127.1719,158.5 127.4375,158.5 Q127.9063,158.5 128.2031,158.7813 Q128.5,159.0625 128.5,159.7188 L128.5,161.2813 Q128.5,161.9375 128.2188,162.2188 Q127.9375,162.5 127.5,162.5 Q127.1094,162.5 126.8594,162.3281 Q126.6094,162.1563 126.5,161.7031 Q126.4531,161.3906 126.2813,161.2188 Q125.9688,160.8906 125.4063,160.7031 Q124.8438,160.5 124.2813,160.5 Q123.5781,160.5 122.9844,160.7813 Q122.4063,161.0625 121.9531,161.6875 Q121.5,162.3125 121.5,163.1719 L121.5,164.0938 Q121.5,165.125 122.3438,165.8125 Q123.1875,166.5 124.6875,166.5 Q125.5781,166.5 126.2031,166.2969 Q126.5625,166.1875 126.9688,165.8281 Q127.2344,165.625 127.375,165.5625 Q127.5156,165.5 127.6875,165.5 Q128.0156,165.5 128.25,165.7656 Q128.5,166.0156 128.5,166.375 Q128.5,166.7188 128.1563,167.125 Q127.6563,167.7188 126.8594,168.0469 Q125.8125,168.5 124.5313,168.5 Q123.0313,168.5 121.8281,167.9063 Q120.8594,167.4375 120.1719,166.4219 Q119.5,165.4063 119.5,164.2031 L119.5,163.1094 Q119.5,161.8594 120.0938,160.7656 Q120.7031,159.6719 121.75,159.0938 Q122.8125,158.5 124,158.5 Q124.7188,158.5 125.3438,158.75 Q125.9688,159 126.5,159.5 Z " fill="#000000"/><text fill="#000000" font-family="sans-serif" font-size="12" lengthAdjust="spacing" textLength="50" x="138.5" y="167.9102">TestType</text><line style="stroke:#A80036;stroke-width:1.5;" x1="110.5" x2="190.5" y1="179" y2="179"/><text fill="#000000" font-family="sans-serif" font-size="11" lengthAdjust="spacing" textLength="59" x="115.5" y="194.4189">-designation</text><line style="stroke:#A80036;stroke-width:1.5;" x1="110.5" x2="190.5" y1="200.8359" y2="200.8359"/><!--MD5=[1f6362a5c8f21d8d6a0fce68f3a92a4e]
class Parameter--><rect codeLine="17" fill="#FEFECE" filter="url(#foq2x7ynxlxaa)" height="89.5078" id="Parameter" style="stroke:#A80036;stroke-width:1.5;" width="123" x="169" y="287"/><ellipse cx="198.85" cy="303" fill="#ADD1B2" rx="11" ry="11" style="stroke:#A80036;stroke-width:1.0;"/><path d="M200.85,299.5 Q201.0531,299 201.2875,298.75 Q201.5219,298.5 201.7875,298.5 Q202.2563,298.5 202.5531,298.7813 Q202.85,299.0625 202.85,299.7188 L202.85,301.2813 Q202.85,301.9375 202.5688,302.2188 Q202.2875,302.5 201.85,302.5 Q201.4594,302.5 201.2094,302.3281 Q200.9594,302.1563 200.85,301.7031 Q200.8031,301.3906 200.6313,301.2188 Q200.3188,300.8906 199.7563,300.7031 Q199.1938,300.5 198.6313,300.5 Q197.9281,300.5 197.3344,300.7813 Q196.7563,301.0625 196.3031,301.6875 Q195.85,302.3125 195.85,303.1719 L195.85,304.0938 Q195.85,305.125 196.6938,305.8125 Q197.5375,306.5 199.0375,306.5 Q199.9281,306.5 200.5531,306.2969 Q200.9125,306.1875 201.3188,305.8281 Q201.5844,305.625 201.725,305.5625 Q201.8656,305.5 202.0375,305.5 Q202.3656,305.5 202.6,305.7656 Q202.85,306.0156 202.85,306.375 Q202.85,306.7188 202.5063,307.125 Q202.0063,307.7188 201.2094,308.0469 Q200.1625,308.5 198.8813,308.5 Q197.3813,308.5 196.1781,307.9063 Q195.2094,307.4375 194.5219,306.4219 Q193.85,305.4063 193.85,304.2031 L193.85,303.1094 Q193.85,301.8594 194.4438,300.7656 Q195.0531,299.6719 196.1,299.0938 Q197.1625,298.5 198.35,298.5 Q199.0688,298.5 199.6938,298.75 Q200.3188,299 200.85,299.5 Z " fill="#000000"/><text fill="#000000" font-family="sans-serif" font-size="12" lengthAdjust="spacing" textLength="58" x="216.15" y="307.9102">Parameter</text><line style="stroke:#A80036;stroke-width:1.5;" x1="170" x2="291" y1="319" y2="319"/><text fill="#000000" font-family="sans-serif" font-size="11" lengthAdjust="spacing" textLength="59" x="175" y="334.4189">-designation</text><text fill="#000000" font-family="sans-serif" font-size="11" lengthAdjust="spacing" textLength="111" x="175" y="348.2549">-upperReferenceValue</text><text fill="#000000" font-family="sans-serif" font-size="11" lengthAdjust="spacing" textLength="111" x="175" y="362.0908">-lowerReferenceValue</text><line style="stroke:#A80036;stroke-width:1.5;" x1="170" x2="291" y1="368.5078" y2="368.5078"/><!--MD5=[71159b3869b6d7a411768e18bcaa697a]
link Administrator to TestType--><path codeLine="23" d="M85.26,62.19 C85.91,78.26 88.46,99.77 96.5,117 C101.54,127.8 109.18,138.04 117.15,146.9 " fill="none" id="Administrator-TestType" style="stroke:#A80036;stroke-width:1.0;"/><polygon fill="#000000" points="99.7384,103.4964,100.1747,112.9969,105.6757,110.926,99.7384,103.4964" style="stroke:#000000;stroke-width:1.0;"/><text fill="#000000" font-family="sans-serif" font-size="13" lengthAdjust="spacing" textLength="61" x="110.5" y="113.4951">created by</text><text fill="#000000" font-family="sans-serif" font-size="13" lengthAdjust="spacing" textLength="7" x="77.3484" y="83.5743">1</text><text fill="#000000" font-family="sans-serif" font-size="13" lengthAdjust="spacing" textLength="5" x="104.7559" y="136.3839">*</text><!--MD5=[5b7a9ded131023be416e27d15bcd6d77]
link TestType to Parameter--><path codeLine="24" d="M166.31,209.03 C178.01,231.27 194.14,261.91 207.3,286.92 " fill="none" id="TestType-Parameter" style="stroke:#A80036;stroke-width:1.0;"/><polygon fill="#000000" points="197.8285,252.6005,196.217,243.2275,191.0154,245.9648,197.8285,252.6005" style="stroke:#000000;stroke-width:1.0;"/><text fill="#000000" font-family="sans-serif" font-size="13" lengthAdjust="spacing" textLength="78" x="204.5" y="253.4951">associated to</text><text fill="#000000" font-family="sans-serif" font-size="13" lengthAdjust="spacing" textLength="7" x="161.7335" y="230.2599">1</text><text fill="#000000" font-family="sans-serif" font-size="13" lengthAdjust="spacing" textLength="20" x="182.0088" y="276.0227">1..*</text><!--MD5=[2595b7e412cbba06707a2f110c7e1781]
link TestType to CollectionMethod--><path codeLine="25" d="M134.69,209.03 C120.72,235.59 100.42,274.15 86.41,300.77 " fill="none" id="TestType-CollectionMethod" style="stroke:#A80036;stroke-width:1.0;"/><polygon fill="#000000" points="120.1714,252.6005,126.9846,245.9648,121.7831,243.2274,120.1714,252.6005" style="stroke:#000000;stroke-width:1.0;"/><text fill="#000000" font-family="sans-serif" font-size="13" lengthAdjust="spacing" textLength="32" x="131.5" y="253.4951">has a</text><text fill="#000000" font-family="sans-serif" font-size="13" lengthAdjust="spacing" textLength="7" x="123.8883" y="230.2599">1</text><text fill="#000000" font-family="sans-serif" font-size="13" lengthAdjust="spacing" textLength="7" x="81.9696" y="290.2271">1</text><!--MD5=[742a261f27a3dcd734c626287d811acd]
link Company to TestType--><path codeLine="26" d="M201.24,69.28 C190.4,92.29 175.56,123.79 164.73,146.79 " fill="none" id="Company-TestType" style="stroke:#A80036;stroke-width:1.0;"/><polygon fill="#000000" points="189.3694,112.6991,195.8825,105.7687,190.565,103.264,189.3694,112.6991" style="stroke:#000000;stroke-width:1.0;"/><text fill="#000000" font-family="sans-serif" font-size="13" lengthAdjust="spacing" textLength="53" x="200.5" y="113.4951">conducts</text><text fill="#000000" font-family="sans-serif" font-size="13" lengthAdjust="spacing" textLength="7" x="190.8545" y="90.312">1</text><text fill="#000000" font-family="sans-serif" font-size="13" lengthAdjust="spacing" textLength="5" x="162.1493" y="136.2512">*</text><!--MD5=[dab45b16b877ed08e3299e03cb4343c5]
@startuml
skinparam classAttributeIconSize 0

class Company {
-designation
}

class Administrator

class CollectionMethod {
-description
}

class TestType {
-designation
}

class Parameter {
-designation
-upperReferenceValue
-lowerReferenceValue
}

TestType "*"-up-"1" Administrator : created by >
Parameter "1..*"-up-"1" TestType  : associated to <
TestType "1"- -"1" CollectionMethod : has a  >
Company "1"-down-"*" TestType : conducts >
@enduml

PlantUML version 1.2021.4(Sun Apr 04 09:49:39 BST 2021)
(GPL source distribution)
Java Runtime: OpenJDK Runtime Environment
JVM: Dynamic Code Evolution 64-Bit Server VM
Default Encoding: Cp1252
Language: pt
Country: PT
--></g></svg>