<?xml version="1.0" encoding="UTF-8" standalone="no"?><svg xmlns="http://www.w3.org/2000/svg" xmlns:xlink="http://www.w3.org/1999/xlink" contentScriptType="application/ecmascript" contentStyleType="text/css" height="1048px" preserveAspectRatio="none" style="width:439px;height:1048px;" version="1.1" viewBox="0 0 439 1048" width="439px" zoomAndPan="magnify"><defs><filter height="300%" id="f5txs14im7s9k" width="300%" x="-1" y="-1"><feGaussianBlur result="blurOut" stdDeviation="2.0"/><feColorMatrix in="blurOut" result="blurOut2" type="matrix" values="0 0 0 0 0 0 0 0 0 0 0 0 0 0 0 0 0 0 .4 0"/><feOffset dx="4.0" dy="4.0" in="blurOut2" result="blurOut3"/><feBlend in="SourceGraphic" in2="blurOut3" mode="normal"/></filter></defs><g><!--MD5=[da547346deef918ea16944ba046651ef]
class Administrator--><rect codeLine="3" fill="#FEFECE" filter="url(#f5txs14im7s9k)" height="48" id="Administrator" style="stroke:#A80036;stroke-width:1.5;" width="105" x="7" y="7"/><ellipse cx="22" cy="23" fill="#ADD1B2" rx="11" ry="11" style="stroke:#A80036;stroke-width:1.0;"/><path d="M24,19.5 Q24.2031,19 24.4375,18.75 Q24.6719,18.5 24.9375,18.5 Q25.4063,18.5 25.7031,18.7813 Q26,19.0625 26,19.7188 L26,21.2813 Q26,21.9375 25.7188,22.2188 Q25.4375,22.5 25,22.5 Q24.6094,22.5 24.3594,22.3281 Q24.1094,22.1563 24,21.7031 Q23.9531,21.3906 23.7813,21.2188 Q23.4688,20.8906 22.9063,20.7031 Q22.3438,20.5 21.7813,20.5 Q21.0781,20.5 20.4844,20.7813 Q19.9063,21.0625 19.4531,21.6875 Q19,22.3125 19,23.1719 L19,24.0938 Q19,25.125 19.8438,25.8125 Q20.6875,26.5 22.1875,26.5 Q23.0781,26.5 23.7031,26.2969 Q24.0625,26.1875 24.4688,25.8281 Q24.7344,25.625 24.875,25.5625 Q25.0156,25.5 25.1875,25.5 Q25.5156,25.5 25.75,25.7656 Q26,26.0156 26,26.375 Q26,26.7188 25.6563,27.125 Q25.1563,27.7188 24.3594,28.0469 Q23.3125,28.5 22.0313,28.5 Q20.5313,28.5 19.3281,27.9063 Q18.3594,27.4375 17.6719,26.4219 Q17,25.4063 17,24.2031 L17,23.1094 Q17,21.8594 17.5938,20.7656 Q18.2031,19.6719 19.25,19.0938 Q20.3125,18.5 21.5,18.5 Q22.2188,18.5 22.8438,18.75 Q23.4688,19 24,19.5 Z " fill="#000000"/><text fill="#000000" font-family="sans-serif" font-size="12" lengthAdjust="spacing" textLength="73" x="36" y="27.9102">Administrator</text><line style="stroke:#A80036;stroke-width:1.5;" x1="8" x2="111" y1="39" y2="39"/><line style="stroke:#A80036;stroke-width:1.5;" x1="8" x2="111" y1="47" y2="47"/><!--MD5=[ec908970c524777c08fd0d8397a1f7bf]
class CollectionMethod--><rect codeLine="4" fill="#FEFECE" filter="url(#f5txs14im7s9k)" height="61.8359" id="CollectionMethod" style="stroke:#A80036;stroke-width:1.5;" width="127" x="202" y="413"/><ellipse cx="217" cy="429" fill="#ADD1B2" rx="11" ry="11" style="stroke:#A80036;stroke-width:1.0;"/><path d="M219,425.5 Q219.2031,425 219.4375,424.75 Q219.6719,424.5 219.9375,424.5 Q220.4063,424.5 220.7031,424.7813 Q221,425.0625 221,425.7188 L221,427.2813 Q221,427.9375 220.7188,428.2188 Q220.4375,428.5 220,428.5 Q219.6094,428.5 219.3594,428.3281 Q219.1094,428.1563 219,427.7031 Q218.9531,427.3906 218.7813,427.2188 Q218.4688,426.8906 217.9063,426.7031 Q217.3438,426.5 216.7813,426.5 Q216.0781,426.5 215.4844,426.7813 Q214.9063,427.0625 214.4531,427.6875 Q214,428.3125 214,429.1719 L214,430.0938 Q214,431.125 214.8438,431.8125 Q215.6875,432.5 217.1875,432.5 Q218.0781,432.5 218.7031,432.2969 Q219.0625,432.1875 219.4688,431.8281 Q219.7344,431.625 219.875,431.5625 Q220.0156,431.5 220.1875,431.5 Q220.5156,431.5 220.75,431.7656 Q221,432.0156 221,432.375 Q221,432.7188 220.6563,433.125 Q220.1563,433.7188 219.3594,434.0469 Q218.3125,434.5 217.0313,434.5 Q215.5313,434.5 214.3281,433.9063 Q213.3594,433.4375 212.6719,432.4219 Q212,431.4063 212,430.2031 L212,429.1094 Q212,427.8594 212.5938,426.7656 Q213.2031,425.6719 214.25,425.0938 Q215.3125,424.5 216.5,424.5 Q217.2188,424.5 217.8438,424.75 Q218.4688,425 219,425.5 Z " fill="#000000"/><text fill="#000000" font-family="sans-serif" font-size="12" lengthAdjust="spacing" textLength="95" x="231" y="433.9102">CollectionMethod</text><line style="stroke:#A80036;stroke-width:1.5;" x1="203" x2="328" y1="445" y2="445"/><text fill="#000000" font-family="sans-serif" font-size="11" lengthAdjust="spacing" textLength="57" x="208" y="460.4189">-description</text><line style="stroke:#A80036;stroke-width:1.5;" x1="203" x2="328" y1="466.8359" y2="466.8359"/><!--MD5=[df38be88ccee13e832d6fafd6288a4ca]
class Test--><rect codeLine="8" fill="#FEFECE" filter="url(#f5txs14im7s9k)" height="172.5234" id="Test" style="stroke:#A80036;stroke-width:1.5;" width="84" x="91.5" y="567"/><ellipse cx="119.1" cy="583" fill="#ADD1B2" rx="11" ry="11" style="stroke:#A80036;stroke-width:1.0;"/><path d="M121.1,579.5 Q121.3031,579 121.5375,578.75 Q121.7719,578.5 122.0375,578.5 Q122.5063,578.5 122.8031,578.7813 Q123.1,579.0625 123.1,579.7188 L123.1,581.2813 Q123.1,581.9375 122.8188,582.2188 Q122.5375,582.5 122.1,582.5 Q121.7094,582.5 121.4594,582.3281 Q121.2094,582.1563 121.1,581.7031 Q121.0531,581.3906 120.8813,581.2188 Q120.5688,580.8906 120.0063,580.7031 Q119.4438,580.5 118.8813,580.5 Q118.1781,580.5 117.5844,580.7813 Q117.0063,581.0625 116.5531,581.6875 Q116.1,582.3125 116.1,583.1719 L116.1,584.0938 Q116.1,585.125 116.9438,585.8125 Q117.7875,586.5 119.2875,586.5 Q120.1781,586.5 120.8031,586.2969 Q121.1625,586.1875 121.5688,585.8281 Q121.8344,585.625 121.975,585.5625 Q122.1156,585.5 122.2875,585.5 Q122.6156,585.5 122.85,585.7656 Q123.1,586.0156 123.1,586.375 Q123.1,586.7188 122.7563,587.125 Q122.2563,587.7188 121.4594,588.0469 Q120.4125,588.5 119.1313,588.5 Q117.6313,588.5 116.4281,587.9063 Q115.4594,587.4375 114.7719,586.4219 Q114.1,585.4063 114.1,584.2031 L114.1,583.1094 Q114.1,581.8594 114.6938,580.7656 Q115.3031,579.6719 116.35,579.0938 Q117.4125,578.5 118.6,578.5 Q119.3188,578.5 119.9438,578.75 Q120.5688,579 121.1,579.5 Z " fill="#000000"/><text fill="#000000" font-family="sans-serif" font-size="12" lengthAdjust="spacing" textLength="24" x="135.9" y="587.9102">Test</text><line style="stroke:#A80036;stroke-width:1.5;" x1="92.5" x2="174.5" y1="599" y2="599"/><text fill="#000000" font-family="sans-serif" font-size="11" lengthAdjust="spacing" textLength="64" x="97.5" y="614.4189">-internalCode</text><text fill="#000000" font-family="sans-serif" font-size="11" lengthAdjust="spacing" textLength="47" x="97.5" y="628.2549">-nhsCode</text><text fill="#000000" font-family="sans-serif" font-size="11" lengthAdjust="spacing" textLength="52" x="97.5" y="642.0908">-createdAt</text><text fill="#000000" font-family="sans-serif" font-size="11" lengthAdjust="spacing" textLength="67" x="97.5" y="655.9268">-dateAnalysis</text><text fill="#000000" font-family="sans-serif" font-size="11" lengthAdjust="spacing" textLength="65" x="97.5" y="669.7627">-timeAnalysis</text><text fill="#000000" font-family="sans-serif" font-size="11" lengthAdjust="spacing" textLength="72" x="97.5" y="683.5986">-dateDiagnosis</text><text fill="#000000" font-family="sans-serif" font-size="11" lengthAdjust="spacing" textLength="70" x="97.5" y="697.4346">-timeDiagnosis</text><text fill="#000000" font-family="sans-serif" font-size="11" lengthAdjust="spacing" textLength="72" x="97.5" y="711.2705">-dateValidation</text><text fill="#000000" font-family="sans-serif" font-size="11" lengthAdjust="spacing" textLength="70" x="97.5" y="725.1064">-timeValidation</text><line style="stroke:#A80036;stroke-width:1.5;" x1="92.5" x2="174.5" y1="731.5234" y2="731.5234"/><!--MD5=[80e560c845ce9ec3c8b9ef25ef04dbf1]
class ParameterResult--><rect codeLine="19" fill="#FEFECE" filter="url(#f5txs14im7s9k)" height="48" id="ParameterResult" style="stroke:#A80036;stroke-width:1.5;" width="126" x="191.5" y="986"/><ellipse cx="206.5" cy="1002" fill="#ADD1B2" rx="11" ry="11" style="stroke:#A80036;stroke-width:1.0;"/><path d="M208.5,998.5 Q208.7031,998 208.9375,997.75 Q209.1719,997.5 209.4375,997.5 Q209.9063,997.5 210.2031,997.7813 Q210.5,998.0625 210.5,998.7188 L210.5,1000.2813 Q210.5,1000.9375 210.2188,1001.2188 Q209.9375,1001.5 209.5,1001.5 Q209.1094,1001.5 208.8594,1001.3281 Q208.6094,1001.1563 208.5,1000.7031 Q208.4531,1000.3906 208.2813,1000.2188 Q207.9688,999.8906 207.4063,999.7031 Q206.8438,999.5 206.2813,999.5 Q205.5781,999.5 204.9844,999.7813 Q204.4063,1000.0625 203.9531,1000.6875 Q203.5,1001.3125 203.5,1002.1719 L203.5,1003.0938 Q203.5,1004.125 204.3438,1004.8125 Q205.1875,1005.5 206.6875,1005.5 Q207.5781,1005.5 208.2031,1005.2969 Q208.5625,1005.1875 208.9688,1004.8281 Q209.2344,1004.625 209.375,1004.5625 Q209.5156,1004.5 209.6875,1004.5 Q210.0156,1004.5 210.25,1004.7656 Q210.5,1005.0156 210.5,1005.375 Q210.5,1005.7188 210.1563,1006.125 Q209.6563,1006.7188 208.8594,1007.0469 Q207.8125,1007.5 206.5313,1007.5 Q205.0313,1007.5 203.8281,1006.9063 Q202.8594,1006.4375 202.1719,1005.4219 Q201.5,1004.4063 201.5,1003.2031 L201.5,1002.1094 Q201.5,1000.8594 202.0938,999.7656 Q202.7031,998.6719 203.75,998.0938 Q204.8125,997.5 206,997.5 Q206.7188,997.5 207.3438,997.75 Q207.9688,998 208.5,998.5 Z " fill="#000000"/><text fill="#000000" font-family="sans-serif" font-size="12" lengthAdjust="spacing" textLength="94" x="220.5" y="1006.9102">ParameterResult</text><line style="stroke:#A80036;stroke-width:1.5;" x1="192.5" x2="316.5" y1="1018" y2="1018"/><line style="stroke:#A80036;stroke-width:1.5;" x1="192.5" x2="316.5" y1="1026" y2="1026"/><!--MD5=[aeb3272166074d8737a70b61b1e71682]
class TestType--><rect codeLine="20" fill="#FEFECE" filter="url(#f5txs14im7s9k)" height="61.8359" id="TestType" style="stroke:#A80036;stroke-width:1.5;" width="82" x="18.5" y="133"/><ellipse cx="33.5" cy="149" fill="#ADD1B2" rx="11" ry="11" style="stroke:#A80036;stroke-width:1.0;"/><path d="M35.5,145.5 Q35.7031,145 35.9375,144.75 Q36.1719,144.5 36.4375,144.5 Q36.9063,144.5 37.2031,144.7813 Q37.5,145.0625 37.5,145.7188 L37.5,147.2813 Q37.5,147.9375 37.2188,148.2188 Q36.9375,148.5 36.5,148.5 Q36.1094,148.5 35.8594,148.3281 Q35.6094,148.1563 35.5,147.7031 Q35.4531,147.3906 35.2813,147.2188 Q34.9688,146.8906 34.4063,146.7031 Q33.8438,146.5 33.2813,146.5 Q32.5781,146.5 31.9844,146.7813 Q31.4063,147.0625 30.9531,147.6875 Q30.5,148.3125 30.5,149.1719 L30.5,150.0938 Q30.5,151.125 31.3438,151.8125 Q32.1875,152.5 33.6875,152.5 Q34.5781,152.5 35.2031,152.2969 Q35.5625,152.1875 35.9688,151.8281 Q36.2344,151.625 36.375,151.5625 Q36.5156,151.5 36.6875,151.5 Q37.0156,151.5 37.25,151.7656 Q37.5,152.0156 37.5,152.375 Q37.5,152.7188 37.1563,153.125 Q36.6563,153.7188 35.8594,154.0469 Q34.8125,154.5 33.5313,154.5 Q32.0313,154.5 30.8281,153.9063 Q29.8594,153.4375 29.1719,152.4219 Q28.5,151.4063 28.5,150.2031 L28.5,149.1094 Q28.5,147.8594 29.0938,146.7656 Q29.7031,145.6719 30.75,145.0938 Q31.8125,144.5 33,144.5 Q33.7188,144.5 34.3438,144.75 Q34.9688,145 35.5,145.5 Z " fill="#000000"/><text fill="#000000" font-family="sans-serif" font-size="12" lengthAdjust="spacing" textLength="50" x="47.5" y="153.9102">TestType</text><line style="stroke:#A80036;stroke-width:1.5;" x1="19.5" x2="99.5" y1="165" y2="165"/><text fill="#000000" font-family="sans-serif" font-size="11" lengthAdjust="spacing" textLength="59" x="24.5" y="180.4189">-designation</text><line style="stroke:#A80036;stroke-width:1.5;" x1="19.5" x2="99.5" y1="186.8359" y2="186.8359"/><!--MD5=[9681492165142af2a4a3a169d90ee8d4]
class Sample--><rect codeLine="23" fill="#FEFECE" filter="url(#f5txs14im7s9k)" height="89.5078" id="Sample" style="stroke:#A80036;stroke-width:1.5;" width="83" x="84" y="399"/><ellipse cx="102.6" cy="415" fill="#ADD1B2" rx="11" ry="11" style="stroke:#A80036;stroke-width:1.0;"/><path d="M104.6,411.5 Q104.8031,411 105.0375,410.75 Q105.2719,410.5 105.5375,410.5 Q106.0063,410.5 106.3031,410.7813 Q106.6,411.0625 106.6,411.7188 L106.6,413.2813 Q106.6,413.9375 106.3188,414.2188 Q106.0375,414.5 105.6,414.5 Q105.2094,414.5 104.9594,414.3281 Q104.7094,414.1563 104.6,413.7031 Q104.5531,413.3906 104.3813,413.2188 Q104.0688,412.8906 103.5063,412.7031 Q102.9438,412.5 102.3813,412.5 Q101.6781,412.5 101.0844,412.7813 Q100.5063,413.0625 100.0531,413.6875 Q99.6,414.3125 99.6,415.1719 L99.6,416.0938 Q99.6,417.125 100.4438,417.8125 Q101.2875,418.5 102.7875,418.5 Q103.6781,418.5 104.3031,418.2969 Q104.6625,418.1875 105.0688,417.8281 Q105.3344,417.625 105.475,417.5625 Q105.6156,417.5 105.7875,417.5 Q106.1156,417.5 106.35,417.7656 Q106.6,418.0156 106.6,418.375 Q106.6,418.7188 106.2563,419.125 Q105.7563,419.7188 104.9594,420.0469 Q103.9125,420.5 102.6313,420.5 Q101.1313,420.5 99.9281,419.9063 Q98.9594,419.4375 98.2719,418.4219 Q97.6,417.4063 97.6,416.2031 L97.6,415.1094 Q97.6,413.8594 98.1938,412.7656 Q98.8031,411.6719 99.85,411.0938 Q100.9125,410.5 102.1,410.5 Q102.8188,410.5 103.4438,410.75 Q104.0688,411 104.6,411.5 Z " fill="#000000"/><text fill="#000000" font-family="sans-serif" font-size="12" lengthAdjust="spacing" textLength="43" x="117.4" y="419.9102">Sample</text><line style="stroke:#A80036;stroke-width:1.5;" x1="85" x2="166" y1="431" y2="431"/><text fill="#000000" font-family="sans-serif" font-size="11" lengthAdjust="spacing" textLength="44" x="90" y="446.4189">-barcode</text><text fill="#000000" font-family="sans-serif" font-size="11" lengthAdjust="spacing" textLength="71" x="90" y="460.2549">-dateCollection</text><text fill="#000000" font-family="sans-serif" font-size="11" lengthAdjust="spacing" textLength="69" x="90" y="474.0908">-timeCollection</text><line style="stroke:#A80036;stroke-width:1.5;" x1="85" x2="166" y1="480.5078" y2="480.5078"/><!--MD5=[1e5329fc67d8218f135f70ba961513ea]
class SampleType--><rect codeLine="28" fill="#FEFECE" filter="url(#f5txs14im7s9k)" height="48" id="SampleType" style="stroke:#A80036;stroke-width:1.5;" width="101" x="149" y="273"/><ellipse cx="164" cy="289" fill="#ADD1B2" rx="11" ry="11" style="stroke:#A80036;stroke-width:1.0;"/><path d="M166,285.5 Q166.2031,285 166.4375,284.75 Q166.6719,284.5 166.9375,284.5 Q167.4063,284.5 167.7031,284.7813 Q168,285.0625 168,285.7188 L168,287.2813 Q168,287.9375 167.7188,288.2188 Q167.4375,288.5 167,288.5 Q166.6094,288.5 166.3594,288.3281 Q166.1094,288.1563 166,287.7031 Q165.9531,287.3906 165.7813,287.2188 Q165.4688,286.8906 164.9063,286.7031 Q164.3438,286.5 163.7813,286.5 Q163.0781,286.5 162.4844,286.7813 Q161.9063,287.0625 161.4531,287.6875 Q161,288.3125 161,289.1719 L161,290.0938 Q161,291.125 161.8438,291.8125 Q162.6875,292.5 164.1875,292.5 Q165.0781,292.5 165.7031,292.2969 Q166.0625,292.1875 166.4688,291.8281 Q166.7344,291.625 166.875,291.5625 Q167.0156,291.5 167.1875,291.5 Q167.5156,291.5 167.75,291.7656 Q168,292.0156 168,292.375 Q168,292.7188 167.6563,293.125 Q167.1563,293.7188 166.3594,294.0469 Q165.3125,294.5 164.0313,294.5 Q162.5313,294.5 161.3281,293.9063 Q160.3594,293.4375 159.6719,292.4219 Q159,291.4063 159,290.2031 L159,289.1094 Q159,287.8594 159.5938,286.7656 Q160.2031,285.6719 161.25,285.0938 Q162.3125,284.5 163.5,284.5 Q164.2188,284.5 164.8438,284.75 Q165.4688,285 166,285.5 Z " fill="#000000"/><text fill="#000000" font-family="sans-serif" font-size="12" lengthAdjust="spacing" textLength="69" x="178" y="293.9102">SampleType</text><line style="stroke:#A80036;stroke-width:1.5;" x1="150" x2="249" y1="305" y2="305"/><line style="stroke:#A80036;stroke-width:1.5;" x1="150" x2="249" y1="313" y2="313"/><!--MD5=[1f6362a5c8f21d8d6a0fce68f3a92a4e]
class Parameter--><rect codeLine="29" fill="#FEFECE" filter="url(#f5txs14im7s9k)" height="89.5078" id="Parameter" style="stroke:#A80036;stroke-width:1.5;" width="123" x="193" y="818"/><ellipse cx="222.85" cy="834" fill="#ADD1B2" rx="11" ry="11" style="stroke:#A80036;stroke-width:1.0;"/><path d="M224.85,830.5 Q225.0531,830 225.2875,829.75 Q225.5219,829.5 225.7875,829.5 Q226.2563,829.5 226.5531,829.7813 Q226.85,830.0625 226.85,830.7188 L226.85,832.2813 Q226.85,832.9375 226.5688,833.2188 Q226.2875,833.5 225.85,833.5 Q225.4594,833.5 225.2094,833.3281 Q224.9594,833.1563 224.85,832.7031 Q224.8031,832.3906 224.6313,832.2188 Q224.3188,831.8906 223.7563,831.7031 Q223.1938,831.5 222.6313,831.5 Q221.9281,831.5 221.3344,831.7813 Q220.7563,832.0625 220.3031,832.6875 Q219.85,833.3125 219.85,834.1719 L219.85,835.0938 Q219.85,836.125 220.6938,836.8125 Q221.5375,837.5 223.0375,837.5 Q223.9281,837.5 224.5531,837.2969 Q224.9125,837.1875 225.3188,836.8281 Q225.5844,836.625 225.725,836.5625 Q225.8656,836.5 226.0375,836.5 Q226.3656,836.5 226.6,836.7656 Q226.85,837.0156 226.85,837.375 Q226.85,837.7188 226.5063,838.125 Q226.0063,838.7188 225.2094,839.0469 Q224.1625,839.5 222.8813,839.5 Q221.3813,839.5 220.1781,838.9063 Q219.2094,838.4375 218.5219,837.4219 Q217.85,836.4063 217.85,835.2031 L217.85,834.1094 Q217.85,832.8594 218.4438,831.7656 Q219.0531,830.6719 220.1,830.0938 Q221.1625,829.5 222.35,829.5 Q223.0688,829.5 223.6938,829.75 Q224.3188,830 224.85,830.5 Z " fill="#000000"/><text fill="#000000" font-family="sans-serif" font-size="12" lengthAdjust="spacing" textLength="58" x="240.15" y="838.9102">Parameter</text><line style="stroke:#A80036;stroke-width:1.5;" x1="194" x2="315" y1="850" y2="850"/><text fill="#000000" font-family="sans-serif" font-size="11" lengthAdjust="spacing" textLength="59" x="199" y="865.4189">-designation</text><text fill="#000000" font-family="sans-serif" font-size="11" lengthAdjust="spacing" textLength="111" x="199" y="879.2549">-upperReferenceValue</text><text fill="#000000" font-family="sans-serif" font-size="11" lengthAdjust="spacing" textLength="111" x="199" y="893.0908">-lowerReferenceValue</text><line style="stroke:#A80036;stroke-width:1.5;" x1="194" x2="315" y1="899.5078" y2="899.5078"/><!--MD5=[1ae83efc6d1967ce5bc17dfe294d00c2]
link Sample to Test--><path codeLine="35" d="M156.11,489.12 C161.23,498.59 165.76,508.81 168.5,519 C172.68,534.5 172.27,551.03 169.39,566.99 " fill="none" id="Sample-Test" style="stroke:#A80036;stroke-width:1.0;"/><polygon fill="#000000" points="177.3406,533.1046,178.7171,523.6942,172.9229,524.6823,177.3406,533.1046" style="stroke:#000000;stroke-width:1.0;"/><text fill="#000000" font-family="sans-serif" font-size="13" lengthAdjust="spacing" textLength="78" x="185.5" y="533.4951">associated to</text><text fill="#000000" font-family="sans-serif" font-size="13" lengthAdjust="spacing" textLength="5" x="155.063" y="510.1444">*</text><text fill="#000000" font-family="sans-serif" font-size="13" lengthAdjust="spacing" textLength="7" x="165.2747" y="556.1047">1</text><!--MD5=[b72ac8ab7fb5921fceb5036a3902baea]
link Test to Sample--><path codeLine="39" d="M101.73,566.74 C98.9,550.95 97.94,534.55 100.5,519 C102.13,509.1 104.9,498.74 108.03,489.01 " fill="none" id="Test-Sample" style="stroke:#A80036;stroke-width:1.0;"/><polygon fill="#000000" points="105.9039,523.1921,102.2439,531.9702,108.1025,532.4451,105.9039,523.1921" style="stroke:#000000;stroke-width:1.0;"/><text fill="#000000" font-family="sans-serif" font-size="13" lengthAdjust="spacing" textLength="45" x="114.5" y="533.4951">collects</text><text fill="#000000" font-family="sans-serif" font-size="13" lengthAdjust="spacing" textLength="7" x="91.699" y="556.1273">1</text><text fill="#000000" font-family="sans-serif" font-size="13" lengthAdjust="spacing" textLength="5" x="100.2217" y="510.019">*</text><!--MD5=[25a58075d12b4e24c3095e04bee16a0d]
link SampleType to Sample--><path codeLine="36" d="M187.61,321.3 C176.95,342.19 161.02,373.41 147.96,399 " fill="none" id="SampleType-Sample" style="stroke:#A80036;stroke-width:1.0;"/><polygon fill="#000000" points="178.7727,355.7221,172.0436,362.443,177.2792,365.1147,178.7727,355.7221" style="stroke:#000000;stroke-width:1.0;"/><text fill="#000000" font-family="sans-serif" font-size="13" lengthAdjust="spacing" textLength="24" x="185.5" y="365.4951">is of</text><text fill="#000000" font-family="sans-serif" font-size="13" lengthAdjust="spacing" textLength="7" x="177.0511" y="342.3051">1</text><text fill="#000000" font-family="sans-serif" font-size="13" lengthAdjust="spacing" textLength="7" x="143.9818" y="388.1155">1</text><!--MD5=[c23963f6e403fc3ebec8dae22c30ade6]
link Test to Parameter--><path codeLine="37" d="M175.65,726.78 C193.31,757.08 213.29,791.32 228.71,817.77 " fill="none" id="Test-Parameter" style="stroke:#A80036;stroke-width:1.0;"/><polygon fill="#000000" points="216.0187,783.495,214.0011,774.201,208.9235,777.1619,216.0187,783.495" style="stroke:#000000;stroke-width:1.0;"/><text fill="#000000" font-family="sans-serif" font-size="13" lengthAdjust="spacing" textLength="116" x="222.5" y="784.4951">requests analysis of</text><text fill="#000000" font-family="sans-serif" font-size="13" lengthAdjust="spacing" textLength="5" x="183.6033" y="735.9769">*</text><text fill="#000000" font-family="sans-serif" font-size="13" lengthAdjust="spacing" textLength="20" x="203.2297" y="807.1789">1..*</text><!--MD5=[e981d4f96c4342412d1e68160b30cf70]
link Test to TestType--><path codeLine="38" d="M91.57,566.98 C81.42,542.38 71.94,515.13 66.5,489 C44.43,382.97 51.59,253.2 56.5,195.34 " fill="none" id="Test-TestType" style="stroke:#A80036;stroke-width:1.0;"/><polygon fill="#000000" points="57.0303,355.1979,54.9541,364.4791,60.806,363.9269,57.0303,355.1979" style="stroke:#000000;stroke-width:1.0;"/><text fill="#000000" font-family="sans-serif" font-size="13" lengthAdjust="spacing" textLength="24" x="66.5" y="365.4951">is of</text><text fill="#000000" font-family="sans-serif" font-size="13" lengthAdjust="spacing" textLength="5" x="82.613" y="556.0938">*</text><text fill="#000000" font-family="sans-serif" font-size="13" lengthAdjust="spacing" textLength="7" x="48.2609" y="216.3835">1</text><!--MD5=[71159b3869b6d7a411768e18bcaa697a]
link Administrator to TestType--><path codeLine="40" d="M59.5,55.12 C59.5,76.71 59.5,109.08 59.5,132.73 " fill="none" id="Administrator-TestType" style="stroke:#A80036;stroke-width:1.0;"/><polygon fill="#000000" points="64.5,89.1758,61.5611,98.2209,67.4389,98.2209,64.5,89.1758" style="stroke:#000000;stroke-width:1.0;"/><text fill="#000000" font-family="sans-serif" font-size="13" lengthAdjust="spacing" textLength="61" x="73.5" y="99.4951">created by</text><text fill="#000000" font-family="sans-serif" font-size="13" lengthAdjust="spacing" textLength="7" x="51.6469" y="76.4872">1</text><text fill="#000000" font-family="sans-serif" font-size="13" lengthAdjust="spacing" textLength="5" x="53.9844" y="122.1789">*</text><!--MD5=[0e983f4860443f76db36d54e7f3ee406]
link SampleType to CollectionMethod--><path codeLine="41" d="M210.1,321.3 C221.44,346.19 239.44,385.75 251.83,412.97 " fill="none" id="SampleType-CollectionMethod" style="stroke:#A80036;stroke-width:1.0;"/><polygon fill="#000000" points="238.5716,364.7265,237.4989,355.2766,232.1493,357.7118,238.5716,364.7265" style="stroke:#000000;stroke-width:1.0;"/><text fill="#000000" font-family="sans-serif" font-size="13" lengthAdjust="spacing" textLength="32" x="245.5" y="365.4951">has a</text><text fill="#000000" font-family="sans-serif" font-size="13" lengthAdjust="spacing" textLength="7" x="204.7419" y="342.3051">1</text><text fill="#000000" font-family="sans-serif" font-size="13" lengthAdjust="spacing" textLength="20" x="226.6522" y="401.9837">1..*</text><!--MD5=[fad268cf36467d81af96a093622bdd90]
link TestType to SampleType--><path codeLine="42" d="M91.62,195.05 C116.81,218.62 151.36,250.95 174.51,272.61 " fill="none" id="TestType-SampleType" style="stroke:#A80036;stroke-width:1.0;"/><polygon fill="#000000" points="151.151,237.592,146.5543,229.266,142.5383,233.558,151.151,237.592" style="stroke:#000000;stroke-width:1.0;"/><text fill="#000000" font-family="sans-serif" font-size="13" lengthAdjust="spacing" textLength="78" x="156.5" y="239.4951">associated to</text><text fill="#000000" font-family="sans-serif" font-size="13" lengthAdjust="spacing" textLength="7" x="90.2546" y="216.2838">1</text><text fill="#000000" font-family="sans-serif" font-size="13" lengthAdjust="spacing" textLength="7" x="160.5656" y="262.2529">1</text><!--MD5=[6c119b5ec4c1d4dc709da51882c498c4]
link SampleType to Parameter--><path codeLine="43" d="M250.36,317.03 C284.87,333.03 327.53,359.68 346.5,399 C421.6,554.72 422.6,632.27 347.5,788 C340.42,802.68 328.85,815.35 316.24,825.85 " fill="none" id="SampleType-Parameter" style="stroke:#A80036;stroke-width:1.0;"/><polygon fill="#000000" points="402.142,533.1344,403.8952,523.7868,398.066,524.5416,402.142,533.1344" style="stroke:#000000;stroke-width:1.0;"/><text fill="#000000" font-family="sans-serif" font-size="13" lengthAdjust="spacing" textLength="21" x="410.5" y="533.4951">has</text><text fill="#000000" font-family="sans-serif" font-size="13" lengthAdjust="spacing" textLength="7" x="258.0044" y="316.2416">1</text><text fill="#000000" font-family="sans-serif" font-size="13" lengthAdjust="spacing" textLength="7" x="324.1911" y="817.8939">1</text><!--MD5=[7e7596d8fdec7904c76586433be2b41c]
link Parameter to ParameterResult--><path codeLine="44" d="M254.5,908.29 C254.5,933.94 254.5,965.18 254.5,985.99 " fill="none" id="Parameter-ParameterResult" style="stroke:#A80036;stroke-width:1.0;"/><polygon fill="#000000" points="259.5,952.1758,262.4389,943.1307,256.5611,943.1307,259.5,952.1758" style="stroke:#000000;stroke-width:1.0;"/><text fill="#000000" font-family="sans-serif" font-size="13" lengthAdjust="spacing" textLength="21" x="268.5" y="952.4951">has</text><text fill="#000000" font-family="sans-serif" font-size="13" lengthAdjust="spacing" textLength="7" x="247.0297" y="929.0027">1</text><text fill="#000000" font-family="sans-serif" font-size="13" lengthAdjust="spacing" textLength="7" x="246.6031" y="975.3276">1</text><!--MD5=[86ce68d264b9cd94002ace6ca5fbc104]
@startuml
skinparam classAttributeIconSize 0

class Administrator
class CollectionMethod {
-description
}

class Test {
-internalCode
-nhsCode
-createdAt
-dateAnalysis
-timeAnalysis
-dateDiagnosis
-timeDiagnosis
-dateValidation
-timeValidation
}
class ParameterResult
class TestType {
-designation
}
class Sample {
-barcode
-dateCollection
-timeCollection
}
class SampleType
class Parameter {
-designation
-upperReferenceValue
-lowerReferenceValue
}

Sample "*"- -"1" Test : associated to >
SampleType "1"- -"1" Sample  : is of <
Test "*"-down-"1..*" Parameter : requests analysis of >
Test "*"-down-"1" TestType : is of >
Test "1"-down-"*" Sample : collects >
TestType "*"-up-"1" Administrator : created by >
SampleType "1"- -"1..*" CollectionMethod : has a >
SampleType "1"-up-"1" TestType  : associated to <
SampleType "1"-down-"1" Parameter : has >
Parameter "1"-down-"1" ParameterResult : has >
@enduml

PlantUML version 1.2021.4(Sun Apr 04 09:49:39 BST 2021)
(GPL source distribution)
Java Runtime: OpenJDK Runtime Environment
JVM: OpenJDK 64-Bit Server VM
Default Encoding: Cp1252
Language: pt
Country: PT
--></g></svg>