<?xml version="1.0" encoding="UTF-8" standalone="no"?><svg xmlns="http://www.w3.org/2000/svg" xmlns:xlink="http://www.w3.org/1999/xlink" contentScriptType="application/ecmascript" contentStyleType="text/css" height="1091px" preserveAspectRatio="none" style="width:572px;height:1091px;" version="1.1" viewBox="0 0 572 1091" width="572px" zoomAndPan="magnify"><defs><filter height="300%" id="fsfgevetphkvj" width="300%" x="-1" y="-1"><feGaussianBlur result="blurOut" stdDeviation="2.0"/><feColorMatrix in="blurOut" result="blurOut2" type="matrix" values="0 0 0 0 0 0 0 0 0 0 0 0 0 0 0 0 0 0 .4 0"/><feOffset dx="4.0" dy="4.0" in="blurOut2" result="blurOut3"/><feBlend in="SourceGraphic" in2="blurOut3" mode="normal"/></filter></defs><g><!--MD5=[da547346deef918ea16944ba046651ef]
class Administrator--><rect codeLine="4" fill="#FEFECE" filter="url(#fsfgevetphkvj)" height="48" id="Administrator" style="stroke:#A80036;stroke-width:1.5;" width="105" x="248" y="7"/><ellipse cx="263" cy="23" fill="#ADD1B2" rx="11" ry="11" style="stroke:#A80036;stroke-width:1.0;"/><path d="M265,19.5 Q265.2031,19 265.4375,18.75 Q265.6719,18.5 265.9375,18.5 Q266.4063,18.5 266.7031,18.7813 Q267,19.0625 267,19.7188 L267,21.2813 Q267,21.9375 266.7188,22.2188 Q266.4375,22.5 266,22.5 Q265.6094,22.5 265.3594,22.3281 Q265.1094,22.1563 265,21.7031 Q264.9531,21.3906 264.7813,21.2188 Q264.4688,20.8906 263.9063,20.7031 Q263.3438,20.5 262.7813,20.5 Q262.0781,20.5 261.4844,20.7813 Q260.9063,21.0625 260.4531,21.6875 Q260,22.3125 260,23.1719 L260,24.0938 Q260,25.125 260.8438,25.8125 Q261.6875,26.5 263.1875,26.5 Q264.0781,26.5 264.7031,26.2969 Q265.0625,26.1875 265.4688,25.8281 Q265.7344,25.625 265.875,25.5625 Q266.0156,25.5 266.1875,25.5 Q266.5156,25.5 266.75,25.7656 Q267,26.0156 267,26.375 Q267,26.7188 266.6563,27.125 Q266.1563,27.7188 265.3594,28.0469 Q264.3125,28.5 263.0313,28.5 Q261.5313,28.5 260.3281,27.9063 Q259.3594,27.4375 258.6719,26.4219 Q258,25.4063 258,24.2031 L258,23.1094 Q258,21.8594 258.5938,20.7656 Q259.2031,19.6719 260.25,19.0938 Q261.3125,18.5 262.5,18.5 Q263.2188,18.5 263.8438,18.75 Q264.4688,19 265,19.5 Z " fill="#000000"/><text fill="#000000" font-family="sans-serif" font-size="12" lengthAdjust="spacing" textLength="73" x="277" y="27.9102">Administrator</text><line style="stroke:#A80036;stroke-width:1.5;" x1="249" x2="352" y1="39" y2="39"/><line style="stroke:#A80036;stroke-width:1.5;" x1="249" x2="352" y1="47" y2="47"/><!--MD5=[bebdcc43ebcb1534ee764d1f430c03ae]
class CreateTestTypeUI--><rect codeLine="5" fill="#FEFECE" filter="url(#fsfgevetphkvj)" height="144.8516" id="CreateTestTypeUI" style="stroke:#A80036;stroke-width:1.5;" width="183" x="124" y="116"/><ellipse cx="162.4" cy="132" fill="#ADD1B2" rx="11" ry="11" style="stroke:#A80036;stroke-width:1.0;"/><path d="M164.4,128.5 Q164.6031,128 164.8375,127.75 Q165.0719,127.5 165.3375,127.5 Q165.8063,127.5 166.1031,127.7813 Q166.4,128.0625 166.4,128.7188 L166.4,130.2813 Q166.4,130.9375 166.1188,131.2188 Q165.8375,131.5 165.4,131.5 Q165.0094,131.5 164.7594,131.3281 Q164.5094,131.1563 164.4,130.7031 Q164.3531,130.3906 164.1813,130.2188 Q163.8688,129.8906 163.3063,129.7031 Q162.7438,129.5 162.1813,129.5 Q161.4781,129.5 160.8844,129.7813 Q160.3063,130.0625 159.8531,130.6875 Q159.4,131.3125 159.4,132.1719 L159.4,133.0938 Q159.4,134.125 160.2438,134.8125 Q161.0875,135.5 162.5875,135.5 Q163.4781,135.5 164.1031,135.2969 Q164.4625,135.1875 164.8688,134.8281 Q165.1344,134.625 165.275,134.5625 Q165.4156,134.5 165.5875,134.5 Q165.9156,134.5 166.15,134.7656 Q166.4,135.0156 166.4,135.375 Q166.4,135.7188 166.0563,136.125 Q165.5563,136.7188 164.7594,137.0469 Q163.7125,137.5 162.4313,137.5 Q160.9313,137.5 159.7281,136.9063 Q158.7594,136.4375 158.0719,135.4219 Q157.4,134.4063 157.4,133.2031 L157.4,132.1094 Q157.4,130.8594 157.9938,129.7656 Q158.6031,128.6719 159.65,128.0938 Q160.7125,127.5 161.9,127.5 Q162.6188,127.5 163.2438,127.75 Q163.8688,128 164.4,128.5 Z " fill="#000000"/><text fill="#000000" font-family="sans-serif" font-size="12" lengthAdjust="spacing" textLength="99" x="181.6" y="136.9102">CreateTestTypeUI</text><line style="stroke:#A80036;stroke-width:1.5;" x1="125" x2="306" y1="148" y2="148"/><line style="stroke:#A80036;stroke-width:1.5;" x1="125" x2="306" y1="156" y2="156"/><text fill="#000000" font-family="sans-serif" font-size="11" lengthAdjust="spacing" textLength="90" x="130" y="171.4189">+createTestType()</text><text fill="#000000" font-family="sans-serif" font-size="11" lengthAdjust="spacing" textLength="126" x="130" y="185.2549">+createCollectionMethod()</text><text fill="#000000" font-family="sans-serif" font-size="11" lengthAdjust="spacing" textLength="171" x="130" y="199.0908">+setDesignation(String designation)</text><text fill="#000000" font-family="sans-serif" font-size="11" lengthAdjust="spacing" textLength="167" x="130" y="212.9268">+setDescription(String description)</text><text fill="#000000" font-family="sans-serif" font-size="11" lengthAdjust="spacing" textLength="109" x="130" y="226.7627">+displayCategoryList()</text><text fill="#000000" font-family="sans-serif" font-size="11" lengthAdjust="spacing" textLength="81" x="130" y="240.5986">+setCategories()</text><text fill="#000000" font-family="sans-serif" font-size="11" lengthAdjust="spacing" textLength="83" x="130" y="254.4346">+saveTestType()</text><!--MD5=[2c845ebea24388d268f5a9acbeca4fd9]
class CreateTestTypeController--><rect codeLine="14" fill="#FEFECE" filter="url(#fsfgevetphkvj)" height="158.6875" id="CreateTestTypeController" style="stroke:#A80036;stroke-width:1.5;" width="277" x="18" y="322"/><ellipse cx="81.75" cy="338" fill="#ADD1B2" rx="11" ry="11" style="stroke:#A80036;stroke-width:1.0;"/><path d="M83.75,334.5 Q83.9531,334 84.1875,333.75 Q84.4219,333.5 84.6875,333.5 Q85.1563,333.5 85.4531,333.7813 Q85.75,334.0625 85.75,334.7188 L85.75,336.2813 Q85.75,336.9375 85.4688,337.2188 Q85.1875,337.5 84.75,337.5 Q84.3594,337.5 84.1094,337.3281 Q83.8594,337.1563 83.75,336.7031 Q83.7031,336.3906 83.5313,336.2188 Q83.2188,335.8906 82.6563,335.7031 Q82.0938,335.5 81.5313,335.5 Q80.8281,335.5 80.2344,335.7813 Q79.6563,336.0625 79.2031,336.6875 Q78.75,337.3125 78.75,338.1719 L78.75,339.0938 Q78.75,340.125 79.5938,340.8125 Q80.4375,341.5 81.9375,341.5 Q82.8281,341.5 83.4531,341.2969 Q83.8125,341.1875 84.2188,340.8281 Q84.4844,340.625 84.625,340.5625 Q84.7656,340.5 84.9375,340.5 Q85.2656,340.5 85.5,340.7656 Q85.75,341.0156 85.75,341.375 Q85.75,341.7188 85.4063,342.125 Q84.9063,342.7188 84.1094,343.0469 Q83.0625,343.5 81.7813,343.5 Q80.2813,343.5 79.0781,342.9063 Q78.1094,342.4375 77.4219,341.4219 Q76.75,340.4063 76.75,339.2031 L76.75,338.1094 Q76.75,336.8594 77.3438,335.7656 Q77.9531,334.6719 79,334.0938 Q80.0625,333.5 81.25,333.5 Q81.9688,333.5 82.5938,333.75 Q83.2188,334 83.75,334.5 Z " fill="#000000"/><text fill="#000000" font-family="sans-serif" font-size="12" lengthAdjust="spacing" textLength="141" x="102.25" y="342.9102">CreateTestTypeController</text><line style="stroke:#A80036;stroke-width:1.5;" x1="19" x2="294" y1="354" y2="354"/><line style="stroke:#A80036;stroke-width:1.5;" x1="19" x2="294" y1="362" y2="362"/><text fill="#000000" font-family="sans-serif" font-size="11" lengthAdjust="spacing" textLength="90" x="24" y="377.4189">+createTestType()</text><text fill="#000000" font-family="sans-serif" font-size="11" lengthAdjust="spacing" textLength="126" x="24" y="391.2549">+createCollectionMethod()</text><text fill="#000000" font-family="sans-serif" font-size="11" lengthAdjust="spacing" textLength="171" x="24" y="405.0908">+setDesignation(String designation)</text><text fill="#000000" font-family="sans-serif" font-size="11" lengthAdjust="spacing" textLength="194" x="24" y="418.9268">+setCollectionMethod(String description)</text><text fill="#000000" font-family="sans-serif" font-size="11" lengthAdjust="spacing" textLength="265" x="24" y="432.7627">+setCollectionMethodToTestType(CollectionMethod cm)</text><text fill="#000000" font-family="sans-serif" font-size="11" lengthAdjust="spacing" textLength="83" x="24" y="446.5986">+saveTestType()</text><text fill="#000000" font-family="sans-serif" font-size="11" lengthAdjust="spacing" textLength="109" x="24" y="460.4346">+displayCategoryList()</text><text fill="#000000" font-family="sans-serif" font-size="11" lengthAdjust="spacing" textLength="178" x="24" y="474.2705">+setCategoriesToTestType(int index)</text><!--MD5=[ec908970c524777c08fd0d8397a1f7bf]
class CollectionMethod--><rect codeLine="24" fill="#FEFECE" filter="url(#fsfgevetphkvj)" height="89.5078" id="CollectionMethod" style="stroke:#A80036;stroke-width:1.5;" width="179" x="7" y="980.5"/><ellipse cx="45.4" cy="996.5" fill="#ADD1B2" rx="11" ry="11" style="stroke:#A80036;stroke-width:1.0;"/><path d="M47.4,993 Q47.6031,992.5 47.8375,992.25 Q48.0719,992 48.3375,992 Q48.8063,992 49.1031,992.2813 Q49.4,992.5625 49.4,993.2188 L49.4,994.7813 Q49.4,995.4375 49.1188,995.7188 Q48.8375,996 48.4,996 Q48.0094,996 47.7594,995.8281 Q47.5094,995.6563 47.4,995.2031 Q47.3531,994.8906 47.1813,994.7188 Q46.8688,994.3906 46.3063,994.2031 Q45.7438,994 45.1813,994 Q44.4781,994 43.8844,994.2813 Q43.3063,994.5625 42.8531,995.1875 Q42.4,995.8125 42.4,996.6719 L42.4,997.5938 Q42.4,998.625 43.2438,999.3125 Q44.0875,1000 45.5875,1000 Q46.4781,1000 47.1031,999.7969 Q47.4625,999.6875 47.8688,999.3281 Q48.1344,999.125 48.275,999.0625 Q48.4156,999 48.5875,999 Q48.9156,999 49.15,999.2656 Q49.4,999.5156 49.4,999.875 Q49.4,1000.2188 49.0563,1000.625 Q48.5563,1001.2188 47.7594,1001.5469 Q46.7125,1002 45.4313,1002 Q43.9313,1002 42.7281,1001.4063 Q41.7594,1000.9375 41.0719,999.9219 Q40.4,998.9063 40.4,997.7031 L40.4,996.6094 Q40.4,995.3594 40.9938,994.2656 Q41.6031,993.1719 42.65,992.5938 Q43.7125,992 44.9,992 Q45.6188,992 46.2438,992.25 Q46.8688,992.5 47.4,993 Z " fill="#000000"/><text fill="#000000" font-family="sans-serif" font-size="12" lengthAdjust="spacing" textLength="95" x="64.6" y="1001.4102">CollectionMethod</text><line style="stroke:#A80036;stroke-width:1.5;" x1="8" x2="185" y1="1012.5" y2="1012.5"/><text fill="#000000" font-family="sans-serif" font-size="11" lengthAdjust="spacing" textLength="88" x="13" y="1027.9189">-String description</text><line style="stroke:#A80036;stroke-width:1.5;" x1="8" x2="185" y1="1034.3359" y2="1034.3359"/><text fill="#000000" font-family="sans-serif" font-size="11" lengthAdjust="spacing" textLength="167" x="13" y="1049.7549">+setDescription(String description)</text><text fill="#000000" font-family="sans-serif" font-size="11" lengthAdjust="spacing" textLength="83" x="13" y="1063.5908">+getDescription()</text><!--MD5=[aeb3272166074d8737a70b61b1e71682]
class TestType--><rect codeLine="30" fill="#FEFECE" filter="url(#fsfgevetphkvj)" height="172.5234" id="TestType" style="stroke:#A80036;stroke-width:1.5;" width="286" x="272.5" y="723"/><ellipse cx="386.25" cy="739" fill="#ADD1B2" rx="11" ry="11" style="stroke:#A80036;stroke-width:1.0;"/><path d="M388.25,735.5 Q388.4531,735 388.6875,734.75 Q388.9219,734.5 389.1875,734.5 Q389.6563,734.5 389.9531,734.7813 Q390.25,735.0625 390.25,735.7188 L390.25,737.2813 Q390.25,737.9375 389.9688,738.2188 Q389.6875,738.5 389.25,738.5 Q388.8594,738.5 388.6094,738.3281 Q388.3594,738.1563 388.25,737.7031 Q388.2031,737.3906 388.0313,737.2188 Q387.7188,736.8906 387.1563,736.7031 Q386.5938,736.5 386.0313,736.5 Q385.3281,736.5 384.7344,736.7813 Q384.1563,737.0625 383.7031,737.6875 Q383.25,738.3125 383.25,739.1719 L383.25,740.0938 Q383.25,741.125 384.0938,741.8125 Q384.9375,742.5 386.4375,742.5 Q387.3281,742.5 387.9531,742.2969 Q388.3125,742.1875 388.7188,741.8281 Q388.9844,741.625 389.125,741.5625 Q389.2656,741.5 389.4375,741.5 Q389.7656,741.5 390,741.7656 Q390.25,742.0156 390.25,742.375 Q390.25,742.7188 389.9063,743.125 Q389.4063,743.7188 388.6094,744.0469 Q387.5625,744.5 386.2813,744.5 Q384.7813,744.5 383.5781,743.9063 Q382.6094,743.4375 381.9219,742.4219 Q381.25,741.4063 381.25,740.2031 L381.25,739.1094 Q381.25,737.8594 381.8438,736.7656 Q382.4531,735.6719 383.5,735.0938 Q384.5625,734.5 385.75,734.5 Q386.4688,734.5 387.0938,734.75 Q387.7188,735 388.25,735.5 Z " fill="#000000"/><text fill="#000000" font-family="sans-serif" font-size="12" lengthAdjust="spacing" textLength="50" x="406.75" y="743.9102">TestType</text><line style="stroke:#A80036;stroke-width:1.5;" x1="273.5" x2="557.5" y1="755" y2="755"/><text fill="#000000" font-family="sans-serif" font-size="11" lengthAdjust="spacing" textLength="90" x="278.5" y="770.4189">-String designation</text><text fill="#000000" font-family="sans-serif" font-size="11" lengthAdjust="spacing" textLength="168" x="278.5" y="784.2549">-CollectionMethod collectionMethod</text><text fill="#000000" font-family="sans-serif" font-size="11" lengthAdjust="spacing" textLength="155" x="278.5" y="798.0908">-Arraylist&lt;Category&gt; categories</text><line style="stroke:#A80036;stroke-width:1.5;" x1="273.5" x2="557.5" y1="804.5078" y2="804.5078"/><text fill="#000000" font-family="sans-serif" font-size="11" lengthAdjust="spacing" textLength="171" x="278.5" y="819.9268">+setDesignation(String designation)</text><text fill="#000000" font-family="sans-serif" font-size="11" lengthAdjust="spacing" textLength="274" x="278.5" y="833.7627">+setCollectionMethod(CollectionMethod collectionMethod)</text><text fill="#000000" font-family="sans-serif" font-size="11" lengthAdjust="spacing" textLength="163" x="278.5" y="847.5986">+setCategory(Category category)</text><text fill="#000000" font-family="sans-serif" font-size="11" lengthAdjust="spacing" textLength="85" x="278.5" y="861.4346">+getDesignation()</text><text fill="#000000" font-family="sans-serif" font-size="11" lengthAdjust="spacing" textLength="110" x="278.5" y="875.2705">+getCollectionMethod()</text><text fill="#000000" font-family="sans-serif" font-size="11" lengthAdjust="spacing" textLength="81" x="278.5" y="889.1064">+getCategories()</text><!--MD5=[a96594a83e2ecdc78cbf17c2ddf01934]
class Category--><rect codeLine="41" fill="#FEFECE" filter="url(#fsfgevetphkvj)" height="103.3438" id="Category" style="stroke:#A80036;stroke-width:1.5;" width="204" x="313.5" y="974"/><ellipse cx="386.75" cy="990" fill="#ADD1B2" rx="11" ry="11" style="stroke:#A80036;stroke-width:1.0;"/><path d="M388.75,986.5 Q388.9531,986 389.1875,985.75 Q389.4219,985.5 389.6875,985.5 Q390.1563,985.5 390.4531,985.7813 Q390.75,986.0625 390.75,986.7188 L390.75,988.2813 Q390.75,988.9375 390.4688,989.2188 Q390.1875,989.5 389.75,989.5 Q389.3594,989.5 389.1094,989.3281 Q388.8594,989.1563 388.75,988.7031 Q388.7031,988.3906 388.5313,988.2188 Q388.2188,987.8906 387.6563,987.7031 Q387.0938,987.5 386.5313,987.5 Q385.8281,987.5 385.2344,987.7813 Q384.6563,988.0625 384.2031,988.6875 Q383.75,989.3125 383.75,990.1719 L383.75,991.0938 Q383.75,992.125 384.5938,992.8125 Q385.4375,993.5 386.9375,993.5 Q387.8281,993.5 388.4531,993.2969 Q388.8125,993.1875 389.2188,992.8281 Q389.4844,992.625 389.625,992.5625 Q389.7656,992.5 389.9375,992.5 Q390.2656,992.5 390.5,992.7656 Q390.75,993.0156 390.75,993.375 Q390.75,993.7188 390.4063,994.125 Q389.9063,994.7188 389.1094,995.0469 Q388.0625,995.5 386.7813,995.5 Q385.2813,995.5 384.0781,994.9063 Q383.1094,994.4375 382.4219,993.4219 Q381.75,992.4063 381.75,991.2031 L381.75,990.1094 Q381.75,988.8594 382.3438,987.7656 Q382.9531,986.6719 384,986.0938 Q385.0625,985.5 386.25,985.5 Q386.9688,985.5 387.5938,985.75 Q388.2188,986 388.75,986.5 Z " fill="#000000"/><text fill="#000000" font-family="sans-serif" font-size="12" lengthAdjust="spacing" textLength="49" x="407.25" y="994.9102">Category</text><line style="stroke:#A80036;stroke-width:1.5;" x1="314.5" x2="516.5" y1="1006" y2="1006"/><text fill="#000000" font-family="sans-serif" font-size="11" lengthAdjust="spacing" textLength="59" x="319.5" y="1021.4189">-String code</text><text fill="#000000" font-family="sans-serif" font-size="11" lengthAdjust="spacing" textLength="88" x="319.5" y="1035.2549">-String description</text><text fill="#000000" font-family="sans-serif" font-size="11" lengthAdjust="spacing" textLength="62" x="319.5" y="1049.0908">-String nhsID</text><line style="stroke:#A80036;stroke-width:1.5;" x1="314.5" x2="516.5" y1="1055.5078" y2="1055.5078"/><text fill="#000000" font-family="sans-serif" font-size="11" lengthAdjust="spacing" textLength="192" x="319.5" y="1070.9268">+addCategoriesToTestType(categories)</text><!--MD5=[02e4b9b7573f1156f41e60aa5b4e25a4]
class Company--><rect codeLine="47" fill="#FEFECE" filter="url(#fsfgevetphkvj)" height="103.3438" id="Company" style="stroke:#A80036;stroke-width:1.5;" width="112" x="188.5" y="542"/><ellipse cx="215.65" cy="558" fill="#ADD1B2" rx="11" ry="11" style="stroke:#A80036;stroke-width:1.0;"/><path d="M217.65,554.5 Q217.8531,554 218.0875,553.75 Q218.3219,553.5 218.5875,553.5 Q219.0563,553.5 219.3531,553.7813 Q219.65,554.0625 219.65,554.7188 L219.65,556.2813 Q219.65,556.9375 219.3688,557.2188 Q219.0875,557.5 218.65,557.5 Q218.2594,557.5 218.0094,557.3281 Q217.7594,557.1563 217.65,556.7031 Q217.6031,556.3906 217.4313,556.2188 Q217.1188,555.8906 216.5563,555.7031 Q215.9938,555.5 215.4313,555.5 Q214.7281,555.5 214.1344,555.7813 Q213.5563,556.0625 213.1031,556.6875 Q212.65,557.3125 212.65,558.1719 L212.65,559.0938 Q212.65,560.125 213.4938,560.8125 Q214.3375,561.5 215.8375,561.5 Q216.7281,561.5 217.3531,561.2969 Q217.7125,561.1875 218.1188,560.8281 Q218.3844,560.625 218.525,560.5625 Q218.6656,560.5 218.8375,560.5 Q219.1656,560.5 219.4,560.7656 Q219.65,561.0156 219.65,561.375 Q219.65,561.7188 219.3063,562.125 Q218.8063,562.7188 218.0094,563.0469 Q216.9625,563.5 215.6813,563.5 Q214.1813,563.5 212.9781,562.9063 Q212.0094,562.4375 211.3219,561.4219 Q210.65,560.4063 210.65,559.2031 L210.65,558.1094 Q210.65,556.8594 211.2438,555.7656 Q211.8531,554.6719 212.9,554.0938 Q213.9625,553.5 215.15,553.5 Q215.8688,553.5 216.4938,553.75 Q217.1188,554 217.65,554.5 Z " fill="#000000"/><text fill="#000000" font-family="sans-serif" font-size="12" lengthAdjust="spacing" textLength="53" x="232.35" y="562.9102">Company</text><line style="stroke:#A80036;stroke-width:1.5;" x1="189.5" x2="299.5" y1="574" y2="574"/><text fill="#000000" font-family="sans-serif" font-size="11" lengthAdjust="spacing" textLength="90" x="194.5" y="589.4189">-String designation</text><text fill="#000000" font-family="sans-serif" font-size="11" lengthAdjust="spacing" textLength="90" x="194.5" y="603.2549">-TestTypeStore tts</text><line style="stroke:#A80036;stroke-width:1.5;" x1="189.5" x2="299.5" y1="609.6719" y2="609.6719"/><text fill="#000000" font-family="sans-serif" font-size="11" lengthAdjust="spacing" textLength="90" x="194.5" y="625.0908">+getCategoryList()</text><text fill="#000000" font-family="sans-serif" font-size="11" lengthAdjust="spacing" textLength="100" x="194.5" y="638.9268">+getTestTypeStore()</text><!--MD5=[6ba72ddf03822b91e8d41ca71de58ed3]
class TestTypeStore--><rect codeLine="54" fill="#FEFECE" filter="url(#fsfgevetphkvj)" height="144.8516" id="TestTypeStore" style="stroke:#A80036;stroke-width:1.5;" width="180" x="57.5" y="737"/><ellipse cx="103.75" cy="753" fill="#ADD1B2" rx="11" ry="11" style="stroke:#A80036;stroke-width:1.0;"/><path d="M105.75,749.5 Q105.9531,749 106.1875,748.75 Q106.4219,748.5 106.6875,748.5 Q107.1563,748.5 107.4531,748.7813 Q107.75,749.0625 107.75,749.7188 L107.75,751.2813 Q107.75,751.9375 107.4688,752.2188 Q107.1875,752.5 106.75,752.5 Q106.3594,752.5 106.1094,752.3281 Q105.8594,752.1563 105.75,751.7031 Q105.7031,751.3906 105.5313,751.2188 Q105.2188,750.8906 104.6563,750.7031 Q104.0938,750.5 103.5313,750.5 Q102.8281,750.5 102.2344,750.7813 Q101.6563,751.0625 101.2031,751.6875 Q100.75,752.3125 100.75,753.1719 L100.75,754.0938 Q100.75,755.125 101.5938,755.8125 Q102.4375,756.5 103.9375,756.5 Q104.8281,756.5 105.4531,756.2969 Q105.8125,756.1875 106.2188,755.8281 Q106.4844,755.625 106.625,755.5625 Q106.7656,755.5 106.9375,755.5 Q107.2656,755.5 107.5,755.7656 Q107.75,756.0156 107.75,756.375 Q107.75,756.7188 107.4063,757.125 Q106.9063,757.7188 106.1094,758.0469 Q105.0625,758.5 103.7813,758.5 Q102.2813,758.5 101.0781,757.9063 Q100.1094,757.4375 99.4219,756.4219 Q98.75,755.4063 98.75,754.2031 L98.75,753.1094 Q98.75,751.8594 99.3438,750.7656 Q99.9531,749.6719 101,749.0938 Q102.0625,748.5 103.25,748.5 Q103.9688,748.5 104.5938,748.75 Q105.2188,749 105.75,749.5 Z " fill="#000000"/><text fill="#000000" font-family="sans-serif" font-size="12" lengthAdjust="spacing" textLength="79" x="124.25" y="757.9102">TestTypeStore</text><line style="stroke:#A80036;stroke-width:1.5;" x1="58.5" x2="236.5" y1="769" y2="769"/><text fill="#000000" font-family="sans-serif" font-size="11" lengthAdjust="spacing" textLength="168" x="63.5" y="784.4189">-ArrayList&lt;TestType&gt; testTypeList</text><line style="stroke:#A80036;stroke-width:1.5;" x1="58.5" x2="236.5" y1="790.8359" y2="790.8359"/><text fill="#000000" font-family="sans-serif" font-size="11" lengthAdjust="spacing" textLength="90" x="63.5" y="806.2549">+createTestType()</text><text fill="#000000" font-family="sans-serif" font-size="11" lengthAdjust="spacing" textLength="126" x="63.5" y="820.0908">+createCollectionMethod()</text><text fill="#000000" font-family="sans-serif" font-size="11" lengthAdjust="spacing" textLength="51" x="63.5" y="833.9268">+validate()</text><text fill="#000000" font-family="sans-serif" font-size="11" lengthAdjust="spacing" textLength="102" x="63.5" y="847.7627">+validateTestType(tt)</text><text fill="#000000" font-family="sans-serif" font-size="11" lengthAdjust="spacing" textLength="83" x="63.5" y="861.5986">+addTestType(tt)</text><text fill="#000000" font-family="sans-serif" font-size="11" lengthAdjust="spacing" textLength="91" x="63.5" y="875.4346">+getTestTypeList()</text><!--MD5=[19bd7f6e2d7783cadf568159f572f7c1]
link Administrator to CreateTestTypeUI--><path codeLine="64" d="M287.77,55.28 C279.55,70.32 268.34,90.84 257.2,111.22 " fill="none" id="Administrator-to-CreateTestTypeUI" style="stroke:#A80036;stroke-width:1.0;stroke-dasharray:7.0,7.0;"/><polygon fill="#A80036" points="254.67,115.83,262.4994,109.8551,257.0703,111.4438,255.4815,106.0146,254.67,115.83" style="stroke:#A80036;stroke-width:1.0;"/><!--MD5=[69134a8957932d955e1f822b15ec4b1c]
link CreateTestTypeUI to CreateTestTypeController--><path codeLine="65" d="M195.44,261.23 C190.47,279.03 185.09,298.26 179.96,316.59 " fill="none" id="CreateTestTypeUI-to-CreateTestTypeController" style="stroke:#A80036;stroke-width:1.0;stroke-dasharray:7.0,7.0;"/><polygon fill="#A80036" points="178.52,321.73,184.791,314.1356,179.8634,316.9138,177.0852,311.9862,178.52,321.73" style="stroke:#A80036;stroke-width:1.0;"/><!--MD5=[71159b3869b6d7a411768e18bcaa697a]
link Administrator to TestType--><path codeLine="66" d="M323.1,55.1 C348.58,83.69 386.5,135.05 386.5,187.5 C386.5,187.5 386.5,187.5 386.5,594.5 C386.5,637.05 392.2,683.94 398.55,722.95 " fill="none" id="Administrator-TestType" style="stroke:#A80036;stroke-width:1.0;"/><polygon fill="#000000" points="390.9387,396.7074,389.0338,406.0252,394.8745,405.3654,390.9387,396.7074" style="stroke:#000000;stroke-width:1.0;"/><text fill="#000000" font-family="sans-serif" font-size="13" lengthAdjust="spacing" textLength="61" x="400.5" y="406.9951">created by</text><text fill="#000000" font-family="sans-serif" font-size="13" lengthAdjust="spacing" textLength="7" x="320.7556" y="76.4623">1</text><text fill="#000000" font-family="sans-serif" font-size="13" lengthAdjust="spacing" textLength="5" x="391.8177" y="712.0611">*</text><!--MD5=[2148a3300dad30af455fcbe81ca204c2]
link TestType to Category--><path codeLine="67" d="M415.5,896 C415.5,922.43 415.5,950.68 415.5,973.95 " fill="none" id="TestType-Category" style="stroke:#A80036;stroke-width:1.0;"/><polygon fill="#000000" points="420.5,940.1758,423.4389,931.1307,417.5611,931.1307,420.5,940.1758" style="stroke:#000000;stroke-width:1.0;"/><text fill="#000000" font-family="sans-serif" font-size="13" lengthAdjust="spacing" textLength="78" x="429.5" y="940.4951">associated to</text><text fill="#000000" font-family="sans-serif" font-size="13" lengthAdjust="spacing" textLength="7" x="408.2211" y="917.0586">1</text><text fill="#000000" font-family="sans-serif" font-size="13" lengthAdjust="spacing" textLength="20" x="394.0938" y="963.0714">1..*</text><!--MD5=[2595b7e412cbba06707a2f110c7e1781]
link TestType to CollectionMethod--><path codeLine="68" d="M288.05,896 C245.01,924.87 198.72,955.92 162.43,980.27 " fill="none" id="TestType-CollectionMethod" style="stroke:#A80036;stroke-width:1.0;"/><polygon fill="#000000" points="238.3477,937.9612,247.4965,935.3629,244.222,930.4817,238.3477,937.9612" style="stroke:#000000;stroke-width:1.0;"/><text fill="#000000" font-family="sans-serif" font-size="13" lengthAdjust="spacing" textLength="32" x="251.5" y="940.4951">has a</text><text fill="#000000" font-family="sans-serif" font-size="13" lengthAdjust="spacing" textLength="7" x="270.6149" y="917.0586">1</text><text fill="#000000" font-family="sans-serif" font-size="13" lengthAdjust="spacing" textLength="7" x="164.9896" y="969.6789">1</text><!--MD5=[742a261f27a3dcd734c626287d811acd]
link Company to TestType--><path codeLine="69" d="M264.85,645.11 C272.4,661.14 281.78,678.45 292.5,693 C299.97,703.14 308.41,713.13 317.27,722.74 " fill="none" id="Company-TestType" style="stroke:#A80036;stroke-width:1.0;"/><polygon fill="#000000" points="300.2981,688.3195,297.6719,679.1787,292.8007,682.4681,300.2981,688.3195" style="stroke:#000000;stroke-width:1.0;"/><text fill="#000000" font-family="sans-serif" font-size="13" lengthAdjust="spacing" textLength="53" x="306.5" y="689.4951">conducts</text><text fill="#000000" font-family="sans-serif" font-size="13" lengthAdjust="spacing" textLength="7" x="260.2195" y="666.9883">1</text><text fill="#000000" font-family="sans-serif" font-size="13" lengthAdjust="spacing" textLength="5" x="303.6135" y="712.1273">*</text><!--MD5=[812ef8251b528d1a64980212cceda9f5]
link CreateTestTypeController to Company--><path codeLine="70" d="M192.93,481.15 C201.62,499.91 210.71,519.54 218.8,537.01 " fill="none" id="CreateTestTypeController-to-Company" style="stroke:#A80036;stroke-width:1.0;stroke-dasharray:7.0,7.0;"/><polygon fill="#A80036" points="221.05,541.87,220.9044,532.0222,218.952,537.3315,213.6428,535.379,221.05,541.87" style="stroke:#A80036;stroke-width:1.0;"/><!--MD5=[5a82a387146907254b130c6b1980ca8f]
link CreateTestTypeController to TestType--><path codeLine="71" d="M143.92,481.26 C139.88,531.34 142.32,595.78 170.5,645 C183.24,667.25 223.58,697.15 267.95,725.3 " fill="none" id="CreateTestTypeController-to-TestType" style="stroke:#A80036;stroke-width:1.0;stroke-dasharray:7.0,7.0;"/><polygon fill="#A80036" points="272.26,728.01,266.8001,719.8131,268.037,725.333,262.517,726.5699,272.26,728.01" style="stroke:#A80036;stroke-width:1.0;"/><!--MD5=[052e92fcdf9cd7163dfa2933718a6992]
link CreateTestTypeController to CollectionMethod--><path codeLine="72" d="M119.03,481.02 C90.87,544.62 54.64,637.4 39.5,723 C26.11,798.71 23.57,820.78 39.5,896 C45.33,923.53 57.48,952.33 69.06,975.67 " fill="none" id="CreateTestTypeController-to-CollectionMethod" style="stroke:#A80036;stroke-width:1.0;stroke-dasharray:7.0,7.0;"/><polygon fill="#A80036" points="71.37,980.27,70.9102,970.4319,69.1282,975.8007,63.7594,974.0187,71.37,980.27" style="stroke:#A80036;stroke-width:1.0;"/><!--MD5=[141c3afa12b2b3c0a39ffce56dbd5f19]
link Company to TestTypeStore--><path codeLine="73" d="M221.51,645.22 C209.76,671.14 195.21,703.24 182.14,732.09 " fill="none" id="Company-to-TestTypeStore" style="stroke:#A80036;stroke-width:1.0;stroke-dasharray:7.0,7.0;"/><polygon fill="#A80036" points="180.05,736.69,187.4157,730.1519,182.119,732.1382,180.1328,726.8415,180.05,736.69" style="stroke:#A80036;stroke-width:1.0;"/><!--MD5=[42a58f1e32c4356a6c1810b0114f7462]
@startuml

skinparam classAttributeIconSize 0

class Administrator
class CreateTestTypeUI {
+createTestType()
+createCollectionMethod()
+setDesignation(String designation)
+setDescription(String description)
+displayCategoryList()
+setCategories()
+saveTestType()
}
class CreateTestTypeController {
+createTestType()
+createCollectionMethod()
+setDesignation(String designation)
+setCollectionMethod(String description)
+setCollectionMethodToTestType(CollectionMethod cm)
+saveTestType()
+displayCategoryList()
+setCategoriesToTestType(int index)
}
class CollectionMethod {
-String description
+setDescription(String description)
+getDescription()

}
class TestType {
-String designation
-CollectionMethod collectionMethod
-Arraylist<Category> categories
+setDesignation(String designation)
+setCollectionMethod(CollectionMethod collectionMethod)
+setCategory(Category category)
+getDesignation()
+getCollectionMethod()
+getCategories()
}
class Category {
-String code
-String description
-String nhsID
+addCategoriesToTestType(categories)
}
class Company {
-String designation
-TestTypeStore tts
+getCategoryList()
+getTestTypeStore()
}

class TestTypeStore {
-ArrayList<TestType> testTypeList
+createTestType()
+createCollectionMethod()
+validate()
+validateTestType(tt)
+addTestType(tt)
+getTestTypeList()
}

Administrator ..> CreateTestTypeUI
CreateTestTypeUI ..> CreateTestTypeController
TestType "*"-up-"1" Administrator : created by >
Category "1..*"-up-"1" TestType  : associated to <
TestType "1"- -"1" CollectionMethod : has a  >
Company "1"-down-"*" TestType : conducts >
CreateTestTypeController ..> Company
CreateTestTypeController ..> TestType
CreateTestTypeController ..> CollectionMethod
Company ..> TestTypeStore

@enduml

PlantUML version 1.2021.5(Sun Apr 25 12:20:28 BST 2021)
(GPL source distribution)
Java Runtime: OpenJDK Runtime Environment
JVM: Dynamic Code Evolution 64-Bit Server VM
Default Encoding: Cp1252
Language: pt
Country: PT
--></g></svg>