<?xml version="1.0" encoding="UTF-8" standalone="no"?><svg xmlns="http://www.w3.org/2000/svg" xmlns:xlink="http://www.w3.org/1999/xlink" contentScriptType="application/ecmascript" contentStyleType="text/css" height="589px" preserveAspectRatio="none" style="width:552px;height:589px;" version="1.1" viewBox="0 0 552 589" width="552px" zoomAndPan="magnify"><defs><filter height="300%" id="feysp56n0mr3c" width="300%" x="-1" y="-1"><feGaussianBlur result="blurOut" stdDeviation="2.0"/><feColorMatrix in="blurOut" result="blurOut2" type="matrix" values="0 0 0 0 0 0 0 0 0 0 0 0 0 0 0 0 0 0 .4 0"/><feOffset dx="4.0" dy="4.0" in="blurOut2" result="blurOut3"/><feBlend in="SourceGraphic" in2="blurOut3" mode="normal"/></filter></defs><g><line style="stroke:#A80036;stroke-width:1.0;stroke-dasharray:5.0,5.0;" x1="49" x2="49" y1="89.6094" y2="504.1797"/><line style="stroke:#A80036;stroke-width:1.0;stroke-dasharray:5.0,5.0;" x1="508.5" x2="508.5" y1="89.6094" y2="504.1797"/><text fill="#000000" font-family="sans-serif" font-size="14" lengthAdjust="spacing" textLength="83" x="5" y="86.5332">Administrator</text><ellipse cx="49.5" cy="15" fill="#FEFECE" filter="url(#feysp56n0mr3c)" rx="8" ry="8" style="stroke:#A80036;stroke-width:2.0;"/><path d="M49.5,23 L49.5,50 M36.5,31 L62.5,31 M49.5,50 L36.5,65 M49.5,50 L62.5,65 " fill="none" filter="url(#feysp56n0mr3c)" style="stroke:#A80036;stroke-width:2.0;"/><text fill="#000000" font-family="sans-serif" font-size="14" lengthAdjust="spacing" textLength="83" x="5" y="517.7129">Administrator</text><ellipse cx="49.5" cy="530.7891" fill="#FEFECE" filter="url(#feysp56n0mr3c)" rx="8" ry="8" style="stroke:#A80036;stroke-width:2.0;"/><path d="M49.5,538.7891 L49.5,565.7891 M36.5,546.7891 L62.5,546.7891 M49.5,565.7891 L36.5,580.7891 M49.5,565.7891 L62.5,580.7891 " fill="none" filter="url(#feysp56n0mr3c)" style="stroke:#A80036;stroke-width:2.0;"/><rect fill="#FEFECE" filter="url(#feysp56n0mr3c)" height="31.6094" style="stroke:#A80036;stroke-width:1.5;" width="64" x="474.5" y="53"/><text fill="#000000" font-family="sans-serif" font-size="14" lengthAdjust="spacing" textLength="50" x="481.5" y="74.5332">:System</text><rect fill="#FEFECE" filter="url(#feysp56n0mr3c)" height="31.6094" style="stroke:#A80036;stroke-width:1.5;" width="64" x="474.5" y="503.1797"/><text fill="#000000" font-family="sans-serif" font-size="14" lengthAdjust="spacing" textLength="50" x="481.5" y="524.7129">:System</text><polygon fill="#A80036" points="496.5,117.9609,506.5,121.9609,496.5,125.9609,500.5,121.9609" style="stroke:#A80036;stroke-width:1.0;"/><line style="stroke:#A80036;stroke-width:1.0;" x1="49.5" x2="502.5" y1="121.9609" y2="121.9609"/><text fill="#000000" font-family="sans-serif" font-size="13" font-weight="bold" lengthAdjust="spacing" textLength="7" x="56.5" y="117.1045">1</text><text fill="#000000" font-family="sans-serif" font-size="13" lengthAdjust="spacing" textLength="115" x="67.5" y="117.1045">starts new test type</text><polygon fill="#A80036" points="60.5,148.3125,50.5,152.3125,60.5,156.3125,56.5,152.3125" style="stroke:#A80036;stroke-width:1.0;"/><line style="stroke:#A80036;stroke-width:1.0;" x1="54.5" x2="507.5" y1="152.3125" y2="152.3125"/><text fill="#000000" font-family="sans-serif" font-size="13" font-weight="bold" lengthAdjust="spacing" textLength="7" x="66.5" y="147.4561">2</text><text fill="#000000" font-family="sans-serif" font-size="13" lengthAdjust="spacing" textLength="204" x="77.5" y="147.4561">requests the designation of the test</text><polygon fill="#A80036" points="496.5,178.6641,506.5,182.6641,496.5,186.6641,500.5,182.6641" style="stroke:#A80036;stroke-width:1.0;"/><line style="stroke:#A80036;stroke-width:1.0;" x1="49.5" x2="502.5" y1="182.6641" y2="182.6641"/><text fill="#000000" font-family="sans-serif" font-size="13" font-weight="bold" lengthAdjust="spacing" textLength="7" x="56.5" y="177.8076">3</text><text fill="#000000" font-family="sans-serif" font-size="13" lengthAdjust="spacing" textLength="185" x="67.5" y="177.8076">types the requested designation</text><polygon fill="#A80036" points="60.5,209.0156,50.5,213.0156,60.5,217.0156,56.5,213.0156" style="stroke:#A80036;stroke-width:1.0;"/><line style="stroke:#A80036;stroke-width:1.0;" x1="54.5" x2="507.5" y1="213.0156" y2="213.0156"/><text fill="#000000" font-family="sans-serif" font-size="13" font-weight="bold" lengthAdjust="spacing" textLength="7" x="66.5" y="208.1592">4</text><text fill="#000000" font-family="sans-serif" font-size="13" lengthAdjust="spacing" textLength="293" x="77.5" y="208.1592">shows the designation and requests a confirmation</text><polygon fill="#A80036" points="496.5,239.3672,506.5,243.3672,496.5,247.3672,500.5,243.3672" style="stroke:#A80036;stroke-width:1.0;"/><line style="stroke:#A80036;stroke-width:1.0;" x1="49.5" x2="502.5" y1="243.3672" y2="243.3672"/><text fill="#000000" font-family="sans-serif" font-size="13" font-weight="bold" lengthAdjust="spacing" textLength="7" x="56.5" y="238.5107">5</text><text fill="#000000" font-family="sans-serif" font-size="13" lengthAdjust="spacing" textLength="107" x="67.5" y="238.5107">confirms the name</text><polygon fill="#A80036" points="60.5,269.7188,50.5,273.7188,60.5,277.7188,56.5,273.7188" style="stroke:#A80036;stroke-width:1.0;"/><line style="stroke:#A80036;stroke-width:1.0;" x1="54.5" x2="507.5" y1="273.7188" y2="273.7188"/><text fill="#000000" font-family="sans-serif" font-size="13" font-weight="bold" lengthAdjust="spacing" textLength="7" x="66.5" y="268.8623">6</text><text fill="#000000" font-family="sans-serif" font-size="13" lengthAdjust="spacing" textLength="277" x="77.5" y="268.8623">requests a description of the collection methods</text><polygon fill="#A80036" points="496.5,300.0703,506.5,304.0703,496.5,308.0703,500.5,304.0703" style="stroke:#A80036;stroke-width:1.0;"/><line style="stroke:#A80036;stroke-width:1.0;" x1="49.5" x2="502.5" y1="304.0703" y2="304.0703"/><text fill="#000000" font-family="sans-serif" font-size="13" font-weight="bold" lengthAdjust="spacing" textLength="7" x="56.5" y="299.2139">7</text><text fill="#000000" font-family="sans-serif" font-size="13" lengthAdjust="spacing" textLength="182" x="67.5" y="299.2139">types the requested description</text><polygon fill="#A80036" points="60.5,330.4219,50.5,334.4219,60.5,338.4219,56.5,334.4219" style="stroke:#A80036;stroke-width:1.0;"/><line style="stroke:#A80036;stroke-width:1.0;" x1="54.5" x2="507.5" y1="334.4219" y2="334.4219"/><text fill="#000000" font-family="sans-serif" font-size="13" font-weight="bold" lengthAdjust="spacing" textLength="7" x="66.5" y="329.5654">8</text><text fill="#000000" font-family="sans-serif" font-size="13" lengthAdjust="spacing" textLength="290" x="77.5" y="329.5654">shows the description and requests a confirmation</text><polygon fill="#A80036" points="496.5,360.7734,506.5,364.7734,496.5,368.7734,500.5,364.7734" style="stroke:#A80036;stroke-width:1.0;"/><line style="stroke:#A80036;stroke-width:1.0;" x1="49.5" x2="502.5" y1="364.7734" y2="364.7734"/><text fill="#000000" font-family="sans-serif" font-size="13" font-weight="bold" lengthAdjust="spacing" textLength="7" x="56.5" y="359.917">9</text><text fill="#000000" font-family="sans-serif" font-size="13" lengthAdjust="spacing" textLength="138" x="67.5" y="359.917">confirms the description</text><polygon fill="#A80036" points="60.5,391.125,50.5,395.125,60.5,399.125,56.5,395.125" style="stroke:#A80036;stroke-width:1.0;"/><line style="stroke:#A80036;stroke-width:1.0;" x1="54.5" x2="507.5" y1="395.125" y2="395.125"/><text fill="#000000" font-family="sans-serif" font-size="13" font-weight="bold" lengthAdjust="spacing" textLength="14" x="66.5" y="390.2686">10</text><text fill="#000000" font-family="sans-serif" font-size="13" lengthAdjust="spacing" textLength="152" x="84.5" y="390.2686">shows a list of parameters</text><polygon fill="#A80036" points="496.5,421.4766,506.5,425.4766,496.5,429.4766,500.5,425.4766" style="stroke:#A80036;stroke-width:1.0;"/><line style="stroke:#A80036;stroke-width:1.0;" x1="49.5" x2="502.5" y1="425.4766" y2="425.4766"/><text fill="#000000" font-family="sans-serif" font-size="13" font-weight="bold" lengthAdjust="spacing" textLength="14" x="56.5" y="420.6201">11</text><text fill="#000000" font-family="sans-serif" font-size="13" lengthAdjust="spacing" textLength="417" x="74.5" y="420.6201">chooses parameters within the list to be associated to the new test type</text><polygon fill="#A80036" points="60.5,451.8281,50.5,455.8281,60.5,459.8281,56.5,455.8281" style="stroke:#A80036;stroke-width:1.0;"/><line style="stroke:#A80036;stroke-width:1.0;" x1="54.5" x2="507.5" y1="455.8281" y2="455.8281"/><text fill="#000000" font-family="sans-serif" font-size="13" font-weight="bold" lengthAdjust="spacing" textLength="14" x="66.5" y="450.9717">12</text><text fill="#000000" font-family="sans-serif" font-size="13" lengthAdjust="spacing" textLength="327" x="84.5" y="450.9717">shows the parameters chosen and requests confirmation</text><polygon fill="#A80036" points="496.5,482.1797,506.5,486.1797,496.5,490.1797,500.5,486.1797" style="stroke:#A80036;stroke-width:1.0;"/><line style="stroke:#A80036;stroke-width:1.0;" x1="49.5" x2="502.5" y1="486.1797" y2="486.1797"/><text fill="#000000" font-family="sans-serif" font-size="13" font-weight="bold" lengthAdjust="spacing" textLength="14" x="56.5" y="481.3232">13</text><text fill="#000000" font-family="sans-serif" font-size="13" lengthAdjust="spacing" textLength="140" x="74.5" y="481.3232">confirms the parameters</text><!--MD5=[6bdd3e1f60b20ef0e08eb5be76848167]
@startuml

autonumber

actor Administrator

Administrator -> ":System": starts new test type
":System" -> Administrator: requests the designation of the test
Administrator -> ":System": types the requested designation
":System" -> Administrator: shows the designation and requests a confirmation
Administrator -> ":System": confirms the name
":System" -> Administrator: requests a description of the collection methods
Administrator -> ":System": types the requested description
":System" -> Administrator: shows the description and requests a confirmation
Administrator -> ":System": confirms the description
":System" -> Administrator: shows a list of parameters
Administrator -> ":System": chooses parameters within the list to be associated to the new test type
":System" -> Administrator: shows the parameters chosen and requests confirmation
Administrator -> ":System": confirms the parameters

@enduml

PlantUML version 1.2021.4(Sun Apr 04 09:49:39 BST 2021)
(GPL source distribution)
Java Runtime: OpenJDK Runtime Environment
JVM: OpenJDK 64-Bit Server VM
Default Encoding: Cp1252
Language: pt
Country: PT
--></g></svg>