<?xml version="1.0" encoding="UTF-8" standalone="no"?><svg xmlns="http://www.w3.org/2000/svg" xmlns:xlink="http://www.w3.org/1999/xlink" contentScriptType="application/ecmascript" contentStyleType="text/css" height="743px" preserveAspectRatio="none" style="width:577px;height:743px;" version="1.1" viewBox="0 0 577 743" width="577px" zoomAndPan="magnify"><defs><filter height="300%" id="fsy6xqzsm46bl" width="300%" x="-1" y="-1"><feGaussianBlur result="blurOut" stdDeviation="2.0"/><feColorMatrix in="blurOut" result="blurOut2" type="matrix" values="0 0 0 0 0 0 0 0 0 0 0 0 0 0 0 0 0 0 .4 0"/><feOffset dx="4.0" dy="4.0" in="blurOut2" result="blurOut3"/><feBlend in="SourceGraphic" in2="blurOut3" mode="normal"/></filter></defs><g><rect fill="#FFFFFF" filter="url(#fsy6xqzsm46bl)" height="139.7578" style="stroke:#000000;stroke-width:2.0;" width="553.5" x="10" y="501.1797"/><line style="stroke:#A80036;stroke-width:1.0;stroke-dasharray:5.0,5.0;" x1="64" x2="64" y1="89.6094" y2="657.9375"/><line style="stroke:#A80036;stroke-width:1.0;stroke-dasharray:5.0,5.0;" x1="519.5" x2="519.5" y1="89.6094" y2="657.9375"/><text fill="#000000" font-family="sans-serif" font-size="14" lengthAdjust="spacing" textLength="83" x="20" y="86.5332">Administrator</text><ellipse cx="64.5" cy="15" fill="#FEFECE" filter="url(#fsy6xqzsm46bl)" rx="8" ry="8" style="stroke:#A80036;stroke-width:2.0;"/><path d="M64.5,23 L64.5,50 M51.5,31 L77.5,31 M64.5,50 L51.5,65 M64.5,50 L77.5,65 " fill="none" filter="url(#fsy6xqzsm46bl)" style="stroke:#A80036;stroke-width:2.0;"/><text fill="#000000" font-family="sans-serif" font-size="14" lengthAdjust="spacing" textLength="83" x="20" y="671.4707">Administrator</text><ellipse cx="64.5" cy="684.5469" fill="#FEFECE" filter="url(#fsy6xqzsm46bl)" rx="8" ry="8" style="stroke:#A80036;stroke-width:2.0;"/><path d="M64.5,692.5469 L64.5,719.5469 M51.5,700.5469 L77.5,700.5469 M64.5,719.5469 L51.5,734.5469 M64.5,719.5469 L77.5,734.5469 " fill="none" filter="url(#fsy6xqzsm46bl)" style="stroke:#A80036;stroke-width:2.0;"/><rect fill="#FEFECE" filter="url(#fsy6xqzsm46bl)" height="31.6094" style="stroke:#A80036;stroke-width:1.5;" width="64" x="485.5" y="53"/><text fill="#000000" font-family="sans-serif" font-size="14" lengthAdjust="spacing" textLength="50" x="492.5" y="74.5332">:System</text><rect fill="#FEFECE" filter="url(#fsy6xqzsm46bl)" height="31.6094" style="stroke:#A80036;stroke-width:1.5;" width="64" x="485.5" y="656.9375"/><text fill="#000000" font-family="sans-serif" font-size="14" lengthAdjust="spacing" textLength="50" x="492.5" y="678.4707">:System</text><polygon fill="#A80036" points="507.5,117.9609,517.5,121.9609,507.5,125.9609,511.5,121.9609" style="stroke:#A80036;stroke-width:1.0;"/><line style="stroke:#A80036;stroke-width:1.0;" x1="64.5" x2="513.5" y1="121.9609" y2="121.9609"/><text fill="#000000" font-family="sans-serif" font-size="13" font-weight="bold" lengthAdjust="spacing" textLength="7" x="71.5" y="117.1045">1</text><text fill="#000000" font-family="sans-serif" font-size="13" lengthAdjust="spacing" textLength="115" x="82.5" y="117.1045">starts new test type</text><polygon fill="#A80036" points="75.5,148.3125,65.5,152.3125,75.5,156.3125,71.5,152.3125" style="stroke:#A80036;stroke-width:1.0;"/><line style="stroke:#A80036;stroke-width:1.0;" x1="69.5" x2="518.5" y1="152.3125" y2="152.3125"/><text fill="#000000" font-family="sans-serif" font-size="13" font-weight="bold" lengthAdjust="spacing" textLength="7" x="81.5" y="147.4561">2</text><text fill="#000000" font-family="sans-serif" font-size="13" lengthAdjust="spacing" textLength="166" x="92.5" y="147.4561">requests the code of the test</text><polygon fill="#A80036" points="507.5,178.6641,517.5,182.6641,507.5,186.6641,511.5,182.6641" style="stroke:#A80036;stroke-width:1.0;"/><line style="stroke:#A80036;stroke-width:1.0;" x1="64.5" x2="513.5" y1="182.6641" y2="182.6641"/><text fill="#000000" font-family="sans-serif" font-size="13" font-weight="bold" lengthAdjust="spacing" textLength="7" x="71.5" y="177.8076">3</text><text fill="#000000" font-family="sans-serif" font-size="13" lengthAdjust="spacing" textLength="147" x="82.5" y="177.8076">types the requested code</text><polygon fill="#A80036" points="75.5,209.0156,65.5,213.0156,75.5,217.0156,71.5,213.0156" style="stroke:#A80036;stroke-width:1.0;"/><line style="stroke:#A80036;stroke-width:1.0;" x1="69.5" x2="518.5" y1="213.0156" y2="213.0156"/><text fill="#000000" font-family="sans-serif" font-size="13" font-weight="bold" lengthAdjust="spacing" textLength="7" x="81.5" y="208.1592">4</text><text fill="#000000" font-family="sans-serif" font-size="13" lengthAdjust="spacing" textLength="255" x="92.5" y="208.1592">shows the code and requests a confirmation</text><polygon fill="#A80036" points="507.5,239.3672,517.5,243.3672,507.5,247.3672,511.5,243.3672" style="stroke:#A80036;stroke-width:1.0;"/><line style="stroke:#A80036;stroke-width:1.0;" x1="64.5" x2="513.5" y1="243.3672" y2="243.3672"/><text fill="#000000" font-family="sans-serif" font-size="13" font-weight="bold" lengthAdjust="spacing" textLength="7" x="71.5" y="238.5107">5</text><text fill="#000000" font-family="sans-serif" font-size="13" lengthAdjust="spacing" textLength="103" x="82.5" y="238.5107">confirms the code</text><polygon fill="#A80036" points="75.5,269.7188,65.5,273.7188,75.5,277.7188,71.5,273.7188" style="stroke:#A80036;stroke-width:1.0;"/><line style="stroke:#A80036;stroke-width:1.0;" x1="69.5" x2="518.5" y1="273.7188" y2="273.7188"/><text fill="#000000" font-family="sans-serif" font-size="13" font-weight="bold" lengthAdjust="spacing" textLength="7" x="81.5" y="268.8623">6</text><text fill="#000000" font-family="sans-serif" font-size="13" lengthAdjust="spacing" textLength="219" x="92.5" y="268.8623">requests a description of the test type</text><polygon fill="#A80036" points="507.5,300.0703,517.5,304.0703,507.5,308.0703,511.5,304.0703" style="stroke:#A80036;stroke-width:1.0;"/><line style="stroke:#A80036;stroke-width:1.0;" x1="64.5" x2="513.5" y1="304.0703" y2="304.0703"/><text fill="#000000" font-family="sans-serif" font-size="13" font-weight="bold" lengthAdjust="spacing" textLength="7" x="71.5" y="299.2139">7</text><text fill="#000000" font-family="sans-serif" font-size="13" lengthAdjust="spacing" textLength="182" x="82.5" y="299.2139">types the requested description</text><polygon fill="#A80036" points="75.5,330.4219,65.5,334.4219,75.5,338.4219,71.5,334.4219" style="stroke:#A80036;stroke-width:1.0;"/><line style="stroke:#A80036;stroke-width:1.0;" x1="69.5" x2="518.5" y1="334.4219" y2="334.4219"/><text fill="#000000" font-family="sans-serif" font-size="13" font-weight="bold" lengthAdjust="spacing" textLength="7" x="81.5" y="329.5654">8</text><text fill="#000000" font-family="sans-serif" font-size="13" lengthAdjust="spacing" textLength="290" x="92.5" y="329.5654">shows the description and requests a confirmation</text><polygon fill="#A80036" points="507.5,360.7734,517.5,364.7734,507.5,368.7734,511.5,364.7734" style="stroke:#A80036;stroke-width:1.0;"/><line style="stroke:#A80036;stroke-width:1.0;" x1="64.5" x2="513.5" y1="364.7734" y2="364.7734"/><text fill="#000000" font-family="sans-serif" font-size="13" font-weight="bold" lengthAdjust="spacing" textLength="7" x="71.5" y="359.917">9</text><text fill="#000000" font-family="sans-serif" font-size="13" lengthAdjust="spacing" textLength="138" x="82.5" y="359.917">confirms the description</text><polygon fill="#A80036" points="75.5,391.125,65.5,395.125,75.5,399.125,71.5,395.125" style="stroke:#A80036;stroke-width:1.0;"/><line style="stroke:#A80036;stroke-width:1.0;" x1="69.5" x2="518.5" y1="395.125" y2="395.125"/><text fill="#000000" font-family="sans-serif" font-size="13" font-weight="bold" lengthAdjust="spacing" textLength="14" x="81.5" y="390.2686">10</text><text fill="#000000" font-family="sans-serif" font-size="13" lengthAdjust="spacing" textLength="270" x="99.5" y="390.2686">requests a description of the collection method</text><polygon fill="#A80036" points="507.5,421.4766,517.5,425.4766,507.5,429.4766,511.5,425.4766" style="stroke:#A80036;stroke-width:1.0;"/><line style="stroke:#A80036;stroke-width:1.0;" x1="64.5" x2="513.5" y1="425.4766" y2="425.4766"/><text fill="#000000" font-family="sans-serif" font-size="13" font-weight="bold" lengthAdjust="spacing" textLength="14" x="71.5" y="420.6201">11</text><text fill="#000000" font-family="sans-serif" font-size="13" lengthAdjust="spacing" textLength="182" x="89.5" y="420.6201">types the requested description</text><polygon fill="#A80036" points="75.5,451.8281,65.5,455.8281,75.5,459.8281,71.5,455.8281" style="stroke:#A80036;stroke-width:1.0;"/><line style="stroke:#A80036;stroke-width:1.0;" x1="69.5" x2="518.5" y1="455.8281" y2="455.8281"/><text fill="#000000" font-family="sans-serif" font-size="13" font-weight="bold" lengthAdjust="spacing" textLength="14" x="81.5" y="450.9717">12</text><text fill="#000000" font-family="sans-serif" font-size="13" lengthAdjust="spacing" textLength="290" x="99.5" y="450.9717">shows the description and requests a confirmation</text><polygon fill="#A80036" points="507.5,482.1797,517.5,486.1797,507.5,490.1797,511.5,486.1797" style="stroke:#A80036;stroke-width:1.0;"/><line style="stroke:#A80036;stroke-width:1.0;" x1="64.5" x2="513.5" y1="486.1797" y2="486.1797"/><text fill="#000000" font-family="sans-serif" font-size="13" font-weight="bold" lengthAdjust="spacing" textLength="14" x="71.5" y="481.3232">13</text><text fill="#000000" font-family="sans-serif" font-size="13" lengthAdjust="spacing" textLength="138" x="89.5" y="481.3232">confirms the description</text><path d="M10,501.1797 L83,501.1797 L83,509.1797 L73,519.1797 L10,519.1797 L10,501.1797 " fill="#EEEEEE" style="stroke:#000000;stroke-width:1.0;"/><rect fill="none" height="139.7578" style="stroke:#000000;stroke-width:2.0;" width="553.5" x="10" y="501.1797"/><text fill="#000000" font-family="sans-serif" font-size="13" font-weight="bold" lengthAdjust="spacing" textLength="28" x="25" y="515.6748">loop</text><text fill="#000000" font-family="sans-serif" font-size="11" font-weight="bold" lengthAdjust="spacing" textLength="352" x="98" y="514.5986">[until the administrator doesn't want to select more categories]</text><polygon fill="#A80036" points="75.5,537.8828,65.5,541.8828,75.5,545.8828,71.5,541.8828" style="stroke:#A80036;stroke-width:1.0;"/><line style="stroke:#A80036;stroke-width:1.0;" x1="69.5" x2="518.5" y1="541.8828" y2="541.8828"/><text fill="#000000" font-family="sans-serif" font-size="13" font-weight="bold" lengthAdjust="spacing" textLength="14" x="81.5" y="537.0264">14</text><text fill="#000000" font-family="sans-serif" font-size="13" lengthAdjust="spacing" textLength="147" x="99.5" y="537.0264">shows a list of categories</text><polygon fill="#A80036" points="507.5,568.2344,517.5,572.2344,507.5,576.2344,511.5,572.2344" style="stroke:#A80036;stroke-width:1.0;"/><line style="stroke:#A80036;stroke-width:1.0;" x1="64.5" x2="513.5" y1="572.2344" y2="572.2344"/><text fill="#000000" font-family="sans-serif" font-size="13" font-weight="bold" lengthAdjust="spacing" textLength="14" x="71.5" y="567.3779">15</text><text fill="#000000" font-family="sans-serif" font-size="13" lengthAdjust="spacing" textLength="413" x="89.5" y="567.3779">chooses a category within the list to be associated to the new test type</text><polygon fill="#A80036" points="75.5,598.5859,65.5,602.5859,75.5,606.5859,71.5,602.5859" style="stroke:#A80036;stroke-width:1.0;"/><line style="stroke:#A80036;stroke-width:1.0;" x1="69.5" x2="518.5" y1="602.5859" y2="602.5859"/><text fill="#000000" font-family="sans-serif" font-size="13" font-weight="bold" lengthAdjust="spacing" textLength="14" x="81.5" y="597.7295">16</text><text fill="#000000" font-family="sans-serif" font-size="13" lengthAdjust="spacing" textLength="124" x="99.5" y="597.7295">requests confirmation</text><polygon fill="#A80036" points="507.5,628.9375,517.5,632.9375,507.5,636.9375,511.5,632.9375" style="stroke:#A80036;stroke-width:1.0;"/><line style="stroke:#A80036;stroke-width:1.0;" x1="64.5" x2="513.5" y1="632.9375" y2="632.9375"/><text fill="#000000" font-family="sans-serif" font-size="13" font-weight="bold" lengthAdjust="spacing" textLength="14" x="71.5" y="628.0811">17</text><text fill="#000000" font-family="sans-serif" font-size="13" lengthAdjust="spacing" textLength="49" x="89.5" y="628.0811">confirms</text><!--MD5=[f0b153bd63ff670a29602918647352f4]
@startuml

autonumber

actor Administrator

Administrator -> ":System": starts new test type
":System" -> Administrator: requests the code of the test
Administrator -> ":System": types the requested code
":System" -> Administrator: shows the code and requests a confirmation
Administrator -> ":System": confirms the code
":System" -> Administrator: requests a description of the test type
Administrator -> ":System": types the requested description
":System" -> Administrator: shows the description and requests a confirmation
Administrator -> ":System": confirms the description
":System" -> Administrator: requests a description of the collection method
Administrator -> ":System": types the requested description
":System" -> Administrator: shows the description and requests a confirmation
Administrator -> ":System": confirms the description
loop until the administrator doesn't want to select more categories
":System" -> Administrator: shows a list of categories
Administrator -> ":System": chooses a category within the list to be associated to the new test type
":System" -> Administrator: requests confirmation
Administrator -> ":System": confirms
end loop

@enduml

PlantUML version 1.2021.5(Sun Apr 25 12:20:28 BST 2021)
(GPL source distribution)
Java Runtime: OpenJDK Runtime Environment
JVM: Dynamic Code Evolution 64-Bit Server VM
Default Encoding: Cp1252
Language: pt
Country: PT
--></g></svg>