<?xml version="1.0" encoding="UTF-8" standalone="no"?><svg xmlns="http://www.w3.org/2000/svg" xmlns:xlink="http://www.w3.org/1999/xlink" contentScriptType="application/ecmascript" contentStyleType="text/css" height="622px" preserveAspectRatio="none" style="width:724px;height:622px;" version="1.1" viewBox="0 0 724 622" width="724px" zoomAndPan="magnify"><defs><filter height="300%" id="f1cps29u5gem6u" width="300%" x="-1" y="-1"><feGaussianBlur result="blurOut" stdDeviation="2.0"/><feColorMatrix in="blurOut" result="blurOut2" type="matrix" values="0 0 0 0 0 0 0 0 0 0 0 0 0 0 0 0 0 0 .4 0"/><feOffset dx="4.0" dy="4.0" in="blurOut2" result="blurOut3"/><feBlend in="SourceGraphic" in2="blurOut3" mode="normal"/></filter></defs><g><rect fill="#FFFFFF" filter="url(#f1cps29u5gem6u)" height="139.7578" style="stroke:#000000;stroke-width:2.0;" width="700.5" x="10" y="379.7734"/><line style="stroke:#A80036;stroke-width:1.0;stroke-dasharray:5.0,5.0;" x1="64" x2="64" y1="89.6094" y2="536.5313"/><line style="stroke:#A80036;stroke-width:1.0;stroke-dasharray:5.0,5.0;" x1="519.5" x2="519.5" y1="89.6094" y2="536.5313"/><line style="stroke:#A80036;stroke-width:1.0;stroke-dasharray:5.0,5.0;" x1="631.5" x2="631.5" y1="89.6094" y2="536.5313"/><text fill="#000000" font-family="sans-serif" font-size="14" lengthAdjust="spacing" textLength="83" x="20" y="86.5332">Administrator</text><ellipse cx="64.5" cy="15" fill="#FEFECE" filter="url(#f1cps29u5gem6u)" rx="8" ry="8" style="stroke:#A80036;stroke-width:2.0;"/><path d="M64.5,23 L64.5,50 M51.5,31 L77.5,31 M64.5,50 L51.5,65 M64.5,50 L77.5,65 " fill="none" filter="url(#f1cps29u5gem6u)" style="stroke:#A80036;stroke-width:2.0;"/><text fill="#000000" font-family="sans-serif" font-size="14" lengthAdjust="spacing" textLength="83" x="20" y="550.0645">Administrator</text><ellipse cx="64.5" cy="563.1406" fill="#FEFECE" filter="url(#f1cps29u5gem6u)" rx="8" ry="8" style="stroke:#A80036;stroke-width:2.0;"/><path d="M64.5,571.1406 L64.5,598.1406 M51.5,579.1406 L77.5,579.1406 M64.5,598.1406 L51.5,613.1406 M64.5,598.1406 L77.5,613.1406 " fill="none" filter="url(#f1cps29u5gem6u)" style="stroke:#A80036;stroke-width:2.0;"/><rect fill="#FEFECE" filter="url(#f1cps29u5gem6u)" height="31.6094" style="stroke:#A80036;stroke-width:1.5;" width="64" x="485.5" y="53"/><text fill="#000000" font-family="sans-serif" font-size="14" lengthAdjust="spacing" textLength="50" x="492.5" y="74.5332">:System</text><rect fill="#FEFECE" filter="url(#f1cps29u5gem6u)" height="31.6094" style="stroke:#A80036;stroke-width:1.5;" width="64" x="485.5" y="535.5313"/><text fill="#000000" font-family="sans-serif" font-size="14" lengthAdjust="spacing" textLength="50" x="492.5" y="557.0645">:System</text><rect fill="#FEFECE" filter="url(#f1cps29u5gem6u)" height="31.6094" style="stroke:#A80036;stroke-width:1.5;" width="133" x="563.5" y="53"/><text fill="#000000" font-family="sans-serif" font-size="14" lengthAdjust="spacing" textLength="119" x="570.5" y="74.5332">:CreateTestTypeUI</text><rect fill="#FEFECE" filter="url(#f1cps29u5gem6u)" height="31.6094" style="stroke:#A80036;stroke-width:1.5;" width="133" x="563.5" y="535.5313"/><text fill="#000000" font-family="sans-serif" font-size="14" lengthAdjust="spacing" textLength="119" x="570.5" y="557.0645">:CreateTestTypeUI</text><polygon fill="#A80036" points="507.5,117.9609,517.5,121.9609,507.5,125.9609,511.5,121.9609" style="stroke:#A80036;stroke-width:1.0;"/><line style="stroke:#A80036;stroke-width:1.0;" x1="64.5" x2="513.5" y1="121.9609" y2="121.9609"/><text fill="#000000" font-family="sans-serif" font-size="13" font-weight="bold" lengthAdjust="spacing" textLength="7" x="71.5" y="117.1045">1</text><text fill="#000000" font-family="sans-serif" font-size="13" lengthAdjust="spacing" textLength="115" x="82.5" y="117.1045">starts new test type</text><polygon fill="#A80036" points="75.5,148.3125,65.5,152.3125,75.5,156.3125,71.5,152.3125" style="stroke:#A80036;stroke-width:1.0;"/><line style="stroke:#A80036;stroke-width:1.0;" x1="69.5" x2="518.5" y1="152.3125" y2="152.3125"/><text fill="#000000" font-family="sans-serif" font-size="13" font-weight="bold" lengthAdjust="spacing" textLength="7" x="81.5" y="147.4561">2</text><text fill="#000000" font-family="sans-serif" font-size="13" lengthAdjust="spacing" textLength="204" x="92.5" y="147.4561">requests the designation of the test</text><polygon fill="#A80036" points="507.5,178.6641,517.5,182.6641,507.5,186.6641,511.5,182.6641" style="stroke:#A80036;stroke-width:1.0;"/><line style="stroke:#A80036;stroke-width:1.0;" x1="64.5" x2="513.5" y1="182.6641" y2="182.6641"/><text fill="#000000" font-family="sans-serif" font-size="13" font-weight="bold" lengthAdjust="spacing" textLength="7" x="71.5" y="177.8076">3</text><text fill="#000000" font-family="sans-serif" font-size="13" lengthAdjust="spacing" textLength="185" x="82.5" y="177.8076">types the requested designation</text><polygon fill="#A80036" points="75.5,209.0156,65.5,213.0156,75.5,217.0156,71.5,213.0156" style="stroke:#A80036;stroke-width:1.0;"/><line style="stroke:#A80036;stroke-width:1.0;" x1="69.5" x2="518.5" y1="213.0156" y2="213.0156"/><text fill="#000000" font-family="sans-serif" font-size="13" font-weight="bold" lengthAdjust="spacing" textLength="7" x="81.5" y="208.1592">4</text><text fill="#000000" font-family="sans-serif" font-size="13" lengthAdjust="spacing" textLength="293" x="92.5" y="208.1592">shows the designation and requests a confirmation</text><polygon fill="#A80036" points="507.5,239.3672,517.5,243.3672,507.5,247.3672,511.5,243.3672" style="stroke:#A80036;stroke-width:1.0;"/><line style="stroke:#A80036;stroke-width:1.0;" x1="64.5" x2="513.5" y1="243.3672" y2="243.3672"/><text fill="#000000" font-family="sans-serif" font-size="13" font-weight="bold" lengthAdjust="spacing" textLength="7" x="71.5" y="238.5107">5</text><text fill="#000000" font-family="sans-serif" font-size="13" lengthAdjust="spacing" textLength="141" x="82.5" y="238.5107">confirms the designation</text><polygon fill="#A80036" points="75.5,269.7188,65.5,273.7188,75.5,277.7188,71.5,273.7188" style="stroke:#A80036;stroke-width:1.0;"/><line style="stroke:#A80036;stroke-width:1.0;" x1="69.5" x2="518.5" y1="273.7188" y2="273.7188"/><text fill="#000000" font-family="sans-serif" font-size="13" font-weight="bold" lengthAdjust="spacing" textLength="7" x="81.5" y="268.8623">6</text><text fill="#000000" font-family="sans-serif" font-size="13" lengthAdjust="spacing" textLength="270" x="92.5" y="268.8623">requests a description of the collection method</text><polygon fill="#A80036" points="507.5,300.0703,517.5,304.0703,507.5,308.0703,511.5,304.0703" style="stroke:#A80036;stroke-width:1.0;"/><line style="stroke:#A80036;stroke-width:1.0;" x1="64.5" x2="513.5" y1="304.0703" y2="304.0703"/><text fill="#000000" font-family="sans-serif" font-size="13" font-weight="bold" lengthAdjust="spacing" textLength="7" x="71.5" y="299.2139">7</text><text fill="#000000" font-family="sans-serif" font-size="13" lengthAdjust="spacing" textLength="182" x="82.5" y="299.2139">types the requested description</text><polygon fill="#A80036" points="75.5,330.4219,65.5,334.4219,75.5,338.4219,71.5,334.4219" style="stroke:#A80036;stroke-width:1.0;"/><line style="stroke:#A80036;stroke-width:1.0;" x1="69.5" x2="518.5" y1="334.4219" y2="334.4219"/><text fill="#000000" font-family="sans-serif" font-size="13" font-weight="bold" lengthAdjust="spacing" textLength="7" x="81.5" y="329.5654">8</text><text fill="#000000" font-family="sans-serif" font-size="13" lengthAdjust="spacing" textLength="290" x="92.5" y="329.5654">shows the description and requests a confirmation</text><polygon fill="#A80036" points="507.5,360.7734,517.5,364.7734,507.5,368.7734,511.5,364.7734" style="stroke:#A80036;stroke-width:1.0;"/><line style="stroke:#A80036;stroke-width:1.0;" x1="64.5" x2="513.5" y1="364.7734" y2="364.7734"/><text fill="#000000" font-family="sans-serif" font-size="13" font-weight="bold" lengthAdjust="spacing" textLength="7" x="71.5" y="359.917">9</text><text fill="#000000" font-family="sans-serif" font-size="13" lengthAdjust="spacing" textLength="138" x="82.5" y="359.917">confirms the description</text><path d="M10,379.7734 L83,379.7734 L83,387.7734 L73,397.7734 L10,397.7734 L10,379.7734 " fill="#EEEEEE" style="stroke:#000000;stroke-width:1.0;"/><rect fill="none" height="139.7578" style="stroke:#000000;stroke-width:2.0;" width="700.5" x="10" y="379.7734"/><text fill="#000000" font-family="sans-serif" font-size="13" font-weight="bold" lengthAdjust="spacing" textLength="28" x="25" y="394.2686">loop</text><text fill="#000000" font-family="sans-serif" font-size="11" font-weight="bold" lengthAdjust="spacing" textLength="352" x="98" y="393.1924">[until the administrator doesn't want to select more categories]</text><polygon fill="#A80036" points="75.5,416.4766,65.5,420.4766,75.5,424.4766,71.5,420.4766" style="stroke:#A80036;stroke-width:1.0;"/><line style="stroke:#A80036;stroke-width:1.0;" x1="69.5" x2="518.5" y1="420.4766" y2="420.4766"/><text fill="#000000" font-family="sans-serif" font-size="13" font-weight="bold" lengthAdjust="spacing" textLength="14" x="81.5" y="415.6201">10</text><text fill="#000000" font-family="sans-serif" font-size="13" lengthAdjust="spacing" textLength="147" x="99.5" y="415.6201">shows a list of categories</text><polygon fill="#A80036" points="507.5,446.8281,517.5,450.8281,507.5,454.8281,511.5,450.8281" style="stroke:#A80036;stroke-width:1.0;"/><line style="stroke:#A80036;stroke-width:1.0;" x1="64.5" x2="513.5" y1="450.8281" y2="450.8281"/><text fill="#000000" font-family="sans-serif" font-size="13" font-weight="bold" lengthAdjust="spacing" textLength="14" x="71.5" y="445.9717">11</text><text fill="#000000" font-family="sans-serif" font-size="13" lengthAdjust="spacing" textLength="413" x="89.5" y="445.9717">chooses a category within the list to be associated to the new test type</text><polygon fill="#A80036" points="75.5,477.1797,65.5,481.1797,75.5,485.1797,71.5,481.1797" style="stroke:#A80036;stroke-width:1.0;"/><line style="stroke:#A80036;stroke-width:1.0;" x1="69.5" x2="631" y1="481.1797" y2="481.1797"/><text fill="#000000" font-family="sans-serif" font-size="13" font-weight="bold" lengthAdjust="spacing" textLength="14" x="81.5" y="476.3232">12</text><text fill="#000000" font-family="sans-serif" font-size="13" lengthAdjust="spacing" textLength="124" x="99.5" y="476.3232">requests confirmation</text><polygon fill="#A80036" points="620,507.5313,630,511.5313,620,515.5313,624,511.5313" style="stroke:#A80036;stroke-width:1.0;"/><line style="stroke:#A80036;stroke-width:1.0;" x1="64.5" x2="626" y1="511.5313" y2="511.5313"/><text fill="#000000" font-family="sans-serif" font-size="13" font-weight="bold" lengthAdjust="spacing" textLength="14" x="71.5" y="506.6748">13</text><text fill="#000000" font-family="sans-serif" font-size="13" lengthAdjust="spacing" textLength="49" x="89.5" y="506.6748">confirms</text><!--MD5=[d2d9268c0a576cd6a1e29c5be4f0bcae]
@startuml

autonumber

actor Administrator

Administrator -> ":System": starts new test type
":System" -> Administrator: requests the designation of the test
Administrator -> ":System": types the requested designation
":System" -> Administrator: shows the designation and requests a confirmation
Administrator -> ":System": confirms the designation
":System" -> Administrator: requests a description of the collection method
Administrator -> ":System": types the requested description
":System" -> Administrator: shows the description and requests a confirmation
Administrator -> ":System": confirms the description
loop until the administrator doesn't want to select more categories
":System" -> Administrator: shows a list of categories
Administrator -> ":System": chooses a category within the list to be associated to the new test type
":CreateTestTypeUI" -> Administrator: requests confirmation
Administrator -> ":CreateTestTypeUI": confirms
end loop

@enduml

PlantUML version 1.2021.5(Sun Apr 25 12:20:28 BST 2021)
(GPL source distribution)
Java Runtime: OpenJDK Runtime Environment
JVM: Dynamic Code Evolution 64-Bit Server VM
Default Encoding: Cp1252
Language: pt
Country: PT
--></g></svg>