<?xml version="1.0" encoding="UTF-8" standalone="no"?><svg xmlns="http://www.w3.org/2000/svg" xmlns:xlink="http://www.w3.org/1999/xlink" contentScriptType="application/ecmascript" contentStyleType="text/css" height="882px" preserveAspectRatio="none" style="width:483px;height:882px;" version="1.1" viewBox="0 0 483 882" width="483px" zoomAndPan="magnify"><defs><filter height="300%" id="f714mdqd2hy95" width="300%" x="-1" y="-1"><feGaussianBlur result="blurOut" stdDeviation="2.0"/><feColorMatrix in="blurOut" result="blurOut2" type="matrix" values="0 0 0 0 0 0 0 0 0 0 0 0 0 0 0 0 0 0 .4 0"/><feOffset dx="4.0" dy="4.0" in="blurOut2" result="blurOut3"/><feBlend in="SourceGraphic" in2="blurOut3" mode="normal"/></filter></defs><g><!--MD5=[da547346deef918ea16944ba046651ef]
class Administrator--><rect codeLine="4" fill="#FEFECE" filter="url(#f714mdqd2hy95)" height="48" id="Administrator" style="stroke:#A80036;stroke-width:1.5;" width="105" x="262" y="7"/><ellipse cx="277" cy="23" fill="#ADD1B2" rx="11" ry="11" style="stroke:#A80036;stroke-width:1.0;"/><path d="M279,19.5 Q279.2031,19 279.4375,18.75 Q279.6719,18.5 279.9375,18.5 Q280.4063,18.5 280.7031,18.7813 Q281,19.0625 281,19.7188 L281,21.2813 Q281,21.9375 280.7188,22.2188 Q280.4375,22.5 280,22.5 Q279.6094,22.5 279.3594,22.3281 Q279.1094,22.1563 279,21.7031 Q278.9531,21.3906 278.7813,21.2188 Q278.4688,20.8906 277.9063,20.7031 Q277.3438,20.5 276.7813,20.5 Q276.0781,20.5 275.4844,20.7813 Q274.9063,21.0625 274.4531,21.6875 Q274,22.3125 274,23.1719 L274,24.0938 Q274,25.125 274.8438,25.8125 Q275.6875,26.5 277.1875,26.5 Q278.0781,26.5 278.7031,26.2969 Q279.0625,26.1875 279.4688,25.8281 Q279.7344,25.625 279.875,25.5625 Q280.0156,25.5 280.1875,25.5 Q280.5156,25.5 280.75,25.7656 Q281,26.0156 281,26.375 Q281,26.7188 280.6563,27.125 Q280.1563,27.7188 279.3594,28.0469 Q278.3125,28.5 277.0313,28.5 Q275.5313,28.5 274.3281,27.9063 Q273.3594,27.4375 272.6719,26.4219 Q272,25.4063 272,24.2031 L272,23.1094 Q272,21.8594 272.5938,20.7656 Q273.2031,19.6719 274.25,19.0938 Q275.3125,18.5 276.5,18.5 Q277.2188,18.5 277.8438,18.75 Q278.4688,19 279,19.5 Z " fill="#000000"/><text fill="#000000" font-family="sans-serif" font-size="12" lengthAdjust="spacing" textLength="73" x="291" y="27.9102">Administrator</text><line style="stroke:#A80036;stroke-width:1.5;" x1="263" x2="366" y1="39" y2="39"/><line style="stroke:#A80036;stroke-width:1.5;" x1="263" x2="366" y1="47" y2="47"/><!--MD5=[bebdcc43ebcb1534ee764d1f430c03ae]
class CreateTestTypeUI--><rect codeLine="5" fill="#FEFECE" filter="url(#f714mdqd2hy95)" height="61.8359" id="CreateTestTypeUI" style="stroke:#A80036;stroke-width:1.5;" width="228" x="115.5" y="116"/><ellipse cx="175.75" cy="132" fill="#ADD1B2" rx="11" ry="11" style="stroke:#A80036;stroke-width:1.0;"/><path d="M177.75,128.5 Q177.9531,128 178.1875,127.75 Q178.4219,127.5 178.6875,127.5 Q179.1563,127.5 179.4531,127.7813 Q179.75,128.0625 179.75,128.7188 L179.75,130.2813 Q179.75,130.9375 179.4688,131.2188 Q179.1875,131.5 178.75,131.5 Q178.3594,131.5 178.1094,131.3281 Q177.8594,131.1563 177.75,130.7031 Q177.7031,130.3906 177.5313,130.2188 Q177.2188,129.8906 176.6563,129.7031 Q176.0938,129.5 175.5313,129.5 Q174.8281,129.5 174.2344,129.7813 Q173.6563,130.0625 173.2031,130.6875 Q172.75,131.3125 172.75,132.1719 L172.75,133.0938 Q172.75,134.125 173.5938,134.8125 Q174.4375,135.5 175.9375,135.5 Q176.8281,135.5 177.4531,135.2969 Q177.8125,135.1875 178.2188,134.8281 Q178.4844,134.625 178.625,134.5625 Q178.7656,134.5 178.9375,134.5 Q179.2656,134.5 179.5,134.7656 Q179.75,135.0156 179.75,135.375 Q179.75,135.7188 179.4063,136.125 Q178.9063,136.7188 178.1094,137.0469 Q177.0625,137.5 175.7813,137.5 Q174.2813,137.5 173.0781,136.9063 Q172.1094,136.4375 171.4219,135.4219 Q170.75,134.4063 170.75,133.2031 L170.75,132.1094 Q170.75,130.8594 171.3438,129.7656 Q171.9531,128.6719 173,128.0938 Q174.0625,127.5 175.25,127.5 Q175.9688,127.5 176.5938,127.75 Q177.2188,128 177.75,128.5 Z " fill="#000000"/><text fill="#000000" font-family="sans-serif" font-size="12" lengthAdjust="spacing" textLength="99" x="196.25" y="136.9102">CreateTestTypeUI</text><line style="stroke:#A80036;stroke-width:1.5;" x1="116.5" x2="342.5" y1="148" y2="148"/><line style="stroke:#A80036;stroke-width:1.5;" x1="116.5" x2="342.5" y1="156" y2="156"/><text fill="#000000" font-family="sans-serif" font-size="11" lengthAdjust="spacing" textLength="216" x="121.5" y="171.4189">+setTestType(designation, CollectionMethod)</text><!--MD5=[2c845ebea24388d268f5a9acbeca4fd9]
class CreateTestTypeController--><rect codeLine="8" fill="#FEFECE" filter="url(#f714mdqd2hy95)" height="103.3438" id="CreateTestTypeController" style="stroke:#A80036;stroke-width:1.5;" width="228" x="102.5" y="239"/><ellipse cx="142.25" cy="255" fill="#ADD1B2" rx="11" ry="11" style="stroke:#A80036;stroke-width:1.0;"/><path d="M144.25,251.5 Q144.4531,251 144.6875,250.75 Q144.9219,250.5 145.1875,250.5 Q145.6563,250.5 145.9531,250.7813 Q146.25,251.0625 146.25,251.7188 L146.25,253.2813 Q146.25,253.9375 145.9688,254.2188 Q145.6875,254.5 145.25,254.5 Q144.8594,254.5 144.6094,254.3281 Q144.3594,254.1563 144.25,253.7031 Q144.2031,253.3906 144.0313,253.2188 Q143.7188,252.8906 143.1563,252.7031 Q142.5938,252.5 142.0313,252.5 Q141.3281,252.5 140.7344,252.7813 Q140.1563,253.0625 139.7031,253.6875 Q139.25,254.3125 139.25,255.1719 L139.25,256.0938 Q139.25,257.125 140.0938,257.8125 Q140.9375,258.5 142.4375,258.5 Q143.3281,258.5 143.9531,258.2969 Q144.3125,258.1875 144.7188,257.8281 Q144.9844,257.625 145.125,257.5625 Q145.2656,257.5 145.4375,257.5 Q145.7656,257.5 146,257.7656 Q146.25,258.0156 146.25,258.375 Q146.25,258.7188 145.9063,259.125 Q145.4063,259.7188 144.6094,260.0469 Q143.5625,260.5 142.2813,260.5 Q140.7813,260.5 139.5781,259.9063 Q138.6094,259.4375 137.9219,258.4219 Q137.25,257.4063 137.25,256.2031 L137.25,255.1094 Q137.25,253.8594 137.8438,252.7656 Q138.4531,251.6719 139.5,251.0938 Q140.5625,250.5 141.75,250.5 Q142.4688,250.5 143.0938,250.75 Q143.7188,251 144.25,251.5 Z " fill="#000000"/><text fill="#000000" font-family="sans-serif" font-size="12" lengthAdjust="spacing" textLength="141" x="161.75" y="259.9102">CreateTestTypeController</text><line style="stroke:#A80036;stroke-width:1.5;" x1="103.5" x2="329.5" y1="271" y2="271"/><line style="stroke:#A80036;stroke-width:1.5;" x1="103.5" x2="329.5" y1="279" y2="279"/><text fill="#000000" font-family="sans-serif" font-size="11" lengthAdjust="spacing" textLength="90" x="108.5" y="294.4189">+createTestType()</text><text fill="#000000" font-family="sans-serif" font-size="11" lengthAdjust="spacing" textLength="216" x="108.5" y="308.2549">+setTestType(designation, CollectionMethod)</text><text fill="#000000" font-family="sans-serif" font-size="11" lengthAdjust="spacing" textLength="192" x="108.5" y="322.0908">+addCategoriesToTestType(categories)</text><text fill="#000000" font-family="sans-serif" font-size="11" lengthAdjust="spacing" textLength="83" x="108.5" y="335.9268">+saveTestType()</text><!--MD5=[ec908970c524777c08fd0d8397a1f7bf]
class CollectionMethod--><rect codeLine="14" fill="#FEFECE" filter="url(#f714mdqd2hy95)" height="75.6719" id="CollectionMethod" style="stroke:#A80036;stroke-width:1.5;" width="203" x="7" y="778.5"/><ellipse cx="56.75" cy="794.5" fill="#ADD1B2" rx="11" ry="11" style="stroke:#A80036;stroke-width:1.0;"/><path d="M58.75,791 Q58.9531,790.5 59.1875,790.25 Q59.4219,790 59.6875,790 Q60.1563,790 60.4531,790.2813 Q60.75,790.5625 60.75,791.2188 L60.75,792.7813 Q60.75,793.4375 60.4688,793.7188 Q60.1875,794 59.75,794 Q59.3594,794 59.1094,793.8281 Q58.8594,793.6563 58.75,793.2031 Q58.7031,792.8906 58.5313,792.7188 Q58.2188,792.3906 57.6563,792.2031 Q57.0938,792 56.5313,792 Q55.8281,792 55.2344,792.2813 Q54.6563,792.5625 54.2031,793.1875 Q53.75,793.8125 53.75,794.6719 L53.75,795.5938 Q53.75,796.625 54.5938,797.3125 Q55.4375,798 56.9375,798 Q57.8281,798 58.4531,797.7969 Q58.8125,797.6875 59.2188,797.3281 Q59.4844,797.125 59.625,797.0625 Q59.7656,797 59.9375,797 Q60.2656,797 60.5,797.2656 Q60.75,797.5156 60.75,797.875 Q60.75,798.2188 60.4063,798.625 Q59.9063,799.2188 59.1094,799.5469 Q58.0625,800 56.7813,800 Q55.2813,800 54.0781,799.4063 Q53.1094,798.9375 52.4219,797.9219 Q51.75,796.9063 51.75,795.7031 L51.75,794.6094 Q51.75,793.3594 52.3438,792.2656 Q52.9531,791.1719 54,790.5938 Q55.0625,790 56.25,790 Q56.9688,790 57.5938,790.25 Q58.2188,790.5 58.75,791 Z " fill="#000000"/><text fill="#000000" font-family="sans-serif" font-size="12" lengthAdjust="spacing" textLength="95" x="77.25" y="799.4102">CollectionMethod</text><line style="stroke:#A80036;stroke-width:1.5;" x1="8" x2="209" y1="810.5" y2="810.5"/><text fill="#000000" font-family="sans-serif" font-size="11" lengthAdjust="spacing" textLength="88" x="13" y="825.9189">-String description</text><line style="stroke:#A80036;stroke-width:1.5;" x1="8" x2="209" y1="832.3359" y2="832.3359"/><text fill="#000000" font-family="sans-serif" font-size="11" lengthAdjust="spacing" textLength="191" x="13" y="847.7549">+setCollectionMethod(CollectionMethod)</text><!--MD5=[aeb3272166074d8737a70b61b1e71682]
class TestType--><rect codeLine="18" fill="#FEFECE" filter="url(#f714mdqd2hy95)" height="103.3438" id="TestType" style="stroke:#A80036;stroke-width:1.5;" width="260" x="198.5" y="584"/><ellipse cx="299.25" cy="600" fill="#ADD1B2" rx="11" ry="11" style="stroke:#A80036;stroke-width:1.0;"/><path d="M301.25,596.5 Q301.4531,596 301.6875,595.75 Q301.9219,595.5 302.1875,595.5 Q302.6563,595.5 302.9531,595.7813 Q303.25,596.0625 303.25,596.7188 L303.25,598.2813 Q303.25,598.9375 302.9688,599.2188 Q302.6875,599.5 302.25,599.5 Q301.8594,599.5 301.6094,599.3281 Q301.3594,599.1563 301.25,598.7031 Q301.2031,598.3906 301.0313,598.2188 Q300.7188,597.8906 300.1563,597.7031 Q299.5938,597.5 299.0313,597.5 Q298.3281,597.5 297.7344,597.7813 Q297.1563,598.0625 296.7031,598.6875 Q296.25,599.3125 296.25,600.1719 L296.25,601.0938 Q296.25,602.125 297.0938,602.8125 Q297.9375,603.5 299.4375,603.5 Q300.3281,603.5 300.9531,603.2969 Q301.3125,603.1875 301.7188,602.8281 Q301.9844,602.625 302.125,602.5625 Q302.2656,602.5 302.4375,602.5 Q302.7656,602.5 303,602.7656 Q303.25,603.0156 303.25,603.375 Q303.25,603.7188 302.9063,604.125 Q302.4063,604.7188 301.6094,605.0469 Q300.5625,605.5 299.2813,605.5 Q297.7813,605.5 296.5781,604.9063 Q295.6094,604.4375 294.9219,603.4219 Q294.25,602.4063 294.25,601.2031 L294.25,600.1094 Q294.25,598.8594 294.8438,597.7656 Q295.4531,596.6719 296.5,596.0938 Q297.5625,595.5 298.75,595.5 Q299.4688,595.5 300.0938,595.75 Q300.7188,596 301.25,596.5 Z " fill="#000000"/><text fill="#000000" font-family="sans-serif" font-size="12" lengthAdjust="spacing" textLength="50" x="319.75" y="604.9102">TestType</text><line style="stroke:#A80036;stroke-width:1.5;" x1="199.5" x2="457.5" y1="616" y2="616"/><text fill="#000000" font-family="sans-serif" font-size="11" lengthAdjust="spacing" textLength="90" x="204.5" y="631.4189">-String designation</text><line style="stroke:#A80036;stroke-width:1.5;" x1="199.5" x2="457.5" y1="637.8359" y2="637.8359"/><text fill="#000000" font-family="sans-serif" font-size="11" lengthAdjust="spacing" textLength="140" x="204.5" y="653.2549">+setDesignation(designation)</text><text fill="#000000" font-family="sans-serif" font-size="11" lengthAdjust="spacing" textLength="189" x="204.5" y="667.0908">+setCategoriesToTestType(categories)</text><text fill="#000000" font-family="sans-serif" font-size="11" lengthAdjust="spacing" textLength="248" x="204.5" y="680.9268">+setCollectionMethodToTestType(CollectionMethod)</text><!--MD5=[a96594a83e2ecdc78cbf17c2ddf01934]
class Category--><rect codeLine="24" fill="#FEFECE" filter="url(#f714mdqd2hy95)" height="103.3438" id="Category" style="stroke:#A80036;stroke-width:1.5;" width="204" x="245.5" y="765"/><ellipse cx="318.75" cy="781" fill="#ADD1B2" rx="11" ry="11" style="stroke:#A80036;stroke-width:1.0;"/><path d="M320.75,777.5 Q320.9531,777 321.1875,776.75 Q321.4219,776.5 321.6875,776.5 Q322.1563,776.5 322.4531,776.7813 Q322.75,777.0625 322.75,777.7188 L322.75,779.2813 Q322.75,779.9375 322.4688,780.2188 Q322.1875,780.5 321.75,780.5 Q321.3594,780.5 321.1094,780.3281 Q320.8594,780.1563 320.75,779.7031 Q320.7031,779.3906 320.5313,779.2188 Q320.2188,778.8906 319.6563,778.7031 Q319.0938,778.5 318.5313,778.5 Q317.8281,778.5 317.2344,778.7813 Q316.6563,779.0625 316.2031,779.6875 Q315.75,780.3125 315.75,781.1719 L315.75,782.0938 Q315.75,783.125 316.5938,783.8125 Q317.4375,784.5 318.9375,784.5 Q319.8281,784.5 320.4531,784.2969 Q320.8125,784.1875 321.2188,783.8281 Q321.4844,783.625 321.625,783.5625 Q321.7656,783.5 321.9375,783.5 Q322.2656,783.5 322.5,783.7656 Q322.75,784.0156 322.75,784.375 Q322.75,784.7188 322.4063,785.125 Q321.9063,785.7188 321.1094,786.0469 Q320.0625,786.5 318.7813,786.5 Q317.2813,786.5 316.0781,785.9063 Q315.1094,785.4375 314.4219,784.4219 Q313.75,783.4063 313.75,782.2031 L313.75,781.1094 Q313.75,779.8594 314.3438,778.7656 Q314.9531,777.6719 316,777.0938 Q317.0625,776.5 318.25,776.5 Q318.9688,776.5 319.5938,776.75 Q320.2188,777 320.75,777.5 Z " fill="#000000"/><text fill="#000000" font-family="sans-serif" font-size="12" lengthAdjust="spacing" textLength="49" x="339.25" y="785.9102">Category</text><line style="stroke:#A80036;stroke-width:1.5;" x1="246.5" x2="448.5" y1="797" y2="797"/><text fill="#000000" font-family="sans-serif" font-size="11" lengthAdjust="spacing" textLength="59" x="251.5" y="812.4189">-String code</text><text fill="#000000" font-family="sans-serif" font-size="11" lengthAdjust="spacing" textLength="88" x="251.5" y="826.2549">-String description</text><text fill="#000000" font-family="sans-serif" font-size="11" lengthAdjust="spacing" textLength="62" x="251.5" y="840.0908">-String nhsID</text><line style="stroke:#A80036;stroke-width:1.5;" x1="246.5" x2="448.5" y1="846.5078" y2="846.5078"/><text fill="#000000" font-family="sans-serif" font-size="11" lengthAdjust="spacing" textLength="192" x="251.5" y="861.9268">+addCategoriesToTestType(categories)</text><!--MD5=[02e4b9b7573f1156f41e60aa5b4e25a4]
class Company--><rect codeLine="30" fill="#FEFECE" filter="url(#f714mdqd2hy95)" height="103.3438" id="Company" style="stroke:#A80036;stroke-width:1.5;" width="114" x="161.5" y="403"/><ellipse cx="189.55" cy="419" fill="#ADD1B2" rx="11" ry="11" style="stroke:#A80036;stroke-width:1.0;"/><path d="M191.55,415.5 Q191.7531,415 191.9875,414.75 Q192.2219,414.5 192.4875,414.5 Q192.9563,414.5 193.2531,414.7813 Q193.55,415.0625 193.55,415.7188 L193.55,417.2813 Q193.55,417.9375 193.2688,418.2188 Q192.9875,418.5 192.55,418.5 Q192.1594,418.5 191.9094,418.3281 Q191.6594,418.1563 191.55,417.7031 Q191.5031,417.3906 191.3313,417.2188 Q191.0188,416.8906 190.4563,416.7031 Q189.8938,416.5 189.3313,416.5 Q188.6281,416.5 188.0344,416.7813 Q187.4563,417.0625 187.0031,417.6875 Q186.55,418.3125 186.55,419.1719 L186.55,420.0938 Q186.55,421.125 187.3938,421.8125 Q188.2375,422.5 189.7375,422.5 Q190.6281,422.5 191.2531,422.2969 Q191.6125,422.1875 192.0188,421.8281 Q192.2844,421.625 192.425,421.5625 Q192.5656,421.5 192.7375,421.5 Q193.0656,421.5 193.3,421.7656 Q193.55,422.0156 193.55,422.375 Q193.55,422.7188 193.2063,423.125 Q192.7063,423.7188 191.9094,424.0469 Q190.8625,424.5 189.5813,424.5 Q188.0813,424.5 186.8781,423.9063 Q185.9094,423.4375 185.2219,422.4219 Q184.55,421.4063 184.55,420.2031 L184.55,419.1094 Q184.55,417.8594 185.1438,416.7656 Q185.7531,415.6719 186.8,415.0938 Q187.8625,414.5 189.05,414.5 Q189.7688,414.5 190.3938,414.75 Q191.0188,415 191.55,415.5 Z " fill="#000000"/><text fill="#000000" font-family="sans-serif" font-size="12" lengthAdjust="spacing" textLength="53" x="206.45" y="423.9102">Company</text><line style="stroke:#A80036;stroke-width:1.5;" x1="162.5" x2="274.5" y1="435" y2="435"/><text fill="#000000" font-family="sans-serif" font-size="11" lengthAdjust="spacing" textLength="90" x="167.5" y="450.4189">-String designation</text><line style="stroke:#A80036;stroke-width:1.5;" x1="162.5" x2="274.5" y1="456.8359" y2="456.8359"/><text fill="#000000" font-family="sans-serif" font-size="11" lengthAdjust="spacing" textLength="90" x="167.5" y="472.2549">+createTestType()</text><text fill="#000000" font-family="sans-serif" font-size="11" lengthAdjust="spacing" textLength="102" x="167.5" y="486.0908">+validateTestType(tt)</text><text fill="#000000" font-family="sans-serif" font-size="11" lengthAdjust="spacing" textLength="89" x="167.5" y="499.9268">+saveTestType(tt)</text><!--MD5=[19bd7f6e2d7783cadf568159f572f7c1]
link Administrator to CreateTestTypeUI--><path codeLine="37" d="M297.3,55.07 C285.21,71.28 268.83,93.25 255.2,111.53 " fill="none" id="Administrator-to-CreateTestTypeUI" style="stroke:#A80036;stroke-width:1.0;stroke-dasharray:7.0,7.0;"/><polygon fill="#A80036" points="252.16,115.61,260.76,110.81,255.16,111.61,254.36,106.01,252.16,115.61" style="stroke:#A80036;stroke-width:1.0;"/><!--MD5=[69134a8957932d955e1f822b15ec4b1c]
link CreateTestTypeUI to CreateTestTypeController--><path codeLine="38" d="M226.74,178.01 C225.26,194.17 223.38,214.64 221.63,233.62 " fill="none" id="CreateTestTypeUI-to-CreateTestTypeController" style="stroke:#A80036;stroke-width:1.0;stroke-dasharray:7.0,7.0;"/><polygon fill="#A80036" points="221.15,238.93,225.9551,230.3328,221.6065,233.9509,217.9885,229.6024,221.15,238.93" style="stroke:#A80036;stroke-width:1.0;"/><!--MD5=[71159b3869b6d7a411768e18bcaa697a]
link Administrator to TestType--><path codeLine="39" d="M346.52,55.32 C370.97,76.07 400.5,108.81 400.5,146 C400.5,146 400.5,146 400.5,455.5 C400.5,501.22 380.03,549.08 360.92,583.79 " fill="none" id="Administrator-TestType" style="stroke:#A80036;stroke-width:1.0;"/><polygon fill="#000000" points="405.3638,285.6776,402.6723,294.7994,408.548,294.6393,405.3638,285.6776" style="stroke:#000000;stroke-width:1.0;"/><text fill="#000000" font-family="sans-serif" font-size="13" lengthAdjust="spacing" textLength="61" x="414.5" y="295.9951">created by</text><text fill="#000000" font-family="sans-serif" font-size="13" lengthAdjust="spacing" textLength="7" x="346.1153" y="76.3298">1</text><text fill="#000000" font-family="sans-serif" font-size="13" lengthAdjust="spacing" textLength="5" x="359.9405" y="573.2621">*</text><!--MD5=[2148a3300dad30af455fcbe81ca204c2]
link TestType to Category--><path codeLine="40" d="M333.89,687.32 C336.47,711.6 339.55,740.6 342.13,764.87 " fill="none" id="TestType-Category" style="stroke:#A80036;stroke-width:1.0;"/><polygon fill="#000000" points="345.0283,731.1478,346.9951,721.8428,341.1501,722.4639,345.0283,731.1478" style="stroke:#000000;stroke-width:1.0;"/><text fill="#000000" font-family="sans-serif" font-size="13" lengthAdjust="spacing" textLength="78" x="353.5" y="731.4951">associated to</text><text fill="#000000" font-family="sans-serif" font-size="13" lengthAdjust="spacing" textLength="7" x="327.144" y="708.854">1</text><text fill="#000000" font-family="sans-serif" font-size="13" lengthAdjust="spacing" textLength="20" x="319.9686" y="753.9802">1..*</text><!--MD5=[2595b7e412cbba06707a2f110c7e1781]
link TestType to CollectionMethod--><path codeLine="41" d="M266.34,687.08 C230.63,716.13 186.58,751.97 154.09,778.4 " fill="none" id="TestType-CollectionMethod" style="stroke:#A80036;stroke-width:1.0;"/><polygon fill="#000000" points="226.6214,729.3312,235.4925,725.9028,231.7832,721.3432,226.6214,729.3312" style="stroke:#000000;stroke-width:1.0;"/><text fill="#000000" font-family="sans-serif" font-size="13" lengthAdjust="spacing" textLength="32" x="239.5" y="731.4951">has a</text><text fill="#000000" font-family="sans-serif" font-size="13" lengthAdjust="spacing" textLength="7" x="250.1066" y="708.9541">1</text><text fill="#000000" font-family="sans-serif" font-size="13" lengthAdjust="spacing" textLength="7" x="154.5873" y="767.7441">1</text><!--MD5=[742a261f27a3dcd734c626287d811acd]
link Company to TestType--><path codeLine="42" d="M219.93,506.09 C222.11,522.2 226.4,539.57 234.5,554 C240.5,564.68 248.49,574.59 257.28,583.55 " fill="none" id="Company-TestType" style="stroke:#A80036;stroke-width:1.0;"/><polygon fill="#000000" points="241.6716,549.6796,240.3903,540.2557,235.0959,542.8086,241.6716,549.6796" style="stroke:#000000;stroke-width:1.0;"/><text fill="#000000" font-family="sans-serif" font-size="13" lengthAdjust="spacing" textLength="53" x="248.5" y="550.4951">conducts</text><text fill="#000000" font-family="sans-serif" font-size="13" lengthAdjust="spacing" textLength="7" x="212.6389" y="527.9655">1</text><text fill="#000000" font-family="sans-serif" font-size="13" lengthAdjust="spacing" textLength="5" x="242.3739" y="572.9899">*</text><!--MD5=[812ef8251b528d1a64980212cceda9f5]
link CreateTestTypeController to Company--><path codeLine="43" d="M217.13,342.31 C217.35,359.96 217.59,379.83 217.81,397.84 " fill="none" id="CreateTestTypeController-to-Company" style="stroke:#A80036;stroke-width:1.0;stroke-dasharray:7.0,7.0;"/><polygon fill="#A80036" points="217.87,402.87,221.7669,393.8249,217.8129,397.8703,213.7674,393.9163,217.87,402.87" style="stroke:#A80036;stroke-width:1.0;"/><!--MD5=[5a82a387146907254b130c6b1980ca8f]
link CreateTestTypeController to TestType--><path codeLine="44" d="M257.97,342.09 C270.95,360.3 284.06,381.65 292.5,403 C315.07,460.12 323.54,530.4 326.69,578.44 " fill="none" id="CreateTestTypeController-to-TestType" style="stroke:#A80036;stroke-width:1.0;stroke-dasharray:7.0,7.0;"/><polygon fill="#A80036" points="327.01,583.6,330.4375,574.3668,326.6963,578.6098,322.4533,574.8687,327.01,583.6" style="stroke:#A80036;stroke-width:1.0;"/><!--MD5=[052e92fcdf9cd7163dfa2933718a6992]
link CreateTestTypeController to CollectionMethod--><path codeLine="45" d="M175.66,342.27 C163.2,360.42 150.86,381.67 143.5,403 C98.98,532.05 101.26,696.68 105.4,773.05 " fill="none" id="CreateTestTypeController-to-CollectionMethod" style="stroke:#A80036;stroke-width:1.0;stroke-dasharray:7.0,7.0;"/><polygon fill="#A80036" points="105.7,778.4,109.1785,769.1859,105.4139,773.4082,101.1916,769.6436,105.7,778.4" style="stroke:#A80036;stroke-width:1.0;"/><!--MD5=[2d0ab9f7754b67d483bc805ca770a5de]
@startuml

skinparam classAttributeIconSize 0

class Administrator
class CreateTestTypeUI {
+setTestType(designation, CollectionMethod)
}
class CreateTestTypeController {
+createTestType()
+setTestType(designation, CollectionMethod)
+addCategoriesToTestType(categories)
+saveTestType()
}
class CollectionMethod {
-String description
+setCollectionMethod(CollectionMethod)
}
class TestType {
-String designation
+setDesignation(designation)
+setCategoriesToTestType(categories)
+setCollectionMethodToTestType(CollectionMethod)
}
class Category {
-String code
-String description
-String nhsID
+addCategoriesToTestType(categories)
}
class Company {
-String designation
+createTestType()
+validateTestType(tt)
+saveTestType(tt)
}

Administrator ..> CreateTestTypeUI
CreateTestTypeUI ..> CreateTestTypeController
TestType "*"-up-"1" Administrator : created by >
Category "1..*"-up-"1" TestType  : associated to <
TestType "1"- -"1" CollectionMethod : has a  >
Company "1"-down-"*" TestType : conducts >
CreateTestTypeController ..> Company
CreateTestTypeController ..> TestType
CreateTestTypeController ..> CollectionMethod


@enduml

PlantUML version 1.2021.5(Sun Apr 25 12:20:28 BST 2021)
(GPL source distribution)
Java Runtime: OpenJDK Runtime Environment
JVM: Dynamic Code Evolution 64-Bit Server VM
Default Encoding: Cp1252
Language: pt
Country: PT
--></g></svg>