<?xml version="1.0" encoding="UTF-8" standalone="no"?><svg xmlns="http://www.w3.org/2000/svg" xmlns:xlink="http://www.w3.org/1999/xlink" contentScriptType="application/ecmascript" contentStyleType="text/css" height="727px" preserveAspectRatio="none" style="width:1177px;height:727px;" version="1.1" viewBox="0 0 1177 727" width="1177px" zoomAndPan="magnify"><defs><filter height="300%" id="fdddg6tzigfu6" width="300%" x="-1" y="-1"><feGaussianBlur result="blurOut" stdDeviation="2.0"/><feColorMatrix in="blurOut" result="blurOut2" type="matrix" values="0 0 0 0 0 0 0 0 0 0 0 0 0 0 0 0 0 0 .4 0"/><feOffset dx="4.0" dy="4.0" in="blurOut2" result="blurOut3"/><feBlend in="SourceGraphic" in2="blurOut3" mode="normal"/></filter></defs><g><line style="stroke:#A80036;stroke-width:1.0;stroke-dasharray:5.0,5.0;" x1="49" x2="49" y1="89.6094" y2="641.8438"/><line style="stroke:#A80036;stroke-width:1.0;stroke-dasharray:5.0,5.0;" x1="588" x2="588" y1="89.6094" y2="641.8438"/><line style="stroke:#A80036;stroke-width:1.0;stroke-dasharray:5.0,5.0;" x1="876" x2="876" y1="163.2656" y2="641.8438"/><line style="stroke:#A80036;stroke-width:1.0;stroke-dasharray:5.0,5.0;" x1="1144.5" x2="1144.5" y1="89.6094" y2="641.8438"/><text fill="#000000" font-family="sans-serif" font-size="14" lengthAdjust="spacing" textLength="83" x="5" y="86.5332">Administrator</text><ellipse cx="49.5" cy="15" fill="#FEFECE" filter="url(#fdddg6tzigfu6)" rx="8" ry="8" style="stroke:#A80036;stroke-width:2.0;"/><path d="M49.5,23 L49.5,50 M36.5,31 L62.5,31 M49.5,50 L36.5,65 M49.5,50 L62.5,65 " fill="none" filter="url(#fdddg6tzigfu6)" style="stroke:#A80036;stroke-width:2.0;"/><text fill="#000000" font-family="sans-serif" font-size="14" lengthAdjust="spacing" textLength="83" x="5" y="655.377">Administrator</text><ellipse cx="49.5" cy="668.4531" fill="#FEFECE" filter="url(#fdddg6tzigfu6)" rx="8" ry="8" style="stroke:#A80036;stroke-width:2.0;"/><path d="M49.5,676.4531 L49.5,703.4531 M36.5,684.4531 L62.5,684.4531 M49.5,703.4531 L36.5,718.4531 M49.5,703.4531 L62.5,718.4531 " fill="none" filter="url(#fdddg6tzigfu6)" style="stroke:#A80036;stroke-width:2.0;"/><rect fill="#FEFECE" filter="url(#fdddg6tzigfu6)" height="31.6094" style="stroke:#A80036;stroke-width:1.5;" width="133" x="520" y="53"/><text fill="#000000" font-family="sans-serif" font-size="14" lengthAdjust="spacing" textLength="119" x="527" y="74.5332">:CreateTestTypeUI</text><rect fill="#FEFECE" filter="url(#fdddg6tzigfu6)" height="31.6094" style="stroke:#A80036;stroke-width:1.5;" width="133" x="520" y="640.8438"/><text fill="#000000" font-family="sans-serif" font-size="14" lengthAdjust="spacing" textLength="119" x="527" y="662.377">:CreateTestTypeUI</text><rect fill="#FEFECE" filter="url(#fdddg6tzigfu6)" height="31.6094" style="stroke:#A80036;stroke-width:1.5;" width="183" x="783" y="640.8438"/><text fill="#000000" font-family="sans-serif" font-size="14" lengthAdjust="spacing" textLength="169" x="790" y="662.377">:CreateTestTypeController</text><rect fill="#FEFECE" filter="url(#fdddg6tzigfu6)" height="31.6094" style="stroke:#A80036;stroke-width:1.5;" width="42" x="1121.5" y="53"/><text fill="#000000" font-family="sans-serif" font-size="14" lengthAdjust="spacing" textLength="28" x="1128.5" y="74.5332">:???</text><rect fill="#FEFECE" filter="url(#fdddg6tzigfu6)" height="31.6094" style="stroke:#A80036;stroke-width:1.5;" width="42" x="1121.5" y="640.8438"/><text fill="#000000" font-family="sans-serif" font-size="14" lengthAdjust="spacing" textLength="28" x="1128.5" y="662.377">:???</text><polygon fill="#A80036" points="576.5,117.9609,586.5,121.9609,576.5,125.9609,580.5,121.9609" style="stroke:#A80036;stroke-width:1.0;"/><line style="stroke:#A80036;stroke-width:1.0;" x1="49.5" x2="582.5" y1="121.9609" y2="121.9609"/><text fill="#000000" font-family="sans-serif" font-size="13" font-weight="bold" lengthAdjust="spacing" textLength="7" x="56.5" y="117.1045">1</text><text fill="#000000" font-family="sans-serif" font-size="13" lengthAdjust="spacing" textLength="115" x="67.5" y="117.1045">starts new test type</text><polygon fill="#A80036" points="771,148.3125,781,152.3125,771,156.3125,775,152.3125" style="stroke:#A80036;stroke-width:1.0;"/><line style="stroke:#A80036;stroke-width:1.0;" x1="588.5" x2="777" y1="152.3125" y2="152.3125"/><text fill="#000000" font-family="sans-serif" font-size="13" font-weight="bold" lengthAdjust="spacing" textLength="7" x="595.5" y="147.4561">2</text><text fill="#000000" font-family="sans-serif" font-size="13" lengthAdjust="spacing" textLength="36" x="606.5" y="147.4561">create</text><rect fill="#FEFECE" filter="url(#fdddg6tzigfu6)" height="31.6094" style="stroke:#A80036;stroke-width:1.5;" width="183" x="783" y="129.9609"/><text fill="#000000" font-family="sans-serif" font-size="14" lengthAdjust="spacing" textLength="169" x="790" y="151.4941">:CreateTestTypeController</text><polygon fill="#A80036" points="864.5,194.9219,874.5,198.9219,864.5,202.9219,868.5,198.9219" style="stroke:#A80036;stroke-width:1.0;"/><line style="stroke:#A80036;stroke-width:1.0;" x1="588.5" x2="870.5" y1="198.9219" y2="198.9219"/><text fill="#000000" font-family="sans-serif" font-size="13" font-weight="bold" lengthAdjust="spacing" textLength="7" x="595.5" y="194.0654">3</text><text fill="#000000" font-family="sans-serif" font-size="13" lengthAdjust="spacing" textLength="97" x="606.5" y="194.0654">createTestType()</text><polygon fill="#A80036" points="1132.5,225.2734,1142.5,229.2734,1132.5,233.2734,1136.5,229.2734" style="stroke:#A80036;stroke-width:1.0;"/><line style="stroke:#A80036;stroke-width:1.0;" x1="876.5" x2="1138.5" y1="229.2734" y2="229.2734"/><text fill="#000000" font-family="sans-serif" font-size="13" font-weight="bold" lengthAdjust="spacing" textLength="7" x="883.5" y="224.417">4</text><text fill="#000000" font-family="sans-serif" font-size="13" lengthAdjust="spacing" textLength="121" x="894.5" y="224.417">tt = createTestType()</text><polygon fill="#A80036" points="60.5,255.625,50.5,259.625,60.5,263.625,56.5,259.625" style="stroke:#A80036;stroke-width:1.0;"/><line style="stroke:#A80036;stroke-width:1.0;" x1="54.5" x2="587.5" y1="259.625" y2="259.625"/><text fill="#000000" font-family="sans-serif" font-size="13" font-weight="bold" lengthAdjust="spacing" textLength="7" x="66.5" y="254.7686">5</text><text fill="#000000" font-family="sans-serif" font-size="13" lengthAdjust="spacing" textLength="142" x="77.5" y="254.7686">requests the designation</text><polygon fill="#A80036" points="576.5,285.9766,586.5,289.9766,576.5,293.9766,580.5,289.9766" style="stroke:#A80036;stroke-width:1.0;"/><line style="stroke:#A80036;stroke-width:1.0;" x1="49.5" x2="582.5" y1="289.9766" y2="289.9766"/><text fill="#000000" font-family="sans-serif" font-size="13" font-weight="bold" lengthAdjust="spacing" textLength="7" x="56.5" y="285.1201">6</text><text fill="#000000" font-family="sans-serif" font-size="13" lengthAdjust="spacing" textLength="124" x="67.5" y="285.1201">types the designation</text><polygon fill="#A80036" points="60.5,316.3281,50.5,320.3281,60.5,324.3281,56.5,320.3281" style="stroke:#A80036;stroke-width:1.0;"/><line style="stroke:#A80036;stroke-width:1.0;" x1="54.5" x2="587.5" y1="320.3281" y2="320.3281"/><text fill="#000000" font-family="sans-serif" font-size="13" font-weight="bold" lengthAdjust="spacing" textLength="7" x="66.5" y="315.4717">7</text><text fill="#000000" font-family="sans-serif" font-size="13" lengthAdjust="spacing" textLength="281" x="77.5" y="315.4717">requests the description of the collection method</text><polygon fill="#A80036" points="576.5,346.6797,586.5,350.6797,576.5,354.6797,580.5,350.6797" style="stroke:#A80036;stroke-width:1.0;"/><line style="stroke:#A80036;stroke-width:1.0;" x1="49.5" x2="582.5" y1="350.6797" y2="350.6797"/><text fill="#000000" font-family="sans-serif" font-size="13" font-weight="bold" lengthAdjust="spacing" textLength="7" x="56.5" y="345.8232">8</text><text fill="#000000" font-family="sans-serif" font-size="13" lengthAdjust="spacing" textLength="121" x="67.5" y="345.8232">types the description</text><polygon fill="#A80036" points="864.5,377.0313,874.5,381.0313,864.5,385.0313,868.5,381.0313" style="stroke:#A80036;stroke-width:1.0;"/><line style="stroke:#A80036;stroke-width:1.0;" x1="588.5" x2="870.5" y1="381.0313" y2="381.0313"/><text fill="#000000" font-family="sans-serif" font-size="13" font-weight="bold" lengthAdjust="spacing" textLength="7" x="595.5" y="376.1748">9</text><text fill="#000000" font-family="sans-serif" font-size="13" lengthAdjust="spacing" textLength="253" x="606.5" y="376.1748">setTestType(designation, CollectionMethod)</text><polygon fill="#A80036" points="1132.5,407.3828,1142.5,411.3828,1132.5,415.3828,1136.5,411.3828" style="stroke:#A80036;stroke-width:1.0;"/><line style="stroke:#A80036;stroke-width:1.0;" x1="876.5" x2="1138.5" y1="411.3828" y2="411.3828"/><text fill="#000000" font-family="sans-serif" font-size="13" font-weight="bold" lengthAdjust="spacing" textLength="14" x="883.5" y="406.5264">10</text><text fill="#000000" font-family="sans-serif" font-size="13" lengthAdjust="spacing" textLength="160" x="901.5" y="406.5264">setDesignation(designation)</text><polygon fill="#A80036" points="1132.5,437.7344,1142.5,441.7344,1132.5,445.7344,1136.5,441.7344" style="stroke:#A80036;stroke-width:1.0;"/><line style="stroke:#A80036;stroke-width:1.0;" x1="876.5" x2="1138.5" y1="441.7344" y2="441.7344"/><text fill="#000000" font-family="sans-serif" font-size="13" font-weight="bold" lengthAdjust="spacing" textLength="14" x="883.5" y="436.8779">11</text><text fill="#000000" font-family="sans-serif" font-size="13" lengthAdjust="spacing" textLength="226" x="901.5" y="436.8779">setCollectionMethod(CollectionMethod)</text><polygon fill="#A80036" points="60.5,468.0859,50.5,472.0859,60.5,476.0859,56.5,472.0859" style="stroke:#A80036;stroke-width:1.0;"/><line style="stroke:#A80036;stroke-width:1.0;" x1="54.5" x2="587.5" y1="472.0859" y2="472.0859"/><text fill="#000000" font-family="sans-serif" font-size="13" font-weight="bold" lengthAdjust="spacing" textLength="14" x="66.5" y="467.2295">12</text><text fill="#000000" font-family="sans-serif" font-size="13" lengthAdjust="spacing" textLength="202" x="84.5" y="467.2295">shows and requests the categories</text><polygon fill="#A80036" points="864.5,498.4375,874.5,502.4375,864.5,506.4375,868.5,502.4375" style="stroke:#A80036;stroke-width:1.0;"/><line style="stroke:#A80036;stroke-width:1.0;" x1="588.5" x2="870.5" y1="502.4375" y2="502.4375"/><text fill="#000000" font-family="sans-serif" font-size="13" font-weight="bold" lengthAdjust="spacing" textLength="14" x="595.5" y="497.5811">13</text><text fill="#000000" font-family="sans-serif" font-size="13" lengthAdjust="spacing" textLength="218" x="613.5" y="497.5811">addCategoriesToTestType(categories)</text><polygon fill="#A80036" points="60.5,528.7891,50.5,532.7891,60.5,536.7891,56.5,532.7891" style="stroke:#A80036;stroke-width:1.0;"/><line style="stroke:#A80036;stroke-width:1.0;" x1="54.5" x2="587.5" y1="532.7891" y2="532.7891"/><text fill="#000000" font-family="sans-serif" font-size="13" font-weight="bold" lengthAdjust="spacing" textLength="14" x="66.5" y="527.9326">14</text><text fill="#000000" font-family="sans-serif" font-size="13" lengthAdjust="spacing" textLength="497" x="84.5" y="527.9326">shows the data (designation, CollectionMethod, Categories) and requests confirmation</text><polygon fill="#A80036" points="576.5,559.1406,586.5,563.1406,576.5,567.1406,580.5,563.1406" style="stroke:#A80036;stroke-width:1.0;"/><line style="stroke:#A80036;stroke-width:1.0;" x1="49.5" x2="582.5" y1="563.1406" y2="563.1406"/><text fill="#000000" font-family="sans-serif" font-size="13" font-weight="bold" lengthAdjust="spacing" textLength="14" x="56.5" y="558.2842">15</text><text fill="#000000" font-family="sans-serif" font-size="13" lengthAdjust="spacing" textLength="100" x="74.5" y="558.2842">confirms the data</text><polygon fill="#A80036" points="864.5,589.4922,874.5,593.4922,864.5,597.4922,868.5,593.4922" style="stroke:#A80036;stroke-width:1.0;"/><line style="stroke:#A80036;stroke-width:1.0;" x1="588.5" x2="870.5" y1="593.4922" y2="593.4922"/><text fill="#000000" font-family="sans-serif" font-size="13" font-weight="bold" lengthAdjust="spacing" textLength="14" x="595.5" y="588.6357">16</text><text fill="#000000" font-family="sans-serif" font-size="13" lengthAdjust="spacing" textLength="87" x="613.5" y="588.6357">saveTestType()</text><polygon fill="#A80036" points="1132.5,619.8438,1142.5,623.8438,1132.5,627.8438,1136.5,623.8438" style="stroke:#A80036;stroke-width:1.0;"/><line style="stroke:#A80036;stroke-width:1.0;" x1="876.5" x2="1138.5" y1="623.8438" y2="623.8438"/><text fill="#000000" font-family="sans-serif" font-size="13" font-weight="bold" lengthAdjust="spacing" textLength="14" x="883.5" y="618.9873">17</text><text fill="#000000" font-family="sans-serif" font-size="13" lengthAdjust="spacing" textLength="95" x="901.5" y="618.9873">saveTestType(tt)</text><!--MD5=[57e98b67eb71c366bf66dd34e8070600]
@startuml


autonumber

actor Administrator

Administrator -> ":CreateTestTypeUI": starts new test type
create ":CreateTestTypeController"
":CreateTestTypeUI" -> ":CreateTestTypeController": create
":CreateTestTypeUI" -> ":CreateTestTypeController": createTestType()
":CreateTestTypeController" -> ":???": tt = createTestType()

":CreateTestTypeUI" -> Administrator: requests the designation
Administrator -> ":CreateTestTypeUI": types the designation
":CreateTestTypeUI" -> Administrator: requests the description of the collection method
Administrator -> ":CreateTestTypeUI": types the description

":CreateTestTypeUI" -> ":CreateTestTypeController": setTestType(designation, CollectionMethod)
":CreateTestTypeController" -> ":???": setDesignation(designation)
":CreateTestTypeController" -> ":???": setCollectionMethod(CollectionMethod)

":CreateTestTypeUI" -> Administrator: shows and requests the categories

":CreateTestTypeUI" -> ":CreateTestTypeController": addCategoriesToTestType(categories)

":CreateTestTypeUI" -> Administrator: shows the data (designation, CollectionMethod, Categories) and requests confirmation
Administrator -> ":CreateTestTypeUI": confirms the data
":CreateTestTypeUI" -> ":CreateTestTypeController": saveTestType()
":CreateTestTypeController" -> ":???": saveTestType(tt)





@enduml

PlantUML version 1.2021.5(Sun Apr 25 12:20:28 BST 2021)
(GPL source distribution)
Java Runtime: OpenJDK Runtime Environment
JVM: Dynamic Code Evolution 64-Bit Server VM
Default Encoding: Cp1252
Language: pt
Country: PT
--></g></svg>