<?xml version="1.0" encoding="UTF-8" standalone="no"?><svg xmlns="http://www.w3.org/2000/svg" xmlns:xlink="http://www.w3.org/1999/xlink" contentScriptType="application/ecmascript" contentStyleType="text/css" height="319px" preserveAspectRatio="none" style="width:466px;height:319px;" version="1.1" viewBox="0 0 466 319" width="466px" zoomAndPan="magnify"><defs><filter height="300%" id="f1hxbwl6mlvkup" width="300%" x="-1" y="-1"><feGaussianBlur result="blurOut" stdDeviation="2.0"/><feColorMatrix in="blurOut" result="blurOut2" type="matrix" values="0 0 0 0 0 0 0 0 0 0 0 0 0 0 0 0 0 0 .4 0"/><feOffset dx="4.0" dy="4.0" in="blurOut2" result="blurOut3"/><feBlend in="SourceGraphic" in2="blurOut3" mode="normal"/></filter></defs><g><!--MD5=[02e4b9b7573f1156f41e60aa5b4e25a4]
class Company--><rect codeLine="3" fill="#FEFECE" filter="url(#f1hxbwl6mlvkup)" height="61.8359" id="Company" style="stroke:#A80036;stroke-width:1.5;" width="85" x="12" y="48.5"/><ellipse cx="27" cy="64.5" fill="#ADD1B2" rx="11" ry="11" style="stroke:#A80036;stroke-width:1.0;"/><path d="M29,61 Q29.2031,60.5 29.4375,60.25 Q29.6719,60 29.9375,60 Q30.4063,60 30.7031,60.2813 Q31,60.5625 31,61.2188 L31,62.7813 Q31,63.4375 30.7188,63.7188 Q30.4375,64 30,64 Q29.6094,64 29.3594,63.8281 Q29.1094,63.6563 29,63.2031 Q28.9531,62.8906 28.7813,62.7188 Q28.4688,62.3906 27.9063,62.2031 Q27.3438,62 26.7813,62 Q26.0781,62 25.4844,62.2813 Q24.9063,62.5625 24.4531,63.1875 Q24,63.8125 24,64.6719 L24,65.5938 Q24,66.625 24.8438,67.3125 Q25.6875,68 27.1875,68 Q28.0781,68 28.7031,67.7969 Q29.0625,67.6875 29.4688,67.3281 Q29.7344,67.125 29.875,67.0625 Q30.0156,67 30.1875,67 Q30.5156,67 30.75,67.2656 Q31,67.5156 31,67.875 Q31,68.2188 30.6563,68.625 Q30.1563,69.2188 29.3594,69.5469 Q28.3125,70 27.0313,70 Q25.5313,70 24.3281,69.4063 Q23.3594,68.9375 22.6719,67.9219 Q22,66.9063 22,65.7031 L22,64.6094 Q22,63.3594 22.5938,62.2656 Q23.2031,61.1719 24.25,60.5938 Q25.3125,60 26.5,60 Q27.2188,60 27.8438,60.25 Q28.4688,60.5 29,61 Z " fill="#000000"/><text fill="#000000" font-family="sans-serif" font-size="12" lengthAdjust="spacing" textLength="53" x="41" y="69.4102">Company</text><line style="stroke:#A80036;stroke-width:1.5;" x1="13" x2="96" y1="80.5" y2="80.5"/><text fill="#000000" font-family="sans-serif" font-size="11" lengthAdjust="spacing" textLength="59" x="18" y="95.9189">-designation</text><line style="stroke:#A80036;stroke-width:1.5;" x1="13" x2="96" y1="102.3359" y2="102.3359"/><!--MD5=[7421f545a0d8420c5bec41e74b387d9c]
class Employee--><rect codeLine="6" fill="#FEFECE" filter="url(#f1hxbwl6mlvkup)" height="144.8516" id="Employee" style="stroke:#A80036;stroke-width:1.5;" width="87" x="196" y="7"/><ellipse cx="211" cy="23" fill="#ADD1B2" rx="11" ry="11" style="stroke:#A80036;stroke-width:1.0;"/><path d="M213,19.5 Q213.2031,19 213.4375,18.75 Q213.6719,18.5 213.9375,18.5 Q214.4063,18.5 214.7031,18.7813 Q215,19.0625 215,19.7188 L215,21.2813 Q215,21.9375 214.7188,22.2188 Q214.4375,22.5 214,22.5 Q213.6094,22.5 213.3594,22.3281 Q213.1094,22.1563 213,21.7031 Q212.9531,21.3906 212.7813,21.2188 Q212.4688,20.8906 211.9063,20.7031 Q211.3438,20.5 210.7813,20.5 Q210.0781,20.5 209.4844,20.7813 Q208.9063,21.0625 208.4531,21.6875 Q208,22.3125 208,23.1719 L208,24.0938 Q208,25.125 208.8438,25.8125 Q209.6875,26.5 211.1875,26.5 Q212.0781,26.5 212.7031,26.2969 Q213.0625,26.1875 213.4688,25.8281 Q213.7344,25.625 213.875,25.5625 Q214.0156,25.5 214.1875,25.5 Q214.5156,25.5 214.75,25.7656 Q215,26.0156 215,26.375 Q215,26.7188 214.6563,27.125 Q214.1563,27.7188 213.3594,28.0469 Q212.3125,28.5 211.0313,28.5 Q209.5313,28.5 208.3281,27.9063 Q207.3594,27.4375 206.6719,26.4219 Q206,25.4063 206,24.2031 L206,23.1094 Q206,21.8594 206.5938,20.7656 Q207.2031,19.6719 208.25,19.0938 Q209.3125,18.5 210.5,18.5 Q211.2188,18.5 211.8438,18.75 Q212.4688,19 213,19.5 Z " fill="#000000"/><text fill="#000000" font-family="sans-serif" font-size="12" lengthAdjust="spacing" textLength="55" x="225" y="27.9102">Employee</text><line style="stroke:#A80036;stroke-width:1.5;" x1="197" x2="282" y1="39" y2="39"/><text fill="#000000" font-family="sans-serif" font-size="11" lengthAdjust="spacing" textLength="59" x="202" y="54.4189">-employeeID</text><text fill="#000000" font-family="sans-serif" font-size="11" lengthAdjust="spacing" textLength="72" x="202" y="68.2549">-organizationID</text><text fill="#000000" font-family="sans-serif" font-size="11" lengthAdjust="spacing" textLength="30" x="202" y="82.0908">-name</text><text fill="#000000" font-family="sans-serif" font-size="11" lengthAdjust="spacing" textLength="44" x="202" y="95.9268">-address</text><text fill="#000000" font-family="sans-serif" font-size="11" lengthAdjust="spacing" textLength="71" x="202" y="109.7627">-phoneNumber</text><text fill="#000000" font-family="sans-serif" font-size="11" lengthAdjust="spacing" textLength="28" x="202" y="123.5986">-email</text><text fill="#000000" font-family="sans-serif" font-size="11" lengthAdjust="spacing" textLength="50" x="202" y="137.4346">-SOCcode</text><line style="stroke:#A80036;stroke-width:1.5;" x1="197" x2="282" y1="143.8516" y2="143.8516"/><!--MD5=[12e90e92236ca84f203192a07d84ec5e]
class OrganizationRole--><rect codeLine="15" fill="#FEFECE" filter="url(#f1hxbwl6mlvkup)" height="75.6719" id="OrganizationRole" style="stroke:#A80036;stroke-width:1.5;" width="127" x="7" y="230"/><ellipse cx="22" cy="246" fill="#ADD1B2" rx="11" ry="11" style="stroke:#A80036;stroke-width:1.0;"/><path d="M24,242.5 Q24.2031,242 24.4375,241.75 Q24.6719,241.5 24.9375,241.5 Q25.4063,241.5 25.7031,241.7813 Q26,242.0625 26,242.7188 L26,244.2813 Q26,244.9375 25.7188,245.2188 Q25.4375,245.5 25,245.5 Q24.6094,245.5 24.3594,245.3281 Q24.1094,245.1563 24,244.7031 Q23.9531,244.3906 23.7813,244.2188 Q23.4688,243.8906 22.9063,243.7031 Q22.3438,243.5 21.7813,243.5 Q21.0781,243.5 20.4844,243.7813 Q19.9063,244.0625 19.4531,244.6875 Q19,245.3125 19,246.1719 L19,247.0938 Q19,248.125 19.8438,248.8125 Q20.6875,249.5 22.1875,249.5 Q23.0781,249.5 23.7031,249.2969 Q24.0625,249.1875 24.4688,248.8281 Q24.7344,248.625 24.875,248.5625 Q25.0156,248.5 25.1875,248.5 Q25.5156,248.5 25.75,248.7656 Q26,249.0156 26,249.375 Q26,249.7188 25.6563,250.125 Q25.1563,250.7188 24.3594,251.0469 Q23.3125,251.5 22.0313,251.5 Q20.5313,251.5 19.3281,250.9063 Q18.3594,250.4375 17.6719,249.4219 Q17,248.4063 17,247.2031 L17,246.1094 Q17,244.8594 17.5938,243.7656 Q18.2031,242.6719 19.25,242.0938 Q20.3125,241.5 21.5,241.5 Q22.2188,241.5 22.8438,241.75 Q23.4688,242 24,242.5 Z " fill="#000000"/><text fill="#000000" font-family="sans-serif" font-size="12" lengthAdjust="spacing" textLength="95" x="36" y="250.9102">OrganizationRole</text><line style="stroke:#A80036;stroke-width:1.5;" x1="8" x2="133" y1="262" y2="262"/><text fill="#000000" font-family="sans-serif" font-size="11" lengthAdjust="spacing" textLength="12" x="13" y="277.4189">-id</text><text fill="#000000" font-family="sans-serif" font-size="11" lengthAdjust="spacing" textLength="57" x="13" y="291.2549">-description</text><line style="stroke:#A80036;stroke-width:1.5;" x1="8" x2="133" y1="297.6719" y2="297.6719"/><!--MD5=[7d96fd15f3014691d2fcaf89c5791e2a]
class SpecialistDoctor--><rect codeLine="19" fill="#FEFECE" filter="url(#f1hxbwl6mlvkup)" height="61.8359" id="SpecialistDoctor" style="stroke:#A80036;stroke-width:1.5;" width="122" x="185.5" y="237"/><ellipse cx="200.5" cy="253" fill="#ADD1B2" rx="11" ry="11" style="stroke:#A80036;stroke-width:1.0;"/><path d="M202.5,249.5 Q202.7031,249 202.9375,248.75 Q203.1719,248.5 203.4375,248.5 Q203.9063,248.5 204.2031,248.7813 Q204.5,249.0625 204.5,249.7188 L204.5,251.2813 Q204.5,251.9375 204.2188,252.2188 Q203.9375,252.5 203.5,252.5 Q203.1094,252.5 202.8594,252.3281 Q202.6094,252.1563 202.5,251.7031 Q202.4531,251.3906 202.2813,251.2188 Q201.9688,250.8906 201.4063,250.7031 Q200.8438,250.5 200.2813,250.5 Q199.5781,250.5 198.9844,250.7813 Q198.4063,251.0625 197.9531,251.6875 Q197.5,252.3125 197.5,253.1719 L197.5,254.0938 Q197.5,255.125 198.3438,255.8125 Q199.1875,256.5 200.6875,256.5 Q201.5781,256.5 202.2031,256.2969 Q202.5625,256.1875 202.9688,255.8281 Q203.2344,255.625 203.375,255.5625 Q203.5156,255.5 203.6875,255.5 Q204.0156,255.5 204.25,255.7656 Q204.5,256.0156 204.5,256.375 Q204.5,256.7188 204.1563,257.125 Q203.6563,257.7188 202.8594,258.0469 Q201.8125,258.5 200.5313,258.5 Q199.0313,258.5 197.8281,257.9063 Q196.8594,257.4375 196.1719,256.4219 Q195.5,255.4063 195.5,254.2031 L195.5,253.1094 Q195.5,251.8594 196.0938,250.7656 Q196.7031,249.6719 197.75,249.0938 Q198.8125,248.5 200,248.5 Q200.7188,248.5 201.3438,248.75 Q201.9688,249 202.5,249.5 Z " fill="#000000"/><text fill="#000000" font-family="sans-serif" font-size="12" lengthAdjust="spacing" textLength="90" x="214.5" y="257.9102">SpecialistDoctor</text><line style="stroke:#A80036;stroke-width:1.5;" x1="186.5" x2="306.5" y1="269" y2="269"/><text fill="#000000" font-family="sans-serif" font-size="11" lengthAdjust="spacing" textLength="98" x="191.5" y="284.4189">-doctorIndexNumber</text><line style="stroke:#A80036;stroke-width:1.5;" x1="186.5" x2="306.5" y1="290.8359" y2="290.8359"/><!--MD5=[3fd616f346a44cd59a91eb10b19e157c]
class User--><rect codeLine="22" fill="#FEFECE" filter="url(#f1hxbwl6mlvkup)" height="89.5078" id="User" style="stroke:#A80036;stroke-width:1.5;" width="66" x="386.5" y="34.5"/><ellipse cx="404.65" cy="50.5" fill="#ADD1B2" rx="11" ry="11" style="stroke:#A80036;stroke-width:1.0;"/><path d="M406.65,47 Q406.8531,46.5 407.0875,46.25 Q407.3219,46 407.5875,46 Q408.0563,46 408.3531,46.2813 Q408.65,46.5625 408.65,47.2188 L408.65,48.7813 Q408.65,49.4375 408.3688,49.7188 Q408.0875,50 407.65,50 Q407.2594,50 407.0094,49.8281 Q406.7594,49.6563 406.65,49.2031 Q406.6031,48.8906 406.4313,48.7188 Q406.1188,48.3906 405.5563,48.2031 Q404.9938,48 404.4313,48 Q403.7281,48 403.1344,48.2813 Q402.5563,48.5625 402.1031,49.1875 Q401.65,49.8125 401.65,50.6719 L401.65,51.5938 Q401.65,52.625 402.4938,53.3125 Q403.3375,54 404.8375,54 Q405.7281,54 406.3531,53.7969 Q406.7125,53.6875 407.1188,53.3281 Q407.3844,53.125 407.525,53.0625 Q407.6656,53 407.8375,53 Q408.1656,53 408.4,53.2656 Q408.65,53.5156 408.65,53.875 Q408.65,54.2188 408.3063,54.625 Q407.8063,55.2188 407.0094,55.5469 Q405.9625,56 404.6813,56 Q403.1813,56 401.9781,55.4063 Q401.0094,54.9375 400.3219,53.9219 Q399.65,52.9063 399.65,51.7031 L399.65,50.6094 Q399.65,49.3594 400.2438,48.2656 Q400.8531,47.1719 401.9,46.5938 Q402.9625,46 404.15,46 Q404.8688,46 405.4938,46.25 Q406.1188,46.5 406.65,47 Z " fill="#000000"/><text fill="#000000" font-family="sans-serif" font-size="12" lengthAdjust="spacing" textLength="27" x="419.35" y="55.4102">User</text><line style="stroke:#A80036;stroke-width:1.5;" x1="387.5" x2="451.5" y1="66.5" y2="66.5"/><text fill="#000000" font-family="sans-serif" font-size="11" lengthAdjust="spacing" textLength="30" x="392.5" y="81.9189">-name</text><text fill="#000000" font-family="sans-serif" font-size="11" lengthAdjust="spacing" textLength="28" x="392.5" y="95.7549">-email</text><text fill="#000000" font-family="sans-serif" font-size="11" lengthAdjust="spacing" textLength="54" x="392.5" y="109.5908">-password</text><line style="stroke:#A80036;stroke-width:1.5;" x1="387.5" x2="451.5" y1="116.0078" y2="116.0078"/><!--MD5=[09366576ee87d48d594df10cacc83f45]
link Company to Employee--><path codeLine="28" d="M97.41,79.5 C126.97,79.5 166.14,79.5 195.86,79.5 " fill="none" id="Company-Employee" style="stroke:#A80036;stroke-width:1.0;"/><polygon fill="#000000" points="124.5,67.6758,115.4549,64.7369,115.4549,70.6147,124.5,67.6758" style="stroke:#000000;stroke-width:1.0;"/><text fill="#000000" font-family="sans-serif" font-size="13" lengthAdjust="spacing" textLength="49" x="128.5" y="72.9951">employs</text><text fill="#000000" font-family="sans-serif" font-size="13" lengthAdjust="spacing" textLength="7" x="105.0967" y="75.7128">1</text><text fill="#000000" font-family="sans-serif" font-size="13" lengthAdjust="spacing" textLength="20" x="167.9816" y="94.2068">1..*</text><!--MD5=[9abf40ff36e4aa94ac761b2803c1dce8]
link Company to OrganizationRole--><path codeLine="29" d="M51.05,110.61 C48.91,134.87 47.3,169.78 51.5,200 C52.87,209.82 55.31,220.22 57.99,229.83 " fill="none" id="Company-OrganizationRole" style="stroke:#A80036;stroke-width:1.0;"/><polygon fill="#000000" points="56.7906,196.1673,59.1989,186.9667,53.331,187.3083,56.7906,196.1673" style="stroke:#000000;stroke-width:1.0;"/><text fill="#000000" font-family="sans-serif" font-size="13" lengthAdjust="spacing" textLength="78" x="65.5" y="196.4951">comprehends</text><text fill="#000000" font-family="sans-serif" font-size="13" lengthAdjust="spacing" textLength="7" x="42.6817" y="131.8557">1</text><text fill="#000000" font-family="sans-serif" font-size="13" lengthAdjust="spacing" textLength="20" x="33.9804" y="219.1616">1..*</text><!--MD5=[372bd27a178b4208a6d241b4516ac7e6]
reverse link Employee to SpecialistDoctor--><path codeLine="30" d="M242.95,172.36 C243.82,195.65 244.7,219.06 245.37,236.76 " fill="none" id="Employee-backto-SpecialistDoctor" style="stroke:#A80036;stroke-width:1.0;"/><polygon fill="none" points="235.94,172.32,242.19,152.07,249.93,171.8,235.94,172.32" style="stroke:#A80036;stroke-width:1.0;"/><!--MD5=[241b49406f7a05442b1e788ffaf3787c]
link Employee to OrganizationRole--><path codeLine="31" d="M195.81,142.99 C181.52,161.98 165.05,182.45 148.5,200 C138.83,210.26 127.69,220.57 116.93,229.92 " fill="none" id="Employee-OrganizationRole" style="stroke:#A80036;stroke-width:1.0;"/><polygon fill="#000000" points="164.1401,194.8786,172.3947,190.1551,168.0418,186.2052,164.1401,194.8786" style="stroke:#000000;stroke-width:1.0;"/><text fill="#000000" font-family="sans-serif" font-size="13" lengthAdjust="spacing" textLength="21" x="176.5" y="196.4951">has</text><text fill="#000000" font-family="sans-serif" font-size="13" lengthAdjust="spacing" textLength="7" x="180.9942" y="149.7171">1</text><text fill="#000000" font-family="sans-serif" font-size="13" lengthAdjust="spacing" textLength="7" x="117.5769" y="219.2677">1</text><!--MD5=[22fb9506fac029fc1d2ae00f0eb8d606]
link Employee to User--><path codeLine="32" d="M283.07,79.5 C314.91,79.5 357.42,79.5 386.48,79.5 " fill="none" id="Employee-User" style="stroke:#A80036;stroke-width:1.0;"/><polygon fill="#000000" points="310.25,67.6758,301.2049,64.7369,301.2049,70.6147,310.25,67.6758" style="stroke:#000000;stroke-width:1.0;"/><text fill="#000000" font-family="sans-serif" font-size="13" lengthAdjust="spacing" textLength="54" x="314.25" y="72.9951">relates to</text><text fill="#000000" font-family="sans-serif" font-size="13" lengthAdjust="spacing" textLength="22" x="291.085" y="94.2068">0..1</text><text fill="#000000" font-family="sans-serif" font-size="13" lengthAdjust="spacing" textLength="7" x="371.4913" y="75.3374">1</text><!--MD5=[2ab26c9ca44bb6b5675ef9a2c49ddb1d]
@startuml
skinparam classAttributeIconSize 0

class Company {
-designation
}
class Employee {
-employeeID
-organizationID
-name
-address
-phoneNumber
-email
-SOCcode
}
class OrganizationRole {
-id
-description
}
class SpecialistDoctor {
-doctorIndexNumber
}
class User {
-name
-email
-password
}

Company "1"-right-"1..*" Employee : employs >
Company "1"- -"1..*" OrganizationRole : comprehends >
Employee <|- - SpecialistDoctor
Employee "1"- -"1" OrganizationRole : has >
Employee "0..1"-right-"1" User : relates to >
@enduml

PlantUML version 1.2021.2(Sun Mar 07 11:10:27 GMT 2021)
(GPL source distribution)
Java Runtime: OpenJDK Runtime Environment
JVM: OpenJDK 64-Bit Server VM
Default Encoding: Cp1252
Language: pt
Country: PT
--></g></svg>