<?xml version="1.0" encoding="UTF-8" standalone="no"?><svg xmlns="http://www.w3.org/2000/svg" xmlns:xlink="http://www.w3.org/1999/xlink" contentScriptType="application/ecmascript" contentStyleType="text/css" height="1302px" preserveAspectRatio="none" style="width:773px;height:1302px;" version="1.1" viewBox="0 0 773 1302" width="773px" zoomAndPan="magnify"><defs><filter height="300%" id="fkpus3phq4os6" width="300%" x="-1" y="-1"><feGaussianBlur result="blurOut" stdDeviation="2.0"/><feColorMatrix in="blurOut" result="blurOut2" type="matrix" values="0 0 0 0 0 0 0 0 0 0 0 0 0 0 0 0 0 0 .4 0"/><feOffset dx="4.0" dy="4.0" in="blurOut2" result="blurOut3"/><feBlend in="SourceGraphic" in2="blurOut3" mode="normal"/></filter></defs><g><!--MD5=[99b31deea5d7419a569cd5090bf83263]
cluster System--><rect fill="#FFFFFF" filter="url(#fkpus3phq4os6)" height="1283" style="stroke:#000000;stroke-width:1.5;" width="412" x="162" y="7"/><text fill="#000000" font-family="sans-serif" font-size="14" font-weight="bold" lengthAdjust="spacing" textLength="50" x="343" y="23.5332">System</text><ellipse cx="367.8789" cy="134.8758" fill="#FEFECE" filter="url(#fkpus3phq4os6)" rx="79.8789" ry="18.3758" style="stroke:#A80036;stroke-width:1.5;"/><text fill="#000000" font-family="sans-serif" font-size="14" lengthAdjust="spacing" textLength="114" x="309.8373" y="138.9024">US4: Register test</text><ellipse cx="368.0066" cy="62.2013" fill="#FEFECE" filter="url(#fkpus3phq4os6)" rx="84.0066" ry="19.2013" style="stroke:#A80036;stroke-width:1.5;"/><text fill="#000000" font-family="sans-serif" font-size="14" lengthAdjust="spacing" textLength="124" x="306.0066" y="65.9298">US3: Register client</text><ellipse cx="368.1901" cy="212.038" fill="#FEFECE" filter="url(#fkpus3phq4os6)" rx="103.1901" ry="23.038" style="stroke:#A80036;stroke-width:1.5;"/><text fill="#000000" font-family="sans-serif" font-size="14" lengthAdjust="spacing" textLength="168" x="284.1901" y="215.7665">US12: Register test results</text><ellipse cx="367.7928" cy="644.8586" fill="#FEFECE" filter="url(#fkpus3phq4os6)" rx="102.2928" ry="22.8586" style="stroke:#A80036;stroke-width:1.5;"/><text fill="#000000" font-family="sans-serif" font-size="14" lengthAdjust="spacing" textLength="166" x="284.7928" y="648.5871">US14: Generate diagnosis</text><ellipse cx="368.2412" cy="1175.9482" fill="#FEFECE" filter="url(#fkpus3phq4os6)" rx="102.7412" ry="22.9482" style="stroke:#A80036;stroke-width:1.5;"/><text fill="#000000" font-family="sans-serif" font-size="14" lengthAdjust="spacing" textLength="167" x="284.7412" y="1179.6768">US1: Generate NHS report</text><ellipse cx="368.1384" cy="414.1277" fill="#FEFECE" filter="url(#fkpus3phq4os6)" rx="126.1384" ry="27.6277" style="stroke:#A80036;stroke-width:1.5;"/><text fill="#000000" font-family="sans-serif" font-size="14" lengthAdjust="spacing" textLength="218" x="259.1384" y="417.8562">US15: Validate the clinical analysis</text><ellipse cx="367.896" cy="568.9792" fill="#FEFECE" filter="url(#fkpus3phq4os6)" rx="77.896" ry="17.9792" style="stroke:#A80036;stroke-width:1.5;"/><text fill="#000000" font-family="sans-serif" font-size="14" lengthAdjust="spacing" textLength="109" x="311.4355" y="573.2466">US2: View results</text><ellipse cx="368.1926" cy="496.0385" fill="#FEFECE" filter="url(#fkpus3phq4os6)" rx="85.6926" ry="19.5385" style="stroke:#A80036;stroke-width:1.5;"/><text fill="#000000" font-family="sans-serif" font-size="14" lengthAdjust="spacing" textLength="128" x="304.1926" y="499.767">US13: Check results</text><ellipse cx="367.8935" cy="727.0787" fill="#FEFECE" filter="url(#fkpus3phq4os6)" rx="105.8935" ry="23.5787" style="stroke:#A80036;stroke-width:1.5;"/><text fill="#000000" font-family="sans-serif" font-size="14" lengthAdjust="spacing" textLength="174" x="280.8935" y="730.8072">US7: Specify new employee</text><ellipse cx="367.7866" cy="819.9573" fill="#FEFECE" filter="url(#fkpus3phq4os6)" rx="160.2866" ry="34.4573" style="stroke:#A80036;stroke-width:1.5;"/><text fill="#000000" font-family="sans-serif" font-size="14" lengthAdjust="spacing" textLength="290" x="222.7866" y="823.6858">US8: Specify a new clinical analysis laboratory</text><ellipse cx="368.105" cy="910.221" fill="#FEFECE" filter="url(#fkpus3phq4os6)" rx="89.105" ry="20.221" style="stroke:#A80036;stroke-width:1.5;"/><text fill="#000000" font-family="sans-serif" font-size="14" lengthAdjust="spacing" textLength="136" x="300.105" y="913.9495">US9: Specify new test</text><ellipse cx="367.8069" cy="992.1614" fill="#FEFECE" filter="url(#fkpus3phq4os6)" rx="123.8069" ry="27.1614" style="stroke:#A80036;stroke-width:1.5;"/><text fill="#000000" font-family="sans-serif" font-size="14" lengthAdjust="spacing" textLength="213" x="261.3069" y="995.8899">US10: Specify new test parameter</text><ellipse cx="368.0214" cy="1085.8043" fill="#FEFECE" filter="url(#fkpus3phq4os6)" rx="144.5214" ry="31.3043" style="stroke:#A80036;stroke-width:1.5;"/><text fill="#000000" font-family="sans-serif" font-size="14" lengthAdjust="spacing" textLength="257" x="239.5214" y="1089.5328">US11: Specify a new parameter category</text><ellipse cx="368.105" cy="1254.221" fill="#FEFECE" filter="url(#fkpus3phq4os6)" rx="89.105" ry="20.221" style="stroke:#A80036;stroke-width:1.5;"/><text fill="#000000" font-family="sans-serif" font-size="14" lengthAdjust="spacing" textLength="136" x="300.105" y="1257.9495">US5: Register sample</text><ellipse cx="367.7627" cy="310.8525" fill="#FEFECE" filter="url(#fkpus3phq4os6)" rx="189.7627" ry="40.3525" style="stroke:#A80036;stroke-width:1.5;"/><text fill="#000000" font-family="sans-serif" font-size="14" lengthAdjust="spacing" textLength="351" x="192.2627" y="314.5811">US6: View statistics for number of tests waiting for result</text><!--MD5=[87a04b683345c3cce94ac9a6e159ab2f]
entity Receptionist--><ellipse cx="62" cy="67" fill="#FEFECE" filter="url(#fkpus3phq4os6)" rx="8" ry="8" style="stroke:#A80036;stroke-width:1.5;"/><path d="M62,75 L62,102 M49,83 L75,83 M62,102 L49,117 M62,102 L75,117 " fill="none" filter="url(#fkpus3phq4os6)" style="stroke:#A80036;stroke-width:1.5;"/><text fill="#000000" font-family="sans-serif" font-size="14" lengthAdjust="spacing" textLength="78" x="23" y="137.0332">Receptionist</text><!--MD5=[e7d38603a700bedb049d1f5e1789c8aa]
entity MLT--><ellipse cx="692" cy="478.5" fill="#FEFECE" filter="url(#fkpus3phq4os6)" rx="8" ry="8" style="stroke:#A80036;stroke-width:1.5;"/><path d="M692,486.5 L692,513.5 M679,494.5 L705,494.5 M692,513.5 L679,528.5 M692,513.5 L705,528.5 " fill="none" filter="url(#fkpus3phq4os6)" style="stroke:#A80036;stroke-width:1.5;"/><text fill="#000000" font-family="sans-serif" font-size="14" lengthAdjust="spacing" textLength="76" x="654" y="548.5332">Medical Lab</text><text fill="#000000" font-family="sans-serif" font-size="14" lengthAdjust="spacing" textLength="69" x="658" y="566.1426">Technician</text><!--MD5=[234b11d210a3d78b3bcac40f493e1b07]
entity CCT--><ellipse cx="62" cy="320.5" fill="#FEFECE" filter="url(#fkpus3phq4os6)" rx="8" ry="8" style="stroke:#A80036;stroke-width:1.5;"/><path d="M62,328.5 L62,355.5 M49,336.5 L75,336.5 M62,355.5 L49,370.5 M62,355.5 L75,370.5 " fill="none" filter="url(#fkpus3phq4os6)" style="stroke:#A80036;stroke-width:1.5;"/><text fill="#000000" font-family="sans-serif" font-size="14" lengthAdjust="spacing" textLength="112" x="6" y="390.5332">Clinical Chemistry</text><text fill="#000000" font-family="sans-serif" font-size="14" lengthAdjust="spacing" textLength="81" x="10" y="408.1426">Technologist</text><!--MD5=[5a5d35bcfc46556bdff8e646cc6c81c2]
entity Doctor--><ellipse cx="62" cy="539" fill="#FEFECE" filter="url(#fkpus3phq4os6)" rx="8" ry="8" style="stroke:#A80036;stroke-width:1.5;"/><path d="M62,547 L62,574 M49,555 L75,555 M62,574 L49,589 M62,574 L75,589 " fill="none" filter="url(#fkpus3phq4os6)" style="stroke:#A80036;stroke-width:1.5;"/><text fill="#000000" font-family="sans-serif" font-size="14" lengthAdjust="spacing" textLength="106" x="9" y="609.0332">Specialist Doctor</text><!--MD5=[b0100dfa164aec77c855c16afe11d7ec]
entity LC--><ellipse cx="692" cy="360" fill="#FEFECE" filter="url(#fkpus3phq4os6)" rx="8" ry="8" style="stroke:#A80036;stroke-width:1.5;"/><path d="M692,368 L692,395 M679,376 L705,376 M692,395 L679,410 M692,395 L705,410 " fill="none" filter="url(#fkpus3phq4os6)" style="stroke:#A80036;stroke-width:1.5;"/><text fill="#000000" font-family="sans-serif" font-size="14" lengthAdjust="spacing" textLength="148" x="618" y="430.0332">Laboratory Coordinator</text><!--MD5=[0ba5ee7700168656dc1b457c6fe9fdac]
entity Client--><ellipse cx="692" cy="614" fill="#FEFECE" filter="url(#fkpus3phq4os6)" rx="8" ry="8" style="stroke:#A80036;stroke-width:1.5;"/><path d="M692,622 L692,649 M679,630 L705,630 M692,649 L679,664 M692,649 L705,664 " fill="none" filter="url(#fkpus3phq4os6)" style="stroke:#A80036;stroke-width:1.5;"/><text fill="#000000" font-family="sans-serif" font-size="14" lengthAdjust="spacing" textLength="36" x="674" y="684.0332">Client</text><!--MD5=[62529e7d5259bf274c3bf3e446350d88]
entity Administrator--><ellipse cx="62" cy="878" fill="#FEFECE" filter="url(#fkpus3phq4os6)" rx="8" ry="8" style="stroke:#A80036;stroke-width:1.5;"/><path d="M62,886 L62,913 M49,894 L75,894 M62,913 L49,928 M62,913 L75,928 " fill="none" filter="url(#fkpus3phq4os6)" style="stroke:#A80036;stroke-width:1.5;"/><text fill="#000000" font-family="sans-serif" font-size="14" lengthAdjust="spacing" textLength="83" x="20.5" y="948.0332">Administrator</text><!--MD5=[8deeff1cfa66d96b67ddb5a2a7f9c862]
entity Clock--><ellipse cx="62" cy="1135.5" fill="#FEFECE" filter="url(#fkpus3phq4os6)" rx="8" ry="8" style="stroke:#A80036;stroke-width:1.5;"/><path d="M62,1143.5 L62,1170.5 M49,1151.5 L75,1151.5 M62,1170.5 L49,1185.5 M62,1170.5 L75,1185.5 " fill="none" filter="url(#fkpus3phq4os6)" style="stroke:#A80036;stroke-width:1.5;"/><text fill="#000000" font-family="sans-serif" font-size="14" lengthAdjust="spacing" textLength="46" x="39" y="1205.5332">System</text><text fill="#000000" font-family="sans-serif" font-size="14" lengthAdjust="spacing" textLength="35" x="43" y="1223.1426">Clock</text><!--MD5=[4c70b7d2053631286dbeddefcb91f868]
link Receptionist to US4--><path d="M101.19,103.52 C150.07,109.31 235.68,119.45 296.53,126.66 " fill="none" id="Receptionist-US4" style="stroke:#A80036;stroke-width:1.0;"/><!--MD5=[4b3d96f97d2a13824c4e9ffd6a4094db]
link Receptionist to US3--><path d="M101.19,94.35 C149.27,88.5 232.9,78.32 293.54,70.94 " fill="none" id="Receptionist-US3" style="stroke:#A80036;stroke-width:1.0;"/><!--MD5=[155ad00363b06ca38de9dfba8c1f66f9]
link CCT to US12--><path d="M93.88,310.95 C109.39,289.9 129.99,267.08 154,253 C188.03,233.05 229.87,222.56 267.44,217.13 " fill="none" id="CCT-US12" style="stroke:#A80036;stroke-width:1.0;"/><!--MD5=[0ce3a7f7d6af1aeda4d0f9e6329db736]
link CCT to US13--><path d="M98.48,411.18 C113.6,428.97 132.68,447.43 154,459 C193.26,480.3 242.04,489.8 283.01,493.86 " fill="none" id="CCT-US13" style="stroke:#A80036;stroke-width:1.0;"/><!--MD5=[9ebcca1c85a8cc7ec12fb7b75287d44d]
link Doctor to US14--><path d="M115.48,591.62 C127.98,596.09 141.36,600.52 154,604 C196.02,615.59 243.59,625.08 283.1,632 " fill="none" id="Doctor-US14" style="stroke:#A80036;stroke-width:1.0;"/><!--MD5=[b78660090b41364e4e224859ffbc8eff]
link Doctor to US13--><path d="M115.21,546.86 C127.72,541.73 141.18,536.74 154,533 C198.86,519.92 250.46,510.81 291.64,504.9 " fill="none" id="Doctor-US13" style="stroke:#A80036;stroke-width:1.0;"/><!--MD5=[6fd9890cf69bfe3ee8b81959a8dfe7d3]
link US15 to LC--><path d="M488.44,405.84 C531.76,402.88 579.38,399.63 617.56,397.02 " fill="none" id="US15-LC" style="stroke:#A80036;stroke-width:1.0;"/><!--MD5=[12cc6c2c805d2b41df80ff9a9d743b5d]
link US13 to LC--><path d="M448.54,489.42 C489.41,484.25 539.43,475.1 582,459 C599.24,452.48 616.76,443.14 632.57,433.5 " fill="none" id="US13-LC" style="stroke:#A80036;stroke-width:1.0;"/><!--MD5=[cd2e64dfea35843993ad9ff4a7023f53]
link US2 to Client--><path d="M438.84,576.81 C480.79,582.4 534.99,591.23 582,604 C615.47,613.09 652.86,628.78 674,638.19 " fill="none" id="US2-Client" style="stroke:#A80036;stroke-width:1.0;"/><!--MD5=[66c934191e991355bf9cd7639b1a9d6c]
link US5 to MLT--><path d="M448.88,1262.41 C494.7,1262.47 549.41,1253.57 582,1217 C628.65,1164.66 588.2,650.47 618,587 C625.95,570.07 640.18,555.32 653.99,543.93 " fill="none" id="US5-MLT" style="stroke:#A80036;stroke-width:1.0;"/><!--MD5=[bb90dd6d03d92a24a9044f7ad7356e33]
link US13 to MLT--><path d="M449.84,501.77 C515.23,506.44 604.3,512.81 653.86,516.35 " fill="none" id="US13-MLT" style="stroke:#A80036;stroke-width:1.0;"/><!--MD5=[3a3baf24cc977e0b080bc11e0780e534]
link Administrator to US7--><path d="M78.77,868.48 C93.32,835.97 118.12,792.31 154,768 C185.8,746.45 226.07,735.57 263.02,730.27 " fill="none" id="Administrator-US7" style="stroke:#A80036;stroke-width:1.0;"/><!--MD5=[54cb96b0569a01f749f12407765c2ffb]
link Administrator to US8--><path d="M103.71,891.4 C119.24,884.73 137.25,877.51 154,872 C185.91,861.51 221.14,852.08 253.59,844.21 " fill="none" id="Administrator-US8" style="stroke:#A80036;stroke-width:1.0;"/><!--MD5=[895e1d88cda891672ffcde62fb316e5e]
link Administrator to US9--><path d="M103.68,910 C148.26,910 221.1,910 278.89,910 " fill="none" id="Administrator-US9" style="stroke:#A80036;stroke-width:1.0;"/><!--MD5=[53f375424193eba8daf234b2873288b2]
link Administrator to US10--><path d="M103.66,928.34 C119.19,934.86 137.2,941.86 154,947 C191.4,958.46 233.38,968 270.12,975.31 " fill="none" id="Administrator-US10" style="stroke:#A80036;stroke-width:1.0;"/><!--MD5=[6213791c4a1bf6b94e1786a2cd4862fb]
link Administrator to US11--><path d="M82.93,951.56 C98.47,979.58 122.68,1015.12 154,1036 C179.36,1052.91 209.76,1064.13 239.53,1071.57 " fill="none" id="Administrator-US11" style="stroke:#A80036;stroke-width:1.0;"/><!--MD5=[b471d56de7bc8db93ec9047a5778ea73]
link US6 to LC--><path d="M491.65,341.85 C534.13,352.54 580.39,364.18 617.64,373.55 " fill="none" id="US6-LC" style="stroke:#A80036;stroke-width:1.0;"/><!--MD5=[b38519fe40768d832bf9d93dc2b823e6]
link Clock to US1--><path d="M85.35,1176 C122.92,1176 200.94,1176 265.36,1176 " fill="none" id="Clock-US1" style="stroke:#A80036;stroke-width:1.0;"/><!--MD5=[913f90b26df405380a03c68569258bac]
@startuml
'https://plantuml.com/use-case-diagram

left to right direction
skinparam packageStyle rectangle
'Actors
:Receptionist:
:Medical Lab\n Technician: as MLT
:Clinical Chemistry\n Technologist: as CCT
:Specialist Doctor: as Doctor
:Laboratory Coordinator: as LC
:Client:
:Administrator:
:System\n Clock: as Clock

package System {
    (US4: Register test) as US4
    (US3: Register client) as US3
    (US12: Register test results) as US12
    (US14: Generate diagnosis) as US14
    (US1: Generate NHS report) as US1
    (US15: Validate the clinical analysis) as US15
    (US2: View results) as US2
    (US13: Check results) as US13
    (US7: Specify new employee) as US7
    (US8: Specify a new clinical analysis laboratory) as US8
    (US9: Specify new test) as US9
    (US10: Specify new test parameter) as US10
    (US11: Specify a new parameter category) as US11
    (US5: Register sample) as US5
    (US6: View statistics for number of tests waiting for result) as US6
}

'Use Cases
Receptionist - - US4
Receptionist - - US3
CCT - - US12
CCT - - US13
Doctor - - US14
Doctor - - US13
US15 - - LC
US13 - - LC
US2 - - Client
US5 - - MLT
US13 - - MLT
Administrator - - US7
Administrator - - US8
Administrator - - US9
Administrator - - US10
Administrator - - US11
US6 - - LC
Clock - - US1
@enduml

@startuml

left to right direction
skinparam packageStyle rectangle
:Receptionist:
:Medical Lab\n Technician: as MLT
:Clinical Chemistry\n Technologist: as CCT
:Specialist Doctor: as Doctor
:Laboratory Coordinator: as LC
:Client:
:Administrator:
:System\n Clock: as Clock

package System {
    (US4: Register test) as US4
    (US3: Register client) as US3
    (US12: Register test results) as US12
    (US14: Generate diagnosis) as US14
    (US1: Generate NHS report) as US1
    (US15: Validate the clinical analysis) as US15
    (US2: View results) as US2
    (US13: Check results) as US13
    (US7: Specify new employee) as US7
    (US8: Specify a new clinical analysis laboratory) as US8
    (US9: Specify new test) as US9
    (US10: Specify new test parameter) as US10
    (US11: Specify a new parameter category) as US11
    (US5: Register sample) as US5
    (US6: View statistics for number of tests waiting for result) as US6
}

Receptionist - - US4
Receptionist - - US3
CCT - - US12
CCT - - US13
Doctor - - US14
Doctor - - US13
US15 - - LC
US13 - - LC
US2 - - Client
US5 - - MLT
US13 - - MLT
Administrator - - US7
Administrator - - US8
Administrator - - US9
Administrator - - US10
Administrator - - US11
US6 - - LC
Clock - - US1
@enduml

PlantUML version 1.2021.2(Sun Mar 07 11:10:27 GMT 2021)
(GPL source distribution)
Java Runtime: OpenJDK Runtime Environment
JVM: OpenJDK 64-Bit Server VM
Default Encoding: Cp1252
Language: pt
Country: PT
--></g></svg>