<?xml version="1.0" encoding="UTF-8" standalone="no"?><svg xmlns="http://www.w3.org/2000/svg" xmlns:xlink="http://www.w3.org/1999/xlink" contentScriptType="application/ecmascript" contentStyleType="text/css" height="587.08px" preserveAspectRatio="none" style="width:611px;height:587px;" version="1.1" viewBox="0 0 611 587" width="611.52px" zoomAndPan="magnify"><defs><filter height="300%" id="fh5bfamqddc9n" width="300%" x="-1" y="-1"><feGaussianBlur result="blurOut" stdDeviation="1.04"/><feColorMatrix in="blurOut" result="blurOut2" type="matrix" values="0 0 0 0 0 0 0 0 0 0 0 0 0 0 0 0 0 0 .4 0"/><feOffset dx="2.08" dy="2.08" in="blurOut2" result="blurOut3"/><feBlend in="SourceGraphic" in2="blurOut3" mode="normal"/></filter></defs><g><!--MD5=[d77386df0ab152061918b4652af9ba57]
class RegisterTestUI--><rect codeLine="4" fill="#FEFECE" filter="url(#fh5bfamqddc9n)" height="24.96" id="RegisterTestUI" style="stroke:#A80036;stroke-width:0.78;" width="59.8" x="331.0892" y="3.64"/><ellipse cx="338.8892" cy="11.96" fill="#ADD1B2" rx="5.72" ry="5.72" style="stroke:#A80036;stroke-width:0.52;"/><path d="M339.9292,10.14 Q340.0348,9.88 340.1567,9.75 Q340.2786,9.62 340.4167,9.62 Q340.6605,9.62 340.8148,9.7663 Q340.9692,9.9125 340.9692,10.2538 L340.9692,11.0663 Q340.9692,11.4075 340.823,11.5538 Q340.6767,11.7 340.4492,11.7 Q340.2461,11.7 340.1161,11.6106 Q339.9861,11.5213 339.9292,11.2856 Q339.9048,11.1231 339.8155,11.0338 Q339.653,10.8631 339.3605,10.7656 Q339.068,10.66 338.7755,10.66 Q338.4098,10.66 338.1011,10.8063 Q337.8005,10.9525 337.5648,11.2775 Q337.3292,11.6025 337.3292,12.0494 L337.3292,12.5288 Q337.3292,13.065 337.768,13.4225 Q338.2067,13.78 338.9867,13.78 Q339.4498,13.78 339.7748,13.6744 Q339.9617,13.6175 340.173,13.4306 Q340.3111,13.325 340.3842,13.2925 Q340.4573,13.26 340.5467,13.26 Q340.7173,13.26 340.8392,13.3981 Q340.9692,13.5281 340.9692,13.715 Q340.9692,13.8938 340.7905,14.105 Q340.5305,14.4138 340.1161,14.5844 Q339.5717,14.82 338.9055,14.82 Q338.1255,14.82 337.4998,14.5113 Q336.9961,14.2675 336.6386,13.7394 Q336.2892,13.2113 336.2892,12.5856 L336.2892,12.0169 Q336.2892,11.3669 336.598,10.7981 Q336.9148,10.2294 337.4592,9.9288 Q338.0117,9.62 338.6292,9.62 Q339.003,9.62 339.328,9.75 Q339.653,9.88 339.9292,10.14 Z " fill="#000000"/><text fill="#000000" font-family="sans-serif" font-size="6.24" lengthAdjust="spacing" textLength="43.16" x="346.1692" y="14.5133">RegisterTestUI</text><line style="stroke:#A80036;stroke-width:0.78;" x1="331.6092" x2="390.3692" y1="20.28" y2="20.28"/><line style="stroke:#A80036;stroke-width:0.78;" x1="331.6092" x2="390.3692" y1="24.44" y2="24.44"/><!--MD5=[73677359b52d98a525977144c337a659]
class RegisterTestController--><rect codeLine="5" fill="#FEFECE" filter="url(#fh5bfamqddc9n)" height="60.9334" id="RegisterTestController" style="stroke:#A80036;stroke-width:0.78;" width="103.48" x="277.0092" y="84.76"/><ellipse cx="294.6372" cy="93.08" fill="#ADD1B2" rx="5.72" ry="5.72" style="stroke:#A80036;stroke-width:0.52;"/><path d="M295.6772,91.26 Q295.7828,91 295.9047,90.87 Q296.0266,90.74 296.1647,90.74 Q296.4085,90.74 296.5628,90.8863 Q296.7172,91.0325 296.7172,91.3738 L296.7172,92.1863 Q296.7172,92.5275 296.571,92.6738 Q296.4247,92.82 296.1972,92.82 Q295.9941,92.82 295.8641,92.7306 Q295.7341,92.6413 295.6772,92.4056 Q295.6528,92.2431 295.5635,92.1538 Q295.401,91.9831 295.1085,91.8856 Q294.816,91.78 294.5235,91.78 Q294.1578,91.78 293.8491,91.9263 Q293.5485,92.0725 293.3128,92.3975 Q293.0772,92.7225 293.0772,93.1694 L293.0772,93.6488 Q293.0772,94.185 293.516,94.5425 Q293.9547,94.9 294.7347,94.9 Q295.1978,94.9 295.5228,94.7944 Q295.7097,94.7375 295.921,94.5506 Q296.0591,94.445 296.1322,94.4125 Q296.2053,94.38 296.2947,94.38 Q296.4653,94.38 296.5872,94.5181 Q296.7172,94.6481 296.7172,94.835 Q296.7172,95.0138 296.5385,95.225 Q296.2785,95.5338 295.8641,95.7044 Q295.3197,95.94 294.6535,95.94 Q293.8735,95.94 293.2478,95.6313 Q292.7441,95.3875 292.3866,94.8594 Q292.0372,94.3313 292.0372,93.7056 L292.0372,93.1369 Q292.0372,92.4869 292.346,91.9181 Q292.6628,91.3494 293.2072,91.0488 Q293.7597,90.74 294.3772,90.74 Q294.751,90.74 295.076,90.87 Q295.401,91 295.6772,91.26 Z " fill="#000000"/><text fill="#000000" font-family="sans-serif" font-size="6.24" lengthAdjust="spacing" textLength="65" x="304.1012" y="95.6333">RegisterTestController</text><line style="stroke:#A80036;stroke-width:0.78;" x1="277.5292" x2="379.9692" y1="101.4" y2="101.4"/><text fill="#000000" font-family="sans-serif" font-size="5.72" lengthAdjust="spacing" textLength="15.08" x="280.1292" y="109.4179">-client</text><text fill="#000000" font-family="sans-serif" font-size="5.72" lengthAdjust="spacing" textLength="23.92" x="280.1292" y="116.6125">-testType</text><text fill="#000000" font-family="sans-serif" font-size="5.72" lengthAdjust="spacing" textLength="34.32" x="280.1292" y="123.8072">-testCategory</text><text fill="#000000" font-family="sans-serif" font-size="5.72" lengthAdjust="spacing" textLength="36.92" x="280.1292" y="131.0019">-testParameter</text><line style="stroke:#A80036;stroke-width:0.78;" x1="277.5292" x2="379.9692" y1="134.3388" y2="134.3388"/><text fill="#000000" font-family="sans-serif" font-size="5.72" lengthAdjust="spacing" textLength="97.24" x="280.1292" y="142.3566">+getClientByCardNumber(cardNumber)</text><!--MD5=[02e4b9b7573f1156f41e60aa5b4e25a4]
class Company--><rect codeLine="14" fill="#FEFECE" filter="url(#fh5bfamqddc9n)" height="53.7388" id="Company" style="stroke:#A80036;stroke-width:0.78;" width="74.36" x="82.0092" y="177.32"/><ellipse cx="103.3812" cy="185.64" fill="#ADD1B2" rx="5.72" ry="5.72" style="stroke:#A80036;stroke-width:0.52;"/><path d="M104.4212,183.82 Q104.5268,183.56 104.6487,183.43 Q104.7706,183.3 104.9087,183.3 Q105.1525,183.3 105.3068,183.4463 Q105.4612,183.5925 105.4612,183.9338 L105.4612,184.7463 Q105.4612,185.0875 105.315,185.2338 Q105.1687,185.38 104.9412,185.38 Q104.7381,185.38 104.6081,185.2906 Q104.4781,185.2013 104.4212,184.9656 Q104.3968,184.8031 104.3075,184.7138 Q104.145,184.5431 103.8525,184.4456 Q103.56,184.34 103.2675,184.34 Q102.9018,184.34 102.5931,184.4863 Q102.2925,184.6325 102.0568,184.9575 Q101.8212,185.2825 101.8212,185.7294 L101.8212,186.2088 Q101.8212,186.745 102.26,187.1025 Q102.6987,187.46 103.4787,187.46 Q103.9418,187.46 104.2668,187.3544 Q104.4537,187.2975 104.665,187.1106 Q104.8031,187.005 104.8762,186.9725 Q104.9493,186.94 105.0387,186.94 Q105.2093,186.94 105.3312,187.0781 Q105.4612,187.2081 105.4612,187.395 Q105.4612,187.5738 105.2825,187.785 Q105.0225,188.0938 104.6081,188.2644 Q104.0637,188.5 103.3975,188.5 Q102.6175,188.5 101.9918,188.1913 Q101.4881,187.9475 101.1306,187.4194 Q100.7812,186.8913 100.7812,186.2656 L100.7812,185.6969 Q100.7812,185.0469 101.09,184.4781 Q101.4068,183.9094 101.9512,183.6088 Q102.5037,183.3 103.1212,183.3 Q103.495,183.3 103.82,183.43 Q104.145,183.56 104.4212,183.82 Z " fill="#000000"/><text fill="#000000" font-family="sans-serif" font-size="6.24" lengthAdjust="spacing" textLength="27.56" x="113.6772" y="188.1933">Company</text><line style="stroke:#A80036;stroke-width:0.78;" x1="82.5292" x2="155.8492" y1="193.96" y2="193.96"/><text fill="#000000" font-family="sans-serif" font-size="5.72" lengthAdjust="spacing" textLength="30.68" x="85.1292" y="201.9779">-designation</text><line style="stroke:#A80036;stroke-width:0.78;" x1="82.5292" x2="155.8492" y1="205.3147" y2="205.3147"/><text fill="#000000" font-family="sans-serif" font-size="5.72" lengthAdjust="spacing" textLength="39.52" x="85.1292" y="213.3325">+getTestStore()</text><text fill="#000000" font-family="sans-serif" font-size="5.72" lengthAdjust="spacing" textLength="52" x="85.1292" y="220.5272">+getTestTypeStore()</text><text fill="#000000" font-family="sans-serif" font-size="5.72" lengthAdjust="spacing" textLength="68.12" x="85.1292" y="227.7219">+private validateNhsCode()</text><!--MD5=[0f6f7964b844a64b0496af0dda7914bd]
class TestStore--><rect codeLine="20" fill="#FEFECE" filter="url(#fh5bfamqddc9n)" height="24.96" id="TestStore" style="stroke:#A80036;stroke-width:0.78;" width="44.2" x="4.0092" y="191.62"/><ellipse cx="11.8092" cy="199.94" fill="#ADD1B2" rx="5.72" ry="5.72" style="stroke:#A80036;stroke-width:0.52;"/><path d="M12.8492,198.12 Q12.9548,197.86 13.0767,197.73 Q13.1986,197.6 13.3367,197.6 Q13.5805,197.6 13.7348,197.7463 Q13.8892,197.8925 13.8892,198.2338 L13.8892,199.0463 Q13.8892,199.3875 13.743,199.5338 Q13.5967,199.68 13.3692,199.68 Q13.1661,199.68 13.0361,199.5906 Q12.9061,199.5013 12.8492,199.2656 Q12.8248,199.1031 12.7355,199.0138 Q12.573,198.8431 12.2805,198.7456 Q11.988,198.64 11.6955,198.64 Q11.3298,198.64 11.0211,198.7863 Q10.7205,198.9325 10.4848,199.2575 Q10.2492,199.5825 10.2492,200.0294 L10.2492,200.5088 Q10.2492,201.045 10.688,201.4025 Q11.1267,201.76 11.9067,201.76 Q12.3698,201.76 12.6948,201.6544 Q12.8817,201.5975 13.093,201.4106 Q13.2311,201.305 13.3042,201.2725 Q13.3773,201.24 13.4667,201.24 Q13.6373,201.24 13.7592,201.3781 Q13.8892,201.5081 13.8892,201.695 Q13.8892,201.8738 13.7105,202.085 Q13.4505,202.3938 13.0361,202.5644 Q12.4917,202.8 11.8255,202.8 Q11.0455,202.8 10.4198,202.4913 Q9.9161,202.2475 9.5586,201.7194 Q9.2092,201.1913 9.2092,200.5656 L9.2092,199.9969 Q9.2092,199.3469 9.518,198.7781 Q9.8348,198.2094 10.3792,197.9088 Q10.9317,197.6 11.5492,197.6 Q11.923,197.6 12.248,197.73 Q12.573,197.86 12.8492,198.12 Z " fill="#000000"/><text fill="#000000" font-family="sans-serif" font-size="6.24" lengthAdjust="spacing" textLength="27.56" x="19.0892" y="202.4933">TestStore</text><line style="stroke:#A80036;stroke-width:0.78;" x1="4.5292" x2="47.6892" y1="208.26" y2="208.26"/><line style="stroke:#A80036;stroke-width:0.78;" x1="4.5292" x2="47.6892" y1="212.42" y2="212.42"/><!--MD5=[df38be88ccee13e832d6fafd6288a4ca]
class Test--><rect codeLine="21" fill="#FEFECE" filter="url(#fh5bfamqddc9n)" height="39.3494" id="Test" style="stroke:#A80036;stroke-width:0.78;" width="30.68" x="36.7692" y="275.08"/><ellipse cx="45.2712" cy="283.4" fill="#ADD1B2" rx="5.72" ry="5.72" style="stroke:#A80036;stroke-width:0.52;"/><path d="M46.3112,281.58 Q46.4168,281.32 46.5387,281.19 Q46.6606,281.06 46.7987,281.06 Q47.0424,281.06 47.1968,281.2063 Q47.3512,281.3525 47.3512,281.6938 L47.3512,282.5063 Q47.3512,282.8475 47.205,282.9938 Q47.0587,283.14 46.8312,283.14 Q46.6281,283.14 46.4981,283.0506 Q46.3681,282.9613 46.3112,282.7256 Q46.2868,282.5631 46.1974,282.4738 Q46.0349,282.3031 45.7425,282.2056 Q45.4499,282.1 45.1575,282.1 Q44.7918,282.1 44.4831,282.2463 Q44.1824,282.3925 43.9468,282.7175 Q43.7112,283.0425 43.7112,283.4894 L43.7112,283.9688 Q43.7112,284.505 44.15,284.8625 Q44.5887,285.22 45.3687,285.22 Q45.8318,285.22 46.1568,285.1144 Q46.3437,285.0575 46.555,284.8706 Q46.6931,284.765 46.7662,284.7325 Q46.8393,284.7 46.9287,284.7 Q47.0993,284.7 47.2212,284.8381 Q47.3512,284.9681 47.3512,285.155 Q47.3512,285.3338 47.1725,285.545 Q46.9124,285.8538 46.4981,286.0244 Q45.9537,286.26 45.2874,286.26 Q44.5075,286.26 43.8818,285.9513 Q43.3781,285.7075 43.0206,285.1794 Q42.6712,284.6513 42.6712,284.0256 L42.6712,283.4569 Q42.6712,282.8069 42.9799,282.2381 Q43.2968,281.6694 43.8412,281.3688 Q44.3937,281.06 45.0112,281.06 Q45.3849,281.06 45.7099,281.19 Q46.0349,281.32 46.3112,281.58 Z " fill="#000000"/><text fill="#000000" font-family="sans-serif" font-size="6.24" lengthAdjust="spacing" textLength="12.48" x="52.7072" y="285.9533">Test</text><line style="stroke:#A80036;stroke-width:0.78;" x1="37.2892" x2="66.9292" y1="291.72" y2="291.72"/><text fill="#000000" font-family="sans-serif" font-size="5.72" lengthAdjust="spacing" textLength="24.44" x="39.8892" y="299.7379">-testCode</text><text fill="#000000" font-family="sans-serif" font-size="5.72" lengthAdjust="spacing" textLength="24.44" x="39.8892" y="306.9325">-nhsCode</text><line style="stroke:#A80036;stroke-width:0.78;" x1="37.2892" x2="66.9292" y1="310.2694" y2="310.2694"/><!--MD5=[ed6624c6556d5e7b1bd23032162d20b7]
class Client--><rect codeLine="25" fill="#FEFECE" filter="url(#fh5bfamqddc9n)" height="39.3494" id="Client" style="stroke:#A80036;stroke-width:0.78;" width="39" x="203.1692" y="358.8"/><ellipse cx="213.5432" cy="367.12" fill="#ADD1B2" rx="5.72" ry="5.72" style="stroke:#A80036;stroke-width:0.52;"/><path d="M214.5832,365.3 Q214.6888,365.04 214.8107,364.91 Q214.9326,364.78 215.0707,364.78 Q215.3145,364.78 215.4688,364.9263 Q215.6232,365.0725 215.6232,365.4138 L215.6232,366.2263 Q215.6232,366.5675 215.477,366.7138 Q215.3307,366.86 215.1032,366.86 Q214.9001,366.86 214.7701,366.7706 Q214.6401,366.6813 214.5832,366.4456 Q214.5588,366.2831 214.4695,366.1938 Q214.307,366.0231 214.0144,365.9256 Q213.722,365.82 213.4295,365.82 Q213.0638,365.82 212.7551,365.9663 Q212.4544,366.1125 212.2188,366.4375 Q211.9832,366.7625 211.9832,367.2094 L211.9832,367.6888 Q211.9832,368.225 212.4219,368.5825 Q212.8607,368.94 213.6407,368.94 Q214.1038,368.94 214.4288,368.8344 Q214.6157,368.7775 214.8269,368.5906 Q214.9651,368.485 215.0382,368.4525 Q215.1113,368.42 215.2007,368.42 Q215.3713,368.42 215.4932,368.5581 Q215.6232,368.6881 215.6232,368.875 Q215.6232,369.0538 215.4445,369.265 Q215.1845,369.5738 214.7701,369.7444 Q214.2257,369.98 213.5595,369.98 Q212.7795,369.98 212.1538,369.6713 Q211.6501,369.4275 211.2926,368.8994 Q210.9432,368.3713 210.9432,367.7456 L210.9432,367.1769 Q210.9432,366.5269 211.252,365.9581 Q211.5688,365.3894 212.1132,365.0888 Q212.6657,364.78 213.2832,364.78 Q213.657,364.78 213.9819,364.91 Q214.307,365.04 214.5832,365.3 Z " fill="#000000"/><text fill="#000000" font-family="sans-serif" font-size="6.24" lengthAdjust="spacing" textLength="16.64" x="221.3952" y="369.6733">Client</text><line style="stroke:#A80036;stroke-width:0.78;" x1="203.6892" x2="241.6492" y1="375.44" y2="375.44"/><text fill="#000000" font-family="sans-serif" font-size="5.72" lengthAdjust="spacing" textLength="15.6" x="206.2892" y="383.4579">-name</text><text fill="#000000" font-family="sans-serif" font-size="5.72" lengthAdjust="spacing" textLength="32.76" x="206.2892" y="390.6525">-cardNumber</text><line style="stroke:#A80036;stroke-width:0.78;" x1="203.6892" x2="241.6492" y1="393.9894" y2="393.9894"/><!--MD5=[aeb3272166074d8737a70b61b1e71682]
class TestType--><rect codeLine="29" fill="#FEFECE" filter="url(#fh5bfamqddc9n)" height="46.5441" id="TestType" style="stroke:#A80036;stroke-width:0.78;" width="57.72" x="265.5692" y="271.44"/><ellipse cx="280.1552" cy="279.76" fill="#ADD1B2" rx="5.72" ry="5.72" style="stroke:#A80036;stroke-width:0.52;"/><path d="M281.1952,277.94 Q281.3008,277.68 281.4227,277.55 Q281.5446,277.42 281.6827,277.42 Q281.9265,277.42 282.0808,277.5663 Q282.2352,277.7125 282.2352,278.0538 L282.2352,278.8663 Q282.2352,279.2075 282.089,279.3538 Q281.9427,279.5 281.7152,279.5 Q281.5121,279.5 281.3821,279.4106 Q281.2521,279.3213 281.1952,279.0856 Q281.1708,278.9231 281.0815,278.8338 Q280.919,278.6631 280.6265,278.5656 Q280.334,278.46 280.0415,278.46 Q279.6758,278.46 279.3671,278.6063 Q279.0665,278.7525 278.8308,279.0775 Q278.5952,279.4025 278.5952,279.8494 L278.5952,280.3288 Q278.5952,280.865 279.034,281.2225 Q279.4727,281.58 280.2527,281.58 Q280.7158,281.58 281.0408,281.4744 Q281.2277,281.4175 281.439,281.2306 Q281.5771,281.125 281.6502,281.0925 Q281.7233,281.06 281.8127,281.06 Q281.9833,281.06 282.1052,281.1981 Q282.2352,281.3281 282.2352,281.515 Q282.2352,281.6938 282.0565,281.905 Q281.7965,282.2138 281.3821,282.3844 Q280.8377,282.62 280.1715,282.62 Q279.3915,282.62 278.7658,282.3113 Q278.2621,282.0675 277.9046,281.5394 Q277.5552,281.0113 277.5552,280.3856 L277.5552,279.8169 Q277.5552,279.1669 277.864,278.5981 Q278.1808,278.0294 278.7252,277.7288 Q279.2777,277.42 279.8952,277.42 Q280.269,277.42 280.594,277.55 Q280.919,277.68 281.1952,277.94 Z " fill="#000000"/><text fill="#000000" font-family="sans-serif" font-size="6.24" lengthAdjust="spacing" textLength="26" x="288.9432" y="282.3133">TestType</text><line style="stroke:#A80036;stroke-width:0.78;" x1="266.0892" x2="322.7692" y1="288.08" y2="288.08"/><text fill="#000000" font-family="sans-serif" font-size="5.72" lengthAdjust="spacing" textLength="14.56" x="268.6892" y="296.0979">-code</text><text fill="#000000" font-family="sans-serif" font-size="5.72" lengthAdjust="spacing" textLength="29.64" x="268.6892" y="303.2925">-description</text><line style="stroke:#A80036;stroke-width:0.78;" x1="266.0892" x2="322.7692" y1="306.6294" y2="306.6294"/><text fill="#000000" font-family="sans-serif" font-size="5.72" lengthAdjust="spacing" textLength="51.48" x="268.6892" y="314.6472">+getCategoryStore()</text><!--MD5=[1f6362a5c8f21d8d6a0fce68f3a92a4e]
class Parameter--><rect codeLine="34" fill="#FEFECE" filter="url(#fh5bfamqddc9n)" height="46.5441" id="Parameter" style="stroke:#A80036;stroke-width:0.78;" width="46.8" x="301.7092" y="438.88"/><ellipse cx="309.5092" cy="447.2" fill="#ADD1B2" rx="5.72" ry="5.72" style="stroke:#A80036;stroke-width:0.52;"/><path d="M310.5492,445.38 Q310.6548,445.12 310.7767,444.99 Q310.8986,444.86 311.0367,444.86 Q311.2805,444.86 311.4348,445.0063 Q311.5892,445.1525 311.5892,445.4938 L311.5892,446.3063 Q311.5892,446.6475 311.443,446.7938 Q311.2967,446.94 311.0692,446.94 Q310.8661,446.94 310.7361,446.8506 Q310.6061,446.7613 310.5492,446.5256 Q310.5248,446.3631 310.4355,446.2738 Q310.273,446.1031 309.9805,446.0056 Q309.688,445.9 309.3955,445.9 Q309.0298,445.9 308.7211,446.0463 Q308.4205,446.1925 308.1848,446.5175 Q307.9492,446.8425 307.9492,447.2894 L307.9492,447.7688 Q307.9492,448.305 308.388,448.6625 Q308.8267,449.02 309.6067,449.02 Q310.0698,449.02 310.3948,448.9144 Q310.5817,448.8575 310.793,448.6706 Q310.9311,448.565 311.0042,448.5325 Q311.0773,448.5 311.1667,448.5 Q311.3373,448.5 311.4592,448.6381 Q311.5892,448.7681 311.5892,448.955 Q311.5892,449.1338 311.4105,449.345 Q311.1505,449.6538 310.7361,449.8244 Q310.1917,450.06 309.5255,450.06 Q308.7455,450.06 308.1198,449.7513 Q307.6161,449.5075 307.2586,448.9794 Q306.9092,448.4513 306.9092,447.8256 L306.9092,447.2569 Q306.9092,446.6069 307.218,446.0381 Q307.5348,445.4694 308.0792,445.1688 Q308.6317,444.86 309.2492,444.86 Q309.623,444.86 309.948,444.99 Q310.273,445.12 310.5492,445.38 Z " fill="#000000"/><text fill="#000000" font-family="sans-serif" font-size="6.24" lengthAdjust="spacing" textLength="30.16" x="316.7892" y="449.7533">Parameter</text><line style="stroke:#A80036;stroke-width:0.78;" x1="302.2292" x2="347.9892" y1="455.52" y2="455.52"/><text fill="#000000" font-family="sans-serif" font-size="5.72" lengthAdjust="spacing" textLength="14.56" x="304.8292" y="463.5379">-code</text><text fill="#000000" font-family="sans-serif" font-size="5.72" lengthAdjust="spacing" textLength="29.12" x="304.8292" y="470.7325">-shortName</text><text fill="#000000" font-family="sans-serif" font-size="5.72" lengthAdjust="spacing" textLength="29.64" x="304.8292" y="477.9272">-description</text><line style="stroke:#A80036;stroke-width:0.78;" x1="302.2292" x2="347.9892" y1="481.2641" y2="481.2641"/><!--MD5=[a96594a83e2ecdc78cbf17c2ddf01934]
class Category--><rect codeLine="39" fill="#FEFECE" filter="url(#fh5bfamqddc9n)" height="53.7388" id="Category" style="stroke:#A80036;stroke-width:0.78;" width="60.32" x="460.3092" y="526.24"/><ellipse cx="476.2992" cy="534.56" fill="#ADD1B2" rx="5.72" ry="5.72" style="stroke:#A80036;stroke-width:0.52;"/><path d="M477.3392,532.74 Q477.4448,532.48 477.5667,532.35 Q477.6886,532.22 477.8267,532.22 Q478.0705,532.22 478.2248,532.3663 Q478.3792,532.5125 478.3792,532.8538 L478.3792,533.6663 Q478.3792,534.0075 478.233,534.1538 Q478.0867,534.3 477.8592,534.3 Q477.6561,534.3 477.5261,534.2106 Q477.3961,534.1213 477.3392,533.8856 Q477.3148,533.7231 477.2255,533.6338 Q477.063,533.4631 476.7705,533.3656 Q476.478,533.26 476.1855,533.26 Q475.8198,533.26 475.5111,533.4063 Q475.2105,533.5525 474.9748,533.8775 Q474.7392,534.2025 474.7392,534.6494 L474.7392,535.1288 Q474.7392,535.665 475.178,536.0225 Q475.6167,536.38 476.3967,536.38 Q476.8598,536.38 477.1848,536.2744 Q477.3717,536.2175 477.583,536.0306 Q477.7211,535.925 477.7942,535.8925 Q477.8673,535.86 477.9567,535.86 Q478.1273,535.86 478.2492,535.9981 Q478.3792,536.1281 478.3792,536.315 Q478.3792,536.4938 478.2005,536.705 Q477.9405,537.0138 477.5261,537.1844 Q476.9817,537.42 476.3155,537.42 Q475.5355,537.42 474.9098,537.1113 Q474.4061,536.8675 474.0486,536.3394 Q473.6992,535.8113 473.6992,535.1856 L473.6992,534.6169 Q473.6992,533.9669 474.008,533.3981 Q474.3248,532.8294 474.8692,532.5288 Q475.4217,532.22 476.0392,532.22 Q476.413,532.22 476.738,532.35 Q477.063,532.48 477.3392,532.74 Z " fill="#000000"/><text fill="#000000" font-family="sans-serif" font-size="6.24" lengthAdjust="spacing" textLength="25.48" x="485.3992" y="537.1133">Category</text><line style="stroke:#A80036;stroke-width:0.78;" x1="460.8292" x2="520.1092" y1="542.88" y2="542.88"/><text fill="#000000" font-family="sans-serif" font-size="5.72" lengthAdjust="spacing" textLength="14.56" x="463.4292" y="550.8979">-code</text><text fill="#000000" font-family="sans-serif" font-size="5.72" lengthAdjust="spacing" textLength="29.64" x="463.4292" y="558.0925">-description</text><text fill="#000000" font-family="sans-serif" font-size="5.72" lengthAdjust="spacing" textLength="16.12" x="463.4292" y="565.2872">-nhsID</text><line style="stroke:#A80036;stroke-width:0.78;" x1="460.8292" x2="520.1092" y1="568.6241" y2="568.6241"/><text fill="#000000" font-family="sans-serif" font-size="5.72" lengthAdjust="spacing" textLength="54.08" x="463.4292" y="576.6419">+getParameterStore()</text><!--MD5=[697f9e11933e18eed695718a14fb2495]
class TestTypeListDTO--><rect codeLine="45" fill="#FEFECE" filter="url(#fh5bfamqddc9n)" height="24.96" id="TestTypeListDTO" style="stroke:#A80036;stroke-width:0.78;" width="66.04" x="168.8492" y="102.7"/><ellipse cx="176.6492" cy="111.02" fill="#ADD1B2" rx="5.72" ry="5.72" style="stroke:#A80036;stroke-width:0.52;"/><path d="M177.6892,109.2 Q177.7948,108.94 177.9167,108.81 Q178.0386,108.68 178.1767,108.68 Q178.4205,108.68 178.5748,108.8263 Q178.7292,108.9725 178.7292,109.3138 L178.7292,110.1263 Q178.7292,110.4675 178.5829,110.6138 Q178.4367,110.76 178.2092,110.76 Q178.0061,110.76 177.8761,110.6706 Q177.7461,110.5813 177.6892,110.3456 Q177.6648,110.1831 177.5755,110.0938 Q177.413,109.9231 177.1205,109.8256 Q176.828,109.72 176.5355,109.72 Q176.1698,109.72 175.8611,109.8663 Q175.5605,110.0125 175.3248,110.3375 Q175.0892,110.6625 175.0892,111.1094 L175.0892,111.5888 Q175.0892,112.125 175.528,112.4825 Q175.9667,112.84 176.7467,112.84 Q177.2098,112.84 177.5348,112.7344 Q177.7217,112.6775 177.933,112.4906 Q178.0711,112.385 178.1442,112.3525 Q178.2173,112.32 178.3067,112.32 Q178.4773,112.32 178.5992,112.4581 Q178.7292,112.5881 178.7292,112.775 Q178.7292,112.9538 178.5504,113.165 Q178.2905,113.4738 177.8761,113.6444 Q177.3317,113.88 176.6655,113.88 Q175.8855,113.88 175.2598,113.5713 Q174.7561,113.3275 174.3986,112.7994 Q174.0492,112.2713 174.0492,111.6456 L174.0492,111.0769 Q174.0492,110.4269 174.358,109.8581 Q174.6748,109.2894 175.2192,108.9888 Q175.7717,108.68 176.3892,108.68 Q176.763,108.68 177.088,108.81 Q177.413,108.94 177.6892,109.2 Z " fill="#000000"/><text fill="#000000" font-family="sans-serif" font-size="6.24" lengthAdjust="spacing" textLength="49.4" x="183.9292" y="113.5733">TestTypeListDTO</text><line style="stroke:#A80036;stroke-width:0.78;" x1="169.3692" x2="234.3692" y1="119.34" y2="119.34"/><line style="stroke:#A80036;stroke-width:0.78;" x1="169.3692" x2="234.3692" y1="123.5" y2="123.5"/><!--MD5=[ab15b0bb48dee63195016dbc4ad3acd2]
class TestTypeListMapper--><rect codeLine="46" fill="#FEFECE" filter="url(#fh5bfamqddc9n)" height="32.1547" id="TestTypeListMapper" style="stroke:#A80036;stroke-width:0.78;" width="74.36" x="212.0092" y="187.98"/><ellipse cx="219.8092" cy="196.3" fill="#ADD1B2" rx="5.72" ry="5.72" style="stroke:#A80036;stroke-width:0.52;"/><path d="M220.8492,194.48 Q220.9548,194.22 221.0767,194.09 Q221.1986,193.96 221.3367,193.96 Q221.5804,193.96 221.7348,194.1063 Q221.8892,194.2525 221.8892,194.5938 L221.8892,195.4063 Q221.8892,195.7475 221.743,195.8938 Q221.5967,196.04 221.3692,196.04 Q221.1661,196.04 221.0361,195.9506 Q220.9061,195.8613 220.8492,195.6256 Q220.8248,195.4631 220.7355,195.3738 Q220.573,195.2031 220.2805,195.1056 Q219.9879,195 219.6955,195 Q219.3298,195 219.0211,195.1463 Q218.7205,195.2925 218.4848,195.6175 Q218.2492,195.9425 218.2492,196.3894 L218.2492,196.8688 Q218.2492,197.405 218.688,197.7625 Q219.1267,198.12 219.9067,198.12 Q220.3698,198.12 220.6948,198.0144 Q220.8817,197.9575 221.093,197.7706 Q221.2311,197.665 221.3042,197.6325 Q221.3773,197.6 221.4667,197.6 Q221.6373,197.6 221.7592,197.7381 Q221.8892,197.8681 221.8892,198.055 Q221.8892,198.2338 221.7105,198.445 Q221.4505,198.7538 221.0361,198.9244 Q220.4917,199.16 219.8255,199.16 Q219.0455,199.16 218.4198,198.8513 Q217.9161,198.6075 217.5586,198.0794 Q217.2092,197.5513 217.2092,196.9256 L217.2092,196.3569 Q217.2092,195.7069 217.5179,195.1381 Q217.8348,194.5694 218.3792,194.2688 Q218.9317,193.96 219.5492,193.96 Q219.923,193.96 220.248,194.09 Q220.573,194.22 220.8492,194.48 Z " fill="#000000"/><text fill="#000000" font-family="sans-serif" font-size="6.24" lengthAdjust="spacing" textLength="57.72" x="227.0892" y="198.8533">TestTypeListMapper</text><line style="stroke:#A80036;stroke-width:0.78;" x1="212.5292" x2="285.8492" y1="204.62" y2="204.62"/><line style="stroke:#A80036;stroke-width:0.78;" x1="212.5292" x2="285.8492" y1="208.78" y2="208.78"/><text fill="#000000" font-family="sans-serif" font-size="5.72" lengthAdjust="spacing" textLength="47.84" x="215.1292" y="216.7979">toDto(testTypeList)</text><!--MD5=[72095866668eec158ea0ef430e17e32d]
class TestCategoryListDTO--><rect codeLine="49" fill="#FEFECE" filter="url(#fh5bfamqddc9n)" height="24.96" id="TestCategoryListDTO" style="stroke:#A80036;stroke-width:0.78;" width="78" x="514.3892" y="44.2"/><ellipse cx="522.1892" cy="52.52" fill="#ADD1B2" rx="5.72" ry="5.72" style="stroke:#A80036;stroke-width:0.52;"/><path d="M523.2292,50.7 Q523.3348,50.44 523.4567,50.31 Q523.5786,50.18 523.7167,50.18 Q523.9605,50.18 524.1148,50.3263 Q524.2692,50.4725 524.2692,50.8138 L524.2692,51.6263 Q524.2692,51.9675 524.123,52.1138 Q523.9767,52.26 523.7492,52.26 Q523.5461,52.26 523.4161,52.1706 Q523.2861,52.0813 523.2292,51.8456 Q523.2048,51.6831 523.1155,51.5938 Q522.953,51.4231 522.6605,51.3256 Q522.368,51.22 522.0755,51.22 Q521.7098,51.22 521.4011,51.3663 Q521.1005,51.5125 520.8648,51.8375 Q520.6292,52.1625 520.6292,52.6094 L520.6292,53.0888 Q520.6292,53.625 521.068,53.9825 Q521.5067,54.34 522.2867,54.34 Q522.7498,54.34 523.0748,54.2344 Q523.2617,54.1775 523.473,53.9906 Q523.6111,53.885 523.6842,53.8525 Q523.7573,53.82 523.8467,53.82 Q524.0173,53.82 524.1392,53.9581 Q524.2692,54.0881 524.2692,54.275 Q524.2692,54.4538 524.0905,54.665 Q523.8305,54.9738 523.4161,55.1444 Q522.8717,55.38 522.2055,55.38 Q521.4255,55.38 520.7998,55.0713 Q520.2961,54.8275 519.9386,54.2994 Q519.5892,53.7713 519.5892,53.1456 L519.5892,52.5769 Q519.5892,51.9269 519.898,51.3581 Q520.2148,50.7894 520.7592,50.4888 Q521.3117,50.18 521.9292,50.18 Q522.303,50.18 522.628,50.31 Q522.953,50.44 523.2292,50.7 Z " fill="#000000"/><text fill="#000000" font-family="sans-serif" font-size="6.24" lengthAdjust="spacing" textLength="61.36" x="529.4692" y="55.0733">TestCategoryListDTO</text><line style="stroke:#A80036;stroke-width:0.78;" x1="514.9092" x2="591.8692" y1="60.84" y2="60.84"/><line style="stroke:#A80036;stroke-width:0.78;" x1="514.9092" x2="591.8692" y1="65" y2="65"/><!--MD5=[0ec916e2f0bdcf552ca65805d6b76b83]
class TestCategoryListMapper--><rect codeLine="50" fill="#FEFECE" filter="url(#fh5bfamqddc9n)" height="32.1547" id="TestCategoryListMapper" style="stroke:#A80036;stroke-width:0.78;" width="86.32" x="518.0292" y="187.98"/><ellipse cx="525.8292" cy="196.3" fill="#ADD1B2" rx="5.72" ry="5.72" style="stroke:#A80036;stroke-width:0.52;"/><path d="M526.8692,194.48 Q526.9748,194.22 527.0967,194.09 Q527.2186,193.96 527.3567,193.96 Q527.6005,193.96 527.7548,194.1063 Q527.9092,194.2525 527.9092,194.5938 L527.9092,195.4063 Q527.9092,195.7475 527.763,195.8938 Q527.6167,196.04 527.3892,196.04 Q527.1861,196.04 527.0561,195.9506 Q526.9261,195.8613 526.8692,195.6256 Q526.8448,195.4631 526.7555,195.3738 Q526.593,195.2031 526.3005,195.1056 Q526.008,195 525.7155,195 Q525.3498,195 525.0411,195.1463 Q524.7405,195.2925 524.5048,195.6175 Q524.2692,195.9425 524.2692,196.3894 L524.2692,196.8688 Q524.2692,197.405 524.708,197.7625 Q525.1467,198.12 525.9267,198.12 Q526.3898,198.12 526.7148,198.0144 Q526.9017,197.9575 527.113,197.7706 Q527.2511,197.665 527.3242,197.6325 Q527.3973,197.6 527.4867,197.6 Q527.6573,197.6 527.7792,197.7381 Q527.9092,197.8681 527.9092,198.055 Q527.9092,198.2338 527.7305,198.445 Q527.4705,198.7538 527.0561,198.9244 Q526.5117,199.16 525.8455,199.16 Q525.0655,199.16 524.4398,198.8513 Q523.9361,198.6075 523.5786,198.0794 Q523.2292,197.5513 523.2292,196.9256 L523.2292,196.3569 Q523.2292,195.7069 523.538,195.1381 Q523.8548,194.5694 524.3992,194.2688 Q524.9517,193.96 525.5692,193.96 Q525.943,193.96 526.268,194.09 Q526.593,194.22 526.8692,194.48 Z " fill="#000000"/><text fill="#000000" font-family="sans-serif" font-size="6.24" lengthAdjust="spacing" textLength="69.68" x="533.1092" y="198.8533">TestCategoryListMapper</text><line style="stroke:#A80036;stroke-width:0.78;" x1="518.5492" x2="603.8292" y1="204.62" y2="204.62"/><line style="stroke:#A80036;stroke-width:0.78;" x1="518.5492" x2="603.8292" y1="208.78" y2="208.78"/><text fill="#000000" font-family="sans-serif" font-size="5.72" lengthAdjust="spacing" textLength="58.24" x="521.1492" y="216.7979">toDto(testCategoryList)</text><!--MD5=[77cd0d232cb0916388eba2b410e3de64]
class TestParametersDTO--><rect codeLine="53" fill="#FEFECE" filter="url(#fh5bfamqddc9n)" height="24.96" id="TestParametersDTO" style="stroke:#A80036;stroke-width:0.78;" width="75.92" x="406.7492" y="44.2"/><ellipse cx="414.5492" cy="52.52" fill="#ADD1B2" rx="5.72" ry="5.72" style="stroke:#A80036;stroke-width:0.52;"/><path d="M415.5892,50.7 Q415.6948,50.44 415.8167,50.31 Q415.9386,50.18 416.0767,50.18 Q416.3205,50.18 416.4748,50.3263 Q416.6292,50.4725 416.6292,50.8138 L416.6292,51.6263 Q416.6292,51.9675 416.483,52.1138 Q416.3367,52.26 416.1092,52.26 Q415.9061,52.26 415.7761,52.1706 Q415.6461,52.0813 415.5892,51.8456 Q415.5648,51.6831 415.4755,51.5938 Q415.313,51.4231 415.0205,51.3256 Q414.728,51.22 414.4355,51.22 Q414.0698,51.22 413.7611,51.3663 Q413.4605,51.5125 413.2248,51.8375 Q412.9892,52.1625 412.9892,52.6094 L412.9892,53.0888 Q412.9892,53.625 413.428,53.9825 Q413.8667,54.34 414.6467,54.34 Q415.1098,54.34 415.4348,54.2344 Q415.6217,54.1775 415.833,53.9906 Q415.9711,53.885 416.0442,53.8525 Q416.1173,53.82 416.2067,53.82 Q416.3773,53.82 416.4992,53.9581 Q416.6292,54.0881 416.6292,54.275 Q416.6292,54.4538 416.4505,54.665 Q416.1905,54.9738 415.7761,55.1444 Q415.2317,55.38 414.5655,55.38 Q413.7855,55.38 413.1598,55.0713 Q412.6561,54.8275 412.2986,54.2994 Q411.9492,53.7713 411.9492,53.1456 L411.9492,52.5769 Q411.9492,51.9269 412.258,51.3581 Q412.5748,50.7894 413.1192,50.4888 Q413.6717,50.18 414.2892,50.18 Q414.663,50.18 414.988,50.31 Q415.313,50.44 415.5892,50.7 Z " fill="#000000"/><text fill="#000000" font-family="sans-serif" font-size="6.24" lengthAdjust="spacing" textLength="59.28" x="421.8292" y="55.0733">TestParametersDTO</text><line style="stroke:#A80036;stroke-width:0.78;" x1="407.2692" x2="482.1492" y1="60.84" y2="60.84"/><line style="stroke:#A80036;stroke-width:0.78;" x1="407.2692" x2="482.1492" y1="65" y2="65"/><!--MD5=[f3a4b9230fb72f756384784813553363]
class TestParametersMapper--><rect codeLine="54" fill="#FEFECE" filter="url(#fh5bfamqddc9n)" height="32.1547" id="TestParametersMapper" style="stroke:#A80036;stroke-width:0.78;" width="84.24" x="378.6692" y="187.98"/><ellipse cx="386.4692" cy="196.3" fill="#ADD1B2" rx="5.72" ry="5.72" style="stroke:#A80036;stroke-width:0.52;"/><path d="M387.5092,194.48 Q387.6148,194.22 387.7367,194.09 Q387.8586,193.96 387.9967,193.96 Q388.2405,193.96 388.3948,194.1063 Q388.5492,194.2525 388.5492,194.5938 L388.5492,195.4063 Q388.5492,195.7475 388.403,195.8938 Q388.2567,196.04 388.0292,196.04 Q387.8261,196.04 387.6961,195.9506 Q387.5661,195.8613 387.5092,195.6256 Q387.4848,195.4631 387.3955,195.3738 Q387.233,195.2031 386.9405,195.1056 Q386.648,195 386.3555,195 Q385.9898,195 385.6811,195.1463 Q385.3805,195.2925 385.1448,195.6175 Q384.9092,195.9425 384.9092,196.3894 L384.9092,196.8688 Q384.9092,197.405 385.348,197.7625 Q385.7867,198.12 386.5667,198.12 Q387.0298,198.12 387.3548,198.0144 Q387.5417,197.9575 387.753,197.7706 Q387.8911,197.665 387.9642,197.6325 Q388.0373,197.6 388.1267,197.6 Q388.2973,197.6 388.4192,197.7381 Q388.5492,197.8681 388.5492,198.055 Q388.5492,198.2338 388.3705,198.445 Q388.1105,198.7538 387.6961,198.9244 Q387.1517,199.16 386.4855,199.16 Q385.7055,199.16 385.0798,198.8513 Q384.5761,198.6075 384.2186,198.0794 Q383.8692,197.5513 383.8692,196.9256 L383.8692,196.3569 Q383.8692,195.7069 384.178,195.1381 Q384.4948,194.5694 385.0392,194.2688 Q385.5917,193.96 386.2092,193.96 Q386.583,193.96 386.908,194.09 Q387.233,194.22 387.5092,194.48 Z " fill="#000000"/><text fill="#000000" font-family="sans-serif" font-size="6.24" lengthAdjust="spacing" textLength="67.6" x="393.7492" y="198.8533">TestParametersMapper</text><line style="stroke:#A80036;stroke-width:0.78;" x1="379.1892" x2="462.3892" y1="204.62" y2="204.62"/><line style="stroke:#A80036;stroke-width:0.78;" x1="379.1892" x2="462.3892" y1="208.78" y2="208.78"/><text fill="#000000" font-family="sans-serif" font-size="5.72" lengthAdjust="spacing" textLength="60.84" x="381.7892" y="216.7979">toDto(testParameterList)</text><!--MD5=[55cb992be19579b505cea3c5691093cb]
class ClientStore--><rect codeLine="57" fill="#FEFECE" filter="url(#fh5bfamqddc9n)" height="24.96" id="ClientStore" style="stroke:#A80036;stroke-width:0.78;" width="48.36" x="161.5692" y="282.36"/><ellipse cx="169.3692" cy="290.68" fill="#ADD1B2" rx="5.72" ry="5.72" style="stroke:#A80036;stroke-width:0.52;"/><path d="M170.4092,288.86 Q170.5148,288.6 170.6367,288.47 Q170.7586,288.34 170.8967,288.34 Q171.1405,288.34 171.2948,288.4863 Q171.4492,288.6325 171.4492,288.9738 L171.4492,289.7863 Q171.4492,290.1275 171.3029,290.2738 Q171.1567,290.42 170.9292,290.42 Q170.7261,290.42 170.5961,290.3306 Q170.4661,290.2413 170.4092,290.0056 Q170.3848,289.8431 170.2955,289.7538 Q170.133,289.5831 169.8405,289.4856 Q169.548,289.38 169.2555,289.38 Q168.8898,289.38 168.5811,289.5263 Q168.2805,289.6725 168.0448,289.9975 Q167.8092,290.3225 167.8092,290.7694 L167.8092,291.2488 Q167.8092,291.785 168.248,292.1425 Q168.6867,292.5 169.4667,292.5 Q169.9298,292.5 170.2548,292.3944 Q170.4417,292.3375 170.653,292.1506 Q170.7911,292.045 170.8642,292.0125 Q170.9373,291.98 171.0267,291.98 Q171.1973,291.98 171.3192,292.1181 Q171.4492,292.2481 171.4492,292.435 Q171.4492,292.6138 171.2704,292.825 Q171.0105,293.1338 170.5961,293.3044 Q170.0517,293.54 169.3855,293.54 Q168.6055,293.54 167.9798,293.2313 Q167.4761,292.9875 167.1186,292.4594 Q166.7692,291.9313 166.7692,291.3056 L166.7692,290.7369 Q166.7692,290.0869 167.078,289.5181 Q167.3948,288.9494 167.9392,288.6488 Q168.4917,288.34 169.1092,288.34 Q169.483,288.34 169.808,288.47 Q170.133,288.6 170.4092,288.86 Z " fill="#000000"/><text fill="#000000" font-family="sans-serif" font-size="6.24" lengthAdjust="spacing" textLength="31.72" x="176.6492" y="293.2333">ClientStore</text><line style="stroke:#A80036;stroke-width:0.78;" x1="162.0892" x2="209.4092" y1="299" y2="299"/><line style="stroke:#A80036;stroke-width:0.78;" x1="162.0892" x2="209.4092" y1="303.16" y2="303.16"/><!--MD5=[6ba72ddf03822b91e8d41ca71de58ed3]
class TestTypeStore--><rect codeLine="58" fill="#FEFECE" filter="url(#fh5bfamqddc9n)" height="24.96" id="TestTypeStore" style="stroke:#A80036;stroke-width:0.78;" width="57.72" x="85.6492" y="282.36"/><ellipse cx="93.4492" cy="290.68" fill="#ADD1B2" rx="5.72" ry="5.72" style="stroke:#A80036;stroke-width:0.52;"/><path d="M94.4892,288.86 Q94.5948,288.6 94.7167,288.47 Q94.8386,288.34 94.9767,288.34 Q95.2205,288.34 95.3748,288.4863 Q95.5292,288.6325 95.5292,288.9738 L95.5292,289.7863 Q95.5292,290.1275 95.383,290.2738 Q95.2367,290.42 95.0092,290.42 Q94.8061,290.42 94.6761,290.3306 Q94.5461,290.2413 94.4892,290.0056 Q94.4648,289.8431 94.3755,289.7538 Q94.213,289.5831 93.9205,289.4856 Q93.628,289.38 93.3355,289.38 Q92.9698,289.38 92.6611,289.5263 Q92.3605,289.6725 92.1248,289.9975 Q91.8892,290.3225 91.8892,290.7694 L91.8892,291.2488 Q91.8892,291.785 92.328,292.1425 Q92.7667,292.5 93.5467,292.5 Q94.0098,292.5 94.3348,292.3944 Q94.5217,292.3375 94.733,292.1506 Q94.8711,292.045 94.9442,292.0125 Q95.0173,291.98 95.1067,291.98 Q95.2773,291.98 95.3992,292.1181 Q95.5292,292.2481 95.5292,292.435 Q95.5292,292.6138 95.3505,292.825 Q95.0905,293.1338 94.6761,293.3044 Q94.1317,293.54 93.4655,293.54 Q92.6855,293.54 92.0598,293.2313 Q91.5561,292.9875 91.1986,292.4594 Q90.8492,291.9313 90.8492,291.3056 L90.8492,290.7369 Q90.8492,290.0869 91.158,289.5181 Q91.4748,288.9494 92.0192,288.6488 Q92.5717,288.34 93.1892,288.34 Q93.563,288.34 93.888,288.47 Q94.213,288.6 94.4892,288.86 Z " fill="#000000"/><text fill="#000000" font-family="sans-serif" font-size="6.24" lengthAdjust="spacing" textLength="41.08" x="100.7292" y="293.2333">TestTypeStore</text><line style="stroke:#A80036;stroke-width:0.78;" x1="86.1692" x2="142.8492" y1="299" y2="299"/><line style="stroke:#A80036;stroke-width:0.78;" x1="86.1692" x2="142.8492" y1="303.16" y2="303.16"/><!--MD5=[0f07739f46effee96e095e9c408da841]
class TestParameter--><rect fill="#FEFECE" filter="url(#fh5bfamqddc9n)" height="24.96" id="TestParameter" style="stroke:#A80036;stroke-width:0.78;" width="59.28" x="117.6292" y="366.08"/><ellipse cx="125.4292" cy="374.4" fill="#ADD1B2" rx="5.72" ry="5.72" style="stroke:#A80036;stroke-width:0.52;"/><path d="M126.4692,372.58 Q126.5748,372.32 126.6967,372.19 Q126.8186,372.06 126.9567,372.06 Q127.2005,372.06 127.3548,372.2063 Q127.5092,372.3525 127.5092,372.6938 L127.5092,373.5063 Q127.5092,373.8475 127.363,373.9938 Q127.2167,374.14 126.9892,374.14 Q126.7861,374.14 126.6561,374.0506 Q126.5261,373.9613 126.4692,373.7256 Q126.4448,373.5631 126.3555,373.4738 Q126.193,373.3031 125.9005,373.2056 Q125.608,373.1 125.3155,373.1 Q124.9498,373.1 124.6411,373.2463 Q124.3405,373.3925 124.1048,373.7175 Q123.8692,374.0425 123.8692,374.4894 L123.8692,374.9688 Q123.8692,375.505 124.308,375.8625 Q124.7467,376.22 125.5267,376.22 Q125.9898,376.22 126.3148,376.1144 Q126.5017,376.0575 126.713,375.8706 Q126.8511,375.765 126.9242,375.7325 Q126.9973,375.7 127.0867,375.7 Q127.2573,375.7 127.3792,375.8381 Q127.5092,375.9681 127.5092,376.155 Q127.5092,376.3338 127.3305,376.545 Q127.0705,376.8538 126.6561,377.0244 Q126.1117,377.26 125.4455,377.26 Q124.6655,377.26 124.0398,376.9513 Q123.5361,376.7075 123.1786,376.1794 Q122.8292,375.6513 122.8292,375.0256 L122.8292,374.4569 Q122.8292,373.8069 123.138,373.2381 Q123.4548,372.6694 123.9992,372.3688 Q124.5517,372.06 125.1692,372.06 Q125.543,372.06 125.868,372.19 Q126.193,372.32 126.4692,372.58 Z " fill="#000000"/><text fill="#000000" font-family="sans-serif" font-size="6.24" lengthAdjust="spacing" textLength="42.64" x="132.7092" y="376.9533">TestParameter</text><line style="stroke:#A80036;stroke-width:0.78;" x1="118.1492" x2="176.3892" y1="382.72" y2="382.72"/><line style="stroke:#A80036;stroke-width:0.78;" x1="118.1492" x2="176.3892" y1="386.88" y2="386.88"/><ellipse cx="98.3892" cy="378.56" fill="#000000" rx="1.04" ry="1.04" style="stroke:none;stroke-width:0.52;"/><!--MD5=[5b7a9ded131023be416e27d15bcd6d77]
link TestType to Parameter--><path codeLine="62" d="M298.662,318.3232 C304.5172,350.064 315.016,407.0092 320.8712,438.7656 " fill="none" id="TestType-Parameter" style="stroke:#A80036;stroke-width:0.52;"/><polygon fill="#000000" points="316.2207,381.2083,316.8707,376.3057,313.8649,376.86,316.2207,381.2083" style="stroke:#000000;stroke-width:0.52;"/><text fill="#000000" font-family="sans-serif" font-size="6.76" lengthAdjust="spacing" textLength="10.92" x="320.4292" y="381.4175">has</text><text fill="#000000" font-family="sans-serif" font-size="6.76" lengthAdjust="spacing" textLength="3.64" x="295.3462" y="329.0847">1</text><text fill="#000000" font-family="sans-serif" font-size="6.76" lengthAdjust="spacing" textLength="10.4" x="309.026" y="433.259">1..*</text><!--MD5=[3994f36c72829dbcddd1cf7021dddf61]
link Test to Client--><path codeLine="63" d="M67.5688,312.1196 C70.3664,314.4544 73.4032,316.6072 76.5492,318.24 C106.7196,333.9076 119.8652,321.2196 151.4292,333.84 C170.0816,341.2968 189.3268,353.5584 203.1016,363.2772 " fill="none" id="Test-Client" style="stroke:#A80036;stroke-width:0.52;"/><polygon fill="#000000" points="175.1817,339.5296,171.321,336.4388,170.2416,339.2984,175.1817,339.5296" style="stroke:#000000;stroke-width:0.52;"/><text fill="#000000" font-family="sans-serif" font-size="6.76" lengthAdjust="spacing" textLength="39" x="177.4292" y="341.3775">requested by</text><text fill="#000000" font-family="sans-serif" font-size="6.76" lengthAdjust="spacing" textLength="2.6" x="71.654" y="314.058">*</text><text fill="#000000" font-family="sans-serif" font-size="6.76" lengthAdjust="spacing" textLength="3.64" x="195.3846" y="358.3021">1</text><!--MD5=[7e4bc624457760b649895ff2ead938fa]
link Company to Test--><path codeLine="64" d="M91.6864,230.932 C87.0896,235.898 82.5448,241.1968 78.6292,246.48 C72.0668,255.3304 66.0088,265.98 61.3444,274.9864 " fill="none" id="Company-Test" style="stroke:#A80036;stroke-width:0.52;"/><polygon fill="#000000" points="79.7544,253.3927,83.6809,250.3859,81.1637,248.6522,79.7544,253.3927" style="stroke:#000000;stroke-width:0.52;"/><text fill="#000000" font-family="sans-serif" font-size="6.76" lengthAdjust="spacing" textLength="26" x="85.9092" y="254.0175">performs</text><text fill="#000000" font-family="sans-serif" font-size="6.76" lengthAdjust="spacing" textLength="3.64" x="83.9229" y="242.308">1</text><text fill="#000000" font-family="sans-serif" font-size="6.76" lengthAdjust="spacing" textLength="2.6" x="60.1579" y="269.4379">*</text><!--MD5=[e981d4f96c4342412d1e68160b30cf70]
link Test to TestType--><path codeLine="65" d="M67.4648,277.9504 C70.2936,275.5012 73.3668,273.2132 76.5492,271.44 C103.7608,256.2456 113.4952,257.7224 144.4092,253.76 C192.1556,247.6396 206.0344,254.9716 251.2692,271.44 C255.996,273.1612 260.832,275.3296 265.486,277.654 " fill="none" id="Test-TestType" style="stroke:#A80036;stroke-width:0.52;"/><polygon fill="#000000" points="149.6092,251.2475,144.9035,249.7263,144.908,252.7828,149.6092,251.2475" style="stroke:#000000;stroke-width:0.52;"/><text fill="#000000" font-family="sans-serif" font-size="6.76" lengthAdjust="spacing" textLength="12.48" x="151.6892" y="254.0175">is of</text><text fill="#000000" font-family="sans-serif" font-size="6.76" lengthAdjust="spacing" textLength="2.6" x="71.5246" y="271.5601">*</text><text fill="#000000" font-family="sans-serif" font-size="6.76" lengthAdjust="spacing" textLength="3.64" x="257.7122" y="273.5126">1</text><!--MD5=[852f3a1b1bcfc6074ebcba484562eac0]
link Parameter to Category--><path codeLine="66" d="M348.6236,475.5556 C377.962,491.4676 428.1628,518.7 460.304,536.1356 " fill="none" id="Parameter-Category" style="stroke:#A80036;stroke-width:0.52;"/><polygon fill="#000000" points="417.3546,507.2911,413.9489,503.7051,412.4916,506.3918,417.3546,507.2911" style="stroke:#000000;stroke-width:0.52;"/><text fill="#000000" font-family="sans-serif" font-size="6.76" lengthAdjust="spacing" textLength="48.36" x="419.7492" y="508.8175">presented under</text><text fill="#000000" font-family="sans-serif" font-size="6.76" lengthAdjust="spacing" textLength="2.6" x="352.7335" y="475.7992">*</text><text fill="#000000" font-family="sans-serif" font-size="6.76" lengthAdjust="spacing" textLength="3.64" x="452.5659" y="532.137">1</text><!--MD5=[14857a0f682f89c0bb9098ba51bf3333]
link RegisterTestUI to RegisterTestController--><path codeLine="67" d="M357.0372,28.6572 C352.6952,41.8652 345.5348,63.6324 339.5028,81.9624 " fill="none" id="RegisterTestUI-to-RegisterTestController" style="stroke:#A80036;stroke-width:0.52;stroke-dasharray:7.0,7.0;"/><polygon fill="#A80036" points="338.624,84.6456,342.0601,80.8479,339.435,82.1753,338.1076,79.5503,338.624,84.6456" style="stroke:#A80036;stroke-width:0.52;"/><!--MD5=[fd1bc663e883ec1d717e7d33cb6b726b]
link RegisterTestController to Company--><path codeLine="68" d="M276.8636,135.1948 C266.0788,138.9076 254.7272,142.5788 243.9892,145.6 C211.9208,154.6272 200.6784,146.7336 170.6692,161.2 C162.8744,164.9596 155.2408,170.1388 148.3404,175.5832 " fill="none" id="RegisterTestController-to-Company" style="stroke:#A80036;stroke-width:0.52;stroke-dasharray:7.0,7.0;"/><polygon fill="#A80036" points="146.2188,177.2836,151.1709,175.9776,148.2469,175.6567,148.5678,172.7327,146.2188,177.2836" style="stroke:#A80036;stroke-width:0.52;"/><!--MD5=[ab922b8023446f7e094c4c89426f3446]
link RegisterTestController to TestStore--><path codeLine="69" d="M276.926,135.4132 C266.136,139.1156 254.7688,142.7192 243.9892,145.6 C169.2808,165.5732 145.6208,150.9976 72.9092,177.32 C63.9392,180.57 54.6572,185.4216 46.748,190.0704 " fill="none" id="RegisterTestController-to-TestStore" style="stroke:#A80036;stroke-width:0.52;stroke-dasharray:7.0,7.0;"/><polygon fill="#A80036" points="44.3352,191.5056,49.4208,190.9013,46.5699,190.1767,47.2945,187.3257,44.3352,191.5056" style="stroke:#A80036;stroke-width:0.52;"/><!--MD5=[b0f4f6db8206580012ef9cd998ed01c5]
link TestStore to Test--><path codeLine="70" d="M17.03,216.6736 C10.2596,227.214 3.12,242.8296 8.9492,255.84 C14.6172,268.4812 26.7124,278.6784 36.6652,285.3864 " fill="none" id="TestStore-Test" style="stroke:#A80036;stroke-width:0.52;"/><polygon fill="#000000" points="12.2636,253.7513,12.4407,248.809,9.5018,249.6488,12.2636,253.7513" style="stroke:#000000;stroke-width:0.52;"/><text fill="#000000" font-family="sans-serif" font-size="6.76" lengthAdjust="spacing" textLength="25.48" x="16.2292" y="254.0175">contains</text><text fill="#000000" font-family="sans-serif" font-size="6.76" lengthAdjust="spacing" textLength="2.6" x="11.9001" y="227.7922">*</text><text fill="#000000" font-family="sans-serif" font-size="6.76" lengthAdjust="spacing" textLength="3.64" x="29.0329" y="280.9766">1</text><!--MD5=[ec47b9290aa4dd5508a85ec01f0b1ba8]
link RegisterTestController to TestType--><path codeLine="71" d="M322.9668,145.7976 C316.342,180.2736 305.5988,236.1736 299.3588,268.6684 " fill="none" id="RegisterTestController-to-TestType" style="stroke:#A80036;stroke-width:0.52;stroke-dasharray:7.0,7.0;"/><polygon fill="#A80036" points="298.844,271.3516,301.7686,267.1474,299.3339,268.7982,297.6831,266.3635,298.844,271.3516" style="stroke:#A80036;stroke-width:0.52;"/><!--MD5=[6a57f7f5909bd34f9d66d293e1626668]
link RegisterTestController to Parameter--><path codeLine="72" d="M340.3244,145.7248 C345.7792,162.4896 351.1092,183.9032 351.1092,203.58 C351.1092,203.58 351.1092,203.58 351.1092,379.08 C351.1092,398.9336 344.2036,420.2848 337.5112,436.3164 " fill="none" id="RegisterTestController-to-Parameter" style="stroke:#A80036;stroke-width:0.52;stroke-dasharray:7.0,7.0;"/><polygon fill="#A80036" points="336.44,438.8436,340.1862,435.3515,337.4579,436.4511,336.3583,433.7228,336.44,438.8436" style="stroke:#A80036;stroke-width:0.52;"/><!--MD5=[e29587f2bf34f27ccb90b9d01c07b42e]
link RegisterTestController to Category--><path codeLine="73" d="M380.6608,125.8192 C411.5176,134.4512 449.0512,149.9888 472.2692,177.32 C494.0104,202.9092 490.4692,217.0636 490.4692,250.64 C490.4692,250.64 490.4692,250.64 490.4692,462.8 C490.4692,483.054 490.4692,505.8768 490.4692,523.432 " fill="none" id="RegisterTestController-to-Category" style="stroke:#A80036;stroke-width:0.52;stroke-dasharray:7.0,7.0;"/><polygon fill="#A80036" points="490.4692,526.2036,492.5492,521.5236,490.4692,523.6036,488.3892,521.5236,490.4692,526.2036" style="stroke:#A80036;stroke-width:0.52;"/><!--MD5=[863d0969a3c73776af97edc376ac5a92]
link RegisterTestController to Client--><path codeLine="74" d="M276.978,134.5812 C246.246,146.952 211.614,163.3632 202.9092,177.32 C190.3096,197.5168 198.432,207.5008 202.9092,230.88 C206.5544,249.9328 215.0564,252.4548 219.0292,271.44 C225.0456,300.2064 225.004,334.2768 224.0992,356.018 " fill="none" id="RegisterTestController-to-Client" style="stroke:#A80036;stroke-width:0.52;stroke-dasharray:7.0,7.0;"/><polygon fill="#A80036" points="223.9796,358.7376,226.2711,354.1575,224.0983,356.1403,222.1155,353.9675,223.9796,358.7376" style="stroke:#A80036;stroke-width:0.52;"/><!--MD5=[9275a8c0f3db87c35a1a636c7087ada0]
link RegisterTestUI to TestTypeListDTO--><path codeLine="75" d="M341.4788,28.6572 C311.6308,47.0444 254.8364,82.03 223.6728,101.2284 " fill="none" id="RegisterTestUI-to-TestTypeListDTO" style="stroke:#A80036;stroke-width:0.52;stroke-dasharray:7.0,7.0;"/><polygon fill="#A80036" points="221.2912,102.6948,226.3677,102.0182,223.5068,101.3342,224.1908,98.4733,221.2912,102.6948" style="stroke:#A80036;stroke-width:0.52;"/><!--MD5=[b770a660ce854690f4d52fb87084eaca]
link TestTypeListDTO to TestTypeListMapper--><path codeLine="76" d="M208.3484,127.7328 C216.3616,142.61 230.0688,168.0692 239.3716,185.3488 " fill="none" id="TestTypeListDTO-to-TestTypeListMapper" style="stroke:#A80036;stroke-width:0.52;stroke-dasharray:7.0,7.0;"/><polygon fill="#A80036" points="240.7132,187.8344,240.3238,182.7278,239.4797,185.5457,236.6618,184.7015,240.7132,187.8344" style="stroke:#A80036;stroke-width:0.52;"/><!--MD5=[f39c2c5b733f916b0fe6c7ddefc5f082]
link TestTypeListMapper to TestType--><path codeLine="77" d="M257.0672,220.246 C263.822,233.6308 273.676,253.1776 281.5696,268.8244 " fill="none" id="TestTypeListMapper-to-TestType" style="stroke:#A80036;stroke-width:0.52;stroke-dasharray:7.0,7.0;"/><polygon fill="#A80036" points="282.8228,271.3048,282.5837,266.189,281.6571,268.9808,278.8653,268.0541,282.8228,271.3048" style="stroke:#A80036;stroke-width:0.52;"/><!--MD5=[43565ce1b59d1b14162e32e888650a47]
link RegisterTestController to TestTypeListMapper--><path codeLine="78" d="M301.5896,145.6988 C289.5048,159.0472 275.6884,174.3092 265.2728,185.8116 " fill="none" id="RegisterTestController-to-TestTypeListMapper" style="stroke:#A80036;stroke-width:0.52;stroke-dasharray:7.0,7.0;"/><polygon fill="#A80036" points="263.5048,187.7668,268.19,185.6985,265.2519,185.8413,265.1092,182.9032,263.5048,187.7668" style="stroke:#A80036;stroke-width:0.52;"/><!--MD5=[d715f23e4a08e53a06c7de179483a65e]
link RegisterTestUI to TestCategoryListDTO--><path codeLine="79" d="M391.0504,22.8176 C423.462,29.4736 475.28,40.118 511.6332,47.5852 " fill="none" id="RegisterTestUI-to-TestCategoryListDTO" style="stroke:#A80036;stroke-width:0.52;stroke-dasharray:7.0,7.0;"/><polygon fill="#A80036" points="514.2228,48.1156,510.0532,45.1418,511.6753,47.5957,509.2214,49.2178,514.2228,48.1156" style="stroke:#A80036;stroke-width:0.52;"/><!--MD5=[ac590fa68f73ac09959e95ec72ebde3c]
link TestCategoryListDTO to TestCategoryListMapper--><path codeLine="80" d="M554.0288,69.1808 C555.3912,94.7648 558.5944,154.882 560.2168,185.2864 " fill="none" id="TestCategoryListDTO-to-TestCategoryListMapper" style="stroke:#A80036;stroke-width:0.52;stroke-dasharray:7.0,7.0;"/><polygon fill="#A80036" points="560.3572,187.954,562.1934,183.1731,560.2233,185.3575,558.0389,183.3873,560.3572,187.954" style="stroke:#A80036;stroke-width:0.52;"/><!--MD5=[1f1e0b3c285aed10d1ad09d182629703]
link TestCategoryListMapper to Category--><path codeLine="81" d="M556.3168,220.324 C551.2468,238.0976 544.0292,267.9976 544.0292,294.32 C544.0292,294.32 544.0292,294.32 544.0292,462.8 C544.0292,485.5396 531.1852,507.52 518.076,524.03 " fill="none" id="TestCategoryListMapper-to-Category" style="stroke:#A80036;stroke-width:0.52;stroke-dasharray:7.0,7.0;"/><polygon fill="#A80036" points="516.308,526.2192,520.8683,523.8885,517.9431,524.1977,517.6339,521.2724,516.308,526.2192" style="stroke:#A80036;stroke-width:0.52;"/><!--MD5=[08a7de5e796f3a4fe36d114340493654]
link RegisterTestController to TestCategoryListMapper--><path codeLine="82" d="M380.5724,126.3548 C413.1816,133.9884 455.7124,145.6624 491.5092,161.2 C507.286,168.0484 523.7804,177.9388 536.7596,186.446 " fill="none" id="RegisterTestController-to-TestCategoryListMapper" style="stroke:#A80036;stroke-width:0.52;stroke-dasharray:7.0,7.0;"/><polygon fill="#A80036" points="538.9748,187.9072,536.2175,183.5914,536.8058,186.4736,533.9236,187.0619,538.9748,187.9072" style="stroke:#A80036;stroke-width:0.52;"/><!--MD5=[58cad04692cde7b5132c87660653a2ea]
link RegisterTestUI to TestParametersDTO--><path codeLine="83" d="M386.334,28.6052 C395.9644,33.15 406.978,38.35 416.8268,42.9988 " fill="none" id="RegisterTestUI-to-TestParametersDTO" style="stroke:#A80036;stroke-width:0.52;stroke-dasharray:7.0,7.0;"/><polygon fill="#A80036" points="419.3072,44.1688,415.9565,40.2956,416.9542,43.0628,414.1869,44.0604,419.3072,44.1688" style="stroke:#A80036;stroke-width:0.52;"/><!--MD5=[468e5816732821ab830bf10cfab2167f]
link TestParametersDTO to TestParametersMapper--><path codeLine="84" d="M442.754,69.1808 C438.5732,94.7648 428.7452,154.882 423.7792,185.2864 " fill="none" id="TestParametersDTO-to-TestParametersMapper" style="stroke:#A80036;stroke-width:0.52;stroke-dasharray:7.0,7.0;"/><polygon fill="#A80036" points="423.3424,187.954,426.1454,183.6677,423.759,185.3876,422.0391,183.0012,423.3424,187.954" style="stroke:#A80036;stroke-width:0.52;"/><!--MD5=[8374103820a85f18f9f597ebc31f2922]
link TestParametersMapper to Parameter--><path codeLine="85" d="M419.6712,220.2824 C416.3952,257.7588 404.4144,354.6036 364.6292,423.28 C360.9112,429.702 355.8204,435.76 350.532,441.09 " fill="none" id="TestParametersMapper-to-Parameter" style="stroke:#A80036;stroke-width:0.52;stroke-dasharray:7.0,7.0;"/><polygon fill="#A80036" points="348.5768,443.0192,353.3679,441.2097,350.4264,441.1919,350.4442,438.2504,348.5768,443.0192" style="stroke:#A80036;stroke-width:0.52;"/><!--MD5=[fb6611c8ed6be4fb9c5231db5ee90084]
link RegisterTestController to TestParametersMapper--><path codeLine="86" d="M360.1676,145.6988 C374.2076,159.0992 390.2652,174.4392 402.3292,185.952 " fill="none" id="RegisterTestController-to-TestParametersMapper" style="stroke:#A80036;stroke-width:0.52;stroke-dasharray:7.0,7.0;"/><polygon fill="#A80036" points="404.2272,187.7668,402.283,183.0288,402.3483,185.9696,399.4075,186.035,404.2272,187.7668" style="stroke:#A80036;stroke-width:0.52;"/><!--MD5=[e8655adfdb27283aba6374d26d0d444c]
link Test to apoint7373--><path d="M46.384,314.7092 C44.772,323.8196 44.5068,334.5524 48.9892,343.2 C60.294,365.0036 92.2064,376.0588 97.6092,377.7956 " fill="none" id="Test-apoint7373" style="stroke:#A80036;stroke-width:0.52;"/><polygon fill="#000000" points="53.2281,340.6298,51.4497,336.0152,49.0769,337.9418,53.2281,340.6298" style="stroke:#000000;stroke-width:0.52;"/><text fill="#000000" font-family="sans-serif" font-size="6.76" lengthAdjust="spacing" textLength="60.32" x="56.2692" y="341.3775">requests analysis of</text><text fill="#000000" font-family="sans-serif" font-size="6.76" lengthAdjust="spacing" textLength="2.6" x="42.6644" y="325.5845">*</text><!--MD5=[99617120ae984538a2437c514a5f22db]
link apoint7373 to Parameter--><path d="M98.5088,379.6572 C99.086,382.252 101.7848,392.964 108.2692,398.32 C166.0984,446.0976 258.544,457.8964 301.6104,460.8084 " fill="none" id="apoint7373-Parameter" style="stroke:#A80036;stroke-width:0.52;"/><text fill="#000000" font-family="sans-serif" font-size="6.76" lengthAdjust="spacing" textLength="10.4" x="287.1746" y="458.7448">1..*</text><!--MD5=[6637064dea27588a87cbbefc2980dd46]
link apoint7373 to TestParameter--><path d="M99.5332,378.56 C105.5652,378.56 111.592,378.56 117.624,378.56 " fill="none" id="apoint7373-TestParameter" style="stroke:#A80036;stroke-width:0.52;stroke-dasharray:7.0,7.0;"/><!--MD5=[92e8e476cc9e9004a7125f53a120ec97]
link TestParameter to Parameter--><path codeLine="88" d="M171.1476,391.066 C189.3216,400.1088 214.994,412.7136 237.7492,423.28 C259.246,433.2588 283.9824,444.0956 301.6364,451.7188 " fill="none" id="TestParameter-Parameter" style="stroke:#A80036;stroke-width:0.52;"/><polygon fill="#000000" points="242.7069,419.7873,239.0859,416.4189,237.7976,419.1906,242.7069,419.7873" style="stroke:#000000;stroke-width:0.52;"/><text fill="#000000" font-family="sans-serif" font-size="6.76" lengthAdjust="spacing" textLength="40.56" x="245.0292" y="421.4575">associated to</text><text fill="#000000" font-family="sans-serif" font-size="6.76" lengthAdjust="spacing" textLength="2.6" x="174.0511" y="402.1681">*</text><text fill="#000000" font-family="sans-serif" font-size="6.76" lengthAdjust="spacing" textLength="3.64" x="293.9654" y="448.105">1</text><!--MD5=[7d615427424eb1e9d8965c4eb17ecbf5]
link TestParameter to Test--><path codeLine="89" d="M142.2772,365.9812 C137.6284,356.096 129.8128,342.3888 119.1892,333.84 C103.4696,321.1884 93.7352,328.8168 76.5492,318.24 C73.4292,316.3212 70.3664,313.9604 67.522,311.4956 " fill="none" id="TestParameter-Test" style="stroke:#A80036;stroke-width:0.52;"/><polygon fill="#000000" points="133.2503,340.1428,130.3495,336.1374,128.5492,338.6075,133.2503,340.1428" style="stroke:#000000;stroke-width:0.52;"/><text fill="#000000" font-family="sans-serif" font-size="6.76" lengthAdjust="spacing" textLength="10.92" x="135.8292" y="341.3775">has</text><text fill="#000000" font-family="sans-serif" font-size="6.76" lengthAdjust="spacing" textLength="2.6" x="138.0649" y="360.4128">*</text><text fill="#000000" font-family="sans-serif" font-size="6.76" lengthAdjust="spacing" textLength="3.64" x="71.5071" y="323.3675">1</text><!--MD5=[a11230341c8e65219708844feaa40162]
link Company to ClientStore--><path codeLine="90" d="M152.1728,231.1088 C157.0088,235.898 161.6368,241.0928 165.4692,246.48 C173.3108,257.5092 178.9268,272.038 182.234,282.178 " fill="none" id="Company-ClientStore" style="stroke:#A80036;stroke-width:0.52;"/><polygon fill="#000000" points="175.1081,253.492,174.0392,248.6635,171.4052,250.2139,175.1081,253.492" style="stroke:#000000;stroke-width:0.52;"/><text fill="#000000" font-family="sans-serif" font-size="6.76" lengthAdjust="spacing" textLength="14.56" x="178.4692" y="254.0175">uses</text><text fill="#000000" font-family="sans-serif" font-size="6.76" lengthAdjust="spacing" textLength="2.6" x="153.8303" y="242.3148">*</text><text fill="#000000" font-family="sans-serif" font-size="6.76" lengthAdjust="spacing" textLength="3.64" x="177.2935" y="276.7974">1</text><!--MD5=[141c3afa12b2b3c0a39ffce56dbd5f19]
link Company to TestTypeStore--><path codeLine="91" d="M117.8112,231.0464 C116.9272,247.9984 115.8196,269.1988 115.1384,282.2456 " fill="none" id="Company-TestTypeStore" style="stroke:#A80036;stroke-width:0.52;"/><polygon fill="#000000" points="119.8447,248.6549,118.0734,253.2723,121.1257,253.4317,119.8447,248.6549" style="stroke:#000000;stroke-width:0.52;"/><text fill="#000000" font-family="sans-serif" font-size="6.76" lengthAdjust="spacing" textLength="14.56" x="124.3892" y="254.0175">uses</text><text fill="#000000" font-family="sans-serif" font-size="6.76" lengthAdjust="spacing" textLength="2.6" x="114.8513" y="242.2441">*</text><text fill="#000000" font-family="sans-serif" font-size="6.76" lengthAdjust="spacing" textLength="3.64" x="111.1933" y="276.6732">1</text><!--MD5=[ed05b342c6f796e04f1b208617ce5088]
@startuml

skinparam classAttributeIconSize 0

class RegisterTestUI
class RegisterTestController {
-client
-testType
-testCategory
-testParameter
+getClientByCardNumber(cardNumber)
}


class Company {
-designation
+getTestStore()
+getTestTypeStore()
+private validateNhsCode()
}
class TestStore
class Test {
-testCode
-nhsCode
}
class Client {
-name
-cardNumber
}
class TestType {
-code
-description
+getCategoryStore()
}
class Parameter {
-code
-shortName
-description
}
class Category {
-code
-description
-nhsID
+getParameterStore()
}
class TestTypeListDTO
class TestTypeListMapper{
toDto(testTypeList)
}
class TestCategoryListDTO
class TestCategoryListMapper{
toDto(testCategoryList)
}
class TestParametersDTO
class TestParametersMapper{
toDto(testParameterList)
}
class ClientStore
class TestTypeStore


Test "*"- -"1..*" Parameter : requests analysis of >
TestType "1"- -"1..*" Parameter : has >
Test "*"- -"1" Client : requested by >
Test "*"-up-"1" Company : performs <
Test "*"-right-"1" "TestType" : is of >
Parameter "*"- -"1" Category : presented under >
RegisterTestUI ..> RegisterTestController
RegisterTestController ..> Company
RegisterTestController ..> TestStore
TestStore "*"- -"1" "Test" : contains >
RegisterTestController ..> TestType
RegisterTestController ..> Parameter
RegisterTestController ..> Category
RegisterTestController ..> Client
RegisterTestUI .right.> TestTypeListDTO
TestTypeListDTO .down.> TestTypeListMapper
TestTypeListMapper ..> TestType
RegisterTestController ..> TestTypeListMapper
RegisterTestUI .right.> TestCategoryListDTO
TestCategoryListDTO .down.> TestCategoryListMapper
TestCategoryListMapper ..> Category
RegisterTestController ..> TestCategoryListMapper
RegisterTestUI .right.> TestParametersDTO
TestParametersDTO .down.> TestParametersMapper
TestParametersMapper ..> Parameter
RegisterTestController ..> TestParametersMapper
(Test, Parameter) .. TestParameter
TestParameter "*"-"1" Parameter : associated to >
TestParameter "*"- -"1" Test : has <
Company "*"- -"1" ClientStore : uses >
Company "*"- -"1" TestTypeStore : uses <


@enduml

PlantUML version 1.2021.00(Sun Jan 10 10:25:05 GMT 2021)
(GPL source distribution)
Java Runtime: OpenJDK Runtime Environment
JVM: OpenJDK 64-Bit Server VM
Default Encoding: Cp1252
Language: pt
Country: PT
--></g></svg>