<?xml version="1.0" encoding="UTF-8" standalone="no"?><svg xmlns="http://www.w3.org/2000/svg" xmlns:xlink="http://www.w3.org/1999/xlink" contentScriptType="application/ecmascript" contentStyleType="text/css" height="1205px" preserveAspectRatio="none" style="width:722px;height:1205px;" version="1.1" viewBox="0 0 722 1205" width="722.5px" zoomAndPan="magnify"><defs><filter height="300%" id="f1hglw0q5mq1ou" width="300%" x="-1" y="-1"><feGaussianBlur result="blurOut" stdDeviation="2.5"/><feColorMatrix in="blurOut" result="blurOut2" type="matrix" values="0 0 0 0 0 0 0 0 0 0 0 0 0 0 0 0 0 0 .4 0"/><feOffset dx="5.0" dy="5.0" in="blurOut2" result="blurOut3"/><feBlend in="SourceGraphic" in2="blurOut3" mode="normal"/></filter></defs><g><!--MD5=[da547346deef918ea16944ba046651ef]
class Administrator--><rect codeLine="2" fill="#FEFECE" filter="url(#f1hglw0q5mq1ou)" height="60" id="Administrator" style="stroke:#A80036;stroke-width:1.875;" width="131.25" x="276.875" y="8.75"/><ellipse cx="295.625" cy="28.75" fill="#ADD1B2" rx="13.75" ry="13.75" style="stroke:#A80036;stroke-width:1.25;"/><path d="M298.125,24.375 Q298.3789,23.75 298.6719,23.4375 Q298.9648,23.125 299.2969,23.125 Q299.8828,23.125 300.2539,23.4766 Q300.625,23.8281 300.625,24.6484 L300.625,26.6016 Q300.625,27.4219 300.2734,27.7734 Q299.9219,28.125 299.375,28.125 Q298.8867,28.125 298.5742,27.9102 Q298.2617,27.6953 298.125,27.1289 Q298.0664,26.7383 297.8516,26.5234 Q297.4609,26.1133 296.7578,25.8789 Q296.0547,25.625 295.3516,25.625 Q294.4727,25.625 293.7305,25.9766 Q293.0078,26.3281 292.4414,27.1094 Q291.875,27.8906 291.875,28.9648 L291.875,30.1172 Q291.875,31.4063 292.9297,32.2656 Q293.9844,33.125 295.8594,33.125 Q296.9727,33.125 297.7539,32.8711 Q298.2031,32.7344 298.7109,32.2852 Q299.043,32.0313 299.2188,31.9531 Q299.3945,31.875 299.6094,31.875 Q300.0195,31.875 300.3125,32.207 Q300.625,32.5195 300.625,32.9688 Q300.625,33.3984 300.1953,33.9063 Q299.5703,34.6484 298.5742,35.0586 Q297.2656,35.625 295.6641,35.625 Q293.7891,35.625 292.2852,34.8828 Q291.0742,34.2969 290.2148,33.0273 Q289.375,31.7578 289.375,30.2539 L289.375,28.8867 Q289.375,27.3242 290.1172,25.957 Q290.8789,24.5898 292.1875,23.8672 Q293.5156,23.125 295,23.125 Q295.8984,23.125 296.6797,23.4375 Q297.4609,23.75 298.125,24.375 Z " fill="#000000"/><text fill="#000000" font-family="sans-serif" font-size="15" lengthAdjust="spacing" textLength="91.25" x="313.125" y="34.8877">Administrator</text><line style="stroke:#A80036;stroke-width:1.875;" x1="278.125" x2="406.875" y1="48.75" y2="48.75"/><line style="stroke:#A80036;stroke-width:1.875;" x1="278.125" x2="406.875" y1="58.75" y2="58.75"/><!--MD5=[1f6362a5c8f21d8d6a0fce68f3a92a4e]
class Parameter--><rect codeLine="3" fill="#FEFECE" filter="url(#f1hglw0q5mq1ou)" height="163.7695" id="Parameter" style="stroke:#A80036;stroke-width:1.875;" width="280" x="8.75" y="1023.75"/><ellipse cx="107.1875" cy="1043.75" fill="#ADD1B2" rx="13.75" ry="13.75" style="stroke:#A80036;stroke-width:1.25;"/><path d="M109.6875,1039.375 Q109.9414,1038.75 110.2344,1038.4375 Q110.5273,1038.125 110.8594,1038.125 Q111.4453,1038.125 111.8164,1038.4766 Q112.1875,1038.8281 112.1875,1039.6484 L112.1875,1041.6016 Q112.1875,1042.4219 111.8359,1042.7734 Q111.4844,1043.125 110.9375,1043.125 Q110.4492,1043.125 110.1367,1042.9102 Q109.8242,1042.6953 109.6875,1042.1289 Q109.6289,1041.7383 109.4141,1041.5234 Q109.0234,1041.1133 108.3203,1040.8789 Q107.6172,1040.625 106.9141,1040.625 Q106.0352,1040.625 105.293,1040.9766 Q104.5703,1041.3281 104.0039,1042.1094 Q103.4375,1042.8906 103.4375,1043.9648 L103.4375,1045.1172 Q103.4375,1046.4063 104.4922,1047.2656 Q105.5469,1048.125 107.4219,1048.125 Q108.5352,1048.125 109.3164,1047.8711 Q109.7656,1047.7344 110.2734,1047.2852 Q110.6055,1047.0313 110.7813,1046.9531 Q110.957,1046.875 111.1719,1046.875 Q111.582,1046.875 111.875,1047.207 Q112.1875,1047.5195 112.1875,1047.9688 Q112.1875,1048.3984 111.7578,1048.9063 Q111.1328,1049.6484 110.1367,1050.0586 Q108.8281,1050.625 107.2266,1050.625 Q105.3516,1050.625 103.8477,1049.8828 Q102.6367,1049.2969 101.7773,1048.0273 Q100.9375,1046.7578 100.9375,1045.2539 L100.9375,1043.8867 Q100.9375,1042.3242 101.6797,1040.957 Q102.4414,1039.5898 103.75,1038.8672 Q105.0781,1038.125 106.5625,1038.125 Q107.4609,1038.125 108.2422,1038.4375 Q109.0234,1038.75 109.6875,1039.375 Z " fill="#000000"/><text fill="#000000" font-family="sans-serif" font-size="15" lengthAdjust="spacing" textLength="72.5" x="132.8125" y="1049.8877">Parameter</text><line style="stroke:#A80036;stroke-width:1.875;" x1="10" x2="287.5" y1="1063.75" y2="1063.75"/><rect fill="none" height="7.5" style="stroke:#C82930;stroke-width:1.25;" width="7.5" x="18.75" y="1073.75"/><text fill="#000000" font-family="sans-serif" font-size="13.75" lengthAdjust="spacing" textLength="47.5" x="33.75" y="1083.0237">int code</text><rect fill="none" height="7.5" style="stroke:#C82930;stroke-width:1.25;" width="7.5" x="18.75" y="1091.0449"/><text fill="#000000" font-family="sans-serif" font-size="13.75" lengthAdjust="spacing" textLength="103.75" x="33.75" y="1100.3186">String shortName</text><rect fill="none" height="7.5" style="stroke:#C82930;stroke-width:1.25;" width="7.5" x="18.75" y="1108.3398"/><text fill="#000000" font-family="sans-serif" font-size="13.75" lengthAdjust="spacing" textLength="105" x="33.75" y="1117.6135">String description</text><rect fill="none" height="7.5" style="stroke:#C82930;stroke-width:1.25;" width="7.5" x="18.75" y="1125.6348"/><text fill="#000000" font-family="sans-serif" font-size="13.75" lengthAdjust="spacing" textLength="177.5" x="33.75" y="1134.9084">double upperReferenceValue</text><rect fill="none" height="7.5" style="stroke:#C82930;stroke-width:1.25;" width="7.5" x="18.75" y="1142.9297"/><text fill="#000000" font-family="sans-serif" font-size="13.75" lengthAdjust="spacing" textLength="177.5" x="33.75" y="1152.2034">double lowerReferenceValue</text><line style="stroke:#A80036;stroke-width:1.875;" x1="10" x2="287.5" y1="1160.2246" y2="1160.2246"/><ellipse cx="22.5" cy="1173.9746" fill="#84BE84" rx="3.75" ry="3.75" style="stroke:#038048;stroke-width:1.25;"/><text fill="#000000" font-family="sans-serif" font-size="13.75" lengthAdjust="spacing" textLength="247.5" x="33.75" y="1179.4983">Parameter(shortName, code, description)</text><!--MD5=[f0a179241c729f9fd2709e70d15a6ae4]
class CreateNewParameterUI--><rect codeLine="13" fill="#FEFECE" filter="url(#f1hglw0q5mq1ou)" height="60" id="CreateNewParameterUI" style="stroke:#A80036;stroke-width:1.875;" width="205" x="240" y="222.5"/><ellipse cx="258.75" cy="242.5" fill="#ADD1B2" rx="13.75" ry="13.75" style="stroke:#A80036;stroke-width:1.25;"/><path d="M261.25,238.125 Q261.5039,237.5 261.7969,237.1875 Q262.0898,236.875 262.4219,236.875 Q263.0078,236.875 263.3789,237.2266 Q263.75,237.5781 263.75,238.3984 L263.75,240.3516 Q263.75,241.1719 263.3984,241.5234 Q263.0469,241.875 262.5,241.875 Q262.0117,241.875 261.6992,241.6602 Q261.3867,241.4453 261.25,240.8789 Q261.1914,240.4883 260.9766,240.2734 Q260.5859,239.8633 259.8828,239.6289 Q259.1797,239.375 258.4766,239.375 Q257.5977,239.375 256.8555,239.7266 Q256.1328,240.0781 255.5664,240.8594 Q255,241.6406 255,242.7148 L255,243.8672 Q255,245.1563 256.0547,246.0156 Q257.1094,246.875 258.9844,246.875 Q260.0977,246.875 260.8789,246.6211 Q261.3281,246.4844 261.8359,246.0352 Q262.168,245.7813 262.3438,245.7031 Q262.5195,245.625 262.7344,245.625 Q263.1445,245.625 263.4375,245.957 Q263.75,246.2695 263.75,246.7188 Q263.75,247.1484 263.3203,247.6563 Q262.6953,248.3984 261.6992,248.8086 Q260.3906,249.375 258.7891,249.375 Q256.9141,249.375 255.4102,248.6328 Q254.1992,248.0469 253.3398,246.7773 Q252.5,245.5078 252.5,244.0039 L252.5,242.6367 Q252.5,241.0742 253.2422,239.707 Q254.0039,238.3398 255.3125,237.6172 Q256.6406,236.875 258.125,236.875 Q259.0234,236.875 259.8047,237.1875 Q260.5859,237.5 261.25,238.125 Z " fill="#000000"/><text fill="#000000" font-family="sans-serif" font-size="15" lengthAdjust="spacing" textLength="165" x="276.25" y="248.6377">CreateNewParameterUI</text><line style="stroke:#A80036;stroke-width:1.875;" x1="241.25" x2="443.75" y1="262.5" y2="262.5"/><line style="stroke:#A80036;stroke-width:1.875;" x1="241.25" x2="443.75" y1="272.5" y2="272.5"/><!--MD5=[722ead4bdf6f3569f0f476dbf8ee9a8d]
class CreateNewParameterController--><rect codeLine="16" fill="#FEFECE" filter="url(#f1hglw0q5mq1ou)" height="111.8848" id="CreateNewParameterController" style="stroke:#A80036;stroke-width:1.875;" width="257.5" x="213.75" y="478.75"/><ellipse cx="232.5" cy="498.75" fill="#ADD1B2" rx="13.75" ry="13.75" style="stroke:#A80036;stroke-width:1.25;"/><path d="M235,494.375 Q235.2539,493.75 235.5469,493.4375 Q235.8398,493.125 236.1719,493.125 Q236.7578,493.125 237.1289,493.4766 Q237.5,493.8281 237.5,494.6484 L237.5,496.6016 Q237.5,497.4219 237.1484,497.7734 Q236.7969,498.125 236.25,498.125 Q235.7617,498.125 235.4492,497.9102 Q235.1367,497.6953 235,497.1289 Q234.9414,496.7383 234.7266,496.5234 Q234.3359,496.1133 233.6328,495.8789 Q232.9297,495.625 232.2266,495.625 Q231.3477,495.625 230.6055,495.9766 Q229.8828,496.3281 229.3164,497.1094 Q228.75,497.8906 228.75,498.9648 L228.75,500.1172 Q228.75,501.4063 229.8047,502.2656 Q230.8594,503.125 232.7344,503.125 Q233.8477,503.125 234.6289,502.8711 Q235.0781,502.7344 235.5859,502.2852 Q235.918,502.0313 236.0938,501.9531 Q236.2695,501.875 236.4844,501.875 Q236.8945,501.875 237.1875,502.207 Q237.5,502.5195 237.5,502.9688 Q237.5,503.3984 237.0703,503.9063 Q236.4453,504.6484 235.4492,505.0586 Q234.1406,505.625 232.5391,505.625 Q230.6641,505.625 229.1602,504.8828 Q227.9492,504.2969 227.0898,503.0273 Q226.25,501.7578 226.25,500.2539 L226.25,498.8867 Q226.25,497.3242 226.9922,495.957 Q227.7539,494.5898 229.0625,493.8672 Q230.3906,493.125 231.875,493.125 Q232.7734,493.125 233.5547,493.4375 Q234.3359,493.75 235,494.375 Z " fill="#000000"/><text fill="#000000" font-family="sans-serif" font-size="15" lengthAdjust="spacing" textLength="217.5" x="250" y="504.8877">CreateNewParameterController</text><line style="stroke:#A80036;stroke-width:1.875;" x1="215" x2="470" y1="518.75" y2="518.75"/><line style="stroke:#A80036;stroke-width:1.875;" x1="215" x2="470" y1="528.75" y2="528.75"/><ellipse cx="227.5" cy="542.5" fill="#84BE84" rx="3.75" ry="3.75" style="stroke:#038048;stroke-width:1.25;"/><text fill="#000000" font-family="sans-serif" font-size="13.75" lengthAdjust="spacing" textLength="105" x="238.75" y="548.0237">getCategoryList()</text><ellipse cx="227.5" cy="559.7949" fill="#84BE84" rx="3.75" ry="3.75" style="stroke:#038048;stroke-width:1.25;"/><text fill="#000000" font-family="sans-serif" font-size="13.75" lengthAdjust="spacing" textLength="138.75" x="238.75" y="565.3186">createNewParameter()</text><ellipse cx="227.5" cy="577.0898" fill="#84BE84" rx="3.75" ry="3.75" style="stroke:#038048;stroke-width:1.25;"/><text fill="#000000" font-family="sans-serif" font-size="13.75" lengthAdjust="spacing" textLength="155" x="238.75" y="582.6135">saveParameter(category)</text><!--MD5=[02e4b9b7573f1156f41e60aa5b4e25a4]
class Company--><rect codeLine="23" fill="#FEFECE" filter="url(#f1hglw0q5mq1ou)" height="111.8848" id="Company" style="stroke:#A80036;stroke-width:1.875;" width="265" x="440" y="779.375"/><ellipse cx="534.0625" cy="799.375" fill="#ADD1B2" rx="13.75" ry="13.75" style="stroke:#A80036;stroke-width:1.25;"/><path d="M536.5625,795 Q536.8164,794.375 537.1094,794.0625 Q537.4023,793.75 537.7344,793.75 Q538.3203,793.75 538.6914,794.1016 Q539.0625,794.4531 539.0625,795.2734 L539.0625,797.2266 Q539.0625,798.0469 538.7109,798.3984 Q538.3594,798.75 537.8125,798.75 Q537.3242,798.75 537.0117,798.5352 Q536.6992,798.3203 536.5625,797.7539 Q536.5039,797.3633 536.2891,797.1484 Q535.8984,796.7383 535.1953,796.5039 Q534.4922,796.25 533.7891,796.25 Q532.9102,796.25 532.168,796.6016 Q531.4453,796.9531 530.8789,797.7344 Q530.3125,798.5156 530.3125,799.5898 L530.3125,800.7422 Q530.3125,802.0313 531.3672,802.8906 Q532.4219,803.75 534.2969,803.75 Q535.4102,803.75 536.1914,803.4961 Q536.6406,803.3594 537.1484,802.9102 Q537.4805,802.6563 537.6563,802.5781 Q537.832,802.5 538.0469,802.5 Q538.457,802.5 538.75,802.832 Q539.0625,803.1445 539.0625,803.5938 Q539.0625,804.0234 538.6328,804.5313 Q538.0078,805.2734 537.0117,805.6836 Q535.7031,806.25 534.1016,806.25 Q532.2266,806.25 530.7227,805.5078 Q529.5117,804.9219 528.6523,803.6523 Q527.8125,802.3828 527.8125,800.8789 L527.8125,799.5117 Q527.8125,797.9492 528.5547,796.582 Q529.3164,795.2148 530.625,794.4922 Q531.9531,793.75 533.4375,793.75 Q534.3359,793.75 535.1172,794.0625 Q535.8984,794.375 536.5625,795 Z " fill="#000000"/><text fill="#000000" font-family="sans-serif" font-size="15" lengthAdjust="spacing" textLength="66.25" x="559.6875" y="805.5127">Company</text><line style="stroke:#A80036;stroke-width:1.875;" x1="441.25" x2="703.75" y1="819.375" y2="819.375"/><rect fill="none" height="7.5" style="stroke:#C82930;stroke-width:1.25;" width="7.5" x="450" y="829.375"/><text fill="#000000" font-family="sans-serif" font-size="13.75" lengthAdjust="spacing" textLength="107.5" x="465" y="838.6487">String designation</text><rect fill="none" height="7.5" style="stroke:#C82930;stroke-width:1.25;" width="7.5" x="450" y="846.6699"/><text fill="#000000" font-family="sans-serif" font-size="13.75" lengthAdjust="spacing" textLength="232.5" x="465" y="855.9436">List&lt;Category&gt; parameterCategoryList</text><line style="stroke:#A80036;stroke-width:1.875;" x1="441.25" x2="703.75" y1="863.9648" y2="863.9648"/><ellipse cx="453.75" cy="877.7148" fill="#84BE84" rx="3.75" ry="3.75" style="stroke:#038048;stroke-width:1.25;"/><text fill="#000000" font-family="sans-serif" font-size="13.75" lengthAdjust="spacing" textLength="105" x="465" y="883.2385">getCategoryList()</text><!--MD5=[a96594a83e2ecdc78cbf17c2ddf01934]
class Category--><rect codeLine="30" fill="#FEFECE" filter="url(#f1hglw0q5mq1ou)" height="181.0645" id="Category" style="stroke:#A80036;stroke-width:1.875;" width="216.25" x="179.375" y="745"/><ellipse cx="251.5625" cy="765" fill="#ADD1B2" rx="13.75" ry="13.75" style="stroke:#A80036;stroke-width:1.25;"/><path d="M254.0625,760.625 Q254.3164,760 254.6094,759.6875 Q254.9023,759.375 255.2344,759.375 Q255.8203,759.375 256.1914,759.7266 Q256.5625,760.0781 256.5625,760.8984 L256.5625,762.8516 Q256.5625,763.6719 256.2109,764.0234 Q255.8594,764.375 255.3125,764.375 Q254.8242,764.375 254.5117,764.1602 Q254.1992,763.9453 254.0625,763.3789 Q254.0039,762.9883 253.7891,762.7734 Q253.3984,762.3633 252.6953,762.1289 Q251.9922,761.875 251.2891,761.875 Q250.4102,761.875 249.668,762.2266 Q248.9453,762.5781 248.3789,763.3594 Q247.8125,764.1406 247.8125,765.2148 L247.8125,766.3672 Q247.8125,767.6563 248.8672,768.5156 Q249.9219,769.375 251.7969,769.375 Q252.9102,769.375 253.6914,769.1211 Q254.1406,768.9844 254.6484,768.5352 Q254.9805,768.2813 255.1563,768.2031 Q255.332,768.125 255.5469,768.125 Q255.957,768.125 256.25,768.457 Q256.5625,768.7695 256.5625,769.2188 Q256.5625,769.6484 256.1328,770.1563 Q255.5078,770.8984 254.5117,771.3086 Q253.2031,771.875 251.6016,771.875 Q249.7266,771.875 248.2227,771.1328 Q247.0117,770.5469 246.1523,769.2773 Q245.3125,768.0078 245.3125,766.5039 L245.3125,765.1367 Q245.3125,763.5742 246.0547,762.207 Q246.8164,760.8398 248.125,760.1172 Q249.4531,759.375 250.9375,759.375 Q251.8359,759.375 252.6172,759.6875 Q253.3984,760 254.0625,760.625 Z " fill="#000000"/><text fill="#000000" font-family="sans-serif" font-size="15" lengthAdjust="spacing" textLength="61.25" x="277.1875" y="771.1377">Category</text><line style="stroke:#A80036;stroke-width:1.875;" x1="180.625" x2="394.375" y1="785" y2="785"/><rect fill="none" height="7.5" style="stroke:#C82930;stroke-width:1.25;" width="7.5" x="189.375" y="795"/><text fill="#000000" font-family="sans-serif" font-size="13.75" lengthAdjust="spacing" textLength="68.75" x="204.375" y="804.2737">String code</text><rect fill="none" height="7.5" style="stroke:#C82930;stroke-width:1.25;" width="7.5" x="189.375" y="812.2949"/><text fill="#000000" font-family="sans-serif" font-size="13.75" lengthAdjust="spacing" textLength="105" x="204.375" y="821.5686">String description</text><rect fill="none" height="7.5" style="stroke:#C82930;stroke-width:1.25;" width="7.5" x="189.375" y="829.5898"/><text fill="#000000" font-family="sans-serif" font-size="13.75" lengthAdjust="spacing" textLength="51.25" x="204.375" y="838.8635">int nhsID</text><rect fill="none" height="7.5" style="stroke:#C82930;stroke-width:1.25;" width="7.5" x="189.375" y="846.8848"/><text fill="#000000" font-family="sans-serif" font-size="13.75" lengthAdjust="spacing" textLength="183.75" x="204.375" y="856.1584">List&lt;Parameter&gt; parameterList</text><line style="stroke:#A80036;stroke-width:1.875;" x1="180.625" x2="394.375" y1="864.1797" y2="864.1797"/><ellipse cx="193.125" cy="877.9297" fill="#84BE84" rx="3.75" ry="3.75" style="stroke:#038048;stroke-width:1.25;"/><text fill="#000000" font-family="sans-serif" font-size="13.75" lengthAdjust="spacing" textLength="121.25" x="204.375" y="883.4534">saveParameter(par)</text><ellipse cx="193.125" cy="895.2246" fill="#84BE84" rx="3.75" ry="3.75" style="stroke:#038048;stroke-width:1.25;"/><text fill="#000000" font-family="sans-serif" font-size="13.75" lengthAdjust="spacing" textLength="137.5" x="204.375" y="900.7483">validateParameter(par)</text><ellipse cx="193.125" cy="912.5195" fill="#84BE84" rx="3.75" ry="3.75" style="stroke:#038048;stroke-width:1.25;"/><text fill="#000000" font-family="sans-serif" font-size="13.75" lengthAdjust="spacing" textLength="113.75" x="204.375" y="918.0432">addParameter(par)</text><!--MD5=[1a81c3437cc8c02d041887d569537c91]
link Administrator to CreateNewParameterUI--><path codeLine="42" d="M342.5,68.925 C342.5,107.225 342.5,174.6875 342.5,215.95 " fill="none" id="Administrator-to-CreateNewParameterUI" style="stroke:#A80036;stroke-width:1.25;stroke-dasharray:7.0,7.0;"/><polygon fill="#A80036" points="342.5,222.325,347.5,211.075,342.5,216.075,337.5,211.075,342.5,222.325" style="stroke:#A80036;stroke-width:1.25;"/><!--MD5=[a36402049bc782b9e8fb71bf14cfcd21]
link CreateNewParameterUI to CreateNewParameterController--><path codeLine="43" d="M342.5,282.6625 C342.5,327.15 342.5,413.4125 342.5,472.275 " fill="none" id="CreateNewParameterUI-to-CreateNewParameterController" style="stroke:#A80036;stroke-width:1.25;stroke-dasharray:7.0,7.0;"/><polygon fill="#A80036" points="342.5,478.6,347.5,467.35,342.5,472.35,337.5,467.35,342.5,478.6" style="stroke:#A80036;stroke-width:1.25;"/><!--MD5=[9053c5c068bf9e749a9e9ac718fb851c]
link CreateNewParameterController to Category--><path codeLine="44" d="M332.35,591.275 C324.775,632.3375 314.225,689.4875 305.275,738.05 " fill="none" id="CreateNewParameterController-to-Category" style="stroke:#A80036;stroke-width:1.25;stroke-dasharray:7.0,7.0;"/><polygon fill="#A80036" points="304.075,744.5375,311.0431,734.3882,305.215,738.3923,301.2108,732.5642,304.075,744.5375" style="stroke:#A80036;stroke-width:1.25;"/><!--MD5=[91b3154af15e5a3c0a263ad5514e5cf0]
link CreateNewParameterController to Company--><path codeLine="45" d="M384.95,591.275 C424.9375,643.1125 484.7,720.575 525.975,774.0625 " fill="none" id="CreateNewParameterController-to-Company" style="stroke:#A80036;stroke-width:1.25;stroke-dasharray:7.0,7.0;"/><polygon fill="#A80036" points="529.9,779.1625,526.9997,767.1979,526.0876,774.2099,519.0756,773.2978,529.9,779.1625" style="stroke:#A80036;stroke-width:1.25;"/><!--MD5=[9e2b536d5f14dafa66c4d5113ebdcad2]
link Category to Parameter--><path codeLine="46" d="M241.1,926.325 C224.8,957.7625 206.575,992.8875 190.6625,1023.575 " fill="none" id="Category-Parameter" style="stroke:#A80036;stroke-width:1.25;"/><polygon fill="#000000" points="227.8775,969.6715,219.4109,978.017,225.9332,981.3997,227.8775,969.6715" style="stroke:#000000;stroke-width:1.25;"/><text fill="#000000" font-family="sans-serif" font-size="16.25" lengthAdjust="spacing" textLength="116.25" x="236.25" y="981.8689">presented under</text><text fill="#000000" font-family="sans-serif" font-size="16.25" lengthAdjust="spacing" textLength="6.25" x="230.1296" y="952.8217">*</text><text fill="#000000" font-family="sans-serif" font-size="16.25" lengthAdjust="spacing" textLength="8.75" x="186.0182" y="1010.3989">1</text><!--MD5=[4816e9029af7918ac30a965ff8ded5aa]
link Administrator to Parameter--><path codeLine="47" d="M276.5875,42.85 C208.625,49.75 112.5,72.35 112.5,145 C112.5,145 112.5,145 112.5,836.875 C112.5,899.9125 122.5125,970.55 132,1023.4 " fill="none" id="Administrator-Parameter" style="stroke:#A80036;stroke-width:1.25;"/><polygon fill="#000000" points="119.6617,424.0366,114.378,434.6861,121.6467,435.7579,119.6617,424.0366" style="stroke:#000000;stroke-width:1.25;"/><text fill="#000000" font-family="sans-serif" font-size="16.25" lengthAdjust="spacing" textLength="86.25" x="130" y="436.8689">specified by</text><text fill="#000000" font-family="sans-serif" font-size="16.25" lengthAdjust="spacing" textLength="8.75" x="257.9533" y="38.9201">1</text><text fill="#000000" font-family="sans-serif" font-size="16.25" lengthAdjust="spacing" textLength="6.25" x="123.5762" y="1010.2048">*</text><!--MD5=[eaea43e34e45c5b9d20b595fc78f1f20]
link Company to Administrator--><path codeLine="48" d="M563.75,779.325 C559.375,747.1625 555,705.7625 555,668.75 C555,145 555,145 555,145 C555,78.75 470.95,54.3 408.575,45.275 " fill="none" id="Company-Administrator" style="stroke:#A80036;stroke-width:1.25;"/><polygon fill="#000000" points="559.9573,364.1049,558.7016,375.9266,565.89,374.407,559.9573,364.1049" style="stroke:#000000;stroke-width:1.25;"/><text fill="#000000" font-family="sans-serif" font-size="16.25" lengthAdjust="spacing" textLength="61.25" x="572.5" y="376.8689">employs</text><text fill="#000000" font-family="sans-serif" font-size="16.25" lengthAdjust="spacing" textLength="8.75" x="547.5098" y="765.7114">1</text><text fill="#000000" font-family="sans-serif" font-size="16.25" lengthAdjust="spacing" textLength="25" x="418.1513" y="41.7472">1..*</text><!--MD5=[0e445d85e4690da3d80ed4b4136b0a72]
@startuml

class Administrator
class Parameter {
-int code
-String shortName
-String description
-double upperReferenceValue
-double lowerReferenceValue

+Parameter(shortName, code, description)
}

class CreateNewParameterUI{
}

class CreateNewParameterController{

+getCategoryList()
+createNewParameter()
+saveParameter(category)
}

class Company{
-String designation
-List<Category> parameterCategoryList

+getCategoryList()
}

class Category {
-String code
-String description
-int nhsID
-List<Parameter> parameterList

+saveParameter(par)
+validateParameter(par)
+addParameter(par)
}


Administrator ...> CreateNewParameterUI
CreateNewParameterUI ...> CreateNewParameterController
CreateNewParameterController ...> Category
CreateNewParameterController ...> Company
Category "*"- -"1" Parameter : presented under <
Parameter "*"-up-"1" Administrator : specified by >
Company"1 "-"1..*" Administrator : > employs

@enduml

PlantUML version 1.2021.5(Sun Apr 25 12:20:28 BST 2021)
(GPL source distribution)
Java Runtime: OpenJDK Runtime Environment
JVM: OpenJDK 64-Bit Server VM
Default Encoding: Cp1252
Language: pt
Country: PT
--></g></svg>