<?xml version="1.0" encoding="UTF-8" standalone="no"?><svg xmlns="http://www.w3.org/2000/svg" xmlns:xlink="http://www.w3.org/1999/xlink" contentScriptType="application/ecmascript" contentStyleType="text/css" height="404px" preserveAspectRatio="none" style="width:276px;height:404px;" version="1.1" viewBox="0 0 276 404" width="276px" zoomAndPan="magnify"><defs><filter height="300%" id="f3xim9eft72qh" width="300%" x="-1" y="-1"><feGaussianBlur result="blurOut" stdDeviation="2.0"/><feColorMatrix in="blurOut" result="blurOut2" type="matrix" values="0 0 0 0 0 0 0 0 0 0 0 0 0 0 0 0 0 0 .4 0"/><feOffset dx="4.0" dy="4.0" in="blurOut2" result="blurOut3"/><feBlend in="SourceGraphic" in2="blurOut3" mode="normal"/></filter></defs><g><!--MD5=[02e4b9b7573f1156f41e60aa5b4e25a4]
class Company--><rect codeLine="3" fill="#FEFECE" filter="url(#f3xim9eft72qh)" height="61.8359" id="Company" style="stroke:#A80036;stroke-width:1.5;" width="85" x="162" y="7"/><ellipse cx="177" cy="23" fill="#ADD1B2" rx="11" ry="11" style="stroke:#A80036;stroke-width:1.0;"/><path d="M179,19.5 Q179.2031,19 179.4375,18.75 Q179.6719,18.5 179.9375,18.5 Q180.4063,18.5 180.7031,18.7813 Q181,19.0625 181,19.7188 L181,21.2813 Q181,21.9375 180.7188,22.2188 Q180.4375,22.5 180,22.5 Q179.6094,22.5 179.3594,22.3281 Q179.1094,22.1563 179,21.7031 Q178.9531,21.3906 178.7813,21.2188 Q178.4688,20.8906 177.9063,20.7031 Q177.3438,20.5 176.7813,20.5 Q176.0781,20.5 175.4844,20.7813 Q174.9063,21.0625 174.4531,21.6875 Q174,22.3125 174,23.1719 L174,24.0938 Q174,25.125 174.8438,25.8125 Q175.6875,26.5 177.1875,26.5 Q178.0781,26.5 178.7031,26.2969 Q179.0625,26.1875 179.4688,25.8281 Q179.7344,25.625 179.875,25.5625 Q180.0156,25.5 180.1875,25.5 Q180.5156,25.5 180.75,25.7656 Q181,26.0156 181,26.375 Q181,26.7188 180.6563,27.125 Q180.1563,27.7188 179.3594,28.0469 Q178.3125,28.5 177.0313,28.5 Q175.5313,28.5 174.3281,27.9063 Q173.3594,27.4375 172.6719,26.4219 Q172,25.4063 172,24.2031 L172,23.1094 Q172,21.8594 172.5938,20.7656 Q173.2031,19.6719 174.25,19.0938 Q175.3125,18.5 176.5,18.5 Q177.2188,18.5 177.8438,18.75 Q178.4688,19 179,19.5 Z " fill="#000000"/><text fill="#000000" font-family="sans-serif" font-size="12" lengthAdjust="spacing" textLength="53" x="191" y="27.9102">Company</text><line style="stroke:#A80036;stroke-width:1.5;" x1="163" x2="246" y1="39" y2="39"/><text fill="#000000" font-family="sans-serif" font-size="11" lengthAdjust="spacing" textLength="59" x="168" y="54.4189">-designation</text><line style="stroke:#A80036;stroke-width:1.5;" x1="163" x2="246" y1="60.8359" y2="60.8359"/><!--MD5=[da547346deef918ea16944ba046651ef]
class Administrator--><rect codeLine="7" fill="#FEFECE" filter="url(#f3xim9eft72qh)" height="48" id="Administrator" style="stroke:#A80036;stroke-width:1.5;" width="105" x="22" y="14"/><ellipse cx="37" cy="30" fill="#ADD1B2" rx="11" ry="11" style="stroke:#A80036;stroke-width:1.0;"/><path d="M39,26.5 Q39.2031,26 39.4375,25.75 Q39.6719,25.5 39.9375,25.5 Q40.4063,25.5 40.7031,25.7813 Q41,26.0625 41,26.7188 L41,28.2813 Q41,28.9375 40.7188,29.2188 Q40.4375,29.5 40,29.5 Q39.6094,29.5 39.3594,29.3281 Q39.1094,29.1563 39,28.7031 Q38.9531,28.3906 38.7813,28.2188 Q38.4688,27.8906 37.9063,27.7031 Q37.3438,27.5 36.7813,27.5 Q36.0781,27.5 35.4844,27.7813 Q34.9063,28.0625 34.4531,28.6875 Q34,29.3125 34,30.1719 L34,31.0938 Q34,32.125 34.8438,32.8125 Q35.6875,33.5 37.1875,33.5 Q38.0781,33.5 38.7031,33.2969 Q39.0625,33.1875 39.4688,32.8281 Q39.7344,32.625 39.875,32.5625 Q40.0156,32.5 40.1875,32.5 Q40.5156,32.5 40.75,32.7656 Q41,33.0156 41,33.375 Q41,33.7188 40.6563,34.125 Q40.1563,34.7188 39.3594,35.0469 Q38.3125,35.5 37.0313,35.5 Q35.5313,35.5 34.3281,34.9063 Q33.3594,34.4375 32.6719,33.4219 Q32,32.4063 32,31.2031 L32,30.1094 Q32,28.8594 32.5938,27.7656 Q33.2031,26.6719 34.25,26.0938 Q35.3125,25.5 36.5,25.5 Q37.2188,25.5 37.8438,25.75 Q38.4688,26 39,26.5 Z " fill="#000000"/><text fill="#000000" font-family="sans-serif" font-size="12" lengthAdjust="spacing" textLength="73" x="51" y="34.9102">Administrator</text><line style="stroke:#A80036;stroke-width:1.5;" x1="23" x2="126" y1="46" y2="46"/><line style="stroke:#A80036;stroke-width:1.5;" x1="23" x2="126" y1="54" y2="54"/><!--MD5=[ec908970c524777c08fd0d8397a1f7bf]
class CollectionMethod--><rect codeLine="9" fill="#FEFECE" filter="url(#f3xim9eft72qh)" height="61.8359" id="CollectionMethod" style="stroke:#A80036;stroke-width:1.5;" width="127" x="7" y="315"/><ellipse cx="22" cy="331" fill="#ADD1B2" rx="11" ry="11" style="stroke:#A80036;stroke-width:1.0;"/><path d="M24,327.5 Q24.2031,327 24.4375,326.75 Q24.6719,326.5 24.9375,326.5 Q25.4063,326.5 25.7031,326.7813 Q26,327.0625 26,327.7188 L26,329.2813 Q26,329.9375 25.7188,330.2188 Q25.4375,330.5 25,330.5 Q24.6094,330.5 24.3594,330.3281 Q24.1094,330.1563 24,329.7031 Q23.9531,329.3906 23.7813,329.2188 Q23.4688,328.8906 22.9063,328.7031 Q22.3438,328.5 21.7813,328.5 Q21.0781,328.5 20.4844,328.7813 Q19.9063,329.0625 19.4531,329.6875 Q19,330.3125 19,331.1719 L19,332.0938 Q19,333.125 19.8438,333.8125 Q20.6875,334.5 22.1875,334.5 Q23.0781,334.5 23.7031,334.2969 Q24.0625,334.1875 24.4688,333.8281 Q24.7344,333.625 24.875,333.5625 Q25.0156,333.5 25.1875,333.5 Q25.5156,333.5 25.75,333.7656 Q26,334.0156 26,334.375 Q26,334.7188 25.6563,335.125 Q25.1563,335.7188 24.3594,336.0469 Q23.3125,336.5 22.0313,336.5 Q20.5313,336.5 19.3281,335.9063 Q18.3594,335.4375 17.6719,334.4219 Q17,333.4063 17,332.2031 L17,331.1094 Q17,329.8594 17.5938,328.7656 Q18.2031,327.6719 19.25,327.0938 Q20.3125,326.5 21.5,326.5 Q22.2188,326.5 22.8438,326.75 Q23.4688,327 24,327.5 Z " fill="#000000"/><text fill="#000000" font-family="sans-serif" font-size="12" lengthAdjust="spacing" textLength="95" x="36" y="335.9102">CollectionMethod</text><line style="stroke:#A80036;stroke-width:1.5;" x1="8" x2="133" y1="347" y2="347"/><text fill="#000000" font-family="sans-serif" font-size="11" lengthAdjust="spacing" textLength="57" x="13" y="362.4189">-description</text><line style="stroke:#A80036;stroke-width:1.5;" x1="8" x2="133" y1="368.8359" y2="368.8359"/><!--MD5=[aeb3272166074d8737a70b61b1e71682]
class TestType--><rect codeLine="13" fill="#FEFECE" filter="url(#f3xim9eft72qh)" height="75.6719" id="TestType" style="stroke:#A80036;stroke-width:1.5;" width="82" x="98.5" y="147"/><ellipse cx="113.5" cy="163" fill="#ADD1B2" rx="11" ry="11" style="stroke:#A80036;stroke-width:1.0;"/><path d="M115.5,159.5 Q115.7031,159 115.9375,158.75 Q116.1719,158.5 116.4375,158.5 Q116.9063,158.5 117.2031,158.7813 Q117.5,159.0625 117.5,159.7188 L117.5,161.2813 Q117.5,161.9375 117.2188,162.2188 Q116.9375,162.5 116.5,162.5 Q116.1094,162.5 115.8594,162.3281 Q115.6094,162.1563 115.5,161.7031 Q115.4531,161.3906 115.2813,161.2188 Q114.9688,160.8906 114.4063,160.7031 Q113.8438,160.5 113.2813,160.5 Q112.5781,160.5 111.9844,160.7813 Q111.4063,161.0625 110.9531,161.6875 Q110.5,162.3125 110.5,163.1719 L110.5,164.0938 Q110.5,165.125 111.3438,165.8125 Q112.1875,166.5 113.6875,166.5 Q114.5781,166.5 115.2031,166.2969 Q115.5625,166.1875 115.9688,165.8281 Q116.2344,165.625 116.375,165.5625 Q116.5156,165.5 116.6875,165.5 Q117.0156,165.5 117.25,165.7656 Q117.5,166.0156 117.5,166.375 Q117.5,166.7188 117.1563,167.125 Q116.6563,167.7188 115.8594,168.0469 Q114.8125,168.5 113.5313,168.5 Q112.0313,168.5 110.8281,167.9063 Q109.8594,167.4375 109.1719,166.4219 Q108.5,165.4063 108.5,164.2031 L108.5,163.1094 Q108.5,161.8594 109.0938,160.7656 Q109.7031,159.6719 110.75,159.0938 Q111.8125,158.5 113,158.5 Q113.7188,158.5 114.3438,158.75 Q114.9688,159 115.5,159.5 Z " fill="#000000"/><text fill="#000000" font-family="sans-serif" font-size="12" lengthAdjust="spacing" textLength="50" x="127.5" y="167.9102">TestType</text><line style="stroke:#A80036;stroke-width:1.5;" x1="99.5" x2="179.5" y1="179" y2="179"/><text fill="#000000" font-family="sans-serif" font-size="11" lengthAdjust="spacing" textLength="28" x="104.5" y="194.4189">-code</text><text fill="#000000" font-family="sans-serif" font-size="11" lengthAdjust="spacing" textLength="57" x="104.5" y="208.2549">-description</text><line style="stroke:#A80036;stroke-width:1.5;" x1="99.5" x2="179.5" y1="214.6719" y2="214.6719"/><!--MD5=[a96594a83e2ecdc78cbf17c2ddf01934]
class Category--><rect codeLine="18" fill="#FEFECE" filter="url(#f3xim9eft72qh)" height="89.5078" id="Category" style="stroke:#A80036;stroke-width:1.5;" width="81" x="169" y="301"/><ellipse cx="184" cy="317" fill="#ADD1B2" rx="11" ry="11" style="stroke:#A80036;stroke-width:1.0;"/><path d="M186,313.5 Q186.2031,313 186.4375,312.75 Q186.6719,312.5 186.9375,312.5 Q187.4063,312.5 187.7031,312.7813 Q188,313.0625 188,313.7188 L188,315.2813 Q188,315.9375 187.7188,316.2188 Q187.4375,316.5 187,316.5 Q186.6094,316.5 186.3594,316.3281 Q186.1094,316.1563 186,315.7031 Q185.9531,315.3906 185.7813,315.2188 Q185.4688,314.8906 184.9063,314.7031 Q184.3438,314.5 183.7813,314.5 Q183.0781,314.5 182.4844,314.7813 Q181.9063,315.0625 181.4531,315.6875 Q181,316.3125 181,317.1719 L181,318.0938 Q181,319.125 181.8438,319.8125 Q182.6875,320.5 184.1875,320.5 Q185.0781,320.5 185.7031,320.2969 Q186.0625,320.1875 186.4688,319.8281 Q186.7344,319.625 186.875,319.5625 Q187.0156,319.5 187.1875,319.5 Q187.5156,319.5 187.75,319.7656 Q188,320.0156 188,320.375 Q188,320.7188 187.6563,321.125 Q187.1563,321.7188 186.3594,322.0469 Q185.3125,322.5 184.0313,322.5 Q182.5313,322.5 181.3281,321.9063 Q180.3594,321.4375 179.6719,320.4219 Q179,319.4063 179,318.2031 L179,317.1094 Q179,315.8594 179.5938,314.7656 Q180.2031,313.6719 181.25,313.0938 Q182.3125,312.5 183.5,312.5 Q184.2188,312.5 184.8438,312.75 Q185.4688,313 186,313.5 Z " fill="#000000"/><text fill="#000000" font-family="sans-serif" font-size="12" lengthAdjust="spacing" textLength="49" x="198" y="321.9102">Category</text><line style="stroke:#A80036;stroke-width:1.5;" x1="170" x2="249" y1="333" y2="333"/><text fill="#000000" font-family="sans-serif" font-size="11" lengthAdjust="spacing" textLength="28" x="175" y="348.4189">-code</text><text fill="#000000" font-family="sans-serif" font-size="11" lengthAdjust="spacing" textLength="57" x="175" y="362.2549">-description</text><text fill="#000000" font-family="sans-serif" font-size="11" lengthAdjust="spacing" textLength="31" x="175" y="376.0908">-nhsID</text><line style="stroke:#A80036;stroke-width:1.5;" x1="170" x2="249" y1="382.5078" y2="382.5078"/><!--MD5=[71159b3869b6d7a411768e18bcaa697a]
link Administrator to TestType--><path codeLine="24" d="M74.55,62.06 C75.34,78.06 77.94,99.56 85.5,117 C90.02,127.42 96.61,137.55 103.65,146.66 " fill="none" id="Administrator-TestType" style="stroke:#A80036;stroke-width:1.0;"/><polygon fill="#000000" points="88.8737,103.4477,89.0366,112.9568,94.5948,111.045,88.8737,103.4477" style="stroke:#000000;stroke-width:1.0;"/><text fill="#000000" font-family="sans-serif" font-size="13" lengthAdjust="spacing" textLength="61" x="99.5" y="113.4951">created by</text><text fill="#000000" font-family="sans-serif" font-size="13" lengthAdjust="spacing" textLength="7" x="66.7091" y="83.4126">1</text><text fill="#000000" font-family="sans-serif" font-size="13" lengthAdjust="spacing" textLength="5" x="92.0586" y="136.2488">*</text><!--MD5=[2148a3300dad30af455fcbe81ca204c2]
link TestType to Category--><path codeLine="25" d="M155.91,223.28 C166.14,246.5 179.34,276.49 190.08,300.9 " fill="none" id="TestType-Category" style="stroke:#A80036;stroke-width:1.0;"/><polygon fill="#000000" points="183.5145,266.752,182.56,257.2894,177.1804,259.6577,183.5145,266.752" style="stroke:#000000;stroke-width:1.0;"/><text fill="#000000" font-family="sans-serif" font-size="13" lengthAdjust="spacing" textLength="78" x="190.5" y="267.4951">associated to</text><text fill="#000000" font-family="sans-serif" font-size="13" lengthAdjust="spacing" textLength="7" x="150.9675" y="244.2052">1</text><text fill="#000000" font-family="sans-serif" font-size="13" lengthAdjust="spacing" textLength="20" x="165.3912" y="289.9995">1..*</text><!--MD5=[2595b7e412cbba06707a2f110c7e1781]
link TestType to CollectionMethod--><path codeLine="26" d="M123.32,223.28 C111.21,251.18 94.86,288.86 83.57,314.87 " fill="none" id="TestType-CollectionMethod" style="stroke:#A80036;stroke-width:1.0;"/><polygon fill="#000000" points="111.5094,266.7624,117.8064,259.6351,112.4145,257.295,111.5094,266.7624" style="stroke:#000000;stroke-width:1.0;"/><text fill="#000000" font-family="sans-serif" font-size="13" lengthAdjust="spacing" textLength="32" x="122.5" y="267.4951">has a</text><text fill="#000000" font-family="sans-serif" font-size="13" lengthAdjust="spacing" textLength="7" x="113.1835" y="244.2052">1</text><text fill="#000000" font-family="sans-serif" font-size="13" lengthAdjust="spacing" textLength="7" x="78.5438" y="304.3477">1</text><!--MD5=[742a261f27a3dcd734c626287d811acd]
link Company to TestType--><path codeLine="27" d="M191.03,69.04 C180.92,91.61 167.01,122.64 156.19,146.78 " fill="none" id="Company-TestType" style="stroke:#A80036;stroke-width:1.0;"/><polygon fill="#000000" points="178.4552,112.7385,184.8362,105.6864,179.4724,103.2825,178.4552,112.7385" style="stroke:#000000;stroke-width:1.0;"/><text fill="#000000" font-family="sans-serif" font-size="13" lengthAdjust="spacing" textLength="53" x="189.5" y="113.4951">conducts</text><text fill="#000000" font-family="sans-serif" font-size="13" lengthAdjust="spacing" textLength="7" x="180.689" y="90.2719">1</text><text fill="#000000" font-family="sans-serif" font-size="13" lengthAdjust="spacing" textLength="5" x="153.7176" y="136.1027">*</text><!--MD5=[531a3a4e533ae2e2ffeac703385bc8fe]
@startuml
skinparam classAttributeIconSize 0

class Company {
-designation
}

class Administrator

class CollectionMethod {
-description
}

class TestType {
-code
-description
}

class Category {
-code
-description
-nhsID
}

TestType "*"-up-"1" Administrator : created by >
Category "1..*"-up-"1" TestType  : associated to <
TestType "1"- -"1" CollectionMethod : has a  >
Company "1"-down-"*" TestType : conducts >
@enduml

PlantUML version 1.2021.5(Sun Apr 25 12:20:28 BST 2021)
(GPL source distribution)
Java Runtime: OpenJDK Runtime Environment
JVM: Dynamic Code Evolution 64-Bit Server VM
Default Encoding: Cp1252
Language: pt
Country: PT
--></g></svg>