<?xml version="1.0" encoding="UTF-8" standalone="no"?><svg xmlns="http://www.w3.org/2000/svg" xmlns:xlink="http://www.w3.org/1999/xlink" contentScriptType="application/ecmascript" contentStyleType="text/css" height="1736.25px" preserveAspectRatio="none" style="width:966px;height:1736px;" version="1.1" viewBox="0 0 966 1736" width="966.25px" zoomAndPan="magnify"><defs><filter height="300%" id="f19lmlo7z2i0yy" width="300%" x="-1" y="-1"><feGaussianBlur result="blurOut" stdDeviation="2.5"/><feColorMatrix in="blurOut" result="blurOut2" type="matrix" values="0 0 0 0 0 0 0 0 0 0 0 0 0 0 0 0 0 0 .4 0"/><feOffset dx="5.0" dy="5.0" in="blurOut2" result="blurOut3"/><feBlend in="SourceGraphic" in2="blurOut3" mode="normal"/></filter></defs><g><!--MD5=[99b31deea5d7419a569cd5090bf83263]
cluster System--><rect fill="#FFFFFF" filter="url(#f19lmlo7z2i0yy)" height="1712.5" style="stroke:#000000;stroke-width:1.875;" width="515" x="202.5" y="8.75"/><text fill="#000000" font-family="sans-serif" font-size="17.5" font-weight="bold" lengthAdjust="spacing" textLength="62.5" x="428.75" y="29.4165">System</text><ellipse cx="459.8487" cy="77.3447" fill="#FEFECE" filter="url(#f19lmlo7z2i0yy)" rx="99.8487" ry="22.9697" style="stroke:#A80036;stroke-width:1.875;"/><text fill="#000000" font-family="sans-serif" font-size="17.5" lengthAdjust="spacing" textLength="142.5" x="387.2967" y="82.378">US4: Register test</text><ellipse cx="460.0082" cy="169.0016" fill="#FEFECE" filter="url(#f19lmlo7z2i0yy)" rx="105.0082" ry="24.0016" style="stroke:#A80036;stroke-width:1.875;"/><text fill="#000000" font-family="sans-serif" font-size="17.5" lengthAdjust="spacing" textLength="155" x="382.5082" y="173.6623">US3: Register client</text><ellipse cx="460.2377" cy="265.0475" fill="#FEFECE" filter="url(#f19lmlo7z2i0yy)" rx="128.9877" ry="28.7975" style="stroke:#A80036;stroke-width:1.875;"/><text fill="#000000" font-family="sans-serif" font-size="17.5" lengthAdjust="spacing" textLength="210" x="355.2377" y="269.7082">US12: Register test results</text><ellipse cx="459.741" cy="717.3232" fill="#FEFECE" filter="url(#f19lmlo7z2i0yy)" rx="127.866" ry="28.5732" style="stroke:#A80036;stroke-width:1.875;"/><text fill="#000000" font-family="sans-serif" font-size="17.5" lengthAdjust="spacing" textLength="207.5" x="355.991" y="721.9838">US14: Generate diagnosis</text><ellipse cx="460.3015" cy="1381.1853" fill="#FEFECE" filter="url(#f19lmlo7z2i0yy)" rx="128.4265" ry="28.6853" style="stroke:#A80036;stroke-width:1.875;"/><text fill="#000000" font-family="sans-serif" font-size="17.5" lengthAdjust="spacing" textLength="208.75" x="355.9265" y="1385.846">US1: Generate NHS report</text><ellipse cx="459.8681" cy="1486.4736" fill="#FEFECE" filter="url(#f19lmlo7z2i0yy)" rx="145.4931" ry="32.0986" style="stroke:#A80036;stroke-width:1.875;"/><text fill="#000000" font-family="sans-serif" font-size="17.5" lengthAdjust="spacing" textLength="246.25" x="336.7431" y="1491.1343">US19: Send daily report to NHS</text><ellipse cx="460.173" cy="372.6596" fill="#FEFECE" filter="url(#f19lmlo7z2i0yy)" rx="157.673" ry="34.5346" style="stroke:#A80036;stroke-width:1.875;"/><text fill="#000000" font-family="sans-serif" font-size="17.5" lengthAdjust="spacing" textLength="272.5" x="323.923" y="377.3202">US15: Validate the clinical analysis</text><ellipse cx="459.87" cy="1678.724" fill="#FEFECE" filter="url(#f19lmlo7z2i0yy)" rx="97.37" ry="22.474" style="stroke:#A80036;stroke-width:1.875;"/><text fill="#000000" font-family="sans-serif" font-size="17.5" lengthAdjust="spacing" textLength="136.25" x="389.2944" y="1684.0582">US2: View results</text><ellipse cx="460.2407" cy="620.0481" fill="#FEFECE" filter="url(#f19lmlo7z2i0yy)" rx="107.1157" ry="24.4231" style="stroke:#A80036;stroke-width:1.875;"/><text fill="#000000" font-family="sans-serif" font-size="17.5" lengthAdjust="spacing" textLength="160" x="380.2407" y="624.7088">US13: Check results</text><ellipse cx="459.8668" cy="1278.8484" fill="#FEFECE" filter="url(#f19lmlo7z2i0yy)" rx="132.3668" ry="29.4734" style="stroke:#A80036;stroke-width:1.875;"/><text fill="#000000" font-family="sans-serif" font-size="17.5" lengthAdjust="spacing" textLength="217.5" x="351.1168" y="1283.509">US7: Specify new employee</text><ellipse cx="459.7332" cy="833.6966" fill="#FEFECE" filter="url(#f19lmlo7z2i0yy)" rx="200.3582" ry="43.0716" style="stroke:#A80036;stroke-width:1.875;"/><text fill="#000000" font-family="sans-serif" font-size="17.5" lengthAdjust="spacing" textLength="362.5" x="278.4832" y="838.3573">US8: Specify a new clinical analysis laboratory</text><ellipse cx="460.1312" cy="946.5262" fill="#FEFECE" filter="url(#f19lmlo7z2i0yy)" rx="111.3812" ry="25.2762" style="stroke:#A80036;stroke-width:1.875;"/><text fill="#000000" font-family="sans-serif" font-size="17.5" lengthAdjust="spacing" textLength="170" x="375.1312" y="951.1869">US9: Specify new test</text><ellipse cx="459.7587" cy="1048.9517" fill="#FEFECE" filter="url(#f19lmlo7z2i0yy)" rx="154.7587" ry="33.9517" style="stroke:#A80036;stroke-width:1.875;"/><text fill="#000000" font-family="sans-serif" font-size="17.5" lengthAdjust="spacing" textLength="266.25" x="326.6337" y="1053.6124">US10: Specify new test parameter</text><ellipse cx="460.0268" cy="1166.0054" fill="#FEFECE" filter="url(#f19lmlo7z2i0yy)" rx="180.6518" ry="39.1304" style="stroke:#A80036;stroke-width:1.875;"/><text fill="#000000" font-family="sans-serif" font-size="17.5" lengthAdjust="spacing" textLength="321.25" x="299.4018" y="1170.666">US11: Specify a new parameter category</text><ellipse cx="460.1312" cy="1587.7762" fill="#FEFECE" filter="url(#f19lmlo7z2i0yy)" rx="111.3812" ry="25.2762" style="stroke:#A80036;stroke-width:1.875;"/><text fill="#000000" font-family="sans-serif" font-size="17.5" lengthAdjust="spacing" textLength="170" x="375.1312" y="1592.4369">US5: Register sample</text><ellipse cx="459.7034" cy="501.0657" fill="#FEFECE" filter="url(#f19lmlo7z2i0yy)" rx="237.2034" ry="50.4407" style="stroke:#A80036;stroke-width:1.875;"/><text fill="#000000" font-family="sans-serif" font-size="17.5" lengthAdjust="spacing" textLength="438.75" x="240.3284" y="505.7263">US6: View statistics for number of tests waiting for result</text><!--MD5=[87a04b683345c3cce94ac9a6e159ab2f]
entity Receptionist--><ellipse cx="77.5" cy="83.75" fill="#FEFECE" filter="url(#f19lmlo7z2i0yy)" rx="10" ry="10" style="stroke:#A80036;stroke-width:1.875;"/><path d="M77.5,93.75 L77.5,127.5 M61.25,103.75 L93.75,103.75 M77.5,127.5 L61.25,146.25 M77.5,127.5 L93.75,146.25 " fill="none" filter="url(#f19lmlo7z2i0yy)" style="stroke:#A80036;stroke-width:1.875;"/><text fill="#000000" font-family="sans-serif" font-size="17.5" lengthAdjust="spacing" textLength="97.5" x="28.75" y="171.2915">Receptionist</text><!--MD5=[e7d38603a700bedb049d1f5e1789c8aa]
entity MLT--><ellipse cx="865" cy="1039.375" fill="#FEFECE" filter="url(#f19lmlo7z2i0yy)" rx="10" ry="10" style="stroke:#A80036;stroke-width:1.875;"/><path d="M865,1049.375 L865,1083.125 M848.75,1059.375 L881.25,1059.375 M865,1083.125 L848.75,1101.875 M865,1083.125 L881.25,1101.875 " fill="none" filter="url(#f19lmlo7z2i0yy)" style="stroke:#A80036;stroke-width:1.875;"/><text fill="#000000" font-family="sans-serif" font-size="17.5" lengthAdjust="spacing" textLength="95" x="817.5" y="1126.9165">Medical Lab</text><text fill="#000000" font-family="sans-serif" font-size="17.5" lengthAdjust="spacing" textLength="86.25" x="822.5" y="1148.9282">Technician</text><!--MD5=[234b11d210a3d78b3bcac40f493e1b07]
entity CCT--><ellipse cx="77.5" cy="346.875" fill="#FEFECE" filter="url(#f19lmlo7z2i0yy)" rx="10" ry="10" style="stroke:#A80036;stroke-width:1.875;"/><path d="M77.5,356.875 L77.5,390.625 M61.25,366.875 L93.75,366.875 M77.5,390.625 L61.25,409.375 M77.5,390.625 L93.75,409.375 " fill="none" filter="url(#f19lmlo7z2i0yy)" style="stroke:#A80036;stroke-width:1.875;"/><text fill="#000000" font-family="sans-serif" font-size="17.5" lengthAdjust="spacing" textLength="140" x="7.5" y="434.4165">Clinical Chemistry</text><text fill="#000000" font-family="sans-serif" font-size="17.5" lengthAdjust="spacing" textLength="101.25" x="12.5" y="456.4282">Technologist</text><!--MD5=[5a5d35bcfc46556bdff8e646cc6c81c2]
entity Doctor--><ellipse cx="77.5" cy="628.75" fill="#FEFECE" filter="url(#f19lmlo7z2i0yy)" rx="10" ry="10" style="stroke:#A80036;stroke-width:1.875;"/><path d="M77.5,638.75 L77.5,672.5 M61.25,648.75 L93.75,648.75 M77.5,672.5 L61.25,691.25 M77.5,672.5 L93.75,691.25 " fill="none" filter="url(#f19lmlo7z2i0yy)" style="stroke:#A80036;stroke-width:1.875;"/><text fill="#000000" font-family="sans-serif" font-size="17.5" lengthAdjust="spacing" textLength="132.5" x="11.25" y="716.2915">Specialist Doctor</text><!--MD5=[b0100dfa164aec77c855c16afe11d7ec]
entity LC--><ellipse cx="865" cy="461.25" fill="#FEFECE" filter="url(#f19lmlo7z2i0yy)" rx="10" ry="10" style="stroke:#A80036;stroke-width:1.875;"/><path d="M865,471.25 L865,505 M848.75,481.25 L881.25,481.25 M865,505 L848.75,523.75 M865,505 L881.25,523.75 " fill="none" filter="url(#f19lmlo7z2i0yy)" style="stroke:#A80036;stroke-width:1.875;"/><text fill="#000000" font-family="sans-serif" font-size="17.5" lengthAdjust="spacing" textLength="185" x="772.5" y="548.7915">Laboratory Coordinator</text><!--MD5=[0ba5ee7700168656dc1b457c6fe9fdac]
entity Client--><ellipse cx="865" cy="1638.75" fill="#FEFECE" filter="url(#f19lmlo7z2i0yy)" rx="10" ry="10" style="stroke:#A80036;stroke-width:1.875;"/><path d="M865,1648.75 L865,1682.5 M848.75,1658.75 L881.25,1658.75 M865,1682.5 L848.75,1701.25 M865,1682.5 L881.25,1701.25 " fill="none" filter="url(#f19lmlo7z2i0yy)" style="stroke:#A80036;stroke-width:1.875;"/><text fill="#000000" font-family="sans-serif" font-size="17.5" lengthAdjust="spacing" textLength="45" x="842.5" y="1726.2915">Client</text><!--MD5=[62529e7d5259bf274c3bf3e446350d88]
entity Administrator--><ellipse cx="77.5" cy="1008.75" fill="#FEFECE" filter="url(#f19lmlo7z2i0yy)" rx="10" ry="10" style="stroke:#A80036;stroke-width:1.875;"/><path d="M77.5,1018.75 L77.5,1052.5 M61.25,1028.75 L93.75,1028.75 M77.5,1052.5 L61.25,1071.25 M77.5,1052.5 L93.75,1071.25 " fill="none" filter="url(#f19lmlo7z2i0yy)" style="stroke:#A80036;stroke-width:1.875;"/><text fill="#000000" font-family="sans-serif" font-size="17.5" lengthAdjust="spacing" textLength="103.75" x="25.625" y="1096.2915">Administrator</text><!--MD5=[8deeff1cfa66d96b67ddb5a2a7f9c862]
entity Clock--><ellipse cx="77.5" cy="1383.125" fill="#FEFECE" filter="url(#f19lmlo7z2i0yy)" rx="10" ry="10" style="stroke:#A80036;stroke-width:1.875;"/><path d="M77.5,1393.125 L77.5,1426.875 M61.25,1403.125 L93.75,1403.125 M77.5,1426.875 L61.25,1445.625 M77.5,1426.875 L93.75,1445.625 " fill="none" filter="url(#f19lmlo7z2i0yy)" style="stroke:#A80036;stroke-width:1.875;"/><text fill="#000000" font-family="sans-serif" font-size="17.5" lengthAdjust="spacing" textLength="57.5" x="48.75" y="1470.6665">System</text><text fill="#000000" font-family="sans-serif" font-size="17.5" lengthAdjust="spacing" textLength="43.75" x="53.75" y="1492.6782">Clock</text><!--MD5=[4c70b7d2053631286dbeddefcb91f868]
link Receptionist to US4--><path d="M126.4875,117.9375 C187.6875,110.4875 294.95,97.4375 371.0375,88.175 " fill="none" id="Receptionist-US4" style="stroke:#A80036;stroke-width:1.25;"/><!--MD5=[4b3d96f97d2a13824c4e9ffd6a4094db]
link Receptionist to US3--><path d="M126.4875,129.4 C186.4875,136.5125 290.775,148.8625 366.55,157.825 " fill="none" id="Receptionist-US3" style="stroke:#A80036;stroke-width:1.25;"/><!--MD5=[155ad00363b06ca38de9dfba8c1f66f9]
link CCT to US12--><path d="M147.525,341.3375 C161.75,331.8 177.1125,322.85 192.5,316.25 C239.325,296.1625 294.1625,283.9 341.85,276.4375 " fill="none" id="CCT-US12" style="stroke:#A80036;stroke-width:1.25;"/><!--MD5=[0ce3a7f7d6af1aeda4d0f9e6329db736]
link CCT to US13--><path d="M103.4875,460.2125 C122.1125,499.075 151.5,546.6125 192.5,573.75 C239.4375,604.825 300.875,616.9375 352.9125,621.025 " fill="none" id="CCT-US13" style="stroke:#A80036;stroke-width:1.25;"/><!--MD5=[9ebcca1c85a8cc7ec12fb7b75287d44d]
link Doctor to US14--><path d="M144.075,677.125 C200.1,684.3125 282.0125,694.825 348.2125,703.325 " fill="none" id="Doctor-US14" style="stroke:#A80036;stroke-width:1.25;"/><!--MD5=[b78660090b41364e4e224859ffbc8eff]
link Doctor to US13--><path d="M144.075,660.375 C205.3,652.5125 297.4375,640.7 366.2125,631.875 " fill="none" id="Doctor-US13" style="stroke:#A80036;stroke-width:1.25;"/><!--MD5=[6fd9890cf69bfe3ee8b81959a8dfe7d3]
link US15 to LC--><path d="M589.575,392.0625 C634.0125,400.8 683.65,412.8125 727.5,428.75 C743.1125,434.425 759.15,441.6 774.5,449.225 " fill="none" id="US15-LC" style="stroke:#A80036;stroke-width:1.25;"/><!--MD5=[12cc6c2c805d2b41df80ff9a9d743b5d]
link US13 to LC--><path d="M558.9125,610.5625 C610.1,603.75 673.25,592.3625 727.5,573.75 C743.6,568.225 760.0875,560.9875 775.7875,553.2125 " fill="none" id="US13-LC" style="stroke:#A80036;stroke-width:1.25;"/><!--MD5=[cd2e64dfea35843993ad9ff4a7023f53]
link US2 to Client--><path d="M557.6625,1678.75 C652.3125,1678.75 789.9,1678.75 842.35,1678.75 " fill="none" id="US2-Client" style="stroke:#A80036;stroke-width:1.25;"/><!--MD5=[66c934191e991355bf9cd7639b1a9d6c]
link US5 to MLT--><path d="M568.2125,1593.375 C621.95,1590.6875 684.6,1578.1375 727.5,1540 C839.9125,1440.075 861.0875,1250.8875 864.125,1152.6875 " fill="none" id="US5-MLT" style="stroke:#A80036;stroke-width:1.25;"/><!--MD5=[bb90dd6d03d92a24a9044f7ad7356e33]
link US13 to MLT--><path d="M563.3125,613.6625 C617.9625,615.6875 682.9875,627.5375 727.5,666.25 C833.625,758.55 857.7125,933.7875 862.775,1027.3875 " fill="none" id="US13-MLT" style="stroke:#A80036;stroke-width:1.25;"/><!--MD5=[3a3baf24cc977e0b080bc11e0780e534]
link Administrator to US7--><path d="M98.3625,1101 C116.5,1141.925 147.475,1196.8875 192.5,1227.5 C232.2,1254.5 282.5375,1268.1125 328.725,1274.7375 " fill="none" id="Administrator-US7" style="stroke:#A80036;stroke-width:1.25;"/><!--MD5=[54cb96b0569a01f749f12407765c2ffb]
link Administrator to US8--><path d="M105.8,996.85 C125.5625,963.95 155.3375,923.1375 192.5,898.75 C221.5375,879.7 255.6625,866.225 289.625,856.7 " fill="none" id="Administrator-US8" style="stroke:#A80036;stroke-width:1.25;"/><!--MD5=[895e1d88cda891672ffcde62fb316e5e]
link Administrator to US9--><path d="M129.525,1019.75 C148.7375,1009.825 171.1375,999.475 192.5,992.5 C246.125,974.9875 308.125,963.725 358.7875,956.7 " fill="none" id="Administrator-US9" style="stroke:#A80036;stroke-width:1.25;"/><!--MD5=[53f375424193eba8daf234b2873288b2]
link Administrator to US10--><path d="M129.6,1048.75 C174.5,1048.75 242.35,1048.75 304.8,1048.75 " fill="none" id="Administrator-US10" style="stroke:#A80036;stroke-width:1.25;"/><!--MD5=[6213791c4a1bf6b94e1786a2cd4862fb]
link Administrator to US11--><path d="M129.825,1076.4 C149.0625,1086.025 171.4125,1096.275 192.5,1103.75 C234.125,1118.5 280.6375,1130.775 323,1140.4375 " fill="none" id="Administrator-US11" style="stroke:#A80036;stroke-width:1.25;"/><!--MD5=[b471d56de7bc8db93ec9047a5778ea73]
link US6 to LC--><path d="M697.7125,501.25 C724.0625,501.25 749.5875,501.25 772.3875,501.25 " fill="none" id="US6-LC" style="stroke:#A80036;stroke-width:1.25;"/><!--MD5=[b38519fe40768d832bf9d93dc2b823e6]
link Clock to US1--><path d="M106.6875,1429.8875 C157.3375,1422.8875 266.8,1407.775 350.3125,1396.2375 " fill="none" id="Clock-US1" style="stroke:#A80036;stroke-width:1.25;"/><!--MD5=[32dc372af89c7ab7b19b6319b047ac3f]
link Clock to US19--><path d="M106.6875,1437.6125 C154.5125,1444.2125 254.75,1458.0625 336.0875,1469.3 " fill="none" id="Clock-US19" style="stroke:#A80036;stroke-width:1.25;"/><!--MD5=[c5d779fca45df7ca5175b0b698bccc25]
@startuml

left to right direction
skinparam packageStyle rectangle
'Actors
:Receptionist:
:Medical Lab\n Technician: as MLT
:Clinical Chemistry\n Technologist: as CCT
:Specialist Doctor: as Doctor
:Laboratory Coordinator: as LC
:Client:
:Administrator:
:System\n Clock: as Clock

package System {
    (US4: Register test) as US4
    (US3: Register client) as US3
    (US12: Register test results) as US12
    (US14: Generate diagnosis) as US14
    (US1: Generate NHS report) as US1
    (US19: Send daily report to NHS) as US19
    (US15: Validate the clinical analysis) as US15
    (US2: View results) as US2
    (US13: Check results) as US13
    (US7: Specify new employee) as US7
    (US8: Specify a new clinical analysis laboratory) as US8
    (US9: Specify new test) as US9
    (US10: Specify new test parameter) as US10
    (US11: Specify a new parameter category) as US11
    (US5: Register sample) as US5
    (US6: View statistics for number of tests waiting for result) as US6
}

'Use Cases
Receptionist - - US4
Receptionist - - US3
CCT - - US12
CCT - - US13
Doctor - - US14
Doctor - - US13
US15 - - LC
US13 - - LC
US2 - - Client
US5 - - MLT
US13 - - MLT
Administrator - - US7
Administrator - - US8
Administrator - - US9
Administrator - - US10
Administrator - - US11
US6 - - LC
Clock - - US1
Clock - - US19
@enduml

@startuml

left to right direction
skinparam packageStyle rectangle
:Receptionist:
:Medical Lab\n Technician: as MLT
:Clinical Chemistry\n Technologist: as CCT
:Specialist Doctor: as Doctor
:Laboratory Coordinator: as LC
:Client:
:Administrator:
:System\n Clock: as Clock

package System {
    (US4: Register test) as US4
    (US3: Register client) as US3
    (US12: Register test results) as US12
    (US14: Generate diagnosis) as US14
    (US1: Generate NHS report) as US1
    (US19: Send daily report to NHS) as US19
    (US15: Validate the clinical analysis) as US15
    (US2: View results) as US2
    (US13: Check results) as US13
    (US7: Specify new employee) as US7
    (US8: Specify a new clinical analysis laboratory) as US8
    (US9: Specify new test) as US9
    (US10: Specify new test parameter) as US10
    (US11: Specify a new parameter category) as US11
    (US5: Register sample) as US5
    (US6: View statistics for number of tests waiting for result) as US6
}

Receptionist - - US4
Receptionist - - US3
CCT - - US12
CCT - - US13
Doctor - - US14
Doctor - - US13
US15 - - LC
US13 - - LC
US2 - - Client
US5 - - MLT
US13 - - MLT
Administrator - - US7
Administrator - - US8
Administrator - - US9
Administrator - - US10
Administrator - - US11
US6 - - LC
Clock - - US1
Clock - - US19
@enduml

PlantUML version 1.2021.4(Sun Apr 04 09:49:39 BST 2021)
(GPL source distribution)
Java Runtime: OpenJDK Runtime Environment
JVM: OpenJDK 64-Bit Server VM
Default Encoding: Cp1252
Language: pt
Country: PT
--></g></svg>