<?xml version="1.0" encoding="UTF-8" standalone="no"?><svg xmlns="http://www.w3.org/2000/svg" xmlns:xlink="http://www.w3.org/1999/xlink" contentScriptType="application/ecmascript" contentStyleType="text/css" height="1226px" preserveAspectRatio="none" style="width:2136px;height:1226px;background:#FFFFFF;" version="1.1" viewBox="0 0 2136 1226" width="2136px" zoomAndPan="magnify"><defs><filter height="300%" id="fpgxiz45i6v58" width="300%" x="-1" y="-1"><feGaussianBlur result="blurOut" stdDeviation="2.0"/><feColorMatrix in="blurOut" result="blurOut2" type="matrix" values="0 0 0 0 0 0 0 0 0 0 0 0 0 0 0 0 0 0 .4 0"/><feOffset dx="4.0" dy="4.0" in="blurOut2" result="blurOut3"/><feBlend in="SourceGraphic" in2="blurOut3" mode="normal"/></filter></defs><g><rect fill="#FFFFFF" filter="url(#fpgxiz45i6v58)" height="1022.7891" style="stroke:#A80036;stroke-width:1.0;" width="10" x="77" y="99.6094"/><rect fill="#FFFFFF" filter="url(#fpgxiz45i6v58)" height="52.7031" style="stroke:#A80036;stroke-width:1.0;" width="10" x="525" y="99.6094"/><rect fill="#FFFFFF" filter="url(#fpgxiz45i6v58)" height="939.7344" style="stroke:#A80036;stroke-width:1.0;" width="10" x="525" y="182.6641"/><rect fill="#FFFFFF" filter="url(#fpgxiz45i6v58)" height="151.0547" style="stroke:#A80036;stroke-width:1.0;" width="10" x="978" y="213.0156"/><rect fill="#FFFFFF" filter="url(#fpgxiz45i6v58)" height="120.7031" style="stroke:#A80036;stroke-width:1.0;" width="10" x="978" y="394.4219"/><rect fill="#FFFFFF" filter="url(#fpgxiz45i6v58)" height="60.3516" style="stroke:#A80036;stroke-width:1.0;" width="10" x="978" y="570.8281"/><rect fill="#FFFFFF" filter="url(#fpgxiz45i6v58)" height="60.3516" style="stroke:#A80036;stroke-width:1.0;" width="10" x="978" y="661.5313"/><rect fill="#FFFFFF" filter="url(#fpgxiz45i6v58)" height="60.3516" style="stroke:#A80036;stroke-width:1.0;" width="10" x="978" y="752.2344"/><rect fill="#FFFFFF" filter="url(#fpgxiz45i6v58)" height="91.0547" style="stroke:#A80036;stroke-width:1.0;" width="10" x="978" y="849.9375"/><rect fill="#FFFFFF" filter="url(#fpgxiz45i6v58)" height="120.7031" style="stroke:#A80036;stroke-width:1.0;" width="10" x="978" y="971.3438"/><rect fill="#FFFFFF" filter="url(#fpgxiz45i6v58)" height="30" style="stroke:#A80036;stroke-width:1.0;" width="10" x="1393" y="273.7188"/><rect fill="#FFFFFF" filter="url(#fpgxiz45i6v58)" height="30" style="stroke:#A80036;stroke-width:1.0;" width="10" x="1393" y="424.7734"/><rect fill="#FFFFFF" filter="url(#fpgxiz45i6v58)" height="30" style="stroke:#A80036;stroke-width:1.0;" width="10" x="1393" y="1001.6953"/><rect fill="#FFFFFF" filter="url(#fpgxiz45i6v58)" height="30" style="stroke:#A80036;stroke-width:1.0;" width="10" x="1514.5" y="485.125"/><rect fill="#FFFFFF" filter="url(#fpgxiz45i6v58)" height="30" style="stroke:#A80036;stroke-width:1.0;" width="10" x="1514.5" y="601.1797"/><rect fill="#FFFFFF" filter="url(#fpgxiz45i6v58)" height="30" style="stroke:#A80036;stroke-width:1.0;" width="10" x="1514.5" y="691.8828"/><rect fill="#FFFFFF" filter="url(#fpgxiz45i6v58)" height="30" style="stroke:#A80036;stroke-width:1.0;" width="10" x="1514.5" y="782.5859"/><rect fill="#FFFFFF" filter="url(#fpgxiz45i6v58)" height="60.7031" style="stroke:#A80036;stroke-width:1.0;" width="10" x="1514.5" y="880.2891"/><rect fill="#FFFFFF" filter="url(#fpgxiz45i6v58)" height="30" style="stroke:#A80036;stroke-width:1.0;" width="10" x="1678.5" y="334.0703"/><rect fill="#FFFFFF" filter="url(#fpgxiz45i6v58)" height="30" style="stroke:#A80036;stroke-width:1.0;" width="10" x="1945.5" y="1062.0469"/><rect fill="#FFFFFF" filter="url(#fpgxiz45i6v58)" height="290.4609" style="stroke:#000000;stroke-width:2.0;" width="1143.5" x="458.5" y="530.125"/><line style="stroke:#A80036;stroke-width:1.0;stroke-dasharray:5.0,5.0;" x1="82" x2="82" y1="89.6094" y2="1140.3984"/><line style="stroke:#A80036;stroke-width:1.0;stroke-dasharray:5.0,5.0;" x1="529.5" x2="529.5" y1="89.6094" y2="1140.3984"/><line style="stroke:#A80036;stroke-width:1.0;stroke-dasharray:5.0,5.0;" x1="982.5" x2="982.5" y1="89.6094" y2="1140.3984"/><line style="stroke:#A80036;stroke-width:1.0;stroke-dasharray:5.0,5.0;" x1="1398" x2="1398" y1="89.6094" y2="1140.3984"/><line style="stroke:#A80036;stroke-width:1.0;stroke-dasharray:5.0,5.0;" x1="1519" x2="1519" y1="89.6094" y2="1140.3984"/><line style="stroke:#A80036;stroke-width:1.0;stroke-dasharray:5.0,5.0;" x1="1683" x2="1683" y1="89.6094" y2="1140.3984"/><line style="stroke:#A80036;stroke-width:1.0;stroke-dasharray:5.0,5.0;" x1="1950" x2="1950" y1="89.6094" y2="1140.3984"/><text fill="#000000" font-family="sans-serif" font-size="14" lengthAdjust="spacing" textLength="148" x="5" y="86.5332">Laboratory Coordinator</text><ellipse cx="82" cy="15" fill="#FEFECE" filter="url(#fpgxiz45i6v58)" rx="8" ry="8" style="stroke:#A80036;stroke-width:2.0;"/><path d="M82,23 L82,50 M69,31 L95,31 M82,50 L69,65 M82,50 L95,65 " fill="none" filter="url(#fpgxiz45i6v58)" style="stroke:#A80036;stroke-width:2.0;"/><text fill="#000000" font-family="sans-serif" font-size="14" lengthAdjust="spacing" textLength="148" x="5" y="1153.9316">Laboratory Coordinator</text><ellipse cx="82" cy="1167.0078" fill="#FEFECE" filter="url(#fpgxiz45i6v58)" rx="8" ry="8" style="stroke:#A80036;stroke-width:2.0;"/><path d="M82,1175.0078 L82,1202.0078 M69,1183.0078 L95,1183.0078 M82,1202.0078 L69,1217.0078 M82,1202.0078 L95,1217.0078 " fill="none" filter="url(#fpgxiz45i6v58)" style="stroke:#A80036;stroke-width:2.0;"/><rect fill="#FEFECE" filter="url(#fpgxiz45i6v58)" height="31.6094" style="stroke:#A80036;stroke-width:1.5;" width="119" x="468.5" y="53"/><text fill="#000000" font-family="sans-serif" font-size="14" lengthAdjust="spacing" textLength="105" x="475.5" y="74.5332">OverviewTestsUI</text><rect fill="#FEFECE" filter="url(#fpgxiz45i6v58)" height="31.6094" style="stroke:#A80036;stroke-width:1.5;" width="119" x="468.5" y="1139.3984"/><text fill="#000000" font-family="sans-serif" font-size="14" lengthAdjust="spacing" textLength="105" x="475.5" y="1160.9316">OverviewTestsUI</text><rect fill="#FEFECE" filter="url(#fpgxiz45i6v58)" height="31.6094" style="stroke:#A80036;stroke-width:1.5;" width="169" x="896.5" y="53"/><text fill="#000000" font-family="sans-serif" font-size="14" lengthAdjust="spacing" textLength="155" x="903.5" y="74.5332">OverviewTestsController</text><rect fill="#FEFECE" filter="url(#fpgxiz45i6v58)" height="31.6094" style="stroke:#A80036;stroke-width:1.5;" width="169" x="896.5" y="1139.3984"/><text fill="#000000" font-family="sans-serif" font-size="14" lengthAdjust="spacing" textLength="155" x="903.5" y="1160.9316">OverviewTestsController</text><rect fill="#FEFECE" filter="url(#fpgxiz45i6v58)" height="31.6094" style="stroke:#A80036;stroke-width:1.5;" width="74" x="1359" y="53"/><text fill="#000000" font-family="sans-serif" font-size="14" lengthAdjust="spacing" textLength="60" x="1366" y="74.5332">Company</text><rect fill="#FEFECE" filter="url(#fpgxiz45i6v58)" height="31.6094" style="stroke:#A80036;stroke-width:1.5;" width="74" x="1359" y="1139.3984"/><text fill="#000000" font-family="sans-serif" font-size="14" lengthAdjust="spacing" textLength="60" x="1366" y="1160.9316">Company</text><rect fill="#FEFECE" filter="url(#fpgxiz45i6v58)" height="31.6094" style="stroke:#A80036;stroke-width:1.5;" width="141" x="1447" y="53"/><text fill="#000000" font-family="sans-serif" font-size="14" lengthAdjust="spacing" textLength="127" x="1454" y="74.5332">testStore: TestStore</text><rect fill="#FEFECE" filter="url(#fpgxiz45i6v58)" height="31.6094" style="stroke:#A80036;stroke-width:1.5;" width="141" x="1447" y="1139.3984"/><text fill="#000000" font-family="sans-serif" font-size="14" lengthAdjust="spacing" textLength="127" x="1454" y="1160.9316">testStore: TestStore</text><rect fill="#FEFECE" filter="url(#fpgxiz45i6v58)" height="31.6094" style="stroke:#A80036;stroke-width:1.5;" width="159" x="1602" y="53"/><text fill="#000000" font-family="sans-serif" font-size="14" lengthAdjust="spacing" textLength="145" x="1609" y="74.5332">clientStore: ClientStore</text><rect fill="#FEFECE" filter="url(#fpgxiz45i6v58)" height="31.6094" style="stroke:#A80036;stroke-width:1.5;" width="159" x="1602" y="1139.3984"/><text fill="#000000" font-family="sans-serif" font-size="14" lengthAdjust="spacing" textLength="145" x="1609" y="1160.9316">clientStore: ClientStore</text><rect fill="#FEFECE" filter="url(#fpgxiz45i6v58)" height="31.6094" style="stroke:#A80036;stroke-width:1.5;" width="347" x="1775" y="53"/><text fill="#000000" font-family="sans-serif" font-size="14" lengthAdjust="spacing" textLength="333" x="1782" y="74.5332">algorithm: BiggestContiguousSubSequenceAlgorithm</text><rect fill="#FEFECE" filter="url(#fpgxiz45i6v58)" height="31.6094" style="stroke:#A80036;stroke-width:1.5;" width="347" x="1775" y="1139.3984"/><text fill="#000000" font-family="sans-serif" font-size="14" lengthAdjust="spacing" textLength="333" x="1782" y="1160.9316">algorithm: BiggestContiguousSubSequenceAlgorithm</text><rect fill="#FFFFFF" filter="url(#fpgxiz45i6v58)" height="1022.7891" style="stroke:#A80036;stroke-width:1.0;" width="10" x="77" y="99.6094"/><rect fill="#FFFFFF" filter="url(#fpgxiz45i6v58)" height="52.7031" style="stroke:#A80036;stroke-width:1.0;" width="10" x="525" y="99.6094"/><rect fill="#FFFFFF" filter="url(#fpgxiz45i6v58)" height="939.7344" style="stroke:#A80036;stroke-width:1.0;" width="10" x="525" y="182.6641"/><rect fill="#FFFFFF" filter="url(#fpgxiz45i6v58)" height="151.0547" style="stroke:#A80036;stroke-width:1.0;" width="10" x="978" y="213.0156"/><rect fill="#FFFFFF" filter="url(#fpgxiz45i6v58)" height="120.7031" style="stroke:#A80036;stroke-width:1.0;" width="10" x="978" y="394.4219"/><rect fill="#FFFFFF" filter="url(#fpgxiz45i6v58)" height="60.3516" style="stroke:#A80036;stroke-width:1.0;" width="10" x="978" y="570.8281"/><rect fill="#FFFFFF" filter="url(#fpgxiz45i6v58)" height="60.3516" style="stroke:#A80036;stroke-width:1.0;" width="10" x="978" y="661.5313"/><rect fill="#FFFFFF" filter="url(#fpgxiz45i6v58)" height="60.3516" style="stroke:#A80036;stroke-width:1.0;" width="10" x="978" y="752.2344"/><rect fill="#FFFFFF" filter="url(#fpgxiz45i6v58)" height="91.0547" style="stroke:#A80036;stroke-width:1.0;" width="10" x="978" y="849.9375"/><rect fill="#FFFFFF" filter="url(#fpgxiz45i6v58)" height="120.7031" style="stroke:#A80036;stroke-width:1.0;" width="10" x="978" y="971.3438"/><rect fill="#FFFFFF" filter="url(#fpgxiz45i6v58)" height="30" style="stroke:#A80036;stroke-width:1.0;" width="10" x="1393" y="273.7188"/><rect fill="#FFFFFF" filter="url(#fpgxiz45i6v58)" height="30" style="stroke:#A80036;stroke-width:1.0;" width="10" x="1393" y="424.7734"/><rect fill="#FFFFFF" filter="url(#fpgxiz45i6v58)" height="30" style="stroke:#A80036;stroke-width:1.0;" width="10" x="1393" y="1001.6953"/><rect fill="#FFFFFF" filter="url(#fpgxiz45i6v58)" height="30" style="stroke:#A80036;stroke-width:1.0;" width="10" x="1514.5" y="485.125"/><rect fill="#FFFFFF" filter="url(#fpgxiz45i6v58)" height="30" style="stroke:#A80036;stroke-width:1.0;" width="10" x="1514.5" y="601.1797"/><rect fill="#FFFFFF" filter="url(#fpgxiz45i6v58)" height="30" style="stroke:#A80036;stroke-width:1.0;" width="10" x="1514.5" y="691.8828"/><rect fill="#FFFFFF" filter="url(#fpgxiz45i6v58)" height="30" style="stroke:#A80036;stroke-width:1.0;" width="10" x="1514.5" y="782.5859"/><rect fill="#FFFFFF" filter="url(#fpgxiz45i6v58)" height="60.7031" style="stroke:#A80036;stroke-width:1.0;" width="10" x="1514.5" y="880.2891"/><rect fill="#FFFFFF" filter="url(#fpgxiz45i6v58)" height="30" style="stroke:#A80036;stroke-width:1.0;" width="10" x="1678.5" y="334.0703"/><rect fill="#FFFFFF" filter="url(#fpgxiz45i6v58)" height="30" style="stroke:#A80036;stroke-width:1.0;" width="10" x="1945.5" y="1062.0469"/><polygon fill="#A80036" points="513,117.9609,523,121.9609,513,125.9609,517,121.9609" style="stroke:#A80036;stroke-width:1.0;"/><line style="stroke:#A80036;stroke-width:1.0;" x1="87" x2="519" y1="121.9609" y2="121.9609"/><text fill="#000000" font-family="sans-serif" font-size="13" font-weight="bold" lengthAdjust="spacing" textLength="7" x="94" y="117.1045">1</text><text fill="#000000" font-family="sans-serif" font-size="13" lengthAdjust="spacing" textLength="215" x="105" y="117.1045">selects the overview of all tests menu</text><polygon fill="#A80036" points="98,148.3125,88,152.3125,98,156.3125,94,152.3125" style="stroke:#A80036;stroke-width:1.0;"/><line style="stroke:#A80036;stroke-width:1.0;stroke-dasharray:2.0,2.0;" x1="92" x2="529" y1="152.3125" y2="152.3125"/><text fill="#000000" font-family="sans-serif" font-size="13" font-weight="bold" lengthAdjust="spacing" textLength="7" x="104" y="147.4561">2</text><text fill="#000000" font-family="sans-serif" font-size="13" lengthAdjust="spacing" textLength="403" x="115" y="147.4561">requests the beginning and ending dates and the algorithm to be used</text><polygon fill="#A80036" points="513,178.6641,523,182.6641,513,186.6641,517,182.6641" style="stroke:#A80036;stroke-width:1.0;"/><line style="stroke:#A80036;stroke-width:1.0;" x1="87" x2="519" y1="182.6641" y2="182.6641"/><text fill="#000000" font-family="sans-serif" font-size="13" font-weight="bold" lengthAdjust="spacing" textLength="7" x="94" y="177.8076">3</text><text fill="#000000" font-family="sans-serif" font-size="13" lengthAdjust="spacing" textLength="158" x="105" y="177.8076">types in the requested data</text><polygon fill="#A80036" points="966,209.0156,976,213.0156,966,217.0156,970,213.0156" style="stroke:#A80036;stroke-width:1.0;"/><line style="stroke:#A80036;stroke-width:1.0;" x1="535" x2="972" y1="213.0156" y2="213.0156"/><text fill="#000000" font-family="sans-serif" font-size="13" font-weight="bold" lengthAdjust="spacing" textLength="7" x="542" y="208.1592">4</text><text fill="#000000" font-family="sans-serif" font-size="13" lengthAdjust="spacing" textLength="413" x="553" y="208.1592">dateInterval = getDatesBetweenDateInterval(beginningDate, endingDate)</text><polygon fill="#A80036" points="966,239.3672,976,243.3672,966,247.3672,970,243.3672" style="stroke:#A80036;stroke-width:1.0;"/><line style="stroke:#A80036;stroke-width:1.0;" x1="535" x2="972" y1="243.3672" y2="243.3672"/><text fill="#000000" font-family="sans-serif" font-size="13" font-weight="bold" lengthAdjust="spacing" textLength="7" x="542" y="238.5107">5</text><text fill="#000000" font-family="sans-serif" font-size="13" lengthAdjust="spacing" textLength="152" x="553" y="238.5107">getTotalNumberOfClients()</text><polygon fill="#A80036" points="1381,269.7188,1391,273.7188,1381,277.7188,1385,273.7188" style="stroke:#A80036;stroke-width:1.0;"/><line style="stroke:#A80036;stroke-width:1.0;" x1="988" x2="1387" y1="273.7188" y2="273.7188"/><text fill="#000000" font-family="sans-serif" font-size="13" font-weight="bold" lengthAdjust="spacing" textLength="7" x="995" y="268.8623">6</text><text fill="#000000" font-family="sans-serif" font-size="13" lengthAdjust="spacing" textLength="168" x="1006" y="268.8623">clientStore = getClientStore()</text><polygon fill="#A80036" points="1666.5,330.0703,1676.5,334.0703,1666.5,338.0703,1670.5,334.0703" style="stroke:#A80036;stroke-width:1.0;"/><line style="stroke:#A80036;stroke-width:1.0;" x1="988" x2="1672.5" y1="334.0703" y2="334.0703"/><text fill="#000000" font-family="sans-serif" font-size="13" font-weight="bold" lengthAdjust="spacing" textLength="7" x="995" y="329.2139">7</text><text fill="#000000" font-family="sans-serif" font-size="13" lengthAdjust="spacing" textLength="152" x="1006" y="329.2139">getTotalNumberOfClients()</text><polygon fill="#A80036" points="966,390.4219,976,394.4219,966,398.4219,970,394.4219" style="stroke:#A80036;stroke-width:1.0;"/><line style="stroke:#A80036;stroke-width:1.0;" x1="535" x2="972" y1="394.4219" y2="394.4219"/><text fill="#000000" font-family="sans-serif" font-size="13" font-weight="bold" lengthAdjust="spacing" textLength="7" x="542" y="389.5654">8</text><text fill="#000000" font-family="sans-serif" font-size="13" lengthAdjust="spacing" textLength="198" x="553" y="389.5654">getTotalNumberOfValidatedTests()</text><polygon fill="#A80036" points="1381,420.7734,1391,424.7734,1381,428.7734,1385,424.7734" style="stroke:#A80036;stroke-width:1.0;"/><line style="stroke:#A80036;stroke-width:1.0;" x1="988" x2="1387" y1="424.7734" y2="424.7734"/><text fill="#000000" font-family="sans-serif" font-size="13" font-weight="bold" lengthAdjust="spacing" textLength="7" x="995" y="419.917">9</text><text fill="#000000" font-family="sans-serif" font-size="13" lengthAdjust="spacing" textLength="151" x="1006" y="419.917">testStore = getTestStore()</text><polygon fill="#A80036" points="1502.5,481.125,1512.5,485.125,1502.5,489.125,1506.5,485.125" style="stroke:#A80036;stroke-width:1.0;"/><line style="stroke:#A80036;stroke-width:1.0;" x1="988" x2="1508.5" y1="485.125" y2="485.125"/><text fill="#000000" font-family="sans-serif" font-size="13" font-weight="bold" lengthAdjust="spacing" textLength="14" x="995" y="480.2686">10</text><text fill="#000000" font-family="sans-serif" font-size="13" lengthAdjust="spacing" textLength="198" x="1013" y="480.2686">getTotalNumberOfValidatedTests()</text><path d="M458.5,530.125 L531.5,530.125 L531.5,538.125 L521.5,548.125 L458.5,548.125 L458.5,530.125 " fill="#EEEEEE" style="stroke:#000000;stroke-width:1.0;"/><rect fill="none" height="290.4609" style="stroke:#000000;stroke-width:2.0;" width="1143.5" x="458.5" y="530.125"/><text fill="#000000" font-family="sans-serif" font-size="13" font-weight="bold" lengthAdjust="spacing" textLength="28" x="473.5" y="544.6201">loop</text><text fill="#000000" font-family="sans-serif" font-size="11" font-weight="bold" lengthAdjust="spacing" textLength="185" x="546.5" y="543.5439">[for each date in the date interval]</text><polygon fill="#A80036" points="966,566.8281,976,570.8281,966,574.8281,970,570.8281" style="stroke:#A80036;stroke-width:1.0;"/><line style="stroke:#A80036;stroke-width:1.0;" x1="535" x2="972" y1="570.8281" y2="570.8281"/><text fill="#000000" font-family="sans-serif" font-size="13" font-weight="bold" lengthAdjust="spacing" textLength="14" x="542" y="565.9717">11</text><text fill="#000000" font-family="sans-serif" font-size="13" lengthAdjust="spacing" textLength="285" x="560" y="565.9717">getNumberOfTestsWaitingForResultsInDate(date)</text><polygon fill="#A80036" points="1502.5,597.1797,1512.5,601.1797,1502.5,605.1797,1506.5,601.1797" style="stroke:#A80036;stroke-width:1.0;"/><line style="stroke:#A80036;stroke-width:1.0;" x1="988" x2="1508.5" y1="601.1797" y2="601.1797"/><text fill="#000000" font-family="sans-serif" font-size="13" font-weight="bold" lengthAdjust="spacing" textLength="14" x="995" y="596.3232">12</text><text fill="#000000" font-family="sans-serif" font-size="13" lengthAdjust="spacing" textLength="285" x="1013" y="596.3232">getNumberOfTestsWaitingForResultsInDate(date)</text><polygon fill="#A80036" points="966,657.5313,976,661.5313,966,665.5313,970,661.5313" style="stroke:#A80036;stroke-width:1.0;"/><line style="stroke:#A80036;stroke-width:1.0;" x1="535" x2="972" y1="661.5313" y2="661.5313"/><text fill="#000000" font-family="sans-serif" font-size="13" font-weight="bold" lengthAdjust="spacing" textLength="14" x="542" y="656.6748">13</text><text fill="#000000" font-family="sans-serif" font-size="13" lengthAdjust="spacing" textLength="279" x="560" y="656.6748">getNumberOfTestsWaitingForReportInDate(date)</text><polygon fill="#A80036" points="1502.5,687.8828,1512.5,691.8828,1502.5,695.8828,1506.5,691.8828" style="stroke:#A80036;stroke-width:1.0;"/><line style="stroke:#A80036;stroke-width:1.0;" x1="988" x2="1508.5" y1="691.8828" y2="691.8828"/><text fill="#000000" font-family="sans-serif" font-size="13" font-weight="bold" lengthAdjust="spacing" textLength="14" x="995" y="687.0264">14</text><text fill="#000000" font-family="sans-serif" font-size="13" lengthAdjust="spacing" textLength="279" x="1013" y="687.0264">getNumberOfTestsWaitingForReportInDate(date)</text><polygon fill="#A80036" points="966,748.2344,976,752.2344,966,756.2344,970,752.2344" style="stroke:#A80036;stroke-width:1.0;"/><line style="stroke:#A80036;stroke-width:1.0;" x1="535" x2="972" y1="752.2344" y2="752.2344"/><text fill="#000000" font-family="sans-serif" font-size="13" font-weight="bold" lengthAdjust="spacing" textLength="14" x="542" y="747.3779">15</text><text fill="#000000" font-family="sans-serif" font-size="13" lengthAdjust="spacing" textLength="232" x="560" y="747.3779">getNumberOfTestsValidatedInDate(date)</text><polygon fill="#A80036" points="1502.5,778.5859,1512.5,782.5859,1502.5,786.5859,1506.5,782.5859" style="stroke:#A80036;stroke-width:1.0;"/><line style="stroke:#A80036;stroke-width:1.0;" x1="988" x2="1508.5" y1="782.5859" y2="782.5859"/><text fill="#000000" font-family="sans-serif" font-size="13" font-weight="bold" lengthAdjust="spacing" textLength="14" x="995" y="777.7295">16</text><text fill="#000000" font-family="sans-serif" font-size="13" lengthAdjust="spacing" textLength="232" x="1013" y="777.7295">getNumberOfTestsValidatedInDate(date)</text><polygon fill="#A80036" points="966,845.9375,976,849.9375,966,853.9375,970,849.9375" style="stroke:#A80036;stroke-width:1.0;"/><line style="stroke:#A80036;stroke-width:1.0;" x1="535" x2="972" y1="849.9375" y2="849.9375"/><text fill="#000000" font-family="sans-serif" font-size="13" font-weight="bold" lengthAdjust="spacing" textLength="14" x="542" y="845.0811">17</text><text fill="#000000" font-family="sans-serif" font-size="13" lengthAdjust="spacing" textLength="393" x="560" y="845.0811">int[] sequence = getDifferenceOfNewAndValidatedTests(dateInterval)</text><polygon fill="#A80036" points="1502.5,876.2891,1512.5,880.2891,1502.5,884.2891,1506.5,880.2891" style="stroke:#A80036;stroke-width:1.0;"/><line style="stroke:#A80036;stroke-width:1.0;" x1="988" x2="1508.5" y1="880.2891" y2="880.2891"/><text fill="#000000" font-family="sans-serif" font-size="13" font-weight="bold" lengthAdjust="spacing" textLength="14" x="995" y="875.4326">18</text><text fill="#000000" font-family="sans-serif" font-size="13" lengthAdjust="spacing" textLength="409" x="1013" y="875.4326">getDifferenceOfNewAndValidatedTestsForEachHalfAnHour(dateInterval)</text><polygon fill="#A80036" points="1502.5,906.6406,1512.5,910.6406,1502.5,914.6406,1506.5,910.6406" style="stroke:#A80036;stroke-width:1.0;"/><line style="stroke:#A80036;stroke-width:1.0;" x1="988" x2="1508.5" y1="910.6406" y2="910.6406"/><text fill="#000000" font-family="sans-serif" font-size="13" font-weight="bold" lengthAdjust="spacing" textLength="14" x="995" y="905.7842">19</text><text fill="#000000" font-family="sans-serif" font-size="13" lengthAdjust="spacing" textLength="320" x="1013" y="905.7842">getNumberOfNewTestsForEachHalfAnHour(dateInterval)</text><polygon fill="#A80036" points="1507.5,936.9922,1517.5,940.9922,1507.5,944.9922,1511.5,940.9922" style="stroke:#A80036;stroke-width:1.0;"/><line style="stroke:#A80036;stroke-width:1.0;" x1="983" x2="1513.5" y1="940.9922" y2="940.9922"/><text fill="#000000" font-family="sans-serif" font-size="13" font-weight="bold" lengthAdjust="spacing" textLength="14" x="990" y="936.1357">20</text><text fill="#000000" font-family="sans-serif" font-size="13" lengthAdjust="spacing" textLength="349" x="1008" y="936.1357">getNumberOfValidatedTestsForEachHalfAnHour(dateInterval)</text><polygon fill="#A80036" points="966,967.3438,976,971.3438,966,975.3438,970,971.3438" style="stroke:#A80036;stroke-width:1.0;"/><line style="stroke:#A80036;stroke-width:1.0;" x1="535" x2="972" y1="971.3438" y2="971.3438"/><text fill="#000000" font-family="sans-serif" font-size="13" font-weight="bold" lengthAdjust="spacing" textLength="14" x="542" y="966.4873">21</text><text fill="#000000" font-family="sans-serif" font-size="13" lengthAdjust="spacing" textLength="308" x="560" y="966.4873">getBiggestContiguousSubSequence(sequence, code)</text><polygon fill="#A80036" points="1381,997.6953,1391,1001.6953,1381,1005.6953,1385,1001.6953" style="stroke:#A80036;stroke-width:1.0;"/><line style="stroke:#A80036;stroke-width:1.0;" x1="988" x2="1387" y1="1001.6953" y2="1001.6953"/><text fill="#000000" font-family="sans-serif" font-size="13" font-weight="bold" lengthAdjust="spacing" textLength="14" x="995" y="996.8389">22</text><text fill="#000000" font-family="sans-serif" font-size="13" lengthAdjust="spacing" textLength="368" x="1013" y="996.8389">algorithm = getBiggestContiguousSubSequenceAlgorithm(code)</text><polygon fill="#A80036" points="1933.5,1058.0469,1943.5,1062.0469,1933.5,1066.0469,1937.5,1062.0469" style="stroke:#A80036;stroke-width:1.0;"/><line style="stroke:#A80036;stroke-width:1.0;" x1="988" x2="1939.5" y1="1062.0469" y2="1062.0469"/><text fill="#000000" font-family="sans-serif" font-size="13" font-weight="bold" lengthAdjust="spacing" textLength="14" x="995" y="1057.1904">23</text><text fill="#000000" font-family="sans-serif" font-size="13" lengthAdjust="spacing" textLength="272" x="1013" y="1057.1904">getBiggestContiguousSubSequence(sequence)</text><polygon fill="#A80036" points="93,1118.3984,83,1122.3984,93,1126.3984,89,1122.3984" style="stroke:#A80036;stroke-width:1.0;"/><line style="stroke:#A80036;stroke-width:1.0;stroke-dasharray:2.0,2.0;" x1="87" x2="529" y1="1122.3984" y2="1122.3984"/><text fill="#000000" font-family="sans-serif" font-size="13" font-weight="bold" lengthAdjust="spacing" textLength="14" x="99" y="1117.542">24</text><text fill="#000000" font-family="sans-serif" font-size="13" lengthAdjust="spacing" textLength="184" x="117" y="1117.542">shows the statistics and graphs</text><!--MD5=[2df4edcec713aa7dd83f60050238b3e1]
@startuml

autonumber

actor "Laboratory Coordinator" as lc
participant "OverviewTestsUI" as otUI
participant "OverviewTestsController" as otC
participant "Company" as company
participant "testStore: TestStore" as ts
participant "clientStore: ClientStore" as cs
participant "algorithm: BiggestContiguousSubSequenceAlgorithm"

activate lc
activate otUI

lc -> otUI: selects the overview of all tests menu
otUI -[dotted]> lc: requests the beginning and ending dates and the algorithm to be used
deactivate otUI
lc -> otUI: types in the requested data
activate otUI
otUI -> otC: dateInterval = getDatesBetweenDateInterval(beginningDate, endingDate)
activate otC
otUI -> otC: getTotalNumberOfClients()
otC -> company: clientStore = getClientStore()
activate company
deactivate company
otC -> cs: getTotalNumberOfClients()
activate cs
deactivate cs
deactivate otC
otUI -> otC: getTotalNumberOfValidatedTests()
activate otC
otC -> company: testStore = getTestStore()
activate company
deactivate company
otC -> ts: getTotalNumberOfValidatedTests()
activate ts
deactivate ts
deactivate otC
loop for each date in the date interval
otUI -> otC: getNumberOfTestsWaitingForResultsInDate(date)
activate otC
otC -> ts: getNumberOfTestsWaitingForResultsInDate(date)
activate ts
deactivate ts
deactivate otC
otUI -> otC: getNumberOfTestsWaitingForReportInDate(date)
activate otC
otC -> ts: getNumberOfTestsWaitingForReportInDate(date)
activate ts
deactivate ts
deactivate otC
otUI -> otC: getNumberOfTestsValidatedInDate(date)
activate otC
otC -> ts: getNumberOfTestsValidatedInDate(date)
activate ts
deactivate ts
deactivate otC
end loop
otUI -> otC: int[] sequence = getDifferenceOfNewAndValidatedTests(dateInterval)
activate otC
otC -> ts: getDifferenceOfNewAndValidatedTestsForEachHalfAnHour(dateInterval)
activate ts
otC -> ts: getNumberOfNewTestsForEachHalfAnHour(dateInterval)
otC -> ts: getNumberOfValidatedTestsForEachHalfAnHour(dateInterval)
deactivate ts
deactivate otC
otUI -> otC: getBiggestContiguousSubSequence(sequence, code)
activate otC
otC -> company: algorithm = getBiggestContiguousSubSequenceAlgorithm(code)
activate company
deactivate company
otC -> "algorithm: BiggestContiguousSubSequenceAlgorithm": getBiggestContiguousSubSequence(sequence)
activate "algorithm: BiggestContiguousSubSequenceAlgorithm"
deactivate "algorithm: BiggestContiguousSubSequenceAlgorithm"
deactivate otC
otUI -[dotted]> lc: shows the statistics and graphs

deactivate otUI
deactivate lc

@enduml

PlantUML version 1.2021.7(Sun May 23 13:40:07 BST 2021)
(GPL source distribution)
Java Runtime: OpenJDK Runtime Environment
JVM: OpenJDK 64-Bit Server VM
Default Encoding: Cp1252
Language: pt
Country: PT
--></g></svg>