<?xml version="1.0" encoding="UTF-8" standalone="no"?><svg xmlns="http://www.w3.org/2000/svg" xmlns:xlink="http://www.w3.org/1999/xlink" contentScriptType="application/ecmascript" contentStyleType="text/css" height="416px" preserveAspectRatio="none" style="width:157px;height:416px;background:#FFFFFF;" version="1.1" viewBox="0 0 157 416" width="157px" zoomAndPan="magnify"><defs><filter height="300%" id="f1ik8pjexbg0fk" width="300%" x="-1" y="-1"><feGaussianBlur result="blurOut" stdDeviation="2.0"/><feColorMatrix in="blurOut" result="blurOut2" type="matrix" values="0 0 0 0 0 0 0 0 0 0 0 0 0 0 0 0 0 0 .4 0"/><feOffset dx="4.0" dy="4.0" in="blurOut2" result="blurOut3"/><feBlend in="SourceGraphic" in2="blurOut3" mode="normal"/></filter></defs><g><!--MD5=[df38be88ccee13e832d6fafd6288a4ca]
class Test--><rect codeLine="4" fill="#FEFECE" filter="url(#f1ik8pjexbg0fk)" height="144.8516" id="Test" style="stroke:#A80036;stroke-width:1.5;" width="106" x="7" y="7"/><ellipse cx="44.5" cy="23" fill="#ADD1B2" rx="11" ry="11" style="stroke:#A80036;stroke-width:1.0;"/><path d="M46.5,19.5 Q46.7031,19 46.9375,18.75 Q47.1719,18.5 47.4375,18.5 Q47.9063,18.5 48.2031,18.7813 Q48.5,19.0625 48.5,19.7188 L48.5,21.2813 Q48.5,21.9375 48.2188,22.2188 Q47.9375,22.5 47.5,22.5 Q47.1094,22.5 46.8594,22.3281 Q46.6094,22.1563 46.5,21.7031 Q46.4531,21.3906 46.2813,21.2188 Q45.9688,20.8906 45.4063,20.7031 Q44.8438,20.5 44.2813,20.5 Q43.5781,20.5 42.9844,20.7813 Q42.4063,21.0625 41.9531,21.6875 Q41.5,22.3125 41.5,23.1719 L41.5,24.0938 Q41.5,25.125 42.3438,25.8125 Q43.1875,26.5 44.6875,26.5 Q45.5781,26.5 46.2031,26.2969 Q46.5625,26.1875 46.9688,25.8281 Q47.2344,25.625 47.375,25.5625 Q47.5156,25.5 47.6875,25.5 Q48.0156,25.5 48.25,25.7656 Q48.5,26.0156 48.5,26.375 Q48.5,26.7188 48.1563,27.125 Q47.6563,27.7188 46.8594,28.0469 Q45.8125,28.5 44.5313,28.5 Q43.0313,28.5 41.8281,27.9063 Q40.8594,27.4375 40.1719,26.4219 Q39.5,25.4063 39.5,24.2031 L39.5,23.1094 Q39.5,21.8594 40.0938,20.7656 Q40.7031,19.6719 41.75,19.0938 Q42.8125,18.5 44,18.5 Q44.7188,18.5 45.3438,18.75 Q45.9688,19 46.5,19.5 Z " fill="#000000"/><text fill="#000000" font-family="sans-serif" font-size="12" lengthAdjust="spacing" textLength="24" x="63.5" y="27.9102">Test</text><line style="stroke:#A80036;stroke-width:1.5;" x1="8" x2="112" y1="39" y2="39"/><text fill="#000000" font-family="sans-serif" font-size="11" lengthAdjust="spacing" textLength="47" x="13" y="54.4189">-testCode</text><text fill="#000000" font-family="sans-serif" font-size="11" lengthAdjust="spacing" textLength="47" x="13" y="68.2549">-nhsCode</text><text fill="#000000" font-family="sans-serif" font-size="11" lengthAdjust="spacing" textLength="59" x="13" y="82.0908">-designation</text><text fill="#000000" font-family="sans-serif" font-size="11" lengthAdjust="spacing" textLength="87" x="13" y="95.9268">-dateTimeRegister</text><text fill="#000000" font-family="sans-serif" font-size="11" lengthAdjust="spacing" textLength="89" x="13" y="109.7627">-dateTimeAnalysis</text><text fill="#000000" font-family="sans-serif" font-size="11" lengthAdjust="spacing" textLength="79" x="13" y="123.5986">-dateTimeReport</text><text fill="#000000" font-family="sans-serif" font-size="11" lengthAdjust="spacing" textLength="94" x="13" y="137.4346">-dateTimeValidation</text><line style="stroke:#A80036;stroke-width:1.5;" x1="8" x2="112" y1="143.8516" y2="143.8516"/><!--MD5=[ed6624c6556d5e7b1bd23032162d20b7]
class Client--><rect codeLine="13" fill="#FEFECE" filter="url(#f1ik8pjexbg0fk)" height="172.5234" id="Client" style="stroke:#A80036;stroke-width:1.5;" width="83" x="18.5" y="230"/><ellipse cx="42.05" cy="246" fill="#ADD1B2" rx="11" ry="11" style="stroke:#A80036;stroke-width:1.0;"/><path d="M44.05,242.5 Q44.2531,242 44.4875,241.75 Q44.7219,241.5 44.9875,241.5 Q45.4563,241.5 45.7531,241.7813 Q46.05,242.0625 46.05,242.7188 L46.05,244.2813 Q46.05,244.9375 45.7688,245.2188 Q45.4875,245.5 45.05,245.5 Q44.6594,245.5 44.4094,245.3281 Q44.1594,245.1563 44.05,244.7031 Q44.0031,244.3906 43.8313,244.2188 Q43.5188,243.8906 42.9563,243.7031 Q42.3938,243.5 41.8313,243.5 Q41.1281,243.5 40.5344,243.7813 Q39.9563,244.0625 39.5031,244.6875 Q39.05,245.3125 39.05,246.1719 L39.05,247.0938 Q39.05,248.125 39.8938,248.8125 Q40.7375,249.5 42.2375,249.5 Q43.1281,249.5 43.7531,249.2969 Q44.1125,249.1875 44.5188,248.8281 Q44.7844,248.625 44.925,248.5625 Q45.0656,248.5 45.2375,248.5 Q45.5656,248.5 45.8,248.7656 Q46.05,249.0156 46.05,249.375 Q46.05,249.7188 45.7063,250.125 Q45.2063,250.7188 44.4094,251.0469 Q43.3625,251.5 42.0813,251.5 Q40.5813,251.5 39.3781,250.9063 Q38.4094,250.4375 37.7219,249.4219 Q37.05,248.4063 37.05,247.2031 L37.05,246.1094 Q37.05,244.8594 37.6438,243.7656 Q38.2531,242.6719 39.3,242.0938 Q40.3625,241.5 41.55,241.5 Q42.2688,241.5 42.8938,241.75 Q43.5188,242 44.05,242.5 Z " fill="#000000"/><text fill="#000000" font-family="sans-serif" font-size="12" lengthAdjust="spacing" textLength="32" x="57.95" y="250.9102">Client</text><line style="stroke:#A80036;stroke-width:1.5;" x1="19.5" x2="100.5" y1="262" y2="262"/><text fill="#000000" font-family="sans-serif" font-size="11" lengthAdjust="spacing" textLength="30" x="24.5" y="277.4189">-name</text><text fill="#000000" font-family="sans-serif" font-size="11" lengthAdjust="spacing" textLength="63" x="24.5" y="291.2549">-cardNumber</text><text fill="#000000" font-family="sans-serif" font-size="11" lengthAdjust="spacing" textLength="47" x="24.5" y="305.0908">-birthDate</text><text fill="#000000" font-family="sans-serif" font-size="11" lengthAdjust="spacing" textLength="22" x="24.5" y="318.9268">-sex</text><text fill="#000000" font-family="sans-serif" font-size="11" lengthAdjust="spacing" textLength="31" x="24.5" y="332.7627">-nhsID</text><text fill="#000000" font-family="sans-serif" font-size="11" lengthAdjust="spacing" textLength="18" x="24.5" y="346.5986">-TIF</text><text fill="#000000" font-family="sans-serif" font-size="11" lengthAdjust="spacing" textLength="71" x="24.5" y="360.4346">-phoneNumber</text><text fill="#000000" font-family="sans-serif" font-size="11" lengthAdjust="spacing" textLength="28" x="24.5" y="374.2705">-email</text><text fill="#000000" font-family="sans-serif" font-size="11" lengthAdjust="spacing" textLength="54" x="24.5" y="388.1064">-password</text><line style="stroke:#A80036;stroke-width:1.5;" x1="19.5" x2="100.5" y1="394.5234" y2="394.5234"/><!--MD5=[3994f36c72829dbcddd1cf7021dddf61]
link Test to Client--><path codeLine="25" d="M60,152.28 C60,176.72 60,204.27 60,229.69 " fill="none" id="Test-Client" style="stroke:#A80036;stroke-width:1.0;"/><polygon fill="#000000" points="65,196.1758,67.9389,187.1307,62.0611,187.1307,65,196.1758" style="stroke:#000000;stroke-width:1.0;"/><text fill="#000000" font-family="sans-serif" font-size="13" lengthAdjust="spacing" textLength="75" x="74" y="196.4951">requested by</text><text fill="#000000" font-family="sans-serif" font-size="13" lengthAdjust="spacing" textLength="5" x="54.7695" y="173.2451">*</text><text fill="#000000" font-family="sans-serif" font-size="13" lengthAdjust="spacing" textLength="7" x="52.6992" y="219.073">1</text><!--MD5=[6078eafdf60b1a077a635c71cac9e286]
@startuml

skinparam classAttributeIconSize 0

class Test {
-testCode
-nhsCode
-designation
-dateTimeRegister
-dateTimeAnalysis
-dateTimeReport
-dateTimeValidation
}
class Client {
-name
-cardNumber
-birthDate
-sex
-nhsID
-TIF
-phoneNumber
-email
-password
}

Test "*"- -"1" Client : requested by >

@enduml

PlantUML version 1.2021.7(Sun May 23 13:40:07 BST 2021)
(GPL source distribution)
Java Runtime: OpenJDK Runtime Environment
JVM: OpenJDK 64-Bit Server VM
Default Encoding: Cp1252
Language: pt
Country: PT
--></g></svg>