<?xml version="1.0" encoding="UTF-8" standalone="no"?><svg xmlns="http://www.w3.org/2000/svg" xmlns:xlink="http://www.w3.org/1999/xlink" contentScriptType="application/ecmascript" contentStyleType="text/css" height="977px" preserveAspectRatio="none" style="width:1054px;height:977px;background:#FFFFFF;" version="1.1" viewBox="0 0 1054 977" width="1054px" zoomAndPan="magnify"><defs><filter height="300%" id="f1toiw9ob30zmm" width="300%" x="-1" y="-1"><feGaussianBlur result="blurOut" stdDeviation="2.0"/><feColorMatrix in="blurOut" result="blurOut2" type="matrix" values="0 0 0 0 0 0 0 0 0 0 0 0 0 0 0 0 0 0 .4 0"/><feOffset dx="4.0" dy="4.0" in="blurOut2" result="blurOut3"/><feBlend in="SourceGraphic" in2="blurOut3" mode="normal"/></filter></defs><g><!--MD5=[042b7f77626eb794111366af7045cdab]
class BiggestContiguousSubSequenceAlgorithm--><rect codeLine="4" fill="#FEFECE" filter="url(#f1toiw9ob30zmm)" height="61.8359" id="BiggestContiguousSubSequenceAlgorithm" style="stroke:#A80036;stroke-width:1.5;" width="287" x="167" y="614.5"/><ellipse cx="190.55" cy="630.5" fill="#B4A7E5" rx="11" ry="11" style="stroke:#A80036;stroke-width:1.0;"/><path d="M191.55,627.5 L191.55,633.5 L193.55,633.5 L194.0344,633.5 L194.55,634.125 L194.55,634.5 L194.55,634.875 L194.0344,635.5 L193.55,635.5 L187.55,635.5 L187.0656,635.5 L186.55,634.875 L186.55,634.5 L186.55,634.125 L187.0656,633.5 L187.55,633.5 L189.55,633.5 L189.55,627.5 L187.55,627.5 L187.0656,627.5 L186.55,626.875 L186.55,626.5 L186.55,626.125 L187.0656,625.5 L187.55,625.5 L193.55,625.5 L194.0344,625.5 L194.55,626.125 L194.55,626.5 L194.55,626.875 L194.0344,627.5 L193.55,627.5 L191.55,627.5 Z " fill="#000000"/><text fill="#000000" font-family="sans-serif" font-size="12" font-style="italic" lengthAdjust="spacing" textLength="236" x="206.45" y="635.4102">BiggestContiguousSubSequenceAlgorithm</text><line style="stroke:#A80036;stroke-width:1.5;" x1="168" x2="453" y1="646.5" y2="646.5"/><line style="stroke:#A80036;stroke-width:1.5;" x1="168" x2="453" y1="654.5" y2="654.5"/><text fill="#000000" font-family="sans-serif" font-size="11" lengthAdjust="spacing" textLength="275" x="173" y="669.9189">+int[] getBiggestContiguousSubSequence(int[] sequence)</text><!--MD5=[f4a38599b97b911edb1e154f571cf5e4]
class BenchmarkAlgorithmAdapter--><rect codeLine="8" fill="#FEFECE" filter="url(#f1toiw9ob30zmm)" height="61.8359" id="BenchmarkAlgorithmAdapter" style="stroke:#A80036;stroke-width:1.5;" width="287" x="7" y="779"/><ellipse cx="67.75" cy="795" fill="#ADD1B2" rx="11" ry="11" style="stroke:#A80036;stroke-width:1.0;"/><path d="M69.75,791.5 Q69.9531,791 70.1875,790.75 Q70.4219,790.5 70.6875,790.5 Q71.1563,790.5 71.4531,790.7813 Q71.75,791.0625 71.75,791.7188 L71.75,793.2813 Q71.75,793.9375 71.4688,794.2188 Q71.1875,794.5 70.75,794.5 Q70.3594,794.5 70.1094,794.3281 Q69.8594,794.1563 69.75,793.7031 Q69.7031,793.3906 69.5313,793.2188 Q69.2188,792.8906 68.6563,792.7031 Q68.0938,792.5 67.5313,792.5 Q66.8281,792.5 66.2344,792.7813 Q65.6563,793.0625 65.2031,793.6875 Q64.75,794.3125 64.75,795.1719 L64.75,796.0938 Q64.75,797.125 65.5938,797.8125 Q66.4375,798.5 67.9375,798.5 Q68.8281,798.5 69.4531,798.2969 Q69.8125,798.1875 70.2188,797.8281 Q70.4844,797.625 70.625,797.5625 Q70.7656,797.5 70.9375,797.5 Q71.2656,797.5 71.5,797.7656 Q71.75,798.0156 71.75,798.375 Q71.75,798.7188 71.4063,799.125 Q70.9063,799.7188 70.1094,800.0469 Q69.0625,800.5 67.7813,800.5 Q66.2813,800.5 65.0781,799.9063 Q64.1094,799.4375 63.4219,798.4219 Q62.75,797.4063 62.75,796.2031 L62.75,795.1094 Q62.75,793.8594 63.3438,792.7656 Q63.9531,791.6719 65,791.0938 Q66.0625,790.5 67.25,790.5 Q67.9688,790.5 68.5938,790.75 Q69.2188,791 69.75,791.5 Z " fill="#000000"/><text fill="#000000" font-family="sans-serif" font-size="12" lengthAdjust="spacing" textLength="157" x="88.25" y="799.9102">BenchmarkAlgorithmAdapter</text><line style="stroke:#A80036;stroke-width:1.5;" x1="8" x2="293" y1="811" y2="811"/><line style="stroke:#A80036;stroke-width:1.5;" x1="8" x2="293" y1="819" y2="819"/><text fill="#000000" font-family="sans-serif" font-size="11" lengthAdjust="spacing" textLength="275" x="13" y="834.4189">+int[] getBiggestContiguousSubSequence(int[] sequence)</text><!--MD5=[3d195b319a9e341286852cea89c88ec3]
class BruteForceAlgorithmAdapter--><rect codeLine="12" fill="#FEFECE" filter="url(#f1toiw9ob30zmm)" height="61.8359" id="BruteForceAlgorithmAdapter" style="stroke:#A80036;stroke-width:1.5;" width="287" x="329" y="779"/><ellipse cx="391.25" cy="795" fill="#ADD1B2" rx="11" ry="11" style="stroke:#A80036;stroke-width:1.0;"/><path d="M393.25,791.5 Q393.4531,791 393.6875,790.75 Q393.9219,790.5 394.1875,790.5 Q394.6563,790.5 394.9531,790.7813 Q395.25,791.0625 395.25,791.7188 L395.25,793.2813 Q395.25,793.9375 394.9688,794.2188 Q394.6875,794.5 394.25,794.5 Q393.8594,794.5 393.6094,794.3281 Q393.3594,794.1563 393.25,793.7031 Q393.2031,793.3906 393.0313,793.2188 Q392.7188,792.8906 392.1563,792.7031 Q391.5938,792.5 391.0313,792.5 Q390.3281,792.5 389.7344,792.7813 Q389.1563,793.0625 388.7031,793.6875 Q388.25,794.3125 388.25,795.1719 L388.25,796.0938 Q388.25,797.125 389.0938,797.8125 Q389.9375,798.5 391.4375,798.5 Q392.3281,798.5 392.9531,798.2969 Q393.3125,798.1875 393.7188,797.8281 Q393.9844,797.625 394.125,797.5625 Q394.2656,797.5 394.4375,797.5 Q394.7656,797.5 395,797.7656 Q395.25,798.0156 395.25,798.375 Q395.25,798.7188 394.9063,799.125 Q394.4063,799.7188 393.6094,800.0469 Q392.5625,800.5 391.2813,800.5 Q389.7813,800.5 388.5781,799.9063 Q387.6094,799.4375 386.9219,798.4219 Q386.25,797.4063 386.25,796.2031 L386.25,795.1094 Q386.25,793.8594 386.8438,792.7656 Q387.4531,791.6719 388.5,791.0938 Q389.5625,790.5 390.75,790.5 Q391.4688,790.5 392.0938,790.75 Q392.7188,791 393.25,791.5 Z " fill="#000000"/><text fill="#000000" font-family="sans-serif" font-size="12" lengthAdjust="spacing" textLength="154" x="411.75" y="799.9102">BruteForceAlgorithmAdapter</text><line style="stroke:#A80036;stroke-width:1.5;" x1="330" x2="615" y1="811" y2="811"/><line style="stroke:#A80036;stroke-width:1.5;" x1="330" x2="615" y1="819" y2="819"/><text fill="#000000" font-family="sans-serif" font-size="11" lengthAdjust="spacing" textLength="275" x="335" y="834.4189">+int[] getBiggestContiguousSubSequence(int[] sequence)</text><!--MD5=[11bfefeec74d45075ceaf494a510e590]
class BenchmarkAlgorithm--><rect codeLine="16" fill="#FEFECE" filter="url(#f1toiw9ob30zmm)" height="61.8359" id="BenchmarkAlgorithm" style="stroke:#A80036;stroke-width:1.5;" width="147" x="77" y="902"/><ellipse cx="92" cy="918" fill="#ADD1B2" rx="11" ry="11" style="stroke:#A80036;stroke-width:1.0;"/><path d="M94,914.5 Q94.2031,914 94.4375,913.75 Q94.6719,913.5 94.9375,913.5 Q95.4063,913.5 95.7031,913.7813 Q96,914.0625 96,914.7188 L96,916.2813 Q96,916.9375 95.7188,917.2188 Q95.4375,917.5 95,917.5 Q94.6094,917.5 94.3594,917.3281 Q94.1094,917.1563 94,916.7031 Q93.9531,916.3906 93.7813,916.2188 Q93.4688,915.8906 92.9063,915.7031 Q92.3438,915.5 91.7813,915.5 Q91.0781,915.5 90.4844,915.7813 Q89.9063,916.0625 89.4531,916.6875 Q89,917.3125 89,918.1719 L89,919.0938 Q89,920.125 89.8438,920.8125 Q90.6875,921.5 92.1875,921.5 Q93.0781,921.5 93.7031,921.2969 Q94.0625,921.1875 94.4688,920.8281 Q94.7344,920.625 94.875,920.5625 Q95.0156,920.5 95.1875,920.5 Q95.5156,920.5 95.75,920.7656 Q96,921.0156 96,921.375 Q96,921.7188 95.6563,922.125 Q95.1563,922.7188 94.3594,923.0469 Q93.3125,923.5 92.0313,923.5 Q90.5313,923.5 89.3281,922.9063 Q88.3594,922.4375 87.6719,921.4219 Q87,920.4063 87,919.2031 L87,918.1094 Q87,916.8594 87.5938,915.7656 Q88.2031,914.6719 89.25,914.0938 Q90.3125,913.5 91.5,913.5 Q92.2188,913.5 92.8438,913.75 Q93.4688,914 94,914.5 Z " fill="#000000"/><text fill="#000000" font-family="sans-serif" font-size="12" lengthAdjust="spacing" textLength="115" x="106" y="922.9102">BenchmarkAlgorithm</text><line style="stroke:#A80036;stroke-width:1.5;" x1="78" x2="223" y1="934" y2="934"/><line style="stroke:#A80036;stroke-width:1.5;" x1="78" x2="223" y1="942" y2="942"/><text fill="#000000" font-family="sans-serif" font-size="11" lengthAdjust="spacing" textLength="92" x="83" y="957.4189">+int[] Max(int[] seq)</text><!--MD5=[1dec90c14ec2ba3af2708f621be65d00]
class BruteForceAlgorithm--><rect codeLine="20" fill="#FEFECE" filter="url(#f1toiw9ob30zmm)" height="61.8359" id="BruteForceAlgorithm" style="stroke:#A80036;stroke-width:1.5;" width="311" x="317" y="902"/><ellipse cx="412.25" cy="918" fill="#ADD1B2" rx="11" ry="11" style="stroke:#A80036;stroke-width:1.0;"/><path d="M414.25,914.5 Q414.4531,914 414.6875,913.75 Q414.9219,913.5 415.1875,913.5 Q415.6563,913.5 415.9531,913.7813 Q416.25,914.0625 416.25,914.7188 L416.25,916.2813 Q416.25,916.9375 415.9688,917.2188 Q415.6875,917.5 415.25,917.5 Q414.8594,917.5 414.6094,917.3281 Q414.3594,917.1563 414.25,916.7031 Q414.2031,916.3906 414.0313,916.2188 Q413.7188,915.8906 413.1563,915.7031 Q412.5938,915.5 412.0313,915.5 Q411.3281,915.5 410.7344,915.7813 Q410.1563,916.0625 409.7031,916.6875 Q409.25,917.3125 409.25,918.1719 L409.25,919.0938 Q409.25,920.125 410.0938,920.8125 Q410.9375,921.5 412.4375,921.5 Q413.3281,921.5 413.9531,921.2969 Q414.3125,921.1875 414.7188,920.8281 Q414.9844,920.625 415.125,920.5625 Q415.2656,920.5 415.4375,920.5 Q415.7656,920.5 416,920.7656 Q416.25,921.0156 416.25,921.375 Q416.25,921.7188 415.9063,922.125 Q415.4063,922.7188 414.6094,923.0469 Q413.5625,923.5 412.2813,923.5 Q410.7813,923.5 409.5781,922.9063 Q408.6094,922.4375 407.9219,921.4219 Q407.25,920.4063 407.25,919.2031 L407.25,918.1094 Q407.25,916.8594 407.8438,915.7656 Q408.4531,914.6719 409.5,914.0938 Q410.5625,913.5 411.75,913.5 Q412.4688,913.5 413.0938,913.75 Q413.7188,914 414.25,914.5 Z " fill="#000000"/><text fill="#000000" font-family="sans-serif" font-size="12" lengthAdjust="spacing" textLength="112" x="432.75" y="922.9102">BruteForceAlgorithm</text><line style="stroke:#A80036;stroke-width:1.5;" x1="318" x2="627" y1="934" y2="934"/><line style="stroke:#A80036;stroke-width:1.5;" x1="318" x2="627" y1="942" y2="942"/><text fill="#000000" font-family="sans-serif" font-size="11" lengthAdjust="spacing" textLength="299" x="323" y="957.4189">+ArrayList&lt;Integer&gt; biggestSumSubSequence(int[] sequence)</text><!--MD5=[beacec301d5b9ec8c30406b18b2de939]
class OverviewTestsUI--><rect codeLine="24" fill="#FEFECE" filter="url(#f1toiw9ob30zmm)" height="75.6719" id="OverviewTestsUI" style="stroke:#A80036;stroke-width:1.5;" width="124" x="612.5" y="7"/><ellipse cx="627.5" cy="23" fill="#ADD1B2" rx="11" ry="11" style="stroke:#A80036;stroke-width:1.0;"/><path d="M629.5,19.5 Q629.7031,19 629.9375,18.75 Q630.1719,18.5 630.4375,18.5 Q630.9063,18.5 631.2031,18.7813 Q631.5,19.0625 631.5,19.7188 L631.5,21.2813 Q631.5,21.9375 631.2188,22.2188 Q630.9375,22.5 630.5,22.5 Q630.1094,22.5 629.8594,22.3281 Q629.6094,22.1563 629.5,21.7031 Q629.4531,21.3906 629.2813,21.2188 Q628.9688,20.8906 628.4063,20.7031 Q627.8438,20.5 627.2813,20.5 Q626.5781,20.5 625.9844,20.7813 Q625.4063,21.0625 624.9531,21.6875 Q624.5,22.3125 624.5,23.1719 L624.5,24.0938 Q624.5,25.125 625.3438,25.8125 Q626.1875,26.5 627.6875,26.5 Q628.5781,26.5 629.2031,26.2969 Q629.5625,26.1875 629.9688,25.8281 Q630.2344,25.625 630.375,25.5625 Q630.5156,25.5 630.6875,25.5 Q631.0156,25.5 631.25,25.7656 Q631.5,26.0156 631.5,26.375 Q631.5,26.7188 631.1563,27.125 Q630.6563,27.7188 629.8594,28.0469 Q628.8125,28.5 627.5313,28.5 Q626.0313,28.5 624.8281,27.9063 Q623.8594,27.4375 623.1719,26.4219 Q622.5,25.4063 622.5,24.2031 L622.5,23.1094 Q622.5,21.8594 623.0938,20.7656 Q623.7031,19.6719 624.75,19.0938 Q625.8125,18.5 627,18.5 Q627.7188,18.5 628.3438,18.75 Q628.9688,19 629.5,19.5 Z " fill="#000000"/><text fill="#000000" font-family="sans-serif" font-size="12" lengthAdjust="spacing" textLength="92" x="641.5" y="27.9102">OverviewTestsUI</text><line style="stroke:#A80036;stroke-width:1.5;" x1="613.5" x2="735.5" y1="39" y2="39"/><text fill="#000000" font-family="sans-serif" font-size="11" lengthAdjust="spacing" textLength="60" x="618.5" y="54.4189">-dateInterval</text><text fill="#000000" font-family="sans-serif" font-size="11" lengthAdjust="spacing" textLength="72" x="618.5" y="68.2549">-int[] sequence</text><line style="stroke:#A80036;stroke-width:1.5;" x1="613.5" x2="735.5" y1="74.6719" y2="74.6719"/><!--MD5=[50fb21a926a2696db78816614cf1fa3d]
class OverviewTestsController--><rect codeLine="29" fill="#FEFECE" filter="url(#f1toiw9ob30zmm)" height="200.1953" id="OverviewTestsController" style="stroke:#A80036;stroke-width:1.5;" width="357" x="496" y="144"/><ellipse cx="603.25" cy="160" fill="#ADD1B2" rx="11" ry="11" style="stroke:#A80036;stroke-width:1.0;"/><path d="M605.25,156.5 Q605.4531,156 605.6875,155.75 Q605.9219,155.5 606.1875,155.5 Q606.6563,155.5 606.9531,155.7813 Q607.25,156.0625 607.25,156.7188 L607.25,158.2813 Q607.25,158.9375 606.9688,159.2188 Q606.6875,159.5 606.25,159.5 Q605.8594,159.5 605.6094,159.3281 Q605.3594,159.1563 605.25,158.7031 Q605.2031,158.3906 605.0313,158.2188 Q604.7188,157.8906 604.1563,157.7031 Q603.5938,157.5 603.0313,157.5 Q602.3281,157.5 601.7344,157.7813 Q601.1563,158.0625 600.7031,158.6875 Q600.25,159.3125 600.25,160.1719 L600.25,161.0938 Q600.25,162.125 601.0938,162.8125 Q601.9375,163.5 603.4375,163.5 Q604.3281,163.5 604.9531,163.2969 Q605.3125,163.1875 605.7188,162.8281 Q605.9844,162.625 606.125,162.5625 Q606.2656,162.5 606.4375,162.5 Q606.7656,162.5 607,162.7656 Q607.25,163.0156 607.25,163.375 Q607.25,163.7188 606.9063,164.125 Q606.4063,164.7188 605.6094,165.0469 Q604.5625,165.5 603.2813,165.5 Q601.7813,165.5 600.5781,164.9063 Q599.6094,164.4375 598.9219,163.4219 Q598.25,162.4063 598.25,161.2031 L598.25,160.1094 Q598.25,158.8594 598.8438,157.7656 Q599.4531,156.6719 600.5,156.0938 Q601.5625,155.5 602.75,155.5 Q603.4688,155.5 604.0938,155.75 Q604.7188,156 605.25,156.5 Z " fill="#000000"/><text fill="#000000" font-family="sans-serif" font-size="12" lengthAdjust="spacing" textLength="134" x="623.75" y="164.9102">OverviewTestsController</text><line style="stroke:#A80036;stroke-width:1.5;" x1="497" x2="852" y1="176" y2="176"/><text fill="#000000" font-family="sans-serif" font-size="11" lengthAdjust="spacing" textLength="55" x="502" y="191.4189">-clientStore</text><text fill="#000000" font-family="sans-serif" font-size="11" lengthAdjust="spacing" textLength="48" x="502" y="205.2549">-testStore</text><text fill="#000000" font-family="sans-serif" font-size="11" lengthAdjust="spacing" textLength="47" x="502" y="219.0908">-algorithm</text><line style="stroke:#A80036;stroke-width:1.5;" x1="497" x2="852" y1="225.5078" y2="225.5078"/><text fill="#000000" font-family="sans-serif" font-size="11" lengthAdjust="spacing" textLength="345" x="502" y="240.9268">+dateInterval getDatesBetweenDateInterval(beginningDate, endingDate)</text><text fill="#000000" font-family="sans-serif" font-size="11" lengthAdjust="spacing" textLength="133" x="502" y="254.7627">+getTotalNumberOfClients()</text><text fill="#000000" font-family="sans-serif" font-size="11" lengthAdjust="spacing" textLength="173" x="502" y="268.5986">+getTotalNumberOfValidatedTests()</text><text fill="#000000" font-family="sans-serif" font-size="11" lengthAdjust="spacing" textLength="243" x="502" y="282.4346">+getNumberOfTestsWaitingForResultsInDate(date)</text><text fill="#000000" font-family="sans-serif" font-size="11" lengthAdjust="spacing" textLength="239" x="502" y="296.2705">+getNumberOfTestsWaitingForReportInDate(date)</text><text fill="#000000" font-family="sans-serif" font-size="11" lengthAdjust="spacing" textLength="201" x="502" y="310.1064">+getNumberOfTestsValidatedInDate(date)</text><text fill="#000000" font-family="sans-serif" font-size="11" lengthAdjust="spacing" textLength="263" x="502" y="323.9424">+getDifferenceOfNewAndValidatedTests(dateInterval)</text><text fill="#000000" font-family="sans-serif" font-size="11" lengthAdjust="spacing" textLength="265" x="502" y="337.7783">+getBiggestContiguousSubSequence(sequence, code)</text><!--MD5=[02e4b9b7573f1156f41e60aa5b4e25a4]
class Company--><rect codeLine="44" fill="#FEFECE" filter="url(#f1toiw9ob30zmm)" height="89.5078" id="Company" style="stroke:#A80036;stroke-width:1.5;" width="268" x="540.5" y="405"/><ellipse cx="643.75" cy="421" fill="#ADD1B2" rx="11" ry="11" style="stroke:#A80036;stroke-width:1.0;"/><path d="M645.75,417.5 Q645.9531,417 646.1875,416.75 Q646.4219,416.5 646.6875,416.5 Q647.1563,416.5 647.4531,416.7813 Q647.75,417.0625 647.75,417.7188 L647.75,419.2813 Q647.75,419.9375 647.4688,420.2188 Q647.1875,420.5 646.75,420.5 Q646.3594,420.5 646.1094,420.3281 Q645.8594,420.1563 645.75,419.7031 Q645.7031,419.3906 645.5313,419.2188 Q645.2188,418.8906 644.6563,418.7031 Q644.0938,418.5 643.5313,418.5 Q642.8281,418.5 642.2344,418.7813 Q641.6563,419.0625 641.2031,419.6875 Q640.75,420.3125 640.75,421.1719 L640.75,422.0938 Q640.75,423.125 641.5938,423.8125 Q642.4375,424.5 643.9375,424.5 Q644.8281,424.5 645.4531,424.2969 Q645.8125,424.1875 646.2188,423.8281 Q646.4844,423.625 646.625,423.5625 Q646.7656,423.5 646.9375,423.5 Q647.2656,423.5 647.5,423.7656 Q647.75,424.0156 647.75,424.375 Q647.75,424.7188 647.4063,425.125 Q646.9063,425.7188 646.1094,426.0469 Q645.0625,426.5 643.7813,426.5 Q642.2813,426.5 641.0781,425.9063 Q640.1094,425.4375 639.4219,424.4219 Q638.75,423.4063 638.75,422.2031 L638.75,421.1094 Q638.75,419.8594 639.3438,418.7656 Q639.9531,417.6719 641,417.0938 Q642.0625,416.5 643.25,416.5 Q643.9688,416.5 644.5938,416.75 Q645.2188,417 645.75,417.5 Z " fill="#000000"/><text fill="#000000" font-family="sans-serif" font-size="12" lengthAdjust="spacing" textLength="53" x="664.25" y="425.9102">Company</text><line style="stroke:#A80036;stroke-width:1.5;" x1="541.5" x2="807.5" y1="437" y2="437"/><line style="stroke:#A80036;stroke-width:1.5;" x1="541.5" x2="807.5" y1="445" y2="445"/><text fill="#000000" font-family="sans-serif" font-size="11" lengthAdjust="spacing" textLength="135" x="546.5" y="460.4189">+clientStore getClientStore()</text><text fill="#000000" font-family="sans-serif" font-size="11" lengthAdjust="spacing" textLength="123" x="546.5" y="474.2549">+testStore getTestStore()</text><text fill="#000000" font-family="sans-serif" font-size="11" lengthAdjust="spacing" textLength="256" x="546.5" y="488.0908">+getBiggestContiguousSubSequenceAlgorithm(code)</text><!--MD5=[0f6f7964b844a64b0496af0dda7914bd]
class TestStore--><rect codeLine="50" fill="#FEFECE" filter="url(#f1toiw9ob30zmm)" height="144.8516" id="TestStore" style="stroke:#A80036;stroke-width:1.5;" width="371" x="489" y="573"/><ellipse cx="643.75" cy="589" fill="#ADD1B2" rx="11" ry="11" style="stroke:#A80036;stroke-width:1.0;"/><path d="M645.75,585.5 Q645.9531,585 646.1875,584.75 Q646.4219,584.5 646.6875,584.5 Q647.1563,584.5 647.4531,584.7813 Q647.75,585.0625 647.75,585.7188 L647.75,587.2813 Q647.75,587.9375 647.4688,588.2188 Q647.1875,588.5 646.75,588.5 Q646.3594,588.5 646.1094,588.3281 Q645.8594,588.1563 645.75,587.7031 Q645.7031,587.3906 645.5313,587.2188 Q645.2188,586.8906 644.6563,586.7031 Q644.0938,586.5 643.5313,586.5 Q642.8281,586.5 642.2344,586.7813 Q641.6563,587.0625 641.2031,587.6875 Q640.75,588.3125 640.75,589.1719 L640.75,590.0938 Q640.75,591.125 641.5938,591.8125 Q642.4375,592.5 643.9375,592.5 Q644.8281,592.5 645.4531,592.2969 Q645.8125,592.1875 646.2188,591.8281 Q646.4844,591.625 646.625,591.5625 Q646.7656,591.5 646.9375,591.5 Q647.2656,591.5 647.5,591.7656 Q647.75,592.0156 647.75,592.375 Q647.75,592.7188 647.4063,593.125 Q646.9063,593.7188 646.1094,594.0469 Q645.0625,594.5 643.7813,594.5 Q642.2813,594.5 641.0781,593.9063 Q640.1094,593.4375 639.4219,592.4219 Q638.75,591.4063 638.75,590.2031 L638.75,589.1094 Q638.75,587.8594 639.3438,586.7656 Q639.9531,585.6719 641,585.0938 Q642.0625,584.5 643.25,584.5 Q643.9688,584.5 644.5938,584.75 Q645.2188,585 645.75,585.5 Z " fill="#000000"/><text fill="#000000" font-family="sans-serif" font-size="12" lengthAdjust="spacing" textLength="53" x="664.25" y="593.9102">TestStore</text><line style="stroke:#A80036;stroke-width:1.5;" x1="490" x2="859" y1="605" y2="605"/><line style="stroke:#A80036;stroke-width:1.5;" x1="490" x2="859" y1="613" y2="613"/><text fill="#000000" font-family="sans-serif" font-size="11" lengthAdjust="spacing" textLength="173" x="495" y="628.4189">+getTotalNumberOfValidatedTests()</text><text fill="#000000" font-family="sans-serif" font-size="11" lengthAdjust="spacing" textLength="243" x="495" y="642.2549">+getNumberOfTestsWaitingForResultsInDate(date)</text><text fill="#000000" font-family="sans-serif" font-size="11" lengthAdjust="spacing" textLength="239" x="495" y="656.0908">+getNumberOfTestsWaitingForReportInDate(date)</text><text fill="#000000" font-family="sans-serif" font-size="11" lengthAdjust="spacing" textLength="201" x="495" y="669.9268">+getNumberOfTestsValidatedInDate(date)</text><text fill="#000000" font-family="sans-serif" font-size="11" lengthAdjust="spacing" textLength="359" x="495" y="683.7627">+getDifferenceOfNewAndValidatedTestsForEachHalfAnHour(dateInterval)</text><text fill="#000000" font-family="sans-serif" font-size="11" lengthAdjust="spacing" textLength="280" x="495" y="697.5986">+getNumberOfNewTestsForEachHalfAnHour(dateInterval)</text><text fill="#000000" font-family="sans-serif" font-size="11" lengthAdjust="spacing" textLength="302" x="495" y="711.4346">+getNumberOfValidatedTestsForEachHalfAnHour(dateInterval)</text><!--MD5=[55cb992be19579b505cea3c5691093cb]
class ClientStore--><rect codeLine="60" fill="#FEFECE" filter="url(#f1toiw9ob30zmm)" height="61.8359" id="ClientStore" style="stroke:#A80036;stroke-width:1.5;" width="145" x="895" y="614.5"/><ellipse cx="933.4" cy="630.5" fill="#ADD1B2" rx="11" ry="11" style="stroke:#A80036;stroke-width:1.0;"/><path d="M935.4,627 Q935.6031,626.5 935.8375,626.25 Q936.0719,626 936.3375,626 Q936.8063,626 937.1031,626.2813 Q937.4,626.5625 937.4,627.2188 L937.4,628.7813 Q937.4,629.4375 937.1188,629.7188 Q936.8375,630 936.4,630 Q936.0094,630 935.7594,629.8281 Q935.5094,629.6563 935.4,629.2031 Q935.3531,628.8906 935.1813,628.7188 Q934.8688,628.3906 934.3063,628.2031 Q933.7438,628 933.1813,628 Q932.4781,628 931.8844,628.2813 Q931.3063,628.5625 930.8531,629.1875 Q930.4,629.8125 930.4,630.6719 L930.4,631.5938 Q930.4,632.625 931.2438,633.3125 Q932.0875,634 933.5875,634 Q934.4781,634 935.1031,633.7969 Q935.4625,633.6875 935.8688,633.3281 Q936.1344,633.125 936.275,633.0625 Q936.4156,633 936.5875,633 Q936.9156,633 937.15,633.2656 Q937.4,633.5156 937.4,633.875 Q937.4,634.2188 937.0563,634.625 Q936.5563,635.2188 935.7594,635.5469 Q934.7125,636 933.4313,636 Q931.9313,636 930.7281,635.4063 Q929.7594,634.9375 929.0719,633.9219 Q928.4,632.9063 928.4,631.7031 L928.4,630.6094 Q928.4,629.3594 928.9938,628.2656 Q929.6031,627.1719 930.65,626.5938 Q931.7125,626 932.9,626 Q933.6188,626 934.2438,626.25 Q934.8688,626.5 935.4,627 Z " fill="#000000"/><text fill="#000000" font-family="sans-serif" font-size="12" lengthAdjust="spacing" textLength="61" x="952.6" y="635.4102">ClientStore</text><line style="stroke:#A80036;stroke-width:1.5;" x1="896" x2="1039" y1="646.5" y2="646.5"/><line style="stroke:#A80036;stroke-width:1.5;" x1="896" x2="1039" y1="654.5" y2="654.5"/><text fill="#000000" font-family="sans-serif" font-size="11" lengthAdjust="spacing" textLength="133" x="901" y="669.9189">+getTotalNumberOfClients()</text><!--MD5=[49f4e119310c81f72a972f4715e48e8f]
reverse link BiggestContiguousSubSequenceAlgorithm to BenchmarkAlgorithmAdapter--><path codeLine="64" d="M266.74,690.95 C239.19,718.93 204.38,754.28 180.06,778.98 " fill="none" id="BiggestContiguousSubSequenceAlgorithm-backto-BenchmarkAlgorithmAdapter" style="stroke:#A80036;stroke-width:1.0;stroke-dasharray:7.0,7.0;"/><polygon fill="none" points="261.76,686.02,280.78,676.68,271.74,695.85,261.76,686.02" style="stroke:#A80036;stroke-width:1.0;"/><!--MD5=[9176e615d5782ed35bc6af541d3d5281]
reverse link BiggestContiguousSubSequenceAlgorithm to BruteForceAlgorithmAdapter--><path codeLine="65" d="M354.81,690.95 C382.7,718.93 417.95,754.28 442.57,778.98 " fill="none" id="BiggestContiguousSubSequenceAlgorithm-backto-BruteForceAlgorithmAdapter" style="stroke:#A80036;stroke-width:1.0;stroke-dasharray:7.0,7.0;"/><polygon fill="none" points="349.75,695.79,340.59,676.68,359.67,685.91,349.75,695.79" style="stroke:#A80036;stroke-width:1.0;"/><!--MD5=[73931cad65e89be1306cd6c1677750f8]
link BenchmarkAlgorithmAdapter to BenchmarkAlgorithm--><path codeLine="66" d="M150.5,841.22 C150.5,857.97 150.5,878.89 150.5,896.42 " fill="none" id="BenchmarkAlgorithmAdapter-to-BenchmarkAlgorithm" style="stroke:#A80036;stroke-width:1.0;"/><polygon fill="#A80036" points="150.5,901.74,154.5,892.74,150.5,896.74,146.5,892.74,150.5,901.74" style="stroke:#A80036;stroke-width:1.0;"/><!--MD5=[5c0b00d376c45fe49ede70ccf937dd89]
link BruteForceAlgorithmAdapter to BruteForceAlgorithm--><path codeLine="67" d="M472.5,841.22 C472.5,857.97 472.5,878.89 472.5,896.42 " fill="none" id="BruteForceAlgorithmAdapter-to-BruteForceAlgorithm" style="stroke:#A80036;stroke-width:1.0;"/><polygon fill="#A80036" points="472.5,901.74,476.5,892.74,472.5,896.74,468.5,892.74,472.5,901.74" style="stroke:#A80036;stroke-width:1.0;"/><!--MD5=[35057a4170ebba61a0f565d960a957d3]
link OverviewTestsUI to OverviewTestsController--><path codeLine="69" d="M674.5,83.05 C674.5,99.08 674.5,118.73 674.5,138.69 " fill="none" id="OverviewTestsUI-to-OverviewTestsController" style="stroke:#A80036;stroke-width:1.0;stroke-dasharray:7.0,7.0;"/><polygon fill="#A80036" points="674.5,143.77,678.5,134.77,674.5,138.77,670.5,134.77,674.5,143.77" style="stroke:#A80036;stroke-width:1.0;"/><!--MD5=[0f1d81f8144c5fe563d14dd6b1e7f526]
link OverviewTestsController to Company--><path codeLine="70" d="M674.5,344.01 C674.5,363.33 674.5,382.79 674.5,399.62 " fill="none" id="OverviewTestsController-to-Company" style="stroke:#A80036;stroke-width:1.0;stroke-dasharray:7.0,7.0;"/><polygon fill="#A80036" points="674.5,404.76,678.5,395.76,674.5,399.76,670.5,395.76,674.5,404.76" style="stroke:#A80036;stroke-width:1.0;"/><!--MD5=[7f6cf7f175eae0af66201860de5de971]
link Company to TestStore--><path codeLine="71" d="M674.5,495.39 C674.5,516.75 674.5,542.97 674.5,567.44 " fill="none" id="Company-to-TestStore" style="stroke:#A80036;stroke-width:1.0;"/><polygon fill="#A80036" points="674.5,572.63,678.5,563.63,674.5,567.63,670.5,563.63,674.5,572.63" style="stroke:#A80036;stroke-width:1.0;"/><polygon fill="#000000" points="679.5,539.1758,682.4389,530.1307,676.5611,530.1307,679.5,539.1758" style="stroke:#000000;stroke-width:1.0;"/><text fill="#000000" font-family="sans-serif" font-size="13" lengthAdjust="spacing" textLength="28" x="688.5" y="539.4951">uses</text><!--MD5=[a11230341c8e65219708844feaa40162]
link Company to ClientStore--><path codeLine="72" d="M753.11,495.03 C791.38,517.27 837.63,545.35 877.5,573 C894.29,584.64 912.04,598.41 927.31,610.73 " fill="none" id="Company-to-ClientStore" style="stroke:#A80036;stroke-width:1.0;"/><polygon fill="#A80036" points="931.54,614.17,927.0579,605.4001,927.6524,611.0257,922.0269,611.6202,931.54,614.17" style="stroke:#A80036;stroke-width:1.0;"/><polygon fill="#000000" points="837.665,536.9421,831.7564,529.4896,828.5044,534.3859,837.665,536.9421" style="stroke:#000000;stroke-width:1.0;"/><text fill="#000000" font-family="sans-serif" font-size="13" lengthAdjust="spacing" textLength="28" x="842.5" y="539.4951">uses</text><!--MD5=[ccab6a9d47948f67fa890584d470afff]
link Company to BiggestContiguousSubSequenceAlgorithm--><path codeLine="73" d="M591.45,495.15 C524.58,530.7 432.1,579.86 371.8,611.91 " fill="none" id="Company-to-BiggestContiguousSubSequenceAlgorithm" style="stroke:#A80036;stroke-width:1.0;stroke-dasharray:7.0,7.0;"/><polygon fill="#A80036" points="367.16,614.38,376.9832,613.6692,371.5706,612.0248,373.2149,606.6122,367.16,614.38" style="stroke:#A80036;stroke-width:1.0;"/><!--MD5=[b03c6d2d097dab580cb91a47bcbe76d6]
@startuml

skinparam classAttributeIconSize 0

interface BiggestContiguousSubSequenceAlgorithm {
+int[] getBiggestContiguousSubSequence(int[] sequence)
}

class "BenchmarkAlgorithmAdapter" {
+int[] getBiggestContiguousSubSequence(int[] sequence)
}

class "BruteForceAlgorithmAdapter" {
+int[] getBiggestContiguousSubSequence(int[] sequence)
}

class "BenchmarkAlgorithm" {
+int[] Max(int[] seq)
}

class "BruteForceAlgorithm" {
+ArrayList<Integer> biggestSumSubSequence(int[] sequence)
}

class OverviewTestsUI {
-dateInterval
-int[] sequence
}

class OverviewTestsController {
-clientStore
-testStore
-algorithm

+dateInterval getDatesBetweenDateInterval(beginningDate, endingDate)
+getTotalNumberOfClients()
+getTotalNumberOfValidatedTests()
+getNumberOfTestsWaitingForResultsInDate(date)
+getNumberOfTestsWaitingForReportInDate(date)
+getNumberOfTestsValidatedInDate(date)
+getDifferenceOfNewAndValidatedTests(dateInterval)
+getBiggestContiguousSubSequence(sequence, code)
}

class Company {
+clientStore getClientStore()
+testStore getTestStore()
+getBiggestContiguousSubSequenceAlgorithm(code)
}

class TestStore {
+getTotalNumberOfValidatedTests()
+getNumberOfTestsWaitingForResultsInDate(date)
+getNumberOfTestsWaitingForReportInDate(date)
+getNumberOfTestsValidatedInDate(date)
+getDifferenceOfNewAndValidatedTestsForEachHalfAnHour(dateInterval)
+getNumberOfNewTestsForEachHalfAnHour(dateInterval)
+getNumberOfValidatedTestsForEachHalfAnHour(dateInterval)
}

class ClientStore {
+getTotalNumberOfClients()
}

"BenchmarkAlgorithmAdapter" ..up|> BiggestContiguousSubSequenceAlgorithm
"BruteForceAlgorithmAdapter" ..up|> BiggestContiguousSubSequenceAlgorithm
"BenchmarkAlgorithmAdapter" - -down> "BenchmarkAlgorithm"
"BruteForceAlgorithmAdapter" - -down> "BruteForceAlgorithm"

OverviewTestsUI ..> OverviewTestsController
OverviewTestsController ..> Company
Company -down-> TestStore: uses >
Company -down-> ClientStore: uses >
Company ..> BiggestContiguousSubSequenceAlgorithm
@enduml

PlantUML version 1.2021.7(Sun May 23 13:40:07 BST 2021)
(GPL source distribution)
Java Runtime: OpenJDK Runtime Environment
JVM: OpenJDK 64-Bit Server VM
Default Encoding: Cp1252
Language: pt
Country: PT
--></g></svg>