<?xml version="1.0" encoding="UTF-8" standalone="no"?><svg xmlns="http://www.w3.org/2000/svg" xmlns:xlink="http://www.w3.org/1999/xlink" contentScriptType="application/ecmascript" contentStyleType="text/css" height="436.02px" preserveAspectRatio="none" style="width:898px;height:436px;" version="1.1" viewBox="0 0 898 436" width="898.56px" zoomAndPan="magnify"><defs><filter height="300%" id="f1ax51qzz6jip4" width="300%" x="-1" y="-1"><feGaussianBlur result="blurOut" stdDeviation="1.56"/><feColorMatrix in="blurOut" result="blurOut2" type="matrix" values="0 0 0 0 0 0 0 0 0 0 0 0 0 0 0 0 0 0 .4 0"/><feOffset dx="3.12" dy="3.12" in="blurOut2" result="blurOut3"/><feBlend in="SourceGraphic" in2="blurOut3" mode="normal"/></filter></defs><g><!--MD5=[903c2ea6bfb585685e4a7fcf07bdd70e]
class CreateNhsReportUI--><rect codeLine="4" fill="#FEFECE" filter="url(#f1ax51qzz6jip4)" height="48.232" id="CreateNhsReportUI" style="stroke:#A80036;stroke-width:1.17;" width="109.98" x="5.46" y="32.37"/><ellipse cx="17.16" cy="44.85" fill="#ADD1B2" rx="8.58" ry="8.58" style="stroke:#A80036;stroke-width:0.78;"/><path d="M18.72,42.12 Q18.8784,41.73 19.0613,41.535 Q19.2441,41.34 19.4513,41.34 Q19.8169,41.34 20.0484,41.5594 Q20.28,41.7788 20.28,42.2906 L20.28,43.5094 Q20.28,44.0213 20.0606,44.2406 Q19.8413,44.46 19.5,44.46 Q19.1953,44.46 19.0003,44.3259 Q18.8053,44.1919 18.72,43.8384 Q18.6834,43.5947 18.5494,43.4606 Q18.3056,43.2047 17.8669,43.0584 Q17.4281,42.9 16.9894,42.9 Q16.4409,42.9 15.9778,43.1194 Q15.5269,43.3388 15.1734,43.8263 Q14.82,44.3138 14.82,44.9841 L14.82,45.7031 Q14.82,46.5075 15.4781,47.0438 Q16.1363,47.58 17.3063,47.58 Q18.0009,47.58 18.4884,47.4216 Q18.7688,47.3363 19.0856,47.0559 Q19.2928,46.8975 19.4025,46.8488 Q19.5122,46.8 19.6463,46.8 Q19.9022,46.8 20.085,47.0072 Q20.28,47.2022 20.28,47.4825 Q20.28,47.7506 20.0119,48.0675 Q19.6219,48.5306 19.0003,48.7866 Q18.1838,49.14 17.1844,49.14 Q16.0144,49.14 15.0759,48.6769 Q14.3203,48.3113 13.7841,47.5191 Q13.26,46.7269 13.26,45.7884 L13.26,44.9353 Q13.26,43.9603 13.7231,43.1072 Q14.1984,42.2541 15.015,41.8031 Q15.8438,41.34 16.77,41.34 Q17.3306,41.34 17.8181,41.535 Q18.3056,41.73 18.72,42.12 Z " fill="#000000"/><text fill="#000000" font-family="sans-serif" font-size="9.36" lengthAdjust="spacing" textLength="85.02" x="28.08" y="48.6799">CreateNhsReportUI</text><line style="stroke:#A80036;stroke-width:1.17;" x1="6.24" x2="114.66" y1="57.33" y2="57.33"/><line style="stroke:#A80036;stroke-width:1.17;" x1="6.24" x2="114.66" y1="63.57" y2="63.57"/><text fill="#000000" font-family="sans-serif" font-size="8.58" lengthAdjust="spacing" textLength="23.4" x="10.14" y="75.5968">+run()</text><!--MD5=[11779a1c85551913f1fc615802b94a30]
class CreateNhsReportController--><rect codeLine="9" fill="#FEFECE" filter="url(#f1ax51qzz6jip4)" height="102.1922" id="CreateNhsReportController" style="stroke:#A80036;stroke-width:1.17;" width="186.42" x="142.74" y="5.46"/><ellipse cx="174.096" cy="17.94" fill="#ADD1B2" rx="8.58" ry="8.58" style="stroke:#A80036;stroke-width:0.78;"/><path d="M175.656,15.21 Q175.8144,14.82 175.9973,14.625 Q176.1801,14.43 176.3873,14.43 Q176.7529,14.43 176.9844,14.6494 Q177.216,14.8688 177.216,15.3806 L177.216,16.5994 Q177.216,17.1113 176.9966,17.3306 Q176.7773,17.55 176.436,17.55 Q176.1313,17.55 175.9363,17.4159 Q175.7413,17.2819 175.656,16.9284 Q175.6194,16.6847 175.4854,16.5506 Q175.2416,16.2947 174.8029,16.1484 Q174.3641,15.99 173.9254,15.99 Q173.3769,15.99 172.9138,16.2094 Q172.4629,16.4288 172.1094,16.9163 Q171.756,17.4038 171.756,18.0741 L171.756,18.7931 Q171.756,19.5975 172.4141,20.1338 Q173.0723,20.67 174.2422,20.67 Q174.9369,20.67 175.4244,20.5116 Q175.7048,20.4263 176.0216,20.1459 Q176.2288,19.9875 176.3385,19.9388 Q176.4482,19.89 176.5823,19.89 Q176.8382,19.89 177.021,20.0972 Q177.216,20.2922 177.216,20.5725 Q177.216,20.8406 176.9479,21.1575 Q176.5579,21.6206 175.9363,21.8766 Q175.1198,22.23 174.1204,22.23 Q172.9504,22.23 172.0119,21.7669 Q171.2563,21.4013 170.7201,20.6091 Q170.196,19.8169 170.196,18.8784 L170.196,18.0253 Q170.196,17.0503 170.6591,16.1972 Q171.1344,15.3441 171.951,14.8931 Q172.7798,14.43 173.706,14.43 Q174.2666,14.43 174.7541,14.625 Q175.2416,14.82 175.656,15.21 Z " fill="#000000"/><text fill="#000000" font-family="sans-serif" font-size="9.36" lengthAdjust="spacing" textLength="117.78" x="189.384" y="21.7699">CreateNhsReportController</text><line style="stroke:#A80036;stroke-width:1.17;" x1="143.52" x2="328.38" y1="30.42" y2="30.42"/><line style="stroke:#A80036;stroke-width:1.17;" x1="143.52" x2="328.38" y1="36.66" y2="36.66"/><text fill="#000000" font-family="sans-serif" font-size="8.58" lengthAdjust="spacing" textLength="135.72" x="147.42" y="48.6868">+setHistoricalPoints(historicalPoints)</text><text fill="#000000" font-family="sans-serif" font-size="8.58" lengthAdjust="spacing" textLength="107.64" x="147.42" y="59.4788">+setCurrentDay(currentDay)</text><text fill="#000000" font-family="sans-serif" font-size="8.58" lengthAdjust="spacing" textLength="88.14" x="147.42" y="70.2708">+setInitialDay(initialDay)</text><text fill="#000000" font-family="sans-serif" font-size="8.58" lengthAdjust="spacing" textLength="85.02" x="147.42" y="81.0629">+setFinalDay(finalDay)</text><text fill="#000000" font-family="sans-serif" font-size="8.58" lengthAdjust="spacing" textLength="177.06" x="147.42" y="91.8549">+setIndependentVariable(independentVariable)</text><text fill="#000000" font-family="sans-serif" font-size="8.58" lengthAdjust="spacing" textLength="73.32" x="147.42" y="102.6469">+makeRegression()</text><!--MD5=[0f6f7964b844a64b0496af0dda7914bd]
class TestStore--><rect codeLine="18" fill="#FEFECE" filter="url(#f1ax51qzz6jip4)" height="69.8161" id="TestStore" style="stroke:#A80036;stroke-width:1.17;" width="144.3" x="439.92" y="260.52"/><ellipse cx="488.085" cy="273" fill="#ADD1B2" rx="8.58" ry="8.58" style="stroke:#A80036;stroke-width:0.78;"/><path d="M489.645,270.27 Q489.8034,269.88 489.9863,269.685 Q490.1691,269.49 490.3763,269.49 Q490.7419,269.49 490.9734,269.7094 Q491.205,269.9288 491.205,270.4406 L491.205,271.6594 Q491.205,272.1713 490.9856,272.3906 Q490.7663,272.61 490.425,272.61 Q490.1203,272.61 489.9253,272.4759 Q489.7303,272.3419 489.645,271.9884 Q489.6084,271.7447 489.4744,271.6106 Q489.2306,271.3547 488.7919,271.2084 Q488.3531,271.05 487.9144,271.05 Q487.3659,271.05 486.9028,271.2694 Q486.4519,271.4888 486.0984,271.9763 Q485.745,272.4638 485.745,273.1341 L485.745,273.8531 Q485.745,274.6575 486.4031,275.1938 Q487.0613,275.73 488.2313,275.73 Q488.9259,275.73 489.4134,275.5716 Q489.6938,275.4863 490.0106,275.2059 Q490.2178,275.0475 490.3275,274.9988 Q490.4372,274.95 490.5713,274.95 Q490.8272,274.95 491.01,275.1572 Q491.205,275.3522 491.205,275.6325 Q491.205,275.9006 490.9369,276.2175 Q490.5469,276.6806 489.9253,276.9366 Q489.1088,277.29 488.1094,277.29 Q486.9394,277.29 486.0009,276.8269 Q485.2453,276.4613 484.7091,275.6691 Q484.185,274.8769 484.185,273.9384 L484.185,273.0853 Q484.185,272.1103 484.6481,271.2572 Q485.1234,270.4041 485.94,269.9531 Q486.7688,269.49 487.695,269.49 Q488.2556,269.49 488.7431,269.685 Q489.2306,269.88 489.645,270.27 Z " fill="#000000"/><text fill="#000000" font-family="sans-serif" font-size="9.36" lengthAdjust="spacing" textLength="41.34" x="504.075" y="276.8299">TestStore</text><line style="stroke:#A80036;stroke-width:1.17;" x1="440.7" x2="583.44" y1="285.48" y2="285.48"/><line style="stroke:#A80036;stroke-width:1.17;" x1="440.7" x2="583.44" y1="291.72" y2="291.72"/><text fill="#000000" font-family="sans-serif" font-size="8.58" lengthAdjust="spacing" textLength="117" x="444.6" y="303.7468">+getPositiveCasesPerDay(day)</text><text fill="#000000" font-family="sans-serif" font-size="8.58" lengthAdjust="spacing" textLength="134.94" x="444.6" y="314.5388">+getNumberOfTestsPerformed(day)</text><text fill="#000000" font-family="sans-serif" font-size="8.58" lengthAdjust="spacing" textLength="105.3" x="444.6" y="325.3308">+getAverageAgeClient(day)</text><!--MD5=[ef340af6512c03d5eeac92509be9c66b]
class LinearRegression--><rect codeLine="24" fill="#FEFECE" filter="url(#f1ax51qzz6jip4)" height="48.232" id="LinearRegression" style="stroke:#A80036;stroke-width:1.17;" width="102.96" x="622.05" y="271.44"/><ellipse cx="633.75" cy="283.92" fill="#ADD1B2" rx="8.58" ry="8.58" style="stroke:#A80036;stroke-width:0.78;"/><path d="M635.31,281.19 Q635.4684,280.8 635.6513,280.605 Q635.8341,280.41 636.0413,280.41 Q636.4069,280.41 636.6384,280.6294 Q636.87,280.8488 636.87,281.3606 L636.87,282.5794 Q636.87,283.0913 636.6506,283.3106 Q636.4313,283.53 636.09,283.53 Q635.7853,283.53 635.5903,283.3959 Q635.3953,283.2619 635.31,282.9084 Q635.2734,282.6647 635.1394,282.5306 Q634.8956,282.2747 634.4569,282.1284 Q634.0181,281.97 633.5794,281.97 Q633.0309,281.97 632.5678,282.1894 Q632.1169,282.4088 631.7634,282.8963 Q631.41,283.3838 631.41,284.0541 L631.41,284.7731 Q631.41,285.5775 632.0681,286.1138 Q632.7263,286.65 633.8963,286.65 Q634.5909,286.65 635.0784,286.4916 Q635.3588,286.4063 635.6756,286.1259 Q635.8828,285.9675 635.9925,285.9188 Q636.1022,285.87 636.2363,285.87 Q636.4922,285.87 636.675,286.0772 Q636.87,286.2722 636.87,286.5525 Q636.87,286.8206 636.6019,287.1375 Q636.2119,287.6006 635.5903,287.8566 Q634.7738,288.21 633.7744,288.21 Q632.6044,288.21 631.6659,287.7469 Q630.9103,287.3813 630.3741,286.5891 Q629.85,285.7969 629.85,284.8584 L629.85,284.0053 Q629.85,283.0303 630.3131,282.1772 Q630.7884,281.3241 631.605,280.8731 Q632.4338,280.41 633.36,280.41 Q633.9206,280.41 634.4081,280.605 Q634.8956,280.8 635.31,281.19 Z " fill="#000000"/><text fill="#000000" font-family="sans-serif" font-size="9.36" lengthAdjust="spacing" textLength="78" x="644.67" y="287.7499">LinearRegression</text><line style="stroke:#A80036;stroke-width:1.17;" x1="622.83" x2="724.23" y1="296.4" y2="296.4"/><line style="stroke:#A80036;stroke-width:1.17;" x1="622.83" x2="724.23" y1="302.64" y2="302.64"/><text fill="#000000" font-family="sans-serif" font-size="8.58" lengthAdjust="spacing" textLength="91.26" x="626.73" y="314.6668">+LinearRegression(x, y)</text><!--MD5=[6f57bde7dde74de5002c105391146556]
class MultiLinearRegression--><rect codeLine="28" fill="#FEFECE" filter="url(#f1ax51qzz6jip4)" height="48.232" id="MultiLinearRegression" style="stroke:#A80036;stroke-width:1.17;" width="135.72" x="752.31" y="271.44"/><ellipse cx="769.977" cy="283.92" fill="#ADD1B2" rx="8.58" ry="8.58" style="stroke:#A80036;stroke-width:0.78;"/><path d="M771.537,281.19 Q771.6954,280.8 771.8783,280.605 Q772.0611,280.41 772.2683,280.41 Q772.6339,280.41 772.8654,280.6294 Q773.097,280.8488 773.097,281.3606 L773.097,282.5794 Q773.097,283.0913 772.8776,283.3106 Q772.6583,283.53 772.317,283.53 Q772.0123,283.53 771.8173,283.3959 Q771.6223,283.2619 771.537,282.9084 Q771.5004,282.6647 771.3664,282.5306 Q771.1226,282.2747 770.6839,282.1284 Q770.2451,281.97 769.8064,281.97 Q769.2579,281.97 768.7948,282.1894 Q768.3439,282.4088 767.9904,282.8963 Q767.637,283.3838 767.637,284.0541 L767.637,284.7731 Q767.637,285.5775 768.2951,286.1138 Q768.9533,286.65 770.1233,286.65 Q770.8179,286.65 771.3054,286.4916 Q771.5858,286.4063 771.9026,286.1259 Q772.1098,285.9675 772.2195,285.9188 Q772.3292,285.87 772.4633,285.87 Q772.7192,285.87 772.902,286.0772 Q773.097,286.2722 773.097,286.5525 Q773.097,286.8206 772.8289,287.1375 Q772.4389,287.6006 771.8173,287.8566 Q771.0008,288.21 770.0014,288.21 Q768.8314,288.21 767.8929,287.7469 Q767.1373,287.3813 766.6011,286.5891 Q766.077,285.7969 766.077,284.8584 L766.077,284.0053 Q766.077,283.0303 766.5401,282.1772 Q767.0154,281.3241 767.832,280.8731 Q768.6608,280.41 769.587,280.41 Q770.1476,280.41 770.6351,280.605 Q771.1226,280.8 771.537,281.19 Z " fill="#000000"/><text fill="#000000" font-family="sans-serif" font-size="9.36" lengthAdjust="spacing" textLength="97.5" x="782.223" y="287.7499">MultiLinearRegression</text><line style="stroke:#A80036;stroke-width:1.17;" x1="753.09" x2="887.25" y1="296.4" y2="296.4"/><line style="stroke:#A80036;stroke-width:1.17;" x1="753.09" x2="887.25" y1="302.64" y2="302.64"/><text fill="#000000" font-family="sans-serif" font-size="8.58" lengthAdjust="spacing" textLength="126.36" x="756.99" y="314.6668">+MultiLinearRegression(x1, x2, y)</text><!--MD5=[02e4b9b7573f1156f41e60aa5b4e25a4]
class Company--><rect codeLine="32" fill="#FEFECE" filter="url(#f1ax51qzz6jip4)" height="59.0241" id="Company" style="stroke:#A80036;stroke-width:1.17;" width="473.46" x="356.46" y="26.91"/><ellipse cx="569.205" cy="39.39" fill="#ADD1B2" rx="8.58" ry="8.58" style="stroke:#A80036;stroke-width:0.78;"/><path d="M570.765,36.66 Q570.9234,36.27 571.1063,36.075 Q571.2891,35.88 571.4963,35.88 Q571.8619,35.88 572.0934,36.0994 Q572.325,36.3188 572.325,36.8306 L572.325,38.0494 Q572.325,38.5613 572.1056,38.7806 Q571.8863,39 571.545,39 Q571.2403,39 571.0453,38.8659 Q570.8503,38.7319 570.765,38.3784 Q570.7284,38.1347 570.5944,38.0006 Q570.3506,37.7447 569.9119,37.5984 Q569.4731,37.44 569.0344,37.44 Q568.4859,37.44 568.0228,37.6594 Q567.5719,37.8788 567.2184,38.3663 Q566.865,38.8538 566.865,39.5241 L566.865,40.2431 Q566.865,41.0475 567.5231,41.5838 Q568.1813,42.12 569.3513,42.12 Q570.0459,42.12 570.5334,41.9616 Q570.8138,41.8763 571.1306,41.5959 Q571.3378,41.4375 571.4475,41.3888 Q571.5572,41.34 571.6913,41.34 Q571.9472,41.34 572.13,41.5472 Q572.325,41.7422 572.325,42.0225 Q572.325,42.2906 572.0569,42.6075 Q571.6669,43.0706 571.0453,43.3266 Q570.2288,43.68 569.2294,43.68 Q568.0594,43.68 567.1209,43.2169 Q566.3653,42.8513 565.8291,42.0591 Q565.305,41.2669 565.305,40.3284 L565.305,39.4753 Q565.305,38.5003 565.7681,37.6472 Q566.2434,36.7941 567.06,36.3431 Q567.8888,35.88 568.815,35.88 Q569.3756,35.88 569.8631,36.075 Q570.3506,36.27 570.765,36.66 Z " fill="#000000"/><text fill="#000000" font-family="sans-serif" font-size="9.36" lengthAdjust="spacing" textLength="41.34" x="585.195" y="43.2199">Company</text><line style="stroke:#A80036;stroke-width:1.17;" x1="357.24" x2="829.14" y1="51.87" y2="51.87"/><line style="stroke:#A80036;stroke-width:1.17;" x1="357.24" x2="829.14" y1="58.11" y2="58.11"/><text fill="#000000" font-family="sans-serif" font-size="8.58" lengthAdjust="spacing" textLength="363.48" x="361.14" y="70.1368">+makeMultiLinearRegressionReport(historicalPoints, dateCurrentDay, dateInitalDay, dateDayFinal)</text><text fill="#000000" font-family="sans-serif" font-size="8.58" lengthAdjust="spacing" textLength="464.1" x="361.14" y="80.9288">+makeSimpleLinearRegressionReport(historicalPoints, dateCurrentDay, dateInitalDay, dateCurrentDayFinal, independentVar)</text><!--MD5=[906102cd9c3f86a843ffe169f50170bd]
class WriteReport--><rect codeLine="37" fill="#FEFECE" filter="url(#f1ax51qzz6jip4)" height="59.0241" id="WriteReport" style="stroke:#A80036;stroke-width:1.17;" width="339.3" x="528.84" y="154.44"/><ellipse cx="669.825" cy="166.92" fill="#ADD1B2" rx="8.58" ry="8.58" style="stroke:#A80036;stroke-width:0.78;"/><path d="M671.385,164.19 Q671.5434,163.8 671.7263,163.605 Q671.9091,163.41 672.1163,163.41 Q672.4819,163.41 672.7134,163.6294 Q672.945,163.8488 672.945,164.3606 L672.945,165.5794 Q672.945,166.0913 672.7256,166.3106 Q672.5063,166.53 672.165,166.53 Q671.8603,166.53 671.6653,166.3959 Q671.4703,166.2619 671.385,165.9084 Q671.3484,165.6647 671.2144,165.5306 Q670.9706,165.2747 670.5319,165.1284 Q670.0931,164.97 669.6544,164.97 Q669.1059,164.97 668.6428,165.1894 Q668.1919,165.4088 667.8384,165.8963 Q667.485,166.3838 667.485,167.0541 L667.485,167.7731 Q667.485,168.5775 668.1431,169.1138 Q668.8013,169.65 669.9713,169.65 Q670.6659,169.65 671.1534,169.4916 Q671.4338,169.4063 671.7506,169.1259 Q671.9578,168.9675 672.0675,168.9188 Q672.1772,168.87 672.3113,168.87 Q672.5672,168.87 672.75,169.0772 Q672.945,169.2722 672.945,169.5525 Q672.945,169.8206 672.6769,170.1375 Q672.2869,170.6006 671.6653,170.8566 Q670.8488,171.21 669.8494,171.21 Q668.6794,171.21 667.7409,170.7469 Q666.9853,170.3813 666.4491,169.5891 Q665.925,168.7969 665.925,167.8584 L665.925,167.0053 Q665.925,166.0303 666.3881,165.1772 Q666.8634,164.3241 667.68,163.8731 Q668.5088,163.41 669.435,163.41 Q669.9956,163.41 670.4831,163.605 Q670.9706,163.8 671.385,164.19 Z " fill="#000000"/><text fill="#000000" font-family="sans-serif" font-size="9.36" lengthAdjust="spacing" textLength="50.7" x="685.815" y="170.7499">WriteReport</text><line style="stroke:#A80036;stroke-width:1.17;" x1="529.62" x2="867.36" y1="179.4" y2="179.4"/><line style="stroke:#A80036;stroke-width:1.17;" x1="529.62" x2="867.36" y1="185.64" y2="185.64"/><text fill="#000000" font-family="sans-serif" font-size="8.58" lengthAdjust="spacing" textLength="329.94" x="533.52" y="197.6668">+WriteReport(testStore, historicalPoints, currentDay, startRegression, finishRegression)</text><text fill="#000000" font-family="sans-serif" font-size="8.58" lengthAdjust="spacing" textLength="47.58" x="533.52" y="208.4588">+getReport()</text><!--MD5=[50d1a1cda746b645eed6e6c94f8696d0]
class ExternalModuleNhsReport--><rect codeLine="42" fill="#FEFECE" filter="url(#f1ax51qzz6jip4)" height="59.0241" id="ExternalModuleNhsReport" style="stroke:#A80036;stroke-width:1.17;" width="137.28" x="167.31" y="154.44"/><ellipse cx="179.01" cy="166.92" fill="#B4A7E5" rx="8.58" ry="8.58" style="stroke:#A80036;stroke-width:0.78;"/><path d="M179.79,164.58 L179.79,169.26 L181.35,169.26 L181.7278,169.26 L182.13,169.7475 L182.13,170.04 L182.13,170.3325 L181.7278,170.82 L181.35,170.82 L176.67,170.82 L176.2922,170.82 L175.89,170.3325 L175.89,170.04 L175.89,169.7475 L176.2922,169.26 L176.67,169.26 L178.23,169.26 L178.23,164.58 L176.67,164.58 L176.2922,164.58 L175.89,164.0925 L175.89,163.8 L175.89,163.5075 L176.2922,163.02 L176.67,163.02 L181.35,163.02 L181.7278,163.02 L182.13,163.5075 L182.13,163.8 L182.13,164.0925 L181.7278,164.58 L181.35,164.58 L179.79,164.58 Z " fill="#000000"/><text fill="#000000" font-family="sans-serif" font-size="9.36" font-style="italic" lengthAdjust="spacing" textLength="112.32" x="189.93" y="170.7499">ExternalModuleNhsReport</text><line style="stroke:#A80036;stroke-width:1.17;" x1="168.09" x2="303.81" y1="179.4" y2="179.4"/><line style="stroke:#A80036;stroke-width:1.17;" x1="168.09" x2="303.81" y1="185.64" y2="185.64"/><text fill="#000000" font-family="sans-serif" font-size="8.58" lengthAdjust="spacing" textLength="117.78" x="171.99" y="197.6668">+void sendReport(String string)</text><text fill="#000000" font-family="sans-serif" font-size="8.58" lengthAdjust="spacing" textLength="90.48" x="171.99" y="208.4588">+void getDateAndTime()</text><!--MD5=[b04e67341a4c9a11ab886afd8f3c3b68]
class ExternalModuleNhsReportAdapter--><rect codeLine="47" fill="#FEFECE" filter="url(#f1ax51qzz6jip4)" height="59.0241" id="ExternalModuleNhsReportAdapter" style="stroke:#A80036;stroke-width:1.17;" width="170.04" x="150.93" y="265.98"/><ellipse cx="162.63" cy="278.46" fill="#ADD1B2" rx="8.58" ry="8.58" style="stroke:#A80036;stroke-width:0.78;"/><path d="M164.19,275.73 Q164.3484,275.34 164.5313,275.145 Q164.7141,274.95 164.9213,274.95 Q165.2869,274.95 165.5184,275.1694 Q165.75,275.3888 165.75,275.9006 L165.75,277.1194 Q165.75,277.6313 165.5306,277.8506 Q165.3113,278.07 164.97,278.07 Q164.6653,278.07 164.4703,277.9359 Q164.2753,277.8019 164.19,277.4484 Q164.1534,277.2047 164.0194,277.0706 Q163.7756,276.8147 163.3369,276.6684 Q162.8981,276.51 162.4594,276.51 Q161.9109,276.51 161.4478,276.7294 Q160.9969,276.9488 160.6434,277.4363 Q160.29,277.9238 160.29,278.5941 L160.29,279.3131 Q160.29,280.1175 160.9481,280.6538 Q161.6063,281.19 162.7763,281.19 Q163.4709,281.19 163.9584,281.0316 Q164.2388,280.9463 164.5556,280.6659 Q164.7628,280.5075 164.8725,280.4588 Q164.9822,280.41 165.1163,280.41 Q165.3722,280.41 165.555,280.6172 Q165.75,280.8122 165.75,281.0925 Q165.75,281.3606 165.4819,281.6775 Q165.0919,282.1406 164.4703,282.3966 Q163.6538,282.75 162.6544,282.75 Q161.4844,282.75 160.5459,282.2869 Q159.7903,281.9213 159.2541,281.1291 Q158.73,280.3369 158.73,279.3984 L158.73,278.5453 Q158.73,277.5703 159.1931,276.7172 Q159.6684,275.8641 160.485,275.4131 Q161.3138,274.95 162.24,274.95 Q162.8006,274.95 163.2881,275.145 Q163.7756,275.34 164.19,275.73 Z " fill="#000000"/><text fill="#000000" font-family="sans-serif" font-size="9.36" lengthAdjust="spacing" textLength="145.08" x="173.55" y="282.2899">ExternalModuleNhsReportAdapter</text><line style="stroke:#A80036;stroke-width:1.17;" x1="151.71" x2="320.19" y1="290.94" y2="290.94"/><line style="stroke:#A80036;stroke-width:1.17;" x1="151.71" x2="320.19" y1="297.18" y2="297.18"/><text fill="#000000" font-family="sans-serif" font-size="8.58" lengthAdjust="spacing" textLength="99.84" x="155.61" y="309.2068">+sendReport(String string)</text><text fill="#000000" font-family="sans-serif" font-size="8.58" lengthAdjust="spacing" textLength="72.54" x="155.61" y="319.9988">+getDateAndTime()</text><!--MD5=[fde5bf5e32ebd91aaa37566c2946746b]
class Report2NHS--><rect codeLine="52" fill="#FEFECE" filter="url(#f1ax51qzz6jip4)" height="48.232" id="Report2NHS" style="stroke:#A80036;stroke-width:1.17;" width="136.5" x="167.7" y="377.52"/><ellipse cx="205.335" cy="390" fill="#ADD1B2" rx="8.58" ry="8.58" style="stroke:#A80036;stroke-width:0.78;"/><path d="M206.895,387.27 Q207.0534,386.88 207.2363,386.685 Q207.4191,386.49 207.6263,386.49 Q207.9919,386.49 208.2234,386.7094 Q208.455,386.9288 208.455,387.4406 L208.455,388.6594 Q208.455,389.1713 208.2356,389.3906 Q208.0163,389.61 207.675,389.61 Q207.3703,389.61 207.1753,389.4759 Q206.9803,389.3419 206.895,388.9884 Q206.8584,388.7447 206.7244,388.6106 Q206.4806,388.3547 206.0419,388.2084 Q205.6031,388.05 205.1644,388.05 Q204.6159,388.05 204.1528,388.2694 Q203.7019,388.4888 203.3484,388.9763 Q202.995,389.4638 202.995,390.1341 L202.995,390.8531 Q202.995,391.6575 203.6531,392.1938 Q204.3113,392.73 205.4813,392.73 Q206.1759,392.73 206.6634,392.5716 Q206.9438,392.4863 207.2606,392.2059 Q207.4678,392.0475 207.5775,391.9988 Q207.6872,391.95 207.8213,391.95 Q208.0772,391.95 208.26,392.1572 Q208.455,392.3522 208.455,392.6325 Q208.455,392.9006 208.1869,393.2175 Q207.7969,393.6806 207.1753,393.9366 Q206.3588,394.29 205.3594,394.29 Q204.1894,394.29 203.2509,393.8269 Q202.4953,393.4613 201.9591,392.6691 Q201.435,391.8769 201.435,390.9384 L201.435,390.0853 Q201.435,389.1103 201.8981,388.2572 Q202.3734,387.4041 203.19,386.9531 Q204.0188,386.49 204.945,386.49 Q205.5056,386.49 205.9931,386.685 Q206.4806,386.88 206.895,387.27 Z " fill="#000000"/><text fill="#000000" font-family="sans-serif" font-size="9.36" lengthAdjust="spacing" textLength="54.6" x="221.325" y="393.8299">Report2NHS</text><line style="stroke:#A80036;stroke-width:1.17;" x1="168.48" x2="303.42" y1="402.48" y2="402.48"/><line style="stroke:#A80036;stroke-width:1.17;" x1="168.48" x2="303.42" y1="408.72" y2="408.72"/><text fill="#000000" font-family="sans-serif" font-size="8.58" lengthAdjust="spacing" textLength="127.14" x="172.38" y="420.7468">+writeUsingFileWriter(String data)</text><!--MD5=[c793a4a12f294aff8010f818fa48e4db]
link CreateNhsReportController to ExternalModuleNhsReport--><path codeLine="56" d="M235.95,107.8428 C235.95,122.109 235.95,137.2644 235.95,150.2202 " fill="none" id="CreateNhsReportController-to-ExternalModuleNhsReport" style="stroke:#A80036;stroke-width:0.78;stroke-dasharray:7.0,7.0;"/><polygon fill="#A80036" points="235.95,154.167,239.07,147.147,235.95,150.267,232.83,147.147,235.95,154.167" style="stroke:#A80036;stroke-width:0.78;"/><!--MD5=[bf01883237672a57abffe5b8df705ffb]
link CreateNhsReportUI to CreateNhsReportController--><path codeLine="57" d="M115.635,56.55 C123.3102,56.55 130.9776,56.55 138.645,56.55 " fill="none" id="CreateNhsReportUI-to-CreateNhsReportController" style="stroke:#A80036;stroke-width:0.78;stroke-dasharray:7.0,7.0;"/><polygon fill="#A80036" points="142.662,56.55,135.642,53.43,138.762,56.55,135.642,59.67,142.662,56.55" style="stroke:#A80036;stroke-width:0.78;"/><!--MD5=[58e98d6077e17a28d81f499a370b687d]
link CreateNhsReportController to Company--><path codeLine="58" d="M329.4486,56.55 C337.0536,56.55 344.6508,56.55 352.2558,56.55 " fill="none" id="CreateNhsReportController-to-Company" style="stroke:#A80036;stroke-width:0.78;stroke-dasharray:7.0,7.0;"/><polygon fill="#A80036" points="356.2338,56.55,349.2138,53.43,352.3338,56.55,349.2138,59.67,356.2338,56.55" style="stroke:#A80036;stroke-width:0.78;"/><!--MD5=[1d550e36a90861854eebfeae3bacd2a5]
link Company to WriteReport--><path codeLine="59" d="M617.3466,86.229 C633.5472,105.6042 654.888,131.1336 671.619,151.1562 " fill="none" id="Company-to-WriteReport" style="stroke:#A80036;stroke-width:0.78;"/><polygon fill="#A80036" points="674.2632,154.3152,672.1389,146.9326,671.7555,151.3283,667.3599,150.9449,674.2632,154.3152" style="stroke:#A80036;stroke-width:0.78;"/><!--MD5=[7f6cf7f175eae0af66201860de5de971]
link Company to TestStore--><path codeLine="60" d="M561.2958,86.3772 C544.167,104.1534 524.667,128.4348 515.19,154.44 C503.256,187.1922 503.6772,227.1516 506.376,256.0506 " fill="none" id="Company-to-TestStore" style="stroke:#A80036;stroke-width:0.78;stroke-dasharray:7.0,7.0;"/><polygon fill="#A80036" points="506.7894,260.2314,509.1912,252.9344,506.3991,256.351,502.9826,253.5589,506.7894,260.2314" style="stroke:#A80036;stroke-width:0.78;"/><!--MD5=[cae4c9ddc5f572649c51d00bf2c1fad0]
link WriteReport to TestStore--><path codeLine="61" d="M649.5138,213.759 C626.379,227.4012 598.5096,243.8436 573.9318,258.3438 " fill="none" id="WriteReport-to-TestStore" style="stroke:#A80036;stroke-width:0.78;stroke-dasharray:7.0,7.0;"/><polygon fill="#A80036" points="570.3282,260.4654,577.9588,259.5776,573.6851,258.4802,574.7826,254.2065,570.3282,260.4654" style="stroke:#A80036;stroke-width:0.78;"/><!--MD5=[bc2c7d55cffe9294a45c49b39bc62740]
reverse link ExternalModuleNhsReport to ExternalModuleNhsReportAdapter--><path codeLine="62" d="M235.95,229.476 C235.95,241.7064 235.95,254.6466 235.95,265.7538 " fill="none" id="ExternalModuleNhsReport-backto-ExternalModuleNhsReportAdapter" style="stroke:#A80036;stroke-width:0.78;stroke-dasharray:7.0,7.0;"/><polygon fill="none" points="230.49,229.359,235.95,213.759,241.41,229.359,230.49,229.359" style="stroke:#A80036;stroke-width:0.78;"/><!--MD5=[a8efa147a8cc977fd336ee3041b61649]
link ExternalModuleNhsReportAdapter to Report2NHS--><path codeLine="63" d="M235.95,325.5174 C235.95,340.4232 235.95,358.4802 235.95,373.1832 " fill="none" id="ExternalModuleNhsReportAdapter-to-Report2NHS" style="stroke:#A80036;stroke-width:0.78;"/><polygon fill="#A80036" points="235.95,377.2392,239.07,370.2192,235.95,373.3392,232.83,370.2192,235.95,377.2392" style="stroke:#A80036;stroke-width:0.78;"/><!--MD5=[d9a9e5e677957b70dcfd0ec8d2ccd9b2]
link WriteReport to LinearRegression--><path codeLine="64" d="M691.9302,213.759 C688.1628,230.373 683.4516,251.121 679.7388,267.4776 " fill="none" id="WriteReport-to-LinearRegression" style="stroke:#A80036;stroke-width:0.78;stroke-dasharray:7.0,7.0;"/><polygon fill="#A80036" points="678.8652,271.3152,683.4681,265.1647,679.7324,267.5128,677.3843,263.7772,678.8652,271.3152" style="stroke:#A80036;stroke-width:0.78;"/><!--MD5=[6b376ca7614b88316936f98332ad4b74]
link WriteReport to MultiLinearRegression--><path codeLine="65" d="M730.4622,213.759 C749.229,230.724 772.7772,252.0024 791.0292,268.5072 " fill="none" id="WriteReport-to-MultiLinearRegression" style="stroke:#A80036;stroke-width:0.78;stroke-dasharray:7.0,7.0;"/><polygon fill="#A80036" points="794.1492,271.3152,791.0333,264.2934,791.2559,268.7001,786.8492,268.9227,794.1492,271.3152" style="stroke:#A80036;stroke-width:0.78;"/><!--MD5=[f1f29a0b5b22d0754d53b98a593eea5b]
@startuml

skinparam classAttributeIconSize 0

class CreateNhsReportUI {
+run()

}

class CreateNhsReportController {
+setHistoricalPoints(historicalPoints)
+setCurrentDay(currentDay)
+setInitialDay(initialDay)
+setFinalDay(finalDay)
+setIndependentVariable(independentVariable)
+makeRegression()
}

class TestStore{
+getPositiveCasesPerDay(day)
+getNumberOfTestsPerformed(day)
+getAverageAgeClient(day)
}

class LinearRegression {
+LinearRegression(x, y)
}

class MultiLinearRegression {
+MultiLinearRegression(x1, x2, y)
}

class Company {
+makeMultiLinearRegressionReport(historicalPoints, dateCurrentDay, dateInitalDay, dateDayFinal)
+makeSimpleLinearRegressionReport(historicalPoints, dateCurrentDay, dateInitalDay, dateCurrentDayFinal, independentVar)
}

class WriteReport {
+WriteReport(testStore, historicalPoints, currentDay, startRegression, finishRegression)
+getReport()
}

interface ExternalModuleNhsReport {
+void sendReport(String string)
+void getDateAndTime()
}

class ExternalModuleNhsReportAdapter {
+sendReport(String string)
+getDateAndTime()
}

class Report2NHS {
+writeUsingFileWriter(String data)
}

CreateNhsReportController ..> ExternalModuleNhsReport
CreateNhsReportUI .> CreateNhsReportController
CreateNhsReportController .> Company
Company - -> WriteReport
Company ..> TestStore
WriteReport ..> TestStore
ExternalModuleNhsReport <|.. ExternalModuleNhsReportAdapter
ExternalModuleNhsReportAdapter - -> Report2NHS
WriteReport ..> LinearRegression
WriteReport ..> MultiLinearRegression

@enduml

PlantUML version 1.2021.00(Sun Jan 10 10:25:05 GMT 2021)
(GPL source distribution)
Java Runtime: OpenJDK Runtime Environment
JVM: OpenJDK 64-Bit Server VM
Default Encoding: Cp1252
Language: pt
Country: PT
--></g></svg>