<?xml version="1.0" encoding="UTF-8" standalone="no"?><svg xmlns="http://www.w3.org/2000/svg" xmlns:xlink="http://www.w3.org/1999/xlink" contentScriptType="application/ecmascript" contentStyleType="text/css" height="383.24px" preserveAspectRatio="none" style="width:248px;height:383px;" version="1.1" viewBox="0 0 248 383" width="248.04px" zoomAndPan="magnify"><defs><filter height="300%" id="fj5p5sfe33pik" width="300%" x="-1" y="-1"><feGaussianBlur result="blurOut" stdDeviation="1.04"/><feColorMatrix in="blurOut" result="blurOut2" type="matrix" values="0 0 0 0 0 0 0 0 0 0 0 0 0 0 0 0 0 0 .4 0"/><feOffset dx="2.08" dy="2.08" in="blurOut2" result="blurOut3"/><feBlend in="SourceGraphic" in2="blurOut3" mode="normal"/></filter></defs><g><!--MD5=[02e4b9b7573f1156f41e60aa5b4e25a4]
class Company--><rect codeLine="4" fill="#FEFECE" filter="url(#fj5p5sfe33pik)" height="32.1547" id="Company" style="stroke:#A80036;stroke-width:0.78;" width="44.2" x="13" y="69.16"/><ellipse cx="20.8" cy="77.48" fill="#ADD1B2" rx="5.72" ry="5.72" style="stroke:#A80036;stroke-width:0.52;"/><path d="M21.84,75.66 Q21.9456,75.4 22.0675,75.27 Q22.1894,75.14 22.3275,75.14 Q22.5713,75.14 22.7256,75.2863 Q22.88,75.4325 22.88,75.7738 L22.88,76.5863 Q22.88,76.9275 22.7338,77.0738 Q22.5875,77.22 22.36,77.22 Q22.1569,77.22 22.0269,77.1306 Q21.8969,77.0413 21.84,76.8056 Q21.8156,76.6431 21.7263,76.5538 Q21.5638,76.3831 21.2713,76.2856 Q20.9788,76.18 20.6863,76.18 Q20.3206,76.18 20.0119,76.3263 Q19.7113,76.4725 19.4756,76.7975 Q19.24,77.1225 19.24,77.5694 L19.24,78.0488 Q19.24,78.585 19.6788,78.9425 Q20.1175,79.3 20.8975,79.3 Q21.3606,79.3 21.6856,79.1944 Q21.8725,79.1375 22.0838,78.9506 Q22.2219,78.845 22.295,78.8125 Q22.3681,78.78 22.4575,78.78 Q22.6281,78.78 22.75,78.9181 Q22.88,79.0481 22.88,79.235 Q22.88,79.4138 22.7013,79.625 Q22.4413,79.9338 22.0269,80.1044 Q21.4825,80.34 20.8163,80.34 Q20.0363,80.34 19.4106,80.0313 Q18.9069,79.7875 18.5494,79.2594 Q18.2,78.7313 18.2,78.1056 L18.2,77.5369 Q18.2,76.8869 18.5088,76.3181 Q18.8256,75.7494 19.37,75.4488 Q19.9225,75.14 20.54,75.14 Q20.9138,75.14 21.2388,75.27 Q21.5638,75.4 21.84,75.66 Z " fill="#000000"/><text fill="#000000" font-family="sans-serif" font-size="6.24" lengthAdjust="spacing" textLength="27.56" x="28.08" y="80.0333">Company</text><line style="stroke:#A80036;stroke-width:0.78;" x1="13.52" x2="56.68" y1="85.8" y2="85.8"/><text fill="#000000" font-family="sans-serif" font-size="5.72" lengthAdjust="spacing" textLength="30.68" x="16.12" y="93.8179">-designation</text><line style="stroke:#A80036;stroke-width:0.78;" x1="13.52" x2="56.68" y1="97.1547" y2="97.1547"/><!--MD5=[df38be88ccee13e832d6fafd6288a4ca]
class Test--><rect codeLine="7" fill="#FEFECE" filter="url(#fj5p5sfe33pik)" height="104.1016" id="Test" style="stroke:#A80036;stroke-width:0.78;" width="43.68" x="13.26" y="141.96"/><ellipse cx="27.612" cy="150.28" fill="#ADD1B2" rx="5.72" ry="5.72" style="stroke:#A80036;stroke-width:0.52;"/><path d="M28.652,148.46 Q28.7576,148.2 28.8795,148.07 Q29.0014,147.94 29.1395,147.94 Q29.3833,147.94 29.5376,148.0863 Q29.692,148.2325 29.692,148.5738 L29.692,149.3863 Q29.692,149.7275 29.5458,149.8738 Q29.3995,150.02 29.172,150.02 Q28.9689,150.02 28.8389,149.9306 Q28.7089,149.8413 28.652,149.6056 Q28.6276,149.4431 28.5383,149.3538 Q28.3758,149.1831 28.0833,149.0856 Q27.7908,148.98 27.4983,148.98 Q27.1326,148.98 26.8239,149.1263 Q26.5233,149.2725 26.2876,149.5975 Q26.052,149.9225 26.052,150.3694 L26.052,150.8488 Q26.052,151.385 26.4908,151.7425 Q26.9295,152.1 27.7095,152.1 Q28.1726,152.1 28.4976,151.9944 Q28.6845,151.9375 28.8958,151.7506 Q29.0339,151.645 29.107,151.6125 Q29.1801,151.58 29.2695,151.58 Q29.4401,151.58 29.562,151.7181 Q29.692,151.8481 29.692,152.035 Q29.692,152.2138 29.5133,152.425 Q29.2533,152.7338 28.8389,152.9044 Q28.2945,153.14 27.6283,153.14 Q26.8483,153.14 26.2226,152.8313 Q25.7189,152.5875 25.3614,152.0594 Q25.012,151.5313 25.012,150.9056 L25.012,150.3369 Q25.012,149.6869 25.3208,149.1181 Q25.6376,148.5494 26.182,148.2488 Q26.7345,147.94 27.352,147.94 Q27.7258,147.94 28.0508,148.07 Q28.3758,148.2 28.652,148.46 Z " fill="#000000"/><text fill="#000000" font-family="sans-serif" font-size="6.24" lengthAdjust="spacing" textLength="12.48" x="36.348" y="152.8333">Test</text><line style="stroke:#A80036;stroke-width:0.78;" x1="13.78" x2="56.42" y1="158.6" y2="158.6"/><text fill="#000000" font-family="sans-serif" font-size="5.72" lengthAdjust="spacing" textLength="24.44" x="16.38" y="166.6179">-testCode</text><text fill="#000000" font-family="sans-serif" font-size="5.72" lengthAdjust="spacing" textLength="24.44" x="16.38" y="173.8125">-nhsCode</text><text fill="#000000" font-family="sans-serif" font-size="5.72" lengthAdjust="spacing" textLength="30.68" x="16.38" y="181.0072">-designation</text><text fill="#000000" font-family="sans-serif" font-size="5.72" lengthAdjust="spacing" textLength="33.8" x="16.38" y="188.2019">-dateRegister</text><text fill="#000000" font-family="sans-serif" font-size="5.72" lengthAdjust="spacing" textLength="32.76" x="16.38" y="195.3966">-timeRegister</text><text fill="#000000" font-family="sans-serif" font-size="5.72" lengthAdjust="spacing" textLength="34.84" x="16.38" y="202.5913">-dateAnalysis</text><text fill="#000000" font-family="sans-serif" font-size="5.72" lengthAdjust="spacing" textLength="33.8" x="16.38" y="209.786">-timeAnalysis</text><text fill="#000000" font-family="sans-serif" font-size="5.72" lengthAdjust="spacing" textLength="29.64" x="16.38" y="216.9807">-dateReport</text><text fill="#000000" font-family="sans-serif" font-size="5.72" lengthAdjust="spacing" textLength="28.6" x="16.38" y="224.1754">-timeReport</text><text fill="#000000" font-family="sans-serif" font-size="5.72" lengthAdjust="spacing" textLength="37.44" x="16.38" y="231.37">-dateValidation</text><text fill="#000000" font-family="sans-serif" font-size="5.72" lengthAdjust="spacing" textLength="36.4" x="16.38" y="238.5647">-timeValidation</text><line style="stroke:#A80036;stroke-width:0.78;" x1="13.78" x2="56.42" y1="241.9016" y2="241.9016"/><!--MD5=[ed6624c6556d5e7b1bd23032162d20b7]
class Client--><rect codeLine="20" fill="#FEFECE" filter="url(#fj5p5sfe33pik)" height="89.7122" id="Client" style="stroke:#A80036;stroke-width:0.78;" width="43.16" x="13.52" y="286.52"/><ellipse cx="25.766" cy="294.84" fill="#ADD1B2" rx="5.72" ry="5.72" style="stroke:#A80036;stroke-width:0.52;"/><path d="M26.806,293.02 Q26.9116,292.76 27.0335,292.63 Q27.1554,292.5 27.2935,292.5 Q27.5373,292.5 27.6916,292.6463 Q27.846,292.7925 27.846,293.1338 L27.846,293.9463 Q27.846,294.2875 27.6997,294.4338 Q27.5535,294.58 27.326,294.58 Q27.1229,294.58 26.9929,294.4906 Q26.8629,294.4013 26.806,294.1656 Q26.7816,294.0031 26.6922,293.9138 Q26.5298,293.7431 26.2373,293.6456 Q25.9448,293.54 25.6523,293.54 Q25.2866,293.54 24.9779,293.6863 Q24.6773,293.8325 24.4416,294.1575 Q24.206,294.4825 24.206,294.9294 L24.206,295.4088 Q24.206,295.945 24.6448,296.3025 Q25.0835,296.66 25.8635,296.66 Q26.3266,296.66 26.6516,296.5544 Q26.8385,296.4975 27.0498,296.3106 Q27.1879,296.205 27.261,296.1725 Q27.3341,296.14 27.4235,296.14 Q27.5941,296.14 27.716,296.2781 Q27.846,296.4081 27.846,296.595 Q27.846,296.7738 27.6673,296.985 Q27.4073,297.2938 26.9929,297.4644 Q26.4485,297.7 25.7822,297.7 Q25.0023,297.7 24.3766,297.3913 Q23.8729,297.1475 23.5154,296.6194 Q23.166,296.0913 23.166,295.4656 L23.166,294.8969 Q23.166,294.2469 23.4748,293.6781 Q23.7916,293.1094 24.336,292.8088 Q24.8885,292.5 25.506,292.5 Q25.8797,292.5 26.2048,292.63 Q26.5298,292.76 26.806,293.02 Z " fill="#000000"/><text fill="#000000" font-family="sans-serif" font-size="6.24" lengthAdjust="spacing" textLength="16.64" x="34.034" y="297.3933">Client</text><line style="stroke:#A80036;stroke-width:0.78;" x1="14.04" x2="56.16" y1="303.16" y2="303.16"/><text fill="#000000" font-family="sans-serif" font-size="5.72" lengthAdjust="spacing" textLength="15.6" x="16.64" y="311.1779">-name</text><text fill="#000000" font-family="sans-serif" font-size="5.72" lengthAdjust="spacing" textLength="32.76" x="16.64" y="318.3725">-cardNumber</text><text fill="#000000" font-family="sans-serif" font-size="5.72" lengthAdjust="spacing" textLength="24.44" x="16.64" y="325.5672">-birthDate</text><text fill="#000000" font-family="sans-serif" font-size="5.72" lengthAdjust="spacing" textLength="11.44" x="16.64" y="332.7619">-sex</text><text fill="#000000" font-family="sans-serif" font-size="5.72" lengthAdjust="spacing" textLength="16.12" x="16.64" y="339.9566">-nhsID</text><text fill="#000000" font-family="sans-serif" font-size="5.72" lengthAdjust="spacing" textLength="9.36" x="16.64" y="347.1513">-TIF</text><text fill="#000000" font-family="sans-serif" font-size="5.72" lengthAdjust="spacing" textLength="36.92" x="16.64" y="354.346">-phoneNumber</text><text fill="#000000" font-family="sans-serif" font-size="5.72" lengthAdjust="spacing" textLength="14.56" x="16.64" y="361.5407">-email</text><text fill="#000000" font-family="sans-serif" font-size="5.72" lengthAdjust="spacing" textLength="28.08" x="16.64" y="368.7354">-password</text><line style="stroke:#A80036;stroke-width:0.78;" x1="14.04" x2="56.16" y1="372.0722" y2="372.0722"/><!--MD5=[f248ffeaa3c70a764b4e5f712065dec6]
class NHS API--><rect fill="#FEFECE" filter="url(#fj5p5sfe33pik)" height="24.96" id="NHS API" style="stroke:#A80036;stroke-width:0.78;" width="41.08" x="115.44" y="3.64"/><ellipse cx="123.24" cy="11.96" fill="#ADD1B2" rx="5.72" ry="5.72" style="stroke:#A80036;stroke-width:0.52;"/><path d="M124.28,10.14 Q124.3856,9.88 124.5075,9.75 Q124.6294,9.62 124.7675,9.62 Q125.0113,9.62 125.1656,9.7663 Q125.32,9.9125 125.32,10.2538 L125.32,11.0663 Q125.32,11.4075 125.1738,11.5538 Q125.0275,11.7 124.8,11.7 Q124.5969,11.7 124.4669,11.6106 Q124.3369,11.5213 124.28,11.2856 Q124.2556,11.1231 124.1663,11.0338 Q124.0038,10.8631 123.7113,10.7656 Q123.4188,10.66 123.1263,10.66 Q122.7606,10.66 122.4519,10.8063 Q122.1513,10.9525 121.9156,11.2775 Q121.68,11.6025 121.68,12.0494 L121.68,12.5288 Q121.68,13.065 122.1188,13.4225 Q122.5575,13.78 123.3375,13.78 Q123.8006,13.78 124.1256,13.6744 Q124.3125,13.6175 124.5238,13.4306 Q124.6619,13.325 124.735,13.2925 Q124.8081,13.26 124.8975,13.26 Q125.0681,13.26 125.19,13.3981 Q125.32,13.5281 125.32,13.715 Q125.32,13.8938 125.1413,14.105 Q124.8813,14.4138 124.4669,14.5844 Q123.9225,14.82 123.2563,14.82 Q122.4763,14.82 121.8506,14.5113 Q121.3469,14.2675 120.9894,13.7394 Q120.64,13.2113 120.64,12.5856 L120.64,12.0169 Q120.64,11.3669 120.9488,10.7981 Q121.2656,10.2294 121.81,9.9288 Q122.3625,9.62 122.98,9.62 Q123.3538,9.62 123.6788,9.75 Q124.0038,9.88 124.28,10.14 Z " fill="#000000"/><text fill="#000000" font-family="sans-serif" font-size="6.24" lengthAdjust="spacing" textLength="24.44" x="130.52" y="14.5133">NHS API</text><line style="stroke:#A80036;stroke-width:0.78;" x1="115.96" x2="156" y1="20.28" y2="20.28"/><line style="stroke:#A80036;stroke-width:0.78;" x1="115.96" x2="156" y1="24.44" y2="24.44"/><!--MD5=[62c68eb975fe52837817ee57a1a6d372]
class NHSReportType--><rect fill="#FEFECE" filter="url(#fj5p5sfe33pik)" height="24.96" id="NHSReportType" style="stroke:#A80036;stroke-width:0.78;" width="62.92" x="3.64" y="3.64"/><ellipse cx="11.44" cy="11.96" fill="#ADD1B2" rx="5.72" ry="5.72" style="stroke:#A80036;stroke-width:0.52;"/><path d="M12.48,10.14 Q12.5856,9.88 12.7075,9.75 Q12.8294,9.62 12.9675,9.62 Q13.2113,9.62 13.3656,9.7663 Q13.52,9.9125 13.52,10.2538 L13.52,11.0663 Q13.52,11.4075 13.3738,11.5538 Q13.2275,11.7 13,11.7 Q12.7969,11.7 12.6669,11.6106 Q12.5369,11.5213 12.48,11.2856 Q12.4556,11.1231 12.3663,11.0338 Q12.2038,10.8631 11.9113,10.7656 Q11.6188,10.66 11.3263,10.66 Q10.9606,10.66 10.6519,10.8063 Q10.3513,10.9525 10.1156,11.2775 Q9.88,11.6025 9.88,12.0494 L9.88,12.5288 Q9.88,13.065 10.3188,13.4225 Q10.7575,13.78 11.5375,13.78 Q12.0006,13.78 12.3256,13.6744 Q12.5125,13.6175 12.7238,13.4306 Q12.8619,13.325 12.935,13.2925 Q13.0081,13.26 13.0975,13.26 Q13.2681,13.26 13.39,13.3981 Q13.52,13.5281 13.52,13.715 Q13.52,13.8938 13.3413,14.105 Q13.0813,14.4138 12.6669,14.5844 Q12.1225,14.82 11.4563,14.82 Q10.6763,14.82 10.0506,14.5113 Q9.5469,14.2675 9.1894,13.7394 Q8.84,13.2113 8.84,12.5856 L8.84,12.0169 Q8.84,11.3669 9.1488,10.7981 Q9.4656,10.2294 10.01,9.9288 Q10.5625,9.62 11.18,9.62 Q11.5538,9.62 11.8788,9.75 Q12.2038,9.88 12.48,10.14 Z " fill="#000000"/><text fill="#000000" font-family="sans-serif" font-size="6.24" lengthAdjust="spacing" textLength="46.28" x="18.72" y="14.5133">NHSReportType</text><line style="stroke:#A80036;stroke-width:0.78;" x1="4.16" x2="66.04" y1="20.28" y2="20.28"/><line style="stroke:#A80036;stroke-width:0.78;" x1="4.16" x2="66.04" y1="24.44" y2="24.44"/><!--MD5=[0a105ea8d9af02dadec02d3e239f1d60]
class NHS--><rect fill="#FEFECE" filter="url(#fj5p5sfe33pik)" height="24.96" id="NHS" style="stroke:#A80036;stroke-width:0.78;" width="30.16" x="210.86" y="3.64"/><ellipse cx="218.66" cy="11.96" fill="#ADD1B2" rx="5.72" ry="5.72" style="stroke:#A80036;stroke-width:0.52;"/><path d="M219.7,10.14 Q219.8056,9.88 219.9275,9.75 Q220.0494,9.62 220.1875,9.62 Q220.4313,9.62 220.5856,9.7663 Q220.74,9.9125 220.74,10.2538 L220.74,11.0663 Q220.74,11.4075 220.5938,11.5538 Q220.4475,11.7 220.22,11.7 Q220.0169,11.7 219.8869,11.6106 Q219.7569,11.5213 219.7,11.2856 Q219.6756,11.1231 219.5863,11.0338 Q219.4238,10.8631 219.1313,10.7656 Q218.8388,10.66 218.5463,10.66 Q218.1806,10.66 217.8719,10.8063 Q217.5713,10.9525 217.3356,11.2775 Q217.1,11.6025 217.1,12.0494 L217.1,12.5288 Q217.1,13.065 217.5388,13.4225 Q217.9775,13.78 218.7575,13.78 Q219.2206,13.78 219.5456,13.6744 Q219.7325,13.6175 219.9438,13.4306 Q220.0819,13.325 220.155,13.2925 Q220.2281,13.26 220.3175,13.26 Q220.4881,13.26 220.61,13.3981 Q220.74,13.5281 220.74,13.715 Q220.74,13.8938 220.5613,14.105 Q220.3013,14.4138 219.8869,14.5844 Q219.3425,14.82 218.6763,14.82 Q217.8963,14.82 217.2706,14.5113 Q216.7669,14.2675 216.4094,13.7394 Q216.06,13.2113 216.06,12.5856 L216.06,12.0169 Q216.06,11.3669 216.3688,10.7981 Q216.6856,10.2294 217.23,9.9288 Q217.7825,9.62 218.4,9.62 Q218.7738,9.62 219.0988,9.75 Q219.4238,9.88 219.7,10.14 Z " fill="#000000"/><text fill="#000000" font-family="sans-serif" font-size="6.24" lengthAdjust="spacing" textLength="13.52" x="225.94" y="14.5133">NHS</text><line style="stroke:#A80036;stroke-width:0.78;" x1="211.38" x2="240.5" y1="20.28" y2="20.28"/><line style="stroke:#A80036;stroke-width:0.78;" x1="211.38" x2="240.5" y1="24.44" y2="24.44"/><!--MD5=[10a54d075e6d624cbda38b457ad847eb]
link NHSReportType to NHS API--><path codeLine="32" d="M66.6016,16.12 C82.5032,16.12 101.3376,16.12 115.3672,16.12 " fill="none" id="NHSReportType-NHS API" style="stroke:#A80036;stroke-width:0.52;"/><polygon fill="#000000" points="80.86,9.9714,76.1566,8.4432,76.1566,11.4996,80.86,9.9714" style="stroke:#000000;stroke-width:0.52;"/><text fill="#000000" font-family="sans-serif" font-size="6.76" lengthAdjust="spacing" textLength="22.88" x="82.94" y="12.7375">sent via</text><text fill="#000000" font-family="sans-serif" font-size="6.76" lengthAdjust="spacing" textLength="2.6" x="70.8043" y="14.2962">*</text><text fill="#000000" font-family="sans-serif" font-size="6.76" lengthAdjust="spacing" textLength="3.64" x="107.5912" y="14.0673">1</text><!--MD5=[1675dbda762c12f232b018a6db7826c4]
link NHS API to NHS--><path codeLine="33" d="M156.6188,16.12 C173.1132,16.12 195.858,16.12 210.73,16.12 " fill="none" id="NHS API-NHS" style="stroke:#A80036;stroke-width:0.52;"/><polygon fill="#000000" points="170.69,9.9714,165.9866,8.4432,165.9866,11.4996,170.69,9.9714" style="stroke:#000000;stroke-width:0.52;"/><text fill="#000000" font-family="sans-serif" font-size="6.76" lengthAdjust="spacing" textLength="28.6" x="172.77" y="12.7375">owned by</text><!--MD5=[265f99a64756f214152cd4bef1189750]
link NHSReportType to Company--><path codeLine="34" d="M35.1,28.6624 C35.1,39.8892 35.1,56.7216 35.1,69.0196 " fill="none" id="NHSReportType-Company" style="stroke:#A80036;stroke-width:0.52;"/><polygon fill="#000000" points="37.7,46.3714,36.1718,51.0749,39.2282,51.0749,37.7,46.3714" style="stroke:#000000;stroke-width:0.52;"/><text fill="#000000" font-family="sans-serif" font-size="6.76" lengthAdjust="spacing" textLength="29.64" x="42.38" y="51.7375">generates</text><text fill="#000000" font-family="sans-serif" font-size="6.76" lengthAdjust="spacing" textLength="2.6" x="32.1831" y="39.7734">*</text><text fill="#000000" font-family="sans-serif" font-size="6.76" lengthAdjust="spacing" textLength="3.64" x="31.0846" y="63.533">1</text><!--MD5=[7e4bc624457760b649895ff2ead938fa]
link Company to Test--><path codeLine="35" d="M35.1,101.452 C35.1,112.1796 35.1,127.0776 35.1,141.7624 " fill="none" id="Company-Test" style="stroke:#A80036;stroke-width:0.52;"/><polygon fill="#000000" points="37.7,124.3714,39.2282,119.668,36.1718,119.668,37.7,124.3714" style="stroke:#000000;stroke-width:0.52;"/><text fill="#000000" font-family="sans-serif" font-size="6.76" lengthAdjust="spacing" textLength="26" x="42.38" y="124.5375">performs</text><text fill="#000000" font-family="sans-serif" font-size="6.76" lengthAdjust="spacing" textLength="3.64" x="31.1017" y="112.4987">1</text><text fill="#000000" font-family="sans-serif" font-size="6.76" lengthAdjust="spacing" textLength="2.6" x="32.4045" y="136.3241">*</text><!--MD5=[3994f36c72829dbcddd1cf7021dddf61]
link Test to Client--><path codeLine="36" d="M35.1,246.0848 C35.1,259.3708 35.1,273.5564 35.1,286.4524 " fill="none" id="Test-Client" style="stroke:#A80036;stroke-width:0.52;"/><polygon fill="#000000" points="37.7,268.9314,39.2282,264.228,36.1718,264.228,37.7,268.9314" style="stroke:#000000;stroke-width:0.52;"/><text fill="#000000" font-family="sans-serif" font-size="6.76" lengthAdjust="spacing" textLength="39" x="42.38" y="269.0975">requested by</text><text fill="#000000" font-family="sans-serif" font-size="6.76" lengthAdjust="spacing" textLength="2.6" x="32.4045" y="257.2387">*</text><text fill="#000000" font-family="sans-serif" font-size="6.76" lengthAdjust="spacing" textLength="3.64" x="31.3036" y="280.9396">1</text><!--MD5=[103bc4126a2f68f180f5bc14e4d1a907]
@startuml

skinparam classAttributeIconSize 0

class Company {
-designation
}
class Test {
-testCode
-nhsCode
-designation
-dateRegister
-timeRegister
-dateAnalysis
-timeAnalysis
-dateReport
-timeReport
-dateValidation
-timeValidation
}
class Client {
-name
-cardNumber
-birthDate
-sex
-nhsID
-TIF
-phoneNumber
-email
-password
}

"NHS API" "1"-left-"*" NHSReportType : sent via <
"NHS API" -right- NHS : owned by >
NHSReportType "*"- -"1" Company : generates <
Test "*"-up-"1" Company : performs <
Test "*"- -"1" Client : requested by >

@enduml

PlantUML version 1.2021.00(Sun Jan 10 10:25:05 GMT 2021)
(GPL source distribution)
Java Runtime: OpenJDK Runtime Environment
JVM: OpenJDK 64-Bit Server VM
Default Encoding: Cp1252
Language: pt
Country: PT
--></g></svg>