<?xml version="1.0" encoding="UTF-8" standalone="no"?><svg xmlns="http://www.w3.org/2000/svg" xmlns:xlink="http://www.w3.org/1999/xlink" contentScriptType="application/ecmascript" contentStyleType="text/css" height="468px" preserveAspectRatio="none" style="width:1162px;height:468px;" version="1.1" viewBox="0 0 1162 468" width="1162.98px" zoomAndPan="magnify"><defs><filter height="300%" id="f22oywa9ypm2d" width="300%" x="-1" y="-1"><feGaussianBlur result="blurOut" stdDeviation="1.56"/><feColorMatrix in="blurOut" result="blurOut2" type="matrix" values="0 0 0 0 0 0 0 0 0 0 0 0 0 0 0 0 0 0 .4 0"/><feOffset dx="3.12" dy="3.12" in="blurOut2" result="blurOut3"/><feBlend in="SourceGraphic" in2="blurOut3" mode="normal"/></filter></defs><g><!--MD5=[903c2ea6bfb585685e4a7fcf07bdd70e]
class CreateNhsReportUI--><rect codeLine="4" fill="#FEFECE" filter="url(#f22oywa9ypm2d)" height="48.232" id="CreateNhsReportUI" style="stroke:#A80036;stroke-width:1.17;" width="109.98" x="5.46" y="32.37"/><ellipse cx="17.16" cy="44.85" fill="#ADD1B2" rx="8.58" ry="8.58" style="stroke:#A80036;stroke-width:0.78;"/><path d="M18.72,42.12 Q18.8784,41.73 19.0613,41.535 Q19.2441,41.34 19.4513,41.34 Q19.8169,41.34 20.0484,41.5594 Q20.28,41.7788 20.28,42.2906 L20.28,43.5094 Q20.28,44.0213 20.0606,44.2406 Q19.8413,44.46 19.5,44.46 Q19.1953,44.46 19.0003,44.3259 Q18.8053,44.1919 18.72,43.8384 Q18.6834,43.5947 18.5494,43.4606 Q18.3056,43.2047 17.8669,43.0584 Q17.4281,42.9 16.9894,42.9 Q16.4409,42.9 15.9778,43.1194 Q15.5269,43.3388 15.1734,43.8263 Q14.82,44.3138 14.82,44.9841 L14.82,45.7031 Q14.82,46.5075 15.4781,47.0438 Q16.1363,47.58 17.3063,47.58 Q18.0009,47.58 18.4884,47.4216 Q18.7688,47.3363 19.0856,47.0559 Q19.2928,46.8975 19.4025,46.8488 Q19.5122,46.8 19.6463,46.8 Q19.9022,46.8 20.085,47.0072 Q20.28,47.2022 20.28,47.4825 Q20.28,47.7506 20.0119,48.0675 Q19.6219,48.5306 19.0003,48.7866 Q18.1838,49.14 17.1844,49.14 Q16.0144,49.14 15.0759,48.6769 Q14.3203,48.3113 13.7841,47.5191 Q13.26,46.7269 13.26,45.7884 L13.26,44.9353 Q13.26,43.9603 13.7231,43.1072 Q14.1984,42.2541 15.015,41.8031 Q15.8438,41.34 16.77,41.34 Q17.3306,41.34 17.8181,41.535 Q18.3056,41.73 18.72,42.12 Z " fill="#000000"/><text fill="#000000" font-family="sans-serif" font-size="9.36" lengthAdjust="spacing" textLength="85.02" x="28.08" y="48.6799">CreateNhsReportUI</text><line style="stroke:#A80036;stroke-width:1.17;" x1="6.24" x2="114.66" y1="57.33" y2="57.33"/><line style="stroke:#A80036;stroke-width:1.17;" x1="6.24" x2="114.66" y1="63.57" y2="63.57"/><text fill="#000000" font-family="sans-serif" font-size="8.58" lengthAdjust="spacing" textLength="23.4" x="10.14" y="75.5968">+run()</text><!--MD5=[11779a1c85551913f1fc615802b94a30]
class CreateNhsReportController--><rect codeLine="9" fill="#FEFECE" filter="url(#f22oywa9ypm2d)" height="102.1922" id="CreateNhsReportController" style="stroke:#A80036;stroke-width:1.17;" width="186.42" x="142.74" y="5.46"/><ellipse cx="174.096" cy="17.94" fill="#ADD1B2" rx="8.58" ry="8.58" style="stroke:#A80036;stroke-width:0.78;"/><path d="M175.656,15.21 Q175.8144,14.82 175.9973,14.625 Q176.1801,14.43 176.3873,14.43 Q176.7529,14.43 176.9844,14.6494 Q177.216,14.8688 177.216,15.3806 L177.216,16.5994 Q177.216,17.1113 176.9966,17.3306 Q176.7773,17.55 176.436,17.55 Q176.1313,17.55 175.9363,17.4159 Q175.7413,17.2819 175.656,16.9284 Q175.6194,16.6847 175.4854,16.5506 Q175.2416,16.2947 174.8029,16.1484 Q174.3641,15.99 173.9254,15.99 Q173.3769,15.99 172.9138,16.2094 Q172.4629,16.4288 172.1094,16.9163 Q171.756,17.4038 171.756,18.0741 L171.756,18.7931 Q171.756,19.5975 172.4141,20.1338 Q173.0723,20.67 174.2422,20.67 Q174.9369,20.67 175.4244,20.5116 Q175.7048,20.4263 176.0216,20.1459 Q176.2288,19.9875 176.3385,19.9388 Q176.4482,19.89 176.5823,19.89 Q176.8382,19.89 177.021,20.0972 Q177.216,20.2922 177.216,20.5725 Q177.216,20.8406 176.9479,21.1575 Q176.5579,21.6206 175.9363,21.8766 Q175.1198,22.23 174.1204,22.23 Q172.9504,22.23 172.0119,21.7669 Q171.2563,21.4013 170.7201,20.6091 Q170.196,19.8169 170.196,18.8784 L170.196,18.0253 Q170.196,17.0503 170.6591,16.1972 Q171.1344,15.3441 171.951,14.8931 Q172.7798,14.43 173.706,14.43 Q174.2666,14.43 174.7541,14.625 Q175.2416,14.82 175.656,15.21 Z " fill="#000000"/><text fill="#000000" font-family="sans-serif" font-size="9.36" lengthAdjust="spacing" textLength="117.78" x="189.384" y="21.7699">CreateNhsReportController</text><line style="stroke:#A80036;stroke-width:1.17;" x1="143.52" x2="328.38" y1="30.42" y2="30.42"/><line style="stroke:#A80036;stroke-width:1.17;" x1="143.52" x2="328.38" y1="36.66" y2="36.66"/><text fill="#000000" font-family="sans-serif" font-size="8.58" lengthAdjust="spacing" textLength="135.72" x="147.42" y="48.6868">+setHistoricalPoints(historicalPoints)</text><text fill="#000000" font-family="sans-serif" font-size="8.58" lengthAdjust="spacing" textLength="107.64" x="147.42" y="59.4788">+setCurrentDay(currentDay)</text><text fill="#000000" font-family="sans-serif" font-size="8.58" lengthAdjust="spacing" textLength="88.14" x="147.42" y="70.2708">+setInitialDay(initialDay)</text><text fill="#000000" font-family="sans-serif" font-size="8.58" lengthAdjust="spacing" textLength="85.02" x="147.42" y="81.0629">+setFinalDay(finalDay)</text><text fill="#000000" font-family="sans-serif" font-size="8.58" lengthAdjust="spacing" textLength="177.06" x="147.42" y="91.8549">+setIndependentVariable(independentVariable)</text><text fill="#000000" font-family="sans-serif" font-size="8.58" lengthAdjust="spacing" textLength="73.32" x="147.42" y="102.6469">+makeRegression()</text><!--MD5=[0f6f7964b844a64b0496af0dda7914bd]
class TestStore--><rect codeLine="18" fill="#FEFECE" filter="url(#f22oywa9ypm2d)" height="80.6081" id="TestStore" style="stroke:#A80036;stroke-width:1.17;" width="144.3" x="434.46" y="260.52"/><ellipse cx="482.625" cy="273" fill="#ADD1B2" rx="8.58" ry="8.58" style="stroke:#A80036;stroke-width:0.78;"/><path d="M484.185,270.27 Q484.3434,269.88 484.5263,269.685 Q484.7091,269.49 484.9163,269.49 Q485.2819,269.49 485.5134,269.7094 Q485.745,269.9288 485.745,270.4406 L485.745,271.6594 Q485.745,272.1713 485.5256,272.3906 Q485.3063,272.61 484.965,272.61 Q484.6603,272.61 484.4653,272.4759 Q484.2703,272.3419 484.185,271.9884 Q484.1484,271.7447 484.0144,271.6106 Q483.7706,271.3547 483.3319,271.2084 Q482.8931,271.05 482.4544,271.05 Q481.9059,271.05 481.4428,271.2694 Q480.9919,271.4888 480.6384,271.9763 Q480.285,272.4638 480.285,273.1341 L480.285,273.8531 Q480.285,274.6575 480.9431,275.1938 Q481.6013,275.73 482.7713,275.73 Q483.4659,275.73 483.9534,275.5716 Q484.2338,275.4863 484.5506,275.2059 Q484.7578,275.0475 484.8675,274.9988 Q484.9772,274.95 485.1113,274.95 Q485.3672,274.95 485.55,275.1572 Q485.745,275.3522 485.745,275.6325 Q485.745,275.9006 485.4769,276.2175 Q485.0869,276.6806 484.4653,276.9366 Q483.6488,277.29 482.6494,277.29 Q481.4794,277.29 480.5409,276.8269 Q479.7853,276.4613 479.2491,275.6691 Q478.725,274.8769 478.725,273.9384 L478.725,273.0853 Q478.725,272.1103 479.1881,271.2572 Q479.6634,270.4041 480.48,269.9531 Q481.3088,269.49 482.235,269.49 Q482.7956,269.49 483.2831,269.685 Q483.7706,269.88 484.185,270.27 Z " fill="#000000"/><text fill="#000000" font-family="sans-serif" font-size="9.36" lengthAdjust="spacing" textLength="41.34" x="498.615" y="276.8299">TestStore</text><line style="stroke:#A80036;stroke-width:1.17;" x1="435.24" x2="577.98" y1="285.48" y2="285.48"/><line style="stroke:#A80036;stroke-width:1.17;" x1="435.24" x2="577.98" y1="291.72" y2="291.72"/><text fill="#000000" font-family="sans-serif" font-size="8.58" lengthAdjust="spacing" textLength="117" x="439.14" y="303.7468">+getPositiveCasesPerDay(day)</text><text fill="#000000" font-family="sans-serif" font-size="8.58" lengthAdjust="spacing" textLength="134.94" x="439.14" y="314.5388">+getNumberOfTestsPerformed(day)</text><text fill="#000000" font-family="sans-serif" font-size="8.58" lengthAdjust="spacing" textLength="105.3" x="439.14" y="325.3308">+getAverageAgeClient(day)</text><text fill="#000000" font-family="sans-serif" font-size="8.58" lengthAdjust="spacing" textLength="83.46" x="439.14" y="336.1229">+getTestTypeOfTest()</text><!--MD5=[ef340af6512c03d5eeac92509be9c66b]
class LinearRegression--><rect codeLine="25" fill="#FEFECE" filter="url(#f22oywa9ypm2d)" height="48.232" id="LinearRegression" style="stroke:#A80036;stroke-width:1.17;" width="102.96" x="742.95" y="276.51"/><ellipse cx="754.65" cy="288.99" fill="#ADD1B2" rx="8.58" ry="8.58" style="stroke:#A80036;stroke-width:0.78;"/><path d="M756.21,286.26 Q756.3684,285.87 756.5513,285.675 Q756.7341,285.48 756.9413,285.48 Q757.3069,285.48 757.5384,285.6994 Q757.77,285.9188 757.77,286.4306 L757.77,287.6494 Q757.77,288.1613 757.5506,288.3806 Q757.3313,288.6 756.99,288.6 Q756.6853,288.6 756.4903,288.4659 Q756.2953,288.3319 756.21,287.9784 Q756.1734,287.7347 756.0394,287.6006 Q755.7956,287.3447 755.3569,287.1984 Q754.9181,287.04 754.4794,287.04 Q753.9309,287.04 753.4678,287.2594 Q753.0169,287.4788 752.6634,287.9663 Q752.31,288.4538 752.31,289.1241 L752.31,289.8431 Q752.31,290.6475 752.9681,291.1838 Q753.6263,291.72 754.7963,291.72 Q755.4909,291.72 755.9784,291.5616 Q756.2588,291.4763 756.5756,291.1959 Q756.7828,291.0375 756.8925,290.9888 Q757.0022,290.94 757.1363,290.94 Q757.3922,290.94 757.575,291.1472 Q757.77,291.3422 757.77,291.6225 Q757.77,291.8906 757.5019,292.2075 Q757.1119,292.6706 756.4903,292.9266 Q755.6738,293.28 754.6744,293.28 Q753.5044,293.28 752.5659,292.8169 Q751.8103,292.4513 751.2741,291.6591 Q750.75,290.8669 750.75,289.9284 L750.75,289.0753 Q750.75,288.1003 751.2131,287.2472 Q751.6884,286.3941 752.505,285.9431 Q753.3338,285.48 754.26,285.48 Q754.8206,285.48 755.3081,285.675 Q755.7956,285.87 756.21,286.26 Z " fill="#000000"/><text fill="#000000" font-family="sans-serif" font-size="9.36" lengthAdjust="spacing" textLength="78" x="765.57" y="292.8199">LinearRegression</text><line style="stroke:#A80036;stroke-width:1.17;" x1="743.73" x2="845.13" y1="301.47" y2="301.47"/><line style="stroke:#A80036;stroke-width:1.17;" x1="743.73" x2="845.13" y1="307.71" y2="307.71"/><text fill="#000000" font-family="sans-serif" font-size="8.58" lengthAdjust="spacing" textLength="91.26" x="747.63" y="319.7368">+LinearRegression(x, y)</text><!--MD5=[6f57bde7dde74de5002c105391146556]
class MultiLinearRegression--><rect codeLine="29" fill="#FEFECE" filter="url(#f22oywa9ypm2d)" height="48.232" id="MultiLinearRegression" style="stroke:#A80036;stroke-width:1.17;" width="135.72" x="873.21" y="276.51"/><ellipse cx="890.877" cy="288.99" fill="#ADD1B2" rx="8.58" ry="8.58" style="stroke:#A80036;stroke-width:0.78;"/><path d="M892.437,286.26 Q892.5954,285.87 892.7783,285.675 Q892.9611,285.48 893.1683,285.48 Q893.5339,285.48 893.7654,285.6994 Q893.997,285.9188 893.997,286.4306 L893.997,287.6494 Q893.997,288.1613 893.7776,288.3806 Q893.5583,288.6 893.217,288.6 Q892.9123,288.6 892.7173,288.4659 Q892.5223,288.3319 892.437,287.9784 Q892.4004,287.7347 892.2664,287.6006 Q892.0226,287.3447 891.5839,287.1984 Q891.1451,287.04 890.7064,287.04 Q890.1579,287.04 889.6948,287.2594 Q889.2439,287.4788 888.8904,287.9663 Q888.537,288.4538 888.537,289.1241 L888.537,289.8431 Q888.537,290.6475 889.1951,291.1838 Q889.8533,291.72 891.0233,291.72 Q891.7179,291.72 892.2054,291.5616 Q892.4858,291.4763 892.8026,291.1959 Q893.0098,291.0375 893.1195,290.9888 Q893.2292,290.94 893.3633,290.94 Q893.6192,290.94 893.802,291.1472 Q893.997,291.3422 893.997,291.6225 Q893.997,291.8906 893.7289,292.2075 Q893.3389,292.6706 892.7173,292.9266 Q891.9008,293.28 890.9014,293.28 Q889.7314,293.28 888.7929,292.8169 Q888.0373,292.4513 887.5011,291.6591 Q886.977,290.8669 886.977,289.9284 L886.977,289.0753 Q886.977,288.1003 887.4401,287.2472 Q887.9154,286.3941 888.732,285.9431 Q889.5608,285.48 890.487,285.48 Q891.0476,285.48 891.5351,285.675 Q892.0226,285.87 892.437,286.26 Z " fill="#000000"/><text fill="#000000" font-family="sans-serif" font-size="9.36" lengthAdjust="spacing" textLength="97.5" x="903.123" y="292.8199">MultiLinearRegression</text><line style="stroke:#A80036;stroke-width:1.17;" x1="873.99" x2="1008.15" y1="301.47" y2="301.47"/><line style="stroke:#A80036;stroke-width:1.17;" x1="873.99" x2="1008.15" y1="307.71" y2="307.71"/><text fill="#000000" font-family="sans-serif" font-size="8.58" lengthAdjust="spacing" textLength="126.36" x="877.89" y="319.7368">+MultiLinearRegression(x1, x2, y)</text><!--MD5=[02e4b9b7573f1156f41e60aa5b4e25a4]
class Company--><rect codeLine="33" fill="#FEFECE" filter="url(#f22oywa9ypm2d)" height="59.0241" id="Company" style="stroke:#A80036;stroke-width:1.17;" width="473.46" x="356.46" y="26.91"/><ellipse cx="569.205" cy="39.39" fill="#ADD1B2" rx="8.58" ry="8.58" style="stroke:#A80036;stroke-width:0.78;"/><path d="M570.765,36.66 Q570.9234,36.27 571.1063,36.075 Q571.2891,35.88 571.4963,35.88 Q571.8619,35.88 572.0934,36.0994 Q572.325,36.3188 572.325,36.8306 L572.325,38.0494 Q572.325,38.5613 572.1056,38.7806 Q571.8863,39 571.545,39 Q571.2403,39 571.0453,38.8659 Q570.8503,38.7319 570.765,38.3784 Q570.7284,38.1347 570.5944,38.0006 Q570.3506,37.7447 569.9119,37.5984 Q569.4731,37.44 569.0344,37.44 Q568.4859,37.44 568.0228,37.6594 Q567.5719,37.8788 567.2184,38.3663 Q566.865,38.8538 566.865,39.5241 L566.865,40.2431 Q566.865,41.0475 567.5231,41.5838 Q568.1813,42.12 569.3513,42.12 Q570.0459,42.12 570.5334,41.9616 Q570.8138,41.8763 571.1306,41.5959 Q571.3378,41.4375 571.4475,41.3888 Q571.5572,41.34 571.6913,41.34 Q571.9472,41.34 572.13,41.5472 Q572.325,41.7422 572.325,42.0225 Q572.325,42.2906 572.0569,42.6075 Q571.6669,43.0706 571.0453,43.3266 Q570.2288,43.68 569.2294,43.68 Q568.0594,43.68 567.1209,43.2169 Q566.3653,42.8513 565.8291,42.0591 Q565.305,41.2669 565.305,40.3284 L565.305,39.4753 Q565.305,38.5003 565.7681,37.6472 Q566.2434,36.7941 567.06,36.3431 Q567.8888,35.88 568.815,35.88 Q569.3756,35.88 569.8631,36.075 Q570.3506,36.27 570.765,36.66 Z " fill="#000000"/><text fill="#000000" font-family="sans-serif" font-size="9.36" lengthAdjust="spacing" textLength="41.34" x="585.195" y="43.2199">Company</text><line style="stroke:#A80036;stroke-width:1.17;" x1="357.24" x2="829.14" y1="51.87" y2="51.87"/><line style="stroke:#A80036;stroke-width:1.17;" x1="357.24" x2="829.14" y1="58.11" y2="58.11"/><text fill="#000000" font-family="sans-serif" font-size="8.58" lengthAdjust="spacing" textLength="363.48" x="361.14" y="70.1368">+makeMultiLinearRegressionReport(historicalPoints, dateCurrentDay, dateInitalDay, dateDayFinal)</text><text fill="#000000" font-family="sans-serif" font-size="8.58" lengthAdjust="spacing" textLength="464.1" x="361.14" y="80.9288">+makeSimpleLinearRegressionReport(historicalPoints, dateCurrentDay, dateInitalDay, dateCurrentDayFinal, independentVar)</text><!--MD5=[906102cd9c3f86a843ffe169f50170bd]
class WriteReport--><rect codeLine="38" fill="#FEFECE" filter="url(#f22oywa9ypm2d)" height="59.0241" id="WriteReport" style="stroke:#A80036;stroke-width:1.17;" width="339.3" x="586.56" y="154.44"/><ellipse cx="727.545" cy="166.92" fill="#ADD1B2" rx="8.58" ry="8.58" style="stroke:#A80036;stroke-width:0.78;"/><path d="M729.105,164.19 Q729.2634,163.8 729.4463,163.605 Q729.6291,163.41 729.8363,163.41 Q730.2019,163.41 730.4334,163.6294 Q730.665,163.8488 730.665,164.3606 L730.665,165.5794 Q730.665,166.0913 730.4456,166.3106 Q730.2263,166.53 729.885,166.53 Q729.5803,166.53 729.3853,166.3959 Q729.1903,166.2619 729.105,165.9084 Q729.0684,165.6647 728.9344,165.5306 Q728.6906,165.2747 728.2519,165.1284 Q727.8131,164.97 727.3744,164.97 Q726.8259,164.97 726.3628,165.1894 Q725.9119,165.4088 725.5584,165.8963 Q725.205,166.3838 725.205,167.0541 L725.205,167.7731 Q725.205,168.5775 725.8631,169.1138 Q726.5213,169.65 727.6913,169.65 Q728.3859,169.65 728.8734,169.4916 Q729.1538,169.4063 729.4706,169.1259 Q729.6778,168.9675 729.7875,168.9188 Q729.8972,168.87 730.0313,168.87 Q730.2872,168.87 730.47,169.0772 Q730.665,169.2722 730.665,169.5525 Q730.665,169.8206 730.3969,170.1375 Q730.0069,170.6006 729.3853,170.8566 Q728.5688,171.21 727.5694,171.21 Q726.3994,171.21 725.4609,170.7469 Q724.7053,170.3813 724.1691,169.5891 Q723.645,168.7969 723.645,167.8584 L723.645,167.0053 Q723.645,166.0303 724.1081,165.1772 Q724.5834,164.3241 725.4,163.8731 Q726.2288,163.41 727.155,163.41 Q727.7156,163.41 728.2031,163.605 Q728.6906,163.8 729.105,164.19 Z " fill="#000000"/><text fill="#000000" font-family="sans-serif" font-size="9.36" lengthAdjust="spacing" textLength="50.7" x="743.535" y="170.7499">WriteReport</text><line style="stroke:#A80036;stroke-width:1.17;" x1="587.34" x2="925.08" y1="179.4" y2="179.4"/><line style="stroke:#A80036;stroke-width:1.17;" x1="587.34" x2="925.08" y1="185.64" y2="185.64"/><text fill="#000000" font-family="sans-serif" font-size="8.58" lengthAdjust="spacing" textLength="329.94" x="591.24" y="197.6668">+WriteReport(testStore, historicalPoints, currentDay, startRegression, finishRegression)</text><text fill="#000000" font-family="sans-serif" font-size="8.58" lengthAdjust="spacing" textLength="47.58" x="591.24" y="208.4588">+getReport()</text><!--MD5=[ed6624c6556d5e7b1bd23032162d20b7]
class Client--><rect codeLine="43" fill="#FEFECE" filter="url(#f22oywa9ypm2d)" height="59.0241" id="Client" style="stroke:#A80036;stroke-width:1.17;" width="77.22" x="468" y="393.12"/><ellipse cx="491.985" cy="405.6" fill="#ADD1B2" rx="8.58" ry="8.58" style="stroke:#A80036;stroke-width:0.78;"/><path d="M493.545,402.87 Q493.7034,402.48 493.8863,402.285 Q494.0691,402.09 494.2763,402.09 Q494.6419,402.09 494.8734,402.3094 Q495.105,402.5288 495.105,403.0406 L495.105,404.2594 Q495.105,404.7713 494.8856,404.9906 Q494.6663,405.21 494.325,405.21 Q494.0203,405.21 493.8253,405.0759 Q493.6303,404.9419 493.545,404.5884 Q493.5084,404.3447 493.3744,404.2106 Q493.1306,403.9547 492.6919,403.8084 Q492.2531,403.65 491.8144,403.65 Q491.2659,403.65 490.8028,403.8694 Q490.3519,404.0888 489.9984,404.5763 Q489.645,405.0638 489.645,405.7341 L489.645,406.4531 Q489.645,407.2575 490.3031,407.7938 Q490.9613,408.33 492.1313,408.33 Q492.8259,408.33 493.3134,408.1716 Q493.5938,408.0863 493.9106,407.8059 Q494.1178,407.6475 494.2275,407.5988 Q494.3372,407.55 494.4713,407.55 Q494.7272,407.55 494.91,407.7572 Q495.105,407.9522 495.105,408.2325 Q495.105,408.5006 494.8369,408.8175 Q494.4469,409.2806 493.8253,409.5366 Q493.0088,409.89 492.0094,409.89 Q490.8394,409.89 489.9009,409.4269 Q489.1453,409.0613 488.6091,408.2691 Q488.085,407.4769 488.085,406.5384 L488.085,405.6853 Q488.085,404.7103 488.5481,403.8572 Q489.0234,403.0041 489.84,402.5531 Q490.6688,402.09 491.595,402.09 Q492.1556,402.09 492.6431,402.285 Q493.1306,402.48 493.545,402.87 Z " fill="#000000"/><text fill="#000000" font-family="sans-serif" font-size="9.36" lengthAdjust="spacing" textLength="24.96" x="505.635" y="409.4299">Client</text><line style="stroke:#A80036;stroke-width:1.17;" x1="468.78" x2="544.44" y1="418.08" y2="418.08"/><text fill="#000000" font-family="sans-serif" font-size="8.58" lengthAdjust="spacing" textLength="36.66" x="472.68" y="430.1068">-dateBirth</text><line style="stroke:#A80036;stroke-width:1.17;" x1="468.78" x2="544.44" y1="435.112" y2="435.112"/><text fill="#000000" font-family="sans-serif" font-size="8.58" lengthAdjust="spacing" textLength="67.86" x="472.68" y="447.1388">+getAgeInYears()</text><!--MD5=[50d1a1cda746b645eed6e6c94f8696d0]
class ExternalModuleNhsReport--><rect codeLine="48" fill="#FEFECE" filter="url(#f22oywa9ypm2d)" height="59.0241" id="ExternalModuleNhsReport" style="stroke:#A80036;stroke-width:1.17;" width="137.28" x="167.31" y="154.44"/><ellipse cx="179.01" cy="166.92" fill="#B4A7E5" rx="8.58" ry="8.58" style="stroke:#A80036;stroke-width:0.78;"/><path d="M179.79,164.58 L179.79,169.26 L181.35,169.26 L181.7278,169.26 L182.13,169.7475 L182.13,170.04 L182.13,170.3325 L181.7278,170.82 L181.35,170.82 L176.67,170.82 L176.2922,170.82 L175.89,170.3325 L175.89,170.04 L175.89,169.7475 L176.2922,169.26 L176.67,169.26 L178.23,169.26 L178.23,164.58 L176.67,164.58 L176.2922,164.58 L175.89,164.0925 L175.89,163.8 L175.89,163.5075 L176.2922,163.02 L176.67,163.02 L181.35,163.02 L181.7278,163.02 L182.13,163.5075 L182.13,163.8 L182.13,164.0925 L181.7278,164.58 L181.35,164.58 L179.79,164.58 Z " fill="#000000"/><text fill="#000000" font-family="sans-serif" font-size="9.36" font-style="italic" lengthAdjust="spacing" textLength="112.32" x="189.93" y="170.7499">ExternalModuleNhsReport</text><line style="stroke:#A80036;stroke-width:1.17;" x1="168.09" x2="303.81" y1="179.4" y2="179.4"/><line style="stroke:#A80036;stroke-width:1.17;" x1="168.09" x2="303.81" y1="185.64" y2="185.64"/><text fill="#000000" font-family="sans-serif" font-size="8.58" lengthAdjust="spacing" textLength="117.78" x="171.99" y="197.6668">+void sendReport(String string)</text><text fill="#000000" font-family="sans-serif" font-size="8.58" lengthAdjust="spacing" textLength="90.48" x="171.99" y="208.4588">+void getDateAndTime()</text><!--MD5=[b04e67341a4c9a11ab886afd8f3c3b68]
class ExternalModuleNhsReportAdapter--><rect codeLine="53" fill="#FEFECE" filter="url(#f22oywa9ypm2d)" height="59.0241" id="ExternalModuleNhsReportAdapter" style="stroke:#A80036;stroke-width:1.17;" width="170.04" x="150.93" y="271.05"/><ellipse cx="162.63" cy="283.53" fill="#ADD1B2" rx="8.58" ry="8.58" style="stroke:#A80036;stroke-width:0.78;"/><path d="M164.19,280.8 Q164.3484,280.41 164.5313,280.215 Q164.7141,280.02 164.9213,280.02 Q165.2869,280.02 165.5184,280.2394 Q165.75,280.4588 165.75,280.9706 L165.75,282.1894 Q165.75,282.7013 165.5306,282.9206 Q165.3113,283.14 164.97,283.14 Q164.6653,283.14 164.4703,283.0059 Q164.2753,282.8719 164.19,282.5184 Q164.1534,282.2747 164.0194,282.1406 Q163.7756,281.8847 163.3369,281.7384 Q162.8981,281.58 162.4594,281.58 Q161.9109,281.58 161.4478,281.7994 Q160.9969,282.0188 160.6434,282.5063 Q160.29,282.9938 160.29,283.6641 L160.29,284.3831 Q160.29,285.1875 160.9481,285.7238 Q161.6063,286.26 162.7763,286.26 Q163.4709,286.26 163.9584,286.1016 Q164.2388,286.0163 164.5556,285.7359 Q164.7628,285.5775 164.8725,285.5288 Q164.9822,285.48 165.1163,285.48 Q165.3722,285.48 165.555,285.6872 Q165.75,285.8822 165.75,286.1625 Q165.75,286.4306 165.4819,286.7475 Q165.0919,287.2106 164.4703,287.4666 Q163.6538,287.82 162.6544,287.82 Q161.4844,287.82 160.5459,287.3569 Q159.7903,286.9913 159.2541,286.1991 Q158.73,285.4069 158.73,284.4684 L158.73,283.6153 Q158.73,282.6403 159.1931,281.7872 Q159.6684,280.9341 160.485,280.4831 Q161.3138,280.02 162.24,280.02 Q162.8006,280.02 163.2881,280.215 Q163.7756,280.41 164.19,280.8 Z " fill="#000000"/><text fill="#000000" font-family="sans-serif" font-size="9.36" lengthAdjust="spacing" textLength="145.08" x="173.55" y="287.3599">ExternalModuleNhsReportAdapter</text><line style="stroke:#A80036;stroke-width:1.17;" x1="151.71" x2="320.19" y1="296.01" y2="296.01"/><line style="stroke:#A80036;stroke-width:1.17;" x1="151.71" x2="320.19" y1="302.25" y2="302.25"/><text fill="#000000" font-family="sans-serif" font-size="8.58" lengthAdjust="spacing" textLength="99.84" x="155.61" y="314.2768">+sendReport(String string)</text><text fill="#000000" font-family="sans-serif" font-size="8.58" lengthAdjust="spacing" textLength="72.54" x="155.61" y="325.0688">+getDateAndTime()</text><!--MD5=[fde5bf5e32ebd91aaa37566c2946746b]
class Report2NHS--><rect codeLine="58" fill="#FEFECE" filter="url(#f22oywa9ypm2d)" height="48.232" id="Report2NHS" style="stroke:#A80036;stroke-width:1.17;" width="136.5" x="167.7" y="398.58"/><ellipse cx="205.335" cy="411.06" fill="#ADD1B2" rx="8.58" ry="8.58" style="stroke:#A80036;stroke-width:0.78;"/><path d="M206.895,408.33 Q207.0534,407.94 207.2363,407.745 Q207.4191,407.55 207.6263,407.55 Q207.9919,407.55 208.2234,407.7694 Q208.455,407.9888 208.455,408.5006 L208.455,409.7194 Q208.455,410.2313 208.2356,410.4506 Q208.0163,410.67 207.675,410.67 Q207.3703,410.67 207.1753,410.5359 Q206.9803,410.4019 206.895,410.0484 Q206.8584,409.8047 206.7244,409.6706 Q206.4806,409.4147 206.0419,409.2684 Q205.6031,409.11 205.1644,409.11 Q204.6159,409.11 204.1528,409.3294 Q203.7019,409.5488 203.3484,410.0363 Q202.995,410.5238 202.995,411.1941 L202.995,411.9131 Q202.995,412.7175 203.6531,413.2538 Q204.3113,413.79 205.4813,413.79 Q206.1759,413.79 206.6634,413.6316 Q206.9438,413.5463 207.2606,413.2659 Q207.4678,413.1075 207.5775,413.0588 Q207.6872,413.01 207.8213,413.01 Q208.0772,413.01 208.26,413.2172 Q208.455,413.4122 208.455,413.6925 Q208.455,413.9606 208.1869,414.2775 Q207.7969,414.7406 207.1753,414.9966 Q206.3588,415.35 205.3594,415.35 Q204.1894,415.35 203.2509,414.8869 Q202.4953,414.5213 201.9591,413.7291 Q201.435,412.9369 201.435,411.9984 L201.435,411.1453 Q201.435,410.1703 201.8981,409.3172 Q202.3734,408.4641 203.19,408.0131 Q204.0188,407.55 204.945,407.55 Q205.5056,407.55 205.9931,407.745 Q206.4806,407.94 206.895,408.33 Z " fill="#000000"/><text fill="#000000" font-family="sans-serif" font-size="9.36" lengthAdjust="spacing" textLength="54.6" x="221.325" y="414.8899">Report2NHS</text><line style="stroke:#A80036;stroke-width:1.17;" x1="168.48" x2="303.42" y1="423.54" y2="423.54"/><line style="stroke:#A80036;stroke-width:1.17;" x1="168.48" x2="303.42" y1="429.78" y2="429.78"/><text fill="#000000" font-family="sans-serif" font-size="8.58" lengthAdjust="spacing" textLength="127.14" x="172.38" y="441.8068">+writeUsingFileWriter(String data)</text><!--MD5=[4e608140b854dae633589343bce77383]
class TestParameterResult--><rect codeLine="61" fill="#FEFECE" filter="url(#f22oywa9ypm2d)" height="48.232" id="TestParameterResult" style="stroke:#A80036;stroke-width:1.17;" width="117" x="1035.45" y="159.9"/><ellipse cx="1047.15" cy="172.38" fill="#ADD1B2" rx="8.58" ry="8.58" style="stroke:#A80036;stroke-width:0.78;"/><path d="M1048.71,169.65 Q1048.8684,169.26 1049.0513,169.065 Q1049.2341,168.87 1049.4413,168.87 Q1049.8069,168.87 1050.0384,169.0894 Q1050.27,169.3088 1050.27,169.8206 L1050.27,171.0394 Q1050.27,171.5513 1050.0506,171.7706 Q1049.8313,171.99 1049.49,171.99 Q1049.1853,171.99 1048.9903,171.8559 Q1048.7953,171.7219 1048.71,171.3684 Q1048.6734,171.1247 1048.5394,170.9906 Q1048.2956,170.7347 1047.8569,170.5884 Q1047.4181,170.43 1046.9794,170.43 Q1046.4309,170.43 1045.9678,170.6494 Q1045.5169,170.8688 1045.1634,171.3563 Q1044.81,171.8438 1044.81,172.5141 L1044.81,173.2331 Q1044.81,174.0375 1045.4681,174.5738 Q1046.1263,175.11 1047.2963,175.11 Q1047.9909,175.11 1048.4784,174.9516 Q1048.7588,174.8663 1049.0756,174.5859 Q1049.2828,174.4275 1049.3925,174.3788 Q1049.5022,174.33 1049.6363,174.33 Q1049.8922,174.33 1050.075,174.5372 Q1050.27,174.7322 1050.27,175.0125 Q1050.27,175.2806 1050.0019,175.5975 Q1049.6119,176.0606 1048.9903,176.3166 Q1048.1738,176.67 1047.1744,176.67 Q1046.0044,176.67 1045.0659,176.2069 Q1044.3103,175.8413 1043.7741,175.0491 Q1043.25,174.2569 1043.25,173.3184 L1043.25,172.4653 Q1043.25,171.4903 1043.7131,170.6372 Q1044.1884,169.7841 1045.005,169.3331 Q1045.8338,168.87 1046.76,168.87 Q1047.3206,168.87 1047.8081,169.065 Q1048.2956,169.26 1048.71,169.65 Z " fill="#000000"/><text fill="#000000" font-family="sans-serif" font-size="9.36" lengthAdjust="spacing" textLength="92.04" x="1058.07" y="176.2099">TestParameterResult</text><line style="stroke:#A80036;stroke-width:1.17;" x1="1036.23" x2="1151.67" y1="184.86" y2="184.86"/><text fill="#000000" font-family="sans-serif" font-size="8.58" lengthAdjust="spacing" textLength="23.4" x="1040.13" y="196.8868">-value</text><line style="stroke:#A80036;stroke-width:1.17;" x1="1036.23" x2="1151.67" y1="201.892" y2="201.892"/><!--MD5=[a96594a83e2ecdc78cbf17c2ddf01934]
class Category--><rect codeLine="65" fill="#FEFECE" filter="url(#f22oywa9ypm2d)" height="69.8161" id="Category" style="stroke:#A80036;stroke-width:1.17;" width="95.94" x="829.14" y="387.66"/><ellipse cx="855.582" cy="400.14" fill="#ADD1B2" rx="8.58" ry="8.58" style="stroke:#A80036;stroke-width:0.78;"/><path d="M857.142,397.41 Q857.3004,397.02 857.4833,396.825 Q857.6661,396.63 857.8733,396.63 Q858.2389,396.63 858.4704,396.8494 Q858.702,397.0688 858.702,397.5806 L858.702,398.7994 Q858.702,399.3113 858.4826,399.5306 Q858.2633,399.75 857.922,399.75 Q857.6173,399.75 857.4223,399.6159 Q857.2273,399.4819 857.142,399.1284 Q857.1054,398.8847 856.9714,398.7506 Q856.7276,398.4947 856.2889,398.3484 Q855.8501,398.19 855.4114,398.19 Q854.8629,398.19 854.3998,398.4094 Q853.9489,398.6288 853.5954,399.1163 Q853.242,399.6038 853.242,400.2741 L853.242,400.9931 Q853.242,401.7975 853.9001,402.3338 Q854.5583,402.87 855.7283,402.87 Q856.4229,402.87 856.9104,402.7116 Q857.1908,402.6263 857.5076,402.3459 Q857.7148,402.1875 857.8245,402.1388 Q857.9342,402.09 858.0683,402.09 Q858.3242,402.09 858.507,402.2972 Q858.702,402.4922 858.702,402.7725 Q858.702,403.0406 858.4339,403.3575 Q858.0439,403.8206 857.4223,404.0766 Q856.6058,404.43 855.6064,404.43 Q854.4364,404.43 853.4979,403.9669 Q852.7423,403.6013 852.2061,402.8091 Q851.682,402.0169 851.682,401.0784 L851.682,400.2253 Q851.682,399.2503 852.1451,398.3972 Q852.6204,397.5441 853.437,397.0931 Q854.2658,396.63 855.192,396.63 Q855.7526,396.63 856.2401,396.825 Q856.7276,397.02 857.142,397.41 Z " fill="#000000"/><text fill="#000000" font-family="sans-serif" font-size="9.36" lengthAdjust="spacing" textLength="38.22" x="869.778" y="403.9699">Category</text><line style="stroke:#A80036;stroke-width:1.17;" x1="829.92" x2="924.3" y1="412.62" y2="412.62"/><text fill="#000000" font-family="sans-serif" font-size="8.58" lengthAdjust="spacing" textLength="21.84" x="833.82" y="424.6468">-code</text><text fill="#000000" font-family="sans-serif" font-size="8.58" lengthAdjust="spacing" textLength="44.46" x="833.82" y="435.4388">-description</text><line style="stroke:#A80036;stroke-width:1.17;" x1="829.92" x2="924.3" y1="440.4441" y2="440.4441"/><text fill="#000000" font-family="sans-serif" font-size="8.58" lengthAdjust="spacing" textLength="86.58" x="833.82" y="452.4708">+getParameterOfTest()</text><!--MD5=[aeb3272166074d8737a70b61b1e71682]
class TestType--><rect codeLine="70" fill="#FEFECE" filter="url(#f22oywa9ypm2d)" height="69.8161" id="TestType" style="stroke:#A80036;stroke-width:1.17;" width="109.2" x="606.45" y="265.59"/><ellipse cx="638.508" cy="278.07" fill="#ADD1B2" rx="8.58" ry="8.58" style="stroke:#A80036;stroke-width:0.78;"/><path d="M640.068,275.34 Q640.2264,274.95 640.4093,274.755 Q640.5921,274.56 640.7993,274.56 Q641.1649,274.56 641.3964,274.7794 Q641.628,274.9988 641.628,275.5106 L641.628,276.7294 Q641.628,277.2413 641.4086,277.4606 Q641.1893,277.68 640.848,277.68 Q640.5433,277.68 640.3483,277.5459 Q640.1533,277.4119 640.068,277.0584 Q640.0314,276.8147 639.8974,276.6806 Q639.6536,276.4247 639.2149,276.2784 Q638.7761,276.12 638.3374,276.12 Q637.7889,276.12 637.3258,276.3394 Q636.8749,276.5588 636.5214,277.0463 Q636.168,277.5338 636.168,278.2041 L636.168,278.9231 Q636.168,279.7275 636.8261,280.2638 Q637.4843,280.8 638.6543,280.8 Q639.3489,280.8 639.8364,280.6416 Q640.1168,280.5563 640.4336,280.2759 Q640.6408,280.1175 640.7505,280.0688 Q640.8602,280.02 640.9943,280.02 Q641.2502,280.02 641.433,280.2272 Q641.628,280.4222 641.628,280.7025 Q641.628,280.9706 641.3599,281.2875 Q640.9699,281.7506 640.3483,282.0066 Q639.5318,282.36 638.5324,282.36 Q637.3624,282.36 636.4239,281.8969 Q635.6683,281.5313 635.1321,280.7391 Q634.608,279.9469 634.608,279.0084 L634.608,278.1553 Q634.608,277.1803 635.0711,276.3272 Q635.5464,275.4741 636.363,275.0231 Q637.1918,274.56 638.118,274.56 Q638.6786,274.56 639.1661,274.755 Q639.6536,274.95 640.068,275.34 Z " fill="#000000"/><text fill="#000000" font-family="sans-serif" font-size="9.36" lengthAdjust="spacing" textLength="39" x="653.952" y="281.8999">TestType</text><line style="stroke:#A80036;stroke-width:1.17;" x1="607.23" x2="714.87" y1="290.55" y2="290.55"/><text fill="#000000" font-family="sans-serif" font-size="8.58" lengthAdjust="spacing" textLength="21.84" x="611.13" y="302.5768">-code</text><text fill="#000000" font-family="sans-serif" font-size="8.58" lengthAdjust="spacing" textLength="44.46" x="611.13" y="313.3688">-description</text><line style="stroke:#A80036;stroke-width:1.17;" x1="607.23" x2="714.87" y1="318.3741" y2="318.3741"/><text fill="#000000" font-family="sans-serif" font-size="8.58" lengthAdjust="spacing" textLength="99.84" x="611.13" y="330.4008">+getCateforyOfTestType()</text><!--MD5=[1f6362a5c8f21d8d6a0fce68f3a92a4e]
class Parameter--><rect codeLine="75" fill="#FEFECE" filter="url(#f22oywa9ypm2d)" height="69.8161" id="Parameter" style="stroke:#A80036;stroke-width:1.17;" width="115.44" x="1036.23" y="265.59"/><ellipse cx="1068.288" cy="278.07" fill="#ADD1B2" rx="8.58" ry="8.58" style="stroke:#A80036;stroke-width:0.78;"/><path d="M1069.848,275.34 Q1070.0064,274.95 1070.1893,274.755 Q1070.3721,274.56 1070.5793,274.56 Q1070.9449,274.56 1071.1764,274.7794 Q1071.408,274.9988 1071.408,275.5106 L1071.408,276.7294 Q1071.408,277.2413 1071.1886,277.4606 Q1070.9692,277.68 1070.628,277.68 Q1070.3233,277.68 1070.1283,277.5459 Q1069.9333,277.4119 1069.848,277.0584 Q1069.8114,276.8147 1069.6774,276.6806 Q1069.4336,276.4247 1068.9949,276.2784 Q1068.5561,276.12 1068.1174,276.12 Q1067.5689,276.12 1067.1058,276.3394 Q1066.6549,276.5588 1066.3014,277.0463 Q1065.948,277.5338 1065.948,278.2041 L1065.948,278.9231 Q1065.948,279.7275 1066.6061,280.2638 Q1067.2643,280.8 1068.4343,280.8 Q1069.1289,280.8 1069.6164,280.6416 Q1069.8967,280.5563 1070.2136,280.2759 Q1070.4208,280.1175 1070.5305,280.0688 Q1070.6402,280.02 1070.7743,280.02 Q1071.0302,280.02 1071.213,280.2272 Q1071.408,280.4222 1071.408,280.7025 Q1071.408,280.9706 1071.1399,281.2875 Q1070.7499,281.7506 1070.1283,282.0066 Q1069.3118,282.36 1068.3124,282.36 Q1067.1424,282.36 1066.2039,281.8969 Q1065.4483,281.5313 1064.9121,280.7391 Q1064.388,279.9469 1064.388,279.0084 L1064.388,278.1553 Q1064.388,277.1803 1064.8511,276.3272 Q1065.3264,275.4741 1066.143,275.0231 Q1066.9718,274.56 1067.898,274.56 Q1068.4586,274.56 1068.9461,274.755 Q1069.4336,274.95 1069.848,275.34 Z " fill="#000000"/><text fill="#000000" font-family="sans-serif" font-size="9.36" lengthAdjust="spacing" textLength="45.24" x="1083.732" y="281.8999">Parameter</text><line style="stroke:#A80036;stroke-width:1.17;" x1="1037.01" x2="1150.89" y1="290.55" y2="290.55"/><text fill="#000000" font-family="sans-serif" font-size="8.58" lengthAdjust="spacing" textLength="21.84" x="1040.91" y="302.5768">-code</text><text fill="#000000" font-family="sans-serif" font-size="8.58" lengthAdjust="spacing" textLength="44.46" x="1040.91" y="313.3688">-description</text><line style="stroke:#A80036;stroke-width:1.17;" x1="1037.01" x2="1150.89" y1="318.3741" y2="318.3741"/><text fill="#000000" font-family="sans-serif" font-size="8.58" lengthAdjust="spacing" textLength="106.08" x="1040.91" y="330.4008">+getParameterResultValue()</text><!--MD5=[c793a4a12f294aff8010f818fa48e4db]
link CreateNhsReportController to ExternalModuleNhsReport--><path codeLine="82" d="M235.95,107.8428 C235.95,122.109 235.95,137.2644 235.95,150.2202 " fill="none" id="CreateNhsReportController-to-ExternalModuleNhsReport" style="stroke:#A80036;stroke-width:0.78;stroke-dasharray:7.0,7.0;"/><polygon fill="#A80036" points="235.95,154.167,239.07,147.147,235.95,150.267,232.83,147.147,235.95,154.167" style="stroke:#A80036;stroke-width:0.78;"/><!--MD5=[bf01883237672a57abffe5b8df705ffb]
link CreateNhsReportUI to CreateNhsReportController--><path codeLine="83" d="M115.635,56.55 C123.3102,56.55 130.9776,56.55 138.645,56.55 " fill="none" id="CreateNhsReportUI-to-CreateNhsReportController" style="stroke:#A80036;stroke-width:0.78;stroke-dasharray:7.0,7.0;"/><polygon fill="#A80036" points="142.662,56.55,135.642,53.43,138.762,56.55,135.642,59.67,142.662,56.55" style="stroke:#A80036;stroke-width:0.78;"/><!--MD5=[58e98d6077e17a28d81f499a370b687d]
link CreateNhsReportController to Company--><path codeLine="84" d="M329.4486,56.55 C337.0536,56.55 344.6508,56.55 352.2558,56.55 " fill="none" id="CreateNhsReportController-to-Company" style="stroke:#A80036;stroke-width:0.78;stroke-dasharray:7.0,7.0;"/><polygon fill="#A80036" points="356.2338,56.55,349.2138,53.43,352.3338,56.55,349.2138,59.67,356.2338,56.55" style="stroke:#A80036;stroke-width:0.78;"/><!--MD5=[1d550e36a90861854eebfeae3bacd2a5]
link Company to WriteReport--><path codeLine="85" d="M630.591,86.229 C655.9722,105.846 689.52,131.7654 715.5642,151.8894 " fill="none" id="Company-to-WriteReport" style="stroke:#A80036;stroke-width:0.78;"/><polygon fill="#A80036" points="718.6998,154.3152,715.052,147.5544,715.6135,151.9309,711.2371,152.4924,718.6998,154.3152" style="stroke:#A80036;stroke-width:0.78;"/><!--MD5=[7f6cf7f175eae0af66201860de5de971]
link Company to TestStore--><path codeLine="86" d="M582.8316,86.346 C567.7386,128.6376 539.5962,207.4878 522.054,256.6356 " fill="none" id="Company-to-TestStore" style="stroke:#A80036;stroke-width:0.78;stroke-dasharray:7.0,7.0;"/><polygon fill="#A80036" points="520.7046,260.4186,526.0061,254.859,522.0177,256.7463,520.1304,252.758,520.7046,260.4186" style="stroke:#A80036;stroke-width:0.78;"/><!--MD5=[5fe52bf4ca36c1a7b68d8327a468a0c2]
link TestStore to Client--><path codeLine="87" d="M506.61,340.9302 C506.61,356.3664 506.61,373.8774 506.61,388.6584 " fill="none" id="TestStore-to-Client" style="stroke:#A80036;stroke-width:0.78;stroke-dasharray:7.0,7.0;"/><polygon fill="#A80036" points="506.61,392.7534,509.73,385.7334,506.61,388.8534,503.49,385.7334,506.61,392.7534" style="stroke:#A80036;stroke-width:0.78;"/><!--MD5=[cae4c9ddc5f572649c51d00bf2c1fad0]
link WriteReport to TestStore--><path codeLine="88" d="M693.5448,213.7434 C659.8332,229.281 617.994,248.5704 582.4494,264.9504 " fill="none" id="WriteReport-to-TestStore" style="stroke:#A80036;stroke-width:0.78;stroke-dasharray:7.0,7.0;"/><polygon fill="#A80036" points="578.8068,266.6274,586.4881,266.5139,582.3469,264.991,583.8698,260.8497,578.8068,266.6274" style="stroke:#A80036;stroke-width:0.78;"/><!--MD5=[bc2c7d55cffe9294a45c49b39bc62740]
reverse link ExternalModuleNhsReport to ExternalModuleNhsReportAdapter--><path codeLine="89" d="M235.95,229.5072 C235.95,243.399 235.95,258.3516 235.95,270.8862 " fill="none" id="ExternalModuleNhsReport-backto-ExternalModuleNhsReportAdapter" style="stroke:#A80036;stroke-width:0.78;stroke-dasharray:7.0,7.0;"/><polygon fill="none" points="230.49,229.4916,235.95,213.8916,241.41,229.4916,230.49,229.4916" style="stroke:#A80036;stroke-width:0.78;"/><!--MD5=[a8efa147a8cc977fd336ee3041b61649]
link ExternalModuleNhsReportAdapter to Report2NHS--><path codeLine="90" d="M235.95,330.3378 C235.95,349.7754 235.95,375.258 235.95,394.4148 " fill="none" id="ExternalModuleNhsReportAdapter-to-Report2NHS" style="stroke:#A80036;stroke-width:0.78;"/><polygon fill="#A80036" points="235.95,398.4006,239.07,391.3806,235.95,394.5006,232.83,391.3806,235.95,398.4006" style="stroke:#A80036;stroke-width:0.78;"/><!--MD5=[d9a9e5e677957b70dcfd0ec8d2ccd9b2]
link WriteReport to LinearRegression--><path codeLine="91" d="M765.8508,213.8916 C771.8178,231.8394 779.4228,254.7402 785.2884,272.3916 " fill="none" id="WriteReport-to-LinearRegression" style="stroke:#A80036;stroke-width:0.78;stroke-dasharray:7.0,7.0;"/><polygon fill="#A80036" points="786.591,276.3072,787.3241,268.6601,785.3544,272.6085,781.4061,270.6388,786.591,276.3072" style="stroke:#A80036;stroke-width:0.78;"/><!--MD5=[6b376ca7614b88316936f98332ad4b74]
link WriteReport to MultiLinearRegression--><path codeLine="92" d="M802.62,213.7434 C832.5252,232.3542 871.065,256.3392 899.886,274.2792 " fill="none" id="WriteReport-to-MultiLinearRegression" style="stroke:#A80036;stroke-width:0.78;stroke-dasharray:7.0,7.0;"/><polygon fill="#A80036" points="903.3492,276.432,899.0306,270.0787,900.0358,274.375,895.7394,275.3802,903.3492,276.432" style="stroke:#A80036;stroke-width:0.78;"/><!--MD5=[6aa7a76d72b567a81c20592c0356475d]
link TestStore to TestType--><path codeLine="93" d="M579.0018,300.69 C588.081,300.69 597.168,300.69 606.2472,300.69 " fill="none" id="TestStore-TestType" style="stroke:#A80036;stroke-width:0.78;"/><text fill="#000000" font-family="sans-serif" font-size="10.14" lengthAdjust="spacing" textLength="3.9" x="584.9259" y="298.2392">*</text><text fill="#000000" font-family="sans-serif" font-size="10.14" lengthAdjust="spacing" textLength="5.46" x="594.8541" y="298.1266">1</text><!--MD5=[2148a3300dad30af455fcbe81ca204c2]
link TestType to Category--><path codeLine="94" d="M715.7982,333.4032 C720.2286,335.9382 724.6356,338.4498 728.91,340.86 C762.1224,359.5878 799.8198,380.211 828.8826,395.9826 " fill="none" id="TestType-Category" style="stroke:#A80036;stroke-width:0.78;"/><text fill="#000000" font-family="sans-serif" font-size="10.14" lengthAdjust="spacing" textLength="5.46" x="721.7256" y="334.2134">1</text><text fill="#000000" font-family="sans-serif" font-size="10.14" lengthAdjust="spacing" textLength="15.6" x="807.1546" y="390.4535">1..*</text><!--MD5=[852f3a1b1bcfc6074ebcba484562eac0]
link Parameter to Category--><path codeLine="95" d="M1036.1286,333.606 C1001.4966,352.8486 957.996,377.0286 925.2516,395.226 " fill="none" id="Parameter-Category" style="stroke:#A80036;stroke-width:0.78;"/><text fill="#000000" font-family="sans-serif" font-size="10.14" lengthAdjust="spacing" textLength="3.9" x="1026.0647" y="334.4371">*</text><text fill="#000000" font-family="sans-serif" font-size="10.14" lengthAdjust="spacing" textLength="5.46" x="931.4516" y="389.1961">1</text><!--MD5=[e5a1ad8cf54a15b9f508e822cc3e9fb4]
link TestParameterResult to Parameter--><path codeLine="96" d="M1093.95,208.416 C1093.95,224.8584 1093.95,247.0494 1093.95,265.4652 " fill="none" id="TestParameterResult-Parameter" style="stroke:#A80036;stroke-width:0.78;"/><text fill="#000000" font-family="sans-serif" font-size="10.14" lengthAdjust="spacing" textLength="5.46" x="1087.9696" y="224.8091">1</text><text fill="#000000" font-family="sans-serif" font-size="10.14" lengthAdjust="spacing" textLength="5.46" x="1088.072" y="257.2125">1</text><!--MD5=[371a1edc84a48e04b7008f834d3889a6]
@startuml

skinparam classAttributeIconSize 0

class CreateNhsReportUI {
+run()

}

class CreateNhsReportController {
+setHistoricalPoints(historicalPoints)
+setCurrentDay(currentDay)
+setInitialDay(initialDay)
+setFinalDay(finalDay)
+setIndependentVariable(independentVariable)
+makeRegression()
}

class TestStore{
+getPositiveCasesPerDay(day)
+getNumberOfTestsPerformed(day)
+getAverageAgeClient(day)
+getTestTypeOfTest()
}

class LinearRegression {
+LinearRegression(x, y)
}

class MultiLinearRegression {
+MultiLinearRegression(x1, x2, y)
}

class Company {
+makeMultiLinearRegressionReport(historicalPoints, dateCurrentDay, dateInitalDay, dateDayFinal)
+makeSimpleLinearRegressionReport(historicalPoints, dateCurrentDay, dateInitalDay, dateCurrentDayFinal, independentVar)
}

class WriteReport {
+WriteReport(testStore, historicalPoints, currentDay, startRegression, finishRegression)
+getReport()
}

class Client{
-dateBirth
+getAgeInYears()
}

interface ExternalModuleNhsReport {
+void sendReport(String string)
+void getDateAndTime()
}

class ExternalModuleNhsReportAdapter {
+sendReport(String string)
+getDateAndTime()
}

class Report2NHS {
+writeUsingFileWriter(String data)
}
class TestParameterResult {
-value

}
class Category {
-code
-description
+getParameterOfTest()
}
class TestType {
-code
-description
+getCateforyOfTestType()
}
class Parameter {
-code
-description
+getParameterResultValue()
}


CreateNhsReportController ..> ExternalModuleNhsReport
CreateNhsReportUI .> CreateNhsReportController
CreateNhsReportController .> Company
Company - -> WriteReport
Company ..> TestStore
TestStore ..> Client
WriteReport ..> TestStore
ExternalModuleNhsReport <|.. ExternalModuleNhsReportAdapter
ExternalModuleNhsReportAdapter - -> Report2NHS
WriteReport ..> LinearRegression
WriteReport ..> MultiLinearRegression
TestStore "*"-right-"1" "TestType"
TestType "1"- -"1..*" Category
Parameter "*"- -"1" Category
TestParameterResult "1"- -"1" Parameter

@enduml

PlantUML version 1.2021.00(Sun Jan 10 10:25:05 GMT 2021)
(GPL source distribution)
Java Runtime: OpenJDK Runtime Environment
JVM: OpenJDK 64-Bit Server VM
Default Encoding: Cp1252
Language: pt
Country: PT
--></g></svg>