<?xml version="1.0" encoding="UTF-8" standalone="no"?><svg xmlns="http://www.w3.org/2000/svg" xmlns:xlink="http://www.w3.org/1999/xlink" contentScriptType="application/ecmascript" contentStyleType="text/css" height="673.14px" preserveAspectRatio="none" style="width:446px;height:673px;" version="1.1" viewBox="0 0 446 673" width="446.94px" zoomAndPan="magnify"><defs><filter height="300%" id="f81lim2ctbdic" width="300%" x="-1" y="-1"><feGaussianBlur result="blurOut" stdDeviation="1.56"/><feColorMatrix in="blurOut" result="blurOut2" type="matrix" values="0 0 0 0 0 0 0 0 0 0 0 0 0 0 0 0 0 0 .4 0"/><feOffset dx="3.12" dy="3.12" in="blurOut2" result="blurOut3"/><feBlend in="SourceGraphic" in2="blurOut3" mode="normal"/></filter></defs><g><!--MD5=[02e4b9b7573f1156f41e60aa5b4e25a4]
class Company--><rect codeLine="4" fill="#FEFECE" filter="url(#f81lim2ctbdic)" height="48.232" id="Company" style="stroke:#A80036;stroke-width:1.17;" width="66.3" x="103.74" y="202.02"/><ellipse cx="115.44" cy="214.5" fill="#ADD1B2" rx="8.58" ry="8.58" style="stroke:#A80036;stroke-width:0.78;"/><path d="M117,211.77 Q117.1584,211.38 117.3413,211.185 Q117.5241,210.99 117.7313,210.99 Q118.0969,210.99 118.3284,211.2094 Q118.56,211.4288 118.56,211.9406 L118.56,213.1594 Q118.56,213.6713 118.3406,213.8906 Q118.1213,214.11 117.78,214.11 Q117.4753,214.11 117.2803,213.9759 Q117.0853,213.8419 117,213.4884 Q116.9634,213.2447 116.8294,213.1106 Q116.5856,212.8547 116.1469,212.7084 Q115.7081,212.55 115.2694,212.55 Q114.7209,212.55 114.2578,212.7694 Q113.8069,212.9888 113.4534,213.4763 Q113.1,213.9638 113.1,214.6341 L113.1,215.3531 Q113.1,216.1575 113.7581,216.6938 Q114.4163,217.23 115.5863,217.23 Q116.2809,217.23 116.7684,217.0716 Q117.0488,216.9863 117.3656,216.7059 Q117.5728,216.5475 117.6825,216.4988 Q117.7922,216.45 117.9263,216.45 Q118.1822,216.45 118.365,216.6572 Q118.56,216.8522 118.56,217.1325 Q118.56,217.4006 118.2919,217.7175 Q117.9019,218.1806 117.2803,218.4366 Q116.4638,218.79 115.4644,218.79 Q114.2944,218.79 113.3559,218.3269 Q112.6003,217.9613 112.0641,217.1691 Q111.54,216.3769 111.54,215.4384 L111.54,214.5853 Q111.54,213.6103 112.0031,212.7572 Q112.4784,211.9041 113.295,211.4531 Q114.1238,210.99 115.05,210.99 Q115.6106,210.99 116.0981,211.185 Q116.5856,211.38 117,211.77 Z " fill="#000000"/><text fill="#000000" font-family="sans-serif" font-size="9.36" lengthAdjust="spacing" textLength="41.34" x="126.36" y="218.3299">Company</text><line style="stroke:#A80036;stroke-width:1.17;" x1="104.52" x2="169.26" y1="226.98" y2="226.98"/><text fill="#000000" font-family="sans-serif" font-size="8.58" lengthAdjust="spacing" textLength="46.02" x="108.42" y="239.0068">-designation</text><line style="stroke:#A80036;stroke-width:1.17;" x1="104.52" x2="169.26" y1="244.012" y2="244.012"/><!--MD5=[df38be88ccee13e832d6fafd6288a4ca]
class Test--><rect codeLine="7" fill="#FEFECE" filter="url(#f81lim2ctbdic)" height="156.1523" id="Test" style="stroke:#A80036;stroke-width:1.17;" width="65.52" x="104.13" y="311.22"/><ellipse cx="125.658" cy="323.7" fill="#ADD1B2" rx="8.58" ry="8.58" style="stroke:#A80036;stroke-width:0.78;"/><path d="M127.218,320.97 Q127.3764,320.58 127.5593,320.385 Q127.7421,320.19 127.9493,320.19 Q128.3149,320.19 128.5464,320.4094 Q128.778,320.6288 128.778,321.1406 L128.778,322.3594 Q128.778,322.8713 128.5586,323.0906 Q128.3393,323.31 127.998,323.31 Q127.6933,323.31 127.4983,323.1759 Q127.3033,323.0419 127.218,322.6884 Q127.1814,322.4447 127.0474,322.3106 Q126.8036,322.0547 126.3649,321.9084 Q125.9261,321.75 125.4874,321.75 Q124.9389,321.75 124.4758,321.9694 Q124.0249,322.1888 123.6714,322.6763 Q123.318,323.1638 123.318,323.8341 L123.318,324.5531 Q123.318,325.3575 123.9761,325.8938 Q124.6343,326.43 125.8043,326.43 Q126.4989,326.43 126.9864,326.2716 Q127.2668,326.1863 127.5836,325.9059 Q127.7908,325.7475 127.9005,325.6988 Q128.0102,325.65 128.1443,325.65 Q128.4002,325.65 128.583,325.8572 Q128.778,326.0522 128.778,326.3325 Q128.778,326.6006 128.5099,326.9175 Q128.1199,327.3806 127.4983,327.6366 Q126.6818,327.99 125.6824,327.99 Q124.5124,327.99 123.5739,327.5269 Q122.8183,327.1613 122.2821,326.3691 Q121.758,325.5769 121.758,324.6384 L121.758,323.7853 Q121.758,322.8103 122.2211,321.9572 Q122.6964,321.1041 123.513,320.6531 Q124.3418,320.19 125.268,320.19 Q125.8286,320.19 126.3161,320.385 Q126.8036,320.58 127.218,320.97 Z " fill="#000000"/><text fill="#000000" font-family="sans-serif" font-size="9.36" lengthAdjust="spacing" textLength="18.72" x="138.762" y="327.5299">Test</text><line style="stroke:#A80036;stroke-width:1.17;" x1="104.91" x2="168.87" y1="336.18" y2="336.18"/><text fill="#000000" font-family="sans-serif" font-size="8.58" lengthAdjust="spacing" textLength="36.66" x="108.81" y="348.2068">-testCode</text><text fill="#000000" font-family="sans-serif" font-size="8.58" lengthAdjust="spacing" textLength="36.66" x="108.81" y="358.9988">-nhsCode</text><text fill="#000000" font-family="sans-serif" font-size="8.58" lengthAdjust="spacing" textLength="46.02" x="108.81" y="369.7908">-designation</text><text fill="#000000" font-family="sans-serif" font-size="8.58" lengthAdjust="spacing" textLength="50.7" x="108.81" y="380.5829">-dateRegister</text><text fill="#000000" font-family="sans-serif" font-size="8.58" lengthAdjust="spacing" textLength="49.14" x="108.81" y="391.3749">-timeRegister</text><text fill="#000000" font-family="sans-serif" font-size="8.58" lengthAdjust="spacing" textLength="52.26" x="108.81" y="402.1669">-dateAnalysis</text><text fill="#000000" font-family="sans-serif" font-size="8.58" lengthAdjust="spacing" textLength="50.7" x="108.81" y="412.959">-timeAnalysis</text><text fill="#000000" font-family="sans-serif" font-size="8.58" lengthAdjust="spacing" textLength="44.46" x="108.81" y="423.751">-dateReport</text><text fill="#000000" font-family="sans-serif" font-size="8.58" lengthAdjust="spacing" textLength="42.9" x="108.81" y="434.543">-timeReport</text><text fill="#000000" font-family="sans-serif" font-size="8.58" lengthAdjust="spacing" textLength="56.16" x="108.81" y="445.3351">-dateValidation</text><text fill="#000000" font-family="sans-serif" font-size="8.58" lengthAdjust="spacing" textLength="54.6" x="108.81" y="456.1271">-timeValidation</text><line style="stroke:#A80036;stroke-width:1.17;" x1="104.91" x2="168.87" y1="461.1323" y2="461.1323"/><!--MD5=[ed6624c6556d5e7b1bd23032162d20b7]
class Client--><rect codeLine="20" fill="#FEFECE" filter="url(#f81lim2ctbdic)" height="134.5683" id="Client" style="stroke:#A80036;stroke-width:1.17;" width="64.74" x="104.52" y="528.06"/><ellipse cx="122.889" cy="540.54" fill="#ADD1B2" rx="8.58" ry="8.58" style="stroke:#A80036;stroke-width:0.78;"/><path d="M124.449,537.81 Q124.6074,537.42 124.7903,537.225 Q124.9731,537.03 125.1803,537.03 Q125.5459,537.03 125.7774,537.2494 Q126.009,537.4688 126.009,537.9806 L126.009,539.1994 Q126.009,539.7113 125.7896,539.9306 Q125.5703,540.15 125.229,540.15 Q124.9243,540.15 124.7293,540.0159 Q124.5343,539.8819 124.449,539.5284 Q124.4124,539.2847 124.2784,539.1506 Q124.0346,538.8947 123.5959,538.7484 Q123.1571,538.59 122.7184,538.59 Q122.1699,538.59 121.7068,538.8094 Q121.2559,539.0288 120.9024,539.5163 Q120.549,540.0038 120.549,540.6741 L120.549,541.3931 Q120.549,542.1975 121.2071,542.7338 Q121.8653,543.27 123.0353,543.27 Q123.7299,543.27 124.2174,543.1116 Q124.4978,543.0263 124.8146,542.7459 Q125.0218,542.5875 125.1315,542.5388 Q125.2412,542.49 125.3753,542.49 Q125.6312,542.49 125.814,542.6972 Q126.009,542.8922 126.009,543.1725 Q126.009,543.4406 125.7409,543.7575 Q125.3509,544.2206 124.7293,544.4766 Q123.9128,544.83 122.9134,544.83 Q121.7434,544.83 120.8049,544.3669 Q120.0493,544.0013 119.5131,543.2091 Q118.989,542.4169 118.989,541.4784 L118.989,540.6253 Q118.989,539.6503 119.4521,538.7972 Q119.9274,537.9441 120.744,537.4931 Q121.5728,537.03 122.499,537.03 Q123.0596,537.03 123.5471,537.225 Q124.0346,537.42 124.449,537.81 Z " fill="#000000"/><text fill="#000000" font-family="sans-serif" font-size="9.36" lengthAdjust="spacing" textLength="24.96" x="135.291" y="544.3699">Client</text><line style="stroke:#A80036;stroke-width:1.17;" x1="105.3" x2="168.48" y1="553.02" y2="553.02"/><text fill="#000000" font-family="sans-serif" font-size="8.58" lengthAdjust="spacing" textLength="23.4" x="109.2" y="565.0468">-name</text><text fill="#000000" font-family="sans-serif" font-size="8.58" lengthAdjust="spacing" textLength="49.14" x="109.2" y="575.8388">-cardNumber</text><text fill="#000000" font-family="sans-serif" font-size="8.58" lengthAdjust="spacing" textLength="36.66" x="109.2" y="586.6308">-birthDate</text><text fill="#000000" font-family="sans-serif" font-size="8.58" lengthAdjust="spacing" textLength="17.16" x="109.2" y="597.4229">-sex</text><text fill="#000000" font-family="sans-serif" font-size="8.58" lengthAdjust="spacing" textLength="24.18" x="109.2" y="608.2149">-nhsID</text><text fill="#000000" font-family="sans-serif" font-size="8.58" lengthAdjust="spacing" textLength="14.04" x="109.2" y="619.0069">-TIF</text><text fill="#000000" font-family="sans-serif" font-size="8.58" lengthAdjust="spacing" textLength="55.38" x="109.2" y="629.799">-phoneNumber</text><text fill="#000000" font-family="sans-serif" font-size="8.58" lengthAdjust="spacing" textLength="21.84" x="109.2" y="640.591">-email</text><text fill="#000000" font-family="sans-serif" font-size="8.58" lengthAdjust="spacing" textLength="42.12" x="109.2" y="651.383">-password</text><line style="stroke:#A80036;stroke-width:1.17;" x1="105.3" x2="168.48" y1="656.3883" y2="656.3883"/><!--MD5=[6f57bde7dde74de5002c105391146556]
class MultiLinearRegression--><rect codeLine="31" fill="#FEFECE" filter="url(#f81lim2ctbdic)" height="37.44" id="MultiLinearRegression" style="stroke:#A80036;stroke-width:1.17;" width="122.46" x="5.46" y="103.74"/><ellipse cx="17.16" cy="116.22" fill="#ADD1B2" rx="8.58" ry="8.58" style="stroke:#A80036;stroke-width:0.78;"/><path d="M18.72,113.49 Q18.8784,113.1 19.0613,112.905 Q19.2441,112.71 19.4513,112.71 Q19.8169,112.71 20.0484,112.9294 Q20.28,113.1488 20.28,113.6606 L20.28,114.8794 Q20.28,115.3913 20.0606,115.6106 Q19.8413,115.83 19.5,115.83 Q19.1953,115.83 19.0003,115.6959 Q18.8053,115.5619 18.72,115.2084 Q18.6834,114.9647 18.5494,114.8306 Q18.3056,114.5747 17.8669,114.4284 Q17.4281,114.27 16.9894,114.27 Q16.4409,114.27 15.9778,114.4894 Q15.5269,114.7088 15.1734,115.1963 Q14.82,115.6838 14.82,116.3541 L14.82,117.0731 Q14.82,117.8775 15.4781,118.4138 Q16.1363,118.95 17.3063,118.95 Q18.0009,118.95 18.4884,118.7916 Q18.7688,118.7063 19.0856,118.4259 Q19.2928,118.2675 19.4025,118.2188 Q19.5122,118.17 19.6463,118.17 Q19.9022,118.17 20.085,118.3772 Q20.28,118.5722 20.28,118.8525 Q20.28,119.1206 20.0119,119.4375 Q19.6219,119.9006 19.0003,120.1566 Q18.1838,120.51 17.1844,120.51 Q16.0144,120.51 15.0759,120.0469 Q14.3203,119.6813 13.7841,118.8891 Q13.26,118.0969 13.26,117.1584 L13.26,116.3053 Q13.26,115.3303 13.7231,114.4772 Q14.1984,113.6241 15.015,113.1731 Q15.8438,112.71 16.77,112.71 Q17.3306,112.71 17.8181,112.905 Q18.3056,113.1 18.72,113.49 Z " fill="#000000"/><text fill="#000000" font-family="sans-serif" font-size="9.36" lengthAdjust="spacing" textLength="97.5" x="28.08" y="120.0499">MultiLinearRegression</text><line style="stroke:#A80036;stroke-width:1.17;" x1="6.24" x2="127.14" y1="128.7" y2="128.7"/><line style="stroke:#A80036;stroke-width:1.17;" x1="6.24" x2="127.14" y1="134.94" y2="134.94"/><!--MD5=[ef340af6512c03d5eeac92509be9c66b]
class LinearRegression--><rect codeLine="33" fill="#FEFECE" filter="url(#f81lim2ctbdic)" height="37.44" id="LinearRegression" style="stroke:#A80036;stroke-width:1.17;" width="102.96" x="155.61" y="103.74"/><ellipse cx="167.31" cy="116.22" fill="#ADD1B2" rx="8.58" ry="8.58" style="stroke:#A80036;stroke-width:0.78;"/><path d="M168.87,113.49 Q169.0284,113.1 169.2113,112.905 Q169.3941,112.71 169.6013,112.71 Q169.9669,112.71 170.1984,112.9294 Q170.43,113.1488 170.43,113.6606 L170.43,114.8794 Q170.43,115.3913 170.2106,115.6106 Q169.9913,115.83 169.65,115.83 Q169.3453,115.83 169.1503,115.6959 Q168.9553,115.5619 168.87,115.2084 Q168.8334,114.9647 168.6994,114.8306 Q168.4556,114.5747 168.0169,114.4284 Q167.5781,114.27 167.1394,114.27 Q166.5909,114.27 166.1278,114.4894 Q165.6769,114.7088 165.3234,115.1963 Q164.97,115.6838 164.97,116.3541 L164.97,117.0731 Q164.97,117.8775 165.6281,118.4138 Q166.2863,118.95 167.4563,118.95 Q168.1509,118.95 168.6384,118.7916 Q168.9188,118.7063 169.2356,118.4259 Q169.4428,118.2675 169.5525,118.2188 Q169.6622,118.17 169.7963,118.17 Q170.0522,118.17 170.235,118.3772 Q170.43,118.5722 170.43,118.8525 Q170.43,119.1206 170.1619,119.4375 Q169.7719,119.9006 169.1503,120.1566 Q168.3338,120.51 167.3344,120.51 Q166.1644,120.51 165.2259,120.0469 Q164.4703,119.6813 163.9341,118.8891 Q163.41,118.0969 163.41,117.1584 L163.41,116.3053 Q163.41,115.3303 163.8731,114.4772 Q164.3484,113.6241 165.165,113.1731 Q165.9938,112.71 166.92,112.71 Q167.4806,112.71 167.9681,112.905 Q168.4556,113.1 168.87,113.49 Z " fill="#000000"/><text fill="#000000" font-family="sans-serif" font-size="9.36" lengthAdjust="spacing" textLength="78" x="178.23" y="120.0499">LinearRegression</text><line style="stroke:#A80036;stroke-width:1.17;" x1="156.39" x2="257.79" y1="128.7" y2="128.7"/><line style="stroke:#A80036;stroke-width:1.17;" x1="156.39" x2="257.79" y1="134.94" y2="134.94"/><!--MD5=[906102cd9c3f86a843ffe169f50170bd]
class WriteReport--><rect codeLine="35" fill="#FEFECE" filter="url(#f81lim2ctbdic)" height="37.44" id="WriteReport" style="stroke:#A80036;stroke-width:1.17;" width="75.66" x="99.06" y="5.46"/><ellipse cx="110.76" cy="17.94" fill="#ADD1B2" rx="8.58" ry="8.58" style="stroke:#A80036;stroke-width:0.78;"/><path d="M112.32,15.21 Q112.4784,14.82 112.6613,14.625 Q112.8441,14.43 113.0513,14.43 Q113.4169,14.43 113.6484,14.6494 Q113.88,14.8688 113.88,15.3806 L113.88,16.5994 Q113.88,17.1113 113.6606,17.3306 Q113.4413,17.55 113.1,17.55 Q112.7953,17.55 112.6003,17.4159 Q112.4053,17.2819 112.32,16.9284 Q112.2834,16.6847 112.1494,16.5506 Q111.9056,16.2947 111.4669,16.1484 Q111.0281,15.99 110.5894,15.99 Q110.0409,15.99 109.5778,16.2094 Q109.1269,16.4288 108.7734,16.9163 Q108.42,17.4038 108.42,18.0741 L108.42,18.7931 Q108.42,19.5975 109.0781,20.1338 Q109.7363,20.67 110.9063,20.67 Q111.6009,20.67 112.0884,20.5116 Q112.3688,20.4263 112.6856,20.1459 Q112.8928,19.9875 113.0025,19.9388 Q113.1122,19.89 113.2463,19.89 Q113.5022,19.89 113.685,20.0972 Q113.88,20.2922 113.88,20.5725 Q113.88,20.8406 113.6119,21.1575 Q113.2219,21.6206 112.6003,21.8766 Q111.7838,22.23 110.7844,22.23 Q109.6144,22.23 108.6759,21.7669 Q107.9203,21.4013 107.3841,20.6091 Q106.86,19.8169 106.86,18.8784 L106.86,18.0253 Q106.86,17.0503 107.3231,16.1972 Q107.7984,15.3441 108.615,14.8931 Q109.4438,14.43 110.37,14.43 Q110.9306,14.43 111.4181,14.625 Q111.9056,14.82 112.32,15.21 Z " fill="#000000"/><text fill="#000000" font-family="sans-serif" font-size="9.36" lengthAdjust="spacing" textLength="50.7" x="121.68" y="21.7699">WriteReport</text><line style="stroke:#A80036;stroke-width:1.17;" x1="99.84" x2="173.94" y1="30.42" y2="30.42"/><line style="stroke:#A80036;stroke-width:1.17;" x1="99.84" x2="173.94" y1="36.66" y2="36.66"/><!--MD5=[f248ffeaa3c70a764b4e5f712065dec6]
class NHS API--><rect fill="#FEFECE" filter="url(#f81lim2ctbdic)" height="37.44" id="NHS API" style="stroke:#A80036;stroke-width:1.17;" width="61.62" x="248.04" y="5.46"/><ellipse cx="259.74" cy="17.94" fill="#ADD1B2" rx="8.58" ry="8.58" style="stroke:#A80036;stroke-width:0.78;"/><path d="M261.3,15.21 Q261.4584,14.82 261.6413,14.625 Q261.8241,14.43 262.0313,14.43 Q262.3969,14.43 262.6284,14.6494 Q262.86,14.8688 262.86,15.3806 L262.86,16.5994 Q262.86,17.1113 262.6406,17.3306 Q262.4213,17.55 262.08,17.55 Q261.7753,17.55 261.5803,17.4159 Q261.3853,17.2819 261.3,16.9284 Q261.2634,16.6847 261.1294,16.5506 Q260.8856,16.2947 260.4469,16.1484 Q260.0081,15.99 259.5694,15.99 Q259.0209,15.99 258.5578,16.2094 Q258.1069,16.4288 257.7534,16.9163 Q257.4,17.4038 257.4,18.0741 L257.4,18.7931 Q257.4,19.5975 258.0581,20.1338 Q258.7163,20.67 259.8863,20.67 Q260.5809,20.67 261.0684,20.5116 Q261.3488,20.4263 261.6656,20.1459 Q261.8728,19.9875 261.9825,19.9388 Q262.0922,19.89 262.2263,19.89 Q262.4822,19.89 262.665,20.0972 Q262.86,20.2922 262.86,20.5725 Q262.86,20.8406 262.5919,21.1575 Q262.2019,21.6206 261.5803,21.8766 Q260.7638,22.23 259.7644,22.23 Q258.5944,22.23 257.6559,21.7669 Q256.9003,21.4013 256.3641,20.6091 Q255.84,19.8169 255.84,18.8784 L255.84,18.0253 Q255.84,17.0503 256.3031,16.1972 Q256.7784,15.3441 257.595,14.8931 Q258.4238,14.43 259.35,14.43 Q259.9106,14.43 260.3981,14.625 Q260.8856,14.82 261.3,15.21 Z " fill="#000000"/><text fill="#000000" font-family="sans-serif" font-size="9.36" lengthAdjust="spacing" textLength="36.66" x="270.66" y="21.7699">NHS API</text><line style="stroke:#A80036;stroke-width:1.17;" x1="248.82" x2="308.88" y1="30.42" y2="30.42"/><line style="stroke:#A80036;stroke-width:1.17;" x1="248.82" x2="308.88" y1="36.66" y2="36.66"/><!--MD5=[0a105ea8d9af02dadec02d3e239f1d60]
class NHS--><rect fill="#FEFECE" filter="url(#f81lim2ctbdic)" height="37.44" id="NHS" style="stroke:#A80036;stroke-width:1.17;" width="45.24" x="391.17" y="5.46"/><ellipse cx="402.87" cy="17.94" fill="#ADD1B2" rx="8.58" ry="8.58" style="stroke:#A80036;stroke-width:0.78;"/><path d="M404.43,15.21 Q404.5884,14.82 404.7713,14.625 Q404.9541,14.43 405.1613,14.43 Q405.5269,14.43 405.7584,14.6494 Q405.99,14.8688 405.99,15.3806 L405.99,16.5994 Q405.99,17.1113 405.7706,17.3306 Q405.5513,17.55 405.21,17.55 Q404.9053,17.55 404.7103,17.4159 Q404.5153,17.2819 404.43,16.9284 Q404.3934,16.6847 404.2594,16.5506 Q404.0156,16.2947 403.5769,16.1484 Q403.1381,15.99 402.6994,15.99 Q402.1509,15.99 401.6878,16.2094 Q401.2369,16.4288 400.8834,16.9163 Q400.53,17.4038 400.53,18.0741 L400.53,18.7931 Q400.53,19.5975 401.1881,20.1338 Q401.8463,20.67 403.0163,20.67 Q403.7109,20.67 404.1984,20.5116 Q404.4788,20.4263 404.7956,20.1459 Q405.0028,19.9875 405.1125,19.9388 Q405.2222,19.89 405.3563,19.89 Q405.6122,19.89 405.795,20.0972 Q405.99,20.2922 405.99,20.5725 Q405.99,20.8406 405.7219,21.1575 Q405.3319,21.6206 404.7103,21.8766 Q403.8938,22.23 402.8944,22.23 Q401.7244,22.23 400.7859,21.7669 Q400.0303,21.4013 399.4941,20.6091 Q398.97,19.8169 398.97,18.8784 L398.97,18.0253 Q398.97,17.0503 399.4331,16.1972 Q399.9084,15.3441 400.725,14.8931 Q401.5538,14.43 402.48,14.43 Q403.0406,14.43 403.5281,14.625 Q404.0156,14.82 404.43,15.21 Z " fill="#000000"/><text fill="#000000" font-family="sans-serif" font-size="9.36" lengthAdjust="spacing" textLength="20.28" x="413.79" y="21.7699">NHS</text><line style="stroke:#A80036;stroke-width:1.17;" x1="391.95" x2="435.63" y1="30.42" y2="30.42"/><line style="stroke:#A80036;stroke-width:1.17;" x1="391.95" x2="435.63" y1="36.66" y2="36.66"/><!--MD5=[7afa54c20a293a4da0009667bd2824dd]
link WriteReport to NHS API--><path codeLine="38" d="M174.9306,24.18 C197.7612,24.18 226.4418,24.18 247.8762,24.18 " fill="none" id="WriteReport-NHS API" style="stroke:#A80036;stroke-width:0.78;"/><polygon fill="#000000" points="196.17,14.9571,189.1148,12.6647,189.1148,17.2495,196.17,14.9571" style="stroke:#000000;stroke-width:0.78;"/><text fill="#000000" font-family="sans-serif" font-size="10.14" lengthAdjust="spacing" textLength="34.32" x="199.29" y="19.1062">sent via</text><text fill="#000000" font-family="sans-serif" font-size="10.14" lengthAdjust="spacing" textLength="3.9" x="181.0542" y="21.2917">*</text><text fill="#000000" font-family="sans-serif" font-size="10.14" lengthAdjust="spacing" textLength="5.46" x="236.4127" y="21.1391">1</text><!--MD5=[1675dbda762c12f232b018a6db7826c4]
link NHS API to NHS--><path codeLine="39" d="M309.8082,24.18 C334.5498,24.18 368.667,24.18 390.975,24.18 " fill="none" id="NHS API-NHS" style="stroke:#A80036;stroke-width:0.78;"/><polygon fill="#000000" points="330.915,14.9571,323.8598,12.6647,323.8598,17.2495,330.915,14.9571" style="stroke:#000000;stroke-width:0.78;"/><text fill="#000000" font-family="sans-serif" font-size="10.14" lengthAdjust="spacing" textLength="42.9" x="334.035" y="19.1062">owned by</text><!--MD5=[3ddd0cddda42f494c4d02009f853355b]
link MultiLinearRegression to Company--><path codeLine="40" d="M78.7566,141.2502 C86.0574,152.1 95.5812,166.1868 104.13,178.62 C109.356,186.2172 115.1124,194.4696 120.315,201.903 " fill="none" id="MultiLinearRegression-Company" style="stroke:#A80036;stroke-width:0.78;"/><polygon fill="#000000" points="105.8256,168.5199,107.9224,175.6356,111.7044,173.0442,105.8256,168.5199" style="stroke:#000000;stroke-width:0.78;"/><text fill="#000000" font-family="sans-serif" font-size="10.14" lengthAdjust="spacing" textLength="44.46" x="115.05" y="175.8862">generates</text><text fill="#000000" font-family="sans-serif" font-size="10.14" lengthAdjust="spacing" textLength="3.9" x="77.3225" y="157.9109">*</text><text fill="#000000" font-family="sans-serif" font-size="10.14" lengthAdjust="spacing" textLength="5.46" x="110.8733" y="193.6924">1</text><!--MD5=[832db0746dd3d6979cf8a610a19b8219]
link LinearRegression to Company--><path codeLine="41" d="M194.7036,141.2736 C183.1284,158.1138 165.7812,183.3624 153.114,201.8094 " fill="none" id="LinearRegression-Company" style="stroke:#A80036;stroke-width:0.78;"/><polygon fill="#000000" points="185.1184,168.5226,179.2339,173.0396,183.0128,175.6358,185.1184,168.5226" style="stroke:#000000;stroke-width:0.78;"/><text fill="#000000" font-family="sans-serif" font-size="10.14" lengthAdjust="spacing" textLength="44.46" x="189.93" y="175.8862">generates</text><text fill="#000000" font-family="sans-serif" font-size="10.14" lengthAdjust="spacing" textLength="3.9" x="187.3091" y="157.94">*</text><text fill="#000000" font-family="sans-serif" font-size="10.14" lengthAdjust="spacing" textLength="5.46" x="150.4371" y="193.5795">1</text><!--MD5=[6b376ca7614b88316936f98332ad4b74]
link WriteReport to MultiLinearRegression--><path codeLine="42" d="M123.8484,42.9234 C111.3216,60.1926 92.4846,86.1432 79.8954,103.4826 " fill="none" id="WriteReport-MultiLinearRegression" style="stroke:#A80036;stroke-width:0.78;"/><polygon fill="#000000" points="112.6608,70.3008,106.6615,74.6641,110.3719,77.3571,112.6608,70.3008" style="stroke:#000000;stroke-width:0.78;"/><text fill="#000000" font-family="sans-serif" font-size="10.14" lengthAdjust="spacing" textLength="33.54" x="117.39" y="77.6062">creates</text><text fill="#000000" font-family="sans-serif" font-size="10.14" lengthAdjust="spacing" textLength="5.46" x="114.5441" y="59.5727">1</text><text fill="#000000" font-family="sans-serif" font-size="10.14" lengthAdjust="spacing" textLength="3.9" x="78.7389" y="95.4155">*</text><!--MD5=[d9a9e5e677957b70dcfd0ec8d2ccd9b2]
link WriteReport to LinearRegression--><path codeLine="43" d="M149.9316,42.9234 C162.4584,60.1926 181.2954,86.1432 193.8846,103.4826 " fill="none" id="WriteReport-LinearRegression" style="stroke:#A80036;stroke-width:0.78;"/><polygon fill="#000000" points="178.2792,70.3008,180.5681,77.3571,184.2785,74.6641,178.2792,70.3008" style="stroke:#000000;stroke-width:0.78;"/><text fill="#000000" font-family="sans-serif" font-size="10.14" lengthAdjust="spacing" textLength="33.54" x="187.59" y="77.6062">creates</text><text fill="#000000" font-family="sans-serif" font-size="10.14" lengthAdjust="spacing" textLength="5.46" x="146.9851" y="59.5727">1</text><text fill="#000000" font-family="sans-serif" font-size="10.14" lengthAdjust="spacing" textLength="3.9" x="186.2905" y="95.4155">*</text><!--MD5=[7e4bc624457760b649895ff2ead938fa]
link Company to Test--><path codeLine="44" d="M136.89,250.458 C136.89,266.5494 136.89,288.8964 136.89,310.9236 " fill="none" id="Company-Test" style="stroke:#A80036;stroke-width:0.78;"/><polygon fill="#000000" points="140.79,284.8371,143.0824,277.7819,138.4976,277.7819,140.79,284.8371" style="stroke:#000000;stroke-width:0.78;"/><text fill="#000000" font-family="sans-serif" font-size="10.14" lengthAdjust="spacing" textLength="39" x="147.81" y="285.0862">performs</text><text fill="#000000" font-family="sans-serif" font-size="10.14" lengthAdjust="spacing" textLength="5.46" x="130.8925" y="267.0281">1</text><text fill="#000000" font-family="sans-serif" font-size="10.14" lengthAdjust="spacing" textLength="3.9" x="132.8468" y="302.7661">*</text><!--MD5=[3994f36c72829dbcddd1cf7021dddf61]
link Test to Client--><path codeLine="45" d="M136.89,467.4072 C136.89,487.3362 136.89,508.6146 136.89,527.9586 " fill="none" id="Test-Client" style="stroke:#A80036;stroke-width:0.78;"/><polygon fill="#000000" points="140.79,501.6771,143.0824,494.6219,138.4976,494.6219,140.79,501.6771" style="stroke:#000000;stroke-width:0.78;"/><text fill="#000000" font-family="sans-serif" font-size="10.14" lengthAdjust="spacing" textLength="58.5" x="147.81" y="501.9262">requested by</text><text fill="#000000" font-family="sans-serif" font-size="10.14" lengthAdjust="spacing" textLength="3.9" x="132.8468" y="484.138">*</text><text fill="#000000" font-family="sans-serif" font-size="10.14" lengthAdjust="spacing" textLength="5.46" x="131.1954" y="519.6894">1</text><!--MD5=[5a37d5c9aea199036dc70e2738c1dae7]
@startuml

skinparam classAttributeIconSize 0

class Company {
-designation
}
class Test {
-testCode
-nhsCode
-designation
-dateRegister
-timeRegister
-dateAnalysis
-timeAnalysis
-dateReport
-timeReport
-dateValidation
-timeValidation
}
class Client {
-name
-cardNumber
-birthDate
-sex
-nhsID
-TIF
-phoneNumber
-email
-password
}
class MultiLinearRegression{
}
class LinearRegression{
}
class WriteReport{
}

"NHS API" "1"-left-"*" WriteReport : sent via <
"NHS API" -right- NHS : owned by >
MultiLinearRegression "*"- -"1" Company : generates <
LinearRegression "*"- -"1" Company : generates <
MultiLinearRegression "*"-up-"1" WriteReport : creates >
LinearRegression "*"-up-"1" WriteReport : creates >
Test "*"-up-"1" Company : performs <
Test "*"- -"1" Client : requested by >

@enduml

PlantUML version 1.2021.00(Sun Jan 10 10:25:05 GMT 2021)
(GPL source distribution)
Java Runtime: OpenJDK Runtime Environment
JVM: OpenJDK 64-Bit Server VM
Default Encoding: Cp1252
Language: pt
Country: PT
--></g></svg>