<?xml version="1.0" encoding="UTF-8" standalone="no"?><svg xmlns="http://www.w3.org/2000/svg" xmlns:xlink="http://www.w3.org/1999/xlink" contentScriptType="application/ecmascript" contentStyleType="text/css" height="1171px" preserveAspectRatio="none" style="width:1941px;height:1171px;" version="1.1" viewBox="0 0 1941 1171" width="1941px" zoomAndPan="magnify"><defs><filter height="300%" id="f13u9orrcyhufn" width="300%" x="-1" y="-1"><feGaussianBlur result="blurOut" stdDeviation="2.0"/><feColorMatrix in="blurOut" result="blurOut2" type="matrix" values="0 0 0 0 0 0 0 0 0 0 0 0 0 0 0 0 0 0 .4 0"/><feOffset dx="4.0" dy="4.0" in="blurOut2" result="blurOut3"/><feBlend in="SourceGraphic" in2="blurOut3" mode="normal"/></filter></defs><g><rect fill="#FFFFFF" filter="url(#f13u9orrcyhufn)" height="977.1953" style="stroke:#A80036;stroke-width:1.0;" width="10" x="21" y="99.6094"/><rect fill="#FFFFFF" filter="url(#f13u9orrcyhufn)" height="525.6797" style="stroke:#A80036;stroke-width:1.0;" width="10" x="269" y="121.9609"/><rect fill="#FFFFFF" filter="url(#f13u9orrcyhufn)" height="389.8125" style="stroke:#A80036;stroke-width:1.0;" width="10" x="269" y="677.9922"/><rect fill="#FFFFFF" filter="url(#f13u9orrcyhufn)" height="393.3672" style="stroke:#A80036;stroke-width:1.0;" width="10" x="486" y="198.9219"/><rect fill="#FFFFFF" filter="url(#f13u9orrcyhufn)" height="145.7031" style="stroke:#A80036;stroke-width:1.0;" width="10" x="486" y="708.3438"/><rect fill="#FFFFFF" filter="url(#f13u9orrcyhufn)" height="30" style="stroke:#A80036;stroke-width:1.0;" width="10" x="633.5" y="229.2734"/><rect fill="#FFFFFF" filter="url(#f13u9orrcyhufn)" height="30" style="stroke:#A80036;stroke-width:1.0;" width="10" x="633.5" y="399.9766"/><rect fill="#FFFFFF" filter="url(#f13u9orrcyhufn)" height="30" style="stroke:#A80036;stroke-width:1.0;" width="10" x="766" y="314.625"/><rect fill="#FFFFFF" filter="url(#f13u9orrcyhufn)" height="30" style="stroke:#A80036;stroke-width:1.0;" width="10" x="928" y="485.3281"/><rect fill="#FFFFFF" filter="url(#f13u9orrcyhufn)" height="30" style="stroke:#A80036;stroke-width:1.0;" width="10" x="928" y="738.6953"/><rect fill="#FFFFFF" filter="url(#f13u9orrcyhufn)" height="90.3516" style="stroke:#A80036;stroke-width:1.0;" width="10" x="1045" y="824.0469"/><rect fill="#FFFFFF" filter="url(#f13u9orrcyhufn)" height="36.6094" style="stroke:#A80036;stroke-width:1.0;" width="10" x="1167.5" y="555.6797"/><rect fill="#FFFFFF" filter="url(#f13u9orrcyhufn)" height="115.7031" style="stroke:#A80036;stroke-width:1.0;" width="10" x="1353" y="884.3984"/><rect fill="#FFFFFF" filter="url(#f13u9orrcyhufn)" height="60.3516" style="stroke:#A80036;stroke-width:1.0;" width="10" x="1552.5" y="970.1016"/><rect fill="#FFFFFF" filter="url(#f13u9orrcyhufn)" height="46.3516" style="stroke:#A80036;stroke-width:1.0;" width="10" x="1782.5" y="1030.4531"/><rect fill="#FFFFFF" filter="url(#f13u9orrcyhufn)" height="109.0547" style="stroke:#000000;stroke-width:2.0;" width="679" x="1248.5" y="929.3984"/><line style="stroke:#A80036;stroke-width:1.0;stroke-dasharray:5.0,5.0;" x1="26" x2="26" y1="89.6094" y2="1085.8047"/><line style="stroke:#A80036;stroke-width:1.0;stroke-dasharray:5.0,5.0;" x1="273.5" x2="273.5" y1="89.6094" y2="1085.8047"/><line style="stroke:#A80036;stroke-width:1.0;stroke-dasharray:5.0,5.0;" x1="490.5" x2="490.5" y1="163.2656" y2="1085.8047"/><line style="stroke:#A80036;stroke-width:1.0;stroke-dasharray:5.0,5.0;" x1="638.5" x2="638.5" y1="89.6094" y2="1085.8047"/><line style="stroke:#A80036;stroke-width:1.0;stroke-dasharray:5.0,5.0;" x1="770.5" x2="770.5" y1="89.6094" y2="1085.8047"/><line style="stroke:#A80036;stroke-width:1.0;stroke-dasharray:5.0,5.0;" x1="932.5" x2="932.5" y1="89.6094" y2="1085.8047"/><line style="stroke:#A80036;stroke-width:1.0;stroke-dasharray:5.0,5.0;" x1="1049.5" x2="1049.5" y1="89.6094" y2="1085.8047"/><line style="stroke:#A80036;stroke-width:1.0;stroke-dasharray:5.0,5.0;" x1="1172.5" x2="1172.5" y1="556.6328" y2="1085.8047"/><line style="stroke:#A80036;stroke-width:1.0;stroke-dasharray:5.0,5.0;" x1="1357.5" x2="1357.5" y1="89.6094" y2="1085.8047"/><line style="stroke:#A80036;stroke-width:1.0;stroke-dasharray:5.0,5.0;" x1="1557.5" x2="1557.5" y1="89.6094" y2="1085.8047"/><line style="stroke:#A80036;stroke-width:1.0;stroke-dasharray:5.0,5.0;" x1="1787.5" x2="1787.5" y1="89.6094" y2="1085.8047"/><text fill="#000000" font-family="sans-serif" font-size="14" lengthAdjust="spacing" textLength="36" x="5" y="86.5332">Client</text><ellipse cx="26" cy="15" fill="#FEFECE" filter="url(#f13u9orrcyhufn)" rx="8" ry="8" style="stroke:#A80036;stroke-width:2.0;"/><path d="M26,23 L26,50 M13,31 L39,31 M26,50 L13,65 M26,50 L39,65 " fill="none" filter="url(#f13u9orrcyhufn)" style="stroke:#A80036;stroke-width:2.0;"/><text fill="#000000" font-family="sans-serif" font-size="14" lengthAdjust="spacing" textLength="36" x="5" y="1099.3379">Client</text><ellipse cx="26" cy="1112.4141" fill="#FEFECE" filter="url(#f13u9orrcyhufn)" rx="8" ry="8" style="stroke:#A80036;stroke-width:2.0;"/><path d="M26,1120.4141 L26,1147.4141 M13,1128.4141 L39,1128.4141 M26,1147.4141 L13,1162.4141 M26,1147.4141 L39,1162.4141 " fill="none" filter="url(#f13u9orrcyhufn)" style="stroke:#A80036;stroke-width:2.0;"/><rect fill="#FEFECE" filter="url(#f13u9orrcyhufn)" height="31.6094" style="stroke:#A80036;stroke-width:1.5;" width="139" x="202.5" y="53"/><text fill="#000000" font-family="sans-serif" font-size="14" lengthAdjust="spacing" textLength="125" x="209.5" y="74.5332">:ShowTestResultsUI</text><rect fill="#FEFECE" filter="url(#f13u9orrcyhufn)" height="31.6094" style="stroke:#A80036;stroke-width:1.5;" width="139" x="202.5" y="1084.8047"/><text fill="#000000" font-family="sans-serif" font-size="14" lengthAdjust="spacing" textLength="125" x="209.5" y="1106.3379">:ShowTestResultsUI</text><rect fill="#FEFECE" filter="url(#f13u9orrcyhufn)" height="31.6094" style="stroke:#A80036;stroke-width:1.5;" width="189" x="394.5" y="1084.8047"/><text fill="#000000" font-family="sans-serif" font-size="14" lengthAdjust="spacing" textLength="175" x="401.5" y="1106.3379">:ShowTestResultsController</text><rect fill="#FEFECE" filter="url(#f13u9orrcyhufn)" height="31.6094" style="stroke:#A80036;stroke-width:1.5;" width="78" x="597.5" y="53"/><text fill="#000000" font-family="sans-serif" font-size="14" lengthAdjust="spacing" textLength="64" x="604.5" y="74.5332">:Company</text><rect fill="#FEFECE" filter="url(#f13u9orrcyhufn)" height="31.6094" style="stroke:#A80036;stroke-width:1.5;" width="78" x="597.5" y="1084.8047"/><text fill="#000000" font-family="sans-serif" font-size="14" lengthAdjust="spacing" textLength="64" x="604.5" y="1106.3379">:Company</text><rect fill="#FEFECE" filter="url(#f13u9orrcyhufn)" height="31.6094" style="stroke:#A80036;stroke-width:1.5;" width="159" x="689.5" y="53"/><text fill="#000000" font-family="sans-serif" font-size="14" lengthAdjust="spacing" textLength="145" x="696.5" y="74.5332">clientStore: ClientStore</text><rect fill="#FEFECE" filter="url(#f13u9orrcyhufn)" height="31.6094" style="stroke:#A80036;stroke-width:1.5;" width="159" x="689.5" y="1084.8047"/><text fill="#000000" font-family="sans-serif" font-size="14" lengthAdjust="spacing" textLength="145" x="696.5" y="1106.3379">clientStore: ClientStore</text><rect fill="#FEFECE" filter="url(#f13u9orrcyhufn)" height="31.6094" style="stroke:#A80036;stroke-width:1.5;" width="137" x="862.5" y="53"/><text fill="#000000" font-family="sans-serif" font-size="14" lengthAdjust="spacing" textLength="123" x="869.5" y="74.5332">testStore:TestStore</text><rect fill="#FEFECE" filter="url(#f13u9orrcyhufn)" height="31.6094" style="stroke:#A80036;stroke-width:1.5;" width="137" x="862.5" y="1084.8047"/><text fill="#000000" font-family="sans-serif" font-size="14" lengthAdjust="spacing" textLength="123" x="869.5" y="1106.3379">testStore:TestStore</text><rect fill="#FEFECE" filter="url(#f13u9orrcyhufn)" height="31.6094" style="stroke:#A80036;stroke-width:1.5;" width="69" x="1013.5" y="53"/><text fill="#000000" font-family="sans-serif" font-size="14" lengthAdjust="spacing" textLength="55" x="1020.5" y="74.5332">test:Test</text><rect fill="#FEFECE" filter="url(#f13u9orrcyhufn)" height="31.6094" style="stroke:#A80036;stroke-width:1.5;" width="69" x="1013.5" y="1084.8047"/><text fill="#000000" font-family="sans-serif" font-size="14" lengthAdjust="spacing" textLength="55" x="1020.5" y="1106.3379">test:Test</text><rect fill="#FEFECE" filter="url(#f13u9orrcyhufn)" height="31.6094" style="stroke:#A80036;stroke-width:1.5;" width="148" x="1096.5" y="1084.8047"/><text fill="#000000" font-family="sans-serif" font-size="14" lengthAdjust="spacing" textLength="134" x="1103.5" y="1106.3379">testMap: TestMapper</text><rect fill="#FEFECE" filter="url(#f13u9orrcyhufn)" height="31.6094" style="stroke:#A80036;stroke-width:1.5;" width="195" x="1258.5" y="53"/><text fill="#000000" font-family="sans-serif" font-size="14" lengthAdjust="spacing" textLength="181" x="1265.5" y="74.5332">testParamList:TestParamList</text><rect fill="#FEFECE" filter="url(#f13u9orrcyhufn)" height="31.6094" style="stroke:#A80036;stroke-width:1.5;" width="195" x="1258.5" y="1084.8047"/><text fill="#000000" font-family="sans-serif" font-size="14" lengthAdjust="spacing" textLength="181" x="1265.5" y="1106.3379">testParamList:TestParamList</text><rect fill="#FEFECE" filter="url(#f13u9orrcyhufn)" height="31.6094" style="stroke:#A80036;stroke-width:1.5;" width="176" x="1467.5" y="53"/><text fill="#000000" font-family="sans-serif" font-size="14" lengthAdjust="spacing" textLength="162" x="1474.5" y="74.5332">testParam:TestParameter</text><rect fill="#FEFECE" filter="url(#f13u9orrcyhufn)" height="31.6094" style="stroke:#A80036;stroke-width:1.5;" width="176" x="1467.5" y="1084.8047"/><text fill="#000000" font-family="sans-serif" font-size="14" lengthAdjust="spacing" textLength="162" x="1474.5" y="1106.3379">testParam:TestParameter</text><rect fill="#FEFECE" filter="url(#f13u9orrcyhufn)" height="31.6094" style="stroke:#A80036;stroke-width:1.5;" width="256" x="1657.5" y="53"/><text fill="#000000" font-family="sans-serif" font-size="14" lengthAdjust="spacing" textLength="242" x="1664.5" y="74.5332">testParamResult:TestParameterResult</text><rect fill="#FEFECE" filter="url(#f13u9orrcyhufn)" height="31.6094" style="stroke:#A80036;stroke-width:1.5;" width="256" x="1657.5" y="1084.8047"/><text fill="#000000" font-family="sans-serif" font-size="14" lengthAdjust="spacing" textLength="242" x="1664.5" y="1106.3379">testParamResult:TestParameterResult</text><rect fill="#FFFFFF" filter="url(#f13u9orrcyhufn)" height="977.1953" style="stroke:#A80036;stroke-width:1.0;" width="10" x="21" y="99.6094"/><rect fill="#FFFFFF" filter="url(#f13u9orrcyhufn)" height="525.6797" style="stroke:#A80036;stroke-width:1.0;" width="10" x="269" y="121.9609"/><rect fill="#FFFFFF" filter="url(#f13u9orrcyhufn)" height="389.8125" style="stroke:#A80036;stroke-width:1.0;" width="10" x="269" y="677.9922"/><rect fill="#FFFFFF" filter="url(#f13u9orrcyhufn)" height="393.3672" style="stroke:#A80036;stroke-width:1.0;" width="10" x="486" y="198.9219"/><rect fill="#FFFFFF" filter="url(#f13u9orrcyhufn)" height="145.7031" style="stroke:#A80036;stroke-width:1.0;" width="10" x="486" y="708.3438"/><rect fill="#FFFFFF" filter="url(#f13u9orrcyhufn)" height="30" style="stroke:#A80036;stroke-width:1.0;" width="10" x="633.5" y="229.2734"/><rect fill="#FFFFFF" filter="url(#f13u9orrcyhufn)" height="30" style="stroke:#A80036;stroke-width:1.0;" width="10" x="633.5" y="399.9766"/><rect fill="#FFFFFF" filter="url(#f13u9orrcyhufn)" height="30" style="stroke:#A80036;stroke-width:1.0;" width="10" x="766" y="314.625"/><rect fill="#FFFFFF" filter="url(#f13u9orrcyhufn)" height="30" style="stroke:#A80036;stroke-width:1.0;" width="10" x="928" y="485.3281"/><rect fill="#FFFFFF" filter="url(#f13u9orrcyhufn)" height="30" style="stroke:#A80036;stroke-width:1.0;" width="10" x="928" y="738.6953"/><rect fill="#FFFFFF" filter="url(#f13u9orrcyhufn)" height="90.3516" style="stroke:#A80036;stroke-width:1.0;" width="10" x="1045" y="824.0469"/><rect fill="#FFFFFF" filter="url(#f13u9orrcyhufn)" height="36.6094" style="stroke:#A80036;stroke-width:1.0;" width="10" x="1167.5" y="555.6797"/><rect fill="#FFFFFF" filter="url(#f13u9orrcyhufn)" height="115.7031" style="stroke:#A80036;stroke-width:1.0;" width="10" x="1353" y="884.3984"/><rect fill="#FFFFFF" filter="url(#f13u9orrcyhufn)" height="60.3516" style="stroke:#A80036;stroke-width:1.0;" width="10" x="1552.5" y="970.1016"/><rect fill="#FFFFFF" filter="url(#f13u9orrcyhufn)" height="46.3516" style="stroke:#A80036;stroke-width:1.0;" width="10" x="1782.5" y="1030.4531"/><polygon fill="#A80036" points="257,117.9609,267,121.9609,257,125.9609,261,121.9609" style="stroke:#A80036;stroke-width:1.0;"/><line style="stroke:#A80036;stroke-width:1.0;" x1="31" x2="263" y1="121.9609" y2="121.9609"/><text fill="#000000" font-family="sans-serif" font-size="13" font-weight="bold" lengthAdjust="spacing" textLength="7" x="38" y="117.1045">1</text><text fill="#000000" font-family="sans-serif" font-size="13" lengthAdjust="spacing" textLength="208" x="49" y="117.1045">accesses application to view results</text><polygon fill="#A80036" points="382.5,148.3125,392.5,152.3125,382.5,156.3125,386.5,152.3125" style="stroke:#A80036;stroke-width:1.0;"/><line style="stroke:#A80036;stroke-width:1.0;" x1="279" x2="388.5" y1="152.3125" y2="152.3125"/><text fill="#000000" font-family="sans-serif" font-size="13" font-weight="bold" lengthAdjust="spacing" textLength="7" x="286" y="147.4561">2</text><text fill="#000000" font-family="sans-serif" font-size="13" lengthAdjust="spacing" textLength="44" x="297" y="147.4561">create()</text><rect fill="#FEFECE" filter="url(#f13u9orrcyhufn)" height="31.6094" style="stroke:#A80036;stroke-width:1.5;" width="189" x="394.5" y="129.9609"/><text fill="#000000" font-family="sans-serif" font-size="14" lengthAdjust="spacing" textLength="175" x="401.5" y="151.4941">:ShowTestResultsController</text><polygon fill="#A80036" points="474,194.9219,484,198.9219,474,202.9219,478,198.9219" style="stroke:#A80036;stroke-width:1.0;"/><line style="stroke:#A80036;stroke-width:1.0;" x1="279" x2="480" y1="198.9219" y2="198.9219"/><text fill="#000000" font-family="sans-serif" font-size="13" font-weight="bold" lengthAdjust="spacing" textLength="7" x="286" y="194.0654">3</text><text fill="#000000" font-family="sans-serif" font-size="13" lengthAdjust="spacing" textLength="145" x="297" y="194.0654">displayClientTests(email)</text><polygon fill="#A80036" points="621.5,225.2734,631.5,229.2734,621.5,233.2734,625.5,229.2734" style="stroke:#A80036;stroke-width:1.0;"/><line style="stroke:#A80036;stroke-width:1.0;" x1="496" x2="627.5" y1="229.2734" y2="229.2734"/><text fill="#000000" font-family="sans-serif" font-size="13" font-weight="bold" lengthAdjust="spacing" textLength="7" x="503" y="224.417">4</text><text fill="#000000" font-family="sans-serif" font-size="13" lengthAdjust="spacing" textLength="90" x="514" y="224.417">getClientStore()</text><polygon fill="#A80036" points="754,310.625,764,314.625,754,318.625,758,314.625" style="stroke:#A80036;stroke-width:1.0;"/><line style="stroke:#A80036;stroke-width:1.0;" x1="496" x2="760" y1="314.625" y2="314.625"/><text fill="#000000" font-family="sans-serif" font-size="13" font-weight="bold" lengthAdjust="spacing" textLength="7" x="503" y="309.7686">5</text><text fill="#000000" font-family="sans-serif" font-size="13" lengthAdjust="spacing" textLength="186" x="514" y="309.7686">client = getClientByEmail(email)</text><polygon fill="#A80036" points="621.5,395.9766,631.5,399.9766,621.5,403.9766,625.5,399.9766" style="stroke:#A80036;stroke-width:1.0;"/><line style="stroke:#A80036;stroke-width:1.0;" x1="496" x2="627.5" y1="399.9766" y2="399.9766"/><text fill="#000000" font-family="sans-serif" font-size="13" font-weight="bold" lengthAdjust="spacing" textLength="7" x="503" y="395.1201">6</text><text fill="#000000" font-family="sans-serif" font-size="13" lengthAdjust="spacing" textLength="82" x="514" y="395.1201">getTestStore()</text><polygon fill="#A80036" points="916,481.3281,926,485.3281,916,489.3281,920,485.3281" style="stroke:#A80036;stroke-width:1.0;"/><line style="stroke:#A80036;stroke-width:1.0;" x1="496" x2="922" y1="485.3281" y2="485.3281"/><text fill="#000000" font-family="sans-serif" font-size="13" font-weight="bold" lengthAdjust="spacing" textLength="7" x="503" y="480.4717">7</text><text fill="#000000" font-family="sans-serif" font-size="13" lengthAdjust="spacing" textLength="237" x="514" y="480.4717">tests = getValidatedTestsByClient(client)</text><polygon fill="#A80036" points="1084.5,541.6797,1094.5,545.6797,1084.5,549.6797,1088.5,545.6797" style="stroke:#A80036;stroke-width:1.0;"/><line style="stroke:#A80036;stroke-width:1.0;" x1="496" x2="1090.5" y1="545.6797" y2="545.6797"/><text fill="#000000" font-family="sans-serif" font-size="13" font-weight="bold" lengthAdjust="spacing" textLength="7" x="503" y="540.8232">8</text><text fill="#000000" font-family="sans-serif" font-size="13" lengthAdjust="spacing" textLength="44" x="514" y="540.8232">create()</text><rect fill="#FEFECE" filter="url(#f13u9orrcyhufn)" height="31.6094" style="stroke:#A80036;stroke-width:1.5;" width="148" x="1096.5" y="523.3281"/><text fill="#000000" font-family="sans-serif" font-size="14" lengthAdjust="spacing" textLength="134" x="1103.5" y="544.8613">testMap: TestMapper</text><polygon fill="#A80036" points="1160.5,588.2891,1170.5,592.2891,1160.5,596.2891,1164.5,592.2891" style="stroke:#A80036;stroke-width:1.0;"/><line style="stroke:#A80036;stroke-width:1.0;" x1="491" x2="1166.5" y1="592.2891" y2="592.2891"/><text fill="#000000" font-family="sans-serif" font-size="13" font-weight="bold" lengthAdjust="spacing" textLength="7" x="498" y="587.4326">9</text><text fill="#000000" font-family="sans-serif" font-size="13" lengthAdjust="spacing" textLength="89" x="509" y="587.4326">toDtoList(tests)</text><polygon fill="#A80036" points="42,643.6406,32,647.6406,42,651.6406,38,647.6406" style="stroke:#A80036;stroke-width:1.0;"/><line style="stroke:#A80036;stroke-width:1.0;stroke-dasharray:2.0,2.0;" x1="36" x2="273" y1="647.6406" y2="647.6406"/><text fill="#000000" font-family="sans-serif" font-size="13" font-weight="bold" lengthAdjust="spacing" textLength="14" x="48" y="642.7842">10</text><text fill="#000000" font-family="sans-serif" font-size="13" lengthAdjust="spacing" textLength="116" x="66" y="642.7842">displays client tests</text><polygon fill="#A80036" points="257,673.9922,267,677.9922,257,681.9922,261,677.9922" style="stroke:#A80036;stroke-width:1.0;"/><line style="stroke:#A80036;stroke-width:1.0;" x1="31" x2="263" y1="677.9922" y2="677.9922"/><text fill="#000000" font-family="sans-serif" font-size="13" font-weight="bold" lengthAdjust="spacing" textLength="14" x="38" y="673.1357">11</text><text fill="#000000" font-family="sans-serif" font-size="13" lengthAdjust="spacing" textLength="79" x="56" y="673.1357">selects a test</text><polygon fill="#A80036" points="474,704.3438,484,708.3438,474,712.3438,478,708.3438" style="stroke:#A80036;stroke-width:1.0;"/><line style="stroke:#A80036;stroke-width:1.0;" x1="279" x2="480" y1="708.3438" y2="708.3438"/><text fill="#000000" font-family="sans-serif" font-size="13" font-weight="bold" lengthAdjust="spacing" textLength="14" x="286" y="703.4873">12</text><text fill="#000000" font-family="sans-serif" font-size="13" lengthAdjust="spacing" textLength="170" x="304" y="703.4873">displayTestResults(testCode)</text><polygon fill="#A80036" points="916,734.6953,926,738.6953,916,742.6953,920,738.6953" style="stroke:#A80036;stroke-width:1.0;"/><line style="stroke:#A80036;stroke-width:1.0;" x1="496" x2="922" y1="738.6953" y2="738.6953"/><text fill="#000000" font-family="sans-serif" font-size="13" font-weight="bold" lengthAdjust="spacing" textLength="14" x="503" y="733.8389">13</text><text fill="#000000" font-family="sans-serif" font-size="13" lengthAdjust="spacing" textLength="187" x="521" y="733.8389">test = getTestByCode(testCode)</text><polygon fill="#A80036" points="1033,820.0469,1043,824.0469,1033,828.0469,1037,824.0469" style="stroke:#A80036;stroke-width:1.0;"/><line style="stroke:#A80036;stroke-width:1.0;" x1="496" x2="1039" y1="824.0469" y2="824.0469"/><text fill="#000000" font-family="sans-serif" font-size="13" font-weight="bold" lengthAdjust="spacing" textLength="14" x="503" y="819.1904">14</text><text fill="#000000" font-family="sans-serif" font-size="13" lengthAdjust="spacing" textLength="133" x="521" y="819.1904">getTestParamResults()</text><polygon fill="#A80036" points="1341,880.3984,1351,884.3984,1341,888.3984,1345,884.3984" style="stroke:#A80036;stroke-width:1.0;"/><line style="stroke:#A80036;stroke-width:1.0;" x1="1055" x2="1347" y1="884.3984" y2="884.3984"/><text fill="#000000" font-family="sans-serif" font-size="13" font-weight="bold" lengthAdjust="spacing" textLength="14" x="1062" y="879.542">15</text><text fill="#000000" font-family="sans-serif" font-size="13" lengthAdjust="spacing" textLength="133" x="1080" y="879.542">getTestParamResults()</text><path d="M1248.5,929.3984 L1321.5,929.3984 L1321.5,937.3984 L1311.5,947.3984 L1248.5,947.3984 L1248.5,929.3984 " fill="#EEEEEE" style="stroke:#000000;stroke-width:1.0;"/><rect fill="none" height="109.0547" style="stroke:#000000;stroke-width:2.0;" width="679" x="1248.5" y="929.3984"/><text fill="#000000" font-family="sans-serif" font-size="13" font-weight="bold" lengthAdjust="spacing" textLength="28" x="1263.5" y="943.8936">loop</text><text fill="#000000" font-family="sans-serif" font-size="11" font-weight="bold" lengthAdjust="spacing" textLength="139" x="1336.5" y="942.8174">[for each TestParameter]</text><polygon fill="#A80036" points="1540.5,966.1016,1550.5,970.1016,1540.5,974.1016,1544.5,970.1016" style="stroke:#A80036;stroke-width:1.0;"/><line style="stroke:#A80036;stroke-width:1.0;" x1="1363" x2="1546.5" y1="970.1016" y2="970.1016"/><text fill="#000000" font-family="sans-serif" font-size="13" font-weight="bold" lengthAdjust="spacing" textLength="14" x="1370" y="965.2451">16</text><text fill="#000000" font-family="sans-serif" font-size="13" lengthAdjust="spacing" textLength="126" x="1388" y="965.2451">getTestParamResult()</text><polygon fill="#A80036" points="1770.5,1026.4531,1780.5,1030.4531,1770.5,1034.4531,1774.5,1030.4531" style="stroke:#A80036;stroke-width:1.0;"/><line style="stroke:#A80036;stroke-width:1.0;" x1="1557.5" x2="1776.5" y1="1030.4531" y2="1030.4531"/><text fill="#000000" font-family="sans-serif" font-size="13" font-weight="bold" lengthAdjust="spacing" textLength="14" x="1564.5" y="1025.5967">17</text><text fill="#000000" font-family="sans-serif" font-size="13" lengthAdjust="spacing" textLength="26" x="1582.5" y="1025.5967">get()</text><polygon fill="#A80036" points="42,1063.8047,32,1067.8047,42,1071.8047,38,1067.8047" style="stroke:#A80036;stroke-width:1.0;"/><line style="stroke:#A80036;stroke-width:1.0;stroke-dasharray:2.0,2.0;" x1="36" x2="273" y1="1067.8047" y2="1067.8047"/><text fill="#000000" font-family="sans-serif" font-size="13" font-weight="bold" lengthAdjust="spacing" textLength="14" x="48" y="1062.9482">18</text><text fill="#000000" font-family="sans-serif" font-size="13" lengthAdjust="spacing" textLength="117" x="66" y="1062.9482">displays test results</text><!--MD5=[edbe6cac9016aabc795bd85bcfcd797a]
@startuml
autonumber

actor Client as cli
participant ":ShowTestResultsUI" as ui
participant ":ShowTestResultsController" as controller
participant ":Company" as company
participant "clientStore: ClientStore" as cstore
participant "testStore:TestStore" as tstore
participant "test:Test" as test
participant "testMap: TestMapper" as tmap
participant "testParamList:TestParamList" as testparamls
participant "testParam:TestParameter" as testparam
participant "testParamResult:TestParameterResult" as testparamres

activate cli
cli -> ui : accesses application to view results
activate ui
create controller
ui -> controller : create()
ui -> controller : displayClientTests(email)
activate controller
controller -> company : getClientStore()
activate company
|||
deactivate company
controller -> cstore : client = getClientByEmail(email)
activate cstore
|||
deactivate cstore
controller -> company : getTestStore()
activate company
|||
deactivate company
controller -> tstore : tests = getValidatedTestsByClient(client)
activate tstore
deactivate tstore
create tmap
controller -> tmap : create()
activate tmap
controller -> tmap : toDtoList(tests)
deactivate tmap
|||
deactivate tstore
deactivate controller
ui - -> cli : displays client tests
deactivate ui
cli -> ui : selects a test
activate ui
ui -> controller : displayTestResults(testCode)
activate controller
controller -> tstore : test = getTestByCode(testCode)
activate tstore
|||
deactivate tstore
controller -> test : getTestParamResults()
activate test
deactivate controller
test -> testparamls : getTestParamResults()
activate testparamls
deactivate test
loop for each TestParameter
testparamls -> testparam : getTestParamResult()
activate testparam
deactivate testparamls
testparam -> testparamres : get()
deactivate testparam
activate testparamres
deactivate testparamres
end loop
ui - -> cli : displays test results
deactivate ui
@enduml

PlantUML version 1.2021.2(Sun Mar 07 11:10:27 GMT 2021)
(GPL source distribution)
Java Runtime: OpenJDK Runtime Environment
JVM: OpenJDK 64-Bit Server VM
Default Encoding: Cp1252
Language: pt
Country: PT
--></g></svg>