<?xml version="1.0" encoding="UTF-8" standalone="no"?><svg xmlns="http://www.w3.org/2000/svg" xmlns:xlink="http://www.w3.org/1999/xlink" contentScriptType="application/ecmascript" contentStyleType="text/css" height="1094px" preserveAspectRatio="none" style="width:1813px;height:1094px;" version="1.1" viewBox="0 0 1813 1094" width="1813px" zoomAndPan="magnify"><defs><filter height="300%" id="f170vmx6jbg1ya" width="300%" x="-1" y="-1"><feGaussianBlur result="blurOut" stdDeviation="2.0"/><feColorMatrix in="blurOut" result="blurOut2" type="matrix" values="0 0 0 0 0 0 0 0 0 0 0 0 0 0 0 0 0 0 .4 0"/><feOffset dx="4.0" dy="4.0" in="blurOut2" result="blurOut3"/><feBlend in="SourceGraphic" in2="blurOut3" mode="normal"/></filter></defs><g><rect fill="#FFFFFF" filter="url(#f170vmx6jbg1ya)" height="900.2344" style="stroke:#A80036;stroke-width:1.0;" width="10" x="21" y="99.6094"/><rect fill="#FFFFFF" filter="url(#f170vmx6jbg1ya)" height="448.7188" style="stroke:#A80036;stroke-width:1.0;" width="10" x="269" y="121.9609"/><rect fill="#FFFFFF" filter="url(#f170vmx6jbg1ya)" height="389.8125" style="stroke:#A80036;stroke-width:1.0;" width="10" x="269" y="601.0313"/><rect fill="#FFFFFF" filter="url(#f170vmx6jbg1ya)" height="316.4063" style="stroke:#A80036;stroke-width:1.0;" width="10" x="486" y="198.9219"/><rect fill="#FFFFFF" filter="url(#f170vmx6jbg1ya)" height="145.7031" style="stroke:#A80036;stroke-width:1.0;" width="10" x="486" y="631.3828"/><rect fill="#FFFFFF" filter="url(#f170vmx6jbg1ya)" height="30" style="stroke:#A80036;stroke-width:1.0;" width="10" x="633.5" y="229.2734"/><rect fill="#FFFFFF" filter="url(#f170vmx6jbg1ya)" height="30" style="stroke:#A80036;stroke-width:1.0;" width="10" x="633.5" y="399.9766"/><rect fill="#FFFFFF" filter="url(#f170vmx6jbg1ya)" height="30" style="stroke:#A80036;stroke-width:1.0;" width="10" x="766" y="314.625"/><rect fill="#FFFFFF" filter="url(#f170vmx6jbg1ya)" height="30" style="stroke:#A80036;stroke-width:1.0;" width="10" x="928" y="485.3281"/><rect fill="#FFFFFF" filter="url(#f170vmx6jbg1ya)" height="30" style="stroke:#A80036;stroke-width:1.0;" width="10" x="928" y="661.7344"/><rect fill="#FFFFFF" filter="url(#f170vmx6jbg1ya)" height="90.3516" style="stroke:#A80036;stroke-width:1.0;" width="10" x="1045" y="747.0859"/><rect fill="#FFFFFF" filter="url(#f170vmx6jbg1ya)" height="115.7031" style="stroke:#A80036;stroke-width:1.0;" width="10" x="1225" y="807.4375"/><rect fill="#FFFFFF" filter="url(#f170vmx6jbg1ya)" height="60.3516" style="stroke:#A80036;stroke-width:1.0;" width="10" x="1424.5" y="893.1406"/><rect fill="#FFFFFF" filter="url(#f170vmx6jbg1ya)" height="46.3516" style="stroke:#A80036;stroke-width:1.0;" width="10" x="1654.5" y="953.4922"/><rect fill="#FFFFFF" filter="url(#f170vmx6jbg1ya)" height="109.0547" style="stroke:#000000;stroke-width:2.0;" width="679" x="1120.5" y="852.4375"/><line style="stroke:#A80036;stroke-width:1.0;stroke-dasharray:5.0,5.0;" x1="26" x2="26" y1="89.6094" y2="1008.8438"/><line style="stroke:#A80036;stroke-width:1.0;stroke-dasharray:5.0,5.0;" x1="273.5" x2="273.5" y1="89.6094" y2="1008.8438"/><line style="stroke:#A80036;stroke-width:1.0;stroke-dasharray:5.0,5.0;" x1="490.5" x2="490.5" y1="163.2656" y2="1008.8438"/><line style="stroke:#A80036;stroke-width:1.0;stroke-dasharray:5.0,5.0;" x1="638.5" x2="638.5" y1="89.6094" y2="1008.8438"/><line style="stroke:#A80036;stroke-width:1.0;stroke-dasharray:5.0,5.0;" x1="770.5" x2="770.5" y1="89.6094" y2="1008.8438"/><line style="stroke:#A80036;stroke-width:1.0;stroke-dasharray:5.0,5.0;" x1="932.5" x2="932.5" y1="89.6094" y2="1008.8438"/><line style="stroke:#A80036;stroke-width:1.0;stroke-dasharray:5.0,5.0;" x1="1049.5" x2="1049.5" y1="89.6094" y2="1008.8438"/><line style="stroke:#A80036;stroke-width:1.0;stroke-dasharray:5.0,5.0;" x1="1229.5" x2="1229.5" y1="89.6094" y2="1008.8438"/><line style="stroke:#A80036;stroke-width:1.0;stroke-dasharray:5.0,5.0;" x1="1429.5" x2="1429.5" y1="89.6094" y2="1008.8438"/><line style="stroke:#A80036;stroke-width:1.0;stroke-dasharray:5.0,5.0;" x1="1659.5" x2="1659.5" y1="89.6094" y2="1008.8438"/><text fill="#000000" font-family="sans-serif" font-size="14" lengthAdjust="spacing" textLength="36" x="5" y="86.5332">Client</text><ellipse cx="26" cy="15" fill="#FEFECE" filter="url(#f170vmx6jbg1ya)" rx="8" ry="8" style="stroke:#A80036;stroke-width:2.0;"/><path d="M26,23 L26,50 M13,31 L39,31 M26,50 L13,65 M26,50 L39,65 " fill="none" filter="url(#f170vmx6jbg1ya)" style="stroke:#A80036;stroke-width:2.0;"/><text fill="#000000" font-family="sans-serif" font-size="14" lengthAdjust="spacing" textLength="36" x="5" y="1022.377">Client</text><ellipse cx="26" cy="1035.4531" fill="#FEFECE" filter="url(#f170vmx6jbg1ya)" rx="8" ry="8" style="stroke:#A80036;stroke-width:2.0;"/><path d="M26,1043.4531 L26,1070.4531 M13,1051.4531 L39,1051.4531 M26,1070.4531 L13,1085.4531 M26,1070.4531 L39,1085.4531 " fill="none" filter="url(#f170vmx6jbg1ya)" style="stroke:#A80036;stroke-width:2.0;"/><rect fill="#FEFECE" filter="url(#f170vmx6jbg1ya)" height="31.6094" style="stroke:#A80036;stroke-width:1.5;" width="139" x="202.5" y="53"/><text fill="#000000" font-family="sans-serif" font-size="14" lengthAdjust="spacing" textLength="125" x="209.5" y="74.5332">:ShowTestResultsUI</text><rect fill="#FEFECE" filter="url(#f170vmx6jbg1ya)" height="31.6094" style="stroke:#A80036;stroke-width:1.5;" width="139" x="202.5" y="1007.8438"/><text fill="#000000" font-family="sans-serif" font-size="14" lengthAdjust="spacing" textLength="125" x="209.5" y="1029.377">:ShowTestResultsUI</text><rect fill="#FEFECE" filter="url(#f170vmx6jbg1ya)" height="31.6094" style="stroke:#A80036;stroke-width:1.5;" width="189" x="394.5" y="1007.8438"/><text fill="#000000" font-family="sans-serif" font-size="14" lengthAdjust="spacing" textLength="175" x="401.5" y="1029.377">:ShowTestResultsController</text><rect fill="#FEFECE" filter="url(#f170vmx6jbg1ya)" height="31.6094" style="stroke:#A80036;stroke-width:1.5;" width="78" x="597.5" y="53"/><text fill="#000000" font-family="sans-serif" font-size="14" lengthAdjust="spacing" textLength="64" x="604.5" y="74.5332">:Company</text><rect fill="#FEFECE" filter="url(#f170vmx6jbg1ya)" height="31.6094" style="stroke:#A80036;stroke-width:1.5;" width="78" x="597.5" y="1007.8438"/><text fill="#000000" font-family="sans-serif" font-size="14" lengthAdjust="spacing" textLength="64" x="604.5" y="1029.377">:Company</text><rect fill="#FEFECE" filter="url(#f170vmx6jbg1ya)" height="31.6094" style="stroke:#A80036;stroke-width:1.5;" width="159" x="689.5" y="53"/><text fill="#000000" font-family="sans-serif" font-size="14" lengthAdjust="spacing" textLength="145" x="696.5" y="74.5332">clientStore: ClientStore</text><rect fill="#FEFECE" filter="url(#f170vmx6jbg1ya)" height="31.6094" style="stroke:#A80036;stroke-width:1.5;" width="159" x="689.5" y="1007.8438"/><text fill="#000000" font-family="sans-serif" font-size="14" lengthAdjust="spacing" textLength="145" x="696.5" y="1029.377">clientStore: ClientStore</text><rect fill="#FEFECE" filter="url(#f170vmx6jbg1ya)" height="31.6094" style="stroke:#A80036;stroke-width:1.5;" width="137" x="862.5" y="53"/><text fill="#000000" font-family="sans-serif" font-size="14" lengthAdjust="spacing" textLength="123" x="869.5" y="74.5332">testStore:TestStore</text><rect fill="#FEFECE" filter="url(#f170vmx6jbg1ya)" height="31.6094" style="stroke:#A80036;stroke-width:1.5;" width="137" x="862.5" y="1007.8438"/><text fill="#000000" font-family="sans-serif" font-size="14" lengthAdjust="spacing" textLength="123" x="869.5" y="1029.377">testStore:TestStore</text><rect fill="#FEFECE" filter="url(#f170vmx6jbg1ya)" height="31.6094" style="stroke:#A80036;stroke-width:1.5;" width="69" x="1013.5" y="53"/><text fill="#000000" font-family="sans-serif" font-size="14" lengthAdjust="spacing" textLength="55" x="1020.5" y="74.5332">test:Test</text><rect fill="#FEFECE" filter="url(#f170vmx6jbg1ya)" height="31.6094" style="stroke:#A80036;stroke-width:1.5;" width="69" x="1013.5" y="1007.8438"/><text fill="#000000" font-family="sans-serif" font-size="14" lengthAdjust="spacing" textLength="55" x="1020.5" y="1029.377">test:Test</text><rect fill="#FEFECE" filter="url(#f170vmx6jbg1ya)" height="31.6094" style="stroke:#A80036;stroke-width:1.5;" width="195" x="1130.5" y="53"/><text fill="#000000" font-family="sans-serif" font-size="14" lengthAdjust="spacing" textLength="181" x="1137.5" y="74.5332">testParamList:TestParamList</text><rect fill="#FEFECE" filter="url(#f170vmx6jbg1ya)" height="31.6094" style="stroke:#A80036;stroke-width:1.5;" width="195" x="1130.5" y="1007.8438"/><text fill="#000000" font-family="sans-serif" font-size="14" lengthAdjust="spacing" textLength="181" x="1137.5" y="1029.377">testParamList:TestParamList</text><rect fill="#FEFECE" filter="url(#f170vmx6jbg1ya)" height="31.6094" style="stroke:#A80036;stroke-width:1.5;" width="176" x="1339.5" y="53"/><text fill="#000000" font-family="sans-serif" font-size="14" lengthAdjust="spacing" textLength="162" x="1346.5" y="74.5332">testParam:TestParameter</text><rect fill="#FEFECE" filter="url(#f170vmx6jbg1ya)" height="31.6094" style="stroke:#A80036;stroke-width:1.5;" width="176" x="1339.5" y="1007.8438"/><text fill="#000000" font-family="sans-serif" font-size="14" lengthAdjust="spacing" textLength="162" x="1346.5" y="1029.377">testParam:TestParameter</text><rect fill="#FEFECE" filter="url(#f170vmx6jbg1ya)" height="31.6094" style="stroke:#A80036;stroke-width:1.5;" width="256" x="1529.5" y="53"/><text fill="#000000" font-family="sans-serif" font-size="14" lengthAdjust="spacing" textLength="242" x="1536.5" y="74.5332">testParamResult:TestParameterResult</text><rect fill="#FEFECE" filter="url(#f170vmx6jbg1ya)" height="31.6094" style="stroke:#A80036;stroke-width:1.5;" width="256" x="1529.5" y="1007.8438"/><text fill="#000000" font-family="sans-serif" font-size="14" lengthAdjust="spacing" textLength="242" x="1536.5" y="1029.377">testParamResult:TestParameterResult</text><rect fill="#FFFFFF" filter="url(#f170vmx6jbg1ya)" height="900.2344" style="stroke:#A80036;stroke-width:1.0;" width="10" x="21" y="99.6094"/><rect fill="#FFFFFF" filter="url(#f170vmx6jbg1ya)" height="448.7188" style="stroke:#A80036;stroke-width:1.0;" width="10" x="269" y="121.9609"/><rect fill="#FFFFFF" filter="url(#f170vmx6jbg1ya)" height="389.8125" style="stroke:#A80036;stroke-width:1.0;" width="10" x="269" y="601.0313"/><rect fill="#FFFFFF" filter="url(#f170vmx6jbg1ya)" height="316.4063" style="stroke:#A80036;stroke-width:1.0;" width="10" x="486" y="198.9219"/><rect fill="#FFFFFF" filter="url(#f170vmx6jbg1ya)" height="145.7031" style="stroke:#A80036;stroke-width:1.0;" width="10" x="486" y="631.3828"/><rect fill="#FFFFFF" filter="url(#f170vmx6jbg1ya)" height="30" style="stroke:#A80036;stroke-width:1.0;" width="10" x="633.5" y="229.2734"/><rect fill="#FFFFFF" filter="url(#f170vmx6jbg1ya)" height="30" style="stroke:#A80036;stroke-width:1.0;" width="10" x="633.5" y="399.9766"/><rect fill="#FFFFFF" filter="url(#f170vmx6jbg1ya)" height="30" style="stroke:#A80036;stroke-width:1.0;" width="10" x="766" y="314.625"/><rect fill="#FFFFFF" filter="url(#f170vmx6jbg1ya)" height="30" style="stroke:#A80036;stroke-width:1.0;" width="10" x="928" y="485.3281"/><rect fill="#FFFFFF" filter="url(#f170vmx6jbg1ya)" height="30" style="stroke:#A80036;stroke-width:1.0;" width="10" x="928" y="661.7344"/><rect fill="#FFFFFF" filter="url(#f170vmx6jbg1ya)" height="90.3516" style="stroke:#A80036;stroke-width:1.0;" width="10" x="1045" y="747.0859"/><rect fill="#FFFFFF" filter="url(#f170vmx6jbg1ya)" height="115.7031" style="stroke:#A80036;stroke-width:1.0;" width="10" x="1225" y="807.4375"/><rect fill="#FFFFFF" filter="url(#f170vmx6jbg1ya)" height="60.3516" style="stroke:#A80036;stroke-width:1.0;" width="10" x="1424.5" y="893.1406"/><rect fill="#FFFFFF" filter="url(#f170vmx6jbg1ya)" height="46.3516" style="stroke:#A80036;stroke-width:1.0;" width="10" x="1654.5" y="953.4922"/><polygon fill="#A80036" points="257,117.9609,267,121.9609,257,125.9609,261,121.9609" style="stroke:#A80036;stroke-width:1.0;"/><line style="stroke:#A80036;stroke-width:1.0;" x1="31" x2="263" y1="121.9609" y2="121.9609"/><text fill="#000000" font-family="sans-serif" font-size="13" font-weight="bold" lengthAdjust="spacing" textLength="7" x="38" y="117.1045">1</text><text fill="#000000" font-family="sans-serif" font-size="13" lengthAdjust="spacing" textLength="208" x="49" y="117.1045">accesses application to view results</text><polygon fill="#A80036" points="382.5,148.3125,392.5,152.3125,382.5,156.3125,386.5,152.3125" style="stroke:#A80036;stroke-width:1.0;"/><line style="stroke:#A80036;stroke-width:1.0;" x1="279" x2="388.5" y1="152.3125" y2="152.3125"/><text fill="#000000" font-family="sans-serif" font-size="13" font-weight="bold" lengthAdjust="spacing" textLength="7" x="286" y="147.4561">2</text><text fill="#000000" font-family="sans-serif" font-size="13" lengthAdjust="spacing" textLength="44" x="297" y="147.4561">create()</text><rect fill="#FEFECE" filter="url(#f170vmx6jbg1ya)" height="31.6094" style="stroke:#A80036;stroke-width:1.5;" width="189" x="394.5" y="129.9609"/><text fill="#000000" font-family="sans-serif" font-size="14" lengthAdjust="spacing" textLength="175" x="401.5" y="151.4941">:ShowTestResultsController</text><polygon fill="#A80036" points="474,194.9219,484,198.9219,474,202.9219,478,198.9219" style="stroke:#A80036;stroke-width:1.0;"/><line style="stroke:#A80036;stroke-width:1.0;" x1="279" x2="480" y1="198.9219" y2="198.9219"/><text fill="#000000" font-family="sans-serif" font-size="13" font-weight="bold" lengthAdjust="spacing" textLength="7" x="286" y="194.0654">3</text><text fill="#000000" font-family="sans-serif" font-size="13" lengthAdjust="spacing" textLength="145" x="297" y="194.0654">displayClientTests(email)</text><polygon fill="#A80036" points="621.5,225.2734,631.5,229.2734,621.5,233.2734,625.5,229.2734" style="stroke:#A80036;stroke-width:1.0;"/><line style="stroke:#A80036;stroke-width:1.0;" x1="496" x2="627.5" y1="229.2734" y2="229.2734"/><text fill="#000000" font-family="sans-serif" font-size="13" font-weight="bold" lengthAdjust="spacing" textLength="7" x="503" y="224.417">4</text><text fill="#000000" font-family="sans-serif" font-size="13" lengthAdjust="spacing" textLength="90" x="514" y="224.417">getClientStore()</text><polygon fill="#A80036" points="754,310.625,764,314.625,754,318.625,758,314.625" style="stroke:#A80036;stroke-width:1.0;"/><line style="stroke:#A80036;stroke-width:1.0;" x1="496" x2="760" y1="314.625" y2="314.625"/><text fill="#000000" font-family="sans-serif" font-size="13" font-weight="bold" lengthAdjust="spacing" textLength="7" x="503" y="309.7686">5</text><text fill="#000000" font-family="sans-serif" font-size="13" lengthAdjust="spacing" textLength="137" x="514" y="309.7686">client = getClient(email)</text><polygon fill="#A80036" points="621.5,395.9766,631.5,399.9766,621.5,403.9766,625.5,399.9766" style="stroke:#A80036;stroke-width:1.0;"/><line style="stroke:#A80036;stroke-width:1.0;" x1="496" x2="627.5" y1="399.9766" y2="399.9766"/><text fill="#000000" font-family="sans-serif" font-size="13" font-weight="bold" lengthAdjust="spacing" textLength="7" x="503" y="395.1201">6</text><text fill="#000000" font-family="sans-serif" font-size="13" lengthAdjust="spacing" textLength="82" x="514" y="395.1201">getTestStore()</text><polygon fill="#A80036" points="916,481.3281,926,485.3281,916,489.3281,920,485.3281" style="stroke:#A80036;stroke-width:1.0;"/><line style="stroke:#A80036;stroke-width:1.0;" x1="496" x2="922" y1="485.3281" y2="485.3281"/><text fill="#000000" font-family="sans-serif" font-size="13" font-weight="bold" lengthAdjust="spacing" textLength="7" x="503" y="480.4717">7</text><text fill="#000000" font-family="sans-serif" font-size="13" lengthAdjust="spacing" textLength="138" x="514" y="480.4717">getTestsByClient(client)</text><polygon fill="#A80036" points="42,566.6797,32,570.6797,42,574.6797,38,570.6797" style="stroke:#A80036;stroke-width:1.0;"/><line style="stroke:#A80036;stroke-width:1.0;stroke-dasharray:2.0,2.0;" x1="36" x2="273" y1="570.6797" y2="570.6797"/><text fill="#000000" font-family="sans-serif" font-size="13" font-weight="bold" lengthAdjust="spacing" textLength="7" x="48" y="565.8232">8</text><text fill="#000000" font-family="sans-serif" font-size="13" lengthAdjust="spacing" textLength="116" x="59" y="565.8232">displays client tests</text><polygon fill="#A80036" points="257,597.0313,267,601.0313,257,605.0313,261,601.0313" style="stroke:#A80036;stroke-width:1.0;"/><line style="stroke:#A80036;stroke-width:1.0;" x1="31" x2="263" y1="601.0313" y2="601.0313"/><text fill="#000000" font-family="sans-serif" font-size="13" font-weight="bold" lengthAdjust="spacing" textLength="7" x="38" y="596.1748">9</text><text fill="#000000" font-family="sans-serif" font-size="13" lengthAdjust="spacing" textLength="79" x="49" y="596.1748">selects a test</text><polygon fill="#A80036" points="474,627.3828,484,631.3828,474,635.3828,478,631.3828" style="stroke:#A80036;stroke-width:1.0;"/><line style="stroke:#A80036;stroke-width:1.0;" x1="279" x2="480" y1="631.3828" y2="631.3828"/><text fill="#000000" font-family="sans-serif" font-size="13" font-weight="bold" lengthAdjust="spacing" textLength="14" x="286" y="626.5264">10</text><text fill="#000000" font-family="sans-serif" font-size="13" lengthAdjust="spacing" textLength="170" x="304" y="626.5264">displayTestResults(testCode)</text><polygon fill="#A80036" points="916,657.7344,926,661.7344,916,665.7344,920,661.7344" style="stroke:#A80036;stroke-width:1.0;"/><line style="stroke:#A80036;stroke-width:1.0;" x1="496" x2="922" y1="661.7344" y2="661.7344"/><text fill="#000000" font-family="sans-serif" font-size="13" font-weight="bold" lengthAdjust="spacing" textLength="14" x="503" y="656.8779">11</text><text fill="#000000" font-family="sans-serif" font-size="13" lengthAdjust="spacing" textLength="141" x="521" y="656.8779">test = getTest(testCode)</text><polygon fill="#A80036" points="1033,743.0859,1043,747.0859,1033,751.0859,1037,747.0859" style="stroke:#A80036;stroke-width:1.0;"/><line style="stroke:#A80036;stroke-width:1.0;" x1="496" x2="1039" y1="747.0859" y2="747.0859"/><text fill="#000000" font-family="sans-serif" font-size="13" font-weight="bold" lengthAdjust="spacing" textLength="14" x="503" y="742.2295">12</text><text fill="#000000" font-family="sans-serif" font-size="13" lengthAdjust="spacing" textLength="133" x="521" y="742.2295">getTestParamResults()</text><polygon fill="#A80036" points="1213,803.4375,1223,807.4375,1213,811.4375,1217,807.4375" style="stroke:#A80036;stroke-width:1.0;"/><line style="stroke:#A80036;stroke-width:1.0;" x1="1055" x2="1219" y1="807.4375" y2="807.4375"/><text fill="#000000" font-family="sans-serif" font-size="13" font-weight="bold" lengthAdjust="spacing" textLength="14" x="1062" y="802.5811">13</text><text fill="#000000" font-family="sans-serif" font-size="13" lengthAdjust="spacing" textLength="133" x="1080" y="802.5811">getTestParamResults()</text><path d="M1120.5,852.4375 L1193.5,852.4375 L1193.5,860.4375 L1183.5,870.4375 L1120.5,870.4375 L1120.5,852.4375 " fill="#EEEEEE" style="stroke:#000000;stroke-width:1.0;"/><rect fill="none" height="109.0547" style="stroke:#000000;stroke-width:2.0;" width="679" x="1120.5" y="852.4375"/><text fill="#000000" font-family="sans-serif" font-size="13" font-weight="bold" lengthAdjust="spacing" textLength="28" x="1135.5" y="866.9326">loop</text><text fill="#000000" font-family="sans-serif" font-size="11" font-weight="bold" lengthAdjust="spacing" textLength="139" x="1208.5" y="865.8564">[for each TestParameter]</text><polygon fill="#A80036" points="1412.5,889.1406,1422.5,893.1406,1412.5,897.1406,1416.5,893.1406" style="stroke:#A80036;stroke-width:1.0;"/><line style="stroke:#A80036;stroke-width:1.0;" x1="1235" x2="1418.5" y1="893.1406" y2="893.1406"/><text fill="#000000" font-family="sans-serif" font-size="13" font-weight="bold" lengthAdjust="spacing" textLength="14" x="1242" y="888.2842">14</text><text fill="#000000" font-family="sans-serif" font-size="13" lengthAdjust="spacing" textLength="126" x="1260" y="888.2842">getTestParamResult()</text><polygon fill="#A80036" points="1642.5,949.4922,1652.5,953.4922,1642.5,957.4922,1646.5,953.4922" style="stroke:#A80036;stroke-width:1.0;"/><line style="stroke:#A80036;stroke-width:1.0;" x1="1429.5" x2="1648.5" y1="953.4922" y2="953.4922"/><text fill="#000000" font-family="sans-serif" font-size="13" font-weight="bold" lengthAdjust="spacing" textLength="14" x="1436.5" y="948.6357">15</text><text fill="#000000" font-family="sans-serif" font-size="13" lengthAdjust="spacing" textLength="26" x="1454.5" y="948.6357">get()</text><polygon fill="#A80036" points="42,986.8438,32,990.8438,42,994.8438,38,990.8438" style="stroke:#A80036;stroke-width:1.0;"/><line style="stroke:#A80036;stroke-width:1.0;stroke-dasharray:2.0,2.0;" x1="36" x2="273" y1="990.8438" y2="990.8438"/><text fill="#000000" font-family="sans-serif" font-size="13" font-weight="bold" lengthAdjust="spacing" textLength="14" x="48" y="985.9873">16</text><text fill="#000000" font-family="sans-serif" font-size="13" lengthAdjust="spacing" textLength="117" x="66" y="985.9873">displays test results</text><!--MD5=[cdfd2172b0d844eec8002bc814f0743d]
@startuml
autonumber

actor Client as cli
participant ":ShowTestResultsUI" as ui
participant ":ShowTestResultsController" as controller
participant ":Company" as company
participant "clientStore: ClientStore" as cstore
participant "testStore:TestStore" as tstore
participant "test:Test" as test
participant "testParamList:TestParamList" as testparamls
participant "testParam:TestParameter" as testparam
participant "testParamResult:TestParameterResult" as testparamres

activate cli
cli -> ui : accesses application to view results
activate ui
create controller
ui -> controller : create()
ui -> controller : displayClientTests(email)
activate controller
controller -> company : getClientStore()
activate company
|||
deactivate company
controller -> cstore : client = getClient(email)
activate cstore
|||
deactivate cstore
controller -> company : getTestStore()
activate company
|||
deactivate company
controller -> tstore : getTestsByClient(client)
activate tstore
|||
deactivate tstore
deactivate controller
ui - -> cli : displays client tests
deactivate ui
cli -> ui : selects a test
activate ui
ui -> controller : displayTestResults(testCode)
activate controller
controller -> tstore : test = getTest(testCode)
activate tstore
|||
deactivate tstore
controller -> test : getTestParamResults()
activate test
deactivate controller
test -> testparamls : getTestParamResults()
activate testparamls
deactivate test
loop for each TestParameter
testparamls -> testparam : getTestParamResult()
activate testparam
deactivate testparamls
testparam -> testparamres : get()
deactivate testparam
activate testparamres
deactivate testparamres
end loop
ui - -> cli : displays test results
deactivate ui
@enduml

PlantUML version 1.2021.2(Sun Mar 07 11:10:27 GMT 2021)
(GPL source distribution)
Java Runtime: OpenJDK Runtime Environment
JVM: OpenJDK 64-Bit Server VM
Default Encoding: Cp1252
Language: pt
Country: PT
--></g></svg>