<?xml version="1.0" encoding="UTF-8" standalone="no"?><svg xmlns="http://www.w3.org/2000/svg" xmlns:xlink="http://www.w3.org/1999/xlink" contentScriptType="application/ecmascript" contentStyleType="text/css" height="1125px" preserveAspectRatio="none" style="width:1736px;height:1125px;" version="1.1" viewBox="0 0 1736 1125" width="1736px" zoomAndPan="magnify"><defs><filter height="300%" id="f1e2oadqp7e8k8" width="300%" x="-1" y="-1"><feGaussianBlur result="blurOut" stdDeviation="2.0"/><feColorMatrix in="blurOut" result="blurOut2" type="matrix" values="0 0 0 0 0 0 0 0 0 0 0 0 0 0 0 0 0 0 .4 0"/><feOffset dx="4.0" dy="4.0" in="blurOut2" result="blurOut3"/><feBlend in="SourceGraphic" in2="blurOut3" mode="normal"/></filter></defs><g><rect fill="#FFFFFF" filter="url(#f1e2oadqp7e8k8)" height="931.1016" style="stroke:#A80036;stroke-width:1.0;" width="10" x="21" y="99.6094"/><rect fill="#FFFFFF" filter="url(#f1e2oadqp7e8k8)" height="525.6797" style="stroke:#A80036;stroke-width:1.0;" width="10" x="269" y="121.9609"/><rect fill="#FFFFFF" filter="url(#f1e2oadqp7e8k8)" height="343.7188" style="stroke:#A80036;stroke-width:1.0;" width="10" x="269" y="677.9922"/><rect fill="#FFFFFF" filter="url(#f1e2oadqp7e8k8)" height="393.3672" style="stroke:#A80036;stroke-width:1.0;" width="10" x="486" y="198.9219"/><rect fill="#FFFFFF" filter="url(#f1e2oadqp7e8k8)" height="283.0156" style="stroke:#A80036;stroke-width:1.0;" width="10" x="486" y="708.3438"/><rect fill="#FFFFFF" filter="url(#f1e2oadqp7e8k8)" height="30" style="stroke:#A80036;stroke-width:1.0;" width="10" x="633.5" y="229.2734"/><rect fill="#FFFFFF" filter="url(#f1e2oadqp7e8k8)" height="30" style="stroke:#A80036;stroke-width:1.0;" width="10" x="633.5" y="399.9766"/><rect fill="#FFFFFF" filter="url(#f1e2oadqp7e8k8)" height="30" style="stroke:#A80036;stroke-width:1.0;" width="10" x="766" y="314.625"/><rect fill="#FFFFFF" filter="url(#f1e2oadqp7e8k8)" height="30" style="stroke:#A80036;stroke-width:1.0;" width="10" x="928" y="485.3281"/><rect fill="#FFFFFF" filter="url(#f1e2oadqp7e8k8)" height="30" style="stroke:#A80036;stroke-width:1.0;" width="10" x="928" y="738.6953"/><rect fill="#FFFFFF" filter="url(#f1e2oadqp7e8k8)" height="30" style="stroke:#A80036;stroke-width:1.0;" width="10" x="1045" y="824.0469"/><rect fill="#FFFFFF" filter="url(#f1e2oadqp7e8k8)" height="36.6094" style="stroke:#A80036;stroke-width:1.0;" width="10" x="1167.5" y="555.6797"/><rect fill="#FFFFFF" filter="url(#f1e2oadqp7e8k8)" height="30" style="stroke:#A80036;stroke-width:1.0;" width="10" x="1355" y="884.3984"/><rect fill="#FFFFFF" filter="url(#f1e2oadqp7e8k8)" height="36.6094" style="stroke:#A80036;stroke-width:1.0;" width="10" x="1594" y="954.75"/><line style="stroke:#A80036;stroke-width:1.0;stroke-dasharray:5.0,5.0;" x1="26" x2="26" y1="89.6094" y2="1039.7109"/><line style="stroke:#A80036;stroke-width:1.0;stroke-dasharray:5.0,5.0;" x1="273.5" x2="273.5" y1="89.6094" y2="1039.7109"/><line style="stroke:#A80036;stroke-width:1.0;stroke-dasharray:5.0,5.0;" x1="490.5" x2="490.5" y1="163.2656" y2="1039.7109"/><line style="stroke:#A80036;stroke-width:1.0;stroke-dasharray:5.0,5.0;" x1="638.5" x2="638.5" y1="89.6094" y2="1039.7109"/><line style="stroke:#A80036;stroke-width:1.0;stroke-dasharray:5.0,5.0;" x1="770.5" x2="770.5" y1="89.6094" y2="1039.7109"/><line style="stroke:#A80036;stroke-width:1.0;stroke-dasharray:5.0,5.0;" x1="932.5" x2="932.5" y1="89.6094" y2="1039.7109"/><line style="stroke:#A80036;stroke-width:1.0;stroke-dasharray:5.0,5.0;" x1="1049.5" x2="1049.5" y1="89.6094" y2="1039.7109"/><line style="stroke:#A80036;stroke-width:1.0;stroke-dasharray:5.0,5.0;" x1="1172.5" x2="1172.5" y1="556.6328" y2="1039.7109"/><line style="stroke:#A80036;stroke-width:1.0;stroke-dasharray:5.0,5.0;" x1="1359.5" x2="1359.5" y1="89.6094" y2="1039.7109"/><line style="stroke:#A80036;stroke-width:1.0;stroke-dasharray:5.0,5.0;" x1="1598.5" x2="1598.5" y1="955.7031" y2="1039.7109"/><text fill="#000000" font-family="sans-serif" font-size="14" lengthAdjust="spacing" textLength="36" x="5" y="86.5332">Client</text><ellipse cx="26" cy="15" fill="#FEFECE" filter="url(#f1e2oadqp7e8k8)" rx="8" ry="8" style="stroke:#A80036;stroke-width:2.0;"/><path d="M26,23 L26,50 M13,31 L39,31 M26,50 L13,65 M26,50 L39,65 " fill="none" filter="url(#f1e2oadqp7e8k8)" style="stroke:#A80036;stroke-width:2.0;"/><text fill="#000000" font-family="sans-serif" font-size="14" lengthAdjust="spacing" textLength="36" x="5" y="1053.2441">Client</text><ellipse cx="26" cy="1066.3203" fill="#FEFECE" filter="url(#f1e2oadqp7e8k8)" rx="8" ry="8" style="stroke:#A80036;stroke-width:2.0;"/><path d="M26,1074.3203 L26,1101.3203 M13,1082.3203 L39,1082.3203 M26,1101.3203 L13,1116.3203 M26,1101.3203 L39,1116.3203 " fill="none" filter="url(#f1e2oadqp7e8k8)" style="stroke:#A80036;stroke-width:2.0;"/><rect fill="#FEFECE" filter="url(#f1e2oadqp7e8k8)" height="31.6094" style="stroke:#A80036;stroke-width:1.5;" width="139" x="202.5" y="53"/><text fill="#000000" font-family="sans-serif" font-size="14" lengthAdjust="spacing" textLength="125" x="209.5" y="74.5332">:ShowTestResultsUI</text><rect fill="#FEFECE" filter="url(#f1e2oadqp7e8k8)" height="31.6094" style="stroke:#A80036;stroke-width:1.5;" width="139" x="202.5" y="1038.7109"/><text fill="#000000" font-family="sans-serif" font-size="14" lengthAdjust="spacing" textLength="125" x="209.5" y="1060.2441">:ShowTestResultsUI</text><rect fill="#FEFECE" filter="url(#f1e2oadqp7e8k8)" height="31.6094" style="stroke:#A80036;stroke-width:1.5;" width="189" x="394.5" y="1038.7109"/><text fill="#000000" font-family="sans-serif" font-size="14" lengthAdjust="spacing" textLength="175" x="401.5" y="1060.2441">:ShowTestResultsController</text><rect fill="#FEFECE" filter="url(#f1e2oadqp7e8k8)" height="31.6094" style="stroke:#A80036;stroke-width:1.5;" width="78" x="597.5" y="53"/><text fill="#000000" font-family="sans-serif" font-size="14" lengthAdjust="spacing" textLength="64" x="604.5" y="74.5332">:Company</text><rect fill="#FEFECE" filter="url(#f1e2oadqp7e8k8)" height="31.6094" style="stroke:#A80036;stroke-width:1.5;" width="78" x="597.5" y="1038.7109"/><text fill="#000000" font-family="sans-serif" font-size="14" lengthAdjust="spacing" textLength="64" x="604.5" y="1060.2441">:Company</text><rect fill="#FEFECE" filter="url(#f1e2oadqp7e8k8)" height="31.6094" style="stroke:#A80036;stroke-width:1.5;" width="159" x="689.5" y="53"/><text fill="#000000" font-family="sans-serif" font-size="14" lengthAdjust="spacing" textLength="145" x="696.5" y="74.5332">clientStore: ClientStore</text><rect fill="#FEFECE" filter="url(#f1e2oadqp7e8k8)" height="31.6094" style="stroke:#A80036;stroke-width:1.5;" width="159" x="689.5" y="1038.7109"/><text fill="#000000" font-family="sans-serif" font-size="14" lengthAdjust="spacing" textLength="145" x="696.5" y="1060.2441">clientStore: ClientStore</text><rect fill="#FEFECE" filter="url(#f1e2oadqp7e8k8)" height="31.6094" style="stroke:#A80036;stroke-width:1.5;" width="137" x="862.5" y="53"/><text fill="#000000" font-family="sans-serif" font-size="14" lengthAdjust="spacing" textLength="123" x="869.5" y="74.5332">testStore:TestStore</text><rect fill="#FEFECE" filter="url(#f1e2oadqp7e8k8)" height="31.6094" style="stroke:#A80036;stroke-width:1.5;" width="137" x="862.5" y="1038.7109"/><text fill="#000000" font-family="sans-serif" font-size="14" lengthAdjust="spacing" textLength="123" x="869.5" y="1060.2441">testStore:TestStore</text><rect fill="#FEFECE" filter="url(#f1e2oadqp7e8k8)" height="31.6094" style="stroke:#A80036;stroke-width:1.5;" width="69" x="1013.5" y="53"/><text fill="#000000" font-family="sans-serif" font-size="14" lengthAdjust="spacing" textLength="55" x="1020.5" y="74.5332">test:Test</text><rect fill="#FEFECE" filter="url(#f1e2oadqp7e8k8)" height="31.6094" style="stroke:#A80036;stroke-width:1.5;" width="69" x="1013.5" y="1038.7109"/><text fill="#000000" font-family="sans-serif" font-size="14" lengthAdjust="spacing" textLength="55" x="1020.5" y="1060.2441">test:Test</text><rect fill="#FEFECE" filter="url(#f1e2oadqp7e8k8)" height="31.6094" style="stroke:#A80036;stroke-width:1.5;" width="148" x="1096.5" y="1038.7109"/><text fill="#000000" font-family="sans-serif" font-size="14" lengthAdjust="spacing" textLength="134" x="1103.5" y="1060.2441">testMap: TestMapper</text><rect fill="#FEFECE" filter="url(#f1e2oadqp7e8k8)" height="31.6094" style="stroke:#A80036;stroke-width:1.5;" width="199" x="1258.5" y="53"/><text fill="#000000" font-family="sans-serif" font-size="14" lengthAdjust="spacing" textLength="185" x="1265.5" y="74.5332">testParamList: TestParamList</text><rect fill="#FEFECE" filter="url(#f1e2oadqp7e8k8)" height="31.6094" style="stroke:#A80036;stroke-width:1.5;" width="199" x="1258.5" y="1038.7109"/><text fill="#000000" font-family="sans-serif" font-size="14" lengthAdjust="spacing" textLength="185" x="1265.5" y="1060.2441">testParamList: TestParamList</text><rect fill="#FEFECE" filter="url(#f1e2oadqp7e8k8)" height="31.6094" style="stroke:#A80036;stroke-width:1.5;" width="251" x="1471.5" y="1038.7109"/><text fill="#000000" font-family="sans-serif" font-size="14" lengthAdjust="spacing" textLength="237" x="1478.5" y="1060.2441">testParamMapper: TestParamMapper</text><rect fill="#FFFFFF" filter="url(#f1e2oadqp7e8k8)" height="931.1016" style="stroke:#A80036;stroke-width:1.0;" width="10" x="21" y="99.6094"/><rect fill="#FFFFFF" filter="url(#f1e2oadqp7e8k8)" height="525.6797" style="stroke:#A80036;stroke-width:1.0;" width="10" x="269" y="121.9609"/><rect fill="#FFFFFF" filter="url(#f1e2oadqp7e8k8)" height="343.7188" style="stroke:#A80036;stroke-width:1.0;" width="10" x="269" y="677.9922"/><rect fill="#FFFFFF" filter="url(#f1e2oadqp7e8k8)" height="393.3672" style="stroke:#A80036;stroke-width:1.0;" width="10" x="486" y="198.9219"/><rect fill="#FFFFFF" filter="url(#f1e2oadqp7e8k8)" height="283.0156" style="stroke:#A80036;stroke-width:1.0;" width="10" x="486" y="708.3438"/><rect fill="#FFFFFF" filter="url(#f1e2oadqp7e8k8)" height="30" style="stroke:#A80036;stroke-width:1.0;" width="10" x="633.5" y="229.2734"/><rect fill="#FFFFFF" filter="url(#f1e2oadqp7e8k8)" height="30" style="stroke:#A80036;stroke-width:1.0;" width="10" x="633.5" y="399.9766"/><rect fill="#FFFFFF" filter="url(#f1e2oadqp7e8k8)" height="30" style="stroke:#A80036;stroke-width:1.0;" width="10" x="766" y="314.625"/><rect fill="#FFFFFF" filter="url(#f1e2oadqp7e8k8)" height="30" style="stroke:#A80036;stroke-width:1.0;" width="10" x="928" y="485.3281"/><rect fill="#FFFFFF" filter="url(#f1e2oadqp7e8k8)" height="30" style="stroke:#A80036;stroke-width:1.0;" width="10" x="928" y="738.6953"/><rect fill="#FFFFFF" filter="url(#f1e2oadqp7e8k8)" height="30" style="stroke:#A80036;stroke-width:1.0;" width="10" x="1045" y="824.0469"/><rect fill="#FFFFFF" filter="url(#f1e2oadqp7e8k8)" height="36.6094" style="stroke:#A80036;stroke-width:1.0;" width="10" x="1167.5" y="555.6797"/><rect fill="#FFFFFF" filter="url(#f1e2oadqp7e8k8)" height="30" style="stroke:#A80036;stroke-width:1.0;" width="10" x="1355" y="884.3984"/><rect fill="#FFFFFF" filter="url(#f1e2oadqp7e8k8)" height="36.6094" style="stroke:#A80036;stroke-width:1.0;" width="10" x="1594" y="954.75"/><polygon fill="#A80036" points="257,117.9609,267,121.9609,257,125.9609,261,121.9609" style="stroke:#A80036;stroke-width:1.0;"/><line style="stroke:#A80036;stroke-width:1.0;" x1="31" x2="263" y1="121.9609" y2="121.9609"/><text fill="#000000" font-family="sans-serif" font-size="13" font-weight="bold" lengthAdjust="spacing" textLength="7" x="38" y="117.1045">1</text><text fill="#000000" font-family="sans-serif" font-size="13" lengthAdjust="spacing" textLength="208" x="49" y="117.1045">accesses application to view results</text><polygon fill="#A80036" points="382.5,148.3125,392.5,152.3125,382.5,156.3125,386.5,152.3125" style="stroke:#A80036;stroke-width:1.0;"/><line style="stroke:#A80036;stroke-width:1.0;" x1="279" x2="388.5" y1="152.3125" y2="152.3125"/><text fill="#000000" font-family="sans-serif" font-size="13" font-weight="bold" lengthAdjust="spacing" textLength="7" x="286" y="147.4561">2</text><text fill="#000000" font-family="sans-serif" font-size="13" lengthAdjust="spacing" textLength="44" x="297" y="147.4561">create()</text><rect fill="#FEFECE" filter="url(#f1e2oadqp7e8k8)" height="31.6094" style="stroke:#A80036;stroke-width:1.5;" width="189" x="394.5" y="129.9609"/><text fill="#000000" font-family="sans-serif" font-size="14" lengthAdjust="spacing" textLength="175" x="401.5" y="151.4941">:ShowTestResultsController</text><polygon fill="#A80036" points="474,194.9219,484,198.9219,474,202.9219,478,198.9219" style="stroke:#A80036;stroke-width:1.0;"/><line style="stroke:#A80036;stroke-width:1.0;" x1="279" x2="480" y1="198.9219" y2="198.9219"/><text fill="#000000" font-family="sans-serif" font-size="13" font-weight="bold" lengthAdjust="spacing" textLength="7" x="286" y="194.0654">3</text><text fill="#000000" font-family="sans-serif" font-size="13" lengthAdjust="spacing" textLength="145" x="297" y="194.0654">displayClientTests(email)</text><polygon fill="#A80036" points="621.5,225.2734,631.5,229.2734,621.5,233.2734,625.5,229.2734" style="stroke:#A80036;stroke-width:1.0;"/><line style="stroke:#A80036;stroke-width:1.0;" x1="496" x2="627.5" y1="229.2734" y2="229.2734"/><text fill="#000000" font-family="sans-serif" font-size="13" font-weight="bold" lengthAdjust="spacing" textLength="7" x="503" y="224.417">4</text><text fill="#000000" font-family="sans-serif" font-size="13" lengthAdjust="spacing" textLength="90" x="514" y="224.417">getClientStore()</text><polygon fill="#A80036" points="754,310.625,764,314.625,754,318.625,758,314.625" style="stroke:#A80036;stroke-width:1.0;"/><line style="stroke:#A80036;stroke-width:1.0;" x1="496" x2="760" y1="314.625" y2="314.625"/><text fill="#000000" font-family="sans-serif" font-size="13" font-weight="bold" lengthAdjust="spacing" textLength="7" x="503" y="309.7686">5</text><text fill="#000000" font-family="sans-serif" font-size="13" lengthAdjust="spacing" textLength="186" x="514" y="309.7686">client = getClientByEmail(email)</text><polygon fill="#A80036" points="621.5,395.9766,631.5,399.9766,621.5,403.9766,625.5,399.9766" style="stroke:#A80036;stroke-width:1.0;"/><line style="stroke:#A80036;stroke-width:1.0;" x1="496" x2="627.5" y1="399.9766" y2="399.9766"/><text fill="#000000" font-family="sans-serif" font-size="13" font-weight="bold" lengthAdjust="spacing" textLength="7" x="503" y="395.1201">6</text><text fill="#000000" font-family="sans-serif" font-size="13" lengthAdjust="spacing" textLength="82" x="514" y="395.1201">getTestStore()</text><polygon fill="#A80036" points="916,481.3281,926,485.3281,916,489.3281,920,485.3281" style="stroke:#A80036;stroke-width:1.0;"/><line style="stroke:#A80036;stroke-width:1.0;" x1="496" x2="922" y1="485.3281" y2="485.3281"/><text fill="#000000" font-family="sans-serif" font-size="13" font-weight="bold" lengthAdjust="spacing" textLength="7" x="503" y="480.4717">7</text><text fill="#000000" font-family="sans-serif" font-size="13" lengthAdjust="spacing" textLength="237" x="514" y="480.4717">tests = getValidatedTestsByClient(client)</text><polygon fill="#A80036" points="1084.5,541.6797,1094.5,545.6797,1084.5,549.6797,1088.5,545.6797" style="stroke:#A80036;stroke-width:1.0;"/><line style="stroke:#A80036;stroke-width:1.0;" x1="496" x2="1090.5" y1="545.6797" y2="545.6797"/><text fill="#000000" font-family="sans-serif" font-size="13" font-weight="bold" lengthAdjust="spacing" textLength="7" x="503" y="540.8232">8</text><text fill="#000000" font-family="sans-serif" font-size="13" lengthAdjust="spacing" textLength="44" x="514" y="540.8232">create()</text><rect fill="#FEFECE" filter="url(#f1e2oadqp7e8k8)" height="31.6094" style="stroke:#A80036;stroke-width:1.5;" width="148" x="1096.5" y="523.3281"/><text fill="#000000" font-family="sans-serif" font-size="14" lengthAdjust="spacing" textLength="134" x="1103.5" y="544.8613">testMap: TestMapper</text><polygon fill="#A80036" points="1160.5,588.2891,1170.5,592.2891,1160.5,596.2891,1164.5,592.2891" style="stroke:#A80036;stroke-width:1.0;"/><line style="stroke:#A80036;stroke-width:1.0;" x1="491" x2="1166.5" y1="592.2891" y2="592.2891"/><text fill="#000000" font-family="sans-serif" font-size="13" font-weight="bold" lengthAdjust="spacing" textLength="7" x="498" y="587.4326">9</text><text fill="#000000" font-family="sans-serif" font-size="13" lengthAdjust="spacing" textLength="89" x="509" y="587.4326">toDtoList(tests)</text><polygon fill="#A80036" points="42,643.6406,32,647.6406,42,651.6406,38,647.6406" style="stroke:#A80036;stroke-width:1.0;"/><line style="stroke:#A80036;stroke-width:1.0;stroke-dasharray:2.0,2.0;" x1="36" x2="273" y1="647.6406" y2="647.6406"/><text fill="#000000" font-family="sans-serif" font-size="13" font-weight="bold" lengthAdjust="spacing" textLength="14" x="48" y="642.7842">10</text><text fill="#000000" font-family="sans-serif" font-size="13" lengthAdjust="spacing" textLength="116" x="66" y="642.7842">displays client tests</text><polygon fill="#A80036" points="257,673.9922,267,677.9922,257,681.9922,261,677.9922" style="stroke:#A80036;stroke-width:1.0;"/><line style="stroke:#A80036;stroke-width:1.0;" x1="31" x2="263" y1="677.9922" y2="677.9922"/><text fill="#000000" font-family="sans-serif" font-size="13" font-weight="bold" lengthAdjust="spacing" textLength="14" x="38" y="673.1357">11</text><text fill="#000000" font-family="sans-serif" font-size="13" lengthAdjust="spacing" textLength="79" x="56" y="673.1357">selects a test</text><polygon fill="#A80036" points="474,704.3438,484,708.3438,474,712.3438,478,708.3438" style="stroke:#A80036;stroke-width:1.0;"/><line style="stroke:#A80036;stroke-width:1.0;" x1="279" x2="480" y1="708.3438" y2="708.3438"/><text fill="#000000" font-family="sans-serif" font-size="13" font-weight="bold" lengthAdjust="spacing" textLength="14" x="286" y="703.4873">12</text><text fill="#000000" font-family="sans-serif" font-size="13" lengthAdjust="spacing" textLength="170" x="304" y="703.4873">displayTestResults(testCode)</text><polygon fill="#A80036" points="916,734.6953,926,738.6953,916,742.6953,920,738.6953" style="stroke:#A80036;stroke-width:1.0;"/><line style="stroke:#A80036;stroke-width:1.0;" x1="496" x2="922" y1="738.6953" y2="738.6953"/><text fill="#000000" font-family="sans-serif" font-size="13" font-weight="bold" lengthAdjust="spacing" textLength="14" x="503" y="733.8389">13</text><text fill="#000000" font-family="sans-serif" font-size="13" lengthAdjust="spacing" textLength="187" x="521" y="733.8389">test = getTestByCode(testCode)</text><polygon fill="#A80036" points="1033,820.0469,1043,824.0469,1033,828.0469,1037,824.0469" style="stroke:#A80036;stroke-width:1.0;"/><line style="stroke:#A80036;stroke-width:1.0;" x1="496" x2="1039" y1="824.0469" y2="824.0469"/><text fill="#000000" font-family="sans-serif" font-size="13" font-weight="bold" lengthAdjust="spacing" textLength="14" x="503" y="819.1904">14</text><text fill="#000000" font-family="sans-serif" font-size="13" lengthAdjust="spacing" textLength="110" x="521" y="819.1904">getTestParamList()</text><polygon fill="#A80036" points="1343,880.3984,1353,884.3984,1343,888.3984,1347,884.3984" style="stroke:#A80036;stroke-width:1.0;"/><line style="stroke:#A80036;stroke-width:1.0;" x1="496" x2="1349" y1="884.3984" y2="884.3984"/><text fill="#000000" font-family="sans-serif" font-size="13" font-weight="bold" lengthAdjust="spacing" textLength="14" x="503" y="879.542">15</text><text fill="#000000" font-family="sans-serif" font-size="13" lengthAdjust="spacing" textLength="201" x="521" y="879.542">testParams = getTestParameters()</text><polygon fill="#A80036" points="1459.5,940.75,1469.5,944.75,1459.5,948.75,1463.5,944.75" style="stroke:#A80036;stroke-width:1.0;"/><line style="stroke:#A80036;stroke-width:1.0;" x1="496" x2="1465.5" y1="944.75" y2="944.75"/><text fill="#000000" font-family="sans-serif" font-size="13" font-weight="bold" lengthAdjust="spacing" textLength="14" x="503" y="939.8936">16</text><text fill="#000000" font-family="sans-serif" font-size="13" lengthAdjust="spacing" textLength="111" x="521" y="939.8936">create(testParams)</text><rect fill="#FEFECE" filter="url(#f1e2oadqp7e8k8)" height="31.6094" style="stroke:#A80036;stroke-width:1.5;" width="251" x="1471.5" y="922.3984"/><text fill="#000000" font-family="sans-serif" font-size="14" lengthAdjust="spacing" textLength="237" x="1478.5" y="943.9316">testParamMapper: TestParamMapper</text><polygon fill="#A80036" points="1587,987.3594,1597,991.3594,1587,995.3594,1591,991.3594" style="stroke:#A80036;stroke-width:1.0;"/><line style="stroke:#A80036;stroke-width:1.0;" x1="491" x2="1593" y1="991.3594" y2="991.3594"/><text fill="#000000" font-family="sans-serif" font-size="13" font-weight="bold" lengthAdjust="spacing" textLength="14" x="498" y="986.5029">17</text><text fill="#000000" font-family="sans-serif" font-size="13" lengthAdjust="spacing" textLength="60" x="516" y="986.5029">toDtoList()</text><polygon fill="#A80036" points="42,1017.7109,32,1021.7109,42,1025.7109,38,1021.7109" style="stroke:#A80036;stroke-width:1.0;"/><line style="stroke:#A80036;stroke-width:1.0;stroke-dasharray:2.0,2.0;" x1="36" x2="273" y1="1021.7109" y2="1021.7109"/><text fill="#000000" font-family="sans-serif" font-size="13" font-weight="bold" lengthAdjust="spacing" textLength="14" x="48" y="1016.8545">18</text><text fill="#000000" font-family="sans-serif" font-size="13" lengthAdjust="spacing" textLength="117" x="66" y="1016.8545">displays test results</text><!--MD5=[a3a295890806206eb6a3fb02064531b2]
@startuml
autonumber

actor Client as cli
participant ":ShowTestResultsUI" as ui
participant ":ShowTestResultsController" as controller
participant ":Company" as company
participant "clientStore: ClientStore" as cstore
participant "testStore:TestStore" as tstore
participant "test:Test" as test
participant "testMap: TestMapper" as tmap
participant "testParamList: TestParamList" as testparamls
participant "testParamMapper: TestParamMapper" as tpmap

activate cli
cli -> ui : accesses application to view results
activate ui
create controller
ui -> controller : create()
ui -> controller : displayClientTests(email)
activate controller
controller -> company : getClientStore()
activate company
|||
deactivate company
controller -> cstore : client = getClientByEmail(email)
activate cstore
|||
deactivate cstore
controller -> company : getTestStore()
activate company
|||
deactivate company
controller -> tstore : tests = getValidatedTestsByClient(client)
activate tstore
deactivate tstore
create tmap
controller -> tmap : create()
activate tmap
controller -> tmap : toDtoList(tests)
deactivate tmap
|||
deactivate tstore
deactivate controller
ui - -> cli : displays client tests
deactivate ui
cli -> ui : selects a test
activate ui
ui -> controller : displayTestResults(testCode)
activate controller
controller -> tstore : test = getTestByCode(testCode)
activate tstore
|||
deactivate tstore
controller -> test : getTestParamList()
activate test
deactivate test
controller -> testparamls : testParams = getTestParameters()
activate testparamls
deactivate testparamls
create tpmap
controller -> tpmap : create(testParams)
activate tpmap
controller -> tpmap : toDtoList()
deactivate tpmap

deactivate controller

ui - -> cli : displays test results
deactivate ui
@enduml

PlantUML version 1.2021.2(Sun Mar 07 11:10:27 GMT 2021)
(GPL source distribution)
Java Runtime: OpenJDK Runtime Environment
JVM: OpenJDK 64-Bit Server VM
Default Encoding: Cp1252
Language: pt
Country: PT
--></g></svg>