<?xml version="1.0" encoding="UTF-8" standalone="no"?><svg xmlns="http://www.w3.org/2000/svg" xmlns:xlink="http://www.w3.org/1999/xlink" contentScriptType="application/ecmascript" contentStyleType="text/css" height="682px" preserveAspectRatio="none" style="width:749px;height:682px;" version="1.1" viewBox="0 0 749 682" width="749px" zoomAndPan="magnify"><defs><filter height="300%" id="f1kq8vqvcvao92" width="300%" x="-1" y="-1"><feGaussianBlur result="blurOut" stdDeviation="2.0"/><feColorMatrix in="blurOut" result="blurOut2" type="matrix" values="0 0 0 0 0 0 0 0 0 0 0 0 0 0 0 0 0 0 .4 0"/><feOffset dx="4.0" dy="4.0" in="blurOut2" result="blurOut3"/><feBlend in="SourceGraphic" in2="blurOut3" mode="normal"/></filter></defs><g><!--MD5=[02e4b9b7573f1156f41e60aa5b4e25a4]
class Company--><rect codeLine="1" fill="#FEFECE" filter="url(#f1kq8vqvcvao92)" height="61.8359" id="Company" style="stroke:#A80036;stroke-width:1.5;" width="85" x="120" y="7"/><ellipse cx="135" cy="23" fill="#ADD1B2" rx="11" ry="11" style="stroke:#A80036;stroke-width:1.0;"/><path d="M137,19.5 Q137.2031,19 137.4375,18.75 Q137.6719,18.5 137.9375,18.5 Q138.4063,18.5 138.7031,18.7813 Q139,19.0625 139,19.7188 L139,21.2813 Q139,21.9375 138.7188,22.2188 Q138.4375,22.5 138,22.5 Q137.6094,22.5 137.3594,22.3281 Q137.1094,22.1563 137,21.7031 Q136.9531,21.3906 136.7813,21.2188 Q136.4688,20.8906 135.9063,20.7031 Q135.3438,20.5 134.7813,20.5 Q134.0781,20.5 133.4844,20.7813 Q132.9063,21.0625 132.4531,21.6875 Q132,22.3125 132,23.1719 L132,24.0938 Q132,25.125 132.8438,25.8125 Q133.6875,26.5 135.1875,26.5 Q136.0781,26.5 136.7031,26.2969 Q137.0625,26.1875 137.4688,25.8281 Q137.7344,25.625 137.875,25.5625 Q138.0156,25.5 138.1875,25.5 Q138.5156,25.5 138.75,25.7656 Q139,26.0156 139,26.375 Q139,26.7188 138.6563,27.125 Q138.1563,27.7188 137.3594,28.0469 Q136.3125,28.5 135.0313,28.5 Q133.5313,28.5 132.3281,27.9063 Q131.3594,27.4375 130.6719,26.4219 Q130,25.4063 130,24.2031 L130,23.1094 Q130,21.8594 130.5938,20.7656 Q131.2031,19.6719 132.25,19.0938 Q133.3125,18.5 134.5,18.5 Q135.2188,18.5 135.8438,18.75 Q136.4688,19 137,19.5 Z " fill="#000000"/><text fill="#000000" font-family="sans-serif" font-size="12" lengthAdjust="spacing" textLength="53" x="149" y="27.9102">Company</text><line style="stroke:#A80036;stroke-width:1.5;" x1="121" x2="204" y1="39" y2="39"/><rect fill="none" height="6" style="stroke:#C82930;stroke-width:1.0;" width="6" x="128" y="47"/><text fill="#000000" font-family="sans-serif" font-size="11" lengthAdjust="spacing" textLength="55" x="140" y="54.4189">designation</text><line style="stroke:#A80036;stroke-width:1.5;" x1="121" x2="204" y1="60.8359" y2="60.8359"/><!--MD5=[ed6624c6556d5e7b1bd23032162d20b7]
class Client--><rect codeLine="5" fill="#FEFECE" filter="url(#f1kq8vqvcvao92)" height="172.5234" id="Client" style="stroke:#A80036;stroke-width:1.5;" width="93" x="7" y="153.5"/><ellipse cx="35.05" cy="169.5" fill="#ADD1B2" rx="11" ry="11" style="stroke:#A80036;stroke-width:1.0;"/><path d="M37.05,166 Q37.2531,165.5 37.4875,165.25 Q37.7219,165 37.9875,165 Q38.4563,165 38.7531,165.2813 Q39.05,165.5625 39.05,166.2188 L39.05,167.7813 Q39.05,168.4375 38.7688,168.7188 Q38.4875,169 38.05,169 Q37.6594,169 37.4094,168.8281 Q37.1594,168.6563 37.05,168.2031 Q37.0031,167.8906 36.8313,167.7188 Q36.5188,167.3906 35.9563,167.2031 Q35.3938,167 34.8313,167 Q34.1281,167 33.5344,167.2813 Q32.9563,167.5625 32.5031,168.1875 Q32.05,168.8125 32.05,169.6719 L32.05,170.5938 Q32.05,171.625 32.8938,172.3125 Q33.7375,173 35.2375,173 Q36.1281,173 36.7531,172.7969 Q37.1125,172.6875 37.5188,172.3281 Q37.7844,172.125 37.925,172.0625 Q38.0656,172 38.2375,172 Q38.5656,172 38.8,172.2656 Q39.05,172.5156 39.05,172.875 Q39.05,173.2188 38.7063,173.625 Q38.2063,174.2188 37.4094,174.5469 Q36.3625,175 35.0813,175 Q33.5813,175 32.3781,174.4063 Q31.4094,173.9375 30.7219,172.9219 Q30.05,171.9063 30.05,170.7031 L30.05,169.6094 Q30.05,168.3594 30.6437,167.2656 Q31.2531,166.1719 32.3,165.5938 Q33.3625,165 34.55,165 Q35.2688,165 35.8938,165.25 Q36.5188,165.5 37.05,166 Z " fill="#000000"/><text fill="#000000" font-family="sans-serif" font-size="12" lengthAdjust="spacing" textLength="32" x="51.95" y="174.4102">Client</text><line style="stroke:#A80036;stroke-width:1.5;" x1="8" x2="99" y1="185.5" y2="185.5"/><rect fill="none" height="6" style="stroke:#C82930;stroke-width:1.0;" width="6" x="15" y="193.5"/><text fill="#000000" font-family="sans-serif" font-size="11" lengthAdjust="spacing" textLength="26" x="27" y="200.9189">name</text><rect fill="none" height="6" style="stroke:#C82930;stroke-width:1.0;" width="6" x="15" y="207.3359"/><text fill="#000000" font-family="sans-serif" font-size="11" lengthAdjust="spacing" textLength="59" x="27" y="214.7549">cardNumber</text><rect fill="none" height="6" style="stroke:#C82930;stroke-width:1.0;" width="6" x="15" y="221.1719"/><text fill="#000000" font-family="sans-serif" font-size="11" lengthAdjust="spacing" textLength="43" x="27" y="228.5908">birthDate</text><rect fill="none" height="6" style="stroke:#C82930;stroke-width:1.0;" width="6" x="15" y="235.0078"/><text fill="#000000" font-family="sans-serif" font-size="11" lengthAdjust="spacing" textLength="18" x="27" y="242.4268">sex</text><rect fill="none" height="6" style="stroke:#C82930;stroke-width:1.0;" width="6" x="15" y="248.8438"/><text fill="#000000" font-family="sans-serif" font-size="11" lengthAdjust="spacing" textLength="27" x="27" y="256.2627">nhsID</text><rect fill="none" height="6" style="stroke:#C82930;stroke-width:1.0;" width="6" x="15" y="262.6797"/><text fill="#000000" font-family="sans-serif" font-size="11" lengthAdjust="spacing" textLength="14" x="27" y="270.0986">TIF</text><rect fill="none" height="6" style="stroke:#C82930;stroke-width:1.0;" width="6" x="15" y="276.5156"/><text fill="#000000" font-family="sans-serif" font-size="11" lengthAdjust="spacing" textLength="67" x="27" y="283.9346">phoneNumber</text><rect fill="none" height="6" style="stroke:#C82930;stroke-width:1.0;" width="6" x="15" y="290.3516"/><text fill="#000000" font-family="sans-serif" font-size="11" lengthAdjust="spacing" textLength="24" x="27" y="297.7705">email</text><rect fill="none" height="6" style="stroke:#C82930;stroke-width:1.0;" width="6" x="15" y="304.1875"/><text fill="#000000" font-family="sans-serif" font-size="11" lengthAdjust="spacing" textLength="50" x="27" y="311.6064">password</text><line style="stroke:#A80036;stroke-width:1.5;" x1="8" x2="99" y1="318.0234" y2="318.0234"/><!--MD5=[df38be88ccee13e832d6fafd6288a4ca]
class Test--><rect codeLine="17" fill="#FEFECE" filter="url(#f1kq8vqvcvao92)" height="186.3594" id="Test" style="stroke:#A80036;stroke-width:1.5;" width="94" x="224.5" y="147"/><ellipse cx="256.6" cy="163" fill="#ADD1B2" rx="11" ry="11" style="stroke:#A80036;stroke-width:1.0;"/><path d="M258.6,159.5 Q258.8031,159 259.0375,158.75 Q259.2719,158.5 259.5375,158.5 Q260.0063,158.5 260.3031,158.7813 Q260.6,159.0625 260.6,159.7188 L260.6,161.2813 Q260.6,161.9375 260.3188,162.2188 Q260.0375,162.5 259.6,162.5 Q259.2094,162.5 258.9594,162.3281 Q258.7094,162.1563 258.6,161.7031 Q258.5531,161.3906 258.3813,161.2188 Q258.0688,160.8906 257.5063,160.7031 Q256.9438,160.5 256.3813,160.5 Q255.6781,160.5 255.0844,160.7813 Q254.5063,161.0625 254.0531,161.6875 Q253.6,162.3125 253.6,163.1719 L253.6,164.0938 Q253.6,165.125 254.4438,165.8125 Q255.2875,166.5 256.7875,166.5 Q257.6781,166.5 258.3031,166.2969 Q258.6625,166.1875 259.0688,165.8281 Q259.3344,165.625 259.475,165.5625 Q259.6156,165.5 259.7875,165.5 Q260.1156,165.5 260.35,165.7656 Q260.6,166.0156 260.6,166.375 Q260.6,166.7188 260.2563,167.125 Q259.7563,167.7188 258.9594,168.0469 Q257.9125,168.5 256.6313,168.5 Q255.1313,168.5 253.9281,167.9063 Q252.9594,167.4375 252.2719,166.4219 Q251.6,165.4063 251.6,164.2031 L251.6,163.1094 Q251.6,161.8594 252.1938,160.7656 Q252.8031,159.6719 253.85,159.0938 Q254.9125,158.5 256.1,158.5 Q256.8188,158.5 257.4438,158.75 Q258.0688,159 258.6,159.5 Z " fill="#000000"/><text fill="#000000" font-family="sans-serif" font-size="12" lengthAdjust="spacing" textLength="24" x="274.4" y="167.9102">Test</text><line style="stroke:#A80036;stroke-width:1.5;" x1="225.5" x2="317.5" y1="179" y2="179"/><rect fill="none" height="6" style="stroke:#C82930;stroke-width:1.0;" width="6" x="232.5" y="187"/><text fill="#000000" font-family="sans-serif" font-size="11" lengthAdjust="spacing" textLength="43" x="244.5" y="194.4189">testCode</text><rect fill="none" height="6" style="stroke:#C82930;stroke-width:1.0;" width="6" x="232.5" y="200.8359"/><text fill="#000000" font-family="sans-serif" font-size="11" lengthAdjust="spacing" textLength="43" x="244.5" y="208.2549">nhsCode</text><rect fill="none" height="6" style="stroke:#C82930;stroke-width:1.0;" width="6" x="232.5" y="214.6719"/><text fill="#000000" font-family="sans-serif" font-size="11" lengthAdjust="spacing" textLength="48" x="244.5" y="222.0908">createdAt</text><rect fill="none" height="6" style="stroke:#C82930;stroke-width:1.0;" width="6" x="232.5" y="228.5078"/><text fill="#000000" font-family="sans-serif" font-size="11" lengthAdjust="spacing" textLength="55" x="244.5" y="235.9268">designation</text><rect fill="none" height="6" style="stroke:#C82930;stroke-width:1.0;" width="6" x="232.5" y="242.3438"/><text fill="#000000" font-family="sans-serif" font-size="11" lengthAdjust="spacing" textLength="63" x="244.5" y="249.7627">dateAnalysis</text><rect fill="none" height="6" style="stroke:#C82930;stroke-width:1.0;" width="6" x="232.5" y="256.1797"/><text fill="#000000" font-family="sans-serif" font-size="11" lengthAdjust="spacing" textLength="61" x="244.5" y="263.5986">timeAnalysis</text><rect fill="none" height="6" style="stroke:#C82930;stroke-width:1.0;" width="6" x="232.5" y="270.0156"/><text fill="#000000" font-family="sans-serif" font-size="11" lengthAdjust="spacing" textLength="53" x="244.5" y="277.4346">dateReport</text><rect fill="none" height="6" style="stroke:#C82930;stroke-width:1.0;" width="6" x="232.5" y="283.8516"/><text fill="#000000" font-family="sans-serif" font-size="11" lengthAdjust="spacing" textLength="51" x="244.5" y="291.2705">timeReport</text><rect fill="none" height="6" style="stroke:#C82930;stroke-width:1.0;" width="6" x="232.5" y="297.6875"/><text fill="#000000" font-family="sans-serif" font-size="11" lengthAdjust="spacing" textLength="68" x="244.5" y="305.1064">dateValidation</text><rect fill="none" height="6" style="stroke:#C82930;stroke-width:1.0;" width="6" x="232.5" y="311.5234"/><text fill="#000000" font-family="sans-serif" font-size="11" lengthAdjust="spacing" textLength="66" x="244.5" y="318.9424">timeValidation</text><line style="stroke:#A80036;stroke-width:1.5;" x1="225.5" x2="317.5" y1="325.3594" y2="325.3594"/><!--MD5=[4e608140b854dae633589343bce77383]
class TestParameterResult--><rect codeLine="30" fill="#FEFECE" filter="url(#f1kq8vqvcvao92)" height="89.5078" id="TestParameterResult" style="stroke:#A80036;stroke-width:1.5;" width="150" x="427.5" y="411"/><ellipse cx="442.5" cy="427" fill="#ADD1B2" rx="11" ry="11" style="stroke:#A80036;stroke-width:1.0;"/><path d="M444.5,423.5 Q444.7031,423 444.9375,422.75 Q445.1719,422.5 445.4375,422.5 Q445.9063,422.5 446.2031,422.7813 Q446.5,423.0625 446.5,423.7188 L446.5,425.2813 Q446.5,425.9375 446.2188,426.2188 Q445.9375,426.5 445.5,426.5 Q445.1094,426.5 444.8594,426.3281 Q444.6094,426.1563 444.5,425.7031 Q444.4531,425.3906 444.2813,425.2188 Q443.9688,424.8906 443.4063,424.7031 Q442.8438,424.5 442.2813,424.5 Q441.5781,424.5 440.9844,424.7813 Q440.4063,425.0625 439.9531,425.6875 Q439.5,426.3125 439.5,427.1719 L439.5,428.0938 Q439.5,429.125 440.3438,429.8125 Q441.1875,430.5 442.6875,430.5 Q443.5781,430.5 444.2031,430.2969 Q444.5625,430.1875 444.9688,429.8281 Q445.2344,429.625 445.375,429.5625 Q445.5156,429.5 445.6875,429.5 Q446.0156,429.5 446.25,429.7656 Q446.5,430.0156 446.5,430.375 Q446.5,430.7188 446.1563,431.125 Q445.6563,431.7188 444.8594,432.0469 Q443.8125,432.5 442.5313,432.5 Q441.0313,432.5 439.8281,431.9063 Q438.8594,431.4375 438.1719,430.4219 Q437.5,429.4063 437.5,428.2031 L437.5,427.1094 Q437.5,425.8594 438.0938,424.7656 Q438.7031,423.6719 439.75,423.0938 Q440.8125,422.5 442,422.5 Q442.7188,422.5 443.3438,422.75 Q443.9688,423 444.5,423.5 Z " fill="#000000"/><text fill="#000000" font-family="sans-serif" font-size="12" lengthAdjust="spacing" textLength="118" x="456.5" y="431.9102">TestParameterResult</text><line style="stroke:#A80036;stroke-width:1.5;" x1="428.5" x2="576.5" y1="443" y2="443"/><rect fill="none" height="6" style="stroke:#C82930;stroke-width:1.0;" width="6" x="435.5" y="451"/><text fill="#000000" font-family="sans-serif" font-size="11" lengthAdjust="spacing" textLength="48" x="447.5" y="458.4189">createdAt</text><rect fill="none" height="6" style="stroke:#C82930;stroke-width:1.0;" width="6" x="435.5" y="464.8359"/><text fill="#000000" font-family="sans-serif" font-size="11" lengthAdjust="spacing" textLength="26" x="447.5" y="472.2549">value</text><rect fill="none" height="6" style="stroke:#C82930;stroke-width:1.0;" width="6" x="435.5" y="478.6719"/><text fill="#000000" font-family="sans-serif" font-size="11" lengthAdjust="spacing" textLength="29" x="447.5" y="486.0908">metric</text><line style="stroke:#A80036;stroke-width:1.5;" x1="428.5" x2="576.5" y1="492.5078" y2="492.5078"/><!--MD5=[1f6362a5c8f21d8d6a0fce68f3a92a4e]
class Parameter--><rect codeLine="36" fill="#FEFECE" filter="url(#f1kq8vqvcvao92)" height="89.5078" id="Parameter" style="stroke:#A80036;stroke-width:1.5;" width="90" x="226.5" y="579"/><ellipse cx="241.5" cy="595" fill="#ADD1B2" rx="11" ry="11" style="stroke:#A80036;stroke-width:1.0;"/><path d="M243.5,591.5 Q243.7031,591 243.9375,590.75 Q244.1719,590.5 244.4375,590.5 Q244.9063,590.5 245.2031,590.7813 Q245.5,591.0625 245.5,591.7188 L245.5,593.2813 Q245.5,593.9375 245.2188,594.2188 Q244.9375,594.5 244.5,594.5 Q244.1094,594.5 243.8594,594.3281 Q243.6094,594.1563 243.5,593.7031 Q243.4531,593.3906 243.2813,593.2188 Q242.9688,592.8906 242.4063,592.7031 Q241.8438,592.5 241.2813,592.5 Q240.5781,592.5 239.9844,592.7813 Q239.4063,593.0625 238.9531,593.6875 Q238.5,594.3125 238.5,595.1719 L238.5,596.0938 Q238.5,597.125 239.3438,597.8125 Q240.1875,598.5 241.6875,598.5 Q242.5781,598.5 243.2031,598.2969 Q243.5625,598.1875 243.9688,597.8281 Q244.2344,597.625 244.375,597.5625 Q244.5156,597.5 244.6875,597.5 Q245.0156,597.5 245.25,597.7656 Q245.5,598.0156 245.5,598.375 Q245.5,598.7188 245.1563,599.125 Q244.6563,599.7188 243.8594,600.0469 Q242.8125,600.5 241.5313,600.5 Q240.0313,600.5 238.8281,599.9063 Q237.8594,599.4375 237.1719,598.4219 Q236.5,597.4063 236.5,596.2031 L236.5,595.1094 Q236.5,593.8594 237.0938,592.7656 Q237.7031,591.6719 238.75,591.0938 Q239.8125,590.5 241,590.5 Q241.7188,590.5 242.3438,590.75 Q242.9688,591 243.5,591.5 Z " fill="#000000"/><text fill="#000000" font-family="sans-serif" font-size="12" lengthAdjust="spacing" textLength="58" x="255.5" y="599.9102">Parameter</text><line style="stroke:#A80036;stroke-width:1.5;" x1="227.5" x2="315.5" y1="611" y2="611"/><rect fill="none" height="6" style="stroke:#C82930;stroke-width:1.0;" width="6" x="234.5" y="619"/><text fill="#000000" font-family="sans-serif" font-size="11" lengthAdjust="spacing" textLength="24" x="246.5" y="626.4189">code</text><rect fill="none" height="6" style="stroke:#C82930;stroke-width:1.0;" width="6" x="234.5" y="632.8359"/><text fill="#000000" font-family="sans-serif" font-size="11" lengthAdjust="spacing" textLength="52" x="246.5" y="640.2549">shortName</text><rect fill="none" height="6" style="stroke:#C82930;stroke-width:1.0;" width="6" x="234.5" y="646.6719"/><text fill="#000000" font-family="sans-serif" font-size="11" lengthAdjust="spacing" textLength="53" x="246.5" y="654.0908">description</text><line style="stroke:#A80036;stroke-width:1.5;" x1="227.5" x2="315.5" y1="660.5078" y2="660.5078"/><!--MD5=[0f07739f46effee96e095e9c408da841]
class TestParameter--><rect fill="#FEFECE" filter="url(#f1kq8vqvcvao92)" height="48" id="TestParameter" style="stroke:#A80036;stroke-width:1.5;" width="114" x="214.5" y="432"/><ellipse cx="229.5" cy="448" fill="#ADD1B2" rx="11" ry="11" style="stroke:#A80036;stroke-width:1.0;"/><path d="M231.5,444.5 Q231.7031,444 231.9375,443.75 Q232.1719,443.5 232.4375,443.5 Q232.9063,443.5 233.2031,443.7813 Q233.5,444.0625 233.5,444.7188 L233.5,446.2813 Q233.5,446.9375 233.2188,447.2188 Q232.9375,447.5 232.5,447.5 Q232.1094,447.5 231.8594,447.3281 Q231.6094,447.1563 231.5,446.7031 Q231.4531,446.3906 231.2813,446.2188 Q230.9688,445.8906 230.4063,445.7031 Q229.8438,445.5 229.2813,445.5 Q228.5781,445.5 227.9844,445.7813 Q227.4063,446.0625 226.9531,446.6875 Q226.5,447.3125 226.5,448.1719 L226.5,449.0938 Q226.5,450.125 227.3438,450.8125 Q228.1875,451.5 229.6875,451.5 Q230.5781,451.5 231.2031,451.2969 Q231.5625,451.1875 231.9688,450.8281 Q232.2344,450.625 232.375,450.5625 Q232.5156,450.5 232.6875,450.5 Q233.0156,450.5 233.25,450.7656 Q233.5,451.0156 233.5,451.375 Q233.5,451.7188 233.1563,452.125 Q232.6563,452.7188 231.8594,453.0469 Q230.8125,453.5 229.5313,453.5 Q228.0313,453.5 226.8281,452.9063 Q225.8594,452.4375 225.1719,451.4219 Q224.5,450.4063 224.5,449.2031 L224.5,448.1094 Q224.5,446.8594 225.0938,445.7656 Q225.7031,444.6719 226.75,444.0938 Q227.8125,443.5 229,443.5 Q229.7188,443.5 230.3438,443.75 Q230.9688,444 231.5,444.5 Z " fill="#000000"/><text fill="#000000" font-family="sans-serif" font-size="12" lengthAdjust="spacing" textLength="82" x="243.5" y="452.9102">TestParameter</text><line style="stroke:#A80036;stroke-width:1.5;" x1="215.5" x2="327.5" y1="464" y2="464"/><line style="stroke:#A80036;stroke-width:1.5;" x1="215.5" x2="327.5" y1="472" y2="472"/><ellipse cx="177.5" cy="456" fill="#000000" rx="2" ry="2" style="stroke:none;stroke-width:1.0;"/><!--MD5=[0d02494f9371f8c6ca3deba40e0e82b2]
link Test to apoint443--><path d="M230.69,333.14 C219.56,358.37 207.53,385.72 196.5,411 C189.04,428.08 180.09,448.96 177.97,453.91 " fill="none" id="Test-apoint443" style="stroke:#A80036;stroke-width:1.0;"/><!--MD5=[c1c5310024db53a8bf35805011b846fb]
link apoint443 to Parameter--><path d="M177.91,458.12 C179.8,463.18 187.9,484.46 196.5,501 C210.32,527.58 227.75,556.17 242.32,578.99 " fill="none" id="apoint443-Parameter" style="stroke:#A80036;stroke-width:1.0;"/><!--MD5=[35c423c1e5ee7d5c39879efbcbe58e06]
link apoint443 to TestParameter--><path d="M179.7,456 C191.3,456 202.89,456 214.49,456 " fill="none" id="apoint443-TestParameter" style="stroke:#A80036;stroke-width:1.0;stroke-dasharray:7.0,7.0;"/><!--MD5=[6eee883fdf517d3604e8bd0f2058e9aa]
link Company to Client--><path codeLine="43" d="M145.95,69.38 C133.74,91.78 116.48,123.43 100.18,153.34 " fill="none" id="Company-Client" style="stroke:#A80036;stroke-width:1.0;"/><polygon fill="#000000" points="130.1068,112.5658,137.0165,106.0308,131.8557,103.2175,130.1068,112.5658" style="stroke:#000000;stroke-width:1.0;"/><text fill="#000000" font-family="sans-serif" font-size="13" lengthAdjust="spacing" textLength="21" x="141.5" y="113.4951">has</text><text fill="#000000" font-family="sans-serif" font-size="13" lengthAdjust="spacing" textLength="7" x="135.128" y="90.4311">1</text><text fill="#000000" font-family="sans-serif" font-size="13" lengthAdjust="spacing" textLength="20" x="83.3322" y="142.7359">1..*</text><!--MD5=[502b51bc079239060389dab43b7d3470]
link Client to Test--><path codeLine="44" d="M100.27,240 C136.92,240 187.7,240 224.44,240 " fill="none" id="Client-Test" style="stroke:#A80036;stroke-width:1.0;"/><polygon fill="#000000" points="117.25,228.1758,126.2951,231.1147,126.2951,225.2369,117.25,228.1758" style="stroke:#000000;stroke-width:1.0;"/><text fill="#000000" font-family="sans-serif" font-size="13" lengthAdjust="spacing" textLength="75" x="131.25" y="233.4951">requested by</text><text fill="#000000" font-family="sans-serif" font-size="13" lengthAdjust="spacing" textLength="7" x="107.9676" y="236.3335">1</text><text fill="#000000" font-family="sans-serif" font-size="13" lengthAdjust="spacing" textLength="5" x="211.5414" y="236.2195">*</text><!--MD5=[c23963f6e403fc3ebec8dae22c30ade6]
link Test to Parameter--><path codeLine="45" d="M318.52,254.46 C426.89,287.89 678.71,380.76 595.5,501 C531.88,592.93 389.67,615.68 316.66,621.24 " fill="none" id="Test-Parameter" style="stroke:#A80036;stroke-width:1.0;"/><polygon fill="#000000" points="616.4746,461.1757,619.4594,452.1457,613.5816,452.1158,616.4746,461.1757" style="stroke:#000000;stroke-width:1.0;"/><text fill="#000000" font-family="sans-serif" font-size="13" lengthAdjust="spacing" textLength="116" x="625.5" y="461.4951">requests analysis of</text><text fill="#000000" font-family="sans-serif" font-size="13" lengthAdjust="spacing" textLength="5" x="326.4123" y="252.9841">*</text><text fill="#000000" font-family="sans-serif" font-size="13" lengthAdjust="spacing" textLength="20" x="324.4169" y="617.2813">1..*</text><!--MD5=[7e4bc624457760b649895ff2ead938fa]
link Company to Test--><path codeLine="46" d="M179.05,69.38 C191.14,91.56 208.18,122.82 224.34,152.47 " fill="none" id="Company-Test" style="stroke:#A80036;stroke-width:1.0;"/><polygon fill="#000000" points="211.893,112.566,210.1445,103.2175,204.9836,106.0306,211.893,112.566" style="stroke:#000000;stroke-width:1.0;"/><text fill="#000000" font-family="sans-serif" font-size="13" lengthAdjust="spacing" textLength="50" x="218.5" y="113.4951">performs</text><text fill="#000000" font-family="sans-serif" font-size="13" lengthAdjust="spacing" textLength="7" x="174.5377" y="90.4311">1</text><text fill="#000000" font-family="sans-serif" font-size="13" lengthAdjust="spacing" textLength="5" x="212.0462" y="135.9336">*</text><!--MD5=[92e8e476cc9e9004a7125f53a120ec97]
link TestParameter to Parameter--><path codeLine="47" d="M271.5,480.08 C271.5,505.56 271.5,547.17 271.5,578.94 " fill="none" id="TestParameter-Parameter" style="stroke:#A80036;stroke-width:1.0;"/><polygon fill="#000000" points="276.5,545.1758,279.4389,536.1307,273.5611,536.1307,276.5,545.1758" style="stroke:#000000;stroke-width:1.0;"/><text fill="#000000" font-family="sans-serif" font-size="13" lengthAdjust="spacing" textLength="78" x="285.5" y="545.4951">associated to</text><text fill="#000000" font-family="sans-serif" font-size="13" lengthAdjust="spacing" textLength="5" x="265.8906" y="501.4375">*</text><text fill="#000000" font-family="sans-serif" font-size="13" lengthAdjust="spacing" textLength="7" x="263.9422" y="568.0459">1</text><!--MD5=[7d615427424eb1e9d8965c4eb17ecbf5]
link TestParameter to Test--><path codeLine="48" d="M271.5,431.77 C271.5,407.99 271.5,369.51 271.5,333.31 " fill="none" id="TestParameter-Test" style="stroke:#A80036;stroke-width:1.0;"/><polygon fill="#000000" points="276.5,377.1758,279.4389,368.1307,273.5611,368.1307,276.5,377.1758" style="stroke:#000000;stroke-width:1.0;"/><text fill="#000000" font-family="sans-serif" font-size="13" lengthAdjust="spacing" textLength="21" x="285.5" y="377.4951">has</text><text fill="#000000" font-family="sans-serif" font-size="13" lengthAdjust="spacing" textLength="5" x="265.8594" y="421.0512">*</text><text fill="#000000" font-family="sans-serif" font-size="13" lengthAdjust="spacing" textLength="7" x="264.2211" y="354.8779">1</text><!--MD5=[0e00e25ac6b8c14659aaff2cf7e5df08]
link TestParameter to TestParameterResult--><path codeLine="49" d="M328.6,456 C358.4,456 395.22,456 427.31,456 " fill="none" id="TestParameter-TestParameterResult" style="stroke:#A80036;stroke-width:1.0;"/><polygon fill="#000000" points="356,444.1758,346.9549,441.2369,346.9549,447.1147,356,444.1758" style="stroke:#000000;stroke-width:1.0;"/><text fill="#000000" font-family="sans-serif" font-size="13" lengthAdjust="spacing" textLength="49" x="360" y="449.4951">contains</text><text fill="#000000" font-family="sans-serif" font-size="13" lengthAdjust="spacing" textLength="7" x="336.3644" y="452.4926">1</text><text fill="#000000" font-family="sans-serif" font-size="13" lengthAdjust="spacing" textLength="22" x="397.6337" y="470.2452">0..1</text><!--MD5=[382c29c7dd63810fd3ea92fac6cc9caf]
@startuml
class Company {
-designation
}

class Client {
-name
-cardNumber
-birthDate
-sex
-nhsID
-TIF
-phoneNumber
-email
-password
}

class Test {
-testCode
-nhsCode
-createdAt
-designation
-dateAnalysis
-timeAnalysis
-dateReport
-timeReport
-dateValidation
-timeValidation
}

class TestParameterResult {
-createdAt
-value
-metric
}

class Parameter {
-code
-shortName
-description
}

(Test, Parameter) .. TestParameter
Company "1"- -"1..*" Client : has >
Test "*"-left-"1" Client : requested by >
Test "*"- -"1..*" Parameter : requests analysis of >
Test "*"-up-"1" Company : performs <
TestParameter "*"- -"1" Parameter : associated to >
TestParameter "*"- -"1" Test : has <
TestParameter "1"-right- "0..1" TestParameterResult : contains >
@enduml

PlantUML version 1.2021.2(Sun Mar 07 11:10:27 GMT 2021)
(GPL source distribution)
Java Runtime: OpenJDK Runtime Environment
JVM: OpenJDK 64-Bit Server VM
Default Encoding: Cp1252
Language: pt
Country: PT
--></g></svg>