<?xml version="1.0" encoding="UTF-8" standalone="no"?><svg xmlns="http://www.w3.org/2000/svg" xmlns:xlink="http://www.w3.org/1999/xlink" contentScriptType="application/ecmascript" contentStyleType="text/css" height="316px" preserveAspectRatio="none" style="width:313px;height:316px;" version="1.1" viewBox="0 0 313 316" width="313px" zoomAndPan="magnify"><defs><filter height="300%" id="f1e15lq5611ipf" width="300%" x="-1" y="-1"><feGaussianBlur result="blurOut" stdDeviation="2.0"/><feColorMatrix in="blurOut" result="blurOut2" type="matrix" values="0 0 0 0 0 0 0 0 0 0 0 0 0 0 0 0 0 0 .4 0"/><feOffset dx="4.0" dy="4.0" in="blurOut2" result="blurOut3"/><feBlend in="SourceGraphic" in2="blurOut3" mode="normal"/></filter></defs><g><line style="stroke:#A80036;stroke-width:1.0;stroke-dasharray:5.0,5.0;" x1="26" x2="26" y1="89.6094" y2="231.0156"/><line style="stroke:#A80036;stroke-width:1.0;stroke-dasharray:5.0,5.0;" x1="269" x2="269" y1="89.6094" y2="231.0156"/><text fill="#000000" font-family="sans-serif" font-size="14" lengthAdjust="spacing" textLength="36" x="5" y="86.5332">Client</text><ellipse cx="26" cy="15" fill="#FEFECE" filter="url(#f1e15lq5611ipf)" rx="8" ry="8" style="stroke:#A80036;stroke-width:2.0;"/><path d="M26,23 L26,50 M13,31 L39,31 M26,50 L13,65 M26,50 L39,65 " fill="none" filter="url(#f1e15lq5611ipf)" style="stroke:#A80036;stroke-width:2.0;"/><text fill="#000000" font-family="sans-serif" font-size="14" lengthAdjust="spacing" textLength="36" x="5" y="244.5488">Client</text><ellipse cx="26" cy="257.625" fill="#FEFECE" filter="url(#f1e15lq5611ipf)" rx="8" ry="8" style="stroke:#A80036;stroke-width:2.0;"/><path d="M26,265.625 L26,292.625 M13,273.625 L39,273.625 M26,292.625 L13,307.625 M26,292.625 L39,307.625 " fill="none" filter="url(#f1e15lq5611ipf)" style="stroke:#A80036;stroke-width:2.0;"/><rect fill="#FEFECE" filter="url(#f1e15lq5611ipf)" height="31.6094" style="stroke:#A80036;stroke-width:1.5;" width="64" x="235" y="53"/><text fill="#000000" font-family="sans-serif" font-size="14" lengthAdjust="spacing" textLength="50" x="242" y="74.5332">:System</text><rect fill="#FEFECE" filter="url(#f1e15lq5611ipf)" height="31.6094" style="stroke:#A80036;stroke-width:1.5;" width="64" x="235" y="230.0156"/><text fill="#000000" font-family="sans-serif" font-size="14" lengthAdjust="spacing" textLength="50" x="242" y="251.5488">:System</text><polygon fill="#A80036" points="257,117.9609,267,121.9609,257,125.9609,261,121.9609" style="stroke:#A80036;stroke-width:1.0;"/><line style="stroke:#A80036;stroke-width:1.0;" x1="26" x2="263" y1="121.9609" y2="121.9609"/><text fill="#000000" font-family="sans-serif" font-size="13" font-weight="bold" lengthAdjust="spacing" textLength="7" x="33" y="117.1045">1</text><text fill="#000000" font-family="sans-serif" font-size="13" lengthAdjust="spacing" textLength="208" x="44" y="117.1045">accesses application to view results</text><polygon fill="#A80036" points="37,148.3125,27,152.3125,37,156.3125,33,152.3125" style="stroke:#A80036;stroke-width:1.0;"/><line style="stroke:#A80036;stroke-width:1.0;stroke-dasharray:2.0,2.0;" x1="31" x2="268" y1="152.3125" y2="152.3125"/><text fill="#000000" font-family="sans-serif" font-size="13" font-weight="bold" lengthAdjust="spacing" textLength="7" x="43" y="147.4561">2</text><text fill="#000000" font-family="sans-serif" font-size="13" lengthAdjust="spacing" textLength="116" x="54" y="147.4561">displays client tests</text><polygon fill="#A80036" points="257,178.6641,267,182.6641,257,186.6641,261,182.6641" style="stroke:#A80036;stroke-width:1.0;"/><line style="stroke:#A80036;stroke-width:1.0;" x1="26" x2="263" y1="182.6641" y2="182.6641"/><text fill="#000000" font-family="sans-serif" font-size="13" font-weight="bold" lengthAdjust="spacing" textLength="7" x="33" y="177.8076">3</text><text fill="#000000" font-family="sans-serif" font-size="13" lengthAdjust="spacing" textLength="79" x="44" y="177.8076">selects a test</text><polygon fill="#A80036" points="37,209.0156,27,213.0156,37,217.0156,33,213.0156" style="stroke:#A80036;stroke-width:1.0;"/><line style="stroke:#A80036;stroke-width:1.0;stroke-dasharray:2.0,2.0;" x1="31" x2="268" y1="213.0156" y2="213.0156"/><text fill="#000000" font-family="sans-serif" font-size="13" font-weight="bold" lengthAdjust="spacing" textLength="7" x="43" y="208.1592">4</text><text fill="#000000" font-family="sans-serif" font-size="13" lengthAdjust="spacing" textLength="117" x="54" y="208.1592">displays test results</text><!--MD5=[9893794d36c01b3f16c068bba2801034]
@startuml
actor Client as admin
participant ":System" as sys

admin -> sys : **1** accesses application to view results
sys - -> admin : **2** displays client tests
admin -> sys : **3** selects a test
sys - -> admin : **4** displays test results
@enduml

PlantUML version 1.2021.2(Sun Mar 07 11:10:27 GMT 2021)
(GPL source distribution)
Java Runtime: OpenJDK Runtime Environment
JVM: OpenJDK 64-Bit Server VM
Default Encoding: Cp1252
Language: pt
Country: PT
--></g></svg>