<?xml version="1.0" encoding="UTF-8" standalone="no"?><svg xmlns="http://www.w3.org/2000/svg" xmlns:xlink="http://www.w3.org/1999/xlink" contentScriptType="application/ecmascript" contentStyleType="text/css" height="762px" preserveAspectRatio="none" style="width:856px;height:762px;" version="1.1" viewBox="0 0 856 762" width="856px" zoomAndPan="magnify"><defs><filter height="300%" id="fyl7c94bdspre" width="300%" x="-1" y="-1"><feGaussianBlur result="blurOut" stdDeviation="2.0"/><feColorMatrix in="blurOut" result="blurOut2" type="matrix" values="0 0 0 0 0 0 0 0 0 0 0 0 0 0 0 0 0 0 .4 0"/><feOffset dx="4.0" dy="4.0" in="blurOut2" result="blurOut3"/><feBlend in="SourceGraphic" in2="blurOut3" mode="normal"/></filter></defs><g><!--MD5=[e663926f46ae319bd097eeb013f7291c]
class DailyReportController--><rect codeLine="4" fill="#FEFECE" filter="url(#fyl7c94bdspre)" height="75.6719" id="DailyReportController" style="stroke:#A80036;stroke-width:1.5;" width="150" x="487" y="279"/><ellipse cx="502" cy="295" fill="#ADD1B2" rx="11" ry="11" style="stroke:#A80036;stroke-width:1.0;"/><path d="M504,291.5 Q504.2031,291 504.4375,290.75 Q504.6719,290.5 504.9375,290.5 Q505.4063,290.5 505.7031,290.7813 Q506,291.0625 506,291.7188 L506,293.2813 Q506,293.9375 505.7188,294.2188 Q505.4375,294.5 505,294.5 Q504.6094,294.5 504.3594,294.3281 Q504.1094,294.1563 504,293.7031 Q503.9531,293.3906 503.7813,293.2188 Q503.4688,292.8906 502.9063,292.7031 Q502.3438,292.5 501.7813,292.5 Q501.0781,292.5 500.4844,292.7813 Q499.9063,293.0625 499.4531,293.6875 Q499,294.3125 499,295.1719 L499,296.0938 Q499,297.125 499.8438,297.8125 Q500.6875,298.5 502.1875,298.5 Q503.0781,298.5 503.7031,298.2969 Q504.0625,298.1875 504.4688,297.8281 Q504.7344,297.625 504.875,297.5625 Q505.0156,297.5 505.1875,297.5 Q505.5156,297.5 505.75,297.7656 Q506,298.0156 506,298.375 Q506,298.7188 505.6563,299.125 Q505.1563,299.7188 504.3594,300.0469 Q503.3125,300.5 502.0313,300.5 Q500.5313,300.5 499.3281,299.9063 Q498.3594,299.4375 497.6719,298.4219 Q497,297.4063 497,296.2031 L497,295.1094 Q497,293.8594 497.5938,292.7656 Q498.2031,291.6719 499.25,291.0938 Q500.3125,290.5 501.5,290.5 Q502.2188,290.5 502.8438,290.75 Q503.4688,291 504,291.5 Z " fill="#000000"/><text fill="#000000" font-family="sans-serif" font-size="12" lengthAdjust="spacing" textLength="118" x="516" y="299.9102">DailyReportController</text><line style="stroke:#A80036;stroke-width:1.5;" x1="488" x2="636" y1="311" y2="311"/><line style="stroke:#A80036;stroke-width:1.5;" x1="488" x2="636" y1="319" y2="319"/><text fill="#000000" font-family="sans-serif" font-size="11" lengthAdjust="spacing" textLength="94" x="493" y="334.4189">+dailyReportTimer()</text><text fill="#000000" font-family="sans-serif" font-size="11" lengthAdjust="spacing" textLength="30" x="493" y="348.2549">+run()</text><!--MD5=[02e4b9b7573f1156f41e60aa5b4e25a4]
class Company--><rect codeLine="9" fill="#FEFECE" filter="url(#fyl7c94bdspre)" height="48" id="Company" style="stroke:#A80036;stroke-width:1.5;" width="85" x="366.5" y="293"/><ellipse cx="381.5" cy="309" fill="#ADD1B2" rx="11" ry="11" style="stroke:#A80036;stroke-width:1.0;"/><path d="M383.5,305.5 Q383.7031,305 383.9375,304.75 Q384.1719,304.5 384.4375,304.5 Q384.9063,304.5 385.2031,304.7813 Q385.5,305.0625 385.5,305.7188 L385.5,307.2813 Q385.5,307.9375 385.2188,308.2188 Q384.9375,308.5 384.5,308.5 Q384.1094,308.5 383.8594,308.3281 Q383.6094,308.1563 383.5,307.7031 Q383.4531,307.3906 383.2813,307.2188 Q382.9688,306.8906 382.4063,306.7031 Q381.8438,306.5 381.2813,306.5 Q380.5781,306.5 379.9844,306.7813 Q379.4063,307.0625 378.9531,307.6875 Q378.5,308.3125 378.5,309.1719 L378.5,310.0938 Q378.5,311.125 379.3438,311.8125 Q380.1875,312.5 381.6875,312.5 Q382.5781,312.5 383.2031,312.2969 Q383.5625,312.1875 383.9688,311.8281 Q384.2344,311.625 384.375,311.5625 Q384.5156,311.5 384.6875,311.5 Q385.0156,311.5 385.25,311.7656 Q385.5,312.0156 385.5,312.375 Q385.5,312.7188 385.1563,313.125 Q384.6563,313.7188 383.8594,314.0469 Q382.8125,314.5 381.5313,314.5 Q380.0313,314.5 378.8281,313.9063 Q377.8594,313.4375 377.1719,312.4219 Q376.5,311.4063 376.5,310.2031 L376.5,309.1094 Q376.5,307.8594 377.0938,306.7656 Q377.7031,305.6719 378.75,305.0938 Q379.8125,304.5 381,304.5 Q381.7188,304.5 382.3438,304.75 Q382.9688,305 383.5,305.5 Z " fill="#000000"/><text fill="#000000" font-family="sans-serif" font-size="12" lengthAdjust="spacing" textLength="53" x="395.5" y="313.9102">Company</text><line style="stroke:#A80036;stroke-width:1.5;" x1="367.5" x2="450.5" y1="325" y2="325"/><line style="stroke:#A80036;stroke-width:1.5;" x1="367.5" x2="450.5" y1="333" y2="333"/><!--MD5=[53ae8b34bebe44116eb8626f99f3fe78]
class Runnable--><rect codeLine="12" fill="#FEFECE" filter="url(#fyl7c94bdspre)" height="61.8359" id="Runnable" style="stroke:#A80036;stroke-width:1.5;" width="87" x="518.5" y="7"/><ellipse cx="533.5" cy="23" fill="#B4A7E5" rx="11" ry="11" style="stroke:#A80036;stroke-width:1.0;"/><path d="M534.5,20 L534.5,26 L536.5,26 L536.9844,26 L537.5,26.625 L537.5,27 L537.5,27.375 L536.9844,28 L536.5,28 L530.5,28 L530.0156,28 L529.5,27.375 L529.5,27 L529.5,26.625 L530.0156,26 L530.5,26 L532.5,26 L532.5,20 L530.5,20 L530.0156,20 L529.5,19.375 L529.5,19 L529.5,18.625 L530.0156,18 L530.5,18 L536.5,18 L536.9844,18 L537.5,18.625 L537.5,19 L537.5,19.375 L536.9844,20 L536.5,20 L534.5,20 Z " fill="#000000"/><text fill="#000000" font-family="sans-serif" font-size="12" font-style="italic" lengthAdjust="spacing" textLength="55" x="547.5" y="27.9102">Runnable</text><line style="stroke:#A80036;stroke-width:1.5;" x1="519.5" x2="604.5" y1="39" y2="39"/><line style="stroke:#A80036;stroke-width:1.5;" x1="519.5" x2="604.5" y1="47" y2="47"/><text fill="#000000" font-family="sans-serif" font-size="11" lengthAdjust="spacing" textLength="30" x="524.5" y="62.4189">+run()</text><!--MD5=[74054751ba3b9eca75fda5044dcc84d9]
class TimerTask--><rect codeLine="16" fill="#FEFECE" filter="url(#fyl7c94bdspre)" height="89.5078" id="TimerTask" style="stroke:#A80036;stroke-width:1.5;" width="139" x="492.5" y="129"/><ellipse cx="529.1" cy="145" fill="#A9DCDF" rx="11" ry="11" style="stroke:#A80036;stroke-width:1.0;"/><path d="M530.85,146.5 L527.5531,146.5 L527.1156,147.5 L527.1156,147.5 L527.5844,147.5 L528.1,148.125 L528.1,148.5 L528.1,148.875 L527.5844,149.5 L527.1156,149.5 L525.225,149.5 L524.6156,149.5 L524.1,148.875 L524.1,148.5 L524.1,148.125 L524.6156,147.5 L525.225,147.5 L527.5375,141.5 L526.6625,141.5 L525.6156,141.5 L525.1,140.875 L525.1,140.5 L525.1,140.125 L525.6156,139.5 L526.6625,139.5 L530.3344,139.5 L533.0219,147.5 L533.5844,147.5 L533.5844,147.5 L534.1,148.125 L534.1,148.5 L534.1,148.875 L533.5844,149.5 L533.0219,149.5 L531.1313,149.5 L530.6156,149.5 L530.1,148.875 L530.1,148.5 L530.1,148.125 L530.6156,147.5 L531.1313,147.5 L531.1313,147.5 L530.85,146.5 Z M530.3031,144.5 L529.1,140.9219 L528.0688,144.5 L530.3031,144.5 Z " fill="#000000"/><text fill="#000000" font-family="sans-serif" font-size="12" font-style="italic" lengthAdjust="spacing" textLength="59" x="547.9" y="149.9102">TimerTask</text><line style="stroke:#A80036;stroke-width:1.5;" x1="493.5" x2="630.5" y1="161" y2="161"/><line style="stroke:#A80036;stroke-width:1.5;" x1="493.5" x2="630.5" y1="169" y2="169"/><text fill="#000000" font-family="sans-serif" font-size="11" lengthAdjust="spacing" textLength="30" x="498.5" y="184.4189">+run()</text><text fill="#000000" font-family="sans-serif" font-size="11" lengthAdjust="spacing" textLength="46" x="498.5" y="198.2549">+cancel()</text><text fill="#000000" font-family="sans-serif" font-size="11" lengthAdjust="spacing" textLength="127" x="498.5" y="212.0908">+scheduleExecutionTime()</text><!--MD5=[ef340af6512c03d5eeac92509be9c66b]
class LinearRegression--><rect codeLine="22" fill="#FEFECE" filter="url(#fyl7c94bdspre)" height="61.8359" id="LinearRegression" style="stroke:#A80036;stroke-width:1.5;" width="132" x="7" y="422"/><ellipse cx="22" cy="438" fill="#ADD1B2" rx="11" ry="11" style="stroke:#A80036;stroke-width:1.0;"/><path d="M24,434.5 Q24.2031,434 24.4375,433.75 Q24.6719,433.5 24.9375,433.5 Q25.4063,433.5 25.7031,433.7813 Q26,434.0625 26,434.7188 L26,436.2813 Q26,436.9375 25.7188,437.2188 Q25.4375,437.5 25,437.5 Q24.6094,437.5 24.3594,437.3281 Q24.1094,437.1563 24,436.7031 Q23.9531,436.3906 23.7813,436.2188 Q23.4688,435.8906 22.9063,435.7031 Q22.3438,435.5 21.7813,435.5 Q21.0781,435.5 20.4844,435.7813 Q19.9063,436.0625 19.4531,436.6875 Q19,437.3125 19,438.1719 L19,439.0938 Q19,440.125 19.8438,440.8125 Q20.6875,441.5 22.1875,441.5 Q23.0781,441.5 23.7031,441.2969 Q24.0625,441.1875 24.4688,440.8281 Q24.7344,440.625 24.875,440.5625 Q25.0156,440.5 25.1875,440.5 Q25.5156,440.5 25.75,440.7656 Q26,441.0156 26,441.375 Q26,441.7188 25.6563,442.125 Q25.1563,442.7188 24.3594,443.0469 Q23.3125,443.5 22.0313,443.5 Q20.5313,443.5 19.3281,442.9063 Q18.3594,442.4375 17.6719,441.4219 Q17,440.4063 17,439.2031 L17,438.1094 Q17,436.8594 17.5938,435.7656 Q18.2031,434.6719 19.25,434.0938 Q20.3125,433.5 21.5,433.5 Q22.2188,433.5 22.8438,433.75 Q23.4688,434 24,434.5 Z " fill="#000000"/><text fill="#000000" font-family="sans-serif" font-size="12" lengthAdjust="spacing" textLength="100" x="36" y="442.9102">LinearRegression</text><line style="stroke:#A80036;stroke-width:1.5;" x1="8" x2="138" y1="454" y2="454"/><line style="stroke:#A80036;stroke-width:1.5;" x1="8" x2="138" y1="462" y2="462"/><text fill="#000000" font-family="sans-serif" font-size="11" lengthAdjust="spacing" textLength="117" x="13" y="477.4189">+LinearRegression(x, y)</text><!--MD5=[6f57bde7dde74de5002c105391146556]
class MultiLinearRegression--><rect codeLine="26" fill="#FEFECE" filter="url(#fyl7c94bdspre)" height="61.8359" id="MultiLinearRegression" style="stroke:#A80036;stroke-width:1.5;" width="174" x="305" y="558"/><ellipse cx="327.65" cy="574" fill="#ADD1B2" rx="11" ry="11" style="stroke:#A80036;stroke-width:1.0;"/><path d="M329.65,570.5 Q329.8531,570 330.0875,569.75 Q330.3219,569.5 330.5875,569.5 Q331.0563,569.5 331.3531,569.7813 Q331.65,570.0625 331.65,570.7188 L331.65,572.2813 Q331.65,572.9375 331.3688,573.2188 Q331.0875,573.5 330.65,573.5 Q330.2594,573.5 330.0094,573.3281 Q329.7594,573.1563 329.65,572.7031 Q329.6031,572.3906 329.4313,572.2188 Q329.1188,571.8906 328.5563,571.7031 Q327.9938,571.5 327.4313,571.5 Q326.7281,571.5 326.1344,571.7813 Q325.5563,572.0625 325.1031,572.6875 Q324.65,573.3125 324.65,574.1719 L324.65,575.0938 Q324.65,576.125 325.4938,576.8125 Q326.3375,577.5 327.8375,577.5 Q328.7281,577.5 329.3531,577.2969 Q329.7125,577.1875 330.1188,576.8281 Q330.3844,576.625 330.525,576.5625 Q330.6656,576.5 330.8375,576.5 Q331.1656,576.5 331.4,576.7656 Q331.65,577.0156 331.65,577.375 Q331.65,577.7188 331.3063,578.125 Q330.8063,578.7188 330.0094,579.0469 Q328.9625,579.5 327.6813,579.5 Q326.1813,579.5 324.9781,578.9063 Q324.0094,578.4375 323.3219,577.4219 Q322.65,576.4063 322.65,575.2031 L322.65,574.1094 Q322.65,572.8594 323.2438,571.7656 Q323.8531,570.6719 324.9,570.0938 Q325.9625,569.5 327.15,569.5 Q327.8688,569.5 328.4938,569.75 Q329.1188,570 329.65,570.5 Z " fill="#000000"/><text fill="#000000" font-family="sans-serif" font-size="12" lengthAdjust="spacing" textLength="125" x="343.35" y="578.9102">MultiLinearRegression</text><line style="stroke:#A80036;stroke-width:1.5;" x1="306" x2="478" y1="590" y2="590"/><line style="stroke:#A80036;stroke-width:1.5;" x1="306" x2="478" y1="598" y2="598"/><text fill="#000000" font-family="sans-serif" font-size="11" lengthAdjust="spacing" textLength="162" x="311" y="613.4189">+MultiLinearRegression(x1, x2, y)</text><!--MD5=[0f6f7964b844a64b0496af0dda7914bd]
class TestStore--><rect codeLine="30" fill="#FEFECE" filter="url(#fyl7c94bdspre)" height="48" id="TestStore" style="stroke:#A80036;stroke-width:1.5;" width="85" x="246.5" y="293"/><ellipse cx="261.5" cy="309" fill="#ADD1B2" rx="11" ry="11" style="stroke:#A80036;stroke-width:1.0;"/><path d="M263.5,305.5 Q263.7031,305 263.9375,304.75 Q264.1719,304.5 264.4375,304.5 Q264.9063,304.5 265.2031,304.7813 Q265.5,305.0625 265.5,305.7188 L265.5,307.2813 Q265.5,307.9375 265.2188,308.2188 Q264.9375,308.5 264.5,308.5 Q264.1094,308.5 263.8594,308.3281 Q263.6094,308.1563 263.5,307.7031 Q263.4531,307.3906 263.2813,307.2188 Q262.9688,306.8906 262.4063,306.7031 Q261.8438,306.5 261.2813,306.5 Q260.5781,306.5 259.9844,306.7813 Q259.4063,307.0625 258.9531,307.6875 Q258.5,308.3125 258.5,309.1719 L258.5,310.0938 Q258.5,311.125 259.3438,311.8125 Q260.1875,312.5 261.6875,312.5 Q262.5781,312.5 263.2031,312.2969 Q263.5625,312.1875 263.9688,311.8281 Q264.2344,311.625 264.375,311.5625 Q264.5156,311.5 264.6875,311.5 Q265.0156,311.5 265.25,311.7656 Q265.5,312.0156 265.5,312.375 Q265.5,312.7188 265.1563,313.125 Q264.6563,313.7188 263.8594,314.0469 Q262.8125,314.5 261.5313,314.5 Q260.0313,314.5 258.8281,313.9063 Q257.8594,313.4375 257.1719,312.4219 Q256.5,311.4063 256.5,310.2031 L256.5,309.1094 Q256.5,307.8594 257.0938,306.7656 Q257.7031,305.6719 258.75,305.0938 Q259.8125,304.5 261,304.5 Q261.7188,304.5 262.3438,304.75 Q262.9688,305 263.5,305.5 Z " fill="#000000"/><text fill="#000000" font-family="sans-serif" font-size="12" lengthAdjust="spacing" textLength="53" x="275.5" y="313.9102">TestStore</text><line style="stroke:#A80036;stroke-width:1.5;" x1="247.5" x2="330.5" y1="325" y2="325"/><line style="stroke:#A80036;stroke-width:1.5;" x1="247.5" x2="330.5" y1="333" y2="333"/><!--MD5=[906102cd9c3f86a843ffe169f50170bd]
class WriteReport--><rect codeLine="33" fill="#FEFECE" filter="url(#fyl7c94bdspre)" height="75.6719" id="WriteReport" style="stroke:#A80036;stroke-width:1.5;" width="435" x="174.5" y="415"/><ellipse cx="355.25" cy="431" fill="#ADD1B2" rx="11" ry="11" style="stroke:#A80036;stroke-width:1.0;"/><path d="M357.25,427.5 Q357.4531,427 357.6875,426.75 Q357.9219,426.5 358.1875,426.5 Q358.6563,426.5 358.9531,426.7813 Q359.25,427.0625 359.25,427.7188 L359.25,429.2813 Q359.25,429.9375 358.9688,430.2188 Q358.6875,430.5 358.25,430.5 Q357.8594,430.5 357.6094,430.3281 Q357.3594,430.1563 357.25,429.7031 Q357.2031,429.3906 357.0313,429.2188 Q356.7188,428.8906 356.1563,428.7031 Q355.5938,428.5 355.0313,428.5 Q354.3281,428.5 353.7344,428.7813 Q353.1563,429.0625 352.7031,429.6875 Q352.25,430.3125 352.25,431.1719 L352.25,432.0938 Q352.25,433.125 353.0938,433.8125 Q353.9375,434.5 355.4375,434.5 Q356.3281,434.5 356.9531,434.2969 Q357.3125,434.1875 357.7188,433.8281 Q357.9844,433.625 358.125,433.5625 Q358.2656,433.5 358.4375,433.5 Q358.7656,433.5 359,433.7656 Q359.25,434.0156 359.25,434.375 Q359.25,434.7188 358.9063,435.125 Q358.4063,435.7188 357.6094,436.0469 Q356.5625,436.5 355.2813,436.5 Q353.7813,436.5 352.5781,435.9063 Q351.6094,435.4375 350.9219,434.4219 Q350.25,433.4063 350.25,432.2031 L350.25,431.1094 Q350.25,429.8594 350.8438,428.7656 Q351.4531,427.6719 352.5,427.0938 Q353.5625,426.5 354.75,426.5 Q355.4688,426.5 356.0938,426.75 Q356.7188,427 357.25,427.5 Z " fill="#000000"/><text fill="#000000" font-family="sans-serif" font-size="12" lengthAdjust="spacing" textLength="65" x="375.75" y="435.9102">WriteReport</text><line style="stroke:#A80036;stroke-width:1.5;" x1="175.5" x2="608.5" y1="447" y2="447"/><line style="stroke:#A80036;stroke-width:1.5;" x1="175.5" x2="608.5" y1="455" y2="455"/><text fill="#000000" font-family="sans-serif" font-size="11" lengthAdjust="spacing" textLength="423" x="180.5" y="470.4189">+WriteReport(testStore, historicalPoints, currentDay, startRegression, finishRegression)</text><text fill="#000000" font-family="sans-serif" font-size="11" lengthAdjust="spacing" textLength="92" x="180.5" y="484.2549">+String getReport()</text><!--MD5=[50d1a1cda746b645eed6e6c94f8696d0]
class ExternalModuleNhsReport--><rect codeLine="38" fill="#FEFECE" filter="url(#fyl7c94bdspre)" height="61.8359" id="ExternalModuleNhsReport" style="stroke:#A80036;stroke-width:1.5;" width="176" x="645" y="422"/><ellipse cx="660" cy="438" fill="#B4A7E5" rx="11" ry="11" style="stroke:#A80036;stroke-width:1.0;"/><path d="M661,435 L661,441 L663,441 L663.4844,441 L664,441.625 L664,442 L664,442.375 L663.4844,443 L663,443 L657,443 L656.5156,443 L656,442.375 L656,442 L656,441.625 L656.5156,441 L657,441 L659,441 L659,435 L657,435 L656.5156,435 L656,434.375 L656,434 L656,433.625 L656.5156,433 L657,433 L663,433 L663.4844,433 L664,433.625 L664,434 L664,434.375 L663.4844,435 L663,435 L661,435 Z " fill="#000000"/><text fill="#000000" font-family="sans-serif" font-size="12" font-style="italic" lengthAdjust="spacing" textLength="144" x="674" y="442.9102">ExternalModuleNhsReport</text><line style="stroke:#A80036;stroke-width:1.5;" x1="646" x2="820" y1="454" y2="454"/><line style="stroke:#A80036;stroke-width:1.5;" x1="646" x2="820" y1="462" y2="462"/><text fill="#000000" font-family="sans-serif" font-size="11" lengthAdjust="spacing" textLength="151" x="651" y="477.4189">+void sendReport(String string)</text><!--MD5=[b04e67341a4c9a11ab886afd8f3c3b68]
class ExternalModuleNhsReportAdapter--><rect codeLine="42" fill="#FEFECE" filter="url(#fyl7c94bdspre)" height="75.6719" id="ExternalModuleNhsReportAdapter" style="stroke:#A80036;stroke-width:1.5;" width="218" x="624" y="551"/><ellipse cx="639" cy="567" fill="#ADD1B2" rx="11" ry="11" style="stroke:#A80036;stroke-width:1.0;"/><path d="M641,563.5 Q641.2031,563 641.4375,562.75 Q641.6719,562.5 641.9375,562.5 Q642.4063,562.5 642.7031,562.7813 Q643,563.0625 643,563.7188 L643,565.2813 Q643,565.9375 642.7188,566.2188 Q642.4375,566.5 642,566.5 Q641.6094,566.5 641.3594,566.3281 Q641.1094,566.1563 641,565.7031 Q640.9531,565.3906 640.7813,565.2188 Q640.4688,564.8906 639.9063,564.7031 Q639.3438,564.5 638.7813,564.5 Q638.0781,564.5 637.4844,564.7813 Q636.9063,565.0625 636.4531,565.6875 Q636,566.3125 636,567.1719 L636,568.0938 Q636,569.125 636.8438,569.8125 Q637.6875,570.5 639.1875,570.5 Q640.0781,570.5 640.7031,570.2969 Q641.0625,570.1875 641.4688,569.8281 Q641.7344,569.625 641.875,569.5625 Q642.0156,569.5 642.1875,569.5 Q642.5156,569.5 642.75,569.7656 Q643,570.0156 643,570.375 Q643,570.7188 642.6563,571.125 Q642.1563,571.7188 641.3594,572.0469 Q640.3125,572.5 639.0313,572.5 Q637.5313,572.5 636.3281,571.9063 Q635.3594,571.4375 634.6719,570.4219 Q634,569.4063 634,568.2031 L634,567.1094 Q634,565.8594 634.5938,564.7656 Q635.2031,563.6719 636.25,563.0938 Q637.3125,562.5 638.5,562.5 Q639.2188,562.5 639.8438,562.75 Q640.4688,563 641,563.5 Z " fill="#000000"/><text fill="#000000" font-family="sans-serif" font-size="12" lengthAdjust="spacing" textLength="186" x="653" y="571.9102">ExternalModuleNhsReportAdapter</text><line style="stroke:#A80036;stroke-width:1.5;" x1="625" x2="841" y1="583" y2="583"/><line style="stroke:#A80036;stroke-width:1.5;" x1="625" x2="841" y1="591" y2="591"/><text fill="#000000" font-family="sans-serif" font-size="11" lengthAdjust="spacing" textLength="128" x="630" y="606.4189">+sendReport(String string)</text><text fill="#000000" font-family="sans-serif" font-size="11" lengthAdjust="spacing" textLength="93" x="630" y="620.2549">+getDateAndTime()</text><!--MD5=[fde5bf5e32ebd91aaa37566c2946746b]
class Report2NHS--><rect codeLine="47" fill="#FEFECE" filter="url(#fyl7c94bdspre)" height="61.8359" id="Report2NHS" style="stroke:#A80036;stroke-width:1.5;" width="175" x="645.5" y="687"/><ellipse cx="693.75" cy="703" fill="#ADD1B2" rx="11" ry="11" style="stroke:#A80036;stroke-width:1.0;"/><path d="M695.75,699.5 Q695.9531,699 696.1875,698.75 Q696.4219,698.5 696.6875,698.5 Q697.1563,698.5 697.4531,698.7813 Q697.75,699.0625 697.75,699.7188 L697.75,701.2813 Q697.75,701.9375 697.4688,702.2188 Q697.1875,702.5 696.75,702.5 Q696.3594,702.5 696.1094,702.3281 Q695.8594,702.1563 695.75,701.7031 Q695.7031,701.3906 695.5313,701.2188 Q695.2188,700.8906 694.6563,700.7031 Q694.0938,700.5 693.5313,700.5 Q692.8281,700.5 692.2344,700.7813 Q691.6563,701.0625 691.2031,701.6875 Q690.75,702.3125 690.75,703.1719 L690.75,704.0938 Q690.75,705.125 691.5938,705.8125 Q692.4375,706.5 693.9375,706.5 Q694.8281,706.5 695.4531,706.2969 Q695.8125,706.1875 696.2188,705.8281 Q696.4844,705.625 696.625,705.5625 Q696.7656,705.5 696.9375,705.5 Q697.2656,705.5 697.5,705.7656 Q697.75,706.0156 697.75,706.375 Q697.75,706.7188 697.4063,707.125 Q696.9063,707.7188 696.1094,708.0469 Q695.0625,708.5 693.7813,708.5 Q692.2813,708.5 691.0781,707.9063 Q690.1094,707.4375 689.4219,706.4219 Q688.75,705.4063 688.75,704.2031 L688.75,703.1094 Q688.75,701.8594 689.3438,700.7656 Q689.9531,699.6719 691,699.0938 Q692.0625,698.5 693.25,698.5 Q693.9688,698.5 694.5938,698.75 Q695.2188,699 695.75,699.5 Z " fill="#000000"/><text fill="#000000" font-family="sans-serif" font-size="12" lengthAdjust="spacing" textLength="70" x="714.25" y="707.9102">Report2NHS</text><line style="stroke:#A80036;stroke-width:1.5;" x1="646.5" x2="819.5" y1="719" y2="719"/><line style="stroke:#A80036;stroke-width:1.5;" x1="646.5" x2="819.5" y1="727" y2="727"/><text fill="#000000" font-family="sans-serif" font-size="11" lengthAdjust="spacing" textLength="163" x="651.5" y="742.4189">+writeUsingFileWriter(String data)</text><!--MD5=[a6b9d0cb7d359095f39f431614fcb2ea]
link DailyReportController to ExternalModuleNhsReport--><path codeLine="51" d="M609.63,355.33 C634.95,375.17 665.82,399.35 690.34,418.57 " fill="none" id="DailyReportController-to-ExternalModuleNhsReport" style="stroke:#A80036;stroke-width:1.0;stroke-dasharray:7.0,7.0;"/><polygon fill="#A80036" points="694.53,421.86,689.9077,413.1632,690.5925,418.7785,684.9772,419.4632,694.53,421.86" style="stroke:#A80036;stroke-width:1.0;"/><!--MD5=[3025a6d438ad784741aa5b80960293be]
reverse link Runnable to TimerTask--><path codeLine="52" d="M562,89.12 C562,102.14 562,116.08 562,128.78 " fill="none" id="Runnable-backto-TimerTask" style="stroke:#A80036;stroke-width:1.0;stroke-dasharray:7.0,7.0;"/><polygon fill="none" points="555,89.07,562,69.07,569,89.07,555,89.07" style="stroke:#A80036;stroke-width:1.0;"/><!--MD5=[0b134c2e1becc54666dbfd34b13f2719]
reverse link TimerTask to DailyReportController--><path codeLine="53" d="M562,239.67 C562,252.99 562,266.6 562,278.57 " fill="none" id="TimerTask-backto-DailyReportController" style="stroke:#A80036;stroke-width:1.0;"/><polygon fill="none" points="555,239.23,562,219.23,569,239.23,555,239.23" style="stroke:#A80036;stroke-width:1.0;"/><!--MD5=[198303e7035dffe343e2c6944878c58b]
link DailyReportController to WriteReport--><path codeLine="54" d="M514.65,355.33 C492.45,372.82 465.96,393.7 443.29,411.57 " fill="none" id="DailyReportController-to-WriteReport" style="stroke:#A80036;stroke-width:1.0;stroke-dasharray:7.0,7.0;"/><polygon fill="#A80036" points="439.1,414.87,448.6431,412.435,443.0251,411.7727,443.6874,406.1548,439.1,414.87" style="stroke:#A80036;stroke-width:1.0;"/><!--MD5=[8f995a293d547ad4c9da2f90ac660d23]
reverse link Company to DailyReportController--><path codeLine="55" d="M456.91,317 C466.81,317 476.72,317 486.62,317 " fill="none" id="Company-backto-DailyReportController" style="stroke:#A80036;stroke-width:1.0;stroke-dasharray:7.0,7.0;"/><polygon fill="#A80036" points="451.73,317,460.73,321,456.73,317,460.73,313,451.73,317" style="stroke:#A80036;stroke-width:1.0;"/><!--MD5=[adb81e9626eab0b9608444eaf57ecc00]
reverse link TestStore to Company--><path codeLine="56" d="M336.81,317 C346.68,317 356.54,317 366.4,317 " fill="none" id="TestStore-backto-Company" style="stroke:#A80036;stroke-width:1.0;stroke-dasharray:7.0,7.0;"/><polygon fill="#A80036" points="331.66,317,340.66,321,336.66,317,340.66,313,331.66,317" style="stroke:#A80036;stroke-width:1.0;"/><!--MD5=[bc2c7d55cffe9294a45c49b39bc62740]
reverse link ExternalModuleNhsReport to ExternalModuleNhsReportAdapter--><path codeLine="57" d="M733,504.08 C733,519.58 733,536.38 733,550.85 " fill="none" id="ExternalModuleNhsReport-backto-ExternalModuleNhsReportAdapter" style="stroke:#A80036;stroke-width:1.0;stroke-dasharray:7.0,7.0;"/><polygon fill="none" points="726,504.07,733,484.07,740,504.07,726,504.07" style="stroke:#A80036;stroke-width:1.0;"/><!--MD5=[a8efa147a8cc977fd336ee3041b61649]
link ExternalModuleNhsReportAdapter to Report2NHS--><path codeLine="58" d="M733,627.08 C733,644.33 733,664.74 733,681.76 " fill="none" id="ExternalModuleNhsReportAdapter-to-Report2NHS" style="stroke:#A80036;stroke-width:1.0;stroke-dasharray:7.0,7.0;"/><polygon fill="#A80036" points="733,686.93,737,677.93,733,681.93,729,677.93,733,686.93" style="stroke:#A80036;stroke-width:1.0;"/><!--MD5=[2feb3edffcc5d87c52d320ef906357ef]
reverse link LinearRegression to WriteReport--><path codeLine="59" d="M144.25,453 C154.21,453 164.16,453 174.12,453 " fill="none" id="LinearRegression-backto-WriteReport" style="stroke:#A80036;stroke-width:1.0;stroke-dasharray:7.0,7.0;"/><polygon fill="#A80036" points="139.04,453,148.04,457,144.04,453,148.04,449,139.04,453" style="stroke:#A80036;stroke-width:1.0;"/><!--MD5=[6b376ca7614b88316936f98332ad4b74]
link WriteReport to MultiLinearRegression--><path codeLine="60" d="M392,491.33 C392,510.44 392,533.59 392,552.44 " fill="none" id="WriteReport-to-MultiLinearRegression" style="stroke:#A80036;stroke-width:1.0;stroke-dasharray:7.0,7.0;"/><polygon fill="#A80036" points="392,557.64,396,548.64,392,552.64,388,548.64,392,557.64" style="stroke:#A80036;stroke-width:1.0;"/><!--MD5=[2908cb1e6930882d7a0f08c3b93d0e21]
@startuml

skinparam classAttributeIconSize 0

class DailyReportController {
+dailyReportTimer()
+run()
}

class Company {
}

interface Runnable {
+run()
}

abstract TimerTask {
+run()
+cancel()
+scheduleExecutionTime()
}

class LinearRegression {
+LinearRegression(x, y)
}

class MultiLinearRegression {
+MultiLinearRegression(x1, x2, y)
}

class TestStore {
}

class WriteReport {
+WriteReport(testStore, historicalPoints, currentDay, startRegression, finishRegression)
+String getReport()
}

interface ExternalModuleNhsReport {
+void sendReport(String string)
}

class ExternalModuleNhsReportAdapter {
+sendReport(String string)
+getDateAndTime()
}

class Report2NHS {
+writeUsingFileWriter(String data)
}

DailyReportController ..> ExternalModuleNhsReport
Runnable <|.. TimerTask
TimerTask <|- - DailyReportController
DailyReportController ..> WriteReport
Company <. DailyReportController
TestStore <. Company
ExternalModuleNhsReport <|.. ExternalModuleNhsReportAdapter
ExternalModuleNhsReportAdapter ..> Report2NHS
LinearRegression <. WriteReport
WriteReport ..> MultiLinearRegression

@enduml

PlantUML version 1.2021.4(Sun Apr 04 09:49:39 BST 2021)
(GPL source distribution)
Java Runtime: OpenJDK Runtime Environment
JVM: OpenJDK 64-Bit Server VM
Default Encoding: Cp1252
Language: en
Country: US
--></g></svg>