<?xml version="1.0" encoding="UTF-8" standalone="no"?><svg xmlns="http://www.w3.org/2000/svg" xmlns:xlink="http://www.w3.org/1999/xlink" contentScriptType="application/ecmascript" contentStyleType="text/css" height="534px" preserveAspectRatio="none" style="width:1522px;height:534px;" version="1.1" viewBox="0 0 1522 534" width="1522px" zoomAndPan="magnify"><defs><filter height="300%" id="f15awh8yfchcbl" width="300%" x="-1" y="-1"><feGaussianBlur result="blurOut" stdDeviation="2.0"/><feColorMatrix in="blurOut" result="blurOut2" type="matrix" values="0 0 0 0 0 0 0 0 0 0 0 0 0 0 0 0 0 0 .4 0"/><feOffset dx="4.0" dy="4.0" in="blurOut2" result="blurOut3"/><feBlend in="SourceGraphic" in2="blurOut3" mode="normal"/></filter></defs><g><!--MD5=[e663926f46ae319bd097eeb013f7291c]
class DailyReportController--><rect codeLine="4" fill="#FEFECE" filter="url(#f15awh8yfchcbl)" height="61.8359" id="DailyReportController" style="stroke:#A80036;stroke-width:1.5;" width="150" x="209" y="88.14"/><ellipse cx="224" cy="104.14" fill="#ADD1B2" rx="11" ry="11" style="stroke:#A80036;stroke-width:1.0;"/><path d="M226,100.64 Q226.2031,100.14 226.4375,99.89 Q226.6719,99.64 226.9375,99.64 Q227.4063,99.64 227.7031,99.9212 Q228,100.2025 228,100.8587 L228,102.4212 Q228,103.0775 227.7188,103.3587 Q227.4375,103.64 227,103.64 Q226.6094,103.64 226.3594,103.4681 Q226.1094,103.2962 226,102.8431 Q225.9531,102.5306 225.7813,102.3587 Q225.4688,102.0306 224.9063,101.8431 Q224.3438,101.64 223.7813,101.64 Q223.0781,101.64 222.4844,101.9212 Q221.9063,102.2025 221.4531,102.8275 Q221,103.4525 221,104.3119 L221,105.2337 Q221,106.265 221.8438,106.9525 Q222.6875,107.64 224.1875,107.64 Q225.0781,107.64 225.7031,107.4369 Q226.0625,107.3275 226.4688,106.9681 Q226.7344,106.765 226.875,106.7025 Q227.0156,106.64 227.1875,106.64 Q227.5156,106.64 227.75,106.9056 Q228,107.1556 228,107.515 Q228,107.8587 227.6563,108.265 Q227.1563,108.8587 226.3594,109.1869 Q225.3125,109.64 224.0313,109.64 Q222.5313,109.64 221.3281,109.0462 Q220.3594,108.5775 219.6719,107.5619 Q219,106.5462 219,105.3431 L219,104.2494 Q219,102.9994 219.5938,101.9056 Q220.2031,100.8119 221.25,100.2337 Q222.3125,99.64 223.5,99.64 Q224.2188,99.64 224.8438,99.89 Q225.4688,100.14 226,100.64 Z " fill="#000000"/><text fill="#000000" font-family="sans-serif" font-size="12" lengthAdjust="spacing" textLength="118" x="238" y="109.0502">DailyReportController</text><line style="stroke:#A80036;stroke-width:1.5;" x1="210" x2="358" y1="120.14" y2="120.14"/><line style="stroke:#A80036;stroke-width:1.5;" x1="210" x2="358" y1="128.14" y2="128.14"/><text fill="#000000" font-family="sans-serif" font-size="11" lengthAdjust="spacing" textLength="30" x="215" y="143.5589">+run()</text><!--MD5=[11779a1c85551913f1fc615802b94a30]
class CreateNhsReportController--><rect codeLine="8" fill="#FEFECE" filter="url(#f15awh8yfchcbl)" height="131.0156" id="CreateNhsReportController" style="stroke:#A80036;stroke-width:1.5;" width="239" x="394.5" y="53.64"/><ellipse cx="434.7" cy="69.64" fill="#ADD1B2" rx="11" ry="11" style="stroke:#A80036;stroke-width:1.0;"/><path d="M436.7,66.14 Q436.9031,65.64 437.1375,65.39 Q437.3719,65.14 437.6375,65.14 Q438.1063,65.14 438.4031,65.4212 Q438.7,65.7025 438.7,66.3587 L438.7,67.9212 Q438.7,68.5775 438.4188,68.8587 Q438.1375,69.14 437.7,69.14 Q437.3094,69.14 437.0594,68.9681 Q436.8094,68.7962 436.7,68.3431 Q436.6531,68.0306 436.4813,67.8587 Q436.1688,67.5306 435.6063,67.3431 Q435.0438,67.14 434.4813,67.14 Q433.7781,67.14 433.1844,67.4212 Q432.6063,67.7025 432.1531,68.3275 Q431.7,68.9525 431.7,69.8119 L431.7,70.7337 Q431.7,71.765 432.5438,72.4525 Q433.3875,73.14 434.8875,73.14 Q435.7781,73.14 436.4031,72.9369 Q436.7625,72.8275 437.1688,72.4681 Q437.4344,72.265 437.575,72.2025 Q437.7156,72.14 437.8875,72.14 Q438.2156,72.14 438.45,72.4056 Q438.7,72.6556 438.7,73.015 Q438.7,73.3587 438.3563,73.765 Q437.8563,74.3587 437.0594,74.6869 Q436.0125,75.14 434.7313,75.14 Q433.2313,75.14 432.0281,74.5462 Q431.0594,74.0775 430.3719,73.0619 Q429.7,72.0462 429.7,70.8431 L429.7,69.7494 Q429.7,68.4994 430.2938,67.4056 Q430.9031,66.3119 431.95,65.7337 Q433.0125,65.14 434.2,65.14 Q434.9188,65.14 435.5438,65.39 Q436.1688,65.64 436.7,66.14 Z " fill="#000000"/><text fill="#000000" font-family="sans-serif" font-size="12" lengthAdjust="spacing" textLength="151" x="454.3" y="74.5502">CreateNhsReportController</text><line style="stroke:#A80036;stroke-width:1.5;" x1="395.5" x2="632.5" y1="85.64" y2="85.64"/><line style="stroke:#A80036;stroke-width:1.5;" x1="395.5" x2="632.5" y1="93.64" y2="93.64"/><text fill="#000000" font-family="sans-serif" font-size="11" lengthAdjust="spacing" textLength="174" x="400.5" y="109.0589">+setHistoricalPoints(historicalPoints)</text><text fill="#000000" font-family="sans-serif" font-size="11" lengthAdjust="spacing" textLength="138" x="400.5" y="122.8949">+setCurrentDay(currentDay)</text><text fill="#000000" font-family="sans-serif" font-size="11" lengthAdjust="spacing" textLength="113" x="400.5" y="136.7308">+setInitialDay(initialDay)</text><text fill="#000000" font-family="sans-serif" font-size="11" lengthAdjust="spacing" textLength="109" x="400.5" y="150.5668">+setFinalDay(finalDay)</text><text fill="#000000" font-family="sans-serif" font-size="11" lengthAdjust="spacing" textLength="227" x="400.5" y="164.4027">+setIndependentVariable(independentVariable)</text><text fill="#000000" font-family="sans-serif" font-size="11" lengthAdjust="spacing" textLength="94" x="400.5" y="178.2386">+makeRegression()</text><!--MD5=[53ae8b34bebe44116eb8626f99f3fe78]
class Runnable--><rect codeLine="17" fill="#FEFECE" filter="url(#f15awh8yfchcbl)" height="61.8359" id="Runnable" style="stroke:#A80036;stroke-width:1.5;" width="87" x="42.5" y="444.64"/><ellipse cx="57.5" cy="460.64" fill="#B4A7E5" rx="11" ry="11" style="stroke:#A80036;stroke-width:1.0;"/><path d="M58.5,457.64 L58.5,463.64 L60.5,463.64 L60.9844,463.64 L61.5,464.265 L61.5,464.64 L61.5,465.015 L60.9844,465.64 L60.5,465.64 L54.5,465.64 L54.0156,465.64 L53.5,465.015 L53.5,464.64 L53.5,464.265 L54.0156,463.64 L54.5,463.64 L56.5,463.64 L56.5,457.64 L54.5,457.64 L54.0156,457.64 L53.5,457.015 L53.5,456.64 L53.5,456.265 L54.0156,455.64 L54.5,455.64 L60.5,455.64 L60.9844,455.64 L61.5,456.265 L61.5,456.64 L61.5,457.015 L60.9844,457.64 L60.5,457.64 L58.5,457.64 Z " fill="#000000"/><text fill="#000000" font-family="sans-serif" font-size="12" font-style="italic" lengthAdjust="spacing" textLength="55" x="71.5" y="465.5502">Runnable</text><line style="stroke:#A80036;stroke-width:1.5;" x1="43.5" x2="128.5" y1="476.64" y2="476.64"/><line style="stroke:#A80036;stroke-width:1.5;" x1="43.5" x2="128.5" y1="484.64" y2="484.64"/><text fill="#000000" font-family="sans-serif" font-size="11" lengthAdjust="spacing" textLength="30" x="48.5" y="500.0589">+run()</text><!--MD5=[74054751ba3b9eca75fda5044dcc84d9]
class TimerTask--><rect codeLine="21" fill="#FEFECE" filter="url(#f15awh8yfchcbl)" height="75.6719" id="TimerTask" style="stroke:#A80036;stroke-width:1.5;" width="158" x="7" y="269.64"/><ellipse cx="52.25" cy="285.64" fill="#A9DCDF" rx="11" ry="11" style="stroke:#A80036;stroke-width:1.0;"/><path d="M54,287.14 L50.7031,287.14 L50.2656,288.14 L50.2656,288.14 L50.7344,288.14 L51.25,288.765 L51.25,289.14 L51.25,289.515 L50.7344,290.14 L50.2656,290.14 L48.375,290.14 L47.7656,290.14 L47.25,289.515 L47.25,289.14 L47.25,288.765 L47.7656,288.14 L48.375,288.14 L50.6875,282.14 L49.8125,282.14 L48.7656,282.14 L48.25,281.515 L48.25,281.14 L48.25,280.765 L48.7656,280.14 L49.8125,280.14 L53.4844,280.14 L56.1719,288.14 L56.7344,288.14 L56.7344,288.14 L57.25,288.765 L57.25,289.14 L57.25,289.515 L56.7344,290.14 L56.1719,290.14 L54.2813,290.14 L53.7656,290.14 L53.25,289.515 L53.25,289.14 L53.25,288.765 L53.7656,288.14 L54.2813,288.14 L54.2813,288.14 L54,287.14 Z M53.4531,285.14 L52.25,281.5619 L51.2188,285.14 L53.4531,285.14 Z " fill="#000000"/><text fill="#000000" font-family="sans-serif" font-size="12" font-style="italic" lengthAdjust="spacing" textLength="59" x="72.75" y="290.5502">TimerTask</text><line style="stroke:#A80036;stroke-width:1.5;" x1="8" x2="164" y1="301.64" y2="301.64"/><line style="stroke:#A80036;stroke-width:1.5;" x1="8" x2="164" y1="309.64" y2="309.64"/><text fill="#000000" font-family="sans-serif" font-size="11" lengthAdjust="spacing" textLength="30" x="13" y="325.0589">+run()</text><text fill="#000000" font-family="sans-serif" font-size="11" lengthAdjust="spacing" textLength="146" x="13" y="338.8949">+schedule(task, delay, period)</text><!--MD5=[9d39d6f37af742695087469afae8b132]
class DailyReportTimer--><rect codeLine="26" fill="#FEFECE" filter="url(#f15awh8yfchcbl)" height="61.8359" id="DailyReportTimer" style="stroke:#A80036;stroke-width:1.5;" width="128" x="43" y="88.14"/><ellipse cx="58" cy="104.14" fill="#ADD1B2" rx="11" ry="11" style="stroke:#A80036;stroke-width:1.0;"/><path d="M60,100.64 Q60.2031,100.14 60.4375,99.89 Q60.6719,99.64 60.9375,99.64 Q61.4063,99.64 61.7031,99.9212 Q62,100.2025 62,100.8587 L62,102.4212 Q62,103.0775 61.7188,103.3587 Q61.4375,103.64 61,103.64 Q60.6094,103.64 60.3594,103.4681 Q60.1094,103.2962 60,102.8431 Q59.9531,102.5306 59.7813,102.3587 Q59.4688,102.0306 58.9063,101.8431 Q58.3438,101.64 57.7813,101.64 Q57.0781,101.64 56.4844,101.9212 Q55.9063,102.2025 55.4531,102.8275 Q55,103.4525 55,104.3119 L55,105.2337 Q55,106.265 55.8438,106.9525 Q56.6875,107.64 58.1875,107.64 Q59.0781,107.64 59.7031,107.4369 Q60.0625,107.3275 60.4688,106.9681 Q60.7344,106.765 60.875,106.7025 Q61.0156,106.64 61.1875,106.64 Q61.5156,106.64 61.75,106.9056 Q62,107.1556 62,107.515 Q62,107.8587 61.6563,108.265 Q61.1563,108.8587 60.3594,109.1869 Q59.3125,109.64 58.0313,109.64 Q56.5313,109.64 55.3281,109.0462 Q54.3594,108.5775 53.6719,107.5619 Q53,106.5462 53,105.3431 L53,104.2494 Q53,102.9994 53.5938,101.9056 Q54.2031,100.8119 55.25,100.2337 Q56.3125,99.64 57.5,99.64 Q58.2188,99.64 58.8438,99.89 Q59.4688,100.14 60,100.64 Z " fill="#000000"/><text fill="#000000" font-family="sans-serif" font-size="12" lengthAdjust="spacing" textLength="96" x="72" y="109.0502">DailyReportTimer</text><line style="stroke:#A80036;stroke-width:1.5;" x1="44" x2="170" y1="120.14" y2="120.14"/><line style="stroke:#A80036;stroke-width:1.5;" x1="44" x2="170" y1="128.14" y2="128.14"/><text fill="#000000" font-family="sans-serif" font-size="11" lengthAdjust="spacing" textLength="94" x="49" y="143.5589">+dailyReportTimer()</text><!--MD5=[ef340af6512c03d5eeac92509be9c66b]
class LinearRegression--><rect codeLine="30" fill="#FEFECE" filter="url(#f15awh8yfchcbl)" height="61.8359" id="LinearRegression" style="stroke:#A80036;stroke-width:1.5;" width="132" x="1336" y="444.64"/><ellipse cx="1351" cy="460.64" fill="#ADD1B2" rx="11" ry="11" style="stroke:#A80036;stroke-width:1.0;"/><path d="M1353,457.14 Q1353.2031,456.64 1353.4375,456.39 Q1353.6719,456.14 1353.9375,456.14 Q1354.4063,456.14 1354.7031,456.4213 Q1355,456.7025 1355,457.3588 L1355,458.9213 Q1355,459.5775 1354.7188,459.8588 Q1354.4375,460.14 1354,460.14 Q1353.6094,460.14 1353.3594,459.9681 Q1353.1094,459.7963 1353,459.3431 Q1352.9531,459.0306 1352.7813,458.8588 Q1352.4688,458.5306 1351.9063,458.3431 Q1351.3438,458.14 1350.7813,458.14 Q1350.0781,458.14 1349.4844,458.4213 Q1348.9063,458.7025 1348.4531,459.3275 Q1348,459.9525 1348,460.8119 L1348,461.7338 Q1348,462.765 1348.8438,463.4525 Q1349.6875,464.14 1351.1875,464.14 Q1352.0781,464.14 1352.7031,463.9369 Q1353.0625,463.8275 1353.4688,463.4681 Q1353.7344,463.265 1353.875,463.2025 Q1354.0156,463.14 1354.1875,463.14 Q1354.5156,463.14 1354.75,463.4056 Q1355,463.6556 1355,464.015 Q1355,464.3588 1354.6563,464.765 Q1354.1563,465.3588 1353.3594,465.6869 Q1352.3125,466.14 1351.0313,466.14 Q1349.5313,466.14 1348.3281,465.5463 Q1347.3594,465.0775 1346.6719,464.0619 Q1346,463.0463 1346,461.8431 L1346,460.7494 Q1346,459.4994 1346.5938,458.4056 Q1347.2031,457.3119 1348.25,456.7338 Q1349.3125,456.14 1350.5,456.14 Q1351.2188,456.14 1351.8438,456.39 Q1352.4688,456.64 1353,457.14 Z " fill="#000000"/><text fill="#000000" font-family="sans-serif" font-size="12" lengthAdjust="spacing" textLength="100" x="1365" y="465.5502">LinearRegression</text><line style="stroke:#A80036;stroke-width:1.5;" x1="1337" x2="1467" y1="476.64" y2="476.64"/><line style="stroke:#A80036;stroke-width:1.5;" x1="1337" x2="1467" y1="484.64" y2="484.64"/><text fill="#000000" font-family="sans-serif" font-size="11" lengthAdjust="spacing" textLength="117" x="1342" y="500.0589">+LinearRegression(x, y)</text><!--MD5=[6f57bde7dde74de5002c105391146556]
class MultiLinearRegression--><rect codeLine="34" fill="#FEFECE" filter="url(#f15awh8yfchcbl)" height="61.8359" id="MultiLinearRegression" style="stroke:#A80036;stroke-width:1.5;" width="174" x="1127" y="444.64"/><ellipse cx="1149.65" cy="460.64" fill="#ADD1B2" rx="11" ry="11" style="stroke:#A80036;stroke-width:1.0;"/><path d="M1151.65,457.14 Q1151.8531,456.64 1152.0875,456.39 Q1152.3219,456.14 1152.5875,456.14 Q1153.0563,456.14 1153.3531,456.4213 Q1153.65,456.7025 1153.65,457.3588 L1153.65,458.9213 Q1153.65,459.5775 1153.3688,459.8588 Q1153.0875,460.14 1152.65,460.14 Q1152.2594,460.14 1152.0094,459.9681 Q1151.7594,459.7963 1151.65,459.3431 Q1151.6031,459.0306 1151.4313,458.8588 Q1151.1188,458.5306 1150.5563,458.3431 Q1149.9938,458.14 1149.4313,458.14 Q1148.7281,458.14 1148.1344,458.4213 Q1147.5563,458.7025 1147.1031,459.3275 Q1146.65,459.9525 1146.65,460.8119 L1146.65,461.7338 Q1146.65,462.765 1147.4938,463.4525 Q1148.3375,464.14 1149.8375,464.14 Q1150.7281,464.14 1151.3531,463.9369 Q1151.7125,463.8275 1152.1188,463.4681 Q1152.3844,463.265 1152.525,463.2025 Q1152.6656,463.14 1152.8375,463.14 Q1153.1656,463.14 1153.4,463.4056 Q1153.65,463.6556 1153.65,464.015 Q1153.65,464.3588 1153.3063,464.765 Q1152.8063,465.3588 1152.0094,465.6869 Q1150.9625,466.14 1149.6813,466.14 Q1148.1813,466.14 1146.9781,465.5463 Q1146.0094,465.0775 1145.3219,464.0619 Q1144.65,463.0463 1144.65,461.8431 L1144.65,460.7494 Q1144.65,459.4994 1145.2438,458.4056 Q1145.8531,457.3119 1146.9,456.7338 Q1147.9625,456.14 1149.15,456.14 Q1149.8688,456.14 1150.4938,456.39 Q1151.1188,456.64 1151.65,457.14 Z " fill="#000000"/><text fill="#000000" font-family="sans-serif" font-size="12" lengthAdjust="spacing" textLength="125" x="1165.35" y="465.5502">MultiLinearRegression</text><line style="stroke:#A80036;stroke-width:1.5;" x1="1128" x2="1300" y1="476.64" y2="476.64"/><line style="stroke:#A80036;stroke-width:1.5;" x1="1128" x2="1300" y1="484.64" y2="484.64"/><text fill="#000000" font-family="sans-serif" font-size="11" lengthAdjust="spacing" textLength="162" x="1133" y="500.0589">+MultiLinearRegression(x1, x2, y)</text><!--MD5=[02e4b9b7573f1156f41e60aa5b4e25a4]
class Company--><rect codeLine="38" fill="#FEFECE" filter="url(#f15awh8yfchcbl)" height="75.6719" id="Company" style="stroke:#A80036;stroke-width:1.5;" width="607" x="854.5" y="81.14"/><ellipse cx="1127.25" cy="97.14" fill="#ADD1B2" rx="11" ry="11" style="stroke:#A80036;stroke-width:1.0;"/><path d="M1129.25,93.64 Q1129.4531,93.14 1129.6875,92.89 Q1129.9219,92.64 1130.1875,92.64 Q1130.6563,92.64 1130.9531,92.9212 Q1131.25,93.2025 1131.25,93.8587 L1131.25,95.4212 Q1131.25,96.0775 1130.9688,96.3587 Q1130.6875,96.64 1130.25,96.64 Q1129.8594,96.64 1129.6094,96.4681 Q1129.3594,96.2962 1129.25,95.8431 Q1129.2031,95.5306 1129.0313,95.3587 Q1128.7188,95.0306 1128.1563,94.8431 Q1127.5938,94.64 1127.0313,94.64 Q1126.3281,94.64 1125.7344,94.9212 Q1125.1563,95.2025 1124.7031,95.8275 Q1124.25,96.4525 1124.25,97.3119 L1124.25,98.2337 Q1124.25,99.265 1125.0938,99.9525 Q1125.9375,100.64 1127.4375,100.64 Q1128.3281,100.64 1128.9531,100.4369 Q1129.3125,100.3275 1129.7188,99.9681 Q1129.9844,99.765 1130.125,99.7025 Q1130.2656,99.64 1130.4375,99.64 Q1130.7656,99.64 1131,99.9056 Q1131.25,100.1556 1131.25,100.515 Q1131.25,100.8587 1130.9063,101.265 Q1130.4063,101.8587 1129.6094,102.1869 Q1128.5625,102.64 1127.2813,102.64 Q1125.7813,102.64 1124.5781,102.0462 Q1123.6094,101.5775 1122.9219,100.5619 Q1122.25,99.5462 1122.25,98.3431 L1122.25,97.2494 Q1122.25,95.9994 1122.8438,94.9056 Q1123.4531,93.8119 1124.5,93.2337 Q1125.5625,92.64 1126.75,92.64 Q1127.4688,92.64 1128.0938,92.89 Q1128.7188,93.14 1129.25,93.64 Z " fill="#000000"/><text fill="#000000" font-family="sans-serif" font-size="12" lengthAdjust="spacing" textLength="53" x="1147.75" y="102.0502">Company</text><line style="stroke:#A80036;stroke-width:1.5;" x1="855.5" x2="1460.5" y1="113.14" y2="113.14"/><line style="stroke:#A80036;stroke-width:1.5;" x1="855.5" x2="1460.5" y1="121.14" y2="121.14"/><text fill="#000000" font-family="sans-serif" font-size="11" lengthAdjust="spacing" textLength="466" x="860.5" y="136.5589">+makeMultiLinearRegressionReport(historicalPoints, dateCurrentDay, dateInitalDay, dateDayFinal)</text><text fill="#000000" font-family="sans-serif" font-size="11" lengthAdjust="spacing" textLength="595" x="860.5" y="150.3949">+makeSimpleLinearRegressionReport(historicalPoints, dateCurrentDay, dateInitalDay, dateCurrentDayFinal, independentVar)</text><!--MD5=[0f6f7964b844a64b0496af0dda7914bd]
class TestStore--><rect codeLine="43" fill="#FEFECE" filter="url(#f15awh8yfchcbl)" height="89.5078" id="TestStore" style="stroke:#A80036;stroke-width:1.5;" width="185" x="853.5" y="262.64"/><ellipse cx="915.25" cy="278.64" fill="#ADD1B2" rx="11" ry="11" style="stroke:#A80036;stroke-width:1.0;"/><path d="M917.25,275.14 Q917.4531,274.64 917.6875,274.39 Q917.9219,274.14 918.1875,274.14 Q918.6563,274.14 918.9531,274.4213 Q919.25,274.7025 919.25,275.3588 L919.25,276.9213 Q919.25,277.5775 918.9688,277.8588 Q918.6875,278.14 918.25,278.14 Q917.8594,278.14 917.6094,277.9681 Q917.3594,277.7963 917.25,277.3431 Q917.2031,277.0306 917.0313,276.8588 Q916.7188,276.5306 916.1563,276.3431 Q915.5938,276.14 915.0313,276.14 Q914.3281,276.14 913.7344,276.4213 Q913.1563,276.7025 912.7031,277.3275 Q912.25,277.9525 912.25,278.8119 L912.25,279.7338 Q912.25,280.765 913.0938,281.4525 Q913.9375,282.14 915.4375,282.14 Q916.3281,282.14 916.9531,281.9369 Q917.3125,281.8275 917.7188,281.4681 Q917.9844,281.265 918.125,281.2025 Q918.2656,281.14 918.4375,281.14 Q918.7656,281.14 919,281.4056 Q919.25,281.6556 919.25,282.015 Q919.25,282.3588 918.9063,282.765 Q918.4063,283.3588 917.6094,283.6869 Q916.5625,284.14 915.2813,284.14 Q913.7813,284.14 912.5781,283.5463 Q911.6094,283.0775 910.9219,282.0619 Q910.25,281.0463 910.25,279.8431 L910.25,278.7494 Q910.25,277.4994 910.8438,276.4056 Q911.4531,275.3119 912.5,274.7338 Q913.5625,274.14 914.75,274.14 Q915.4688,274.14 916.0938,274.39 Q916.7188,274.64 917.25,275.14 Z " fill="#000000"/><text fill="#000000" font-family="sans-serif" font-size="12" lengthAdjust="spacing" textLength="53" x="935.75" y="283.5502">TestStore</text><line style="stroke:#A80036;stroke-width:1.5;" x1="854.5" x2="1037.5" y1="294.64" y2="294.64"/><line style="stroke:#A80036;stroke-width:1.5;" x1="854.5" x2="1037.5" y1="302.64" y2="302.64"/><text fill="#000000" font-family="sans-serif" font-size="11" lengthAdjust="spacing" textLength="150" x="859.5" y="318.0589">+getPositiveCasesPerDay(day)</text><text fill="#000000" font-family="sans-serif" font-size="11" lengthAdjust="spacing" textLength="173" x="859.5" y="331.8949">+getNumberOfTestsPerformed(day)</text><text fill="#000000" font-family="sans-serif" font-size="11" lengthAdjust="spacing" textLength="135" x="859.5" y="345.7308">+getAverageAgeClient(day)</text><!--MD5=[a96594a83e2ecdc78cbf17c2ddf01934]
class Category--><rect codeLine="49" fill="#FEFECE" filter="url(#f15awh8yfchcbl)" height="89.5078" id="Category" style="stroke:#A80036;stroke-width:1.5;" width="123" x="682.5" y="430.64"/><ellipse cx="716.4" cy="446.64" fill="#ADD1B2" rx="11" ry="11" style="stroke:#A80036;stroke-width:1.0;"/><path d="M718.4,443.14 Q718.6031,442.64 718.8375,442.39 Q719.0719,442.14 719.3375,442.14 Q719.8063,442.14 720.1031,442.4213 Q720.4,442.7025 720.4,443.3588 L720.4,444.9213 Q720.4,445.5775 720.1188,445.8588 Q719.8375,446.14 719.4,446.14 Q719.0094,446.14 718.7594,445.9681 Q718.5094,445.7963 718.4,445.3431 Q718.3531,445.0306 718.1813,444.8588 Q717.8688,444.5306 717.3063,444.3431 Q716.7438,444.14 716.1813,444.14 Q715.4781,444.14 714.8844,444.4213 Q714.3063,444.7025 713.8531,445.3275 Q713.4,445.9525 713.4,446.8119 L713.4,447.7338 Q713.4,448.765 714.2438,449.4525 Q715.0875,450.14 716.5875,450.14 Q717.4781,450.14 718.1031,449.9369 Q718.4625,449.8275 718.8688,449.4681 Q719.1344,449.265 719.275,449.2025 Q719.4156,449.14 719.5875,449.14 Q719.9156,449.14 720.15,449.4056 Q720.4,449.6556 720.4,450.015 Q720.4,450.3588 720.0563,450.765 Q719.5563,451.3588 718.7594,451.6869 Q717.7125,452.14 716.4313,452.14 Q714.9313,452.14 713.7281,451.5463 Q712.7594,451.0775 712.0719,450.0619 Q711.4,449.0463 711.4,447.8431 L711.4,446.7494 Q711.4,445.4994 711.9938,444.4056 Q712.6031,443.3119 713.65,442.7338 Q714.7125,442.14 715.9,442.14 Q716.6188,442.14 717.2438,442.39 Q717.8688,442.64 718.4,443.14 Z " fill="#000000"/><text fill="#000000" font-family="sans-serif" font-size="12" lengthAdjust="spacing" textLength="49" x="734.6" y="451.5502">Category</text><line style="stroke:#A80036;stroke-width:1.5;" x1="683.5" x2="804.5" y1="462.64" y2="462.64"/><text fill="#000000" font-family="sans-serif" font-size="11" lengthAdjust="spacing" textLength="28" x="688.5" y="478.0589">-code</text><text fill="#000000" font-family="sans-serif" font-size="11" lengthAdjust="spacing" textLength="57" x="688.5" y="491.8949">-description</text><line style="stroke:#A80036;stroke-width:1.5;" x1="683.5" x2="804.5" y1="498.3119" y2="498.3119"/><text fill="#000000" font-family="sans-serif" font-size="11" lengthAdjust="spacing" textLength="111" x="688.5" y="513.7308">+getParameterOfTest()</text><!--MD5=[aeb3272166074d8737a70b61b1e71682]
class TestType--><rect codeLine="55" fill="#FEFECE" filter="url(#f15awh8yfchcbl)" height="89.5078" id="TestType" style="stroke:#A80036;stroke-width:1.5;" width="140" x="876" y="430.64"/><ellipse cx="917.1" cy="446.64" fill="#ADD1B2" rx="11" ry="11" style="stroke:#A80036;stroke-width:1.0;"/><path d="M919.1,443.14 Q919.3031,442.64 919.5375,442.39 Q919.7719,442.14 920.0375,442.14 Q920.5063,442.14 920.8031,442.4213 Q921.1,442.7025 921.1,443.3588 L921.1,444.9213 Q921.1,445.5775 920.8188,445.8588 Q920.5375,446.14 920.1,446.14 Q919.7094,446.14 919.4594,445.9681 Q919.2094,445.7963 919.1,445.3431 Q919.0531,445.0306 918.8813,444.8588 Q918.5688,444.5306 918.0063,444.3431 Q917.4438,444.14 916.8813,444.14 Q916.1781,444.14 915.5844,444.4213 Q915.0063,444.7025 914.5531,445.3275 Q914.1,445.9525 914.1,446.8119 L914.1,447.7338 Q914.1,448.765 914.9438,449.4525 Q915.7875,450.14 917.2875,450.14 Q918.1781,450.14 918.8031,449.9369 Q919.1625,449.8275 919.5688,449.4681 Q919.8344,449.265 919.975,449.2025 Q920.1156,449.14 920.2875,449.14 Q920.6156,449.14 920.85,449.4056 Q921.1,449.6556 921.1,450.015 Q921.1,450.3588 920.7563,450.765 Q920.2563,451.3588 919.4594,451.6869 Q918.4125,452.14 917.1313,452.14 Q915.6313,452.14 914.4281,451.5463 Q913.4594,451.0775 912.7719,450.0619 Q912.1,449.0463 912.1,447.8431 L912.1,446.7494 Q912.1,445.4994 912.6938,444.4056 Q913.3031,443.3119 914.35,442.7338 Q915.4125,442.14 916.6,442.14 Q917.3188,442.14 917.9438,442.39 Q918.5688,442.64 919.1,443.14 Z " fill="#000000"/><text fill="#000000" font-family="sans-serif" font-size="12" lengthAdjust="spacing" textLength="50" x="936.9" y="451.5502">TestType</text><line style="stroke:#A80036;stroke-width:1.5;" x1="877" x2="1015" y1="462.64" y2="462.64"/><text fill="#000000" font-family="sans-serif" font-size="11" lengthAdjust="spacing" textLength="28" x="882" y="478.0589">-code</text><text fill="#000000" font-family="sans-serif" font-size="11" lengthAdjust="spacing" textLength="57" x="882" y="491.8949">-description</text><line style="stroke:#A80036;stroke-width:1.5;" x1="877" x2="1015" y1="498.3119" y2="498.3119"/><text fill="#000000" font-family="sans-serif" font-size="11" lengthAdjust="spacing" textLength="128" x="882" y="513.7308">+getCateforyOfTestType()</text><!--MD5=[1f6362a5c8f21d8d6a0fce68f3a92a4e]
class Parameter--><rect codeLine="61" fill="#FEFECE" filter="url(#f15awh8yfchcbl)" height="89.5078" id="Parameter" style="stroke:#A80036;stroke-width:1.5;" width="148" x="670" y="262.64"/><ellipse cx="711.1" cy="278.64" fill="#ADD1B2" rx="11" ry="11" style="stroke:#A80036;stroke-width:1.0;"/><path d="M713.1,275.14 Q713.3031,274.64 713.5375,274.39 Q713.7719,274.14 714.0375,274.14 Q714.5063,274.14 714.8031,274.4213 Q715.1,274.7025 715.1,275.3588 L715.1,276.9213 Q715.1,277.5775 714.8188,277.8588 Q714.5375,278.14 714.1,278.14 Q713.7094,278.14 713.4594,277.9681 Q713.2094,277.7963 713.1,277.3431 Q713.0531,277.0306 712.8813,276.8588 Q712.5688,276.5306 712.0063,276.3431 Q711.4438,276.14 710.8813,276.14 Q710.1781,276.14 709.5844,276.4213 Q709.0063,276.7025 708.5531,277.3275 Q708.1,277.9525 708.1,278.8119 L708.1,279.7338 Q708.1,280.765 708.9438,281.4525 Q709.7875,282.14 711.2875,282.14 Q712.1781,282.14 712.8031,281.9369 Q713.1625,281.8275 713.5688,281.4681 Q713.8344,281.265 713.975,281.2025 Q714.1156,281.14 714.2875,281.14 Q714.6156,281.14 714.85,281.4056 Q715.1,281.6556 715.1,282.015 Q715.1,282.3588 714.7563,282.765 Q714.2563,283.3588 713.4594,283.6869 Q712.4125,284.14 711.1313,284.14 Q709.6313,284.14 708.4281,283.5463 Q707.4594,283.0775 706.7719,282.0619 Q706.1,281.0463 706.1,279.8431 L706.1,278.7494 Q706.1,277.4994 706.6938,276.4056 Q707.3031,275.3119 708.35,274.7338 Q709.4125,274.14 710.6,274.14 Q711.3188,274.14 711.9438,274.39 Q712.5688,274.64 713.1,275.14 Z " fill="#000000"/><text fill="#000000" font-family="sans-serif" font-size="12" lengthAdjust="spacing" textLength="58" x="730.9" y="283.5502">Parameter</text><line style="stroke:#A80036;stroke-width:1.5;" x1="671" x2="817" y1="294.64" y2="294.64"/><text fill="#000000" font-family="sans-serif" font-size="11" lengthAdjust="spacing" textLength="28" x="676" y="310.0589">-code</text><text fill="#000000" font-family="sans-serif" font-size="11" lengthAdjust="spacing" textLength="57" x="676" y="323.8949">-description</text><line style="stroke:#A80036;stroke-width:1.5;" x1="671" x2="817" y1="330.3119" y2="330.3119"/><text fill="#000000" font-family="sans-serif" font-size="11" lengthAdjust="spacing" textLength="136" x="676" y="345.7308">+getParameterResultValue()</text><!--MD5=[906102cd9c3f86a843ffe169f50170bd]
class WriteReport--><rect codeLine="67" fill="#FEFECE" filter="url(#f15awh8yfchcbl)" height="75.6719" id="WriteReport" style="stroke:#A80036;stroke-width:1.5;" width="435" x="1073.5" y="269.64"/><ellipse cx="1254.25" cy="285.64" fill="#ADD1B2" rx="11" ry="11" style="stroke:#A80036;stroke-width:1.0;"/><path d="M1256.25,282.14 Q1256.4531,281.64 1256.6875,281.39 Q1256.9219,281.14 1257.1875,281.14 Q1257.6563,281.14 1257.9531,281.4213 Q1258.25,281.7025 1258.25,282.3588 L1258.25,283.9213 Q1258.25,284.5775 1257.9688,284.8588 Q1257.6875,285.14 1257.25,285.14 Q1256.8594,285.14 1256.6094,284.9681 Q1256.3594,284.7963 1256.25,284.3431 Q1256.2031,284.0306 1256.0313,283.8588 Q1255.7188,283.5306 1255.1563,283.3431 Q1254.5938,283.14 1254.0313,283.14 Q1253.3281,283.14 1252.7344,283.4213 Q1252.1563,283.7025 1251.7031,284.3275 Q1251.25,284.9525 1251.25,285.8119 L1251.25,286.7338 Q1251.25,287.765 1252.0938,288.4525 Q1252.9375,289.14 1254.4375,289.14 Q1255.3281,289.14 1255.9531,288.9369 Q1256.3125,288.8275 1256.7188,288.4681 Q1256.9844,288.265 1257.125,288.2025 Q1257.2656,288.14 1257.4375,288.14 Q1257.7656,288.14 1258,288.4056 Q1258.25,288.6556 1258.25,289.015 Q1258.25,289.3588 1257.9063,289.765 Q1257.4063,290.3588 1256.6094,290.6869 Q1255.5625,291.14 1254.2813,291.14 Q1252.7813,291.14 1251.5781,290.5463 Q1250.6094,290.0775 1249.9219,289.0619 Q1249.25,288.0463 1249.25,286.8431 L1249.25,285.7494 Q1249.25,284.4994 1249.8438,283.4056 Q1250.4531,282.3119 1251.5,281.7338 Q1252.5625,281.14 1253.75,281.14 Q1254.4688,281.14 1255.0938,281.39 Q1255.7188,281.64 1256.25,282.14 Z " fill="#000000"/><text fill="#000000" font-family="sans-serif" font-size="12" lengthAdjust="spacing" textLength="65" x="1274.75" y="290.5502">WriteReport</text><line style="stroke:#A80036;stroke-width:1.5;" x1="1074.5" x2="1507.5" y1="301.64" y2="301.64"/><line style="stroke:#A80036;stroke-width:1.5;" x1="1074.5" x2="1507.5" y1="309.64" y2="309.64"/><text fill="#000000" font-family="sans-serif" font-size="11" lengthAdjust="spacing" textLength="423" x="1079.5" y="325.0589">+WriteReport(testStore, historicalPoints, currentDay, startRegression, finishRegression)</text><text fill="#000000" font-family="sans-serif" font-size="11" lengthAdjust="spacing" textLength="61" x="1079.5" y="338.8949">+getReport()</text><!--MD5=[50d1a1cda746b645eed6e6c94f8696d0]
class ExternalModuleNhsReport--><rect codeLine="72" fill="#FEFECE" filter="url(#f15awh8yfchcbl)" height="75.6719" id="ExternalModuleNhsReport" style="stroke:#A80036;stroke-width:1.5;" width="176" x="200" y="269.64"/><ellipse cx="215" cy="285.64" fill="#B4A7E5" rx="11" ry="11" style="stroke:#A80036;stroke-width:1.0;"/><path d="M216,282.64 L216,288.64 L218,288.64 L218.4844,288.64 L219,289.265 L219,289.64 L219,290.015 L218.4844,290.64 L218,290.64 L212,290.64 L211.5156,290.64 L211,290.015 L211,289.64 L211,289.265 L211.5156,288.64 L212,288.64 L214,288.64 L214,282.64 L212,282.64 L211.5156,282.64 L211,282.015 L211,281.64 L211,281.265 L211.5156,280.64 L212,280.64 L218,280.64 L218.4844,280.64 L219,281.265 L219,281.64 L219,282.015 L218.4844,282.64 L218,282.64 L216,282.64 Z " fill="#000000"/><text fill="#000000" font-family="sans-serif" font-size="12" font-style="italic" lengthAdjust="spacing" textLength="144" x="229" y="290.5502">ExternalModuleNhsReport</text><line style="stroke:#A80036;stroke-width:1.5;" x1="201" x2="375" y1="301.64" y2="301.64"/><line style="stroke:#A80036;stroke-width:1.5;" x1="201" x2="375" y1="309.64" y2="309.64"/><text fill="#000000" font-family="sans-serif" font-size="11" lengthAdjust="spacing" textLength="151" x="206" y="325.0589">+void sendReport(String string)</text><text fill="#000000" font-family="sans-serif" font-size="11" lengthAdjust="spacing" textLength="116" x="206" y="338.8949">+void getDateAndTime()</text><!--MD5=[b04e67341a4c9a11ab886afd8f3c3b68]
class ExternalModuleNhsReportAdapter--><rect codeLine="77" fill="#FEFECE" filter="url(#f15awh8yfchcbl)" height="75.6719" id="ExternalModuleNhsReportAdapter" style="stroke:#A80036;stroke-width:1.5;" width="218" x="179" y="437.64"/><ellipse cx="194" cy="453.64" fill="#ADD1B2" rx="11" ry="11" style="stroke:#A80036;stroke-width:1.0;"/><path d="M196,450.14 Q196.2031,449.64 196.4375,449.39 Q196.6719,449.14 196.9375,449.14 Q197.4063,449.14 197.7031,449.4213 Q198,449.7025 198,450.3588 L198,451.9213 Q198,452.5775 197.7188,452.8588 Q197.4375,453.14 197,453.14 Q196.6094,453.14 196.3594,452.9681 Q196.1094,452.7963 196,452.3431 Q195.9531,452.0306 195.7813,451.8588 Q195.4688,451.5306 194.9063,451.3431 Q194.3438,451.14 193.7813,451.14 Q193.0781,451.14 192.4844,451.4213 Q191.9063,451.7025 191.4531,452.3275 Q191,452.9525 191,453.8119 L191,454.7338 Q191,455.765 191.8438,456.4525 Q192.6875,457.14 194.1875,457.14 Q195.0781,457.14 195.7031,456.9369 Q196.0625,456.8275 196.4688,456.4681 Q196.7344,456.265 196.875,456.2025 Q197.0156,456.14 197.1875,456.14 Q197.5156,456.14 197.75,456.4056 Q198,456.6556 198,457.015 Q198,457.3588 197.6563,457.765 Q197.1563,458.3588 196.3594,458.6869 Q195.3125,459.14 194.0313,459.14 Q192.5313,459.14 191.3281,458.5463 Q190.3594,458.0775 189.6719,457.0619 Q189,456.0463 189,454.8431 L189,453.7494 Q189,452.4994 189.5938,451.4056 Q190.2031,450.3119 191.25,449.7338 Q192.3125,449.14 193.5,449.14 Q194.2188,449.14 194.8438,449.39 Q195.4688,449.64 196,450.14 Z " fill="#000000"/><text fill="#000000" font-family="sans-serif" font-size="12" lengthAdjust="spacing" textLength="186" x="208" y="458.5502">ExternalModuleNhsReportAdapter</text><line style="stroke:#A80036;stroke-width:1.5;" x1="180" x2="396" y1="469.64" y2="469.64"/><line style="stroke:#A80036;stroke-width:1.5;" x1="180" x2="396" y1="477.64" y2="477.64"/><text fill="#000000" font-family="sans-serif" font-size="11" lengthAdjust="spacing" textLength="128" x="185" y="493.0589">+sendReport(String string)</text><text fill="#000000" font-family="sans-serif" font-size="11" lengthAdjust="spacing" textLength="93" x="185" y="506.8949">+getDateAndTime()</text><!--MD5=[fde5bf5e32ebd91aaa37566c2946746b]
class Report2NHS--><rect codeLine="82" fill="#FEFECE" filter="url(#f15awh8yfchcbl)" height="61.8359" id="Report2NHS" style="stroke:#A80036;stroke-width:1.5;" width="175" x="432.5" y="444.64"/><ellipse cx="480.75" cy="460.64" fill="#ADD1B2" rx="11" ry="11" style="stroke:#A80036;stroke-width:1.0;"/><path d="M482.75,457.14 Q482.9531,456.64 483.1875,456.39 Q483.4219,456.14 483.6875,456.14 Q484.1563,456.14 484.4531,456.4213 Q484.75,456.7025 484.75,457.3588 L484.75,458.9213 Q484.75,459.5775 484.4688,459.8588 Q484.1875,460.14 483.75,460.14 Q483.3594,460.14 483.1094,459.9681 Q482.8594,459.7963 482.75,459.3431 Q482.7031,459.0306 482.5313,458.8588 Q482.2188,458.5306 481.6563,458.3431 Q481.0938,458.14 480.5313,458.14 Q479.8281,458.14 479.2344,458.4213 Q478.6563,458.7025 478.2031,459.3275 Q477.75,459.9525 477.75,460.8119 L477.75,461.7338 Q477.75,462.765 478.5938,463.4525 Q479.4375,464.14 480.9375,464.14 Q481.8281,464.14 482.4531,463.9369 Q482.8125,463.8275 483.2188,463.4681 Q483.4844,463.265 483.625,463.2025 Q483.7656,463.14 483.9375,463.14 Q484.2656,463.14 484.5,463.4056 Q484.75,463.6556 484.75,464.015 Q484.75,464.3588 484.4063,464.765 Q483.9063,465.3588 483.1094,465.6869 Q482.0625,466.14 480.7813,466.14 Q479.2813,466.14 478.0781,465.5463 Q477.1094,465.0775 476.4219,464.0619 Q475.75,463.0463 475.75,461.8431 L475.75,460.7494 Q475.75,459.4994 476.3438,458.4056 Q476.9531,457.3119 478,456.7338 Q479.0625,456.14 480.25,456.14 Q480.9688,456.14 481.5938,456.39 Q482.2188,456.64 482.75,457.14 Z " fill="#000000"/><text fill="#000000" font-family="sans-serif" font-size="12" lengthAdjust="spacing" textLength="70" x="501.25" y="465.5502">Report2NHS</text><line style="stroke:#A80036;stroke-width:1.5;" x1="433.5" x2="606.5" y1="476.64" y2="476.64"/><line style="stroke:#A80036;stroke-width:1.5;" x1="433.5" x2="606.5" y1="484.64" y2="484.64"/><text fill="#000000" font-family="sans-serif" font-size="11" lengthAdjust="spacing" textLength="163" x="438.5" y="500.0589">+writeUsingFileWriter(String data)</text><!--MD5=[4e608140b854dae633589343bce77383]
class TestParameterResult--><rect fill="#FEFECE" filter="url(#f15awh8yfchcbl)" height="48" id="TestParameterResult" style="stroke:#A80036;stroke-width:1.5;" width="150" x="669" y="95.14"/><ellipse cx="684" cy="111.14" fill="#ADD1B2" rx="11" ry="11" style="stroke:#A80036;stroke-width:1.0;"/><path d="M686,107.64 Q686.2031,107.14 686.4375,106.89 Q686.6719,106.64 686.9375,106.64 Q687.4063,106.64 687.7031,106.9212 Q688,107.2025 688,107.8587 L688,109.4212 Q688,110.0775 687.7188,110.3587 Q687.4375,110.64 687,110.64 Q686.6094,110.64 686.3594,110.4681 Q686.1094,110.2962 686,109.8431 Q685.9531,109.5306 685.7813,109.3587 Q685.4688,109.0306 684.9063,108.8431 Q684.3438,108.64 683.7813,108.64 Q683.0781,108.64 682.4844,108.9212 Q681.9063,109.2025 681.4531,109.8275 Q681,110.4525 681,111.3119 L681,112.2337 Q681,113.265 681.8438,113.9525 Q682.6875,114.64 684.1875,114.64 Q685.0781,114.64 685.7031,114.4369 Q686.0625,114.3275 686.4688,113.9681 Q686.7344,113.765 686.875,113.7025 Q687.0156,113.64 687.1875,113.64 Q687.5156,113.64 687.75,113.9056 Q688,114.1556 688,114.515 Q688,114.8587 687.6563,115.265 Q687.1563,115.8587 686.3594,116.1869 Q685.3125,116.64 684.0313,116.64 Q682.5313,116.64 681.3281,116.0462 Q680.3594,115.5775 679.6719,114.5619 Q679,113.5462 679,112.3431 L679,111.2494 Q679,109.9994 679.5938,108.9056 Q680.2031,107.8119 681.25,107.2337 Q682.3125,106.64 683.5,106.64 Q684.2188,106.64 684.8438,106.89 Q685.4688,107.14 686,107.64 Z " fill="#000000"/><text fill="#000000" font-family="sans-serif" font-size="12" lengthAdjust="spacing" textLength="118" x="698" y="116.0502">TestParameterResult</text><line style="stroke:#A80036;stroke-width:1.5;" x1="670" x2="818" y1="127.14" y2="127.14"/><line style="stroke:#A80036;stroke-width:1.5;" x1="670" x2="818" y1="135.14" y2="135.14"/><!--MD5=[a6b9d0cb7d359095f39f431614fcb2ea]
link DailyReportController to ExternalModuleNhsReport--><path codeLine="88" d="M284.65,150.52 C285.32,181.51 286.35,229.84 287.1,264.51 " fill="none" id="DailyReportController-to-ExternalModuleNhsReport" style="stroke:#A80036;stroke-width:1.0;stroke-dasharray:7.0,7.0;"/><polygon fill="#A80036" points="287.2,269.53,290.9933,260.4409,287.0857,264.5313,282.9954,260.6238,287.2,269.53" style="stroke:#A80036;stroke-width:1.0;"/><!--MD5=[d1e8a9c17617a8d4c9d7da7ce0d3de13]
link TimerTask to Runnable--><path codeLine="89" d="M86,345.89 C86,369 86,398.99 86,424.21 " fill="none" id="TimerTask-to-Runnable" style="stroke:#A80036;stroke-width:1.0;stroke-dasharray:7.0,7.0;"/><polygon fill="none" points="93,424.44,86,444.44,79,424.44,93,424.44" style="stroke:#A80036;stroke-width:1.0;"/><!--MD5=[e1469419659f3f1cd0936e55f6349957]
link DailyReportTimer to TimerTask--><path codeLine="90" d="M103.58,150.52 C100.09,181.51 94.65,229.84 90.74,264.51 " fill="none" id="DailyReportTimer-to-TimerTask" style="stroke:#A80036;stroke-width:1.0;stroke-dasharray:7.0,7.0;"/><polygon fill="#A80036" points="90.18,269.53,95.1816,261.0456,90.751,264.5627,87.2339,260.1321,90.18,269.53" style="stroke:#A80036;stroke-width:1.0;"/><!--MD5=[1bc71527c8618a484d5a0e0474855d36]
link DailyReportTimer to DailyReportController--><path codeLine="91" d="M171.3,119.14 C182.02,119.14 192.74,119.14 203.46,119.14 " fill="none" id="DailyReportTimer-to-DailyReportController" style="stroke:#A80036;stroke-width:1.0;stroke-dasharray:7.0,7.0;"/><polygon fill="#A80036" points="208.72,119.14,199.72,115.14,203.72,119.14,199.72,123.14,208.72,119.14" style="stroke:#A80036;stroke-width:1.0;"/><!--MD5=[b1ba615dc049e850c784c8fafd7ee281]
link DailyReportController to CreateNhsReportController--><path codeLine="92" d="M359.02,119.14 C369.07,119.14 379.13,119.14 389.18,119.14 " fill="none" id="DailyReportController-to-CreateNhsReportController" style="stroke:#A80036;stroke-width:1.0;stroke-dasharray:7.0,7.0;"/><polygon fill="#A80036" points="394.43,119.14,385.4415,115.1143,389.43,119.1257,385.4186,123.1143,394.43,119.14" style="stroke:#A80036;stroke-width:1.0;"/><!--MD5=[58e98d6077e17a28d81f499a370b687d]
link CreateNhsReportController to Company--><path codeLine="93" d="M625.02,53.46 C639.26,47.39 653.96,42.2 668.5,38.64 C801.77,6 958.73,45.16 1058.3,79.4 " fill="none" id="CreateNhsReportController-to-Company" style="stroke:#A80036;stroke-width:1.0;stroke-dasharray:7.0,7.0;"/><polygon fill="#A80036" points="1063.29,81.13,1056.1076,74.3911,1058.5685,79.4846,1053.475,81.9455,1063.29,81.13" style="stroke:#A80036;stroke-width:1.0;"/><!--MD5=[7f6cf7f175eae0af66201860de5de971]
link Company to TestStore--><path codeLine="94" d="M1115.86,157.21 C1082.66,186.42 1036.12,227.36 1000.16,259 " fill="none" id="Company-to-TestStore" style="stroke:#A80036;stroke-width:1.0;"/><polygon fill="#A80036" points="996.27,262.42,1005.6654,259.4659,1000.0196,259.1124,1000.3732,253.4666,996.27,262.42" style="stroke:#A80036;stroke-width:1.0;"/><polygon fill="#000000" points="1047.246,227.1184,1055.9783,223.3504,1052.0958,218.9373,1047.246,227.1184" style="stroke:#000000;stroke-width:1.0;"/><text fill="#000000" font-family="sans-serif" font-size="13" lengthAdjust="spacing" textLength="21" x="1060" y="229.1351">has</text><text fill="#000000" font-family="sans-serif" font-size="13" lengthAdjust="spacing" textLength="7" x="1083.9759" y="178.3917">1</text><text fill="#000000" font-family="sans-serif" font-size="13" lengthAdjust="spacing" textLength="7" x="987.8192" y="251.8304">1</text><!--MD5=[1d550e36a90861854eebfeae3bacd2a5]
link Company to WriteReport--><path codeLine="95" d="M1184.59,157.43 C1206.79,188.56 1238.41,232.9 1261.41,265.14 " fill="none" id="Company-to-WriteReport" style="stroke:#A80036;stroke-width:1.0;"/><polygon fill="#A80036" points="1264.45,269.41,1262.4642,259.7634,1261.5398,265.3442,1255.959,264.4198,1264.45,269.41" style="stroke:#A80036;stroke-width:1.0;"/><polygon fill="#000000" points="1243.9033,227.8865,1241.0439,218.816,1236.2585,222.229,1243.9033,227.8865" style="stroke:#000000;stroke-width:1.0;"/><text fill="#000000" font-family="sans-serif" font-size="13" lengthAdjust="spacing" textLength="57" x="1250" y="229.1351">generates</text><text fill="#000000" font-family="sans-serif" font-size="13" lengthAdjust="spacing" textLength="7" x="1181.27" y="178.3567">1</text><text fill="#000000" font-family="sans-serif" font-size="13" lengthAdjust="spacing" textLength="5" x="1254.2755" y="258.7309">*</text><!--MD5=[e24b94c74c1f46fb5f22e1136b5d372e]
reverse link TestStore to WriteReport--><path codeLine="96" d="M1043.77,307.64 C1053.57,307.64 1063.36,307.64 1073.15,307.64 " fill="none" id="TestStore-backto-WriteReport" style="stroke:#A80036;stroke-width:1.0;stroke-dasharray:7.0,7.0;"/><polygon fill="#A80036" points="1038.65,307.64,1047.65,311.64,1043.65,307.64,1047.65,303.64,1038.65,307.64" style="stroke:#A80036;stroke-width:1.0;"/><!--MD5=[bc2c7d55cffe9294a45c49b39bc62740]
reverse link ExternalModuleNhsReport to ExternalModuleNhsReportAdapter--><path codeLine="97" d="M288,366.09 C288,389.76 288,416.5 288,437.51 " fill="none" id="ExternalModuleNhsReport-backto-ExternalModuleNhsReportAdapter" style="stroke:#A80036;stroke-width:1.0;stroke-dasharray:7.0,7.0;"/><polygon fill="none" points="281,365.89,288,345.89,295,365.89,281,365.89" style="stroke:#A80036;stroke-width:1.0;"/><!--MD5=[a8efa147a8cc977fd336ee3041b61649]
link ExternalModuleNhsReportAdapter to Report2NHS--><path codeLine="98" d="M397.2,475.64 C407.14,475.64 417.08,475.64 427.02,475.64 " fill="none" id="ExternalModuleNhsReportAdapter-to-Report2NHS" style="stroke:#A80036;stroke-width:1.0;"/><polygon fill="#A80036" points="432.22,475.64,423.22,471.64,427.22,475.64,423.22,479.64,432.22,475.64" style="stroke:#A80036;stroke-width:1.0;"/><!--MD5=[d9a9e5e677957b70dcfd0ec8d2ccd9b2]
link WriteReport to LinearRegression--><path codeLine="99" d="M1315.91,345.89 C1334.78,374.11 1360.51,412.59 1378.92,440.12 " fill="none" id="WriteReport-to-LinearRegression" style="stroke:#A80036;stroke-width:1.0;stroke-dasharray:7.0,7.0;"/><polygon fill="#A80036" points="1381.8,444.44,1380.1359,434.7327,1379.0265,440.2797,1373.4795,439.1703,1381.8,444.44" style="stroke:#A80036;stroke-width:1.0;"/><!--MD5=[6b376ca7614b88316936f98332ad4b74]
link WriteReport to MultiLinearRegression--><path codeLine="100" d="M1273.72,345.89 C1260.68,374 1242.93,412.27 1230.17,439.78 " fill="none" id="WriteReport-to-MultiLinearRegression" style="stroke:#A80036;stroke-width:1.0;stroke-dasharray:7.0,7.0;"/><polygon fill="#A80036" points="1228.01,444.44,1235.425,437.9579,1230.1135,439.904,1228.1674,434.5924,1228.01,444.44" style="stroke:#A80036;stroke-width:1.0;"/><!--MD5=[6aa7a76d72b567a81c20592c0356475d]
link TestStore to TestType--><path codeLine="101" d="M946,352.69 C946,375.01 946,402.2 946,425.23 " fill="none" id="TestStore-to-TestType" style="stroke:#A80036;stroke-width:1.0;"/><polygon fill="#A80036" points="946,430.39,950.0257,421.4015,946.0143,425.39,942.0257,421.3786,946,430.39" style="stroke:#A80036;stroke-width:1.0;"/><polygon fill="#000000" points="951,396.8158,953.9389,387.7707,948.0611,387.7707,951,396.8158" style="stroke:#000000;stroke-width:1.0;"/><text fill="#000000" font-family="sans-serif" font-size="13" lengthAdjust="spacing" textLength="36" x="960" y="397.1351">stores</text><text fill="#000000" font-family="sans-serif" font-size="13" lengthAdjust="spacing" textLength="7" x="934.2266" y="373.7046">1</text><text fill="#000000" font-family="sans-serif" font-size="13" lengthAdjust="spacing" textLength="5" x="936.0047" y="419.7958">*</text><!--MD5=[d0417dd5e021eb3f26c3c55e0f876d6f]
link Category to TestType--><path codeLine="102" d="M805.7,475.64 C826.22,475.64 849.3,475.64 870.72,475.64 " fill="none" id="Category-to-TestType" style="stroke:#A80036;stroke-width:1.0;"/><polygon fill="#A80036" points="875.84,475.64,866.84,471.64,870.84,475.64,866.84,479.64,875.84,475.64" style="stroke:#A80036;stroke-width:1.0;"/><polygon fill="#000000" points="832.75,463.8158,823.7049,460.8769,823.7049,466.7547,832.75,463.8158" style="stroke:#000000;stroke-width:1.0;"/><text fill="#000000" font-family="sans-serif" font-size="13" lengthAdjust="spacing" textLength="21" x="836.75" y="469.1351">has</text><text fill="#000000" font-family="sans-serif" font-size="13" lengthAdjust="spacing" textLength="20" x="817.5066" y="490.0036">1..*</text><text fill="#000000" font-family="sans-serif" font-size="13" lengthAdjust="spacing" textLength="7" x="856.9985" y="489.9641">1</text><!--MD5=[852f3a1b1bcfc6074ebcba484562eac0]
link Parameter to Category--><path codeLine="103" d="M744,352.69 C744,375.01 744,402.2 744,425.23 " fill="none" id="Parameter-to-Category" style="stroke:#A80036;stroke-width:1.0;"/><polygon fill="#A80036" points="744,430.39,748.0257,421.4015,744.0143,425.39,740.0257,421.3786,744,430.39" style="stroke:#A80036;stroke-width:1.0;"/><polygon fill="#000000" points="749,396.8158,751.9389,387.7707,746.0611,387.7707,749,396.8158" style="stroke:#000000;stroke-width:1.0;"/><text fill="#000000" font-family="sans-serif" font-size="13" lengthAdjust="spacing" textLength="93" x="758" y="397.1351">presented under</text><text fill="#000000" font-family="sans-serif" font-size="13" lengthAdjust="spacing" textLength="5" x="734.0859" y="373.7046">*</text><text fill="#000000" font-family="sans-serif" font-size="13" lengthAdjust="spacing" textLength="7" x="731.8516" y="419.7958">1</text><!--MD5=[e5a1ad8cf54a15b9f508e822cc3e9fb4]
link TestParameterResult to Parameter--><path codeLine="104" d="M744,143.38 C744,171.68 744,220.23 744,257.05 " fill="none" id="TestParameterResult-to-Parameter" style="stroke:#A80036;stroke-width:1.0;"/><polygon fill="#A80036" points="744,262.4,748,253.4,744,257.4,740,253.4,744,262.4" style="stroke:#A80036;stroke-width:1.0;"/><polygon fill="#000000" points="749,228.8158,751.9389,219.7707,746.0611,219.7707,749,228.8158" style="stroke:#000000;stroke-width:1.0;"/><text fill="#000000" font-family="sans-serif" font-size="13" lengthAdjust="spacing" textLength="78" x="758" y="229.1351">associated to</text><text fill="#000000" font-family="sans-serif" font-size="13" lengthAdjust="spacing" textLength="7" x="731.1719" y="164.7765">1</text><text fill="#000000" font-family="sans-serif" font-size="13" lengthAdjust="spacing" textLength="7" x="731.8516" y="251.8073">1</text><!--MD5=[2f942048439f39b96f8d6a5ded948f9a]
@startuml

skinparam classAttributeIconSize 0

class DailyReportController {
+run()
}

class CreateNhsReportController {
+setHistoricalPoints(historicalPoints)
+setCurrentDay(currentDay)
+setInitialDay(initialDay)
+setFinalDay(finalDay)
+setIndependentVariable(independentVariable)
+makeRegression()
}

interface Runnable {
+run()
}

abstract TimerTask {
+run()
+schedule(task, delay, period)
}

class DailyReportTimer {
+dailyReportTimer()
}

class LinearRegression {
+LinearRegression(x, y)
}

class MultiLinearRegression {
+MultiLinearRegression(x1, x2, y)
}

class Company {
+makeMultiLinearRegressionReport(historicalPoints, dateCurrentDay, dateInitalDay, dateDayFinal)
+makeSimpleLinearRegressionReport(historicalPoints, dateCurrentDay, dateInitalDay, dateCurrentDayFinal, independentVar)
}

class TestStore{
+getPositiveCasesPerDay(day)
+getNumberOfTestsPerformed(day)
+getAverageAgeClient(day)
}

class Category {
-code
-description
+getParameterOfTest()
}

class TestType {
-code
-description
+getCateforyOfTestType()
}

class Parameter {
-code
-description
+getParameterResultValue()
}

class WriteReport {
+WriteReport(testStore, historicalPoints, currentDay, startRegression, finishRegression)
+getReport()
}

interface ExternalModuleNhsReport {
+void sendReport(String string)
+void getDateAndTime()
}

class ExternalModuleNhsReportAdapter {
+sendReport(String string)
+getDateAndTime()
}

class Report2NHS {
+writeUsingFileWriter(String data)
}



DailyReportController ..> ExternalModuleNhsReport
TimerTask ..|> Runnable
DailyReportTimer ..> TimerTask
DailyReportTimer .> DailyReportController
DailyReportController .> CreateNhsReportController
CreateNhsReportController .> Company
Company "1    "- ->"1  " TestStore : > has
Company "1"- ->"*" WriteReport : > generates
TestStore <. WriteReport
ExternalModuleNhsReport <|.. ExternalModuleNhsReportAdapter
ExternalModuleNhsReportAdapter -> Report2NHS
WriteReport ..> LinearRegression
WriteReport ..> MultiLinearRegression
TestStore "1 "- ->" * " TestType : > stores
Category " 1..* "->"  1 " TestType : > has
Parameter " * "- ->" 1 " Category : presented under >
TestParameterResult " 1 "- ->" 1 " Parameter : associated to >

@enduml

PlantUML version 1.2021.4(Sun Apr 04 09:49:39 BST 2021)
(GPL source distribution)
Java Runtime: OpenJDK Runtime Environment
JVM: OpenJDK 64-Bit Server VM
Default Encoding: Cp1252
Language: en
Country: US
--></g></svg>