<?xml version="1.0" encoding="UTF-8" standalone="no"?><svg xmlns="http://www.w3.org/2000/svg" xmlns:xlink="http://www.w3.org/1999/xlink" contentScriptType="application/ecmascript" contentStyleType="text/css" height="437px" preserveAspectRatio="none" style="width:1372px;height:437px;" version="1.1" viewBox="0 0 1372 437" width="1372px" zoomAndPan="magnify"><defs><filter height="300%" id="fvodoxjl0xgj6" width="300%" x="-1" y="-1"><feGaussianBlur result="blurOut" stdDeviation="2.0"/><feColorMatrix in="blurOut" result="blurOut2" type="matrix" values="0 0 0 0 0 0 0 0 0 0 0 0 0 0 0 0 0 0 .4 0"/><feOffset dx="4.0" dy="4.0" in="blurOut2" result="blurOut3"/><feBlend in="SourceGraphic" in2="blurOut3" mode="normal"/></filter></defs><g><!--MD5=[e663926f46ae319bd097eeb013f7291c]
class DailyReportController--><rect codeLine="4" fill="#FEFECE" filter="url(#fvodoxjl0xgj6)" height="61.8359" id="DailyReportController" style="stroke:#A80036;stroke-width:1.5;" width="150" x="206" y="41.5"/><ellipse cx="221" cy="57.5" fill="#ADD1B2" rx="11" ry="11" style="stroke:#A80036;stroke-width:1.0;"/><path d="M223,54 Q223.2031,53.5 223.4375,53.25 Q223.6719,53 223.9375,53 Q224.4063,53 224.7031,53.2813 Q225,53.5625 225,54.2188 L225,55.7813 Q225,56.4375 224.7188,56.7188 Q224.4375,57 224,57 Q223.6094,57 223.3594,56.8281 Q223.1094,56.6563 223,56.2031 Q222.9531,55.8906 222.7813,55.7188 Q222.4688,55.3906 221.9063,55.2031 Q221.3438,55 220.7813,55 Q220.0781,55 219.4844,55.2813 Q218.9063,55.5625 218.4531,56.1875 Q218,56.8125 218,57.6719 L218,58.5938 Q218,59.625 218.8438,60.3125 Q219.6875,61 221.1875,61 Q222.0781,61 222.7031,60.7969 Q223.0625,60.6875 223.4688,60.3281 Q223.7344,60.125 223.875,60.0625 Q224.0156,60 224.1875,60 Q224.5156,60 224.75,60.2656 Q225,60.5156 225,60.875 Q225,61.2188 224.6563,61.625 Q224.1563,62.2188 223.3594,62.5469 Q222.3125,63 221.0313,63 Q219.5313,63 218.3281,62.4063 Q217.3594,61.9375 216.6719,60.9219 Q216,59.9063 216,58.7031 L216,57.6094 Q216,56.3594 216.5938,55.2656 Q217.2031,54.1719 218.25,53.5938 Q219.3125,53 220.5,53 Q221.2188,53 221.8438,53.25 Q222.4688,53.5 223,54 Z " fill="#000000"/><text fill="#000000" font-family="sans-serif" font-size="12" lengthAdjust="spacing" textLength="118" x="235" y="62.4102">DailyReportController</text><line style="stroke:#A80036;stroke-width:1.5;" x1="207" x2="355" y1="73.5" y2="73.5"/><line style="stroke:#A80036;stroke-width:1.5;" x1="207" x2="355" y1="81.5" y2="81.5"/><text fill="#000000" font-family="sans-serif" font-size="11" lengthAdjust="spacing" textLength="30" x="212" y="96.9189">+run()</text><!--MD5=[11779a1c85551913f1fc615802b94a30]
class CreateNhsReportController--><rect codeLine="8" fill="#FEFECE" filter="url(#fvodoxjl0xgj6)" height="131.0156" id="CreateNhsReportController" style="stroke:#A80036;stroke-width:1.5;" width="239" x="391.5" y="7"/><ellipse cx="431.7" cy="23" fill="#ADD1B2" rx="11" ry="11" style="stroke:#A80036;stroke-width:1.0;"/><path d="M433.7,19.5 Q433.9031,19 434.1375,18.75 Q434.3719,18.5 434.6375,18.5 Q435.1063,18.5 435.4031,18.7813 Q435.7,19.0625 435.7,19.7188 L435.7,21.2813 Q435.7,21.9375 435.4188,22.2188 Q435.1375,22.5 434.7,22.5 Q434.3094,22.5 434.0594,22.3281 Q433.8094,22.1563 433.7,21.7031 Q433.6531,21.3906 433.4813,21.2188 Q433.1688,20.8906 432.6063,20.7031 Q432.0438,20.5 431.4813,20.5 Q430.7781,20.5 430.1844,20.7813 Q429.6063,21.0625 429.1531,21.6875 Q428.7,22.3125 428.7,23.1719 L428.7,24.0938 Q428.7,25.125 429.5438,25.8125 Q430.3875,26.5 431.8875,26.5 Q432.7781,26.5 433.4031,26.2969 Q433.7625,26.1875 434.1688,25.8281 Q434.4344,25.625 434.575,25.5625 Q434.7156,25.5 434.8875,25.5 Q435.2156,25.5 435.45,25.7656 Q435.7,26.0156 435.7,26.375 Q435.7,26.7188 435.3563,27.125 Q434.8563,27.7188 434.0594,28.0469 Q433.0125,28.5 431.7313,28.5 Q430.2313,28.5 429.0281,27.9063 Q428.0594,27.4375 427.3719,26.4219 Q426.7,25.4063 426.7,24.2031 L426.7,23.1094 Q426.7,21.8594 427.2938,20.7656 Q427.9031,19.6719 428.95,19.0938 Q430.0125,18.5 431.2,18.5 Q431.9188,18.5 432.5438,18.75 Q433.1688,19 433.7,19.5 Z " fill="#000000"/><text fill="#000000" font-family="sans-serif" font-size="12" lengthAdjust="spacing" textLength="151" x="451.3" y="27.9102">CreateNhsReportController</text><line style="stroke:#A80036;stroke-width:1.5;" x1="392.5" x2="629.5" y1="39" y2="39"/><line style="stroke:#A80036;stroke-width:1.5;" x1="392.5" x2="629.5" y1="47" y2="47"/><text fill="#000000" font-family="sans-serif" font-size="11" lengthAdjust="spacing" textLength="174" x="397.5" y="62.4189">+setHistoricalPoints(historicalPoints)</text><text fill="#000000" font-family="sans-serif" font-size="11" lengthAdjust="spacing" textLength="138" x="397.5" y="76.2549">+setCurrentDay(currentDay)</text><text fill="#000000" font-family="sans-serif" font-size="11" lengthAdjust="spacing" textLength="113" x="397.5" y="90.0908">+setInitialDay(initialDay)</text><text fill="#000000" font-family="sans-serif" font-size="11" lengthAdjust="spacing" textLength="109" x="397.5" y="103.9268">+setFinalDay(finalDay)</text><text fill="#000000" font-family="sans-serif" font-size="11" lengthAdjust="spacing" textLength="227" x="397.5" y="117.7627">+setIndependentVariable(independentVariable)</text><text fill="#000000" font-family="sans-serif" font-size="11" lengthAdjust="spacing" textLength="94" x="397.5" y="131.5986">+makeRegression()</text><!--MD5=[53ae8b34bebe44116eb8626f99f3fe78]
class Runnable--><rect codeLine="17" fill="#FEFECE" filter="url(#fvodoxjl0xgj6)" height="61.8359" id="Runnable" style="stroke:#A80036;stroke-width:1.5;" width="87" x="42.5" y="355"/><ellipse cx="57.5" cy="371" fill="#B4A7E5" rx="11" ry="11" style="stroke:#A80036;stroke-width:1.0;"/><path d="M58.5,368 L58.5,374 L60.5,374 L60.9844,374 L61.5,374.625 L61.5,375 L61.5,375.375 L60.9844,376 L60.5,376 L54.5,376 L54.0156,376 L53.5,375.375 L53.5,375 L53.5,374.625 L54.0156,374 L54.5,374 L56.5,374 L56.5,368 L54.5,368 L54.0156,368 L53.5,367.375 L53.5,367 L53.5,366.625 L54.0156,366 L54.5,366 L60.5,366 L60.9844,366 L61.5,366.625 L61.5,367 L61.5,367.375 L60.9844,368 L60.5,368 L58.5,368 Z " fill="#000000"/><text fill="#000000" font-family="sans-serif" font-size="12" font-style="italic" lengthAdjust="spacing" textLength="55" x="71.5" y="375.9102">Runnable</text><line style="stroke:#A80036;stroke-width:1.5;" x1="43.5" x2="128.5" y1="387" y2="387"/><line style="stroke:#A80036;stroke-width:1.5;" x1="43.5" x2="128.5" y1="395" y2="395"/><text fill="#000000" font-family="sans-serif" font-size="11" lengthAdjust="spacing" textLength="30" x="48.5" y="410.4189">+run()</text><!--MD5=[74054751ba3b9eca75fda5044dcc84d9]
class TimerTask--><rect codeLine="21" fill="#FEFECE" filter="url(#fvodoxjl0xgj6)" height="75.6719" id="TimerTask" style="stroke:#A80036;stroke-width:1.5;" width="158" x="7" y="205"/><ellipse cx="52.25" cy="221" fill="#A9DCDF" rx="11" ry="11" style="stroke:#A80036;stroke-width:1.0;"/><path d="M54,222.5 L50.7031,222.5 L50.2656,223.5 L50.2656,223.5 L50.7344,223.5 L51.25,224.125 L51.25,224.5 L51.25,224.875 L50.7344,225.5 L50.2656,225.5 L48.375,225.5 L47.7656,225.5 L47.25,224.875 L47.25,224.5 L47.25,224.125 L47.7656,223.5 L48.375,223.5 L50.6875,217.5 L49.8125,217.5 L48.7656,217.5 L48.25,216.875 L48.25,216.5 L48.25,216.125 L48.7656,215.5 L49.8125,215.5 L53.4844,215.5 L56.1719,223.5 L56.7344,223.5 L56.7344,223.5 L57.25,224.125 L57.25,224.5 L57.25,224.875 L56.7344,225.5 L56.1719,225.5 L54.2813,225.5 L53.7656,225.5 L53.25,224.875 L53.25,224.5 L53.25,224.125 L53.7656,223.5 L54.2813,223.5 L54.2813,223.5 L54,222.5 Z M53.4531,220.5 L52.25,216.9219 L51.2188,220.5 L53.4531,220.5 Z " fill="#000000"/><text fill="#000000" font-family="sans-serif" font-size="12" font-style="italic" lengthAdjust="spacing" textLength="59" x="72.75" y="225.9102">TimerTask</text><line style="stroke:#A80036;stroke-width:1.5;" x1="8" x2="164" y1="237" y2="237"/><line style="stroke:#A80036;stroke-width:1.5;" x1="8" x2="164" y1="245" y2="245"/><text fill="#000000" font-family="sans-serif" font-size="11" lengthAdjust="spacing" textLength="30" x="13" y="260.4189">+run()</text><text fill="#000000" font-family="sans-serif" font-size="11" lengthAdjust="spacing" textLength="146" x="13" y="274.2549">+schedule(task, delay, period)</text><!--MD5=[9d39d6f37af742695087469afae8b132]
class DailyReportTimer--><rect codeLine="26" fill="#FEFECE" filter="url(#fvodoxjl0xgj6)" height="61.8359" id="DailyReportTimer" style="stroke:#A80036;stroke-width:1.5;" width="128" x="36" y="41.5"/><ellipse cx="51" cy="57.5" fill="#ADD1B2" rx="11" ry="11" style="stroke:#A80036;stroke-width:1.0;"/><path d="M53,54 Q53.2031,53.5 53.4375,53.25 Q53.6719,53 53.9375,53 Q54.4063,53 54.7031,53.2813 Q55,53.5625 55,54.2188 L55,55.7813 Q55,56.4375 54.7188,56.7188 Q54.4375,57 54,57 Q53.6094,57 53.3594,56.8281 Q53.1094,56.6563 53,56.2031 Q52.9531,55.8906 52.7813,55.7188 Q52.4688,55.3906 51.9063,55.2031 Q51.3438,55 50.7813,55 Q50.0781,55 49.4844,55.2813 Q48.9063,55.5625 48.4531,56.1875 Q48,56.8125 48,57.6719 L48,58.5938 Q48,59.625 48.8438,60.3125 Q49.6875,61 51.1875,61 Q52.0781,61 52.7031,60.7969 Q53.0625,60.6875 53.4688,60.3281 Q53.7344,60.125 53.875,60.0625 Q54.0156,60 54.1875,60 Q54.5156,60 54.75,60.2656 Q55,60.5156 55,60.875 Q55,61.2188 54.6563,61.625 Q54.1563,62.2188 53.3594,62.5469 Q52.3125,63 51.0313,63 Q49.5313,63 48.3281,62.4063 Q47.3594,61.9375 46.6719,60.9219 Q46,59.9063 46,58.7031 L46,57.6094 Q46,56.3594 46.5938,55.2656 Q47.2031,54.1719 48.25,53.5938 Q49.3125,53 50.5,53 Q51.2188,53 51.8438,53.25 Q52.4688,53.5 53,54 Z " fill="#000000"/><text fill="#000000" font-family="sans-serif" font-size="12" lengthAdjust="spacing" textLength="96" x="65" y="62.4102">DailyReportTimer</text><line style="stroke:#A80036;stroke-width:1.5;" x1="37" x2="163" y1="73.5" y2="73.5"/><line style="stroke:#A80036;stroke-width:1.5;" x1="37" x2="163" y1="81.5" y2="81.5"/><text fill="#000000" font-family="sans-serif" font-size="11" lengthAdjust="spacing" textLength="94" x="42" y="96.9189">+dailyReportTimer()</text><!--MD5=[ef340af6512c03d5eeac92509be9c66b]
class LinearRegression--><rect codeLine="30" fill="#FEFECE" filter="url(#fvodoxjl0xgj6)" height="61.8359" id="LinearRegression" style="stroke:#A80036;stroke-width:1.5;" width="132" x="981" y="355"/><ellipse cx="996" cy="371" fill="#ADD1B2" rx="11" ry="11" style="stroke:#A80036;stroke-width:1.0;"/><path d="M998,367.5 Q998.2031,367 998.4375,366.75 Q998.6719,366.5 998.9375,366.5 Q999.4063,366.5 999.7031,366.7813 Q1000,367.0625 1000,367.7188 L1000,369.2813 Q1000,369.9375 999.7188,370.2188 Q999.4375,370.5 999,370.5 Q998.6094,370.5 998.3594,370.3281 Q998.1094,370.1563 998,369.7031 Q997.9531,369.3906 997.7813,369.2188 Q997.4688,368.8906 996.9063,368.7031 Q996.3438,368.5 995.7813,368.5 Q995.0781,368.5 994.4844,368.7813 Q993.9063,369.0625 993.4531,369.6875 Q993,370.3125 993,371.1719 L993,372.0938 Q993,373.125 993.8438,373.8125 Q994.6875,374.5 996.1875,374.5 Q997.0781,374.5 997.7031,374.2969 Q998.0625,374.1875 998.4688,373.8281 Q998.7344,373.625 998.875,373.5625 Q999.0156,373.5 999.1875,373.5 Q999.5156,373.5 999.75,373.7656 Q1000,374.0156 1000,374.375 Q1000,374.7188 999.6563,375.125 Q999.1563,375.7188 998.3594,376.0469 Q997.3125,376.5 996.0313,376.5 Q994.5313,376.5 993.3281,375.9063 Q992.3594,375.4375 991.6719,374.4219 Q991,373.4063 991,372.2031 L991,371.1094 Q991,369.8594 991.5938,368.7656 Q992.2031,367.6719 993.25,367.0938 Q994.3125,366.5 995.5,366.5 Q996.2188,366.5 996.8438,366.75 Q997.4688,367 998,367.5 Z " fill="#000000"/><text fill="#000000" font-family="sans-serif" font-size="12" lengthAdjust="spacing" textLength="100" x="1010" y="375.9102">LinearRegression</text><line style="stroke:#A80036;stroke-width:1.5;" x1="982" x2="1112" y1="387" y2="387"/><line style="stroke:#A80036;stroke-width:1.5;" x1="982" x2="1112" y1="395" y2="395"/><text fill="#000000" font-family="sans-serif" font-size="11" lengthAdjust="spacing" textLength="117" x="987" y="410.4189">+LinearRegression(x, y)</text><!--MD5=[6f57bde7dde74de5002c105391146556]
class MultiLinearRegression--><rect codeLine="34" fill="#FEFECE" filter="url(#fvodoxjl0xgj6)" height="61.8359" id="MultiLinearRegression" style="stroke:#A80036;stroke-width:1.5;" width="174" x="1148" y="355"/><ellipse cx="1170.65" cy="371" fill="#ADD1B2" rx="11" ry="11" style="stroke:#A80036;stroke-width:1.0;"/><path d="M1172.65,367.5 Q1172.8531,367 1173.0875,366.75 Q1173.3219,366.5 1173.5875,366.5 Q1174.0563,366.5 1174.3531,366.7813 Q1174.65,367.0625 1174.65,367.7188 L1174.65,369.2813 Q1174.65,369.9375 1174.3688,370.2188 Q1174.0875,370.5 1173.65,370.5 Q1173.2594,370.5 1173.0094,370.3281 Q1172.7594,370.1563 1172.65,369.7031 Q1172.6031,369.3906 1172.4313,369.2188 Q1172.1188,368.8906 1171.5563,368.7031 Q1170.9938,368.5 1170.4313,368.5 Q1169.7281,368.5 1169.1344,368.7813 Q1168.5563,369.0625 1168.1031,369.6875 Q1167.65,370.3125 1167.65,371.1719 L1167.65,372.0938 Q1167.65,373.125 1168.4938,373.8125 Q1169.3375,374.5 1170.8375,374.5 Q1171.7281,374.5 1172.3531,374.2969 Q1172.7125,374.1875 1173.1188,373.8281 Q1173.3844,373.625 1173.525,373.5625 Q1173.6656,373.5 1173.8375,373.5 Q1174.1656,373.5 1174.4,373.7656 Q1174.65,374.0156 1174.65,374.375 Q1174.65,374.7188 1174.3063,375.125 Q1173.8063,375.7188 1173.0094,376.0469 Q1171.9625,376.5 1170.6813,376.5 Q1169.1813,376.5 1167.9781,375.9063 Q1167.0094,375.4375 1166.3219,374.4219 Q1165.65,373.4063 1165.65,372.2031 L1165.65,371.1094 Q1165.65,369.8594 1166.2438,368.7656 Q1166.8531,367.6719 1167.9,367.0938 Q1168.9625,366.5 1170.15,366.5 Q1170.8688,366.5 1171.4938,366.75 Q1172.1188,367 1172.65,367.5 Z " fill="#000000"/><text fill="#000000" font-family="sans-serif" font-size="12" lengthAdjust="spacing" textLength="125" x="1186.35" y="375.9102">MultiLinearRegression</text><line style="stroke:#A80036;stroke-width:1.5;" x1="1149" x2="1321" y1="387" y2="387"/><line style="stroke:#A80036;stroke-width:1.5;" x1="1149" x2="1321" y1="395" y2="395"/><text fill="#000000" font-family="sans-serif" font-size="11" lengthAdjust="spacing" textLength="162" x="1154" y="410.4189">+MultiLinearRegression(x1, x2, y)</text><!--MD5=[02e4b9b7573f1156f41e60aa5b4e25a4]
class Company--><rect codeLine="38" fill="#FEFECE" filter="url(#fvodoxjl0xgj6)" height="75.6719" id="Company" style="stroke:#A80036;stroke-width:1.5;" width="607" x="665.5" y="34.5"/><ellipse cx="938.25" cy="50.5" fill="#ADD1B2" rx="11" ry="11" style="stroke:#A80036;stroke-width:1.0;"/><path d="M940.25,47 Q940.4531,46.5 940.6875,46.25 Q940.9219,46 941.1875,46 Q941.6563,46 941.9531,46.2813 Q942.25,46.5625 942.25,47.2188 L942.25,48.7813 Q942.25,49.4375 941.9688,49.7188 Q941.6875,50 941.25,50 Q940.8594,50 940.6094,49.8281 Q940.3594,49.6563 940.25,49.2031 Q940.2031,48.8906 940.0313,48.7188 Q939.7188,48.3906 939.1563,48.2031 Q938.5938,48 938.0313,48 Q937.3281,48 936.7344,48.2813 Q936.1563,48.5625 935.7031,49.1875 Q935.25,49.8125 935.25,50.6719 L935.25,51.5938 Q935.25,52.625 936.0938,53.3125 Q936.9375,54 938.4375,54 Q939.3281,54 939.9531,53.7969 Q940.3125,53.6875 940.7188,53.3281 Q940.9844,53.125 941.125,53.0625 Q941.2656,53 941.4375,53 Q941.7656,53 942,53.2656 Q942.25,53.5156 942.25,53.875 Q942.25,54.2188 941.9063,54.625 Q941.4063,55.2188 940.6094,55.5469 Q939.5625,56 938.2813,56 Q936.7813,56 935.5781,55.4063 Q934.6094,54.9375 933.9219,53.9219 Q933.25,52.9063 933.25,51.7031 L933.25,50.6094 Q933.25,49.3594 933.8438,48.2656 Q934.4531,47.1719 935.5,46.5938 Q936.5625,46 937.75,46 Q938.4688,46 939.0938,46.25 Q939.7188,46.5 940.25,47 Z " fill="#000000"/><text fill="#000000" font-family="sans-serif" font-size="12" lengthAdjust="spacing" textLength="53" x="958.75" y="55.4102">Company</text><line style="stroke:#A80036;stroke-width:1.5;" x1="666.5" x2="1271.5" y1="66.5" y2="66.5"/><line style="stroke:#A80036;stroke-width:1.5;" x1="666.5" x2="1271.5" y1="74.5" y2="74.5"/><text fill="#000000" font-family="sans-serif" font-size="11" lengthAdjust="spacing" textLength="466" x="671.5" y="89.9189">+makeMultiLinearRegressionReport(historicalPoints, dateCurrentDay, dateInitalDay, dateDayFinal)</text><text fill="#000000" font-family="sans-serif" font-size="11" lengthAdjust="spacing" textLength="595" x="671.5" y="103.7549">+makeSimpleLinearRegressionReport(historicalPoints, dateCurrentDay, dateInitalDay, dateCurrentDayFinal, independentVar)</text><!--MD5=[0f6f7964b844a64b0496af0dda7914bd]
class TestStore--><rect codeLine="43" fill="#FEFECE" filter="url(#fvodoxjl0xgj6)" height="89.5078" id="TestStore" style="stroke:#A80036;stroke-width:1.5;" width="185" x="703.5" y="198"/><ellipse cx="765.25" cy="214" fill="#ADD1B2" rx="11" ry="11" style="stroke:#A80036;stroke-width:1.0;"/><path d="M767.25,210.5 Q767.4531,210 767.6875,209.75 Q767.9219,209.5 768.1875,209.5 Q768.6563,209.5 768.9531,209.7813 Q769.25,210.0625 769.25,210.7188 L769.25,212.2813 Q769.25,212.9375 768.9688,213.2188 Q768.6875,213.5 768.25,213.5 Q767.8594,213.5 767.6094,213.3281 Q767.3594,213.1563 767.25,212.7031 Q767.2031,212.3906 767.0313,212.2188 Q766.7188,211.8906 766.1563,211.7031 Q765.5938,211.5 765.0313,211.5 Q764.3281,211.5 763.7344,211.7813 Q763.1563,212.0625 762.7031,212.6875 Q762.25,213.3125 762.25,214.1719 L762.25,215.0938 Q762.25,216.125 763.0938,216.8125 Q763.9375,217.5 765.4375,217.5 Q766.3281,217.5 766.9531,217.2969 Q767.3125,217.1875 767.7188,216.8281 Q767.9844,216.625 768.125,216.5625 Q768.2656,216.5 768.4375,216.5 Q768.7656,216.5 769,216.7656 Q769.25,217.0156 769.25,217.375 Q769.25,217.7188 768.9063,218.125 Q768.4063,218.7188 767.6094,219.0469 Q766.5625,219.5 765.2813,219.5 Q763.7813,219.5 762.5781,218.9063 Q761.6094,218.4375 760.9219,217.4219 Q760.25,216.4063 760.25,215.2031 L760.25,214.1094 Q760.25,212.8594 760.8438,211.7656 Q761.4531,210.6719 762.5,210.0938 Q763.5625,209.5 764.75,209.5 Q765.4688,209.5 766.0938,209.75 Q766.7188,210 767.25,210.5 Z " fill="#000000"/><text fill="#000000" font-family="sans-serif" font-size="12" lengthAdjust="spacing" textLength="53" x="785.75" y="218.9102">TestStore</text><line style="stroke:#A80036;stroke-width:1.5;" x1="704.5" x2="887.5" y1="230" y2="230"/><line style="stroke:#A80036;stroke-width:1.5;" x1="704.5" x2="887.5" y1="238" y2="238"/><text fill="#000000" font-family="sans-serif" font-size="11" lengthAdjust="spacing" textLength="150" x="709.5" y="253.4189">+getPositiveCasesPerDay(day)</text><text fill="#000000" font-family="sans-serif" font-size="11" lengthAdjust="spacing" textLength="173" x="709.5" y="267.2549">+getNumberOfTestsPerformed(day)</text><text fill="#000000" font-family="sans-serif" font-size="11" lengthAdjust="spacing" textLength="135" x="709.5" y="281.0908">+getAverageAgeClient(day)</text><!--MD5=[906102cd9c3f86a843ffe169f50170bd]
class WriteReport--><rect codeLine="49" fill="#FEFECE" filter="url(#fvodoxjl0xgj6)" height="75.6719" id="WriteReport" style="stroke:#A80036;stroke-width:1.5;" width="435" x="923.5" y="205"/><ellipse cx="1104.25" cy="221" fill="#ADD1B2" rx="11" ry="11" style="stroke:#A80036;stroke-width:1.0;"/><path d="M1106.25,217.5 Q1106.4531,217 1106.6875,216.75 Q1106.9219,216.5 1107.1875,216.5 Q1107.6563,216.5 1107.9531,216.7813 Q1108.25,217.0625 1108.25,217.7188 L1108.25,219.2813 Q1108.25,219.9375 1107.9688,220.2188 Q1107.6875,220.5 1107.25,220.5 Q1106.8594,220.5 1106.6094,220.3281 Q1106.3594,220.1563 1106.25,219.7031 Q1106.2031,219.3906 1106.0313,219.2188 Q1105.7188,218.8906 1105.1563,218.7031 Q1104.5938,218.5 1104.0313,218.5 Q1103.3281,218.5 1102.7344,218.7813 Q1102.1563,219.0625 1101.7031,219.6875 Q1101.25,220.3125 1101.25,221.1719 L1101.25,222.0938 Q1101.25,223.125 1102.0938,223.8125 Q1102.9375,224.5 1104.4375,224.5 Q1105.3281,224.5 1105.9531,224.2969 Q1106.3125,224.1875 1106.7188,223.8281 Q1106.9844,223.625 1107.125,223.5625 Q1107.2656,223.5 1107.4375,223.5 Q1107.7656,223.5 1108,223.7656 Q1108.25,224.0156 1108.25,224.375 Q1108.25,224.7188 1107.9063,225.125 Q1107.4063,225.7188 1106.6094,226.0469 Q1105.5625,226.5 1104.2813,226.5 Q1102.7813,226.5 1101.5781,225.9063 Q1100.6094,225.4375 1099.9219,224.4219 Q1099.25,223.4063 1099.25,222.2031 L1099.25,221.1094 Q1099.25,219.8594 1099.8438,218.7656 Q1100.4531,217.6719 1101.5,217.0938 Q1102.5625,216.5 1103.75,216.5 Q1104.4688,216.5 1105.0938,216.75 Q1105.7188,217 1106.25,217.5 Z " fill="#000000"/><text fill="#000000" font-family="sans-serif" font-size="12" lengthAdjust="spacing" textLength="65" x="1124.75" y="225.9102">WriteReport</text><line style="stroke:#A80036;stroke-width:1.5;" x1="924.5" x2="1357.5" y1="237" y2="237"/><line style="stroke:#A80036;stroke-width:1.5;" x1="924.5" x2="1357.5" y1="245" y2="245"/><text fill="#000000" font-family="sans-serif" font-size="11" lengthAdjust="spacing" textLength="423" x="929.5" y="260.4189">+WriteReport(testStore, historicalPoints, currentDay, startRegression, finishRegression)</text><text fill="#000000" font-family="sans-serif" font-size="11" lengthAdjust="spacing" textLength="61" x="929.5" y="274.2549">+getReport()</text><!--MD5=[50d1a1cda746b645eed6e6c94f8696d0]
class ExternalModuleNhsReport--><rect codeLine="54" fill="#FEFECE" filter="url(#fvodoxjl0xgj6)" height="75.6719" id="ExternalModuleNhsReport" style="stroke:#A80036;stroke-width:1.5;" width="176" x="200" y="205"/><ellipse cx="215" cy="221" fill="#B4A7E5" rx="11" ry="11" style="stroke:#A80036;stroke-width:1.0;"/><path d="M216,218 L216,224 L218,224 L218.4844,224 L219,224.625 L219,225 L219,225.375 L218.4844,226 L218,226 L212,226 L211.5156,226 L211,225.375 L211,225 L211,224.625 L211.5156,224 L212,224 L214,224 L214,218 L212,218 L211.5156,218 L211,217.375 L211,217 L211,216.625 L211.5156,216 L212,216 L218,216 L218.4844,216 L219,216.625 L219,217 L219,217.375 L218.4844,218 L218,218 L216,218 Z " fill="#000000"/><text fill="#000000" font-family="sans-serif" font-size="12" font-style="italic" lengthAdjust="spacing" textLength="144" x="229" y="225.9102">ExternalModuleNhsReport</text><line style="stroke:#A80036;stroke-width:1.5;" x1="201" x2="375" y1="237" y2="237"/><line style="stroke:#A80036;stroke-width:1.5;" x1="201" x2="375" y1="245" y2="245"/><text fill="#000000" font-family="sans-serif" font-size="11" lengthAdjust="spacing" textLength="151" x="206" y="260.4189">+void sendReport(String string)</text><text fill="#000000" font-family="sans-serif" font-size="11" lengthAdjust="spacing" textLength="116" x="206" y="274.2549">+void getDateAndTime()</text><!--MD5=[b04e67341a4c9a11ab886afd8f3c3b68]
class ExternalModuleNhsReportAdapter--><rect codeLine="59" fill="#FEFECE" filter="url(#fvodoxjl0xgj6)" height="75.6719" id="ExternalModuleNhsReportAdapter" style="stroke:#A80036;stroke-width:1.5;" width="218" x="179" y="348"/><ellipse cx="194" cy="364" fill="#ADD1B2" rx="11" ry="11" style="stroke:#A80036;stroke-width:1.0;"/><path d="M196,360.5 Q196.2031,360 196.4375,359.75 Q196.6719,359.5 196.9375,359.5 Q197.4063,359.5 197.7031,359.7813 Q198,360.0625 198,360.7188 L198,362.2813 Q198,362.9375 197.7188,363.2188 Q197.4375,363.5 197,363.5 Q196.6094,363.5 196.3594,363.3281 Q196.1094,363.1563 196,362.7031 Q195.9531,362.3906 195.7813,362.2188 Q195.4688,361.8906 194.9063,361.7031 Q194.3438,361.5 193.7813,361.5 Q193.0781,361.5 192.4844,361.7813 Q191.9063,362.0625 191.4531,362.6875 Q191,363.3125 191,364.1719 L191,365.0938 Q191,366.125 191.8438,366.8125 Q192.6875,367.5 194.1875,367.5 Q195.0781,367.5 195.7031,367.2969 Q196.0625,367.1875 196.4688,366.8281 Q196.7344,366.625 196.875,366.5625 Q197.0156,366.5 197.1875,366.5 Q197.5156,366.5 197.75,366.7656 Q198,367.0156 198,367.375 Q198,367.7188 197.6563,368.125 Q197.1563,368.7188 196.3594,369.0469 Q195.3125,369.5 194.0313,369.5 Q192.5313,369.5 191.3281,368.9063 Q190.3594,368.4375 189.6719,367.4219 Q189,366.4063 189,365.2031 L189,364.1094 Q189,362.8594 189.5938,361.7656 Q190.2031,360.6719 191.25,360.0938 Q192.3125,359.5 193.5,359.5 Q194.2188,359.5 194.8438,359.75 Q195.4688,360 196,360.5 Z " fill="#000000"/><text fill="#000000" font-family="sans-serif" font-size="12" lengthAdjust="spacing" textLength="186" x="208" y="368.9102">ExternalModuleNhsReportAdapter</text><line style="stroke:#A80036;stroke-width:1.5;" x1="180" x2="396" y1="380" y2="380"/><line style="stroke:#A80036;stroke-width:1.5;" x1="180" x2="396" y1="388" y2="388"/><text fill="#000000" font-family="sans-serif" font-size="11" lengthAdjust="spacing" textLength="128" x="185" y="403.4189">+sendReport(String string)</text><text fill="#000000" font-family="sans-serif" font-size="11" lengthAdjust="spacing" textLength="93" x="185" y="417.2549">+getDateAndTime()</text><!--MD5=[fde5bf5e32ebd91aaa37566c2946746b]
class Report2NHS--><rect codeLine="64" fill="#FEFECE" filter="url(#fvodoxjl0xgj6)" height="61.8359" id="Report2NHS" style="stroke:#A80036;stroke-width:1.5;" width="175" x="432.5" y="355"/><ellipse cx="480.75" cy="371" fill="#ADD1B2" rx="11" ry="11" style="stroke:#A80036;stroke-width:1.0;"/><path d="M482.75,367.5 Q482.9531,367 483.1875,366.75 Q483.4219,366.5 483.6875,366.5 Q484.1563,366.5 484.4531,366.7813 Q484.75,367.0625 484.75,367.7188 L484.75,369.2813 Q484.75,369.9375 484.4688,370.2188 Q484.1875,370.5 483.75,370.5 Q483.3594,370.5 483.1094,370.3281 Q482.8594,370.1563 482.75,369.7031 Q482.7031,369.3906 482.5313,369.2188 Q482.2188,368.8906 481.6563,368.7031 Q481.0938,368.5 480.5313,368.5 Q479.8281,368.5 479.2344,368.7813 Q478.6563,369.0625 478.2031,369.6875 Q477.75,370.3125 477.75,371.1719 L477.75,372.0938 Q477.75,373.125 478.5938,373.8125 Q479.4375,374.5 480.9375,374.5 Q481.8281,374.5 482.4531,374.2969 Q482.8125,374.1875 483.2188,373.8281 Q483.4844,373.625 483.625,373.5625 Q483.7656,373.5 483.9375,373.5 Q484.2656,373.5 484.5,373.7656 Q484.75,374.0156 484.75,374.375 Q484.75,374.7188 484.4063,375.125 Q483.9063,375.7188 483.1094,376.0469 Q482.0625,376.5 480.7813,376.5 Q479.2813,376.5 478.0781,375.9063 Q477.1094,375.4375 476.4219,374.4219 Q475.75,373.4063 475.75,372.2031 L475.75,371.1094 Q475.75,369.8594 476.3438,368.7656 Q476.9531,367.6719 478,367.0938 Q479.0625,366.5 480.25,366.5 Q480.9688,366.5 481.5938,366.75 Q482.2188,367 482.75,367.5 Z " fill="#000000"/><text fill="#000000" font-family="sans-serif" font-size="12" lengthAdjust="spacing" textLength="70" x="501.25" y="375.9102">Report2NHS</text><line style="stroke:#A80036;stroke-width:1.5;" x1="433.5" x2="606.5" y1="387" y2="387"/><line style="stroke:#A80036;stroke-width:1.5;" x1="433.5" x2="606.5" y1="395" y2="395"/><text fill="#000000" font-family="sans-serif" font-size="11" lengthAdjust="spacing" textLength="163" x="438.5" y="410.4189">+writeUsingFileWriter(String data)</text><!--MD5=[a6b9d0cb7d359095f39f431614fcb2ea]
link DailyReportController to ExternalModuleNhsReport--><path codeLine="70" d="M282.25,103.62 C283.36,130.38 285,169.77 286.24,199.68 " fill="none" id="DailyReportController-to-ExternalModuleNhsReport" style="stroke:#A80036;stroke-width:1.0;stroke-dasharray:7.0,7.0;"/><polygon fill="#A80036" points="286.45,204.78,290.086,195.6269,286.2496,199.784,282.0925,195.9476,286.45,204.78" style="stroke:#A80036;stroke-width:1.0;"/><!--MD5=[d1e8a9c17617a8d4c9d7da7ce0d3de13]
link TimerTask to Runnable--><path codeLine="71" d="M86,281.05 C86,297.49 86,317.1 86,334.84 " fill="none" id="TimerTask-to-Runnable" style="stroke:#A80036;stroke-width:1.0;stroke-dasharray:7.0,7.0;"/><polygon fill="none" points="93,334.84,86,354.84,79,334.84,93,334.84" style="stroke:#A80036;stroke-width:1.0;"/><!--MD5=[e1469419659f3f1cd0936e55f6349957]
link DailyReportTimer to TimerTask--><path codeLine="72" d="M97.5,103.62 C95.27,130.38 92,169.77 89.52,199.68 " fill="none" id="DailyReportTimer-to-TimerTask" style="stroke:#A80036;stroke-width:1.0;stroke-dasharray:7.0,7.0;"/><polygon fill="#A80036" points="89.09,204.78,93.8215,196.1421,89.504,199.7972,85.849,195.4797,89.09,204.78" style="stroke:#A80036;stroke-width:1.0;"/><!--MD5=[1bc71527c8618a484d5a0e0474855d36]
link DailyReportTimer to DailyReportController--><path codeLine="73" d="M164.34,72.5 C176.43,72.5 188.53,72.5 200.63,72.5 " fill="none" id="DailyReportTimer-to-DailyReportController" style="stroke:#A80036;stroke-width:1.0;stroke-dasharray:7.0,7.0;"/><polygon fill="#A80036" points="205.81,72.5,196.81,68.5,200.81,72.5,196.81,76.5,205.81,72.5" style="stroke:#A80036;stroke-width:1.0;"/><!--MD5=[b1ba615dc049e850c784c8fafd7ee281]
link DailyReportController to CreateNhsReportController--><path codeLine="74" d="M356.02,72.5 C366.07,72.5 376.13,72.5 386.18,72.5 " fill="none" id="DailyReportController-to-CreateNhsReportController" style="stroke:#A80036;stroke-width:1.0;stroke-dasharray:7.0,7.0;"/><polygon fill="#A80036" points="391.43,72.5,382.4415,68.4743,386.43,72.4857,382.4186,76.4743,391.43,72.5" style="stroke:#A80036;stroke-width:1.0;"/><!--MD5=[58e98d6077e17a28d81f499a370b687d]
link CreateNhsReportController to Company--><path codeLine="75" d="M630.87,72.5 C640.62,72.5 650.36,72.5 660.11,72.5 " fill="none" id="CreateNhsReportController-to-Company" style="stroke:#A80036;stroke-width:1.0;stroke-dasharray:7.0,7.0;"/><polygon fill="#A80036" points="665.21,72.5,656.21,68.5,660.21,72.5,656.21,76.5,665.21,72.5" style="stroke:#A80036;stroke-width:1.0;"/><!--MD5=[7f6cf7f175eae0af66201860de5de971]
link Company to TestStore--><path codeLine="76" d="M930.61,110.9 C905.36,135.48 872.1,167.88 844.95,194.32 " fill="none" id="Company-to-TestStore" style="stroke:#A80036;stroke-width:1.0;stroke-dasharray:7.0,7.0;"/><polygon fill="#A80036" points="841.34,197.84,850.5815,194.4348,844.9252,194.3548,845.0052,188.6985,841.34,197.84" style="stroke:#A80036;stroke-width:1.0;"/><!--MD5=[1d550e36a90861854eebfeae3bacd2a5]
link Company to WriteReport--><path codeLine="77" d="M1007.17,110.9 C1034.55,137.71 1071.4,173.81 1099.5,201.34 " fill="none" id="Company-to-WriteReport" style="stroke:#A80036;stroke-width:1.0;stroke-dasharray:7.0,7.0;"/><polygon fill="#A80036" points="1103.23,205,1099.6018,195.8438,1099.6589,201.5004,1094.0024,201.5575,1103.23,205" style="stroke:#A80036;stroke-width:1.0;"/><!--MD5=[e24b94c74c1f46fb5f22e1136b5d372e]
reverse link TestStore to WriteReport--><path codeLine="78" d="M893.77,243 C903.57,243 913.36,243 923.15,243 " fill="none" id="TestStore-backto-WriteReport" style="stroke:#A80036;stroke-width:1.0;stroke-dasharray:7.0,7.0;"/><polygon fill="#A80036" points="888.65,243,897.65,247,893.65,243,897.65,239,888.65,243" style="stroke:#A80036;stroke-width:1.0;"/><!--MD5=[bc2c7d55cffe9294a45c49b39bc62740]
reverse link ExternalModuleNhsReport to ExternalModuleNhsReportAdapter--><path codeLine="79" d="M288,301.2 C288,316.88 288,333.47 288,347.71 " fill="none" id="ExternalModuleNhsReport-backto-ExternalModuleNhsReportAdapter" style="stroke:#A80036;stroke-width:1.0;stroke-dasharray:7.0,7.0;"/><polygon fill="none" points="281,301.05,288,281.05,295,301.05,281,301.05" style="stroke:#A80036;stroke-width:1.0;"/><!--MD5=[a8efa147a8cc977fd336ee3041b61649]
link ExternalModuleNhsReportAdapter to Report2NHS--><path codeLine="80" d="M397.2,386 C407.14,386 417.08,386 427.02,386 " fill="none" id="ExternalModuleNhsReportAdapter-to-Report2NHS" style="stroke:#A80036;stroke-width:1.0;"/><polygon fill="#A80036" points="432.22,386,423.22,382,427.22,386,423.22,390,432.22,386" style="stroke:#A80036;stroke-width:1.0;"/><!--MD5=[d9a9e5e677957b70dcfd0ec8d2ccd9b2]
link WriteReport to LinearRegression--><path codeLine="81" d="M1116.3,281.05 C1101.98,302.53 1084.06,329.4 1070.04,350.45 " fill="none" id="WriteReport-to-LinearRegression" style="stroke:#A80036;stroke-width:1.0;stroke-dasharray:7.0,7.0;"/><polygon fill="#A80036" points="1067.1,354.84,1075.4205,349.5703,1069.8735,350.6797,1068.7641,345.1327,1067.1,354.84" style="stroke:#A80036;stroke-width:1.0;"/><!--MD5=[6b376ca7614b88316936f98332ad4b74]
link WriteReport to MultiLinearRegression--><path codeLine="82" d="M1165.7,281.05 C1180.02,302.53 1197.94,329.4 1211.96,350.45 " fill="none" id="WriteReport-to-MultiLinearRegression" style="stroke:#A80036;stroke-width:1.0;stroke-dasharray:7.0,7.0;"/><polygon fill="#A80036" points="1214.9,354.84,1213.2359,345.1327,1212.1265,350.6797,1206.5795,349.5703,1214.9,354.84" style="stroke:#A80036;stroke-width:1.0;"/><!--MD5=[9d6bbc7b7e2ac39b40164a709b28a99c]
@startuml

skinparam classAttributeIconSize 0

class DailyReportController {
+run()
}

class CreateNhsReportController {
+setHistoricalPoints(historicalPoints)
+setCurrentDay(currentDay)
+setInitialDay(initialDay)
+setFinalDay(finalDay)
+setIndependentVariable(independentVariable)
+makeRegression()
}

interface Runnable {
+run()
}

abstract TimerTask {
+run()
+schedule(task, delay, period)
}

class DailyReportTimer {
+dailyReportTimer()
}

class LinearRegression {
+LinearRegression(x, y)
}

class MultiLinearRegression {
+MultiLinearRegression(x1, x2, y)
}

class Company {
+makeMultiLinearRegressionReport(historicalPoints, dateCurrentDay, dateInitalDay, dateDayFinal)
+makeSimpleLinearRegressionReport(historicalPoints, dateCurrentDay, dateInitalDay, dateCurrentDayFinal, independentVar)
}

class TestStore{
+getPositiveCasesPerDay(day)
+getNumberOfTestsPerformed(day)
+getAverageAgeClient(day)
}

class WriteReport {
+WriteReport(testStore, historicalPoints, currentDay, startRegression, finishRegression)
+getReport()
}

interface ExternalModuleNhsReport {
+void sendReport(String string)
+void getDateAndTime()
}

class ExternalModuleNhsReportAdapter {
+sendReport(String string)
+getDateAndTime()
}

class Report2NHS {
+writeUsingFileWriter(String data)
}



DailyReportController ..> ExternalModuleNhsReport
TimerTask ..|> Runnable
DailyReportTimer ..> TimerTask
DailyReportTimer .> DailyReportController
DailyReportController .> CreateNhsReportController
CreateNhsReportController .> Company
Company ..> TestStore
Company ..> WriteReport
TestStore <. WriteReport
ExternalModuleNhsReport <|.. ExternalModuleNhsReportAdapter
ExternalModuleNhsReportAdapter -> Report2NHS
WriteReport ..> LinearRegression
WriteReport ..> MultiLinearRegression

@enduml

PlantUML version 1.2021.4(Sun Apr 04 09:49:39 BST 2021)
(GPL source distribution)
Java Runtime: OpenJDK Runtime Environment
JVM: OpenJDK 64-Bit Server VM
Default Encoding: Cp1252
Language: en
Country: US
--></g></svg>