<?xml version="1.0" encoding="UTF-8" standalone="no"?><svg xmlns="http://www.w3.org/2000/svg" xmlns:xlink="http://www.w3.org/1999/xlink" contentScriptType="application/ecmascript" contentStyleType="text/css" height="432px" preserveAspectRatio="none" style="width:880px;height:432px;" version="1.1" viewBox="0 0 880 432" width="880px" zoomAndPan="magnify"><defs><filter height="300%" id="fy1ty4wdz6g81" width="300%" x="-1" y="-1"><feGaussianBlur result="blurOut" stdDeviation="2.0"/><feColorMatrix in="blurOut" result="blurOut2" type="matrix" values="0 0 0 0 0 0 0 0 0 0 0 0 0 0 0 0 0 0 .4 0"/><feOffset dx="4.0" dy="4.0" in="blurOut2" result="blurOut3"/><feBlend in="SourceGraphic" in2="blurOut3" mode="normal"/></filter></defs><g><!--MD5=[02e4b9b7573f1156f41e60aa5b4e25a4]
class Company--><rect codeLine="4" fill="#FEFECE" filter="url(#fy1ty4wdz6g81)" height="75.6719" id="Company" style="stroke:#A80036;stroke-width:1.5;" width="607" x="259.5" y="7"/><ellipse cx="532.25" cy="23" fill="#ADD1B2" rx="11" ry="11" style="stroke:#A80036;stroke-width:1.0;"/><path d="M534.25,19.5 Q534.4531,19 534.6875,18.75 Q534.9219,18.5 535.1875,18.5 Q535.6563,18.5 535.9531,18.7813 Q536.25,19.0625 536.25,19.7188 L536.25,21.2813 Q536.25,21.9375 535.9688,22.2188 Q535.6875,22.5 535.25,22.5 Q534.8594,22.5 534.6094,22.3281 Q534.3594,22.1563 534.25,21.7031 Q534.2031,21.3906 534.0313,21.2188 Q533.7188,20.8906 533.1563,20.7031 Q532.5938,20.5 532.0313,20.5 Q531.3281,20.5 530.7344,20.7813 Q530.1563,21.0625 529.7031,21.6875 Q529.25,22.3125 529.25,23.1719 L529.25,24.0938 Q529.25,25.125 530.0938,25.8125 Q530.9375,26.5 532.4375,26.5 Q533.3281,26.5 533.9531,26.2969 Q534.3125,26.1875 534.7188,25.8281 Q534.9844,25.625 535.125,25.5625 Q535.2656,25.5 535.4375,25.5 Q535.7656,25.5 536,25.7656 Q536.25,26.0156 536.25,26.375 Q536.25,26.7188 535.9063,27.125 Q535.4063,27.7188 534.6094,28.0469 Q533.5625,28.5 532.2813,28.5 Q530.7813,28.5 529.5781,27.9063 Q528.6094,27.4375 527.9219,26.4219 Q527.25,25.4063 527.25,24.2031 L527.25,23.1094 Q527.25,21.8594 527.8438,20.7656 Q528.4531,19.6719 529.5,19.0938 Q530.5625,18.5 531.75,18.5 Q532.4688,18.5 533.0938,18.75 Q533.7188,19 534.25,19.5 Z " fill="#000000"/><text fill="#000000" font-family="sans-serif" font-size="12" lengthAdjust="spacing" textLength="53" x="552.75" y="27.9102">Company</text><line style="stroke:#A80036;stroke-width:1.5;" x1="260.5" x2="865.5" y1="39" y2="39"/><line style="stroke:#A80036;stroke-width:1.5;" x1="260.5" x2="865.5" y1="47" y2="47"/><text fill="#000000" font-family="sans-serif" font-size="11" lengthAdjust="spacing" textLength="466" x="265.5" y="62.4189">+makeMultiLinearRegressionReport(historicalPoints, dateCurrentDay, dateInitalDay, dateDayFinal)</text><text fill="#000000" font-family="sans-serif" font-size="11" lengthAdjust="spacing" textLength="595" x="265.5" y="76.2549">+makeSimpleLinearRegressionReport(historicalPoints, dateCurrentDay, dateInitalDay, dateCurrentDayFinal, independentVar)</text><!--MD5=[0f6f7964b844a64b0496af0dda7914bd]
class TestStore--><rect codeLine="9" fill="#FEFECE" filter="url(#fy1ty4wdz6g81)" height="89.5078" id="TestStore" style="stroke:#A80036;stroke-width:1.5;" width="185" x="191.5" y="161"/><ellipse cx="253.25" cy="177" fill="#ADD1B2" rx="11" ry="11" style="stroke:#A80036;stroke-width:1.0;"/><path d="M255.25,173.5 Q255.4531,173 255.6875,172.75 Q255.9219,172.5 256.1875,172.5 Q256.6563,172.5 256.9531,172.7813 Q257.25,173.0625 257.25,173.7188 L257.25,175.2813 Q257.25,175.9375 256.9688,176.2188 Q256.6875,176.5 256.25,176.5 Q255.8594,176.5 255.6094,176.3281 Q255.3594,176.1563 255.25,175.7031 Q255.2031,175.3906 255.0313,175.2188 Q254.7188,174.8906 254.1563,174.7031 Q253.5938,174.5 253.0313,174.5 Q252.3281,174.5 251.7344,174.7813 Q251.1563,175.0625 250.7031,175.6875 Q250.25,176.3125 250.25,177.1719 L250.25,178.0938 Q250.25,179.125 251.0938,179.8125 Q251.9375,180.5 253.4375,180.5 Q254.3281,180.5 254.9531,180.2969 Q255.3125,180.1875 255.7188,179.8281 Q255.9844,179.625 256.125,179.5625 Q256.2656,179.5 256.4375,179.5 Q256.7656,179.5 257,179.7656 Q257.25,180.0156 257.25,180.375 Q257.25,180.7188 256.9063,181.125 Q256.4063,181.7188 255.6094,182.0469 Q254.5625,182.5 253.2813,182.5 Q251.7813,182.5 250.5781,181.9063 Q249.6094,181.4375 248.9219,180.4219 Q248.25,179.4063 248.25,178.2031 L248.25,177.1094 Q248.25,175.8594 248.8438,174.7656 Q249.4531,173.6719 250.5,173.0938 Q251.5625,172.5 252.75,172.5 Q253.4688,172.5 254.0938,172.75 Q254.7188,173 255.25,173.5 Z " fill="#000000"/><text fill="#000000" font-family="sans-serif" font-size="12" lengthAdjust="spacing" textLength="53" x="273.75" y="181.9102">TestStore</text><line style="stroke:#A80036;stroke-width:1.5;" x1="192.5" x2="375.5" y1="193" y2="193"/><line style="stroke:#A80036;stroke-width:1.5;" x1="192.5" x2="375.5" y1="201" y2="201"/><text fill="#000000" font-family="sans-serif" font-size="11" lengthAdjust="spacing" textLength="150" x="197.5" y="216.4189">+getPositiveCasesPerDay(day)</text><text fill="#000000" font-family="sans-serif" font-size="11" lengthAdjust="spacing" textLength="173" x="197.5" y="230.2549">+getNumberOfTestsPerformed(day)</text><text fill="#000000" font-family="sans-serif" font-size="11" lengthAdjust="spacing" textLength="135" x="197.5" y="244.0908">+getAverageAgeClient(day)</text><!--MD5=[a96594a83e2ecdc78cbf17c2ddf01934]
class Category--><rect codeLine="15" fill="#FEFECE" filter="url(#fy1ty4wdz6g81)" height="89.5078" id="Category" style="stroke:#A80036;stroke-width:1.5;" width="123" x="20.5" y="329"/><ellipse cx="54.4" cy="345" fill="#ADD1B2" rx="11" ry="11" style="stroke:#A80036;stroke-width:1.0;"/><path d="M56.4,341.5 Q56.6031,341 56.8375,340.75 Q57.0719,340.5 57.3375,340.5 Q57.8063,340.5 58.1031,340.7813 Q58.4,341.0625 58.4,341.7188 L58.4,343.2813 Q58.4,343.9375 58.1188,344.2188 Q57.8375,344.5 57.4,344.5 Q57.0094,344.5 56.7594,344.3281 Q56.5094,344.1563 56.4,343.7031 Q56.3531,343.3906 56.1813,343.2188 Q55.8688,342.8906 55.3063,342.7031 Q54.7438,342.5 54.1813,342.5 Q53.4781,342.5 52.8844,342.7813 Q52.3063,343.0625 51.8531,343.6875 Q51.4,344.3125 51.4,345.1719 L51.4,346.0938 Q51.4,347.125 52.2438,347.8125 Q53.0875,348.5 54.5875,348.5 Q55.4781,348.5 56.1031,348.2969 Q56.4625,348.1875 56.8688,347.8281 Q57.1344,347.625 57.275,347.5625 Q57.4156,347.5 57.5875,347.5 Q57.9156,347.5 58.15,347.7656 Q58.4,348.0156 58.4,348.375 Q58.4,348.7188 58.0563,349.125 Q57.5563,349.7188 56.7594,350.0469 Q55.7125,350.5 54.4313,350.5 Q52.9313,350.5 51.7281,349.9063 Q50.7594,349.4375 50.0719,348.4219 Q49.4,347.4063 49.4,346.2031 L49.4,345.1094 Q49.4,343.8594 49.9938,342.7656 Q50.6031,341.6719 51.65,341.0938 Q52.7125,340.5 53.9,340.5 Q54.6188,340.5 55.2438,340.75 Q55.8688,341 56.4,341.5 Z " fill="#000000"/><text fill="#000000" font-family="sans-serif" font-size="12" lengthAdjust="spacing" textLength="49" x="72.6" y="349.9102">Category</text><line style="stroke:#A80036;stroke-width:1.5;" x1="21.5" x2="142.5" y1="361" y2="361"/><text fill="#000000" font-family="sans-serif" font-size="11" lengthAdjust="spacing" textLength="28" x="26.5" y="376.4189">-code</text><text fill="#000000" font-family="sans-serif" font-size="11" lengthAdjust="spacing" textLength="57" x="26.5" y="390.2549">-description</text><line style="stroke:#A80036;stroke-width:1.5;" x1="21.5" x2="142.5" y1="396.6719" y2="396.6719"/><text fill="#000000" font-family="sans-serif" font-size="11" lengthAdjust="spacing" textLength="111" x="26.5" y="412.0908">+getParameterOfTest()</text><!--MD5=[aeb3272166074d8737a70b61b1e71682]
class TestType--><rect codeLine="21" fill="#FEFECE" filter="url(#fy1ty4wdz6g81)" height="89.5078" id="TestType" style="stroke:#A80036;stroke-width:1.5;" width="140" x="214" y="329"/><ellipse cx="255.1" cy="345" fill="#ADD1B2" rx="11" ry="11" style="stroke:#A80036;stroke-width:1.0;"/><path d="M257.1,341.5 Q257.3031,341 257.5375,340.75 Q257.7719,340.5 258.0375,340.5 Q258.5063,340.5 258.8031,340.7813 Q259.1,341.0625 259.1,341.7188 L259.1,343.2813 Q259.1,343.9375 258.8188,344.2188 Q258.5375,344.5 258.1,344.5 Q257.7094,344.5 257.4594,344.3281 Q257.2094,344.1563 257.1,343.7031 Q257.0531,343.3906 256.8813,343.2188 Q256.5688,342.8906 256.0063,342.7031 Q255.4438,342.5 254.8813,342.5 Q254.1781,342.5 253.5844,342.7813 Q253.0063,343.0625 252.5531,343.6875 Q252.1,344.3125 252.1,345.1719 L252.1,346.0938 Q252.1,347.125 252.9438,347.8125 Q253.7875,348.5 255.2875,348.5 Q256.1781,348.5 256.8031,348.2969 Q257.1625,348.1875 257.5688,347.8281 Q257.8344,347.625 257.975,347.5625 Q258.1156,347.5 258.2875,347.5 Q258.6156,347.5 258.85,347.7656 Q259.1,348.0156 259.1,348.375 Q259.1,348.7188 258.7563,349.125 Q258.2563,349.7188 257.4594,350.0469 Q256.4125,350.5 255.1313,350.5 Q253.6313,350.5 252.4281,349.9063 Q251.4594,349.4375 250.7719,348.4219 Q250.1,347.4063 250.1,346.2031 L250.1,345.1094 Q250.1,343.8594 250.6938,342.7656 Q251.3031,341.6719 252.35,341.0938 Q253.4125,340.5 254.6,340.5 Q255.3188,340.5 255.9438,340.75 Q256.5688,341 257.1,341.5 Z " fill="#000000"/><text fill="#000000" font-family="sans-serif" font-size="12" lengthAdjust="spacing" textLength="50" x="274.9" y="349.9102">TestType</text><line style="stroke:#A80036;stroke-width:1.5;" x1="215" x2="353" y1="361" y2="361"/><text fill="#000000" font-family="sans-serif" font-size="11" lengthAdjust="spacing" textLength="28" x="220" y="376.4189">-code</text><text fill="#000000" font-family="sans-serif" font-size="11" lengthAdjust="spacing" textLength="57" x="220" y="390.2549">-description</text><line style="stroke:#A80036;stroke-width:1.5;" x1="215" x2="353" y1="396.6719" y2="396.6719"/><text fill="#000000" font-family="sans-serif" font-size="11" lengthAdjust="spacing" textLength="128" x="220" y="412.0908">+getCateforyOfTestType()</text><!--MD5=[1f6362a5c8f21d8d6a0fce68f3a92a4e]
class Parameter--><rect codeLine="27" fill="#FEFECE" filter="url(#fy1ty4wdz6g81)" height="89.5078" id="Parameter" style="stroke:#A80036;stroke-width:1.5;" width="148" x="8" y="161"/><ellipse cx="49.1" cy="177" fill="#ADD1B2" rx="11" ry="11" style="stroke:#A80036;stroke-width:1.0;"/><path d="M51.1,173.5 Q51.3031,173 51.5375,172.75 Q51.7719,172.5 52.0375,172.5 Q52.5063,172.5 52.8031,172.7813 Q53.1,173.0625 53.1,173.7188 L53.1,175.2813 Q53.1,175.9375 52.8188,176.2188 Q52.5375,176.5 52.1,176.5 Q51.7094,176.5 51.4594,176.3281 Q51.2094,176.1563 51.1,175.7031 Q51.0531,175.3906 50.8813,175.2188 Q50.5688,174.8906 50.0063,174.7031 Q49.4438,174.5 48.8813,174.5 Q48.1781,174.5 47.5844,174.7813 Q47.0063,175.0625 46.5531,175.6875 Q46.1,176.3125 46.1,177.1719 L46.1,178.0938 Q46.1,179.125 46.9438,179.8125 Q47.7875,180.5 49.2875,180.5 Q50.1781,180.5 50.8031,180.2969 Q51.1625,180.1875 51.5688,179.8281 Q51.8344,179.625 51.975,179.5625 Q52.1156,179.5 52.2875,179.5 Q52.6156,179.5 52.85,179.7656 Q53.1,180.0156 53.1,180.375 Q53.1,180.7188 52.7563,181.125 Q52.2563,181.7188 51.4594,182.0469 Q50.4125,182.5 49.1313,182.5 Q47.6313,182.5 46.4281,181.9063 Q45.4594,181.4375 44.7719,180.4219 Q44.1,179.4063 44.1,178.2031 L44.1,177.1094 Q44.1,175.8594 44.6938,174.7656 Q45.3031,173.6719 46.35,173.0938 Q47.4125,172.5 48.6,172.5 Q49.3188,172.5 49.9438,172.75 Q50.5688,173 51.1,173.5 Z " fill="#000000"/><text fill="#000000" font-family="sans-serif" font-size="12" lengthAdjust="spacing" textLength="58" x="68.9" y="181.9102">Parameter</text><line style="stroke:#A80036;stroke-width:1.5;" x1="9" x2="155" y1="193" y2="193"/><text fill="#000000" font-family="sans-serif" font-size="11" lengthAdjust="spacing" textLength="28" x="14" y="208.4189">-code</text><text fill="#000000" font-family="sans-serif" font-size="11" lengthAdjust="spacing" textLength="57" x="14" y="222.2549">-description</text><line style="stroke:#A80036;stroke-width:1.5;" x1="9" x2="155" y1="228.6719" y2="228.6719"/><text fill="#000000" font-family="sans-serif" font-size="11" lengthAdjust="spacing" textLength="136" x="14" y="244.0908">+getParameterResultValue()</text><!--MD5=[906102cd9c3f86a843ffe169f50170bd]
class WriteReport--><rect codeLine="33" fill="#FEFECE" filter="url(#fy1ty4wdz6g81)" height="75.6719" id="WriteReport" style="stroke:#A80036;stroke-width:1.5;" width="435" x="411.5" y="168"/><ellipse cx="592.25" cy="184" fill="#ADD1B2" rx="11" ry="11" style="stroke:#A80036;stroke-width:1.0;"/><path d="M594.25,180.5 Q594.4531,180 594.6875,179.75 Q594.9219,179.5 595.1875,179.5 Q595.6563,179.5 595.9531,179.7813 Q596.25,180.0625 596.25,180.7188 L596.25,182.2813 Q596.25,182.9375 595.9688,183.2188 Q595.6875,183.5 595.25,183.5 Q594.8594,183.5 594.6094,183.3281 Q594.3594,183.1563 594.25,182.7031 Q594.2031,182.3906 594.0313,182.2188 Q593.7188,181.8906 593.1563,181.7031 Q592.5938,181.5 592.0313,181.5 Q591.3281,181.5 590.7344,181.7813 Q590.1563,182.0625 589.7031,182.6875 Q589.25,183.3125 589.25,184.1719 L589.25,185.0938 Q589.25,186.125 590.0938,186.8125 Q590.9375,187.5 592.4375,187.5 Q593.3281,187.5 593.9531,187.2969 Q594.3125,187.1875 594.7188,186.8281 Q594.9844,186.625 595.125,186.5625 Q595.2656,186.5 595.4375,186.5 Q595.7656,186.5 596,186.7656 Q596.25,187.0156 596.25,187.375 Q596.25,187.7188 595.9063,188.125 Q595.4063,188.7188 594.6094,189.0469 Q593.5625,189.5 592.2813,189.5 Q590.7813,189.5 589.5781,188.9063 Q588.6094,188.4375 587.9219,187.4219 Q587.25,186.4063 587.25,185.2031 L587.25,184.1094 Q587.25,182.8594 587.8438,181.7656 Q588.4531,180.6719 589.5,180.0938 Q590.5625,179.5 591.75,179.5 Q592.4688,179.5 593.0938,179.75 Q593.7188,180 594.25,180.5 Z " fill="#000000"/><text fill="#000000" font-family="sans-serif" font-size="12" lengthAdjust="spacing" textLength="65" x="612.75" y="188.9102">WriteReport</text><line style="stroke:#A80036;stroke-width:1.5;" x1="412.5" x2="845.5" y1="200" y2="200"/><line style="stroke:#A80036;stroke-width:1.5;" x1="412.5" x2="845.5" y1="208" y2="208"/><text fill="#000000" font-family="sans-serif" font-size="11" lengthAdjust="spacing" textLength="423" x="417.5" y="223.4189">+WriteReport(testStore, historicalPoints, currentDay, startRegression, finishRegression)</text><text fill="#000000" font-family="sans-serif" font-size="11" lengthAdjust="spacing" textLength="61" x="417.5" y="237.2549">+getReport()</text><!--MD5=[4e608140b854dae633589343bce77383]
class TestParameterResult--><rect fill="#FEFECE" filter="url(#fy1ty4wdz6g81)" height="48" id="TestParameterResult" style="stroke:#A80036;stroke-width:1.5;" width="150" x="7" y="21"/><ellipse cx="22" cy="37" fill="#ADD1B2" rx="11" ry="11" style="stroke:#A80036;stroke-width:1.0;"/><path d="M24,33.5 Q24.2031,33 24.4375,32.75 Q24.6719,32.5 24.9375,32.5 Q25.4063,32.5 25.7031,32.7813 Q26,33.0625 26,33.7188 L26,35.2813 Q26,35.9375 25.7188,36.2188 Q25.4375,36.5 25,36.5 Q24.6094,36.5 24.3594,36.3281 Q24.1094,36.1563 24,35.7031 Q23.9531,35.3906 23.7813,35.2188 Q23.4688,34.8906 22.9063,34.7031 Q22.3438,34.5 21.7813,34.5 Q21.0781,34.5 20.4844,34.7813 Q19.9063,35.0625 19.4531,35.6875 Q19,36.3125 19,37.1719 L19,38.0938 Q19,39.125 19.8438,39.8125 Q20.6875,40.5 22.1875,40.5 Q23.0781,40.5 23.7031,40.2969 Q24.0625,40.1875 24.4688,39.8281 Q24.7344,39.625 24.875,39.5625 Q25.0156,39.5 25.1875,39.5 Q25.5156,39.5 25.75,39.7656 Q26,40.0156 26,40.375 Q26,40.7188 25.6563,41.125 Q25.1563,41.7188 24.3594,42.0469 Q23.3125,42.5 22.0313,42.5 Q20.5313,42.5 19.3281,41.9063 Q18.3594,41.4375 17.6719,40.4219 Q17,39.4063 17,38.2031 L17,37.1094 Q17,35.8594 17.5938,34.7656 Q18.2031,33.6719 19.25,33.0938 Q20.3125,32.5 21.5,32.5 Q22.2188,32.5 22.8438,32.75 Q23.4688,33 24,33.5 Z " fill="#000000"/><text fill="#000000" font-family="sans-serif" font-size="12" lengthAdjust="spacing" textLength="118" x="36" y="41.9102">TestParameterResult</text><line style="stroke:#A80036;stroke-width:1.5;" x1="8" x2="156" y1="53" y2="53"/><line style="stroke:#A80036;stroke-width:1.5;" x1="8" x2="156" y1="61" y2="61"/><!--MD5=[7f6cf7f175eae0af66201860de5de971]
link Company to TestStore--><path codeLine="38" d="M497.94,83.08 C458.56,105.52 407.98,134.35 365.89,158.33 " fill="none" id="Company-to-TestStore" style="stroke:#A80036;stroke-width:1.0;"/><polygon fill="#A80036" points="361.32,160.94,371.1205,159.9651,365.6656,158.467,367.1637,153.0121,361.32,160.94" style="stroke:#A80036;stroke-width:1.0;"/><polygon fill="#000000" points="441.6559,124.6513,450.9696,122.7264,448.0594,117.6196,441.6559,124.6513" style="stroke:#000000;stroke-width:1.0;"/><text fill="#000000" font-family="sans-serif" font-size="13" lengthAdjust="spacing" textLength="21" x="455" y="127.4951">has</text><text fill="#000000" font-family="sans-serif" font-size="13" lengthAdjust="spacing" textLength="7" x="462.2598" y="104.2634">1</text><text fill="#000000" font-family="sans-serif" font-size="13" lengthAdjust="spacing" textLength="7" x="357.4476" y="150.0459">1</text><!--MD5=[1d550e36a90861854eebfeae3bacd2a5]
link Company to WriteReport--><path codeLine="39" d="M578.47,83.28 C588.4,107.2 601.32,138.31 611.6,163.09 " fill="none" id="Company-to-WriteReport" style="stroke:#A80036;stroke-width:1.0;"/><polygon fill="#A80036" points="613.62,167.96,613.8659,158.1142,611.704,163.3417,606.4766,161.1798,613.62,167.96" style="stroke:#A80036;stroke-width:1.0;"/><polygon fill="#000000" points="604.917,126.7937,604.1635,117.313,598.7348,119.5666,604.917,126.7937" style="stroke:#000000;stroke-width:1.0;"/><text fill="#000000" font-family="sans-serif" font-size="13" lengthAdjust="spacing" textLength="57" x="612" y="127.4951">generates</text><text fill="#000000" font-family="sans-serif" font-size="13" lengthAdjust="spacing" textLength="7" x="573.3777" y="104.2052">1</text><text fill="#000000" font-family="sans-serif" font-size="13" lengthAdjust="spacing" textLength="5" x="605.3234" y="157.0292">*</text><!--MD5=[6aa7a76d72b567a81c20592c0356475d]
link TestStore to TestType--><path codeLine="40" d="M284,251.05 C284,273.37 284,300.56 284,323.59 " fill="none" id="TestStore-to-TestType" style="stroke:#A80036;stroke-width:1.0;"/><polygon fill="#A80036" points="284,328.75,288.0257,319.7615,284.0143,323.75,280.0257,319.7386,284,328.75" style="stroke:#A80036;stroke-width:1.0;"/><polygon fill="#000000" points="289,295.1758,291.9389,286.1307,286.0611,286.1307,289,295.1758" style="stroke:#000000;stroke-width:1.0;"/><text fill="#000000" font-family="sans-serif" font-size="13" lengthAdjust="spacing" textLength="36" x="298" y="295.4951">stores</text><text fill="#000000" font-family="sans-serif" font-size="13" lengthAdjust="spacing" textLength="7" x="272.2266" y="272.0646">1</text><text fill="#000000" font-family="sans-serif" font-size="13" lengthAdjust="spacing" textLength="5" x="274.0047" y="318.1558">*</text><!--MD5=[d0417dd5e021eb3f26c3c55e0f876d6f]
link Category to TestType--><path codeLine="41" d="M143.7,374 C164.22,374 187.3,374 208.72,374 " fill="none" id="Category-to-TestType" style="stroke:#A80036;stroke-width:1.0;"/><polygon fill="#A80036" points="213.84,374,204.84,370,208.84,374,204.84,378,213.84,374" style="stroke:#A80036;stroke-width:1.0;"/><polygon fill="#000000" points="170.75,362.1758,161.7049,359.2369,161.7049,365.1147,170.75,362.1758" style="stroke:#000000;stroke-width:1.0;"/><text fill="#000000" font-family="sans-serif" font-size="13" lengthAdjust="spacing" textLength="21" x="174.75" y="367.4951">has</text><text fill="#000000" font-family="sans-serif" font-size="13" lengthAdjust="spacing" textLength="20" x="155.5066" y="388.3636">1..*</text><text fill="#000000" font-family="sans-serif" font-size="13" lengthAdjust="spacing" textLength="7" x="194.9985" y="388.3241">1</text><!--MD5=[852f3a1b1bcfc6074ebcba484562eac0]
link Parameter to Category--><path codeLine="42" d="M82,251.05 C82,273.37 82,300.56 82,323.59 " fill="none" id="Parameter-to-Category" style="stroke:#A80036;stroke-width:1.0;"/><polygon fill="#A80036" points="82,328.75,86.0257,319.7615,82.0143,323.75,78.0257,319.7386,82,328.75" style="stroke:#A80036;stroke-width:1.0;"/><polygon fill="#000000" points="87,295.1758,89.9389,286.1307,84.0611,286.1307,87,295.1758" style="stroke:#000000;stroke-width:1.0;"/><text fill="#000000" font-family="sans-serif" font-size="13" lengthAdjust="spacing" textLength="93" x="96" y="295.4951">presented under</text><text fill="#000000" font-family="sans-serif" font-size="13" lengthAdjust="spacing" textLength="5" x="72.0859" y="272.0646">*</text><text fill="#000000" font-family="sans-serif" font-size="13" lengthAdjust="spacing" textLength="7" x="69.8516" y="318.1558">1</text><!--MD5=[e5a1ad8cf54a15b9f508e822cc3e9fb4]
link TestParameterResult to Parameter--><path codeLine="43" d="M82,69.12 C82,91.66 82,126.66 82,155.49 " fill="none" id="TestParameterResult-to-Parameter" style="stroke:#A80036;stroke-width:1.0;"/><polygon fill="#A80036" points="82,160.8,86,151.8,82,155.8,78,151.8,82,160.8" style="stroke:#A80036;stroke-width:1.0;"/><polygon fill="#000000" points="87,127.1758,89.9389,118.1307,84.0611,118.1307,87,127.1758" style="stroke:#000000;stroke-width:1.0;"/><text fill="#000000" font-family="sans-serif" font-size="13" lengthAdjust="spacing" textLength="78" x="96" y="127.4951">associated to</text><text fill="#000000" font-family="sans-serif" font-size="13" lengthAdjust="spacing" textLength="7" x="69.1719" y="90.4872">1</text><text fill="#000000" font-family="sans-serif" font-size="13" lengthAdjust="spacing" textLength="7" x="69.8516" y="150.2135">1</text><!--MD5=[0427a8e1f849277c26b94dea98aca491]
@startuml

skinparam classAttributeIconSize 0

class Company {
+makeMultiLinearRegressionReport(historicalPoints, dateCurrentDay, dateInitalDay, dateDayFinal)
+makeSimpleLinearRegressionReport(historicalPoints, dateCurrentDay, dateInitalDay, dateCurrentDayFinal, independentVar)
}

class TestStore{
+getPositiveCasesPerDay(day)
+getNumberOfTestsPerformed(day)
+getAverageAgeClient(day)
}

class Category {
-code
-description
+getParameterOfTest()
}

class TestType {
-code
-description
+getCateforyOfTestType()
}

class Parameter {
-code
-description
+getParameterResultValue()
}

class WriteReport {
+WriteReport(testStore, historicalPoints, currentDay, startRegression, finishRegression)
+getReport()
}

Company "1    "- ->"1  " TestStore : > has
Company "1"- ->"*" WriteReport : > generates
TestStore "1 "- ->" * " TestType : > stores
Category " 1..* "->"  1 " TestType : > has
Parameter " * "- ->" 1 " Category : presented under >
TestParameterResult " 1 "- ->" 1 " Parameter : associated to >

@enduml

PlantUML version 1.2021.4(Sun Apr 04 09:49:39 BST 2021)
(GPL source distribution)
Java Runtime: OpenJDK Runtime Environment
JVM: OpenJDK 64-Bit Server VM
Default Encoding: Cp1252
Language: en
Country: US
--></g></svg>