<?xml version="1.0" encoding="UTF-8" standalone="no"?><svg xmlns="http://www.w3.org/2000/svg" xmlns:xlink="http://www.w3.org/1999/xlink" contentScriptType="application/ecmascript" contentStyleType="text/css" height="984px" preserveAspectRatio="none" style="width:2547px;height:984px;" version="1.1" viewBox="0 0 2547 984" width="2547px" zoomAndPan="magnify"><defs><filter height="300%" id="f1s6ghwuo99wlr" width="300%" x="-1" y="-1"><feGaussianBlur result="blurOut" stdDeviation="2.0"/><feColorMatrix in="blurOut" result="blurOut2" type="matrix" values="0 0 0 0 0 0 0 0 0 0 0 0 0 0 0 0 0 0 .4 0"/><feOffset dx="4.0" dy="4.0" in="blurOut2" result="blurOut3"/><feBlend in="SourceGraphic" in2="blurOut3" mode="normal"/></filter></defs><g><rect fill="#FFFFFF" filter="url(#f1s6ghwuo99wlr)" height="746.3984" style="stroke:#A80036;stroke-width:1.0;" width="10" x="28" y="117.2188"/><rect fill="#FFFFFF" filter="url(#f1s6ghwuo99wlr)" height="98.9609" style="stroke:#A80036;stroke-width:1.0;" width="10" x="130" y="117.2188"/><rect fill="#FFFFFF" filter="url(#f1s6ghwuo99wlr)" height="30" style="stroke:#A80036;stroke-width:1.0;" width="10" x="337" y="186.1797"/><rect fill="#FFFFFF" filter="url(#f1s6ghwuo99wlr)" height="76.9609" style="stroke:#A80036;stroke-width:1.0;" width="10" x="337" y="286.8828"/><rect fill="#FFFFFF" filter="url(#f1s6ghwuo99wlr)" height="499.7734" style="stroke:#A80036;stroke-width:1.0;" width="10" x="498" y="363.8438"/><rect fill="#FFFFFF" filter="url(#f1s6ghwuo99wlr)" height="30" style="stroke:#A80036;stroke-width:1.0;" width="10" x="859" y="394.1953"/><rect fill="#FFFFFF" filter="url(#f1s6ghwuo99wlr)" height="30" style="stroke:#A80036;stroke-width:1.0;" width="10" x="859" y="454.5469"/><rect fill="#FFFFFF" filter="url(#f1s6ghwuo99wlr)" height="30" style="stroke:#A80036;stroke-width:1.0;" width="10" x="859" y="514.8984"/><rect fill="#FFFFFF" filter="url(#f1s6ghwuo99wlr)" height="30" style="stroke:#A80036;stroke-width:1.0;" width="10" x="859" y="575.25"/><rect fill="#FFFFFF" filter="url(#f1s6ghwuo99wlr)" height="137.3125" style="stroke:#A80036;stroke-width:1.0;" width="10" x="859" y="635.6016"/><rect fill="#FFFFFF" filter="url(#f1s6ghwuo99wlr)" height="106.9609" style="stroke:#A80036;stroke-width:1.0;" width="10" x="1466" y="665.9531"/><rect fill="#FFFFFF" filter="url(#f1s6ghwuo99wlr)" height="30" style="stroke:#A80036;stroke-width:1.0;" width="10" x="2009" y="742.9141"/><rect fill="#FFFFFF" filter="url(#f1s6ghwuo99wlr)" height="60.3516" style="stroke:#A80036;stroke-width:1.0;" width="10" x="2199" y="803.2656"/><rect fill="#FFFFFF" filter="url(#f1s6ghwuo99wlr)" height="30" style="stroke:#A80036;stroke-width:1.0;" width="10" x="2416" y="833.6172"/><line style="stroke:#A80036;stroke-width:1.0;stroke-dasharray:5.0,5.0;" x1="33" x2="33" y1="107.2188" y2="881.6172"/><line style="stroke:#A80036;stroke-width:1.0;stroke-dasharray:5.0,5.0;" x1="135" x2="135" y1="107.2188" y2="881.6172"/><line style="stroke:#A80036;stroke-width:1.0;stroke-dasharray:5.0,5.0;" x1="341.5" x2="341.5" y1="150.5234" y2="881.6172"/><line style="stroke:#A80036;stroke-width:1.0;stroke-dasharray:5.0,5.0;" x1="503" x2="503" y1="328.1875" y2="881.6172"/><line style="stroke:#A80036;stroke-width:1.0;stroke-dasharray:5.0,5.0;" x1="864" x2="864" y1="107.2188" y2="881.6172"/><line style="stroke:#A80036;stroke-width:1.0;stroke-dasharray:5.0,5.0;" x1="1471" x2="1471" y1="107.2188" y2="881.6172"/><line style="stroke:#A80036;stroke-width:1.0;stroke-dasharray:5.0,5.0;" x1="2014" x2="2014" y1="707.2578" y2="881.6172"/><line style="stroke:#A80036;stroke-width:1.0;stroke-dasharray:5.0,5.0;" x1="2204" x2="2204" y1="107.2188" y2="881.6172"/><line style="stroke:#A80036;stroke-width:1.0;stroke-dasharray:5.0,5.0;" x1="2421" x2="2421" y1="107.2188" y2="881.6172"/><text fill="#000000" font-family="sans-serif" font-size="14" lengthAdjust="spacing" textLength="50" x="5" y="86.5332">:System</text><text fill="#000000" font-family="sans-serif" font-size="14" lengthAdjust="spacing" textLength="39" x="12.5" y="104.1426">Clock:</text><ellipse cx="33" cy="15" fill="#FEFECE" filter="url(#f1s6ghwuo99wlr)" rx="8" ry="8" style="stroke:#A80036;stroke-width:2.0;"/><path d="M33,23 L33,50 M20,31 L46,31 M33,50 L20,65 M33,50 L46,65 " fill="none" filter="url(#f1s6ghwuo99wlr)" style="stroke:#A80036;stroke-width:2.0;"/><text fill="#000000" font-family="sans-serif" font-size="14" lengthAdjust="spacing" textLength="50" x="5" y="895.1504">:System</text><text fill="#000000" font-family="sans-serif" font-size="14" lengthAdjust="spacing" textLength="39" x="12.5" y="912.7598">Clock:</text><ellipse cx="33" cy="925.8359" fill="#FEFECE" filter="url(#f1s6ghwuo99wlr)" rx="8" ry="8" style="stroke:#A80036;stroke-width:2.0;"/><path d="M33,933.8359 L33,960.8359 M20,941.8359 L46,941.8359 M33,960.8359 L20,975.8359 M33,960.8359 L46,975.8359 " fill="none" filter="url(#f1s6ghwuo99wlr)" style="stroke:#A80036;stroke-width:2.0;"/><rect fill="#FEFECE" filter="url(#f1s6ghwuo99wlr)" height="31.6094" style="stroke:#A80036;stroke-width:1.5;" width="124" x="71" y="70.6094"/><text fill="#000000" font-family="sans-serif" font-size="14" lengthAdjust="spacing" textLength="110" x="78" y="92.1426">DailyReportTimer</text><rect fill="#FEFECE" filter="url(#f1s6ghwuo99wlr)" height="31.6094" style="stroke:#A80036;stroke-width:1.5;" width="124" x="71" y="880.6172"/><text fill="#000000" font-family="sans-serif" font-size="14" lengthAdjust="spacing" textLength="110" x="78" y="902.1504">DailyReportTimer</text><rect fill="#FEFECE" filter="url(#f1s6ghwuo99wlr)" height="31.6094" style="stroke:#A80036;stroke-width:1.5;" width="93" x="293.5" y="880.6172"/><text fill="#000000" font-family="sans-serif" font-size="14" lengthAdjust="spacing" textLength="79" x="300.5" y="902.1504">timer : Timer</text><rect fill="#FEFECE" filter="url(#f1s6ghwuo99wlr)" height="31.6094" style="stroke:#A80036;stroke-width:1.5;" width="150" x="426" y="880.6172"/><text fill="#000000" font-family="sans-serif" font-size="14" lengthAdjust="spacing" textLength="136" x="433" y="902.1504">DailyReportController</text><rect fill="#FEFECE" filter="url(#f1s6ghwuo99wlr)" height="31.6094" style="stroke:#A80036;stroke-width:1.5;" width="186" x="769" y="70.6094"/><text fill="#000000" font-family="sans-serif" font-size="14" lengthAdjust="spacing" textLength="172" x="776" y="92.1426">CreateNhsReportController</text><rect fill="#FEFECE" filter="url(#f1s6ghwuo99wlr)" height="31.6094" style="stroke:#A80036;stroke-width:1.5;" width="186" x="769" y="880.6172"/><text fill="#000000" font-family="sans-serif" font-size="14" lengthAdjust="spacing" textLength="172" x="776" y="902.1504">CreateNhsReportController</text><rect fill="#FEFECE" filter="url(#f1s6ghwuo99wlr)" height="31.6094" style="stroke:#A80036;stroke-width:1.5;" width="74" x="1432" y="70.6094"/><text fill="#000000" font-family="sans-serif" font-size="14" lengthAdjust="spacing" textLength="60" x="1439" y="92.1426">Company</text><rect fill="#FEFECE" filter="url(#f1s6ghwuo99wlr)" height="31.6094" style="stroke:#A80036;stroke-width:1.5;" width="74" x="1432" y="880.6172"/><text fill="#000000" font-family="sans-serif" font-size="14" lengthAdjust="spacing" textLength="60" x="1439" y="902.1504">Company</text><rect fill="#FEFECE" filter="url(#f1s6ghwuo99wlr)" height="31.6094" style="stroke:#A80036;stroke-width:1.5;" width="174" x="1925" y="880.6172"/><text fill="#000000" font-family="sans-serif" font-size="14" lengthAdjust="spacing" textLength="160" x="1932" y="902.1504">writeReport : WriteReport</text><rect fill="#FEFECE" filter="url(#f1s6ghwuo99wlr)" height="31.6094" style="stroke:#A80036;stroke-width:1.5;" width="178" x="2113" y="70.6094"/><text fill="#000000" font-family="sans-serif" font-size="14" lengthAdjust="spacing" textLength="164" x="2120" y="92.1426">ExternalModuleNhsReport</text><rect fill="#FEFECE" filter="url(#f1s6ghwuo99wlr)" height="31.6094" style="stroke:#A80036;stroke-width:1.5;" width="178" x="2113" y="880.6172"/><text fill="#000000" font-family="sans-serif" font-size="14" lengthAdjust="spacing" textLength="164" x="2120" y="902.1504">ExternalModuleNhsReport</text><rect fill="#FEFECE" filter="url(#f1s6ghwuo99wlr)" height="31.6094" style="stroke:#A80036;stroke-width:1.5;" width="228" x="2305" y="70.6094"/><text fill="#000000" font-family="sans-serif" font-size="14" lengthAdjust="spacing" textLength="214" x="2312" y="92.1426">ExternalModuleNhsReportAdapter</text><rect fill="#FEFECE" filter="url(#f1s6ghwuo99wlr)" height="31.6094" style="stroke:#A80036;stroke-width:1.5;" width="228" x="2305" y="880.6172"/><text fill="#000000" font-family="sans-serif" font-size="14" lengthAdjust="spacing" textLength="214" x="2312" y="902.1504">ExternalModuleNhsReportAdapter</text><rect fill="#FFFFFF" filter="url(#f1s6ghwuo99wlr)" height="746.3984" style="stroke:#A80036;stroke-width:1.0;" width="10" x="28" y="117.2188"/><rect fill="#FFFFFF" filter="url(#f1s6ghwuo99wlr)" height="98.9609" style="stroke:#A80036;stroke-width:1.0;" width="10" x="130" y="117.2188"/><rect fill="#FFFFFF" filter="url(#f1s6ghwuo99wlr)" height="30" style="stroke:#A80036;stroke-width:1.0;" width="10" x="337" y="186.1797"/><rect fill="#FFFFFF" filter="url(#f1s6ghwuo99wlr)" height="76.9609" style="stroke:#A80036;stroke-width:1.0;" width="10" x="337" y="286.8828"/><rect fill="#FFFFFF" filter="url(#f1s6ghwuo99wlr)" height="499.7734" style="stroke:#A80036;stroke-width:1.0;" width="10" x="498" y="363.8438"/><rect fill="#FFFFFF" filter="url(#f1s6ghwuo99wlr)" height="30" style="stroke:#A80036;stroke-width:1.0;" width="10" x="859" y="394.1953"/><rect fill="#FFFFFF" filter="url(#f1s6ghwuo99wlr)" height="30" style="stroke:#A80036;stroke-width:1.0;" width="10" x="859" y="454.5469"/><rect fill="#FFFFFF" filter="url(#f1s6ghwuo99wlr)" height="30" style="stroke:#A80036;stroke-width:1.0;" width="10" x="859" y="514.8984"/><rect fill="#FFFFFF" filter="url(#f1s6ghwuo99wlr)" height="30" style="stroke:#A80036;stroke-width:1.0;" width="10" x="859" y="575.25"/><rect fill="#FFFFFF" filter="url(#f1s6ghwuo99wlr)" height="137.3125" style="stroke:#A80036;stroke-width:1.0;" width="10" x="859" y="635.6016"/><rect fill="#FFFFFF" filter="url(#f1s6ghwuo99wlr)" height="106.9609" style="stroke:#A80036;stroke-width:1.0;" width="10" x="1466" y="665.9531"/><rect fill="#FFFFFF" filter="url(#f1s6ghwuo99wlr)" height="30" style="stroke:#A80036;stroke-width:1.0;" width="10" x="2009" y="742.9141"/><rect fill="#FFFFFF" filter="url(#f1s6ghwuo99wlr)" height="60.3516" style="stroke:#A80036;stroke-width:1.0;" width="10" x="2199" y="803.2656"/><rect fill="#FFFFFF" filter="url(#f1s6ghwuo99wlr)" height="30" style="stroke:#A80036;stroke-width:1.0;" width="10" x="2416" y="833.6172"/><polygon fill="#A80036" points="281.5,135.5703,291.5,139.5703,281.5,143.5703,285.5,139.5703" style="stroke:#A80036;stroke-width:1.0;"/><line style="stroke:#A80036;stroke-width:1.0;stroke-dasharray:2.0,2.0;" x1="140" x2="287.5" y1="139.5703" y2="139.5703"/><text fill="#000000" font-family="sans-serif" font-size="13" font-weight="bold" lengthAdjust="spacing" textLength="7" x="147" y="134.7139">1</text><text fill="#000000" font-family="sans-serif" font-size="13" lengthAdjust="spacing" textLength="44" x="158" y="134.7139">create()</text><rect fill="#FEFECE" filter="url(#f1s6ghwuo99wlr)" height="31.6094" style="stroke:#A80036;stroke-width:1.5;" width="93" x="293.5" y="117.2188"/><text fill="#000000" font-family="sans-serif" font-size="14" lengthAdjust="spacing" textLength="79" x="300.5" y="138.752">timer : Timer</text><polygon fill="#A80036" points="325,182.1797,335,186.1797,325,190.1797,329,186.1797" style="stroke:#A80036;stroke-width:1.0;"/><line style="stroke:#A80036;stroke-width:1.0;" x1="140" x2="331" y1="186.1797" y2="186.1797"/><text fill="#000000" font-family="sans-serif" font-size="13" font-weight="bold" lengthAdjust="spacing" textLength="7" x="147" y="181.3232">2</text><text fill="#000000" font-family="sans-serif" font-size="13" lengthAdjust="spacing" textLength="167" x="158" y="181.3232">schedule(task, delay, period)</text><path d="M32,229.1797 L32,255.1797 L441,255.1797 L441,239.1797 L431,229.1797 L32,229.1797 " fill="#FBFB77" filter="url(#f1s6ghwuo99wlr)" style="stroke:#A80036;stroke-width:1.0;"/><path d="M431,229.1797 L431,239.1797 L441,239.1797 L431,229.1797 " fill="#FBFB77" style="stroke:#A80036;stroke-width:1.0;"/><text fill="#000000" font-family="sans-serif" font-size="13" lengthAdjust="spacing" textLength="388" x="38" y="247.6748">Clock will trigger at 6.00 am, executing the daily report functionality</text><polygon fill="#A80036" points="325,282.8828,335,286.8828,325,290.8828,329,286.8828" style="stroke:#A80036;stroke-width:1.0;"/><line style="stroke:#A80036;stroke-width:1.0;" x1="38" x2="331" y1="286.8828" y2="286.8828"/><text fill="#000000" font-family="sans-serif" font-size="13" font-weight="bold" lengthAdjust="spacing" textLength="7" x="45" y="282.0264">3</text><text fill="#000000" font-family="sans-serif" font-size="13" lengthAdjust="spacing" textLength="122" x="56" y="282.0264">clock hits at 6.00 am</text><polygon fill="#A80036" points="414,313.2344,424,317.2344,414,321.2344,418,317.2344" style="stroke:#A80036;stroke-width:1.0;"/><line style="stroke:#A80036;stroke-width:1.0;" x1="347" x2="420" y1="317.2344" y2="317.2344"/><text fill="#000000" font-family="sans-serif" font-size="13" font-weight="bold" lengthAdjust="spacing" textLength="7" x="354" y="312.3779">4</text><text fill="#000000" font-family="sans-serif" font-size="13" lengthAdjust="spacing" textLength="44" x="365" y="312.3779">create()</text><rect fill="#FEFECE" filter="url(#f1s6ghwuo99wlr)" height="31.6094" style="stroke:#A80036;stroke-width:1.5;" width="150" x="426" y="294.8828"/><text fill="#000000" font-family="sans-serif" font-size="14" lengthAdjust="spacing" textLength="136" x="433" y="316.416">DailyReportController</text><polygon fill="#A80036" points="486,359.8438,496,363.8438,486,367.8438,490,363.8438" style="stroke:#A80036;stroke-width:1.0;"/><line style="stroke:#A80036;stroke-width:1.0;" x1="342" x2="492" y1="363.8438" y2="363.8438"/><text fill="#000000" font-family="sans-serif" font-size="13" font-weight="bold" lengthAdjust="spacing" textLength="7" x="349" y="358.9873">5</text><text fill="#000000" font-family="sans-serif" font-size="13" lengthAdjust="spacing" textLength="26" x="360" y="358.9873">run()</text><polygon fill="#A80036" points="847,390.1953,857,394.1953,847,398.1953,851,394.1953" style="stroke:#A80036;stroke-width:1.0;"/><line style="stroke:#A80036;stroke-width:1.0;" x1="508" x2="853" y1="394.1953" y2="394.1953"/><text fill="#000000" font-family="sans-serif" font-size="13" font-weight="bold" lengthAdjust="spacing" textLength="7" x="515" y="389.3389">6</text><text fill="#000000" font-family="sans-serif" font-size="13" lengthAdjust="spacing" textLength="206" x="526" y="389.3389">setHistoricalPoints(historicalPoints)</text><polygon fill="#A80036" points="847,450.5469,857,454.5469,847,458.5469,851,454.5469" style="stroke:#A80036;stroke-width:1.0;"/><line style="stroke:#A80036;stroke-width:1.0;" x1="508" x2="853" y1="454.5469" y2="454.5469"/><text fill="#000000" font-family="sans-serif" font-size="13" font-weight="bold" lengthAdjust="spacing" textLength="7" x="515" y="449.6904">7</text><text fill="#000000" font-family="sans-serif" font-size="13" lengthAdjust="spacing" textLength="132" x="526" y="449.6904">setInitialDay(initialDay)</text><polygon fill="#A80036" points="847,510.8984,857,514.8984,847,518.8984,851,514.8984" style="stroke:#A80036;stroke-width:1.0;"/><line style="stroke:#A80036;stroke-width:1.0;" x1="508" x2="853" y1="514.8984" y2="514.8984"/><text fill="#000000" font-family="sans-serif" font-size="13" font-weight="bold" lengthAdjust="spacing" textLength="7" x="515" y="510.042">8</text><text fill="#000000" font-family="sans-serif" font-size="13" lengthAdjust="spacing" textLength="123" x="526" y="510.042">setFinalDay(finalDay)</text><polygon fill="#A80036" points="847,571.25,857,575.25,847,579.25,851,575.25" style="stroke:#A80036;stroke-width:1.0;"/><line style="stroke:#A80036;stroke-width:1.0;" x1="508" x2="853" y1="575.25" y2="575.25"/><text fill="#000000" font-family="sans-serif" font-size="13" font-weight="bold" lengthAdjust="spacing" textLength="7" x="515" y="570.3936">9</text><text fill="#000000" font-family="sans-serif" font-size="13" lengthAdjust="spacing" textLength="264" x="526" y="570.3936">setIndependentVariable(independentVariable);</text><polygon fill="#A80036" points="847,631.6016,857,635.6016,847,639.6016,851,635.6016" style="stroke:#A80036;stroke-width:1.0;"/><line style="stroke:#A80036;stroke-width:1.0;" x1="508" x2="853" y1="635.6016" y2="635.6016"/><text fill="#000000" font-family="sans-serif" font-size="13" font-weight="bold" lengthAdjust="spacing" textLength="14" x="515" y="630.7451">10</text><text fill="#000000" font-family="sans-serif" font-size="13" lengthAdjust="spacing" textLength="314" x="533" y="630.7451">report = createNhsReportController.makeRegression();</text><polygon fill="#A80036" points="1454,661.9531,1464,665.9531,1454,669.9531,1458,665.9531" style="stroke:#A80036;stroke-width:1.0;"/><line style="stroke:#A80036;stroke-width:1.0;" x1="869" x2="1460" y1="665.9531" y2="665.9531"/><text fill="#000000" font-family="sans-serif" font-size="13" font-weight="bold" lengthAdjust="spacing" textLength="14" x="876" y="661.0967">11</text><text fill="#000000" font-family="sans-serif" font-size="13" lengthAdjust="spacing" textLength="560" x="894" y="661.0967">makeMultiLinearRegressionReport(historicalPoints, dateCurrentDay, dateInitalDay, dateDayFinal)</text><polygon fill="#A80036" points="1913,692.3047,1923,696.3047,1913,700.3047,1917,696.3047" style="stroke:#A80036;stroke-width:1.0;"/><line style="stroke:#A80036;stroke-width:1.0;" x1="1476" x2="1919" y1="696.3047" y2="696.3047"/><text fill="#000000" font-family="sans-serif" font-size="13" font-weight="bold" lengthAdjust="spacing" textLength="14" x="1483" y="691.4482">12</text><text fill="#000000" font-family="sans-serif" font-size="13" lengthAdjust="spacing" textLength="44" x="1501" y="691.4482">create()</text><rect fill="#FEFECE" filter="url(#f1s6ghwuo99wlr)" height="31.6094" style="stroke:#A80036;stroke-width:1.5;" width="174" x="1925" y="673.9531"/><text fill="#000000" font-family="sans-serif" font-size="14" lengthAdjust="spacing" textLength="160" x="1932" y="695.4863">writeReport : WriteReport</text><polygon fill="#A80036" points="1997,738.9141,2007,742.9141,1997,746.9141,2001,742.9141" style="stroke:#A80036;stroke-width:1.0;"/><line style="stroke:#A80036;stroke-width:1.0;" x1="1476" x2="2003" y1="742.9141" y2="742.9141"/><text fill="#000000" font-family="sans-serif" font-size="13" font-weight="bold" lengthAdjust="spacing" textLength="14" x="1483" y="738.0576">13</text><text fill="#000000" font-family="sans-serif" font-size="13" lengthAdjust="spacing" textLength="496" x="1501" y="738.0576">WriteReport(testStore, historicalPoints, dateCurrentDay, dateInitalDay, dateDayFinal);</text><polygon fill="#A80036" points="2187,799.2656,2197,803.2656,2187,807.2656,2191,803.2656" style="stroke:#A80036;stroke-width:1.0;"/><line style="stroke:#A80036;stroke-width:1.0;" x1="508" x2="2193" y1="803.2656" y2="803.2656"/><text fill="#000000" font-family="sans-serif" font-size="13" font-weight="bold" lengthAdjust="spacing" textLength="14" x="515" y="798.4092">14</text><text fill="#000000" font-family="sans-serif" font-size="13" lengthAdjust="spacing" textLength="107" x="533" y="798.4092">sendReport(report)</text><polygon fill="#A80036" points="2404,829.6172,2414,833.6172,2404,837.6172,2408,833.6172" style="stroke:#A80036;stroke-width:1.0;"/><line style="stroke:#A80036;stroke-width:1.0;" x1="2209" x2="2410" y1="833.6172" y2="833.6172"/><text fill="#000000" font-family="sans-serif" font-size="13" font-weight="bold" lengthAdjust="spacing" textLength="14" x="2216" y="828.7607">15</text><text fill="#000000" font-family="sans-serif" font-size="13" lengthAdjust="spacing" textLength="106" x="2234" y="828.7607">sendReport(string)</text><!--MD5=[890d7045eeaad06accc060d828db3f66]
@startuml

autonumber

actor ":System\n Clock:" as Clock
participant DailyReportTimer as drtimer
participant "timer : Timer" as timer
participant DailyReportController as controller
participant CreateNhsReportController as controller1
participant Company as company
participant "writeReport : WriteReport" as writereport
participant ExternalModuleNhsReport as interface
participant ExternalModuleNhsReportAdapter as adapter

activate Clock
activate drtimer
create timer
drtimer - -> timer : create()
drtimer -> timer : schedule(task, delay, period)
activate timer
deactivate timer
deactivate drtimer

note over drtimer, timer : Clock will trigger at 6.00 am, executing the daily report functionality

Clock -> timer : clock hits at 6.00 am
activate timer
create controller
timer -> controller : create()
timer -> controller : run()
deactivate timer
activate controller

controller -> controller1 : setHistoricalPoints(historicalPoints)
activate controller1
deactivate controller1
controller -> controller1 : setInitialDay(initialDay)
activate controller1
deactivate controller1
controller -> controller1 : setFinalDay(finalDay)
activate controller1
deactivate controller1
controller -> controller1 : setIndependentVariable(independentVariable);
activate controller1
deactivate controller1
controller -> controller1 : report = createNhsReportController.makeRegression();
activate controller1
controller1 -> company : makeMultiLinearRegressionReport(historicalPoints, dateCurrentDay, dateInitalDay, dateDayFinal)
activate company
create writereport
company -> writereport : create()
company -> writereport : WriteReport(testStore, historicalPoints, dateCurrentDay, dateInitalDay, dateDayFinal);
activate writereport
deactivate writereport
deactivate company
deactivate controller1


controller -> interface : sendReport(report)
activate interface
interface -> adapter : sendReport(string)
activate adapter
deactivate interface
deactivate adapter
deactivate controller

deactivate Clock

@enduml

PlantUML version 1.2021.4(Sun Apr 04 09:49:39 BST 2021)
(GPL source distribution)
Java Runtime: OpenJDK Runtime Environment
JVM: OpenJDK 64-Bit Server VM
Default Encoding: Cp1252
Language: en
Country: US
--></g></svg>