<?xml version="1.0" encoding="UTF-8" standalone="no"?><svg xmlns="http://www.w3.org/2000/svg" xmlns:xlink="http://www.w3.org/1999/xlink" contentScriptType="application/ecmascript" contentStyleType="text/css" height="938px" preserveAspectRatio="none" style="width:2455px;height:938px;" version="1.1" viewBox="0 0 2455 938" width="2455px" zoomAndPan="magnify"><defs><filter height="300%" id="fgn2eejkbqquc" width="300%" x="-1" y="-1"><feGaussianBlur result="blurOut" stdDeviation="2.0"/><feColorMatrix in="blurOut" result="blurOut2" type="matrix" values="0 0 0 0 0 0 0 0 0 0 0 0 0 0 0 0 0 0 .4 0"/><feOffset dx="4.0" dy="4.0" in="blurOut2" result="blurOut3"/><feBlend in="SourceGraphic" in2="blurOut3" mode="normal"/></filter></defs><g><rect fill="#FFFFFF" filter="url(#fgn2eejkbqquc)" height="699.7891" style="stroke:#A80036;stroke-width:1.0;" width="10" x="44" y="117.2188"/><rect fill="#FFFFFF" filter="url(#fgn2eejkbqquc)" height="30" style="stroke:#A80036;stroke-width:1.0;" width="10" x="206" y="186.1797"/><rect fill="#FFFFFF" filter="url(#fgn2eejkbqquc)" height="30.3516" style="stroke:#A80036;stroke-width:1.0;" width="10" x="206" y="286.8828"/><rect fill="#FFFFFF" filter="url(#fgn2eejkbqquc)" height="98.9609" style="stroke:#A80036;stroke-width:1.0;" width="10" x="413" y="117.2188"/><rect fill="#FFFFFF" filter="url(#fgn2eejkbqquc)" height="499.7734" style="stroke:#A80036;stroke-width:1.0;" width="10" x="413" y="317.2344"/><rect fill="#FFFFFF" filter="url(#fgn2eejkbqquc)" height="30" style="stroke:#A80036;stroke-width:1.0;" width="10" x="767" y="347.5859"/><rect fill="#FFFFFF" filter="url(#fgn2eejkbqquc)" height="30" style="stroke:#A80036;stroke-width:1.0;" width="10" x="767" y="407.9375"/><rect fill="#FFFFFF" filter="url(#fgn2eejkbqquc)" height="30" style="stroke:#A80036;stroke-width:1.0;" width="10" x="767" y="468.2891"/><rect fill="#FFFFFF" filter="url(#fgn2eejkbqquc)" height="30" style="stroke:#A80036;stroke-width:1.0;" width="10" x="767" y="528.6406"/><rect fill="#FFFFFF" filter="url(#fgn2eejkbqquc)" height="137.3125" style="stroke:#A80036;stroke-width:1.0;" width="10" x="767" y="588.9922"/><rect fill="#FFFFFF" filter="url(#fgn2eejkbqquc)" height="106.9609" style="stroke:#A80036;stroke-width:1.0;" width="10" x="1374" y="619.3438"/><rect fill="#FFFFFF" filter="url(#fgn2eejkbqquc)" height="30" style="stroke:#A80036;stroke-width:1.0;" width="10" x="1917" y="696.3047"/><rect fill="#FFFFFF" filter="url(#fgn2eejkbqquc)" height="60.3516" style="stroke:#A80036;stroke-width:1.0;" width="10" x="2107" y="756.6563"/><rect fill="#FFFFFF" filter="url(#fgn2eejkbqquc)" height="30" style="stroke:#A80036;stroke-width:1.0;" width="10" x="2324" y="787.0078"/><line style="stroke:#A80036;stroke-width:1.0;stroke-dasharray:5.0,5.0;" x1="49" x2="49" y1="107.2188" y2="835.0078"/><line style="stroke:#A80036;stroke-width:1.0;stroke-dasharray:5.0,5.0;" x1="210.5" x2="210.5" y1="150.5234" y2="835.0078"/><line style="stroke:#A80036;stroke-width:1.0;stroke-dasharray:5.0,5.0;" x1="418" x2="418" y1="107.2188" y2="835.0078"/><line style="stroke:#A80036;stroke-width:1.0;stroke-dasharray:5.0,5.0;" x1="772" x2="772" y1="107.2188" y2="835.0078"/><line style="stroke:#A80036;stroke-width:1.0;stroke-dasharray:5.0,5.0;" x1="1379" x2="1379" y1="107.2188" y2="835.0078"/><line style="stroke:#A80036;stroke-width:1.0;stroke-dasharray:5.0,5.0;" x1="1922" x2="1922" y1="660.6484" y2="835.0078"/><line style="stroke:#A80036;stroke-width:1.0;stroke-dasharray:5.0,5.0;" x1="2112" x2="2112" y1="107.2188" y2="835.0078"/><line style="stroke:#A80036;stroke-width:1.0;stroke-dasharray:5.0,5.0;" x1="2329" x2="2329" y1="107.2188" y2="835.0078"/><text fill="#000000" font-family="sans-serif" font-size="14" lengthAdjust="spacing" textLength="50" x="21" y="86.5332">:System</text><text fill="#000000" font-family="sans-serif" font-size="14" lengthAdjust="spacing" textLength="39" x="28.5" y="104.1426">Clock:</text><ellipse cx="49" cy="15" fill="#FEFECE" filter="url(#fgn2eejkbqquc)" rx="8" ry="8" style="stroke:#A80036;stroke-width:2.0;"/><path d="M49,23 L49,50 M36,31 L62,31 M49,50 L36,65 M49,50 L62,65 " fill="none" filter="url(#fgn2eejkbqquc)" style="stroke:#A80036;stroke-width:2.0;"/><text fill="#000000" font-family="sans-serif" font-size="14" lengthAdjust="spacing" textLength="50" x="21" y="848.541">:System</text><text fill="#000000" font-family="sans-serif" font-size="14" lengthAdjust="spacing" textLength="39" x="28.5" y="866.1504">Clock:</text><ellipse cx="49" cy="879.2266" fill="#FEFECE" filter="url(#fgn2eejkbqquc)" rx="8" ry="8" style="stroke:#A80036;stroke-width:2.0;"/><path d="M49,887.2266 L49,914.2266 M36,895.2266 L62,895.2266 M49,914.2266 L36,929.2266 M49,914.2266 L62,929.2266 " fill="none" filter="url(#fgn2eejkbqquc)" style="stroke:#A80036;stroke-width:2.0;"/><rect fill="#FEFECE" filter="url(#fgn2eejkbqquc)" height="31.6094" style="stroke:#A80036;stroke-width:1.5;" width="93" x="162.5" y="834.0078"/><text fill="#000000" font-family="sans-serif" font-size="14" lengthAdjust="spacing" textLength="79" x="169.5" y="855.541">timer : Timer</text><rect fill="#FEFECE" filter="url(#fgn2eejkbqquc)" height="31.6094" style="stroke:#A80036;stroke-width:1.5;" width="150" x="341" y="70.6094"/><text fill="#000000" font-family="sans-serif" font-size="14" lengthAdjust="spacing" textLength="136" x="348" y="92.1426">DailyReportController</text><rect fill="#FEFECE" filter="url(#fgn2eejkbqquc)" height="31.6094" style="stroke:#A80036;stroke-width:1.5;" width="150" x="341" y="834.0078"/><text fill="#000000" font-family="sans-serif" font-size="14" lengthAdjust="spacing" textLength="136" x="348" y="855.541">DailyReportController</text><rect fill="#FEFECE" filter="url(#fgn2eejkbqquc)" height="31.6094" style="stroke:#A80036;stroke-width:1.5;" width="186" x="677" y="70.6094"/><text fill="#000000" font-family="sans-serif" font-size="14" lengthAdjust="spacing" textLength="172" x="684" y="92.1426">CreateNhsReportController</text><rect fill="#FEFECE" filter="url(#fgn2eejkbqquc)" height="31.6094" style="stroke:#A80036;stroke-width:1.5;" width="186" x="677" y="834.0078"/><text fill="#000000" font-family="sans-serif" font-size="14" lengthAdjust="spacing" textLength="172" x="684" y="855.541">CreateNhsReportController</text><rect fill="#FEFECE" filter="url(#fgn2eejkbqquc)" height="31.6094" style="stroke:#A80036;stroke-width:1.5;" width="74" x="1340" y="70.6094"/><text fill="#000000" font-family="sans-serif" font-size="14" lengthAdjust="spacing" textLength="60" x="1347" y="92.1426">Company</text><rect fill="#FEFECE" filter="url(#fgn2eejkbqquc)" height="31.6094" style="stroke:#A80036;stroke-width:1.5;" width="74" x="1340" y="834.0078"/><text fill="#000000" font-family="sans-serif" font-size="14" lengthAdjust="spacing" textLength="60" x="1347" y="855.541">Company</text><rect fill="#FEFECE" filter="url(#fgn2eejkbqquc)" height="31.6094" style="stroke:#A80036;stroke-width:1.5;" width="174" x="1833" y="834.0078"/><text fill="#000000" font-family="sans-serif" font-size="14" lengthAdjust="spacing" textLength="160" x="1840" y="855.541">writeReport : WriteReport</text><rect fill="#FEFECE" filter="url(#fgn2eejkbqquc)" height="31.6094" style="stroke:#A80036;stroke-width:1.5;" width="178" x="2021" y="70.6094"/><text fill="#000000" font-family="sans-serif" font-size="14" lengthAdjust="spacing" textLength="164" x="2028" y="92.1426">ExternalModuleNhsReport</text><rect fill="#FEFECE" filter="url(#fgn2eejkbqquc)" height="31.6094" style="stroke:#A80036;stroke-width:1.5;" width="178" x="2021" y="834.0078"/><text fill="#000000" font-family="sans-serif" font-size="14" lengthAdjust="spacing" textLength="164" x="2028" y="855.541">ExternalModuleNhsReport</text><rect fill="#FEFECE" filter="url(#fgn2eejkbqquc)" height="31.6094" style="stroke:#A80036;stroke-width:1.5;" width="228" x="2213" y="70.6094"/><text fill="#000000" font-family="sans-serif" font-size="14" lengthAdjust="spacing" textLength="214" x="2220" y="92.1426">ExternalModuleNhsReportAdapter</text><rect fill="#FEFECE" filter="url(#fgn2eejkbqquc)" height="31.6094" style="stroke:#A80036;stroke-width:1.5;" width="228" x="2213" y="834.0078"/><text fill="#000000" font-family="sans-serif" font-size="14" lengthAdjust="spacing" textLength="214" x="2220" y="855.541">ExternalModuleNhsReportAdapter</text><rect fill="#FFFFFF" filter="url(#fgn2eejkbqquc)" height="699.7891" style="stroke:#A80036;stroke-width:1.0;" width="10" x="44" y="117.2188"/><rect fill="#FFFFFF" filter="url(#fgn2eejkbqquc)" height="30" style="stroke:#A80036;stroke-width:1.0;" width="10" x="206" y="186.1797"/><rect fill="#FFFFFF" filter="url(#fgn2eejkbqquc)" height="30.3516" style="stroke:#A80036;stroke-width:1.0;" width="10" x="206" y="286.8828"/><rect fill="#FFFFFF" filter="url(#fgn2eejkbqquc)" height="98.9609" style="stroke:#A80036;stroke-width:1.0;" width="10" x="413" y="117.2188"/><rect fill="#FFFFFF" filter="url(#fgn2eejkbqquc)" height="499.7734" style="stroke:#A80036;stroke-width:1.0;" width="10" x="413" y="317.2344"/><rect fill="#FFFFFF" filter="url(#fgn2eejkbqquc)" height="30" style="stroke:#A80036;stroke-width:1.0;" width="10" x="767" y="347.5859"/><rect fill="#FFFFFF" filter="url(#fgn2eejkbqquc)" height="30" style="stroke:#A80036;stroke-width:1.0;" width="10" x="767" y="407.9375"/><rect fill="#FFFFFF" filter="url(#fgn2eejkbqquc)" height="30" style="stroke:#A80036;stroke-width:1.0;" width="10" x="767" y="468.2891"/><rect fill="#FFFFFF" filter="url(#fgn2eejkbqquc)" height="30" style="stroke:#A80036;stroke-width:1.0;" width="10" x="767" y="528.6406"/><rect fill="#FFFFFF" filter="url(#fgn2eejkbqquc)" height="137.3125" style="stroke:#A80036;stroke-width:1.0;" width="10" x="767" y="588.9922"/><rect fill="#FFFFFF" filter="url(#fgn2eejkbqquc)" height="106.9609" style="stroke:#A80036;stroke-width:1.0;" width="10" x="1374" y="619.3438"/><rect fill="#FFFFFF" filter="url(#fgn2eejkbqquc)" height="30" style="stroke:#A80036;stroke-width:1.0;" width="10" x="1917" y="696.3047"/><rect fill="#FFFFFF" filter="url(#fgn2eejkbqquc)" height="60.3516" style="stroke:#A80036;stroke-width:1.0;" width="10" x="2107" y="756.6563"/><rect fill="#FFFFFF" filter="url(#fgn2eejkbqquc)" height="30" style="stroke:#A80036;stroke-width:1.0;" width="10" x="2324" y="787.0078"/><polygon fill="#A80036" points="270.5,135.5703,260.5,139.5703,270.5,143.5703,266.5,139.5703" style="stroke:#A80036;stroke-width:1.0;"/><line style="stroke:#A80036;stroke-width:1.0;stroke-dasharray:2.0,2.0;" x1="264.5" x2="412" y1="139.5703" y2="139.5703"/><text fill="#000000" font-family="sans-serif" font-size="13" font-weight="bold" lengthAdjust="spacing" textLength="7" x="276.5" y="134.7139">1</text><text fill="#000000" font-family="sans-serif" font-size="13" lengthAdjust="spacing" textLength="44" x="287.5" y="134.7139">create()</text><rect fill="#FEFECE" filter="url(#fgn2eejkbqquc)" height="31.6094" style="stroke:#A80036;stroke-width:1.5;" width="93" x="162.5" y="117.2188"/><text fill="#000000" font-family="sans-serif" font-size="14" lengthAdjust="spacing" textLength="79" x="169.5" y="138.752">timer : Timer</text><polygon fill="#A80036" points="227,182.1797,217,186.1797,227,190.1797,223,186.1797" style="stroke:#A80036;stroke-width:1.0;"/><line style="stroke:#A80036;stroke-width:1.0;" x1="221" x2="412" y1="186.1797" y2="186.1797"/><text fill="#000000" font-family="sans-serif" font-size="13" font-weight="bold" lengthAdjust="spacing" textLength="7" x="233" y="181.3232">2</text><text fill="#000000" font-family="sans-serif" font-size="13" lengthAdjust="spacing" textLength="167" x="244" y="181.3232">schedule(task, delay, period)</text><path d="M5,229.1797 L5,255.1797 L414,255.1797 L414,239.1797 L404,229.1797 L5,229.1797 " fill="#FBFB77" filter="url(#fgn2eejkbqquc)" style="stroke:#A80036;stroke-width:1.0;"/><path d="M404,229.1797 L404,239.1797 L414,239.1797 L404,229.1797 " fill="#FBFB77" style="stroke:#A80036;stroke-width:1.0;"/><text fill="#000000" font-family="sans-serif" font-size="13" lengthAdjust="spacing" textLength="388" x="11" y="247.6748">Clock will trigger at 6.00 am, executing the daily report functionality</text><polygon fill="#A80036" points="194,282.8828,204,286.8828,194,290.8828,198,286.8828" style="stroke:#A80036;stroke-width:1.0;"/><line style="stroke:#A80036;stroke-width:1.0;" x1="54" x2="200" y1="286.8828" y2="286.8828"/><text fill="#000000" font-family="sans-serif" font-size="13" font-weight="bold" lengthAdjust="spacing" textLength="7" x="61" y="282.0264">3</text><text fill="#000000" font-family="sans-serif" font-size="13" lengthAdjust="spacing" textLength="122" x="72" y="282.0264">clock hits at 6.00 am</text><polygon fill="#A80036" points="401,313.2344,411,317.2344,401,321.2344,405,317.2344" style="stroke:#A80036;stroke-width:1.0;"/><line style="stroke:#A80036;stroke-width:1.0;" x1="211" x2="407" y1="317.2344" y2="317.2344"/><text fill="#000000" font-family="sans-serif" font-size="13" font-weight="bold" lengthAdjust="spacing" textLength="7" x="218" y="312.3779">4</text><text fill="#000000" font-family="sans-serif" font-size="13" lengthAdjust="spacing" textLength="26" x="229" y="312.3779">run()</text><polygon fill="#A80036" points="755,343.5859,765,347.5859,755,351.5859,759,347.5859" style="stroke:#A80036;stroke-width:1.0;"/><line style="stroke:#A80036;stroke-width:1.0;" x1="423" x2="761" y1="347.5859" y2="347.5859"/><text fill="#000000" font-family="sans-serif" font-size="13" font-weight="bold" lengthAdjust="spacing" textLength="7" x="430" y="342.7295">5</text><text fill="#000000" font-family="sans-serif" font-size="13" lengthAdjust="spacing" textLength="206" x="441" y="342.7295">setHistoricalPoints(historicalPoints)</text><polygon fill="#A80036" points="755,403.9375,765,407.9375,755,411.9375,759,407.9375" style="stroke:#A80036;stroke-width:1.0;"/><line style="stroke:#A80036;stroke-width:1.0;" x1="423" x2="761" y1="407.9375" y2="407.9375"/><text fill="#000000" font-family="sans-serif" font-size="13" font-weight="bold" lengthAdjust="spacing" textLength="7" x="430" y="403.0811">6</text><text fill="#000000" font-family="sans-serif" font-size="13" lengthAdjust="spacing" textLength="132" x="441" y="403.0811">setInitialDay(initialDay)</text><polygon fill="#A80036" points="755,464.2891,765,468.2891,755,472.2891,759,468.2891" style="stroke:#A80036;stroke-width:1.0;"/><line style="stroke:#A80036;stroke-width:1.0;" x1="423" x2="761" y1="468.2891" y2="468.2891"/><text fill="#000000" font-family="sans-serif" font-size="13" font-weight="bold" lengthAdjust="spacing" textLength="7" x="430" y="463.4326">7</text><text fill="#000000" font-family="sans-serif" font-size="13" lengthAdjust="spacing" textLength="123" x="441" y="463.4326">setFinalDay(finalDay)</text><polygon fill="#A80036" points="755,524.6406,765,528.6406,755,532.6406,759,528.6406" style="stroke:#A80036;stroke-width:1.0;"/><line style="stroke:#A80036;stroke-width:1.0;" x1="423" x2="761" y1="528.6406" y2="528.6406"/><text fill="#000000" font-family="sans-serif" font-size="13" font-weight="bold" lengthAdjust="spacing" textLength="7" x="430" y="523.7842">8</text><text fill="#000000" font-family="sans-serif" font-size="13" lengthAdjust="spacing" textLength="264" x="441" y="523.7842">setIndependentVariable(independentVariable);</text><polygon fill="#A80036" points="755,584.9922,765,588.9922,755,592.9922,759,588.9922" style="stroke:#A80036;stroke-width:1.0;"/><line style="stroke:#A80036;stroke-width:1.0;" x1="423" x2="761" y1="588.9922" y2="588.9922"/><text fill="#000000" font-family="sans-serif" font-size="13" font-weight="bold" lengthAdjust="spacing" textLength="7" x="430" y="584.1357">9</text><text fill="#000000" font-family="sans-serif" font-size="13" lengthAdjust="spacing" textLength="314" x="441" y="584.1357">report = createNhsReportController.makeRegression();</text><polygon fill="#A80036" points="1362,615.3438,1372,619.3438,1362,623.3438,1366,619.3438" style="stroke:#A80036;stroke-width:1.0;"/><line style="stroke:#A80036;stroke-width:1.0;" x1="777" x2="1368" y1="619.3438" y2="619.3438"/><text fill="#000000" font-family="sans-serif" font-size="13" font-weight="bold" lengthAdjust="spacing" textLength="14" x="784" y="614.4873">10</text><text fill="#000000" font-family="sans-serif" font-size="13" lengthAdjust="spacing" textLength="560" x="802" y="614.4873">makeMultiLinearRegressionReport(historicalPoints, dateCurrentDay, dateInitalDay, dateDayFinal)</text><polygon fill="#A80036" points="1821,645.6953,1831,649.6953,1821,653.6953,1825,649.6953" style="stroke:#A80036;stroke-width:1.0;"/><line style="stroke:#A80036;stroke-width:1.0;" x1="1384" x2="1827" y1="649.6953" y2="649.6953"/><text fill="#000000" font-family="sans-serif" font-size="13" font-weight="bold" lengthAdjust="spacing" textLength="14" x="1391" y="644.8389">11</text><text fill="#000000" font-family="sans-serif" font-size="13" lengthAdjust="spacing" textLength="44" x="1409" y="644.8389">create()</text><rect fill="#FEFECE" filter="url(#fgn2eejkbqquc)" height="31.6094" style="stroke:#A80036;stroke-width:1.5;" width="174" x="1833" y="627.3438"/><text fill="#000000" font-family="sans-serif" font-size="14" lengthAdjust="spacing" textLength="160" x="1840" y="648.877">writeReport : WriteReport</text><polygon fill="#A80036" points="1905,692.3047,1915,696.3047,1905,700.3047,1909,696.3047" style="stroke:#A80036;stroke-width:1.0;"/><line style="stroke:#A80036;stroke-width:1.0;" x1="1384" x2="1911" y1="696.3047" y2="696.3047"/><text fill="#000000" font-family="sans-serif" font-size="13" font-weight="bold" lengthAdjust="spacing" textLength="14" x="1391" y="691.4482">12</text><text fill="#000000" font-family="sans-serif" font-size="13" lengthAdjust="spacing" textLength="496" x="1409" y="691.4482">WriteReport(testStore, historicalPoints, dateCurrentDay, dateInitalDay, dateDayFinal);</text><polygon fill="#A80036" points="2095,752.6563,2105,756.6563,2095,760.6563,2099,756.6563" style="stroke:#A80036;stroke-width:1.0;"/><line style="stroke:#A80036;stroke-width:1.0;" x1="423" x2="2101" y1="756.6563" y2="756.6563"/><text fill="#000000" font-family="sans-serif" font-size="13" font-weight="bold" lengthAdjust="spacing" textLength="14" x="430" y="751.7998">13</text><text fill="#000000" font-family="sans-serif" font-size="13" lengthAdjust="spacing" textLength="107" x="448" y="751.7998">sendReport(report)</text><polygon fill="#A80036" points="2312,783.0078,2322,787.0078,2312,791.0078,2316,787.0078" style="stroke:#A80036;stroke-width:1.0;"/><line style="stroke:#A80036;stroke-width:1.0;" x1="2117" x2="2318" y1="787.0078" y2="787.0078"/><text fill="#000000" font-family="sans-serif" font-size="13" font-weight="bold" lengthAdjust="spacing" textLength="14" x="2124" y="782.1514">14</text><text fill="#000000" font-family="sans-serif" font-size="13" lengthAdjust="spacing" textLength="106" x="2142" y="782.1514">sendReport(string)</text><!--MD5=[3eaf4da21cf0a95261ce3443a34205c0]
@startuml

autonumber

actor ":System\n Clock:" as Clock
participant "timer : Timer" as timer
participant DailyReportController as controller
participant CreateNhsReportController as controller1
participant Company as company
participant "writeReport : WriteReport" as writereport
participant ExternalModuleNhsReport as interface
participant ExternalModuleNhsReportAdapter as adapter

activate Clock
activate controller
create timer
controller - -> timer : create()
controller -> timer : schedule(task, delay, period)
activate timer
deactivate controller
deactivate timer

note over timer : Clock will trigger at 6.00 am, executing the daily report functionality

Clock -> timer : clock hits at 6.00 am
activate timer
timer -> controller : run()
deactivate timer
activate controller

controller -> controller1 : setHistoricalPoints(historicalPoints)
activate controller1
deactivate controller1
controller -> controller1 : setInitialDay(initialDay)
activate controller1
deactivate controller1
controller -> controller1 : setFinalDay(finalDay)
activate controller1
deactivate controller1
controller -> controller1 : setIndependentVariable(independentVariable);
activate controller1
deactivate controller1
controller -> controller1 : report = createNhsReportController.makeRegression();
activate controller1
controller1 -> company : makeMultiLinearRegressionReport(historicalPoints, dateCurrentDay, dateInitalDay, dateDayFinal)
activate company
create writereport
company -> writereport : create()
company -> writereport : WriteReport(testStore, historicalPoints, dateCurrentDay, dateInitalDay, dateDayFinal);
activate writereport
deactivate writereport
deactivate company
deactivate controller1


controller -> interface : sendReport(report)
activate interface
interface -> adapter : sendReport(string)
activate adapter
deactivate interface
deactivate adapter
deactivate controller

deactivate Clock

@enduml

PlantUML version 1.2021.4(Sun Apr 04 09:49:39 BST 2021)
(GPL source distribution)
Java Runtime: OpenJDK Runtime Environment
JVM: OpenJDK 64-Bit Server VM
Default Encoding: Cp1252
Language: en
Country: US
--></g></svg>