<?xml version="1.0" encoding="UTF-8" standalone="no"?><svg xmlns="http://www.w3.org/2000/svg" xmlns:xlink="http://www.w3.org/1999/xlink" contentScriptType="application/ecmascript" contentStyleType="text/css" height="260px" preserveAspectRatio="none" style="width:254px;height:260px;" version="1.1" viewBox="0 0 254 260" width="254px" zoomAndPan="magnify"><defs><filter height="300%" id="f1k0ov1rwmdilv" width="300%" x="-1" y="-1"><feGaussianBlur result="blurOut" stdDeviation="2.0"/><feColorMatrix in="blurOut" result="blurOut2" type="matrix" values="0 0 0 0 0 0 0 0 0 0 0 0 0 0 0 0 0 0 .4 0"/><feOffset dx="4.0" dy="4.0" in="blurOut2" result="blurOut3"/><feBlend in="SourceGraphic" in2="blurOut3" mode="normal"/></filter></defs><g><rect fill="#FFFFFF" filter="url(#f1k0ov1rwmdilv)" height="22.3516" style="stroke:#A80036;stroke-width:1.0;" width="10" x="28" y="117.2188"/><line style="stroke:#A80036;stroke-width:1.0;stroke-dasharray:5.0,5.0;" x1="33" x2="33" y1="107.2188" y2="157.5703"/><line style="stroke:#A80036;stroke-width:1.0;stroke-dasharray:5.0,5.0;" x1="210" x2="210" y1="107.2188" y2="157.5703"/><text fill="#000000" font-family="sans-serif" font-size="14" lengthAdjust="spacing" textLength="50" x="5" y="86.5332">:System</text><text fill="#000000" font-family="sans-serif" font-size="14" lengthAdjust="spacing" textLength="39" x="12.5" y="104.1426">Clock:</text><ellipse cx="33" cy="15" fill="#FEFECE" filter="url(#f1k0ov1rwmdilv)" rx="8" ry="8" style="stroke:#A80036;stroke-width:2.0;"/><path d="M33,23 L33,50 M20,31 L46,31 M33,50 L20,65 M33,50 L46,65 " fill="none" filter="url(#f1k0ov1rwmdilv)" style="stroke:#A80036;stroke-width:2.0;"/><text fill="#000000" font-family="sans-serif" font-size="14" lengthAdjust="spacing" textLength="50" x="5" y="171.1035">:System</text><text fill="#000000" font-family="sans-serif" font-size="14" lengthAdjust="spacing" textLength="39" x="12.5" y="188.7129">Clock:</text><ellipse cx="33" cy="201.7891" fill="#FEFECE" filter="url(#f1k0ov1rwmdilv)" rx="8" ry="8" style="stroke:#A80036;stroke-width:2.0;"/><path d="M33,209.7891 L33,236.7891 M20,217.7891 L46,217.7891 M33,236.7891 L20,251.7891 M33,236.7891 L46,251.7891 " fill="none" filter="url(#f1k0ov1rwmdilv)" style="stroke:#A80036;stroke-width:2.0;"/><rect fill="#FEFECE" filter="url(#f1k0ov1rwmdilv)" height="31.6094" style="stroke:#A80036;stroke-width:1.5;" width="64" x="176" y="70.6094"/><text fill="#000000" font-family="sans-serif" font-size="14" lengthAdjust="spacing" textLength="50" x="183" y="92.1426">:System</text><rect fill="#FEFECE" filter="url(#f1k0ov1rwmdilv)" height="31.6094" style="stroke:#A80036;stroke-width:1.5;" width="64" x="176" y="156.5703"/><text fill="#000000" font-family="sans-serif" font-size="14" lengthAdjust="spacing" textLength="50" x="183" y="178.1035">:System</text><rect fill="#FFFFFF" filter="url(#f1k0ov1rwmdilv)" height="22.3516" style="stroke:#A80036;stroke-width:1.0;" width="10" x="28" y="117.2188"/><polygon fill="#A80036" points="198,135.5703,208,139.5703,198,143.5703,202,139.5703" style="stroke:#A80036;stroke-width:1.0;"/><line style="stroke:#A80036;stroke-width:1.0;" x1="33" x2="204" y1="139.5703" y2="139.5703"/><text fill="#000000" font-family="sans-serif" font-size="13" font-weight="bold" lengthAdjust="spacing" textLength="7" x="40" y="134.7139">1</text><text fill="#000000" font-family="sans-serif" font-size="13" lengthAdjust="spacing" textLength="137" x="51" y="134.7139">clock trigger at 6.00 am</text><!--MD5=[debf18395a44e17330a5e58dcae2134a]
@startuml

autonumber

actor ":System\n Clock:" as Clock
participant ":System" as sys

activate Clock
Clock -> sys: clock trigger at 6.00 am
deactivate Clock

@enduml

PlantUML version 1.2021.4(Sun Apr 04 09:49:39 BST 2021)
(GPL source distribution)
Java Runtime: OpenJDK Runtime Environment
JVM: OpenJDK 64-Bit Server VM
Default Encoding: Cp1252
Language: en
Country: US
--></g></svg>