<?xml version="1.0" encoding="UTF-8" standalone="no"?><svg xmlns="http://www.w3.org/2000/svg" xmlns:xlink="http://www.w3.org/1999/xlink" contentScriptType="application/ecmascript" contentStyleType="text/css" height="817px" preserveAspectRatio="none" style="width:1121px;height:817px;" version="1.1" viewBox="0 0 1121 817" width="1121px" zoomAndPan="magnify"><defs><filter height="300%" id="fit4oztaec0b6" width="300%" x="-1" y="-1"><feGaussianBlur result="blurOut" stdDeviation="2.0"/><feColorMatrix in="blurOut" result="blurOut2" type="matrix" values="0 0 0 0 0 0 0 0 0 0 0 0 0 0 0 0 0 0 .4 0"/><feOffset dx="4.0" dy="4.0" in="blurOut2" result="blurOut3"/><feBlend in="SourceGraphic" in2="blurOut3" mode="normal"/></filter></defs><g><!--MD5=[e663926f46ae319bd097eeb013f7291c]
class DailyReportController--><rect codeLine="4" fill="#FEFECE" filter="url(#fit4oztaec0b6)" height="75.6719" id="DailyReportController" style="stroke:#A80036;stroke-width:1.5;" width="150" x="41" y="306.5"/><ellipse cx="56" cy="322.5" fill="#ADD1B2" rx="11" ry="11" style="stroke:#A80036;stroke-width:1.0;"/><path d="M58,319 Q58.2031,318.5 58.4375,318.25 Q58.6719,318 58.9375,318 Q59.4063,318 59.7031,318.2813 Q60,318.5625 60,319.2188 L60,320.7813 Q60,321.4375 59.7188,321.7188 Q59.4375,322 59,322 Q58.6094,322 58.3594,321.8281 Q58.1094,321.6563 58,321.2031 Q57.9531,320.8906 57.7813,320.7188 Q57.4688,320.3906 56.9063,320.2031 Q56.3438,320 55.7813,320 Q55.0781,320 54.4844,320.2813 Q53.9063,320.5625 53.4531,321.1875 Q53,321.8125 53,322.6719 L53,323.5938 Q53,324.625 53.8438,325.3125 Q54.6875,326 56.1875,326 Q57.0781,326 57.7031,325.7969 Q58.0625,325.6875 58.4688,325.3281 Q58.7344,325.125 58.875,325.0625 Q59.0156,325 59.1875,325 Q59.5156,325 59.75,325.2656 Q60,325.5156 60,325.875 Q60,326.2188 59.6563,326.625 Q59.1563,327.2188 58.3594,327.5469 Q57.3125,328 56.0313,328 Q54.5313,328 53.3281,327.4063 Q52.3594,326.9375 51.6719,325.9219 Q51,324.9063 51,323.7031 L51,322.6094 Q51,321.3594 51.5938,320.2656 Q52.2031,319.1719 53.25,318.5938 Q54.3125,318 55.5,318 Q56.2188,318 56.8438,318.25 Q57.4688,318.5 58,319 Z " fill="#000000"/><text fill="#000000" font-family="sans-serif" font-size="12" lengthAdjust="spacing" textLength="118" x="70" y="327.4102">DailyReportController</text><line style="stroke:#A80036;stroke-width:1.5;" x1="42" x2="190" y1="338.5" y2="338.5"/><line style="stroke:#A80036;stroke-width:1.5;" x1="42" x2="190" y1="346.5" y2="346.5"/><text fill="#000000" font-family="sans-serif" font-size="11" lengthAdjust="spacing" textLength="94" x="47" y="361.9189">+dailyReportTimer()</text><text fill="#000000" font-family="sans-serif" font-size="11" lengthAdjust="spacing" textLength="30" x="47" y="375.7549">+run()</text><!--MD5=[11779a1c85551913f1fc615802b94a30]
class CreateNhsReportController--><rect codeLine="9" fill="#FEFECE" filter="url(#fit4oztaec0b6)" height="131.0156" id="CreateNhsReportController" style="stroke:#A80036;stroke-width:1.5;" width="239" x="226.5" y="279"/><ellipse cx="266.7" cy="295" fill="#ADD1B2" rx="11" ry="11" style="stroke:#A80036;stroke-width:1.0;"/><path d="M268.7,291.5 Q268.9031,291 269.1375,290.75 Q269.3719,290.5 269.6375,290.5 Q270.1063,290.5 270.4031,290.7813 Q270.7,291.0625 270.7,291.7188 L270.7,293.2813 Q270.7,293.9375 270.4188,294.2188 Q270.1375,294.5 269.7,294.5 Q269.3094,294.5 269.0594,294.3281 Q268.8094,294.1563 268.7,293.7031 Q268.6531,293.3906 268.4813,293.2188 Q268.1688,292.8906 267.6063,292.7031 Q267.0438,292.5 266.4813,292.5 Q265.7781,292.5 265.1844,292.7813 Q264.6063,293.0625 264.1531,293.6875 Q263.7,294.3125 263.7,295.1719 L263.7,296.0938 Q263.7,297.125 264.5438,297.8125 Q265.3875,298.5 266.8875,298.5 Q267.7781,298.5 268.4031,298.2969 Q268.7625,298.1875 269.1688,297.8281 Q269.4344,297.625 269.575,297.5625 Q269.7156,297.5 269.8875,297.5 Q270.2156,297.5 270.45,297.7656 Q270.7,298.0156 270.7,298.375 Q270.7,298.7188 270.3563,299.125 Q269.8563,299.7188 269.0594,300.0469 Q268.0125,300.5 266.7313,300.5 Q265.2313,300.5 264.0281,299.9063 Q263.0594,299.4375 262.3719,298.4219 Q261.7,297.4063 261.7,296.2031 L261.7,295.1094 Q261.7,293.8594 262.2938,292.7656 Q262.9031,291.6719 263.95,291.0938 Q265.0125,290.5 266.2,290.5 Q266.9188,290.5 267.5438,290.75 Q268.1688,291 268.7,291.5 Z " fill="#000000"/><text fill="#000000" font-family="sans-serif" font-size="12" lengthAdjust="spacing" textLength="151" x="286.3" y="299.9102">CreateNhsReportController</text><line style="stroke:#A80036;stroke-width:1.5;" x1="227.5" x2="464.5" y1="311" y2="311"/><line style="stroke:#A80036;stroke-width:1.5;" x1="227.5" x2="464.5" y1="319" y2="319"/><text fill="#000000" font-family="sans-serif" font-size="11" lengthAdjust="spacing" textLength="174" x="232.5" y="334.4189">+setHistoricalPoints(historicalPoints)</text><text fill="#000000" font-family="sans-serif" font-size="11" lengthAdjust="spacing" textLength="138" x="232.5" y="348.2549">+setCurrentDay(currentDay)</text><text fill="#000000" font-family="sans-serif" font-size="11" lengthAdjust="spacing" textLength="113" x="232.5" y="362.0908">+setInitialDay(initialDay)</text><text fill="#000000" font-family="sans-serif" font-size="11" lengthAdjust="spacing" textLength="109" x="232.5" y="375.9268">+setFinalDay(finalDay)</text><text fill="#000000" font-family="sans-serif" font-size="11" lengthAdjust="spacing" textLength="227" x="232.5" y="389.7627">+setIndependentVariable(independentVariable)</text><text fill="#000000" font-family="sans-serif" font-size="11" lengthAdjust="spacing" textLength="94" x="232.5" y="403.5986">+makeRegression()</text><!--MD5=[53ae8b34bebe44116eb8626f99f3fe78]
class Runnable--><rect codeLine="18" fill="#FEFECE" filter="url(#fit4oztaec0b6)" height="61.8359" id="Runnable" style="stroke:#A80036;stroke-width:1.5;" width="87" x="72.5" y="7"/><ellipse cx="87.5" cy="23" fill="#B4A7E5" rx="11" ry="11" style="stroke:#A80036;stroke-width:1.0;"/><path d="M88.5,20 L88.5,26 L90.5,26 L90.9844,26 L91.5,26.625 L91.5,27 L91.5,27.375 L90.9844,28 L90.5,28 L84.5,28 L84.0156,28 L83.5,27.375 L83.5,27 L83.5,26.625 L84.0156,26 L84.5,26 L86.5,26 L86.5,20 L84.5,20 L84.0156,20 L83.5,19.375 L83.5,19 L83.5,18.625 L84.0156,18 L84.5,18 L90.5,18 L90.9844,18 L91.5,18.625 L91.5,19 L91.5,19.375 L90.9844,20 L90.5,20 L88.5,20 Z " fill="#000000"/><text fill="#000000" font-family="sans-serif" font-size="12" font-style="italic" lengthAdjust="spacing" textLength="55" x="101.5" y="27.9102">Runnable</text><line style="stroke:#A80036;stroke-width:1.5;" x1="73.5" x2="158.5" y1="39" y2="39"/><line style="stroke:#A80036;stroke-width:1.5;" x1="73.5" x2="158.5" y1="47" y2="47"/><text fill="#000000" font-family="sans-serif" font-size="11" lengthAdjust="spacing" textLength="30" x="78.5" y="62.4189">+run()</text><!--MD5=[74054751ba3b9eca75fda5044dcc84d9]
class TimerTask--><rect codeLine="22" fill="#FEFECE" filter="url(#fit4oztaec0b6)" height="89.5078" id="TimerTask" style="stroke:#A80036;stroke-width:1.5;" width="139" x="46.5" y="129"/><ellipse cx="83.1" cy="145" fill="#A9DCDF" rx="11" ry="11" style="stroke:#A80036;stroke-width:1.0;"/><path d="M84.85,146.5 L81.5531,146.5 L81.1156,147.5 L81.1156,147.5 L81.5844,147.5 L82.1,148.125 L82.1,148.5 L82.1,148.875 L81.5844,149.5 L81.1156,149.5 L79.225,149.5 L78.6156,149.5 L78.1,148.875 L78.1,148.5 L78.1,148.125 L78.6156,147.5 L79.225,147.5 L81.5375,141.5 L80.6625,141.5 L79.6156,141.5 L79.1,140.875 L79.1,140.5 L79.1,140.125 L79.6156,139.5 L80.6625,139.5 L84.3344,139.5 L87.0219,147.5 L87.5844,147.5 L87.5844,147.5 L88.1,148.125 L88.1,148.5 L88.1,148.875 L87.5844,149.5 L87.0219,149.5 L85.1313,149.5 L84.6156,149.5 L84.1,148.875 L84.1,148.5 L84.1,148.125 L84.6156,147.5 L85.1313,147.5 L85.1313,147.5 L84.85,146.5 Z M84.3031,144.5 L83.1,140.9219 L82.0688,144.5 L84.3031,144.5 Z " fill="#000000"/><text fill="#000000" font-family="sans-serif" font-size="12" font-style="italic" lengthAdjust="spacing" textLength="59" x="101.9" y="149.9102">TimerTask</text><line style="stroke:#A80036;stroke-width:1.5;" x1="47.5" x2="184.5" y1="161" y2="161"/><line style="stroke:#A80036;stroke-width:1.5;" x1="47.5" x2="184.5" y1="169" y2="169"/><text fill="#000000" font-family="sans-serif" font-size="11" lengthAdjust="spacing" textLength="30" x="52.5" y="184.4189">+run()</text><text fill="#000000" font-family="sans-serif" font-size="11" lengthAdjust="spacing" textLength="46" x="52.5" y="198.2549">+cancel()</text><text fill="#000000" font-family="sans-serif" font-size="11" lengthAdjust="spacing" textLength="127" x="52.5" y="212.0908">+scheduleExecutionTime()</text><!--MD5=[ef340af6512c03d5eeac92509be9c66b]
class LinearRegression--><rect codeLine="28" fill="#FEFECE" filter="url(#fit4oztaec0b6)" height="61.8359" id="LinearRegression" style="stroke:#A80036;stroke-width:1.5;" width="132" x="644" y="613"/><ellipse cx="659" cy="629" fill="#ADD1B2" rx="11" ry="11" style="stroke:#A80036;stroke-width:1.0;"/><path d="M661,625.5 Q661.2031,625 661.4375,624.75 Q661.6719,624.5 661.9375,624.5 Q662.4063,624.5 662.7031,624.7813 Q663,625.0625 663,625.7188 L663,627.2813 Q663,627.9375 662.7188,628.2188 Q662.4375,628.5 662,628.5 Q661.6094,628.5 661.3594,628.3281 Q661.1094,628.1563 661,627.7031 Q660.9531,627.3906 660.7813,627.2188 Q660.4688,626.8906 659.9063,626.7031 Q659.3438,626.5 658.7813,626.5 Q658.0781,626.5 657.4844,626.7813 Q656.9063,627.0625 656.4531,627.6875 Q656,628.3125 656,629.1719 L656,630.0938 Q656,631.125 656.8438,631.8125 Q657.6875,632.5 659.1875,632.5 Q660.0781,632.5 660.7031,632.2969 Q661.0625,632.1875 661.4688,631.8281 Q661.7344,631.625 661.875,631.5625 Q662.0156,631.5 662.1875,631.5 Q662.5156,631.5 662.75,631.7656 Q663,632.0156 663,632.375 Q663,632.7188 662.6563,633.125 Q662.1563,633.7188 661.3594,634.0469 Q660.3125,634.5 659.0313,634.5 Q657.5313,634.5 656.3281,633.9063 Q655.3594,633.4375 654.6719,632.4219 Q654,631.4063 654,630.2031 L654,629.1094 Q654,627.8594 654.5938,626.7656 Q655.2031,625.6719 656.25,625.0938 Q657.3125,624.5 658.5,624.5 Q659.2188,624.5 659.8438,624.75 Q660.4688,625 661,625.5 Z " fill="#000000"/><text fill="#000000" font-family="sans-serif" font-size="12" lengthAdjust="spacing" textLength="100" x="673" y="633.9102">LinearRegression</text><line style="stroke:#A80036;stroke-width:1.5;" x1="645" x2="775" y1="645" y2="645"/><line style="stroke:#A80036;stroke-width:1.5;" x1="645" x2="775" y1="653" y2="653"/><text fill="#000000" font-family="sans-serif" font-size="11" lengthAdjust="spacing" textLength="117" x="650" y="668.4189">+LinearRegression(x, y)</text><!--MD5=[6f57bde7dde74de5002c105391146556]
class MultiLinearRegression--><rect codeLine="32" fill="#FEFECE" filter="url(#fit4oztaec0b6)" height="61.8359" id="MultiLinearRegression" style="stroke:#A80036;stroke-width:1.5;" width="174" x="811" y="613"/><ellipse cx="833.65" cy="629" fill="#ADD1B2" rx="11" ry="11" style="stroke:#A80036;stroke-width:1.0;"/><path d="M835.65,625.5 Q835.8531,625 836.0875,624.75 Q836.3219,624.5 836.5875,624.5 Q837.0563,624.5 837.3531,624.7813 Q837.65,625.0625 837.65,625.7188 L837.65,627.2813 Q837.65,627.9375 837.3688,628.2188 Q837.0875,628.5 836.65,628.5 Q836.2594,628.5 836.0094,628.3281 Q835.7594,628.1563 835.65,627.7031 Q835.6031,627.3906 835.4313,627.2188 Q835.1188,626.8906 834.5563,626.7031 Q833.9938,626.5 833.4313,626.5 Q832.7281,626.5 832.1344,626.7813 Q831.5563,627.0625 831.1031,627.6875 Q830.65,628.3125 830.65,629.1719 L830.65,630.0938 Q830.65,631.125 831.4938,631.8125 Q832.3375,632.5 833.8375,632.5 Q834.7281,632.5 835.3531,632.2969 Q835.7125,632.1875 836.1188,631.8281 Q836.3844,631.625 836.525,631.5625 Q836.6656,631.5 836.8375,631.5 Q837.1656,631.5 837.4,631.7656 Q837.65,632.0156 837.65,632.375 Q837.65,632.7188 837.3063,633.125 Q836.8063,633.7188 836.0094,634.0469 Q834.9625,634.5 833.6813,634.5 Q832.1813,634.5 830.9781,633.9063 Q830.0094,633.4375 829.3219,632.4219 Q828.65,631.4063 828.65,630.2031 L828.65,629.1094 Q828.65,627.8594 829.2438,626.7656 Q829.8531,625.6719 830.9,625.0938 Q831.9625,624.5 833.15,624.5 Q833.8688,624.5 834.4938,624.75 Q835.1188,625 835.65,625.5 Z " fill="#000000"/><text fill="#000000" font-family="sans-serif" font-size="12" lengthAdjust="spacing" textLength="125" x="849.35" y="633.9102">MultiLinearRegression</text><line style="stroke:#A80036;stroke-width:1.5;" x1="812" x2="984" y1="645" y2="645"/><line style="stroke:#A80036;stroke-width:1.5;" x1="812" x2="984" y1="653" y2="653"/><text fill="#000000" font-family="sans-serif" font-size="11" lengthAdjust="spacing" textLength="162" x="817" y="668.4189">+MultiLinearRegression(x1, x2, y)</text><!--MD5=[02e4b9b7573f1156f41e60aa5b4e25a4]
class Company--><rect codeLine="36" fill="#FEFECE" filter="url(#fit4oztaec0b6)" height="75.6719" id="Company" style="stroke:#A80036;stroke-width:1.5;" width="607" x="500.5" y="306.5"/><ellipse cx="773.25" cy="322.5" fill="#ADD1B2" rx="11" ry="11" style="stroke:#A80036;stroke-width:1.0;"/><path d="M775.25,319 Q775.4531,318.5 775.6875,318.25 Q775.9219,318 776.1875,318 Q776.6563,318 776.9531,318.2813 Q777.25,318.5625 777.25,319.2188 L777.25,320.7813 Q777.25,321.4375 776.9688,321.7188 Q776.6875,322 776.25,322 Q775.8594,322 775.6094,321.8281 Q775.3594,321.6563 775.25,321.2031 Q775.2031,320.8906 775.0313,320.7188 Q774.7188,320.3906 774.1563,320.2031 Q773.5938,320 773.0313,320 Q772.3281,320 771.7344,320.2813 Q771.1563,320.5625 770.7031,321.1875 Q770.25,321.8125 770.25,322.6719 L770.25,323.5938 Q770.25,324.625 771.0938,325.3125 Q771.9375,326 773.4375,326 Q774.3281,326 774.9531,325.7969 Q775.3125,325.6875 775.7188,325.3281 Q775.9844,325.125 776.125,325.0625 Q776.2656,325 776.4375,325 Q776.7656,325 777,325.2656 Q777.25,325.5156 777.25,325.875 Q777.25,326.2188 776.9063,326.625 Q776.4063,327.2188 775.6094,327.5469 Q774.5625,328 773.2813,328 Q771.7813,328 770.5781,327.4063 Q769.6094,326.9375 768.9219,325.9219 Q768.25,324.9063 768.25,323.7031 L768.25,322.6094 Q768.25,321.3594 768.8438,320.2656 Q769.4531,319.1719 770.5,318.5938 Q771.5625,318 772.75,318 Q773.4688,318 774.0938,318.25 Q774.7188,318.5 775.25,319 Z " fill="#000000"/><text fill="#000000" font-family="sans-serif" font-size="12" lengthAdjust="spacing" textLength="53" x="793.75" y="327.4102">Company</text><line style="stroke:#A80036;stroke-width:1.5;" x1="501.5" x2="1106.5" y1="338.5" y2="338.5"/><line style="stroke:#A80036;stroke-width:1.5;" x1="501.5" x2="1106.5" y1="346.5" y2="346.5"/><text fill="#000000" font-family="sans-serif" font-size="11" lengthAdjust="spacing" textLength="466" x="506.5" y="361.9189">+makeMultiLinearRegressionReport(historicalPoints, dateCurrentDay, dateInitalDay, dateDayFinal)</text><text fill="#000000" font-family="sans-serif" font-size="11" lengthAdjust="spacing" textLength="595" x="506.5" y="375.7549">+makeSimpleLinearRegressionReport(historicalPoints, dateCurrentDay, dateInitalDay, dateCurrentDayFinal, independentVar)</text><!--MD5=[906102cd9c3f86a843ffe169f50170bd]
class WriteReport--><rect codeLine="41" fill="#FEFECE" filter="url(#fit4oztaec0b6)" height="75.6719" id="WriteReport" style="stroke:#A80036;stroke-width:1.5;" width="435" x="586.5" y="470"/><ellipse cx="767.25" cy="486" fill="#ADD1B2" rx="11" ry="11" style="stroke:#A80036;stroke-width:1.0;"/><path d="M769.25,482.5 Q769.4531,482 769.6875,481.75 Q769.9219,481.5 770.1875,481.5 Q770.6563,481.5 770.9531,481.7813 Q771.25,482.0625 771.25,482.7188 L771.25,484.2813 Q771.25,484.9375 770.9688,485.2188 Q770.6875,485.5 770.25,485.5 Q769.8594,485.5 769.6094,485.3281 Q769.3594,485.1563 769.25,484.7031 Q769.2031,484.3906 769.0313,484.2188 Q768.7188,483.8906 768.1563,483.7031 Q767.5938,483.5 767.0313,483.5 Q766.3281,483.5 765.7344,483.7813 Q765.1563,484.0625 764.7031,484.6875 Q764.25,485.3125 764.25,486.1719 L764.25,487.0938 Q764.25,488.125 765.0938,488.8125 Q765.9375,489.5 767.4375,489.5 Q768.3281,489.5 768.9531,489.2969 Q769.3125,489.1875 769.7188,488.8281 Q769.9844,488.625 770.125,488.5625 Q770.2656,488.5 770.4375,488.5 Q770.7656,488.5 771,488.7656 Q771.25,489.0156 771.25,489.375 Q771.25,489.7188 770.9063,490.125 Q770.4063,490.7188 769.6094,491.0469 Q768.5625,491.5 767.2813,491.5 Q765.7813,491.5 764.5781,490.9063 Q763.6094,490.4375 762.9219,489.4219 Q762.25,488.4063 762.25,487.2031 L762.25,486.1094 Q762.25,484.8594 762.8438,483.7656 Q763.4531,482.6719 764.5,482.0938 Q765.5625,481.5 766.75,481.5 Q767.4688,481.5 768.0938,481.75 Q768.7188,482 769.25,482.5 Z " fill="#000000"/><text fill="#000000" font-family="sans-serif" font-size="12" lengthAdjust="spacing" textLength="65" x="787.75" y="490.9102">WriteReport</text><line style="stroke:#A80036;stroke-width:1.5;" x1="587.5" x2="1020.5" y1="502" y2="502"/><line style="stroke:#A80036;stroke-width:1.5;" x1="587.5" x2="1020.5" y1="510" y2="510"/><text fill="#000000" font-family="sans-serif" font-size="11" lengthAdjust="spacing" textLength="423" x="592.5" y="525.4189">+WriteReport(testStore, historicalPoints, currentDay, startRegression, finishRegression)</text><text fill="#000000" font-family="sans-serif" font-size="11" lengthAdjust="spacing" textLength="61" x="592.5" y="539.2549">+getReport()</text><!--MD5=[50d1a1cda746b645eed6e6c94f8696d0]
class ExternalModuleNhsReport--><rect codeLine="46" fill="#FEFECE" filter="url(#fit4oztaec0b6)" height="75.6719" id="ExternalModuleNhsReport" style="stroke:#A80036;stroke-width:1.5;" width="176" x="28" y="470"/><ellipse cx="43" cy="486" fill="#B4A7E5" rx="11" ry="11" style="stroke:#A80036;stroke-width:1.0;"/><path d="M44,483 L44,489 L46,489 L46.4844,489 L47,489.625 L47,490 L47,490.375 L46.4844,491 L46,491 L40,491 L39.5156,491 L39,490.375 L39,490 L39,489.625 L39.5156,489 L40,489 L42,489 L42,483 L40,483 L39.5156,483 L39,482.375 L39,482 L39,481.625 L39.5156,481 L40,481 L46,481 L46.4844,481 L47,481.625 L47,482 L47,482.375 L46.4844,483 L46,483 L44,483 Z " fill="#000000"/><text fill="#000000" font-family="sans-serif" font-size="12" font-style="italic" lengthAdjust="spacing" textLength="144" x="57" y="490.9102">ExternalModuleNhsReport</text><line style="stroke:#A80036;stroke-width:1.5;" x1="29" x2="203" y1="502" y2="502"/><line style="stroke:#A80036;stroke-width:1.5;" x1="29" x2="203" y1="510" y2="510"/><text fill="#000000" font-family="sans-serif" font-size="11" lengthAdjust="spacing" textLength="151" x="34" y="525.4189">+void sendReport(String string)</text><text fill="#000000" font-family="sans-serif" font-size="11" lengthAdjust="spacing" textLength="116" x="34" y="539.2549">+void getDateAndTime()</text><!--MD5=[b04e67341a4c9a11ab886afd8f3c3b68]
class ExternalModuleNhsReportAdapter--><rect codeLine="51" fill="#FEFECE" filter="url(#fit4oztaec0b6)" height="75.6719" id="ExternalModuleNhsReportAdapter" style="stroke:#A80036;stroke-width:1.5;" width="218" x="7" y="606"/><ellipse cx="22" cy="622" fill="#ADD1B2" rx="11" ry="11" style="stroke:#A80036;stroke-width:1.0;"/><path d="M24,618.5 Q24.2031,618 24.4375,617.75 Q24.6719,617.5 24.9375,617.5 Q25.4063,617.5 25.7031,617.7813 Q26,618.0625 26,618.7188 L26,620.2813 Q26,620.9375 25.7188,621.2188 Q25.4375,621.5 25,621.5 Q24.6094,621.5 24.3594,621.3281 Q24.1094,621.1563 24,620.7031 Q23.9531,620.3906 23.7813,620.2188 Q23.4688,619.8906 22.9063,619.7031 Q22.3438,619.5 21.7813,619.5 Q21.0781,619.5 20.4844,619.7813 Q19.9063,620.0625 19.4531,620.6875 Q19,621.3125 19,622.1719 L19,623.0938 Q19,624.125 19.8438,624.8125 Q20.6875,625.5 22.1875,625.5 Q23.0781,625.5 23.7031,625.2969 Q24.0625,625.1875 24.4688,624.8281 Q24.7344,624.625 24.875,624.5625 Q25.0156,624.5 25.1875,624.5 Q25.5156,624.5 25.75,624.7656 Q26,625.0156 26,625.375 Q26,625.7188 25.6563,626.125 Q25.1563,626.7188 24.3594,627.0469 Q23.3125,627.5 22.0313,627.5 Q20.5313,627.5 19.3281,626.9063 Q18.3594,626.4375 17.6719,625.4219 Q17,624.4063 17,623.2031 L17,622.1094 Q17,620.8594 17.5938,619.7656 Q18.2031,618.6719 19.25,618.0938 Q20.3125,617.5 21.5,617.5 Q22.2188,617.5 22.8438,617.75 Q23.4688,618 24,618.5 Z " fill="#000000"/><text fill="#000000" font-family="sans-serif" font-size="12" lengthAdjust="spacing" textLength="186" x="36" y="626.9102">ExternalModuleNhsReportAdapter</text><line style="stroke:#A80036;stroke-width:1.5;" x1="8" x2="224" y1="638" y2="638"/><line style="stroke:#A80036;stroke-width:1.5;" x1="8" x2="224" y1="646" y2="646"/><text fill="#000000" font-family="sans-serif" font-size="11" lengthAdjust="spacing" textLength="128" x="13" y="661.4189">+sendReport(String string)</text><text fill="#000000" font-family="sans-serif" font-size="11" lengthAdjust="spacing" textLength="93" x="13" y="675.2549">+getDateAndTime()</text><!--MD5=[fde5bf5e32ebd91aaa37566c2946746b]
class Report2NHS--><rect codeLine="56" fill="#FEFECE" filter="url(#fit4oztaec0b6)" height="61.8359" id="Report2NHS" style="stroke:#A80036;stroke-width:1.5;" width="175" x="28.5" y="742"/><ellipse cx="76.75" cy="758" fill="#ADD1B2" rx="11" ry="11" style="stroke:#A80036;stroke-width:1.0;"/><path d="M78.75,754.5 Q78.9531,754 79.1875,753.75 Q79.4219,753.5 79.6875,753.5 Q80.1563,753.5 80.4531,753.7813 Q80.75,754.0625 80.75,754.7188 L80.75,756.2813 Q80.75,756.9375 80.4688,757.2188 Q80.1875,757.5 79.75,757.5 Q79.3594,757.5 79.1094,757.3281 Q78.8594,757.1563 78.75,756.7031 Q78.7031,756.3906 78.5313,756.2188 Q78.2188,755.8906 77.6563,755.7031 Q77.0938,755.5 76.5313,755.5 Q75.8281,755.5 75.2344,755.7813 Q74.6563,756.0625 74.2031,756.6875 Q73.75,757.3125 73.75,758.1719 L73.75,759.0938 Q73.75,760.125 74.5938,760.8125 Q75.4375,761.5 76.9375,761.5 Q77.8281,761.5 78.4531,761.2969 Q78.8125,761.1875 79.2188,760.8281 Q79.4844,760.625 79.625,760.5625 Q79.7656,760.5 79.9375,760.5 Q80.2656,760.5 80.5,760.7656 Q80.75,761.0156 80.75,761.375 Q80.75,761.7188 80.4063,762.125 Q79.9063,762.7188 79.1094,763.0469 Q78.0625,763.5 76.7813,763.5 Q75.2813,763.5 74.0781,762.9063 Q73.1094,762.4375 72.4219,761.4219 Q71.75,760.4063 71.75,759.2031 L71.75,758.1094 Q71.75,756.8594 72.3438,755.7656 Q72.9531,754.6719 74,754.0938 Q75.0625,753.5 76.25,753.5 Q76.9688,753.5 77.5938,753.75 Q78.2188,754 78.75,754.5 Z " fill="#000000"/><text fill="#000000" font-family="sans-serif" font-size="12" lengthAdjust="spacing" textLength="70" x="97.25" y="762.9102">Report2NHS</text><line style="stroke:#A80036;stroke-width:1.5;" x1="29.5" x2="202.5" y1="774" y2="774"/><line style="stroke:#A80036;stroke-width:1.5;" x1="29.5" x2="202.5" y1="782" y2="782"/><text fill="#000000" font-family="sans-serif" font-size="11" lengthAdjust="spacing" textLength="163" x="34.5" y="797.4189">+writeUsingFileWriter(String data)</text><!--MD5=[a6b9d0cb7d359095f39f431614fcb2ea]
link DailyReportController to ExternalModuleNhsReport--><path codeLine="60" d="M116,382.55 C116,407.08 116,439.32 116,464.83 " fill="none" id="DailyReportController-to-ExternalModuleNhsReport" style="stroke:#A80036;stroke-width:1.0;stroke-dasharray:7.0,7.0;"/><polygon fill="#A80036" points="116,469.84,120,460.84,116,464.84,112,460.84,116,469.84" style="stroke:#A80036;stroke-width:1.0;"/><!--MD5=[3025a6d438ad784741aa5b80960293be]
reverse link Runnable to TimerTask--><path codeLine="61" d="M116,89.12 C116,102.14 116,116.08 116,128.78 " fill="none" id="Runnable-backto-TimerTask" style="stroke:#A80036;stroke-width:1.0;stroke-dasharray:7.0,7.0;"/><polygon fill="none" points="109,89.07,116,69.07,123,89.07,109,89.07" style="stroke:#A80036;stroke-width:1.0;"/><!--MD5=[0b134c2e1becc54666dbfd34b13f2719]
reverse link TimerTask to DailyReportController--><path codeLine="62" d="M116,239.31 C116,261.98 116,286.69 116,306.36 " fill="none" id="TimerTask-backto-DailyReportController" style="stroke:#A80036;stroke-width:1.0;"/><polygon fill="none" points="109,239.27,116,219.27,123,239.27,109,239.27" style="stroke:#A80036;stroke-width:1.0;"/><!--MD5=[b1ba615dc049e850c784c8fafd7ee281]
link DailyReportController to CreateNhsReportController--><path codeLine="63" d="M191.02,344.5 C201.07,344.5 211.13,344.5 221.18,344.5 " fill="none" id="DailyReportController-to-CreateNhsReportController" style="stroke:#A80036;stroke-width:1.0;stroke-dasharray:7.0,7.0;"/><polygon fill="#A80036" points="226.43,344.5,217.4415,340.4743,221.43,344.4857,217.4186,348.4743,226.43,344.5" style="stroke:#A80036;stroke-width:1.0;"/><!--MD5=[58e98d6077e17a28d81f499a370b687d]
link CreateNhsReportController to Company--><path codeLine="64" d="M465.87,344.5 C475.62,344.5 485.36,344.5 495.11,344.5 " fill="none" id="CreateNhsReportController-to-Company" style="stroke:#A80036;stroke-width:1.0;stroke-dasharray:7.0,7.0;"/><polygon fill="#A80036" points="500.21,344.5,491.21,340.5,495.21,344.5,491.21,348.5,500.21,344.5" style="stroke:#A80036;stroke-width:1.0;"/><!--MD5=[1d550e36a90861854eebfeae3bacd2a5]
link Company to WriteReport--><path codeLine="65" d="M804,382.55 C804,407.08 804,439.32 804,464.83 " fill="none" id="Company-to-WriteReport" style="stroke:#A80036;stroke-width:1.0;stroke-dasharray:7.0,7.0;"/><polygon fill="#A80036" points="804,469.84,808,460.84,804,464.84,800,460.84,804,469.84" style="stroke:#A80036;stroke-width:1.0;"/><!--MD5=[bc2c7d55cffe9294a45c49b39bc62740]
reverse link ExternalModuleNhsReport to ExternalModuleNhsReportAdapter--><path codeLine="66" d="M116,566.54 C116,579.86 116,593.69 116,605.87 " fill="none" id="ExternalModuleNhsReport-backto-ExternalModuleNhsReportAdapter" style="stroke:#A80036;stroke-width:1.0;stroke-dasharray:7.0,7.0;"/><polygon fill="none" points="109,566.33,116,546.33,123,566.33,109,566.33" style="stroke:#A80036;stroke-width:1.0;"/><!--MD5=[a8efa147a8cc977fd336ee3041b61649]
link ExternalModuleNhsReportAdapter to Report2NHS--><path codeLine="67" d="M116,682.08 C116,699.33 116,719.74 116,736.76 " fill="none" id="ExternalModuleNhsReportAdapter-to-Report2NHS" style="stroke:#A80036;stroke-width:1.0;"/><polygon fill="#A80036" points="116,741.93,120,732.93,116,736.93,112,732.93,116,741.93" style="stroke:#A80036;stroke-width:1.0;"/><!--MD5=[d9a9e5e677957b70dcfd0ec8d2ccd9b2]
link WriteReport to LinearRegression--><path codeLine="68" d="M777.82,546.33 C764.18,565.77 747.61,589.38 734.27,608.4 " fill="none" id="WriteReport-to-LinearRegression" style="stroke:#A80036;stroke-width:1.0;stroke-dasharray:7.0,7.0;"/><polygon fill="#A80036" points="731.3,612.64,739.7476,607.5766,734.175,608.5492,733.2024,602.9766,731.3,612.64" style="stroke:#A80036;stroke-width:1.0;"/><!--MD5=[6b376ca7614b88316936f98332ad4b74]
link WriteReport to MultiLinearRegression--><path codeLine="69" d="M830.18,546.33 C843.82,565.77 860.39,589.38 873.73,608.4 " fill="none" id="WriteReport-to-MultiLinearRegression" style="stroke:#A80036;stroke-width:1.0;stroke-dasharray:7.0,7.0;"/><polygon fill="#A80036" points="876.7,612.64,874.7976,602.9766,873.825,608.5492,868.2524,607.5766,876.7,612.64" style="stroke:#A80036;stroke-width:1.0;"/><!--MD5=[27498086c1405cec65457e50eecccef4]
@startuml

skinparam classAttributeIconSize 0

class DailyReportController {
+dailyReportTimer()
+run()
}

class CreateNhsReportController {
+setHistoricalPoints(historicalPoints)
+setCurrentDay(currentDay)
+setInitialDay(initialDay)
+setFinalDay(finalDay)
+setIndependentVariable(independentVariable)
+makeRegression()
}

interface Runnable {
+run()
}

abstract TimerTask {
+run()
+cancel()
+scheduleExecutionTime()
}

class LinearRegression {
+LinearRegression(x, y)
}

class MultiLinearRegression {
+MultiLinearRegression(x1, x2, y)
}

class Company {
+makeMultiLinearRegressionReport(historicalPoints, dateCurrentDay, dateInitalDay, dateDayFinal)
+makeSimpleLinearRegressionReport(historicalPoints, dateCurrentDay, dateInitalDay, dateCurrentDayFinal, independentVar)
}

class WriteReport {
+WriteReport(testStore, historicalPoints, currentDay, startRegression, finishRegression)
+getReport()
}

interface ExternalModuleNhsReport {
+void sendReport(String string)
+void getDateAndTime()
}

class ExternalModuleNhsReportAdapter {
+sendReport(String string)
+getDateAndTime()
}

class Report2NHS {
+writeUsingFileWriter(String data)
}

DailyReportController ..> ExternalModuleNhsReport
Runnable <|.. TimerTask
TimerTask <|- - DailyReportController
DailyReportController .> CreateNhsReportController
CreateNhsReportController .> Company
Company ..> WriteReport
ExternalModuleNhsReport <|.. ExternalModuleNhsReportAdapter
ExternalModuleNhsReportAdapter - -> Report2NHS
WriteReport ..> LinearRegression
WriteReport ..> MultiLinearRegression

@enduml

PlantUML version 1.2021.4(Sun Apr 04 09:49:39 BST 2021)
(GPL source distribution)
Java Runtime: OpenJDK Runtime Environment
JVM: OpenJDK 64-Bit Server VM
Default Encoding: Cp1252
Language: en
Country: US
--></g></svg>