<?xml version="1.0" encoding="UTF-8" standalone="no"?><svg xmlns="http://www.w3.org/2000/svg" xmlns:xlink="http://www.w3.org/1999/xlink" contentScriptType="application/ecmascript" contentStyleType="text/css" height="756px" preserveAspectRatio="none" style="width:1220px;height:756px;" version="1.1" viewBox="0 0 1220 756" width="1220px" zoomAndPan="magnify"><defs><filter height="300%" id="f146hd3s351tok" width="300%" x="-1" y="-1"><feGaussianBlur result="blurOut" stdDeviation="2.0"/><feColorMatrix in="blurOut" result="blurOut2" type="matrix" values="0 0 0 0 0 0 0 0 0 0 0 0 0 0 0 0 0 0 .4 0"/><feOffset dx="4.0" dy="4.0" in="blurOut2" result="blurOut3"/><feBlend in="SourceGraphic" in2="blurOut3" mode="normal"/></filter></defs><g><rect fill="#FFFFFF" filter="url(#f146hd3s351tok)" height="518.3828" style="stroke:#A80036;stroke-width:1.0;" width="10" x="59" y="117.2188"/><rect fill="#FFFFFF" filter="url(#f146hd3s351tok)" height="30" style="stroke:#A80036;stroke-width:1.0;" width="10" x="206" y="186.1797"/><rect fill="#FFFFFF" filter="url(#f146hd3s351tok)" height="30.3516" style="stroke:#A80036;stroke-width:1.0;" width="10" x="206" y="286.8828"/><rect fill="#FFFFFF" filter="url(#f146hd3s351tok)" height="98.9609" style="stroke:#A80036;stroke-width:1.0;" width="10" x="418" y="117.2188"/><rect fill="#FFFFFF" filter="url(#f146hd3s351tok)" height="318.3672" style="stroke:#A80036;stroke-width:1.0;" width="10" x="418" y="317.2344"/><rect fill="#FFFFFF" filter="url(#f146hd3s351tok)" height="30" style="stroke:#A80036;stroke-width:1.0;" width="10" x="544" y="347.5859"/><rect fill="#FFFFFF" filter="url(#f146hd3s351tok)" height="30" style="stroke:#A80036;stroke-width:1.0;" width="10" x="682" y="454.5469"/><rect fill="#FFFFFF" filter="url(#f146hd3s351tok)" height="30" style="stroke:#A80036;stroke-width:1.0;" width="10" x="682" y="514.8984"/><rect fill="#FFFFFF" filter="url(#f146hd3s351tok)" height="60.3516" style="stroke:#A80036;stroke-width:1.0;" width="10" x="872" y="575.25"/><rect fill="#FFFFFF" filter="url(#f146hd3s351tok)" height="30" style="stroke:#A80036;stroke-width:1.0;" width="10" x="1089" y="605.6016"/><line style="stroke:#A80036;stroke-width:1.0;stroke-dasharray:5.0,5.0;" x1="64" x2="64" y1="107.2188" y2="653.6016"/><line style="stroke:#A80036;stroke-width:1.0;stroke-dasharray:5.0,5.0;" x1="210.5" x2="210.5" y1="150.5234" y2="653.6016"/><line style="stroke:#A80036;stroke-width:1.0;stroke-dasharray:5.0,5.0;" x1="423" x2="423" y1="107.2188" y2="653.6016"/><line style="stroke:#A80036;stroke-width:1.0;stroke-dasharray:5.0,5.0;" x1="549" x2="549" y1="107.2188" y2="653.6016"/><line style="stroke:#A80036;stroke-width:1.0;stroke-dasharray:5.0,5.0;" x1="687" x2="687" y1="418.8906" y2="653.6016"/><line style="stroke:#A80036;stroke-width:1.0;stroke-dasharray:5.0,5.0;" x1="877" x2="877" y1="107.2188" y2="653.6016"/><line style="stroke:#A80036;stroke-width:1.0;stroke-dasharray:5.0,5.0;" x1="1094" x2="1094" y1="107.2188" y2="653.6016"/><text fill="#000000" font-family="sans-serif" font-size="14" lengthAdjust="spacing" textLength="50" x="36" y="86.5332">:System</text><text fill="#000000" font-family="sans-serif" font-size="14" lengthAdjust="spacing" textLength="39" x="43.5" y="104.1426">Clock:</text><ellipse cx="64" cy="15" fill="#FEFECE" filter="url(#f146hd3s351tok)" rx="8" ry="8" style="stroke:#A80036;stroke-width:2.0;"/><path d="M64,23 L64,50 M51,31 L77,31 M64,50 L51,65 M64,50 L77,65 " fill="none" filter="url(#f146hd3s351tok)" style="stroke:#A80036;stroke-width:2.0;"/><text fill="#000000" font-family="sans-serif" font-size="14" lengthAdjust="spacing" textLength="50" x="36" y="667.1348">:System</text><text fill="#000000" font-family="sans-serif" font-size="14" lengthAdjust="spacing" textLength="39" x="43.5" y="684.7441">Clock:</text><ellipse cx="64" cy="697.8203" fill="#FEFECE" filter="url(#f146hd3s351tok)" rx="8" ry="8" style="stroke:#A80036;stroke-width:2.0;"/><path d="M64,705.8203 L64,732.8203 M51,713.8203 L77,713.8203 M64,732.8203 L51,747.8203 M64,732.8203 L77,747.8203 " fill="none" filter="url(#f146hd3s351tok)" style="stroke:#A80036;stroke-width:2.0;"/><rect fill="#FEFECE" filter="url(#f146hd3s351tok)" height="31.6094" style="stroke:#A80036;stroke-width:1.5;" width="93" x="162.5" y="652.6016"/><text fill="#000000" font-family="sans-serif" font-size="14" lengthAdjust="spacing" textLength="79" x="169.5" y="674.1348">timer : Timer</text><rect fill="#FEFECE" filter="url(#f146hd3s351tok)" height="31.6094" style="stroke:#A80036;stroke-width:1.5;" width="150" x="346" y="70.6094"/><text fill="#000000" font-family="sans-serif" font-size="14" lengthAdjust="spacing" textLength="136" x="353" y="92.1426">DailyReportController</text><rect fill="#FEFECE" filter="url(#f146hd3s351tok)" height="31.6094" style="stroke:#A80036;stroke-width:1.5;" width="150" x="346" y="652.6016"/><text fill="#000000" font-family="sans-serif" font-size="14" lengthAdjust="spacing" textLength="136" x="353" y="674.1348">DailyReportController</text><rect fill="#FEFECE" filter="url(#f146hd3s351tok)" height="31.6094" style="stroke:#A80036;stroke-width:1.5;" width="74" x="510" y="70.6094"/><text fill="#000000" font-family="sans-serif" font-size="14" lengthAdjust="spacing" textLength="60" x="517" y="92.1426">Company</text><rect fill="#FEFECE" filter="url(#f146hd3s351tok)" height="31.6094" style="stroke:#A80036;stroke-width:1.5;" width="74" x="510" y="652.6016"/><text fill="#000000" font-family="sans-serif" font-size="14" lengthAdjust="spacing" textLength="60" x="517" y="674.1348">Company</text><rect fill="#FEFECE" filter="url(#f146hd3s351tok)" height="31.6094" style="stroke:#A80036;stroke-width:1.5;" width="174" x="598" y="652.6016"/><text fill="#000000" font-family="sans-serif" font-size="14" lengthAdjust="spacing" textLength="160" x="605" y="674.1348">writeReport : WriteReport</text><rect fill="#FEFECE" filter="url(#f146hd3s351tok)" height="31.6094" style="stroke:#A80036;stroke-width:1.5;" width="178" x="786" y="70.6094"/><text fill="#000000" font-family="sans-serif" font-size="14" lengthAdjust="spacing" textLength="164" x="793" y="92.1426">ExternalModuleNhsReport</text><rect fill="#FEFECE" filter="url(#f146hd3s351tok)" height="31.6094" style="stroke:#A80036;stroke-width:1.5;" width="178" x="786" y="652.6016"/><text fill="#000000" font-family="sans-serif" font-size="14" lengthAdjust="spacing" textLength="164" x="793" y="674.1348">ExternalModuleNhsReport</text><rect fill="#FEFECE" filter="url(#f146hd3s351tok)" height="31.6094" style="stroke:#A80036;stroke-width:1.5;" width="228" x="978" y="70.6094"/><text fill="#000000" font-family="sans-serif" font-size="14" lengthAdjust="spacing" textLength="214" x="985" y="92.1426">ExternalModuleNhsReportAdapter</text><rect fill="#FEFECE" filter="url(#f146hd3s351tok)" height="31.6094" style="stroke:#A80036;stroke-width:1.5;" width="228" x="978" y="652.6016"/><text fill="#000000" font-family="sans-serif" font-size="14" lengthAdjust="spacing" textLength="214" x="985" y="674.1348">ExternalModuleNhsReportAdapter</text><rect fill="#FFFFFF" filter="url(#f146hd3s351tok)" height="518.3828" style="stroke:#A80036;stroke-width:1.0;" width="10" x="59" y="117.2188"/><rect fill="#FFFFFF" filter="url(#f146hd3s351tok)" height="30" style="stroke:#A80036;stroke-width:1.0;" width="10" x="206" y="186.1797"/><rect fill="#FFFFFF" filter="url(#f146hd3s351tok)" height="30.3516" style="stroke:#A80036;stroke-width:1.0;" width="10" x="206" y="286.8828"/><rect fill="#FFFFFF" filter="url(#f146hd3s351tok)" height="98.9609" style="stroke:#A80036;stroke-width:1.0;" width="10" x="418" y="117.2188"/><rect fill="#FFFFFF" filter="url(#f146hd3s351tok)" height="318.3672" style="stroke:#A80036;stroke-width:1.0;" width="10" x="418" y="317.2344"/><rect fill="#FFFFFF" filter="url(#f146hd3s351tok)" height="30" style="stroke:#A80036;stroke-width:1.0;" width="10" x="544" y="347.5859"/><rect fill="#FFFFFF" filter="url(#f146hd3s351tok)" height="30" style="stroke:#A80036;stroke-width:1.0;" width="10" x="682" y="454.5469"/><rect fill="#FFFFFF" filter="url(#f146hd3s351tok)" height="30" style="stroke:#A80036;stroke-width:1.0;" width="10" x="682" y="514.8984"/><rect fill="#FFFFFF" filter="url(#f146hd3s351tok)" height="60.3516" style="stroke:#A80036;stroke-width:1.0;" width="10" x="872" y="575.25"/><rect fill="#FFFFFF" filter="url(#f146hd3s351tok)" height="30" style="stroke:#A80036;stroke-width:1.0;" width="10" x="1089" y="605.6016"/><polygon fill="#A80036" points="270.5,135.5703,260.5,139.5703,270.5,143.5703,266.5,139.5703" style="stroke:#A80036;stroke-width:1.0;"/><line style="stroke:#A80036;stroke-width:1.0;stroke-dasharray:2.0,2.0;" x1="264.5" x2="417" y1="139.5703" y2="139.5703"/><text fill="#000000" font-family="sans-serif" font-size="13" font-weight="bold" lengthAdjust="spacing" textLength="7" x="276.5" y="134.7139">1</text><text fill="#000000" font-family="sans-serif" font-size="13" lengthAdjust="spacing" textLength="44" x="287.5" y="134.7139">create()</text><rect fill="#FEFECE" filter="url(#f146hd3s351tok)" height="31.6094" style="stroke:#A80036;stroke-width:1.5;" width="93" x="162.5" y="117.2188"/><text fill="#000000" font-family="sans-serif" font-size="14" lengthAdjust="spacing" textLength="79" x="169.5" y="138.752">timer : Timer</text><polygon fill="#A80036" points="227,182.1797,217,186.1797,227,190.1797,223,186.1797" style="stroke:#A80036;stroke-width:1.0;"/><line style="stroke:#A80036;stroke-width:1.0;" x1="221" x2="417" y1="186.1797" y2="186.1797"/><text fill="#000000" font-family="sans-serif" font-size="13" font-weight="bold" lengthAdjust="spacing" textLength="7" x="233" y="181.3232">2</text><text fill="#000000" font-family="sans-serif" font-size="13" lengthAdjust="spacing" textLength="172" x="244" y="181.3232">schedule(task, delay, interval)</text><path d="M5,229.1797 L5,255.1797 L414,255.1797 L414,239.1797 L404,229.1797 L5,229.1797 " fill="#FBFB77" filter="url(#f146hd3s351tok)" style="stroke:#A80036;stroke-width:1.0;"/><path d="M404,229.1797 L404,239.1797 L414,239.1797 L404,229.1797 " fill="#FBFB77" style="stroke:#A80036;stroke-width:1.0;"/><text fill="#000000" font-family="sans-serif" font-size="13" lengthAdjust="spacing" textLength="388" x="11" y="247.6748">Clock will trigger at 6.00 am, executing the daily report functionality</text><polygon fill="#A80036" points="194,282.8828,204,286.8828,194,290.8828,198,286.8828" style="stroke:#A80036;stroke-width:1.0;"/><line style="stroke:#A80036;stroke-width:1.0;" x1="69" x2="200" y1="286.8828" y2="286.8828"/><text fill="#000000" font-family="sans-serif" font-size="13" font-weight="bold" lengthAdjust="spacing" textLength="7" x="76" y="282.0264">3</text><text fill="#000000" font-family="sans-serif" font-size="13" lengthAdjust="spacing" textLength="107" x="87" y="282.0264">clock hits 6:00 am</text><polygon fill="#A80036" points="406,313.2344,416,317.2344,406,321.2344,410,317.2344" style="stroke:#A80036;stroke-width:1.0;"/><line style="stroke:#A80036;stroke-width:1.0;" x1="211" x2="412" y1="317.2344" y2="317.2344"/><text fill="#000000" font-family="sans-serif" font-size="13" font-weight="bold" lengthAdjust="spacing" textLength="7" x="218" y="312.3779">4</text><text fill="#000000" font-family="sans-serif" font-size="13" lengthAdjust="spacing" textLength="26" x="229" y="312.3779">run()</text><polygon fill="#A80036" points="532,343.5859,542,347.5859,532,351.5859,536,347.5859" style="stroke:#A80036;stroke-width:1.0;"/><line style="stroke:#A80036;stroke-width:1.0;" x1="428" x2="538" y1="347.5859" y2="347.5859"/><text fill="#000000" font-family="sans-serif" font-size="13" font-weight="bold" lengthAdjust="spacing" textLength="7" x="435" y="342.7295">5</text><text fill="#000000" font-family="sans-serif" font-size="13" lengthAdjust="spacing" textLength="0" x="450" y="342.7295"/><polygon fill="#A80036" points="586,403.9375,596,407.9375,586,411.9375,590,407.9375" style="stroke:#A80036;stroke-width:1.0;"/><line style="stroke:#A80036;stroke-width:1.0;" x1="428" x2="592" y1="407.9375" y2="407.9375"/><text fill="#000000" font-family="sans-serif" font-size="13" font-weight="bold" lengthAdjust="spacing" textLength="7" x="435" y="403.0811">6</text><text fill="#000000" font-family="sans-serif" font-size="13" lengthAdjust="spacing" textLength="44" x="446" y="403.0811">create()</text><rect fill="#FEFECE" filter="url(#f146hd3s351tok)" height="31.6094" style="stroke:#A80036;stroke-width:1.5;" width="174" x="598" y="385.5859"/><text fill="#000000" font-family="sans-serif" font-size="14" lengthAdjust="spacing" textLength="160" x="605" y="407.1191">writeReport : WriteReport</text><polygon fill="#A80036" points="670,450.5469,680,454.5469,670,458.5469,674,454.5469" style="stroke:#A80036;stroke-width:1.0;"/><line style="stroke:#A80036;stroke-width:1.0;" x1="428" x2="676" y1="454.5469" y2="454.5469"/><text fill="#000000" font-family="sans-serif" font-size="13" font-weight="bold" lengthAdjust="spacing" textLength="7" x="435" y="449.6904">7</text><text fill="#000000" font-family="sans-serif" font-size="13" lengthAdjust="spacing" textLength="77" x="446" y="449.6904">WriteReport()</text><polygon fill="#A80036" points="670,510.8984,680,514.8984,670,518.8984,674,514.8984" style="stroke:#A80036;stroke-width:1.0;"/><line style="stroke:#A80036;stroke-width:1.0;" x1="428" x2="676" y1="514.8984" y2="514.8984"/><text fill="#000000" font-family="sans-serif" font-size="13" font-weight="bold" lengthAdjust="spacing" textLength="7" x="435" y="510.042">8</text><text fill="#000000" font-family="sans-serif" font-size="13" lengthAdjust="spacing" textLength="113" x="446" y="510.042">report = getReport()</text><polygon fill="#A80036" points="860,571.25,870,575.25,860,579.25,864,575.25" style="stroke:#A80036;stroke-width:1.0;"/><line style="stroke:#A80036;stroke-width:1.0;" x1="428" x2="866" y1="575.25" y2="575.25"/><text fill="#000000" font-family="sans-serif" font-size="13" font-weight="bold" lengthAdjust="spacing" textLength="7" x="435" y="570.3936">9</text><text fill="#000000" font-family="sans-serif" font-size="13" lengthAdjust="spacing" textLength="107" x="446" y="570.3936">sendReport(report)</text><polygon fill="#A80036" points="1077,601.6016,1087,605.6016,1077,609.6016,1081,605.6016" style="stroke:#A80036;stroke-width:1.0;"/><line style="stroke:#A80036;stroke-width:1.0;" x1="882" x2="1083" y1="605.6016" y2="605.6016"/><text fill="#000000" font-family="sans-serif" font-size="13" font-weight="bold" lengthAdjust="spacing" textLength="14" x="889" y="600.7451">10</text><text fill="#000000" font-family="sans-serif" font-size="13" lengthAdjust="spacing" textLength="106" x="907" y="600.7451">sendReport(string)</text><!--MD5=[930ab77b152bca449fa621d575e4894d]
@startuml

autonumber

actor ":System\n Clock:" as Clock
participant "timer : Timer" as timer
participant DailyReportController as controller
participant Company as company
participant "writeReport : WriteReport" as writereport
participant ExternalModuleNhsReport as interface
participant ExternalModuleNhsReportAdapter as adapter

activate Clock
activate controller
create timer
controller - -> timer : create()
controller -> timer : schedule(task, delay, interval)
activate timer
deactivate controller
deactivate timer

note over timer : Clock will trigger at 6.00 am, executing the daily report functionality

Clock -> timer : clock hits 6:00 am
activate timer
timer -> controller : run()
deactivate timer
activate controller

controller -> company
activate company
deactivate company

create writereport
controller -> writereport : create()
controller -> writereport : WriteReport()
activate writereport
deactivate writereport
controller -> writereport : report = getReport()
activate writereport
deactivate writereport

controller -> interface : sendReport(report)
activate interface
interface -> adapter : sendReport(string)
activate adapter
deactivate interface
deactivate adapter
deactivate controller

deactivate Clock

@enduml

PlantUML version 1.2021.4(Sun Apr 04 09:49:39 BST 2021)
(GPL source distribution)
Java Runtime: OpenJDK Runtime Environment
JVM: OpenJDK 64-Bit Server VM
Default Encoding: Cp1252
Language: en
Country: US
--></g></svg>